%TF.GenerationSoftware,KiCad,Pcbnew,7.0.8*%
%TF.CreationDate,2024-03-05T23:25:32+02:00*%
%TF.ProjectId,JLC4_RoboChalangeBoards,4a4c4334-5f52-46f6-926f-4368616c616e,rev?*%
%TF.SameCoordinates,Original*%
%TF.FileFunction,Paste,Bot*%
%TF.FilePolarity,Positive*%
%FSLAX46Y46*%
G04 Gerber Fmt 4.6, Leading zero omitted, Abs format (unit mm)*
G04 Created by KiCad (PCBNEW 7.0.8) date 2024-03-05 23:25:32*
%MOMM*%
%LPD*%
G01*
G04 APERTURE LIST*
G04 Aperture macros list*
%AMRoundRect*
0 Rectangle with rounded corners*
0 $1 Rounding radius*
0 $2 $3 $4 $5 $6 $7 $8 $9 X,Y pos of 4 corners*
0 Add a 4 corners polygon primitive as box body*
4,1,4,$2,$3,$4,$5,$6,$7,$8,$9,$2,$3,0*
0 Add four circle primitives for the rounded corners*
1,1,$1+$1,$2,$3*
1,1,$1+$1,$4,$5*
1,1,$1+$1,$6,$7*
1,1,$1+$1,$8,$9*
0 Add four rect primitives between the rounded corners*
20,1,$1+$1,$2,$3,$4,$5,0*
20,1,$1+$1,$4,$5,$6,$7,0*
20,1,$1+$1,$6,$7,$8,$9,0*
20,1,$1+$1,$8,$9,$2,$3,0*%
G04 Aperture macros list end*
%ADD10RoundRect,0.250000X-0.337500X-0.475000X0.337500X-0.475000X0.337500X0.475000X-0.337500X0.475000X0*%
%ADD11RoundRect,0.250000X-0.625000X0.400000X-0.625000X-0.400000X0.625000X-0.400000X0.625000X0.400000X0*%
%ADD12RoundRect,0.250000X-0.475000X0.337500X-0.475000X-0.337500X0.475000X-0.337500X0.475000X0.337500X0*%
%ADD13RoundRect,0.250000X0.625000X-0.400000X0.625000X0.400000X-0.625000X0.400000X-0.625000X-0.400000X0*%
%ADD14RoundRect,0.250000X-1.050000X-0.550000X1.050000X-0.550000X1.050000X0.550000X-1.050000X0.550000X0*%
%ADD15R,1.560000X0.650000*%
%ADD16RoundRect,0.250000X1.000000X0.650000X-1.000000X0.650000X-1.000000X-0.650000X1.000000X-0.650000X0*%
%ADD17RoundRect,0.250000X0.412500X1.100000X-0.412500X1.100000X-0.412500X-1.100000X0.412500X-1.100000X0*%
%ADD18R,1.500000X1.000000*%
%ADD19R,1.800000X1.000000*%
%ADD20R,3.700000X2.200000*%
G04 APERTURE END LIST*
D10*
%TO.C,C4*%
X96392500Y-100980000D03*
X98467500Y-100980000D03*
%TD*%
D11*
%TO.C,R2*%
X112016000Y-102490000D03*
X112016000Y-105590000D03*
%TD*%
D12*
%TO.C,C2*%
X87130000Y-100902500D03*
X87130000Y-102977500D03*
%TD*%
D13*
%TO.C,R1*%
X112016000Y-100290000D03*
X112016000Y-97190000D03*
%TD*%
D11*
%TO.C,R3*%
X114716000Y-102490000D03*
X114716000Y-105590000D03*
%TD*%
D14*
%TO.C,C3*%
X117716000Y-97590000D03*
X121316000Y-97590000D03*
%TD*%
D10*
%TO.C,C1*%
X105016100Y-105695200D03*
X107091100Y-105695200D03*
%TD*%
D15*
%TO.C,U1*%
X84917600Y-101697200D03*
X84917600Y-102647200D03*
X84917600Y-103597200D03*
X82217600Y-103597200D03*
X82217600Y-102647200D03*
X82217600Y-101697200D03*
%TD*%
D10*
%TO.C,C4*%
X118878500Y-100980000D03*
X120953500Y-100980000D03*
%TD*%
D11*
%TO.C,R4*%
X92230000Y-97190000D03*
X92230000Y-100290000D03*
%TD*%
%TO.C,R3*%
X92230000Y-102490000D03*
X92230000Y-105590000D03*
%TD*%
D16*
%TO.C,D1*%
X109216000Y-98040000D03*
X105216000Y-98040000D03*
%TD*%
D15*
%TO.C,U1*%
X107403600Y-101697200D03*
X107403600Y-102647200D03*
X107403600Y-103597200D03*
X104703600Y-103597200D03*
X104703600Y-102647200D03*
X104703600Y-101697200D03*
%TD*%
D13*
%TO.C,R1*%
X89530000Y-100290000D03*
X89530000Y-97190000D03*
%TD*%
D14*
%TO.C,C3*%
X95230000Y-97590000D03*
X98830000Y-97590000D03*
%TD*%
D17*
%TO.C,C5*%
X102582500Y-145265000D03*
X99457500Y-145265000D03*
%TD*%
D16*
%TO.C,D1*%
X86730000Y-98040000D03*
X82730000Y-98040000D03*
%TD*%
D11*
%TO.C,R4*%
X114716000Y-97190000D03*
X114716000Y-100290000D03*
%TD*%
D18*
%TO.C,U1*%
X99460000Y-142605000D03*
D19*
X99610000Y-141105000D03*
D20*
X102360000Y-141105000D03*
D18*
X99460000Y-139605000D03*
%TD*%
D10*
%TO.C,C1*%
X82530100Y-105695200D03*
X84605100Y-105695200D03*
%TD*%
D17*
%TO.C,C3*%
X102592500Y-136775000D03*
X99467500Y-136775000D03*
%TD*%
D11*
%TO.C,R2*%
X89530000Y-102490000D03*
X89530000Y-105590000D03*
%TD*%
D12*
%TO.C,C2*%
X109616000Y-100902500D03*
X109616000Y-102977500D03*
%TD*%
M02*
