%TF.GenerationSoftware,KiCad,Pcbnew,7.0.8*%
%TF.CreationDate,2024-03-05T23:25:32+02:00*%
%TF.ProjectId,JLC4_RoboChalangeBoards,4a4c4334-5f52-46f6-926f-4368616c616e,rev?*%
%TF.SameCoordinates,Original*%
%TF.FileFunction,Copper,L2,Bot*%
%TF.FilePolarity,Positive*%
%FSLAX46Y46*%
G04 Gerber Fmt 4.6, Leading zero omitted, Abs format (unit mm)*
G04 Created by KiCad (PCBNEW 7.0.8) date 2024-03-05 23:25:32*
%MOMM*%
%LPD*%
G01*
G04 APERTURE LIST*
G04 Aperture macros list*
%AMRoundRect*
0 Rectangle with rounded corners*
0 $1 Rounding radius*
0 $2 $3 $4 $5 $6 $7 $8 $9 X,Y pos of 4 corners*
0 Add a 4 corners polygon primitive as box body*
4,1,4,$2,$3,$4,$5,$6,$7,$8,$9,$2,$3,0*
0 Add four circle primitives for the rounded corners*
1,1,$1+$1,$2,$3*
1,1,$1+$1,$4,$5*
1,1,$1+$1,$6,$7*
1,1,$1+$1,$8,$9*
0 Add four rect primitives between the rounded corners*
20,1,$1+$1,$2,$3,$4,$5,0*
20,1,$1+$1,$4,$5,$6,$7,0*
20,1,$1+$1,$6,$7,$8,$9,0*
20,1,$1+$1,$8,$9,$2,$3,0*%
G04 Aperture macros list end*
%ADD10C,0.325000*%
%TA.AperFunction,NonConductor*%
%ADD11C,0.325000*%
%TD*%
%TA.AperFunction,ComponentPad*%
%ADD12R,1.700000X1.700000*%
%TD*%
%TA.AperFunction,ComponentPad*%
%ADD13O,1.700000X1.700000*%
%TD*%
%TA.AperFunction,ComponentPad*%
%ADD14C,2.000000*%
%TD*%
%TA.AperFunction,ComponentPad*%
%ADD15O,3.500000X2.200000*%
%TD*%
%TA.AperFunction,ComponentPad*%
%ADD16R,2.500000X1.500000*%
%TD*%
%TA.AperFunction,ComponentPad*%
%ADD17O,2.500000X1.500000*%
%TD*%
%TA.AperFunction,ComponentPad*%
%ADD18R,2.000000X2.000000*%
%TD*%
%TA.AperFunction,ComponentPad*%
%ADD19O,2.000000X2.000000*%
%TD*%
%TA.AperFunction,ComponentPad*%
%ADD20O,2.200000X3.500000*%
%TD*%
%TA.AperFunction,ComponentPad*%
%ADD21R,1.500000X2.500000*%
%TD*%
%TA.AperFunction,ComponentPad*%
%ADD22O,1.500000X2.500000*%
%TD*%
%TA.AperFunction,SMDPad,CuDef*%
%ADD23RoundRect,0.250000X-0.337500X-0.475000X0.337500X-0.475000X0.337500X0.475000X-0.337500X0.475000X0*%
%TD*%
%TA.AperFunction,SMDPad,CuDef*%
%ADD24RoundRect,0.250000X-0.625000X0.400000X-0.625000X-0.400000X0.625000X-0.400000X0.625000X0.400000X0*%
%TD*%
%TA.AperFunction,SMDPad,CuDef*%
%ADD25RoundRect,0.250000X-0.475000X0.337500X-0.475000X-0.337500X0.475000X-0.337500X0.475000X0.337500X0*%
%TD*%
%TA.AperFunction,SMDPad,CuDef*%
%ADD26RoundRect,0.250000X0.625000X-0.400000X0.625000X0.400000X-0.625000X0.400000X-0.625000X-0.400000X0*%
%TD*%
%TA.AperFunction,SMDPad,CuDef*%
%ADD27RoundRect,0.250000X-1.050000X-0.550000X1.050000X-0.550000X1.050000X0.550000X-1.050000X0.550000X0*%
%TD*%
%TA.AperFunction,SMDPad,CuDef*%
%ADD28R,1.560000X0.650000*%
%TD*%
%TA.AperFunction,SMDPad,CuDef*%
%ADD29RoundRect,0.250000X1.000000X0.650000X-1.000000X0.650000X-1.000000X-0.650000X1.000000X-0.650000X0*%
%TD*%
%TA.AperFunction,SMDPad,CuDef*%
%ADD30RoundRect,0.250000X0.412500X1.100000X-0.412500X1.100000X-0.412500X-1.100000X0.412500X-1.100000X0*%
%TD*%
%TA.AperFunction,SMDPad,CuDef*%
%ADD31R,1.500000X1.000000*%
%TD*%
%TA.AperFunction,SMDPad,CuDef*%
%ADD32R,1.800000X1.000000*%
%TD*%
%TA.AperFunction,SMDPad,CuDef*%
%ADD33R,3.700000X2.200000*%
%TD*%
%TA.AperFunction,ViaPad*%
%ADD34C,0.800000*%
%TD*%
%TA.AperFunction,ViaPad*%
%ADD35C,0.600000*%
%TD*%
%TA.AperFunction,ViaPad*%
%ADD36C,0.500000*%
%TD*%
%TA.AperFunction,ViaPad*%
%ADD37C,1.000000*%
%TD*%
%TA.AperFunction,Conductor*%
%ADD38C,0.500000*%
%TD*%
%TA.AperFunction,Conductor*%
%ADD39C,0.400000*%
%TD*%
%TA.AperFunction,Conductor*%
%ADD40C,0.900000*%
%TD*%
%TA.AperFunction,Conductor*%
%ADD41C,1.000000*%
%TD*%
%TA.AperFunction,Conductor*%
%ADD42C,0.700000*%
%TD*%
G04 APERTURE END LIST*
D10*
D11*
X73540178Y-50224504D02*
X72797321Y-50224504D01*
X73168749Y-51524504D02*
X73168749Y-50224504D01*
D10*
D11*
X72519226Y-52014504D02*
X72519226Y-50714504D01*
X71776369Y-52014504D02*
X72333511Y-51271647D01*
X71776369Y-50714504D02*
X72519226Y-51457361D01*
D10*
D11*
X70603510Y-51604504D02*
X71346367Y-51604504D01*
X70974939Y-51604504D02*
X70974939Y-50304504D01*
X70974939Y-50304504D02*
X71098748Y-50490219D01*
X71098748Y-50490219D02*
X71222558Y-50614028D01*
X71222558Y-50614028D02*
X71346367Y-50675933D01*
X69798749Y-50304504D02*
X69674939Y-50304504D01*
X69674939Y-50304504D02*
X69551130Y-50366409D01*
X69551130Y-50366409D02*
X69489225Y-50428314D01*
X69489225Y-50428314D02*
X69427320Y-50552123D01*
X69427320Y-50552123D02*
X69365415Y-50799742D01*
X69365415Y-50799742D02*
X69365415Y-51109266D01*
X69365415Y-51109266D02*
X69427320Y-51356885D01*
X69427320Y-51356885D02*
X69489225Y-51480695D01*
X69489225Y-51480695D02*
X69551130Y-51542600D01*
X69551130Y-51542600D02*
X69674939Y-51604504D01*
X69674939Y-51604504D02*
X69798749Y-51604504D01*
X69798749Y-51604504D02*
X69922558Y-51542600D01*
X69922558Y-51542600D02*
X69984463Y-51480695D01*
X69984463Y-51480695D02*
X70046368Y-51356885D01*
X70046368Y-51356885D02*
X70108272Y-51109266D01*
X70108272Y-51109266D02*
X70108272Y-50799742D01*
X70108272Y-50799742D02*
X70046368Y-50552123D01*
X70046368Y-50552123D02*
X69984463Y-50428314D01*
X69984463Y-50428314D02*
X69922558Y-50366409D01*
X69922558Y-50366409D02*
X69798749Y-50304504D01*
X68560654Y-50304504D02*
X68436844Y-50304504D01*
X68436844Y-50304504D02*
X68313035Y-50366409D01*
X68313035Y-50366409D02*
X68251130Y-50428314D01*
X68251130Y-50428314D02*
X68189225Y-50552123D01*
X68189225Y-50552123D02*
X68127320Y-50799742D01*
X68127320Y-50799742D02*
X68127320Y-51109266D01*
X68127320Y-51109266D02*
X68189225Y-51356885D01*
X68189225Y-51356885D02*
X68251130Y-51480695D01*
X68251130Y-51480695D02*
X68313035Y-51542600D01*
X68313035Y-51542600D02*
X68436844Y-51604504D01*
X68436844Y-51604504D02*
X68560654Y-51604504D01*
X68560654Y-51604504D02*
X68684463Y-51542600D01*
X68684463Y-51542600D02*
X68746368Y-51480695D01*
X68746368Y-51480695D02*
X68808273Y-51356885D01*
X68808273Y-51356885D02*
X68870177Y-51109266D01*
X68870177Y-51109266D02*
X68870177Y-50799742D01*
X68870177Y-50799742D02*
X68808273Y-50552123D01*
X68808273Y-50552123D02*
X68746368Y-50428314D01*
X68746368Y-50428314D02*
X68684463Y-50366409D01*
X68684463Y-50366409D02*
X68560654Y-50304504D01*
X67322559Y-50304504D02*
X67198749Y-50304504D01*
X67198749Y-50304504D02*
X67074940Y-50366409D01*
X67074940Y-50366409D02*
X67013035Y-50428314D01*
X67013035Y-50428314D02*
X66951130Y-50552123D01*
X66951130Y-50552123D02*
X66889225Y-50799742D01*
X66889225Y-50799742D02*
X66889225Y-51109266D01*
X66889225Y-51109266D02*
X66951130Y-51356885D01*
X66951130Y-51356885D02*
X67013035Y-51480695D01*
X67013035Y-51480695D02*
X67074940Y-51542600D01*
X67074940Y-51542600D02*
X67198749Y-51604504D01*
X67198749Y-51604504D02*
X67322559Y-51604504D01*
X67322559Y-51604504D02*
X67446368Y-51542600D01*
X67446368Y-51542600D02*
X67508273Y-51480695D01*
X67508273Y-51480695D02*
X67570178Y-51356885D01*
X67570178Y-51356885D02*
X67632082Y-51109266D01*
X67632082Y-51109266D02*
X67632082Y-50799742D01*
X67632082Y-50799742D02*
X67570178Y-50552123D01*
X67570178Y-50552123D02*
X67508273Y-50428314D01*
X67508273Y-50428314D02*
X67446368Y-50366409D01*
X67446368Y-50366409D02*
X67322559Y-50304504D01*
X66084464Y-50304504D02*
X65960654Y-50304504D01*
X65960654Y-50304504D02*
X65836845Y-50366409D01*
X65836845Y-50366409D02*
X65774940Y-50428314D01*
X65774940Y-50428314D02*
X65713035Y-50552123D01*
X65713035Y-50552123D02*
X65651130Y-50799742D01*
X65651130Y-50799742D02*
X65651130Y-51109266D01*
X65651130Y-51109266D02*
X65713035Y-51356885D01*
X65713035Y-51356885D02*
X65774940Y-51480695D01*
X65774940Y-51480695D02*
X65836845Y-51542600D01*
X65836845Y-51542600D02*
X65960654Y-51604504D01*
X65960654Y-51604504D02*
X66084464Y-51604504D01*
X66084464Y-51604504D02*
X66208273Y-51542600D01*
X66208273Y-51542600D02*
X66270178Y-51480695D01*
X66270178Y-51480695D02*
X66332083Y-51356885D01*
X66332083Y-51356885D02*
X66393987Y-51109266D01*
X66393987Y-51109266D02*
X66393987Y-50799742D01*
X66393987Y-50799742D02*
X66332083Y-50552123D01*
X66332083Y-50552123D02*
X66270178Y-50428314D01*
X66270178Y-50428314D02*
X66208273Y-50366409D01*
X66208273Y-50366409D02*
X66084464Y-50304504D01*
D12*
%TO.P,J3,1,Pin_1*%
%TO.N,N/C*%
X107660000Y-148495000D03*
D13*
%TO.P,J3,2,Pin_2*%
X105120000Y-148495000D03*
%TO.P,J3,3,Pin_3*%
X102580000Y-148495000D03*
%TD*%
D14*
%TO.P,SW2,1,1*%
%TO.N,N/C*%
X52010000Y-63590000D03*
X52010000Y-70090000D03*
%TO.P,SW2,2,2*%
X47510000Y-63590000D03*
X47510000Y-70090000D03*
%TD*%
D12*
%TO.P,J7,1,Pin_1*%
%TO.N,N/C*%
X84660000Y-77865000D03*
D13*
%TO.P,J7,2,Pin_2*%
X84660000Y-75325000D03*
%TD*%
D12*
%TO.P,J9,1,Pin_1*%
%TO.N,N/C*%
X99635000Y-81040000D03*
D13*
%TO.P,J9,2,Pin_2*%
X97095000Y-81040000D03*
%TO.P,J9,3,Pin_3*%
X94555000Y-81040000D03*
%TO.P,J9,4*%
X92015000Y-81040000D03*
%TO.P,J9,5*%
X89475000Y-81040000D03*
%TO.P,J9,6*%
X86935000Y-81040000D03*
%TO.P,J9,7*%
X84395000Y-81040000D03*
%TO.P,J9,8*%
X81855000Y-81040000D03*
%TD*%
D12*
%TO.P,J1,1,Pin_1*%
%TO.N,N/C*%
X98335000Y-70940000D03*
D13*
%TO.P,J1,2,Pin_2*%
X98335000Y-73480000D03*
%TD*%
D12*
%TO.P,J8,1,Pin_1*%
%TO.N,N/C*%
X48350000Y-74260000D03*
D13*
%TO.P,J8,2,Pin_2*%
X50890000Y-74260000D03*
%TO.P,J8,3,Pin_3*%
X53430000Y-74260000D03*
%TD*%
D12*
%TO.P,J2,1,Pin_1*%
%TO.N,N/C*%
X97017200Y-87522800D03*
D13*
%TO.P,J2,2,Pin_2*%
X99557200Y-87522800D03*
%TO.P,J2,3,Pin_3*%
X102097200Y-87522800D03*
%TO.P,J2,4,Pin_4*%
X104637200Y-87522800D03*
%TO.P,J2,5,Pin_5*%
X107177200Y-87522800D03*
%TD*%
D12*
%TO.P,J7,1,Pin_1*%
%TO.N,N/C*%
X60966186Y-93190228D03*
D13*
%TO.P,J7,2,Pin_2*%
X58426186Y-93190228D03*
%TD*%
D12*
%TO.P,SW1,1,A*%
%TO.N,N/C*%
X75118000Y-108685000D03*
D13*
%TO.P,SW1,2,B*%
X72578000Y-108685000D03*
%TO.P,SW1,3,C*%
X70038000Y-108685000D03*
%TD*%
D12*
%TO.P,J3,1,Pin_1*%
%TO.N,N/C*%
X53000000Y-104280000D03*
%TD*%
%TO.P,J20,1,Pin_1*%
%TO.N,N/C*%
X48948586Y-77952500D03*
D13*
%TO.P,J20,2,Pin_2*%
X48948586Y-80492500D03*
%TO.P,J20,3*%
X48948586Y-83032500D03*
%TO.P,J20,4*%
X48948586Y-85572500D03*
%TO.P,J20,5*%
X48948586Y-88112500D03*
%TO.P,J20,6*%
X48948586Y-90652500D03*
%TO.P,J20,7*%
X48948586Y-93192500D03*
%TO.P,J20,8*%
X48948586Y-95732500D03*
%TD*%
D12*
%TO.P,J2,1,Pin_1*%
%TO.N,N/C*%
X70320000Y-64730000D03*
D13*
%TO.P,J2,2,Pin_2*%
X67780000Y-64730000D03*
%TO.P,J2,3,Pin_3*%
X70320000Y-62190000D03*
%TO.P,J2,4,Pin_4*%
X67780000Y-62190000D03*
%TO.P,J2,5,Pin_5*%
X70320000Y-59650000D03*
%TO.P,J2,6,Pin_6*%
X67780000Y-59650000D03*
%TD*%
D12*
%TO.P,J2,1,Pin_1*%
%TO.N,N/C*%
X75098000Y-104265000D03*
%TD*%
D15*
%TO.P,SW1,*%
%TO.N,*%
X75890000Y-74290000D03*
X75890000Y-66090000D03*
D16*
%TO.P,SW1,1,A*%
%TO.N,N/C*%
X75890000Y-72190000D03*
D17*
%TO.P,SW1,2,B*%
X75890000Y-70190000D03*
%TO.P,SW1,3,C*%
X75890000Y-68190000D03*
%TD*%
D12*
%TO.P,SW1,1,A*%
%TO.N,N/C*%
X55620000Y-108700000D03*
D13*
%TO.P,SW1,2,B*%
X53080000Y-108700000D03*
%TO.P,SW1,3,C*%
X50540000Y-108700000D03*
%TD*%
D12*
%TO.P,J3,1,Pin_1*%
%TO.N,N/C*%
X111245000Y-83960000D03*
D13*
%TO.P,J3,2,Pin_2*%
X113785000Y-83960000D03*
%TO.P,J3,3,Pin_3*%
X111245000Y-86500000D03*
%TO.P,J3,4,Pin_4*%
X113785000Y-86500000D03*
%TO.P,J3,5,Pin_5*%
X111245000Y-89040000D03*
%TO.P,J3,6,Pin_6*%
X113785000Y-89040000D03*
%TD*%
D12*
%TO.P,J6,1,Pin_1*%
%TO.N,N/C*%
X84660000Y-71615000D03*
D13*
%TO.P,J6,2,Pin_2*%
X84660000Y-69075000D03*
%TD*%
D12*
%TO.P,J10,1,Pin_1*%
%TO.N,N/C*%
X62695126Y-56974874D03*
D13*
%TO.P,J10,2,Pin_2*%
X65235126Y-56974874D03*
%TO.P,J10,3,Pin_3*%
X67775126Y-56974874D03*
%TO.P,J10,4,Pin_4*%
X70315126Y-56974874D03*
%TD*%
D12*
%TO.P,J4,1,Pin_1*%
%TO.N,N/C*%
X80840000Y-148785000D03*
D13*
%TO.P,J4,2,Pin_2*%
X80840000Y-146245000D03*
%TO.P,J4,3,Pin_3*%
X80840000Y-143705000D03*
%TO.P,J4,4,Pin_4*%
X80840000Y-141165000D03*
%TO.P,J4,5,Pin_5*%
X80840000Y-138625000D03*
%TO.P,J4,6,Pin_6*%
X80840000Y-136085000D03*
%TD*%
D12*
%TO.P,J21,1,Pin_1*%
%TO.N,N/C*%
X64213586Y-77967500D03*
D13*
%TO.P,J21,2,Pin_2*%
X64213586Y-80507500D03*
%TO.P,J21,3,Pin_3*%
X64213586Y-83047500D03*
%TO.P,J21,4*%
X64213586Y-85587500D03*
%TO.P,J21,5*%
X64213586Y-88127500D03*
%TO.P,J21,6*%
X64213586Y-90667500D03*
%TO.P,J21,7*%
X64213586Y-93207500D03*
%TO.P,J21,8*%
X64213586Y-95747500D03*
%TD*%
D18*
%TO.P,J5,1,Pin_1*%
%TO.N,N/C*%
X42040000Y-58460000D03*
D19*
%TO.P,J5,2,Pin_2*%
X42040000Y-61000000D03*
%TO.P,J5,3,Pin_3*%
X42040000Y-63540000D03*
%TO.P,J5,4,Pin_4*%
X42040000Y-66080000D03*
%TO.P,J5,5,Pin_5*%
X42040000Y-68620000D03*
%TO.P,J5,6,Pin_6*%
X42040000Y-71160000D03*
%TD*%
D12*
%TO.P,REF\u002A\u002A,1*%
%TO.N,N/C*%
X82432500Y-130425000D03*
D13*
%TO.P,REF\u002A\u002A,2*%
X82432500Y-127885000D03*
%TO.P,REF\u002A\u002A,3*%
X82432500Y-125345000D03*
%TO.P,REF\u002A\u002A,4*%
X82432500Y-122805000D03*
%TO.P,REF\u002A\u002A,5*%
X82432500Y-120265000D03*
%TO.P,REF\u002A\u002A,6*%
X82432500Y-117725000D03*
%TD*%
D12*
%TO.P,J2,1,Pin_1*%
%TO.N,N/C*%
X55600000Y-104280000D03*
%TD*%
D20*
%TO.P,SW2,*%
%TO.N,*%
X96985000Y-51740000D03*
X88785000Y-51740000D03*
D21*
%TO.P,SW2,1,A*%
%TO.N,N/C*%
X94885000Y-51740000D03*
D22*
%TO.P,SW2,2,B*%
X92885000Y-51740000D03*
%TO.P,SW2,3,C*%
X90885000Y-51740000D03*
%TD*%
D12*
%TO.P,J2,1,Pin_1*%
%TO.N,N/C*%
X96030000Y-148815000D03*
D13*
%TO.P,J2,2,Pin_2*%
X93490000Y-148815000D03*
%TO.P,J2,3,Pin_3*%
X90950000Y-148815000D03*
%TO.P,J2,4,Pin_4*%
X88410000Y-148815000D03*
%TD*%
D19*
%TO.P,J5,1,Pin_1*%
%TO.N,N/C*%
X118935000Y-58590000D03*
%TO.P,J5,2,Pin_2*%
X118935000Y-61130000D03*
%TO.P,J5,3,Pin_3*%
X118935000Y-63670000D03*
%TO.P,J5,4,Pin_4*%
X118935000Y-66210000D03*
%TO.P,J5,5,Pin_5*%
X118935000Y-68750000D03*
%TO.P,J5,6,Pin_6*%
X118935000Y-71290000D03*
%TO.P,J5,7,Pin_7*%
X118935000Y-73830000D03*
%TO.P,J5,8,Pin_8*%
X118935000Y-76370000D03*
%TO.P,J5,9,Pin_9*%
X118935000Y-78910000D03*
%TO.P,J5,10,Pin_10*%
X118935000Y-81450000D03*
%TD*%
D12*
%TO.P,J3,1,Pin_1*%
%TO.N,N/C*%
X72498000Y-104265000D03*
%TD*%
%TO.P,J8,1,Pin_1*%
%TO.N,N/C*%
X99650000Y-65775000D03*
D13*
%TO.P,J8,2,Pin_2*%
X97110000Y-65775000D03*
%TO.P,J8,3*%
X94570000Y-65775000D03*
%TO.P,J8,4*%
X92030000Y-65775000D03*
%TO.P,J8,5*%
X89490000Y-65775000D03*
%TO.P,J8,6*%
X86950000Y-65775000D03*
%TO.P,J8,7*%
X84410000Y-65775000D03*
%TO.P,J8,8*%
X81870000Y-65775000D03*
%TD*%
D12*
%TO.P,J4,1,Pin_1*%
%TO.N,N/C*%
X56345126Y-56974874D03*
D13*
%TO.P,J4,2,Pin_2*%
X58885126Y-56974874D03*
%TO.P,J4,3,Pin_3*%
X56345126Y-59514874D03*
%TO.P,J4,4,Pin_4*%
X58885126Y-59514874D03*
%TO.P,J4,5,Pin_5*%
X56345126Y-62054874D03*
%TO.P,J4,6,Pin_6*%
X58885126Y-62054874D03*
%TD*%
D18*
%TO.P,J4,1,Pin_1*%
%TO.N,N/C*%
X113655000Y-52060000D03*
D19*
%TO.P,J4,2,Pin_2*%
X111115000Y-52060000D03*
%TO.P,J4,3,Pin_3*%
X108575000Y-52060000D03*
%TO.P,J4,4,Pin_4*%
X106035000Y-52060000D03*
%TO.P,J4,5,Pin_5*%
X103495000Y-52060000D03*
%TO.P,J4,6,Pin_6*%
X100955000Y-52060000D03*
%TD*%
D12*
%TO.P,J6,1,Pin_1*%
%TO.N,N/C*%
X54716186Y-93190228D03*
D13*
%TO.P,J6,2,Pin_2*%
X52176186Y-93190228D03*
%TD*%
D14*
%TO.P,SW1,1,1*%
%TO.N,N/C*%
X106387200Y-62122800D03*
X112887200Y-62122800D03*
%TO.P,SW1,2,2*%
X106387200Y-66622800D03*
X112887200Y-66622800D03*
%TD*%
D12*
%TO.P,J9,1,Pin_1*%
%TO.N,N/C*%
X51145000Y-59070000D03*
D13*
%TO.P,J9,2,Pin_2*%
X48605000Y-59070000D03*
%TO.P,J9,3,Pin_3*%
X51145000Y-56530000D03*
%TO.P,J9,4,Pin_4*%
X48605000Y-56530000D03*
%TO.P,J9,5,Pin_5*%
X51145000Y-53990000D03*
%TO.P,J9,6,Pin_6*%
X48605000Y-53990000D03*
%TO.P,J9,7,Pin_7*%
X51145000Y-51450000D03*
%TO.P,J9,8,Pin_8*%
X48605000Y-51450000D03*
%TD*%
D12*
%TO.P,J1,1,Pin_1*%
%TO.N,N/C*%
X76030000Y-62370000D03*
D13*
%TO.P,J1,2,Pin_2*%
X76030000Y-59830000D03*
%TD*%
D23*
%TO.P,C4,1*%
%TO.N,N/C*%
X96392500Y-100980000D03*
%TO.P,C4,2*%
X98467500Y-100980000D03*
%TD*%
D12*
%TO.P,J1,1,Pin_1*%
%TO.N,N/C*%
X41172400Y-131974000D03*
D13*
%TO.P,J1,2,Pin_2*%
X41172400Y-134514000D03*
%TO.P,J1,3,Pin_3*%
X41172400Y-137054000D03*
%TO.P,J1,4,Pin_4*%
X41172400Y-139594000D03*
%TO.P,J1,5,Pin_5*%
X41172400Y-142134000D03*
%TO.P,J1,6,Pin_6*%
X41172400Y-144674000D03*
%TO.P,J1,7,Pin_7*%
X41172400Y-147214000D03*
%TO.P,J1,8,Pin_8*%
X41172400Y-149754000D03*
%TD*%
D24*
%TO.P,R2,1*%
%TO.N,N/C*%
X112016000Y-102490000D03*
%TO.P,R2,2*%
X112016000Y-105590000D03*
%TD*%
D12*
%TO.P,J1,1,Pin_1*%
%TO.N,N/C*%
X60660000Y-132030000D03*
D13*
%TO.P,J1,2,Pin_2*%
X60660000Y-134570000D03*
%TO.P,J1,3,Pin_3*%
X60660000Y-137110000D03*
%TO.P,J1,4,Pin_4*%
X60660000Y-139650000D03*
%TO.P,J1,5,Pin_5*%
X60660000Y-142190000D03*
%TO.P,J1,6,Pin_6*%
X60660000Y-144730000D03*
%TO.P,J1,7,Pin_7*%
X60660000Y-147270000D03*
%TO.P,J1,8,Pin_8*%
X60660000Y-149810000D03*
%TD*%
D12*
%TO.P,J2,1,Pin_1*%
%TO.N,N/C*%
X103565000Y-93352600D03*
D13*
%TO.P,J2,2,Pin_2*%
X106105000Y-93352600D03*
%TO.P,J2,3,Pin_3*%
X108645000Y-93352600D03*
%TO.P,J2,4,Pin_4*%
X111185000Y-93352600D03*
%TO.P,J2,5,Pin_5*%
X113725000Y-93352600D03*
%TO.P,J2,6,Pin_6*%
X116265000Y-93352600D03*
%TO.P,J2,7,Pin_7*%
X118805000Y-93352600D03*
%TO.P,J2,8,Pin_8*%
X121345000Y-93352600D03*
%TD*%
D25*
%TO.P,C2,1*%
%TO.N,N/C*%
X87130000Y-100902500D03*
%TO.P,C2,2*%
X87130000Y-102977500D03*
%TD*%
D26*
%TO.P,R1,1*%
%TO.N,N/C*%
X112016000Y-100290000D03*
%TO.P,R1,2*%
X112016000Y-97190000D03*
%TD*%
D24*
%TO.P,R3,1*%
%TO.N,N/C*%
X114716000Y-102490000D03*
%TO.P,R3,2*%
X114716000Y-105590000D03*
%TD*%
D27*
%TO.P,C3,1*%
%TO.N,N/C*%
X117716000Y-97590000D03*
%TO.P,C3,2*%
X121316000Y-97590000D03*
%TD*%
D23*
%TO.P,C1,1*%
%TO.N,N/C*%
X105016100Y-105695200D03*
%TO.P,C1,2*%
X107091100Y-105695200D03*
%TD*%
D28*
%TO.P,U1,1,SW*%
%TO.N,N/C*%
X84917600Y-101697200D03*
%TO.P,U1,2,GND*%
X84917600Y-102647200D03*
%TO.P,U1,3,FB*%
X84917600Y-103597200D03*
%TO.P,U1,4,EN*%
X82217600Y-103597200D03*
%TO.P,U1,5,IN*%
X82217600Y-102647200D03*
%TO.P,U1,6,NC*%
X82217600Y-101697200D03*
%TD*%
D12*
%TO.P,J1,1,Pin_1*%
%TO.N,N/C*%
X122210000Y-138130000D03*
D13*
%TO.P,J1,2,Pin_2*%
X124750000Y-138130000D03*
%TO.P,J1,3,Pin_3*%
X127290000Y-138130000D03*
%TO.P,J1,4,Pin_4*%
X129830000Y-138130000D03*
%TO.P,J1,5,Pin_5*%
X132370000Y-138130000D03*
%TO.P,J1,6,Pin_6*%
X134910000Y-138130000D03*
%TD*%
D23*
%TO.P,C4,1*%
%TO.N,N/C*%
X118878500Y-100980000D03*
%TO.P,C4,2*%
X120953500Y-100980000D03*
%TD*%
D24*
%TO.P,R4,1*%
%TO.N,N/C*%
X92230000Y-97190000D03*
%TO.P,R4,2*%
X92230000Y-100290000D03*
%TD*%
D12*
%TO.P,J1,1,Pin_1*%
%TO.N,N/C*%
X103550000Y-108617600D03*
D13*
%TO.P,J1,2,Pin_2*%
X106090000Y-108617600D03*
%TO.P,J1,3,Pin_3*%
X108630000Y-108617600D03*
%TO.P,J1,4,Pin_4*%
X111170000Y-108617600D03*
%TO.P,J1,5,Pin_5*%
X113710000Y-108617600D03*
%TO.P,J1,6,Pin_6*%
X116250000Y-108617600D03*
%TO.P,J1,7,Pin_7*%
X118790000Y-108617600D03*
%TO.P,J1,8,Pin_8*%
X121330000Y-108617600D03*
%TD*%
D24*
%TO.P,R3,1*%
%TO.N,N/C*%
X92230000Y-102490000D03*
%TO.P,R3,2*%
X92230000Y-105590000D03*
%TD*%
D29*
%TO.P,D1,1,K*%
%TO.N,N/C*%
X109216000Y-98040000D03*
%TO.P,D1,2,A*%
X105216000Y-98040000D03*
%TD*%
D12*
%TO.P,J1,1,Pin_1*%
%TO.N,N/C*%
X134730000Y-143190000D03*
D13*
%TO.P,J1,2,Pin_2*%
X132190000Y-143190000D03*
%TO.P,J1,3,Pin_3*%
X129650000Y-143190000D03*
%TO.P,J1,4,Pin_4*%
X127110000Y-143190000D03*
%TO.P,J1,5,Pin_5*%
X124570000Y-143190000D03*
%TO.P,J1,6,Pin_6*%
X122030000Y-143190000D03*
%TD*%
D28*
%TO.P,U1,1,SW*%
%TO.N,N/C*%
X107403600Y-101697200D03*
%TO.P,U1,2,GND*%
X107403600Y-102647200D03*
%TO.P,U1,3,FB*%
X107403600Y-103597200D03*
%TO.P,U1,4,EN*%
X104703600Y-103597200D03*
%TO.P,U1,5,IN*%
X104703600Y-102647200D03*
%TO.P,U1,6,NC*%
X104703600Y-101697200D03*
%TD*%
D12*
%TO.P,J1,1,Pin_1*%
%TO.N,N/C*%
X81064000Y-108617600D03*
D13*
%TO.P,J1,2,Pin_2*%
X83604000Y-108617600D03*
%TO.P,J1,3,Pin_3*%
X86144000Y-108617600D03*
%TO.P,J1,4,Pin_4*%
X88684000Y-108617600D03*
%TO.P,J1,5,Pin_5*%
X91224000Y-108617600D03*
%TO.P,J1,6,Pin_6*%
X93764000Y-108617600D03*
%TO.P,J1,7,Pin_7*%
X96304000Y-108617600D03*
%TO.P,J1,8,Pin_8*%
X98844000Y-108617600D03*
%TD*%
D26*
%TO.P,R1,1*%
%TO.N,N/C*%
X89530000Y-100290000D03*
%TO.P,R1,2*%
X89530000Y-97190000D03*
%TD*%
D27*
%TO.P,C3,1*%
%TO.N,N/C*%
X95230000Y-97590000D03*
%TO.P,C3,2*%
X98830000Y-97590000D03*
%TD*%
D30*
%TO.P,C5,1*%
%TO.N,N/C*%
X102582500Y-145265000D03*
%TO.P,C5,2*%
X99457500Y-145265000D03*
%TD*%
D29*
%TO.P,D1,1,K*%
%TO.N,N/C*%
X86730000Y-98040000D03*
%TO.P,D1,2,A*%
X82730000Y-98040000D03*
%TD*%
D24*
%TO.P,R4,1*%
%TO.N,N/C*%
X114716000Y-97190000D03*
%TO.P,R4,2*%
X114716000Y-100290000D03*
%TD*%
D12*
%TO.P,J2,1,Pin_1*%
%TO.N,N/C*%
X56437400Y-131989000D03*
D13*
%TO.P,J2,2,Pin_2*%
X56437400Y-134529000D03*
%TO.P,J2,3,Pin_3*%
X56437400Y-137069000D03*
%TO.P,J2,4,Pin_4*%
X56437400Y-139609000D03*
%TO.P,J2,5,Pin_5*%
X56437400Y-142149000D03*
%TO.P,J2,6,Pin_6*%
X56437400Y-144689000D03*
%TO.P,J2,7,Pin_7*%
X56437400Y-147229000D03*
%TO.P,J2,8,Pin_8*%
X56437400Y-149769000D03*
%TD*%
D31*
%TO.P,U1,1,GND*%
%TO.N,N/C*%
X99460000Y-142605000D03*
D32*
%TO.P,U1,2,VO*%
X99610000Y-141105000D03*
D33*
X102360000Y-141105000D03*
D31*
%TO.P,U1,3,VI*%
X99460000Y-139605000D03*
%TD*%
D23*
%TO.P,C1,1*%
%TO.N,N/C*%
X82530100Y-105695200D03*
%TO.P,C1,2*%
X84605100Y-105695200D03*
%TD*%
D12*
%TO.P,J2,1,Pin_1*%
%TO.N,N/C*%
X81079000Y-93352600D03*
D13*
%TO.P,J2,2,Pin_2*%
X83619000Y-93352600D03*
%TO.P,J2,3,Pin_3*%
X86159000Y-93352600D03*
%TO.P,J2,4,Pin_4*%
X88699000Y-93352600D03*
%TO.P,J2,5,Pin_5*%
X91239000Y-93352600D03*
%TO.P,J2,6,Pin_6*%
X93779000Y-93352600D03*
%TO.P,J2,7,Pin_7*%
X96319000Y-93352600D03*
%TO.P,J2,8,Pin_8*%
X98859000Y-93352600D03*
%TD*%
D30*
%TO.P,C3,1*%
%TO.N,N/C*%
X102592500Y-136775000D03*
%TO.P,C3,2*%
X99467500Y-136775000D03*
%TD*%
D24*
%TO.P,R2,1*%
%TO.N,N/C*%
X89530000Y-102490000D03*
%TO.P,R2,2*%
X89530000Y-105590000D03*
%TD*%
D12*
%TO.P,J2,1,Pin_1*%
%TO.N,N/C*%
X75925000Y-132045000D03*
D13*
%TO.P,J2,2,Pin_2*%
X75925000Y-134585000D03*
%TO.P,J2,3,Pin_3*%
X75925000Y-137125000D03*
%TO.P,J2,4,Pin_4*%
X75925000Y-139665000D03*
%TO.P,J2,5,Pin_5*%
X75925000Y-142205000D03*
%TO.P,J2,6,Pin_6*%
X75925000Y-144745000D03*
%TO.P,J2,7,Pin_7*%
X75925000Y-147285000D03*
%TO.P,J2,8,Pin_8*%
X75925000Y-149825000D03*
%TD*%
D12*
%TO.P,J1,1,Pin_1*%
%TO.N,N/C*%
X128783750Y-77590000D03*
D13*
%TO.P,J1,2,Pin_2*%
X128783750Y-80130000D03*
%TO.P,J1,3,Pin_3*%
X128783750Y-82670000D03*
%TO.P,J1,4,Pin_4*%
X128783750Y-85210000D03*
%TO.P,J1,5,Pin_5*%
X128783750Y-87750000D03*
%TO.P,J1,6,Pin_6*%
X128783750Y-90290000D03*
%TO.P,J1,7,Pin_7*%
X128783750Y-92830000D03*
%TO.P,J1,8,Pin_8*%
X128783750Y-95370000D03*
%TO.P,J1,9,Pin_9*%
X128783750Y-97910000D03*
%TO.P,J1,10,Pin_10*%
X128783750Y-100450000D03*
%TD*%
D25*
%TO.P,C2,1*%
%TO.N,N/C*%
X109616000Y-100902500D03*
%TO.P,C2,2*%
X109616000Y-102977500D03*
%TD*%
D34*
%TO.N,*%
X89070000Y-105610000D03*
D35*
X110935000Y-76390000D03*
D34*
X68548000Y-114285000D03*
D36*
X56340000Y-68897801D03*
D35*
X109685000Y-72340000D03*
D34*
X95145000Y-124895000D03*
X67930000Y-68680000D03*
D36*
X53845626Y-60809530D03*
X116816000Y-100790000D03*
X53345126Y-61454874D03*
D34*
X54480000Y-114290000D03*
X111556000Y-105610000D03*
D36*
X64874400Y-71297801D03*
D34*
X113487200Y-73922800D03*
X105216000Y-98040000D03*
D36*
X64874400Y-68097800D03*
D35*
X111385000Y-77340000D03*
D34*
X73567600Y-148308500D03*
D36*
X70880000Y-89580000D03*
D34*
X94330000Y-103520000D03*
D36*
X59507701Y-66198300D03*
D34*
X54080000Y-148252500D03*
X116816000Y-103520000D03*
D36*
X64874400Y-72097799D03*
D34*
X87130000Y-100940000D03*
D37*
X76370000Y-86490000D03*
D35*
X97947200Y-83182800D03*
D34*
X109616000Y-100940000D03*
X73978000Y-114275000D03*
X100700500Y-145255000D03*
X103745000Y-117245000D03*
D36*
X64874400Y-69697799D03*
X64874400Y-70497800D03*
X116016000Y-100890000D03*
X93530000Y-100890000D03*
X62607201Y-65030600D03*
X59407200Y-68322800D03*
X57554266Y-68914266D03*
X71580000Y-89100000D03*
D34*
X119496000Y-98850000D03*
X82230000Y-103090000D03*
X68548000Y-118105000D03*
D36*
X117017200Y-76372800D03*
D34*
X50700000Y-136600000D03*
X82730000Y-98040000D03*
D35*
X110935000Y-78229300D03*
D34*
X70187600Y-136656000D03*
X104716000Y-103090000D03*
D35*
X98430233Y-83922300D03*
D34*
X49050000Y-114300000D03*
X69940000Y-68680000D03*
D35*
X108285000Y-72290000D03*
D36*
X116087947Y-74022800D03*
X94330000Y-100790000D03*
D34*
X97010000Y-98850000D03*
D36*
X56340000Y-68097800D03*
X61807200Y-73565000D03*
D35*
X112835000Y-82640000D03*
D34*
X49050000Y-118120000D03*
D36*
X70180000Y-90080000D03*
X64874400Y-68897801D03*
D35*
X98944217Y-84682800D03*
X116267200Y-74772800D03*
D34*
X96395000Y-124895000D03*
D36*
X69130000Y-90300000D03*
%TD*%
D38*
%TO.N,*%
X83850000Y-125345000D02*
X82432500Y-125345000D01*
X106053600Y-103002800D02*
X106053600Y-104657700D01*
D39*
X69070000Y-59133880D02*
X69973880Y-58230000D01*
D38*
X71130000Y-88650000D02*
X71130000Y-71680000D01*
D40*
X89070000Y-105610000D02*
X89050000Y-105590000D01*
D39*
X70840776Y-60944656D02*
X72270000Y-62373880D01*
X82217600Y-103597200D02*
X82217600Y-105382700D01*
D38*
X109285700Y-102647200D02*
X109616000Y-102977500D01*
D39*
X104716000Y-103090000D02*
X104703600Y-103102400D01*
D40*
X84710300Y-105590000D02*
X84605100Y-105695200D01*
D41*
X54080000Y-139980000D02*
X54080000Y-148252500D01*
X99457500Y-142602500D02*
X99457500Y-145265000D01*
D39*
X62607201Y-65030600D02*
X62907801Y-64730000D01*
X53845626Y-60809530D02*
X53865156Y-60790000D01*
D41*
X102582500Y-145265000D02*
X104430000Y-145265000D01*
D40*
X111576000Y-105590000D02*
X111556000Y-105610000D01*
X111556000Y-105610000D02*
X111536000Y-105590000D01*
D39*
X70548750Y-60944656D02*
X70791464Y-60944656D01*
X72288750Y-57710000D02*
X70348750Y-59650000D01*
D41*
X98010000Y-142025000D02*
X98587500Y-142602500D01*
D38*
X62913586Y-75693586D02*
X61807200Y-74587200D01*
X113487200Y-77352800D02*
X109777200Y-81062800D01*
X82730000Y-98040000D02*
X84917600Y-100227600D01*
D39*
X71340000Y-69538528D02*
X71340000Y-68015686D01*
X69780000Y-89680000D02*
X69780000Y-71098528D01*
D38*
X71990000Y-67746448D02*
X70320000Y-66076448D01*
D40*
X89090000Y-105590000D02*
X89070000Y-105610000D01*
D41*
X99255000Y-52715000D02*
X97110000Y-54860000D01*
X99460000Y-139605000D02*
X99960000Y-139105000D01*
D39*
X72288750Y-56160000D02*
X72288750Y-57710000D01*
X69780000Y-71098528D02*
X71340000Y-69538528D01*
D42*
X73978000Y-114275000D02*
X72378000Y-114275000D01*
D38*
X108585000Y-57150000D02*
X103495000Y-52060000D01*
D39*
X104703600Y-103040000D02*
X104703600Y-103077600D01*
X50610000Y-63020000D02*
X50610000Y-63010100D01*
X70837435Y-58230000D02*
X71567200Y-57500235D01*
X55080912Y-55124874D02*
X54387200Y-55818586D01*
X116816000Y-99790000D02*
X119763500Y-99790000D01*
D38*
X108816000Y-104140000D02*
X111316000Y-104140000D01*
D39*
X82217600Y-103077600D02*
X82230000Y-103090000D01*
D38*
X85787200Y-103597200D02*
X86330000Y-104140000D01*
D41*
X100250836Y-50360000D02*
X99255000Y-51355836D01*
D39*
X104703600Y-102647200D02*
X104703600Y-103040000D01*
D38*
X71620000Y-63490000D02*
X70320000Y-62190000D01*
D41*
X99467500Y-136775000D02*
X98010000Y-138232500D01*
D39*
X52853044Y-59070000D02*
X51145000Y-59070000D01*
D38*
X110935000Y-78740000D02*
X102152200Y-87522800D01*
D39*
X59293672Y-66847800D02*
X58702200Y-66847800D01*
D41*
X98661496Y-134725000D02*
X96810000Y-136576496D01*
D39*
X104703600Y-105382700D02*
X105016100Y-105695200D01*
D41*
X98010000Y-138232500D02*
X98010000Y-142025000D01*
X102582500Y-141327500D02*
X102360000Y-141105000D01*
D39*
X97277500Y-99790000D02*
X98467500Y-100980000D01*
X69070000Y-60166120D02*
X69848536Y-60944656D01*
X82217600Y-103102400D02*
X82217600Y-103597200D01*
D38*
X116267200Y-78782200D02*
X118935000Y-81450000D01*
X109777200Y-87572200D02*
X111245000Y-89040000D01*
D41*
X96810000Y-145473504D02*
X99831496Y-148495000D01*
X69172500Y-95747500D02*
X76370000Y-88550000D01*
X102582500Y-145265000D02*
X102582500Y-141327500D01*
D39*
X56345126Y-62054874D02*
X56345126Y-68092674D01*
X68120126Y-55724874D02*
X68817200Y-55027800D01*
D41*
X47055000Y-58525000D02*
X47055000Y-53000000D01*
D42*
X52880000Y-114290000D02*
X49050000Y-118120000D01*
D38*
X109685000Y-72340000D02*
X109685000Y-55710000D01*
D39*
X56652199Y-68897801D02*
X56340000Y-68897801D01*
D42*
X54480000Y-114290000D02*
X52880000Y-114290000D01*
D40*
X121345000Y-93352600D02*
X121345000Y-97561000D01*
D39*
X116016000Y-100890000D02*
X116016000Y-106890000D01*
D38*
X98419733Y-83932800D02*
X89827800Y-83932800D01*
D41*
X87130000Y-98440000D02*
X86730000Y-98040000D01*
D39*
X72888750Y-58847370D02*
X72888750Y-55911472D01*
D38*
X109685000Y-55710000D02*
X106035000Y-52060000D01*
D41*
X48605000Y-51450000D02*
X51145000Y-51450000D01*
D38*
X65634202Y-68897801D02*
X64874400Y-68897801D01*
X107403600Y-100227600D02*
X107403600Y-101697200D01*
X65574400Y-71807849D02*
X65064352Y-71297801D01*
D40*
X92230000Y-100290000D02*
X92230000Y-102490000D01*
D38*
X57660000Y-70070000D02*
X52030000Y-70070000D01*
D39*
X53865156Y-60790000D02*
X57620252Y-60790000D01*
X47510000Y-63590000D02*
X49191472Y-63590000D01*
X58702200Y-66847800D02*
X56652199Y-68897801D01*
X116816000Y-100790000D02*
X116816000Y-103520000D01*
X56345126Y-68092674D02*
X56340000Y-68097800D01*
X94330000Y-100790000D02*
X96202500Y-100790000D01*
X54387200Y-57535844D02*
X52853044Y-59070000D01*
D40*
X95230000Y-97590000D02*
X96490000Y-98850000D01*
D39*
X50610000Y-63010100D02*
X55370100Y-58250000D01*
X82217600Y-102647200D02*
X82217600Y-103040000D01*
D38*
X89530000Y-103440000D02*
X89530000Y-102490000D01*
D39*
X118688500Y-100790000D02*
X118878500Y-100980000D01*
X70548750Y-60944656D02*
X70840776Y-60944656D01*
X68568672Y-54427800D02*
X67871598Y-55124874D01*
X69070000Y-59650000D02*
X69070000Y-60166120D01*
D38*
X110935000Y-78229300D02*
X110935000Y-78740000D01*
D40*
X112016000Y-105590000D02*
X114716000Y-105590000D01*
D38*
X68390000Y-89031086D02*
X68390000Y-70663649D01*
X89827800Y-83932800D02*
X86935000Y-81040000D01*
X70430000Y-89130000D02*
X70430000Y-71367766D01*
X117017200Y-76372800D02*
X117017200Y-63047800D01*
X88027300Y-84672300D02*
X84395000Y-81040000D01*
D41*
X76370000Y-88550000D02*
X76370000Y-86490000D01*
D38*
X83923200Y-102647200D02*
X83567600Y-103002800D01*
D40*
X89530000Y-100290000D02*
X89530000Y-102490000D01*
D39*
X67780000Y-59650000D02*
X69070000Y-59650000D01*
D38*
X71580000Y-89100000D02*
X71130000Y-88650000D01*
D39*
X55329440Y-55724874D02*
X68120126Y-55724874D01*
D38*
X86799700Y-102647200D02*
X87130000Y-102977500D01*
X116267200Y-74772800D02*
X116267200Y-78782200D01*
D40*
X89530000Y-105590000D02*
X89090000Y-105590000D01*
D41*
X94570000Y-65775000D02*
X96120000Y-67325000D01*
D40*
X87130000Y-100902500D02*
X87130000Y-98440000D01*
X96490000Y-98850000D02*
X97010000Y-98850000D01*
D41*
X97110000Y-54860000D02*
X97110000Y-65775000D01*
D39*
X71340000Y-68015686D02*
X69030000Y-65705686D01*
X58702200Y-62237800D02*
X58702200Y-66847800D01*
X106090000Y-106890000D02*
X106090000Y-108617600D01*
X68817200Y-55027800D02*
X71156550Y-55027800D01*
D38*
X111316000Y-104140000D02*
X112016000Y-103440000D01*
X91617800Y-83182800D02*
X89475000Y-81040000D01*
D39*
X54987200Y-56067114D02*
X55329440Y-55724874D01*
D38*
X85422500Y-124895000D02*
X95145000Y-124895000D01*
X85050000Y-124145000D02*
X83850000Y-125345000D01*
D39*
X83604000Y-106890000D02*
X83604000Y-108617600D01*
X54387200Y-55818586D02*
X54387200Y-57535844D01*
D38*
X67674400Y-87205600D02*
X67674400Y-70937999D01*
D40*
X114716000Y-100290000D02*
X114716000Y-102490000D01*
D38*
X70320000Y-66076448D02*
X70320000Y-64730000D01*
D39*
X70836550Y-55707800D02*
X69042200Y-55707800D01*
D38*
X64213586Y-90667500D02*
X64213586Y-90666414D01*
X64213586Y-72758613D02*
X64874400Y-72097799D01*
D41*
X99255000Y-51355836D02*
X99255000Y-52715000D01*
D38*
X107403600Y-103597200D02*
X108273200Y-103597200D01*
D40*
X109216000Y-98040000D02*
X110066000Y-97190000D01*
D41*
X109616000Y-98440000D02*
X109216000Y-98040000D01*
X108575000Y-52060000D02*
X106875000Y-50360000D01*
D40*
X111536000Y-105590000D02*
X107196300Y-105590000D01*
D39*
X72888750Y-55911472D02*
X71405078Y-54427800D01*
X62907801Y-64730000D02*
X67780000Y-64730000D01*
D42*
X72378000Y-114275000D02*
X68548000Y-118105000D01*
D39*
X57554266Y-68914266D02*
X57554266Y-68875734D01*
D38*
X86330000Y-104140000D02*
X88830000Y-104140000D01*
X72690000Y-67456498D02*
X71620000Y-66386498D01*
D39*
X68608300Y-66198300D02*
X59507701Y-66198300D01*
D41*
X111115000Y-64850600D02*
X112887200Y-66622800D01*
D40*
X112016000Y-100290000D02*
X112016000Y-102490000D01*
D39*
X57554266Y-68875734D02*
X58982200Y-67447800D01*
X43490000Y-64990000D02*
X48640000Y-64990000D01*
X50010000Y-62771472D02*
X50010000Y-62761572D01*
X69030000Y-63440000D02*
X67780000Y-62190000D01*
D38*
X62913586Y-84287500D02*
X62913586Y-77940000D01*
D39*
X93530000Y-100890000D02*
X93530000Y-106890000D01*
D38*
X116087947Y-61437053D02*
X118935000Y-58590000D01*
D39*
X94330000Y-99790000D02*
X97277500Y-99790000D01*
D38*
X108285000Y-72290000D02*
X108585000Y-71990000D01*
X111385000Y-77340000D02*
X110685000Y-77340000D01*
D39*
X69940000Y-68680000D02*
X68107800Y-66847800D01*
X71567200Y-56438450D02*
X70836550Y-55707800D01*
D40*
X117716000Y-97590000D02*
X118976000Y-98850000D01*
D39*
X50010000Y-62761572D02*
X54987200Y-57784372D01*
X82217600Y-105382700D02*
X82530100Y-105695200D01*
X53345126Y-61454874D02*
X53945126Y-62054874D01*
D40*
X114716000Y-100290000D02*
X112016000Y-100290000D01*
D38*
X84917600Y-103597200D02*
X85787200Y-103597200D01*
X108273200Y-103597200D02*
X108816000Y-104140000D01*
D39*
X66697800Y-67447800D02*
X67930000Y-68680000D01*
D38*
X52030000Y-70070000D02*
X52010000Y-70090000D01*
X65824151Y-68097800D02*
X64874400Y-68097800D01*
D40*
X109616000Y-100902500D02*
X109616000Y-98440000D01*
D39*
X42040000Y-63540000D02*
X43490000Y-64990000D01*
D38*
X83567600Y-104657700D02*
X84605100Y-105695200D01*
X64213586Y-90666414D02*
X67674400Y-87205600D01*
D40*
X112016000Y-105590000D02*
X111576000Y-105590000D01*
D41*
X101870000Y-134725000D02*
X98661496Y-134725000D01*
X111115000Y-52060000D02*
X111115000Y-64850600D01*
D40*
X89530000Y-105590000D02*
X92230000Y-105590000D01*
D38*
X66974400Y-85366686D02*
X66974400Y-71227949D01*
X64213586Y-93207500D02*
X68390000Y-89031086D01*
D39*
X69070000Y-59650000D02*
X69070000Y-59133880D01*
D40*
X121345000Y-97561000D02*
X121316000Y-97590000D01*
D39*
X54987200Y-57784372D02*
X54987200Y-56067114D01*
X69973880Y-58230000D02*
X70837435Y-58230000D01*
D42*
X68548000Y-114285000D02*
X72578000Y-110255000D01*
D41*
X96120000Y-67325000D02*
X105685000Y-67325000D01*
D39*
X93530000Y-100890000D02*
X93530000Y-100590000D01*
D38*
X84917600Y-102647200D02*
X83923200Y-102647200D01*
X64213586Y-88127500D02*
X66974400Y-85366686D01*
D41*
X99960000Y-139105000D02*
X101990000Y-139105000D01*
D38*
X64213586Y-83047500D02*
X66274400Y-80986686D01*
D39*
X112495000Y-82980000D02*
X112495000Y-85250000D01*
D38*
X84917600Y-100227600D02*
X84917600Y-101697200D01*
X64213586Y-77967500D02*
X64213586Y-72758613D01*
X98430233Y-83922300D02*
X98419733Y-83932800D01*
D40*
X89050000Y-105590000D02*
X84710300Y-105590000D01*
D38*
X102152200Y-87522800D02*
X102097200Y-87522800D01*
X66974400Y-71227949D02*
X65444250Y-69697799D01*
D39*
X69848536Y-60944656D02*
X70548750Y-60944656D01*
D42*
X53080000Y-110270000D02*
X53080000Y-108700000D01*
D38*
X68390000Y-70663649D02*
X65824151Y-68097800D01*
X64213586Y-80507500D02*
X65574400Y-79146686D01*
D40*
X107196300Y-105590000D02*
X107091100Y-105695200D01*
D39*
X116016000Y-100890000D02*
X116016000Y-100590000D01*
D38*
X82492500Y-127825000D02*
X85422500Y-124895000D01*
D39*
X66530000Y-58250000D02*
X67832074Y-58250000D01*
D40*
X118976000Y-98850000D02*
X119496000Y-98850000D01*
D38*
X106409200Y-102647200D02*
X106053600Y-103002800D01*
D41*
X99457500Y-145265000D02*
X100690500Y-145265000D01*
D39*
X71567200Y-57500235D02*
X71567200Y-56438450D01*
X73340000Y-67187260D02*
X73340000Y-70190000D01*
X48640000Y-64990000D02*
X50610000Y-63020000D01*
D38*
X112016000Y-103440000D02*
X112016000Y-102490000D01*
X106053600Y-104657700D02*
X107091100Y-105695200D01*
X95645000Y-124145000D02*
X85050000Y-124145000D01*
D39*
X53945126Y-62054874D02*
X56345126Y-62054874D01*
D38*
X65064352Y-71297801D02*
X64874400Y-71297801D01*
X71130000Y-71680000D02*
X72690000Y-70120000D01*
X61807200Y-74587200D02*
X61807200Y-73565000D01*
D41*
X104430000Y-145265000D02*
X107660000Y-148495000D01*
D38*
X116087947Y-74022800D02*
X116087947Y-61437053D01*
D39*
X119763500Y-99790000D02*
X120953500Y-100980000D01*
D41*
X99831496Y-148495000D02*
X102580000Y-148495000D01*
D38*
X98944217Y-84682800D02*
X98933717Y-84672300D01*
X71620000Y-66386498D02*
X71620000Y-63490000D01*
D40*
X98859000Y-97561000D02*
X98830000Y-97590000D01*
D38*
X108585000Y-71990000D02*
X108585000Y-57150000D01*
D39*
X116816000Y-100790000D02*
X118688500Y-100790000D01*
X69042200Y-55707800D02*
X67775126Y-56974874D01*
X70791464Y-60944656D02*
X72888750Y-58847370D01*
D38*
X96395000Y-124895000D02*
X95645000Y-124145000D01*
D39*
X66530000Y-64730000D02*
X66530000Y-58250000D01*
D41*
X102592500Y-138502500D02*
X102592500Y-136775000D01*
D39*
X112835000Y-82640000D02*
X112495000Y-82980000D01*
D38*
X97947200Y-83182800D02*
X91617800Y-83182800D01*
D41*
X99460000Y-145262500D02*
X99457500Y-145265000D01*
D39*
X116016000Y-106890000D02*
X106090000Y-106890000D01*
X55370100Y-58250000D02*
X69040000Y-58250000D01*
X112495000Y-85250000D02*
X111245000Y-86500000D01*
D41*
X50700000Y-136600000D02*
X54080000Y-139980000D01*
X102592500Y-136775000D02*
X102592500Y-135447500D01*
D38*
X110135000Y-76390000D02*
X101053487Y-85471513D01*
D41*
X100690500Y-145265000D02*
X100700500Y-145255000D01*
D39*
X71405078Y-54427800D02*
X68568672Y-54427800D01*
D40*
X89530000Y-102490000D02*
X92230000Y-102490000D01*
D39*
X69040000Y-58250000D02*
X70315126Y-56974874D01*
D38*
X107403600Y-102647200D02*
X106409200Y-102647200D01*
D39*
X116016000Y-100590000D02*
X116816000Y-99790000D01*
X58982200Y-67447800D02*
X66697800Y-67447800D01*
D38*
X107403600Y-102647200D02*
X109285700Y-102647200D01*
X101797544Y-86227456D02*
X100852544Y-86227456D01*
D39*
X69130000Y-70900000D02*
X70740000Y-69290000D01*
D41*
X102592500Y-135447500D02*
X101870000Y-134725000D01*
D38*
X99068487Y-85471513D02*
X97017200Y-87522800D01*
D39*
X82217600Y-103040000D02*
X82217600Y-103077600D01*
D38*
X110935000Y-76390000D02*
X110135000Y-76390000D01*
X105216000Y-98040000D02*
X107403600Y-100227600D01*
D39*
X67871598Y-55124874D02*
X55080912Y-55124874D01*
D38*
X72690000Y-70120000D02*
X72690000Y-67456498D01*
D40*
X110066000Y-97190000D02*
X112016000Y-97190000D01*
D38*
X83567600Y-103002800D02*
X83567600Y-104657700D01*
D41*
X106875000Y-50360000D02*
X100250836Y-50360000D01*
D38*
X109777200Y-81062800D02*
X109777200Y-87572200D01*
D42*
X72578000Y-110255000D02*
X72578000Y-108685000D01*
D38*
X67674400Y-70937999D02*
X65634202Y-68897801D01*
D39*
X58885126Y-62054874D02*
X58702200Y-62237800D01*
D41*
X64213586Y-95747500D02*
X69172500Y-95747500D01*
D39*
X104703600Y-103077600D02*
X104716000Y-103090000D01*
D38*
X71990000Y-69807767D02*
X71990000Y-67746448D01*
D41*
X73567600Y-140036000D02*
X73567600Y-148308500D01*
D38*
X88830000Y-104140000D02*
X89530000Y-103440000D01*
D39*
X70180000Y-90080000D02*
X69780000Y-89680000D01*
D41*
X47055000Y-53000000D02*
X48605000Y-51450000D01*
D39*
X69130000Y-90300000D02*
X69130000Y-70900000D01*
D38*
X101053487Y-85471513D02*
X99068487Y-85471513D01*
D39*
X104703600Y-103597200D02*
X104703600Y-105382700D01*
D40*
X87580000Y-97190000D02*
X89530000Y-97190000D01*
D39*
X104703600Y-103102400D02*
X104703600Y-103597200D01*
X70740000Y-68330000D02*
X68608300Y-66198300D01*
D40*
X92230000Y-100290000D02*
X89530000Y-100290000D01*
D38*
X113487200Y-73922800D02*
X113487200Y-77352800D01*
X110685000Y-77340000D02*
X101797544Y-86227456D01*
D41*
X96810000Y-136576496D02*
X96810000Y-145473504D01*
D39*
X67780000Y-64730000D02*
X66530000Y-64730000D01*
D40*
X112016000Y-102490000D02*
X114716000Y-102490000D01*
D39*
X93530000Y-100590000D02*
X94330000Y-99790000D01*
X57620252Y-60790000D02*
X58885126Y-62054874D01*
D41*
X70187600Y-136656000D02*
X73567600Y-140036000D01*
D38*
X65254301Y-70497800D02*
X64874400Y-70497800D01*
D40*
X86730000Y-98040000D02*
X87580000Y-97190000D01*
D39*
X72270000Y-66117260D02*
X73340000Y-67187260D01*
X73340000Y-70190000D02*
X75890000Y-70190000D01*
D38*
X62913586Y-77940000D02*
X62913586Y-75693586D01*
D42*
X49050000Y-114300000D02*
X53080000Y-110270000D01*
D39*
X82230000Y-103090000D02*
X82217600Y-103102400D01*
X93530000Y-106890000D02*
X83604000Y-106890000D01*
D38*
X66274400Y-71517899D02*
X65254301Y-70497800D01*
X100852544Y-86227456D02*
X99557200Y-87522800D01*
X65444250Y-69697799D02*
X64874400Y-69697799D01*
D39*
X69030000Y-65705686D02*
X69030000Y-63440000D01*
D38*
X98933717Y-84672300D02*
X88027300Y-84672300D01*
D39*
X96202500Y-100790000D02*
X96392500Y-100980000D01*
X49191472Y-63590000D02*
X50010000Y-62771472D01*
D38*
X64213586Y-85587500D02*
X62913586Y-84287500D01*
D39*
X94330000Y-100790000D02*
X94330000Y-103520000D01*
D38*
X65574400Y-79146686D02*
X65574400Y-71807849D01*
D41*
X101990000Y-139105000D02*
X102592500Y-138502500D01*
D39*
X71156550Y-55027800D02*
X72288750Y-56160000D01*
D38*
X70430000Y-71367766D02*
X71990000Y-69807767D01*
X70880000Y-89580000D02*
X70430000Y-89130000D01*
X66274400Y-80986686D02*
X66274400Y-71517899D01*
D41*
X99460000Y-142605000D02*
X99460000Y-145262500D01*
X98587500Y-142602500D02*
X99457500Y-142602500D01*
D39*
X70740000Y-69290000D02*
X70740000Y-68330000D01*
D40*
X98859000Y-93352600D02*
X98859000Y-97561000D01*
D38*
X117017200Y-63047800D02*
X118935000Y-61130000D01*
D39*
X72270000Y-62373880D02*
X72270000Y-66117260D01*
X70348750Y-59650000D02*
X70320000Y-59650000D01*
D38*
X59407200Y-68322800D02*
X57660000Y-70070000D01*
D39*
X68107800Y-66847800D02*
X59293672Y-66847800D01*
D41*
X42040000Y-63540000D02*
X47055000Y-58525000D01*
X105685000Y-67325000D02*
X106387200Y-66622800D01*
D38*
X84917600Y-102647200D02*
X86799700Y-102647200D01*
%TD*%
%TA.AperFunction,NonConductor*%
G36*
X54672605Y-130358061D02*
G01*
X54739565Y-130378002D01*
X54785116Y-130430981D01*
X54794794Y-130500177D01*
X54768229Y-130560418D01*
X54747703Y-130585591D01*
X54653489Y-130765954D01*
X54608732Y-130922376D01*
X54601806Y-130946584D01*
X54597514Y-130961583D01*
X54597513Y-130961586D01*
X54586900Y-131080965D01*
X54586900Y-131080966D01*
X54586901Y-132897032D01*
X54586901Y-132897033D01*
X54597513Y-133016415D01*
X54653489Y-133212045D01*
X54653490Y-133212048D01*
X54653491Y-133212049D01*
X54747702Y-133392407D01*
X54747704Y-133392409D01*
X54815951Y-133476108D01*
X54843060Y-133540505D01*
X54831051Y-133609334D01*
X54828682Y-133613895D01*
X54749826Y-133758309D01*
X54657321Y-134006326D01*
X54601058Y-134264965D01*
X54601057Y-134264972D01*
X54582173Y-134528998D01*
X54582173Y-134529001D01*
X54601057Y-134793027D01*
X54601058Y-134793034D01*
X54657321Y-135051673D01*
X54749826Y-135299690D01*
X54749828Y-135299694D01*
X54876680Y-135532005D01*
X54876685Y-135532013D01*
X55020920Y-135724690D01*
X55045337Y-135790155D01*
X55030485Y-135858427D01*
X55020920Y-135873310D01*
X54876685Y-136065986D01*
X54876680Y-136065994D01*
X54749828Y-136298305D01*
X54749826Y-136298309D01*
X54657321Y-136546326D01*
X54601058Y-136804965D01*
X54601057Y-136804972D01*
X54582173Y-137068998D01*
X54582173Y-137069001D01*
X54601057Y-137333027D01*
X54601058Y-137333034D01*
X54657321Y-137591673D01*
X54749826Y-137839690D01*
X54749828Y-137839694D01*
X54876680Y-138072005D01*
X54876685Y-138072013D01*
X55020920Y-138264690D01*
X55045337Y-138330155D01*
X55030485Y-138398427D01*
X55020920Y-138413310D01*
X54941607Y-138519260D01*
X54885674Y-138561132D01*
X54815982Y-138566116D01*
X54754659Y-138532631D01*
X51717129Y-135495100D01*
X51654825Y-135442332D01*
X51574894Y-135374634D01*
X51361274Y-135247344D01*
X51361272Y-135247343D01*
X51361270Y-135247342D01*
X51129623Y-135156953D01*
X51129616Y-135156951D01*
X50886234Y-135105918D01*
X50637782Y-135095643D01*
X50637781Y-135095643D01*
X50637779Y-135095643D01*
X50452709Y-135118711D01*
X50391018Y-135126401D01*
X50152684Y-135197356D01*
X49929291Y-135306566D01*
X49929284Y-135306570D01*
X49726901Y-135451069D01*
X49551069Y-135626901D01*
X49406570Y-135829284D01*
X49406566Y-135829291D01*
X49297356Y-136052684D01*
X49226401Y-136291018D01*
X49195643Y-136537779D01*
X49205918Y-136786234D01*
X49256951Y-137029616D01*
X49256953Y-137029623D01*
X49347342Y-137261270D01*
X49347344Y-137261274D01*
X49474634Y-137474894D01*
X49542332Y-137554825D01*
X49595100Y-137617129D01*
X52543181Y-140565209D01*
X52576666Y-140626532D01*
X52579500Y-140652890D01*
X52579500Y-148314565D01*
X52594890Y-148500313D01*
X52594892Y-148500324D01*
X52655936Y-148741381D01*
X52755826Y-148969106D01*
X52891833Y-149177282D01*
X52891836Y-149177285D01*
X53060256Y-149360238D01*
X53256491Y-149512974D01*
X53475190Y-149631328D01*
X53710386Y-149712071D01*
X53955665Y-149753000D01*
X54204335Y-149753000D01*
X54442212Y-149713306D01*
X54511576Y-149721688D01*
X54565398Y-149766241D01*
X54586304Y-149826768D01*
X54601057Y-150033027D01*
X54601058Y-150033034D01*
X54657321Y-150291673D01*
X54749826Y-150539690D01*
X54749828Y-150539694D01*
X54876680Y-150772005D01*
X54876685Y-150772013D01*
X55035306Y-150983907D01*
X55035322Y-150983925D01*
X55222474Y-151171077D01*
X55222492Y-151171093D01*
X55282793Y-151216233D01*
X55324665Y-151272166D01*
X55329649Y-151341857D01*
X55296165Y-151403181D01*
X55234842Y-151436666D01*
X55208483Y-151439500D01*
X42381280Y-151439500D01*
X42314241Y-151419815D01*
X42268486Y-151367011D01*
X42258542Y-151297853D01*
X42287567Y-151234297D01*
X42306970Y-151216233D01*
X42387307Y-151156093D01*
X42387307Y-151156092D01*
X42387315Y-151156087D01*
X42574487Y-150968915D01*
X42733116Y-150757011D01*
X42859974Y-150524689D01*
X42952477Y-150276678D01*
X43008743Y-150018026D01*
X43026554Y-149769000D01*
X43027627Y-149754001D01*
X43027627Y-149753998D01*
X43018853Y-149631327D01*
X43008743Y-149489974D01*
X42952477Y-149231322D01*
X42859974Y-148983311D01*
X42852217Y-148969106D01*
X42733119Y-148750994D01*
X42733114Y-148750986D01*
X42588879Y-148558310D01*
X42564462Y-148492846D01*
X42579314Y-148424573D01*
X42588879Y-148409690D01*
X42721887Y-148232011D01*
X42733116Y-148217011D01*
X42859974Y-147984689D01*
X42952477Y-147736678D01*
X43008743Y-147478026D01*
X43027627Y-147214000D01*
X43008743Y-146949974D01*
X42952477Y-146691322D01*
X42859974Y-146443311D01*
X42733116Y-146210989D01*
X42588879Y-146018310D01*
X42564462Y-145952846D01*
X42579314Y-145884573D01*
X42588879Y-145869690D01*
X42721887Y-145692011D01*
X42733116Y-145677011D01*
X42859974Y-145444689D01*
X42952477Y-145196678D01*
X43008743Y-144938026D01*
X43027627Y-144674000D01*
X43008743Y-144409974D01*
X42952477Y-144151322D01*
X42859974Y-143903311D01*
X42733116Y-143670989D01*
X42588879Y-143478310D01*
X42564462Y-143412846D01*
X42579314Y-143344573D01*
X42588879Y-143329690D01*
X42721887Y-143152011D01*
X42733116Y-143137011D01*
X42859974Y-142904689D01*
X42952477Y-142656678D01*
X43008743Y-142398026D01*
X43027627Y-142134000D01*
X43008743Y-141869974D01*
X42952477Y-141611322D01*
X42859974Y-141363311D01*
X42733116Y-141130989D01*
X42588879Y-140938310D01*
X42564462Y-140872846D01*
X42579314Y-140804573D01*
X42588879Y-140789690D01*
X42650663Y-140707155D01*
X42733116Y-140597011D01*
X42859974Y-140364689D01*
X42952477Y-140116678D01*
X43008743Y-139858026D01*
X43027627Y-139594000D01*
X43008743Y-139329974D01*
X42952477Y-139071322D01*
X42859974Y-138823311D01*
X42733116Y-138590989D01*
X42733114Y-138590986D01*
X42588879Y-138398310D01*
X42564462Y-138332846D01*
X42579314Y-138264573D01*
X42588879Y-138249690D01*
X42650663Y-138167155D01*
X42733116Y-138057011D01*
X42859974Y-137824689D01*
X42952477Y-137576678D01*
X43008743Y-137318026D01*
X43027627Y-137054000D01*
X43025883Y-137029623D01*
X43024925Y-137016230D01*
X43008743Y-136789974D01*
X42952477Y-136531322D01*
X42859974Y-136283311D01*
X42741309Y-136065994D01*
X42733119Y-136050994D01*
X42733114Y-136050986D01*
X42588879Y-135858310D01*
X42564462Y-135792846D01*
X42579314Y-135724573D01*
X42588879Y-135709690D01*
X42650854Y-135626901D01*
X42733116Y-135517011D01*
X42859974Y-135284689D01*
X42952477Y-135036678D01*
X43008743Y-134778026D01*
X43027627Y-134514000D01*
X43008743Y-134249974D01*
X42952477Y-133991322D01*
X42859974Y-133743311D01*
X42786816Y-133609334D01*
X42781117Y-133598896D01*
X42766265Y-133530624D01*
X42790682Y-133465159D01*
X42793826Y-133461134D01*
X42862098Y-133377407D01*
X42956309Y-133197049D01*
X43012286Y-133001418D01*
X43022900Y-132882037D01*
X43022899Y-131065964D01*
X43012286Y-130946582D01*
X42956309Y-130750951D01*
X42862098Y-130570593D01*
X42816964Y-130515241D01*
X42789856Y-130450846D01*
X42801865Y-130382016D01*
X42849181Y-130330605D01*
X42913538Y-130312883D01*
X54672605Y-130358061D01*
G37*
%TD.AperFunction*%
%TA.AperFunction,NonConductor*%
G36*
X39905703Y-151104752D02*
G01*
X39912181Y-151110784D01*
X39957474Y-151156077D01*
X39957492Y-151156093D01*
X40037830Y-151216233D01*
X40079702Y-151272166D01*
X40084686Y-151341858D01*
X40051201Y-151403181D01*
X39989878Y-151436666D01*
X39963520Y-151439500D01*
X39824500Y-151439500D01*
X39757461Y-151419815D01*
X39711706Y-151367011D01*
X39700500Y-151315500D01*
X39700500Y-151198465D01*
X39720185Y-151131426D01*
X39772989Y-151085671D01*
X39842147Y-151075727D01*
X39905703Y-151104752D01*
G37*
%TD.AperFunction*%
%TA.AperFunction,NonConductor*%
G36*
X59168250Y-138209406D02*
G01*
X59185311Y-138227930D01*
X59243521Y-138305691D01*
X59267937Y-138371155D01*
X59253085Y-138439428D01*
X59243521Y-138454310D01*
X59183612Y-138534340D01*
X59127678Y-138576212D01*
X59057987Y-138581196D01*
X58996663Y-138547712D01*
X58963178Y-138486389D01*
X58960351Y-138458703D01*
X58962051Y-138300900D01*
X58982455Y-138234080D01*
X59035749Y-138188897D01*
X59105011Y-138179698D01*
X59168250Y-138209406D01*
G37*
%TD.AperFunction*%
%TA.AperFunction,NonConductor*%
G36*
X59141288Y-140713389D02*
G01*
X59158345Y-140731908D01*
X59210000Y-140800911D01*
X59243521Y-140845690D01*
X59267937Y-140911155D01*
X59253085Y-140979428D01*
X59243520Y-140994310D01*
X59155861Y-141111409D01*
X59099928Y-141153281D01*
X59030236Y-141158265D01*
X58968913Y-141124780D01*
X58935428Y-141063457D01*
X58932602Y-141035777D01*
X58935088Y-140804883D01*
X58955494Y-140738063D01*
X59008787Y-140692879D01*
X59078049Y-140683681D01*
X59141288Y-140713389D01*
G37*
%TD.AperFunction*%
%TA.AperFunction,NonConductor*%
G36*
X59114325Y-143217371D02*
G01*
X59131385Y-143235894D01*
X59243520Y-143385690D01*
X59267937Y-143451154D01*
X59253085Y-143519427D01*
X59243520Y-143534310D01*
X59128112Y-143688477D01*
X59072179Y-143730349D01*
X59002487Y-143735333D01*
X58941164Y-143701848D01*
X58907679Y-143640525D01*
X58904853Y-143612843D01*
X58908126Y-143308864D01*
X58928530Y-143242045D01*
X58981824Y-143196862D01*
X59051086Y-143187663D01*
X59114325Y-143217371D01*
G37*
%TD.AperFunction*%
%TA.AperFunction,NonConductor*%
G36*
X59087363Y-145721353D02*
G01*
X59104418Y-145739870D01*
X59203617Y-145872384D01*
X59243521Y-145925690D01*
X59267937Y-145991155D01*
X59253085Y-146059427D01*
X59243520Y-146074310D01*
X59100363Y-146265546D01*
X59044430Y-146307418D01*
X58974738Y-146312402D01*
X58913415Y-146278917D01*
X58879930Y-146217594D01*
X58877103Y-146189909D01*
X58881163Y-145812847D01*
X58901568Y-145746027D01*
X58954862Y-145700844D01*
X59024124Y-145691645D01*
X59087363Y-145721353D01*
G37*
%TD.AperFunction*%
%TA.AperFunction,NonConductor*%
G36*
X59060487Y-148217315D02*
G01*
X59087112Y-148250720D01*
X59099284Y-148273011D01*
X59099285Y-148273013D01*
X59243520Y-148465690D01*
X59267937Y-148531155D01*
X59253085Y-148599427D01*
X59243520Y-148614310D01*
X59099285Y-148806986D01*
X59099280Y-148806994D01*
X59082061Y-148838528D01*
X59032654Y-148887933D01*
X58964381Y-148902783D01*
X58898917Y-148878364D01*
X58857047Y-148822430D01*
X58849238Y-148777771D01*
X58854287Y-148308809D01*
X58874692Y-148241989D01*
X58927986Y-148196805D01*
X58997248Y-148187607D01*
X59060487Y-148217315D01*
G37*
%TD.AperFunction*%
%TA.AperFunction,NonConductor*%
G36*
X74160205Y-130414061D02*
G01*
X74227165Y-130434002D01*
X74272716Y-130486981D01*
X74282394Y-130556177D01*
X74255829Y-130616418D01*
X74235303Y-130641591D01*
X74141089Y-130821954D01*
X74096332Y-130978376D01*
X74089406Y-131002584D01*
X74085114Y-131017583D01*
X74085113Y-131017586D01*
X74074500Y-131136965D01*
X74074500Y-131136966D01*
X74074501Y-132953032D01*
X74074501Y-132953033D01*
X74085113Y-133072415D01*
X74141089Y-133268045D01*
X74141090Y-133268048D01*
X74141091Y-133268049D01*
X74235302Y-133448407D01*
X74235304Y-133448409D01*
X74303551Y-133532108D01*
X74330660Y-133596505D01*
X74318651Y-133665334D01*
X74316282Y-133669895D01*
X74237426Y-133814309D01*
X74144921Y-134062326D01*
X74088658Y-134320965D01*
X74088657Y-134320972D01*
X74069773Y-134584998D01*
X74069773Y-134585001D01*
X74088657Y-134849027D01*
X74088658Y-134849034D01*
X74144921Y-135107673D01*
X74237426Y-135355690D01*
X74237428Y-135355694D01*
X74364280Y-135588005D01*
X74364285Y-135588013D01*
X74508520Y-135780690D01*
X74532937Y-135846155D01*
X74518085Y-135914427D01*
X74508520Y-135929310D01*
X74364285Y-136121986D01*
X74364280Y-136121994D01*
X74237428Y-136354305D01*
X74237426Y-136354309D01*
X74144921Y-136602326D01*
X74088658Y-136860965D01*
X74088657Y-136860972D01*
X74069773Y-137124998D01*
X74069773Y-137125001D01*
X74088657Y-137389027D01*
X74088658Y-137389034D01*
X74144921Y-137647673D01*
X74237426Y-137895690D01*
X74237428Y-137895694D01*
X74364280Y-138128005D01*
X74364285Y-138128013D01*
X74508520Y-138320690D01*
X74532937Y-138386155D01*
X74518085Y-138454427D01*
X74508520Y-138469310D01*
X74429207Y-138575260D01*
X74373274Y-138617132D01*
X74303582Y-138622116D01*
X74242259Y-138588631D01*
X71204729Y-135551100D01*
X71142425Y-135498332D01*
X71062494Y-135430634D01*
X70848874Y-135303344D01*
X70848872Y-135303343D01*
X70848870Y-135303342D01*
X70617223Y-135212953D01*
X70617216Y-135212951D01*
X70373834Y-135161918D01*
X70125382Y-135151643D01*
X70125381Y-135151643D01*
X70125379Y-135151643D01*
X69940309Y-135174711D01*
X69878618Y-135182401D01*
X69640284Y-135253356D01*
X69416891Y-135362566D01*
X69416884Y-135362570D01*
X69214501Y-135507069D01*
X69038669Y-135682901D01*
X68894170Y-135885284D01*
X68894166Y-135885291D01*
X68784956Y-136108684D01*
X68714001Y-136347018D01*
X68683243Y-136593779D01*
X68693518Y-136842234D01*
X68744551Y-137085616D01*
X68744553Y-137085623D01*
X68834942Y-137317270D01*
X68834944Y-137317274D01*
X68962234Y-137530894D01*
X69029932Y-137610825D01*
X69082700Y-137673129D01*
X72030781Y-140621209D01*
X72064266Y-140682532D01*
X72067100Y-140708890D01*
X72067100Y-148370565D01*
X72082490Y-148556313D01*
X72082492Y-148556324D01*
X72143536Y-148797381D01*
X72243426Y-149025106D01*
X72379433Y-149233282D01*
X72379436Y-149233285D01*
X72547856Y-149416238D01*
X72744091Y-149568974D01*
X72962790Y-149687328D01*
X73197986Y-149768071D01*
X73443265Y-149809000D01*
X73691935Y-149809000D01*
X73929812Y-149769306D01*
X73999176Y-149777688D01*
X74052998Y-149822241D01*
X74073904Y-149882768D01*
X74088657Y-150089027D01*
X74088658Y-150089034D01*
X74144921Y-150347673D01*
X74237426Y-150595690D01*
X74237428Y-150595694D01*
X74364280Y-150828005D01*
X74364285Y-150828013D01*
X74522906Y-151039907D01*
X74522922Y-151039925D01*
X74710816Y-151227819D01*
X74744301Y-151289142D01*
X74739317Y-151358834D01*
X74697445Y-151414767D01*
X74631981Y-151439184D01*
X74623135Y-151439500D01*
X61943687Y-151439500D01*
X61876648Y-151419815D01*
X61830893Y-151367011D01*
X61820949Y-151297853D01*
X61849974Y-151234297D01*
X61869378Y-151216232D01*
X61869809Y-151215909D01*
X61874915Y-151212087D01*
X62062087Y-151024915D01*
X62220716Y-150813011D01*
X62347574Y-150580689D01*
X62440077Y-150332678D01*
X62496343Y-150074026D01*
X62514154Y-149825000D01*
X62515227Y-149810001D01*
X62515227Y-149809998D01*
X62506453Y-149687327D01*
X62496343Y-149545974D01*
X62440077Y-149287322D01*
X62347574Y-149039311D01*
X62339817Y-149025106D01*
X62220719Y-148806994D01*
X62220714Y-148806986D01*
X62076479Y-148614310D01*
X62052062Y-148548846D01*
X62066914Y-148480573D01*
X62076479Y-148465690D01*
X62209487Y-148288011D01*
X62220716Y-148273011D01*
X62347574Y-148040689D01*
X62440077Y-147792678D01*
X62496343Y-147534026D01*
X62515227Y-147270000D01*
X62496343Y-147005974D01*
X62440077Y-146747322D01*
X62347574Y-146499311D01*
X62314978Y-146439617D01*
X62220719Y-146266994D01*
X62220714Y-146266986D01*
X62076479Y-146074310D01*
X62052062Y-146008846D01*
X62066914Y-145940573D01*
X62076479Y-145925690D01*
X62210972Y-145746027D01*
X62220716Y-145733011D01*
X62347574Y-145500689D01*
X62440077Y-145252678D01*
X62496343Y-144994026D01*
X62515227Y-144730000D01*
X62496343Y-144465974D01*
X62440077Y-144207322D01*
X62347574Y-143959311D01*
X62220716Y-143726989D01*
X62201896Y-143701848D01*
X62076479Y-143534310D01*
X62052062Y-143468846D01*
X62066914Y-143400573D01*
X62076479Y-143385690D01*
X62138263Y-143303155D01*
X62220716Y-143193011D01*
X62347574Y-142960689D01*
X62440077Y-142712678D01*
X62496343Y-142454026D01*
X62515227Y-142190000D01*
X62496343Y-141925974D01*
X62440077Y-141667322D01*
X62347574Y-141419311D01*
X62220716Y-141186989D01*
X62164138Y-141111409D01*
X62076479Y-140994310D01*
X62052062Y-140928846D01*
X62066914Y-140860573D01*
X62076479Y-140845690D01*
X62157047Y-140738063D01*
X62220716Y-140653011D01*
X62347574Y-140420689D01*
X62440077Y-140172678D01*
X62496343Y-139914026D01*
X62515227Y-139650000D01*
X62496343Y-139385974D01*
X62440077Y-139127322D01*
X62347574Y-138879311D01*
X62220716Y-138646989D01*
X62220714Y-138646986D01*
X62076479Y-138454310D01*
X62052062Y-138388846D01*
X62066914Y-138320573D01*
X62076479Y-138305690D01*
X62148556Y-138209406D01*
X62220716Y-138113011D01*
X62347574Y-137880689D01*
X62440077Y-137632678D01*
X62496343Y-137374026D01*
X62515227Y-137110000D01*
X62513483Y-137085623D01*
X62512525Y-137072230D01*
X62496343Y-136845974D01*
X62440077Y-136587322D01*
X62347574Y-136339311D01*
X62228909Y-136121994D01*
X62220719Y-136106994D01*
X62220714Y-136106986D01*
X62076479Y-135914310D01*
X62052062Y-135848846D01*
X62066914Y-135780573D01*
X62076479Y-135765690D01*
X62138454Y-135682901D01*
X62220716Y-135573011D01*
X62347574Y-135340689D01*
X62440077Y-135092678D01*
X62496343Y-134834026D01*
X62515227Y-134570000D01*
X62496343Y-134305974D01*
X62440077Y-134047322D01*
X62347574Y-133799311D01*
X62274416Y-133665334D01*
X62268717Y-133654896D01*
X62253865Y-133586624D01*
X62278282Y-133521159D01*
X62281426Y-133517134D01*
X62349698Y-133433407D01*
X62443909Y-133253049D01*
X62499886Y-133057418D01*
X62510500Y-132938037D01*
X62510499Y-131121964D01*
X62499886Y-131002582D01*
X62443909Y-130806951D01*
X62349698Y-130626593D01*
X62304565Y-130571241D01*
X62277456Y-130506848D01*
X62289465Y-130438018D01*
X62336780Y-130386607D01*
X62401139Y-130368884D01*
X74160205Y-130414061D01*
G37*
%TD.AperFunction*%
%TA.AperFunction,NonConductor*%
G36*
X59033666Y-150708196D02*
G01*
X59060291Y-150741602D01*
X59099280Y-150813005D01*
X59099285Y-150813013D01*
X59257906Y-151024907D01*
X59257922Y-151024925D01*
X59445074Y-151212077D01*
X59445081Y-151212083D01*
X59445085Y-151212087D01*
X59445088Y-151212089D01*
X59445089Y-151212090D01*
X59450622Y-151216232D01*
X59492494Y-151272165D01*
X59497480Y-151341856D01*
X59463995Y-151403180D01*
X59402673Y-151436666D01*
X59376313Y-151439500D01*
X58945920Y-151439500D01*
X58878881Y-151419815D01*
X58833126Y-151367011D01*
X58821927Y-151314165D01*
X58825041Y-151024925D01*
X58827466Y-150799691D01*
X58847871Y-150732870D01*
X58901165Y-150687687D01*
X58970426Y-150678488D01*
X59033666Y-150708196D01*
G37*
%TD.AperFunction*%
M02*
