M48
; DRILL file {KiCad 7.0.8} date Tue Mar  5 23:25:37 2024
; FORMAT={-:-/ absolute / inch / decimal}
; #@! TF.CreationDate,2024-03-05T23:25:37+02:00
; #@! TF.GenerationSoftware,Kicad,Pcbnew,7.0.8
; #@! TF.FileFunction,Plated,1,2,PTH
FMAT,2
INCH
; #@! TA.AperFunction,Plated,PTH,ViaDrill
T1C0.0118
; #@! TA.AperFunction,Plated,PTH,ViaDrill
T2C0.0157
; #@! TA.AperFunction,Plated,PTH,ViaDrill
T3C0.0276
; #@! TA.AperFunction,Plated,PTH,ComponentDrill
T4C0.0354
; #@! TA.AperFunction,Plated,PTH,ComponentDrill
T5C0.0394
; #@! TA.AperFunction,Plated,PTH,ComponentDrill
T6C0.0433
; #@! TA.AperFunction,Plated,PTH,ComponentDrill
T7C0.0591
%
G90
G05
T1
X2.1002Y-2.4195
X2.1199Y-2.3941
X2.2181Y-2.681
X2.2181Y-2.7125
X2.2659Y-2.7132
X2.3389Y-2.6899
X2.3428Y-2.6062
X2.4334Y-2.8963
X2.4649Y-2.5603
X2.5541Y-2.681
X2.5541Y-2.7125
X2.5541Y-2.744
X2.5541Y-2.7755
X2.5541Y-2.807
X2.5541Y-2.8385
X2.7217Y-3.5551
X2.763Y-3.5465
X2.7906Y-3.5268
X2.8181Y-3.5079
X3.6823Y-3.972
X3.7138Y-3.9681
X3.8562Y-3.2749
X3.8752Y-3.304
X3.8954Y-3.334
X4.2632Y-2.8461
X4.3183Y-2.848
X4.3675Y-3.0075
X4.3675Y-3.0799
X4.3852Y-3.0449
X4.4423Y-3.2535
X4.5676Y-3.972
X4.5704Y-2.9143
X4.5774Y-2.9438
X4.5991Y-3.9681
X4.607Y-3.0068
T2
X1.9311Y-4.5
X1.9311Y-4.6504
X1.9961Y-5.378
X2.1291Y-5.8367
X2.1449Y-4.4996
X2.6744Y-2.7039
X2.6987Y-4.4994
X2.6987Y-4.6498
X2.7535Y-2.7039
X2.7633Y-5.3802
X2.8964Y-5.8389
X2.9125Y-4.499
X3.2374Y-4.0587
X3.2571Y-3.8598
X3.4303Y-3.974
X3.5067Y-4.1579
X3.7138Y-4.0756
X3.7459Y-4.9171
X3.7951Y-4.9171
X3.8193Y-3.8917
X3.9646Y-5.7187
X4.0844Y-4.6159
X4.1227Y-4.0587
X4.1424Y-3.8598
X4.3156Y-3.974
X4.392Y-4.1579
X4.468Y-2.9103
X4.5991Y-4.0756
X4.7046Y-3.8917
T3
X3.0067Y-3.4051
T4
X2.9878Y-2.6846
X2.9878Y-2.7634
X2.9878Y-2.8421
X3.5781Y-2.037
X3.6569Y-2.037
X3.7356Y-2.037
T5
X1.621Y-5.1958
X1.621Y-5.2958
X1.621Y-5.3958
X1.621Y-5.4958
X1.621Y-5.5958
X1.621Y-5.6958
X1.621Y-5.7958
X1.621Y-5.8958
X1.6551Y-2.3016
X1.6551Y-2.4016
X1.6551Y-2.5016
X1.6551Y-2.6016
X1.6551Y-2.7016
X1.6551Y-2.8016
X1.9035Y-2.9236
X1.9136Y-2.0256
X1.9136Y-2.1256
X1.9136Y-2.2256
X1.9136Y-2.3256
X1.9271Y-3.069
X1.9271Y-3.169
X1.9271Y-3.269
X1.9271Y-3.369
X1.9271Y-3.469
X1.9271Y-3.569
X1.9271Y-3.669
X1.9271Y-3.769
X1.9898Y-4.2795
X2.0035Y-2.9236
X2.0136Y-2.0256
X2.0136Y-2.1256
X2.0136Y-2.2256
X2.0136Y-2.3256
X2.0542Y-3.6689
X2.0866Y-4.1055
X2.0898Y-4.2795
X2.1035Y-2.9236
X2.1542Y-3.6689
X2.189Y-4.1055
X2.1898Y-4.2795
X2.2183Y-2.2431
X2.2183Y-2.3431
X2.2183Y-2.4431
X2.2219Y-5.1964
X2.2219Y-5.2964
X2.2219Y-5.3964
X2.2219Y-5.4964
X2.2219Y-5.5964
X2.2219Y-5.6964
X2.2219Y-5.7964
X2.2219Y-5.8964
X2.3002Y-3.6689
X2.3183Y-2.2431
X2.3183Y-2.3431
X2.3183Y-2.4431
X2.3882Y-5.198
X2.3882Y-5.298
X2.3882Y-5.398
X2.3882Y-5.498
X2.3882Y-5.598
X2.3882Y-5.698
X2.3882Y-5.798
X2.3882Y-5.898
X2.4002Y-3.6689
X2.4683Y-2.2431
X2.5281Y-3.0696
X2.5281Y-3.1696
X2.5281Y-3.2696
X2.5281Y-3.3696
X2.5281Y-3.4696
X2.5281Y-3.5696
X2.5281Y-3.6696
X2.5281Y-3.7696
X2.5683Y-2.2431
X2.6683Y-2.2431
X2.6685Y-2.3484
X2.6685Y-2.4484
X2.6685Y-2.5484
X2.7574Y-4.2789
X2.7683Y-2.2431
X2.7685Y-2.3484
X2.7685Y-2.4484
X2.7685Y-2.5484
X2.8543Y-4.1049
X2.8574Y-4.2789
X2.9566Y-4.1049
X2.9574Y-4.2789
X2.9892Y-5.1986
X2.9892Y-5.2986
X2.9892Y-5.3986
X2.9892Y-5.4986
X2.9892Y-5.5986
X2.9892Y-5.6986
X2.9892Y-5.7986
X2.9892Y-5.8986
X2.9933Y-2.3555
X2.9933Y-2.4555
X3.1827Y-5.3577
X3.1827Y-5.4577
X3.1827Y-5.5577
X3.1827Y-5.6577
X3.1827Y-5.7577
X3.1827Y-5.8577
X3.1915Y-4.2763
X3.1921Y-3.6753
X3.2226Y-3.1906
X3.2232Y-2.5896
X3.2454Y-4.6348
X3.2454Y-4.7348
X3.2454Y-4.8348
X3.2454Y-4.9348
X3.2454Y-5.0348
X3.2454Y-5.1348
X3.2915Y-4.2763
X3.2921Y-3.6753
X3.3226Y-3.1906
X3.3232Y-2.5896
X3.3331Y-2.7195
X3.3331Y-2.8195
X3.3331Y-2.9656
X3.3331Y-3.0656
X3.3915Y-4.2763
X3.3921Y-3.6753
X3.4226Y-3.1906
X3.4232Y-2.5896
X3.4807Y-5.8589
X3.4915Y-4.2763
X3.4921Y-3.6753
X3.5226Y-3.1906
X3.5232Y-2.5896
X3.5807Y-5.8589
X3.5915Y-4.2763
X3.5921Y-3.6753
X3.6226Y-3.1906
X3.6232Y-2.5896
X3.6807Y-5.8589
X3.6915Y-4.2763
X3.6921Y-3.6753
X3.7226Y-3.1906
X3.7232Y-2.5896
X3.7807Y-5.8589
X3.7915Y-4.2763
X3.7921Y-3.6753
X3.8196Y-3.4458
X3.8226Y-3.1906
X3.8232Y-2.5896
X3.8715Y-2.7929
X3.8715Y-2.8929
X3.8915Y-4.2763
X3.8921Y-3.6753
X3.9196Y-3.4458
X3.9226Y-3.1906
X3.9232Y-2.5896
X3.9746Y-2.0496
X4.0196Y-3.4458
X4.0386Y-5.8463
X4.0746Y-2.0496
X4.0768Y-4.2763
X4.0774Y-3.6753
X4.1196Y-3.4458
X4.1386Y-5.8463
X4.1746Y-2.0496
X4.1768Y-4.2763
X4.1774Y-3.6753
X4.2196Y-3.4458
X4.2386Y-5.8463
X4.2746Y-2.0496
X4.2768Y-4.2763
X4.2774Y-3.6753
X4.3746Y-2.0496
X4.3768Y-4.2763
X4.3774Y-3.6753
X4.3797Y-3.3055
X4.3797Y-3.4055
X4.3797Y-3.5055
X4.4746Y-2.0496
X4.4768Y-4.2763
X4.4774Y-3.6753
X4.4797Y-3.3055
X4.4797Y-3.4055
X4.4797Y-3.5055
X4.5768Y-4.2763
X4.5774Y-3.6753
X4.6768Y-4.2763
X4.6774Y-3.6753
X4.6825Y-2.3067
X4.6825Y-2.4067
X4.6825Y-2.5067
X4.6825Y-2.6067
X4.6825Y-2.7067
X4.6825Y-2.8067
X4.6825Y-2.9067
X4.6825Y-3.0067
X4.6825Y-3.1067
X4.6825Y-3.2067
X4.7768Y-4.2763
X4.7774Y-3.6753
X4.8043Y-5.6374
X4.8114Y-5.4382
X4.9043Y-5.6374
X4.9114Y-5.4382
X5.0043Y-5.6374
X5.0114Y-5.4382
X5.0702Y-3.0547
X5.0702Y-3.1547
X5.0702Y-3.2547
X5.0702Y-3.3547
X5.0702Y-3.4547
X5.0702Y-3.5547
X5.0702Y-3.6547
X5.0702Y-3.7547
X5.0702Y-3.8547
X5.0702Y-3.9547
X5.1043Y-5.6374
X5.1114Y-5.4382
X5.2043Y-5.6374
X5.2114Y-5.4382
X5.3043Y-5.6374
X5.3114Y-5.4382
T6
X1.8705Y-2.5035
X1.8705Y-2.7594
X2.0476Y-2.5035
X2.0476Y-2.7594
X4.1885Y-2.4458
X4.1885Y-2.6229
X4.4444Y-2.4458
X4.4444Y-2.6229
T7
X2.9878Y-2.602
X2.9878Y-2.9248
X3.4955Y-2.037
X3.8183Y-2.037
T0
M30
