%TF.GenerationSoftware,KiCad,Pcbnew,7.0.8*%
%TF.CreationDate,2024-03-05T23:25:34+02:00*%
%TF.ProjectId,JLC4_RoboChalangeBoards,4a4c4334-5f52-46f6-926f-4368616c616e,rev?*%
%TF.SameCoordinates,Original*%
%TF.FileFunction,Profile,NP*%
%FSLAX46Y46*%
G04 Gerber Fmt 4.6, Leading zero omitted, Abs format (unit mm)*
G04 Created by KiCad (PCBNEW 7.0.8) date 2024-03-05 23:25:34*
%MOMM*%
%LPD*%
G01*
G04 APERTURE LIST*
%TA.AperFunction,Profile*%
%ADD10C,0.100000*%
%TD*%
G04 APERTURE END LIST*
D10*
X123020000Y-110090000D02*
X123020000Y-105090000D01*
X51200000Y-102070000D02*
X39700000Y-102070000D01*
X124500000Y-97090000D02*
X124500000Y-72090000D01*
X118800000Y-129880000D02*
G75*
G03*
X115300000Y-133380000I-100J-3499900D01*
G01*
X123120000Y-111260000D02*
X123120000Y-116260000D01*
X118800000Y-136880000D02*
X121800000Y-139880000D01*
X108895000Y-131950000D02*
X108900000Y-125950000D01*
X118020000Y-110090000D02*
X118020000Y-111260000D01*
X135140000Y-139880000D02*
X135140000Y-141440000D01*
X107630000Y-90590000D02*
X107630000Y-92090000D01*
X108895000Y-116340000D02*
G75*
G03*
X108395000Y-115840000I-500100J-100D01*
G01*
X123020000Y-105090000D02*
X124500000Y-105090000D01*
X110290000Y-121340000D02*
X110290000Y-111260000D01*
X109310000Y-151435000D02*
G75*
G03*
X109810000Y-150935000I0J500000D01*
G01*
X123110000Y-128560000D02*
X123110000Y-122560000D01*
X123135000Y-87090000D02*
X123130000Y-72090000D01*
X79585000Y-75090000D02*
X78205000Y-75090000D01*
X83085000Y-49440000D02*
G75*
G03*
X79585000Y-52940000I0J-3500000D01*
G01*
X110290000Y-111260000D02*
X111880000Y-111270000D01*
X79310000Y-133435000D02*
X87310000Y-133430000D01*
X39700000Y-52950000D02*
X39700000Y-94450000D01*
X77200000Y-135270000D02*
X78810000Y-135270000D01*
X120985000Y-86890000D02*
G75*
G03*
X120985000Y-86890000I-1500000J0D01*
G01*
X119635000Y-90590000D02*
G75*
G03*
X123135000Y-87090000I0J3500000D01*
G01*
X74700000Y-97950000D02*
G75*
G03*
X78200000Y-94450000I-70J3500070D01*
G01*
X39700000Y-94450000D02*
G75*
G03*
X43200000Y-97950000I3499900J-100D01*
G01*
X43200000Y-49450000D02*
G75*
G03*
X39700000Y-52950000I-140J-3499860D01*
G01*
X121800000Y-141440000D02*
X109810000Y-141440000D01*
X138135126Y-136884874D02*
X135140000Y-139880000D01*
X115304874Y-147935126D02*
G75*
G03*
X118804874Y-151435126I3500026J26D01*
G01*
X83085000Y-90590000D02*
X95090000Y-90590000D01*
X77205000Y-126700000D02*
X78895000Y-126700000D01*
X87310000Y-132450000D02*
X79395000Y-132450000D01*
X108395000Y-132450000D02*
G75*
G03*
X108895000Y-131950000I0J500000D01*
G01*
X141640000Y-147940000D02*
G75*
G03*
X138140000Y-144440000I-3500000J0D01*
G01*
X123130000Y-72090000D02*
X124500000Y-72090000D01*
X120985000Y-53140000D02*
G75*
G03*
X120985000Y-53140000I-1500000J0D01*
G01*
X84805000Y-86890000D02*
G75*
G03*
X84805000Y-86890000I-1500000J0D01*
G01*
X79395000Y-115840000D02*
G75*
G03*
X78895000Y-116340000I100J-500100D01*
G01*
X123130000Y-62940000D02*
X124500000Y-62940000D01*
X44700000Y-52950000D02*
G75*
G03*
X44700000Y-52950000I-1500000J0D01*
G01*
X99310000Y-133430000D02*
X99310000Y-132450000D01*
X124500000Y-116260000D02*
X124500000Y-105090000D01*
X79580000Y-64950000D02*
X79585000Y-52940000D01*
X109810000Y-141440000D02*
X109810000Y-150935000D01*
X74700000Y-49450000D02*
X43200000Y-49450000D01*
X111880000Y-110095000D02*
X111880000Y-111270000D01*
X83085000Y-49440000D02*
X119635000Y-49440000D01*
X138140000Y-151440000D02*
X118804874Y-151435126D01*
X139640000Y-147940000D02*
G75*
G03*
X139640000Y-147940000I-1500000J0D01*
G01*
X139630000Y-133390000D02*
G75*
G03*
X139630000Y-133390000I-1500000J0D01*
G01*
X138135126Y-136884826D02*
G75*
G03*
X141635126Y-133384874I174J3499826D01*
G01*
X77200000Y-135270000D02*
X77205000Y-126700000D01*
X124500000Y-62940000D02*
X124500000Y-49440000D01*
X79310000Y-133435000D02*
G75*
G03*
X78810000Y-133935000I-100J-499900D01*
G01*
X141635126Y-133384874D02*
G75*
G03*
X138135126Y-129884874I-3500026J-26D01*
G01*
X78810000Y-146440000D02*
X78810000Y-150935000D01*
X86898603Y-120886496D02*
G75*
G03*
X86898603Y-120886496I-1000050J0D01*
G01*
X130025000Y-53540000D02*
G75*
G03*
X130025000Y-53540000I-1500000J0D01*
G01*
X123020000Y-92090000D02*
X123020000Y-97090000D01*
X78895000Y-126700000D02*
X78895000Y-131950000D01*
X86898603Y-127886496D02*
G75*
G03*
X86898603Y-127886496I-1000050J0D01*
G01*
X110290000Y-128560000D02*
X123110000Y-128560000D01*
X78810000Y-150935000D02*
G75*
G03*
X79310000Y-151435000I499800J-200D01*
G01*
X39700000Y-151440000D02*
X77240000Y-151440000D01*
X118800000Y-129880000D02*
X127800000Y-129880000D01*
X77240000Y-151440000D02*
X77240000Y-146440000D01*
X134100000Y-129890000D02*
X134100000Y-128640000D01*
X95090000Y-90590000D02*
X95090000Y-92090000D01*
X44700000Y-94450000D02*
G75*
G03*
X44700000Y-94450000I-1500000J0D01*
G01*
X108895000Y-116340000D02*
X108900000Y-121340000D01*
X76200000Y-52950000D02*
G75*
G03*
X76200000Y-52950000I-1500000J0D01*
G01*
X110290000Y-125950000D02*
X108900000Y-125950000D01*
X129975000Y-124640000D02*
G75*
G03*
X129975000Y-124640000I-1500000J0D01*
G01*
X123120000Y-111260000D02*
X118020000Y-111260000D01*
X118804874Y-144435174D02*
G75*
G03*
X115304874Y-147935126I-174J-3499826D01*
G01*
X138135126Y-129884874D02*
X134100000Y-129890000D01*
X66700000Y-102060000D02*
X77200000Y-102060000D01*
X123020000Y-110090000D02*
X118020000Y-110090000D01*
X84805000Y-53140000D02*
G75*
G03*
X84805000Y-53140000I-1500000J0D01*
G01*
X123110000Y-122560000D02*
X124500000Y-122560000D01*
X87310000Y-133430000D02*
X87310000Y-132450000D01*
X79585000Y-87090000D02*
G75*
G03*
X83085000Y-90590000I3500000J0D01*
G01*
X78200000Y-64950000D02*
X79580000Y-64950000D01*
X123135000Y-52940000D02*
X123130000Y-62940000D01*
X109310000Y-133435000D02*
X99310000Y-133430000D01*
X108900000Y-121340000D02*
X110290000Y-121340000D01*
X120300000Y-133380000D02*
G75*
G03*
X120300000Y-133380000I-1500000J0D01*
G01*
X124500000Y-49440000D02*
X141700000Y-49440000D01*
X111880000Y-110095000D02*
X79530000Y-110090000D01*
X76200000Y-94450000D02*
G75*
G03*
X76200000Y-94450000I-1500000J0D01*
G01*
X121800000Y-139880000D02*
X109810000Y-139880000D01*
X118804874Y-144435126D02*
X121800000Y-141440000D01*
X95090000Y-92090000D02*
X79530000Y-92090000D01*
X110290000Y-128560000D02*
X110290000Y-125950000D01*
X108395000Y-115840000D02*
X79395000Y-115840000D01*
X124500000Y-122560000D02*
X124500000Y-128640000D01*
X138140000Y-151440000D02*
G75*
G03*
X141640000Y-147940000I100J3499900D01*
G01*
X78895000Y-116340000D02*
X78900000Y-117060000D01*
X127800000Y-128640000D02*
X124500000Y-128640000D01*
X127800000Y-129880000D02*
X127800000Y-128640000D01*
X109310000Y-151435000D02*
X79310000Y-151435000D01*
X119635000Y-90590000D02*
X107630000Y-90590000D01*
X141700000Y-49440000D02*
X141700000Y-128640000D01*
X74700000Y-97950000D02*
X66700000Y-97950000D01*
X51200000Y-97950000D02*
X51200000Y-102070000D01*
X43200000Y-97950000D02*
X51200000Y-97950000D01*
X123135000Y-52940000D02*
G75*
G03*
X119635000Y-49440000I-3500000J0D01*
G01*
X123120000Y-116260000D02*
X124500000Y-116260000D01*
X78895000Y-131950000D02*
G75*
G03*
X79395000Y-132450000I499900J-100D01*
G01*
X99310000Y-132450000D02*
X108395000Y-132450000D01*
X107630000Y-92090000D02*
X123020000Y-92090000D01*
X120310000Y-147930000D02*
G75*
G03*
X120310000Y-147930000I-1500000J0D01*
G01*
X78205000Y-75090000D02*
X78200000Y-94450000D01*
X138140000Y-144440000D02*
X135140000Y-141440000D01*
X39700000Y-102070000D02*
X39700000Y-151440000D01*
X79585000Y-87090000D02*
X79585000Y-75090000D01*
X134100000Y-128640000D02*
X141700000Y-128640000D01*
X77240000Y-146440000D02*
X78810000Y-146440000D01*
X66700000Y-97950000D02*
X66700000Y-102060000D01*
X123020000Y-97090000D02*
X124500000Y-97090000D01*
X109810000Y-133935000D02*
G75*
G03*
X109310000Y-133435000I-500000J0D01*
G01*
X78200000Y-52950000D02*
X78200000Y-64950000D01*
X115300000Y-133380000D02*
G75*
G03*
X118800000Y-136880000I3500000J0D01*
G01*
X79530000Y-110090000D02*
X79530000Y-92090000D01*
X109810000Y-133935000D02*
X109810000Y-139880000D01*
X77210000Y-117060000D02*
X78900000Y-117060000D01*
X77200000Y-102060000D02*
X77210000Y-117060000D01*
X78810000Y-133935000D02*
X78810000Y-135270000D01*
X78200000Y-52950000D02*
G75*
G03*
X74700000Y-49450000I-3499900J100D01*
G01*
M02*
