%TF.GenerationSoftware,KiCad,Pcbnew,7.0.8*%
%TF.CreationDate,2024-03-05T23:25:32+02:00*%
%TF.ProjectId,JLC4_RoboChalangeBoards,4a4c4334-5f52-46f6-926f-4368616c616e,rev?*%
%TF.SameCoordinates,Original*%
%TF.FileFunction,Paste,Top*%
%TF.FilePolarity,Positive*%
%FSLAX46Y46*%
G04 Gerber Fmt 4.6, Leading zero omitted, Abs format (unit mm)*
G04 Created by KiCad (PCBNEW 7.0.8) date 2024-03-05 23:25:32*
%MOMM*%
%LPD*%
G01*
G04 APERTURE LIST*
G04 Aperture macros list*
%AMRoundRect*
0 Rectangle with rounded corners*
0 $1 Rounding radius*
0 $2 $3 $4 $5 $6 $7 $8 $9 X,Y pos of 4 corners*
0 Add a 4 corners polygon primitive as box body*
4,1,4,$2,$3,$4,$5,$6,$7,$8,$9,$2,$3,0*
0 Add four circle primitives for the rounded corners*
1,1,$1+$1,$2,$3*
1,1,$1+$1,$4,$5*
1,1,$1+$1,$6,$7*
1,1,$1+$1,$8,$9*
0 Add four rect primitives between the rounded corners*
20,1,$1+$1,$2,$3,$4,$5,0*
20,1,$1+$1,$4,$5,$6,$7,0*
20,1,$1+$1,$6,$7,$8,$9,0*
20,1,$1+$1,$8,$9,$2,$3,0*%
G04 Aperture macros list end*
%ADD10RoundRect,0.250000X-0.350000X-0.450000X0.350000X-0.450000X0.350000X0.450000X-0.350000X0.450000X0*%
%ADD11R,0.400000X1.900000*%
%ADD12RoundRect,0.250000X-0.750000X0.250000X-0.750000X-0.250000X0.750000X-0.250000X0.750000X0.250000X0*%
%ADD13R,1.750000X0.450000*%
%ADD14R,1.200000X0.650000*%
%ADD15RoundRect,0.250000X0.325000X0.450000X-0.325000X0.450000X-0.325000X-0.450000X0.325000X-0.450000X0*%
%ADD16R,0.508000X1.422400*%
%ADD17R,1.422400X0.508000*%
%ADD18RoundRect,0.250000X-0.450000X0.350000X-0.450000X-0.350000X0.450000X-0.350000X0.450000X0.350000X0*%
%ADD19RoundRect,0.250000X1.100000X-0.412500X1.100000X0.412500X-1.100000X0.412500X-1.100000X-0.412500X0*%
%ADD20RoundRect,0.250001X0.462499X0.624999X-0.462499X0.624999X-0.462499X-0.624999X0.462499X-0.624999X0*%
%ADD21RoundRect,0.250000X0.312500X0.625000X-0.312500X0.625000X-0.312500X-0.625000X0.312500X-0.625000X0*%
%ADD22RoundRect,0.250000X-0.625000X0.312500X-0.625000X-0.312500X0.625000X-0.312500X0.625000X0.312500X0*%
%ADD23R,1.000000X1.500000*%
%ADD24R,2.200000X3.700000*%
%ADD25R,1.000000X1.800000*%
%ADD26RoundRect,0.237500X-0.237500X0.250000X-0.237500X-0.250000X0.237500X-0.250000X0.237500X0.250000X0*%
%ADD27RoundRect,0.237500X0.237500X-0.250000X0.237500X0.250000X-0.237500X0.250000X-0.237500X-0.250000X0*%
%ADD28R,1.475000X0.450000*%
%ADD29RoundRect,0.250000X-0.312500X-0.625000X0.312500X-0.625000X0.312500X0.625000X-0.312500X0.625000X0*%
%ADD30RoundRect,0.250000X0.475000X-0.337500X0.475000X0.337500X-0.475000X0.337500X-0.475000X-0.337500X0*%
%ADD31RoundRect,0.237500X-0.250000X-0.237500X0.250000X-0.237500X0.250000X0.237500X-0.250000X0.237500X0*%
%ADD32RoundRect,0.250000X-0.325000X-0.650000X0.325000X-0.650000X0.325000X0.650000X-0.325000X0.650000X0*%
%ADD33RoundRect,0.250000X0.325000X0.650000X-0.325000X0.650000X-0.325000X-0.650000X0.325000X-0.650000X0*%
%ADD34R,1.500000X2.200000*%
%ADD35R,1.500000X1.000000*%
%ADD36R,3.700000X2.200000*%
%ADD37R,1.800000X1.000000*%
%ADD38RoundRect,0.250000X1.050000X0.550000X-1.050000X0.550000X-1.050000X-0.550000X1.050000X-0.550000X0*%
%ADD39RoundRect,0.250000X0.475000X-0.250000X0.475000X0.250000X-0.475000X0.250000X-0.475000X-0.250000X0*%
%ADD40R,2.200000X2.200000*%
%ADD41R,2.200000X1.250000*%
%ADD42RoundRect,0.237500X-0.300000X-0.237500X0.300000X-0.237500X0.300000X0.237500X-0.300000X0.237500X0*%
%ADD43R,2.500000X0.500000*%
%ADD44R,2.500000X2.000000*%
%ADD45RoundRect,0.250000X-0.250000X-0.475000X0.250000X-0.475000X0.250000X0.475000X-0.250000X0.475000X0*%
%ADD46RoundRect,0.250000X-0.337500X-0.475000X0.337500X-0.475000X0.337500X0.475000X-0.337500X0.475000X0*%
%ADD47R,2.440000X1.120000*%
%ADD48R,0.450000X1.750000*%
%ADD49RoundRect,0.250000X-0.475000X0.337500X-0.475000X-0.337500X0.475000X-0.337500X0.475000X0.337500X0*%
%ADD50RoundRect,0.250000X0.412500X1.100000X-0.412500X1.100000X-0.412500X-1.100000X0.412500X-1.100000X0*%
%ADD51RoundRect,0.197500X0.197500X0.632500X-0.197500X0.632500X-0.197500X-0.632500X0.197500X-0.632500X0*%
%ADD52RoundRect,0.049600X-0.260400X0.605400X-0.260400X-0.605400X0.260400X-0.605400X0.260400X0.605400X0*%
%ADD53RoundRect,0.250000X-0.475000X0.250000X-0.475000X-0.250000X0.475000X-0.250000X0.475000X0.250000X0*%
%ADD54RoundRect,0.250000X0.650000X-0.325000X0.650000X0.325000X-0.650000X0.325000X-0.650000X-0.325000X0*%
%ADD55RoundRect,0.237500X-0.237500X0.300000X-0.237500X-0.300000X0.237500X-0.300000X0.237500X0.300000X0*%
%ADD56RoundRect,0.250000X-0.412500X-1.100000X0.412500X-1.100000X0.412500X1.100000X-0.412500X1.100000X0*%
%ADD57RoundRect,0.175000X-0.175000X-0.425000X0.175000X-0.425000X0.175000X0.425000X-0.175000X0.425000X0*%
%ADD58RoundRect,0.190000X0.190000X0.410000X-0.190000X0.410000X-0.190000X-0.410000X0.190000X-0.410000X0*%
%ADD59RoundRect,0.200000X0.200000X0.400000X-0.200000X0.400000X-0.200000X-0.400000X0.200000X-0.400000X0*%
%ADD60RoundRect,0.175000X0.175000X0.425000X-0.175000X0.425000X-0.175000X-0.425000X0.175000X-0.425000X0*%
%ADD61RoundRect,0.190000X-0.190000X-0.410000X0.190000X-0.410000X0.190000X0.410000X-0.190000X0.410000X0*%
%ADD62RoundRect,0.200000X-0.200000X-0.400000X0.200000X-0.400000X0.200000X0.400000X-0.200000X0.400000X0*%
%ADD63RoundRect,0.250000X-0.650000X-0.425000X0.650000X-0.425000X0.650000X0.425000X-0.650000X0.425000X0*%
%ADD64RoundRect,0.250000X-0.650000X-0.500000X0.650000X-0.500000X0.650000X0.500000X-0.650000X0.500000X0*%
%ADD65R,1.525000X0.700000*%
%ADD66R,2.513000X3.402000*%
%ADD67RoundRect,0.237500X0.250000X0.237500X-0.250000X0.237500X-0.250000X-0.237500X0.250000X-0.237500X0*%
%ADD68RoundRect,0.250001X0.624999X-0.462499X0.624999X0.462499X-0.624999X0.462499X-0.624999X-0.462499X0*%
%ADD69R,0.500000X0.500000*%
%ADD70RoundRect,0.250000X0.625000X-0.312500X0.625000X0.312500X-0.625000X0.312500X-0.625000X-0.312500X0*%
G04 APERTURE END LIST*
D10*
%TO.C,R7*%
X67130000Y-96540000D03*
X69130000Y-96540000D03*
%TD*%
D11*
%TO.C,Y1*%
X103035000Y-80922800D03*
X104235000Y-80922800D03*
X105435000Y-80922800D03*
%TD*%
D12*
%TO.C,VCC*%
X46690000Y-119690000D03*
%TD*%
D13*
%TO.C,U2*%
X63897600Y-141166000D03*
X63897600Y-141816000D03*
X63897600Y-142466000D03*
X63897600Y-143116000D03*
X63897600Y-143766000D03*
X63897600Y-144416000D03*
X63897600Y-145066000D03*
X63897600Y-145716000D03*
X63897600Y-146366000D03*
X63897600Y-147016000D03*
X63897600Y-147666000D03*
X63897600Y-148316000D03*
X71097600Y-148316000D03*
X71097600Y-147666000D03*
X71097600Y-147016000D03*
X71097600Y-146366000D03*
X71097600Y-145716000D03*
X71097600Y-145066000D03*
X71097600Y-144416000D03*
X71097600Y-143766000D03*
X71097600Y-143116000D03*
X71097600Y-142466000D03*
X71097600Y-141816000D03*
X71097600Y-141166000D03*
%TD*%
D14*
%TO.C,U3*%
X46420000Y-109770000D03*
X46420000Y-108820000D03*
X46420000Y-107870000D03*
X43920000Y-107870000D03*
X43920000Y-108820000D03*
X43920000Y-109770000D03*
%TD*%
D15*
%TO.C,D1*%
X62620000Y-116680000D03*
X60570000Y-116680000D03*
%TD*%
D16*
%TO.C,U1*%
X57807201Y-73565000D03*
X58607199Y-73565000D03*
X59407200Y-73565000D03*
X60207201Y-73565000D03*
X61007199Y-73565000D03*
X61807200Y-73565000D03*
X62607199Y-73565000D03*
X63407199Y-73565000D03*
D17*
X64874400Y-72097799D03*
X64874400Y-71297801D03*
X64874400Y-70497800D03*
X64874400Y-69697799D03*
X64874400Y-68897801D03*
X64874400Y-68097800D03*
X64874400Y-67297801D03*
X64874400Y-66497801D03*
D16*
X63407199Y-65030600D03*
X62607201Y-65030600D03*
X61807200Y-65030600D03*
X61007199Y-65030600D03*
X60207201Y-65030600D03*
X59407200Y-65030600D03*
X58607201Y-65030600D03*
X57807201Y-65030600D03*
D17*
X56340000Y-66497801D03*
X56340000Y-67297799D03*
X56340000Y-68097800D03*
X56340000Y-68897801D03*
X56340000Y-69697799D03*
X56340000Y-70497800D03*
X56340000Y-71297799D03*
X56340000Y-72097799D03*
%TD*%
D15*
%TO.C,D2*%
X43122000Y-114515000D03*
X41072000Y-114515000D03*
%TD*%
D18*
%TO.C,R11*%
X67930000Y-68680000D03*
X67930000Y-70680000D03*
%TD*%
D15*
%TO.C,D2*%
X62620000Y-114500000D03*
X60570000Y-114500000D03*
%TD*%
D19*
%TO.C,C3*%
X88330000Y-59925000D03*
X88330000Y-56800000D03*
%TD*%
D20*
%TO.C,LED*%
X98762500Y-117265000D03*
X95787500Y-117265000D03*
%TD*%
D21*
%TO.C,R15*%
X140371250Y-119230000D03*
X137446250Y-119230000D03*
%TD*%
%TO.C,R7*%
X140371250Y-100155000D03*
X137446250Y-100155000D03*
%TD*%
D22*
%TO.C,R1*%
X45657800Y-85927200D03*
X45657800Y-88852200D03*
%TD*%
D23*
%TO.C,U2*%
X91060000Y-59940000D03*
D24*
X92560000Y-57040000D03*
D25*
X92560000Y-59790000D03*
D23*
X94060000Y-59940000D03*
%TD*%
D11*
%TO.C,Y1*%
X69640000Y-73080000D03*
X68440000Y-73080000D03*
X67240000Y-73080000D03*
%TD*%
D19*
%TO.C,C2*%
X96810000Y-59925000D03*
X96810000Y-56800000D03*
%TD*%
D11*
%TO.C,12MHz*%
X88795000Y-120745000D03*
X89995000Y-120745000D03*
X91195000Y-120745000D03*
%TD*%
D26*
%TO.C,R2*%
X126450000Y-131125000D03*
X126450000Y-132950000D03*
%TD*%
D27*
%TO.C,R20*%
X49990000Y-105892500D03*
X49990000Y-104067500D03*
%TD*%
D28*
%TO.C,U2*%
X61750000Y-103990000D03*
X61750000Y-104640000D03*
X61750000Y-105290000D03*
X61750000Y-105940000D03*
X67626000Y-105940000D03*
X67626000Y-105290000D03*
X67626000Y-104640000D03*
X67626000Y-103990000D03*
%TD*%
D29*
%TO.C,R2*%
X84637500Y-141655000D03*
X87562500Y-141655000D03*
%TD*%
D30*
%TO.C,C4*%
X43750000Y-136717500D03*
X43750000Y-134642500D03*
%TD*%
D31*
%TO.C,R1*%
X45109500Y-116865000D03*
X46934500Y-116865000D03*
%TD*%
D32*
%TO.C,C4*%
X95945000Y-138335000D03*
X98895000Y-138335000D03*
%TD*%
D33*
%TO.C,100nF*%
X97270000Y-120945000D03*
X94320000Y-120945000D03*
%TD*%
D18*
%TO.C,R12*%
X69940000Y-68680000D03*
X69940000Y-70680000D03*
%TD*%
D34*
%TO.C,L1*%
X81030000Y-99190000D03*
X87430000Y-99190000D03*
%TD*%
D31*
%TO.C,R4*%
X124117500Y-147010000D03*
X125942500Y-147010000D03*
%TD*%
D21*
%TO.C,R6*%
X140371250Y-69280000D03*
X137446250Y-69280000D03*
%TD*%
D35*
%TO.C,U2*%
X46128750Y-80590000D03*
D36*
X43228750Y-79090000D03*
D37*
X45978750Y-79090000D03*
D35*
X46128750Y-77590000D03*
%TD*%
D21*
%TO.C,R11*%
X140371250Y-109705000D03*
X137446250Y-109705000D03*
%TD*%
D29*
%TO.C,R3*%
X84657500Y-143985000D03*
X87582500Y-143985000D03*
%TD*%
D38*
%TO.C,C3*%
X70187600Y-136656000D03*
X66587600Y-136656000D03*
%TD*%
D39*
%TO.C,C3*%
X44895000Y-72140000D03*
X44895000Y-70240000D03*
%TD*%
D40*
%TO.C,D1*%
X82185000Y-60490000D03*
D41*
X82185000Y-58215000D03*
%TD*%
D31*
%TO.C,R2*%
X64607500Y-115230000D03*
X66432500Y-115230000D03*
%TD*%
D38*
%TO.C,C3*%
X50700000Y-136600000D03*
X47100000Y-136600000D03*
%TD*%
D31*
%TO.C,R1*%
X106727500Y-54890000D03*
X108552500Y-54890000D03*
%TD*%
D42*
%TO.C,C3*%
X63975500Y-111515000D03*
X65700500Y-111515000D03*
%TD*%
D43*
%TO.C,USB*%
X101720000Y-126020000D03*
X101720000Y-125220000D03*
X101720000Y-124420000D03*
X101720000Y-123620000D03*
X101720000Y-122820000D03*
D44*
X101720000Y-128820000D03*
X107220000Y-128820000D03*
X101720000Y-120020000D03*
X107220000Y-120020000D03*
%TD*%
D31*
%TO.C,R19*%
X40877500Y-111530000D03*
X42702500Y-111530000D03*
%TD*%
D45*
%TO.C,C6*%
X100965000Y-54910000D03*
X102865000Y-54910000D03*
%TD*%
D46*
%TO.C,C5*%
X97342500Y-95710000D03*
X99417500Y-95710000D03*
%TD*%
D14*
%TO.C,U3*%
X65918000Y-109755000D03*
X65918000Y-108805000D03*
X65918000Y-107855000D03*
X63418000Y-107855000D03*
X63418000Y-108805000D03*
X63418000Y-109755000D03*
%TD*%
D10*
%TO.C,R10*%
X67130000Y-90300000D03*
X69130000Y-90300000D03*
%TD*%
D47*
%TO.C,SW3*%
X67760000Y-78870000D03*
X67760000Y-81410000D03*
X67760000Y-83950000D03*
X67760000Y-86490000D03*
X76370000Y-86490000D03*
X76370000Y-83950000D03*
X76370000Y-81410000D03*
X76370000Y-78870000D03*
%TD*%
D48*
%TO.C,U2*%
X112686000Y-105380000D03*
X113336000Y-105380000D03*
X113986000Y-105380000D03*
X114636000Y-105380000D03*
X115286000Y-105380000D03*
X115936000Y-105380000D03*
X116586000Y-105380000D03*
X117236000Y-105380000D03*
X117886000Y-105380000D03*
X118536000Y-105380000D03*
X119186000Y-105380000D03*
X119836000Y-105380000D03*
X119836000Y-98180000D03*
X119186000Y-98180000D03*
X118536000Y-98180000D03*
X117886000Y-98180000D03*
X117236000Y-98180000D03*
X116586000Y-98180000D03*
X115936000Y-98180000D03*
X115286000Y-98180000D03*
X114636000Y-98180000D03*
X113986000Y-98180000D03*
X113336000Y-98180000D03*
X112686000Y-98180000D03*
%TD*%
D26*
%TO.C,R1*%
X124850000Y-131120000D03*
X124850000Y-132945000D03*
%TD*%
D29*
%TO.C,2.7K*%
X100782500Y-117245000D03*
X103707500Y-117245000D03*
%TD*%
D21*
%TO.C,R9*%
X140371250Y-116905000D03*
X137446250Y-116905000D03*
%TD*%
D27*
%TO.C,R3*%
X133710000Y-150212500D03*
X133710000Y-148387500D03*
%TD*%
D49*
%TO.C,C5*%
X54080000Y-148252500D03*
X54080000Y-150327500D03*
%TD*%
D10*
%TO.C,R9*%
X67130000Y-92380000D03*
X69130000Y-92380000D03*
%TD*%
D50*
%TO.C,C1*%
X45511250Y-74880000D03*
X42386250Y-74880000D03*
%TD*%
D15*
%TO.C,D1*%
X43122000Y-116695000D03*
X41072000Y-116695000D03*
%TD*%
D51*
%TO.C,U7*%
X135633750Y-122430000D03*
X135633750Y-126430000D03*
X133833750Y-122430000D03*
X133833750Y-126430000D03*
%TD*%
D52*
%TO.C,U2*%
X99332500Y-140487500D03*
X98062500Y-140487500D03*
X96792500Y-140487500D03*
X95522500Y-140487500D03*
X94252500Y-140487500D03*
X92982500Y-140487500D03*
X91712500Y-140487500D03*
X90442500Y-140487500D03*
X90442500Y-145987500D03*
X91712500Y-145987500D03*
X92982500Y-145987500D03*
X94252500Y-145987500D03*
X95522500Y-145987500D03*
X96792500Y-145987500D03*
X98062500Y-145987500D03*
X99332500Y-145987500D03*
%TD*%
D27*
%TO.C,R1*%
X132090000Y-150200000D03*
X132090000Y-148375000D03*
%TD*%
D49*
%TO.C,C5*%
X73567600Y-148308500D03*
X73567600Y-150383500D03*
%TD*%
D26*
%TO.C,R3*%
X123230000Y-131107500D03*
X123230000Y-132932500D03*
%TD*%
%TO.C,R2*%
X44800000Y-62857500D03*
X44800000Y-64682500D03*
%TD*%
D53*
%TO.C,C2*%
X123610000Y-148570000D03*
X123610000Y-150470000D03*
%TD*%
D54*
%TO.C,C6*%
X85350000Y-149790000D03*
X85350000Y-146840000D03*
%TD*%
D27*
%TO.C,R20*%
X69488000Y-105877500D03*
X69488000Y-104052500D03*
%TD*%
D55*
%TO.C,C2*%
X56470000Y-112927500D03*
X56470000Y-114652500D03*
%TD*%
D12*
%TO.C,VCC*%
X66188000Y-119675000D03*
%TD*%
D56*
%TO.C,C2*%
X42396250Y-83340000D03*
X45521250Y-83340000D03*
%TD*%
D21*
%TO.C,R10*%
X140371250Y-78805000D03*
X137446250Y-78805000D03*
%TD*%
D55*
%TO.C,C1*%
X42170000Y-107957500D03*
X42170000Y-109682500D03*
%TD*%
D48*
%TO.C,U2*%
X90200000Y-105380000D03*
X90850000Y-105380000D03*
X91500000Y-105380000D03*
X92150000Y-105380000D03*
X92800000Y-105380000D03*
X93450000Y-105380000D03*
X94100000Y-105380000D03*
X94750000Y-105380000D03*
X95400000Y-105380000D03*
X96050000Y-105380000D03*
X96700000Y-105380000D03*
X97350000Y-105380000D03*
X97350000Y-98180000D03*
X96700000Y-98180000D03*
X96050000Y-98180000D03*
X95400000Y-98180000D03*
X94750000Y-98180000D03*
X94100000Y-98180000D03*
X93450000Y-98180000D03*
X92800000Y-98180000D03*
X92150000Y-98180000D03*
X91500000Y-98180000D03*
X90850000Y-98180000D03*
X90200000Y-98180000D03*
%TD*%
D10*
%TO.C,R8*%
X67130000Y-94460000D03*
X69130000Y-94460000D03*
%TD*%
D52*
%TO.C,CH340G*%
X97667500Y-123297500D03*
X96397500Y-123297500D03*
X95127500Y-123297500D03*
X93857500Y-123297500D03*
X92587500Y-123297500D03*
X91317500Y-123297500D03*
X90047500Y-123297500D03*
X88777500Y-123297500D03*
X88777500Y-128797500D03*
X90047500Y-128797500D03*
X91317500Y-128797500D03*
X92587500Y-128797500D03*
X93857500Y-128797500D03*
X95127500Y-128797500D03*
X96397500Y-128797500D03*
X97667500Y-128797500D03*
%TD*%
D27*
%TO.C,R5*%
X75978000Y-118237500D03*
X75978000Y-116412500D03*
%TD*%
D21*
%TO.C,R12*%
X140371250Y-71605000D03*
X137446250Y-71605000D03*
%TD*%
D55*
%TO.C,C2*%
X75968000Y-112912500D03*
X75968000Y-114637500D03*
%TD*%
D39*
%TO.C,C1*%
X131240000Y-132760000D03*
X131240000Y-130860000D03*
%TD*%
D21*
%TO.C,R13*%
X140371250Y-126430000D03*
X137446250Y-126430000D03*
%TD*%
D57*
%TO.C,J1*%
X67278000Y-122165000D03*
D58*
X69298000Y-122165000D03*
D59*
X70528000Y-122165000D03*
D60*
X68278000Y-122165000D03*
D61*
X66258000Y-122165000D03*
D62*
X65028000Y-122165000D03*
D63*
X62653000Y-122220000D03*
D64*
X62653000Y-125800000D03*
D63*
X72903000Y-122220000D03*
D64*
X72903000Y-125800000D03*
%TD*%
D31*
%TO.C,R6*%
X52257500Y-120160000D03*
X54082500Y-120160000D03*
%TD*%
D21*
%TO.C,R3*%
X140358750Y-90655000D03*
X137433750Y-90655000D03*
%TD*%
D42*
%TO.C,C3*%
X44477500Y-111530000D03*
X46202500Y-111530000D03*
%TD*%
D21*
%TO.C,R4*%
X140371250Y-53730000D03*
X137446250Y-53730000D03*
%TD*%
D17*
%TO.C,U1*%
X106267800Y-72372801D03*
X106267800Y-73172799D03*
X106267800Y-73972800D03*
X106267800Y-74772801D03*
X106267800Y-75572799D03*
X106267800Y-76372800D03*
X106267800Y-77172799D03*
X106267800Y-77972799D03*
D16*
X107735001Y-79440000D03*
X108534999Y-79440000D03*
X109335000Y-79440000D03*
X110135001Y-79440000D03*
X110934999Y-79440000D03*
X111735000Y-79440000D03*
X112534999Y-79440000D03*
X113334999Y-79440000D03*
D17*
X114802200Y-77972799D03*
X114802200Y-77172801D03*
X114802200Y-76372800D03*
X114802200Y-75572799D03*
X114802200Y-74772801D03*
X114802200Y-73972800D03*
X114802200Y-73172801D03*
X114802200Y-72372801D03*
D16*
X113334999Y-70905600D03*
X112535001Y-70905600D03*
X111735000Y-70905600D03*
X110934999Y-70905600D03*
X110135001Y-70905600D03*
X109335000Y-70905600D03*
X108535001Y-70905600D03*
X107735001Y-70905600D03*
%TD*%
D51*
%TO.C,U1*%
X135633750Y-93855000D03*
X135633750Y-97855000D03*
X133833750Y-93855000D03*
X133833750Y-97855000D03*
%TD*%
D43*
%TO.C,J1*%
X102550000Y-142235000D03*
X102550000Y-141435000D03*
X102550000Y-140635000D03*
X102550000Y-139835000D03*
X102550000Y-139035000D03*
D44*
X102550000Y-145035000D03*
X108050000Y-145035000D03*
X102550000Y-136235000D03*
X108050000Y-136235000D03*
%TD*%
D28*
%TO.C,U2*%
X42252000Y-104005000D03*
X42252000Y-104655000D03*
X42252000Y-105305000D03*
X42252000Y-105955000D03*
X48128000Y-105955000D03*
X48128000Y-105305000D03*
X48128000Y-104655000D03*
X48128000Y-104005000D03*
%TD*%
D31*
%TO.C,R2*%
X45109500Y-115245000D03*
X46934500Y-115245000D03*
%TD*%
D11*
%TO.C,Y1*%
X92860000Y-137935000D03*
X91660000Y-137935000D03*
X90460000Y-137935000D03*
%TD*%
D51*
%TO.C,U4*%
X135633750Y-65280000D03*
X135633750Y-69280000D03*
X133833750Y-65280000D03*
X133833750Y-69280000D03*
%TD*%
%TO.C,U5*%
X135633750Y-112905000D03*
X135633750Y-116905000D03*
X133833750Y-112905000D03*
X133833750Y-116905000D03*
%TD*%
D65*
%TO.C,U1*%
X73972000Y-118095000D03*
X73972000Y-116825000D03*
X73972000Y-115555000D03*
X73972000Y-114285000D03*
X68548000Y-114285000D03*
X68548000Y-115555000D03*
X68548000Y-116825000D03*
X68548000Y-118095000D03*
D66*
X71260000Y-116190000D03*
%TD*%
D67*
%TO.C,R7*%
X44322500Y-120110000D03*
X42497500Y-120110000D03*
%TD*%
D53*
%TO.C,C1*%
X125700000Y-148560000D03*
X125700000Y-150460000D03*
%TD*%
D27*
%TO.C,R5*%
X56480000Y-118252500D03*
X56480000Y-116427500D03*
%TD*%
D33*
%TO.C,100nF*%
X91770000Y-131095000D03*
X88820000Y-131095000D03*
%TD*%
D21*
%TO.C,R5*%
X140371250Y-107380000D03*
X137446250Y-107380000D03*
%TD*%
%TO.C,R16*%
X140371250Y-81130000D03*
X137446250Y-81130000D03*
%TD*%
D30*
%TO.C,C4*%
X63237600Y-136773500D03*
X63237600Y-134698500D03*
%TD*%
D34*
%TO.C,L1*%
X103516000Y-99190000D03*
X109916000Y-99190000D03*
%TD*%
D21*
%TO.C,R14*%
X140371250Y-88330000D03*
X137446250Y-88330000D03*
%TD*%
D40*
%TO.C,D1*%
X42678750Y-88270000D03*
D41*
X42678750Y-85995000D03*
%TD*%
D27*
%TO.C,R2*%
X130490000Y-150195000D03*
X130490000Y-148370000D03*
%TD*%
D21*
%TO.C,R8*%
X140371250Y-62080000D03*
X137446250Y-62080000D03*
%TD*%
D51*
%TO.C,U6*%
X135633750Y-74805000D03*
X135633750Y-78805000D03*
X133833750Y-74805000D03*
X133833750Y-78805000D03*
%TD*%
D21*
%TO.C,R2*%
X140371250Y-59755000D03*
X137446250Y-59755000D03*
%TD*%
D55*
%TO.C,C1*%
X61668000Y-107942500D03*
X61668000Y-109667500D03*
%TD*%
D51*
%TO.C,U3*%
X135633750Y-103380000D03*
X135633750Y-107380000D03*
X133833750Y-103380000D03*
X133833750Y-107380000D03*
%TD*%
D46*
%TO.C,C5*%
X119828500Y-95710000D03*
X121903500Y-95710000D03*
%TD*%
D65*
%TO.C,U1*%
X54474000Y-118110000D03*
X54474000Y-116840000D03*
X54474000Y-115570000D03*
X54474000Y-114300000D03*
X49050000Y-114300000D03*
X49050000Y-115570000D03*
X49050000Y-116840000D03*
X49050000Y-118110000D03*
D66*
X51762000Y-116205000D03*
%TD*%
D31*
%TO.C,R1*%
X64607500Y-116850000D03*
X66432500Y-116850000D03*
%TD*%
D21*
%TO.C,R1*%
X140371250Y-97830000D03*
X137446250Y-97830000D03*
%TD*%
D57*
%TO.C,J1*%
X47780000Y-122180000D03*
D58*
X49800000Y-122180000D03*
D59*
X51030000Y-122180000D03*
D60*
X48780000Y-122180000D03*
D61*
X46760000Y-122180000D03*
D62*
X45530000Y-122180000D03*
D63*
X43155000Y-122235000D03*
D64*
X43155000Y-125815000D03*
D63*
X53405000Y-122235000D03*
D64*
X53405000Y-125815000D03*
%TD*%
D68*
%TO.C,D1*%
X84820000Y-139022500D03*
X84820000Y-136047500D03*
%TD*%
D13*
%TO.C,U2*%
X44410000Y-141110000D03*
X44410000Y-141760000D03*
X44410000Y-142410000D03*
X44410000Y-143060000D03*
X44410000Y-143710000D03*
X44410000Y-144360000D03*
X44410000Y-145010000D03*
X44410000Y-145660000D03*
X44410000Y-146310000D03*
X44410000Y-146960000D03*
X44410000Y-147610000D03*
X44410000Y-148260000D03*
X51610000Y-148260000D03*
X51610000Y-147610000D03*
X51610000Y-146960000D03*
X51610000Y-146310000D03*
X51610000Y-145660000D03*
X51610000Y-145010000D03*
X51610000Y-144360000D03*
X51610000Y-143710000D03*
X51610000Y-143060000D03*
X51610000Y-142410000D03*
X51610000Y-141760000D03*
X51610000Y-141110000D03*
%TD*%
D31*
%TO.C,R6*%
X71755500Y-120145000D03*
X73580500Y-120145000D03*
%TD*%
%TO.C,R19*%
X60375500Y-111515000D03*
X62200500Y-111515000D03*
%TD*%
D67*
%TO.C,R7*%
X63820500Y-120095000D03*
X61995500Y-120095000D03*
%TD*%
D51*
%TO.C,U2*%
X135633750Y-55755000D03*
X135633750Y-59755000D03*
X133833750Y-55755000D03*
X133833750Y-59755000D03*
%TD*%
D69*
%TO.C,U1*%
X127460000Y-150210000D03*
X127460000Y-149410000D03*
X127460000Y-148610000D03*
X127460000Y-147810000D03*
X127460000Y-147010000D03*
X128260000Y-147010000D03*
X129060000Y-147010000D03*
X129060000Y-147810000D03*
X129060000Y-148610000D03*
X129060000Y-149410000D03*
X129060000Y-150210000D03*
X128260000Y-150210000D03*
%TD*%
D39*
%TO.C,C2*%
X133330000Y-132750000D03*
X133330000Y-130850000D03*
%TD*%
D51*
%TO.C,U8*%
X135633750Y-84330000D03*
X135633750Y-88330000D03*
X133833750Y-84330000D03*
X133833750Y-88330000D03*
%TD*%
D22*
%TO.C,R2*%
X85385000Y-58227500D03*
X85385000Y-61152500D03*
%TD*%
D70*
%TO.C,R1*%
X87240000Y-139027500D03*
X87240000Y-136102500D03*
%TD*%
D69*
%TO.C,U1*%
X129480000Y-131110000D03*
X129480000Y-131910000D03*
X129480000Y-132710000D03*
X129480000Y-133510000D03*
X129480000Y-134310000D03*
X128680000Y-134310000D03*
X127880000Y-134310000D03*
X127880000Y-133510000D03*
X127880000Y-132710000D03*
X127880000Y-131910000D03*
X127880000Y-131110000D03*
X128680000Y-131110000D03*
%TD*%
D67*
%TO.C,R4*%
X132822500Y-134310000D03*
X130997500Y-134310000D03*
%TD*%
M02*
