%TF.GenerationSoftware,KiCad,Pcbnew,7.0.8*%
%TF.CreationDate,2024-03-05T23:25:32+02:00*%
%TF.ProjectId,JLC4_RoboChalangeBoards,4a4c4334-5f52-46f6-926f-4368616c616e,rev?*%
%TF.SameCoordinates,Original*%
%TF.FileFunction,Copper,L1,Top*%
%TF.FilePolarity,Positive*%
%FSLAX46Y46*%
G04 Gerber Fmt 4.6, Leading zero omitted, Abs format (unit mm)*
G04 Created by KiCad (PCBNEW 7.0.8) date 2024-03-05 23:25:32*
%MOMM*%
%LPD*%
G01*
G04 APERTURE LIST*
G04 Aperture macros list*
%AMRoundRect*
0 Rectangle with rounded corners*
0 $1 Rounding radius*
0 $2 $3 $4 $5 $6 $7 $8 $9 X,Y pos of 4 corners*
0 Add a 4 corners polygon primitive as box body*
4,1,4,$2,$3,$4,$5,$6,$7,$8,$9,$2,$3,0*
0 Add four circle primitives for the rounded corners*
1,1,$1+$1,$2,$3*
1,1,$1+$1,$4,$5*
1,1,$1+$1,$6,$7*
1,1,$1+$1,$8,$9*
0 Add four rect primitives between the rounded corners*
20,1,$1+$1,$2,$3,$4,$5,0*
20,1,$1+$1,$4,$5,$6,$7,0*
20,1,$1+$1,$6,$7,$8,$9,0*
20,1,$1+$1,$8,$9,$2,$3,0*%
%AMFreePoly0*
4,1,19,0.550000,-0.750000,0.000000,-0.750000,0.000000,-0.744911,-0.071157,-0.744911,-0.207708,-0.704816,-0.327430,-0.627875,-0.420627,-0.520320,-0.479746,-0.390866,-0.500000,-0.250000,-0.500000,0.250000,-0.479746,0.390866,-0.420627,0.520320,-0.327430,0.627875,-0.207708,0.704816,-0.071157,0.744911,0.000000,0.744911,0.000000,0.750000,0.550000,0.750000,0.550000,-0.750000,0.550000,-0.750000,
$1*%
%AMFreePoly1*
4,1,19,0.000000,0.744911,0.071157,0.744911,0.207708,0.704816,0.327430,0.627875,0.420627,0.520320,0.479746,0.390866,0.500000,0.250000,0.500000,-0.250000,0.479746,-0.390866,0.420627,-0.520320,0.327430,-0.627875,0.207708,-0.704816,0.071157,-0.744911,0.000000,-0.744911,0.000000,-0.750000,-0.550000,-0.750000,-0.550000,0.750000,0.000000,0.750000,0.000000,0.744911,0.000000,0.744911,
$1*%
G04 Aperture macros list end*
%TA.AperFunction,SMDPad,CuDef*%
%ADD10RoundRect,0.250000X-0.350000X-0.450000X0.350000X-0.450000X0.350000X0.450000X-0.350000X0.450000X0*%
%TD*%
%TA.AperFunction,ComponentPad*%
%ADD11R,1.700000X1.700000*%
%TD*%
%TA.AperFunction,ComponentPad*%
%ADD12O,1.700000X1.700000*%
%TD*%
%TA.AperFunction,SMDPad,CuDef*%
%ADD13R,0.400000X1.900000*%
%TD*%
%TA.AperFunction,SMDPad,CuDef*%
%ADD14RoundRect,0.250000X-0.750000X0.250000X-0.750000X-0.250000X0.750000X-0.250000X0.750000X0.250000X0*%
%TD*%
%TA.AperFunction,ComponentPad*%
%ADD15C,2.000000*%
%TD*%
%TA.AperFunction,SMDPad,CuDef*%
%ADD16R,1.750000X0.450000*%
%TD*%
%TA.AperFunction,SMDPad,CuDef*%
%ADD17R,1.200000X0.650000*%
%TD*%
%TA.AperFunction,SMDPad,CuDef*%
%ADD18RoundRect,0.250000X0.325000X0.450000X-0.325000X0.450000X-0.325000X-0.450000X0.325000X-0.450000X0*%
%TD*%
%TA.AperFunction,SMDPad,CuDef*%
%ADD19R,0.508000X1.422400*%
%TD*%
%TA.AperFunction,SMDPad,CuDef*%
%ADD20R,1.422400X0.508000*%
%TD*%
%TA.AperFunction,SMDPad,CuDef*%
%ADD21RoundRect,0.250000X-0.450000X0.350000X-0.450000X-0.350000X0.450000X-0.350000X0.450000X0.350000X0*%
%TD*%
%TA.AperFunction,SMDPad,CuDef*%
%ADD22FreePoly0,270.000000*%
%TD*%
%TA.AperFunction,SMDPad,CuDef*%
%ADD23R,1.500000X1.000000*%
%TD*%
%TA.AperFunction,SMDPad,CuDef*%
%ADD24FreePoly1,270.000000*%
%TD*%
%TA.AperFunction,SMDPad,CuDef*%
%ADD25RoundRect,0.250000X1.100000X-0.412500X1.100000X0.412500X-1.100000X0.412500X-1.100000X-0.412500X0*%
%TD*%
%TA.AperFunction,SMDPad,CuDef*%
%ADD26RoundRect,0.250001X0.462499X0.624999X-0.462499X0.624999X-0.462499X-0.624999X0.462499X-0.624999X0*%
%TD*%
%TA.AperFunction,SMDPad,CuDef*%
%ADD27RoundRect,0.250000X0.312500X0.625000X-0.312500X0.625000X-0.312500X-0.625000X0.312500X-0.625000X0*%
%TD*%
%TA.AperFunction,SMDPad,CuDef*%
%ADD28RoundRect,0.250000X-0.625000X0.312500X-0.625000X-0.312500X0.625000X-0.312500X0.625000X0.312500X0*%
%TD*%
%TA.AperFunction,SMDPad,CuDef*%
%ADD29R,1.000000X1.500000*%
%TD*%
%TA.AperFunction,SMDPad,CuDef*%
%ADD30R,2.200000X3.700000*%
%TD*%
%TA.AperFunction,SMDPad,CuDef*%
%ADD31R,1.000000X1.800000*%
%TD*%
%TA.AperFunction,SMDPad,CuDef*%
%ADD32RoundRect,0.237500X-0.237500X0.250000X-0.237500X-0.250000X0.237500X-0.250000X0.237500X0.250000X0*%
%TD*%
%TA.AperFunction,SMDPad,CuDef*%
%ADD33RoundRect,0.237500X0.237500X-0.250000X0.237500X0.250000X-0.237500X0.250000X-0.237500X-0.250000X0*%
%TD*%
%TA.AperFunction,SMDPad,CuDef*%
%ADD34R,1.475000X0.450000*%
%TD*%
%TA.AperFunction,SMDPad,CuDef*%
%ADD35RoundRect,0.250000X-0.312500X-0.625000X0.312500X-0.625000X0.312500X0.625000X-0.312500X0.625000X0*%
%TD*%
%TA.AperFunction,SMDPad,CuDef*%
%ADD36RoundRect,0.250000X0.475000X-0.337500X0.475000X0.337500X-0.475000X0.337500X-0.475000X-0.337500X0*%
%TD*%
%TA.AperFunction,SMDPad,CuDef*%
%ADD37RoundRect,0.237500X-0.250000X-0.237500X0.250000X-0.237500X0.250000X0.237500X-0.250000X0.237500X0*%
%TD*%
%TA.AperFunction,SMDPad,CuDef*%
%ADD38RoundRect,0.250000X-0.325000X-0.650000X0.325000X-0.650000X0.325000X0.650000X-0.325000X0.650000X0*%
%TD*%
%TA.AperFunction,SMDPad,CuDef*%
%ADD39RoundRect,0.250000X0.325000X0.650000X-0.325000X0.650000X-0.325000X-0.650000X0.325000X-0.650000X0*%
%TD*%
%TA.AperFunction,SMDPad,CuDef*%
%ADD40R,1.500000X2.200000*%
%TD*%
%TA.AperFunction,SMDPad,CuDef*%
%ADD41R,3.700000X2.200000*%
%TD*%
%TA.AperFunction,SMDPad,CuDef*%
%ADD42R,1.800000X1.000000*%
%TD*%
%TA.AperFunction,SMDPad,CuDef*%
%ADD43RoundRect,0.250000X1.050000X0.550000X-1.050000X0.550000X-1.050000X-0.550000X1.050000X-0.550000X0*%
%TD*%
%TA.AperFunction,SMDPad,CuDef*%
%ADD44RoundRect,0.250000X0.475000X-0.250000X0.475000X0.250000X-0.475000X0.250000X-0.475000X-0.250000X0*%
%TD*%
%TA.AperFunction,SMDPad,CuDef*%
%ADD45R,2.200000X2.200000*%
%TD*%
%TA.AperFunction,SMDPad,CuDef*%
%ADD46R,2.200000X1.250000*%
%TD*%
%TA.AperFunction,SMDPad,CuDef*%
%ADD47RoundRect,0.237500X-0.300000X-0.237500X0.300000X-0.237500X0.300000X0.237500X-0.300000X0.237500X0*%
%TD*%
%TA.AperFunction,SMDPad,CuDef*%
%ADD48R,2.500000X0.500000*%
%TD*%
%TA.AperFunction,SMDPad,CuDef*%
%ADD49R,2.500000X2.000000*%
%TD*%
%TA.AperFunction,ComponentPad*%
%ADD50O,3.500000X2.200000*%
%TD*%
%TA.AperFunction,ComponentPad*%
%ADD51R,2.500000X1.500000*%
%TD*%
%TA.AperFunction,ComponentPad*%
%ADD52O,2.500000X1.500000*%
%TD*%
%TA.AperFunction,SMDPad,CuDef*%
%ADD53RoundRect,0.250000X-0.250000X-0.475000X0.250000X-0.475000X0.250000X0.475000X-0.250000X0.475000X0*%
%TD*%
%TA.AperFunction,SMDPad,CuDef*%
%ADD54RoundRect,0.250000X-0.337500X-0.475000X0.337500X-0.475000X0.337500X0.475000X-0.337500X0.475000X0*%
%TD*%
%TA.AperFunction,SMDPad,CuDef*%
%ADD55R,2.440000X1.120000*%
%TD*%
%TA.AperFunction,SMDPad,CuDef*%
%ADD56R,0.450000X1.750000*%
%TD*%
%TA.AperFunction,SMDPad,CuDef*%
%ADD57RoundRect,0.250000X-0.475000X0.337500X-0.475000X-0.337500X0.475000X-0.337500X0.475000X0.337500X0*%
%TD*%
%TA.AperFunction,SMDPad,CuDef*%
%ADD58RoundRect,0.250000X0.412500X1.100000X-0.412500X1.100000X-0.412500X-1.100000X0.412500X-1.100000X0*%
%TD*%
%TA.AperFunction,SMDPad,CuDef*%
%ADD59RoundRect,0.197500X0.197500X0.632500X-0.197500X0.632500X-0.197500X-0.632500X0.197500X-0.632500X0*%
%TD*%
%TA.AperFunction,SMDPad,CuDef*%
%ADD60RoundRect,0.049600X-0.260400X0.605400X-0.260400X-0.605400X0.260400X-0.605400X0.260400X0.605400X0*%
%TD*%
%TA.AperFunction,SMDPad,CuDef*%
%ADD61RoundRect,0.250000X-0.475000X0.250000X-0.475000X-0.250000X0.475000X-0.250000X0.475000X0.250000X0*%
%TD*%
%TA.AperFunction,SMDPad,CuDef*%
%ADD62RoundRect,0.250000X0.650000X-0.325000X0.650000X0.325000X-0.650000X0.325000X-0.650000X-0.325000X0*%
%TD*%
%TA.AperFunction,SMDPad,CuDef*%
%ADD63RoundRect,0.237500X-0.237500X0.300000X-0.237500X-0.300000X0.237500X-0.300000X0.237500X0.300000X0*%
%TD*%
%TA.AperFunction,SMDPad,CuDef*%
%ADD64RoundRect,0.250000X-0.412500X-1.100000X0.412500X-1.100000X0.412500X1.100000X-0.412500X1.100000X0*%
%TD*%
%TA.AperFunction,ComponentPad*%
%ADD65R,2.000000X2.000000*%
%TD*%
%TA.AperFunction,ComponentPad*%
%ADD66O,2.000000X2.000000*%
%TD*%
%TA.AperFunction,SMDPad,CuDef*%
%ADD67RoundRect,0.175000X-0.175000X-0.425000X0.175000X-0.425000X0.175000X0.425000X-0.175000X0.425000X0*%
%TD*%
%TA.AperFunction,SMDPad,CuDef*%
%ADD68RoundRect,0.190000X0.190000X0.410000X-0.190000X0.410000X-0.190000X-0.410000X0.190000X-0.410000X0*%
%TD*%
%TA.AperFunction,SMDPad,CuDef*%
%ADD69RoundRect,0.200000X0.200000X0.400000X-0.200000X0.400000X-0.200000X-0.400000X0.200000X-0.400000X0*%
%TD*%
%TA.AperFunction,SMDPad,CuDef*%
%ADD70RoundRect,0.175000X0.175000X0.425000X-0.175000X0.425000X-0.175000X-0.425000X0.175000X-0.425000X0*%
%TD*%
%TA.AperFunction,SMDPad,CuDef*%
%ADD71RoundRect,0.190000X-0.190000X-0.410000X0.190000X-0.410000X0.190000X0.410000X-0.190000X0.410000X0*%
%TD*%
%TA.AperFunction,SMDPad,CuDef*%
%ADD72RoundRect,0.200000X-0.200000X-0.400000X0.200000X-0.400000X0.200000X0.400000X-0.200000X0.400000X0*%
%TD*%
%TA.AperFunction,SMDPad,CuDef*%
%ADD73RoundRect,0.250000X-0.650000X-0.425000X0.650000X-0.425000X0.650000X0.425000X-0.650000X0.425000X0*%
%TD*%
%TA.AperFunction,SMDPad,CuDef*%
%ADD74RoundRect,0.250000X-0.650000X-0.500000X0.650000X-0.500000X0.650000X0.500000X-0.650000X0.500000X0*%
%TD*%
%TA.AperFunction,ComponentPad*%
%ADD75O,2.200000X3.500000*%
%TD*%
%TA.AperFunction,ComponentPad*%
%ADD76R,1.500000X2.500000*%
%TD*%
%TA.AperFunction,ComponentPad*%
%ADD77O,1.500000X2.500000*%
%TD*%
%TA.AperFunction,SMDPad,CuDef*%
%ADD78R,1.525000X0.700000*%
%TD*%
%TA.AperFunction,SMDPad,CuDef*%
%ADD79R,2.513000X3.402000*%
%TD*%
%TA.AperFunction,SMDPad,CuDef*%
%ADD80RoundRect,0.237500X0.250000X0.237500X-0.250000X0.237500X-0.250000X-0.237500X0.250000X-0.237500X0*%
%TD*%
%TA.AperFunction,SMDPad,CuDef*%
%ADD81RoundRect,0.250001X0.624999X-0.462499X0.624999X0.462499X-0.624999X0.462499X-0.624999X-0.462499X0*%
%TD*%
%TA.AperFunction,SMDPad,CuDef*%
%ADD82R,0.500000X0.500000*%
%TD*%
%TA.AperFunction,SMDPad,CuDef*%
%ADD83RoundRect,0.250000X0.625000X-0.312500X0.625000X0.312500X-0.625000X0.312500X-0.625000X-0.312500X0*%
%TD*%
%TA.AperFunction,ViaPad*%
%ADD84C,0.800000*%
%TD*%
%TA.AperFunction,ViaPad*%
%ADD85C,0.600000*%
%TD*%
%TA.AperFunction,ViaPad*%
%ADD86C,0.500000*%
%TD*%
%TA.AperFunction,ViaPad*%
%ADD87C,1.000000*%
%TD*%
%TA.AperFunction,Conductor*%
%ADD88C,0.700000*%
%TD*%
%TA.AperFunction,Conductor*%
%ADD89C,0.500000*%
%TD*%
%TA.AperFunction,Conductor*%
%ADD90C,0.400000*%
%TD*%
%TA.AperFunction,Conductor*%
%ADD91C,0.600000*%
%TD*%
%TA.AperFunction,Conductor*%
%ADD92C,0.900000*%
%TD*%
%TA.AperFunction,Conductor*%
%ADD93C,0.350000*%
%TD*%
%TA.AperFunction,Conductor*%
%ADD94C,0.250000*%
%TD*%
%TA.AperFunction,Conductor*%
%ADD95C,1.000000*%
%TD*%
%TA.AperFunction,Conductor*%
%ADD96C,0.750000*%
%TD*%
%TA.AperFunction,Conductor*%
%ADD97C,0.450000*%
%TD*%
%TA.AperFunction,Conductor*%
%ADD98C,0.800000*%
%TD*%
G04 APERTURE END LIST*
D10*
%TO.P,R7,1*%
%TO.N,N/C*%
X67130000Y-96540000D03*
%TO.P,R7,2*%
X69130000Y-96540000D03*
%TD*%
D11*
%TO.P,J3,1,Pin_1*%
%TO.N,N/C*%
X107660000Y-148495000D03*
D12*
%TO.P,J3,2,Pin_2*%
X105120000Y-148495000D03*
%TO.P,J3,3,Pin_3*%
X102580000Y-148495000D03*
%TD*%
D13*
%TO.P,Y1,1,1*%
%TO.N,N/C*%
X103035000Y-80922800D03*
%TO.P,Y1,2,2*%
X104235000Y-80922800D03*
%TO.P,Y1,3,3*%
X105435000Y-80922800D03*
%TD*%
D14*
%TO.P,VCC,1*%
%TO.N,N/C*%
X46690000Y-119690000D03*
%TD*%
D15*
%TO.P,SW2,1,1*%
%TO.N,N/C*%
X52010000Y-63590000D03*
X52010000Y-70090000D03*
%TO.P,SW2,2,2*%
X47510000Y-63590000D03*
X47510000Y-70090000D03*
%TD*%
D11*
%TO.P,J7,1,Pin_1*%
%TO.N,N/C*%
X84660000Y-77865000D03*
D12*
%TO.P,J7,2,Pin_2*%
X84660000Y-75325000D03*
%TD*%
D11*
%TO.P,J9,1,Pin_1*%
%TO.N,N/C*%
X99635000Y-81040000D03*
D12*
%TO.P,J9,2,Pin_2*%
X97095000Y-81040000D03*
%TO.P,J9,3,Pin_3*%
X94555000Y-81040000D03*
%TO.P,J9,4*%
X92015000Y-81040000D03*
%TO.P,J9,5*%
X89475000Y-81040000D03*
%TO.P,J9,6*%
X86935000Y-81040000D03*
%TO.P,J9,7*%
X84395000Y-81040000D03*
%TO.P,J9,8*%
X81855000Y-81040000D03*
%TD*%
D16*
%TO.P,U2,1,AO1*%
%TO.N,N/C*%
X63897600Y-141166000D03*
%TO.P,U2,2,AO1*%
X63897600Y-141816000D03*
%TO.P,U2,3,PGND1*%
X63897600Y-142466000D03*
%TO.P,U2,4,PGND1*%
X63897600Y-143116000D03*
%TO.P,U2,5,AO2*%
X63897600Y-143766000D03*
%TO.P,U2,6,AO2*%
X63897600Y-144416000D03*
%TO.P,U2,7,BO2*%
X63897600Y-145066000D03*
%TO.P,U2,8,BO2*%
X63897600Y-145716000D03*
%TO.P,U2,9,PGND2*%
X63897600Y-146366000D03*
%TO.P,U2,10,PGND2*%
X63897600Y-147016000D03*
%TO.P,U2,11,BO1*%
X63897600Y-147666000D03*
%TO.P,U2,12,BO1*%
X63897600Y-148316000D03*
%TO.P,U2,13,VM2*%
X71097600Y-148316000D03*
%TO.P,U2,14,VM3*%
X71097600Y-147666000D03*
%TO.P,U2,15,PWMB*%
X71097600Y-147016000D03*
%TO.P,U2,16,BIN2*%
X71097600Y-146366000D03*
%TO.P,U2,17,BIN1*%
X71097600Y-145716000D03*
%TO.P,U2,18,GND*%
X71097600Y-145066000D03*
%TO.P,U2,19,STBY*%
X71097600Y-144416000D03*
%TO.P,U2,20,VCC*%
X71097600Y-143766000D03*
%TO.P,U2,21,AIN1*%
X71097600Y-143116000D03*
%TO.P,U2,22,AIN2*%
X71097600Y-142466000D03*
%TO.P,U2,23,PWMA*%
X71097600Y-141816000D03*
%TO.P,U2,24,VM1*%
X71097600Y-141166000D03*
%TD*%
D17*
%TO.P,U3,1,OD*%
%TO.N,N/C*%
X46420000Y-109770000D03*
%TO.P,U3,2,CS*%
X46420000Y-108820000D03*
%TO.P,U3,3,OC*%
X46420000Y-107870000D03*
%TO.P,U3,4,TD*%
X43920000Y-107870000D03*
%TO.P,U3,5,VCC*%
X43920000Y-108820000D03*
%TO.P,U3,6,GND*%
X43920000Y-109770000D03*
%TD*%
D18*
%TO.P,D1,1,K*%
%TO.N,N/C*%
X62620000Y-116680000D03*
%TO.P,D1,2,A*%
X60570000Y-116680000D03*
%TD*%
D19*
%TO.P,U1,1,~PD3*%
%TO.N,N/C*%
X57807201Y-73565000D03*
%TO.P,U1,2,PD4*%
X58607199Y-73565000D03*
%TO.P,U1,3,GND*%
X59407200Y-73565000D03*
%TO.P,U1,4,VCC*%
X60207201Y-73565000D03*
%TO.P,U1,5,GND*%
X61007199Y-73565000D03*
%TO.P,U1,6,VCC*%
X61807200Y-73565000D03*
%TO.P,U1,7,XTAL1/PB6*%
X62607199Y-73565000D03*
%TO.P,U1,8,XTAL2/PB7*%
X63407199Y-73565000D03*
D20*
%TO.P,U1,9,~PD5*%
X64874400Y-72097799D03*
%TO.P,U1,10,~PD6*%
X64874400Y-71297801D03*
%TO.P,U1,11,PD7*%
X64874400Y-70497800D03*
%TO.P,U1,12,PB0*%
X64874400Y-69697799D03*
%TO.P,U1,13,~PB1*%
X64874400Y-68897801D03*
%TO.P,U1,14,~PB2*%
X64874400Y-68097800D03*
%TO.P,U1,15,~PB3*%
X64874400Y-67297801D03*
%TO.P,U1,16,PB4*%
X64874400Y-66497801D03*
D19*
%TO.P,U1,17,PB5*%
X63407199Y-65030600D03*
%TO.P,U1,18,AVCC*%
X62607201Y-65030600D03*
%TO.P,U1,19,ADC6*%
X61807200Y-65030600D03*
%TO.P,U1,20,AREF*%
X61007199Y-65030600D03*
%TO.P,U1,21,GND*%
X60207201Y-65030600D03*
%TO.P,U1,22,ADC7*%
X59407200Y-65030600D03*
%TO.P,U1,23,A0/PC0*%
X58607201Y-65030600D03*
%TO.P,U1,24,A1/PC1*%
X57807201Y-65030600D03*
D20*
%TO.P,U1,25,A2/PC2*%
X56340000Y-66497801D03*
%TO.P,U1,26,A3/PC3*%
X56340000Y-67297799D03*
%TO.P,U1,27,A4/PC4*%
X56340000Y-68097800D03*
%TO.P,U1,28,A5/PC5*%
X56340000Y-68897801D03*
%TO.P,U1,29,~{RESET}/PC6*%
X56340000Y-69697799D03*
%TO.P,U1,30,RX/PD0*%
X56340000Y-70497800D03*
%TO.P,U1,31,TX/PD1*%
X56340000Y-71297799D03*
%TO.P,U1,32,PD2*%
X56340000Y-72097799D03*
%TD*%
D18*
%TO.P,D2,1,K*%
%TO.N,N/C*%
X43122000Y-114515000D03*
%TO.P,D2,2,A*%
X41072000Y-114515000D03*
%TD*%
D21*
%TO.P,R11,1*%
%TO.N,N/C*%
X67930000Y-68680000D03*
%TO.P,R11,2*%
X67930000Y-70680000D03*
%TD*%
D22*
%TO.P,JP1,1,A*%
%TO.N,N/C*%
X86120000Y-104120000D03*
D23*
%TO.P,JP1,2,C*%
X86120000Y-105420000D03*
D24*
%TO.P,JP1,3,B*%
X86120000Y-106720000D03*
%TD*%
D11*
%TO.P,J1,1,Pin_1*%
%TO.N,N/C*%
X98335000Y-70940000D03*
D12*
%TO.P,J1,2,Pin_2*%
X98335000Y-73480000D03*
%TD*%
D18*
%TO.P,D2,1,K*%
%TO.N,N/C*%
X62620000Y-114500000D03*
%TO.P,D2,2,A*%
X60570000Y-114500000D03*
%TD*%
D25*
%TO.P,C3,1*%
%TO.N,N/C*%
X88330000Y-59925000D03*
%TO.P,C3,2*%
X88330000Y-56800000D03*
%TD*%
D26*
%TO.P,LED,1*%
%TO.N,N/C*%
X98762500Y-117265000D03*
%TO.P,LED,2*%
X95787500Y-117265000D03*
%TD*%
D27*
%TO.P,R15,1*%
%TO.N,N/C*%
X140371250Y-119230000D03*
%TO.P,R15,2*%
X137446250Y-119230000D03*
%TD*%
%TO.P,R7,1*%
%TO.N,N/C*%
X140371250Y-100155000D03*
%TO.P,R7,2*%
X137446250Y-100155000D03*
%TD*%
D11*
%TO.P,J8,1,Pin_1*%
%TO.N,N/C*%
X48350000Y-74260000D03*
D12*
%TO.P,J8,2,Pin_2*%
X50890000Y-74260000D03*
%TO.P,J8,3,Pin_3*%
X53430000Y-74260000D03*
%TD*%
D28*
%TO.P,R1,1*%
%TO.N,N/C*%
X45657800Y-85927200D03*
%TO.P,R1,2*%
X45657800Y-88852200D03*
%TD*%
D29*
%TO.P,U2,1,VO*%
%TO.N,N/C*%
X91060000Y-59940000D03*
D30*
%TO.P,U2,2,GND*%
X92560000Y-57040000D03*
D31*
X92560000Y-59790000D03*
D29*
%TO.P,U2,3,VI*%
X94060000Y-59940000D03*
%TD*%
D13*
%TO.P,Y1,1,1*%
%TO.N,N/C*%
X69640000Y-73080000D03*
%TO.P,Y1,2,2*%
X68440000Y-73080000D03*
%TO.P,Y1,3,3*%
X67240000Y-73080000D03*
%TD*%
D25*
%TO.P,C2,1*%
%TO.N,N/C*%
X96810000Y-59925000D03*
%TO.P,C2,2*%
X96810000Y-56800000D03*
%TD*%
D13*
%TO.P,12MHz,1*%
%TO.N,N/C*%
X88795000Y-120745000D03*
%TO.P,12MHz,2*%
X89995000Y-120745000D03*
%TO.P,12MHz,3*%
X91195000Y-120745000D03*
%TD*%
D32*
%TO.P,R2,1*%
%TO.N,N/C*%
X126450000Y-131125000D03*
%TO.P,R2,2*%
X126450000Y-132950000D03*
%TD*%
D33*
%TO.P,R20,1*%
%TO.N,N/C*%
X49990000Y-105892500D03*
%TO.P,R20,2*%
X49990000Y-104067500D03*
%TD*%
D34*
%TO.P,U2,1,D12_1*%
%TO.N,N/C*%
X61750000Y-103990000D03*
%TO.P,U2,2,S1_1*%
X61750000Y-104640000D03*
%TO.P,U2,3,S1_2*%
X61750000Y-105290000D03*
%TO.P,U2,4,G1*%
X61750000Y-105940000D03*
%TO.P,U2,5,G2*%
X67626000Y-105940000D03*
%TO.P,U2,6,S2_1*%
X67626000Y-105290000D03*
%TO.P,U2,7,S2_2*%
X67626000Y-104640000D03*
%TO.P,U2,8,D12_2*%
X67626000Y-103990000D03*
%TD*%
D35*
%TO.P,R2,1*%
%TO.N,N/C*%
X84637500Y-141655000D03*
%TO.P,R2,2*%
X87562500Y-141655000D03*
%TD*%
D22*
%TO.P,JP1,1,A*%
%TO.N,N/C*%
X108606000Y-104120000D03*
D23*
%TO.P,JP1,2,C*%
X108606000Y-105420000D03*
D24*
%TO.P,JP1,3,B*%
X108606000Y-106720000D03*
%TD*%
D36*
%TO.P,C4,1*%
%TO.N,N/C*%
X43750000Y-136717500D03*
%TO.P,C4,2*%
X43750000Y-134642500D03*
%TD*%
D11*
%TO.P,J2,1,Pin_1*%
%TO.N,N/C*%
X97017200Y-87522800D03*
D12*
%TO.P,J2,2,Pin_2*%
X99557200Y-87522800D03*
%TO.P,J2,3,Pin_3*%
X102097200Y-87522800D03*
%TO.P,J2,4,Pin_4*%
X104637200Y-87522800D03*
%TO.P,J2,5,Pin_5*%
X107177200Y-87522800D03*
%TD*%
D37*
%TO.P,R1,1*%
%TO.N,N/C*%
X45109500Y-116865000D03*
%TO.P,R1,2*%
X46934500Y-116865000D03*
%TD*%
D38*
%TO.P,C4,1*%
%TO.N,N/C*%
X95945000Y-138335000D03*
%TO.P,C4,2*%
X98895000Y-138335000D03*
%TD*%
D39*
%TO.P,100nF,1*%
%TO.N,N/C*%
X97270000Y-120945000D03*
%TO.P,100nF,2*%
X94320000Y-120945000D03*
%TD*%
D21*
%TO.P,R12,1*%
%TO.N,N/C*%
X69940000Y-68680000D03*
%TO.P,R12,2*%
X69940000Y-70680000D03*
%TD*%
D40*
%TO.P,L1,1,1*%
%TO.N,N/C*%
X81030000Y-99190000D03*
%TO.P,L1,2,2*%
X87430000Y-99190000D03*
%TD*%
D37*
%TO.P,R4,1*%
%TO.N,N/C*%
X124117500Y-147010000D03*
%TO.P,R4,2*%
X125942500Y-147010000D03*
%TD*%
D11*
%TO.P,J7,1,Pin_1*%
%TO.N,N/C*%
X60966186Y-93190228D03*
D12*
%TO.P,J7,2,Pin_2*%
X58426186Y-93190228D03*
%TD*%
D27*
%TO.P,R6,1*%
%TO.N,N/C*%
X140371250Y-69280000D03*
%TO.P,R6,2*%
X137446250Y-69280000D03*
%TD*%
D23*
%TO.P,U2,1,GND*%
%TO.N,N/C*%
X46128750Y-80590000D03*
D41*
%TO.P,U2,2,VO*%
X43228750Y-79090000D03*
D42*
X45978750Y-79090000D03*
D23*
%TO.P,U2,3,VI*%
X46128750Y-77590000D03*
%TD*%
D27*
%TO.P,R11,1*%
%TO.N,N/C*%
X140371250Y-109705000D03*
%TO.P,R11,2*%
X137446250Y-109705000D03*
%TD*%
D11*
%TO.P,SW1,1,A*%
%TO.N,N/C*%
X75118000Y-108685000D03*
D12*
%TO.P,SW1,2,B*%
X72578000Y-108685000D03*
%TO.P,SW1,3,C*%
X70038000Y-108685000D03*
%TD*%
D35*
%TO.P,R3,1*%
%TO.N,N/C*%
X84657500Y-143985000D03*
%TO.P,R3,2*%
X87582500Y-143985000D03*
%TD*%
D43*
%TO.P,C3,1*%
%TO.N,N/C*%
X70187600Y-136656000D03*
%TO.P,C3,2*%
X66587600Y-136656000D03*
%TD*%
D44*
%TO.P,C3,1*%
%TO.N,N/C*%
X44895000Y-72140000D03*
%TO.P,C3,2*%
X44895000Y-70240000D03*
%TD*%
D45*
%TO.P,D1,1,K*%
%TO.N,N/C*%
X82185000Y-60490000D03*
D46*
%TO.P,D1,2,A*%
X82185000Y-58215000D03*
%TD*%
D11*
%TO.P,J3,1,Pin_1*%
%TO.N,N/C*%
X53000000Y-104280000D03*
%TD*%
D37*
%TO.P,R2,1*%
%TO.N,N/C*%
X64607500Y-115230000D03*
%TO.P,R2,2*%
X66432500Y-115230000D03*
%TD*%
D43*
%TO.P,C3,1*%
%TO.N,N/C*%
X50700000Y-136600000D03*
%TO.P,C3,2*%
X47100000Y-136600000D03*
%TD*%
D37*
%TO.P,R1,1*%
%TO.N,N/C*%
X106727500Y-54890000D03*
%TO.P,R1,2*%
X108552500Y-54890000D03*
%TD*%
D11*
%TO.P,J20,1,Pin_1*%
%TO.N,N/C*%
X48948586Y-77952500D03*
D12*
%TO.P,J20,2,Pin_2*%
X48948586Y-80492500D03*
%TO.P,J20,3*%
X48948586Y-83032500D03*
%TO.P,J20,4*%
X48948586Y-85572500D03*
%TO.P,J20,5*%
X48948586Y-88112500D03*
%TO.P,J20,6*%
X48948586Y-90652500D03*
%TO.P,J20,7*%
X48948586Y-93192500D03*
%TO.P,J20,8*%
X48948586Y-95732500D03*
%TD*%
D11*
%TO.P,J2,1,Pin_1*%
%TO.N,N/C*%
X70320000Y-64730000D03*
D12*
%TO.P,J2,2,Pin_2*%
X67780000Y-64730000D03*
%TO.P,J2,3,Pin_3*%
X70320000Y-62190000D03*
%TO.P,J2,4,Pin_4*%
X67780000Y-62190000D03*
%TO.P,J2,5,Pin_5*%
X70320000Y-59650000D03*
%TO.P,J2,6,Pin_6*%
X67780000Y-59650000D03*
%TD*%
D47*
%TO.P,C3,1*%
%TO.N,N/C*%
X63975500Y-111515000D03*
%TO.P,C3,2*%
X65700500Y-111515000D03*
%TD*%
D48*
%TO.P,USB,1*%
%TO.N,N/C*%
X101720000Y-126020000D03*
%TO.P,USB,2*%
X101720000Y-125220000D03*
%TO.P,USB,3*%
X101720000Y-124420000D03*
%TO.P,USB,4*%
X101720000Y-123620000D03*
%TO.P,USB,5*%
X101720000Y-122820000D03*
D49*
%TO.P,USB,6*%
X101720000Y-128820000D03*
X107220000Y-128820000D03*
X101720000Y-120020000D03*
X107220000Y-120020000D03*
%TD*%
D37*
%TO.P,R19,1*%
%TO.N,N/C*%
X40877500Y-111530000D03*
%TO.P,R19,2*%
X42702500Y-111530000D03*
%TD*%
D11*
%TO.P,J2,1,Pin_1*%
%TO.N,N/C*%
X75098000Y-104265000D03*
%TD*%
D50*
%TO.P,SW1,*%
%TO.N,*%
X75890000Y-74290000D03*
X75890000Y-66090000D03*
D51*
%TO.P,SW1,1,A*%
%TO.N,N/C*%
X75890000Y-72190000D03*
D52*
%TO.P,SW1,2,B*%
X75890000Y-70190000D03*
%TO.P,SW1,3,C*%
X75890000Y-68190000D03*
%TD*%
D53*
%TO.P,C6,1*%
%TO.N,N/C*%
X100965000Y-54910000D03*
%TO.P,C6,2*%
X102865000Y-54910000D03*
%TD*%
D54*
%TO.P,C5,1*%
%TO.N,N/C*%
X97342500Y-95710000D03*
%TO.P,C5,2*%
X99417500Y-95710000D03*
%TD*%
D17*
%TO.P,U3,1,OD*%
%TO.N,N/C*%
X65918000Y-109755000D03*
%TO.P,U3,2,CS*%
X65918000Y-108805000D03*
%TO.P,U3,3,OC*%
X65918000Y-107855000D03*
%TO.P,U3,4,TD*%
X63418000Y-107855000D03*
%TO.P,U3,5,VCC*%
X63418000Y-108805000D03*
%TO.P,U3,6,GND*%
X63418000Y-109755000D03*
%TD*%
D10*
%TO.P,R10,1*%
%TO.N,N/C*%
X67130000Y-90300000D03*
%TO.P,R10,2*%
X69130000Y-90300000D03*
%TD*%
D55*
%TO.P,SW3,1*%
%TO.N,N/C*%
X67760000Y-78870000D03*
%TO.P,SW3,2*%
X67760000Y-81410000D03*
%TO.P,SW3,3*%
X67760000Y-83950000D03*
%TO.P,SW3,4*%
X67760000Y-86490000D03*
%TO.P,SW3,5*%
X76370000Y-86490000D03*
%TO.P,SW3,6*%
X76370000Y-83950000D03*
%TO.P,SW3,7*%
X76370000Y-81410000D03*
%TO.P,SW3,8*%
X76370000Y-78870000D03*
%TD*%
D56*
%TO.P,U2,1,AO1*%
%TO.N,N/C*%
X112686000Y-105380000D03*
%TO.P,U2,2,AO1*%
X113336000Y-105380000D03*
%TO.P,U2,3,PGND1*%
X113986000Y-105380000D03*
%TO.P,U2,4,PGND1*%
X114636000Y-105380000D03*
%TO.P,U2,5,AO2*%
X115286000Y-105380000D03*
%TO.P,U2,6,AO2*%
X115936000Y-105380000D03*
%TO.P,U2,7,BO2*%
X116586000Y-105380000D03*
%TO.P,U2,8,BO2*%
X117236000Y-105380000D03*
%TO.P,U2,9,PGND2*%
X117886000Y-105380000D03*
%TO.P,U2,10,PGND2*%
X118536000Y-105380000D03*
%TO.P,U2,11,BO1*%
X119186000Y-105380000D03*
%TO.P,U2,12,BO1*%
X119836000Y-105380000D03*
%TO.P,U2,13,VM2*%
X119836000Y-98180000D03*
%TO.P,U2,14,VM3*%
X119186000Y-98180000D03*
%TO.P,U2,15,PWMB*%
X118536000Y-98180000D03*
%TO.P,U2,16,BIN2*%
X117886000Y-98180000D03*
%TO.P,U2,17,BIN1*%
X117236000Y-98180000D03*
%TO.P,U2,18,GND*%
X116586000Y-98180000D03*
%TO.P,U2,19,STBY*%
X115936000Y-98180000D03*
%TO.P,U2,20,VCC*%
X115286000Y-98180000D03*
%TO.P,U2,21,AIN1*%
X114636000Y-98180000D03*
%TO.P,U2,22,AIN2*%
X113986000Y-98180000D03*
%TO.P,U2,23,PWMA*%
X113336000Y-98180000D03*
%TO.P,U2,24,VM1*%
X112686000Y-98180000D03*
%TD*%
D32*
%TO.P,R1,1*%
%TO.N,N/C*%
X124850000Y-131120000D03*
%TO.P,R1,2*%
X124850000Y-132945000D03*
%TD*%
D11*
%TO.P,SW1,1,A*%
%TO.N,N/C*%
X55620000Y-108700000D03*
D12*
%TO.P,SW1,2,B*%
X53080000Y-108700000D03*
%TO.P,SW1,3,C*%
X50540000Y-108700000D03*
%TD*%
D35*
%TO.P,2.7K,1*%
%TO.N,N/C*%
X100782500Y-117245000D03*
%TO.P,2.7K,2*%
X103707500Y-117245000D03*
%TD*%
D27*
%TO.P,R9,1*%
%TO.N,N/C*%
X140371250Y-116905000D03*
%TO.P,R9,2*%
X137446250Y-116905000D03*
%TD*%
D33*
%TO.P,R3,1*%
%TO.N,N/C*%
X133710000Y-150212500D03*
%TO.P,R3,2*%
X133710000Y-148387500D03*
%TD*%
D57*
%TO.P,C5,1*%
%TO.N,N/C*%
X54080000Y-148252500D03*
%TO.P,C5,2*%
X54080000Y-150327500D03*
%TD*%
D10*
%TO.P,R9,1*%
%TO.N,N/C*%
X67130000Y-92380000D03*
%TO.P,R9,2*%
X69130000Y-92380000D03*
%TD*%
D58*
%TO.P,C1,1*%
%TO.N,N/C*%
X45511250Y-74880000D03*
%TO.P,C1,2*%
X42386250Y-74880000D03*
%TD*%
D18*
%TO.P,D1,1,K*%
%TO.N,N/C*%
X43122000Y-116695000D03*
%TO.P,D1,2,A*%
X41072000Y-116695000D03*
%TD*%
D11*
%TO.P,J3,1,Pin_1*%
%TO.N,N/C*%
X111245000Y-83960000D03*
D12*
%TO.P,J3,2,Pin_2*%
X113785000Y-83960000D03*
%TO.P,J3,3,Pin_3*%
X111245000Y-86500000D03*
%TO.P,J3,4,Pin_4*%
X113785000Y-86500000D03*
%TO.P,J3,5,Pin_5*%
X111245000Y-89040000D03*
%TO.P,J3,6,Pin_6*%
X113785000Y-89040000D03*
%TD*%
D59*
%TO.P,U7,1,K*%
%TO.N,N/C*%
X135633750Y-122430000D03*
%TO.P,U7,2,A*%
X135633750Y-126430000D03*
%TO.P,U7,3,C*%
X133833750Y-122430000D03*
%TO.P,U7,4,E*%
X133833750Y-126430000D03*
%TD*%
D60*
%TO.P,U2,1,GND*%
%TO.N,N/C*%
X99332500Y-140487500D03*
%TO.P,U2,2,TXD*%
X98062500Y-140487500D03*
%TO.P,U2,3,RXD*%
X96792500Y-140487500D03*
%TO.P,U2,4,V3*%
X95522500Y-140487500D03*
%TO.P,U2,5,UD+*%
X94252500Y-140487500D03*
%TO.P,U2,6,UD-*%
X92982500Y-140487500D03*
%TO.P,U2,7,XI*%
X91712500Y-140487500D03*
%TO.P,U2,8,XO*%
X90442500Y-140487500D03*
%TO.P,U2,9,~{CTS}*%
X90442500Y-145987500D03*
%TO.P,U2,10,~{DSR}*%
X91712500Y-145987500D03*
%TO.P,U2,11,~{RI}*%
X92982500Y-145987500D03*
%TO.P,U2,12,~{DCD}*%
X94252500Y-145987500D03*
%TO.P,U2,13,~{DTR}*%
X95522500Y-145987500D03*
%TO.P,U2,14,~{RTS}*%
X96792500Y-145987500D03*
%TO.P,U2,15,R232*%
X98062500Y-145987500D03*
%TO.P,U2,16,VCC*%
X99332500Y-145987500D03*
%TD*%
D33*
%TO.P,R1,1*%
%TO.N,N/C*%
X132090000Y-150200000D03*
%TO.P,R1,2*%
X132090000Y-148375000D03*
%TD*%
D57*
%TO.P,C5,1*%
%TO.N,N/C*%
X73567600Y-148308500D03*
%TO.P,C5,2*%
X73567600Y-150383500D03*
%TD*%
D32*
%TO.P,R3,1*%
%TO.N,N/C*%
X123230000Y-131107500D03*
%TO.P,R3,2*%
X123230000Y-132932500D03*
%TD*%
%TO.P,R2,1*%
%TO.N,N/C*%
X44800000Y-62857500D03*
%TO.P,R2,2*%
X44800000Y-64682500D03*
%TD*%
D61*
%TO.P,C2,1*%
%TO.N,N/C*%
X123610000Y-148570000D03*
%TO.P,C2,2*%
X123610000Y-150470000D03*
%TD*%
D62*
%TO.P,C6,1*%
%TO.N,N/C*%
X85350000Y-149790000D03*
%TO.P,C6,2*%
X85350000Y-146840000D03*
%TD*%
D33*
%TO.P,R20,1*%
%TO.N,N/C*%
X69488000Y-105877500D03*
%TO.P,R20,2*%
X69488000Y-104052500D03*
%TD*%
D63*
%TO.P,C2,1*%
%TO.N,N/C*%
X56470000Y-112927500D03*
%TO.P,C2,2*%
X56470000Y-114652500D03*
%TD*%
D11*
%TO.P,J6,1,Pin_1*%
%TO.N,N/C*%
X84660000Y-71615000D03*
D12*
%TO.P,J6,2,Pin_2*%
X84660000Y-69075000D03*
%TD*%
D14*
%TO.P,VCC,1*%
%TO.N,N/C*%
X66188000Y-119675000D03*
%TD*%
D64*
%TO.P,C2,1*%
%TO.N,N/C*%
X42396250Y-83340000D03*
%TO.P,C2,2*%
X45521250Y-83340000D03*
%TD*%
D27*
%TO.P,R10,1*%
%TO.N,N/C*%
X140371250Y-78805000D03*
%TO.P,R10,2*%
X137446250Y-78805000D03*
%TD*%
D63*
%TO.P,C1,1*%
%TO.N,N/C*%
X42170000Y-107957500D03*
%TO.P,C1,2*%
X42170000Y-109682500D03*
%TD*%
D56*
%TO.P,U2,1,AO1*%
%TO.N,N/C*%
X90200000Y-105380000D03*
%TO.P,U2,2,AO1*%
X90850000Y-105380000D03*
%TO.P,U2,3,PGND1*%
X91500000Y-105380000D03*
%TO.P,U2,4,PGND1*%
X92150000Y-105380000D03*
%TO.P,U2,5,AO2*%
X92800000Y-105380000D03*
%TO.P,U2,6,AO2*%
X93450000Y-105380000D03*
%TO.P,U2,7,BO2*%
X94100000Y-105380000D03*
%TO.P,U2,8,BO2*%
X94750000Y-105380000D03*
%TO.P,U2,9,PGND2*%
X95400000Y-105380000D03*
%TO.P,U2,10,PGND2*%
X96050000Y-105380000D03*
%TO.P,U2,11,BO1*%
X96700000Y-105380000D03*
%TO.P,U2,12,BO1*%
X97350000Y-105380000D03*
%TO.P,U2,13,VM2*%
X97350000Y-98180000D03*
%TO.P,U2,14,VM3*%
X96700000Y-98180000D03*
%TO.P,U2,15,PWMB*%
X96050000Y-98180000D03*
%TO.P,U2,16,BIN2*%
X95400000Y-98180000D03*
%TO.P,U2,17,BIN1*%
X94750000Y-98180000D03*
%TO.P,U2,18,GND*%
X94100000Y-98180000D03*
%TO.P,U2,19,STBY*%
X93450000Y-98180000D03*
%TO.P,U2,20,VCC*%
X92800000Y-98180000D03*
%TO.P,U2,21,AIN1*%
X92150000Y-98180000D03*
%TO.P,U2,22,AIN2*%
X91500000Y-98180000D03*
%TO.P,U2,23,PWMA*%
X90850000Y-98180000D03*
%TO.P,U2,24,VM1*%
X90200000Y-98180000D03*
%TD*%
D10*
%TO.P,R8,1*%
%TO.N,N/C*%
X67130000Y-94460000D03*
%TO.P,R8,2*%
X69130000Y-94460000D03*
%TD*%
D11*
%TO.P,J10,1,Pin_1*%
%TO.N,N/C*%
X62695126Y-56974874D03*
D12*
%TO.P,J10,2,Pin_2*%
X65235126Y-56974874D03*
%TO.P,J10,3,Pin_3*%
X67775126Y-56974874D03*
%TO.P,J10,4,Pin_4*%
X70315126Y-56974874D03*
%TD*%
D60*
%TO.P,CH340G,1*%
%TO.N,N/C*%
X97667500Y-123297500D03*
%TO.P,CH340G,2*%
X96397500Y-123297500D03*
%TO.P,CH340G,3*%
X95127500Y-123297500D03*
%TO.P,CH340G,4*%
X93857500Y-123297500D03*
%TO.P,CH340G,5*%
X92587500Y-123297500D03*
%TO.P,CH340G,6*%
X91317500Y-123297500D03*
%TO.P,CH340G,7*%
X90047500Y-123297500D03*
%TO.P,CH340G,8*%
X88777500Y-123297500D03*
%TO.P,CH340G,9*%
X88777500Y-128797500D03*
%TO.P,CH340G,10*%
X90047500Y-128797500D03*
%TO.P,CH340G,11*%
X91317500Y-128797500D03*
%TO.P,CH340G,12*%
X92587500Y-128797500D03*
%TO.P,CH340G,13*%
X93857500Y-128797500D03*
%TO.P,CH340G,14*%
X95127500Y-128797500D03*
%TO.P,CH340G,15*%
X96397500Y-128797500D03*
%TO.P,CH340G,16*%
X97667500Y-128797500D03*
%TD*%
D33*
%TO.P,R5,1*%
%TO.N,N/C*%
X75978000Y-118237500D03*
%TO.P,R5,2*%
X75978000Y-116412500D03*
%TD*%
D27*
%TO.P,R12,1*%
%TO.N,N/C*%
X140371250Y-71605000D03*
%TO.P,R12,2*%
X137446250Y-71605000D03*
%TD*%
D11*
%TO.P,J4,1,Pin_1*%
%TO.N,N/C*%
X80840000Y-148785000D03*
D12*
%TO.P,J4,2,Pin_2*%
X80840000Y-146245000D03*
%TO.P,J4,3,Pin_3*%
X80840000Y-143705000D03*
%TO.P,J4,4,Pin_4*%
X80840000Y-141165000D03*
%TO.P,J4,5,Pin_5*%
X80840000Y-138625000D03*
%TO.P,J4,6,Pin_6*%
X80840000Y-136085000D03*
%TD*%
D63*
%TO.P,C2,1*%
%TO.N,N/C*%
X75968000Y-112912500D03*
%TO.P,C2,2*%
X75968000Y-114637500D03*
%TD*%
D44*
%TO.P,C1,1*%
%TO.N,N/C*%
X131240000Y-132760000D03*
%TO.P,C1,2*%
X131240000Y-130860000D03*
%TD*%
D11*
%TO.P,J21,1,Pin_1*%
%TO.N,N/C*%
X64213586Y-77967500D03*
D12*
%TO.P,J21,2,Pin_2*%
X64213586Y-80507500D03*
%TO.P,J21,3,Pin_3*%
X64213586Y-83047500D03*
%TO.P,J21,4*%
X64213586Y-85587500D03*
%TO.P,J21,5*%
X64213586Y-88127500D03*
%TO.P,J21,6*%
X64213586Y-90667500D03*
%TO.P,J21,7*%
X64213586Y-93207500D03*
%TO.P,J21,8*%
X64213586Y-95747500D03*
%TD*%
D65*
%TO.P,J5,1,Pin_1*%
%TO.N,N/C*%
X42040000Y-58460000D03*
D66*
%TO.P,J5,2,Pin_2*%
X42040000Y-61000000D03*
%TO.P,J5,3,Pin_3*%
X42040000Y-63540000D03*
%TO.P,J5,4,Pin_4*%
X42040000Y-66080000D03*
%TO.P,J5,5,Pin_5*%
X42040000Y-68620000D03*
%TO.P,J5,6,Pin_6*%
X42040000Y-71160000D03*
%TD*%
D27*
%TO.P,R13,1*%
%TO.N,N/C*%
X140371250Y-126430000D03*
%TO.P,R13,2*%
X137446250Y-126430000D03*
%TD*%
D67*
%TO.P,J1,A5,CC1*%
%TO.N,N/C*%
X67278000Y-122165000D03*
D68*
%TO.P,J1,A9,VBUS*%
X69298000Y-122165000D03*
D69*
%TO.P,J1,A12,GND*%
X70528000Y-122165000D03*
D70*
%TO.P,J1,B5,CC2*%
X68278000Y-122165000D03*
D71*
%TO.P,J1,B9,VBUS*%
X66258000Y-122165000D03*
D72*
%TO.P,J1,B12,GND*%
X65028000Y-122165000D03*
D73*
%TO.P,J1,S1,SHIELD*%
X62653000Y-122220000D03*
D74*
X62653000Y-125800000D03*
D73*
X72903000Y-122220000D03*
D74*
X72903000Y-125800000D03*
%TD*%
D37*
%TO.P,R6,1*%
%TO.N,N/C*%
X52257500Y-120160000D03*
%TO.P,R6,2*%
X54082500Y-120160000D03*
%TD*%
D27*
%TO.P,R3,1*%
%TO.N,N/C*%
X140358750Y-90655000D03*
%TO.P,R3,2*%
X137433750Y-90655000D03*
%TD*%
D11*
%TO.P,REF\u002A\u002A,1*%
%TO.N,N/C*%
X82432500Y-130425000D03*
D12*
%TO.P,REF\u002A\u002A,2*%
X82432500Y-127885000D03*
%TO.P,REF\u002A\u002A,3*%
X82432500Y-125345000D03*
%TO.P,REF\u002A\u002A,4*%
X82432500Y-122805000D03*
%TO.P,REF\u002A\u002A,5*%
X82432500Y-120265000D03*
%TO.P,REF\u002A\u002A,6*%
X82432500Y-117725000D03*
%TD*%
D11*
%TO.P,J2,1,Pin_1*%
%TO.N,N/C*%
X55600000Y-104280000D03*
%TD*%
D47*
%TO.P,C3,1*%
%TO.N,N/C*%
X44477500Y-111530000D03*
%TO.P,C3,2*%
X46202500Y-111530000D03*
%TD*%
D27*
%TO.P,R4,1*%
%TO.N,N/C*%
X140371250Y-53730000D03*
%TO.P,R4,2*%
X137446250Y-53730000D03*
%TD*%
D20*
%TO.P,U1,1,~PD3*%
%TO.N,N/C*%
X106267800Y-72372801D03*
%TO.P,U1,2,PD4*%
X106267800Y-73172799D03*
%TO.P,U1,3,GND*%
X106267800Y-73972800D03*
%TO.P,U1,4,VCC*%
X106267800Y-74772801D03*
%TO.P,U1,5,GND*%
X106267800Y-75572799D03*
%TO.P,U1,6,VCC*%
X106267800Y-76372800D03*
%TO.P,U1,7,XTAL1/PB6*%
X106267800Y-77172799D03*
%TO.P,U1,8,XTAL2/PB7*%
X106267800Y-77972799D03*
D19*
%TO.P,U1,9,~PD5*%
X107735001Y-79440000D03*
%TO.P,U1,10,~PD6*%
X108534999Y-79440000D03*
%TO.P,U1,11,PD7*%
X109335000Y-79440000D03*
%TO.P,U1,12,PB0*%
X110135001Y-79440000D03*
%TO.P,U1,13,~PB1*%
X110934999Y-79440000D03*
%TO.P,U1,14,~PB2*%
X111735000Y-79440000D03*
%TO.P,U1,15,~PB3*%
X112534999Y-79440000D03*
%TO.P,U1,16,PB4*%
X113334999Y-79440000D03*
D20*
%TO.P,U1,17,PB5*%
X114802200Y-77972799D03*
%TO.P,U1,18,AVCC*%
X114802200Y-77172801D03*
%TO.P,U1,19,ADC6*%
X114802200Y-76372800D03*
%TO.P,U1,20,AREF*%
X114802200Y-75572799D03*
%TO.P,U1,21,GND*%
X114802200Y-74772801D03*
%TO.P,U1,22,ADC7*%
X114802200Y-73972800D03*
%TO.P,U1,23,A0/PC0*%
X114802200Y-73172801D03*
%TO.P,U1,24,A1/PC1*%
X114802200Y-72372801D03*
D19*
%TO.P,U1,25,A2/PC2*%
X113334999Y-70905600D03*
%TO.P,U1,26,A3/PC3*%
X112535001Y-70905600D03*
%TO.P,U1,27,A4/PC4*%
X111735000Y-70905600D03*
%TO.P,U1,28,A5/PC5*%
X110934999Y-70905600D03*
%TO.P,U1,29,~{RESET}/PC6*%
X110135001Y-70905600D03*
%TO.P,U1,30,RX/PD0*%
X109335000Y-70905600D03*
%TO.P,U1,31,TX/PD1*%
X108535001Y-70905600D03*
%TO.P,U1,32,PD2*%
X107735001Y-70905600D03*
%TD*%
D75*
%TO.P,SW2,*%
%TO.N,*%
X96985000Y-51740000D03*
X88785000Y-51740000D03*
D76*
%TO.P,SW2,1,A*%
%TO.N,N/C*%
X94885000Y-51740000D03*
D77*
%TO.P,SW2,2,B*%
X92885000Y-51740000D03*
%TO.P,SW2,3,C*%
X90885000Y-51740000D03*
%TD*%
D59*
%TO.P,U1,1,K*%
%TO.N,N/C*%
X135633750Y-93855000D03*
%TO.P,U1,2,A*%
X135633750Y-97855000D03*
%TO.P,U1,3,C*%
X133833750Y-93855000D03*
%TO.P,U1,4,E*%
X133833750Y-97855000D03*
%TD*%
D48*
%TO.P,J1,1,VCC*%
%TO.N,N/C*%
X102550000Y-142235000D03*
%TO.P,J1,2,D-*%
X102550000Y-141435000D03*
%TO.P,J1,3,D+*%
X102550000Y-140635000D03*
%TO.P,J1,4,GND*%
X102550000Y-139835000D03*
%TO.P,J1,5*%
X102550000Y-139035000D03*
D49*
%TO.P,J1,6*%
X102550000Y-145035000D03*
X108050000Y-145035000D03*
X102550000Y-136235000D03*
X108050000Y-136235000D03*
%TD*%
D34*
%TO.P,U2,1,D12_1*%
%TO.N,N/C*%
X42252000Y-104005000D03*
%TO.P,U2,2,S1_1*%
X42252000Y-104655000D03*
%TO.P,U2,3,S1_2*%
X42252000Y-105305000D03*
%TO.P,U2,4,G1*%
X42252000Y-105955000D03*
%TO.P,U2,5,G2*%
X48128000Y-105955000D03*
%TO.P,U2,6,S2_1*%
X48128000Y-105305000D03*
%TO.P,U2,7,S2_2*%
X48128000Y-104655000D03*
%TO.P,U2,8,D12_2*%
X48128000Y-104005000D03*
%TD*%
D37*
%TO.P,R2,1*%
%TO.N,N/C*%
X45109500Y-115245000D03*
%TO.P,R2,2*%
X46934500Y-115245000D03*
%TD*%
D13*
%TO.P,Y1,1,1*%
%TO.N,N/C*%
X92860000Y-137935000D03*
%TO.P,Y1,2,2*%
X91660000Y-137935000D03*
%TO.P,Y1,3,3*%
X90460000Y-137935000D03*
%TD*%
D11*
%TO.P,J2,1,Pin_1*%
%TO.N,N/C*%
X96030000Y-148815000D03*
D12*
%TO.P,J2,2,Pin_2*%
X93490000Y-148815000D03*
%TO.P,J2,3,Pin_3*%
X90950000Y-148815000D03*
%TO.P,J2,4,Pin_4*%
X88410000Y-148815000D03*
%TD*%
D59*
%TO.P,U4,1,K*%
%TO.N,N/C*%
X135633750Y-65280000D03*
%TO.P,U4,2,A*%
X135633750Y-69280000D03*
%TO.P,U4,3,C*%
X133833750Y-65280000D03*
%TO.P,U4,4,E*%
X133833750Y-69280000D03*
%TD*%
%TO.P,U5,1,K*%
%TO.N,N/C*%
X135633750Y-112905000D03*
%TO.P,U5,2,A*%
X135633750Y-116905000D03*
%TO.P,U5,3,C*%
X133833750Y-112905000D03*
%TO.P,U5,4,E*%
X133833750Y-116905000D03*
%TD*%
D78*
%TO.P,U1,1,TEMP1*%
%TO.N,N/C*%
X73972000Y-118095000D03*
%TO.P,U1,2,PROG2*%
X73972000Y-116825000D03*
%TO.P,U1,3,GND_3*%
X73972000Y-115555000D03*
%TO.P,U1,4,VCC4*%
X73972000Y-114285000D03*
%TO.P,U1,5,BAT*%
X68548000Y-114285000D03*
%TO.P,U1,6,~{STDBY}*%
X68548000Y-115555000D03*
%TO.P,U1,7,~{CHRG}*%
X68548000Y-116825000D03*
%TO.P,U1,8,CE*%
X68548000Y-118095000D03*
D79*
%TO.P,U1,9,EP*%
X71260000Y-116190000D03*
%TD*%
D80*
%TO.P,R7,1*%
%TO.N,N/C*%
X44322500Y-120110000D03*
%TO.P,R7,2*%
X42497500Y-120110000D03*
%TD*%
D61*
%TO.P,C1,1*%
%TO.N,N/C*%
X125700000Y-148560000D03*
%TO.P,C1,2*%
X125700000Y-150460000D03*
%TD*%
D33*
%TO.P,R5,1*%
%TO.N,N/C*%
X56480000Y-118252500D03*
%TO.P,R5,2*%
X56480000Y-116427500D03*
%TD*%
D39*
%TO.P,100nF,1*%
%TO.N,N/C*%
X91770000Y-131095000D03*
%TO.P,100nF,2*%
X88820000Y-131095000D03*
%TD*%
D27*
%TO.P,R5,1*%
%TO.N,N/C*%
X140371250Y-107380000D03*
%TO.P,R5,2*%
X137446250Y-107380000D03*
%TD*%
%TO.P,R16,1*%
%TO.N,N/C*%
X140371250Y-81130000D03*
%TO.P,R16,2*%
X137446250Y-81130000D03*
%TD*%
D36*
%TO.P,C4,1*%
%TO.N,N/C*%
X63237600Y-136773500D03*
%TO.P,C4,2*%
X63237600Y-134698500D03*
%TD*%
D40*
%TO.P,L1,1,1*%
%TO.N,N/C*%
X103516000Y-99190000D03*
%TO.P,L1,2,2*%
X109916000Y-99190000D03*
%TD*%
D27*
%TO.P,R14,1*%
%TO.N,N/C*%
X140371250Y-88330000D03*
%TO.P,R14,2*%
X137446250Y-88330000D03*
%TD*%
D45*
%TO.P,D1,1,K*%
%TO.N,N/C*%
X42678750Y-88270000D03*
D46*
%TO.P,D1,2,A*%
X42678750Y-85995000D03*
%TD*%
D33*
%TO.P,R2,1*%
%TO.N,N/C*%
X130490000Y-150195000D03*
%TO.P,R2,2*%
X130490000Y-148370000D03*
%TD*%
D27*
%TO.P,R8,1*%
%TO.N,N/C*%
X140371250Y-62080000D03*
%TO.P,R8,2*%
X137446250Y-62080000D03*
%TD*%
D59*
%TO.P,U6,1,K*%
%TO.N,N/C*%
X135633750Y-74805000D03*
%TO.P,U6,2,A*%
X135633750Y-78805000D03*
%TO.P,U6,3,C*%
X133833750Y-74805000D03*
%TO.P,U6,4,E*%
X133833750Y-78805000D03*
%TD*%
D27*
%TO.P,R2,1*%
%TO.N,N/C*%
X140371250Y-59755000D03*
%TO.P,R2,2*%
X137446250Y-59755000D03*
%TD*%
D63*
%TO.P,C1,1*%
%TO.N,N/C*%
X61668000Y-107942500D03*
%TO.P,C1,2*%
X61668000Y-109667500D03*
%TD*%
D59*
%TO.P,U3,1,K*%
%TO.N,N/C*%
X135633750Y-103380000D03*
%TO.P,U3,2,A*%
X135633750Y-107380000D03*
%TO.P,U3,3,C*%
X133833750Y-103380000D03*
%TO.P,U3,4,E*%
X133833750Y-107380000D03*
%TD*%
D66*
%TO.P,J5,1,Pin_1*%
%TO.N,N/C*%
X118935000Y-58590000D03*
%TO.P,J5,2,Pin_2*%
X118935000Y-61130000D03*
%TO.P,J5,3,Pin_3*%
X118935000Y-63670000D03*
%TO.P,J5,4,Pin_4*%
X118935000Y-66210000D03*
%TO.P,J5,5,Pin_5*%
X118935000Y-68750000D03*
%TO.P,J5,6,Pin_6*%
X118935000Y-71290000D03*
%TO.P,J5,7,Pin_7*%
X118935000Y-73830000D03*
%TO.P,J5,8,Pin_8*%
X118935000Y-76370000D03*
%TO.P,J5,9,Pin_9*%
X118935000Y-78910000D03*
%TO.P,J5,10,Pin_10*%
X118935000Y-81450000D03*
%TD*%
D54*
%TO.P,C5,1*%
%TO.N,N/C*%
X119828500Y-95710000D03*
%TO.P,C5,2*%
X121903500Y-95710000D03*
%TD*%
D11*
%TO.P,J3,1,Pin_1*%
%TO.N,N/C*%
X72498000Y-104265000D03*
%TD*%
D78*
%TO.P,U1,1,TEMP1*%
%TO.N,N/C*%
X54474000Y-118110000D03*
%TO.P,U1,2,PROG2*%
X54474000Y-116840000D03*
%TO.P,U1,3,GND_3*%
X54474000Y-115570000D03*
%TO.P,U1,4,VCC4*%
X54474000Y-114300000D03*
%TO.P,U1,5,BAT*%
X49050000Y-114300000D03*
%TO.P,U1,6,~{STDBY}*%
X49050000Y-115570000D03*
%TO.P,U1,7,~{CHRG}*%
X49050000Y-116840000D03*
%TO.P,U1,8,CE*%
X49050000Y-118110000D03*
D79*
%TO.P,U1,9,EP*%
X51762000Y-116205000D03*
%TD*%
D11*
%TO.P,J8,1,Pin_1*%
%TO.N,N/C*%
X99650000Y-65775000D03*
D12*
%TO.P,J8,2,Pin_2*%
X97110000Y-65775000D03*
%TO.P,J8,3*%
X94570000Y-65775000D03*
%TO.P,J8,4*%
X92030000Y-65775000D03*
%TO.P,J8,5*%
X89490000Y-65775000D03*
%TO.P,J8,6*%
X86950000Y-65775000D03*
%TO.P,J8,7*%
X84410000Y-65775000D03*
%TO.P,J8,8*%
X81870000Y-65775000D03*
%TD*%
D37*
%TO.P,R1,1*%
%TO.N,N/C*%
X64607500Y-116850000D03*
%TO.P,R1,2*%
X66432500Y-116850000D03*
%TD*%
D27*
%TO.P,R1,1*%
%TO.N,N/C*%
X140371250Y-97830000D03*
%TO.P,R1,2*%
X137446250Y-97830000D03*
%TD*%
D67*
%TO.P,J1,A5,CC1*%
%TO.N,N/C*%
X47780000Y-122180000D03*
D68*
%TO.P,J1,A9,VBUS*%
X49800000Y-122180000D03*
D69*
%TO.P,J1,A12,GND*%
X51030000Y-122180000D03*
D70*
%TO.P,J1,B5,CC2*%
X48780000Y-122180000D03*
D71*
%TO.P,J1,B9,VBUS*%
X46760000Y-122180000D03*
D72*
%TO.P,J1,B12,GND*%
X45530000Y-122180000D03*
D73*
%TO.P,J1,S1,SHIELD*%
X43155000Y-122235000D03*
D74*
X43155000Y-125815000D03*
D73*
X53405000Y-122235000D03*
D74*
X53405000Y-125815000D03*
%TD*%
D81*
%TO.P,D1,1,K*%
%TO.N,N/C*%
X84820000Y-139022500D03*
%TO.P,D1,2,A*%
X84820000Y-136047500D03*
%TD*%
D16*
%TO.P,U2,1,AO1*%
%TO.N,N/C*%
X44410000Y-141110000D03*
%TO.P,U2,2,AO1*%
X44410000Y-141760000D03*
%TO.P,U2,3,PGND1*%
X44410000Y-142410000D03*
%TO.P,U2,4,PGND1*%
X44410000Y-143060000D03*
%TO.P,U2,5,AO2*%
X44410000Y-143710000D03*
%TO.P,U2,6,AO2*%
X44410000Y-144360000D03*
%TO.P,U2,7,BO2*%
X44410000Y-145010000D03*
%TO.P,U2,8,BO2*%
X44410000Y-145660000D03*
%TO.P,U2,9,PGND2*%
X44410000Y-146310000D03*
%TO.P,U2,10,PGND2*%
X44410000Y-146960000D03*
%TO.P,U2,11,BO1*%
X44410000Y-147610000D03*
%TO.P,U2,12,BO1*%
X44410000Y-148260000D03*
%TO.P,U2,13,VM2*%
X51610000Y-148260000D03*
%TO.P,U2,14,VM3*%
X51610000Y-147610000D03*
%TO.P,U2,15,PWMB*%
X51610000Y-146960000D03*
%TO.P,U2,16,BIN2*%
X51610000Y-146310000D03*
%TO.P,U2,17,BIN1*%
X51610000Y-145660000D03*
%TO.P,U2,18,GND*%
X51610000Y-145010000D03*
%TO.P,U2,19,STBY*%
X51610000Y-144360000D03*
%TO.P,U2,20,VCC*%
X51610000Y-143710000D03*
%TO.P,U2,21,AIN1*%
X51610000Y-143060000D03*
%TO.P,U2,22,AIN2*%
X51610000Y-142410000D03*
%TO.P,U2,23,PWMA*%
X51610000Y-141760000D03*
%TO.P,U2,24,VM1*%
X51610000Y-141110000D03*
%TD*%
D37*
%TO.P,R6,1*%
%TO.N,N/C*%
X71755500Y-120145000D03*
%TO.P,R6,2*%
X73580500Y-120145000D03*
%TD*%
D11*
%TO.P,J4,1,Pin_1*%
%TO.N,N/C*%
X56345126Y-56974874D03*
D12*
%TO.P,J4,2,Pin_2*%
X58885126Y-56974874D03*
%TO.P,J4,3,Pin_3*%
X56345126Y-59514874D03*
%TO.P,J4,4,Pin_4*%
X58885126Y-59514874D03*
%TO.P,J4,5,Pin_5*%
X56345126Y-62054874D03*
%TO.P,J4,6,Pin_6*%
X58885126Y-62054874D03*
%TD*%
D65*
%TO.P,J4,1,Pin_1*%
%TO.N,N/C*%
X113655000Y-52060000D03*
D66*
%TO.P,J4,2,Pin_2*%
X111115000Y-52060000D03*
%TO.P,J4,3,Pin_3*%
X108575000Y-52060000D03*
%TO.P,J4,4,Pin_4*%
X106035000Y-52060000D03*
%TO.P,J4,5,Pin_5*%
X103495000Y-52060000D03*
%TO.P,J4,6,Pin_6*%
X100955000Y-52060000D03*
%TD*%
D37*
%TO.P,R19,1*%
%TO.N,N/C*%
X60375500Y-111515000D03*
%TO.P,R19,2*%
X62200500Y-111515000D03*
%TD*%
D80*
%TO.P,R7,1*%
%TO.N,N/C*%
X63820500Y-120095000D03*
%TO.P,R7,2*%
X61995500Y-120095000D03*
%TD*%
D59*
%TO.P,U2,1,K*%
%TO.N,N/C*%
X135633750Y-55755000D03*
%TO.P,U2,2,A*%
X135633750Y-59755000D03*
%TO.P,U2,3,C*%
X133833750Y-55755000D03*
%TO.P,U2,4,E*%
X133833750Y-59755000D03*
%TD*%
D11*
%TO.P,J6,1,Pin_1*%
%TO.N,N/C*%
X54716186Y-93190228D03*
D12*
%TO.P,J6,2,Pin_2*%
X52176186Y-93190228D03*
%TD*%
D82*
%TO.P,U1,1,AVDDVCSEL*%
%TO.N,N/C*%
X127460000Y-150210000D03*
%TO.P,U1,2,AVSSVCSEL*%
X127460000Y-149410000D03*
%TO.P,U1,3,GND*%
X127460000Y-148610000D03*
%TO.P,U1,4,GND*%
X127460000Y-147810000D03*
%TO.P,U1,5,XSHUT*%
X127460000Y-147010000D03*
%TO.P,U1,6,GND*%
X128260000Y-147010000D03*
%TO.P,U1,7,GPIO1*%
X129060000Y-147010000D03*
%TO.P,U1,8,DNC*%
X129060000Y-147810000D03*
%TO.P,U1,9,SDA*%
X129060000Y-148610000D03*
%TO.P,U1,10,SCL*%
X129060000Y-149410000D03*
%TO.P,U1,11,AVDD*%
X129060000Y-150210000D03*
%TO.P,U1,12,GND*%
X128260000Y-150210000D03*
%TD*%
D44*
%TO.P,C2,1*%
%TO.N,N/C*%
X133330000Y-132750000D03*
%TO.P,C2,2*%
X133330000Y-130850000D03*
%TD*%
D15*
%TO.P,SW1,1,1*%
%TO.N,N/C*%
X106387200Y-62122800D03*
X112887200Y-62122800D03*
%TO.P,SW1,2,2*%
X106387200Y-66622800D03*
X112887200Y-66622800D03*
%TD*%
D11*
%TO.P,J9,1,Pin_1*%
%TO.N,N/C*%
X51145000Y-59070000D03*
D12*
%TO.P,J9,2,Pin_2*%
X48605000Y-59070000D03*
%TO.P,J9,3,Pin_3*%
X51145000Y-56530000D03*
%TO.P,J9,4,Pin_4*%
X48605000Y-56530000D03*
%TO.P,J9,5,Pin_5*%
X51145000Y-53990000D03*
%TO.P,J9,6,Pin_6*%
X48605000Y-53990000D03*
%TO.P,J9,7,Pin_7*%
X51145000Y-51450000D03*
%TO.P,J9,8,Pin_8*%
X48605000Y-51450000D03*
%TD*%
D59*
%TO.P,U8,1,K*%
%TO.N,N/C*%
X135633750Y-84330000D03*
%TO.P,U8,2,A*%
X135633750Y-88330000D03*
%TO.P,U8,3,C*%
X133833750Y-84330000D03*
%TO.P,U8,4,E*%
X133833750Y-88330000D03*
%TD*%
D28*
%TO.P,R2,1*%
%TO.N,N/C*%
X85385000Y-58227500D03*
%TO.P,R2,2*%
X85385000Y-61152500D03*
%TD*%
D83*
%TO.P,R1,1*%
%TO.N,N/C*%
X87240000Y-139027500D03*
%TO.P,R1,2*%
X87240000Y-136102500D03*
%TD*%
D82*
%TO.P,U1,1,AVDDVCSEL*%
%TO.N,N/C*%
X129480000Y-131110000D03*
%TO.P,U1,2,AVSSVCSEL*%
X129480000Y-131910000D03*
%TO.P,U1,3,GND*%
X129480000Y-132710000D03*
%TO.P,U1,4,GND*%
X129480000Y-133510000D03*
%TO.P,U1,5,XSHUT*%
X129480000Y-134310000D03*
%TO.P,U1,6,GND*%
X128680000Y-134310000D03*
%TO.P,U1,7,GPIO1*%
X127880000Y-134310000D03*
%TO.P,U1,8,DNC*%
X127880000Y-133510000D03*
%TO.P,U1,9,SDA*%
X127880000Y-132710000D03*
%TO.P,U1,10,SCL*%
X127880000Y-131910000D03*
%TO.P,U1,11,AVDD*%
X127880000Y-131110000D03*
%TO.P,U1,12,GND*%
X128680000Y-131110000D03*
%TD*%
D11*
%TO.P,J1,1,Pin_1*%
%TO.N,N/C*%
X76030000Y-62370000D03*
D12*
%TO.P,J1,2,Pin_2*%
X76030000Y-59830000D03*
%TD*%
D80*
%TO.P,R4,1*%
%TO.N,N/C*%
X132822500Y-134310000D03*
%TO.P,R4,2*%
X130997500Y-134310000D03*
%TD*%
D11*
%TO.P,J1,1,Pin_1*%
%TO.N,N/C*%
X41172400Y-131974000D03*
D12*
%TO.P,J1,2,Pin_2*%
X41172400Y-134514000D03*
%TO.P,J1,3,Pin_3*%
X41172400Y-137054000D03*
%TO.P,J1,4,Pin_4*%
X41172400Y-139594000D03*
%TO.P,J1,5,Pin_5*%
X41172400Y-142134000D03*
%TO.P,J1,6,Pin_6*%
X41172400Y-144674000D03*
%TO.P,J1,7,Pin_7*%
X41172400Y-147214000D03*
%TO.P,J1,8,Pin_8*%
X41172400Y-149754000D03*
%TD*%
D11*
%TO.P,J1,1,Pin_1*%
%TO.N,N/C*%
X60660000Y-132030000D03*
D12*
%TO.P,J1,2,Pin_2*%
X60660000Y-134570000D03*
%TO.P,J1,3,Pin_3*%
X60660000Y-137110000D03*
%TO.P,J1,4,Pin_4*%
X60660000Y-139650000D03*
%TO.P,J1,5,Pin_5*%
X60660000Y-142190000D03*
%TO.P,J1,6,Pin_6*%
X60660000Y-144730000D03*
%TO.P,J1,7,Pin_7*%
X60660000Y-147270000D03*
%TO.P,J1,8,Pin_8*%
X60660000Y-149810000D03*
%TD*%
D11*
%TO.P,J2,1,Pin_1*%
%TO.N,N/C*%
X103565000Y-93352600D03*
D12*
%TO.P,J2,2,Pin_2*%
X106105000Y-93352600D03*
%TO.P,J2,3,Pin_3*%
X108645000Y-93352600D03*
%TO.P,J2,4,Pin_4*%
X111185000Y-93352600D03*
%TO.P,J2,5,Pin_5*%
X113725000Y-93352600D03*
%TO.P,J2,6,Pin_6*%
X116265000Y-93352600D03*
%TO.P,J2,7,Pin_7*%
X118805000Y-93352600D03*
%TO.P,J2,8,Pin_8*%
X121345000Y-93352600D03*
%TD*%
D11*
%TO.P,J1,1,Pin_1*%
%TO.N,N/C*%
X122210000Y-138130000D03*
D12*
%TO.P,J1,2,Pin_2*%
X124750000Y-138130000D03*
%TO.P,J1,3,Pin_3*%
X127290000Y-138130000D03*
%TO.P,J1,4,Pin_4*%
X129830000Y-138130000D03*
%TO.P,J1,5,Pin_5*%
X132370000Y-138130000D03*
%TO.P,J1,6,Pin_6*%
X134910000Y-138130000D03*
%TD*%
D11*
%TO.P,J1,1,Pin_1*%
%TO.N,N/C*%
X103550000Y-108617600D03*
D12*
%TO.P,J1,2,Pin_2*%
X106090000Y-108617600D03*
%TO.P,J1,3,Pin_3*%
X108630000Y-108617600D03*
%TO.P,J1,4,Pin_4*%
X111170000Y-108617600D03*
%TO.P,J1,5,Pin_5*%
X113710000Y-108617600D03*
%TO.P,J1,6,Pin_6*%
X116250000Y-108617600D03*
%TO.P,J1,7,Pin_7*%
X118790000Y-108617600D03*
%TO.P,J1,8,Pin_8*%
X121330000Y-108617600D03*
%TD*%
D11*
%TO.P,J1,1,Pin_1*%
%TO.N,N/C*%
X134730000Y-143190000D03*
D12*
%TO.P,J1,2,Pin_2*%
X132190000Y-143190000D03*
%TO.P,J1,3,Pin_3*%
X129650000Y-143190000D03*
%TO.P,J1,4,Pin_4*%
X127110000Y-143190000D03*
%TO.P,J1,5,Pin_5*%
X124570000Y-143190000D03*
%TO.P,J1,6,Pin_6*%
X122030000Y-143190000D03*
%TD*%
D11*
%TO.P,J1,1,Pin_1*%
%TO.N,N/C*%
X81064000Y-108617600D03*
D12*
%TO.P,J1,2,Pin_2*%
X83604000Y-108617600D03*
%TO.P,J1,3,Pin_3*%
X86144000Y-108617600D03*
%TO.P,J1,4,Pin_4*%
X88684000Y-108617600D03*
%TO.P,J1,5,Pin_5*%
X91224000Y-108617600D03*
%TO.P,J1,6,Pin_6*%
X93764000Y-108617600D03*
%TO.P,J1,7,Pin_7*%
X96304000Y-108617600D03*
%TO.P,J1,8,Pin_8*%
X98844000Y-108617600D03*
%TD*%
D11*
%TO.P,J2,1,Pin_1*%
%TO.N,N/C*%
X56437400Y-131989000D03*
D12*
%TO.P,J2,2,Pin_2*%
X56437400Y-134529000D03*
%TO.P,J2,3,Pin_3*%
X56437400Y-137069000D03*
%TO.P,J2,4,Pin_4*%
X56437400Y-139609000D03*
%TO.P,J2,5,Pin_5*%
X56437400Y-142149000D03*
%TO.P,J2,6,Pin_6*%
X56437400Y-144689000D03*
%TO.P,J2,7,Pin_7*%
X56437400Y-147229000D03*
%TO.P,J2,8,Pin_8*%
X56437400Y-149769000D03*
%TD*%
D11*
%TO.P,J2,1,Pin_1*%
%TO.N,N/C*%
X81079000Y-93352600D03*
D12*
%TO.P,J2,2,Pin_2*%
X83619000Y-93352600D03*
%TO.P,J2,3,Pin_3*%
X86159000Y-93352600D03*
%TO.P,J2,4,Pin_4*%
X88699000Y-93352600D03*
%TO.P,J2,5,Pin_5*%
X91239000Y-93352600D03*
%TO.P,J2,6,Pin_6*%
X93779000Y-93352600D03*
%TO.P,J2,7,Pin_7*%
X96319000Y-93352600D03*
%TO.P,J2,8,Pin_8*%
X98859000Y-93352600D03*
%TD*%
D11*
%TO.P,J2,1,Pin_1*%
%TO.N,N/C*%
X75925000Y-132045000D03*
D12*
%TO.P,J2,2,Pin_2*%
X75925000Y-134585000D03*
%TO.P,J2,3,Pin_3*%
X75925000Y-137125000D03*
%TO.P,J2,4,Pin_4*%
X75925000Y-139665000D03*
%TO.P,J2,5,Pin_5*%
X75925000Y-142205000D03*
%TO.P,J2,6,Pin_6*%
X75925000Y-144745000D03*
%TO.P,J2,7,Pin_7*%
X75925000Y-147285000D03*
%TO.P,J2,8,Pin_8*%
X75925000Y-149825000D03*
%TD*%
D11*
%TO.P,J1,1,Pin_1*%
%TO.N,N/C*%
X128783750Y-77590000D03*
D12*
%TO.P,J1,2,Pin_2*%
X128783750Y-80130000D03*
%TO.P,J1,3,Pin_3*%
X128783750Y-82670000D03*
%TO.P,J1,4,Pin_4*%
X128783750Y-85210000D03*
%TO.P,J1,5,Pin_5*%
X128783750Y-87750000D03*
%TO.P,J1,6,Pin_6*%
X128783750Y-90290000D03*
%TO.P,J1,7,Pin_7*%
X128783750Y-92830000D03*
%TO.P,J1,8,Pin_8*%
X128783750Y-95370000D03*
%TO.P,J1,9,Pin_9*%
X128783750Y-97910000D03*
%TO.P,J1,10,Pin_10*%
X128783750Y-100450000D03*
%TD*%
D84*
%TO.N,*%
X89070000Y-105610000D03*
D85*
X110935000Y-76390000D03*
D84*
X68548000Y-114285000D03*
D86*
X56340000Y-68897801D03*
D85*
X109685000Y-72340000D03*
D84*
X95145000Y-124895000D03*
X67930000Y-68680000D03*
D86*
X53845626Y-60809530D03*
X116816000Y-100790000D03*
X53345126Y-61454874D03*
D84*
X54480000Y-114290000D03*
X111556000Y-105610000D03*
D86*
X64874400Y-71297801D03*
D84*
X113487200Y-73922800D03*
X105216000Y-98040000D03*
D86*
X64874400Y-68097800D03*
D85*
X111385000Y-77340000D03*
D84*
X73567600Y-148308500D03*
D86*
X70880000Y-89580000D03*
D84*
X94330000Y-103520000D03*
D86*
X59507701Y-66198300D03*
D84*
X54080000Y-148252500D03*
X116816000Y-103520000D03*
D86*
X64874400Y-72097799D03*
D84*
X87130000Y-100940000D03*
D87*
X76370000Y-86490000D03*
D85*
X97947200Y-83182800D03*
D84*
X109616000Y-100940000D03*
X73978000Y-114275000D03*
X100700500Y-145255000D03*
X103745000Y-117245000D03*
D86*
X64874400Y-69697799D03*
X64874400Y-70497800D03*
X116016000Y-100890000D03*
X93530000Y-100890000D03*
X62607201Y-65030600D03*
X59407200Y-68322800D03*
X57554266Y-68914266D03*
X71580000Y-89100000D03*
D84*
X119496000Y-98850000D03*
X82230000Y-103090000D03*
X68548000Y-118105000D03*
D86*
X117017200Y-76372800D03*
D84*
X50700000Y-136600000D03*
X82730000Y-98040000D03*
D85*
X110935000Y-78229300D03*
D84*
X70187600Y-136656000D03*
X104716000Y-103090000D03*
D85*
X98430233Y-83922300D03*
D84*
X49050000Y-114300000D03*
X69940000Y-68680000D03*
D85*
X108285000Y-72290000D03*
D86*
X116087947Y-74022800D03*
X94330000Y-100790000D03*
D84*
X97010000Y-98850000D03*
D86*
X56340000Y-68097800D03*
X61807200Y-73565000D03*
D85*
X112835000Y-82640000D03*
D84*
X49050000Y-118120000D03*
D86*
X70180000Y-90080000D03*
X64874400Y-68897801D03*
D85*
X98944217Y-84682800D03*
X116267200Y-74772800D03*
D84*
X96395000Y-124895000D03*
D86*
X69130000Y-90300000D03*
%TD*%
D88*
%TO.N,*%
X56067500Y-116840000D02*
X56480000Y-116427500D01*
D89*
X122340000Y-149540000D02*
X122340000Y-147580000D01*
X113635000Y-75590000D02*
X113617799Y-75572799D01*
D90*
X47480000Y-108540000D02*
X47200000Y-108820000D01*
D91*
X62530500Y-108805000D02*
X63418000Y-108805000D01*
D92*
X46270000Y-146030000D02*
X46270000Y-146630000D01*
D93*
X67830000Y-72009670D02*
X68084670Y-71755000D01*
D89*
X58607199Y-73565000D02*
X58607199Y-67098802D01*
X97795000Y-125895000D02*
X93245000Y-125895000D01*
D92*
X41172400Y-149754000D02*
X46200000Y-149754000D01*
D94*
X93100000Y-105380000D02*
X93450000Y-105380000D01*
D95*
X131700000Y-52340000D02*
X131700000Y-54773750D01*
D94*
X94420000Y-105380000D02*
X94750000Y-105380000D01*
D91*
X46202500Y-111530000D02*
X48750000Y-111530000D01*
D92*
X46270000Y-137430000D02*
X46982500Y-136717500D01*
D95*
X42040000Y-58460000D02*
X42650000Y-59070000D01*
D89*
X90442500Y-145987500D02*
X90442500Y-146782500D01*
D95*
X96185000Y-54540000D02*
X94885000Y-53240000D01*
D90*
X56340000Y-66497801D02*
X55498053Y-66497801D01*
D89*
X59407200Y-68322800D02*
X59407200Y-73565000D01*
D88*
X41570000Y-121037500D02*
X42497500Y-120110000D01*
D95*
X97110000Y-65765000D02*
X97110000Y-65775000D01*
D91*
X129708750Y-58615000D02*
X129708750Y-76665000D01*
D90*
X98180000Y-144180000D02*
X89244240Y-144180000D01*
D88*
X66757500Y-115555000D02*
X66432500Y-115230000D01*
D90*
X60630000Y-74676200D02*
X59728399Y-74676200D01*
D89*
X43880000Y-67920000D02*
X42040000Y-66080000D01*
D95*
X44800000Y-62857500D02*
X46777500Y-62857500D01*
X61467500Y-77952500D02*
X63140000Y-76280000D01*
D94*
X44410000Y-146310000D02*
X44410000Y-146630000D01*
D90*
X50690000Y-141085000D02*
X51610000Y-141085000D01*
X90930000Y-96100000D02*
X91500000Y-96670000D01*
D89*
X56340000Y-72097799D02*
X56322201Y-72080000D01*
D90*
X55095126Y-60764874D02*
X56345126Y-59514874D01*
X75925000Y-134585000D02*
X73177600Y-137332400D01*
D96*
X137471250Y-62080000D02*
X133833750Y-62080000D01*
D88*
X60570000Y-117490000D02*
X60570000Y-116680000D01*
D89*
X105120000Y-148495000D02*
X103770000Y-149845000D01*
D90*
X81079000Y-93352600D02*
X84486400Y-96760000D01*
D88*
X73972000Y-118095000D02*
X73165000Y-118095000D01*
X75565500Y-116825000D02*
X75978000Y-116412500D01*
D94*
X71097600Y-147976000D02*
X71097600Y-148316000D01*
D92*
X113006000Y-106781600D02*
X113006000Y-105380000D01*
D90*
X74597600Y-140992400D02*
X74597600Y-142426000D01*
X88226400Y-95420000D02*
X91200000Y-95420000D01*
D89*
X134910000Y-138100000D02*
X134910000Y-138130000D01*
D95*
X40678750Y-89680000D02*
X41318750Y-90320000D01*
D89*
X69130000Y-90300000D02*
X69130000Y-87860000D01*
D95*
X46978750Y-79090000D02*
X48381250Y-80492500D01*
X73441246Y-64958754D02*
X76030000Y-62370000D01*
D92*
X118790000Y-108617600D02*
X119496000Y-107911600D01*
D89*
X114802200Y-77172801D02*
X115603798Y-77172801D01*
X98944217Y-84682800D02*
X105925000Y-84682800D01*
D96*
X133833750Y-71605000D02*
X133833750Y-74805000D01*
D89*
X82432500Y-118967500D02*
X82432500Y-117725000D01*
D88*
X52257500Y-122180000D02*
X52250000Y-122180000D01*
D89*
X118935000Y-75880610D02*
X118935000Y-76370000D01*
D90*
X65675996Y-67297801D02*
X66480000Y-66493797D01*
D95*
X98524950Y-50200050D02*
X96985000Y-51740000D01*
D93*
X63407199Y-73565000D02*
X63407199Y-73142801D01*
D95*
X73441246Y-67171246D02*
X73441246Y-64958754D01*
D90*
X44045000Y-105305000D02*
X45680000Y-106940000D01*
X125030000Y-148360000D02*
X125030000Y-143650000D01*
D93*
X62607199Y-74276200D02*
X62982199Y-74651200D01*
D88*
X44322500Y-120110000D02*
X44322500Y-122167500D01*
D89*
X92045000Y-126745000D02*
X91317500Y-126017500D01*
X114802200Y-72372801D02*
X117477801Y-72372801D01*
D90*
X66928000Y-109755000D02*
X65918000Y-109755000D01*
D94*
X44410000Y-147610000D02*
X44410000Y-147920000D01*
D89*
X96407800Y-85432800D02*
X105087200Y-85432800D01*
D92*
X90200000Y-102090000D02*
X96120000Y-102090000D01*
D89*
X59407200Y-68322800D02*
X60207201Y-67522799D01*
D91*
X65113000Y-108805000D02*
X65918000Y-108805000D01*
D92*
X65757600Y-137486000D02*
X66470100Y-136773500D01*
D89*
X113334999Y-80990001D02*
X111245000Y-83080000D01*
X102550000Y-139035000D02*
X102550000Y-136235000D01*
D90*
X93450000Y-96670000D02*
X93450000Y-98180000D01*
D89*
X92982500Y-141236363D02*
X94676137Y-142930000D01*
D94*
X95400000Y-105380000D02*
X95720000Y-105380000D01*
D88*
X49050000Y-118110000D02*
X41677000Y-118110000D01*
D96*
X137471250Y-100155000D02*
X133833750Y-100155000D01*
D89*
X99615332Y-142930000D02*
X101110332Y-141435000D01*
X110934999Y-70905600D02*
X110934999Y-69355001D01*
D88*
X49050000Y-118110000D02*
X49050000Y-118120000D01*
D92*
X113710000Y-108617600D02*
X115586000Y-106741600D01*
D95*
X42678750Y-85995000D02*
X42678750Y-83622500D01*
D89*
X123230000Y-132932500D02*
X123230000Y-137110000D01*
D95*
X45978750Y-79090000D02*
X46978750Y-79090000D01*
D89*
X94252500Y-141157500D02*
X95275000Y-142180000D01*
X47510000Y-70090000D02*
X45045000Y-70090000D01*
D92*
X62536000Y-144066000D02*
X63897600Y-144066000D01*
D97*
X63345126Y-62726434D02*
X63345126Y-58864874D01*
D89*
X125942500Y-147010000D02*
X125942500Y-144357500D01*
D90*
X68900500Y-105290000D02*
X69488000Y-105877500D01*
D88*
X64607500Y-115230000D02*
X63350000Y-115230000D01*
X68278000Y-123145000D02*
X68278000Y-122165000D01*
D91*
X68388000Y-108005000D02*
X69308000Y-107085000D01*
D90*
X86159000Y-93352600D02*
X88226400Y-95420000D01*
D97*
X63345126Y-58864874D02*
X65235126Y-56974874D01*
D88*
X54474000Y-115570000D02*
X55552500Y-115570000D01*
D95*
X88330000Y-56800000D02*
X90035000Y-56800000D01*
D89*
X62607201Y-65832195D02*
X62241596Y-66197800D01*
D90*
X86000000Y-142865000D02*
X85990000Y-142855000D01*
X61807200Y-72834115D02*
X61426885Y-72453800D01*
X112527800Y-85242800D02*
X113785000Y-86500000D01*
D91*
X50590000Y-107100000D02*
X51150000Y-106540000D01*
D89*
X133710000Y-148387500D02*
X133710000Y-144210000D01*
D90*
X55095126Y-66094874D02*
X55095126Y-60764874D01*
D88*
X61558000Y-123545000D02*
X61068000Y-123055000D01*
D90*
X56437400Y-142149000D02*
X52926400Y-145660000D01*
D97*
X90200000Y-98180000D02*
X90200000Y-102090000D01*
D89*
X88820000Y-131095000D02*
X83102500Y-131095000D01*
D90*
X55110000Y-140936400D02*
X55110000Y-142370000D01*
D95*
X97110000Y-68265000D02*
X92015000Y-73360000D01*
D90*
X105785001Y-77972799D02*
X106267800Y-77972799D01*
X133470000Y-141930000D02*
X134730000Y-143190000D01*
D89*
X132822500Y-136012500D02*
X134910000Y-138100000D01*
X97270000Y-120020000D02*
X97270000Y-120945000D01*
X108067864Y-74772801D02*
X114802200Y-74772801D01*
X93245000Y-125895000D02*
X92587500Y-125237500D01*
D91*
X63418000Y-109755000D02*
X61755500Y-109755000D01*
D90*
X112512400Y-94680000D02*
X113946000Y-94680000D01*
D94*
X44410000Y-143710000D02*
X44410000Y-144010000D01*
D89*
X83102500Y-131095000D02*
X82432500Y-130425000D01*
D94*
X96700000Y-98180000D02*
X97350000Y-98180000D01*
D89*
X116227191Y-73172801D02*
X118935000Y-75880610D01*
D95*
X81870000Y-60805000D02*
X82185000Y-60490000D01*
D89*
X60207201Y-67522799D02*
X60207201Y-65030600D01*
D92*
X94420000Y-107961600D02*
X94420000Y-105380000D01*
D94*
X51610000Y-147610000D02*
X51610000Y-147920000D01*
D95*
X94885000Y-53240000D02*
X94885000Y-51740000D01*
D92*
X104716000Y-100390000D02*
X103516000Y-99190000D01*
D95*
X67930000Y-70680000D02*
X69940000Y-70680000D01*
D89*
X113635000Y-76807196D02*
X113635000Y-75590000D01*
X50500000Y-72080000D02*
X48350000Y-74230000D01*
D90*
X84820000Y-139022500D02*
X84820000Y-140285000D01*
X113986000Y-96670000D02*
X113986000Y-98180000D01*
X127880000Y-134310000D02*
X127880000Y-136860000D01*
D89*
X61024400Y-72403800D02*
X61074400Y-72403800D01*
D90*
X114802200Y-77972799D02*
X114802200Y-80672800D01*
D91*
X43920000Y-109770000D02*
X44665000Y-109770000D01*
D92*
X116816000Y-103520000D02*
X117606000Y-103520000D01*
D90*
X129060000Y-149410000D02*
X129190000Y-149280000D01*
D96*
X135633750Y-112905000D02*
X135633750Y-113980000D01*
D90*
X117886000Y-94973600D02*
X117886000Y-98180000D01*
D94*
X44410000Y-145010000D02*
X44410000Y-145330000D01*
D90*
X85990000Y-142855000D02*
X85990000Y-140845000D01*
D95*
X63140000Y-76280000D02*
X70970000Y-76280000D01*
D92*
X97010000Y-96042500D02*
X97342500Y-95710000D01*
D90*
X116016000Y-99970000D02*
X116016000Y-100890000D01*
D89*
X70880000Y-89580000D02*
X70880000Y-82740000D01*
X53760000Y-70147750D02*
X53760000Y-69570000D01*
D93*
X63407199Y-73142801D02*
X63470000Y-73080000D01*
D96*
X135633750Y-84330000D02*
X135633750Y-85455000D01*
D88*
X42702500Y-111530000D02*
X44477500Y-111530000D01*
D90*
X91660000Y-137935000D02*
X91660000Y-136985000D01*
X52655126Y-60764874D02*
X52655126Y-58040126D01*
X115286000Y-98180000D02*
X115286000Y-99240000D01*
D89*
X134600000Y-133740000D02*
X134030000Y-134310000D01*
D94*
X63897600Y-147666000D02*
X63897600Y-147976000D01*
D90*
X49000000Y-135980760D02*
X49000000Y-142115686D01*
D89*
X97270000Y-120307500D02*
X97270000Y-120945000D01*
D95*
X113655000Y-52060000D02*
X111115000Y-52060000D01*
D89*
X94676137Y-142930000D02*
X99615332Y-142930000D01*
D95*
X127723750Y-80130000D02*
X128783750Y-80130000D01*
D90*
X128390000Y-143790000D02*
X128390000Y-142640000D01*
X56437400Y-137069000D02*
X54370000Y-139136400D01*
D92*
X121330000Y-103590000D02*
X121330000Y-103110000D01*
D90*
X126450000Y-137290000D02*
X127290000Y-138130000D01*
X72517600Y-141476000D02*
X72177600Y-141816000D01*
D88*
X73580500Y-120145000D02*
X74478000Y-121042500D01*
X52257500Y-120160000D02*
X52257500Y-116700500D01*
D89*
X132120000Y-132750000D02*
X131260000Y-132750000D01*
D90*
X113686000Y-95420000D02*
X114636000Y-96370000D01*
D88*
X68778000Y-123645000D02*
X68278000Y-123145000D01*
D89*
X48350000Y-74230000D02*
X48350000Y-74260000D01*
D90*
X52926400Y-145660000D02*
X51610000Y-145660000D01*
D89*
X123610000Y-148570000D02*
X124820000Y-148570000D01*
D90*
X74304000Y-146366000D02*
X71097600Y-146366000D01*
D89*
X103986396Y-143585000D02*
X104250000Y-143848604D01*
X80840000Y-146245000D02*
X83100000Y-143985000D01*
D94*
X44410000Y-145330000D02*
X44410000Y-145660000D01*
D90*
X57639782Y-58269530D02*
X58885126Y-59514874D01*
D88*
X67278000Y-122165000D02*
X67278000Y-123075000D01*
D89*
X108267800Y-81340000D02*
X110026545Y-81340000D01*
D88*
X54474000Y-114300000D02*
X54480000Y-114290000D01*
D95*
X47391250Y-94175164D02*
X47391250Y-89542500D01*
X74780000Y-59830000D02*
X76030000Y-59830000D01*
D97*
X112686000Y-98180000D02*
X112686000Y-102090000D01*
D92*
X111586000Y-105661600D02*
X108630000Y-108617600D01*
D90*
X106267800Y-76372800D02*
X106998685Y-76372800D01*
X57554266Y-68581181D02*
X57070885Y-68097800D01*
D89*
X107267863Y-73972800D02*
X108067864Y-74772801D01*
D95*
X140371250Y-126430000D02*
X140371250Y-53730000D01*
D90*
X42252000Y-105955000D02*
X43705000Y-105955000D01*
D91*
X129708750Y-76665000D02*
X128783750Y-77590000D01*
D90*
X57554266Y-68914266D02*
X57554266Y-68581181D01*
D89*
X123870000Y-150210000D02*
X123610000Y-150470000D01*
D92*
X108606000Y-101950000D02*
X108606000Y-104120000D01*
D90*
X61007199Y-74535000D02*
X60865999Y-74676200D01*
X92800000Y-99240000D02*
X93530000Y-99970000D01*
D92*
X98774000Y-103520000D02*
X98844000Y-103590000D01*
D96*
X133833750Y-109705000D02*
X133833750Y-112905000D01*
D89*
X108567800Y-82040000D02*
X110316494Y-82040000D01*
D95*
X72241246Y-75008754D02*
X72241246Y-62368754D01*
D90*
X110565732Y-82710000D02*
X110229314Y-82710000D01*
D96*
X132408750Y-98705000D02*
X132408750Y-96865000D01*
D89*
X113617799Y-75572799D02*
X114802200Y-75572799D01*
D95*
X92030000Y-70495000D02*
X84660000Y-77865000D01*
D90*
X85647500Y-137435000D02*
X87240000Y-139027500D01*
D89*
X126465000Y-131110000D02*
X126450000Y-131125000D01*
D88*
X68508000Y-120905000D02*
X66258000Y-120905000D01*
D90*
X88532500Y-136449758D02*
X89597258Y-135385000D01*
D95*
X41172400Y-131974000D02*
X46874000Y-131974000D01*
D91*
X42170000Y-107957500D02*
X43032500Y-108820000D01*
X48890000Y-111390000D02*
X48890000Y-108020000D01*
D90*
X43705000Y-105955000D02*
X45620000Y-107870000D01*
D89*
X54671100Y-70068900D02*
X54470000Y-69867800D01*
X130997500Y-134310000D02*
X130997500Y-136962500D01*
D90*
X69488000Y-103335000D02*
X69488000Y-104052500D01*
D89*
X115983400Y-78910000D02*
X115963400Y-78890000D01*
X97667500Y-127625000D02*
X97667500Y-128797500D01*
D90*
X49402500Y-105305000D02*
X49990000Y-105892500D01*
X57807201Y-64226949D02*
X57635126Y-64054874D01*
D95*
X120635000Y-57885836D02*
X120635000Y-77955000D01*
D92*
X110326000Y-103610000D02*
X110326000Y-104560000D01*
D95*
X45511250Y-74880000D02*
X45511250Y-76972500D01*
D89*
X83100000Y-143985000D02*
X84657500Y-143985000D01*
D90*
X45620000Y-107870000D02*
X46420000Y-107870000D01*
D92*
X65757600Y-149740000D02*
X65687600Y-149810000D01*
D89*
X102550000Y-141435000D02*
X101980000Y-141435000D01*
D96*
X135646250Y-126430000D02*
X137458750Y-126430000D01*
D89*
X88795000Y-120745000D02*
X88795000Y-123280000D01*
X61007199Y-66215001D02*
X61007199Y-65030600D01*
X99635000Y-77415000D02*
X104677199Y-72372801D01*
D90*
X42252000Y-104655000D02*
X42252000Y-105305000D01*
D88*
X61175000Y-118095000D02*
X60570000Y-117490000D01*
D89*
X90097500Y-123247500D02*
X90047500Y-123297500D01*
X109736596Y-80640000D02*
X110135001Y-80241595D01*
D90*
X103565000Y-93352600D02*
X106972400Y-96760000D01*
X72177600Y-141816000D02*
X71097600Y-141816000D01*
X87562500Y-141655000D02*
X88532500Y-140685000D01*
D95*
X87102500Y-61152500D02*
X88330000Y-59925000D01*
X96810000Y-56800000D02*
X92560000Y-56800000D01*
X52173914Y-93192500D02*
X52176186Y-93190228D01*
D89*
X132380000Y-131110000D02*
X133070000Y-131110000D01*
X118935000Y-78910000D02*
X115983400Y-78910000D01*
D91*
X40877500Y-109250000D02*
X40877500Y-111530000D01*
D90*
X89597258Y-135385000D02*
X95737768Y-135385000D01*
D95*
X118935000Y-81450000D02*
X120190000Y-81450000D01*
D90*
X56437400Y-134529000D02*
X53690000Y-137276400D01*
D88*
X71748000Y-122165000D02*
X72848000Y-122165000D01*
D90*
X65987600Y-145066000D02*
X65757600Y-145296000D01*
D95*
X93735000Y-62390000D02*
X97110000Y-65765000D01*
D90*
X48128000Y-109072000D02*
X47430000Y-109770000D01*
X56437400Y-131989000D02*
X53030000Y-135396400D01*
D96*
X130508750Y-115930000D02*
X130508750Y-101115000D01*
D89*
X99332500Y-140487500D02*
X99332500Y-139205000D01*
D92*
X98844000Y-103110000D02*
X98844000Y-97490000D01*
D95*
X64213586Y-85587500D02*
X55966250Y-85587500D01*
D90*
X70081914Y-143766000D02*
X71097600Y-143766000D01*
X84820000Y-140285000D02*
X84850000Y-140315000D01*
X82140000Y-134785000D02*
X89660000Y-134785000D01*
D94*
X44410000Y-141430000D02*
X44410000Y-141760000D01*
D91*
X138508750Y-93855000D02*
X138508750Y-103380000D01*
D88*
X68548000Y-118095000D02*
X68548000Y-118105000D01*
D89*
X127460000Y-149410000D02*
X127460000Y-147810000D01*
X82447500Y-122790000D02*
X82432500Y-122805000D01*
D91*
X61668000Y-107942500D02*
X60375500Y-109235000D01*
D95*
X48948586Y-83032500D02*
X47391250Y-83032500D01*
D89*
X105087200Y-85432800D02*
X107177200Y-87522800D01*
D92*
X91224000Y-108617600D02*
X93100000Y-106741600D01*
X65687600Y-149810000D02*
X66167600Y-149810000D01*
X82730000Y-98040000D02*
X83880000Y-99190000D01*
D88*
X45760000Y-114020000D02*
X44477500Y-112737500D01*
D94*
X44410000Y-142750000D02*
X44410000Y-143060000D01*
D89*
X71580000Y-80150000D02*
X70300000Y-78870000D01*
D90*
X42252000Y-104655000D02*
X41030000Y-104655000D01*
D96*
X137471250Y-71605000D02*
X133833750Y-71605000D01*
D89*
X109643455Y-77340000D02*
X108534999Y-78448456D01*
X123010000Y-150210000D02*
X122340000Y-149540000D01*
D92*
X118206000Y-103520000D02*
X118206000Y-105380000D01*
X105216000Y-98040000D02*
X106366000Y-99190000D01*
D95*
X76370000Y-83950000D02*
X76370000Y-86490000D01*
D91*
X50202500Y-104280000D02*
X49990000Y-104067500D01*
D90*
X67626000Y-105940000D02*
X67626000Y-109057000D01*
D95*
X98335000Y-73480000D02*
X99185000Y-73480000D01*
D89*
X124850000Y-131120000D02*
X124837500Y-131107500D01*
D92*
X82230000Y-104480000D02*
X82230000Y-103090000D01*
X65757600Y-142806000D02*
X65757600Y-137486000D01*
D96*
X133833750Y-106280000D02*
X133833750Y-107380000D01*
D91*
X43920000Y-109770000D02*
X42257500Y-109770000D01*
D97*
X61807200Y-65030600D02*
X61807200Y-64264359D01*
D90*
X60135126Y-60334874D02*
X60135126Y-58224874D01*
D96*
X135633750Y-93855000D02*
X135633750Y-94980000D01*
D92*
X65757600Y-142806000D02*
X65757600Y-145296000D01*
X104716000Y-104480000D02*
X104716000Y-103090000D01*
D89*
X100685000Y-82340000D02*
X101185000Y-81840000D01*
D93*
X62754382Y-75201200D02*
X67576948Y-75201200D01*
D89*
X127460000Y-147810000D02*
X128260000Y-147810000D01*
X112350603Y-73922800D02*
X113487200Y-73922800D01*
D95*
X84410000Y-68825000D02*
X84660000Y-69075000D01*
D90*
X54495126Y-66343402D02*
X54495126Y-59598754D01*
D92*
X95120000Y-103520000D02*
X95720000Y-103520000D01*
D96*
X128783750Y-90290000D02*
X129933750Y-90290000D01*
D95*
X101385000Y-64820050D02*
X99235000Y-62670050D01*
D92*
X82230000Y-100390000D02*
X81030000Y-99190000D01*
D90*
X80840000Y-137435000D02*
X85647500Y-137435000D01*
D92*
X87130000Y-100950000D02*
X87130000Y-100940000D01*
X115586000Y-106741600D02*
X115586000Y-105380000D01*
D94*
X116586000Y-105380000D02*
X116906000Y-105380000D01*
D90*
X72907600Y-143116000D02*
X71097600Y-143116000D01*
D94*
X63897600Y-142806000D02*
X63897600Y-143116000D01*
D90*
X113416000Y-96100000D02*
X113986000Y-96670000D01*
D91*
X138508750Y-52780000D02*
X138083750Y-52355000D01*
D88*
X62200500Y-111515000D02*
X63975500Y-111515000D01*
X47780000Y-122180000D02*
X47780000Y-123090000D01*
D89*
X58607199Y-67098802D02*
X59507701Y-66198300D01*
D88*
X71755500Y-122165000D02*
X71748000Y-122165000D01*
D91*
X44442500Y-109770000D02*
X46202500Y-111530000D01*
D90*
X94100000Y-98180000D02*
X94100000Y-99330000D01*
D88*
X54474000Y-115570000D02*
X52397000Y-115570000D01*
D89*
X90460000Y-137935000D02*
X90460000Y-140470000D01*
D95*
X108575000Y-55180600D02*
X110284400Y-56890000D01*
D94*
X63897600Y-146366000D02*
X63897600Y-146686000D01*
D96*
X135633750Y-107380000D02*
X137446250Y-107380000D01*
D92*
X98844000Y-93367600D02*
X98859000Y-93352600D01*
D90*
X63237600Y-134698500D02*
X67149340Y-134698500D01*
D92*
X98844000Y-103590000D02*
X98844000Y-103110000D01*
D89*
X101580000Y-149845000D02*
X99332500Y-147597500D01*
D93*
X62982199Y-74651200D02*
X67260000Y-74651200D01*
D90*
X116265000Y-93352600D02*
X117886000Y-94973600D01*
X95400000Y-94973600D02*
X95400000Y-98180000D01*
X112534999Y-79440000D02*
X112534999Y-80740733D01*
D95*
X43260950Y-88852200D02*
X42678750Y-88270000D01*
D92*
X52300000Y-149754000D02*
X56422400Y-149754000D01*
D90*
X109995000Y-82944314D02*
X109995000Y-84975686D01*
D93*
X63470000Y-73080000D02*
X67240000Y-73080000D01*
D89*
X103707500Y-120015000D02*
X105417500Y-121725000D01*
D94*
X119496000Y-105380000D02*
X119836000Y-105380000D01*
D92*
X86980000Y-105420000D02*
X86120000Y-105420000D01*
D96*
X129933750Y-90290000D02*
X132408750Y-87815000D01*
D94*
X63897600Y-145066000D02*
X63897600Y-145386000D01*
D89*
X92860000Y-137935000D02*
X92860000Y-138835000D01*
D95*
X54080000Y-148252500D02*
X53747500Y-147920000D01*
D94*
X63897600Y-147976000D02*
X63897600Y-148316000D01*
D89*
X101720000Y-122820000D02*
X101720000Y-120020000D01*
D90*
X56437400Y-139609000D02*
X55110000Y-140936400D01*
D89*
X53920000Y-74750000D02*
X53430000Y-74260000D01*
D91*
X43920000Y-109770000D02*
X44442500Y-109770000D01*
D89*
X106267800Y-73972800D02*
X107267863Y-73972800D01*
D90*
X53420000Y-143060000D02*
X51610000Y-143060000D01*
X92150000Y-96370000D02*
X92150000Y-98180000D01*
X102435000Y-82522800D02*
X101935000Y-82022800D01*
D88*
X54980000Y-121057500D02*
X54980000Y-123030000D01*
D89*
X100782500Y-117245000D02*
X98782500Y-117245000D01*
D92*
X116250000Y-108617600D02*
X116906000Y-107961600D01*
D90*
X99332500Y-145987500D02*
X99332500Y-145332500D01*
D89*
X132380000Y-131110000D02*
X133930000Y-131110000D01*
D90*
X105435000Y-80922800D02*
X105435000Y-78322800D01*
D89*
X95787500Y-117265000D02*
X95777500Y-117275000D01*
X130270000Y-131110000D02*
X132380000Y-131110000D01*
X122030000Y-143220000D02*
X122030000Y-143190000D01*
X122910000Y-147010000D02*
X124117500Y-147010000D01*
D95*
X138900000Y-51240000D02*
X132800000Y-51240000D01*
D89*
X101720000Y-125220000D02*
X99720000Y-125220000D01*
D92*
X46270000Y-145240000D02*
X46270000Y-146030000D01*
D90*
X49990000Y-103350000D02*
X49990000Y-104067500D01*
D95*
X119639164Y-56890000D02*
X120635000Y-57885836D01*
D89*
X91712500Y-139982500D02*
X91712500Y-140487500D01*
D88*
X73972000Y-114285000D02*
X73978000Y-114275000D01*
D90*
X131185000Y-149280000D02*
X132090000Y-148375000D01*
D89*
X134600000Y-131780000D02*
X134600000Y-133740000D01*
X111385000Y-77340000D02*
X109643455Y-77340000D01*
D88*
X66258000Y-120905000D02*
X66258000Y-119745000D01*
D92*
X65757600Y-142806000D02*
X63897600Y-142806000D01*
D95*
X42678750Y-83622500D02*
X42396250Y-83340000D01*
X47385950Y-83037800D02*
X47391250Y-83032500D01*
D90*
X63543000Y-105290000D02*
X65178000Y-106925000D01*
D91*
X51150000Y-106540000D02*
X51150000Y-104310000D01*
D97*
X40615000Y-71756250D02*
X42386250Y-73527500D01*
D89*
X102550000Y-139835000D02*
X102550000Y-139495000D01*
X83477800Y-82662800D02*
X81855000Y-81040000D01*
D90*
X99332500Y-145332500D02*
X98180000Y-144180000D01*
D91*
X71098000Y-104265000D02*
X72498000Y-104265000D01*
D89*
X110026545Y-81340000D02*
X110934999Y-80431547D01*
D92*
X108546000Y-106780000D02*
X104716000Y-106780000D01*
D88*
X75050500Y-115555000D02*
X75968000Y-114637500D01*
D90*
X69048750Y-61692630D02*
X69048750Y-63458750D01*
D96*
X135633750Y-75880000D02*
X133833750Y-77680000D01*
D89*
X90460000Y-140470000D02*
X90442500Y-140487500D01*
D90*
X130490000Y-144030000D02*
X129650000Y-143190000D01*
D92*
X75910000Y-149810000D02*
X75925000Y-149825000D01*
D95*
X97406004Y-54540000D02*
X96185000Y-54540000D01*
D89*
X114802200Y-77172801D02*
X114000605Y-77172801D01*
X109335000Y-79440000D02*
X109335000Y-78638405D01*
D96*
X133908750Y-100205000D02*
X132408750Y-98705000D01*
D94*
X115286000Y-105380000D02*
X115586000Y-105380000D01*
D90*
X53345126Y-61454874D02*
X52655126Y-60764874D01*
X131910000Y-137670000D02*
X132370000Y-138130000D01*
D96*
X133833750Y-68155000D02*
X133833750Y-69280000D01*
D92*
X90200000Y-102090000D02*
X89360000Y-102090000D01*
D89*
X105685000Y-83922800D02*
X108267800Y-81340000D01*
D90*
X97790000Y-140215000D02*
X98062500Y-140487500D01*
D89*
X91167500Y-127625000D02*
X86332500Y-122790000D01*
D90*
X95489240Y-135985000D02*
X89845786Y-135985000D01*
D92*
X86120000Y-106720000D02*
X86060000Y-106780000D01*
D90*
X88164240Y-145260000D02*
X86955000Y-145260000D01*
D88*
X71755500Y-120145000D02*
X71755500Y-122165000D01*
D95*
X91045000Y-59925000D02*
X91060000Y-59940000D01*
D89*
X98430233Y-83922300D02*
X98430733Y-83922800D01*
X56340000Y-71297799D02*
X54910049Y-71297799D01*
D88*
X68548000Y-116825000D02*
X66457500Y-116825000D01*
D89*
X108535001Y-70905600D02*
X108535001Y-72039999D01*
D91*
X69700500Y-104265000D02*
X69488000Y-104052500D01*
D89*
X124820000Y-148570000D02*
X125680000Y-148570000D01*
X56340000Y-69697799D02*
X55538402Y-69697799D01*
D88*
X49800000Y-122180000D02*
X49800000Y-120920000D01*
D94*
X63897600Y-142466000D02*
X63897600Y-142806000D01*
D95*
X50700000Y-135800000D02*
X50700000Y-136600000D01*
D89*
X93857500Y-123297500D02*
X93857500Y-121407500D01*
D95*
X108575000Y-52060000D02*
X108575000Y-53772800D01*
D89*
X98430733Y-83922800D02*
X105685000Y-83922800D01*
D88*
X63820500Y-120095000D02*
X63820500Y-122152500D01*
D96*
X128783750Y-87750000D02*
X130223750Y-87750000D01*
D90*
X58607201Y-64180474D02*
X60735126Y-62052549D01*
D89*
X95275000Y-142180000D02*
X99304668Y-142180000D01*
D93*
X62229381Y-74676200D02*
X62754382Y-75201200D01*
D92*
X117606000Y-103520000D02*
X121260000Y-103520000D01*
X41828400Y-145330000D02*
X44410000Y-145330000D01*
D88*
X63975500Y-112722500D02*
X63975500Y-111515000D01*
D90*
X54370000Y-139136400D02*
X54370000Y-142110000D01*
D92*
X46982500Y-136717500D02*
X43750000Y-136717500D01*
D89*
X110592800Y-62122800D02*
X109037200Y-62122800D01*
X124117500Y-145307500D02*
X122030000Y-143220000D01*
D88*
X54474000Y-118110000D02*
X53667000Y-118110000D01*
X52257500Y-120160000D02*
X52257500Y-122180000D01*
D96*
X135633750Y-122430000D02*
X135633750Y-123530000D01*
D90*
X89732500Y-136946814D02*
X89732500Y-143147500D01*
D95*
X108575000Y-53772800D02*
X108575000Y-55180600D01*
X92560000Y-56800000D02*
X92560000Y-57040000D01*
D89*
X52810000Y-68620000D02*
X42040000Y-68620000D01*
D96*
X137471250Y-90655000D02*
X133833750Y-90655000D01*
D89*
X129480000Y-133510000D02*
X128680000Y-133510000D01*
D92*
X46200000Y-149754000D02*
X46680000Y-149754000D01*
D90*
X48128000Y-104655000D02*
X48128000Y-105305000D01*
D95*
X86950000Y-65775000D02*
X86950000Y-69325000D01*
X53348458Y-85572500D02*
X60966186Y-93190228D01*
D91*
X68248000Y-111515000D02*
X69428000Y-111515000D01*
D95*
X73567600Y-148308500D02*
X73235100Y-147976000D01*
D90*
X103585000Y-82522800D02*
X102435000Y-82522800D01*
X127840000Y-139390000D02*
X123470000Y-139390000D01*
X63203000Y-105940000D02*
X65118000Y-107855000D01*
D89*
X109335000Y-78638405D02*
X109744105Y-78229300D01*
X96397500Y-124892500D02*
X96395000Y-124895000D01*
D95*
X140371250Y-53730000D02*
X140371250Y-52711250D01*
D89*
X115335000Y-83890000D02*
X115335000Y-87490000D01*
D90*
X91460000Y-94680000D02*
X93450000Y-96670000D01*
D92*
X65757600Y-146086000D02*
X65757600Y-146686000D01*
D89*
X53760000Y-69570000D02*
X52810000Y-68620000D01*
D96*
X137446250Y-53730000D02*
X133833750Y-53730000D01*
D94*
X63897600Y-141486000D02*
X63897600Y-141816000D01*
D93*
X67830000Y-74170330D02*
X67830000Y-72009670D01*
D89*
X133070000Y-131110000D02*
X133330000Y-130850000D01*
D96*
X135633750Y-104480000D02*
X133833750Y-106280000D01*
D92*
X60660000Y-149810000D02*
X65687600Y-149810000D01*
D91*
X61668000Y-107942500D02*
X62530500Y-108805000D01*
D89*
X55160000Y-69319397D02*
X55160000Y-68800000D01*
X118930000Y-66210000D02*
X118935000Y-66210000D01*
D90*
X49000000Y-142115686D02*
X50594314Y-143710000D01*
D92*
X46270000Y-142750000D02*
X46270000Y-145240000D01*
D90*
X54495126Y-59598754D02*
X55824350Y-58269530D01*
X85990000Y-140845000D02*
X85460000Y-140315000D01*
D96*
X133833750Y-81130000D02*
X133833750Y-84330000D01*
D88*
X73972000Y-115555000D02*
X75050500Y-115555000D01*
D91*
X135633750Y-55755000D02*
X138508750Y-55755000D01*
D92*
X62901100Y-137110000D02*
X60660000Y-137110000D01*
X116906000Y-107961600D02*
X116906000Y-105380000D01*
D96*
X133858750Y-119230000D02*
X133833750Y-119255000D01*
X128773750Y-84980000D02*
X128758750Y-84965000D01*
D95*
X48948586Y-85572500D02*
X53348458Y-85572500D01*
D90*
X75925000Y-132045000D02*
X72517600Y-135452400D01*
D95*
X50871250Y-80492500D02*
X48948586Y-80492500D01*
X47391250Y-85940000D02*
X47391250Y-83032500D01*
D89*
X118212200Y-69472800D02*
X118935000Y-68750000D01*
D95*
X42040000Y-58460000D02*
X42040000Y-61000000D01*
D90*
X56437400Y-147229000D02*
X56168400Y-146960000D01*
X65880000Y-66245269D02*
X65880000Y-62323880D01*
D89*
X99720000Y-125220000D02*
X98195000Y-126745000D01*
D95*
X48586086Y-77590000D02*
X48948586Y-77952500D01*
D90*
X47480000Y-107350000D02*
X47480000Y-108540000D01*
D88*
X68548000Y-120905000D02*
X68508000Y-120905000D01*
D96*
X133833750Y-90655000D02*
X133833750Y-93855000D01*
D95*
X92885000Y-51740000D02*
X92885000Y-56715000D01*
D89*
X111735000Y-69735000D02*
X112697200Y-68772800D01*
D92*
X91840000Y-103520000D02*
X91840000Y-105380000D01*
D89*
X43621500Y-134514000D02*
X43750000Y-134642500D01*
D90*
X126690000Y-132710000D02*
X126450000Y-132950000D01*
D89*
X53580000Y-67220000D02*
X51140000Y-67220000D01*
D91*
X51180000Y-104280000D02*
X50202500Y-104280000D01*
D89*
X116367200Y-68772800D02*
X118930000Y-66210000D01*
D90*
X87240000Y-136102500D02*
X84875000Y-136102500D01*
D95*
X94570000Y-65775000D02*
X92885000Y-64090000D01*
X97110000Y-65775000D02*
X97110000Y-68265000D01*
D90*
X72517600Y-135452400D02*
X72517600Y-141476000D01*
D88*
X47259500Y-115570000D02*
X46934500Y-115245000D01*
D92*
X104716000Y-103090000D02*
X104716000Y-100390000D01*
D90*
X129100000Y-141930000D02*
X133470000Y-141930000D01*
D95*
X89490000Y-65775000D02*
X89490000Y-70495000D01*
D88*
X41072000Y-117505000D02*
X41072000Y-116695000D01*
D89*
X97957200Y-83172800D02*
X105435000Y-83172800D01*
X92982500Y-145987500D02*
X92982500Y-148307500D01*
X115963400Y-77532403D02*
X115963400Y-78890000D01*
X105417500Y-124075000D02*
X103472500Y-126020000D01*
D90*
X75925000Y-137125000D02*
X73857600Y-139192400D01*
D89*
X91195000Y-120745000D02*
X91195000Y-121645000D01*
D91*
X133408750Y-52355000D02*
X132850000Y-52913750D01*
D90*
X106267800Y-73972800D02*
X105536915Y-73972800D01*
D95*
X106335000Y-62070600D02*
X106335000Y-55282500D01*
X101385000Y-71280000D02*
X101385000Y-64820050D01*
D89*
X132822500Y-134310000D02*
X132822500Y-136012500D01*
X61007199Y-66215001D02*
X61007199Y-72386599D01*
D95*
X140371250Y-52711250D02*
X138900000Y-51240000D01*
D88*
X55552500Y-115570000D02*
X56470000Y-114652500D01*
D92*
X60660000Y-139650000D02*
X62496000Y-141486000D01*
D88*
X73848000Y-123645000D02*
X68778000Y-123645000D01*
D96*
X135633750Y-94980000D02*
X133833750Y-96780000D01*
D89*
X99502500Y-139035000D02*
X99332500Y-139205000D01*
D94*
X91500000Y-105380000D02*
X91840000Y-105380000D01*
D90*
X129060000Y-148610000D02*
X130250000Y-148610000D01*
X47430000Y-109770000D02*
X46420000Y-109770000D01*
D88*
X51030000Y-122180000D02*
X52250000Y-122180000D01*
D90*
X56437400Y-144689000D02*
X54816400Y-146310000D01*
D92*
X109616000Y-100950000D02*
X109616000Y-100940000D01*
D95*
X51225000Y-62805000D02*
X52010000Y-63590000D01*
D88*
X49800000Y-120920000D02*
X49010000Y-120920000D01*
D95*
X121835000Y-57340600D02*
X120167200Y-55672800D01*
D89*
X94252500Y-140487500D02*
X94252500Y-141157500D01*
D92*
X46270000Y-149684000D02*
X46200000Y-149754000D01*
D88*
X53350000Y-122180000D02*
X53405000Y-122235000D01*
D90*
X96792500Y-140487500D02*
X97070000Y-140210000D01*
D94*
X119186000Y-98180000D02*
X119836000Y-98180000D01*
D90*
X91500000Y-96670000D02*
X91500000Y-98180000D01*
D91*
X138508750Y-103380000D02*
X138508750Y-112905000D01*
X49810000Y-107100000D02*
X50590000Y-107100000D01*
D94*
X63897600Y-141166000D02*
X63897600Y-141486000D01*
X63897600Y-143766000D02*
X63897600Y-144066000D01*
D89*
X98537500Y-127625000D02*
X97287500Y-127625000D01*
D90*
X55498053Y-66497801D02*
X55095126Y-66094874D01*
X114802200Y-80672800D02*
X112835000Y-82640000D01*
D92*
X66167600Y-149810000D02*
X71787600Y-149810000D01*
D90*
X67149340Y-134698500D02*
X68487600Y-136036760D01*
X64599400Y-65030600D02*
X65280000Y-64350000D01*
D91*
X68388000Y-111375000D02*
X68388000Y-108005000D01*
D90*
X60735126Y-57058754D02*
X59391246Y-55714874D01*
D95*
X45521250Y-81197500D02*
X45521250Y-83340000D01*
D88*
X53667000Y-118110000D02*
X51762000Y-116205000D01*
D90*
X88699000Y-93352600D02*
X90026400Y-94680000D01*
D95*
X45511250Y-76972500D02*
X46128750Y-77590000D01*
D88*
X47670000Y-114300000D02*
X47390000Y-114020000D01*
D92*
X114326000Y-103520000D02*
X114326000Y-105380000D01*
X62496000Y-141486000D02*
X63897600Y-141486000D01*
D95*
X45521250Y-85790650D02*
X45521250Y-83340000D01*
D88*
X54474000Y-116840000D02*
X56067500Y-116840000D01*
D95*
X85385000Y-58227500D02*
X82197500Y-58227500D01*
X92030000Y-65775000D02*
X92030000Y-70495000D01*
D88*
X73978000Y-114275000D02*
X74595500Y-114285000D01*
D89*
X132090000Y-150200000D02*
X132102500Y-150212500D01*
D96*
X135633750Y-113980000D02*
X133833750Y-115780000D01*
D89*
X57807201Y-72954656D02*
X52195344Y-72954656D01*
D90*
X83619000Y-93352600D02*
X86366400Y-96100000D01*
D95*
X51225000Y-59150000D02*
X51225000Y-62805000D01*
D90*
X81690000Y-140315000D02*
X80840000Y-141165000D01*
D88*
X74595500Y-114285000D02*
X75968000Y-112912500D01*
D89*
X97287500Y-127625000D02*
X91167500Y-127625000D01*
X58607199Y-74366598D02*
X58223797Y-74750000D01*
D96*
X131458750Y-107330000D02*
X131458750Y-98865000D01*
D89*
X54460000Y-69857800D02*
X54460000Y-69180000D01*
X127460000Y-147010000D02*
X125942500Y-147010000D01*
D90*
X92800000Y-98180000D02*
X92800000Y-99240000D01*
D94*
X94100000Y-105380000D02*
X94420000Y-105380000D01*
D89*
X110934999Y-80431547D02*
X110934999Y-79440000D01*
X127880000Y-131110000D02*
X127880000Y-130410000D01*
D90*
X53325126Y-56170126D02*
X51145000Y-53990000D01*
X65880000Y-62323880D02*
X67259224Y-60944656D01*
D97*
X42040000Y-61000000D02*
X40615000Y-62425000D01*
D95*
X99650000Y-69625000D02*
X98335000Y-70940000D01*
D94*
X115586000Y-105380000D02*
X115936000Y-105380000D01*
D92*
X82230000Y-103090000D02*
X82230000Y-100390000D01*
X93764000Y-108617600D02*
X94420000Y-107961600D01*
X119496000Y-96042500D02*
X119828500Y-95710000D01*
X41172400Y-144674000D02*
X41828400Y-145330000D01*
D90*
X127750000Y-132040000D02*
X125755000Y-132040000D01*
D89*
X96397500Y-123297500D02*
X96397500Y-124892500D01*
D92*
X96120000Y-102090000D02*
X97010000Y-101200000D01*
D90*
X124850000Y-132945000D02*
X124850000Y-138030000D01*
X91239000Y-93352600D02*
X94750000Y-96863600D01*
X59728399Y-74676200D02*
X59407200Y-74355001D01*
D92*
X46270000Y-142750000D02*
X44410000Y-142750000D01*
D89*
X104677199Y-72372801D02*
X106267800Y-72372801D01*
D92*
X95120000Y-103520000D02*
X98774000Y-103520000D01*
D90*
X60735126Y-62052549D02*
X60735126Y-57058754D01*
X101935000Y-82022800D02*
X101935000Y-78740000D01*
D95*
X74460000Y-68190000D02*
X73441246Y-67171246D01*
D90*
X57605126Y-55714874D02*
X56345126Y-56974874D01*
X105435000Y-78322800D02*
X105785001Y-77972799D01*
X98895000Y-138335000D02*
X98895000Y-137630000D01*
D92*
X97010000Y-107911600D02*
X97010000Y-105380000D01*
D94*
X113006000Y-105380000D02*
X113336000Y-105380000D01*
D89*
X41172400Y-134514000D02*
X43621500Y-134514000D01*
D90*
X89132500Y-136698286D02*
X89132500Y-142435000D01*
D88*
X44477500Y-112737500D02*
X44477500Y-111530000D01*
D89*
X116037947Y-73972800D02*
X116087947Y-74022800D01*
D96*
X133833750Y-53730000D02*
X133833750Y-56490000D01*
X135633750Y-88330000D02*
X137446250Y-88330000D01*
D93*
X67349130Y-74651200D02*
X67830000Y-74170330D01*
D89*
X92015000Y-81040000D02*
X96407800Y-85432800D01*
D94*
X63897600Y-146686000D02*
X63897600Y-147016000D01*
D89*
X131240000Y-132730000D02*
X129500000Y-132730000D01*
D88*
X62790000Y-116850000D02*
X62620000Y-116680000D01*
D95*
X48948586Y-95732500D02*
X47391250Y-94175164D01*
D92*
X89710000Y-103520000D02*
X91840000Y-103520000D01*
D88*
X73972000Y-118095000D02*
X75835500Y-118095000D01*
D95*
X102330000Y-145255000D02*
X102550000Y-145035000D01*
D89*
X114547200Y-68072800D02*
X118935000Y-63685000D01*
X92637200Y-82662800D02*
X83477800Y-82662800D01*
X51140000Y-67220000D02*
X47510000Y-63590000D01*
X89995000Y-118995000D02*
X89995000Y-120745000D01*
D90*
X101935000Y-78740000D02*
X105152200Y-75522800D01*
D89*
X101720000Y-120020000D02*
X97270000Y-120020000D01*
D91*
X138508750Y-55755000D02*
X138508750Y-52780000D01*
D88*
X75098000Y-104265000D02*
X75098000Y-108665000D01*
D89*
X95777500Y-117275000D02*
X95777500Y-118827500D01*
D92*
X82230000Y-107451600D02*
X82230000Y-106780000D01*
D91*
X43032500Y-108820000D02*
X43920000Y-108820000D01*
D89*
X109037200Y-62122800D02*
X106387200Y-62122800D01*
D95*
X88330000Y-56800000D02*
X80885050Y-56800000D01*
D92*
X95720000Y-103520000D02*
X95720000Y-105380000D01*
D89*
X100142500Y-126020000D02*
X98537500Y-127625000D01*
D95*
X73441246Y-71392563D02*
X73441246Y-75941246D01*
D89*
X110935000Y-76390000D02*
X109603505Y-76390000D01*
D96*
X129843750Y-100450000D02*
X128783750Y-100450000D01*
D89*
X125950000Y-150210000D02*
X125700000Y-150460000D01*
X97667500Y-121342500D02*
X97270000Y-120945000D01*
D92*
X89100000Y-105661600D02*
X86144000Y-108617600D01*
D89*
X70300000Y-78870000D02*
X67760000Y-78870000D01*
X110934999Y-69355001D02*
X112217200Y-68072800D01*
D90*
X91660000Y-136985000D02*
X91260000Y-136585000D01*
D96*
X133833750Y-75630000D02*
X133833750Y-74805000D01*
D90*
X65627468Y-66497801D02*
X65880000Y-66245269D01*
X57070885Y-68097800D02*
X56340000Y-68097800D01*
X110262114Y-85242800D02*
X112527800Y-85242800D01*
D89*
X112535001Y-70905600D02*
X112535001Y-70084999D01*
D91*
X135633750Y-93855000D02*
X138508750Y-93855000D01*
D88*
X66808000Y-123545000D02*
X61558000Y-123545000D01*
D90*
X53845626Y-60809530D02*
X53325126Y-60289030D01*
X65280000Y-60383880D02*
X67303880Y-58360000D01*
D89*
X94252500Y-145987500D02*
X94252500Y-147037500D01*
D90*
X125755000Y-132040000D02*
X124850000Y-132945000D01*
D95*
X66530000Y-67720000D02*
X66530000Y-69980000D01*
D91*
X64163000Y-109755000D02*
X65113000Y-108805000D01*
D88*
X71755500Y-120145000D02*
X71755500Y-116685500D01*
D90*
X127880000Y-131910000D02*
X127750000Y-132040000D01*
D96*
X130888750Y-95345000D02*
X128758750Y-95345000D01*
D89*
X113334999Y-70905600D02*
X118550600Y-70905600D01*
D90*
X61007199Y-74535000D02*
X61007199Y-73565000D01*
D89*
X90047500Y-122792500D02*
X90047500Y-123297500D01*
D91*
X70678000Y-104265000D02*
X69700500Y-104265000D01*
D96*
X131158750Y-86815000D02*
X131158750Y-85915000D01*
D89*
X105925000Y-84682800D02*
X108567800Y-82040000D01*
D92*
X43048400Y-144010000D02*
X44410000Y-144010000D01*
D93*
X60630000Y-74676200D02*
X62229381Y-74676200D01*
D96*
X133833750Y-53730000D02*
X133833750Y-55755000D01*
D95*
X91060000Y-59940000D02*
X91060000Y-61465000D01*
D92*
X111170000Y-108617600D02*
X113006000Y-106781600D01*
D88*
X73972000Y-116825000D02*
X75565500Y-116825000D01*
D89*
X128680000Y-131110000D02*
X128680000Y-131910000D01*
D88*
X52257500Y-116700500D02*
X51762000Y-116205000D01*
D90*
X118536000Y-93621600D02*
X118536000Y-98180000D01*
D89*
X95522500Y-138757500D02*
X95945000Y-138335000D01*
D88*
X52397000Y-115570000D02*
X51762000Y-116205000D01*
D90*
X104877201Y-77172799D02*
X106267800Y-77172799D01*
D95*
X120635000Y-77955000D02*
X119680000Y-78910000D01*
D90*
X53325126Y-60289030D02*
X53325126Y-56170126D01*
D91*
X51600000Y-104280000D02*
X53000000Y-104280000D01*
D89*
X104619400Y-70905600D02*
X107735001Y-70905600D01*
D96*
X129803750Y-82670000D02*
X128783750Y-82670000D01*
D92*
X63237600Y-136773500D02*
X62901100Y-137110000D01*
D89*
X130990000Y-131110000D02*
X131240000Y-130860000D01*
X107967800Y-80640000D02*
X109736596Y-80640000D01*
D96*
X131158750Y-85915000D02*
X132583750Y-84490000D01*
D89*
X124855000Y-131125000D02*
X124850000Y-131120000D01*
D92*
X41172400Y-147214000D02*
X41878400Y-147920000D01*
D95*
X99185000Y-73480000D02*
X101385000Y-71280000D01*
D89*
X127880000Y-130410000D02*
X129480000Y-130410000D01*
D95*
X42650000Y-59070000D02*
X51145000Y-59070000D01*
D92*
X41172400Y-139594000D02*
X43008400Y-141430000D01*
D89*
X95072500Y-144882500D02*
X89612500Y-144882500D01*
D88*
X43852000Y-115245000D02*
X43122000Y-114515000D01*
D96*
X132083750Y-90655000D02*
X129908750Y-92830000D01*
X131633750Y-68230000D02*
X131633750Y-83440000D01*
X130683750Y-81790000D02*
X129803750Y-82670000D01*
D89*
X125700000Y-148590000D02*
X127440000Y-148590000D01*
D90*
X41030000Y-103350000D02*
X49990000Y-103350000D01*
D95*
X96810000Y-59925000D02*
X96810000Y-62935000D01*
X119680000Y-78910000D02*
X118935000Y-78910000D01*
D90*
X126450000Y-132950000D02*
X126450000Y-137290000D01*
D91*
X49930000Y-111530000D02*
X51762000Y-113362000D01*
D90*
X88532500Y-140685000D02*
X88532500Y-136449758D01*
X59675126Y-60794874D02*
X60135126Y-60334874D01*
D92*
X97010000Y-98850000D02*
X97010000Y-96042500D01*
D90*
X75656000Y-147016000D02*
X71097600Y-147016000D01*
D88*
X67168000Y-114285000D02*
X66888000Y-114005000D01*
D90*
X89132500Y-142435000D02*
X87582500Y-143985000D01*
D89*
X62241596Y-66197800D02*
X61024400Y-66197800D01*
D91*
X135633750Y-103380000D02*
X138508750Y-103380000D01*
D88*
X47390000Y-114020000D02*
X45760000Y-114020000D01*
D90*
X116816000Y-99560000D02*
X116816000Y-100790000D01*
D96*
X133833750Y-90655000D02*
X132083750Y-90655000D01*
D89*
X102550000Y-139035000D02*
X99502500Y-139035000D01*
D88*
X43210000Y-122180000D02*
X43155000Y-122235000D01*
D89*
X113147200Y-69472800D02*
X118212200Y-69472800D01*
D90*
X112534999Y-80740733D02*
X110565732Y-82710000D01*
X70180000Y-90080000D02*
X70180000Y-91330000D01*
D95*
X92885000Y-64090000D02*
X81870000Y-64090000D01*
D89*
X107446201Y-75572799D02*
X107429000Y-75590000D01*
D90*
X51145000Y-56530000D02*
X48605000Y-56530000D01*
D89*
X99304668Y-142180000D02*
X100849668Y-140635000D01*
X109744105Y-78229300D02*
X110935000Y-78229300D01*
X97947200Y-83182800D02*
X97957200Y-83172800D01*
D88*
X41570000Y-123070000D02*
X41570000Y-121037500D01*
D94*
X114326000Y-105380000D02*
X114636000Y-105380000D01*
D95*
X80385000Y-59840000D02*
X81035000Y-60490000D01*
D89*
X127460000Y-150910000D02*
X127460000Y-150210000D01*
D95*
X46128750Y-80590000D02*
X45521250Y-81197500D01*
D90*
X75925000Y-142205000D02*
X72414000Y-145716000D01*
D97*
X59777159Y-63894400D02*
X59407200Y-64264359D01*
D92*
X60660000Y-147270000D02*
X61366000Y-147976000D01*
D90*
X75925000Y-139665000D02*
X74597600Y-140992400D01*
D95*
X99235000Y-56368996D02*
X97406004Y-54540000D01*
X48948586Y-90652500D02*
X52178458Y-90652500D01*
D90*
X108645000Y-93352600D02*
X110712400Y-95420000D01*
D96*
X135633750Y-55755000D02*
X135633750Y-56855000D01*
D90*
X53120000Y-142410000D02*
X51610000Y-142410000D01*
D91*
X63418000Y-109755000D02*
X63940500Y-109755000D01*
D90*
X73177600Y-141896000D02*
X72607600Y-142466000D01*
X53030000Y-141420000D02*
X52690000Y-141760000D01*
D95*
X42050000Y-63530000D02*
X42040000Y-63540000D01*
D89*
X127880000Y-131110000D02*
X126465000Y-131110000D01*
D90*
X61426885Y-72453800D02*
X60587513Y-72453800D01*
X105206599Y-75572799D02*
X105156600Y-75522800D01*
D89*
X101185000Y-77390000D02*
X105402201Y-73172799D01*
D96*
X137471250Y-119230000D02*
X133858750Y-119230000D01*
D88*
X63820500Y-122152500D02*
X63808000Y-122165000D01*
D90*
X54370000Y-142110000D02*
X53420000Y-143060000D01*
D89*
X67130000Y-88503914D02*
X67130000Y-90300000D01*
D95*
X109255050Y-50200050D02*
X98524950Y-50200050D01*
D91*
X42170000Y-107957500D02*
X40877500Y-109250000D01*
D89*
X117775000Y-81450000D02*
X115335000Y-83890000D01*
X105417500Y-121725000D02*
X105417500Y-124075000D01*
X71580000Y-89100000D02*
X71580000Y-80150000D01*
D91*
X138508750Y-112905000D02*
X138508750Y-122430000D01*
D89*
X92587500Y-125237500D02*
X92587500Y-123297500D01*
D90*
X60135126Y-58224874D02*
X58885126Y-56974874D01*
D95*
X73235100Y-147976000D02*
X71097600Y-147976000D01*
D90*
X66698000Y-108805000D02*
X65918000Y-108805000D01*
D92*
X118606000Y-102090000D02*
X119496000Y-101200000D01*
D89*
X130475000Y-150210000D02*
X130490000Y-150195000D01*
X99332500Y-147597500D02*
X99332500Y-145987500D01*
D96*
X135633750Y-78805000D02*
X137446250Y-78805000D01*
D97*
X61807200Y-64264359D02*
X63345126Y-62726434D01*
D90*
X127880000Y-132710000D02*
X126690000Y-132710000D01*
D95*
X96810000Y-59925000D02*
X94075000Y-59925000D01*
D92*
X91840000Y-103520000D02*
X94330000Y-103520000D01*
D94*
X92800000Y-105380000D02*
X93100000Y-105380000D01*
D92*
X98844000Y-108617600D02*
X98844000Y-103590000D01*
D88*
X54082500Y-120160000D02*
X54980000Y-121057500D01*
D89*
X94555000Y-80970000D02*
X104619400Y-70905600D01*
X92982500Y-140487500D02*
X92982500Y-141236363D01*
D96*
X130508750Y-101115000D02*
X129843750Y-100450000D01*
X133833750Y-66030000D02*
X131633750Y-68230000D01*
D95*
X42396250Y-79922500D02*
X43228750Y-79090000D01*
D88*
X45530000Y-122180000D02*
X44310000Y-122180000D01*
D89*
X101720000Y-124420000D02*
X99270000Y-124420000D01*
X124837500Y-131107500D02*
X123230000Y-131107500D01*
D93*
X68440000Y-74338148D02*
X68440000Y-73080000D01*
D90*
X41030000Y-104655000D02*
X41030000Y-103350000D01*
D96*
X133833750Y-109705000D02*
X131458750Y-107330000D01*
D95*
X110284400Y-56890000D02*
X119639164Y-56890000D01*
D89*
X108534999Y-78448456D02*
X108534999Y-79440000D01*
D90*
X91260000Y-136585000D02*
X90094314Y-136585000D01*
D95*
X47385950Y-83037800D02*
X45823450Y-83037800D01*
D94*
X63897600Y-144066000D02*
X63897600Y-144416000D01*
D88*
X49050000Y-115570000D02*
X47259500Y-115570000D01*
D89*
X92982500Y-148307500D02*
X93490000Y-148815000D01*
D98*
X43182500Y-64682500D02*
X42050000Y-63550000D01*
D95*
X48381250Y-80492500D02*
X48948586Y-80492500D01*
X53348458Y-88112500D02*
X58426186Y-93190228D01*
D89*
X70880000Y-82740000D02*
X69550000Y-81410000D01*
D90*
X57635126Y-61538754D02*
X58379006Y-60794874D01*
D92*
X60660000Y-144730000D02*
X61316000Y-145386000D01*
D95*
X45657800Y-88852200D02*
X43260950Y-88852200D01*
X91985000Y-62390000D02*
X93735000Y-62390000D01*
D89*
X70880000Y-89580000D02*
X70880000Y-92710000D01*
X98395000Y-82340000D02*
X100685000Y-82340000D01*
X111735000Y-80621494D02*
X111735000Y-79440000D01*
D90*
X68487600Y-136036760D02*
X68487600Y-142171686D01*
D95*
X94075000Y-59925000D02*
X94060000Y-59940000D01*
D97*
X40615000Y-62425000D02*
X40615000Y-71756250D01*
D92*
X61366000Y-147976000D02*
X63897600Y-147976000D01*
D89*
X126450000Y-131125000D02*
X124855000Y-131125000D01*
D90*
X113336000Y-97100000D02*
X113336000Y-98180000D01*
D98*
X42050000Y-63550000D02*
X42050000Y-63530000D01*
D88*
X41677000Y-118110000D02*
X41072000Y-117505000D01*
D96*
X130223750Y-87750000D02*
X131158750Y-86815000D01*
D88*
X71755500Y-116685500D02*
X71260000Y-116190000D01*
D92*
X46270000Y-146030000D02*
X46270000Y-149684000D01*
D90*
X50690000Y-136610000D02*
X50690000Y-141085000D01*
D95*
X76370000Y-81410000D02*
X76370000Y-83950000D01*
D94*
X97010000Y-105380000D02*
X97350000Y-105380000D01*
D96*
X129908750Y-92830000D02*
X128783750Y-92830000D01*
D89*
X118550600Y-70905600D02*
X118935000Y-71290000D01*
X82432500Y-120265000D02*
X82432500Y-118967500D01*
D88*
X54480000Y-114290000D02*
X55097500Y-114300000D01*
D92*
X83880000Y-99190000D02*
X87430000Y-99190000D01*
D89*
X93295000Y-131095000D02*
X93857500Y-130532500D01*
D90*
X72607600Y-144416000D02*
X71097600Y-144416000D01*
X124850000Y-138030000D02*
X124750000Y-138130000D01*
D96*
X131633750Y-83440000D02*
X129863750Y-85210000D01*
D89*
X102550000Y-142235000D02*
X103770000Y-142235000D01*
X89612500Y-144882500D02*
X87655000Y-146840000D01*
X128680000Y-133510000D02*
X128680000Y-134310000D01*
D90*
X60528000Y-104640000D02*
X60528000Y-103335000D01*
D95*
X81870000Y-65775000D02*
X81870000Y-81025000D01*
D89*
X91712500Y-148052500D02*
X90950000Y-148815000D01*
D88*
X68548000Y-114285000D02*
X67168000Y-114285000D01*
D96*
X132583750Y-76880000D02*
X133833750Y-75630000D01*
D89*
X110135001Y-62134999D02*
X110135001Y-70905600D01*
X71580000Y-94090000D02*
X69130000Y-96540000D01*
D95*
X48948586Y-93192500D02*
X52173914Y-93192500D01*
X81870000Y-64090000D02*
X81870000Y-60805000D01*
D89*
X60660000Y-134570000D02*
X63109100Y-134570000D01*
D92*
X89360000Y-102090000D02*
X87840000Y-103610000D01*
X89100000Y-104130000D02*
X89710000Y-103520000D01*
D90*
X109995000Y-84975686D02*
X110262114Y-85242800D01*
D88*
X70528000Y-122165000D02*
X71748000Y-122165000D01*
D92*
X82230000Y-106780000D02*
X82230000Y-105240000D01*
D88*
X63808000Y-122165000D02*
X62708000Y-122165000D01*
D90*
X55110000Y-142370000D02*
X53120000Y-144360000D01*
D89*
X129480000Y-131910000D02*
X129480000Y-133510000D01*
X90442500Y-146782500D02*
X88410000Y-148815000D01*
X104250000Y-143848604D02*
X104250000Y-146825000D01*
D95*
X88330000Y-59925000D02*
X91045000Y-59925000D01*
D89*
X127460000Y-149410000D02*
X128260000Y-149410000D01*
X56322201Y-72080000D02*
X50500000Y-72080000D01*
X109603505Y-76390000D02*
X107735001Y-78258504D01*
D95*
X70970000Y-76280000D02*
X72241246Y-75008754D01*
D90*
X56168400Y-146960000D02*
X51610000Y-146960000D01*
D95*
X67780000Y-64730000D02*
X67780000Y-66470000D01*
D88*
X46760000Y-120920000D02*
X46760000Y-122180000D01*
D96*
X133833750Y-96780000D02*
X133833750Y-97855000D01*
D90*
X130490000Y-148370000D02*
X130490000Y-144030000D01*
D89*
X130490000Y-150195000D02*
X132085000Y-150195000D01*
D92*
X88684000Y-108617600D02*
X90520000Y-106781600D01*
D89*
X69160000Y-83950000D02*
X67760000Y-83950000D01*
X69550000Y-81410000D02*
X67760000Y-81410000D01*
D90*
X61807200Y-73565000D02*
X61807200Y-72834115D01*
D88*
X66457500Y-116825000D02*
X66432500Y-116850000D01*
D96*
X132408750Y-87815000D02*
X132408750Y-86715000D01*
D97*
X42386250Y-73527500D02*
X42386250Y-74880000D01*
D95*
X51145000Y-59070000D02*
X51225000Y-59150000D01*
D89*
X112697200Y-68772800D02*
X116367200Y-68772800D01*
X56340000Y-70497800D02*
X55100000Y-70497800D01*
D90*
X61750000Y-104640000D02*
X60528000Y-104640000D01*
D95*
X81035000Y-60490000D02*
X82185000Y-60490000D01*
D91*
X60375500Y-109235000D02*
X60375500Y-111515000D01*
D89*
X95957500Y-118995000D02*
X97270000Y-120307500D01*
X110135001Y-80241595D02*
X110135001Y-79440000D01*
X129480000Y-131910000D02*
X128680000Y-131910000D01*
D95*
X92885000Y-56715000D02*
X92560000Y-57040000D01*
D88*
X46760000Y-120920000D02*
X46760000Y-119760000D01*
D89*
X112535001Y-70084999D02*
X113147200Y-69472800D01*
D91*
X70648000Y-104295000D02*
X70678000Y-104265000D01*
D89*
X52195344Y-72954656D02*
X50890000Y-74260000D01*
X97287500Y-127625000D02*
X97667500Y-127625000D01*
D91*
X135633750Y-84330000D02*
X138508750Y-84330000D01*
D89*
X97667500Y-123297500D02*
X97667500Y-121342500D01*
D91*
X138508750Y-74805000D02*
X138508750Y-84330000D01*
D92*
X121330000Y-108617600D02*
X121330000Y-103590000D01*
D95*
X128508750Y-74397500D02*
X126750000Y-76156250D01*
D96*
X132583750Y-84490000D02*
X132583750Y-76880000D01*
D92*
X87840000Y-103610000D02*
X87840000Y-104560000D01*
D90*
X117236000Y-96863600D02*
X117236000Y-98180000D01*
D96*
X131458750Y-98865000D02*
X130503750Y-97910000D01*
D92*
X86060000Y-106780000D02*
X82230000Y-106780000D01*
D89*
X101110332Y-141435000D02*
X102550000Y-141435000D01*
X103770000Y-149845000D02*
X101580000Y-149845000D01*
D96*
X135633750Y-103380000D02*
X135633750Y-104480000D01*
D89*
X99635000Y-81040000D02*
X99635000Y-77415000D01*
X92982500Y-140487500D02*
X92982500Y-140882500D01*
X55160000Y-68800000D02*
X53580000Y-67220000D01*
D90*
X84486400Y-96760000D02*
X90510000Y-96760000D01*
D89*
X103707500Y-117245000D02*
X103707500Y-120015000D01*
D90*
X80840000Y-138625000D02*
X80840000Y-137435000D01*
D91*
X63418000Y-109755000D02*
X64163000Y-109755000D01*
D90*
X48128000Y-105305000D02*
X49402500Y-105305000D01*
D91*
X71260000Y-113347000D02*
X71260000Y-116190000D01*
D92*
X112686000Y-102090000D02*
X118606000Y-102090000D01*
D91*
X138083750Y-52355000D02*
X133408750Y-52355000D01*
D90*
X61750000Y-105290000D02*
X63543000Y-105290000D01*
D92*
X119496000Y-101200000D02*
X119496000Y-98850000D01*
D89*
X125680000Y-148570000D02*
X125700000Y-148590000D01*
D90*
X132090000Y-143290000D02*
X132190000Y-143190000D01*
D96*
X135633750Y-59755000D02*
X137446250Y-59755000D01*
D88*
X72848000Y-122165000D02*
X72903000Y-122220000D01*
D91*
X69308000Y-107085000D02*
X70088000Y-107085000D01*
D94*
X113986000Y-105380000D02*
X114326000Y-105380000D01*
D92*
X65757600Y-146086000D02*
X65757600Y-149740000D01*
D88*
X71895000Y-115555000D02*
X71260000Y-116190000D01*
D89*
X114000605Y-77172801D02*
X113635000Y-76807196D01*
D88*
X46760000Y-119760000D02*
X46690000Y-119690000D01*
D90*
X52655126Y-58040126D02*
X51145000Y-56530000D01*
D95*
X106387200Y-62122800D02*
X106335000Y-62070600D01*
D91*
X132850000Y-52913750D02*
X132850000Y-55473750D01*
D89*
X92860000Y-138835000D02*
X91712500Y-139982500D01*
X117017200Y-76372800D02*
X114802200Y-76372800D01*
D90*
X61750000Y-103990000D02*
X67626000Y-103990000D01*
D96*
X135633750Y-66355000D02*
X133833750Y-68155000D01*
D90*
X70320000Y-62115352D02*
X70320000Y-62190000D01*
X123470000Y-139390000D02*
X122210000Y-138130000D01*
D89*
X91770000Y-131095000D02*
X93295000Y-131095000D01*
X91762500Y-140437500D02*
X91712500Y-140487500D01*
D92*
X43750000Y-136717500D02*
X43413500Y-137054000D01*
X104716000Y-106780000D02*
X104716000Y-105240000D01*
D97*
X61257921Y-63894400D02*
X59777159Y-63894400D01*
D90*
X113946000Y-94680000D02*
X115936000Y-96670000D01*
D89*
X91317500Y-126017500D02*
X91317500Y-123297500D01*
D94*
X44410000Y-142410000D02*
X44410000Y-142750000D01*
D95*
X45657800Y-85927200D02*
X45521250Y-85790650D01*
D90*
X67626000Y-105290000D02*
X68900500Y-105290000D01*
D89*
X114802200Y-73172801D02*
X116227191Y-73172801D01*
D92*
X110326000Y-104560000D02*
X109466000Y-105420000D01*
D89*
X110135001Y-71707198D02*
X112350603Y-73922800D01*
D88*
X68548000Y-118105000D02*
X68548000Y-120905000D01*
D92*
X97010000Y-101200000D02*
X97010000Y-98850000D01*
D95*
X75890000Y-68190000D02*
X74460000Y-68190000D01*
D90*
X129190000Y-149280000D02*
X131185000Y-149280000D01*
X61750000Y-104640000D02*
X61750000Y-105290000D01*
D95*
X42396250Y-83340000D02*
X42396250Y-79922500D01*
D94*
X91840000Y-105380000D02*
X92150000Y-105380000D01*
D91*
X45615000Y-108820000D02*
X46420000Y-108820000D01*
D90*
X84875000Y-136102500D02*
X84820000Y-136047500D01*
D88*
X47780000Y-123090000D02*
X47310000Y-123560000D01*
D92*
X112686000Y-102090000D02*
X111846000Y-102090000D01*
D90*
X69070000Y-59102565D02*
X69070000Y-60865352D01*
D88*
X68548000Y-118095000D02*
X61175000Y-118095000D01*
D95*
X66361600Y-132030000D02*
X70187600Y-135856000D01*
D90*
X90850000Y-97100000D02*
X90850000Y-98180000D01*
D89*
X128260000Y-147810000D02*
X128260000Y-147010000D01*
D90*
X94330000Y-99560000D02*
X94330000Y-100790000D01*
X73857600Y-139192400D02*
X73857600Y-142166000D01*
X67626000Y-109057000D02*
X66928000Y-109755000D01*
D88*
X67278000Y-123075000D02*
X66808000Y-123545000D01*
D96*
X133833750Y-100155000D02*
X133833750Y-103355000D01*
D92*
X96304000Y-108617600D02*
X97010000Y-107911600D01*
D93*
X62607199Y-73565000D02*
X62607199Y-74276200D01*
D88*
X44310000Y-122180000D02*
X43210000Y-122180000D01*
X49050000Y-116840000D02*
X46959500Y-116840000D01*
D90*
X71097600Y-145066000D02*
X65987600Y-145066000D01*
D92*
X98844000Y-97490000D02*
X98844000Y-93367600D01*
X43413500Y-137054000D02*
X41172400Y-137054000D01*
D91*
X68248000Y-111515000D02*
X68388000Y-111375000D01*
D89*
X111735000Y-70905600D02*
X111735000Y-69735000D01*
D95*
X48948586Y-88112500D02*
X53348458Y-88112500D01*
D90*
X57635126Y-64054874D02*
X57635126Y-61538754D01*
D96*
X137471250Y-81130000D02*
X133833750Y-81130000D01*
D89*
X95127500Y-123297500D02*
X95127500Y-124877500D01*
D96*
X133833750Y-125330000D02*
X133833750Y-126430000D01*
D92*
X109616000Y-100940000D02*
X108606000Y-101950000D01*
D90*
X72607600Y-142466000D02*
X71097600Y-142466000D01*
D89*
X93857500Y-121407500D02*
X94320000Y-120945000D01*
D95*
X106335000Y-55282500D02*
X106727500Y-54890000D01*
X131700000Y-54773750D02*
X128508750Y-57965000D01*
D90*
X89845786Y-135985000D02*
X89132500Y-136698286D01*
D92*
X104716000Y-105240000D02*
X104716000Y-104480000D01*
D95*
X112167200Y-55672800D02*
X111115000Y-54620600D01*
D91*
X135633750Y-65280000D02*
X138483750Y-65280000D01*
D95*
X47391250Y-89542500D02*
X47391250Y-85940000D01*
D89*
X134030000Y-134310000D02*
X132822500Y-134310000D01*
X95127500Y-124877500D02*
X95145000Y-124895000D01*
X124560000Y-150210000D02*
X123010000Y-150210000D01*
D94*
X63897600Y-145386000D02*
X63897600Y-145716000D01*
D95*
X132800000Y-51240000D02*
X131700000Y-52340000D01*
D89*
X70180000Y-84970000D02*
X69160000Y-83950000D01*
D90*
X97070000Y-140210000D02*
X97070000Y-137565760D01*
D89*
X129480000Y-131110000D02*
X130270000Y-131110000D01*
D90*
X55449523Y-67297799D02*
X54495126Y-66343402D01*
D89*
X88795000Y-123280000D02*
X88777500Y-123297500D01*
D90*
X68300776Y-60944656D02*
X69048750Y-61692630D01*
D89*
X111245000Y-83080000D02*
X111245000Y-83960000D01*
X61024400Y-66197800D02*
X61007199Y-66215001D01*
X84345000Y-148785000D02*
X80840000Y-148785000D01*
D95*
X48948586Y-77952500D02*
X61467500Y-77952500D01*
D89*
X89995000Y-118995000D02*
X82460000Y-118995000D01*
X102550000Y-139495000D02*
X102550000Y-139035000D01*
D90*
X94940000Y-134785000D02*
X89660000Y-134785000D01*
D94*
X44410000Y-146630000D02*
X44410000Y-146960000D01*
D89*
X99270000Y-124420000D02*
X97795000Y-125895000D01*
D90*
X106267800Y-75572799D02*
X105206599Y-75572799D01*
D89*
X95522500Y-140487500D02*
X95522500Y-138757500D01*
D95*
X126750000Y-76156250D02*
X126750000Y-79156250D01*
D94*
X117886000Y-105380000D02*
X118206000Y-105380000D01*
D96*
X132408750Y-86715000D02*
X133833750Y-85290000D01*
D91*
X48750000Y-111530000D02*
X48890000Y-111390000D01*
D94*
X90520000Y-105380000D02*
X90850000Y-105380000D01*
D92*
X60660000Y-142190000D02*
X62536000Y-144066000D01*
D91*
X44665000Y-109770000D02*
X45615000Y-108820000D01*
D92*
X46270000Y-142750000D02*
X46270000Y-137430000D01*
D89*
X117477801Y-72372801D02*
X118935000Y-73830000D01*
D95*
X108575000Y-54867500D02*
X108552500Y-54890000D01*
D92*
X121330000Y-97490000D02*
X121330000Y-93367600D01*
D88*
X73972000Y-115555000D02*
X71895000Y-115555000D01*
D90*
X94100000Y-99330000D02*
X94330000Y-99560000D01*
D89*
X92982500Y-140882500D02*
X92980000Y-140885000D01*
D90*
X90165000Y-143580000D02*
X101095000Y-143580000D01*
D89*
X114802200Y-73972800D02*
X116037947Y-73972800D01*
X94555000Y-81040000D02*
X94555000Y-80970000D01*
D90*
X43750000Y-134642500D02*
X47661740Y-134642500D01*
D91*
X48890000Y-108020000D02*
X49810000Y-107100000D01*
D95*
X84410000Y-65775000D02*
X84410000Y-68825000D01*
X111115000Y-52060000D02*
X109255050Y-50200050D01*
D92*
X46680000Y-149754000D02*
X52300000Y-149754000D01*
D90*
X58607201Y-65030600D02*
X58607201Y-64180474D01*
D98*
X100955000Y-52060000D02*
X100955000Y-54630000D01*
D89*
X101720000Y-123270000D02*
X101720000Y-122820000D01*
D95*
X91060000Y-61465000D02*
X91985000Y-62390000D01*
D90*
X116586000Y-98180000D02*
X116586000Y-99330000D01*
D89*
X54460000Y-69180000D02*
X53200000Y-67920000D01*
D88*
X66258000Y-120905000D02*
X66258000Y-122165000D01*
D89*
X132102500Y-150212500D02*
X133710000Y-150212500D01*
D92*
X93100000Y-106741600D02*
X93100000Y-105380000D01*
D89*
X67130000Y-96540000D02*
X67130000Y-94460000D01*
D92*
X46270000Y-146630000D02*
X44410000Y-146630000D01*
D89*
X127460000Y-150210000D02*
X126670000Y-150210000D01*
D96*
X133833750Y-119255000D02*
X130508750Y-115930000D01*
D92*
X56422400Y-149754000D02*
X56437400Y-149769000D01*
D91*
X138508750Y-84330000D02*
X138508750Y-93855000D01*
D92*
X111586000Y-104130000D02*
X112196000Y-103520000D01*
D90*
X66480000Y-63490000D02*
X67780000Y-62190000D01*
D88*
X65028000Y-122165000D02*
X63808000Y-122165000D01*
D89*
X110135001Y-70905600D02*
X110135001Y-71707198D01*
D96*
X133833750Y-58655000D02*
X133833750Y-59755000D01*
D88*
X55600000Y-104280000D02*
X55600000Y-108680000D01*
X49050000Y-114300000D02*
X47670000Y-114300000D01*
X49010000Y-120920000D02*
X46760000Y-120920000D01*
D89*
X130270000Y-131110000D02*
X130990000Y-131110000D01*
X95522500Y-145987500D02*
X95522500Y-145332500D01*
X123230000Y-137110000D02*
X122210000Y-138130000D01*
D90*
X70180000Y-91330000D02*
X69130000Y-92380000D01*
D92*
X81064000Y-108617600D02*
X82230000Y-107451600D01*
D89*
X93857500Y-130532500D02*
X93857500Y-128797500D01*
D90*
X105156600Y-74353115D02*
X105156600Y-75522800D01*
X103035000Y-80922800D02*
X103035000Y-79015000D01*
X60528000Y-103335000D02*
X69488000Y-103335000D01*
D88*
X61068000Y-121022500D02*
X61995500Y-120095000D01*
D95*
X99235000Y-62670050D02*
X99235000Y-56368996D01*
D88*
X64607500Y-116850000D02*
X62790000Y-116850000D01*
D90*
X96530000Y-135265000D02*
X96050000Y-134785000D01*
D95*
X128508750Y-57965000D02*
X128508750Y-74397500D01*
D92*
X61316000Y-145386000D02*
X63897600Y-145386000D01*
D94*
X112686000Y-105380000D02*
X113006000Y-105380000D01*
D90*
X90026400Y-94680000D02*
X91460000Y-94680000D01*
D89*
X103247200Y-86132800D02*
X96107200Y-86132800D01*
D90*
X101095000Y-143580000D02*
X102550000Y-145035000D01*
D91*
X138508750Y-55755000D02*
X138508750Y-65255000D01*
X61755500Y-109755000D02*
X61668000Y-109667500D01*
D92*
X114326000Y-103520000D02*
X116816000Y-103520000D01*
D89*
X115963400Y-78890000D02*
X115963400Y-81781600D01*
D95*
X53747500Y-147920000D02*
X51610000Y-147920000D01*
D88*
X48780000Y-123160000D02*
X48780000Y-122180000D01*
D89*
X91712500Y-145987500D02*
X91712500Y-148052500D01*
D92*
X108606000Y-106720000D02*
X108546000Y-106780000D01*
D89*
X89995000Y-118995000D02*
X95957500Y-118995000D01*
D88*
X63350000Y-115230000D02*
X62620000Y-114500000D01*
D96*
X132408750Y-96865000D02*
X130888750Y-95345000D01*
D90*
X65178000Y-106925000D02*
X66568000Y-106925000D01*
D91*
X132850000Y-55473750D02*
X129708750Y-58615000D01*
D89*
X80840000Y-138625000D02*
X80840000Y-136085000D01*
X103986396Y-142451396D02*
X103986396Y-143585000D01*
X82890000Y-141655000D02*
X84637500Y-141655000D01*
D94*
X96700000Y-105380000D02*
X97010000Y-105380000D01*
D89*
X54910049Y-71297799D02*
X53760000Y-70147750D01*
D90*
X59407200Y-74355001D02*
X59407200Y-73565000D01*
X55824350Y-58269530D02*
X57639782Y-58269530D01*
D93*
X67576948Y-75201200D02*
X68440000Y-74338148D01*
D90*
X113725000Y-93352600D02*
X117236000Y-96863600D01*
D95*
X121835000Y-79805000D02*
X121835000Y-57340600D01*
D90*
X105152200Y-75522800D02*
X105156600Y-75522800D01*
D95*
X90035000Y-56800000D02*
X92560000Y-56800000D01*
D96*
X135633750Y-116905000D02*
X137446250Y-116905000D01*
D88*
X65258000Y-114005000D02*
X63975500Y-112722500D01*
D90*
X47070000Y-106940000D02*
X47480000Y-107350000D01*
X96050000Y-134785000D02*
X94940000Y-134785000D01*
D92*
X43008400Y-141430000D02*
X44410000Y-141430000D01*
D90*
X73177600Y-137332400D02*
X73177600Y-141896000D01*
X65280000Y-64350000D02*
X65280000Y-60383880D01*
X128550000Y-137530000D02*
X128550000Y-138680000D01*
D89*
X87655000Y-146840000D02*
X85350000Y-146840000D01*
D94*
X44410000Y-144010000D02*
X44410000Y-144360000D01*
D88*
X42060000Y-123560000D02*
X41570000Y-123070000D01*
D89*
X126670000Y-150210000D02*
X125950000Y-150210000D01*
D88*
X56337500Y-118110000D02*
X56480000Y-118252500D01*
D95*
X126750000Y-79156250D02*
X127723750Y-80130000D01*
D89*
X133710000Y-144210000D02*
X134730000Y-143190000D01*
D90*
X95737768Y-135385000D02*
X97790000Y-137437232D01*
X90510000Y-96760000D02*
X90850000Y-97100000D01*
D89*
X105435000Y-83172800D02*
X107967800Y-80640000D01*
D92*
X109466000Y-105420000D02*
X108606000Y-105420000D01*
D90*
X127880000Y-136860000D02*
X128550000Y-137530000D01*
D96*
X129863750Y-85210000D02*
X128783750Y-85210000D01*
D90*
X112996000Y-96760000D02*
X113336000Y-97100000D01*
D89*
X95522500Y-145332500D02*
X95072500Y-144882500D01*
D92*
X65757600Y-146686000D02*
X63897600Y-146686000D01*
D90*
X130250000Y-148610000D02*
X130490000Y-148370000D01*
D95*
X88785000Y-51740000D02*
X88785000Y-56345000D01*
D89*
X118935000Y-63685000D02*
X118935000Y-63670000D01*
D94*
X119186000Y-105380000D02*
X119496000Y-105380000D01*
D89*
X94252500Y-147037500D02*
X96030000Y-148815000D01*
X96107200Y-86132800D02*
X92637200Y-82662800D01*
D88*
X45109500Y-115245000D02*
X43852000Y-115245000D01*
D90*
X67259224Y-60944656D02*
X68300776Y-60944656D01*
D89*
X126670000Y-150210000D02*
X124560000Y-150210000D01*
D90*
X51145000Y-53990000D02*
X48605000Y-53990000D01*
D95*
X111115000Y-54620600D02*
X111115000Y-52060000D01*
X70187600Y-135856000D02*
X70187600Y-136656000D01*
D89*
X98195000Y-126745000D02*
X92045000Y-126745000D01*
X129060000Y-150910000D02*
X127460000Y-150910000D01*
D94*
X116906000Y-105380000D02*
X117236000Y-105380000D01*
D90*
X93779000Y-93352600D02*
X95400000Y-94973600D01*
X106998685Y-76372800D02*
X107379000Y-75992485D01*
D92*
X119496000Y-98850000D02*
X119496000Y-96042500D01*
D96*
X133833750Y-115780000D02*
X133833750Y-116905000D01*
D92*
X121260000Y-103520000D02*
X121330000Y-103590000D01*
D89*
X103770000Y-142235000D02*
X103986396Y-142451396D01*
D95*
X45823450Y-83037800D02*
X45521250Y-83340000D01*
D88*
X68548000Y-115555000D02*
X66757500Y-115555000D01*
D90*
X98895000Y-137630000D02*
X96530000Y-135265000D01*
D91*
X135633750Y-112905000D02*
X138508750Y-112905000D01*
D90*
X90094314Y-136585000D02*
X89732500Y-136946814D01*
D88*
X66888000Y-114005000D02*
X65258000Y-114005000D01*
D90*
X66568000Y-106925000D02*
X66978000Y-107335000D01*
D88*
X54980000Y-123030000D02*
X54350000Y-123660000D01*
D89*
X113617799Y-75572799D02*
X107446201Y-75572799D01*
D92*
X103550000Y-108617600D02*
X104716000Y-107451600D01*
D89*
X115335000Y-87490000D02*
X113785000Y-89040000D01*
D90*
X111185000Y-93352600D02*
X112512400Y-94680000D01*
D96*
X135633750Y-65280000D02*
X135633750Y-66355000D01*
D88*
X75098000Y-108665000D02*
X75118000Y-108685000D01*
D90*
X57807201Y-65030600D02*
X57807201Y-64226949D01*
D88*
X74478000Y-123015000D02*
X73848000Y-123645000D01*
D90*
X75925000Y-144745000D02*
X74304000Y-146366000D01*
X70177600Y-136666000D02*
X70177600Y-141141000D01*
D89*
X63109100Y-134570000D02*
X63237600Y-134698500D01*
D90*
X129060000Y-144460000D02*
X128390000Y-143790000D01*
D95*
X96810000Y-62935000D02*
X99650000Y-65775000D01*
D90*
X52690000Y-141760000D02*
X51610000Y-141760000D01*
D89*
X127440000Y-148590000D02*
X127460000Y-148610000D01*
D95*
X41318750Y-90320000D02*
X47391250Y-90320000D01*
D89*
X118935000Y-81450000D02*
X117775000Y-81450000D01*
X129060000Y-150210000D02*
X130475000Y-150210000D01*
D94*
X71097600Y-147666000D02*
X71097600Y-147976000D01*
D95*
X73441246Y-75941246D02*
X76370000Y-78870000D01*
X74643809Y-70190000D02*
X73441246Y-71392563D01*
D89*
X133930000Y-131110000D02*
X134600000Y-131780000D01*
D96*
X133833750Y-119255000D02*
X133833750Y-122430000D01*
D90*
X66978000Y-108525000D02*
X66698000Y-108805000D01*
D91*
X71098000Y-104265000D02*
X70678000Y-104265000D01*
D94*
X44410000Y-141110000D02*
X44410000Y-141430000D01*
D95*
X120190000Y-81450000D02*
X121835000Y-79805000D01*
X44895000Y-72140000D02*
X43020000Y-72140000D01*
D89*
X105402201Y-73172799D02*
X106267800Y-73172799D01*
D90*
X66978000Y-107335000D02*
X66978000Y-108525000D01*
D88*
X55600000Y-108680000D02*
X55620000Y-108700000D01*
D93*
X67260000Y-74651200D02*
X67349130Y-74651200D01*
D95*
X67230000Y-70680000D02*
X67930000Y-70680000D01*
D89*
X100849668Y-140635000D02*
X102550000Y-140635000D01*
D88*
X69298000Y-122165000D02*
X69298000Y-120905000D01*
D89*
X125942500Y-144357500D02*
X127110000Y-143190000D01*
D90*
X114636000Y-96370000D02*
X114636000Y-98180000D01*
D89*
X91195000Y-121645000D02*
X90047500Y-122792500D01*
D90*
X60207201Y-72834112D02*
X60207201Y-73565000D01*
D95*
X86950000Y-69325000D02*
X84660000Y-71615000D01*
D90*
X110712400Y-95420000D02*
X113686000Y-95420000D01*
D89*
X131260000Y-132750000D02*
X131240000Y-132730000D01*
X109037200Y-62122800D02*
X112887200Y-62122800D01*
X62607201Y-65030600D02*
X62607201Y-65832195D01*
D96*
X133833750Y-77680000D02*
X133833750Y-78805000D01*
D89*
X108535001Y-72039999D02*
X108285000Y-72290000D01*
D95*
X100700500Y-145255000D02*
X102330000Y-145255000D01*
D88*
X44322500Y-122167500D02*
X44310000Y-122180000D01*
D92*
X87130000Y-100940000D02*
X86120000Y-101950000D01*
D90*
X89244240Y-144180000D02*
X88164240Y-145260000D01*
D89*
X58223797Y-74750000D02*
X53920000Y-74750000D01*
D90*
X59391246Y-55714874D02*
X57605126Y-55714874D01*
X132120000Y-132750000D02*
X131910000Y-132960000D01*
X89732500Y-143147500D02*
X90165000Y-143580000D01*
X53690000Y-141840000D02*
X53120000Y-142410000D01*
D95*
X76370000Y-78870000D02*
X76370000Y-81410000D01*
D89*
X55100000Y-70497800D02*
X54671100Y-70068900D01*
D88*
X66258000Y-119745000D02*
X66188000Y-119675000D01*
D89*
X129060000Y-150210000D02*
X129060000Y-150910000D01*
D88*
X69298000Y-120905000D02*
X68508000Y-120905000D01*
D89*
X64213586Y-85587500D02*
X67130000Y-88503914D01*
D90*
X45680000Y-106940000D02*
X47070000Y-106940000D01*
D96*
X135633750Y-97830000D02*
X137446250Y-97830000D01*
D89*
X128260000Y-150210000D02*
X128260000Y-149410000D01*
D90*
X56340000Y-67297799D02*
X55449523Y-67297799D01*
D89*
X132085000Y-150195000D02*
X132090000Y-150200000D01*
D95*
X85385000Y-61152500D02*
X87102500Y-61152500D01*
D96*
X135633750Y-56855000D02*
X133833750Y-58655000D01*
D89*
X58607199Y-73565000D02*
X58607199Y-74366598D01*
D88*
X74478000Y-121042500D02*
X74478000Y-123015000D01*
D92*
X89100000Y-104130000D02*
X89100000Y-105661600D01*
D90*
X115936000Y-96670000D02*
X115936000Y-98180000D01*
D94*
X95720000Y-105380000D02*
X96050000Y-105380000D01*
D95*
X43020000Y-72140000D02*
X42040000Y-71160000D01*
D91*
X51600000Y-104280000D02*
X51180000Y-104280000D01*
D92*
X66470100Y-136773500D02*
X63237600Y-136773500D01*
D88*
X46959500Y-116840000D02*
X46934500Y-116865000D01*
D90*
X105536915Y-73972800D02*
X105156600Y-74353115D01*
D95*
X88785000Y-56345000D02*
X88330000Y-56800000D01*
D89*
X115603798Y-77172801D02*
X115963400Y-77532403D01*
D88*
X60570000Y-116680000D02*
X60570000Y-114500000D01*
D90*
X65118000Y-107855000D02*
X65918000Y-107855000D01*
D88*
X43292000Y-116865000D02*
X43122000Y-116695000D01*
D94*
X90200000Y-105380000D02*
X90520000Y-105380000D01*
D95*
X99650000Y-65775000D02*
X99650000Y-69625000D01*
D89*
X70880000Y-92710000D02*
X69130000Y-94460000D01*
D90*
X108852400Y-96100000D02*
X113416000Y-96100000D01*
X128390000Y-142640000D02*
X129100000Y-141930000D01*
X106998688Y-74772801D02*
X106267800Y-74772801D01*
D95*
X60660000Y-132030000D02*
X66361600Y-132030000D01*
D96*
X130503750Y-97910000D02*
X128783750Y-97910000D01*
D90*
X61750000Y-105940000D02*
X63203000Y-105940000D01*
X91200000Y-95420000D02*
X92150000Y-96370000D01*
X47200000Y-108820000D02*
X46420000Y-108820000D01*
D89*
X129500000Y-132730000D02*
X129480000Y-132710000D01*
X109335000Y-71990000D02*
X109685000Y-72340000D01*
X130997500Y-136962500D02*
X129830000Y-138130000D01*
D96*
X135633750Y-69280000D02*
X137446250Y-69280000D01*
D89*
X113334999Y-79440000D02*
X113334999Y-80990001D01*
D95*
X89490000Y-70495000D02*
X84660000Y-75325000D01*
D90*
X67626000Y-104640000D02*
X67626000Y-105290000D01*
X124820000Y-148570000D02*
X125030000Y-148360000D01*
D92*
X82230000Y-105240000D02*
X82230000Y-104480000D01*
D96*
X133833750Y-85290000D02*
X133833750Y-84330000D01*
D91*
X138483750Y-65280000D02*
X138508750Y-65255000D01*
D89*
X104250000Y-146825000D02*
X102580000Y-148495000D01*
D88*
X49050000Y-118120000D02*
X49050000Y-120920000D01*
D90*
X118805000Y-93352600D02*
X118536000Y-93621600D01*
D96*
X133833750Y-56490000D02*
X130683750Y-59640000D01*
D89*
X110316494Y-82040000D02*
X111735000Y-80621494D01*
D90*
X51610000Y-145010000D02*
X46500000Y-145010000D01*
X53690000Y-137276400D02*
X53690000Y-141840000D01*
D89*
X54671100Y-70068900D02*
X54460000Y-69857800D01*
D92*
X119496000Y-107911600D02*
X119496000Y-105380000D01*
D88*
X54474000Y-118110000D02*
X56337500Y-118110000D01*
D91*
X135633750Y-74805000D02*
X138508750Y-74805000D01*
D90*
X64874400Y-67297801D02*
X65675996Y-67297801D01*
D88*
X41072000Y-116695000D02*
X41072000Y-114515000D01*
D90*
X129060000Y-147010000D02*
X129060000Y-144460000D01*
D96*
X133833750Y-87255000D02*
X133833750Y-88330000D01*
D90*
X46500000Y-145010000D02*
X46270000Y-145240000D01*
X93530000Y-99970000D02*
X93530000Y-100890000D01*
D95*
X46777500Y-62857500D02*
X47510000Y-63590000D01*
D90*
X97790000Y-137437232D02*
X97790000Y-140215000D01*
D89*
X97095000Y-81040000D02*
X98395000Y-82340000D01*
D88*
X55097500Y-114300000D02*
X56470000Y-112927500D01*
D89*
X104637200Y-87522800D02*
X103247200Y-86132800D01*
D95*
X80885050Y-56800000D02*
X80385000Y-57300050D01*
D90*
X54816400Y-146310000D02*
X51610000Y-146310000D01*
D88*
X75835500Y-118095000D02*
X75978000Y-118237500D01*
D90*
X96319000Y-93352600D02*
X96050000Y-93621600D01*
D89*
X53200000Y-67920000D02*
X43880000Y-67920000D01*
D96*
X135633750Y-74805000D02*
X135633750Y-75880000D01*
D90*
X131910000Y-132960000D02*
X131910000Y-137670000D01*
D88*
X45109500Y-116865000D02*
X43292000Y-116865000D01*
D89*
X115963400Y-81781600D02*
X113785000Y-83960000D01*
D90*
X69048750Y-63458750D02*
X70320000Y-64730000D01*
D96*
X137471250Y-109705000D02*
X133833750Y-109705000D01*
D90*
X107379000Y-75153113D02*
X106998688Y-74772801D01*
X48128000Y-105955000D02*
X48128000Y-109072000D01*
D96*
X135633750Y-85455000D02*
X133833750Y-87255000D01*
D93*
X69640000Y-72130000D02*
X69640000Y-73080000D01*
D91*
X48750000Y-111530000D02*
X49930000Y-111530000D01*
D92*
X121330000Y-103110000D02*
X121330000Y-97490000D01*
D95*
X72241246Y-62368754D02*
X74780000Y-59830000D01*
D89*
X110147200Y-62122800D02*
X110135001Y-62134999D01*
D90*
X132090000Y-148375000D02*
X132090000Y-143290000D01*
D89*
X45045000Y-70090000D02*
X44895000Y-70240000D01*
D88*
X62708000Y-122165000D02*
X62653000Y-122220000D01*
D91*
X51762000Y-113362000D02*
X51762000Y-116205000D01*
D88*
X49280000Y-123660000D02*
X48780000Y-123160000D01*
D96*
X133833750Y-65280000D02*
X133833750Y-66030000D01*
D90*
X68487600Y-142171686D02*
X70081914Y-143766000D01*
D89*
X103472500Y-126020000D02*
X101720000Y-126020000D01*
D90*
X42252000Y-105305000D02*
X44045000Y-105305000D01*
D92*
X90520000Y-106781600D02*
X90520000Y-105380000D01*
D89*
X129480000Y-130410000D02*
X129480000Y-131110000D01*
D90*
X107379000Y-75992485D02*
X107379000Y-75153113D01*
X128550000Y-138680000D02*
X127840000Y-139390000D01*
X63407199Y-65030600D02*
X64599400Y-65030600D01*
X58379006Y-60794874D02*
X59675126Y-60794874D01*
X80840000Y-136085000D02*
X82140000Y-134785000D01*
D92*
X111586000Y-104130000D02*
X111586000Y-105661600D01*
D88*
X47310000Y-123560000D02*
X42060000Y-123560000D01*
D95*
X81870000Y-65775000D02*
X81870000Y-64090000D01*
X67780000Y-66470000D02*
X66530000Y-67720000D01*
X80385000Y-57300050D02*
X80385000Y-59840000D01*
X55966250Y-85587500D02*
X50871250Y-80492500D01*
D90*
X86955000Y-145260000D02*
X86000000Y-144305000D01*
D92*
X87840000Y-104560000D02*
X86980000Y-105420000D01*
D89*
X122340000Y-147580000D02*
X122910000Y-147010000D01*
D90*
X106105000Y-93352600D02*
X108852400Y-96100000D01*
D89*
X67130000Y-94460000D02*
X67130000Y-92380000D01*
D88*
X61068000Y-123055000D02*
X61068000Y-121022500D01*
D90*
X53030000Y-135396400D02*
X53030000Y-141420000D01*
D92*
X112196000Y-103520000D02*
X114326000Y-103520000D01*
D90*
X84850000Y-140315000D02*
X81690000Y-140315000D01*
X70177600Y-141141000D02*
X71097600Y-141141000D01*
X86000000Y-144305000D02*
X86000000Y-142865000D01*
D92*
X104716000Y-107451600D02*
X104716000Y-106780000D01*
D95*
X92015000Y-73360000D02*
X92015000Y-81040000D01*
D88*
X49050000Y-120920000D02*
X49010000Y-120920000D01*
D89*
X57807201Y-73565000D02*
X57807201Y-72954656D01*
D90*
X69070000Y-60865352D02*
X70320000Y-62115352D01*
D89*
X107429000Y-75590000D02*
X107429000Y-75640000D01*
D90*
X115286000Y-99240000D02*
X116016000Y-99970000D01*
D92*
X41878400Y-147920000D02*
X44410000Y-147920000D01*
D89*
X109335000Y-70905600D02*
X109335000Y-71990000D01*
X107735001Y-78258504D02*
X107735001Y-79440000D01*
D91*
X42257500Y-109770000D02*
X42170000Y-109682500D01*
D89*
X124117500Y-147010000D02*
X124117500Y-145307500D01*
D95*
X106727500Y-54890000D02*
X102885000Y-54890000D01*
X48948586Y-95732500D02*
X64198586Y-95732500D01*
D90*
X74597600Y-142426000D02*
X72607600Y-144416000D01*
D92*
X94330000Y-103520000D02*
X95120000Y-103520000D01*
D91*
X70648000Y-106525000D02*
X70648000Y-104295000D01*
D89*
X55538402Y-69697799D02*
X55160000Y-69319397D01*
X82460000Y-118995000D02*
X82432500Y-118967500D01*
D95*
X46128750Y-77590000D02*
X48586086Y-77590000D01*
D90*
X106972400Y-96760000D02*
X112996000Y-96760000D01*
D95*
X75890000Y-70190000D02*
X74643809Y-70190000D01*
D92*
X41172400Y-142134000D02*
X43048400Y-144010000D01*
D89*
X61007199Y-72386599D02*
X61024400Y-72403800D01*
D90*
X94750000Y-96863600D02*
X94750000Y-98180000D01*
D89*
X86332500Y-122790000D02*
X82447500Y-122790000D01*
D90*
X73857600Y-142166000D02*
X72907600Y-143116000D01*
D89*
X70180000Y-90080000D02*
X70180000Y-84970000D01*
D92*
X86120000Y-101950000D02*
X86120000Y-104120000D01*
D95*
X40678750Y-76587500D02*
X40678750Y-89680000D01*
D91*
X70088000Y-107085000D02*
X70648000Y-106525000D01*
D98*
X100955000Y-54630000D02*
X100965000Y-54640000D01*
D89*
X129480000Y-134310000D02*
X130997500Y-134310000D01*
D90*
X104235000Y-81872800D02*
X103585000Y-82522800D01*
D95*
X42386250Y-74880000D02*
X40678750Y-76587500D01*
X120167200Y-55672800D02*
X112167200Y-55672800D01*
D88*
X52250000Y-122180000D02*
X53350000Y-122180000D01*
D91*
X63940500Y-109755000D02*
X65700500Y-111515000D01*
D94*
X118206000Y-105380000D02*
X118536000Y-105380000D01*
D90*
X66480000Y-66493797D02*
X66480000Y-63490000D01*
D95*
X52178458Y-90652500D02*
X54716186Y-93190228D01*
D90*
X103035000Y-79015000D02*
X104877201Y-77172799D01*
D88*
X73165000Y-118095000D02*
X71260000Y-116190000D01*
D94*
X51610000Y-147920000D02*
X51610000Y-148260000D01*
D89*
X112217200Y-68072800D02*
X114547200Y-68072800D01*
X85350000Y-149790000D02*
X84345000Y-148785000D01*
D95*
X66530000Y-69980000D02*
X67230000Y-70680000D01*
D93*
X68084670Y-71755000D02*
X69265000Y-71755000D01*
D91*
X135633750Y-122430000D02*
X138508750Y-122430000D01*
D96*
X133833750Y-62080000D02*
X133833750Y-65280000D01*
D92*
X111846000Y-102090000D02*
X110326000Y-103610000D01*
D93*
X69265000Y-71755000D02*
X69640000Y-72130000D01*
D90*
X50594314Y-143710000D02*
X51610000Y-143710000D01*
D95*
X81870000Y-81025000D02*
X81855000Y-81040000D01*
D90*
X72414000Y-145716000D02*
X71097600Y-145716000D01*
D92*
X121330000Y-93367600D02*
X121345000Y-93352600D01*
D90*
X104235000Y-80922800D02*
X104235000Y-81872800D01*
D91*
X69428000Y-111515000D02*
X71260000Y-113347000D01*
D89*
X95777500Y-118827500D02*
X95895000Y-118945000D01*
D97*
X62695126Y-62457195D02*
X61257921Y-63894400D01*
D91*
X51150000Y-104310000D02*
X51180000Y-104280000D01*
D92*
X71787600Y-149810000D02*
X75910000Y-149810000D01*
D89*
X71580000Y-89100000D02*
X71580000Y-94090000D01*
D92*
X65757600Y-145296000D02*
X65757600Y-146086000D01*
D89*
X101720000Y-126020000D02*
X100142500Y-126020000D01*
D96*
X130683750Y-59640000D02*
X130683750Y-81790000D01*
D91*
X65700500Y-111515000D02*
X68248000Y-111515000D01*
D90*
X67303880Y-58360000D02*
X68327435Y-58360000D01*
D97*
X62695126Y-56974874D02*
X62695126Y-62457195D01*
D96*
X135633750Y-123530000D02*
X133833750Y-125330000D01*
D95*
X48956086Y-77960000D02*
X48948586Y-77952500D01*
X46874000Y-131974000D02*
X50700000Y-135800000D01*
D89*
X114802200Y-74772801D02*
X116267200Y-74772800D01*
D92*
X117606000Y-103520000D02*
X118206000Y-103520000D01*
D89*
X69130000Y-87860000D02*
X67760000Y-86490000D01*
X80840000Y-143705000D02*
X82890000Y-141655000D01*
D92*
X106366000Y-99190000D02*
X109916000Y-99190000D01*
D90*
X75925000Y-147285000D02*
X75656000Y-147016000D01*
D89*
X101185000Y-81840000D02*
X101185000Y-77390000D01*
X67130000Y-92380000D02*
X67130000Y-90300000D01*
D90*
X53120000Y-144360000D02*
X51610000Y-144360000D01*
X60865999Y-74676200D02*
X60630000Y-74676200D01*
D94*
X44410000Y-147920000D02*
X44410000Y-148260000D01*
D89*
X124560000Y-150210000D02*
X123870000Y-150210000D01*
D90*
X116586000Y-99330000D02*
X116816000Y-99560000D01*
D91*
X138508750Y-65255000D02*
X138508750Y-74805000D01*
D89*
X101720000Y-123620000D02*
X101720000Y-123270000D01*
D90*
X125030000Y-143650000D02*
X124570000Y-143190000D01*
X86366400Y-96100000D02*
X90930000Y-96100000D01*
D98*
X44800000Y-64682500D02*
X43182500Y-64682500D01*
D90*
X64874400Y-66497801D02*
X65627468Y-66497801D01*
X110229314Y-82710000D02*
X109995000Y-82944314D01*
D89*
X133330000Y-132750000D02*
X132120000Y-132750000D01*
D88*
X54350000Y-123660000D02*
X49280000Y-123660000D01*
D90*
X96050000Y-93621600D02*
X96050000Y-98180000D01*
X42252000Y-104005000D02*
X48128000Y-104005000D01*
X97070000Y-137565760D02*
X95489240Y-135985000D01*
X85460000Y-140315000D02*
X84850000Y-140315000D01*
X60587513Y-72453800D02*
X60207201Y-72834112D01*
D97*
X59407200Y-64264359D02*
X59407200Y-65030600D01*
D90*
X47661740Y-134642500D02*
X49000000Y-135980760D01*
X68327435Y-58360000D02*
X69070000Y-59102565D01*
D95*
X108575000Y-53772800D02*
X108575000Y-54867500D01*
%TD*%
M02*
