%TF.GenerationSoftware,KiCad,Pcbnew,(6.0.5)*%
%TF.CreationDate,2023-06-16T09:38:04+03:00*%
%TF.ProjectId,JLC1,4a4c4331-2e6b-4696-9361-645f70636258,rev?*%
%TF.SameCoordinates,Original*%
%TF.FileFunction,Copper,L1,Top*%
%TF.FilePolarity,Positive*%
%FSLAX46Y46*%
G04 Gerber Fmt 4.6, Leading zero omitted, Abs format (unit mm)*
G04 Created by KiCad (PCBNEW (6.0.5)) date 2023-06-16 09:38:04*
%MOMM*%
%LPD*%
G01*
G04 APERTURE LIST*
G04 Aperture macros list*
%AMRoundRect*
0 Rectangle with rounded corners*
0 $1 Rounding radius*
0 $2 $3 $4 $5 $6 $7 $8 $9 X,Y pos of 4 corners*
0 Add a 4 corners polygon primitive as box body*
4,1,4,$2,$3,$4,$5,$6,$7,$8,$9,$2,$3,0*
0 Add four circle primitives for the rounded corners*
1,1,$1+$1,$2,$3*
1,1,$1+$1,$4,$5*
1,1,$1+$1,$6,$7*
1,1,$1+$1,$8,$9*
0 Add four rect primitives between the rounded corners*
20,1,$1+$1,$2,$3,$4,$5,0*
20,1,$1+$1,$4,$5,$6,$7,0*
20,1,$1+$1,$6,$7,$8,$9,0*
20,1,$1+$1,$8,$9,$2,$3,0*%
G04 Aperture macros list end*
%TA.AperFunction,ComponentPad*%
%ADD10R,1.600000X1.600000*%
%TD*%
%TA.AperFunction,ComponentPad*%
%ADD11C,1.600000*%
%TD*%
%TA.AperFunction,ComponentPad*%
%ADD12C,4.000000*%
%TD*%
%TA.AperFunction,SMDPad,CuDef*%
%ADD13RoundRect,0.250000X-0.312500X-0.625000X0.312500X-0.625000X0.312500X0.625000X-0.312500X0.625000X0*%
%TD*%
%TA.AperFunction,SMDPad,CuDef*%
%ADD14RoundRect,0.250000X0.625000X-0.312500X0.625000X0.312500X-0.625000X0.312500X-0.625000X-0.312500X0*%
%TD*%
%TA.AperFunction,SMDPad,CuDef*%
%ADD15RoundRect,0.175000X0.175000X0.575000X-0.175000X0.575000X-0.175000X-0.575000X0.175000X-0.575000X0*%
%TD*%
%TA.AperFunction,ComponentPad*%
%ADD16R,1.700000X1.700000*%
%TD*%
%TA.AperFunction,ComponentPad*%
%ADD17O,1.700000X1.700000*%
%TD*%
%TA.AperFunction,SMDPad,CuDef*%
%ADD18RoundRect,0.250000X0.312500X0.625000X-0.312500X0.625000X-0.312500X-0.625000X0.312500X-0.625000X0*%
%TD*%
%TA.AperFunction,SMDPad,CuDef*%
%ADD19R,1.550000X1.300000*%
%TD*%
%TA.AperFunction,SMDPad,CuDef*%
%ADD20R,2.500000X2.200000*%
%TD*%
%TA.AperFunction,SMDPad,CuDef*%
%ADD21R,1.550000X2.200000*%
%TD*%
%TA.AperFunction,SMDPad,CuDef*%
%ADD22R,1.473200X0.508000*%
%TD*%
%TA.AperFunction,SMDPad,CuDef*%
%ADD23R,0.508000X1.473200*%
%TD*%
%TA.AperFunction,SMDPad,CuDef*%
%ADD24RoundRect,0.250000X-0.650000X0.325000X-0.650000X-0.325000X0.650000X-0.325000X0.650000X0.325000X0*%
%TD*%
%TA.AperFunction,SMDPad,CuDef*%
%ADD25R,1.900000X0.400000*%
%TD*%
%TA.AperFunction,SMDPad,CuDef*%
%ADD26RoundRect,0.197500X-0.197500X-0.632500X0.197500X-0.632500X0.197500X0.632500X-0.197500X0.632500X0*%
%TD*%
%TA.AperFunction,SMDPad,CuDef*%
%ADD27R,2.200000X2.200000*%
%TD*%
%TA.AperFunction,SMDPad,CuDef*%
%ADD28R,1.250000X2.200000*%
%TD*%
%TA.AperFunction,ComponentPad*%
%ADD29R,1.500000X1.600000*%
%TD*%
%TA.AperFunction,ComponentPad*%
%ADD30C,3.000000*%
%TD*%
%TA.AperFunction,SMDPad,CuDef*%
%ADD31RoundRect,0.250000X0.475000X-0.250000X0.475000X0.250000X-0.475000X0.250000X-0.475000X-0.250000X0*%
%TD*%
%TA.AperFunction,SMDPad,CuDef*%
%ADD32R,1.525000X0.440000*%
%TD*%
%TA.AperFunction,SMDPad,CuDef*%
%ADD33R,0.550000X1.600000*%
%TD*%
%TA.AperFunction,SMDPad,CuDef*%
%ADD34R,1.600000X0.550000*%
%TD*%
%TA.AperFunction,SMDPad,CuDef*%
%ADD35R,0.599440X1.998980*%
%TD*%
%TA.AperFunction,SMDPad,CuDef*%
%ADD36R,1.000000X1.500000*%
%TD*%
%TA.AperFunction,SMDPad,CuDef*%
%ADD37RoundRect,0.250000X-0.625000X0.312500X-0.625000X-0.312500X0.625000X-0.312500X0.625000X0.312500X0*%
%TD*%
%TA.AperFunction,SMDPad,CuDef*%
%ADD38R,1.300000X1.550000*%
%TD*%
%TA.AperFunction,SMDPad,CuDef*%
%ADD39RoundRect,0.250000X-0.250000X-0.475000X0.250000X-0.475000X0.250000X0.475000X-0.250000X0.475000X0*%
%TD*%
%TA.AperFunction,SMDPad,CuDef*%
%ADD40RoundRect,0.250000X-0.412500X-0.650000X0.412500X-0.650000X0.412500X0.650000X-0.412500X0.650000X0*%
%TD*%
%TA.AperFunction,SMDPad,CuDef*%
%ADD41R,0.500000X0.300000*%
%TD*%
%TA.AperFunction,SMDPad,CuDef*%
%ADD42R,1.050000X1.750000*%
%TD*%
%TA.AperFunction,SMDPad,CuDef*%
%ADD43R,2.200000X2.500000*%
%TD*%
%TA.AperFunction,SMDPad,CuDef*%
%ADD44R,2.200000X1.550000*%
%TD*%
%TA.AperFunction,SMDPad,CuDef*%
%ADD45RoundRect,0.250000X-0.475000X0.250000X-0.475000X-0.250000X0.475000X-0.250000X0.475000X0.250000X0*%
%TD*%
%TA.AperFunction,ComponentPad*%
%ADD46R,1.600000X1.500000*%
%TD*%
%TA.AperFunction,SMDPad,CuDef*%
%ADD47RoundRect,0.250000X0.650000X-0.325000X0.650000X0.325000X-0.650000X0.325000X-0.650000X-0.325000X0*%
%TD*%
%TA.AperFunction,SMDPad,CuDef*%
%ADD48R,2.500000X0.500000*%
%TD*%
%TA.AperFunction,SMDPad,CuDef*%
%ADD49R,2.500000X2.000000*%
%TD*%
%TA.AperFunction,SMDPad,CuDef*%
%ADD50RoundRect,0.062500X-0.062500X0.337500X-0.062500X-0.337500X0.062500X-0.337500X0.062500X0.337500X0*%
%TD*%
%TA.AperFunction,SMDPad,CuDef*%
%ADD51RoundRect,0.062500X-0.337500X0.062500X-0.337500X-0.062500X0.337500X-0.062500X0.337500X0.062500X0*%
%TD*%
%TA.AperFunction,SMDPad,CuDef*%
%ADD52R,3.600000X3.600000*%
%TD*%
%TA.AperFunction,SMDPad,CuDef*%
%ADD53R,0.400000X1.900000*%
%TD*%
%TA.AperFunction,SMDPad,CuDef*%
%ADD54R,1.000000X0.750000*%
%TD*%
%TA.AperFunction,SMDPad,CuDef*%
%ADD55R,2.500000X1.100000*%
%TD*%
%TA.AperFunction,ComponentPad*%
%ADD56O,3.500000X1.900000*%
%TD*%
%TA.AperFunction,SMDPad,CuDef*%
%ADD57RoundRect,0.049600X-0.260400X0.605400X-0.260400X-0.605400X0.260400X-0.605400X0.260400X0.605400X0*%
%TD*%
%TA.AperFunction,ViaPad*%
%ADD58C,0.600000*%
%TD*%
%TA.AperFunction,ViaPad*%
%ADD59C,0.800000*%
%TD*%
%TA.AperFunction,ViaPad*%
%ADD60C,0.500000*%
%TD*%
%TA.AperFunction,ViaPad*%
%ADD61C,0.400000*%
%TD*%
%TA.AperFunction,ViaPad*%
%ADD62C,1.000000*%
%TD*%
%TA.AperFunction,Conductor*%
%ADD63C,0.400000*%
%TD*%
%TA.AperFunction,Conductor*%
%ADD64C,0.500000*%
%TD*%
%TA.AperFunction,Conductor*%
%ADD65C,1.000000*%
%TD*%
%TA.AperFunction,Conductor*%
%ADD66C,0.200000*%
%TD*%
%TA.AperFunction,Conductor*%
%ADD67C,0.250000*%
%TD*%
%TA.AperFunction,Conductor*%
%ADD68C,0.350000*%
%TD*%
%TA.AperFunction,Conductor*%
%ADD69C,0.700000*%
%TD*%
%TA.AperFunction,Conductor*%
%ADD70C,0.600000*%
%TD*%
%TA.AperFunction,Conductor*%
%ADD71C,0.750000*%
%TD*%
%TA.AperFunction,Conductor*%
%ADD72C,0.450000*%
%TD*%
%TA.AperFunction,Conductor*%
%ADD73C,0.300000*%
%TD*%
G04 APERTURE END LIST*
D10*
%TO.P,USB,1*%
%TO.N,N/C*%
X143758450Y-49404050D03*
D11*
%TO.P,USB,2*%
X143758450Y-51904050D03*
%TO.P,USB,3*%
X145758450Y-51904050D03*
%TO.P,USB,4*%
X145758450Y-49404050D03*
D12*
%TO.P,USB,5*%
X148618450Y-44654050D03*
X148618450Y-56654050D03*
%TD*%
D13*
%TO.P,2K7,1*%
%TO.N,N/C*%
X75587500Y-72717500D03*
%TO.P,2K7,2*%
%TO.N,gnd*%
X78512500Y-72717500D03*
%TD*%
D14*
%TO.P,330R,1*%
%TO.N,gnd*%
X74750000Y-53380000D03*
%TO.P,330R,2*%
%TO.N,N/C*%
X74750000Y-50455000D03*
%TD*%
D15*
%TO.P,,1*%
%TO.N,N/C*%
X155025000Y-104275000D03*
%TD*%
D16*
%TO.P,REF\u002A\u002A,1*%
%TO.N,N/C*%
X103500000Y-116612500D03*
D17*
%TO.P,REF\u002A\u002A,2*%
X103500000Y-119152500D03*
%TO.P,REF\u002A\u002A,3*%
X103500000Y-121692500D03*
%TO.P,REF\u002A\u002A,4*%
X103500000Y-124232500D03*
%TO.P,REF\u002A\u002A,5*%
X103500000Y-126772500D03*
%TO.P,REF\u002A\u002A,6*%
X103500000Y-129312500D03*
%TO.P,REF\u002A\u002A,7*%
X103500000Y-131852500D03*
%TD*%
D15*
%TO.P,,1*%
%TO.N,N/C*%
X150275000Y-104262500D03*
%TD*%
D18*
%TO.P,330R,1*%
%TO.N,N/C*%
X115443450Y-42579050D03*
%TO.P,330R,2*%
X112518450Y-42579050D03*
%TD*%
D19*
%TO.P,RESET,1*%
%TO.N,N/C*%
X149518450Y-38854050D03*
X141568450Y-38854050D03*
%TO.P,RESET,2*%
X141568450Y-34354050D03*
X149518450Y-34354050D03*
%TD*%
D18*
%TO.P,47K,1*%
%TO.N,N/C*%
X97278750Y-40947500D03*
%TO.P,47K,2*%
%TO.N,5v*%
X94353750Y-40947500D03*
%TD*%
D20*
%TO.P,PORT2,1*%
%TO.N,N/C*%
X80400000Y-43942500D03*
D21*
%TO.P,PORT2,2*%
X77825000Y-43942500D03*
%TD*%
D18*
%TO.P,220R,1*%
%TO.N,N/C*%
X97278750Y-71847500D03*
%TO.P,220R,2*%
X94353750Y-71847500D03*
%TD*%
D15*
%TO.P,,1*%
%TO.N,N/C*%
X149375000Y-132937500D03*
%TD*%
D16*
%TO.P,REF\u002A\u002A,1*%
%TO.N,N/C*%
X79965872Y-129199400D03*
D17*
%TO.P,REF\u002A\u002A,2*%
X77425872Y-129199400D03*
%TO.P,REF\u002A\u002A,3*%
X74885872Y-129199400D03*
%TO.P,REF\u002A\u002A,4*%
X72345872Y-129199400D03*
%TO.P,REF\u002A\u002A,5*%
X69805872Y-129199400D03*
%TO.P,REF\u002A\u002A,6*%
X67265872Y-129199400D03*
%TO.P,REF\u002A\u002A,7*%
X64725872Y-129199400D03*
%TO.P,REF\u002A\u002A,8*%
X62185872Y-129199400D03*
%TD*%
D22*
%TO.P,ATmega32U4,1*%
%TO.N,N/C*%
X131655250Y-53383950D03*
%TO.P,ATmega32U4,2*%
X131655250Y-52596550D03*
%TO.P,ATmega32U4,3*%
X131655250Y-51783750D03*
%TO.P,ATmega32U4,4*%
X131655250Y-50996350D03*
%TO.P,ATmega32U4,5*%
X131655250Y-50183550D03*
%TO.P,ATmega32U4,6*%
X131655250Y-49396150D03*
%TO.P,ATmega32U4,7*%
X131655250Y-48608750D03*
%TO.P,ATmega32U4,8*%
X131655250Y-47795950D03*
%TO.P,ATmega32U4,9*%
X131655250Y-47008550D03*
%TO.P,ATmega32U4,10*%
X131655250Y-46195750D03*
%TO.P,ATmega32U4,11*%
X131655250Y-45408350D03*
D23*
%TO.P,ATmega32U4,12*%
X129902650Y-43655750D03*
%TO.P,ATmega32U4,13*%
X129115250Y-43655750D03*
%TO.P,ATmega32U4,14*%
X128302450Y-43655750D03*
%TO.P,ATmega32U4,15*%
X127515050Y-43655750D03*
%TO.P,ATmega32U4,16*%
X126702250Y-43655750D03*
%TO.P,ATmega32U4,17*%
X125914850Y-43655750D03*
%TO.P,ATmega32U4,18*%
X125127450Y-43655750D03*
%TO.P,ATmega32U4,19*%
X124314650Y-43655750D03*
%TO.P,ATmega32U4,20*%
X123527250Y-43655750D03*
%TO.P,ATmega32U4,21*%
X122714450Y-43655750D03*
%TO.P,ATmega32U4,22*%
X121927050Y-43655750D03*
D22*
%TO.P,ATmega32U4,23*%
X120174450Y-45408350D03*
%TO.P,ATmega32U4,24*%
X120174450Y-46195750D03*
%TO.P,ATmega32U4,25*%
X120174450Y-47008550D03*
%TO.P,ATmega32U4,26*%
X120174450Y-47795950D03*
%TO.P,ATmega32U4,27*%
X120174450Y-48608750D03*
%TO.P,ATmega32U4,28*%
X120174450Y-49396150D03*
%TO.P,ATmega32U4,29*%
X120174450Y-50183550D03*
%TO.P,ATmega32U4,30*%
X120174450Y-50996350D03*
%TO.P,ATmega32U4,31*%
X120174450Y-51783750D03*
%TO.P,ATmega32U4,32*%
X120174450Y-52596550D03*
%TO.P,ATmega32U4,33*%
X120174450Y-53383950D03*
D23*
%TO.P,ATmega32U4,34*%
X121927050Y-55136550D03*
%TO.P,ATmega32U4,35*%
X122714450Y-55136550D03*
%TO.P,ATmega32U4,36*%
X123527250Y-55136550D03*
%TO.P,ATmega32U4,37*%
X124314650Y-55136550D03*
%TO.P,ATmega32U4,38*%
X125127450Y-55136550D03*
%TO.P,ATmega32U4,39*%
X125914850Y-55136550D03*
%TO.P,ATmega32U4,40*%
X126702250Y-55136550D03*
%TO.P,ATmega32U4,41*%
X127515050Y-55136550D03*
%TO.P,ATmega32U4,42*%
X128302450Y-55136550D03*
%TO.P,ATmega32U4,43*%
X129115250Y-55136550D03*
%TO.P,ATmega32U4,44*%
X129902650Y-55136550D03*
%TD*%
D15*
%TO.P,,1*%
%TO.N,N/C*%
X153225000Y-104275000D03*
%TD*%
D18*
%TO.P,22R,1*%
%TO.N,N/C*%
X140300000Y-74937500D03*
%TO.P,22R,2*%
X137375000Y-74937500D03*
%TD*%
D15*
%TO.P,,1*%
%TO.N,N/C*%
X147575000Y-132937500D03*
%TD*%
D24*
%TO.P,100nF,1*%
%TO.N,N/C*%
X140790000Y-88947500D03*
%TO.P,100nF,2*%
X140790000Y-91897500D03*
%TD*%
D25*
%TO.P,16MHz,1*%
%TO.N,N/C*%
X137040000Y-92347500D03*
%TO.P,16MHz,2*%
X137040000Y-91147500D03*
%TO.P,16MHz,3*%
X137040000Y-89947500D03*
%TD*%
D26*
%TO.P,REF\u002A\u002A,1*%
%TO.N,gnd*%
X99091250Y-66322500D03*
%TO.P,REF\u002A\u002A,2*%
%TO.N,N/C*%
X99091250Y-62322500D03*
%TO.P,REF\u002A\u002A,3*%
X100891250Y-66322500D03*
%TO.P,REF\u002A\u002A,4*%
%TO.N,gnd*%
X100891250Y-62322500D03*
%TD*%
D11*
%TO.P,22pF,1*%
%TO.N,gnd*%
X69150000Y-36492500D03*
%TO.P,22pF,2*%
%TO.N,N/C*%
X71650000Y-36492500D03*
%TD*%
D20*
%TO.P,REF\u002A\u002A,1*%
%TO.N,N/C*%
X126940000Y-102272500D03*
D21*
%TO.P,REF\u002A\u002A,2*%
X124365000Y-102272500D03*
%TD*%
D20*
%TO.P,PORT4,1*%
%TO.N,N/C*%
X77650000Y-36942500D03*
D21*
%TO.P,PORT4,2*%
X80225000Y-36942500D03*
%TD*%
D27*
%TO.P,REF\u002A\u002A,1*%
%TO.N,N/C*%
X149250000Y-123812500D03*
D28*
%TO.P,REF\u002A\u002A,2*%
X146975000Y-123812500D03*
%TD*%
D29*
%TO.P,USB1,1*%
%TO.N,N/C*%
X68485000Y-94887500D03*
D11*
%TO.P,USB1,2*%
X68485000Y-97387500D03*
%TO.P,USB1,3*%
X68485000Y-99387500D03*
%TO.P,USB1,4*%
%TO.N,gnd*%
X68485000Y-101887500D03*
D30*
%TO.P,USB1,5*%
X65775000Y-91817500D03*
X65775000Y-104957500D03*
%TD*%
D31*
%TO.P,0.1uF,1*%
%TO.N,N/C*%
X132714850Y-56721150D03*
%TO.P,0.1uF,2*%
X132714850Y-54821150D03*
%TD*%
D14*
%TO.P,330R,1*%
%TO.N,N/C*%
X78575000Y-53380000D03*
%TO.P,330R,2*%
X78575000Y-50455000D03*
%TD*%
D18*
%TO.P,REF\u002A\u002A,1*%
%TO.N,N/C*%
X142587500Y-118037500D03*
%TO.P,REF\u002A\u002A,2*%
X139662500Y-118037500D03*
%TD*%
D16*
%TO.P,REF\u002A\u002A,1*%
%TO.N,N/C*%
X114075000Y-71612500D03*
D17*
%TO.P,REF\u002A\u002A,2*%
X114075000Y-74152500D03*
%TO.P,REF\u002A\u002A,3*%
X114075000Y-76692500D03*
%TO.P,REF\u002A\u002A,4*%
X114075000Y-79232500D03*
%TO.P,REF\u002A\u002A,5*%
X114075000Y-81772500D03*
%TO.P,REF\u002A\u002A,6*%
X114075000Y-84312500D03*
%TD*%
D27*
%TO.P,REF\u002A\u002A,1*%
%TO.N,N/C*%
X154975000Y-107450000D03*
D28*
%TO.P,REF\u002A\u002A,2*%
X152700000Y-107450000D03*
%TD*%
D18*
%TO.P,47K,1*%
%TO.N,N/C*%
X97291250Y-69522500D03*
%TO.P,47K,2*%
%TO.N,5v*%
X94366250Y-69522500D03*
%TD*%
%TO.P,REF\u002A\u002A,1*%
%TO.N,N/C*%
X142587500Y-120487500D03*
%TO.P,REF\u002A\u002A,2*%
X139662500Y-120487500D03*
%TD*%
D16*
%TO.P,REF\u002A\u002A,1*%
%TO.N,N/C*%
X133008450Y-34704050D03*
D17*
%TO.P,REF\u002A\u002A,2*%
X130468450Y-34704050D03*
%TO.P,REF\u002A\u002A,3*%
X127928450Y-34704050D03*
%TO.P,REF\u002A\u002A,4*%
X125388450Y-34704050D03*
%TO.P,REF\u002A\u002A,5*%
X122848450Y-34704050D03*
%TO.P,REF\u002A\u002A,6*%
X120308450Y-34704050D03*
%TO.P,REF\u002A\u002A,7*%
X117768450Y-34704050D03*
%TO.P,REF\u002A\u002A,8*%
X115228450Y-34704050D03*
%TD*%
D13*
%TO.P,22R,1*%
%TO.N,N/C*%
X137645950Y-49504050D03*
%TO.P,22R,2*%
X140570950Y-49504050D03*
%TD*%
D16*
%TO.P,REF\u002A\u002A,1*%
%TO.N,N/C*%
X125130000Y-130797500D03*
D17*
%TO.P,REF\u002A\u002A,2*%
X122590000Y-130797500D03*
%TO.P,REF\u002A\u002A,3*%
X120050000Y-130797500D03*
%TO.P,REF\u002A\u002A,4*%
X117510000Y-130797500D03*
%TD*%
D16*
%TO.P,REF\u002A\u002A,1*%
%TO.N,N/C*%
X121045000Y-80127500D03*
D17*
%TO.P,REF\u002A\u002A,2*%
X121045000Y-77587500D03*
%TO.P,REF\u002A\u002A,3*%
X123585000Y-80127500D03*
%TO.P,REF\u002A\u002A,4*%
X123585000Y-77587500D03*
%TO.P,REF\u002A\u002A,5*%
X126125000Y-80127500D03*
%TO.P,REF\u002A\u002A,6*%
X126125000Y-77587500D03*
%TD*%
D16*
%TO.P,REF\u002A\u002A,1*%
%TO.N,N/C*%
X131689850Y-59583550D03*
D17*
%TO.P,REF\u002A\u002A,2*%
X129149850Y-59583550D03*
%TO.P,REF\u002A\u002A,3*%
X126609850Y-59583550D03*
%TO.P,REF\u002A\u002A,4*%
X124069850Y-59583550D03*
%TO.P,REF\u002A\u002A,5*%
X121529850Y-59583550D03*
%TO.P,REF\u002A\u002A,6*%
X118989850Y-59583550D03*
%TD*%
D15*
%TO.P,,1*%
%TO.N,N/C*%
X147575000Y-104262500D03*
%TD*%
%TO.P,,1*%
%TO.N,N/C*%
X153225000Y-132950000D03*
%TD*%
D14*
%TO.P,,1*%
%TO.N,N/C*%
X82250000Y-53392500D03*
%TD*%
D18*
%TO.P,220R,1*%
%TO.N,N/C*%
X97278750Y-90897500D03*
%TO.P,220R,2*%
X94353750Y-90897500D03*
%TD*%
D32*
%TO.P,FE1.1s,1*%
%TO.N,gnd*%
X75771500Y-60452500D03*
%TO.P,FE1.1s,2*%
%TO.N,N/C*%
X75771500Y-61092500D03*
%TO.P,FE1.1s,3*%
X75771500Y-61732500D03*
%TO.P,FE1.1s,4*%
X75771500Y-62372500D03*
%TO.P,FE1.1s,5*%
X75771500Y-63012500D03*
%TO.P,FE1.1s,6*%
X75771500Y-63652500D03*
%TO.P,FE1.1s,7*%
X75771500Y-64292500D03*
%TO.P,FE1.1s,8*%
X75771500Y-64932500D03*
%TO.P,FE1.1s,9*%
X75771500Y-65572500D03*
%TO.P,FE1.1s,10*%
X75771500Y-66212500D03*
%TO.P,FE1.1s,11*%
X75771500Y-66852500D03*
%TO.P,FE1.1s,12*%
%TO.N,1.8V*%
X75771500Y-67492500D03*
%TO.P,FE1.1s,13*%
%TO.N,3.3V*%
X75771500Y-68132500D03*
%TO.P,FE1.1s,14*%
%TO.N,N/C*%
X75771500Y-68772500D03*
%TO.P,FE1.1s,15*%
X81195500Y-68772500D03*
%TO.P,FE1.1s,16*%
X81195500Y-68132500D03*
%TO.P,FE1.1s,17*%
X81195500Y-67492500D03*
%TO.P,FE1.1s,18*%
%TO.N,3.3V*%
X81195500Y-66852500D03*
%TO.P,FE1.1s,19*%
X81195500Y-66212500D03*
%TO.P,FE1.1s,20*%
%TO.N,N/C*%
X81195500Y-65572500D03*
%TO.P,FE1.1s,21*%
%TO.N,3.3V*%
X81195500Y-64932500D03*
%TO.P,FE1.1s,22*%
%TO.N,N/C*%
X81195500Y-64292500D03*
%TO.P,FE1.1s,23*%
X81195500Y-63652500D03*
%TO.P,FE1.1s,24*%
X81195500Y-63012500D03*
%TO.P,FE1.1s,25*%
X81195500Y-62372500D03*
%TO.P,FE1.1s,26*%
X81195500Y-61732500D03*
%TO.P,FE1.1s,27*%
X81195500Y-61092500D03*
%TO.P,FE1.1s,28*%
X81195500Y-60452500D03*
%TD*%
D15*
%TO.P,,1*%
%TO.N,N/C*%
X152325000Y-132950000D03*
%TD*%
D18*
%TO.P,47K,1*%
%TO.N,N/C*%
X97278750Y-60022500D03*
%TO.P,47K,2*%
%TO.N,5v*%
X94353750Y-60022500D03*
%TD*%
D14*
%TO.P,1K,1*%
%TO.N,N/C*%
X89125000Y-72255000D03*
%TO.P,1K,2*%
%TO.N,3.3V*%
X89125000Y-69330000D03*
%TD*%
D18*
%TO.P,220R,1*%
%TO.N,N/C*%
X97278750Y-100422500D03*
%TO.P,220R,2*%
X94353750Y-100422500D03*
%TD*%
%TO.P,330R,1*%
%TO.N,N/C*%
X125865000Y-95422500D03*
%TO.P,330R,2*%
X122940000Y-95422500D03*
%TD*%
D16*
%TO.P,REF\u002A\u002A,1*%
%TO.N,N/C*%
X135775000Y-84287500D03*
D17*
%TO.P,REF\u002A\u002A,2*%
X133235000Y-84287500D03*
%TO.P,REF\u002A\u002A,3*%
X130695000Y-84287500D03*
%TO.P,REF\u002A\u002A,4*%
X128155000Y-84287500D03*
%TO.P,REF\u002A\u002A,5*%
X125615000Y-84287500D03*
%TO.P,REF\u002A\u002A,6*%
X123075000Y-84287500D03*
%TO.P,REF\u002A\u002A,7*%
X120535000Y-84287500D03*
%TO.P,REF\u002A\u002A,8*%
X117995000Y-84287500D03*
%TD*%
D33*
%TO.P,ATmega16U2,1*%
%TO.N,N/C*%
X136790000Y-94372500D03*
%TO.P,ATmega16U2,2*%
X135990000Y-94372500D03*
%TO.P,ATmega16U2,3*%
X135190000Y-94372500D03*
%TO.P,ATmega16U2,4*%
X134390000Y-94372500D03*
%TO.P,ATmega16U2,5*%
X133590000Y-94372500D03*
%TO.P,ATmega16U2,6*%
X132790000Y-94372500D03*
%TO.P,ATmega16U2,7*%
X131990000Y-94372500D03*
%TO.P,ATmega16U2,8*%
X131190000Y-94372500D03*
D34*
%TO.P,ATmega16U2,9*%
X129740000Y-95822500D03*
%TO.P,ATmega16U2,10*%
X129740000Y-96622500D03*
%TO.P,ATmega16U2,11*%
X129740000Y-97422500D03*
%TO.P,ATmega16U2,12*%
X129740000Y-98222500D03*
%TO.P,ATmega16U2,13*%
X129740000Y-99022500D03*
%TO.P,ATmega16U2,14*%
X129740000Y-99822500D03*
%TO.P,ATmega16U2,15*%
X129740000Y-100622500D03*
%TO.P,ATmega16U2,16*%
X129740000Y-101422500D03*
D33*
%TO.P,ATmega16U2,17*%
X131190000Y-102872500D03*
%TO.P,ATmega16U2,18*%
X131990000Y-102872500D03*
%TO.P,ATmega16U2,19*%
X132790000Y-102872500D03*
%TO.P,ATmega16U2,20*%
X133590000Y-102872500D03*
%TO.P,ATmega16U2,21*%
X134390000Y-102872500D03*
%TO.P,ATmega16U2,22*%
X135190000Y-102872500D03*
%TO.P,ATmega16U2,23*%
X135990000Y-102872500D03*
%TO.P,ATmega16U2,24*%
X136790000Y-102872500D03*
D34*
%TO.P,ATmega16U2,25*%
X138240000Y-101422500D03*
%TO.P,ATmega16U2,26*%
X138240000Y-100622500D03*
%TO.P,ATmega16U2,27*%
X138240000Y-99822500D03*
%TO.P,ATmega16U2,28*%
X138240000Y-99022500D03*
%TO.P,ATmega16U2,29*%
X138240000Y-98222500D03*
%TO.P,ATmega16U2,30*%
X138240000Y-97422500D03*
%TO.P,ATmega16U2,31*%
X138240000Y-96622500D03*
%TO.P,ATmega16U2,32*%
X138240000Y-95822500D03*
%TD*%
D26*
%TO.P,REF\u002A\u002A,1*%
%TO.N,gnd*%
X99091250Y-104422500D03*
%TO.P,REF\u002A\u002A,2*%
%TO.N,N/C*%
X99091250Y-100422500D03*
%TO.P,REF\u002A\u002A,3*%
X100891250Y-104422500D03*
%TO.P,REF\u002A\u002A,4*%
%TO.N,gnd*%
X100891250Y-100422500D03*
%TD*%
D35*
%TO.P,REF\u002A\u002A,1*%
%TO.N,N/C*%
X86152500Y-121147200D03*
%TO.P,REF\u002A\u002A,2*%
X87422500Y-121147200D03*
%TO.P,REF\u002A\u002A,3*%
X88692500Y-121147200D03*
%TO.P,REF\u002A\u002A,4*%
X89962500Y-121147200D03*
%TO.P,REF\u002A\u002A,5*%
X91232500Y-121147200D03*
%TO.P,REF\u002A\u002A,6*%
X92502500Y-121147200D03*
%TO.P,REF\u002A\u002A,7*%
X93772500Y-121147200D03*
%TO.P,REF\u002A\u002A,8*%
X95042500Y-121147200D03*
%TO.P,REF\u002A\u002A,9*%
X95042500Y-116346600D03*
%TO.P,REF\u002A\u002A,10*%
X93772500Y-116346600D03*
%TO.P,REF\u002A\u002A,11*%
X92502500Y-116346600D03*
%TO.P,REF\u002A\u002A,12*%
X91232500Y-116346600D03*
%TO.P,REF\u002A\u002A,13*%
X89962500Y-116346600D03*
%TO.P,REF\u002A\u002A,14*%
X88692500Y-116346600D03*
%TO.P,REF\u002A\u002A,15*%
X87422500Y-116346600D03*
%TO.P,REF\u002A\u002A,16*%
X86152500Y-116346600D03*
%TD*%
D16*
%TO.P,REF\u002A\u002A,1*%
%TO.N,N/C*%
X134677450Y-44558550D03*
D17*
%TO.P,REF\u002A\u002A,2*%
X134677450Y-42018550D03*
%TO.P,REF\u002A\u002A,3*%
X137217450Y-44558550D03*
%TO.P,REF\u002A\u002A,4*%
X137217450Y-42018550D03*
%TO.P,REF\u002A\u002A,5*%
X139757450Y-44558550D03*
%TO.P,REF\u002A\u002A,6*%
X139757450Y-42018550D03*
%TD*%
D36*
%TO.P,FUSE,1*%
%TO.N,N/C*%
X83775000Y-60692500D03*
%TO.P,FUSE,2*%
X85075000Y-60692500D03*
%TD*%
D15*
%TO.P,,1*%
%TO.N,N/C*%
X154125000Y-132950000D03*
%TD*%
%TO.P,,1*%
%TO.N,N/C*%
X152325000Y-104275000D03*
%TD*%
D27*
%TO.P,REF\u002A\u002A,1*%
%TO.N,N/C*%
X154950000Y-112900000D03*
D28*
%TO.P,REF\u002A\u002A,2*%
X152675000Y-112900000D03*
%TD*%
D15*
%TO.P,,1*%
%TO.N,N/C*%
X154125000Y-104275000D03*
%TD*%
D26*
%TO.P,REF\u002A\u002A,1*%
%TO.N,gnd*%
X99091250Y-94897500D03*
%TO.P,REF\u002A\u002A,2*%
%TO.N,N/C*%
X99091250Y-90897500D03*
%TO.P,REF\u002A\u002A,3*%
X100891250Y-94897500D03*
%TO.P,REF\u002A\u002A,4*%
%TO.N,gnd*%
X100891250Y-90897500D03*
%TD*%
D18*
%TO.P,220R,1*%
%TO.N,N/C*%
X97278750Y-62347500D03*
%TO.P,220R,2*%
X94353750Y-62347500D03*
%TD*%
D37*
%TO.P,10uF,1*%
%TO.N,N/C*%
X140875000Y-67075000D03*
%TO.P,10uF,2*%
X140875000Y-70000000D03*
%TD*%
D38*
%TO.P,RESET,1*%
%TO.N,N/C*%
X89325000Y-77367500D03*
X89325000Y-85317500D03*
%TO.P,RESET,2*%
%TO.N,gnd*%
X84825000Y-85317500D03*
%TO.N,N/C*%
X84825000Y-77367500D03*
%TD*%
D37*
%TO.P,100nF,1*%
%TO.N,N/C*%
X117125000Y-69575000D03*
%TO.P,100nF,2*%
X117125000Y-72500000D03*
%TD*%
D27*
%TO.P,REF\u002A\u002A,1*%
%TO.N,N/C*%
X149325000Y-107437500D03*
D28*
%TO.P,REF\u002A\u002A,2*%
X147050000Y-107437500D03*
%TD*%
D37*
%TO.P,100nF,1*%
%TO.N,N/C*%
X138550000Y-67075000D03*
%TO.P,100nF,2*%
X138550000Y-70000000D03*
%TD*%
D18*
%TO.P,FUSE,1*%
%TO.N,N/C*%
X86212500Y-64542500D03*
%TO.P,FUSE,2*%
%TO.N,3.3V*%
X83287500Y-64542500D03*
%TD*%
D39*
%TO.P,1uF,1*%
%TO.N,N/C*%
X140640000Y-101622500D03*
%TO.P,1uF,2*%
X142540000Y-101622500D03*
%TD*%
D29*
%TO.P,USB2,1*%
%TO.N,N/C*%
X68510000Y-77637500D03*
D11*
%TO.P,USB2,2*%
X68510000Y-80137500D03*
%TO.P,USB2,3*%
X68510000Y-82137500D03*
%TO.P,USB2,4*%
%TO.N,gnd*%
X68510000Y-84637500D03*
D30*
%TO.P,USB2,5*%
X65800000Y-74567500D03*
X65800000Y-87707500D03*
%TD*%
D18*
%TO.P,REF\u002A\u002A,1*%
%TO.N,N/C*%
X155500000Y-126550000D03*
%TO.P,REF\u002A\u002A,2*%
X152575000Y-126550000D03*
%TD*%
D37*
%TO.P,330R,1*%
%TO.N,N/C*%
X114640000Y-98147500D03*
%TO.P,330R,2*%
X114640000Y-101072500D03*
%TD*%
D20*
%TO.P,PORT1,1*%
%TO.N,N/C*%
X80500000Y-47442500D03*
D21*
%TO.P,PORT1,2*%
X83075000Y-47442500D03*
%TD*%
D15*
%TO.P,,1*%
%TO.N,N/C*%
X146675000Y-132937500D03*
%TD*%
D18*
%TO.P,47K,1*%
%TO.N,N/C*%
X97278750Y-50472500D03*
%TO.P,47K,2*%
%TO.N,5v*%
X94353750Y-50472500D03*
%TD*%
D20*
%TO.P,REF\u002A\u002A,1*%
%TO.N,N/C*%
X122752500Y-117622500D03*
D21*
%TO.P,REF\u002A\u002A,2*%
X120177500Y-117622500D03*
%TD*%
D16*
%TO.P,REF\u002A\u002A,1*%
%TO.N,N/C*%
X100265872Y-129199400D03*
D17*
%TO.P,REF\u002A\u002A,2*%
X97725872Y-129199400D03*
%TO.P,REF\u002A\u002A,3*%
X95185872Y-129199400D03*
%TO.P,REF\u002A\u002A,4*%
X92645872Y-129199400D03*
%TO.P,REF\u002A\u002A,5*%
X90105872Y-129199400D03*
%TO.P,REF\u002A\u002A,6*%
X87565872Y-129199400D03*
%TO.P,REF\u002A\u002A,7*%
X85025872Y-129199400D03*
%TO.P,REF\u002A\u002A,8*%
X82485872Y-129199400D03*
%TD*%
D20*
%TO.P,REF\u002A\u002A,1*%
%TO.N,N/C*%
X118465000Y-95047500D03*
D21*
%TO.P,REF\u002A\u002A,2*%
X121040000Y-95047500D03*
%TD*%
D31*
%TO.P,1uF,1*%
%TO.N,N/C*%
X144525000Y-119737500D03*
%TO.P,1uF,2*%
X144525000Y-117837500D03*
%TD*%
D15*
%TO.P,,1*%
%TO.N,N/C*%
X149375000Y-104262500D03*
%TD*%
D18*
%TO.P,REF\u002A\u002A,1*%
%TO.N,N/C*%
X149925000Y-110162500D03*
%TO.P,REF\u002A\u002A,2*%
X147000000Y-110162500D03*
%TD*%
D16*
%TO.P,REF\u002A\u002A,1*%
%TO.N,N/C*%
X115283450Y-59629050D03*
D17*
%TO.P,REF\u002A\u002A,2*%
X115283450Y-57089050D03*
%TO.P,REF\u002A\u002A,3*%
X115283450Y-54549050D03*
%TO.P,REF\u002A\u002A,4*%
X115283450Y-52009050D03*
%TO.P,REF\u002A\u002A,5*%
X115283450Y-49469050D03*
%TO.P,REF\u002A\u002A,6*%
X115283450Y-46929050D03*
%TD*%
D40*
%TO.P,10uF,1*%
%TO.N,3.3V*%
X75337500Y-76792500D03*
%TO.P,10uF,2*%
%TO.N,gnd*%
X78462500Y-76792500D03*
%TD*%
D27*
%TO.P,REF\u002A\u002A,1*%
%TO.N,N/C*%
X154900000Y-123825000D03*
D28*
%TO.P,REF\u002A\u002A,2*%
X152625000Y-123825000D03*
%TD*%
D18*
%TO.P,220R,1*%
%TO.N,N/C*%
X97278750Y-43272500D03*
%TO.P,220R,2*%
X94353750Y-43272500D03*
%TD*%
%TO.P,REF\u002A\u002A,1*%
%TO.N,N/C*%
X155550000Y-115625000D03*
%TO.P,REF\u002A\u002A,2*%
X152625000Y-115625000D03*
%TD*%
D41*
%TO.P,LM358,1*%
%TO.N,N/C*%
X141375000Y-114675000D03*
%TO.P,LM358,2*%
X141375000Y-115175000D03*
%TO.P,LM358,3*%
X141375000Y-115675000D03*
%TO.P,LM358,4*%
X141375000Y-116175000D03*
%TO.P,LM358,5*%
X143175000Y-116175000D03*
%TO.P,LM358,6*%
X143175000Y-115675000D03*
%TO.P,LM358,7*%
X143175000Y-115175000D03*
%TO.P,LM358,8*%
X143175000Y-114675000D03*
D42*
%TO.P,LM358,9*%
X142275000Y-115425000D03*
%TD*%
D27*
%TO.P,REF\u002A\u002A,1*%
%TO.N,N/C*%
X149275000Y-118362500D03*
D28*
%TO.P,REF\u002A\u002A,2*%
X147000000Y-118362500D03*
%TD*%
D15*
%TO.P,,1*%
%TO.N,N/C*%
X146675000Y-104262500D03*
%TD*%
D43*
%TO.P,TX,1*%
%TO.N,N/C*%
X118958450Y-38904050D03*
D44*
%TO.P,TX,2*%
X118958450Y-41479050D03*
%TD*%
D18*
%TO.P,REF\u002A\u002A,1*%
%TO.N,N/C*%
X149875000Y-121087500D03*
%TO.P,REF\u002A\u002A,2*%
X146950000Y-121087500D03*
%TD*%
D39*
%TO.P,1uF,1*%
%TO.N,N/C*%
X136625000Y-77587500D03*
%TO.P,1uF,2*%
X138525000Y-77587500D03*
%TD*%
D18*
%TO.P,220R,1*%
%TO.N,N/C*%
X97278750Y-33747500D03*
%TO.P,220R,2*%
X94353750Y-33747500D03*
%TD*%
D15*
%TO.P,,1*%
%TO.N,N/C*%
X155925000Y-132950000D03*
%TD*%
D18*
%TO.P,330R,1*%
%TO.N,N/C*%
X115468450Y-39029050D03*
%TO.P,330R,2*%
X112543450Y-39029050D03*
%TD*%
%TO.P,REF\u002A\u002A,1*%
%TO.N,N/C*%
X155575000Y-110175000D03*
%TO.P,REF\u002A\u002A,2*%
X152650000Y-110175000D03*
%TD*%
D15*
%TO.P,,1*%
%TO.N,N/C*%
X155025000Y-132950000D03*
%TD*%
D41*
%TO.P,LM358,1*%
%TO.N,N/C*%
X138275000Y-114637500D03*
%TO.P,LM358,2*%
X138275000Y-115137500D03*
%TO.P,LM358,3*%
X138275000Y-115637500D03*
%TO.P,LM358,4*%
X138275000Y-116137500D03*
%TO.P,LM358,5*%
X140075000Y-116137500D03*
%TO.P,LM358,6*%
X140075000Y-115637500D03*
%TO.P,LM358,7*%
X140075000Y-115137500D03*
%TO.P,LM358,8*%
X140075000Y-114637500D03*
D42*
%TO.P,LM358,9*%
X139175000Y-115387500D03*
%TD*%
D19*
%TO.P,RESET,1*%
%TO.N,N/C*%
X148450000Y-84787500D03*
X140500000Y-84787500D03*
%TO.P,RESET,2*%
X148450000Y-80287500D03*
X140500000Y-80287500D03*
%TD*%
D15*
%TO.P,,1*%
%TO.N,N/C*%
X148475000Y-104262500D03*
%TD*%
D45*
%TO.P,10uF,1*%
%TO.N,N/C*%
X136908450Y-54829050D03*
%TO.P,10uF,2*%
X136908450Y-56729050D03*
%TD*%
D46*
%TO.P,USB_0,1*%
%TO.N,N/C*%
X79675000Y-101157500D03*
D11*
%TO.P,USB_0,2*%
X82175000Y-101157500D03*
%TO.P,USB_0,3*%
X84175000Y-101157500D03*
%TO.P,USB_0,4*%
%TO.N,gnd*%
X86675000Y-101157500D03*
D30*
%TO.P,USB_0,5*%
X76605000Y-103867500D03*
X89745000Y-103867500D03*
%TD*%
D15*
%TO.P,,1*%
%TO.N,N/C*%
X148475000Y-132937500D03*
%TD*%
%TO.P,,1*%
%TO.N,N/C*%
X150275000Y-132937500D03*
%TD*%
D18*
%TO.P,220R,1*%
%TO.N,N/C*%
X97278750Y-52797500D03*
%TO.P,220R,2*%
X94353750Y-52797500D03*
%TD*%
D39*
%TO.P,1uF,1*%
%TO.N,N/C*%
X133577450Y-49008550D03*
%TO.P,1uF,2*%
X135477450Y-49008550D03*
%TD*%
D14*
%TO.P,10K,1*%
%TO.N,N/C*%
X112290000Y-101072500D03*
%TO.P,10K,2*%
X112290000Y-98147500D03*
%TD*%
D31*
%TO.P,1uF,1*%
%TO.N,N/C*%
X144525000Y-123537500D03*
%TO.P,1uF,2*%
X144525000Y-121637500D03*
%TD*%
D16*
%TO.P,REF\u002A\u002A,1*%
%TO.N,N/C*%
X132240000Y-89622500D03*
D17*
%TO.P,REF\u002A\u002A,2*%
X129700000Y-89622500D03*
%TO.P,REF\u002A\u002A,3*%
X127160000Y-89622500D03*
%TO.P,REF\u002A\u002A,4*%
X124620000Y-89622500D03*
%TO.P,REF\u002A\u002A,5*%
X122080000Y-89622500D03*
%TO.P,REF\u002A\u002A,6*%
X119540000Y-89622500D03*
%TO.P,REF\u002A\u002A,7*%
X117000000Y-89622500D03*
%TO.P,REF\u002A\u002A,8*%
X114460000Y-89622500D03*
%TD*%
D14*
%TO.P,330R,1*%
%TO.N,N/C*%
X82250000Y-53392500D03*
%TO.P,330R,2*%
X82250000Y-50467500D03*
%TD*%
D13*
%TO.P,1K,1*%
%TO.N,gnd*%
X113540000Y-115772500D03*
%TO.P,1K,2*%
%TO.N,N/C*%
X116465000Y-115772500D03*
%TD*%
D18*
%TO.P,1K,1*%
%TO.N,N/C*%
X119887500Y-74487500D03*
%TO.P,1K,2*%
X116962500Y-74487500D03*
%TD*%
D16*
%TO.P,REF\u002A\u002A,1*%
%TO.N,N/C*%
X58520000Y-116599400D03*
D17*
%TO.P,REF\u002A\u002A,2*%
X58520000Y-119139400D03*
%TO.P,REF\u002A\u002A,3*%
X58520000Y-121679400D03*
%TO.P,REF\u002A\u002A,4*%
X58520000Y-124219400D03*
%TO.P,REF\u002A\u002A,5*%
X58520000Y-126759400D03*
%TO.P,REF\u002A\u002A,6*%
X58520000Y-129299400D03*
%TO.P,REF\u002A\u002A,7*%
X58520000Y-131839400D03*
%TD*%
D18*
%TO.P,47K,1*%
%TO.N,N/C*%
X97278750Y-88572500D03*
%TO.P,47K,2*%
%TO.N,5v*%
X94353750Y-88572500D03*
%TD*%
D26*
%TO.P,REF\u002A\u002A,1*%
%TO.N,gnd*%
X99091250Y-85372500D03*
%TO.P,REF\u002A\u002A,2*%
%TO.N,N/C*%
X99091250Y-81372500D03*
%TO.P,REF\u002A\u002A,3*%
X100891250Y-85372500D03*
%TO.P,REF\u002A\u002A,4*%
%TO.N,gnd*%
X100891250Y-81372500D03*
%TD*%
D13*
%TO.P,22R,1*%
%TO.N,N/C*%
X137653950Y-51873050D03*
%TO.P,22R,2*%
X140578950Y-51873050D03*
%TD*%
D26*
%TO.P,REF\u002A\u002A,1*%
%TO.N,gnd*%
X99091250Y-37747500D03*
%TO.P,REF\u002A\u002A,2*%
%TO.N,N/C*%
X99091250Y-33747500D03*
%TO.P,REF\u002A\u002A,3*%
X100891250Y-37747500D03*
%TO.P,REF\u002A\u002A,4*%
%TO.N,gnd*%
X100891250Y-33747500D03*
%TD*%
D16*
%TO.P,REF\u002A\u002A,1*%
%TO.N,N/C*%
X149243450Y-61054050D03*
D17*
%TO.P,REF\u002A\u002A,2*%
X146703450Y-61054050D03*
%TO.P,REF\u002A\u002A,3*%
X144163450Y-61054050D03*
%TO.P,REF\u002A\u002A,4*%
X141623450Y-61054050D03*
%TD*%
D43*
%TO.P,REF\u002A\u002A,1*%
%TO.N,N/C*%
X117525000Y-77987500D03*
D44*
%TO.P,REF\u002A\u002A,2*%
X117525000Y-80562500D03*
%TD*%
D16*
%TO.P,-BAT+,1*%
%TO.N,N/C*%
X138108450Y-34704050D03*
D17*
%TO.P,-BAT+,2*%
X135568450Y-34704050D03*
%TD*%
D47*
%TO.P,100nF,1*%
%TO.N,N/C*%
X113252500Y-129197500D03*
%TO.P,100nF,2*%
X113252500Y-126247500D03*
%TD*%
D48*
%TO.P,USB,1*%
%TO.N,N/C*%
X129502500Y-124447500D03*
%TO.P,USB,2*%
X129502500Y-123647500D03*
%TO.P,USB,3*%
X129502500Y-122847500D03*
%TO.P,USB,4*%
%TO.N,gnd*%
X129502500Y-122047500D03*
%TO.P,USB,5*%
X129502500Y-121247500D03*
D49*
%TO.P,USB,6*%
%TO.N,N/C*%
X135002500Y-118447500D03*
X129502500Y-127247500D03*
X135002500Y-127247500D03*
%TO.N,gnd*%
X129502500Y-118447500D03*
%TD*%
D27*
%TO.P,REF\u002A\u002A,1*%
%TO.N,N/C*%
X142025000Y-123437500D03*
D28*
%TO.P,REF\u002A\u002A,2*%
X139750000Y-123437500D03*
%TD*%
D26*
%TO.P,REF\u002A\u002A,1*%
%TO.N,gnd*%
X99091250Y-75847500D03*
%TO.P,REF\u002A\u002A,2*%
%TO.N,N/C*%
X99091250Y-71847500D03*
%TO.P,REF\u002A\u002A,3*%
X100891250Y-75847500D03*
%TO.P,REF\u002A\u002A,4*%
%TO.N,gnd*%
X100891250Y-71847500D03*
%TD*%
D36*
%TO.P,BTN,1*%
%TO.N,N/C*%
X84125000Y-71267500D03*
%TO.P,BTN,2*%
X85425000Y-71267500D03*
%TD*%
D18*
%TO.P,47K,1*%
%TO.N,N/C*%
X97278750Y-98097500D03*
%TO.P,47K,2*%
%TO.N,5v*%
X94353750Y-98097500D03*
%TD*%
D14*
%TO.P,10K,1*%
%TO.N,N/C*%
X131268450Y-41141550D03*
%TO.P,10K,2*%
X131268450Y-38216550D03*
%TD*%
D18*
%TO.P,REF\u002A\u002A,1*%
%TO.N,N/C*%
X155525000Y-121100000D03*
%TO.P,REF\u002A\u002A,2*%
X152600000Y-121100000D03*
%TD*%
D40*
%TO.P,10uF,1*%
%TO.N,N/C*%
X75387500Y-84542500D03*
%TO.P,10uF,2*%
%TO.N,gnd*%
X78512500Y-84542500D03*
%TD*%
D20*
%TO.P,POW,1*%
%TO.N,N/C*%
X137533450Y-59554050D03*
D21*
%TO.P,POW,2*%
X134958450Y-59554050D03*
%TD*%
D18*
%TO.P,330R,1*%
%TO.N,N/C*%
X125865000Y-97372500D03*
%TO.P,330R,2*%
X122940000Y-97372500D03*
%TD*%
%TO.P,REF\u002A\u002A,1*%
%TO.N,N/C*%
X149900000Y-115612500D03*
%TO.P,REF\u002A\u002A,2*%
X146975000Y-115612500D03*
%TD*%
%TO.P,47K,1*%
%TO.N,N/C*%
X97278750Y-106447500D03*
%TO.P,47K,2*%
%TO.N,5v*%
X94353750Y-106447500D03*
%TD*%
D26*
%TO.P,REF\u002A\u002A,1*%
%TO.N,gnd*%
X99091250Y-47272500D03*
%TO.P,REF\u002A\u002A,2*%
%TO.N,N/C*%
X99091250Y-43272500D03*
%TO.P,REF\u002A\u002A,3*%
X100891250Y-47272500D03*
%TO.P,REF\u002A\u002A,4*%
%TO.N,gnd*%
X100891250Y-43272500D03*
%TD*%
D36*
%TO.P,TEST,1*%
%TO.N,N/C*%
X80825000Y-57867500D03*
%TO.P,TEST,2*%
%TO.N,3.3V*%
X82125000Y-57867500D03*
%TD*%
D50*
%TO.P,AT90USB162,1*%
%TO.N,N/C*%
X134175000Y-72187500D03*
%TO.P,AT90USB162,2*%
X133675000Y-72187500D03*
%TO.P,AT90USB162,3*%
X133175000Y-72187500D03*
%TO.P,AT90USB162,4*%
X132675000Y-72187500D03*
%TO.P,AT90USB162,5*%
X132175000Y-72187500D03*
%TO.P,AT90USB162,6*%
X131675000Y-72187500D03*
%TO.P,AT90USB162,7*%
X131175000Y-72187500D03*
%TO.P,AT90USB162,8*%
X130675000Y-72187500D03*
D51*
%TO.P,AT90USB162,9*%
X129975000Y-72887500D03*
%TO.P,AT90USB162,10*%
X129975000Y-73387500D03*
%TO.P,AT90USB162,11*%
X129975000Y-73887500D03*
%TO.P,AT90USB162,12*%
X129975000Y-74387500D03*
%TO.P,AT90USB162,13*%
X129975000Y-74887500D03*
%TO.P,AT90USB162,14*%
X129975000Y-75387500D03*
%TO.P,AT90USB162,15*%
X129975000Y-75887500D03*
%TO.P,AT90USB162,16*%
X129975000Y-76387500D03*
D50*
%TO.P,AT90USB162,17*%
X130675000Y-77087500D03*
%TO.P,AT90USB162,18*%
X131175000Y-77087500D03*
%TO.P,AT90USB162,19*%
X131675000Y-77087500D03*
%TO.P,AT90USB162,20*%
X132175000Y-77087500D03*
%TO.P,AT90USB162,21*%
X132675000Y-77087500D03*
%TO.P,AT90USB162,22*%
X133175000Y-77087500D03*
%TO.P,AT90USB162,23*%
X133675000Y-77087500D03*
%TO.P,AT90USB162,24*%
X134175000Y-77087500D03*
D51*
%TO.P,AT90USB162,25*%
X134875000Y-76387500D03*
%TO.P,AT90USB162,26*%
X134875000Y-75887500D03*
%TO.P,AT90USB162,27*%
X134875000Y-75387500D03*
%TO.P,AT90USB162,28*%
X134875000Y-74887500D03*
%TO.P,AT90USB162,29*%
X134875000Y-74387500D03*
%TO.P,AT90USB162,30*%
X134875000Y-73887500D03*
%TO.P,AT90USB162,31*%
X134875000Y-73387500D03*
%TO.P,AT90USB162,32*%
X134875000Y-72887500D03*
D52*
%TO.P,AT90USB162,33*%
X132425000Y-74637500D03*
%TD*%
D14*
%TO.P,330R,1*%
%TO.N,N/C*%
X140533450Y-57691550D03*
%TO.P,330R,2*%
X140533450Y-54766550D03*
%TD*%
D43*
%TO.P,PWR,1*%
%TO.N,N/C*%
X74150000Y-46892500D03*
D44*
%TO.P,PWR,2*%
X74150000Y-44317500D03*
%TD*%
D43*
%TO.P,REF\u002A\u002A,1*%
%TO.N,N/C*%
X68800000Y-117562500D03*
D44*
%TO.P,REF\u002A\u002A,2*%
X68800000Y-114987500D03*
%TD*%
D43*
%TO.P,RX,1*%
%TO.N,N/C*%
X122533450Y-38904050D03*
D44*
%TO.P,RX,2*%
X122533450Y-41479050D03*
%TD*%
D26*
%TO.P,REF\u002A\u002A,1*%
%TO.N,gnd*%
X99091250Y-56797500D03*
%TO.P,REF\u002A\u002A,2*%
%TO.N,N/C*%
X99091250Y-52797500D03*
%TO.P,REF\u002A\u002A,3*%
X100891250Y-56797500D03*
%TO.P,REF\u002A\u002A,4*%
%TO.N,gnd*%
X100891250Y-52797500D03*
%TD*%
D27*
%TO.P,REF\u002A\u002A,1*%
%TO.N,N/C*%
X154925000Y-118375000D03*
D28*
%TO.P,REF\u002A\u002A,2*%
X152650000Y-118375000D03*
%TD*%
D18*
%TO.P,10K,1*%
%TO.N,N/C*%
X143287500Y-77687500D03*
%TO.P,10K,2*%
X140362500Y-77687500D03*
%TD*%
D24*
%TO.P,100nF,1*%
%TO.N,gnd*%
X113230000Y-118897500D03*
%TO.P,100nF,2*%
%TO.N,N/C*%
X113230000Y-121847500D03*
%TD*%
D25*
%TO.P,16MHz,1*%
%TO.N,N/C*%
X135725000Y-68387500D03*
%TO.P,16MHz,2*%
X135725000Y-69587500D03*
%TO.P,16MHz,3*%
X135725000Y-70787500D03*
%TD*%
D35*
%TO.P,REF\u002A\u002A,1*%
%TO.N,N/C*%
X74830000Y-121162500D03*
%TO.P,REF\u002A\u002A,2*%
X76100000Y-121162500D03*
%TO.P,REF\u002A\u002A,3*%
X77370000Y-121162500D03*
%TO.P,REF\u002A\u002A,4*%
X78640000Y-121162500D03*
%TO.P,REF\u002A\u002A,5*%
X79910000Y-121162500D03*
%TO.P,REF\u002A\u002A,6*%
X81180000Y-121162500D03*
%TO.P,REF\u002A\u002A,7*%
X82450000Y-121162500D03*
%TO.P,REF\u002A\u002A,8*%
X83720000Y-121162500D03*
%TO.P,REF\u002A\u002A,9*%
X83720000Y-116361900D03*
%TO.P,REF\u002A\u002A,10*%
X82450000Y-116361900D03*
%TO.P,REF\u002A\u002A,11*%
X81180000Y-116361900D03*
%TO.P,REF\u002A\u002A,12*%
X79910000Y-116361900D03*
%TO.P,REF\u002A\u002A,13*%
X78640000Y-116361900D03*
%TO.P,REF\u002A\u002A,14*%
X77370000Y-116361900D03*
%TO.P,REF\u002A\u002A,15*%
X76100000Y-116361900D03*
%TO.P,REF\u002A\u002A,16*%
X74830000Y-116361900D03*
%TD*%
D16*
%TO.P,REF\u002A\u002A,1*%
%TO.N,N/C*%
X110052500Y-128912500D03*
D17*
%TO.P,REF\u002A\u002A,2*%
X110052500Y-126372500D03*
%TO.P,REF\u002A\u002A,3*%
X110052500Y-123832500D03*
%TO.P,REF\u002A\u002A,4*%
X110052500Y-121292500D03*
%TO.P,REF\u002A\u002A,5*%
%TO.N,gnd*%
X110052500Y-118752500D03*
%TO.P,REF\u002A\u002A,6*%
X110052500Y-116212500D03*
%TD*%
D16*
%TO.P,REF\u002A\u002A,1*%
%TO.N,N/C*%
X139690000Y-105847500D03*
D17*
%TO.P,REF\u002A\u002A,2*%
X142230000Y-105847500D03*
%TO.P,REF\u002A\u002A,3*%
X139690000Y-108387500D03*
%TO.P,REF\u002A\u002A,4*%
X142230000Y-108387500D03*
%TO.P,REF\u002A\u002A,5*%
X139690000Y-110927500D03*
%TO.P,REF\u002A\u002A,6*%
X142230000Y-110927500D03*
%TD*%
D27*
%TO.P,REF\u002A\u002A,1*%
%TO.N,N/C*%
X149300000Y-112887500D03*
D28*
%TO.P,REF\u002A\u002A,2*%
X147025000Y-112887500D03*
%TD*%
D16*
%TO.P,REF\u002A\u002A,1*%
%TO.N,N/C*%
X131900000Y-66287500D03*
D17*
%TO.P,REF\u002A\u002A,2*%
X129360000Y-66287500D03*
%TO.P,REF\u002A\u002A,3*%
X126820000Y-66287500D03*
%TO.P,REF\u002A\u002A,4*%
X124280000Y-66287500D03*
%TO.P,REF\u002A\u002A,5*%
X121740000Y-66287500D03*
%TO.P,REF\u002A\u002A,6*%
X119200000Y-66287500D03*
%TO.P,REF\u002A\u002A,7*%
X116660000Y-66287500D03*
%TO.P,REF\u002A\u002A,8*%
X114120000Y-66287500D03*
%TD*%
D15*
%TO.P,,1*%
%TO.N,N/C*%
X155925000Y-104275000D03*
%TD*%
D18*
%TO.P,47K,1*%
%TO.N,N/C*%
X97278750Y-79047500D03*
%TO.P,47K,2*%
%TO.N,5v*%
X94353750Y-79047500D03*
%TD*%
D53*
%TO.P,16MHz,1*%
%TO.N,N/C*%
X125227450Y-39958550D03*
%TO.P,16MHz,2*%
X126427450Y-39958550D03*
%TO.P,16MHz,3*%
X127627450Y-39958550D03*
%TD*%
D40*
%TO.P,10uF,1*%
%TO.N,1.8V*%
X75412500Y-80692500D03*
%TO.P,10uF,2*%
%TO.N,gnd*%
X78537500Y-80692500D03*
%TD*%
D37*
%TO.P,1K,1*%
%TO.N,N/C*%
X65725000Y-115200000D03*
%TO.P,1K,2*%
X65725000Y-118125000D03*
%TD*%
D53*
%TO.P,12MHz,1*%
%TO.N,N/C*%
X73100000Y-57542500D03*
%TO.P,12MHz,2*%
%TO.N,gnd*%
X74300000Y-57542500D03*
%TO.P,12MHz,3*%
%TO.N,N/C*%
X75500000Y-57542500D03*
%TD*%
D29*
%TO.P,USB3,1*%
%TO.N,N/C*%
X68535000Y-60342500D03*
D11*
%TO.P,USB3,2*%
X68535000Y-62842500D03*
%TO.P,USB3,3*%
X68535000Y-64842500D03*
%TO.P,USB3,4*%
%TO.N,gnd*%
X68535000Y-67342500D03*
D30*
%TO.P,USB3,5*%
X65825000Y-70412500D03*
X65825000Y-57272500D03*
%TD*%
D31*
%TO.P,1uF,1*%
%TO.N,N/C*%
X134789850Y-56721150D03*
%TO.P,1uF,2*%
X134789850Y-54821150D03*
%TD*%
D36*
%TO.P,RESET,1*%
%TO.N,N/C*%
X83600000Y-67117500D03*
%TO.P,RESET,2*%
%TO.N,3.3V*%
X84900000Y-67117500D03*
%TD*%
D18*
%TO.P,REF\u002A\u002A,1*%
%TO.N,N/C*%
X149850000Y-126537500D03*
%TO.P,REF\u002A\u002A,2*%
X146925000Y-126537500D03*
%TD*%
D20*
%TO.P,REF\u002A\u002A,1*%
%TO.N,N/C*%
X118440000Y-98497500D03*
D21*
%TO.P,REF\u002A\u002A,2*%
X121015000Y-98497500D03*
%TD*%
D54*
%TO.P,FUSE,1*%
%TO.N,gnd*%
X73087500Y-53367500D03*
%TO.P,FUSE,2*%
X74387500Y-53367500D03*
%TD*%
D18*
%TO.P,22R,1*%
%TO.N,N/C*%
X140300000Y-72637500D03*
%TO.P,22R,2*%
X137375000Y-72637500D03*
%TD*%
D55*
%TO.P,USB_0,1*%
%TO.N,N/C*%
X143875000Y-68237500D03*
%TO.P,USB_0,2*%
X143875000Y-70737500D03*
%TO.P,USB_0,3*%
X143875000Y-72737500D03*
%TO.P,USB_0,4*%
X143875000Y-75237500D03*
D56*
%TO.P,USB_0,5*%
X146625000Y-66037500D03*
X146625000Y-77437500D03*
%TD*%
D29*
%TO.P,USB4,1*%
%TO.N,N/C*%
X68560000Y-43092500D03*
D11*
%TO.P,USB4,2*%
X68560000Y-45592500D03*
%TO.P,USB4,3*%
X68560000Y-47592500D03*
%TO.P,USB4,4*%
%TO.N,gnd*%
X68560000Y-50092500D03*
D30*
%TO.P,USB4,5*%
X65850000Y-40022500D03*
X65850000Y-53162500D03*
%TD*%
D20*
%TO.P,PORT3,1*%
%TO.N,N/C*%
X82950000Y-40417500D03*
D21*
%TO.P,PORT3,2*%
X80375000Y-40417500D03*
%TD*%
D53*
%TO.P,12MHz,1*%
%TO.N,N/C*%
X115480000Y-119250000D03*
%TO.P,12MHz,2*%
%TO.N,gnd*%
X116680000Y-119250000D03*
%TO.P,12MHz,3*%
%TO.N,N/C*%
X117880000Y-119250000D03*
%TD*%
D16*
%TO.P,REF\u002A\u002A,1*%
%TO.N,N/C*%
X132990000Y-110572500D03*
D17*
%TO.P,REF\u002A\u002A,2*%
X130450000Y-110572500D03*
%TO.P,REF\u002A\u002A,3*%
X127910000Y-110572500D03*
%TO.P,REF\u002A\u002A,4*%
X125370000Y-110572500D03*
%TO.P,REF\u002A\u002A,5*%
X122830000Y-110572500D03*
%TO.P,REF\u002A\u002A,6*%
X120290000Y-110572500D03*
%TO.P,REF\u002A\u002A,7*%
X117750000Y-110572500D03*
%TO.P,REF\u002A\u002A,8*%
X115210000Y-110572500D03*
%TD*%
D18*
%TO.P,220R,1*%
%TO.N,N/C*%
X97278750Y-81372500D03*
%TO.P,220R,2*%
X94353750Y-81372500D03*
%TD*%
D19*
%TO.P,RESET,1*%
%TO.N,N/C*%
X113865000Y-107522500D03*
X121815000Y-107522500D03*
%TO.P,RESET,2*%
X113865000Y-103022500D03*
X121815000Y-103022500D03*
%TD*%
D57*
%TO.P,CH340G,1*%
%TO.N,N/C*%
X125450000Y-121725000D03*
%TO.P,CH340G,2*%
X124180000Y-121725000D03*
%TO.P,CH340G,3*%
X122910000Y-121725000D03*
%TO.P,CH340G,4*%
X121640000Y-121725000D03*
%TO.P,CH340G,5*%
X120370000Y-121725000D03*
%TO.P,CH340G,6*%
X119100000Y-121725000D03*
%TO.P,CH340G,7*%
X117830000Y-121725000D03*
%TO.P,CH340G,8*%
X116560000Y-121725000D03*
%TO.P,CH340G,9*%
X116560000Y-127225000D03*
%TO.P,CH340G,10*%
X117830000Y-127225000D03*
%TO.P,CH340G,11*%
X119100000Y-127225000D03*
%TO.P,CH340G,12*%
X120370000Y-127225000D03*
%TO.P,CH340G,13*%
X121640000Y-127225000D03*
%TO.P,CH340G,14*%
X122910000Y-127225000D03*
%TO.P,CH340G,15*%
X124180000Y-127225000D03*
%TO.P,CH340G,16*%
X125450000Y-127225000D03*
%TD*%
D16*
%TO.P,REF\u002A\u002A,1*%
%TO.N,gnd*%
X105941250Y-82587500D03*
D17*
%TO.P,REF\u002A\u002A,2*%
%TO.N,5v*%
X105941250Y-80047500D03*
%TO.P,REF\u002A\u002A,3*%
%TO.N,N/C*%
X105941250Y-77507500D03*
%TO.P,REF\u002A\u002A,4*%
X105941250Y-74967500D03*
%TO.P,REF\u002A\u002A,5*%
X105941250Y-72427500D03*
%TO.P,REF\u002A\u002A,6*%
X105941250Y-69887500D03*
%TO.P,REF\u002A\u002A,7*%
X105941250Y-67347500D03*
%TO.P,REF\u002A\u002A,8*%
X105941250Y-64807500D03*
%TO.P,REF\u002A\u002A,9*%
X105941250Y-62267500D03*
%TO.P,REF\u002A\u002A,10*%
X105941250Y-59727500D03*
%TD*%
D58*
%TO.N,*%
X152325000Y-129775000D03*
D59*
X114640000Y-98122500D03*
D60*
X78625000Y-117587500D03*
X122258450Y-47779050D03*
D58*
X146650000Y-105612500D03*
D59*
X126940000Y-102272500D03*
D60*
X140965000Y-96922500D03*
X131655250Y-47795950D03*
D58*
X150275000Y-110237500D03*
D60*
X122683450Y-43659050D03*
D58*
X146675000Y-129762500D03*
X147250000Y-130687500D03*
D60*
X77400000Y-116762500D03*
X141002450Y-54783550D03*
X79900000Y-118287500D03*
D58*
X155950000Y-121075000D03*
X153225000Y-129800000D03*
D60*
X116068450Y-45189050D03*
X91232500Y-118245000D03*
D59*
X141468450Y-36629050D03*
D61*
X147725000Y-111362500D03*
D59*
X122727500Y-117672500D03*
D60*
X131190000Y-102872500D03*
D58*
X155950000Y-115575000D03*
D60*
X129975000Y-72187500D03*
X93350000Y-119687500D03*
X140965000Y-99197500D03*
X132925000Y-69087500D03*
X123533450Y-43654050D03*
X124333450Y-43654050D03*
X133218450Y-40079050D03*
X134875000Y-73137500D03*
D58*
X148475000Y-118287500D03*
X149400000Y-123862500D03*
D60*
X74850000Y-115987500D03*
D59*
X136590000Y-101372500D03*
D58*
X150300000Y-115562500D03*
D60*
X81200000Y-118987500D03*
D58*
X147575000Y-129787500D03*
D60*
X135740000Y-96772500D03*
D58*
X150300000Y-121062500D03*
X155050000Y-123875000D03*
D60*
X136790000Y-102872500D03*
X82450000Y-119687500D03*
X116068450Y-37054050D03*
X129658450Y-52329050D03*
X129975000Y-71387500D03*
D58*
X154125000Y-118300000D03*
D60*
X135690000Y-99072500D03*
X133218450Y-38204050D03*
X118283450Y-41854050D03*
X86150000Y-116337500D03*
D58*
X150300000Y-126537500D03*
D59*
X75350000Y-84542500D03*
D60*
X130927450Y-53383550D03*
X89950000Y-117587500D03*
X124008450Y-51479050D03*
X120174450Y-47008550D03*
X125133450Y-43629050D03*
D58*
X148475000Y-129812500D03*
D59*
X142225000Y-82637500D03*
D60*
X129740000Y-100622500D03*
D59*
X119175000Y-70987500D03*
D60*
X134275000Y-78087500D03*
X129740000Y-101422500D03*
D59*
X124875000Y-75037500D03*
D60*
X95050000Y-117112500D03*
D58*
X152900000Y-130700000D03*
D60*
X92525000Y-118987500D03*
X95875000Y-115562500D03*
D58*
X152300000Y-105625000D03*
D59*
X118440000Y-98497500D03*
D58*
X154125000Y-129825000D03*
X155925000Y-110250000D03*
D61*
X153375000Y-111375000D03*
D59*
X148525000Y-84787500D03*
D60*
X129902650Y-43655750D03*
X124708450Y-47754050D03*
D58*
X155950000Y-126550000D03*
D59*
X143875000Y-68237500D03*
D60*
X124008450Y-52404050D03*
X84950000Y-115237500D03*
X129368450Y-46244050D03*
D62*
%TO.N,gnd*%
X78350000Y-98492500D03*
D59*
X74750000Y-53380000D03*
X129502500Y-121697500D03*
D60*
%TO.N,1.8V*%
X80035000Y-60442500D03*
X77205000Y-67302500D03*
%TD*%
D63*
%TO.N,*%
X140965000Y-91897500D02*
X140790000Y-91897500D01*
X141775000Y-87887500D02*
X142175000Y-88287500D01*
X142175000Y-88287500D02*
X142175000Y-90687500D01*
X142175000Y-90687500D02*
X140965000Y-91897500D01*
X135125000Y-87887500D02*
X141775000Y-87887500D01*
X134390000Y-88622500D02*
X135125000Y-87887500D01*
X135190000Y-91222500D02*
X135190000Y-92002500D01*
X135265000Y-91147500D02*
X135190000Y-91222500D01*
X137040000Y-91147500D02*
X135265000Y-91147500D01*
X135625000Y-88637500D02*
X140480000Y-88637500D01*
X135190000Y-89072500D02*
X135625000Y-88637500D01*
X135190000Y-92002500D02*
X135190000Y-89072500D01*
X135190000Y-92002500D02*
X135190000Y-94372500D01*
X140480000Y-88637500D02*
X140790000Y-88947500D01*
D64*
X131127500Y-124447500D02*
X129502500Y-124447500D01*
D63*
X136740000Y-99022500D02*
X138240000Y-99022500D01*
D64*
X145758450Y-48969050D02*
X145758450Y-49404050D01*
D65*
X74750000Y-47992500D02*
X73700000Y-46942500D01*
D64*
X128558450Y-47754050D02*
X129658450Y-48854050D01*
D63*
X123425000Y-70737500D02*
X124875000Y-72187500D01*
D66*
X134875000Y-74887500D02*
X132675000Y-74887500D01*
D67*
X121735000Y-80127500D02*
X121045000Y-80127500D01*
D64*
X127065000Y-96622500D02*
X125865000Y-95422500D01*
D63*
X134990000Y-99422500D02*
X135340000Y-99772500D01*
X135190000Y-102872500D02*
X135190000Y-105922500D01*
D64*
X74830000Y-116361900D02*
X73629400Y-117562500D01*
D63*
X134390000Y-102872500D02*
X134390000Y-105622500D01*
X81980000Y-68772500D02*
X82150000Y-68942500D01*
D68*
X68510000Y-80137500D02*
X69705000Y-80137500D01*
D64*
X114640000Y-92222500D02*
X114640000Y-98122500D01*
X126502500Y-123122500D02*
X126502500Y-120972500D01*
X132790000Y-94372500D02*
X132790000Y-91772500D01*
D63*
X81195500Y-61732500D02*
X83360000Y-61732500D01*
D68*
X69880000Y-82137500D02*
X68510000Y-82137500D01*
D64*
X123465000Y-101372500D02*
X114940000Y-101372500D01*
X138958450Y-48754050D02*
X138958450Y-54829050D01*
X144508450Y-50654050D02*
X145758450Y-51904050D01*
X128468450Y-39329050D02*
X128543450Y-39254050D01*
D69*
X149400000Y-129462500D02*
X149400000Y-132912500D01*
D64*
X127515050Y-43655750D02*
X127515050Y-44795950D01*
X112290000Y-101072500D02*
X112290000Y-105947500D01*
X67265872Y-126591028D02*
X67265872Y-129199400D01*
D69*
X152575000Y-123875000D02*
X152625000Y-123825000D01*
D65*
X143287500Y-77687500D02*
X146375000Y-77687500D01*
D64*
X81180000Y-121162500D02*
X81180000Y-124451900D01*
D63*
X75771500Y-72533500D02*
X75587500Y-72717500D01*
D64*
X136052450Y-47008550D02*
X137217450Y-45843550D01*
X131655250Y-48608750D02*
X130477250Y-48608750D01*
X127777500Y-122847500D02*
X127427500Y-122497500D01*
X121640000Y-127225000D02*
X121640000Y-126282500D01*
X112543450Y-42554050D02*
X112518450Y-42579050D01*
X77425872Y-128206028D02*
X77425872Y-129199400D01*
X115480000Y-120645000D02*
X115480000Y-119250000D01*
X131655250Y-47008550D02*
X136052450Y-47008550D01*
X134390000Y-88622500D02*
X133690000Y-87922500D01*
D70*
X133050000Y-118645000D02*
X133050000Y-124497500D01*
D67*
X128675000Y-73387500D02*
X127925000Y-72637500D01*
D64*
X134958450Y-59554050D02*
X134958450Y-56889750D01*
X84175000Y-114512500D02*
X83720000Y-114967500D01*
X120718450Y-42304050D02*
X120093450Y-42929050D01*
X120093450Y-42929050D02*
X115793450Y-42929050D01*
D69*
X152325000Y-129775000D02*
X152325000Y-129000000D01*
D66*
X134175000Y-77987500D02*
X134275000Y-78087500D01*
D64*
X132790000Y-91772500D02*
X132190000Y-91172500D01*
D67*
X129975000Y-76387500D02*
X123775000Y-76387500D01*
D63*
X83600000Y-70742500D02*
X84125000Y-71267500D01*
D64*
X122614850Y-57246150D02*
X121251350Y-57246150D01*
D68*
X72695000Y-63012500D02*
X75771500Y-63012500D01*
D64*
X116560000Y-121725000D02*
X115480000Y-120645000D01*
D71*
X100891250Y-50472500D02*
X100891250Y-47272500D01*
D64*
X113990000Y-87922500D02*
X113090000Y-88822500D01*
D65*
X88137500Y-71267500D02*
X85425000Y-71267500D01*
D64*
X128543450Y-39254050D02*
X138268450Y-39254050D01*
X129740000Y-96622500D02*
X127065000Y-96622500D01*
D67*
X123585000Y-80127500D02*
X123585000Y-81127500D01*
D68*
X70475000Y-60792500D02*
X72695000Y-63012500D01*
D64*
X121130000Y-128597500D02*
X120370000Y-127837500D01*
D72*
X140875000Y-70000000D02*
X142637500Y-68237500D01*
D64*
X132815050Y-54821150D02*
X132714850Y-54821150D01*
X121640000Y-126282500D02*
X121080000Y-125722500D01*
D67*
X128675000Y-82937500D02*
X129575000Y-82037500D01*
D66*
X138175000Y-77587500D02*
X138525000Y-77587500D01*
D63*
X81195500Y-63012500D02*
X79720000Y-63012500D01*
D67*
X127325000Y-70437500D02*
X124725000Y-67837500D01*
D64*
X76100000Y-116361900D02*
X76100000Y-117606900D01*
X113777500Y-125722500D02*
X113252500Y-126247500D01*
X124180000Y-121725000D02*
X124180000Y-122947500D01*
D70*
X133050000Y-122650000D02*
X133050000Y-123675000D01*
D64*
X118418450Y-53329050D02*
X118418450Y-57144050D01*
X133189850Y-49396150D02*
X133577450Y-49008550D01*
D68*
X68535000Y-64842500D02*
X71525000Y-64842500D01*
D64*
X146075000Y-77437500D02*
X146625000Y-77437500D01*
D71*
X97253750Y-69522500D02*
X100891250Y-69522500D01*
D67*
X138240000Y-96622500D02*
X140665000Y-96622500D01*
D68*
X71525000Y-64842500D02*
X72075000Y-64292500D01*
D69*
X152325000Y-129000000D02*
X153350000Y-127975000D01*
D66*
X135700000Y-84212500D02*
X135775000Y-84287500D01*
D63*
X83775000Y-61317500D02*
X83775000Y-60692500D01*
X76675000Y-54192500D02*
X77800000Y-55317500D01*
D67*
X123175000Y-75887500D02*
X129975000Y-75887500D01*
D64*
X121039850Y-56421150D02*
X122414850Y-56421150D01*
X62185872Y-127151628D02*
X62185872Y-129199400D01*
D68*
X70430000Y-97387500D02*
X68485000Y-97387500D01*
D64*
X147158450Y-53604050D02*
X143808450Y-53604050D01*
D67*
X140665000Y-96622500D02*
X140965000Y-96922500D01*
D64*
X142793450Y-46779050D02*
X142968450Y-46954050D01*
X125914850Y-41695950D02*
X125227450Y-41008550D01*
D63*
X146650000Y-105612500D02*
X148400000Y-105612500D01*
D64*
X141343450Y-40079050D02*
X141577450Y-40313050D01*
X116990000Y-100522500D02*
X116240000Y-99772500D01*
X131990000Y-92422500D02*
X131540000Y-91972500D01*
D69*
X148075000Y-128887500D02*
X148825000Y-128887500D01*
D64*
X129115250Y-42557250D02*
X129443450Y-42229050D01*
D69*
X141568450Y-38854050D02*
X141568450Y-36729050D01*
D64*
X72345872Y-126636028D02*
X72345872Y-129199400D01*
X126702250Y-57708350D02*
X126702250Y-55136550D01*
D69*
X146675000Y-129762500D02*
X146675000Y-128987500D01*
D64*
X128302450Y-55136550D02*
X128302450Y-56608550D01*
D67*
X123025000Y-78837500D02*
X121735000Y-80127500D01*
D71*
X100891250Y-69522500D02*
X100891250Y-66322500D01*
D64*
X138668450Y-38854050D02*
X141568450Y-38854050D01*
X126427500Y-119547500D02*
X119877500Y-119547500D01*
D69*
X152600000Y-121100000D02*
X152600000Y-118425000D01*
D64*
X130127450Y-45158550D02*
X130233200Y-45158550D01*
D63*
X132140000Y-105472500D02*
X118990000Y-105472500D01*
D64*
X116560000Y-129847500D02*
X117510000Y-130797500D01*
D68*
X75771500Y-66212500D02*
X73505000Y-66212500D01*
D64*
X130233200Y-45158550D02*
X131268450Y-44123300D01*
X76670000Y-127011900D02*
X74870000Y-127011900D01*
D69*
X152650000Y-107500000D02*
X152700000Y-107450000D01*
D64*
X124040000Y-94072500D02*
X122940000Y-92972500D01*
D69*
X148618450Y-56654050D02*
X148618450Y-60429050D01*
D67*
X129275000Y-81487500D02*
X131075000Y-81487500D01*
D63*
X131990000Y-104422500D02*
X131690000Y-104722500D01*
D70*
X133050000Y-124497500D02*
X133050000Y-127125000D01*
D64*
X127627450Y-41183550D02*
X127627450Y-39958550D01*
D65*
X146375000Y-77687500D02*
X146625000Y-77437500D01*
D63*
X79210000Y-63652500D02*
X78550000Y-62992500D01*
D67*
X124125000Y-69387500D02*
X121125000Y-69387500D01*
D64*
X137383450Y-56254050D02*
X136908450Y-56729050D01*
X116240000Y-99772500D02*
X116240000Y-91402500D01*
D63*
X82150000Y-68942500D02*
X82150000Y-101132500D01*
X120265000Y-106697500D02*
X120265000Y-110547500D01*
D69*
X146975000Y-121112500D02*
X146950000Y-121087500D01*
D63*
X137531950Y-46954050D02*
X135477450Y-49008550D01*
D64*
X139783450Y-47929050D02*
X138958450Y-48754050D01*
D67*
X123875000Y-70087500D02*
X121025000Y-70087500D01*
D71*
X105951250Y-75197500D02*
X105966250Y-75212500D01*
D64*
X129115250Y-55136550D02*
X129115250Y-53896150D01*
X133267450Y-42018550D02*
X134677450Y-42018550D01*
D67*
X118125000Y-67687500D02*
X116725000Y-66287500D01*
D63*
X113865000Y-111197500D02*
X113865000Y-107522500D01*
D67*
X131375000Y-82037500D02*
X132675000Y-80737500D01*
D64*
X119887500Y-71700000D02*
X119175000Y-70987500D01*
D68*
X71150000Y-80867500D02*
X69880000Y-82137500D01*
D64*
X131655250Y-52596550D02*
X130415250Y-52596550D01*
D67*
X130625000Y-80337500D02*
X131175000Y-79787500D01*
D63*
X130790000Y-108972500D02*
X134290000Y-108972500D01*
D64*
X76100000Y-121162500D02*
X76100000Y-122506900D01*
D67*
X119575000Y-79337500D02*
X120075000Y-78837500D01*
D63*
X83360000Y-61732500D02*
X83775000Y-61317500D01*
X81195500Y-67492500D02*
X83225000Y-67492500D01*
D67*
X123425000Y-82387500D02*
X124425000Y-81387500D01*
D63*
X78725000Y-64292500D02*
X81195500Y-64292500D01*
D64*
X86152500Y-121147200D02*
X86152500Y-128072772D01*
X141577450Y-40313050D02*
X141577450Y-44095050D01*
X137705950Y-38216550D02*
X141568450Y-34354050D01*
D65*
X121045000Y-75645000D02*
X119887500Y-74487500D01*
D67*
X131675000Y-82637500D02*
X129805000Y-82637500D01*
X133175000Y-70237500D02*
X133825000Y-69587500D01*
D63*
X74400000Y-61092500D02*
X75771500Y-61092500D01*
X79720000Y-63012500D02*
X79325000Y-62617500D01*
D64*
X139395950Y-57691550D02*
X137533450Y-59554050D01*
D67*
X123575000Y-77577500D02*
X123585000Y-77587500D01*
X120375000Y-81687500D02*
X119575000Y-80887500D01*
X129025000Y-80887500D02*
X130875000Y-80887500D01*
D65*
X68900000Y-117462500D02*
X69125000Y-117462500D01*
D63*
X81195500Y-68772500D02*
X81980000Y-68772500D01*
D64*
X70770000Y-123086900D02*
X67265872Y-126591028D01*
D63*
X83000000Y-99417500D02*
X84150000Y-100567500D01*
D66*
X134875000Y-74887500D02*
X135475000Y-74887500D01*
D67*
X129975000Y-75387500D02*
X126975000Y-75387500D01*
D64*
X82450000Y-125106900D02*
X79965872Y-127591028D01*
D63*
X154050000Y-105625000D02*
X154975000Y-106550000D01*
D67*
X125475000Y-73887500D02*
X125475000Y-71687500D01*
D64*
X116286150Y-50996350D02*
X115283450Y-51999050D01*
D69*
X146675000Y-128987500D02*
X147700000Y-127962500D01*
D64*
X128633450Y-46979050D02*
X124008450Y-46979050D01*
D67*
X137225000Y-68737500D02*
X136875000Y-68387500D01*
D64*
X125127450Y-55136550D02*
X125127450Y-58525950D01*
X140609950Y-51904050D02*
X140578950Y-51873050D01*
D67*
X119425000Y-67687500D02*
X118125000Y-67687500D01*
D63*
X132790000Y-104822500D02*
X132140000Y-105472500D01*
D64*
X125450000Y-124245000D02*
X125450000Y-121725000D01*
D72*
X138550000Y-67075000D02*
X140875000Y-67075000D01*
D65*
X116315000Y-81772500D02*
X114075000Y-81772500D01*
D64*
X127990000Y-100522500D02*
X116990000Y-100522500D01*
X131655250Y-51783750D02*
X137564650Y-51783750D01*
X140790000Y-91922500D02*
X140790000Y-91897500D01*
D69*
X152625000Y-115625000D02*
X152625000Y-112950000D01*
D63*
X137568450Y-46954050D02*
X137531950Y-46954050D01*
D70*
X131027500Y-116622500D02*
X133050000Y-118645000D01*
D63*
X79675000Y-51942500D02*
X77625000Y-51942500D01*
D67*
X122075000Y-78837500D02*
X122325000Y-78587500D01*
D72*
X145587500Y-67075000D02*
X146625000Y-66037500D01*
D67*
X127975000Y-81937500D02*
X129025000Y-80887500D01*
D64*
X121251350Y-57246150D02*
X118989850Y-59507650D01*
D71*
X97253750Y-40947500D02*
X100866250Y-40947500D01*
D64*
X124314650Y-55136550D02*
X124314650Y-56571350D01*
X138958450Y-54829050D02*
X136908450Y-54829050D01*
D63*
X85075000Y-63405000D02*
X86212500Y-64542500D01*
X120575000Y-70737500D02*
X123425000Y-70737500D01*
D64*
X95042500Y-119595000D02*
X95485000Y-119152500D01*
D67*
X132175000Y-80387500D02*
X132175000Y-77087500D01*
D64*
X140675000Y-72637500D02*
X142575000Y-70737500D01*
D69*
X153225000Y-129400000D02*
X153725000Y-128900000D01*
D71*
X103836250Y-64832500D02*
X105966250Y-64832500D01*
D67*
X127725000Y-78837500D02*
X123025000Y-78837500D01*
D63*
X83600000Y-67117500D02*
X83600000Y-70742500D01*
D64*
X121815000Y-103022500D02*
X121815000Y-103347500D01*
D63*
X117725000Y-106737500D02*
X117725000Y-110547500D01*
D64*
X129510000Y-91972500D02*
X127160000Y-89622500D01*
D69*
X149400000Y-132912500D02*
X149375000Y-132937500D01*
D63*
X124590000Y-106972500D02*
X122805000Y-108757500D01*
D68*
X71150000Y-60167500D02*
X71150000Y-47067500D01*
D71*
X100816250Y-59972500D02*
X102316250Y-61472500D01*
D64*
X136590000Y-101372500D02*
X136590000Y-100372500D01*
D66*
X129975000Y-72187500D02*
X129975000Y-72887500D01*
D64*
X78640000Y-123291900D02*
X76220000Y-125711900D01*
X129502500Y-123647500D02*
X127027500Y-123647500D01*
D67*
X127925000Y-69932500D02*
X124280000Y-66287500D01*
D63*
X153375000Y-111375000D02*
X154275000Y-111375000D01*
D64*
X129740000Y-97422500D02*
X125915000Y-97422500D01*
X127027500Y-123647500D02*
X126502500Y-123122500D01*
D69*
X149225000Y-127962500D02*
X150275000Y-129012500D01*
D63*
X126340000Y-107672500D02*
X125345000Y-108667500D01*
D71*
X100891250Y-94897500D02*
X100891250Y-94147500D01*
D64*
X112967500Y-128912500D02*
X113252500Y-129197500D01*
X125914850Y-55136550D02*
X125914850Y-58888550D01*
X129502500Y-122847500D02*
X127777500Y-122847500D01*
D63*
X80825000Y-59117500D02*
X81350000Y-59642500D01*
X78550000Y-53405000D02*
X78575000Y-53380000D01*
X76612500Y-59680000D02*
X76975000Y-60042500D01*
X77625000Y-51942500D02*
X76675000Y-52892500D01*
D64*
X121655000Y-123997500D02*
X110217500Y-123997500D01*
X127265250Y-46195750D02*
X120174450Y-46195750D01*
X123527250Y-56333750D02*
X122614850Y-57246150D01*
X76100000Y-117606900D02*
X74170000Y-119536900D01*
X138240000Y-95822500D02*
X138240000Y-94472500D01*
X93772500Y-121147200D02*
X93772500Y-122239400D01*
X121066550Y-47795950D02*
X120174450Y-47795950D01*
D69*
X153350000Y-127975000D02*
X154875000Y-127975000D01*
D65*
X83150000Y-47917500D02*
X83150000Y-49567500D01*
D64*
X128577450Y-59583550D02*
X126702250Y-57708350D01*
D67*
X119575000Y-80887500D02*
X119575000Y-79337500D01*
D64*
X124590000Y-91522500D02*
X123440000Y-91522500D01*
D66*
X134875000Y-82647500D02*
X134875000Y-79172500D01*
D69*
X152650000Y-115650000D02*
X152625000Y-115625000D01*
D64*
X123133450Y-46979050D02*
X121883450Y-46979050D01*
X121640000Y-121725000D02*
X121640000Y-122587500D01*
D65*
X67835000Y-116597500D02*
X68800000Y-117562500D01*
D64*
X129149850Y-59583550D02*
X128577450Y-59583550D01*
X115793450Y-42929050D02*
X115443450Y-42579050D01*
X143758450Y-49404050D02*
X142283450Y-47929050D01*
D70*
X133050000Y-123675000D02*
X133050000Y-124497500D01*
D66*
X135375000Y-75387500D02*
X136625000Y-76637500D01*
D71*
X99091250Y-100422500D02*
X97278750Y-100422500D01*
D64*
X111527500Y-124897500D02*
X110052500Y-126372500D01*
X121055000Y-129272500D02*
X119980000Y-129272500D01*
X147158450Y-50804050D02*
X147158450Y-52454050D01*
X121415000Y-95422500D02*
X121040000Y-95047500D01*
X128477450Y-41508550D02*
X128477450Y-38683550D01*
X129788950Y-40083550D02*
X132518450Y-40083550D01*
X127515050Y-55136550D02*
X127515050Y-57196150D01*
X128468450Y-41829050D02*
X128468450Y-39329050D01*
X123690000Y-92272500D02*
X122190000Y-92272500D01*
D69*
X152575000Y-107575000D02*
X152700000Y-107450000D01*
D64*
X131268450Y-42018550D02*
X133267450Y-42018550D01*
D63*
X135977450Y-43026800D02*
X136985700Y-42018550D01*
X135140250Y-46195750D02*
X135977450Y-45358550D01*
D64*
X129740000Y-98222500D02*
X127340000Y-98222500D01*
X89962500Y-123304400D02*
X92645872Y-125987772D01*
D63*
X77800000Y-55317500D02*
X77800000Y-63367500D01*
D65*
X140362500Y-80150000D02*
X140500000Y-80287500D01*
D63*
X82000000Y-59642500D02*
X82475000Y-60117500D01*
D68*
X70475000Y-48617500D02*
X70475000Y-60792500D01*
D64*
X83720000Y-119592500D02*
X83720000Y-121162500D01*
D63*
X114640000Y-111972500D02*
X113865000Y-111197500D01*
D64*
X81180000Y-116361900D02*
X81180000Y-118967500D01*
X131540000Y-91972500D02*
X129510000Y-91972500D01*
X100265872Y-128732772D02*
X100265872Y-129199400D01*
X124180000Y-122947500D02*
X122230000Y-124897500D01*
D69*
X153225000Y-129800000D02*
X153225000Y-129400000D01*
D67*
X137225000Y-69837500D02*
X137225000Y-68737500D01*
D64*
X147158450Y-55194050D02*
X147158450Y-53604050D01*
D71*
X104791250Y-69887500D02*
X102316250Y-72362500D01*
D65*
X121045000Y-77587500D02*
X121045000Y-75645000D01*
D64*
X114640000Y-98147500D02*
X112290000Y-98147500D01*
D66*
X135275000Y-75887500D02*
X135700000Y-76312500D01*
D64*
X136040000Y-98222500D02*
X135690000Y-98572500D01*
X124840000Y-93422500D02*
X123690000Y-92272500D01*
D67*
X124725000Y-67837500D02*
X123275000Y-67837500D01*
X126965000Y-82937500D02*
X128675000Y-82937500D01*
D64*
X125915000Y-97422500D02*
X125865000Y-97372500D01*
D67*
X124425000Y-81387500D02*
X127625000Y-81387500D01*
D64*
X119150950Y-52596550D02*
X118418450Y-53329050D01*
X125914850Y-58888550D02*
X126609850Y-59583550D01*
X88692500Y-123559400D02*
X90105872Y-124972772D01*
X124840000Y-98822500D02*
X124840000Y-93422500D01*
X113090000Y-90672500D02*
X114640000Y-92222500D01*
X123133450Y-51679050D02*
X123133450Y-46979050D01*
D63*
X76635000Y-61732500D02*
X75771500Y-61732500D01*
D73*
X131655250Y-47008550D02*
X131667850Y-47021150D01*
D69*
X146950000Y-118412500D02*
X147000000Y-118362500D01*
D67*
X126725000Y-73337500D02*
X126725000Y-70937500D01*
D69*
X155050000Y-132925000D02*
X155025000Y-132950000D01*
X152900000Y-130700000D02*
X153225000Y-131025000D01*
D64*
X134789850Y-56721150D02*
X134715050Y-56721150D01*
X138190000Y-106422500D02*
X134065000Y-110547500D01*
X130427450Y-45458550D02*
X130127450Y-45158550D01*
X128952450Y-57258550D02*
X132177450Y-57258550D01*
X122490000Y-104022500D02*
X125890000Y-104022500D01*
D63*
X79325000Y-55092500D02*
X81025000Y-53392500D01*
D64*
X147158450Y-52454050D02*
X147158450Y-53604050D01*
X140300000Y-72637500D02*
X140675000Y-72637500D01*
D71*
X99091250Y-81372500D02*
X97278750Y-81372500D01*
D64*
X76100000Y-122506900D02*
X75520000Y-123086900D01*
D69*
X147250000Y-130687500D02*
X147575000Y-131012500D01*
D65*
X65725000Y-118125000D02*
X64712500Y-119137500D01*
D63*
X154975000Y-106550000D02*
X154975000Y-107450000D01*
X133440000Y-107672500D02*
X126340000Y-107672500D01*
D64*
X116237500Y-71612500D02*
X117125000Y-72500000D01*
X142575000Y-70737500D02*
X143875000Y-70737500D01*
X132190000Y-91172500D02*
X130590000Y-91172500D01*
X87422500Y-116346600D02*
X87422500Y-117534400D01*
X95185872Y-126902772D02*
X95185872Y-129199400D01*
D69*
X148475000Y-129812500D02*
X148475000Y-132937500D01*
D67*
X134175000Y-72187500D02*
X134175000Y-71187500D01*
D64*
X138240000Y-99022500D02*
X140790000Y-99022500D01*
X144012700Y-47223300D02*
X145758450Y-48969050D01*
X124327450Y-43642950D02*
X124314650Y-43655750D01*
X124708450Y-47754050D02*
X128558450Y-47754050D01*
D67*
X132675000Y-72187500D02*
X132675000Y-69337500D01*
D63*
X119412500Y-69575000D02*
X120575000Y-70737500D01*
D64*
X136883450Y-56704050D02*
X136908450Y-56729050D01*
X136590000Y-100372500D02*
X135990000Y-99772500D01*
D66*
X134875000Y-75387500D02*
X135375000Y-75387500D01*
D63*
X148625000Y-111362500D02*
X149300000Y-112037500D01*
D70*
X126330000Y-127225000D02*
X125450000Y-127225000D01*
D64*
X92645872Y-125987772D02*
X92645872Y-129199400D01*
D65*
X83150000Y-49567500D02*
X82250000Y-50467500D01*
X75525000Y-34467500D02*
X79275000Y-34467500D01*
D64*
X136908450Y-54829050D02*
X137258450Y-54829050D01*
D65*
X68587500Y-115200000D02*
X68800000Y-114987500D01*
D64*
X124314650Y-56571350D02*
X121529850Y-59356150D01*
D63*
X135990000Y-99772500D02*
X136740000Y-99022500D01*
D64*
X113537500Y-128912500D02*
X113567500Y-128912500D01*
D68*
X70480000Y-99387500D02*
X72550000Y-97317500D01*
D64*
X143758450Y-51904050D02*
X140609950Y-51904050D01*
X79910000Y-118277500D02*
X79900000Y-118287500D01*
X89962500Y-116346600D02*
X89962500Y-117575000D01*
X129115250Y-43655750D02*
X129115250Y-42557250D01*
D68*
X72075000Y-64292500D02*
X75771500Y-64292500D01*
D64*
X131268450Y-38216550D02*
X137705950Y-38216550D01*
D63*
X82475000Y-60842500D02*
X82225000Y-61092500D01*
D64*
X130414850Y-52621150D02*
X129914850Y-53121150D01*
D71*
X99091250Y-90897500D02*
X97278750Y-90897500D01*
D64*
X81180000Y-124451900D02*
X77425872Y-128206028D01*
D67*
X136875000Y-70187500D02*
X137225000Y-69837500D01*
D63*
X115185000Y-106477500D02*
X115185000Y-110547500D01*
D64*
X122940000Y-97372500D02*
X122140000Y-97372500D01*
X88250000Y-114512500D02*
X84175000Y-114512500D01*
D63*
X82150000Y-101132500D02*
X82175000Y-101157500D01*
D64*
X114075000Y-71612500D02*
X116237500Y-71612500D01*
X118315000Y-117622500D02*
X116465000Y-115772500D01*
X88692500Y-114955000D02*
X88250000Y-114512500D01*
D63*
X148400000Y-105612500D02*
X149325000Y-106537500D01*
X84150000Y-101132500D02*
X84175000Y-101157500D01*
D64*
X129115250Y-56171350D02*
X129115250Y-55136550D01*
X69800600Y-119536900D02*
X62185872Y-127151628D01*
X114640000Y-98122500D02*
X114640000Y-98147500D01*
D67*
X133175000Y-73887500D02*
X132425000Y-74637500D01*
D70*
X130952500Y-129222500D02*
X128327500Y-129222500D01*
D63*
X138502450Y-42970050D02*
X139453950Y-42018550D01*
D66*
X132675000Y-74887500D02*
X132425000Y-74637500D01*
D67*
X132675000Y-69337500D02*
X132925000Y-69087500D01*
D71*
X99091250Y-71847500D02*
X97278750Y-71847500D01*
D64*
X129402450Y-56458550D02*
X129115250Y-56171350D01*
D67*
X129975000Y-73387500D02*
X128675000Y-73387500D01*
D64*
X87422500Y-117534400D02*
X84895000Y-120061900D01*
D69*
X147000000Y-107487500D02*
X147050000Y-107437500D01*
D64*
X134797750Y-54829050D02*
X136908450Y-54829050D01*
X130940000Y-92772500D02*
X127770000Y-92772500D01*
D67*
X131175000Y-71137500D02*
X126820000Y-66782500D01*
D63*
X76975000Y-61392500D02*
X76635000Y-61732500D01*
D67*
X127325000Y-73087500D02*
X127325000Y-70437500D01*
D65*
X143287500Y-77687500D02*
X143287500Y-75825000D01*
D71*
X100891250Y-98097500D02*
X100891250Y-94897500D01*
D69*
X146975000Y-115612500D02*
X146975000Y-112937500D01*
D64*
X64725872Y-126731028D02*
X64725872Y-129199400D01*
D63*
X75500000Y-57542500D02*
X75500000Y-59292500D01*
D67*
X134875000Y-73387500D02*
X134875000Y-72887500D01*
D68*
X72110000Y-63652500D02*
X75771500Y-63652500D01*
D64*
X138240000Y-98222500D02*
X136040000Y-98222500D01*
D63*
X152300000Y-105625000D02*
X154050000Y-105625000D01*
D69*
X146975000Y-112937500D02*
X147025000Y-112887500D01*
D64*
X134958450Y-56889750D02*
X134789850Y-56721150D01*
D63*
X81350000Y-59642500D02*
X82000000Y-59642500D01*
D64*
X129115250Y-53896150D02*
X122964850Y-53896150D01*
X95875000Y-115562500D02*
X95875000Y-119142500D01*
D65*
X77825000Y-43942500D02*
X77825000Y-49705000D01*
D69*
X148825000Y-128887500D02*
X149400000Y-129462500D01*
D64*
X127515050Y-43655750D02*
X127515050Y-42782450D01*
X91232500Y-118245000D02*
X91232500Y-116346600D01*
D67*
X131675000Y-72187500D02*
X131675000Y-70837500D01*
D63*
X134290000Y-108972500D02*
X137490000Y-105772500D01*
D70*
X127852500Y-116622500D02*
X131027500Y-116622500D01*
D64*
X130477250Y-48608750D02*
X130427450Y-48558950D01*
X74870000Y-129183528D02*
X74885872Y-129199400D01*
X135477450Y-50183550D02*
X135477450Y-49058550D01*
D67*
X131675000Y-80087500D02*
X131675000Y-77087500D01*
D64*
X126640000Y-93572500D02*
X124590000Y-91522500D01*
X134789850Y-56721150D02*
X134806950Y-56704050D01*
D71*
X97253750Y-98097500D02*
X100891250Y-98097500D01*
D64*
X127927450Y-38133550D02*
X126777450Y-38133550D01*
X122580000Y-130797500D02*
X121055000Y-129272500D01*
X120370000Y-120780000D02*
X120370000Y-121725000D01*
D67*
X123575000Y-76587500D02*
X123575000Y-77577500D01*
D65*
X89125000Y-72255000D02*
X88137500Y-71267500D01*
D68*
X71150000Y-47067500D02*
X69675000Y-45592500D01*
D69*
X150275000Y-129012500D02*
X150275000Y-132937500D01*
D64*
X90105872Y-124972772D02*
X90105872Y-129199400D01*
X112290000Y-105947500D02*
X113865000Y-107522500D01*
X133050000Y-123675000D02*
X131900000Y-123675000D01*
X135690000Y-98572500D02*
X135690000Y-99072500D01*
D67*
X132675000Y-80737500D02*
X132675000Y-77087500D01*
D71*
X102641250Y-69522500D02*
X104816250Y-67347500D01*
D64*
X116068450Y-37054050D02*
X117768450Y-35354050D01*
X122714450Y-56121550D02*
X122714450Y-55136550D01*
X114780000Y-121847500D02*
X113230000Y-121847500D01*
D66*
X134875000Y-73887500D02*
X136125000Y-73887500D01*
D64*
X121640000Y-122587500D02*
X121080000Y-123147500D01*
D71*
X100891250Y-60022500D02*
X100891250Y-56822500D01*
D67*
X126075000Y-71337500D02*
X124125000Y-69387500D01*
X120075000Y-78837500D02*
X122075000Y-78837500D01*
D68*
X71900000Y-67817500D02*
X71900000Y-95917500D01*
D63*
X135190000Y-105922500D02*
X133440000Y-107672500D01*
D64*
X134065000Y-110547500D02*
X132965000Y-110547500D01*
D68*
X68535000Y-62842500D02*
X71300000Y-62842500D01*
D64*
X118465000Y-98472500D02*
X118440000Y-98497500D01*
X127770000Y-92772500D02*
X124620000Y-89622500D01*
D69*
X155925000Y-129025000D02*
X155925000Y-132950000D01*
D64*
X82450000Y-116361900D02*
X82450000Y-119687500D01*
D67*
X121125000Y-69387500D02*
X119425000Y-67687500D01*
D64*
X133590000Y-89672500D02*
X133540000Y-89622500D01*
D68*
X73915000Y-66852500D02*
X75771500Y-66852500D01*
D71*
X103566250Y-74262500D02*
X102141250Y-75687500D01*
D64*
X131655250Y-50996350D02*
X136153650Y-50996350D01*
X134802450Y-54808550D02*
X134789850Y-54821150D01*
X141113950Y-44558550D02*
X139757450Y-44558550D01*
D63*
X133890000Y-108322500D02*
X128690000Y-108322500D01*
D67*
X133675000Y-81307500D02*
X130695000Y-84287500D01*
D63*
X81195500Y-68132500D02*
X82415000Y-68132500D01*
D64*
X117880000Y-121675000D02*
X117830000Y-121725000D01*
X132522950Y-40079050D02*
X141343450Y-40079050D01*
X121039850Y-53496150D02*
X121039850Y-56421150D01*
D68*
X75771500Y-62372500D02*
X73355000Y-62372500D01*
D64*
X92502500Y-122494400D02*
X97725872Y-127717772D01*
D63*
X139453950Y-42018550D02*
X139757450Y-42018550D01*
X131655250Y-46195750D02*
X135140250Y-46195750D01*
D64*
X131900000Y-123675000D02*
X131127500Y-124447500D01*
D69*
X152625000Y-112950000D02*
X152675000Y-112900000D01*
D64*
X131655250Y-49396150D02*
X133189850Y-49396150D01*
X125890000Y-104022500D02*
X126940000Y-102972500D01*
X122940000Y-92972500D02*
X120350000Y-92972500D01*
D63*
X80400000Y-51217500D02*
X79675000Y-51942500D01*
D71*
X100891250Y-94147500D02*
X103091250Y-91947500D01*
D65*
X64712500Y-119137500D02*
X58525000Y-119137500D01*
D64*
X92502500Y-116346600D02*
X92502500Y-118965000D01*
D65*
X89162500Y-77205000D02*
X89325000Y-77367500D01*
D63*
X132790000Y-102872500D02*
X132790000Y-104822500D01*
D69*
X146925000Y-126537500D02*
X146925000Y-123862500D01*
D66*
X133235000Y-84287500D02*
X134875000Y-82647500D01*
D64*
X91232500Y-122949400D02*
X95185872Y-126902772D01*
X142283450Y-47929050D02*
X139783450Y-47929050D01*
X119887500Y-74487500D02*
X119887500Y-71700000D01*
X138468450Y-46954050D02*
X137581950Y-46954050D01*
X116560000Y-127225000D02*
X116560000Y-129847500D01*
X84895000Y-126790272D02*
X82485872Y-129199400D01*
D68*
X72920000Y-65572500D02*
X71150000Y-67342500D01*
D64*
X136790000Y-93547500D02*
X136790000Y-94372500D01*
D71*
X100891250Y-40922500D02*
X104216250Y-44247500D01*
D67*
X116070000Y-68237500D02*
X114120000Y-66287500D01*
D64*
X142793450Y-40079050D02*
X142793450Y-46779050D01*
D65*
X89162500Y-72417500D02*
X89162500Y-77205000D01*
D63*
X122805000Y-108757500D02*
X122805000Y-110547500D01*
D64*
X121568450Y-38904050D02*
X120718450Y-39754050D01*
X132714850Y-54821150D02*
X131077450Y-56458550D01*
D69*
X154125000Y-129825000D02*
X154125000Y-132950000D01*
D64*
X120174450Y-49396150D02*
X117760550Y-49396150D01*
D67*
X130275000Y-79787500D02*
X128675000Y-79787500D01*
D64*
X119488150Y-48608750D02*
X120174450Y-48608750D01*
X124405000Y-128597500D02*
X121130000Y-128597500D01*
D65*
X140362500Y-77687500D02*
X140362500Y-80150000D01*
D67*
X123075000Y-84287500D02*
X124925000Y-82437500D01*
D65*
X142225000Y-82637500D02*
X143287500Y-81575000D01*
D71*
X100866250Y-40947500D02*
X100891250Y-40922500D01*
D64*
X93772500Y-119265000D02*
X93350000Y-119687500D01*
X138290000Y-89947500D02*
X138690000Y-90347500D01*
X124008450Y-46979050D02*
X124008450Y-51479050D01*
D63*
X134440000Y-111972500D02*
X114640000Y-111972500D01*
X133590000Y-102872500D02*
X133590000Y-105222500D01*
D69*
X147575000Y-129387500D02*
X148075000Y-128887500D01*
D63*
X133040000Y-106972500D02*
X124590000Y-106972500D01*
X85075000Y-60692500D02*
X85075000Y-63405000D01*
D66*
X135700000Y-76312500D02*
X135700000Y-84212500D01*
D63*
X128690000Y-108322500D02*
X127885000Y-109127500D01*
X134990000Y-96422500D02*
X134990000Y-99422500D01*
X135977450Y-45358550D02*
X135977450Y-43026800D01*
D64*
X123858450Y-52404050D02*
X123133450Y-51679050D01*
X141002450Y-54783550D02*
X140956950Y-54829050D01*
D63*
X83000000Y-68717500D02*
X83000000Y-99417500D01*
D64*
X113090000Y-88822500D02*
X113090000Y-90672500D01*
D65*
X117525000Y-80562500D02*
X116315000Y-81772500D01*
D68*
X71300000Y-62842500D02*
X72110000Y-63652500D01*
D67*
X120535000Y-84287500D02*
X121885000Y-82937500D01*
D65*
X140125000Y-82637500D02*
X138525000Y-81037500D01*
D68*
X70475000Y-79367500D02*
X70475000Y-67017500D01*
D65*
X80400000Y-47392500D02*
X80400000Y-36917500D01*
D68*
X69705000Y-80137500D02*
X70475000Y-79367500D01*
D71*
X99091250Y-62347500D02*
X97278750Y-62347500D01*
D64*
X89962500Y-117575000D02*
X89950000Y-117587500D01*
X131990000Y-94372500D02*
X131990000Y-92422500D01*
D69*
X147000000Y-110162500D02*
X147000000Y-107487500D01*
D64*
X120174450Y-50996350D02*
X116286150Y-50996350D01*
D63*
X135485000Y-110927500D02*
X134440000Y-111972500D01*
D69*
X148618450Y-60429050D02*
X149243450Y-61054050D01*
D63*
X135190000Y-96222500D02*
X134990000Y-96422500D01*
D64*
X131689850Y-59070950D02*
X131689850Y-59583550D01*
D67*
X129805000Y-82637500D02*
X128155000Y-84287500D01*
D63*
X139690000Y-110927500D02*
X135485000Y-110927500D01*
D64*
X131268450Y-41141550D02*
X131268450Y-42018550D01*
X117760550Y-49396150D02*
X115283450Y-46919050D01*
D70*
X126852500Y-117622500D02*
X127852500Y-116622500D01*
D64*
X78640000Y-117572500D02*
X78625000Y-117587500D01*
X129902650Y-53121150D02*
X129902650Y-55136550D01*
X117830000Y-127225000D02*
X117830000Y-128577500D01*
X128914850Y-53121150D02*
X129902650Y-53121150D01*
D69*
X147000000Y-115637500D02*
X146975000Y-115612500D01*
D64*
X143743450Y-46954050D02*
X144012700Y-47223300D01*
X138290000Y-93247500D02*
X137090000Y-93247500D01*
D71*
X104816250Y-67347500D02*
X105941250Y-67347500D01*
D64*
X138468450Y-46954050D02*
X143743450Y-46954050D01*
D63*
X80400000Y-47392500D02*
X80400000Y-51217500D01*
D65*
X73700000Y-44367500D02*
X73700000Y-36292500D01*
D64*
X117293450Y-44329050D02*
X113143450Y-44329050D01*
D63*
X130425000Y-110547500D02*
X130425000Y-109337500D01*
D71*
X103091250Y-91947500D02*
X103091250Y-76737500D01*
D64*
X113143450Y-44329050D02*
X112518450Y-43704050D01*
D71*
X104216250Y-59062500D02*
X104881250Y-59727500D01*
D63*
X131690000Y-104722500D02*
X116940000Y-104722500D01*
D64*
X127427500Y-122497500D02*
X127427500Y-120547500D01*
D71*
X102316250Y-63312500D02*
X103836250Y-64832500D01*
D64*
X127427500Y-120547500D02*
X126427500Y-119547500D01*
X122590000Y-130797500D02*
X122580000Y-130797500D01*
X125130000Y-129322500D02*
X124405000Y-128597500D01*
D67*
X128675000Y-79787500D02*
X127725000Y-78837500D01*
D70*
X133050000Y-127125000D02*
X130952500Y-129222500D01*
D66*
X130475000Y-71387500D02*
X130675000Y-71587500D01*
D64*
X114940000Y-101372500D02*
X114640000Y-101072500D01*
X138268450Y-39254050D02*
X138668450Y-38854050D01*
X117830000Y-128577500D02*
X120050000Y-130797500D01*
X122258450Y-47779050D02*
X122258450Y-50679050D01*
X79910000Y-116361900D02*
X79910000Y-118277500D01*
D63*
X138468450Y-46954050D02*
X138502450Y-46920050D01*
D68*
X71900000Y-95917500D02*
X70430000Y-97387500D01*
D67*
X126975000Y-75387500D02*
X125475000Y-73887500D01*
D64*
X116068450Y-45189050D02*
X119488150Y-48608750D01*
X145758450Y-49404050D02*
X147158450Y-50804050D01*
X118418450Y-57144050D02*
X115943450Y-59619050D01*
X79965872Y-127591028D02*
X79965872Y-129199400D01*
X140956950Y-54829050D02*
X138958450Y-54829050D01*
X130414850Y-48671150D02*
X130414850Y-52621150D01*
X115943450Y-59619050D02*
X115283450Y-59619050D01*
D67*
X131075000Y-81487500D02*
X132175000Y-80387500D01*
D65*
X58525000Y-116597500D02*
X67835000Y-116597500D01*
X116962500Y-74487500D02*
X117525000Y-75050000D01*
D64*
X121153750Y-51783750D02*
X120174450Y-51783750D01*
X129740000Y-93572500D02*
X126640000Y-93572500D01*
X138240000Y-100622500D02*
X139540000Y-100622500D01*
D69*
X146925000Y-107562500D02*
X147050000Y-107437500D01*
D64*
X142500000Y-72737500D02*
X140300000Y-74937500D01*
D63*
X78550000Y-62992500D02*
X78550000Y-53405000D01*
D64*
X73629400Y-117562500D02*
X68800000Y-117562500D01*
X97725872Y-127717772D02*
X97725872Y-129199400D01*
X122910000Y-122742500D02*
X121655000Y-123997500D01*
D71*
X100891250Y-74887500D02*
X100891250Y-75847500D01*
D64*
X75770000Y-124486900D02*
X72070000Y-124486900D01*
D65*
X80225000Y-35417500D02*
X80225000Y-36942500D01*
D64*
X84895000Y-120061900D02*
X84895000Y-126790272D01*
D63*
X147725000Y-111362500D02*
X148625000Y-111362500D01*
D68*
X71150000Y-67342500D02*
X71150000Y-80867500D01*
D63*
X75887500Y-59680000D02*
X76612500Y-59680000D01*
D64*
X131655250Y-52596550D02*
X134140450Y-52596550D01*
X78640000Y-116361900D02*
X78640000Y-117572500D01*
D63*
X80825000Y-57867500D02*
X80825000Y-59117500D01*
D68*
X69675000Y-45592500D02*
X68560000Y-45592500D01*
D63*
X82415000Y-68132500D02*
X83000000Y-68717500D01*
D67*
X123585000Y-81127500D02*
X123025000Y-81687500D01*
D64*
X121080000Y-123147500D02*
X116080000Y-123147500D01*
X129443450Y-42229050D02*
X129443450Y-40429050D01*
D71*
X103266250Y-52847500D02*
X103266250Y-61312500D01*
D64*
X139540000Y-100622500D02*
X139540000Y-102222500D01*
X121927050Y-53833950D02*
X122639850Y-53121150D01*
D71*
X99078750Y-33747500D02*
X97266250Y-33747500D01*
D64*
X124008450Y-52404050D02*
X123858450Y-52404050D01*
D67*
X129975000Y-73887500D02*
X128125000Y-73887500D01*
D64*
X134806950Y-56704050D02*
X136883450Y-56704050D01*
X120702500Y-120447500D02*
X120370000Y-120780000D01*
D67*
X136875000Y-68387500D02*
X135725000Y-68387500D01*
D64*
X140790000Y-99022500D02*
X140965000Y-99197500D01*
D66*
X134875000Y-75887500D02*
X135275000Y-75887500D01*
D67*
X129975000Y-74387500D02*
X127775000Y-74387500D01*
D64*
X93772500Y-116346600D02*
X93772500Y-119265000D01*
D67*
X116725000Y-66287500D02*
X116660000Y-66287500D01*
D63*
X154950000Y-112050000D02*
X154950000Y-112900000D01*
D64*
X142968450Y-46954050D02*
X143743450Y-46954050D01*
X116240000Y-91402500D02*
X114460000Y-89622500D01*
D63*
X142540000Y-99672500D02*
X142540000Y-101622500D01*
D69*
X155050000Y-129475000D02*
X155050000Y-132925000D01*
D71*
X104881250Y-59727500D02*
X105941250Y-59727500D01*
X97253750Y-88572500D02*
X100891250Y-88572500D01*
D68*
X69450000Y-47592500D02*
X70475000Y-48617500D01*
D67*
X131175000Y-72187500D02*
X131175000Y-71137500D01*
D64*
X131077450Y-56458550D02*
X129402450Y-56458550D01*
X122080000Y-90162500D02*
X122080000Y-89622500D01*
D63*
X127885000Y-109127500D02*
X127885000Y-110547500D01*
D64*
X95042500Y-121147200D02*
X95042500Y-119595000D01*
D63*
X76675000Y-52892500D02*
X76675000Y-54192500D01*
D64*
X131190000Y-93022500D02*
X130940000Y-92772500D01*
X127390000Y-99672500D02*
X124040000Y-99672500D01*
D65*
X74750000Y-50455000D02*
X74750000Y-47992500D01*
D67*
X128325000Y-82437500D02*
X129275000Y-81487500D01*
D63*
X136985700Y-42018550D02*
X137217450Y-42018550D01*
X75771500Y-68772500D02*
X75771500Y-72533500D01*
D64*
X141720950Y-50654050D02*
X144508450Y-50654050D01*
X128040000Y-99022500D02*
X127390000Y-99672500D01*
D71*
X103091250Y-76737500D02*
X104861250Y-74967500D01*
X105941250Y-69887500D02*
X104791250Y-69887500D01*
D63*
X76975000Y-60042500D02*
X76975000Y-61392500D01*
D64*
X126502500Y-120972500D02*
X125977500Y-120447500D01*
X130752450Y-58133550D02*
X131689850Y-59070950D01*
D67*
X119895000Y-82387500D02*
X123425000Y-82387500D01*
D64*
X92502500Y-121147200D02*
X92502500Y-122494400D01*
D67*
X125475000Y-71687500D02*
X123875000Y-70087500D01*
X126820000Y-66782500D02*
X126820000Y-66287500D01*
D64*
X137217450Y-45843550D02*
X137217450Y-44558550D01*
X137090000Y-93247500D02*
X136790000Y-93547500D01*
D63*
X81195500Y-63652500D02*
X79210000Y-63652500D01*
D69*
X146703450Y-61054050D02*
X149243450Y-61054050D01*
D67*
X124925000Y-82437500D02*
X128325000Y-82437500D01*
D64*
X120174450Y-53383950D02*
X120927650Y-53383950D01*
D63*
X131990000Y-102872500D02*
X131990000Y-104422500D01*
D67*
X134175000Y-71187500D02*
X134575000Y-70787500D01*
D63*
X73100000Y-59792500D02*
X74400000Y-61092500D01*
D67*
X123275000Y-67837500D02*
X121740000Y-66302500D01*
X133675000Y-77087500D02*
X133675000Y-81307500D01*
D64*
X130127450Y-45158550D02*
X128302450Y-45158550D01*
D71*
X97253750Y-50472500D02*
X100891250Y-50472500D01*
D67*
X128125000Y-73887500D02*
X127325000Y-73087500D01*
D71*
X102316250Y-72362500D02*
X102316250Y-73462500D01*
D63*
X116940000Y-104722500D02*
X115185000Y-106477500D01*
D64*
X83720000Y-114967500D02*
X83720000Y-116361900D01*
X79910000Y-121162500D02*
X79910000Y-123771900D01*
X138190000Y-102222500D02*
X138190000Y-106422500D01*
D66*
X129975000Y-71387500D02*
X130475000Y-71387500D01*
D71*
X104216250Y-44247500D02*
X104216250Y-59062500D01*
D64*
X119100000Y-120325000D02*
X119100000Y-121725000D01*
X131655250Y-45408350D02*
X133827650Y-45408350D01*
X134390000Y-94372500D02*
X134390000Y-88622500D01*
X139540000Y-102222500D02*
X138190000Y-102222500D01*
D67*
X130875000Y-80887500D02*
X131675000Y-80087500D01*
D64*
X140533450Y-57691550D02*
X139395950Y-57691550D01*
X134715050Y-56721150D02*
X132815050Y-54821150D01*
D67*
X129975000Y-74887500D02*
X127375000Y-74887500D01*
D64*
X130477250Y-48608750D02*
X130414850Y-48671150D01*
X129443450Y-40429050D02*
X129788950Y-40083550D01*
X122940000Y-95422500D02*
X121415000Y-95422500D01*
X134140450Y-52596550D02*
X134802450Y-53258550D01*
D71*
X104221250Y-62267500D02*
X105941250Y-62267500D01*
D69*
X152625000Y-121125000D02*
X152600000Y-121100000D01*
D64*
X124365000Y-102272500D02*
X123465000Y-101372500D01*
X130415250Y-52596550D02*
X130414850Y-52596150D01*
D63*
X142065000Y-99197500D02*
X142540000Y-99672500D01*
D64*
X128477450Y-41820050D02*
X128477450Y-41508550D01*
D71*
X99091250Y-52797500D02*
X97278750Y-52797500D01*
D64*
X122230000Y-124897500D02*
X111527500Y-124897500D01*
D67*
X124425000Y-68637500D02*
X121550000Y-68637500D01*
D63*
X149325000Y-106537500D02*
X149325000Y-107437500D01*
X132590000Y-106222500D02*
X120740000Y-106222500D01*
D64*
X125227450Y-41008550D02*
X125227450Y-39958550D01*
D63*
X120740000Y-106222500D02*
X120265000Y-106697500D01*
D64*
X69805872Y-126751028D02*
X69805872Y-129199400D01*
D67*
X133675000Y-72187500D02*
X133675000Y-70687500D01*
D64*
X129740000Y-99022500D02*
X128040000Y-99022500D01*
D67*
X133675000Y-70687500D02*
X134175000Y-70187500D01*
D63*
X137490000Y-101422500D02*
X138240000Y-101422500D01*
D66*
X136625000Y-76637500D02*
X136625000Y-77587500D01*
D67*
X122325000Y-76737500D02*
X123175000Y-75887500D01*
D69*
X147025000Y-110187500D02*
X147000000Y-110162500D01*
D64*
X126902650Y-45408350D02*
X120174450Y-45408350D01*
X129740000Y-99822500D02*
X128690000Y-99822500D01*
X119008450Y-38854050D02*
X118958450Y-38904050D01*
X128302450Y-56608550D02*
X128952450Y-57258550D01*
X122190000Y-92272500D02*
X119540000Y-89622500D01*
D65*
X82950000Y-40417500D02*
X82950000Y-47317500D01*
D64*
X126427450Y-38483550D02*
X126427450Y-39958550D01*
D68*
X73355000Y-62372500D02*
X71150000Y-60167500D01*
D67*
X133175000Y-72187500D02*
X133175000Y-73887500D01*
D64*
X148543450Y-56729050D02*
X148618450Y-56654050D01*
X116007950Y-50183550D02*
X115283450Y-49459050D01*
X73270000Y-125711900D02*
X72345872Y-126636028D01*
X128118450Y-42179050D02*
X128468450Y-41829050D01*
D67*
X133825000Y-69587500D02*
X135725000Y-69587500D01*
D64*
X133590000Y-94372500D02*
X133590000Y-89672500D01*
X121080000Y-125722500D02*
X113777500Y-125722500D01*
X126777450Y-38133550D02*
X126427450Y-38483550D01*
X72070000Y-124486900D02*
X69805872Y-126751028D01*
X76220000Y-125711900D02*
X73270000Y-125711900D01*
D63*
X135990000Y-106222500D02*
X133890000Y-108322500D01*
D64*
X88692500Y-121147200D02*
X88692500Y-123559400D01*
X122910000Y-121725000D02*
X122910000Y-122742500D01*
X131655250Y-50183550D02*
X134352450Y-50183550D01*
D67*
X132175000Y-72187500D02*
X132175000Y-66562500D01*
D64*
X138240000Y-94472500D02*
X140790000Y-91922500D01*
D63*
X118990000Y-105472500D02*
X117725000Y-106737500D01*
D64*
X120174450Y-46195750D02*
X119160150Y-46195750D01*
X138240000Y-97422500D02*
X136390000Y-97422500D01*
D71*
X102316250Y-61472500D02*
X102316250Y-63312500D01*
D67*
X121740000Y-66302500D02*
X121740000Y-66287500D01*
D66*
X134875000Y-76387500D02*
X134875000Y-79172500D01*
D63*
X133590000Y-105222500D02*
X132590000Y-106222500D01*
D67*
X125615000Y-84287500D02*
X126965000Y-82937500D01*
D64*
X128302450Y-45158550D02*
X127265250Y-46195750D01*
X119160150Y-46195750D02*
X117293450Y-44329050D01*
D69*
X152650000Y-110175000D02*
X152650000Y-107500000D01*
X153725000Y-128900000D02*
X154475000Y-128900000D01*
X147575000Y-129787500D02*
X147575000Y-129387500D01*
D64*
X136390000Y-97422500D02*
X135740000Y-96772500D01*
D67*
X121885000Y-82937500D02*
X123725000Y-82937500D01*
D68*
X68560000Y-47592500D02*
X69450000Y-47592500D01*
D64*
X77370000Y-121162500D02*
X77370000Y-122886900D01*
X128452500Y-127247500D02*
X125450000Y-124245000D01*
X120174450Y-52596550D02*
X119150950Y-52596550D01*
D67*
X133175000Y-77087500D02*
X133175000Y-81137500D01*
D64*
X89962500Y-121147200D02*
X89962500Y-123304400D01*
X110217500Y-123997500D02*
X110052500Y-123832500D01*
D63*
X135990000Y-92347500D02*
X137040000Y-92347500D01*
D64*
X132177450Y-57258550D02*
X132714850Y-56721150D01*
X141158450Y-56254050D02*
X137383450Y-56254050D01*
D63*
X117125000Y-69575000D02*
X119412500Y-69575000D01*
D67*
X129575000Y-82037500D02*
X131375000Y-82037500D01*
D64*
X125130000Y-130797500D02*
X125130000Y-129322500D01*
X121927050Y-43655750D02*
X121927050Y-42085450D01*
X126740000Y-98822500D02*
X124840000Y-98822500D01*
D68*
X72560000Y-64932500D02*
X75771500Y-64932500D01*
D67*
X126075000Y-73587500D02*
X126075000Y-71337500D01*
X133175000Y-72187500D02*
X133175000Y-70237500D01*
D69*
X147700000Y-127962500D02*
X149225000Y-127962500D01*
D64*
X143808450Y-53604050D02*
X141158450Y-56254050D01*
D63*
X135190000Y-94372500D02*
X135190000Y-96222500D01*
X82475000Y-60117500D02*
X82475000Y-60842500D01*
D64*
X118465000Y-95047500D02*
X118465000Y-98472500D01*
D69*
X147575000Y-131012500D02*
X147575000Y-132937500D01*
D63*
X83225000Y-67492500D02*
X83600000Y-67117500D01*
D65*
X143287500Y-75825000D02*
X143875000Y-75237500D01*
X65725000Y-115200000D02*
X68587500Y-115200000D01*
D68*
X70475000Y-67017500D02*
X72560000Y-64932500D01*
D64*
X117880000Y-119250000D02*
X117880000Y-121675000D01*
X132518450Y-40083550D02*
X132522950Y-40079050D01*
X127515050Y-44795950D02*
X126902650Y-45408350D01*
X129658450Y-48854050D02*
X129658450Y-52329050D01*
D67*
X124725000Y-81937500D02*
X127975000Y-81937500D01*
D64*
X148618450Y-56654050D02*
X147158450Y-55194050D01*
D68*
X75771500Y-65572500D02*
X72920000Y-65572500D01*
D64*
X133540000Y-89622500D02*
X132240000Y-89622500D01*
X84950000Y-115237500D02*
X84950000Y-118362500D01*
X127340000Y-98222500D02*
X126740000Y-98822500D01*
X121927050Y-42085450D02*
X122533450Y-41479050D01*
D63*
X75500000Y-59292500D02*
X75887500Y-59680000D01*
D71*
X99091250Y-43272500D02*
X97278750Y-43272500D01*
D64*
X110052500Y-128912500D02*
X112967500Y-128912500D01*
D67*
X117995000Y-84287500D02*
X119895000Y-82387500D01*
D64*
X86152500Y-128072772D02*
X85025872Y-129199400D01*
X120350000Y-92972500D02*
X117000000Y-89622500D01*
X88692500Y-116346600D02*
X88692500Y-114955000D01*
X140570950Y-49504050D02*
X141720950Y-50654050D01*
D67*
X127375000Y-74887500D02*
X126075000Y-73587500D01*
D69*
X146950000Y-121087500D02*
X146950000Y-118412500D01*
D64*
X92502500Y-118965000D02*
X92525000Y-118987500D01*
X129368450Y-46244050D02*
X128633450Y-46979050D01*
X137040000Y-89947500D02*
X138290000Y-89947500D01*
X127515050Y-57196150D02*
X128452450Y-58133550D01*
D72*
X138550000Y-70000000D02*
X140875000Y-70000000D01*
D71*
X100891250Y-69522500D02*
X102641250Y-69522500D01*
X102316250Y-73462500D02*
X100891250Y-74887500D01*
X105941250Y-72427500D02*
X104501250Y-72427500D01*
D68*
X72550000Y-68217500D02*
X73915000Y-66852500D01*
D63*
X82250000Y-53392500D02*
X82087500Y-53392500D01*
D64*
X119100000Y-128392500D02*
X119100000Y-127225000D01*
X138240000Y-95822500D02*
X138240000Y-96622500D01*
X121883450Y-46979050D02*
X121066550Y-47795950D01*
D63*
X130425000Y-109337500D02*
X130790000Y-108972500D01*
X138502450Y-46920050D02*
X138502450Y-42970050D01*
D71*
X103566250Y-73362500D02*
X103566250Y-74262500D01*
D63*
X79325000Y-62617500D02*
X79325000Y-55092500D01*
D64*
X129700000Y-90282500D02*
X129700000Y-89622500D01*
D67*
X131175000Y-79787500D02*
X131175000Y-77087500D01*
D64*
X120927650Y-53383950D02*
X121039850Y-53496150D01*
D67*
X121550000Y-68637500D02*
X119200000Y-66287500D01*
D63*
X82225000Y-61092500D02*
X81195500Y-61092500D01*
D64*
X95875000Y-119142500D02*
X95885000Y-119152500D01*
D67*
X134575000Y-70787500D02*
X135725000Y-70787500D01*
D64*
X143875000Y-72737500D02*
X142500000Y-72737500D01*
X122639850Y-53121150D02*
X128914850Y-53121150D01*
D63*
X134390000Y-105622500D02*
X133040000Y-106972500D01*
D64*
X128690000Y-99822500D02*
X127990000Y-100522500D01*
X125977500Y-120447500D02*
X120702500Y-120447500D01*
X120174450Y-50183550D02*
X116007950Y-50183550D01*
D66*
X134175000Y-77087500D02*
X134175000Y-77987500D01*
D67*
X127775000Y-74387500D02*
X126725000Y-73337500D01*
X122325000Y-78587500D02*
X122325000Y-76737500D01*
D71*
X100891250Y-40922500D02*
X100891250Y-37747500D01*
D64*
X129740000Y-95822500D02*
X129740000Y-93572500D01*
D71*
X97253750Y-60022500D02*
X100891250Y-60022500D01*
D63*
X73100000Y-57542500D02*
X73100000Y-59792500D01*
D70*
X128327500Y-129222500D02*
X126330000Y-127225000D01*
X122752500Y-117622500D02*
X126852500Y-117622500D01*
D67*
X128675000Y-80337500D02*
X130625000Y-80337500D01*
D64*
X128302450Y-43655750D02*
X128302450Y-45158550D01*
D69*
X153225000Y-131025000D02*
X153225000Y-132950000D01*
D64*
X130427450Y-48558950D02*
X130427450Y-45458350D01*
D65*
X79275000Y-34467500D02*
X80225000Y-35417500D01*
D64*
X125914850Y-43655750D02*
X125914850Y-41695950D01*
X87422500Y-129056028D02*
X87565872Y-129199400D01*
X118989850Y-59507650D02*
X118989850Y-59583550D01*
X117768450Y-35354050D02*
X117768450Y-34704050D01*
D63*
X135340000Y-99772500D02*
X135990000Y-99772500D01*
D67*
X123775000Y-76387500D02*
X123575000Y-76587500D01*
D64*
X95885000Y-119152500D02*
X103500000Y-119152500D01*
D68*
X72550000Y-97317500D02*
X72550000Y-68217500D01*
D63*
X135990000Y-94372500D02*
X135990000Y-92347500D01*
D67*
X131675000Y-70837500D02*
X129360000Y-68522500D01*
D64*
X131268450Y-44123300D02*
X131268450Y-42018550D01*
X122714450Y-54146550D02*
X122714450Y-55136550D01*
D63*
X81025000Y-53392500D02*
X82250000Y-53392500D01*
D71*
X97253750Y-79047500D02*
X100891250Y-79047500D01*
D65*
X77825000Y-37117500D02*
X77825000Y-43942500D01*
D63*
X137490000Y-105772500D02*
X137490000Y-101422500D01*
D69*
X152600000Y-118425000D02*
X152650000Y-118375000D01*
D64*
X122533450Y-38904050D02*
X121568450Y-38904050D01*
X138690000Y-90347500D02*
X138690000Y-92847500D01*
D69*
X154875000Y-127975000D02*
X155925000Y-129025000D01*
D64*
X125127450Y-58525950D02*
X124069850Y-59583550D01*
X123527250Y-55136550D02*
X123527250Y-56333750D01*
X79910000Y-123771900D02*
X76670000Y-127011900D01*
X141577450Y-44095050D02*
X141113950Y-44558550D01*
X131190000Y-94372500D02*
X131190000Y-93022500D01*
D63*
X124875000Y-72187500D02*
X124875000Y-75037500D01*
D64*
X126940000Y-102972500D02*
X126940000Y-102272500D01*
X121927050Y-55136550D02*
X121927050Y-53833950D01*
X81180000Y-118967500D02*
X81200000Y-118987500D01*
D66*
X136125000Y-73887500D02*
X137375000Y-72637500D01*
D64*
X70294400Y-121162500D02*
X64725872Y-126731028D01*
D65*
X82950000Y-47317500D02*
X83075000Y-47442500D01*
D71*
X104861250Y-74967500D02*
X105941250Y-74967500D01*
D66*
X135475000Y-74887500D02*
X138175000Y-77587500D01*
D71*
X100891250Y-88572500D02*
X100891250Y-85372500D01*
D64*
X122414850Y-56421150D02*
X122714450Y-56121550D01*
D68*
X73505000Y-66212500D02*
X71900000Y-67817500D01*
D69*
X152575000Y-126550000D02*
X152575000Y-123875000D01*
D64*
X122964850Y-53896150D02*
X122714450Y-54146550D01*
D66*
X136825000Y-74387500D02*
X137375000Y-74937500D01*
D64*
X78640000Y-121162500D02*
X78640000Y-123291900D01*
X95485000Y-119152500D02*
X95885000Y-119152500D01*
D67*
X127625000Y-81387500D02*
X128675000Y-80337500D01*
D66*
X134875000Y-74387500D02*
X136825000Y-74387500D01*
D64*
X123440000Y-91522500D02*
X122080000Y-90162500D01*
X143758450Y-48979050D02*
X143758450Y-49404050D01*
X124040000Y-99672500D02*
X124040000Y-94072500D01*
D68*
X68485000Y-99387500D02*
X70480000Y-99387500D01*
D64*
X74170000Y-119536900D02*
X69800600Y-119536900D01*
X138690000Y-92847500D02*
X138290000Y-93247500D01*
D67*
X132175000Y-66562500D02*
X131900000Y-66287500D01*
D64*
X74870000Y-127011900D02*
X74870000Y-129183528D01*
X141568450Y-36729050D02*
X141468450Y-36629050D01*
X134352450Y-50183550D02*
X135477450Y-50183550D01*
D67*
X123725000Y-82937500D02*
X124725000Y-81937500D01*
D64*
X136153650Y-50996350D02*
X137645950Y-49504050D01*
X141568450Y-38854050D02*
X142793450Y-40079050D01*
D67*
X133175000Y-81137500D02*
X131675000Y-82637500D01*
D64*
X138240000Y-99822500D02*
X140140000Y-99822500D01*
D67*
X129360000Y-68522500D02*
X129360000Y-66287500D01*
D64*
X87422500Y-121147200D02*
X87422500Y-129056028D01*
D63*
X140965000Y-99197500D02*
X142065000Y-99197500D01*
D71*
X104501250Y-72427500D02*
X103566250Y-73362500D01*
D64*
X122258450Y-50679050D02*
X121153750Y-51783750D01*
D63*
X154275000Y-111375000D02*
X154950000Y-112050000D01*
D64*
X82450000Y-121162500D02*
X82450000Y-125106900D01*
X119980000Y-129272500D02*
X119100000Y-128392500D01*
X126702250Y-42108750D02*
X127627450Y-41183550D01*
D65*
X117525000Y-75050000D02*
X117525000Y-77987500D01*
D64*
X130590000Y-91172500D02*
X129700000Y-90282500D01*
D71*
X103266250Y-61312500D02*
X104221250Y-62267500D01*
D64*
X115468450Y-39029050D02*
X118833450Y-39029050D01*
D72*
X140875000Y-67075000D02*
X145587500Y-67075000D01*
D63*
X125345000Y-108667500D02*
X125345000Y-110547500D01*
D64*
X122140000Y-97372500D02*
X121015000Y-98497500D01*
D69*
X152675000Y-110200000D02*
X152650000Y-110175000D01*
D64*
X128477450Y-38683550D02*
X127927450Y-38133550D01*
X120177500Y-117622500D02*
X118315000Y-117622500D01*
D66*
X130675000Y-71587500D02*
X130675000Y-72187500D01*
D64*
X133690000Y-87922500D02*
X113990000Y-87922500D01*
D69*
X154475000Y-128900000D02*
X155050000Y-129475000D01*
D64*
X93772500Y-122239400D02*
X100265872Y-128732772D01*
D67*
X127925000Y-72637500D02*
X127925000Y-69932500D01*
D64*
X134802450Y-53258550D02*
X134802450Y-54808550D01*
D65*
X77625000Y-36917500D02*
X77650000Y-36942500D01*
D64*
X137564650Y-51783750D02*
X137653950Y-51873050D01*
D71*
X102141250Y-83297500D02*
X100891250Y-84547500D01*
D69*
X146925000Y-123862500D02*
X146975000Y-123812500D01*
D65*
X73700000Y-36292500D02*
X75525000Y-34467500D01*
D64*
X129914850Y-53121150D02*
X128914850Y-53121150D01*
D63*
X149300000Y-112037500D02*
X149300000Y-112887500D01*
D64*
X128452450Y-58133550D02*
X130752450Y-58133550D01*
D63*
X135990000Y-102872500D02*
X135990000Y-106222500D01*
D64*
X74830000Y-121162500D02*
X70294400Y-121162500D01*
D65*
X143287500Y-81575000D02*
X143287500Y-77687500D01*
D64*
X121815000Y-103347500D02*
X122490000Y-104022500D01*
X91232500Y-121147200D02*
X91232500Y-122949400D01*
D71*
X100891250Y-84547500D02*
X100891250Y-85372500D01*
D65*
X142225000Y-82637500D02*
X140125000Y-82637500D01*
D71*
X100891250Y-79047500D02*
X100891250Y-75847500D01*
D67*
X130675000Y-77087500D02*
X130675000Y-79387500D01*
D64*
X112543450Y-39029050D02*
X112543450Y-42554050D01*
D65*
X77650000Y-36942500D02*
X77825000Y-37117500D01*
D72*
X142637500Y-68237500D02*
X143875000Y-68237500D01*
D64*
X126702250Y-43655750D02*
X126702250Y-42108750D01*
D67*
X134175000Y-70187500D02*
X136875000Y-70187500D01*
X130675000Y-79387500D02*
X130275000Y-79787500D01*
X119175000Y-68237500D02*
X116070000Y-68237500D01*
D65*
X138525000Y-81037500D02*
X138525000Y-77587500D01*
D64*
X134789850Y-54821150D02*
X134797750Y-54829050D01*
D67*
X123025000Y-81687500D02*
X120375000Y-81687500D01*
D64*
X116080000Y-123147500D02*
X114780000Y-121847500D01*
X133827650Y-45408350D02*
X134677450Y-44558550D01*
X140140000Y-99822500D02*
X140640000Y-100322500D01*
D65*
X77825000Y-49705000D02*
X78575000Y-50455000D01*
D64*
X75520000Y-123086900D02*
X70770000Y-123086900D01*
X77370000Y-122886900D02*
X75770000Y-124486900D01*
X140640000Y-100322500D02*
X140640000Y-101622500D01*
X127515050Y-42782450D02*
X128477450Y-41820050D01*
X120370000Y-127837500D02*
X120370000Y-127225000D01*
X122558450Y-38879050D02*
X122533450Y-38904050D01*
X120718450Y-39754050D02*
X120718450Y-42304050D01*
X118833450Y-39029050D02*
X118958450Y-38904050D01*
X84950000Y-118362500D02*
X83720000Y-119592500D01*
X119877500Y-119547500D02*
X119100000Y-120325000D01*
D63*
X84150000Y-100567500D02*
X84150000Y-101132500D01*
D67*
X121025000Y-70087500D02*
X119175000Y-68237500D01*
D64*
X112518450Y-43704050D02*
X112518450Y-42579050D01*
D67*
X126725000Y-70937500D02*
X124425000Y-68637500D01*
D71*
X100891250Y-50472500D02*
X103266250Y-52847500D01*
X102141250Y-75687500D02*
X102141250Y-83297500D01*
D63*
X77800000Y-63367500D02*
X78725000Y-64292500D01*
D65*
%TO.N,gnd*%
X86650000Y-101132500D02*
X86675000Y-101157500D01*
D70*
X105016250Y-101562500D02*
X105016250Y-83512500D01*
D64*
X129502500Y-122047500D02*
X129502500Y-121697500D01*
D71*
X99091250Y-74722500D02*
X100891250Y-72922500D01*
D64*
X113230000Y-117550000D02*
X113230000Y-118897500D01*
D70*
X96216250Y-47272500D02*
X96216250Y-37747500D01*
D71*
X99091250Y-104422500D02*
X99091250Y-103322500D01*
X99091250Y-56797500D02*
X99091250Y-55697500D01*
D70*
X96216250Y-85372500D02*
X96216250Y-75847500D01*
X99091250Y-94897500D02*
X96241250Y-94897500D01*
D64*
X113230000Y-116082500D02*
X113230000Y-117550000D01*
D70*
X96241250Y-94897500D02*
X96216250Y-94922500D01*
D63*
X74825000Y-60467500D02*
X75756500Y-60467500D01*
X74300000Y-57542500D02*
X74300000Y-59942500D01*
D64*
X110052500Y-118752500D02*
X110052500Y-117397500D01*
D70*
X99091250Y-104422500D02*
X96216250Y-104422500D01*
D65*
X84775000Y-94642500D02*
X86650000Y-96517500D01*
D64*
X116680000Y-119250000D02*
X116680000Y-117450000D01*
D71*
X99091250Y-65197500D02*
X100891250Y-63397500D01*
X100891250Y-63397500D02*
X100891250Y-62322500D01*
D63*
X74300000Y-59942500D02*
X74825000Y-60467500D01*
D64*
X116652500Y-117422500D02*
X113357500Y-117422500D01*
D63*
X73087500Y-55142500D02*
X73087500Y-53417500D01*
D70*
X99091250Y-85372500D02*
X96216250Y-85372500D01*
X96216250Y-107397500D02*
X96641250Y-107822500D01*
X96216250Y-104422500D02*
X96216250Y-94922500D01*
D71*
X100891250Y-72922500D02*
X100891250Y-71847500D01*
D64*
X113540000Y-115772500D02*
X113230000Y-116082500D01*
D71*
X99091250Y-85372500D02*
X99091250Y-84297500D01*
X100891250Y-92022500D02*
X100891250Y-90897500D01*
X99091250Y-37747500D02*
X99091250Y-36647500D01*
D65*
X86650000Y-96517500D02*
X86650000Y-101132500D01*
D64*
X110077500Y-117422500D02*
X110052500Y-117397500D01*
D65*
X78350000Y-98492500D02*
X78512500Y-98330000D01*
D63*
X74300000Y-57542500D02*
X74300000Y-56355000D01*
D71*
X99091250Y-46197500D02*
X100891250Y-44397500D01*
D65*
X84825000Y-85317500D02*
X84775000Y-85367500D01*
D70*
X105016250Y-83512500D02*
X105941250Y-82587500D01*
D64*
X129502500Y-121697500D02*
X129502500Y-121247500D01*
D71*
X100891250Y-53897500D02*
X100891250Y-52797500D01*
X99091250Y-36647500D02*
X100891250Y-34847500D01*
D70*
X99091250Y-75847500D02*
X96216250Y-75847500D01*
X96641250Y-107822500D02*
X101316250Y-107822500D01*
D71*
X99091250Y-55697500D02*
X100891250Y-53897500D01*
X100891250Y-82497500D02*
X100891250Y-81372500D01*
X100891250Y-101522500D02*
X100891250Y-100422500D01*
D65*
X78512500Y-98330000D02*
X78512500Y-72717500D01*
D70*
X101875000Y-104703750D02*
X105016250Y-101562500D01*
D71*
X99091250Y-66322500D02*
X99091250Y-65197500D01*
D70*
X96216250Y-66322500D02*
X96216250Y-56797500D01*
D64*
X113357500Y-117422500D02*
X113230000Y-117550000D01*
D70*
X101316250Y-107822500D02*
X101875000Y-107263750D01*
D71*
X100891250Y-34847500D02*
X100891250Y-33747500D01*
D70*
X96216250Y-94922500D02*
X96216250Y-85372500D01*
D64*
X110052500Y-117397500D02*
X110052500Y-116212500D01*
D63*
X74300000Y-56355000D02*
X73087500Y-55142500D01*
D65*
X84775000Y-85367500D02*
X84775000Y-94642500D01*
D71*
X99091250Y-84297500D02*
X100891250Y-82497500D01*
D70*
X101875000Y-107263750D02*
X101875000Y-104703750D01*
D64*
X113902500Y-117422500D02*
X110077500Y-117422500D01*
X116680000Y-117450000D02*
X116652500Y-117422500D01*
X129502500Y-121247500D02*
X129502500Y-118447500D01*
D70*
X96216250Y-75847500D02*
X96216250Y-66322500D01*
D71*
X99091250Y-103322500D02*
X100891250Y-101522500D01*
X99091250Y-47272500D02*
X99091250Y-46197500D01*
X99091250Y-75847500D02*
X99091250Y-74722500D01*
D70*
X99091250Y-56797500D02*
X96216250Y-56797500D01*
X99091250Y-66322500D02*
X96216250Y-66322500D01*
X96216250Y-104422500D02*
X96216250Y-107397500D01*
X99091250Y-47272500D02*
X96216250Y-47272500D01*
D71*
X100891250Y-44397500D02*
X100891250Y-43272500D01*
X99091250Y-93822500D02*
X100891250Y-92022500D01*
D70*
X96216250Y-56797500D02*
X96216250Y-47272500D01*
D63*
X75756500Y-60467500D02*
X75771500Y-60452500D01*
D70*
X99091250Y-37747500D02*
X96216250Y-37747500D01*
D71*
X99091250Y-94897500D02*
X99091250Y-93822500D01*
D65*
%TO.N,5v*%
X94353750Y-107466250D02*
X95825000Y-108937500D01*
X107975000Y-81021250D02*
X107001250Y-80047500D01*
X106216250Y-102212500D02*
X106216250Y-85780000D01*
D63*
X79850000Y-65892500D02*
X79850000Y-100932500D01*
X79850000Y-100932500D02*
X79650000Y-101132500D01*
D65*
X94353750Y-33747500D02*
X94353750Y-106447500D01*
X101925000Y-108937500D02*
X103025000Y-107837500D01*
D71*
X104921250Y-77507500D02*
X105941250Y-77507500D01*
D63*
X81195500Y-65572500D02*
X80170000Y-65572500D01*
X79650000Y-101132500D02*
X79675000Y-101157500D01*
D65*
X71650000Y-40002500D02*
X68560000Y-43092500D01*
X103025000Y-107837500D02*
X103025000Y-105403750D01*
D71*
X104041250Y-78387500D02*
X104921250Y-77507500D01*
D65*
X94353750Y-106447500D02*
X94353750Y-107466250D01*
D71*
X97278750Y-106447500D02*
X100891250Y-106447500D01*
X104041250Y-100537500D02*
X104041250Y-78387500D01*
D65*
X71650000Y-36492500D02*
X71650000Y-40002500D01*
D63*
X80170000Y-65572500D02*
X79850000Y-65892500D01*
D65*
X103025000Y-105403750D02*
X106216250Y-102212500D01*
D71*
X100891250Y-106447500D02*
X100891250Y-104422500D01*
D65*
X106216250Y-85780000D02*
X107975000Y-84021250D01*
D71*
X100891250Y-103687500D02*
X104041250Y-100537500D01*
D65*
X95825000Y-108937500D02*
X101925000Y-108937500D01*
D71*
X100891250Y-106447500D02*
X100891250Y-103687500D01*
D65*
X107001250Y-80047500D02*
X105941250Y-80047500D01*
X107975000Y-84021250D02*
X107975000Y-81021250D01*
D63*
%TO.N,3.3V*%
X89125000Y-69330000D02*
X87962500Y-69330000D01*
X82400000Y-65142500D02*
X82190000Y-64932500D01*
X83287500Y-65455000D02*
X83225000Y-65517500D01*
D68*
X78613500Y-64932500D02*
X78083500Y-65462500D01*
D63*
X84900000Y-65967500D02*
X84450000Y-65517500D01*
X86150000Y-57867500D02*
X82125000Y-57867500D01*
X87575000Y-59292500D02*
X86150000Y-57867500D01*
X87575000Y-67042500D02*
X87575000Y-59292500D01*
D68*
X75771500Y-68132500D02*
X74585000Y-68132500D01*
X81195500Y-64932500D02*
X78613500Y-64932500D01*
D63*
X82400000Y-65517500D02*
X82400000Y-65142500D01*
X82205000Y-66212500D02*
X82400000Y-66017500D01*
D68*
X78083500Y-65462500D02*
X78083500Y-67664000D01*
D63*
X81195500Y-66852500D02*
X81195500Y-66212500D01*
X83225000Y-65517500D02*
X82400000Y-65517500D01*
D68*
X74150000Y-68567500D02*
X74150000Y-75605000D01*
D63*
X83475000Y-65517500D02*
X83225000Y-65517500D01*
X87962500Y-69330000D02*
X87575000Y-68942500D01*
D68*
X74585000Y-68132500D02*
X74150000Y-68567500D01*
D63*
X82400000Y-66017500D02*
X82400000Y-65517500D01*
X83287500Y-64542500D02*
X83287500Y-65455000D01*
X87575000Y-68942500D02*
X87575000Y-67042500D01*
X81195500Y-66212500D02*
X82205000Y-66212500D01*
X84450000Y-65517500D02*
X83475000Y-65517500D01*
X84900000Y-67117500D02*
X87500000Y-67117500D01*
D68*
X78083500Y-67664000D02*
X77615000Y-68132500D01*
D63*
X87500000Y-67117500D02*
X87575000Y-67042500D01*
X82190000Y-64932500D02*
X81195500Y-64932500D01*
D68*
X77615000Y-68132500D02*
X75771500Y-68132500D01*
X74150000Y-75605000D02*
X75337500Y-76792500D01*
D63*
X84900000Y-67117500D02*
X84900000Y-65967500D01*
%TO.N,1.8V*%
X80045000Y-60452500D02*
X80035000Y-60442500D01*
X73375000Y-68392500D02*
X73375000Y-79817500D01*
X73375000Y-79817500D02*
X74250000Y-80692500D01*
X74250000Y-80692500D02*
X75412500Y-80692500D01*
X77015000Y-67492500D02*
X74275000Y-67492500D01*
X74275000Y-67492500D02*
X73375000Y-68392500D01*
X81195500Y-60452500D02*
X80045000Y-60452500D01*
X77205000Y-67302500D02*
X77015000Y-67492500D01*
%TD*%
M02*
