%TF.GenerationSoftware,KiCad,Pcbnew,(6.0.5)*%
%TF.CreationDate,2023-06-16T09:38:04+03:00*%
%TF.ProjectId,JLC1,4a4c4331-2e6b-4696-9361-645f70636258,rev?*%
%TF.SameCoordinates,Original*%
%TF.FileFunction,Copper,L2,Bot*%
%TF.FilePolarity,Positive*%
%FSLAX46Y46*%
G04 Gerber Fmt 4.6, Leading zero omitted, Abs format (unit mm)*
G04 Created by KiCad (PCBNEW (6.0.5)) date 2023-06-16 09:38:04*
%MOMM*%
%LPD*%
G01*
G04 APERTURE LIST*
G04 Aperture macros list*
%AMRoundRect*
0 Rectangle with rounded corners*
0 $1 Rounding radius*
0 $2 $3 $4 $5 $6 $7 $8 $9 X,Y pos of 4 corners*
0 Add a 4 corners polygon primitive as box body*
4,1,4,$2,$3,$4,$5,$6,$7,$8,$9,$2,$3,0*
0 Add four circle primitives for the rounded corners*
1,1,$1+$1,$2,$3*
1,1,$1+$1,$4,$5*
1,1,$1+$1,$6,$7*
1,1,$1+$1,$8,$9*
0 Add four rect primitives between the rounded corners*
20,1,$1+$1,$2,$3,$4,$5,0*
20,1,$1+$1,$4,$5,$6,$7,0*
20,1,$1+$1,$6,$7,$8,$9,0*
20,1,$1+$1,$8,$9,$2,$3,0*%
G04 Aperture macros list end*
%TA.AperFunction,SMDPad,CuDef*%
%ADD10R,3.700000X2.200000*%
%TD*%
%TA.AperFunction,SMDPad,CuDef*%
%ADD11R,1.500000X1.000000*%
%TD*%
%TA.AperFunction,SMDPad,CuDef*%
%ADD12R,1.800000X1.000000*%
%TD*%
%TA.AperFunction,ComponentPad*%
%ADD13R,1.600000X1.600000*%
%TD*%
%TA.AperFunction,ComponentPad*%
%ADD14C,1.600000*%
%TD*%
%TA.AperFunction,ComponentPad*%
%ADD15C,4.000000*%
%TD*%
%TA.AperFunction,ComponentPad*%
%ADD16R,1.700000X1.700000*%
%TD*%
%TA.AperFunction,ComponentPad*%
%ADD17O,1.700000X1.700000*%
%TD*%
%TA.AperFunction,ComponentPad*%
%ADD18R,1.500000X1.600000*%
%TD*%
%TA.AperFunction,ComponentPad*%
%ADD19C,3.000000*%
%TD*%
%TA.AperFunction,ComponentPad*%
%ADD20R,1.600000X1.500000*%
%TD*%
%TA.AperFunction,ComponentPad*%
%ADD21O,3.500000X1.900000*%
%TD*%
%TA.AperFunction,SMDPad,CuDef*%
%ADD22RoundRect,0.175000X-0.175000X-0.575000X0.175000X-0.575000X0.175000X0.575000X-0.175000X0.575000X0*%
%TD*%
%TA.AperFunction,SMDPad,CuDef*%
%ADD23RoundRect,0.250000X0.475000X-0.250000X0.475000X0.250000X-0.475000X0.250000X-0.475000X-0.250000X0*%
%TD*%
%TA.AperFunction,SMDPad,CuDef*%
%ADD24RoundRect,0.250000X-0.312500X-0.625000X0.312500X-0.625000X0.312500X0.625000X-0.312500X0.625000X0*%
%TD*%
%TA.AperFunction,SMDPad,CuDef*%
%ADD25R,1.800000X0.400000*%
%TD*%
%TA.AperFunction,SMDPad,CuDef*%
%ADD26R,1.900000X1.900000*%
%TD*%
%TA.AperFunction,ViaPad*%
%ADD27C,0.600000*%
%TD*%
%TA.AperFunction,ViaPad*%
%ADD28C,0.800000*%
%TD*%
%TA.AperFunction,ViaPad*%
%ADD29C,0.500000*%
%TD*%
%TA.AperFunction,ViaPad*%
%ADD30C,0.400000*%
%TD*%
%TA.AperFunction,ViaPad*%
%ADD31C,1.000000*%
%TD*%
%TA.AperFunction,Conductor*%
%ADD32C,0.400000*%
%TD*%
%TA.AperFunction,Conductor*%
%ADD33C,0.800000*%
%TD*%
%TA.AperFunction,Conductor*%
%ADD34C,1.000000*%
%TD*%
%TA.AperFunction,Conductor*%
%ADD35C,0.500000*%
%TD*%
%TA.AperFunction,Conductor*%
%ADD36C,0.450000*%
%TD*%
%TA.AperFunction,Conductor*%
%ADD37C,0.700000*%
%TD*%
%TA.AperFunction,Conductor*%
%ADD38C,0.350000*%
%TD*%
G04 APERTURE END LIST*
D10*
%TO.P,78L05,4*%
%TO.N,N/C*%
X146257690Y-36637500D03*
D11*
%TO.P,78L05,3*%
X143357690Y-35137500D03*
D12*
%TO.P,78L05,2*%
X143507690Y-36637500D03*
D11*
%TO.P,78L05,1*%
X143357690Y-38137500D03*
%TD*%
D13*
%TO.P,USB,1*%
%TO.N,N/C*%
X143758450Y-49404050D03*
D14*
%TO.P,USB,2*%
X143758450Y-51904050D03*
%TO.P,USB,3*%
X145758450Y-51904050D03*
%TO.P,USB,4*%
X145758450Y-49404050D03*
D15*
%TO.P,USB,5*%
X148618450Y-44654050D03*
X148618450Y-56654050D03*
%TD*%
D16*
%TO.P,REF\u002A\u002A,1*%
%TO.N,N/C*%
X103500000Y-116612500D03*
D17*
%TO.P,REF\u002A\u002A,2*%
X103500000Y-119152500D03*
%TO.P,REF\u002A\u002A,3*%
X103500000Y-121692500D03*
%TO.P,REF\u002A\u002A,4*%
X103500000Y-124232500D03*
%TO.P,REF\u002A\u002A,5*%
X103500000Y-126772500D03*
%TO.P,REF\u002A\u002A,6*%
X103500000Y-129312500D03*
%TO.P,REF\u002A\u002A,7*%
X103500000Y-131852500D03*
%TD*%
D16*
%TO.P,REF\u002A\u002A,1*%
%TO.N,N/C*%
X79965872Y-129199400D03*
D17*
%TO.P,REF\u002A\u002A,2*%
X77425872Y-129199400D03*
%TO.P,REF\u002A\u002A,3*%
X74885872Y-129199400D03*
%TO.P,REF\u002A\u002A,4*%
X72345872Y-129199400D03*
%TO.P,REF\u002A\u002A,5*%
X69805872Y-129199400D03*
%TO.P,REF\u002A\u002A,6*%
X67265872Y-129199400D03*
%TO.P,REF\u002A\u002A,7*%
X64725872Y-129199400D03*
%TO.P,REF\u002A\u002A,8*%
X62185872Y-129199400D03*
%TD*%
D14*
%TO.P,22pF,1*%
%TO.N,gnd*%
X69150000Y-36492500D03*
%TO.P,22pF,2*%
%TO.N,N/C*%
X71650000Y-36492500D03*
%TD*%
D18*
%TO.P,USB1,1*%
%TO.N,N/C*%
X68485000Y-94887500D03*
D14*
%TO.P,USB1,2*%
X68485000Y-97387500D03*
%TO.P,USB1,3*%
X68485000Y-99387500D03*
%TO.P,USB1,4*%
%TO.N,gnd*%
X68485000Y-101887500D03*
D19*
%TO.P,USB1,5*%
X65775000Y-91817500D03*
X65775000Y-104957500D03*
%TD*%
D16*
%TO.P,REF\u002A\u002A,1*%
%TO.N,N/C*%
X114075000Y-71612500D03*
D17*
%TO.P,REF\u002A\u002A,2*%
X114075000Y-74152500D03*
%TO.P,REF\u002A\u002A,3*%
X114075000Y-76692500D03*
%TO.P,REF\u002A\u002A,4*%
X114075000Y-79232500D03*
%TO.P,REF\u002A\u002A,5*%
X114075000Y-81772500D03*
%TO.P,REF\u002A\u002A,6*%
X114075000Y-84312500D03*
%TD*%
D16*
%TO.P,REF\u002A\u002A,1*%
%TO.N,N/C*%
X133008450Y-34704050D03*
D17*
%TO.P,REF\u002A\u002A,2*%
X130468450Y-34704050D03*
%TO.P,REF\u002A\u002A,3*%
X127928450Y-34704050D03*
%TO.P,REF\u002A\u002A,4*%
X125388450Y-34704050D03*
%TO.P,REF\u002A\u002A,5*%
X122848450Y-34704050D03*
%TO.P,REF\u002A\u002A,6*%
X120308450Y-34704050D03*
%TO.P,REF\u002A\u002A,7*%
X117768450Y-34704050D03*
%TO.P,REF\u002A\u002A,8*%
X115228450Y-34704050D03*
%TD*%
D16*
%TO.P,REF\u002A\u002A,1*%
%TO.N,N/C*%
X125130000Y-130797500D03*
D17*
%TO.P,REF\u002A\u002A,2*%
X122590000Y-130797500D03*
%TO.P,REF\u002A\u002A,3*%
X120050000Y-130797500D03*
%TO.P,REF\u002A\u002A,4*%
X117510000Y-130797500D03*
%TD*%
D16*
%TO.P,REF\u002A\u002A,1*%
%TO.N,N/C*%
X121045000Y-80127500D03*
D17*
%TO.P,REF\u002A\u002A,2*%
X121045000Y-77587500D03*
%TO.P,REF\u002A\u002A,3*%
X123585000Y-80127500D03*
%TO.P,REF\u002A\u002A,4*%
X123585000Y-77587500D03*
%TO.P,REF\u002A\u002A,5*%
X126125000Y-80127500D03*
%TO.P,REF\u002A\u002A,6*%
X126125000Y-77587500D03*
%TD*%
D16*
%TO.P,REF\u002A\u002A,1*%
%TO.N,N/C*%
X131689850Y-59583550D03*
D17*
%TO.P,REF\u002A\u002A,2*%
X129149850Y-59583550D03*
%TO.P,REF\u002A\u002A,3*%
X126609850Y-59583550D03*
%TO.P,REF\u002A\u002A,4*%
X124069850Y-59583550D03*
%TO.P,REF\u002A\u002A,5*%
X121529850Y-59583550D03*
%TO.P,REF\u002A\u002A,6*%
X118989850Y-59583550D03*
%TD*%
D16*
%TO.P,REF\u002A\u002A,1*%
%TO.N,N/C*%
X135775000Y-84287500D03*
D17*
%TO.P,REF\u002A\u002A,2*%
X133235000Y-84287500D03*
%TO.P,REF\u002A\u002A,3*%
X130695000Y-84287500D03*
%TO.P,REF\u002A\u002A,4*%
X128155000Y-84287500D03*
%TO.P,REF\u002A\u002A,5*%
X125615000Y-84287500D03*
%TO.P,REF\u002A\u002A,6*%
X123075000Y-84287500D03*
%TO.P,REF\u002A\u002A,7*%
X120535000Y-84287500D03*
%TO.P,REF\u002A\u002A,8*%
X117995000Y-84287500D03*
%TD*%
D16*
%TO.P,REF\u002A\u002A,1*%
%TO.N,N/C*%
X134677450Y-44558550D03*
D17*
%TO.P,REF\u002A\u002A,2*%
X134677450Y-42018550D03*
%TO.P,REF\u002A\u002A,3*%
X137217450Y-44558550D03*
%TO.P,REF\u002A\u002A,4*%
X137217450Y-42018550D03*
%TO.P,REF\u002A\u002A,5*%
X139757450Y-44558550D03*
%TO.P,REF\u002A\u002A,6*%
X139757450Y-42018550D03*
%TD*%
D18*
%TO.P,USB2,1*%
%TO.N,N/C*%
X68510000Y-77637500D03*
D14*
%TO.P,USB2,2*%
X68510000Y-80137500D03*
%TO.P,USB2,3*%
X68510000Y-82137500D03*
%TO.P,USB2,4*%
%TO.N,gnd*%
X68510000Y-84637500D03*
D19*
%TO.P,USB2,5*%
X65800000Y-74567500D03*
X65800000Y-87707500D03*
%TD*%
D16*
%TO.P,REF\u002A\u002A,1*%
%TO.N,N/C*%
X100265872Y-129199400D03*
D17*
%TO.P,REF\u002A\u002A,2*%
X97725872Y-129199400D03*
%TO.P,REF\u002A\u002A,3*%
X95185872Y-129199400D03*
%TO.P,REF\u002A\u002A,4*%
X92645872Y-129199400D03*
%TO.P,REF\u002A\u002A,5*%
X90105872Y-129199400D03*
%TO.P,REF\u002A\u002A,6*%
X87565872Y-129199400D03*
%TO.P,REF\u002A\u002A,7*%
X85025872Y-129199400D03*
%TO.P,REF\u002A\u002A,8*%
X82485872Y-129199400D03*
%TD*%
D16*
%TO.P,REF\u002A\u002A,1*%
%TO.N,N/C*%
X115283450Y-59629050D03*
D17*
%TO.P,REF\u002A\u002A,2*%
X115283450Y-57089050D03*
%TO.P,REF\u002A\u002A,3*%
X115283450Y-54549050D03*
%TO.P,REF\u002A\u002A,4*%
X115283450Y-52009050D03*
%TO.P,REF\u002A\u002A,5*%
X115283450Y-49469050D03*
%TO.P,REF\u002A\u002A,6*%
X115283450Y-46929050D03*
%TD*%
D20*
%TO.P,USB_0,1*%
%TO.N,N/C*%
X79675000Y-101157500D03*
D14*
%TO.P,USB_0,2*%
X82175000Y-101157500D03*
%TO.P,USB_0,3*%
X84175000Y-101157500D03*
%TO.P,USB_0,4*%
%TO.N,gnd*%
X86675000Y-101157500D03*
D19*
%TO.P,USB_0,5*%
X76605000Y-103867500D03*
X89745000Y-103867500D03*
%TD*%
D16*
%TO.P,REF\u002A\u002A,1*%
%TO.N,N/C*%
X132240000Y-89622500D03*
D17*
%TO.P,REF\u002A\u002A,2*%
X129700000Y-89622500D03*
%TO.P,REF\u002A\u002A,3*%
X127160000Y-89622500D03*
%TO.P,REF\u002A\u002A,4*%
X124620000Y-89622500D03*
%TO.P,REF\u002A\u002A,5*%
X122080000Y-89622500D03*
%TO.P,REF\u002A\u002A,6*%
X119540000Y-89622500D03*
%TO.P,REF\u002A\u002A,7*%
X117000000Y-89622500D03*
%TO.P,REF\u002A\u002A,8*%
X114460000Y-89622500D03*
%TD*%
D16*
%TO.P,REF\u002A\u002A,1*%
%TO.N,N/C*%
X58520000Y-116599400D03*
D17*
%TO.P,REF\u002A\u002A,2*%
X58520000Y-119139400D03*
%TO.P,REF\u002A\u002A,3*%
X58520000Y-121679400D03*
%TO.P,REF\u002A\u002A,4*%
X58520000Y-124219400D03*
%TO.P,REF\u002A\u002A,5*%
X58520000Y-126759400D03*
%TO.P,REF\u002A\u002A,6*%
X58520000Y-129299400D03*
%TO.P,REF\u002A\u002A,7*%
X58520000Y-131839400D03*
%TD*%
D16*
%TO.P,REF\u002A\u002A,1*%
%TO.N,N/C*%
X149243450Y-61054050D03*
D17*
%TO.P,REF\u002A\u002A,2*%
X146703450Y-61054050D03*
%TO.P,REF\u002A\u002A,3*%
X144163450Y-61054050D03*
%TO.P,REF\u002A\u002A,4*%
X141623450Y-61054050D03*
%TD*%
D16*
%TO.P,-BAT+,1*%
%TO.N,N/C*%
X138108450Y-34704050D03*
D17*
%TO.P,-BAT+,2*%
X135568450Y-34704050D03*
%TD*%
D16*
%TO.P,REF\u002A\u002A,1*%
%TO.N,N/C*%
X110052500Y-128912500D03*
D17*
%TO.P,REF\u002A\u002A,2*%
X110052500Y-126372500D03*
%TO.P,REF\u002A\u002A,3*%
X110052500Y-123832500D03*
%TO.P,REF\u002A\u002A,4*%
X110052500Y-121292500D03*
%TO.P,REF\u002A\u002A,5*%
%TO.N,gnd*%
X110052500Y-118752500D03*
%TO.P,REF\u002A\u002A,6*%
X110052500Y-116212500D03*
%TD*%
D16*
%TO.P,REF\u002A\u002A,1*%
%TO.N,N/C*%
X139690000Y-105847500D03*
D17*
%TO.P,REF\u002A\u002A,2*%
X142230000Y-105847500D03*
%TO.P,REF\u002A\u002A,3*%
X139690000Y-108387500D03*
%TO.P,REF\u002A\u002A,4*%
X142230000Y-108387500D03*
%TO.P,REF\u002A\u002A,5*%
X139690000Y-110927500D03*
%TO.P,REF\u002A\u002A,6*%
X142230000Y-110927500D03*
%TD*%
D16*
%TO.P,REF\u002A\u002A,1*%
%TO.N,N/C*%
X131900000Y-66287500D03*
D17*
%TO.P,REF\u002A\u002A,2*%
X129360000Y-66287500D03*
%TO.P,REF\u002A\u002A,3*%
X126820000Y-66287500D03*
%TO.P,REF\u002A\u002A,4*%
X124280000Y-66287500D03*
%TO.P,REF\u002A\u002A,5*%
X121740000Y-66287500D03*
%TO.P,REF\u002A\u002A,6*%
X119200000Y-66287500D03*
%TO.P,REF\u002A\u002A,7*%
X116660000Y-66287500D03*
%TO.P,REF\u002A\u002A,8*%
X114120000Y-66287500D03*
%TD*%
D18*
%TO.P,USB3,1*%
%TO.N,N/C*%
X68535000Y-60342500D03*
D14*
%TO.P,USB3,2*%
X68535000Y-62842500D03*
%TO.P,USB3,3*%
X68535000Y-64842500D03*
%TO.P,USB3,4*%
%TO.N,gnd*%
X68535000Y-67342500D03*
D19*
%TO.P,USB3,5*%
X65825000Y-70412500D03*
X65825000Y-57272500D03*
%TD*%
D21*
%TO.P,USB_0,5*%
%TO.N,N/C*%
X146625000Y-66037500D03*
X146625000Y-77437500D03*
%TD*%
D18*
%TO.P,USB4,1*%
%TO.N,N/C*%
X68560000Y-43092500D03*
D14*
%TO.P,USB4,2*%
X68560000Y-45592500D03*
%TO.P,USB4,3*%
X68560000Y-47592500D03*
%TO.P,USB4,4*%
%TO.N,gnd*%
X68560000Y-50092500D03*
D19*
%TO.P,USB4,5*%
X65850000Y-40022500D03*
X65850000Y-53162500D03*
%TD*%
D16*
%TO.P,REF\u002A\u002A,1*%
%TO.N,N/C*%
X132990000Y-110572500D03*
D17*
%TO.P,REF\u002A\u002A,2*%
X130450000Y-110572500D03*
%TO.P,REF\u002A\u002A,3*%
X127910000Y-110572500D03*
%TO.P,REF\u002A\u002A,4*%
X125370000Y-110572500D03*
%TO.P,REF\u002A\u002A,5*%
X122830000Y-110572500D03*
%TO.P,REF\u002A\u002A,6*%
X120290000Y-110572500D03*
%TO.P,REF\u002A\u002A,7*%
X117750000Y-110572500D03*
%TO.P,REF\u002A\u002A,8*%
X115210000Y-110572500D03*
%TD*%
D22*
%TO.P,,1*%
%TO.N,N/C*%
X155025000Y-104275000D03*
%TD*%
%TO.P,,1*%
%TO.N,N/C*%
X148475000Y-132937500D03*
%TD*%
%TO.P,,1*%
%TO.N,N/C*%
X146675000Y-104262500D03*
%TD*%
%TO.P,,1*%
%TO.N,N/C*%
X154125000Y-132950000D03*
%TD*%
%TO.P,,1*%
%TO.N,N/C*%
X149375000Y-104262500D03*
%TD*%
%TO.P,,1*%
%TO.N,N/C*%
X155925000Y-104275000D03*
%TD*%
%TO.P,,1*%
%TO.N,N/C*%
X150275000Y-104262500D03*
%TD*%
D23*
%TO.P,100uF,1*%
%TO.N,N/C*%
X141318450Y-35904050D03*
%TO.P,100uF,2*%
X141318450Y-34004050D03*
%TD*%
%TO.P,100uF,1*%
%TO.N,N/C*%
X141318450Y-39404050D03*
%TO.P,100uF,2*%
X141318450Y-37504050D03*
%TD*%
D22*
%TO.P,,1*%
%TO.N,N/C*%
X153225000Y-132950000D03*
%TD*%
%TO.P,,1*%
%TO.N,N/C*%
X148475000Y-104262500D03*
%TD*%
%TO.P,,1*%
%TO.N,N/C*%
X147575000Y-104262500D03*
%TD*%
%TO.P,,1*%
%TO.N,N/C*%
X152325000Y-104275000D03*
%TD*%
D16*
%TO.P,REF\u002A\u002A,1*%
%TO.N,gnd*%
X105941250Y-82587500D03*
D17*
%TO.P,REF\u002A\u002A,2*%
%TO.N,5v*%
X105941250Y-80047500D03*
%TO.P,REF\u002A\u002A,3*%
%TO.N,N/C*%
X105941250Y-77507500D03*
%TO.P,REF\u002A\u002A,4*%
X105941250Y-74967500D03*
%TO.P,REF\u002A\u002A,5*%
X105941250Y-72427500D03*
%TO.P,REF\u002A\u002A,6*%
X105941250Y-69887500D03*
%TO.P,REF\u002A\u002A,7*%
X105941250Y-67347500D03*
%TO.P,REF\u002A\u002A,8*%
X105941250Y-64807500D03*
%TO.P,REF\u002A\u002A,9*%
X105941250Y-62267500D03*
%TO.P,REF\u002A\u002A,10*%
X105941250Y-59727500D03*
%TD*%
D22*
%TO.P,,1*%
%TO.N,N/C*%
X150275000Y-132937500D03*
%TD*%
%TO.P,,1*%
%TO.N,N/C*%
X154125000Y-104275000D03*
%TD*%
%TO.P,,1*%
%TO.N,N/C*%
X146675000Y-132937500D03*
%TD*%
%TO.P,,1*%
%TO.N,N/C*%
X152325000Y-132950000D03*
%TD*%
%TO.P,,1*%
%TO.N,N/C*%
X155025000Y-132950000D03*
%TD*%
%TO.P,,1*%
%TO.N,N/C*%
X155925000Y-132950000D03*
%TD*%
%TO.P,,1*%
%TO.N,N/C*%
X147575000Y-132937500D03*
%TD*%
D24*
%TO.P,22R,1*%
%TO.N,N/C*%
X135702500Y-96772500D03*
%TO.P,22R,2*%
X138627500Y-96772500D03*
%TD*%
D25*
%TO.P,REF\u002A\u002A,1*%
%TO.N,N/C*%
X140965000Y-96922500D03*
%TO.P,REF\u002A\u002A,2*%
X140965000Y-97572500D03*
%TO.P,REF\u002A\u002A,3*%
X140965000Y-98222500D03*
%TO.P,REF\u002A\u002A,4*%
X140965000Y-98872500D03*
%TO.P,REF\u002A\u002A,5*%
X140965000Y-99522500D03*
D26*
%TO.P,REF\u002A\u002A,6*%
X143865000Y-102172500D03*
X143865000Y-94272500D03*
%TD*%
D22*
%TO.P,,1*%
%TO.N,N/C*%
X149375000Y-132937500D03*
%TD*%
%TO.P,,1*%
%TO.N,N/C*%
X153225000Y-104275000D03*
%TD*%
D24*
%TO.P,22R,1*%
%TO.N,N/C*%
X135677500Y-99072500D03*
%TO.P,22R,2*%
X138602500Y-99072500D03*
%TD*%
D27*
%TO.N,*%
X152325000Y-129775000D03*
D28*
X114640000Y-98122500D03*
D29*
X78625000Y-117587500D03*
X122258450Y-47779050D03*
D27*
X146650000Y-105612500D03*
D28*
X126940000Y-102272500D03*
D29*
X140965000Y-96922500D03*
X131655250Y-47795950D03*
D27*
X150275000Y-110237500D03*
D29*
X122683450Y-43659050D03*
D27*
X146675000Y-129762500D03*
X147250000Y-130687500D03*
D29*
X77400000Y-116762500D03*
X141002450Y-54783550D03*
X79900000Y-118287500D03*
D27*
X155950000Y-121075000D03*
X153225000Y-129800000D03*
D29*
X116068450Y-45189050D03*
X91232500Y-118245000D03*
D28*
X141468450Y-36629050D03*
D30*
X147725000Y-111362500D03*
D28*
X122727500Y-117672500D03*
D29*
X131190000Y-102872500D03*
D27*
X155950000Y-115575000D03*
D29*
X129975000Y-72187500D03*
X93350000Y-119687500D03*
X140965000Y-99197500D03*
X132925000Y-69087500D03*
X123533450Y-43654050D03*
X124333450Y-43654050D03*
X133218450Y-40079050D03*
X134875000Y-73137500D03*
D27*
X148475000Y-118287500D03*
X149400000Y-123862500D03*
D29*
X74850000Y-115987500D03*
D28*
X136590000Y-101372500D03*
D27*
X150300000Y-115562500D03*
D29*
X81200000Y-118987500D03*
D27*
X147575000Y-129787500D03*
D29*
X135740000Y-96772500D03*
D27*
X150300000Y-121062500D03*
X155050000Y-123875000D03*
D29*
X136790000Y-102872500D03*
X82450000Y-119687500D03*
X116068450Y-37054050D03*
X129658450Y-52329050D03*
X129975000Y-71387500D03*
D27*
X154125000Y-118300000D03*
D29*
X135690000Y-99072500D03*
X133218450Y-38204050D03*
X118283450Y-41854050D03*
X86150000Y-116337500D03*
D27*
X150300000Y-126537500D03*
D28*
X75350000Y-84542500D03*
D29*
X130927450Y-53383550D03*
X89950000Y-117587500D03*
X124008450Y-51479050D03*
X120174450Y-47008550D03*
X125133450Y-43629050D03*
D27*
X148475000Y-129812500D03*
D28*
X142225000Y-82637500D03*
D29*
X129740000Y-100622500D03*
D28*
X119175000Y-70987500D03*
D29*
X134275000Y-78087500D03*
X129740000Y-101422500D03*
D28*
X124875000Y-75037500D03*
D29*
X95050000Y-117112500D03*
D27*
X152900000Y-130700000D03*
D29*
X92525000Y-118987500D03*
X95875000Y-115562500D03*
D27*
X152300000Y-105625000D03*
D28*
X118440000Y-98497500D03*
D27*
X154125000Y-129825000D03*
X155925000Y-110250000D03*
D30*
X153375000Y-111375000D03*
D28*
X148525000Y-84787500D03*
D29*
X129902650Y-43655750D03*
X124708450Y-47754050D03*
D27*
X155950000Y-126550000D03*
D28*
X143875000Y-68237500D03*
D29*
X124008450Y-52404050D03*
X84950000Y-115237500D03*
X129368450Y-46244050D03*
D31*
%TO.N,gnd*%
X78350000Y-98492500D03*
D28*
X74750000Y-53380000D03*
X129502500Y-121697500D03*
D29*
%TO.N,1.8V*%
X80035000Y-60442500D03*
X77205000Y-67302500D03*
%TD*%
D32*
%TO.N,*%
X142230000Y-109032500D02*
X142230000Y-108387500D01*
X140940000Y-110322500D02*
X142230000Y-109032500D01*
X140940000Y-111522500D02*
X140940000Y-110322500D01*
X140290000Y-112172500D02*
X140940000Y-111522500D01*
X138560000Y-112172500D02*
X140290000Y-112172500D01*
X137825000Y-111437500D02*
X138560000Y-112172500D01*
X134260000Y-104272500D02*
X137825000Y-107837500D01*
X137825000Y-107837500D02*
X137825000Y-111437500D01*
X129740000Y-103472500D02*
X130540000Y-104272500D01*
X130540000Y-104272500D02*
X134260000Y-104272500D01*
X129740000Y-101422500D02*
X129740000Y-103472500D01*
X130490000Y-100922500D02*
X130190000Y-100622500D01*
X130490000Y-103222500D02*
X130490000Y-100922500D01*
X130890000Y-103622500D02*
X130490000Y-103222500D01*
X134810000Y-103622500D02*
X130890000Y-103622500D01*
X139575000Y-108387500D02*
X134810000Y-103622500D01*
X139690000Y-108387500D02*
X139575000Y-108387500D01*
X130190000Y-100622500D02*
X129740000Y-100622500D01*
X138285000Y-105847500D02*
X139690000Y-105847500D01*
X135310000Y-102872500D02*
X138285000Y-105847500D01*
X131190000Y-102872500D02*
X135310000Y-102872500D01*
D33*
X143357690Y-38137500D02*
X143357690Y-39320190D01*
X143357690Y-39320190D02*
X143441550Y-39404050D01*
D34*
X143441550Y-39404050D02*
X141318450Y-39404050D01*
X143791550Y-39404050D02*
X143441550Y-39404050D01*
X143825000Y-39437500D02*
X143791550Y-39404050D01*
X143818450Y-49344050D02*
X143818450Y-39444050D01*
X143818450Y-39444050D02*
X143825000Y-39437500D01*
X143758450Y-49404050D02*
X143818450Y-49344050D01*
X142941550Y-34004050D02*
X141318450Y-34004050D01*
X143357690Y-34420190D02*
X142941550Y-34004050D01*
X143357690Y-35137500D02*
X143357690Y-34420190D01*
D33*
X143499240Y-36629050D02*
X143507690Y-36637500D01*
X141468450Y-36629050D02*
X143499240Y-36629050D01*
D35*
X89950000Y-117587500D02*
X78625000Y-117587500D01*
D32*
X140940000Y-109072500D02*
X139690000Y-110322500D01*
D35*
X119133450Y-47034050D02*
X119133450Y-36639050D01*
X120174450Y-47008550D02*
X120058450Y-46892550D01*
X130468450Y-34704050D02*
X130468450Y-35919050D01*
D36*
X139775000Y-68237500D02*
X143875000Y-68237500D01*
D35*
X126825000Y-75037500D02*
X129875000Y-78087500D01*
X118833450Y-49404050D02*
X116983450Y-47554050D01*
D37*
X155925000Y-131200000D02*
X155500000Y-131625000D01*
D32*
X140965000Y-96922500D02*
X142090000Y-96922500D01*
D35*
X129090000Y-99872500D02*
X130590000Y-99872500D01*
D32*
X142490000Y-103472500D02*
X143690000Y-104672500D01*
D35*
X131647150Y-47804050D02*
X125983450Y-47804050D01*
X93350000Y-119687500D02*
X82450000Y-119687500D01*
X84975000Y-115212500D02*
X95525000Y-115212500D01*
X130775000Y-71787500D02*
X130775000Y-72787500D01*
X122683450Y-42304050D02*
X122683450Y-43659050D01*
X122008450Y-52404050D02*
X117333450Y-57079050D01*
D37*
X141468450Y-36629050D02*
X139368450Y-36629050D01*
D35*
X130558450Y-38054050D02*
X133008450Y-35604050D01*
D37*
X152750000Y-131625000D02*
X152325000Y-132050000D01*
D35*
X132925000Y-70487500D02*
X132925000Y-69087500D01*
X62810000Y-121677500D02*
X58525000Y-121677500D01*
X117333450Y-57079050D02*
X115283450Y-57079050D01*
D34*
X141318450Y-34004050D02*
X140293450Y-32979050D01*
D32*
X142230000Y-104612500D02*
X142230000Y-105847500D01*
D35*
X124333450Y-43654050D02*
X124333450Y-44454050D01*
X148525000Y-84787500D02*
X148525000Y-84737500D01*
X115260000Y-74152500D02*
X117225000Y-72187500D01*
X101750000Y-130102500D02*
X101750000Y-128087500D01*
D37*
X154125000Y-129825000D02*
X154125000Y-104275000D01*
D35*
X119175000Y-70987500D02*
X128675000Y-70987500D01*
D32*
X124875000Y-77087500D02*
X124875000Y-75037500D01*
D34*
X114075000Y-79232500D02*
X117930000Y-79232500D01*
D35*
X118283450Y-47404050D02*
X118283450Y-41854050D01*
X129975000Y-71387500D02*
X130375000Y-71387500D01*
D37*
X149850000Y-131612500D02*
X147100000Y-131612500D01*
D35*
X124158450Y-45729050D02*
X122033450Y-45729050D01*
D37*
X144163450Y-61054050D02*
X141623450Y-61054050D01*
D35*
X59875000Y-130487500D02*
X58525000Y-131837500D01*
D34*
X114075000Y-84312500D02*
X114075000Y-81772500D01*
D35*
X133218450Y-40079050D02*
X133218450Y-38279050D01*
D37*
X154925000Y-130700000D02*
X155025000Y-130600000D01*
D35*
X122533450Y-48629050D02*
X119508450Y-48629050D01*
X58525000Y-129112500D02*
X58525000Y-129297500D01*
X132925000Y-72337500D02*
X133725000Y-73137500D01*
D37*
X153225000Y-129800000D02*
X153225000Y-104275000D01*
D35*
X82450000Y-119687500D02*
X68950000Y-119687500D01*
X61395000Y-124217500D02*
X58525000Y-124217500D01*
X59875000Y-128762500D02*
X59875000Y-130487500D01*
X84950000Y-115237500D02*
X84925000Y-115212500D01*
X94175000Y-117587500D02*
X89950000Y-117587500D01*
D32*
X139427500Y-97572500D02*
X138627500Y-96772500D01*
D35*
X132090000Y-101372500D02*
X136590000Y-101372500D01*
X99280000Y-121692500D02*
X103500000Y-121692500D01*
X117225000Y-72187500D02*
X129975000Y-72187500D01*
D37*
X147100000Y-131612500D02*
X146675000Y-132037500D01*
D35*
X84950000Y-115237500D02*
X84975000Y-115212500D01*
X77275000Y-116887500D02*
X67600000Y-116887500D01*
X141002450Y-54783550D02*
X141623450Y-55404550D01*
X121083450Y-39659050D02*
X125388450Y-35354050D01*
X121083450Y-44779050D02*
X121083450Y-39659050D01*
X116068450Y-45189050D02*
X116068450Y-37054050D01*
X127928450Y-35354050D02*
X127928450Y-34704050D01*
X122033450Y-45729050D02*
X121083450Y-44779050D01*
D37*
X152900000Y-130700000D02*
X154925000Y-130700000D01*
D35*
X123533450Y-42979050D02*
X128458450Y-38054050D01*
X132925000Y-70487500D02*
X132925000Y-72337500D01*
D32*
X129368450Y-46244050D02*
X129902650Y-45709850D01*
D37*
X147575000Y-129787500D02*
X147575000Y-104262500D01*
D32*
X142490000Y-97322500D02*
X142490000Y-103472500D01*
D35*
X126940000Y-102022500D02*
X129090000Y-99872500D01*
X123958450Y-44829050D02*
X122408450Y-44829050D01*
X95050000Y-117462500D02*
X99280000Y-121692500D01*
X124708450Y-47754050D02*
X123058450Y-49404050D01*
D37*
X138418450Y-35679050D02*
X138418450Y-34754050D01*
D35*
X95050000Y-117112500D02*
X95050000Y-117462500D01*
X114640000Y-98122500D02*
X118065000Y-98122500D01*
D32*
X139240000Y-102872500D02*
X140940000Y-104572500D01*
D35*
X128458450Y-38054050D02*
X130558450Y-38054050D01*
X124875000Y-75037500D02*
X126825000Y-75037500D01*
X67600000Y-116887500D02*
X62810000Y-121677500D01*
X68200000Y-115212500D02*
X64275000Y-119137500D01*
D37*
X150275000Y-131187500D02*
X149850000Y-131612500D01*
D32*
X140965000Y-97572500D02*
X139427500Y-97572500D01*
D35*
X119508450Y-48629050D02*
X118283450Y-47404050D01*
D37*
X148475000Y-129812500D02*
X148475000Y-104262500D01*
D35*
X121933450Y-44354050D02*
X121933450Y-41349050D01*
X119133450Y-36639050D02*
X120308450Y-35464050D01*
D34*
X142225000Y-82637500D02*
X141725000Y-82137500D01*
X119575000Y-77587500D02*
X121045000Y-77587500D01*
D35*
X125388450Y-35354050D02*
X125388450Y-34704050D01*
X68025000Y-117587500D02*
X61395000Y-124217500D01*
X129875000Y-78087500D02*
X134275000Y-78087500D01*
X130375000Y-73187500D02*
X117580000Y-73187500D01*
X84925000Y-115212500D02*
X68200000Y-115212500D01*
X133008450Y-35604050D02*
X133008450Y-34704050D01*
X120058450Y-46892550D02*
X120058450Y-38144050D01*
D34*
X114075000Y-81772500D02*
X114440000Y-82137500D01*
X117930000Y-79232500D02*
X119575000Y-77587500D01*
D35*
X100820000Y-124232500D02*
X94175000Y-117587500D01*
D37*
X146675000Y-129762500D02*
X146675000Y-104262500D01*
D34*
X127925000Y-82137500D02*
X128275000Y-81787500D01*
D35*
X74850000Y-115987500D02*
X85800000Y-115987500D01*
D36*
X134875000Y-73137500D02*
X139775000Y-68237500D01*
D35*
X103500000Y-128862500D02*
X93625000Y-118987500D01*
X93625000Y-118987500D02*
X92525000Y-118987500D01*
X103500000Y-131852500D02*
X101750000Y-130102500D01*
X123533450Y-43654050D02*
X123533450Y-42979050D01*
X124008450Y-52404050D02*
X122008450Y-52404050D01*
X130712950Y-53383550D02*
X130927450Y-53383550D01*
D37*
X146675000Y-132037500D02*
X146675000Y-132937500D01*
D35*
X77400000Y-116762500D02*
X77275000Y-116887500D01*
D34*
X136718450Y-32979050D02*
X135918450Y-33779050D01*
D37*
X155925000Y-104275000D02*
X155925000Y-110250000D01*
D35*
X101750000Y-128087500D02*
X93350000Y-119687500D01*
D32*
X140965000Y-99197500D02*
X140965000Y-103347500D01*
D35*
X123058450Y-49404050D02*
X118833450Y-49404050D01*
D37*
X150275000Y-110237500D02*
X150275000Y-131187500D01*
D35*
X141623450Y-55404550D02*
X141623450Y-61054050D01*
X102385000Y-126772500D02*
X103500000Y-126772500D01*
D37*
X155925000Y-110250000D02*
X155925000Y-131200000D01*
D32*
X124875000Y-78877500D02*
X124875000Y-77087500D01*
D34*
X114440000Y-82137500D02*
X127925000Y-82137500D01*
D32*
X139452500Y-98222500D02*
X138602500Y-99072500D01*
D35*
X117580000Y-73187500D02*
X114075000Y-76692500D01*
D32*
X126125000Y-80127500D02*
X124875000Y-78877500D01*
D35*
X120308450Y-35464050D02*
X120308450Y-34704050D01*
X103225000Y-116337500D02*
X103500000Y-116612500D01*
D32*
X129902650Y-45709850D02*
X129902650Y-43655750D01*
D35*
X122258450Y-47779050D02*
X119878450Y-47779050D01*
X130375000Y-71387500D02*
X130775000Y-71787500D01*
X95525000Y-115212500D02*
X95875000Y-115562500D01*
X130590000Y-99872500D02*
X131290000Y-100572500D01*
X122848450Y-35354050D02*
X122848450Y-34704050D01*
D34*
X127375000Y-77587500D02*
X126125000Y-77587500D01*
D35*
X124333450Y-44454050D02*
X123958450Y-44829050D01*
X119878450Y-47779050D02*
X119133450Y-47034050D01*
X128675000Y-70987500D02*
X129175000Y-70487500D01*
X129175000Y-70487500D02*
X132925000Y-70487500D01*
D37*
X149375000Y-130587500D02*
X149375000Y-104262500D01*
D35*
X116983450Y-47554050D02*
X116983450Y-36369050D01*
D37*
X152325000Y-129775000D02*
X152325000Y-104275000D01*
D35*
X128033450Y-36954050D02*
X122683450Y-42304050D01*
X130468450Y-35919050D02*
X129433450Y-36954050D01*
X79900000Y-118287500D02*
X68325000Y-118287500D01*
D32*
X140940000Y-104572500D02*
X140940000Y-109072500D01*
X142235000Y-110927500D02*
X142230000Y-110927500D01*
D35*
X122408450Y-44829050D02*
X121933450Y-44354050D01*
X141875000Y-78087500D02*
X134275000Y-78087500D01*
D32*
X139690000Y-110322500D02*
X139690000Y-110927500D01*
D35*
X114075000Y-74152500D02*
X115260000Y-74152500D01*
X129433450Y-36954050D02*
X128033450Y-36954050D01*
D34*
X128275000Y-81787500D02*
X128275000Y-78487500D01*
D37*
X139368450Y-36629050D02*
X138418450Y-35679050D01*
D35*
X81200000Y-118987500D02*
X68650000Y-118987500D01*
X118523450Y-54539050D02*
X115283450Y-54539050D01*
D32*
X140965000Y-99197500D02*
X140965000Y-99522500D01*
D37*
X147250000Y-130687500D02*
X149275000Y-130687500D01*
D35*
X125158450Y-46979050D02*
X124183450Y-46979050D01*
X120058450Y-38144050D02*
X122848450Y-35354050D01*
X126940000Y-102272500D02*
X126940000Y-102022500D01*
D34*
X128275000Y-78487500D02*
X127375000Y-77587500D01*
D35*
X59855000Y-126757500D02*
X58525000Y-126757500D01*
X85800000Y-115987500D02*
X86150000Y-116337500D01*
D37*
X155025000Y-130600000D02*
X155025000Y-104275000D01*
D35*
X64275000Y-119137500D02*
X58525000Y-119137500D01*
X129658450Y-52329050D02*
X130712950Y-53383550D01*
X148525000Y-84737500D02*
X141875000Y-78087500D01*
X131655250Y-47795950D02*
X131647150Y-47804050D01*
D37*
X152325000Y-132050000D02*
X152325000Y-132950000D01*
D35*
X103500000Y-129312500D02*
X103500000Y-128862500D01*
D34*
X140293450Y-32979050D02*
X136718450Y-32979050D01*
D35*
X131290000Y-100572500D02*
X132090000Y-101372500D01*
X122727500Y-117672500D02*
X113672500Y-117672500D01*
D34*
X141318450Y-37504050D02*
X141318450Y-35904050D01*
D32*
X142090000Y-96922500D02*
X142490000Y-97322500D01*
X140965000Y-103347500D02*
X142230000Y-104612500D01*
D35*
X68325000Y-118287500D02*
X59855000Y-126757500D01*
D32*
X143690000Y-109472500D02*
X142235000Y-110927500D01*
D37*
X150275000Y-104262500D02*
X150275000Y-110237500D01*
D35*
X130775000Y-72787500D02*
X130375000Y-73187500D01*
D38*
X132925000Y-69087500D02*
X132925000Y-72337500D01*
D32*
X140965000Y-98222500D02*
X139452500Y-98222500D01*
D34*
X135918450Y-33779050D02*
X135918450Y-34754050D01*
D35*
X122727500Y-117672500D02*
X122777500Y-117722500D01*
X121583450Y-51479050D02*
X118523450Y-54539050D01*
X91275000Y-118287500D02*
X79900000Y-118287500D01*
X78625000Y-117587500D02*
X68025000Y-117587500D01*
X91275000Y-118287500D02*
X93900000Y-118287500D01*
X116983450Y-36369050D02*
X115318450Y-34704050D01*
D37*
X155500000Y-131625000D02*
X152750000Y-131625000D01*
D35*
X124183450Y-46979050D02*
X122533450Y-48629050D01*
X124008450Y-51479050D02*
X121583450Y-51479050D01*
X125983450Y-47804050D02*
X125158450Y-46979050D01*
D32*
X143690000Y-104672500D02*
X143690000Y-109472500D01*
D35*
X68650000Y-118987500D02*
X58525000Y-129112500D01*
X103500000Y-124232500D02*
X100820000Y-124232500D01*
D34*
X141725000Y-82137500D02*
X127925000Y-82137500D01*
D35*
X86150000Y-116337500D02*
X103225000Y-116337500D01*
X118065000Y-98122500D02*
X118440000Y-98497500D01*
X93900000Y-118287500D02*
X102385000Y-126772500D01*
X133725000Y-73137500D02*
X134875000Y-73137500D01*
X113672500Y-117672500D02*
X110052500Y-121292500D01*
D32*
X136790000Y-102872500D02*
X139240000Y-102872500D01*
D35*
X68950000Y-119687500D02*
X59875000Y-128762500D01*
X115318450Y-34704050D02*
X115228450Y-34704050D01*
X121933450Y-41349050D02*
X127928450Y-35354050D01*
X92525000Y-118987500D02*
X81200000Y-118987500D01*
X125133450Y-44754050D02*
X124158450Y-45729050D01*
X125133450Y-43629050D02*
X125133450Y-44754050D01*
D37*
X149275000Y-130687500D02*
X149375000Y-130587500D01*
D34*
%TO.N,gnd*%
X68560000Y-52482500D02*
X67880000Y-53162500D01*
X68535000Y-67342500D02*
X68535000Y-69832500D01*
X74750000Y-53380000D02*
X74750000Y-42967500D01*
X65850000Y-53162500D02*
X65850000Y-57247500D01*
X68510000Y-84637500D02*
X68510000Y-87057500D01*
X89360000Y-103842500D02*
X89720000Y-103842500D01*
X65835000Y-87742500D02*
X65800000Y-87707500D01*
X67785000Y-104957500D02*
X65775000Y-104957500D01*
X86650000Y-99817500D02*
X86650000Y-101132500D01*
X85325000Y-98492500D02*
X86650000Y-99817500D01*
X69150000Y-36492500D02*
X69150000Y-39952500D01*
X69150000Y-39952500D02*
X69080000Y-40022500D01*
X69080000Y-40022500D02*
X65850000Y-40022500D01*
D35*
X129502500Y-121697500D02*
X129502500Y-117947500D01*
D34*
X68535000Y-69832500D02*
X67950000Y-70417500D01*
X65830000Y-70417500D02*
X65825000Y-70412500D01*
D35*
X129502500Y-117947500D02*
X127767500Y-116212500D01*
D34*
X74750000Y-42967500D02*
X71805000Y-40022500D01*
X65800000Y-91792500D02*
X65775000Y-91817500D01*
X89720000Y-103842500D02*
X89745000Y-103867500D01*
X67825000Y-87742500D02*
X65835000Y-87742500D01*
X68510000Y-87057500D02*
X67825000Y-87742500D01*
D35*
X127767500Y-116212500D02*
X110052500Y-116212500D01*
D34*
X65850000Y-57247500D02*
X65825000Y-57272500D01*
X74625000Y-101887500D02*
X76605000Y-103867500D01*
X78350000Y-98492500D02*
X85325000Y-98492500D01*
X68560000Y-50092500D02*
X68560000Y-52482500D01*
X68485000Y-104257500D02*
X67785000Y-104957500D01*
X65825000Y-70412500D02*
X65825000Y-74542500D01*
X65800000Y-87707500D02*
X65800000Y-91792500D01*
X68485000Y-101887500D02*
X68485000Y-104257500D01*
X67880000Y-53162500D02*
X65850000Y-53162500D01*
X67950000Y-70417500D02*
X65830000Y-70417500D01*
X71805000Y-40022500D02*
X69080000Y-40022500D01*
X65825000Y-74542500D02*
X65800000Y-74567500D01*
X86650000Y-101132500D02*
X89360000Y-103842500D01*
X68485000Y-101887500D02*
X74625000Y-101887500D01*
%TO.N,5v*%
X70820000Y-94887500D02*
X68485000Y-94887500D01*
X68510000Y-77637500D02*
X70680000Y-77637500D01*
X70800000Y-60592500D02*
X70800000Y-77517500D01*
X79675000Y-101157500D02*
X79665000Y-101167500D01*
X70800000Y-84317500D02*
X70800000Y-94867500D01*
X70680000Y-77637500D02*
X70800000Y-77517500D01*
X70800000Y-84317500D02*
X70800000Y-84542500D01*
X70550000Y-60342500D02*
X70800000Y-60592500D01*
X70350000Y-43092500D02*
X70800000Y-43542500D01*
X79665000Y-101167500D02*
X77100000Y-101167500D01*
X68560000Y-43092500D02*
X70350000Y-43092500D01*
X70800000Y-77517500D02*
X70800000Y-84317500D01*
X70800000Y-84542500D02*
X75350000Y-84542500D01*
X68535000Y-60342500D02*
X70550000Y-60342500D01*
X70800000Y-46192500D02*
X70800000Y-60592500D01*
X77100000Y-101167500D02*
X70820000Y-94887500D01*
X70800000Y-43542500D02*
X70800000Y-46192500D01*
X70800000Y-94867500D02*
X70820000Y-94887500D01*
D32*
%TO.N,1.8V*%
X79050000Y-60442500D02*
X80035000Y-60442500D01*
X77450000Y-62042500D02*
X79050000Y-60442500D01*
X77205000Y-67302500D02*
X77450000Y-67057500D01*
X77450000Y-67057500D02*
X77450000Y-62042500D01*
%TD*%
M02*
