%TF.GenerationSoftware,KiCad,Pcbnew,(6.0.5)*%
%TF.CreationDate,2023-06-16T09:56:29+03:00*%
%TF.ProjectId,JLC1,4a4c4331-2e6b-4696-9361-645f70636258,rev?*%
%TF.SameCoordinates,Original*%
%TF.FileFunction,Copper,L1,Top*%
%TF.FilePolarity,Positive*%
%FSLAX46Y46*%
G04 Gerber Fmt 4.6, Leading zero omitted, Abs format (unit mm)*
G04 Created by KiCad (PCBNEW (6.0.5)) date 2023-06-16 09:56:29*
%MOMM*%
%LPD*%
G01*
G04 APERTURE LIST*
G04 Aperture macros list*
%AMRoundRect*
0 Rectangle with rounded corners*
0 $1 Rounding radius*
0 $2 $3 $4 $5 $6 $7 $8 $9 X,Y pos of 4 corners*
0 Add a 4 corners polygon primitive as box body*
4,1,4,$2,$3,$4,$5,$6,$7,$8,$9,$2,$3,0*
0 Add four circle primitives for the rounded corners*
1,1,$1+$1,$2,$3*
1,1,$1+$1,$4,$5*
1,1,$1+$1,$6,$7*
1,1,$1+$1,$8,$9*
0 Add four rect primitives between the rounded corners*
20,1,$1+$1,$2,$3,$4,$5,0*
20,1,$1+$1,$4,$5,$6,$7,0*
20,1,$1+$1,$6,$7,$8,$9,0*
20,1,$1+$1,$8,$9,$2,$3,0*%
G04 Aperture macros list end*
%TA.AperFunction,ComponentPad*%
%ADD10C,4.000000*%
%TD*%
%TA.AperFunction,ComponentPad*%
%ADD11C,1.600000*%
%TD*%
%TA.AperFunction,ComponentPad*%
%ADD12R,1.600000X1.600000*%
%TD*%
%TA.AperFunction,SMDPad,CuDef*%
%ADD13RoundRect,0.250000X-0.312500X-0.625000X0.312500X-0.625000X0.312500X0.625000X-0.312500X0.625000X0*%
%TD*%
%TA.AperFunction,SMDPad,CuDef*%
%ADD14RoundRect,0.250000X0.625000X-0.312500X0.625000X0.312500X-0.625000X0.312500X-0.625000X-0.312500X0*%
%TD*%
%TA.AperFunction,SMDPad,CuDef*%
%ADD15RoundRect,0.175000X0.175000X0.575000X-0.175000X0.575000X-0.175000X-0.575000X0.175000X-0.575000X0*%
%TD*%
%TA.AperFunction,ComponentPad*%
%ADD16O,1.700000X1.700000*%
%TD*%
%TA.AperFunction,ComponentPad*%
%ADD17R,1.700000X1.700000*%
%TD*%
%TA.AperFunction,SMDPad,CuDef*%
%ADD18RoundRect,0.250000X0.312500X0.625000X-0.312500X0.625000X-0.312500X-0.625000X0.312500X-0.625000X0*%
%TD*%
%TA.AperFunction,SMDPad,CuDef*%
%ADD19R,1.550000X1.300000*%
%TD*%
%TA.AperFunction,SMDPad,CuDef*%
%ADD20R,1.550000X2.200000*%
%TD*%
%TA.AperFunction,SMDPad,CuDef*%
%ADD21R,2.500000X2.200000*%
%TD*%
%TA.AperFunction,SMDPad,CuDef*%
%ADD22R,0.508000X1.473200*%
%TD*%
%TA.AperFunction,SMDPad,CuDef*%
%ADD23R,1.473200X0.508000*%
%TD*%
%TA.AperFunction,SMDPad,CuDef*%
%ADD24RoundRect,0.250000X-0.650000X0.325000X-0.650000X-0.325000X0.650000X-0.325000X0.650000X0.325000X0*%
%TD*%
%TA.AperFunction,SMDPad,CuDef*%
%ADD25R,1.900000X0.400000*%
%TD*%
%TA.AperFunction,SMDPad,CuDef*%
%ADD26RoundRect,0.197500X-0.197500X-0.632500X0.197500X-0.632500X0.197500X0.632500X-0.197500X0.632500X0*%
%TD*%
%TA.AperFunction,SMDPad,CuDef*%
%ADD27R,1.250000X2.200000*%
%TD*%
%TA.AperFunction,SMDPad,CuDef*%
%ADD28R,2.200000X2.200000*%
%TD*%
%TA.AperFunction,ComponentPad*%
%ADD29C,3.000000*%
%TD*%
%TA.AperFunction,ComponentPad*%
%ADD30R,1.500000X1.600000*%
%TD*%
%TA.AperFunction,SMDPad,CuDef*%
%ADD31RoundRect,0.250000X0.475000X-0.250000X0.475000X0.250000X-0.475000X0.250000X-0.475000X-0.250000X0*%
%TD*%
%TA.AperFunction,SMDPad,CuDef*%
%ADD32R,1.525000X0.440000*%
%TD*%
%TA.AperFunction,SMDPad,CuDef*%
%ADD33R,1.600000X0.550000*%
%TD*%
%TA.AperFunction,SMDPad,CuDef*%
%ADD34R,0.550000X1.600000*%
%TD*%
%TA.AperFunction,SMDPad,CuDef*%
%ADD35R,0.599440X1.998980*%
%TD*%
%TA.AperFunction,SMDPad,CuDef*%
%ADD36R,1.000000X1.500000*%
%TD*%
%TA.AperFunction,SMDPad,CuDef*%
%ADD37RoundRect,0.250000X-0.625000X0.312500X-0.625000X-0.312500X0.625000X-0.312500X0.625000X0.312500X0*%
%TD*%
%TA.AperFunction,SMDPad,CuDef*%
%ADD38R,1.300000X1.550000*%
%TD*%
%TA.AperFunction,SMDPad,CuDef*%
%ADD39RoundRect,0.250000X-0.250000X-0.475000X0.250000X-0.475000X0.250000X0.475000X-0.250000X0.475000X0*%
%TD*%
%TA.AperFunction,SMDPad,CuDef*%
%ADD40RoundRect,0.250000X-0.412500X-0.650000X0.412500X-0.650000X0.412500X0.650000X-0.412500X0.650000X0*%
%TD*%
%TA.AperFunction,SMDPad,CuDef*%
%ADD41R,1.050000X1.750000*%
%TD*%
%TA.AperFunction,SMDPad,CuDef*%
%ADD42R,0.500000X0.300000*%
%TD*%
%TA.AperFunction,SMDPad,CuDef*%
%ADD43R,2.200000X1.550000*%
%TD*%
%TA.AperFunction,SMDPad,CuDef*%
%ADD44R,2.200000X2.500000*%
%TD*%
%TA.AperFunction,SMDPad,CuDef*%
%ADD45RoundRect,0.250000X-0.475000X0.250000X-0.475000X-0.250000X0.475000X-0.250000X0.475000X0.250000X0*%
%TD*%
%TA.AperFunction,ComponentPad*%
%ADD46R,1.600000X1.500000*%
%TD*%
%TA.AperFunction,SMDPad,CuDef*%
%ADD47RoundRect,0.250000X0.650000X-0.325000X0.650000X0.325000X-0.650000X0.325000X-0.650000X-0.325000X0*%
%TD*%
%TA.AperFunction,SMDPad,CuDef*%
%ADD48R,2.500000X2.000000*%
%TD*%
%TA.AperFunction,SMDPad,CuDef*%
%ADD49R,2.500000X0.500000*%
%TD*%
%TA.AperFunction,SMDPad,CuDef*%
%ADD50R,3.600000X3.600000*%
%TD*%
%TA.AperFunction,SMDPad,CuDef*%
%ADD51RoundRect,0.062500X-0.337500X0.062500X-0.337500X-0.062500X0.337500X-0.062500X0.337500X0.062500X0*%
%TD*%
%TA.AperFunction,SMDPad,CuDef*%
%ADD52RoundRect,0.062500X-0.062500X0.337500X-0.062500X-0.337500X0.062500X-0.337500X0.062500X0.337500X0*%
%TD*%
%TA.AperFunction,SMDPad,CuDef*%
%ADD53R,0.400000X1.900000*%
%TD*%
%TA.AperFunction,SMDPad,CuDef*%
%ADD54R,1.000000X0.750000*%
%TD*%
%TA.AperFunction,ComponentPad*%
%ADD55O,3.500000X1.900000*%
%TD*%
%TA.AperFunction,SMDPad,CuDef*%
%ADD56R,2.500000X1.100000*%
%TD*%
%TA.AperFunction,SMDPad,CuDef*%
%ADD57RoundRect,0.049600X-0.260400X0.605400X-0.260400X-0.605400X0.260400X-0.605400X0.260400X0.605400X0*%
%TD*%
%TA.AperFunction,ViaPad*%
%ADD58C,0.600000*%
%TD*%
%TA.AperFunction,ViaPad*%
%ADD59C,0.800000*%
%TD*%
%TA.AperFunction,ViaPad*%
%ADD60C,0.500000*%
%TD*%
%TA.AperFunction,ViaPad*%
%ADD61C,0.400000*%
%TD*%
%TA.AperFunction,ViaPad*%
%ADD62C,1.000000*%
%TD*%
%TA.AperFunction,Conductor*%
%ADD63C,0.500000*%
%TD*%
%TA.AperFunction,Conductor*%
%ADD64C,0.400000*%
%TD*%
%TA.AperFunction,Conductor*%
%ADD65C,1.000000*%
%TD*%
%TA.AperFunction,Conductor*%
%ADD66C,0.200000*%
%TD*%
%TA.AperFunction,Conductor*%
%ADD67C,0.250000*%
%TD*%
%TA.AperFunction,Conductor*%
%ADD68C,0.350000*%
%TD*%
%TA.AperFunction,Conductor*%
%ADD69C,0.700000*%
%TD*%
%TA.AperFunction,Conductor*%
%ADD70C,0.600000*%
%TD*%
%TA.AperFunction,Conductor*%
%ADD71C,0.750000*%
%TD*%
%TA.AperFunction,Conductor*%
%ADD72C,0.450000*%
%TD*%
%TA.AperFunction,Conductor*%
%ADD73C,0.300000*%
%TD*%
G04 APERTURE END LIST*
D10*
%TO.P,USB,5*%
%TO.N,N/C*%
X166868450Y-56111550D03*
X166868450Y-44111550D03*
D11*
%TO.P,USB,4*%
X164008450Y-48861550D03*
%TO.P,USB,3*%
X164008450Y-51361550D03*
%TO.P,USB,2*%
X162008450Y-51361550D03*
D12*
%TO.P,USB,1*%
X162008450Y-48861550D03*
%TD*%
D13*
%TO.P,2K7,2*%
%TO.N,gnd*%
X96762500Y-72175000D03*
%TO.P,2K7,1*%
%TO.N,N/C*%
X93837500Y-72175000D03*
%TD*%
D14*
%TO.P,330R,2*%
%TO.N,N/C*%
X93000000Y-49912500D03*
%TO.P,330R,1*%
%TO.N,gnd*%
X93000000Y-52837500D03*
%TD*%
D15*
%TO.P,,1*%
%TO.N,N/C*%
X173275000Y-103732500D03*
%TD*%
D16*
%TO.P,REF\u002A\u002A,7*%
%TO.N,N/C*%
X121750000Y-131310000D03*
%TO.P,REF\u002A\u002A,6*%
X121750000Y-128770000D03*
%TO.P,REF\u002A\u002A,5*%
X121750000Y-126230000D03*
%TO.P,REF\u002A\u002A,4*%
X121750000Y-123690000D03*
%TO.P,REF\u002A\u002A,3*%
X121750000Y-121150000D03*
%TO.P,REF\u002A\u002A,2*%
X121750000Y-118610000D03*
D17*
%TO.P,REF\u002A\u002A,1*%
X121750000Y-116070000D03*
%TD*%
D15*
%TO.P,,1*%
%TO.N,N/C*%
X168525000Y-103720000D03*
%TD*%
D18*
%TO.P,330R,2*%
%TO.N,N/C*%
X130768450Y-42036550D03*
%TO.P,330R,1*%
X133693450Y-42036550D03*
%TD*%
D19*
%TO.P,RESET,2*%
%TO.N,N/C*%
X167768450Y-33811550D03*
X159818450Y-33811550D03*
%TO.P,RESET,1*%
X159818450Y-38311550D03*
X167768450Y-38311550D03*
%TD*%
D18*
%TO.P,47K,2*%
%TO.N,5v*%
X112603750Y-40405000D03*
%TO.P,47K,1*%
%TO.N,N/C*%
X115528750Y-40405000D03*
%TD*%
D20*
%TO.P,PORT2,2*%
%TO.N,N/C*%
X96075000Y-43400000D03*
D21*
%TO.P,PORT2,1*%
X98650000Y-43400000D03*
%TD*%
D18*
%TO.P,220R,2*%
%TO.N,N/C*%
X112603750Y-71305000D03*
%TO.P,220R,1*%
X115528750Y-71305000D03*
%TD*%
D15*
%TO.P,,1*%
%TO.N,N/C*%
X167625000Y-132395000D03*
%TD*%
D16*
%TO.P,REF\u002A\u002A,8*%
%TO.N,N/C*%
X80435872Y-128656900D03*
%TO.P,REF\u002A\u002A,7*%
X82975872Y-128656900D03*
%TO.P,REF\u002A\u002A,6*%
X85515872Y-128656900D03*
%TO.P,REF\u002A\u002A,5*%
X88055872Y-128656900D03*
%TO.P,REF\u002A\u002A,4*%
X90595872Y-128656900D03*
%TO.P,REF\u002A\u002A,3*%
X93135872Y-128656900D03*
%TO.P,REF\u002A\u002A,2*%
X95675872Y-128656900D03*
D17*
%TO.P,REF\u002A\u002A,1*%
X98215872Y-128656900D03*
%TD*%
D22*
%TO.P,ATmega32U4,44*%
%TO.N,N/C*%
X148152650Y-54594050D03*
%TO.P,ATmega32U4,43*%
X147365250Y-54594050D03*
%TO.P,ATmega32U4,42*%
X146552450Y-54594050D03*
%TO.P,ATmega32U4,41*%
X145765050Y-54594050D03*
%TO.P,ATmega32U4,40*%
X144952250Y-54594050D03*
%TO.P,ATmega32U4,39*%
X144164850Y-54594050D03*
%TO.P,ATmega32U4,38*%
X143377450Y-54594050D03*
%TO.P,ATmega32U4,37*%
X142564650Y-54594050D03*
%TO.P,ATmega32U4,36*%
X141777250Y-54594050D03*
%TO.P,ATmega32U4,35*%
X140964450Y-54594050D03*
%TO.P,ATmega32U4,34*%
X140177050Y-54594050D03*
D23*
%TO.P,ATmega32U4,33*%
X138424450Y-52841450D03*
%TO.P,ATmega32U4,32*%
X138424450Y-52054050D03*
%TO.P,ATmega32U4,31*%
X138424450Y-51241250D03*
%TO.P,ATmega32U4,30*%
X138424450Y-50453850D03*
%TO.P,ATmega32U4,29*%
X138424450Y-49641050D03*
%TO.P,ATmega32U4,28*%
X138424450Y-48853650D03*
%TO.P,ATmega32U4,27*%
X138424450Y-48066250D03*
%TO.P,ATmega32U4,26*%
X138424450Y-47253450D03*
%TO.P,ATmega32U4,25*%
X138424450Y-46466050D03*
%TO.P,ATmega32U4,24*%
X138424450Y-45653250D03*
%TO.P,ATmega32U4,23*%
X138424450Y-44865850D03*
D22*
%TO.P,ATmega32U4,22*%
X140177050Y-43113250D03*
%TO.P,ATmega32U4,21*%
X140964450Y-43113250D03*
%TO.P,ATmega32U4,20*%
X141777250Y-43113250D03*
%TO.P,ATmega32U4,19*%
X142564650Y-43113250D03*
%TO.P,ATmega32U4,18*%
X143377450Y-43113250D03*
%TO.P,ATmega32U4,17*%
X144164850Y-43113250D03*
%TO.P,ATmega32U4,16*%
X144952250Y-43113250D03*
%TO.P,ATmega32U4,15*%
X145765050Y-43113250D03*
%TO.P,ATmega32U4,14*%
X146552450Y-43113250D03*
%TO.P,ATmega32U4,13*%
X147365250Y-43113250D03*
%TO.P,ATmega32U4,12*%
X148152650Y-43113250D03*
D23*
%TO.P,ATmega32U4,11*%
X149905250Y-44865850D03*
%TO.P,ATmega32U4,10*%
X149905250Y-45653250D03*
%TO.P,ATmega32U4,9*%
X149905250Y-46466050D03*
%TO.P,ATmega32U4,8*%
X149905250Y-47253450D03*
%TO.P,ATmega32U4,7*%
X149905250Y-48066250D03*
%TO.P,ATmega32U4,6*%
X149905250Y-48853650D03*
%TO.P,ATmega32U4,5*%
X149905250Y-49641050D03*
%TO.P,ATmega32U4,4*%
X149905250Y-50453850D03*
%TO.P,ATmega32U4,3*%
X149905250Y-51241250D03*
%TO.P,ATmega32U4,2*%
X149905250Y-52054050D03*
%TO.P,ATmega32U4,1*%
X149905250Y-52841450D03*
%TD*%
D15*
%TO.P,,1*%
%TO.N,N/C*%
X171475000Y-103732500D03*
%TD*%
D18*
%TO.P,22R,2*%
%TO.N,N/C*%
X155625000Y-74395000D03*
%TO.P,22R,1*%
X158550000Y-74395000D03*
%TD*%
D15*
%TO.P,,1*%
%TO.N,N/C*%
X165825000Y-132395000D03*
%TD*%
D24*
%TO.P,100nF,2*%
%TO.N,N/C*%
X159040000Y-91355000D03*
%TO.P,100nF,1*%
X159040000Y-88405000D03*
%TD*%
D25*
%TO.P,16MHz,3*%
%TO.N,N/C*%
X155290000Y-89405000D03*
%TO.P,16MHz,2*%
X155290000Y-90605000D03*
%TO.P,16MHz,1*%
X155290000Y-91805000D03*
%TD*%
D26*
%TO.P,REF\u002A\u002A,4*%
%TO.N,gnd*%
X119141250Y-61780000D03*
%TO.P,REF\u002A\u002A,3*%
%TO.N,N/C*%
X119141250Y-65780000D03*
%TO.P,REF\u002A\u002A,2*%
X117341250Y-61780000D03*
%TO.P,REF\u002A\u002A,1*%
%TO.N,gnd*%
X117341250Y-65780000D03*
%TD*%
D11*
%TO.P,22pF,2*%
%TO.N,N/C*%
X89900000Y-35950000D03*
%TO.P,22pF,1*%
%TO.N,gnd*%
X87400000Y-35950000D03*
%TD*%
D20*
%TO.P,REF\u002A\u002A,2*%
%TO.N,N/C*%
X142615000Y-101730000D03*
D21*
%TO.P,REF\u002A\u002A,1*%
X145190000Y-101730000D03*
%TD*%
D20*
%TO.P,PORT4,2*%
%TO.N,N/C*%
X98475000Y-36400000D03*
D21*
%TO.P,PORT4,1*%
X95900000Y-36400000D03*
%TD*%
D27*
%TO.P,REF\u002A\u002A,2*%
%TO.N,N/C*%
X165225000Y-123270000D03*
D28*
%TO.P,REF\u002A\u002A,1*%
X167500000Y-123270000D03*
%TD*%
D29*
%TO.P,USB1,5*%
%TO.N,gnd*%
X84025000Y-104415000D03*
X84025000Y-91275000D03*
D11*
%TO.P,USB1,4*%
X86735000Y-101345000D03*
%TO.P,USB1,3*%
%TO.N,N/C*%
X86735000Y-98845000D03*
%TO.P,USB1,2*%
X86735000Y-96845000D03*
D30*
%TO.P,USB1,1*%
X86735000Y-94345000D03*
%TD*%
D31*
%TO.P,0.1uF,2*%
%TO.N,N/C*%
X150964850Y-54278650D03*
%TO.P,0.1uF,1*%
X150964850Y-56178650D03*
%TD*%
D14*
%TO.P,330R,2*%
%TO.N,N/C*%
X96825000Y-49912500D03*
%TO.P,330R,1*%
X96825000Y-52837500D03*
%TD*%
D18*
%TO.P,REF\u002A\u002A,2*%
%TO.N,N/C*%
X157912500Y-117495000D03*
%TO.P,REF\u002A\u002A,1*%
X160837500Y-117495000D03*
%TD*%
D16*
%TO.P,REF\u002A\u002A,6*%
%TO.N,N/C*%
X132325000Y-83770000D03*
%TO.P,REF\u002A\u002A,5*%
X132325000Y-81230000D03*
%TO.P,REF\u002A\u002A,4*%
X132325000Y-78690000D03*
%TO.P,REF\u002A\u002A,3*%
X132325000Y-76150000D03*
%TO.P,REF\u002A\u002A,2*%
X132325000Y-73610000D03*
D17*
%TO.P,REF\u002A\u002A,1*%
X132325000Y-71070000D03*
%TD*%
D27*
%TO.P,REF\u002A\u002A,2*%
%TO.N,N/C*%
X170950000Y-106907500D03*
D28*
%TO.P,REF\u002A\u002A,1*%
X173225000Y-106907500D03*
%TD*%
D18*
%TO.P,47K,2*%
%TO.N,5v*%
X112616250Y-68980000D03*
%TO.P,47K,1*%
%TO.N,N/C*%
X115541250Y-68980000D03*
%TD*%
%TO.P,REF\u002A\u002A,2*%
%TO.N,N/C*%
X157912500Y-119945000D03*
%TO.P,REF\u002A\u002A,1*%
X160837500Y-119945000D03*
%TD*%
D16*
%TO.P,REF\u002A\u002A,8*%
%TO.N,N/C*%
X133478450Y-34161550D03*
%TO.P,REF\u002A\u002A,7*%
X136018450Y-34161550D03*
%TO.P,REF\u002A\u002A,6*%
X138558450Y-34161550D03*
%TO.P,REF\u002A\u002A,5*%
X141098450Y-34161550D03*
%TO.P,REF\u002A\u002A,4*%
X143638450Y-34161550D03*
%TO.P,REF\u002A\u002A,3*%
X146178450Y-34161550D03*
%TO.P,REF\u002A\u002A,2*%
X148718450Y-34161550D03*
D17*
%TO.P,REF\u002A\u002A,1*%
X151258450Y-34161550D03*
%TD*%
D13*
%TO.P,22R,2*%
%TO.N,N/C*%
X158820950Y-48961550D03*
%TO.P,22R,1*%
X155895950Y-48961550D03*
%TD*%
D16*
%TO.P,REF\u002A\u002A,4*%
%TO.N,N/C*%
X135760000Y-130255000D03*
%TO.P,REF\u002A\u002A,3*%
X138300000Y-130255000D03*
%TO.P,REF\u002A\u002A,2*%
X140840000Y-130255000D03*
D17*
%TO.P,REF\u002A\u002A,1*%
X143380000Y-130255000D03*
%TD*%
D16*
%TO.P,REF\u002A\u002A,6*%
%TO.N,N/C*%
X144375000Y-77045000D03*
%TO.P,REF\u002A\u002A,5*%
X144375000Y-79585000D03*
%TO.P,REF\u002A\u002A,4*%
X141835000Y-77045000D03*
%TO.P,REF\u002A\u002A,3*%
X141835000Y-79585000D03*
%TO.P,REF\u002A\u002A,2*%
X139295000Y-77045000D03*
D17*
%TO.P,REF\u002A\u002A,1*%
X139295000Y-79585000D03*
%TD*%
D16*
%TO.P,REF\u002A\u002A,6*%
%TO.N,N/C*%
X137239850Y-59041050D03*
%TO.P,REF\u002A\u002A,5*%
X139779850Y-59041050D03*
%TO.P,REF\u002A\u002A,4*%
X142319850Y-59041050D03*
%TO.P,REF\u002A\u002A,3*%
X144859850Y-59041050D03*
%TO.P,REF\u002A\u002A,2*%
X147399850Y-59041050D03*
D17*
%TO.P,REF\u002A\u002A,1*%
X149939850Y-59041050D03*
%TD*%
D15*
%TO.P,,1*%
%TO.N,N/C*%
X165825000Y-103720000D03*
%TD*%
%TO.P,,1*%
%TO.N,N/C*%
X171475000Y-132407500D03*
%TD*%
D14*
%TO.P,,1*%
%TO.N,N/C*%
X100500000Y-52850000D03*
%TD*%
D18*
%TO.P,220R,2*%
%TO.N,N/C*%
X112603750Y-90355000D03*
%TO.P,220R,1*%
X115528750Y-90355000D03*
%TD*%
D32*
%TO.P,FE1.1s,28*%
%TO.N,N/C*%
X99445500Y-59910000D03*
%TO.P,FE1.1s,27*%
X99445500Y-60550000D03*
%TO.P,FE1.1s,26*%
X99445500Y-61190000D03*
%TO.P,FE1.1s,25*%
X99445500Y-61830000D03*
%TO.P,FE1.1s,24*%
X99445500Y-62470000D03*
%TO.P,FE1.1s,23*%
X99445500Y-63110000D03*
%TO.P,FE1.1s,22*%
X99445500Y-63750000D03*
%TO.P,FE1.1s,21*%
%TO.N,3.3V*%
X99445500Y-64390000D03*
%TO.P,FE1.1s,20*%
%TO.N,N/C*%
X99445500Y-65030000D03*
%TO.P,FE1.1s,19*%
%TO.N,3.3V*%
X99445500Y-65670000D03*
%TO.P,FE1.1s,18*%
X99445500Y-66310000D03*
%TO.P,FE1.1s,17*%
%TO.N,N/C*%
X99445500Y-66950000D03*
%TO.P,FE1.1s,16*%
X99445500Y-67590000D03*
%TO.P,FE1.1s,15*%
X99445500Y-68230000D03*
%TO.P,FE1.1s,14*%
X94021500Y-68230000D03*
%TO.P,FE1.1s,13*%
%TO.N,3.3V*%
X94021500Y-67590000D03*
%TO.P,FE1.1s,12*%
%TO.N,1.8V*%
X94021500Y-66950000D03*
%TO.P,FE1.1s,11*%
%TO.N,N/C*%
X94021500Y-66310000D03*
%TO.P,FE1.1s,10*%
X94021500Y-65670000D03*
%TO.P,FE1.1s,9*%
X94021500Y-65030000D03*
%TO.P,FE1.1s,8*%
X94021500Y-64390000D03*
%TO.P,FE1.1s,7*%
X94021500Y-63750000D03*
%TO.P,FE1.1s,6*%
X94021500Y-63110000D03*
%TO.P,FE1.1s,5*%
X94021500Y-62470000D03*
%TO.P,FE1.1s,4*%
X94021500Y-61830000D03*
%TO.P,FE1.1s,3*%
X94021500Y-61190000D03*
%TO.P,FE1.1s,2*%
X94021500Y-60550000D03*
%TO.P,FE1.1s,1*%
%TO.N,gnd*%
X94021500Y-59910000D03*
%TD*%
D15*
%TO.P,,1*%
%TO.N,N/C*%
X170575000Y-132407500D03*
%TD*%
D18*
%TO.P,47K,2*%
%TO.N,5v*%
X112603750Y-59480000D03*
%TO.P,47K,1*%
%TO.N,N/C*%
X115528750Y-59480000D03*
%TD*%
D14*
%TO.P,1K,2*%
%TO.N,3.3V*%
X107375000Y-68787500D03*
%TO.P,1K,1*%
%TO.N,N/C*%
X107375000Y-71712500D03*
%TD*%
D18*
%TO.P,220R,2*%
%TO.N,N/C*%
X112603750Y-99880000D03*
%TO.P,220R,1*%
X115528750Y-99880000D03*
%TD*%
%TO.P,330R,2*%
%TO.N,N/C*%
X141190000Y-94880000D03*
%TO.P,330R,1*%
X144115000Y-94880000D03*
%TD*%
D16*
%TO.P,REF\u002A\u002A,8*%
%TO.N,N/C*%
X136245000Y-83745000D03*
%TO.P,REF\u002A\u002A,7*%
X138785000Y-83745000D03*
%TO.P,REF\u002A\u002A,6*%
X141325000Y-83745000D03*
%TO.P,REF\u002A\u002A,5*%
X143865000Y-83745000D03*
%TO.P,REF\u002A\u002A,4*%
X146405000Y-83745000D03*
%TO.P,REF\u002A\u002A,3*%
X148945000Y-83745000D03*
%TO.P,REF\u002A\u002A,2*%
X151485000Y-83745000D03*
D17*
%TO.P,REF\u002A\u002A,1*%
X154025000Y-83745000D03*
%TD*%
D33*
%TO.P,ATmega16U2,32*%
%TO.N,N/C*%
X156490000Y-95280000D03*
%TO.P,ATmega16U2,31*%
X156490000Y-96080000D03*
%TO.P,ATmega16U2,30*%
X156490000Y-96880000D03*
%TO.P,ATmega16U2,29*%
X156490000Y-97680000D03*
%TO.P,ATmega16U2,28*%
X156490000Y-98480000D03*
%TO.P,ATmega16U2,27*%
X156490000Y-99280000D03*
%TO.P,ATmega16U2,26*%
X156490000Y-100080000D03*
%TO.P,ATmega16U2,25*%
X156490000Y-100880000D03*
D34*
%TO.P,ATmega16U2,24*%
X155040000Y-102330000D03*
%TO.P,ATmega16U2,23*%
X154240000Y-102330000D03*
%TO.P,ATmega16U2,22*%
X153440000Y-102330000D03*
%TO.P,ATmega16U2,21*%
X152640000Y-102330000D03*
%TO.P,ATmega16U2,20*%
X151840000Y-102330000D03*
%TO.P,ATmega16U2,19*%
X151040000Y-102330000D03*
%TO.P,ATmega16U2,18*%
X150240000Y-102330000D03*
%TO.P,ATmega16U2,17*%
X149440000Y-102330000D03*
D33*
%TO.P,ATmega16U2,16*%
X147990000Y-100880000D03*
%TO.P,ATmega16U2,15*%
X147990000Y-100080000D03*
%TO.P,ATmega16U2,14*%
X147990000Y-99280000D03*
%TO.P,ATmega16U2,13*%
X147990000Y-98480000D03*
%TO.P,ATmega16U2,12*%
X147990000Y-97680000D03*
%TO.P,ATmega16U2,11*%
X147990000Y-96880000D03*
%TO.P,ATmega16U2,10*%
X147990000Y-96080000D03*
%TO.P,ATmega16U2,9*%
X147990000Y-95280000D03*
D34*
%TO.P,ATmega16U2,8*%
X149440000Y-93830000D03*
%TO.P,ATmega16U2,7*%
X150240000Y-93830000D03*
%TO.P,ATmega16U2,6*%
X151040000Y-93830000D03*
%TO.P,ATmega16U2,5*%
X151840000Y-93830000D03*
%TO.P,ATmega16U2,4*%
X152640000Y-93830000D03*
%TO.P,ATmega16U2,3*%
X153440000Y-93830000D03*
%TO.P,ATmega16U2,2*%
X154240000Y-93830000D03*
%TO.P,ATmega16U2,1*%
X155040000Y-93830000D03*
%TD*%
D26*
%TO.P,REF\u002A\u002A,4*%
%TO.N,gnd*%
X119141250Y-99880000D03*
%TO.P,REF\u002A\u002A,3*%
%TO.N,N/C*%
X119141250Y-103880000D03*
%TO.P,REF\u002A\u002A,2*%
X117341250Y-99880000D03*
%TO.P,REF\u002A\u002A,1*%
%TO.N,gnd*%
X117341250Y-103880000D03*
%TD*%
D35*
%TO.P,REF\u002A\u002A,16*%
%TO.N,N/C*%
X104402500Y-115804100D03*
%TO.P,REF\u002A\u002A,15*%
X105672500Y-115804100D03*
%TO.P,REF\u002A\u002A,14*%
X106942500Y-115804100D03*
%TO.P,REF\u002A\u002A,13*%
X108212500Y-115804100D03*
%TO.P,REF\u002A\u002A,12*%
X109482500Y-115804100D03*
%TO.P,REF\u002A\u002A,11*%
X110752500Y-115804100D03*
%TO.P,REF\u002A\u002A,10*%
X112022500Y-115804100D03*
%TO.P,REF\u002A\u002A,9*%
X113292500Y-115804100D03*
%TO.P,REF\u002A\u002A,8*%
X113292500Y-120604700D03*
%TO.P,REF\u002A\u002A,7*%
X112022500Y-120604700D03*
%TO.P,REF\u002A\u002A,6*%
X110752500Y-120604700D03*
%TO.P,REF\u002A\u002A,5*%
X109482500Y-120604700D03*
%TO.P,REF\u002A\u002A,4*%
X108212500Y-120604700D03*
%TO.P,REF\u002A\u002A,3*%
X106942500Y-120604700D03*
%TO.P,REF\u002A\u002A,2*%
X105672500Y-120604700D03*
%TO.P,REF\u002A\u002A,1*%
X104402500Y-120604700D03*
%TD*%
D16*
%TO.P,REF\u002A\u002A,6*%
%TO.N,N/C*%
X158007450Y-41476050D03*
%TO.P,REF\u002A\u002A,5*%
X158007450Y-44016050D03*
%TO.P,REF\u002A\u002A,4*%
X155467450Y-41476050D03*
%TO.P,REF\u002A\u002A,3*%
X155467450Y-44016050D03*
%TO.P,REF\u002A\u002A,2*%
X152927450Y-41476050D03*
D17*
%TO.P,REF\u002A\u002A,1*%
X152927450Y-44016050D03*
%TD*%
D36*
%TO.P,FUSE,2*%
%TO.N,N/C*%
X103325000Y-60150000D03*
%TO.P,FUSE,1*%
X102025000Y-60150000D03*
%TD*%
D15*
%TO.P,,1*%
%TO.N,N/C*%
X172375000Y-132407500D03*
%TD*%
%TO.P,,1*%
%TO.N,N/C*%
X170575000Y-103732500D03*
%TD*%
D27*
%TO.P,REF\u002A\u002A,2*%
%TO.N,N/C*%
X170925000Y-112357500D03*
D28*
%TO.P,REF\u002A\u002A,1*%
X173200000Y-112357500D03*
%TD*%
D15*
%TO.P,,1*%
%TO.N,N/C*%
X172375000Y-103732500D03*
%TD*%
D26*
%TO.P,REF\u002A\u002A,4*%
%TO.N,gnd*%
X119141250Y-90355000D03*
%TO.P,REF\u002A\u002A,3*%
%TO.N,N/C*%
X119141250Y-94355000D03*
%TO.P,REF\u002A\u002A,2*%
X117341250Y-90355000D03*
%TO.P,REF\u002A\u002A,1*%
%TO.N,gnd*%
X117341250Y-94355000D03*
%TD*%
D18*
%TO.P,220R,2*%
%TO.N,N/C*%
X112603750Y-61805000D03*
%TO.P,220R,1*%
X115528750Y-61805000D03*
%TD*%
D37*
%TO.P,10uF,2*%
%TO.N,N/C*%
X159125000Y-69457500D03*
%TO.P,10uF,1*%
X159125000Y-66532500D03*
%TD*%
D38*
%TO.P,RESET,2*%
%TO.N,N/C*%
X103075000Y-76825000D03*
%TO.N,gnd*%
X103075000Y-84775000D03*
%TO.P,RESET,1*%
%TO.N,N/C*%
X107575000Y-84775000D03*
X107575000Y-76825000D03*
%TD*%
D37*
%TO.P,100nF,2*%
%TO.N,N/C*%
X135375000Y-71957500D03*
%TO.P,100nF,1*%
X135375000Y-69032500D03*
%TD*%
D27*
%TO.P,REF\u002A\u002A,2*%
%TO.N,N/C*%
X165300000Y-106895000D03*
D28*
%TO.P,REF\u002A\u002A,1*%
X167575000Y-106895000D03*
%TD*%
D37*
%TO.P,100nF,2*%
%TO.N,N/C*%
X156800000Y-69457500D03*
%TO.P,100nF,1*%
X156800000Y-66532500D03*
%TD*%
D18*
%TO.P,FUSE,2*%
%TO.N,3.3V*%
X101537500Y-64000000D03*
%TO.P,FUSE,1*%
%TO.N,N/C*%
X104462500Y-64000000D03*
%TD*%
D39*
%TO.P,1uF,2*%
%TO.N,N/C*%
X160790000Y-101080000D03*
%TO.P,1uF,1*%
X158890000Y-101080000D03*
%TD*%
D30*
%TO.P,USB2,1*%
%TO.N,N/C*%
X86760000Y-77095000D03*
D11*
%TO.P,USB2,2*%
X86760000Y-79595000D03*
%TO.P,USB2,3*%
X86760000Y-81595000D03*
%TO.P,USB2,4*%
%TO.N,gnd*%
X86760000Y-84095000D03*
D29*
%TO.P,USB2,5*%
X84050000Y-74025000D03*
X84050000Y-87165000D03*
%TD*%
D18*
%TO.P,REF\u002A\u002A,2*%
%TO.N,N/C*%
X170825000Y-126007500D03*
%TO.P,REF\u002A\u002A,1*%
X173750000Y-126007500D03*
%TD*%
D37*
%TO.P,330R,2*%
%TO.N,N/C*%
X132890000Y-100530000D03*
%TO.P,330R,1*%
X132890000Y-97605000D03*
%TD*%
D20*
%TO.P,PORT1,2*%
%TO.N,N/C*%
X101325000Y-46900000D03*
D21*
%TO.P,PORT1,1*%
X98750000Y-46900000D03*
%TD*%
D15*
%TO.P,,1*%
%TO.N,N/C*%
X164925000Y-132395000D03*
%TD*%
D18*
%TO.P,47K,2*%
%TO.N,5v*%
X112603750Y-49930000D03*
%TO.P,47K,1*%
%TO.N,N/C*%
X115528750Y-49930000D03*
%TD*%
D20*
%TO.P,REF\u002A\u002A,2*%
%TO.N,N/C*%
X138427500Y-117080000D03*
D21*
%TO.P,REF\u002A\u002A,1*%
X141002500Y-117080000D03*
%TD*%
D16*
%TO.P,REF\u002A\u002A,8*%
%TO.N,N/C*%
X100735872Y-128656900D03*
%TO.P,REF\u002A\u002A,7*%
X103275872Y-128656900D03*
%TO.P,REF\u002A\u002A,6*%
X105815872Y-128656900D03*
%TO.P,REF\u002A\u002A,5*%
X108355872Y-128656900D03*
%TO.P,REF\u002A\u002A,4*%
X110895872Y-128656900D03*
%TO.P,REF\u002A\u002A,3*%
X113435872Y-128656900D03*
%TO.P,REF\u002A\u002A,2*%
X115975872Y-128656900D03*
D17*
%TO.P,REF\u002A\u002A,1*%
X118515872Y-128656900D03*
%TD*%
D20*
%TO.P,REF\u002A\u002A,2*%
%TO.N,N/C*%
X139290000Y-94505000D03*
D21*
%TO.P,REF\u002A\u002A,1*%
X136715000Y-94505000D03*
%TD*%
D31*
%TO.P,1uF,2*%
%TO.N,N/C*%
X162775000Y-117295000D03*
%TO.P,1uF,1*%
X162775000Y-119195000D03*
%TD*%
D15*
%TO.P,,1*%
%TO.N,N/C*%
X167625000Y-103720000D03*
%TD*%
D18*
%TO.P,REF\u002A\u002A,2*%
%TO.N,N/C*%
X165250000Y-109620000D03*
%TO.P,REF\u002A\u002A,1*%
X168175000Y-109620000D03*
%TD*%
D16*
%TO.P,REF\u002A\u002A,6*%
%TO.N,N/C*%
X133533450Y-46386550D03*
%TO.P,REF\u002A\u002A,5*%
X133533450Y-48926550D03*
%TO.P,REF\u002A\u002A,4*%
X133533450Y-51466550D03*
%TO.P,REF\u002A\u002A,3*%
X133533450Y-54006550D03*
%TO.P,REF\u002A\u002A,2*%
X133533450Y-56546550D03*
D17*
%TO.P,REF\u002A\u002A,1*%
X133533450Y-59086550D03*
%TD*%
D40*
%TO.P,10uF,2*%
%TO.N,gnd*%
X96712500Y-76250000D03*
%TO.P,10uF,1*%
%TO.N,3.3V*%
X93587500Y-76250000D03*
%TD*%
D27*
%TO.P,REF\u002A\u002A,2*%
%TO.N,N/C*%
X170875000Y-123282500D03*
D28*
%TO.P,REF\u002A\u002A,1*%
X173150000Y-123282500D03*
%TD*%
D18*
%TO.P,220R,2*%
%TO.N,N/C*%
X112603750Y-42730000D03*
%TO.P,220R,1*%
X115528750Y-42730000D03*
%TD*%
%TO.P,REF\u002A\u002A,2*%
%TO.N,N/C*%
X170875000Y-115082500D03*
%TO.P,REF\u002A\u002A,1*%
X173800000Y-115082500D03*
%TD*%
D41*
%TO.P,LM358,9*%
%TO.N,N/C*%
X160525000Y-114882500D03*
D42*
%TO.P,LM358,8*%
X161425000Y-114132500D03*
%TO.P,LM358,7*%
X161425000Y-114632500D03*
%TO.P,LM358,6*%
X161425000Y-115132500D03*
%TO.P,LM358,5*%
X161425000Y-115632500D03*
%TO.P,LM358,4*%
X159625000Y-115632500D03*
%TO.P,LM358,3*%
X159625000Y-115132500D03*
%TO.P,LM358,2*%
X159625000Y-114632500D03*
%TO.P,LM358,1*%
X159625000Y-114132500D03*
%TD*%
D27*
%TO.P,REF\u002A\u002A,2*%
%TO.N,N/C*%
X165250000Y-117820000D03*
D28*
%TO.P,REF\u002A\u002A,1*%
X167525000Y-117820000D03*
%TD*%
D15*
%TO.P,,1*%
%TO.N,N/C*%
X164925000Y-103720000D03*
%TD*%
D43*
%TO.P,TX,2*%
%TO.N,N/C*%
X137208450Y-40936550D03*
D44*
%TO.P,TX,1*%
X137208450Y-38361550D03*
%TD*%
D18*
%TO.P,REF\u002A\u002A,2*%
%TO.N,N/C*%
X165200000Y-120545000D03*
%TO.P,REF\u002A\u002A,1*%
X168125000Y-120545000D03*
%TD*%
D39*
%TO.P,1uF,2*%
%TO.N,N/C*%
X156775000Y-77045000D03*
%TO.P,1uF,1*%
X154875000Y-77045000D03*
%TD*%
D18*
%TO.P,220R,2*%
%TO.N,N/C*%
X112603750Y-33205000D03*
%TO.P,220R,1*%
X115528750Y-33205000D03*
%TD*%
D15*
%TO.P,,1*%
%TO.N,N/C*%
X174175000Y-132407500D03*
%TD*%
D18*
%TO.P,330R,2*%
%TO.N,N/C*%
X130793450Y-38486550D03*
%TO.P,330R,1*%
X133718450Y-38486550D03*
%TD*%
%TO.P,REF\u002A\u002A,2*%
%TO.N,N/C*%
X170900000Y-109632500D03*
%TO.P,REF\u002A\u002A,1*%
X173825000Y-109632500D03*
%TD*%
D15*
%TO.P,,1*%
%TO.N,N/C*%
X173275000Y-132407500D03*
%TD*%
D41*
%TO.P,LM358,9*%
%TO.N,N/C*%
X157425000Y-114845000D03*
D42*
%TO.P,LM358,8*%
X158325000Y-114095000D03*
%TO.P,LM358,7*%
X158325000Y-114595000D03*
%TO.P,LM358,6*%
X158325000Y-115095000D03*
%TO.P,LM358,5*%
X158325000Y-115595000D03*
%TO.P,LM358,4*%
X156525000Y-115595000D03*
%TO.P,LM358,3*%
X156525000Y-115095000D03*
%TO.P,LM358,2*%
X156525000Y-114595000D03*
%TO.P,LM358,1*%
X156525000Y-114095000D03*
%TD*%
D19*
%TO.P,RESET,2*%
%TO.N,N/C*%
X158750000Y-79745000D03*
X166700000Y-79745000D03*
%TO.P,RESET,1*%
X158750000Y-84245000D03*
X166700000Y-84245000D03*
%TD*%
D15*
%TO.P,,1*%
%TO.N,N/C*%
X166725000Y-103720000D03*
%TD*%
D45*
%TO.P,10uF,2*%
%TO.N,N/C*%
X155158450Y-56186550D03*
%TO.P,10uF,1*%
X155158450Y-54286550D03*
%TD*%
D29*
%TO.P,USB_0,5*%
%TO.N,gnd*%
X107995000Y-103325000D03*
X94855000Y-103325000D03*
D11*
%TO.P,USB_0,4*%
X104925000Y-100615000D03*
%TO.P,USB_0,3*%
%TO.N,N/C*%
X102425000Y-100615000D03*
%TO.P,USB_0,2*%
X100425000Y-100615000D03*
D46*
%TO.P,USB_0,1*%
X97925000Y-100615000D03*
%TD*%
D15*
%TO.P,,1*%
%TO.N,N/C*%
X166725000Y-132395000D03*
%TD*%
%TO.P,,1*%
%TO.N,N/C*%
X168525000Y-132395000D03*
%TD*%
D18*
%TO.P,220R,2*%
%TO.N,N/C*%
X112603750Y-52255000D03*
%TO.P,220R,1*%
X115528750Y-52255000D03*
%TD*%
D39*
%TO.P,1uF,2*%
%TO.N,N/C*%
X153727450Y-48466050D03*
%TO.P,1uF,1*%
X151827450Y-48466050D03*
%TD*%
D14*
%TO.P,10K,2*%
%TO.N,N/C*%
X130540000Y-97605000D03*
%TO.P,10K,1*%
X130540000Y-100530000D03*
%TD*%
D31*
%TO.P,1uF,2*%
%TO.N,N/C*%
X162775000Y-121095000D03*
%TO.P,1uF,1*%
X162775000Y-122995000D03*
%TD*%
D16*
%TO.P,REF\u002A\u002A,8*%
%TO.N,N/C*%
X132710000Y-89080000D03*
%TO.P,REF\u002A\u002A,7*%
X135250000Y-89080000D03*
%TO.P,REF\u002A\u002A,6*%
X137790000Y-89080000D03*
%TO.P,REF\u002A\u002A,5*%
X140330000Y-89080000D03*
%TO.P,REF\u002A\u002A,4*%
X142870000Y-89080000D03*
%TO.P,REF\u002A\u002A,3*%
X145410000Y-89080000D03*
%TO.P,REF\u002A\u002A,2*%
X147950000Y-89080000D03*
D17*
%TO.P,REF\u002A\u002A,1*%
X150490000Y-89080000D03*
%TD*%
D14*
%TO.P,330R,2*%
%TO.N,N/C*%
X100500000Y-49925000D03*
%TO.P,330R,1*%
X100500000Y-52850000D03*
%TD*%
D13*
%TO.P,1K,2*%
%TO.N,N/C*%
X134715000Y-115230000D03*
%TO.P,1K,1*%
%TO.N,gnd*%
X131790000Y-115230000D03*
%TD*%
D18*
%TO.P,1K,2*%
%TO.N,N/C*%
X135212500Y-73945000D03*
%TO.P,1K,1*%
X138137500Y-73945000D03*
%TD*%
D16*
%TO.P,REF\u002A\u002A,7*%
%TO.N,N/C*%
X76770000Y-131296900D03*
%TO.P,REF\u002A\u002A,6*%
X76770000Y-128756900D03*
%TO.P,REF\u002A\u002A,5*%
X76770000Y-126216900D03*
%TO.P,REF\u002A\u002A,4*%
X76770000Y-123676900D03*
%TO.P,REF\u002A\u002A,3*%
X76770000Y-121136900D03*
%TO.P,REF\u002A\u002A,2*%
X76770000Y-118596900D03*
D17*
%TO.P,REF\u002A\u002A,1*%
X76770000Y-116056900D03*
%TD*%
D18*
%TO.P,47K,2*%
%TO.N,5v*%
X112603750Y-88030000D03*
%TO.P,47K,1*%
%TO.N,N/C*%
X115528750Y-88030000D03*
%TD*%
D26*
%TO.P,REF\u002A\u002A,4*%
%TO.N,gnd*%
X119141250Y-80830000D03*
%TO.P,REF\u002A\u002A,3*%
%TO.N,N/C*%
X119141250Y-84830000D03*
%TO.P,REF\u002A\u002A,2*%
X117341250Y-80830000D03*
%TO.P,REF\u002A\u002A,1*%
%TO.N,gnd*%
X117341250Y-84830000D03*
%TD*%
D13*
%TO.P,22R,2*%
%TO.N,N/C*%
X158828950Y-51330550D03*
%TO.P,22R,1*%
X155903950Y-51330550D03*
%TD*%
D26*
%TO.P,REF\u002A\u002A,4*%
%TO.N,gnd*%
X119141250Y-33205000D03*
%TO.P,REF\u002A\u002A,3*%
%TO.N,N/C*%
X119141250Y-37205000D03*
%TO.P,REF\u002A\u002A,2*%
X117341250Y-33205000D03*
%TO.P,REF\u002A\u002A,1*%
%TO.N,gnd*%
X117341250Y-37205000D03*
%TD*%
D16*
%TO.P,REF\u002A\u002A,4*%
%TO.N,N/C*%
X159873450Y-60511550D03*
%TO.P,REF\u002A\u002A,3*%
X162413450Y-60511550D03*
%TO.P,REF\u002A\u002A,2*%
X164953450Y-60511550D03*
D17*
%TO.P,REF\u002A\u002A,1*%
X167493450Y-60511550D03*
%TD*%
D43*
%TO.P,REF\u002A\u002A,2*%
%TO.N,N/C*%
X135775000Y-80020000D03*
D44*
%TO.P,REF\u002A\u002A,1*%
X135775000Y-77445000D03*
%TD*%
D16*
%TO.P,-BAT+,2*%
%TO.N,N/C*%
X153818450Y-34161550D03*
D17*
%TO.P,-BAT+,1*%
X156358450Y-34161550D03*
%TD*%
D47*
%TO.P,100nF,2*%
%TO.N,N/C*%
X131502500Y-125705000D03*
%TO.P,100nF,1*%
X131502500Y-128655000D03*
%TD*%
D48*
%TO.P,USB,6*%
%TO.N,gnd*%
X147752500Y-117905000D03*
%TO.N,N/C*%
X153252500Y-126705000D03*
X147752500Y-126705000D03*
X153252500Y-117905000D03*
D49*
%TO.P,USB,5*%
%TO.N,gnd*%
X147752500Y-120705000D03*
%TO.P,USB,4*%
X147752500Y-121505000D03*
%TO.P,USB,3*%
%TO.N,N/C*%
X147752500Y-122305000D03*
%TO.P,USB,2*%
X147752500Y-123105000D03*
%TO.P,USB,1*%
X147752500Y-123905000D03*
%TD*%
D27*
%TO.P,REF\u002A\u002A,2*%
%TO.N,N/C*%
X158000000Y-122895000D03*
D28*
%TO.P,REF\u002A\u002A,1*%
X160275000Y-122895000D03*
%TD*%
D26*
%TO.P,REF\u002A\u002A,4*%
%TO.N,gnd*%
X119141250Y-71305000D03*
%TO.P,REF\u002A\u002A,3*%
%TO.N,N/C*%
X119141250Y-75305000D03*
%TO.P,REF\u002A\u002A,2*%
X117341250Y-71305000D03*
%TO.P,REF\u002A\u002A,1*%
%TO.N,gnd*%
X117341250Y-75305000D03*
%TD*%
D36*
%TO.P,BTN,2*%
%TO.N,N/C*%
X103675000Y-70725000D03*
%TO.P,BTN,1*%
X102375000Y-70725000D03*
%TD*%
D18*
%TO.P,47K,2*%
%TO.N,5v*%
X112603750Y-97555000D03*
%TO.P,47K,1*%
%TO.N,N/C*%
X115528750Y-97555000D03*
%TD*%
D14*
%TO.P,10K,2*%
%TO.N,N/C*%
X149518450Y-37674050D03*
%TO.P,10K,1*%
X149518450Y-40599050D03*
%TD*%
D18*
%TO.P,REF\u002A\u002A,2*%
%TO.N,N/C*%
X170850000Y-120557500D03*
%TO.P,REF\u002A\u002A,1*%
X173775000Y-120557500D03*
%TD*%
D40*
%TO.P,10uF,2*%
%TO.N,gnd*%
X96762500Y-84000000D03*
%TO.P,10uF,1*%
%TO.N,N/C*%
X93637500Y-84000000D03*
%TD*%
D20*
%TO.P,POW,2*%
%TO.N,N/C*%
X153208450Y-59011550D03*
D21*
%TO.P,POW,1*%
X155783450Y-59011550D03*
%TD*%
D18*
%TO.P,330R,2*%
%TO.N,N/C*%
X141190000Y-96830000D03*
%TO.P,330R,1*%
X144115000Y-96830000D03*
%TD*%
%TO.P,REF\u002A\u002A,2*%
%TO.N,N/C*%
X165225000Y-115070000D03*
%TO.P,REF\u002A\u002A,1*%
X168150000Y-115070000D03*
%TD*%
%TO.P,47K,2*%
%TO.N,5v*%
X112603750Y-105905000D03*
%TO.P,47K,1*%
%TO.N,N/C*%
X115528750Y-105905000D03*
%TD*%
D26*
%TO.P,REF\u002A\u002A,4*%
%TO.N,gnd*%
X119141250Y-42730000D03*
%TO.P,REF\u002A\u002A,3*%
%TO.N,N/C*%
X119141250Y-46730000D03*
%TO.P,REF\u002A\u002A,2*%
X117341250Y-42730000D03*
%TO.P,REF\u002A\u002A,1*%
%TO.N,gnd*%
X117341250Y-46730000D03*
%TD*%
D36*
%TO.P,TEST,2*%
%TO.N,3.3V*%
X100375000Y-57325000D03*
%TO.P,TEST,1*%
%TO.N,N/C*%
X99075000Y-57325000D03*
%TD*%
D50*
%TO.P,AT90USB162,33*%
%TO.N,N/C*%
X150675000Y-74095000D03*
D51*
%TO.P,AT90USB162,32*%
X153125000Y-72345000D03*
%TO.P,AT90USB162,31*%
X153125000Y-72845000D03*
%TO.P,AT90USB162,30*%
X153125000Y-73345000D03*
%TO.P,AT90USB162,29*%
X153125000Y-73845000D03*
%TO.P,AT90USB162,28*%
X153125000Y-74345000D03*
%TO.P,AT90USB162,27*%
X153125000Y-74845000D03*
%TO.P,AT90USB162,26*%
X153125000Y-75345000D03*
%TO.P,AT90USB162,25*%
X153125000Y-75845000D03*
D52*
%TO.P,AT90USB162,24*%
X152425000Y-76545000D03*
%TO.P,AT90USB162,23*%
X151925000Y-76545000D03*
%TO.P,AT90USB162,22*%
X151425000Y-76545000D03*
%TO.P,AT90USB162,21*%
X150925000Y-76545000D03*
%TO.P,AT90USB162,20*%
X150425000Y-76545000D03*
%TO.P,AT90USB162,19*%
X149925000Y-76545000D03*
%TO.P,AT90USB162,18*%
X149425000Y-76545000D03*
%TO.P,AT90USB162,17*%
X148925000Y-76545000D03*
D51*
%TO.P,AT90USB162,16*%
X148225000Y-75845000D03*
%TO.P,AT90USB162,15*%
X148225000Y-75345000D03*
%TO.P,AT90USB162,14*%
X148225000Y-74845000D03*
%TO.P,AT90USB162,13*%
X148225000Y-74345000D03*
%TO.P,AT90USB162,12*%
X148225000Y-73845000D03*
%TO.P,AT90USB162,11*%
X148225000Y-73345000D03*
%TO.P,AT90USB162,10*%
X148225000Y-72845000D03*
%TO.P,AT90USB162,9*%
X148225000Y-72345000D03*
D52*
%TO.P,AT90USB162,8*%
X148925000Y-71645000D03*
%TO.P,AT90USB162,7*%
X149425000Y-71645000D03*
%TO.P,AT90USB162,6*%
X149925000Y-71645000D03*
%TO.P,AT90USB162,5*%
X150425000Y-71645000D03*
%TO.P,AT90USB162,4*%
X150925000Y-71645000D03*
%TO.P,AT90USB162,3*%
X151425000Y-71645000D03*
%TO.P,AT90USB162,2*%
X151925000Y-71645000D03*
%TO.P,AT90USB162,1*%
X152425000Y-71645000D03*
%TD*%
D14*
%TO.P,330R,2*%
%TO.N,N/C*%
X158783450Y-54224050D03*
%TO.P,330R,1*%
X158783450Y-57149050D03*
%TD*%
D43*
%TO.P,PWR,2*%
%TO.N,N/C*%
X92400000Y-43775000D03*
D44*
%TO.P,PWR,1*%
X92400000Y-46350000D03*
%TD*%
D43*
%TO.P,REF\u002A\u002A,2*%
%TO.N,N/C*%
X87050000Y-114445000D03*
D44*
%TO.P,REF\u002A\u002A,1*%
X87050000Y-117020000D03*
%TD*%
D43*
%TO.P,RX,2*%
%TO.N,N/C*%
X140783450Y-40936550D03*
D44*
%TO.P,RX,1*%
X140783450Y-38361550D03*
%TD*%
D26*
%TO.P,REF\u002A\u002A,4*%
%TO.N,gnd*%
X119141250Y-52255000D03*
%TO.P,REF\u002A\u002A,3*%
%TO.N,N/C*%
X119141250Y-56255000D03*
%TO.P,REF\u002A\u002A,2*%
X117341250Y-52255000D03*
%TO.P,REF\u002A\u002A,1*%
%TO.N,gnd*%
X117341250Y-56255000D03*
%TD*%
D27*
%TO.P,REF\u002A\u002A,2*%
%TO.N,N/C*%
X170900000Y-117832500D03*
D28*
%TO.P,REF\u002A\u002A,1*%
X173175000Y-117832500D03*
%TD*%
D18*
%TO.P,10K,2*%
%TO.N,N/C*%
X158612500Y-77145000D03*
%TO.P,10K,1*%
X161537500Y-77145000D03*
%TD*%
D24*
%TO.P,100nF,2*%
%TO.N,N/C*%
X131480000Y-121305000D03*
%TO.P,100nF,1*%
%TO.N,gnd*%
X131480000Y-118355000D03*
%TD*%
D25*
%TO.P,16MHz,3*%
%TO.N,N/C*%
X153975000Y-70245000D03*
%TO.P,16MHz,2*%
X153975000Y-69045000D03*
%TO.P,16MHz,1*%
X153975000Y-67845000D03*
%TD*%
D35*
%TO.P,REF\u002A\u002A,16*%
%TO.N,N/C*%
X93080000Y-115819400D03*
%TO.P,REF\u002A\u002A,15*%
X94350000Y-115819400D03*
%TO.P,REF\u002A\u002A,14*%
X95620000Y-115819400D03*
%TO.P,REF\u002A\u002A,13*%
X96890000Y-115819400D03*
%TO.P,REF\u002A\u002A,12*%
X98160000Y-115819400D03*
%TO.P,REF\u002A\u002A,11*%
X99430000Y-115819400D03*
%TO.P,REF\u002A\u002A,10*%
X100700000Y-115819400D03*
%TO.P,REF\u002A\u002A,9*%
X101970000Y-115819400D03*
%TO.P,REF\u002A\u002A,8*%
X101970000Y-120620000D03*
%TO.P,REF\u002A\u002A,7*%
X100700000Y-120620000D03*
%TO.P,REF\u002A\u002A,6*%
X99430000Y-120620000D03*
%TO.P,REF\u002A\u002A,5*%
X98160000Y-120620000D03*
%TO.P,REF\u002A\u002A,4*%
X96890000Y-120620000D03*
%TO.P,REF\u002A\u002A,3*%
X95620000Y-120620000D03*
%TO.P,REF\u002A\u002A,2*%
X94350000Y-120620000D03*
%TO.P,REF\u002A\u002A,1*%
X93080000Y-120620000D03*
%TD*%
D16*
%TO.P,REF\u002A\u002A,6*%
%TO.N,gnd*%
X128302500Y-115670000D03*
%TO.P,REF\u002A\u002A,5*%
X128302500Y-118210000D03*
%TO.P,REF\u002A\u002A,4*%
%TO.N,N/C*%
X128302500Y-120750000D03*
%TO.P,REF\u002A\u002A,3*%
X128302500Y-123290000D03*
%TO.P,REF\u002A\u002A,2*%
X128302500Y-125830000D03*
D17*
%TO.P,REF\u002A\u002A,1*%
X128302500Y-128370000D03*
%TD*%
D16*
%TO.P,REF\u002A\u002A,6*%
%TO.N,N/C*%
X160480000Y-110385000D03*
%TO.P,REF\u002A\u002A,5*%
X157940000Y-110385000D03*
%TO.P,REF\u002A\u002A,4*%
X160480000Y-107845000D03*
%TO.P,REF\u002A\u002A,3*%
X157940000Y-107845000D03*
%TO.P,REF\u002A\u002A,2*%
X160480000Y-105305000D03*
D17*
%TO.P,REF\u002A\u002A,1*%
X157940000Y-105305000D03*
%TD*%
D27*
%TO.P,REF\u002A\u002A,2*%
%TO.N,N/C*%
X165275000Y-112345000D03*
D28*
%TO.P,REF\u002A\u002A,1*%
X167550000Y-112345000D03*
%TD*%
D16*
%TO.P,REF\u002A\u002A,8*%
%TO.N,N/C*%
X132370000Y-65745000D03*
%TO.P,REF\u002A\u002A,7*%
X134910000Y-65745000D03*
%TO.P,REF\u002A\u002A,6*%
X137450000Y-65745000D03*
%TO.P,REF\u002A\u002A,5*%
X139990000Y-65745000D03*
%TO.P,REF\u002A\u002A,4*%
X142530000Y-65745000D03*
%TO.P,REF\u002A\u002A,3*%
X145070000Y-65745000D03*
%TO.P,REF\u002A\u002A,2*%
X147610000Y-65745000D03*
D17*
%TO.P,REF\u002A\u002A,1*%
X150150000Y-65745000D03*
%TD*%
D15*
%TO.P,,1*%
%TO.N,N/C*%
X174175000Y-103732500D03*
%TD*%
D18*
%TO.P,47K,2*%
%TO.N,5v*%
X112603750Y-78505000D03*
%TO.P,47K,1*%
%TO.N,N/C*%
X115528750Y-78505000D03*
%TD*%
D53*
%TO.P,16MHz,3*%
%TO.N,N/C*%
X145877450Y-39416050D03*
%TO.P,16MHz,2*%
X144677450Y-39416050D03*
%TO.P,16MHz,1*%
X143477450Y-39416050D03*
%TD*%
D40*
%TO.P,10uF,2*%
%TO.N,gnd*%
X96787500Y-80150000D03*
%TO.P,10uF,1*%
%TO.N,1.8V*%
X93662500Y-80150000D03*
%TD*%
D37*
%TO.P,1K,2*%
%TO.N,N/C*%
X83975000Y-117582500D03*
%TO.P,1K,1*%
X83975000Y-114657500D03*
%TD*%
D53*
%TO.P,12MHz,3*%
%TO.N,N/C*%
X93750000Y-57000000D03*
%TO.P,12MHz,2*%
%TO.N,gnd*%
X92550000Y-57000000D03*
%TO.P,12MHz,1*%
%TO.N,N/C*%
X91350000Y-57000000D03*
%TD*%
D29*
%TO.P,USB3,5*%
%TO.N,gnd*%
X84075000Y-56730000D03*
X84075000Y-69870000D03*
D11*
%TO.P,USB3,4*%
X86785000Y-66800000D03*
%TO.P,USB3,3*%
%TO.N,N/C*%
X86785000Y-64300000D03*
%TO.P,USB3,2*%
X86785000Y-62300000D03*
D30*
%TO.P,USB3,1*%
X86785000Y-59800000D03*
%TD*%
D31*
%TO.P,1uF,2*%
%TO.N,N/C*%
X153039850Y-54278650D03*
%TO.P,1uF,1*%
X153039850Y-56178650D03*
%TD*%
D36*
%TO.P,RESET,2*%
%TO.N,3.3V*%
X103150000Y-66575000D03*
%TO.P,RESET,1*%
%TO.N,N/C*%
X101850000Y-66575000D03*
%TD*%
D18*
%TO.P,REF\u002A\u002A,2*%
%TO.N,N/C*%
X165175000Y-125995000D03*
%TO.P,REF\u002A\u002A,1*%
X168100000Y-125995000D03*
%TD*%
D20*
%TO.P,REF\u002A\u002A,2*%
%TO.N,N/C*%
X139265000Y-97955000D03*
D21*
%TO.P,REF\u002A\u002A,1*%
X136690000Y-97955000D03*
%TD*%
D54*
%TO.P,FUSE,2*%
%TO.N,gnd*%
X92637500Y-52825000D03*
%TO.P,FUSE,1*%
X91337500Y-52825000D03*
%TD*%
D18*
%TO.P,22R,2*%
%TO.N,N/C*%
X155625000Y-72095000D03*
%TO.P,22R,1*%
X158550000Y-72095000D03*
%TD*%
D55*
%TO.P,USB_0,5*%
%TO.N,N/C*%
X164875000Y-76895000D03*
X164875000Y-65495000D03*
D56*
%TO.P,USB_0,4*%
X162125000Y-74695000D03*
%TO.P,USB_0,3*%
X162125000Y-72195000D03*
%TO.P,USB_0,2*%
X162125000Y-70195000D03*
%TO.P,USB_0,1*%
X162125000Y-67695000D03*
%TD*%
D29*
%TO.P,USB4,5*%
%TO.N,gnd*%
X84100000Y-52620000D03*
X84100000Y-39480000D03*
D11*
%TO.P,USB4,4*%
X86810000Y-49550000D03*
%TO.P,USB4,3*%
%TO.N,N/C*%
X86810000Y-47050000D03*
%TO.P,USB4,2*%
X86810000Y-45050000D03*
D30*
%TO.P,USB4,1*%
X86810000Y-42550000D03*
%TD*%
D20*
%TO.P,PORT3,2*%
%TO.N,N/C*%
X98625000Y-39875000D03*
D21*
%TO.P,PORT3,1*%
X101200000Y-39875000D03*
%TD*%
D53*
%TO.P,12MHz,3*%
%TO.N,N/C*%
X136130000Y-118707500D03*
%TO.P,12MHz,2*%
%TO.N,gnd*%
X134930000Y-118707500D03*
%TO.P,12MHz,1*%
%TO.N,N/C*%
X133730000Y-118707500D03*
%TD*%
D16*
%TO.P,REF\u002A\u002A,8*%
%TO.N,N/C*%
X133460000Y-110030000D03*
%TO.P,REF\u002A\u002A,7*%
X136000000Y-110030000D03*
%TO.P,REF\u002A\u002A,6*%
X138540000Y-110030000D03*
%TO.P,REF\u002A\u002A,5*%
X141080000Y-110030000D03*
%TO.P,REF\u002A\u002A,4*%
X143620000Y-110030000D03*
%TO.P,REF\u002A\u002A,3*%
X146160000Y-110030000D03*
%TO.P,REF\u002A\u002A,2*%
X148700000Y-110030000D03*
D17*
%TO.P,REF\u002A\u002A,1*%
X151240000Y-110030000D03*
%TD*%
D18*
%TO.P,220R,2*%
%TO.N,N/C*%
X112603750Y-80830000D03*
%TO.P,220R,1*%
X115528750Y-80830000D03*
%TD*%
D19*
%TO.P,RESET,2*%
%TO.N,N/C*%
X140065000Y-102480000D03*
X132115000Y-102480000D03*
%TO.P,RESET,1*%
X140065000Y-106980000D03*
X132115000Y-106980000D03*
%TD*%
D57*
%TO.P,CH340G,16*%
%TO.N,N/C*%
X143700000Y-126682500D03*
%TO.P,CH340G,15*%
X142430000Y-126682500D03*
%TO.P,CH340G,14*%
X141160000Y-126682500D03*
%TO.P,CH340G,13*%
X139890000Y-126682500D03*
%TO.P,CH340G,12*%
X138620000Y-126682500D03*
%TO.P,CH340G,11*%
X137350000Y-126682500D03*
%TO.P,CH340G,10*%
X136080000Y-126682500D03*
%TO.P,CH340G,9*%
X134810000Y-126682500D03*
%TO.P,CH340G,8*%
X134810000Y-121182500D03*
%TO.P,CH340G,7*%
X136080000Y-121182500D03*
%TO.P,CH340G,6*%
X137350000Y-121182500D03*
%TO.P,CH340G,5*%
X138620000Y-121182500D03*
%TO.P,CH340G,4*%
X139890000Y-121182500D03*
%TO.P,CH340G,3*%
X141160000Y-121182500D03*
%TO.P,CH340G,2*%
X142430000Y-121182500D03*
%TO.P,CH340G,1*%
X143700000Y-121182500D03*
%TD*%
D16*
%TO.P,REF\u002A\u002A,10*%
%TO.N,N/C*%
X124191250Y-59185000D03*
%TO.P,REF\u002A\u002A,9*%
X124191250Y-61725000D03*
%TO.P,REF\u002A\u002A,8*%
X124191250Y-64265000D03*
%TO.P,REF\u002A\u002A,7*%
X124191250Y-66805000D03*
%TO.P,REF\u002A\u002A,6*%
X124191250Y-69345000D03*
%TO.P,REF\u002A\u002A,5*%
X124191250Y-71885000D03*
%TO.P,REF\u002A\u002A,4*%
X124191250Y-74425000D03*
%TO.P,REF\u002A\u002A,3*%
X124191250Y-76965000D03*
%TO.P,REF\u002A\u002A,2*%
%TO.N,5v*%
X124191250Y-79505000D03*
D17*
%TO.P,REF\u002A\u002A,1*%
%TO.N,gnd*%
X124191250Y-82045000D03*
%TD*%
D58*
%TO.N,*%
X170575000Y-129232500D03*
D59*
X132890000Y-97580000D03*
D60*
X96875000Y-117045000D03*
X140508450Y-47236550D03*
D58*
X164900000Y-105070000D03*
D59*
X145190000Y-101730000D03*
D60*
X159215000Y-96380000D03*
X149905250Y-47253450D03*
D58*
X168525000Y-109695000D03*
D60*
X140933450Y-43116550D03*
D58*
X164925000Y-129220000D03*
X165500000Y-130145000D03*
D60*
X95650000Y-116220000D03*
X159252450Y-54241050D03*
X98150000Y-117745000D03*
D58*
X174200000Y-120532500D03*
X171475000Y-129257500D03*
D60*
X134318450Y-44646550D03*
X109482500Y-117702500D03*
D59*
X159718450Y-36086550D03*
D61*
X165975000Y-110820000D03*
D59*
X140977500Y-117130000D03*
D60*
X149440000Y-102330000D03*
D58*
X174200000Y-115032500D03*
D60*
X148225000Y-71645000D03*
X111600000Y-119145000D03*
X159215000Y-98655000D03*
X151175000Y-68545000D03*
X141783450Y-43111550D03*
X142583450Y-43111550D03*
X151468450Y-39536550D03*
X153125000Y-72595000D03*
D58*
X166725000Y-117745000D03*
X167650000Y-123320000D03*
D60*
X93100000Y-115445000D03*
D59*
X154840000Y-100830000D03*
D58*
X168550000Y-115020000D03*
D60*
X99450000Y-118445000D03*
D58*
X165825000Y-129245000D03*
D60*
X153990000Y-96230000D03*
D58*
X168550000Y-120520000D03*
X173300000Y-123332500D03*
D60*
X155040000Y-102330000D03*
X100700000Y-119145000D03*
X134318450Y-36511550D03*
X147908450Y-51786550D03*
X148225000Y-70845000D03*
D58*
X172375000Y-117757500D03*
D60*
X153940000Y-98530000D03*
X151468450Y-37661550D03*
X136533450Y-41311550D03*
X104400000Y-115795000D03*
D58*
X168550000Y-125995000D03*
D59*
X93600000Y-84000000D03*
D60*
X149177450Y-52841050D03*
X108200000Y-117045000D03*
X142258450Y-50936550D03*
X138424450Y-46466050D03*
X143383450Y-43086550D03*
D58*
X166725000Y-129270000D03*
D59*
X160475000Y-82095000D03*
D60*
X147990000Y-100080000D03*
D59*
X137425000Y-70445000D03*
D60*
X152525000Y-77545000D03*
X147990000Y-100880000D03*
D59*
X143125000Y-74495000D03*
D60*
X113300000Y-116570000D03*
D58*
X171150000Y-130157500D03*
D60*
X110775000Y-118445000D03*
X114125000Y-115020000D03*
D58*
X170550000Y-105082500D03*
D59*
X136690000Y-97955000D03*
D58*
X172375000Y-129282500D03*
X174175000Y-109707500D03*
D61*
X171625000Y-110832500D03*
D59*
X166775000Y-84245000D03*
D60*
X148152650Y-43113250D03*
X142958450Y-47211550D03*
D58*
X174200000Y-126007500D03*
D59*
X162125000Y-67695000D03*
D60*
X142258450Y-51861550D03*
X103200000Y-114695000D03*
X147618450Y-45701550D03*
D62*
%TO.N,gnd*%
X96600000Y-97950000D03*
D59*
X93000000Y-52837500D03*
X147752500Y-121155000D03*
D60*
%TO.N,1.8V*%
X98285000Y-59900000D03*
X95455000Y-66760000D03*
%TD*%
D63*
%TO.N,*%
X149377500Y-123905000D02*
X147752500Y-123905000D01*
D64*
X154990000Y-98480000D02*
X156490000Y-98480000D01*
D63*
X164008450Y-48426550D02*
X164008450Y-48861550D01*
D65*
X93000000Y-47450000D02*
X91950000Y-46400000D01*
D63*
X146808450Y-47211550D02*
X147908450Y-48311550D01*
D64*
X141675000Y-70195000D02*
X143125000Y-71645000D01*
D66*
X153125000Y-74345000D02*
X150925000Y-74345000D01*
D67*
X139985000Y-79585000D02*
X139295000Y-79585000D01*
D63*
X145315000Y-96080000D02*
X144115000Y-94880000D01*
D64*
X153240000Y-98880000D02*
X153590000Y-99230000D01*
X153440000Y-102330000D02*
X153440000Y-105380000D01*
D63*
X93080000Y-115819400D02*
X91879400Y-117020000D01*
D64*
X152640000Y-102330000D02*
X152640000Y-105080000D01*
X100230000Y-68230000D02*
X100400000Y-68400000D01*
D68*
X86760000Y-79595000D02*
X87955000Y-79595000D01*
D63*
X132890000Y-91680000D02*
X132890000Y-97580000D01*
X144752500Y-122580000D02*
X144752500Y-120430000D01*
X151040000Y-93830000D02*
X151040000Y-91230000D01*
D64*
X99445500Y-61190000D02*
X101610000Y-61190000D01*
D68*
X88130000Y-81595000D02*
X86760000Y-81595000D01*
D63*
X141715000Y-100830000D02*
X133190000Y-100830000D01*
X157208450Y-48211550D02*
X157208450Y-54286550D01*
X162758450Y-50111550D02*
X164008450Y-51361550D01*
X146718450Y-38786550D02*
X146793450Y-38711550D01*
D69*
X167650000Y-128920000D02*
X167650000Y-132370000D01*
D63*
X145765050Y-43113250D02*
X145765050Y-44253450D01*
X130540000Y-100530000D02*
X130540000Y-105405000D01*
X85515872Y-126048528D02*
X85515872Y-128656900D01*
D69*
X170825000Y-123332500D02*
X170875000Y-123282500D01*
D65*
X161537500Y-77145000D02*
X164625000Y-77145000D01*
D63*
X99430000Y-120620000D02*
X99430000Y-123909400D01*
D64*
X94021500Y-71991000D02*
X93837500Y-72175000D01*
D63*
X154302450Y-46466050D02*
X155467450Y-45301050D01*
X149905250Y-48066250D02*
X148727250Y-48066250D01*
X146027500Y-122305000D02*
X145677500Y-121955000D01*
X139890000Y-126682500D02*
X139890000Y-125740000D01*
X130793450Y-42011550D02*
X130768450Y-42036550D01*
X95675872Y-127663528D02*
X95675872Y-128656900D01*
X133730000Y-120102500D02*
X133730000Y-118707500D01*
X149905250Y-46466050D02*
X154302450Y-46466050D01*
X152640000Y-88080000D02*
X151940000Y-87380000D01*
D70*
X151300000Y-118102500D02*
X151300000Y-123955000D01*
D67*
X146925000Y-72845000D02*
X146175000Y-72095000D01*
D63*
X153208450Y-59011550D02*
X153208450Y-56347250D01*
X102425000Y-113970000D02*
X101970000Y-114425000D01*
X138968450Y-41761550D02*
X138343450Y-42386550D01*
X138343450Y-42386550D02*
X134043450Y-42386550D01*
D69*
X170575000Y-129232500D02*
X170575000Y-128457500D01*
D66*
X152425000Y-77445000D02*
X152525000Y-77545000D01*
D63*
X151040000Y-91230000D02*
X150440000Y-90630000D01*
D67*
X148225000Y-75845000D02*
X142025000Y-75845000D01*
D64*
X101850000Y-70200000D02*
X102375000Y-70725000D01*
D63*
X140864850Y-56703650D02*
X139501350Y-56703650D01*
D68*
X90945000Y-62470000D02*
X94021500Y-62470000D01*
D63*
X134810000Y-121182500D02*
X133730000Y-120102500D01*
D71*
X119141250Y-49930000D02*
X119141250Y-46730000D01*
D63*
X132240000Y-87380000D02*
X131340000Y-88280000D01*
D65*
X106387500Y-70725000D02*
X103675000Y-70725000D01*
D63*
X146793450Y-38711550D02*
X156518450Y-38711550D01*
X147990000Y-96080000D02*
X145315000Y-96080000D01*
D67*
X141835000Y-79585000D02*
X141835000Y-80585000D01*
D68*
X88725000Y-60250000D02*
X90945000Y-62470000D01*
D63*
X139380000Y-128055000D02*
X138620000Y-127295000D01*
D72*
X159125000Y-69457500D02*
X160887500Y-67695000D01*
D63*
X151065050Y-54278650D02*
X150964850Y-54278650D01*
X139890000Y-125740000D02*
X139330000Y-125180000D01*
D67*
X146925000Y-82395000D02*
X147825000Y-81495000D01*
D66*
X156425000Y-77045000D02*
X156775000Y-77045000D01*
D64*
X99445500Y-62470000D02*
X97970000Y-62470000D01*
D67*
X145575000Y-69895000D02*
X142975000Y-67295000D01*
D63*
X94350000Y-115819400D02*
X94350000Y-117064400D01*
X132027500Y-125180000D02*
X131502500Y-125705000D01*
X142430000Y-121182500D02*
X142430000Y-122405000D01*
D70*
X151300000Y-122107500D02*
X151300000Y-123132500D01*
D63*
X136668450Y-52786550D02*
X136668450Y-56601550D01*
X151439850Y-48853650D02*
X151827450Y-48466050D01*
D68*
X86785000Y-64300000D02*
X89775000Y-64300000D01*
D63*
X164325000Y-76895000D02*
X164875000Y-76895000D01*
D71*
X115503750Y-68980000D02*
X119141250Y-68980000D01*
D67*
X156490000Y-96080000D02*
X158915000Y-96080000D01*
D68*
X89775000Y-64300000D02*
X90325000Y-63750000D01*
D69*
X170575000Y-128457500D02*
X171600000Y-127432500D01*
D66*
X153950000Y-83670000D02*
X154025000Y-83745000D01*
D64*
X102025000Y-60775000D02*
X102025000Y-60150000D01*
X94925000Y-53650000D02*
X96050000Y-54775000D01*
D67*
X141425000Y-75345000D02*
X148225000Y-75345000D01*
D63*
X139289850Y-55878650D02*
X140664850Y-55878650D01*
X80435872Y-126609128D02*
X80435872Y-128656900D01*
D68*
X88680000Y-96845000D02*
X86735000Y-96845000D01*
D63*
X165408450Y-53061550D02*
X162058450Y-53061550D01*
D67*
X158915000Y-96080000D02*
X159215000Y-96380000D01*
D63*
X161043450Y-46236550D02*
X161218450Y-46411550D01*
X144164850Y-41153450D02*
X143477450Y-40466050D01*
D64*
X164900000Y-105070000D02*
X166650000Y-105070000D01*
D63*
X159593450Y-39536550D02*
X159827450Y-39770550D01*
X135240000Y-99980000D02*
X134490000Y-99230000D01*
X150240000Y-91880000D02*
X149790000Y-91430000D01*
D69*
X166325000Y-128345000D02*
X167075000Y-128345000D01*
D63*
X147365250Y-42014750D02*
X147693450Y-41686550D01*
D69*
X159818450Y-38311550D02*
X159818450Y-36186550D01*
D63*
X90595872Y-126093528D02*
X90595872Y-128656900D01*
D64*
X160025000Y-87345000D02*
X160425000Y-87745000D01*
D63*
X144952250Y-57165850D02*
X144952250Y-54594050D01*
D69*
X164925000Y-129220000D02*
X164925000Y-128445000D01*
D63*
X146552450Y-54594050D02*
X146552450Y-56066050D01*
D67*
X141275000Y-78295000D02*
X139985000Y-79585000D01*
D71*
X119141250Y-68980000D02*
X119141250Y-65780000D01*
D63*
X156918450Y-38311550D02*
X159818450Y-38311550D01*
X144677500Y-119005000D02*
X138127500Y-119005000D01*
D69*
X170850000Y-120557500D02*
X170850000Y-117882500D01*
D63*
X148377450Y-44616050D02*
X148483200Y-44616050D01*
D64*
X150390000Y-104930000D02*
X137240000Y-104930000D01*
D63*
X134810000Y-129305000D02*
X135760000Y-130255000D01*
D68*
X94021500Y-65670000D02*
X91755000Y-65670000D01*
D63*
X148483200Y-44616050D02*
X149518450Y-43580800D01*
X94920000Y-126469400D02*
X93120000Y-126469400D01*
D69*
X170900000Y-106957500D02*
X170950000Y-106907500D01*
D63*
X142290000Y-93530000D02*
X141190000Y-92430000D01*
D69*
X166868450Y-56111550D02*
X166868450Y-59886550D01*
D67*
X147525000Y-80945000D02*
X149325000Y-80945000D01*
D64*
X150240000Y-103880000D02*
X149940000Y-104180000D01*
D70*
X151300000Y-123955000D02*
X151300000Y-126582500D01*
D63*
X145877450Y-40641050D02*
X145877450Y-39416050D01*
D65*
X164625000Y-77145000D02*
X164875000Y-76895000D01*
D64*
X97460000Y-63110000D02*
X96800000Y-62450000D01*
D67*
X142375000Y-68845000D02*
X139375000Y-68845000D01*
D63*
X155633450Y-55711550D02*
X155158450Y-56186550D01*
X134490000Y-99230000D02*
X134490000Y-90860000D01*
D64*
X100400000Y-68400000D02*
X100400000Y-100590000D01*
X138515000Y-106155000D02*
X138515000Y-110005000D01*
D69*
X165225000Y-120570000D02*
X165200000Y-120545000D01*
D64*
X155781950Y-46411550D02*
X153727450Y-48466050D01*
D63*
X158033450Y-47386550D02*
X157208450Y-48211550D01*
D67*
X142125000Y-69545000D02*
X139275000Y-69545000D01*
D71*
X124201250Y-74655000D02*
X124216250Y-74670000D01*
D63*
X147365250Y-54594050D02*
X147365250Y-53353650D01*
X151517450Y-41476050D02*
X152927450Y-41476050D01*
D67*
X136375000Y-67145000D02*
X134975000Y-65745000D01*
D64*
X132115000Y-110655000D02*
X132115000Y-106980000D01*
D67*
X149625000Y-81495000D02*
X150925000Y-80195000D01*
D63*
X138137500Y-71157500D02*
X137425000Y-70445000D01*
D68*
X89400000Y-80325000D02*
X88130000Y-81595000D01*
D63*
X149905250Y-52054050D02*
X148665250Y-52054050D01*
D67*
X148875000Y-79795000D02*
X149425000Y-79245000D01*
D64*
X149040000Y-108430000D02*
X152540000Y-108430000D01*
D63*
X94350000Y-120620000D02*
X94350000Y-121964400D01*
D67*
X137825000Y-78795000D02*
X138325000Y-78295000D01*
D64*
X101610000Y-61190000D02*
X102025000Y-60775000D01*
X99445500Y-66950000D02*
X101475000Y-66950000D01*
D67*
X141675000Y-81845000D02*
X142675000Y-80845000D01*
D64*
X96975000Y-63750000D02*
X99445500Y-63750000D01*
D63*
X104402500Y-120604700D02*
X104402500Y-127530272D01*
X159827450Y-39770550D02*
X159827450Y-43552550D01*
X155955950Y-37674050D02*
X159818450Y-33811550D01*
D65*
X139295000Y-75102500D02*
X138137500Y-73945000D01*
D64*
X158730000Y-88095000D02*
X159040000Y-88405000D01*
D67*
X149925000Y-82095000D02*
X148055000Y-82095000D01*
X151425000Y-69695000D02*
X152075000Y-69045000D01*
D64*
X92650000Y-60550000D02*
X94021500Y-60550000D01*
X97970000Y-62470000D02*
X97575000Y-62075000D01*
D63*
X157645950Y-57149050D02*
X155783450Y-59011550D01*
D67*
X141825000Y-77035000D02*
X141835000Y-77045000D01*
X138625000Y-81145000D02*
X137825000Y-80345000D01*
X147275000Y-80345000D02*
X149125000Y-80345000D01*
D65*
X87150000Y-116920000D02*
X87375000Y-116920000D01*
D64*
X99445500Y-68230000D02*
X100230000Y-68230000D01*
D63*
X89020000Y-122544400D02*
X85515872Y-126048528D01*
D64*
X101250000Y-98875000D02*
X102400000Y-100025000D01*
D66*
X153125000Y-74345000D02*
X153725000Y-74345000D01*
D67*
X148225000Y-74845000D02*
X145225000Y-74845000D01*
D63*
X100700000Y-124564400D02*
X98215872Y-127048528D01*
D64*
X172300000Y-105082500D02*
X173225000Y-106007500D01*
D67*
X143725000Y-73345000D02*
X143725000Y-71145000D01*
D63*
X134536150Y-50453850D02*
X133533450Y-51456550D01*
D69*
X164925000Y-128445000D02*
X165950000Y-127420000D01*
D63*
X146883450Y-46436550D02*
X142258450Y-46436550D01*
D67*
X155475000Y-68195000D02*
X155125000Y-67845000D01*
D63*
X143377450Y-54594050D02*
X143377450Y-57983450D01*
X158859950Y-51361550D02*
X158828950Y-51330550D01*
D67*
X137675000Y-67145000D02*
X136375000Y-67145000D01*
D64*
X153440000Y-88530000D02*
X153875000Y-88095000D01*
X151040000Y-104280000D02*
X150390000Y-104930000D01*
D63*
X143700000Y-123702500D02*
X143700000Y-121182500D01*
D72*
X156800000Y-66532500D02*
X159125000Y-66532500D01*
D65*
X134565000Y-81230000D02*
X132325000Y-81230000D01*
D63*
X146240000Y-99980000D02*
X135240000Y-99980000D01*
X149905250Y-51241250D02*
X155814650Y-51241250D01*
X159040000Y-91380000D02*
X159040000Y-91355000D01*
D69*
X170875000Y-115082500D02*
X170875000Y-112407500D01*
D64*
X155818450Y-46411550D02*
X155781950Y-46411550D01*
D70*
X149277500Y-116080000D02*
X151300000Y-118102500D01*
D64*
X97925000Y-51400000D02*
X95875000Y-51400000D01*
D67*
X140325000Y-78295000D02*
X140575000Y-78045000D01*
D72*
X163837500Y-66532500D02*
X164875000Y-65495000D01*
D67*
X146225000Y-81395000D02*
X147275000Y-80345000D01*
D63*
X139501350Y-56703650D02*
X137239850Y-58965150D01*
D71*
X115503750Y-40405000D02*
X119116250Y-40405000D01*
D63*
X142564650Y-54594050D02*
X142564650Y-56028850D01*
X157208450Y-54286550D02*
X155158450Y-54286550D01*
D64*
X103325000Y-62862500D02*
X104462500Y-64000000D01*
X138825000Y-70195000D02*
X141675000Y-70195000D01*
D63*
X113292500Y-119052500D02*
X113735000Y-118610000D01*
D67*
X150425000Y-79845000D02*
X150425000Y-76545000D01*
D63*
X158925000Y-72095000D02*
X160825000Y-70195000D01*
D69*
X171475000Y-128857500D02*
X171975000Y-128357500D01*
D71*
X122086250Y-64290000D02*
X124216250Y-64290000D01*
D67*
X145975000Y-78295000D02*
X141275000Y-78295000D01*
D64*
X101850000Y-66575000D02*
X101850000Y-70200000D01*
D63*
X140065000Y-102480000D02*
X140065000Y-102805000D01*
D64*
X153375000Y-87345000D02*
X160025000Y-87345000D01*
X135975000Y-106195000D02*
X135975000Y-110005000D01*
D63*
X147760000Y-91430000D02*
X145410000Y-89080000D01*
D69*
X167650000Y-132370000D02*
X167625000Y-132395000D01*
D64*
X142840000Y-106430000D02*
X141055000Y-108215000D01*
D68*
X89400000Y-59625000D02*
X89400000Y-46525000D01*
D71*
X119066250Y-59430000D02*
X120566250Y-60930000D01*
D63*
X154840000Y-100830000D02*
X154840000Y-99830000D01*
D66*
X148225000Y-71645000D02*
X148225000Y-72345000D01*
D63*
X96890000Y-122749400D02*
X94470000Y-125169400D01*
X147752500Y-123105000D02*
X145277500Y-123105000D01*
D67*
X146175000Y-69390000D02*
X142530000Y-65745000D01*
D64*
X171625000Y-110832500D02*
X172525000Y-110832500D01*
D63*
X147990000Y-96880000D02*
X144165000Y-96880000D01*
X145277500Y-123105000D02*
X144752500Y-122580000D01*
D69*
X167475000Y-127420000D02*
X168525000Y-128470000D01*
D64*
X144590000Y-107130000D02*
X143595000Y-108125000D01*
D71*
X119141250Y-94355000D02*
X119141250Y-93605000D01*
D63*
X131217500Y-128370000D02*
X131502500Y-128655000D01*
X144164850Y-54594050D02*
X144164850Y-58346050D01*
X147752500Y-122305000D02*
X146027500Y-122305000D01*
D64*
X99075000Y-58575000D02*
X99600000Y-59100000D01*
X96800000Y-52862500D02*
X96825000Y-52837500D01*
X94862500Y-59137500D02*
X95225000Y-59500000D01*
X95875000Y-51400000D02*
X94925000Y-52350000D01*
D63*
X139905000Y-123455000D02*
X128467500Y-123455000D01*
X145515250Y-45653250D02*
X138424450Y-45653250D01*
X141777250Y-55791250D02*
X140864850Y-56703650D01*
X94350000Y-117064400D02*
X92420000Y-118994400D01*
X156490000Y-95280000D02*
X156490000Y-93930000D01*
X112022500Y-120604700D02*
X112022500Y-121696900D01*
X139316550Y-47253450D02*
X138424450Y-47253450D01*
D69*
X171600000Y-127432500D02*
X173125000Y-127432500D01*
D65*
X101400000Y-47375000D02*
X101400000Y-49025000D01*
D63*
X146827450Y-59041050D02*
X144952250Y-57165850D01*
D67*
X137825000Y-80345000D02*
X137825000Y-78795000D01*
D63*
X142840000Y-90980000D02*
X141690000Y-90980000D01*
D66*
X153125000Y-82105000D02*
X153125000Y-78630000D01*
D69*
X170900000Y-115107500D02*
X170875000Y-115082500D01*
D63*
X141383450Y-46436550D02*
X140133450Y-46436550D01*
X139890000Y-121182500D02*
X139890000Y-122045000D01*
D65*
X86085000Y-116055000D02*
X87050000Y-117020000D01*
D63*
X147399850Y-59041050D02*
X146827450Y-59041050D01*
X134043450Y-42386550D02*
X133693450Y-42036550D01*
X162008450Y-48861550D02*
X160533450Y-47386550D01*
D70*
X151300000Y-123132500D02*
X151300000Y-123955000D01*
D66*
X153625000Y-74845000D02*
X154875000Y-76095000D01*
D71*
X117341250Y-99880000D02*
X115528750Y-99880000D01*
D63*
X129777500Y-124355000D02*
X128302500Y-125830000D01*
X139305000Y-128730000D02*
X138230000Y-128730000D01*
X165408450Y-50261550D02*
X165408450Y-51911550D01*
X139665000Y-94880000D02*
X139290000Y-94505000D01*
X146727450Y-40966050D02*
X146727450Y-38141050D01*
X148038950Y-39541050D02*
X150768450Y-39541050D01*
X145765050Y-54594050D02*
X145765050Y-56653650D01*
X146718450Y-41286550D02*
X146718450Y-38786550D01*
X141940000Y-91730000D02*
X140440000Y-91730000D01*
D69*
X170825000Y-107032500D02*
X170950000Y-106907500D01*
D63*
X149518450Y-41476050D02*
X151517450Y-41476050D01*
D64*
X154227450Y-42484300D02*
X155235700Y-41476050D01*
X153390250Y-45653250D02*
X154227450Y-44816050D01*
D63*
X147990000Y-97680000D02*
X145590000Y-97680000D01*
X108212500Y-122761900D02*
X110895872Y-125445272D01*
D64*
X96050000Y-54775000D02*
X96050000Y-62825000D01*
D65*
X158612500Y-79607500D02*
X158750000Y-79745000D01*
D64*
X100250000Y-59100000D02*
X100725000Y-59575000D01*
D68*
X88725000Y-48075000D02*
X88725000Y-60250000D01*
D63*
X101970000Y-119050000D02*
X101970000Y-120620000D01*
D64*
X132890000Y-111430000D02*
X132115000Y-110655000D01*
D63*
X99430000Y-115819400D02*
X99430000Y-118425000D01*
X149790000Y-91430000D02*
X147760000Y-91430000D01*
X118515872Y-128190272D02*
X118515872Y-128656900D01*
X142430000Y-122405000D02*
X140480000Y-124355000D01*
D64*
X155290000Y-90605000D02*
X153515000Y-90605000D01*
D69*
X171475000Y-129257500D02*
X171475000Y-128857500D01*
D67*
X155475000Y-69295000D02*
X155475000Y-68195000D01*
D63*
X165408450Y-54651550D02*
X165408450Y-53061550D01*
D71*
X123041250Y-69345000D02*
X120566250Y-71820000D01*
D65*
X139295000Y-77045000D02*
X139295000Y-75102500D01*
D63*
X132890000Y-97605000D02*
X130540000Y-97605000D01*
D66*
X153525000Y-75345000D02*
X153950000Y-75770000D01*
D63*
X154290000Y-97680000D02*
X153940000Y-98030000D01*
X143090000Y-92880000D02*
X141940000Y-91730000D01*
D67*
X142975000Y-67295000D02*
X141525000Y-67295000D01*
X145215000Y-82395000D02*
X146925000Y-82395000D01*
D63*
X144165000Y-96880000D02*
X144115000Y-96830000D01*
D67*
X142675000Y-80845000D02*
X145875000Y-80845000D01*
D63*
X137400950Y-52054050D02*
X136668450Y-52786550D01*
X144164850Y-58346050D02*
X144859850Y-59041050D01*
X106942500Y-123016900D02*
X108355872Y-124430272D01*
X143090000Y-98280000D02*
X143090000Y-92880000D01*
X131340000Y-90130000D02*
X132890000Y-91680000D01*
X141383450Y-51136550D02*
X141383450Y-46436550D01*
D64*
X94885000Y-61190000D02*
X94021500Y-61190000D01*
D73*
X149905250Y-46466050D02*
X149917850Y-46478650D01*
D69*
X165200000Y-117870000D02*
X165250000Y-117820000D01*
D67*
X144975000Y-72795000D02*
X144975000Y-70395000D01*
D69*
X173300000Y-132382500D02*
X173275000Y-132407500D01*
X171150000Y-130157500D02*
X171475000Y-130482500D01*
D63*
X153039850Y-56178650D02*
X152965050Y-56178650D01*
X156440000Y-105880000D02*
X152315000Y-110005000D01*
X148677450Y-44916050D02*
X148377450Y-44616050D01*
X147202450Y-56716050D02*
X150427450Y-56716050D01*
X140740000Y-103480000D02*
X144140000Y-103480000D01*
D64*
X97575000Y-54550000D02*
X99275000Y-52850000D01*
D63*
X165408450Y-51911550D02*
X165408450Y-53061550D01*
X158550000Y-72095000D02*
X158925000Y-72095000D01*
D71*
X117341250Y-80830000D02*
X115528750Y-80830000D01*
D63*
X94350000Y-121964400D02*
X93770000Y-122544400D01*
D69*
X165500000Y-130145000D02*
X165825000Y-130470000D01*
D65*
X83975000Y-117582500D02*
X82962500Y-118595000D01*
D64*
X173225000Y-106007500D02*
X173225000Y-106907500D01*
X151690000Y-107130000D02*
X144590000Y-107130000D01*
D63*
X134487500Y-71070000D02*
X135375000Y-71957500D01*
X160825000Y-70195000D02*
X162125000Y-70195000D01*
X150440000Y-90630000D02*
X148840000Y-90630000D01*
X105672500Y-115804100D02*
X105672500Y-116991900D01*
X113435872Y-126360272D02*
X113435872Y-128656900D01*
D69*
X166725000Y-129270000D02*
X166725000Y-132395000D01*
D67*
X152425000Y-71645000D02*
X152425000Y-70645000D01*
D63*
X156490000Y-98480000D02*
X159040000Y-98480000D01*
X162262700Y-46680800D02*
X164008450Y-48426550D01*
X142577450Y-43100450D02*
X142564650Y-43113250D01*
X142958450Y-47211550D02*
X146808450Y-47211550D01*
D67*
X150925000Y-71645000D02*
X150925000Y-68795000D01*
D64*
X137662500Y-69032500D02*
X138825000Y-70195000D01*
X160425000Y-90145000D02*
X159215000Y-91355000D01*
D63*
X155133450Y-56161550D02*
X155158450Y-56186550D01*
X154840000Y-99830000D02*
X154240000Y-99230000D01*
D66*
X153125000Y-74845000D02*
X153625000Y-74845000D01*
D64*
X166875000Y-110820000D02*
X167550000Y-111495000D01*
D70*
X144580000Y-126682500D02*
X143700000Y-126682500D01*
D63*
X110895872Y-125445272D02*
X110895872Y-128656900D01*
D65*
X101400000Y-49025000D02*
X100500000Y-49925000D01*
X93775000Y-33925000D02*
X97525000Y-33925000D01*
D63*
X155158450Y-54286550D02*
X155508450Y-54286550D01*
D65*
X86837500Y-114657500D02*
X87050000Y-114445000D01*
D63*
X142564650Y-56028850D02*
X139779850Y-58813650D01*
D64*
X154240000Y-99230000D02*
X154990000Y-98480000D01*
D63*
X131787500Y-128370000D02*
X131817500Y-128370000D01*
D68*
X88730000Y-98845000D02*
X90800000Y-96775000D01*
D63*
X162008450Y-51361550D02*
X158859950Y-51361550D01*
X98160000Y-117735000D02*
X98150000Y-117745000D01*
X108212500Y-115804100D02*
X108212500Y-117032500D01*
X147365250Y-43113250D02*
X147365250Y-42014750D01*
D68*
X90325000Y-63750000D02*
X94021500Y-63750000D01*
D63*
X149518450Y-37674050D02*
X155955950Y-37674050D01*
D64*
X100725000Y-60300000D02*
X100475000Y-60550000D01*
D63*
X148664850Y-52078650D02*
X148164850Y-52578650D01*
D71*
X117341250Y-90355000D02*
X115528750Y-90355000D01*
D63*
X99430000Y-123909400D02*
X95675872Y-127663528D01*
D67*
X155125000Y-69645000D02*
X155475000Y-69295000D01*
D64*
X133435000Y-105935000D02*
X133435000Y-110005000D01*
D63*
X141190000Y-96830000D02*
X140390000Y-96830000D01*
X106500000Y-113970000D02*
X102425000Y-113970000D01*
D64*
X100400000Y-100590000D02*
X100425000Y-100615000D01*
D63*
X132325000Y-71070000D02*
X134487500Y-71070000D01*
X136565000Y-117080000D02*
X134715000Y-115230000D01*
X106942500Y-114412500D02*
X106500000Y-113970000D01*
D64*
X166650000Y-105070000D02*
X167575000Y-105995000D01*
X102400000Y-100590000D02*
X102425000Y-100615000D01*
D63*
X147365250Y-55628850D02*
X147365250Y-54594050D01*
X88050600Y-118994400D02*
X80435872Y-126609128D01*
X132890000Y-97580000D02*
X132890000Y-97605000D01*
D67*
X151425000Y-73345000D02*
X150675000Y-74095000D01*
D70*
X149202500Y-128680000D02*
X146577500Y-128680000D01*
D64*
X156752450Y-42427550D02*
X157703950Y-41476050D01*
D66*
X150925000Y-74345000D02*
X150675000Y-74095000D01*
D67*
X150925000Y-68795000D02*
X151175000Y-68545000D01*
D71*
X117341250Y-71305000D02*
X115528750Y-71305000D01*
D63*
X147652450Y-55916050D02*
X147365250Y-55628850D01*
D67*
X148225000Y-72845000D02*
X146925000Y-72845000D01*
D63*
X105672500Y-116991900D02*
X103145000Y-119519400D01*
D69*
X165250000Y-106945000D02*
X165300000Y-106895000D01*
D63*
X153047750Y-54286550D02*
X155158450Y-54286550D01*
X149190000Y-92230000D02*
X146020000Y-92230000D01*
D67*
X149425000Y-70595000D02*
X145070000Y-66240000D01*
D64*
X95225000Y-60850000D02*
X94885000Y-61190000D01*
D67*
X145575000Y-72545000D02*
X145575000Y-69895000D01*
D65*
X161537500Y-77145000D02*
X161537500Y-75282500D01*
D71*
X119141250Y-97555000D02*
X119141250Y-94355000D01*
D69*
X165225000Y-115070000D02*
X165225000Y-112395000D01*
D63*
X82975872Y-126188528D02*
X82975872Y-128656900D01*
D64*
X93750000Y-57000000D02*
X93750000Y-58750000D01*
D67*
X153125000Y-72845000D02*
X153125000Y-72345000D01*
D68*
X90360000Y-63110000D02*
X94021500Y-63110000D01*
D63*
X156490000Y-97680000D02*
X154290000Y-97680000D01*
D64*
X170550000Y-105082500D02*
X172300000Y-105082500D01*
D69*
X165225000Y-112395000D02*
X165275000Y-112345000D01*
D63*
X153208450Y-56347250D02*
X153039850Y-56178650D01*
D64*
X99600000Y-59100000D02*
X100250000Y-59100000D01*
D63*
X147365250Y-53353650D02*
X141214850Y-53353650D01*
X114125000Y-115020000D02*
X114125000Y-118600000D01*
D65*
X96075000Y-43400000D02*
X96075000Y-49162500D01*
D69*
X167075000Y-128345000D02*
X167650000Y-128920000D01*
D63*
X145765050Y-43113250D02*
X145765050Y-42239950D01*
X109482500Y-117702500D02*
X109482500Y-115804100D01*
D67*
X149925000Y-71645000D02*
X149925000Y-70295000D01*
D64*
X152540000Y-108430000D02*
X155740000Y-105230000D01*
D70*
X146102500Y-116080000D02*
X149277500Y-116080000D01*
D63*
X148727250Y-48066250D02*
X148677450Y-48016450D01*
X93120000Y-128641028D02*
X93135872Y-128656900D01*
X153727450Y-49641050D02*
X153727450Y-48516050D01*
D67*
X149925000Y-79545000D02*
X149925000Y-76545000D01*
D63*
X144890000Y-93030000D02*
X142840000Y-90980000D01*
D64*
X159215000Y-91355000D02*
X159040000Y-91355000D01*
D63*
X153039850Y-56178650D02*
X153056950Y-56161550D01*
D71*
X115503750Y-97555000D02*
X119141250Y-97555000D01*
D63*
X146177450Y-37591050D02*
X145027450Y-37591050D01*
X140830000Y-130255000D02*
X139305000Y-128730000D01*
X138620000Y-120237500D02*
X138620000Y-121182500D01*
D67*
X141825000Y-76045000D02*
X141825000Y-77035000D01*
D65*
X107375000Y-71712500D02*
X106387500Y-70725000D01*
D68*
X89400000Y-46525000D02*
X87925000Y-45050000D01*
D69*
X168525000Y-128470000D02*
X168525000Y-132395000D01*
D63*
X108355872Y-124430272D02*
X108355872Y-128656900D01*
X130540000Y-105405000D02*
X132115000Y-106980000D01*
X151300000Y-123132500D02*
X150150000Y-123132500D01*
X153940000Y-98030000D02*
X153940000Y-98530000D01*
D67*
X150925000Y-80195000D02*
X150925000Y-76545000D01*
D64*
X153440000Y-90680000D02*
X153440000Y-91460000D01*
D71*
X120891250Y-68980000D02*
X123066250Y-66805000D01*
D63*
X134318450Y-36511550D02*
X136018450Y-34811550D01*
X140964450Y-55579050D02*
X140964450Y-54594050D01*
X133030000Y-121305000D02*
X131480000Y-121305000D01*
D66*
X153125000Y-73345000D02*
X154375000Y-73345000D01*
D63*
X139890000Y-122045000D02*
X139330000Y-122605000D01*
D71*
X119141250Y-59480000D02*
X119141250Y-56280000D01*
D67*
X144325000Y-70795000D02*
X142375000Y-68845000D01*
X138325000Y-78295000D02*
X140325000Y-78295000D01*
D68*
X90150000Y-67275000D02*
X90150000Y-95375000D01*
D64*
X153440000Y-105380000D02*
X151690000Y-107130000D01*
D63*
X152315000Y-110005000D02*
X151215000Y-110005000D01*
D68*
X86785000Y-62300000D02*
X89550000Y-62300000D01*
D63*
X136715000Y-97930000D02*
X136690000Y-97955000D01*
X146020000Y-92230000D02*
X142870000Y-89080000D01*
D69*
X174175000Y-128482500D02*
X174175000Y-132407500D01*
D63*
X100700000Y-115819400D02*
X100700000Y-119145000D01*
D67*
X139375000Y-68845000D02*
X137675000Y-67145000D01*
D63*
X151840000Y-89130000D02*
X151790000Y-89080000D01*
D68*
X92165000Y-66310000D02*
X94021500Y-66310000D01*
D71*
X121816250Y-73720000D02*
X120391250Y-75145000D01*
D63*
X149905250Y-50453850D02*
X154403650Y-50453850D01*
X153052450Y-54266050D02*
X153039850Y-54278650D01*
X159363950Y-44016050D02*
X158007450Y-44016050D01*
D64*
X152140000Y-107780000D02*
X146940000Y-107780000D01*
D67*
X151925000Y-80765000D02*
X148945000Y-83745000D01*
D64*
X99445500Y-67590000D02*
X100665000Y-67590000D01*
D63*
X136130000Y-121132500D02*
X136080000Y-121182500D01*
X150772950Y-39536550D02*
X159593450Y-39536550D01*
X139289850Y-52953650D02*
X139289850Y-55878650D01*
D68*
X94021500Y-61830000D02*
X91605000Y-61830000D01*
D63*
X110752500Y-121951900D02*
X115975872Y-127175272D01*
D64*
X157703950Y-41476050D02*
X158007450Y-41476050D01*
X149905250Y-45653250D02*
X153390250Y-45653250D01*
D63*
X150150000Y-123132500D02*
X149377500Y-123905000D01*
D69*
X170875000Y-112407500D02*
X170925000Y-112357500D01*
D63*
X149905250Y-48853650D02*
X151439850Y-48853650D01*
X144140000Y-103480000D02*
X145190000Y-102430000D01*
X141190000Y-92430000D02*
X138600000Y-92430000D01*
D64*
X98650000Y-50675000D02*
X97925000Y-51400000D01*
D71*
X119141250Y-93605000D02*
X121341250Y-91405000D01*
D65*
X82962500Y-118595000D02*
X76775000Y-118595000D01*
D63*
X110752500Y-115804100D02*
X110752500Y-118422500D01*
D65*
X107412500Y-76662500D02*
X107575000Y-76825000D01*
D64*
X151040000Y-102330000D02*
X151040000Y-104280000D01*
D69*
X165175000Y-125995000D02*
X165175000Y-123320000D01*
D66*
X151485000Y-83745000D02*
X153125000Y-82105000D01*
D63*
X109482500Y-122406900D02*
X113435872Y-126360272D01*
X160533450Y-47386550D02*
X158033450Y-47386550D01*
X138137500Y-73945000D02*
X138137500Y-71157500D01*
X156718450Y-46411550D02*
X155831950Y-46411550D01*
X134810000Y-126682500D02*
X134810000Y-129305000D01*
X103145000Y-126247772D02*
X100735872Y-128656900D01*
D68*
X91170000Y-65030000D02*
X89400000Y-66800000D01*
D63*
X155040000Y-93005000D02*
X155040000Y-93830000D01*
D71*
X119141250Y-40380000D02*
X122466250Y-43705000D01*
D67*
X134320000Y-67695000D02*
X132370000Y-65745000D01*
D63*
X161043450Y-39536550D02*
X161043450Y-46236550D01*
D65*
X107412500Y-71875000D02*
X107412500Y-76662500D01*
D64*
X141055000Y-108215000D02*
X141055000Y-110005000D01*
D63*
X139818450Y-38361550D02*
X138968450Y-39211550D01*
X150964850Y-54278650D02*
X149327450Y-55916050D01*
D69*
X172375000Y-129282500D02*
X172375000Y-132407500D01*
D63*
X138424450Y-48853650D02*
X136010550Y-48853650D01*
D67*
X148525000Y-79245000D02*
X146925000Y-79245000D01*
D63*
X137738150Y-48066250D02*
X138424450Y-48066250D01*
X142655000Y-128055000D02*
X139380000Y-128055000D01*
D65*
X158612500Y-77145000D02*
X158612500Y-79607500D01*
D67*
X141325000Y-83745000D02*
X143175000Y-81895000D01*
D65*
X160475000Y-82095000D02*
X161537500Y-81032500D01*
D71*
X119116250Y-40405000D02*
X119141250Y-40380000D01*
D63*
X112022500Y-118722500D02*
X111600000Y-119145000D01*
X156540000Y-89405000D02*
X156940000Y-89805000D01*
X142258450Y-46436550D02*
X142258450Y-50936550D01*
D64*
X152690000Y-111430000D02*
X132890000Y-111430000D01*
X151840000Y-102330000D02*
X151840000Y-104680000D01*
X152640000Y-88080000D02*
X153375000Y-87345000D01*
D69*
X165825000Y-128845000D02*
X166325000Y-128345000D01*
D64*
X151290000Y-106430000D02*
X142840000Y-106430000D01*
X103325000Y-60150000D02*
X103325000Y-62862500D01*
D66*
X153950000Y-75770000D02*
X153950000Y-83670000D01*
D64*
X146940000Y-107780000D02*
X146135000Y-108585000D01*
X153240000Y-95880000D02*
X153240000Y-98880000D01*
X154227450Y-44816050D02*
X154227450Y-42484300D01*
D63*
X142108450Y-51861550D02*
X141383450Y-51136550D01*
X159252450Y-54241050D02*
X159206950Y-54286550D01*
D64*
X101250000Y-68175000D02*
X101250000Y-98875000D01*
D63*
X131340000Y-88280000D02*
X131340000Y-90130000D01*
D65*
X135775000Y-80020000D02*
X134565000Y-81230000D01*
D68*
X89550000Y-62300000D02*
X90360000Y-63110000D01*
D64*
X153875000Y-88095000D02*
X158730000Y-88095000D01*
D67*
X138785000Y-83745000D02*
X140135000Y-82395000D01*
D65*
X158375000Y-82095000D02*
X156775000Y-80495000D01*
D68*
X88725000Y-78825000D02*
X88725000Y-66475000D01*
D65*
X98650000Y-46850000D02*
X98650000Y-36375000D01*
D68*
X87955000Y-79595000D02*
X88725000Y-78825000D01*
D71*
X117341250Y-61805000D02*
X115528750Y-61805000D01*
D63*
X108212500Y-117032500D02*
X108200000Y-117045000D01*
X150240000Y-93830000D02*
X150240000Y-91880000D01*
D69*
X165250000Y-109620000D02*
X165250000Y-106945000D01*
D63*
X138424450Y-50453850D02*
X134536150Y-50453850D01*
D64*
X153735000Y-110385000D02*
X152690000Y-111430000D01*
D69*
X166868450Y-59886550D02*
X167493450Y-60511550D01*
D64*
X153440000Y-95680000D02*
X153240000Y-95880000D01*
D63*
X149939850Y-58528450D02*
X149939850Y-59041050D01*
D67*
X148055000Y-82095000D02*
X146405000Y-83745000D01*
D64*
X157940000Y-110385000D02*
X153735000Y-110385000D01*
D63*
X149518450Y-40599050D02*
X149518450Y-41476050D01*
X136010550Y-48853650D02*
X133533450Y-46376550D01*
D70*
X145102500Y-117080000D02*
X146102500Y-116080000D01*
D63*
X96890000Y-117030000D02*
X96875000Y-117045000D01*
X148152650Y-52578650D02*
X148152650Y-54594050D01*
X136080000Y-126682500D02*
X136080000Y-128035000D01*
X147164850Y-52578650D02*
X148152650Y-52578650D01*
D69*
X165250000Y-115095000D02*
X165225000Y-115070000D01*
D63*
X161993450Y-46411550D02*
X162262700Y-46680800D01*
X156540000Y-92705000D02*
X155340000Y-92705000D01*
D71*
X123066250Y-66805000D02*
X124191250Y-66805000D01*
D63*
X156718450Y-46411550D02*
X161993450Y-46411550D01*
D64*
X98650000Y-46850000D02*
X98650000Y-50675000D01*
D65*
X91950000Y-43825000D02*
X91950000Y-35750000D01*
D63*
X135543450Y-43786550D02*
X131393450Y-43786550D01*
D64*
X148675000Y-110005000D02*
X148675000Y-108795000D01*
D71*
X121341250Y-91405000D02*
X121341250Y-76195000D01*
D63*
X131393450Y-43786550D02*
X130768450Y-43161550D01*
D71*
X122466250Y-58520000D02*
X123131250Y-59185000D01*
D64*
X149940000Y-104180000D02*
X135190000Y-104180000D01*
D63*
X145677500Y-121955000D02*
X145677500Y-120005000D01*
D71*
X120566250Y-62770000D02*
X122086250Y-64290000D01*
D63*
X145677500Y-120005000D02*
X144677500Y-119005000D01*
X140840000Y-130255000D02*
X140830000Y-130255000D01*
X143380000Y-128780000D02*
X142655000Y-128055000D01*
D67*
X146925000Y-79245000D02*
X145975000Y-78295000D01*
D70*
X151300000Y-126582500D02*
X149202500Y-128680000D01*
D66*
X148725000Y-70845000D02*
X148925000Y-71045000D01*
D63*
X133190000Y-100830000D02*
X132890000Y-100530000D01*
X156518450Y-38711550D02*
X156918450Y-38311550D01*
X136080000Y-128035000D02*
X138300000Y-130255000D01*
X140508450Y-47236550D02*
X140508450Y-50136550D01*
X98160000Y-115819400D02*
X98160000Y-117735000D01*
D64*
X156718450Y-46411550D02*
X156752450Y-46377550D01*
D68*
X90150000Y-95375000D02*
X88680000Y-96845000D01*
D67*
X145225000Y-74845000D02*
X143725000Y-73345000D01*
D63*
X134318450Y-44646550D02*
X137738150Y-48066250D01*
X164008450Y-48861550D02*
X165408450Y-50261550D01*
X136668450Y-56601550D02*
X134193450Y-59076550D01*
X98215872Y-127048528D02*
X98215872Y-128656900D01*
X159206950Y-54286550D02*
X157208450Y-54286550D01*
X148664850Y-48128650D02*
X148664850Y-52078650D01*
X134193450Y-59076550D02*
X133533450Y-59076550D01*
D67*
X149325000Y-80945000D02*
X150425000Y-79845000D01*
D65*
X76775000Y-116055000D02*
X86085000Y-116055000D01*
X135212500Y-73945000D02*
X135775000Y-74507500D01*
D63*
X139403750Y-51241250D02*
X138424450Y-51241250D01*
X147990000Y-93030000D02*
X144890000Y-93030000D01*
X156490000Y-100080000D02*
X157790000Y-100080000D01*
D69*
X165175000Y-107020000D02*
X165300000Y-106895000D01*
D63*
X160750000Y-72195000D02*
X158550000Y-74395000D01*
D64*
X96800000Y-62450000D02*
X96800000Y-52862500D01*
D63*
X91879400Y-117020000D02*
X87050000Y-117020000D01*
X115975872Y-127175272D02*
X115975872Y-128656900D01*
X141160000Y-122200000D02*
X139905000Y-123455000D01*
D71*
X119141250Y-74345000D02*
X119141250Y-75305000D01*
D63*
X94020000Y-123944400D02*
X90320000Y-123944400D01*
D65*
X98475000Y-34875000D02*
X98475000Y-36400000D01*
D63*
X103145000Y-119519400D02*
X103145000Y-126247772D01*
D64*
X165975000Y-110820000D02*
X166875000Y-110820000D01*
D68*
X89400000Y-66800000D02*
X89400000Y-80325000D01*
D64*
X94137500Y-59137500D02*
X94862500Y-59137500D01*
D63*
X149905250Y-52054050D02*
X152390450Y-52054050D01*
X96890000Y-115819400D02*
X96890000Y-117030000D01*
D64*
X99075000Y-57325000D02*
X99075000Y-58575000D01*
D68*
X87925000Y-45050000D02*
X86810000Y-45050000D01*
D64*
X100665000Y-67590000D02*
X101250000Y-68175000D01*
D67*
X141835000Y-80585000D02*
X141275000Y-81145000D01*
D63*
X139330000Y-122605000D02*
X134330000Y-122605000D01*
X147693450Y-41686550D02*
X147693450Y-39886550D01*
D71*
X121516250Y-52305000D02*
X121516250Y-60770000D01*
D63*
X157790000Y-100080000D02*
X157790000Y-101680000D01*
X140177050Y-53291450D02*
X140889850Y-52578650D01*
D71*
X117328750Y-33205000D02*
X115516250Y-33205000D01*
D63*
X142258450Y-51861550D02*
X142108450Y-51861550D01*
D67*
X148225000Y-73345000D02*
X146375000Y-73345000D01*
D63*
X153056950Y-56161550D02*
X155133450Y-56161550D01*
X138952500Y-119905000D02*
X138620000Y-120237500D01*
D67*
X155125000Y-67845000D02*
X153975000Y-67845000D01*
D63*
X159040000Y-98480000D02*
X159215000Y-98655000D01*
D66*
X153125000Y-75345000D02*
X153525000Y-75345000D01*
D67*
X148225000Y-73845000D02*
X146025000Y-73845000D01*
D63*
X112022500Y-115804100D02*
X112022500Y-118722500D01*
D67*
X134975000Y-65745000D02*
X134910000Y-65745000D01*
D64*
X173200000Y-111507500D02*
X173200000Y-112357500D01*
D63*
X161218450Y-46411550D02*
X161993450Y-46411550D01*
X134490000Y-90860000D02*
X132710000Y-89080000D01*
D64*
X160790000Y-99130000D02*
X160790000Y-101080000D01*
D69*
X173300000Y-128932500D02*
X173300000Y-132382500D01*
D71*
X123131250Y-59185000D02*
X124191250Y-59185000D01*
X115503750Y-88030000D02*
X119141250Y-88030000D01*
D68*
X87700000Y-47050000D02*
X88725000Y-48075000D01*
D67*
X149425000Y-71645000D02*
X149425000Y-70595000D01*
D63*
X149327450Y-55916050D02*
X147652450Y-55916050D01*
X140330000Y-89620000D02*
X140330000Y-89080000D01*
D64*
X146135000Y-108585000D02*
X146135000Y-110005000D01*
D63*
X113292500Y-120604700D02*
X113292500Y-119052500D01*
D64*
X94925000Y-52350000D02*
X94925000Y-53650000D01*
D63*
X149440000Y-92480000D02*
X149190000Y-92230000D01*
X145640000Y-99130000D02*
X142290000Y-99130000D01*
D65*
X93000000Y-49912500D02*
X93000000Y-47450000D01*
D67*
X146575000Y-81895000D02*
X147525000Y-80945000D01*
D64*
X155235700Y-41476050D02*
X155467450Y-41476050D01*
X94021500Y-68230000D02*
X94021500Y-71991000D01*
D63*
X159970950Y-50111550D02*
X162758450Y-50111550D01*
X146290000Y-98480000D02*
X145640000Y-99130000D01*
D71*
X121341250Y-76195000D02*
X123111250Y-74425000D01*
X124191250Y-69345000D02*
X123041250Y-69345000D01*
D64*
X95225000Y-59500000D02*
X95225000Y-60850000D01*
D63*
X144752500Y-120430000D02*
X144227500Y-119905000D01*
X149002450Y-57591050D02*
X149939850Y-58528450D01*
D67*
X138145000Y-81845000D02*
X141675000Y-81845000D01*
D63*
X110752500Y-120604700D02*
X110752500Y-121951900D01*
D67*
X143725000Y-71145000D02*
X142125000Y-69545000D01*
X145070000Y-66240000D02*
X145070000Y-65745000D01*
D63*
X155467450Y-45301050D02*
X155467450Y-44016050D01*
X155340000Y-92705000D02*
X155040000Y-93005000D01*
D64*
X99445500Y-63110000D02*
X97460000Y-63110000D01*
D69*
X164953450Y-60511550D02*
X167493450Y-60511550D01*
D67*
X143175000Y-81895000D02*
X146575000Y-81895000D01*
D63*
X138424450Y-52841450D02*
X139177650Y-52841450D01*
D64*
X150240000Y-102330000D02*
X150240000Y-103880000D01*
D67*
X152425000Y-70645000D02*
X152825000Y-70245000D01*
D64*
X91350000Y-59250000D02*
X92650000Y-60550000D01*
D67*
X141525000Y-67295000D02*
X139990000Y-65760000D01*
X151925000Y-76545000D02*
X151925000Y-80765000D01*
D63*
X148377450Y-44616050D02*
X146552450Y-44616050D01*
D71*
X115503750Y-49930000D02*
X119141250Y-49930000D01*
D67*
X146375000Y-73345000D02*
X145575000Y-72545000D01*
D71*
X120566250Y-71820000D02*
X120566250Y-72920000D01*
D64*
X135190000Y-104180000D02*
X133435000Y-105935000D01*
D63*
X101970000Y-114425000D02*
X101970000Y-115819400D01*
X98160000Y-120620000D02*
X98160000Y-123229400D01*
X156440000Y-101680000D02*
X156440000Y-105880000D01*
D66*
X148225000Y-70845000D02*
X148725000Y-70845000D01*
D71*
X122466250Y-43705000D02*
X122466250Y-58520000D01*
D63*
X137350000Y-119782500D02*
X137350000Y-121182500D01*
X149905250Y-44865850D02*
X152077650Y-44865850D01*
X152640000Y-93830000D02*
X152640000Y-88080000D01*
X157790000Y-101680000D02*
X156440000Y-101680000D01*
D67*
X149125000Y-80345000D02*
X149925000Y-79545000D01*
D63*
X158783450Y-57149050D02*
X157645950Y-57149050D01*
X152965050Y-56178650D02*
X151065050Y-54278650D01*
D67*
X148225000Y-74345000D02*
X145625000Y-74345000D01*
D63*
X148727250Y-48066250D02*
X148664850Y-48128650D01*
D64*
X153440000Y-91460000D02*
X153440000Y-88530000D01*
D63*
X147693450Y-39886550D02*
X148038950Y-39541050D01*
X141190000Y-94880000D02*
X139665000Y-94880000D01*
X152390450Y-52054050D02*
X153052450Y-52716050D01*
D71*
X122471250Y-61725000D02*
X124191250Y-61725000D01*
D69*
X170875000Y-120582500D02*
X170850000Y-120557500D01*
D63*
X142615000Y-101730000D02*
X141715000Y-100830000D01*
X148665250Y-52054050D02*
X148664850Y-52053650D01*
D64*
X160315000Y-98655000D02*
X160790000Y-99130000D01*
D63*
X146727450Y-41277550D02*
X146727450Y-40966050D01*
D71*
X117341250Y-52255000D02*
X115528750Y-52255000D01*
D63*
X140480000Y-124355000D02*
X129777500Y-124355000D01*
D67*
X142675000Y-68095000D02*
X139800000Y-68095000D01*
D64*
X167575000Y-105995000D02*
X167575000Y-106895000D01*
X150840000Y-105680000D02*
X138990000Y-105680000D01*
D63*
X143477450Y-40466050D02*
X143477450Y-39416050D01*
D64*
X138990000Y-105680000D02*
X138515000Y-106155000D01*
D63*
X88055872Y-126208528D02*
X88055872Y-128656900D01*
D67*
X151925000Y-71645000D02*
X151925000Y-70145000D01*
D63*
X147990000Y-98480000D02*
X146290000Y-98480000D01*
D67*
X151925000Y-70145000D02*
X152425000Y-69645000D01*
D64*
X155740000Y-100880000D02*
X156490000Y-100880000D01*
D66*
X154875000Y-76095000D02*
X154875000Y-77045000D01*
D67*
X140575000Y-76195000D02*
X141425000Y-75345000D01*
D69*
X165275000Y-109645000D02*
X165250000Y-109620000D01*
D63*
X145152650Y-44865850D02*
X138424450Y-44865850D01*
X147990000Y-99280000D02*
X146940000Y-99280000D01*
X137258450Y-38311550D02*
X137208450Y-38361550D01*
X146552450Y-56066050D02*
X147202450Y-56716050D01*
X140440000Y-91730000D02*
X137790000Y-89080000D01*
D65*
X101200000Y-39875000D02*
X101200000Y-46775000D01*
D63*
X144677450Y-37941050D02*
X144677450Y-39416050D01*
D68*
X91605000Y-61830000D02*
X89400000Y-59625000D01*
D67*
X151425000Y-71645000D02*
X151425000Y-73345000D01*
D63*
X166793450Y-56186550D02*
X166868450Y-56111550D01*
X134257950Y-49641050D02*
X133533450Y-48916550D01*
X91520000Y-125169400D02*
X90595872Y-126093528D01*
X146368450Y-41636550D02*
X146718450Y-41286550D01*
D67*
X152075000Y-69045000D02*
X153975000Y-69045000D01*
D63*
X151840000Y-93830000D02*
X151840000Y-89130000D01*
X139330000Y-125180000D02*
X132027500Y-125180000D01*
X145027450Y-37591050D02*
X144677450Y-37941050D01*
X90320000Y-123944400D02*
X88055872Y-126208528D01*
X94470000Y-125169400D02*
X91520000Y-125169400D01*
D64*
X154240000Y-105680000D02*
X152140000Y-107780000D01*
D63*
X106942500Y-120604700D02*
X106942500Y-123016900D01*
X141160000Y-121182500D02*
X141160000Y-122200000D01*
X149905250Y-49641050D02*
X152602450Y-49641050D01*
D67*
X150425000Y-71645000D02*
X150425000Y-66020000D01*
D63*
X156490000Y-93930000D02*
X159040000Y-91380000D01*
D64*
X137240000Y-104930000D02*
X135975000Y-106195000D01*
D63*
X138424450Y-45653250D02*
X137410150Y-45653250D01*
X156490000Y-96880000D02*
X154640000Y-96880000D01*
D71*
X120566250Y-60930000D02*
X120566250Y-62770000D01*
D67*
X139990000Y-65760000D02*
X139990000Y-65745000D01*
D66*
X153125000Y-75845000D02*
X153125000Y-78630000D01*
D64*
X151840000Y-104680000D02*
X150840000Y-105680000D01*
D67*
X143865000Y-83745000D02*
X145215000Y-82395000D01*
D63*
X146552450Y-44616050D02*
X145515250Y-45653250D01*
X137410150Y-45653250D02*
X135543450Y-43786550D01*
D69*
X170900000Y-109632500D02*
X170900000Y-106957500D01*
X171975000Y-128357500D02*
X172725000Y-128357500D01*
X165825000Y-129245000D02*
X165825000Y-128845000D01*
D63*
X154640000Y-96880000D02*
X153990000Y-96230000D01*
D67*
X140135000Y-82395000D02*
X141975000Y-82395000D01*
D68*
X86810000Y-47050000D02*
X87700000Y-47050000D01*
D63*
X95620000Y-120620000D02*
X95620000Y-122344400D01*
X146702500Y-126705000D02*
X143700000Y-123702500D01*
X138424450Y-52054050D02*
X137400950Y-52054050D01*
D67*
X151425000Y-76545000D02*
X151425000Y-80595000D01*
D63*
X108212500Y-120604700D02*
X108212500Y-122761900D01*
X128467500Y-123455000D02*
X128302500Y-123290000D01*
D64*
X154240000Y-91805000D02*
X155290000Y-91805000D01*
D63*
X150427450Y-56716050D02*
X150964850Y-56178650D01*
X159408450Y-55711550D02*
X155633450Y-55711550D01*
D64*
X135375000Y-69032500D02*
X137662500Y-69032500D01*
X153515000Y-90605000D02*
X153440000Y-90680000D01*
D67*
X147825000Y-81495000D02*
X149625000Y-81495000D01*
D63*
X143380000Y-130255000D02*
X143380000Y-128780000D01*
X140177050Y-43113250D02*
X140177050Y-41542950D01*
X144990000Y-98280000D02*
X143090000Y-98280000D01*
D68*
X90810000Y-64390000D02*
X94021500Y-64390000D01*
D67*
X144325000Y-73045000D02*
X144325000Y-70795000D01*
X151425000Y-71645000D02*
X151425000Y-69695000D01*
D69*
X165950000Y-127420000D02*
X167475000Y-127420000D01*
D63*
X162058450Y-53061550D02*
X159408450Y-55711550D01*
D64*
X153440000Y-93830000D02*
X153440000Y-95680000D01*
X100725000Y-59575000D02*
X100725000Y-60300000D01*
D63*
X136715000Y-94505000D02*
X136715000Y-97930000D01*
D69*
X165825000Y-130470000D02*
X165825000Y-132395000D01*
D64*
X101475000Y-66950000D02*
X101850000Y-66575000D01*
D65*
X161537500Y-75282500D02*
X162125000Y-74695000D01*
X83975000Y-114657500D02*
X86837500Y-114657500D01*
D68*
X88725000Y-66475000D02*
X90810000Y-64390000D01*
D63*
X136130000Y-118707500D02*
X136130000Y-121132500D01*
X150768450Y-39541050D02*
X150772950Y-39536550D01*
X145765050Y-44253450D02*
X145152650Y-44865850D01*
X147908450Y-48311550D02*
X147908450Y-51786550D01*
D67*
X142975000Y-81395000D02*
X146225000Y-81395000D01*
D63*
X166868450Y-56111550D02*
X165408450Y-54651550D01*
D68*
X94021500Y-65030000D02*
X91170000Y-65030000D01*
D63*
X151790000Y-89080000D02*
X150490000Y-89080000D01*
X103200000Y-114695000D02*
X103200000Y-117820000D01*
X145590000Y-97680000D02*
X144990000Y-98280000D01*
X140177050Y-41542950D02*
X140783450Y-40936550D01*
D64*
X93750000Y-58750000D02*
X94137500Y-59137500D01*
D71*
X117341250Y-42730000D02*
X115528750Y-42730000D01*
D63*
X128302500Y-128370000D02*
X131217500Y-128370000D01*
D67*
X136245000Y-83745000D02*
X138145000Y-81845000D01*
D63*
X104402500Y-127530272D02*
X103275872Y-128656900D01*
X138600000Y-92430000D02*
X135250000Y-89080000D01*
X106942500Y-115804100D02*
X106942500Y-114412500D01*
X158820950Y-48961550D02*
X159970950Y-50111550D01*
D67*
X145625000Y-74345000D02*
X144325000Y-73045000D01*
D69*
X165200000Y-120545000D02*
X165200000Y-117870000D01*
D63*
X110752500Y-118422500D02*
X110775000Y-118445000D01*
X147618450Y-45701550D02*
X146883450Y-46436550D01*
X155290000Y-89405000D02*
X156540000Y-89405000D01*
X145765050Y-56653650D02*
X146702450Y-57591050D01*
D72*
X156800000Y-69457500D02*
X159125000Y-69457500D01*
D71*
X119141250Y-68980000D02*
X120891250Y-68980000D01*
X120566250Y-72920000D02*
X119141250Y-74345000D01*
X124191250Y-71885000D02*
X122751250Y-71885000D01*
D68*
X90800000Y-67675000D02*
X92165000Y-66310000D01*
D64*
X100500000Y-52850000D02*
X100337500Y-52850000D01*
D63*
X137350000Y-127850000D02*
X137350000Y-126682500D01*
X156490000Y-95280000D02*
X156490000Y-96080000D01*
X140133450Y-46436550D02*
X139316550Y-47253450D01*
D64*
X148675000Y-108795000D02*
X149040000Y-108430000D01*
X156752450Y-46377550D02*
X156752450Y-42427550D01*
D71*
X121816250Y-72820000D02*
X121816250Y-73720000D01*
D64*
X97575000Y-62075000D02*
X97575000Y-54550000D01*
D63*
X147950000Y-89740000D02*
X147950000Y-89080000D01*
D67*
X149425000Y-79245000D02*
X149425000Y-76545000D01*
D63*
X139177650Y-52841450D02*
X139289850Y-52953650D01*
D67*
X139800000Y-68095000D02*
X137450000Y-65745000D01*
D64*
X100475000Y-60550000D02*
X99445500Y-60550000D01*
D63*
X114125000Y-118600000D02*
X114135000Y-118610000D01*
D67*
X152825000Y-70245000D02*
X153975000Y-70245000D01*
D63*
X162125000Y-72195000D02*
X160750000Y-72195000D01*
X140889850Y-52578650D02*
X147164850Y-52578650D01*
D64*
X152640000Y-105080000D02*
X151290000Y-106430000D01*
D63*
X146940000Y-99280000D02*
X146240000Y-99980000D01*
X144227500Y-119905000D02*
X138952500Y-119905000D01*
X138424450Y-49641050D02*
X134257950Y-49641050D01*
D66*
X152425000Y-76545000D02*
X152425000Y-77445000D01*
D67*
X146025000Y-73845000D02*
X144975000Y-72795000D01*
X140575000Y-78045000D02*
X140575000Y-76195000D01*
D71*
X119141250Y-40380000D02*
X119141250Y-37205000D01*
D63*
X147990000Y-95280000D02*
X147990000Y-93030000D01*
D71*
X115503750Y-59480000D02*
X119141250Y-59480000D01*
D64*
X91350000Y-57000000D02*
X91350000Y-59250000D01*
D70*
X146577500Y-128680000D02*
X144580000Y-126682500D01*
X141002500Y-117080000D02*
X145102500Y-117080000D01*
D67*
X146925000Y-79795000D02*
X148875000Y-79795000D01*
D63*
X146552450Y-43113250D02*
X146552450Y-44616050D01*
D69*
X171475000Y-130482500D02*
X171475000Y-132407500D01*
D63*
X148677450Y-48016450D02*
X148677450Y-44915850D01*
D65*
X97525000Y-33925000D02*
X98475000Y-34875000D01*
D63*
X144164850Y-43113250D02*
X144164850Y-41153450D01*
X105672500Y-128513528D02*
X105815872Y-128656900D01*
X137239850Y-58965150D02*
X137239850Y-59041050D01*
X136018450Y-34811550D02*
X136018450Y-34161550D01*
D64*
X153590000Y-99230000D02*
X154240000Y-99230000D01*
D67*
X142025000Y-75845000D02*
X141825000Y-76045000D01*
D63*
X114135000Y-118610000D02*
X121750000Y-118610000D01*
D68*
X90800000Y-96775000D02*
X90800000Y-67675000D01*
D64*
X154240000Y-93830000D02*
X154240000Y-91805000D01*
D67*
X149925000Y-70295000D02*
X147610000Y-67980000D01*
D63*
X149518450Y-43580800D02*
X149518450Y-41476050D01*
X140964450Y-53604050D02*
X140964450Y-54594050D01*
D64*
X99275000Y-52850000D02*
X100500000Y-52850000D01*
D71*
X115503750Y-78505000D02*
X119141250Y-78505000D01*
D65*
X96075000Y-36575000D02*
X96075000Y-43400000D01*
D64*
X155740000Y-105230000D02*
X155740000Y-100880000D01*
D69*
X170850000Y-117882500D02*
X170900000Y-117832500D01*
D63*
X140783450Y-38361550D02*
X139818450Y-38361550D01*
X156940000Y-89805000D02*
X156940000Y-92305000D01*
D69*
X173125000Y-127432500D02*
X174175000Y-128482500D01*
D63*
X143377450Y-57983450D02*
X142319850Y-59041050D01*
X141777250Y-54594050D02*
X141777250Y-55791250D01*
X98160000Y-123229400D02*
X94920000Y-126469400D01*
X159827450Y-43552550D02*
X159363950Y-44016050D01*
D64*
X153440000Y-91460000D02*
X153440000Y-93830000D01*
D63*
X149440000Y-93830000D02*
X149440000Y-92480000D01*
D64*
X143125000Y-71645000D02*
X143125000Y-74495000D01*
D63*
X145190000Y-102430000D02*
X145190000Y-101730000D01*
X140177050Y-54594050D02*
X140177050Y-53291450D01*
X99430000Y-118425000D02*
X99450000Y-118445000D01*
D66*
X154375000Y-73345000D02*
X155625000Y-72095000D01*
D63*
X88544400Y-120620000D02*
X82975872Y-126188528D01*
D65*
X101200000Y-46775000D02*
X101325000Y-46900000D01*
D71*
X123111250Y-74425000D02*
X124191250Y-74425000D01*
D66*
X153725000Y-74345000D02*
X156425000Y-77045000D01*
D71*
X119141250Y-88030000D02*
X119141250Y-84830000D01*
D63*
X140664850Y-55878650D02*
X140964450Y-55579050D01*
D68*
X91755000Y-65670000D02*
X90150000Y-67275000D01*
D69*
X170825000Y-126007500D02*
X170825000Y-123332500D01*
D63*
X141214850Y-53353650D02*
X140964450Y-53604050D01*
D66*
X155075000Y-73845000D02*
X155625000Y-74395000D01*
D63*
X96890000Y-120620000D02*
X96890000Y-122749400D01*
X113735000Y-118610000D02*
X114135000Y-118610000D01*
D67*
X145875000Y-80845000D02*
X146925000Y-79795000D01*
D66*
X153125000Y-73845000D02*
X155075000Y-73845000D01*
D63*
X141690000Y-90980000D02*
X140330000Y-89620000D01*
X162008450Y-48436550D02*
X162008450Y-48861550D01*
X142290000Y-99130000D02*
X142290000Y-93530000D01*
D68*
X86735000Y-98845000D02*
X88730000Y-98845000D01*
D63*
X92420000Y-118994400D02*
X88050600Y-118994400D01*
X156940000Y-92305000D02*
X156540000Y-92705000D01*
D67*
X150425000Y-66020000D02*
X150150000Y-65745000D01*
D63*
X93120000Y-126469400D02*
X93120000Y-128641028D01*
X159818450Y-36186550D02*
X159718450Y-36086550D01*
X152602450Y-49641050D02*
X153727450Y-49641050D01*
D67*
X141975000Y-82395000D02*
X142975000Y-81395000D01*
D63*
X154403650Y-50453850D02*
X155895950Y-48961550D01*
X159818450Y-38311550D02*
X161043450Y-39536550D01*
D67*
X151425000Y-80595000D02*
X149925000Y-82095000D01*
D63*
X156490000Y-99280000D02*
X158390000Y-99280000D01*
D67*
X147610000Y-67980000D02*
X147610000Y-65745000D01*
D63*
X105672500Y-120604700D02*
X105672500Y-128513528D01*
D64*
X159215000Y-98655000D02*
X160315000Y-98655000D01*
D71*
X122751250Y-71885000D02*
X121816250Y-72820000D01*
D63*
X140508450Y-50136550D02*
X139403750Y-51241250D01*
D64*
X172525000Y-110832500D02*
X173200000Y-111507500D01*
X160425000Y-87745000D02*
X160425000Y-90145000D01*
D63*
X100700000Y-120620000D02*
X100700000Y-124564400D01*
X138230000Y-128730000D02*
X137350000Y-127850000D01*
X144952250Y-41566250D02*
X145877450Y-40641050D01*
D65*
X135775000Y-74507500D02*
X135775000Y-77445000D01*
D63*
X148840000Y-90630000D02*
X147950000Y-89740000D01*
D71*
X121516250Y-60770000D02*
X122471250Y-61725000D01*
D63*
X133718450Y-38486550D02*
X137083450Y-38486550D01*
D72*
X159125000Y-66532500D02*
X163837500Y-66532500D01*
D64*
X143595000Y-108125000D02*
X143595000Y-110005000D01*
D63*
X140390000Y-96830000D02*
X139265000Y-97955000D01*
D69*
X170925000Y-109657500D02*
X170900000Y-109632500D01*
D63*
X146727450Y-38141050D02*
X146177450Y-37591050D01*
X138427500Y-117080000D02*
X136565000Y-117080000D01*
D66*
X148925000Y-71045000D02*
X148925000Y-71645000D01*
D63*
X151940000Y-87380000D02*
X132240000Y-87380000D01*
D69*
X172725000Y-128357500D02*
X173300000Y-128932500D01*
D63*
X112022500Y-121696900D02*
X118515872Y-128190272D01*
D67*
X146175000Y-72095000D02*
X146175000Y-69390000D01*
D63*
X153052450Y-52716050D02*
X153052450Y-54266050D01*
D65*
X95875000Y-36375000D02*
X95900000Y-36400000D01*
D63*
X155814650Y-51241250D02*
X155903950Y-51330550D01*
D71*
X120391250Y-82755000D02*
X119141250Y-84005000D01*
D69*
X165175000Y-123320000D02*
X165225000Y-123270000D01*
D65*
X91950000Y-35750000D02*
X93775000Y-33925000D01*
D63*
X148164850Y-52578650D02*
X147164850Y-52578650D01*
D64*
X167550000Y-111495000D02*
X167550000Y-112345000D01*
D63*
X146702450Y-57591050D02*
X149002450Y-57591050D01*
D64*
X154240000Y-102330000D02*
X154240000Y-105680000D01*
D63*
X93080000Y-120620000D02*
X88544400Y-120620000D01*
D65*
X161537500Y-81032500D02*
X161537500Y-77145000D01*
D63*
X140065000Y-102805000D02*
X140740000Y-103480000D01*
X109482500Y-120604700D02*
X109482500Y-122406900D01*
D71*
X119141250Y-84005000D02*
X119141250Y-84830000D01*
D65*
X160475000Y-82095000D02*
X158375000Y-82095000D01*
D71*
X119141250Y-78505000D02*
X119141250Y-75305000D01*
D67*
X148925000Y-76545000D02*
X148925000Y-78845000D01*
D63*
X130793450Y-38486550D02*
X130793450Y-42011550D01*
D65*
X95900000Y-36400000D02*
X96075000Y-36575000D01*
D72*
X160887500Y-67695000D02*
X162125000Y-67695000D01*
D63*
X144952250Y-43113250D02*
X144952250Y-41566250D01*
D67*
X152425000Y-69645000D02*
X155125000Y-69645000D01*
X148925000Y-78845000D02*
X148525000Y-79245000D01*
X137425000Y-67695000D02*
X134320000Y-67695000D01*
D65*
X156775000Y-80495000D02*
X156775000Y-77045000D01*
D63*
X153039850Y-54278650D02*
X153047750Y-54286550D01*
D67*
X141275000Y-81145000D02*
X138625000Y-81145000D01*
D63*
X134330000Y-122605000D02*
X133030000Y-121305000D01*
X152077650Y-44865850D02*
X152927450Y-44016050D01*
X158390000Y-99280000D02*
X158890000Y-99780000D01*
D65*
X96075000Y-49162500D02*
X96825000Y-49912500D01*
D63*
X93770000Y-122544400D02*
X89020000Y-122544400D01*
X95620000Y-122344400D02*
X94020000Y-123944400D01*
X158890000Y-99780000D02*
X158890000Y-101080000D01*
X145765050Y-42239950D02*
X146727450Y-41277550D01*
X138620000Y-127295000D02*
X138620000Y-126682500D01*
X140808450Y-38336550D02*
X140783450Y-38361550D01*
X138968450Y-39211550D02*
X138968450Y-41761550D01*
X137083450Y-38486550D02*
X137208450Y-38361550D01*
X103200000Y-117820000D02*
X101970000Y-119050000D01*
X138127500Y-119005000D02*
X137350000Y-119782500D01*
D64*
X102400000Y-100025000D02*
X102400000Y-100590000D01*
D67*
X139275000Y-69545000D02*
X137425000Y-67695000D01*
D63*
X130768450Y-43161550D02*
X130768450Y-42036550D01*
D67*
X144975000Y-70395000D02*
X142675000Y-68095000D01*
D71*
X119141250Y-49930000D02*
X121516250Y-52305000D01*
X120391250Y-75145000D02*
X120391250Y-82755000D01*
D64*
X96050000Y-62825000D02*
X96975000Y-63750000D01*
D65*
%TO.N,gnd*%
X104900000Y-100590000D02*
X104925000Y-100615000D01*
D70*
X123266250Y-101020000D02*
X123266250Y-82970000D01*
D63*
X147752500Y-121505000D02*
X147752500Y-121155000D01*
D71*
X117341250Y-74180000D02*
X119141250Y-72380000D01*
D63*
X131480000Y-117007500D02*
X131480000Y-118355000D01*
D70*
X114466250Y-46730000D02*
X114466250Y-37205000D01*
D71*
X117341250Y-103880000D02*
X117341250Y-102780000D01*
X117341250Y-56255000D02*
X117341250Y-55155000D01*
D70*
X114466250Y-84830000D02*
X114466250Y-75305000D01*
X117341250Y-94355000D02*
X114491250Y-94355000D01*
D63*
X131480000Y-115540000D02*
X131480000Y-117007500D01*
D70*
X114491250Y-94355000D02*
X114466250Y-94380000D01*
D64*
X93075000Y-59925000D02*
X94006500Y-59925000D01*
X92550000Y-57000000D02*
X92550000Y-59400000D01*
D63*
X128302500Y-118210000D02*
X128302500Y-116855000D01*
D70*
X117341250Y-103880000D02*
X114466250Y-103880000D01*
D65*
X103025000Y-94100000D02*
X104900000Y-95975000D01*
D63*
X134930000Y-118707500D02*
X134930000Y-116907500D01*
D71*
X117341250Y-64655000D02*
X119141250Y-62855000D01*
X119141250Y-62855000D02*
X119141250Y-61780000D01*
D64*
X92550000Y-59400000D02*
X93075000Y-59925000D01*
D63*
X134902500Y-116880000D02*
X131607500Y-116880000D01*
D64*
X91337500Y-54600000D02*
X91337500Y-52875000D01*
D70*
X117341250Y-84830000D02*
X114466250Y-84830000D01*
X114466250Y-106855000D02*
X114891250Y-107280000D01*
X114466250Y-103880000D02*
X114466250Y-94380000D01*
D71*
X119141250Y-72380000D02*
X119141250Y-71305000D01*
D63*
X131790000Y-115230000D02*
X131480000Y-115540000D01*
D71*
X117341250Y-84830000D02*
X117341250Y-83755000D01*
X119141250Y-91480000D02*
X119141250Y-90355000D01*
X117341250Y-37205000D02*
X117341250Y-36105000D01*
D65*
X104900000Y-95975000D02*
X104900000Y-100590000D01*
D63*
X128327500Y-116880000D02*
X128302500Y-116855000D01*
D65*
X96600000Y-97950000D02*
X96762500Y-97787500D01*
D64*
X92550000Y-57000000D02*
X92550000Y-55812500D01*
D71*
X117341250Y-45655000D02*
X119141250Y-43855000D01*
D65*
X103075000Y-84775000D02*
X103025000Y-84825000D01*
D70*
X123266250Y-82970000D02*
X124191250Y-82045000D01*
D63*
X147752500Y-121155000D02*
X147752500Y-120705000D01*
D71*
X119141250Y-53355000D02*
X119141250Y-52255000D01*
X117341250Y-36105000D02*
X119141250Y-34305000D01*
D70*
X117341250Y-75305000D02*
X114466250Y-75305000D01*
X114891250Y-107280000D02*
X119566250Y-107280000D01*
D71*
X117341250Y-55155000D02*
X119141250Y-53355000D01*
X119141250Y-81955000D02*
X119141250Y-80830000D01*
X119141250Y-100980000D02*
X119141250Y-99880000D01*
D65*
X96762500Y-97787500D02*
X96762500Y-72175000D01*
D70*
X120125000Y-104161250D02*
X123266250Y-101020000D01*
D71*
X117341250Y-65780000D02*
X117341250Y-64655000D01*
D70*
X114466250Y-65780000D02*
X114466250Y-56255000D01*
D63*
X131607500Y-116880000D02*
X131480000Y-117007500D01*
D70*
X119566250Y-107280000D02*
X120125000Y-106721250D01*
D71*
X119141250Y-34305000D02*
X119141250Y-33205000D01*
D70*
X114466250Y-94380000D02*
X114466250Y-84830000D01*
D63*
X128302500Y-116855000D02*
X128302500Y-115670000D01*
D64*
X92550000Y-55812500D02*
X91337500Y-54600000D01*
D65*
X103025000Y-84825000D02*
X103025000Y-94100000D01*
D71*
X117341250Y-83755000D02*
X119141250Y-81955000D01*
D70*
X120125000Y-106721250D02*
X120125000Y-104161250D01*
D63*
X132152500Y-116880000D02*
X128327500Y-116880000D01*
X134930000Y-116907500D02*
X134902500Y-116880000D01*
X147752500Y-120705000D02*
X147752500Y-117905000D01*
D70*
X114466250Y-75305000D02*
X114466250Y-65780000D01*
D71*
X117341250Y-102780000D02*
X119141250Y-100980000D01*
X117341250Y-46730000D02*
X117341250Y-45655000D01*
X117341250Y-75305000D02*
X117341250Y-74180000D01*
D70*
X117341250Y-56255000D02*
X114466250Y-56255000D01*
X117341250Y-65780000D02*
X114466250Y-65780000D01*
X114466250Y-103880000D02*
X114466250Y-106855000D01*
X117341250Y-46730000D02*
X114466250Y-46730000D01*
D71*
X119141250Y-43855000D02*
X119141250Y-42730000D01*
X117341250Y-93280000D02*
X119141250Y-91480000D01*
D70*
X114466250Y-56255000D02*
X114466250Y-46730000D01*
D64*
X94006500Y-59925000D02*
X94021500Y-59910000D01*
D70*
X117341250Y-37205000D02*
X114466250Y-37205000D01*
D71*
X117341250Y-94355000D02*
X117341250Y-93280000D01*
D65*
%TO.N,5v*%
X112603750Y-106923750D02*
X114075000Y-108395000D01*
X126225000Y-80478750D02*
X125251250Y-79505000D01*
X124466250Y-101670000D02*
X124466250Y-85237500D01*
D64*
X98100000Y-65350000D02*
X98100000Y-100390000D01*
X98100000Y-100390000D02*
X97900000Y-100590000D01*
D65*
X112603750Y-33205000D02*
X112603750Y-105905000D01*
X120175000Y-108395000D02*
X121275000Y-107295000D01*
D71*
X123171250Y-76965000D02*
X124191250Y-76965000D01*
D64*
X99445500Y-65030000D02*
X98420000Y-65030000D01*
X97900000Y-100590000D02*
X97925000Y-100615000D01*
D65*
X89900000Y-39460000D02*
X86810000Y-42550000D01*
X121275000Y-107295000D02*
X121275000Y-104861250D01*
D71*
X122291250Y-77845000D02*
X123171250Y-76965000D01*
D65*
X112603750Y-105905000D02*
X112603750Y-106923750D01*
D71*
X115528750Y-105905000D02*
X119141250Y-105905000D01*
X122291250Y-99995000D02*
X122291250Y-77845000D01*
D65*
X89900000Y-35950000D02*
X89900000Y-39460000D01*
D64*
X98420000Y-65030000D02*
X98100000Y-65350000D01*
D65*
X121275000Y-104861250D02*
X124466250Y-101670000D01*
D71*
X119141250Y-105905000D02*
X119141250Y-103880000D01*
D65*
X124466250Y-85237500D02*
X126225000Y-83478750D01*
D71*
X119141250Y-103145000D02*
X122291250Y-99995000D01*
D65*
X114075000Y-108395000D02*
X120175000Y-108395000D01*
D71*
X119141250Y-105905000D02*
X119141250Y-103145000D01*
D65*
X125251250Y-79505000D02*
X124191250Y-79505000D01*
X126225000Y-83478750D02*
X126225000Y-80478750D01*
D64*
%TO.N,3.3V*%
X107375000Y-68787500D02*
X106212500Y-68787500D01*
X100650000Y-64600000D02*
X100440000Y-64390000D01*
X101537500Y-64912500D02*
X101475000Y-64975000D01*
D68*
X96863500Y-64390000D02*
X96333500Y-64920000D01*
D64*
X103150000Y-65425000D02*
X102700000Y-64975000D01*
X104400000Y-57325000D02*
X100375000Y-57325000D01*
X105825000Y-58750000D02*
X104400000Y-57325000D01*
X105825000Y-66500000D02*
X105825000Y-58750000D01*
D68*
X94021500Y-67590000D02*
X92835000Y-67590000D01*
X99445500Y-64390000D02*
X96863500Y-64390000D01*
D64*
X100650000Y-64975000D02*
X100650000Y-64600000D01*
X100455000Y-65670000D02*
X100650000Y-65475000D01*
D68*
X96333500Y-64920000D02*
X96333500Y-67121500D01*
D64*
X99445500Y-66310000D02*
X99445500Y-65670000D01*
X101475000Y-64975000D02*
X100650000Y-64975000D01*
D68*
X92400000Y-68025000D02*
X92400000Y-75062500D01*
D64*
X101725000Y-64975000D02*
X101475000Y-64975000D01*
X106212500Y-68787500D02*
X105825000Y-68400000D01*
D68*
X92835000Y-67590000D02*
X92400000Y-68025000D01*
D64*
X100650000Y-65475000D02*
X100650000Y-64975000D01*
X101537500Y-64000000D02*
X101537500Y-64912500D01*
X105825000Y-68400000D02*
X105825000Y-66500000D01*
X99445500Y-65670000D02*
X100455000Y-65670000D01*
X102700000Y-64975000D02*
X101725000Y-64975000D01*
X103150000Y-66575000D02*
X105750000Y-66575000D01*
D68*
X96333500Y-67121500D02*
X95865000Y-67590000D01*
D64*
X105750000Y-66575000D02*
X105825000Y-66500000D01*
X100440000Y-64390000D02*
X99445500Y-64390000D01*
D68*
X95865000Y-67590000D02*
X94021500Y-67590000D01*
X92400000Y-75062500D02*
X93587500Y-76250000D01*
D64*
X103150000Y-66575000D02*
X103150000Y-65425000D01*
%TO.N,1.8V*%
X98295000Y-59910000D02*
X98285000Y-59900000D01*
X91625000Y-67850000D02*
X91625000Y-79275000D01*
X91625000Y-79275000D02*
X92500000Y-80150000D01*
X92500000Y-80150000D02*
X93662500Y-80150000D01*
X95265000Y-66950000D02*
X92525000Y-66950000D01*
X92525000Y-66950000D02*
X91625000Y-67850000D01*
X99445500Y-59910000D02*
X98295000Y-59910000D01*
X95455000Y-66760000D02*
X95265000Y-66950000D01*
%TD*%
M02*
