%TF.GenerationSoftware,KiCad,Pcbnew,8.0.3*%
%TF.CreationDate,2024-07-16T20:49:30+03:00*%
%TF.ProjectId,PCBcoil,50434263-6f69-46c2-9e6b-696361645f70,rev?*%
%TF.SameCoordinates,Original*%
%TF.FileFunction,Profile,NP*%
%FSLAX46Y46*%
G04 Gerber Fmt 4.6, Leading zero omitted, Abs format (unit mm)*
G04 Created by KiCad (PCBNEW 8.0.3) date 2024-07-16 20:49:30*
%MOMM*%
%LPD*%
G01*
G04 APERTURE LIST*
%TA.AperFunction,Profile*%
%ADD10C,0.050000*%
%TD*%
G04 APERTURE END LIST*
D10*
X99894999Y-89581875D02*
G75*
G02*
X97330014Y-94125653I-2561319J-1549985D01*
G01*
X100418942Y-91081456D02*
X100427208Y-94131594D01*
X94333698Y-91081875D02*
G75*
G02*
X94762097Y-89586140I3000002J-50025D01*
G01*
X119098511Y-83872046D02*
X119098511Y-86522046D01*
X106930001Y-83872327D02*
G75*
G02*
X112079999Y-83872327I2574999J1550000D01*
G01*
X105998510Y-89581594D02*
G75*
G02*
X103423514Y-94133956I-2571310J-1550006D01*
G01*
X142615000Y-129065000D02*
X92617276Y-129074006D01*
X118155000Y-86522327D02*
X118154999Y-83872327D01*
X121673510Y-94137109D02*
X118677208Y-94131594D01*
X106493942Y-91081456D02*
X106502208Y-94131594D01*
X118668942Y-91081456D02*
X118677208Y-94131594D01*
X106930000Y-86522327D02*
X105986489Y-86522608D01*
X99895000Y-86931875D02*
X100848511Y-86931594D01*
X113005001Y-83872327D02*
G75*
G02*
X118154999Y-83872327I2574999J1550000D01*
G01*
X100418942Y-91081456D02*
G75*
G02*
X100848496Y-89581585I3008058J-50044D01*
G01*
X118155000Y-86522327D02*
X119098511Y-86522046D01*
X118668942Y-91081456D02*
G75*
G02*
X119098496Y-89581585I3008058J-50044D01*
G01*
X112587453Y-91081175D02*
G75*
G02*
X113017013Y-89581307I3007947J-50025D01*
G01*
X100848511Y-86931594D02*
X100848511Y-89581594D01*
X100836489Y-83872608D02*
X100836489Y-86522608D01*
X112587453Y-91081175D02*
X112595719Y-94131313D01*
X97330014Y-94125653D02*
X94333698Y-94131875D01*
X105998511Y-89581594D02*
X105998511Y-86931594D01*
X113017022Y-86931313D02*
X112073511Y-86931594D01*
X118167022Y-89581313D02*
X118167022Y-86931313D01*
X99895000Y-89581875D02*
X99895000Y-86931875D01*
X100836490Y-83872608D02*
G75*
G02*
X105986488Y-83872608I2574999J1550000D01*
G01*
X124785000Y-86955000D02*
X124248511Y-86931594D01*
X106930000Y-83872327D02*
X106930000Y-86522327D01*
X124248511Y-86931594D02*
X124248510Y-89581594D01*
X119098512Y-83872046D02*
G75*
G02*
X124248510Y-83872046I2574999J1550000D01*
G01*
X94765000Y-86931875D02*
X93525000Y-86935000D01*
X112080000Y-86522327D02*
X113005000Y-86522327D01*
X113005000Y-83872327D02*
X113005000Y-86522327D01*
X104753400Y-103533390D02*
G75*
G02*
X103233400Y-103533390I-760000J0D01*
G01*
X103233400Y-103533390D02*
G75*
G02*
X104753400Y-103533390I760000J0D01*
G01*
X94765000Y-83872327D02*
X94765000Y-86522327D01*
X112073510Y-89581594D02*
G75*
G02*
X109498514Y-94133956I-2571310J-1550006D01*
G01*
X109498510Y-94137109D02*
X106502208Y-94131594D01*
X99895000Y-86525000D02*
X99897663Y-83867911D01*
X124248510Y-89581594D02*
G75*
G02*
X121673514Y-94133956I-2571310J-1550006D01*
G01*
X92625000Y-86515000D02*
X94765000Y-86522327D01*
X113017022Y-86931313D02*
X113017022Y-89581313D01*
X142615000Y-79075000D02*
X142615000Y-129065000D01*
X124765000Y-86525000D02*
X124765000Y-79075000D01*
X105998511Y-86931594D02*
X106923511Y-86931594D01*
X124248511Y-86522046D02*
X124248510Y-83872046D01*
X112073511Y-89581594D02*
X112073511Y-86931594D01*
X106923511Y-86931594D02*
X106923511Y-89581594D01*
X103423510Y-94137109D02*
X100427208Y-94131594D01*
X94765000Y-86931875D02*
X94762097Y-89586140D01*
X94333698Y-91081875D02*
X94333698Y-94131875D01*
X99895000Y-86525000D02*
X100836489Y-86522608D01*
X124765000Y-79075000D02*
X142615000Y-79075000D01*
X105986489Y-86522608D02*
X105986489Y-83872608D01*
X112080000Y-86522327D02*
X112080000Y-83872327D01*
X119098511Y-86931594D02*
X119098511Y-89581594D01*
X118167021Y-89581313D02*
G75*
G02*
X115592025Y-94133655I-2571321J-1549987D01*
G01*
X92625000Y-86515000D02*
X92617276Y-129074006D01*
X124248511Y-86522046D02*
X124765000Y-86525000D01*
X118167022Y-86931313D02*
X119098511Y-86931594D01*
X124795000Y-94435000D02*
X124785000Y-86955000D01*
X106493942Y-91081456D02*
G75*
G02*
X106923496Y-89581585I3008058J-50044D01*
G01*
X115592021Y-94136828D02*
X112595719Y-94131313D01*
X93525000Y-94385000D02*
X124795000Y-94435000D01*
X93525000Y-86935000D02*
X93525000Y-94385000D01*
X94765001Y-83872327D02*
G75*
G02*
X99897663Y-83867911I2564999J1549997D01*
G01*
M02*
