%TF.GenerationSoftware,KiCad,Pcbnew,8.0.3*%
%TF.CreationDate,2024-07-16T20:49:30+03:00*%
%TF.ProjectId,PCBcoil,50434263-6f69-46c2-9e6b-696361645f70,rev?*%
%TF.SameCoordinates,Original*%
%TF.FileFunction,Legend,Top*%
%TF.FilePolarity,Positive*%
%FSLAX46Y46*%
G04 Gerber Fmt 4.6, Leading zero omitted, Abs format (unit mm)*
G04 Created by KiCad (PCBNEW 8.0.3) date 2024-07-16 20:49:30*
%MOMM*%
%LPD*%
G01*
G04 APERTURE LIST*
%ADD10C,0.018750*%
%ADD11C,0.250000*%
%ADD12C,0.500000*%
%ADD13C,0.100000*%
%ADD14C,0.150000*%
%ADD15C,0.140000*%
%ADD16C,0.225000*%
%ADD17C,0.200000*%
%ADD18C,0.120000*%
%ADD19C,0.050000*%
%ADD20C,0.125000*%
%ADD21C,0.160000*%
%ADD22C,0.254000*%
%ADD23C,0.175000*%
G04 APERTURE END LIST*
D10*
X111921144Y-122241120D02*
X111849715Y-122812548D01*
X111849715Y-122812548D02*
X111828287Y-122926834D01*
X111828287Y-122926834D02*
X111804477Y-123003025D01*
X111804477Y-123003025D02*
X111778287Y-123041120D01*
X111778287Y-123041120D02*
X111764001Y-123041120D01*
X111964001Y-123041120D02*
X111892573Y-123041120D01*
X111892573Y-123041120D02*
X111992573Y-122241120D01*
X112109240Y-122964929D02*
X112097335Y-123003025D01*
X112097335Y-123003025D02*
X112071145Y-123041120D01*
X112071145Y-123041120D02*
X112056859Y-123041120D01*
X112056859Y-123041120D02*
X112040192Y-123003025D01*
X112040192Y-123003025D02*
X112035430Y-122926834D01*
X112035430Y-122926834D02*
X112037811Y-122850644D01*
X112037811Y-122850644D02*
X112049716Y-122698263D01*
X112049716Y-122698263D02*
X112064002Y-122583977D01*
X112064002Y-122583977D02*
X112090192Y-122431596D01*
X112090192Y-122431596D02*
X112106859Y-122355405D01*
X112106859Y-122355405D02*
X112130669Y-122279215D01*
X112130669Y-122279215D02*
X112156859Y-122241120D01*
X112156859Y-122241120D02*
X112171145Y-122241120D01*
X112171145Y-122241120D02*
X112187811Y-122279215D01*
X112187811Y-122279215D02*
X112190192Y-122317310D01*
X112306859Y-122241120D02*
X112235430Y-122812548D01*
X112235430Y-122812548D02*
X112214002Y-122926834D01*
X112214002Y-122926834D02*
X112190192Y-123003025D01*
X112190192Y-123003025D02*
X112164002Y-123041120D01*
X112164002Y-123041120D02*
X112149716Y-123041120D01*
X112349716Y-123041120D02*
X112278288Y-123041120D01*
X112278288Y-123041120D02*
X112378288Y-122241120D01*
X112494955Y-122964929D02*
X112483050Y-123003025D01*
X112483050Y-123003025D02*
X112456860Y-123041120D01*
X112456860Y-123041120D02*
X112442574Y-123041120D01*
X112442574Y-123041120D02*
X112425907Y-123003025D01*
X112425907Y-123003025D02*
X112421145Y-122926834D01*
X112421145Y-122926834D02*
X112423526Y-122850644D01*
X112423526Y-122850644D02*
X112435431Y-122698263D01*
X112435431Y-122698263D02*
X112449717Y-122583977D01*
X112449717Y-122583977D02*
X112475907Y-122431596D01*
X112475907Y-122431596D02*
X112492574Y-122355405D01*
X112492574Y-122355405D02*
X112516384Y-122279215D01*
X112516384Y-122279215D02*
X112542574Y-122241120D01*
X112542574Y-122241120D02*
X112556860Y-122241120D01*
X112556860Y-122241120D02*
X112573526Y-122279215D01*
X112573526Y-122279215D02*
X112575907Y-122317310D01*
X112692574Y-122241120D02*
X112621145Y-122812548D01*
X112621145Y-122812548D02*
X112599717Y-122926834D01*
X112599717Y-122926834D02*
X112575907Y-123003025D01*
X112575907Y-123003025D02*
X112549717Y-123041120D01*
X112549717Y-123041120D02*
X112535431Y-123041120D01*
X112735431Y-123041120D02*
X112664003Y-123041120D01*
X112664003Y-123041120D02*
X112764003Y-122241120D01*
X112880670Y-122964929D02*
X112868765Y-123003025D01*
X112868765Y-123003025D02*
X112842575Y-123041120D01*
X112842575Y-123041120D02*
X112828289Y-123041120D01*
X112828289Y-123041120D02*
X112811622Y-123003025D01*
X112811622Y-123003025D02*
X112806860Y-122926834D01*
X112806860Y-122926834D02*
X112809241Y-122850644D01*
X112809241Y-122850644D02*
X112821146Y-122698263D01*
X112821146Y-122698263D02*
X112835432Y-122583977D01*
X112835432Y-122583977D02*
X112861622Y-122431596D01*
X112861622Y-122431596D02*
X112878289Y-122355405D01*
X112878289Y-122355405D02*
X112902099Y-122279215D01*
X112902099Y-122279215D02*
X112928289Y-122241120D01*
X112928289Y-122241120D02*
X112942575Y-122241120D01*
X112942575Y-122241120D02*
X112959241Y-122279215D01*
X112959241Y-122279215D02*
X112961622Y-122317310D01*
X113078289Y-122241120D02*
X113006860Y-122812548D01*
X113006860Y-122812548D02*
X112985432Y-122926834D01*
X112985432Y-122926834D02*
X112961622Y-123003025D01*
X112961622Y-123003025D02*
X112935432Y-123041120D01*
X112935432Y-123041120D02*
X112921146Y-123041120D01*
X113121146Y-123041120D02*
X113049718Y-123041120D01*
X113049718Y-123041120D02*
X113149718Y-122241120D01*
X113266385Y-122964929D02*
X113254480Y-123003025D01*
X113254480Y-123003025D02*
X113228290Y-123041120D01*
X113228290Y-123041120D02*
X113214004Y-123041120D01*
X113214004Y-123041120D02*
X113197337Y-123003025D01*
X113197337Y-123003025D02*
X113192575Y-122926834D01*
X113192575Y-122926834D02*
X113194956Y-122850644D01*
X113194956Y-122850644D02*
X113206861Y-122698263D01*
X113206861Y-122698263D02*
X113221147Y-122583977D01*
X113221147Y-122583977D02*
X113247337Y-122431596D01*
X113247337Y-122431596D02*
X113264004Y-122355405D01*
X113264004Y-122355405D02*
X113287814Y-122279215D01*
X113287814Y-122279215D02*
X113314004Y-122241120D01*
X113314004Y-122241120D02*
X113328290Y-122241120D01*
X113328290Y-122241120D02*
X113344956Y-122279215D01*
X113344956Y-122279215D02*
X113347337Y-122317310D01*
D11*
X108799619Y-127726717D02*
X109513904Y-127726717D01*
X109513904Y-127726717D02*
X109656761Y-127774336D01*
X109656761Y-127774336D02*
X109752000Y-127869574D01*
X109752000Y-127869574D02*
X109799619Y-128012431D01*
X109799619Y-128012431D02*
X109799619Y-128107669D01*
X109799619Y-126774336D02*
X109799619Y-127250526D01*
X109799619Y-127250526D02*
X108799619Y-127250526D01*
X109704380Y-125869574D02*
X109752000Y-125917193D01*
X109752000Y-125917193D02*
X109799619Y-126060050D01*
X109799619Y-126060050D02*
X109799619Y-126155288D01*
X109799619Y-126155288D02*
X109752000Y-126298145D01*
X109752000Y-126298145D02*
X109656761Y-126393383D01*
X109656761Y-126393383D02*
X109561523Y-126441002D01*
X109561523Y-126441002D02*
X109371047Y-126488621D01*
X109371047Y-126488621D02*
X109228190Y-126488621D01*
X109228190Y-126488621D02*
X109037714Y-126441002D01*
X109037714Y-126441002D02*
X108942476Y-126393383D01*
X108942476Y-126393383D02*
X108847238Y-126298145D01*
X108847238Y-126298145D02*
X108799619Y-126155288D01*
X108799619Y-126155288D02*
X108799619Y-126060050D01*
X108799619Y-126060050D02*
X108847238Y-125917193D01*
X108847238Y-125917193D02*
X108894857Y-125869574D01*
X108799619Y-125012431D02*
X108799619Y-125202907D01*
X108799619Y-125202907D02*
X108847238Y-125298145D01*
X108847238Y-125298145D02*
X108894857Y-125345764D01*
X108894857Y-125345764D02*
X109037714Y-125441002D01*
X109037714Y-125441002D02*
X109228190Y-125488621D01*
X109228190Y-125488621D02*
X109609142Y-125488621D01*
X109609142Y-125488621D02*
X109704380Y-125441002D01*
X109704380Y-125441002D02*
X109752000Y-125393383D01*
X109752000Y-125393383D02*
X109799619Y-125298145D01*
X109799619Y-125298145D02*
X109799619Y-125107669D01*
X109799619Y-125107669D02*
X109752000Y-125012431D01*
X109752000Y-125012431D02*
X109704380Y-124964812D01*
X109704380Y-124964812D02*
X109609142Y-124917193D01*
X109609142Y-124917193D02*
X109371047Y-124917193D01*
X109371047Y-124917193D02*
X109275809Y-124964812D01*
X109275809Y-124964812D02*
X109228190Y-125012431D01*
X109228190Y-125012431D02*
X109180571Y-125107669D01*
X109180571Y-125107669D02*
X109180571Y-125298145D01*
X109180571Y-125298145D02*
X109228190Y-125393383D01*
X109228190Y-125393383D02*
X109275809Y-125441002D01*
X109275809Y-125441002D02*
X109371047Y-125488621D01*
X109418666Y-124488621D02*
X109418666Y-123726717D01*
X109799619Y-123250526D02*
X108799619Y-123250526D01*
X108799619Y-123250526D02*
X108799619Y-122869574D01*
X108799619Y-122869574D02*
X108847238Y-122774336D01*
X108847238Y-122774336D02*
X108894857Y-122726717D01*
X108894857Y-122726717D02*
X108990095Y-122679098D01*
X108990095Y-122679098D02*
X109132952Y-122679098D01*
X109132952Y-122679098D02*
X109228190Y-122726717D01*
X109228190Y-122726717D02*
X109275809Y-122774336D01*
X109275809Y-122774336D02*
X109323428Y-122869574D01*
X109323428Y-122869574D02*
X109323428Y-123250526D01*
X109704380Y-121679098D02*
X109752000Y-121726717D01*
X109752000Y-121726717D02*
X109799619Y-121869574D01*
X109799619Y-121869574D02*
X109799619Y-121964812D01*
X109799619Y-121964812D02*
X109752000Y-122107669D01*
X109752000Y-122107669D02*
X109656761Y-122202907D01*
X109656761Y-122202907D02*
X109561523Y-122250526D01*
X109561523Y-122250526D02*
X109371047Y-122298145D01*
X109371047Y-122298145D02*
X109228190Y-122298145D01*
X109228190Y-122298145D02*
X109037714Y-122250526D01*
X109037714Y-122250526D02*
X108942476Y-122202907D01*
X108942476Y-122202907D02*
X108847238Y-122107669D01*
X108847238Y-122107669D02*
X108799619Y-121964812D01*
X108799619Y-121964812D02*
X108799619Y-121869574D01*
X108799619Y-121869574D02*
X108847238Y-121726717D01*
X108847238Y-121726717D02*
X108894857Y-121679098D01*
X109275809Y-120917193D02*
X109323428Y-120774336D01*
X109323428Y-120774336D02*
X109371047Y-120726717D01*
X109371047Y-120726717D02*
X109466285Y-120679098D01*
X109466285Y-120679098D02*
X109609142Y-120679098D01*
X109609142Y-120679098D02*
X109704380Y-120726717D01*
X109704380Y-120726717D02*
X109752000Y-120774336D01*
X109752000Y-120774336D02*
X109799619Y-120869574D01*
X109799619Y-120869574D02*
X109799619Y-121250526D01*
X109799619Y-121250526D02*
X108799619Y-121250526D01*
X108799619Y-121250526D02*
X108799619Y-120917193D01*
X108799619Y-120917193D02*
X108847238Y-120821955D01*
X108847238Y-120821955D02*
X108894857Y-120774336D01*
X108894857Y-120774336D02*
X108990095Y-120726717D01*
X108990095Y-120726717D02*
X109085333Y-120726717D01*
X109085333Y-120726717D02*
X109180571Y-120774336D01*
X109180571Y-120774336D02*
X109228190Y-120821955D01*
X109228190Y-120821955D02*
X109275809Y-120917193D01*
X109275809Y-120917193D02*
X109275809Y-121250526D01*
X109752000Y-119821955D02*
X109799619Y-119917193D01*
X109799619Y-119917193D02*
X109799619Y-120107669D01*
X109799619Y-120107669D02*
X109752000Y-120202907D01*
X109752000Y-120202907D02*
X109704380Y-120250526D01*
X109704380Y-120250526D02*
X109609142Y-120298145D01*
X109609142Y-120298145D02*
X109323428Y-120298145D01*
X109323428Y-120298145D02*
X109228190Y-120250526D01*
X109228190Y-120250526D02*
X109180571Y-120202907D01*
X109180571Y-120202907D02*
X109132952Y-120107669D01*
X109132952Y-120107669D02*
X109132952Y-119917193D01*
X109132952Y-119917193D02*
X109180571Y-119821955D01*
X109799619Y-119250526D02*
X109752000Y-119345764D01*
X109752000Y-119345764D02*
X109704380Y-119393383D01*
X109704380Y-119393383D02*
X109609142Y-119441002D01*
X109609142Y-119441002D02*
X109323428Y-119441002D01*
X109323428Y-119441002D02*
X109228190Y-119393383D01*
X109228190Y-119393383D02*
X109180571Y-119345764D01*
X109180571Y-119345764D02*
X109132952Y-119250526D01*
X109132952Y-119250526D02*
X109132952Y-119107669D01*
X109132952Y-119107669D02*
X109180571Y-119012431D01*
X109180571Y-119012431D02*
X109228190Y-118964812D01*
X109228190Y-118964812D02*
X109323428Y-118917193D01*
X109323428Y-118917193D02*
X109609142Y-118917193D01*
X109609142Y-118917193D02*
X109704380Y-118964812D01*
X109704380Y-118964812D02*
X109752000Y-119012431D01*
X109752000Y-119012431D02*
X109799619Y-119107669D01*
X109799619Y-119107669D02*
X109799619Y-119250526D01*
X109799619Y-118488621D02*
X109132952Y-118488621D01*
X108799619Y-118488621D02*
X108847238Y-118536240D01*
X108847238Y-118536240D02*
X108894857Y-118488621D01*
X108894857Y-118488621D02*
X108847238Y-118441002D01*
X108847238Y-118441002D02*
X108799619Y-118488621D01*
X108799619Y-118488621D02*
X108894857Y-118488621D01*
X109799619Y-117869574D02*
X109752000Y-117964812D01*
X109752000Y-117964812D02*
X109656761Y-118012431D01*
X109656761Y-118012431D02*
X108799619Y-118012431D01*
X109752000Y-117536240D02*
X109799619Y-117441002D01*
X109799619Y-117441002D02*
X109799619Y-117250526D01*
X109799619Y-117250526D02*
X109752000Y-117155288D01*
X109752000Y-117155288D02*
X109656761Y-117107669D01*
X109656761Y-117107669D02*
X109609142Y-117107669D01*
X109609142Y-117107669D02*
X109513904Y-117155288D01*
X109513904Y-117155288D02*
X109466285Y-117250526D01*
X109466285Y-117250526D02*
X109466285Y-117393383D01*
X109466285Y-117393383D02*
X109418666Y-117488621D01*
X109418666Y-117488621D02*
X109323428Y-117536240D01*
X109323428Y-117536240D02*
X109275809Y-117536240D01*
X109275809Y-117536240D02*
X109180571Y-117488621D01*
X109180571Y-117488621D02*
X109132952Y-117393383D01*
X109132952Y-117393383D02*
X109132952Y-117250526D01*
X109132952Y-117250526D02*
X109180571Y-117155288D01*
D12*
X125365000Y-110015000D02*
X142645000Y-110005000D01*
X106175000Y-116385000D02*
X106135000Y-129140000D01*
D13*
X105996299Y-83883062D02*
G75*
G02*
X100846712Y-83882416I-2574599J1550562D01*
G01*
X118164810Y-83882781D02*
G75*
G02*
X113015207Y-83882145I-2574610J1550581D01*
G01*
D12*
X114085000Y-121640000D02*
X114085000Y-129090000D01*
X110635000Y-116355000D02*
X110625000Y-121615000D01*
D13*
X125745000Y-96917500D02*
X142405000Y-96917500D01*
X142405000Y-109737500D01*
X125745000Y-109737500D01*
X125745000Y-96917500D01*
D12*
X92715000Y-86725000D02*
X125035000Y-86715000D01*
D13*
X119088701Y-89571140D02*
G75*
G02*
X124238288Y-89571786I2574599J-1550560D01*
G01*
X99914810Y-83882781D02*
G75*
G02*
X94765207Y-83882145I-2574610J1550581D01*
G01*
D12*
X92735000Y-116345000D02*
X125085000Y-116415000D01*
D13*
X113007212Y-89570859D02*
G75*
G02*
X118156783Y-89571515I2574588J-1550541D01*
G01*
D12*
X92605000Y-96465000D02*
X142610000Y-96490000D01*
D13*
X112089810Y-83882781D02*
G75*
G02*
X106940207Y-83882145I-2574610J1550581D01*
G01*
D14*
X125604776Y-79099006D02*
X142604776Y-79099006D01*
X142604776Y-96099006D01*
X125604776Y-96099006D01*
X125604776Y-79099006D01*
D13*
X94745190Y-89571421D02*
G75*
G02*
X99894793Y-89572057I2574610J-1550679D01*
G01*
D12*
X110625000Y-121615000D02*
X142625000Y-121595000D01*
D13*
X106913701Y-89571140D02*
G75*
G02*
X112063288Y-89571786I2574599J-1550560D01*
G01*
D12*
X125035000Y-79290000D02*
X125110000Y-121540000D01*
D13*
X124258321Y-83882500D02*
G75*
G02*
X119108702Y-83881873I-2574621J1550600D01*
G01*
X100838701Y-89571140D02*
G75*
G02*
X105988288Y-89571786I2574599J-1550560D01*
G01*
D15*
X138508771Y-103534553D02*
X138508771Y-102834553D01*
X138508771Y-102834553D02*
X138675438Y-102834553D01*
X138675438Y-102834553D02*
X138775438Y-102867886D01*
X138775438Y-102867886D02*
X138842105Y-102934553D01*
X138842105Y-102934553D02*
X138875438Y-103001220D01*
X138875438Y-103001220D02*
X138908771Y-103134553D01*
X138908771Y-103134553D02*
X138908771Y-103234553D01*
X138908771Y-103234553D02*
X138875438Y-103367886D01*
X138875438Y-103367886D02*
X138842105Y-103434553D01*
X138842105Y-103434553D02*
X138775438Y-103501220D01*
X138775438Y-103501220D02*
X138675438Y-103534553D01*
X138675438Y-103534553D02*
X138508771Y-103534553D01*
X139575438Y-103534553D02*
X139175438Y-103534553D01*
X139375438Y-103534553D02*
X139375438Y-102834553D01*
X139375438Y-102834553D02*
X139308771Y-102934553D01*
X139308771Y-102934553D02*
X139242105Y-103001220D01*
X139242105Y-103001220D02*
X139175438Y-103034553D01*
D16*
X134053157Y-108570357D02*
X134053157Y-108056072D01*
X134953157Y-108313214D02*
X134053157Y-108313214D01*
X134953157Y-107627500D02*
X134910300Y-107713215D01*
X134910300Y-107713215D02*
X134867442Y-107756072D01*
X134867442Y-107756072D02*
X134781728Y-107798929D01*
X134781728Y-107798929D02*
X134524585Y-107798929D01*
X134524585Y-107798929D02*
X134438871Y-107756072D01*
X134438871Y-107756072D02*
X134396014Y-107713215D01*
X134396014Y-107713215D02*
X134353157Y-107627500D01*
X134353157Y-107627500D02*
X134353157Y-107498929D01*
X134353157Y-107498929D02*
X134396014Y-107413215D01*
X134396014Y-107413215D02*
X134438871Y-107370358D01*
X134438871Y-107370358D02*
X134524585Y-107327500D01*
X134524585Y-107327500D02*
X134781728Y-107327500D01*
X134781728Y-107327500D02*
X134867442Y-107370358D01*
X134867442Y-107370358D02*
X134910300Y-107413215D01*
X134910300Y-107413215D02*
X134953157Y-107498929D01*
X134953157Y-107498929D02*
X134953157Y-107627500D01*
X134353157Y-106941786D02*
X134953157Y-106941786D01*
X134438871Y-106941786D02*
X134396014Y-106898929D01*
X134396014Y-106898929D02*
X134353157Y-106813214D01*
X134353157Y-106813214D02*
X134353157Y-106684643D01*
X134353157Y-106684643D02*
X134396014Y-106598929D01*
X134396014Y-106598929D02*
X134481728Y-106556072D01*
X134481728Y-106556072D02*
X134953157Y-106556072D01*
X134953157Y-106127500D02*
X134353157Y-106127500D01*
X134053157Y-106127500D02*
X134096014Y-106170357D01*
X134096014Y-106170357D02*
X134138871Y-106127500D01*
X134138871Y-106127500D02*
X134096014Y-106084643D01*
X134096014Y-106084643D02*
X134053157Y-106127500D01*
X134053157Y-106127500D02*
X134138871Y-106127500D01*
X134953157Y-105698929D02*
X134053157Y-105698929D01*
X134610300Y-105613215D02*
X134953157Y-105356072D01*
X134353157Y-105356072D02*
X134696014Y-105698929D01*
X134953157Y-104970358D02*
X134353157Y-104970358D01*
X134053157Y-104970358D02*
X134096014Y-105013215D01*
X134096014Y-105013215D02*
X134138871Y-104970358D01*
X134138871Y-104970358D02*
X134096014Y-104927501D01*
X134096014Y-104927501D02*
X134053157Y-104970358D01*
X134053157Y-104970358D02*
X134138871Y-104970358D01*
X134953157Y-104413215D02*
X134910300Y-104498930D01*
X134910300Y-104498930D02*
X134824585Y-104541787D01*
X134824585Y-104541787D02*
X134053157Y-104541787D01*
X134953157Y-103941786D02*
X134910300Y-104027501D01*
X134910300Y-104027501D02*
X134824585Y-104070358D01*
X134824585Y-104070358D02*
X134053157Y-104070358D01*
X134910300Y-103256072D02*
X134953157Y-103341786D01*
X134953157Y-103341786D02*
X134953157Y-103513215D01*
X134953157Y-103513215D02*
X134910300Y-103598929D01*
X134910300Y-103598929D02*
X134824585Y-103641786D01*
X134824585Y-103641786D02*
X134481728Y-103641786D01*
X134481728Y-103641786D02*
X134396014Y-103598929D01*
X134396014Y-103598929D02*
X134353157Y-103513215D01*
X134353157Y-103513215D02*
X134353157Y-103341786D01*
X134353157Y-103341786D02*
X134396014Y-103256072D01*
X134396014Y-103256072D02*
X134481728Y-103213215D01*
X134481728Y-103213215D02*
X134567442Y-103213215D01*
X134567442Y-103213215D02*
X134653157Y-103641786D01*
X134953157Y-102827500D02*
X134353157Y-102827500D01*
X134524585Y-102827500D02*
X134438871Y-102784643D01*
X134438871Y-102784643D02*
X134396014Y-102741786D01*
X134396014Y-102741786D02*
X134353157Y-102656071D01*
X134353157Y-102656071D02*
X134353157Y-102570357D01*
X134953157Y-101798928D02*
X134953157Y-102313214D01*
X134953157Y-102056071D02*
X134053157Y-102056071D01*
X134053157Y-102056071D02*
X134181728Y-102141785D01*
X134181728Y-102141785D02*
X134267442Y-102227500D01*
X134267442Y-102227500D02*
X134310300Y-102313214D01*
X134053157Y-101241785D02*
X134053157Y-101156071D01*
X134053157Y-101156071D02*
X134096014Y-101070357D01*
X134096014Y-101070357D02*
X134138871Y-101027500D01*
X134138871Y-101027500D02*
X134224585Y-100984642D01*
X134224585Y-100984642D02*
X134396014Y-100941785D01*
X134396014Y-100941785D02*
X134610300Y-100941785D01*
X134610300Y-100941785D02*
X134781728Y-100984642D01*
X134781728Y-100984642D02*
X134867442Y-101027500D01*
X134867442Y-101027500D02*
X134910300Y-101070357D01*
X134910300Y-101070357D02*
X134953157Y-101156071D01*
X134953157Y-101156071D02*
X134953157Y-101241785D01*
X134953157Y-101241785D02*
X134910300Y-101327500D01*
X134910300Y-101327500D02*
X134867442Y-101370357D01*
X134867442Y-101370357D02*
X134781728Y-101413214D01*
X134781728Y-101413214D02*
X134610300Y-101456071D01*
X134610300Y-101456071D02*
X134396014Y-101456071D01*
X134396014Y-101456071D02*
X134224585Y-101413214D01*
X134224585Y-101413214D02*
X134138871Y-101370357D01*
X134138871Y-101370357D02*
X134096014Y-101327500D01*
X134096014Y-101327500D02*
X134053157Y-101241785D01*
X134053157Y-100384642D02*
X134053157Y-100298928D01*
X134053157Y-100298928D02*
X134096014Y-100213214D01*
X134096014Y-100213214D02*
X134138871Y-100170357D01*
X134138871Y-100170357D02*
X134224585Y-100127499D01*
X134224585Y-100127499D02*
X134396014Y-100084642D01*
X134396014Y-100084642D02*
X134610300Y-100084642D01*
X134610300Y-100084642D02*
X134781728Y-100127499D01*
X134781728Y-100127499D02*
X134867442Y-100170357D01*
X134867442Y-100170357D02*
X134910300Y-100213214D01*
X134910300Y-100213214D02*
X134953157Y-100298928D01*
X134953157Y-100298928D02*
X134953157Y-100384642D01*
X134953157Y-100384642D02*
X134910300Y-100470357D01*
X134910300Y-100470357D02*
X134867442Y-100513214D01*
X134867442Y-100513214D02*
X134781728Y-100556071D01*
X134781728Y-100556071D02*
X134610300Y-100598928D01*
X134610300Y-100598928D02*
X134396014Y-100598928D01*
X134396014Y-100598928D02*
X134224585Y-100556071D01*
X134224585Y-100556071D02*
X134138871Y-100513214D01*
X134138871Y-100513214D02*
X134096014Y-100470357D01*
X134096014Y-100470357D02*
X134053157Y-100384642D01*
X134053157Y-99527499D02*
X134053157Y-99441785D01*
X134053157Y-99441785D02*
X134096014Y-99356071D01*
X134096014Y-99356071D02*
X134138871Y-99313214D01*
X134138871Y-99313214D02*
X134224585Y-99270356D01*
X134224585Y-99270356D02*
X134396014Y-99227499D01*
X134396014Y-99227499D02*
X134610300Y-99227499D01*
X134610300Y-99227499D02*
X134781728Y-99270356D01*
X134781728Y-99270356D02*
X134867442Y-99313214D01*
X134867442Y-99313214D02*
X134910300Y-99356071D01*
X134910300Y-99356071D02*
X134953157Y-99441785D01*
X134953157Y-99441785D02*
X134953157Y-99527499D01*
X134953157Y-99527499D02*
X134910300Y-99613214D01*
X134910300Y-99613214D02*
X134867442Y-99656071D01*
X134867442Y-99656071D02*
X134781728Y-99698928D01*
X134781728Y-99698928D02*
X134610300Y-99741785D01*
X134610300Y-99741785D02*
X134396014Y-99741785D01*
X134396014Y-99741785D02*
X134224585Y-99698928D01*
X134224585Y-99698928D02*
X134138871Y-99656071D01*
X134138871Y-99656071D02*
X134096014Y-99613214D01*
X134096014Y-99613214D02*
X134053157Y-99527499D01*
X134053157Y-98670356D02*
X134053157Y-98584642D01*
X134053157Y-98584642D02*
X134096014Y-98498928D01*
X134096014Y-98498928D02*
X134138871Y-98456071D01*
X134138871Y-98456071D02*
X134224585Y-98413213D01*
X134224585Y-98413213D02*
X134396014Y-98370356D01*
X134396014Y-98370356D02*
X134610300Y-98370356D01*
X134610300Y-98370356D02*
X134781728Y-98413213D01*
X134781728Y-98413213D02*
X134867442Y-98456071D01*
X134867442Y-98456071D02*
X134910300Y-98498928D01*
X134910300Y-98498928D02*
X134953157Y-98584642D01*
X134953157Y-98584642D02*
X134953157Y-98670356D01*
X134953157Y-98670356D02*
X134910300Y-98756071D01*
X134910300Y-98756071D02*
X134867442Y-98798928D01*
X134867442Y-98798928D02*
X134781728Y-98841785D01*
X134781728Y-98841785D02*
X134610300Y-98884642D01*
X134610300Y-98884642D02*
X134396014Y-98884642D01*
X134396014Y-98884642D02*
X134224585Y-98841785D01*
X134224585Y-98841785D02*
X134138871Y-98798928D01*
X134138871Y-98798928D02*
X134096014Y-98756071D01*
X134096014Y-98756071D02*
X134053157Y-98670356D01*
D17*
X95573609Y-89740236D02*
X95573609Y-90273570D01*
X95383133Y-89435475D02*
X95192656Y-90006903D01*
X95192656Y-90006903D02*
X95687895Y-90006903D01*
X96983133Y-90273570D02*
X96602181Y-90273570D01*
X96602181Y-90273570D02*
X96602181Y-89473570D01*
X97592657Y-90273570D02*
X97592657Y-89854522D01*
X97592657Y-89854522D02*
X97554562Y-89778332D01*
X97554562Y-89778332D02*
X97478371Y-89740236D01*
X97478371Y-89740236D02*
X97325990Y-89740236D01*
X97325990Y-89740236D02*
X97249800Y-89778332D01*
X97592657Y-90235475D02*
X97516466Y-90273570D01*
X97516466Y-90273570D02*
X97325990Y-90273570D01*
X97325990Y-90273570D02*
X97249800Y-90235475D01*
X97249800Y-90235475D02*
X97211704Y-90159284D01*
X97211704Y-90159284D02*
X97211704Y-90083094D01*
X97211704Y-90083094D02*
X97249800Y-90006903D01*
X97249800Y-90006903D02*
X97325990Y-89968808D01*
X97325990Y-89968808D02*
X97516466Y-89968808D01*
X97516466Y-89968808D02*
X97592657Y-89930713D01*
X97897419Y-89740236D02*
X98087895Y-90273570D01*
X98278372Y-89740236D02*
X98087895Y-90273570D01*
X98087895Y-90273570D02*
X98011705Y-90464046D01*
X98011705Y-90464046D02*
X97973610Y-90502141D01*
X97973610Y-90502141D02*
X97897419Y-90540236D01*
X98887896Y-90235475D02*
X98811705Y-90273570D01*
X98811705Y-90273570D02*
X98659324Y-90273570D01*
X98659324Y-90273570D02*
X98583134Y-90235475D01*
X98583134Y-90235475D02*
X98545038Y-90159284D01*
X98545038Y-90159284D02*
X98545038Y-89854522D01*
X98545038Y-89854522D02*
X98583134Y-89778332D01*
X98583134Y-89778332D02*
X98659324Y-89740236D01*
X98659324Y-89740236D02*
X98811705Y-89740236D01*
X98811705Y-89740236D02*
X98887896Y-89778332D01*
X98887896Y-89778332D02*
X98925991Y-89854522D01*
X98925991Y-89854522D02*
X98925991Y-89930713D01*
X98925991Y-89930713D02*
X98545038Y-90006903D01*
X99268848Y-90273570D02*
X99268848Y-89740236D01*
X99268848Y-89892617D02*
X99306943Y-89816427D01*
X99306943Y-89816427D02*
X99345038Y-89778332D01*
X99345038Y-89778332D02*
X99421229Y-89740236D01*
X99421229Y-89740236D02*
X99497419Y-89740236D01*
X119973609Y-80598570D02*
X119821228Y-80598570D01*
X119821228Y-80598570D02*
X119745037Y-80636665D01*
X119745037Y-80636665D02*
X119706942Y-80674760D01*
X119706942Y-80674760D02*
X119630752Y-80789046D01*
X119630752Y-80789046D02*
X119592656Y-80941427D01*
X119592656Y-80941427D02*
X119592656Y-81246189D01*
X119592656Y-81246189D02*
X119630752Y-81322379D01*
X119630752Y-81322379D02*
X119668847Y-81360475D01*
X119668847Y-81360475D02*
X119745037Y-81398570D01*
X119745037Y-81398570D02*
X119897418Y-81398570D01*
X119897418Y-81398570D02*
X119973609Y-81360475D01*
X119973609Y-81360475D02*
X120011704Y-81322379D01*
X120011704Y-81322379D02*
X120049799Y-81246189D01*
X120049799Y-81246189D02*
X120049799Y-81055713D01*
X120049799Y-81055713D02*
X120011704Y-80979522D01*
X120011704Y-80979522D02*
X119973609Y-80941427D01*
X119973609Y-80941427D02*
X119897418Y-80903332D01*
X119897418Y-80903332D02*
X119745037Y-80903332D01*
X119745037Y-80903332D02*
X119668847Y-80941427D01*
X119668847Y-80941427D02*
X119630752Y-80979522D01*
X119630752Y-80979522D02*
X119592656Y-81055713D01*
X121383133Y-81398570D02*
X121002181Y-81398570D01*
X121002181Y-81398570D02*
X121002181Y-80598570D01*
X121992657Y-81398570D02*
X121992657Y-80979522D01*
X121992657Y-80979522D02*
X121954562Y-80903332D01*
X121954562Y-80903332D02*
X121878371Y-80865236D01*
X121878371Y-80865236D02*
X121725990Y-80865236D01*
X121725990Y-80865236D02*
X121649800Y-80903332D01*
X121992657Y-81360475D02*
X121916466Y-81398570D01*
X121916466Y-81398570D02*
X121725990Y-81398570D01*
X121725990Y-81398570D02*
X121649800Y-81360475D01*
X121649800Y-81360475D02*
X121611704Y-81284284D01*
X121611704Y-81284284D02*
X121611704Y-81208094D01*
X121611704Y-81208094D02*
X121649800Y-81131903D01*
X121649800Y-81131903D02*
X121725990Y-81093808D01*
X121725990Y-81093808D02*
X121916466Y-81093808D01*
X121916466Y-81093808D02*
X121992657Y-81055713D01*
X122297419Y-80865236D02*
X122487895Y-81398570D01*
X122678372Y-80865236D02*
X122487895Y-81398570D01*
X122487895Y-81398570D02*
X122411705Y-81589046D01*
X122411705Y-81589046D02*
X122373610Y-81627141D01*
X122373610Y-81627141D02*
X122297419Y-81665236D01*
X123287896Y-81360475D02*
X123211705Y-81398570D01*
X123211705Y-81398570D02*
X123059324Y-81398570D01*
X123059324Y-81398570D02*
X122983134Y-81360475D01*
X122983134Y-81360475D02*
X122945038Y-81284284D01*
X122945038Y-81284284D02*
X122945038Y-80979522D01*
X122945038Y-80979522D02*
X122983134Y-80903332D01*
X122983134Y-80903332D02*
X123059324Y-80865236D01*
X123059324Y-80865236D02*
X123211705Y-80865236D01*
X123211705Y-80865236D02*
X123287896Y-80903332D01*
X123287896Y-80903332D02*
X123325991Y-80979522D01*
X123325991Y-80979522D02*
X123325991Y-81055713D01*
X123325991Y-81055713D02*
X122945038Y-81131903D01*
X123668848Y-81398570D02*
X123668848Y-80865236D01*
X123668848Y-81017617D02*
X123706943Y-80941427D01*
X123706943Y-80941427D02*
X123745038Y-80903332D01*
X123745038Y-80903332D02*
X123821229Y-80865236D01*
X123821229Y-80865236D02*
X123897419Y-80865236D01*
X96273609Y-92415236D02*
X96273609Y-92948570D01*
X96083133Y-92110475D02*
X95892656Y-92681903D01*
X95892656Y-92681903D02*
X96387895Y-92681903D01*
X96654561Y-92910475D02*
X96768847Y-92948570D01*
X96768847Y-92948570D02*
X96959323Y-92948570D01*
X96959323Y-92948570D02*
X97035514Y-92910475D01*
X97035514Y-92910475D02*
X97073609Y-92872379D01*
X97073609Y-92872379D02*
X97111704Y-92796189D01*
X97111704Y-92796189D02*
X97111704Y-92719998D01*
X97111704Y-92719998D02*
X97073609Y-92643808D01*
X97073609Y-92643808D02*
X97035514Y-92605713D01*
X97035514Y-92605713D02*
X96959323Y-92567617D01*
X96959323Y-92567617D02*
X96806942Y-92529522D01*
X96806942Y-92529522D02*
X96730752Y-92491427D01*
X96730752Y-92491427D02*
X96692657Y-92453332D01*
X96692657Y-92453332D02*
X96654561Y-92377141D01*
X96654561Y-92377141D02*
X96654561Y-92300951D01*
X96654561Y-92300951D02*
X96692657Y-92224760D01*
X96692657Y-92224760D02*
X96730752Y-92186665D01*
X96730752Y-92186665D02*
X96806942Y-92148570D01*
X96806942Y-92148570D02*
X96997419Y-92148570D01*
X96997419Y-92148570D02*
X97111704Y-92186665D01*
X97721228Y-92529522D02*
X97835514Y-92567617D01*
X97835514Y-92567617D02*
X97873609Y-92605713D01*
X97873609Y-92605713D02*
X97911705Y-92681903D01*
X97911705Y-92681903D02*
X97911705Y-92796189D01*
X97911705Y-92796189D02*
X97873609Y-92872379D01*
X97873609Y-92872379D02*
X97835514Y-92910475D01*
X97835514Y-92910475D02*
X97759324Y-92948570D01*
X97759324Y-92948570D02*
X97454562Y-92948570D01*
X97454562Y-92948570D02*
X97454562Y-92148570D01*
X97454562Y-92148570D02*
X97721228Y-92148570D01*
X97721228Y-92148570D02*
X97797419Y-92186665D01*
X97797419Y-92186665D02*
X97835514Y-92224760D01*
X97835514Y-92224760D02*
X97873609Y-92300951D01*
X97873609Y-92300951D02*
X97873609Y-92377141D01*
X97873609Y-92377141D02*
X97835514Y-92453332D01*
X97835514Y-92453332D02*
X97797419Y-92491427D01*
X97797419Y-92491427D02*
X97721228Y-92529522D01*
X97721228Y-92529522D02*
X97454562Y-92529522D01*
X98254562Y-92948570D02*
X98254562Y-92148570D01*
D18*
X123508232Y-127722474D02*
X123536804Y-127693902D01*
X123536804Y-127693902D02*
X123593947Y-127665331D01*
X123593947Y-127665331D02*
X123736804Y-127665331D01*
X123736804Y-127665331D02*
X123793947Y-127693902D01*
X123793947Y-127693902D02*
X123822518Y-127722474D01*
X123822518Y-127722474D02*
X123851089Y-127779617D01*
X123851089Y-127779617D02*
X123851089Y-127836760D01*
X123851089Y-127836760D02*
X123822518Y-127922474D01*
X123822518Y-127922474D02*
X123479661Y-128265331D01*
X123479661Y-128265331D02*
X123851089Y-128265331D01*
X124051090Y-128265331D02*
X124365376Y-127865331D01*
X124051090Y-127865331D02*
X124365376Y-128265331D01*
X124908232Y-128265331D02*
X124565375Y-128265331D01*
X124736804Y-128265331D02*
X124736804Y-127665331D01*
X124736804Y-127665331D02*
X124679661Y-127751045D01*
X124679661Y-127751045D02*
X124622518Y-127808188D01*
X124622518Y-127808188D02*
X124565375Y-127836760D01*
X125279661Y-127665331D02*
X125336804Y-127665331D01*
X125336804Y-127665331D02*
X125393947Y-127693902D01*
X125393947Y-127693902D02*
X125422519Y-127722474D01*
X125422519Y-127722474D02*
X125451090Y-127779617D01*
X125451090Y-127779617D02*
X125479661Y-127893902D01*
X125479661Y-127893902D02*
X125479661Y-128036760D01*
X125479661Y-128036760D02*
X125451090Y-128151045D01*
X125451090Y-128151045D02*
X125422519Y-128208188D01*
X125422519Y-128208188D02*
X125393947Y-128236760D01*
X125393947Y-128236760D02*
X125336804Y-128265331D01*
X125336804Y-128265331D02*
X125279661Y-128265331D01*
X125279661Y-128265331D02*
X125222519Y-128236760D01*
X125222519Y-128236760D02*
X125193947Y-128208188D01*
X125193947Y-128208188D02*
X125165376Y-128151045D01*
X125165376Y-128151045D02*
X125136804Y-128036760D01*
X125136804Y-128036760D02*
X125136804Y-127893902D01*
X125136804Y-127893902D02*
X125165376Y-127779617D01*
X125165376Y-127779617D02*
X125193947Y-127722474D01*
X125193947Y-127722474D02*
X125222519Y-127693902D01*
X125222519Y-127693902D02*
X125279661Y-127665331D01*
X125736805Y-127865331D02*
X125736805Y-128265331D01*
X125736805Y-127922474D02*
X125765376Y-127893902D01*
X125765376Y-127893902D02*
X125822519Y-127865331D01*
X125822519Y-127865331D02*
X125908233Y-127865331D01*
X125908233Y-127865331D02*
X125965376Y-127893902D01*
X125965376Y-127893902D02*
X125993948Y-127951045D01*
X125993948Y-127951045D02*
X125993948Y-128265331D01*
X126479662Y-127951045D02*
X126279662Y-127951045D01*
X126279662Y-128265331D02*
X126279662Y-127665331D01*
X126279662Y-127665331D02*
X126565376Y-127665331D01*
D11*
X97599500Y-112492550D02*
X97647119Y-112349693D01*
X97647119Y-112349693D02*
X97647119Y-112111598D01*
X97647119Y-112111598D02*
X97599500Y-112016360D01*
X97599500Y-112016360D02*
X97551880Y-111968741D01*
X97551880Y-111968741D02*
X97456642Y-111921122D01*
X97456642Y-111921122D02*
X97361404Y-111921122D01*
X97361404Y-111921122D02*
X97266166Y-111968741D01*
X97266166Y-111968741D02*
X97218547Y-112016360D01*
X97218547Y-112016360D02*
X97170928Y-112111598D01*
X97170928Y-112111598D02*
X97123309Y-112302074D01*
X97123309Y-112302074D02*
X97075690Y-112397312D01*
X97075690Y-112397312D02*
X97028071Y-112444931D01*
X97028071Y-112444931D02*
X96932833Y-112492550D01*
X96932833Y-112492550D02*
X96837595Y-112492550D01*
X96837595Y-112492550D02*
X96742357Y-112444931D01*
X96742357Y-112444931D02*
X96694738Y-112397312D01*
X96694738Y-112397312D02*
X96647119Y-112302074D01*
X96647119Y-112302074D02*
X96647119Y-112063979D01*
X96647119Y-112063979D02*
X96694738Y-111921122D01*
X96647119Y-111635407D02*
X96647119Y-111063979D01*
X97647119Y-111349693D02*
X96647119Y-111349693D01*
X97361404Y-110778264D02*
X97361404Y-110302074D01*
X97647119Y-110873502D02*
X96647119Y-110540169D01*
X96647119Y-110540169D02*
X97647119Y-110206836D01*
X97647119Y-109302074D02*
X97170928Y-109635407D01*
X97647119Y-109873502D02*
X96647119Y-109873502D01*
X96647119Y-109873502D02*
X96647119Y-109492550D01*
X96647119Y-109492550D02*
X96694738Y-109397312D01*
X96694738Y-109397312D02*
X96742357Y-109349693D01*
X96742357Y-109349693D02*
X96837595Y-109302074D01*
X96837595Y-109302074D02*
X96980452Y-109302074D01*
X96980452Y-109302074D02*
X97075690Y-109349693D01*
X97075690Y-109349693D02*
X97123309Y-109397312D01*
X97123309Y-109397312D02*
X97170928Y-109492550D01*
X97170928Y-109492550D02*
X97170928Y-109873502D01*
X97599500Y-107683026D02*
X97647119Y-107778264D01*
X97647119Y-107778264D02*
X97647119Y-107968740D01*
X97647119Y-107968740D02*
X97599500Y-108063978D01*
X97599500Y-108063978D02*
X97551880Y-108111597D01*
X97551880Y-108111597D02*
X97456642Y-108159216D01*
X97456642Y-108159216D02*
X97170928Y-108159216D01*
X97170928Y-108159216D02*
X97075690Y-108111597D01*
X97075690Y-108111597D02*
X97028071Y-108063978D01*
X97028071Y-108063978D02*
X96980452Y-107968740D01*
X96980452Y-107968740D02*
X96980452Y-107778264D01*
X96980452Y-107778264D02*
X97028071Y-107683026D01*
X97647119Y-107111597D02*
X97599500Y-107206835D01*
X97599500Y-107206835D02*
X97551880Y-107254454D01*
X97551880Y-107254454D02*
X97456642Y-107302073D01*
X97456642Y-107302073D02*
X97170928Y-107302073D01*
X97170928Y-107302073D02*
X97075690Y-107254454D01*
X97075690Y-107254454D02*
X97028071Y-107206835D01*
X97028071Y-107206835D02*
X96980452Y-107111597D01*
X96980452Y-107111597D02*
X96980452Y-106968740D01*
X96980452Y-106968740D02*
X97028071Y-106873502D01*
X97028071Y-106873502D02*
X97075690Y-106825883D01*
X97075690Y-106825883D02*
X97170928Y-106778264D01*
X97170928Y-106778264D02*
X97456642Y-106778264D01*
X97456642Y-106778264D02*
X97551880Y-106825883D01*
X97551880Y-106825883D02*
X97599500Y-106873502D01*
X97599500Y-106873502D02*
X97647119Y-106968740D01*
X97647119Y-106968740D02*
X97647119Y-107111597D01*
X96980452Y-106349692D02*
X97647119Y-106349692D01*
X97075690Y-106349692D02*
X97028071Y-106302073D01*
X97028071Y-106302073D02*
X96980452Y-106206835D01*
X96980452Y-106206835D02*
X96980452Y-106063978D01*
X96980452Y-106063978D02*
X97028071Y-105968740D01*
X97028071Y-105968740D02*
X97123309Y-105921121D01*
X97123309Y-105921121D02*
X97647119Y-105921121D01*
X96980452Y-105587787D02*
X96980452Y-105206835D01*
X97647119Y-105444930D02*
X96789976Y-105444930D01*
X96789976Y-105444930D02*
X96694738Y-105397311D01*
X96694738Y-105397311D02*
X96647119Y-105302073D01*
X96647119Y-105302073D02*
X96647119Y-105206835D01*
X97647119Y-104873501D02*
X96980452Y-104873501D01*
X96647119Y-104873501D02*
X96694738Y-104921120D01*
X96694738Y-104921120D02*
X96742357Y-104873501D01*
X96742357Y-104873501D02*
X96694738Y-104825882D01*
X96694738Y-104825882D02*
X96647119Y-104873501D01*
X96647119Y-104873501D02*
X96742357Y-104873501D01*
X96980452Y-103968740D02*
X97789976Y-103968740D01*
X97789976Y-103968740D02*
X97885214Y-104016359D01*
X97885214Y-104016359D02*
X97932833Y-104063978D01*
X97932833Y-104063978D02*
X97980452Y-104159216D01*
X97980452Y-104159216D02*
X97980452Y-104302073D01*
X97980452Y-104302073D02*
X97932833Y-104397311D01*
X97599500Y-103968740D02*
X97647119Y-104063978D01*
X97647119Y-104063978D02*
X97647119Y-104254454D01*
X97647119Y-104254454D02*
X97599500Y-104349692D01*
X97599500Y-104349692D02*
X97551880Y-104397311D01*
X97551880Y-104397311D02*
X97456642Y-104444930D01*
X97456642Y-104444930D02*
X97170928Y-104444930D01*
X97170928Y-104444930D02*
X97075690Y-104397311D01*
X97075690Y-104397311D02*
X97028071Y-104349692D01*
X97028071Y-104349692D02*
X96980452Y-104254454D01*
X96980452Y-104254454D02*
X96980452Y-104063978D01*
X96980452Y-104063978D02*
X97028071Y-103968740D01*
D17*
X107798609Y-80915236D02*
X107798609Y-81448570D01*
X107608133Y-80610475D02*
X107417656Y-81181903D01*
X107417656Y-81181903D02*
X107912895Y-81181903D01*
X109208133Y-81448570D02*
X108827181Y-81448570D01*
X108827181Y-81448570D02*
X108827181Y-80648570D01*
X109817657Y-81448570D02*
X109817657Y-81029522D01*
X109817657Y-81029522D02*
X109779562Y-80953332D01*
X109779562Y-80953332D02*
X109703371Y-80915236D01*
X109703371Y-80915236D02*
X109550990Y-80915236D01*
X109550990Y-80915236D02*
X109474800Y-80953332D01*
X109817657Y-81410475D02*
X109741466Y-81448570D01*
X109741466Y-81448570D02*
X109550990Y-81448570D01*
X109550990Y-81448570D02*
X109474800Y-81410475D01*
X109474800Y-81410475D02*
X109436704Y-81334284D01*
X109436704Y-81334284D02*
X109436704Y-81258094D01*
X109436704Y-81258094D02*
X109474800Y-81181903D01*
X109474800Y-81181903D02*
X109550990Y-81143808D01*
X109550990Y-81143808D02*
X109741466Y-81143808D01*
X109741466Y-81143808D02*
X109817657Y-81105713D01*
X110122419Y-80915236D02*
X110312895Y-81448570D01*
X110503372Y-80915236D02*
X110312895Y-81448570D01*
X110312895Y-81448570D02*
X110236705Y-81639046D01*
X110236705Y-81639046D02*
X110198610Y-81677141D01*
X110198610Y-81677141D02*
X110122419Y-81715236D01*
X111112896Y-81410475D02*
X111036705Y-81448570D01*
X111036705Y-81448570D02*
X110884324Y-81448570D01*
X110884324Y-81448570D02*
X110808134Y-81410475D01*
X110808134Y-81410475D02*
X110770038Y-81334284D01*
X110770038Y-81334284D02*
X110770038Y-81029522D01*
X110770038Y-81029522D02*
X110808134Y-80953332D01*
X110808134Y-80953332D02*
X110884324Y-80915236D01*
X110884324Y-80915236D02*
X111036705Y-80915236D01*
X111036705Y-80915236D02*
X111112896Y-80953332D01*
X111112896Y-80953332D02*
X111150991Y-81029522D01*
X111150991Y-81029522D02*
X111150991Y-81105713D01*
X111150991Y-81105713D02*
X110770038Y-81181903D01*
X111493848Y-81448570D02*
X111493848Y-80915236D01*
X111493848Y-81067617D02*
X111531943Y-80991427D01*
X111531943Y-80991427D02*
X111570038Y-80953332D01*
X111570038Y-80953332D02*
X111646229Y-80915236D01*
X111646229Y-80915236D02*
X111722419Y-80915236D01*
D15*
X138692105Y-100742886D02*
X138792105Y-100776220D01*
X138792105Y-100776220D02*
X138825438Y-100809553D01*
X138825438Y-100809553D02*
X138858771Y-100876220D01*
X138858771Y-100876220D02*
X138858771Y-100976220D01*
X138858771Y-100976220D02*
X138825438Y-101042886D01*
X138825438Y-101042886D02*
X138792105Y-101076220D01*
X138792105Y-101076220D02*
X138725438Y-101109553D01*
X138725438Y-101109553D02*
X138458771Y-101109553D01*
X138458771Y-101109553D02*
X138458771Y-100409553D01*
X138458771Y-100409553D02*
X138692105Y-100409553D01*
X138692105Y-100409553D02*
X138758771Y-100442886D01*
X138758771Y-100442886D02*
X138792105Y-100476220D01*
X138792105Y-100476220D02*
X138825438Y-100542886D01*
X138825438Y-100542886D02*
X138825438Y-100609553D01*
X138825438Y-100609553D02*
X138792105Y-100676220D01*
X138792105Y-100676220D02*
X138758771Y-100709553D01*
X138758771Y-100709553D02*
X138692105Y-100742886D01*
X138692105Y-100742886D02*
X138458771Y-100742886D01*
X139125438Y-100476220D02*
X139158771Y-100442886D01*
X139158771Y-100442886D02*
X139225438Y-100409553D01*
X139225438Y-100409553D02*
X139392105Y-100409553D01*
X139392105Y-100409553D02*
X139458771Y-100442886D01*
X139458771Y-100442886D02*
X139492105Y-100476220D01*
X139492105Y-100476220D02*
X139525438Y-100542886D01*
X139525438Y-100542886D02*
X139525438Y-100609553D01*
X139525438Y-100609553D02*
X139492105Y-100709553D01*
X139492105Y-100709553D02*
X139092105Y-101109553D01*
X139092105Y-101109553D02*
X139525438Y-101109553D01*
D16*
X133403157Y-108665188D02*
X132503157Y-108665188D01*
X132503157Y-108665188D02*
X132503157Y-108322331D01*
X132503157Y-108322331D02*
X132546014Y-108236616D01*
X132546014Y-108236616D02*
X132588871Y-108193759D01*
X132588871Y-108193759D02*
X132674585Y-108150902D01*
X132674585Y-108150902D02*
X132803157Y-108150902D01*
X132803157Y-108150902D02*
X132888871Y-108193759D01*
X132888871Y-108193759D02*
X132931728Y-108236616D01*
X132931728Y-108236616D02*
X132974585Y-108322331D01*
X132974585Y-108322331D02*
X132974585Y-108665188D01*
X133317442Y-107250902D02*
X133360300Y-107293759D01*
X133360300Y-107293759D02*
X133403157Y-107422331D01*
X133403157Y-107422331D02*
X133403157Y-107508045D01*
X133403157Y-107508045D02*
X133360300Y-107636616D01*
X133360300Y-107636616D02*
X133274585Y-107722331D01*
X133274585Y-107722331D02*
X133188871Y-107765188D01*
X133188871Y-107765188D02*
X133017442Y-107808045D01*
X133017442Y-107808045D02*
X132888871Y-107808045D01*
X132888871Y-107808045D02*
X132717442Y-107765188D01*
X132717442Y-107765188D02*
X132631728Y-107722331D01*
X132631728Y-107722331D02*
X132546014Y-107636616D01*
X132546014Y-107636616D02*
X132503157Y-107508045D01*
X132503157Y-107508045D02*
X132503157Y-107422331D01*
X132503157Y-107422331D02*
X132546014Y-107293759D01*
X132546014Y-107293759D02*
X132588871Y-107250902D01*
X132931728Y-106565188D02*
X132974585Y-106436616D01*
X132974585Y-106436616D02*
X133017442Y-106393759D01*
X133017442Y-106393759D02*
X133103157Y-106350902D01*
X133103157Y-106350902D02*
X133231728Y-106350902D01*
X133231728Y-106350902D02*
X133317442Y-106393759D01*
X133317442Y-106393759D02*
X133360300Y-106436616D01*
X133360300Y-106436616D02*
X133403157Y-106522331D01*
X133403157Y-106522331D02*
X133403157Y-106865188D01*
X133403157Y-106865188D02*
X132503157Y-106865188D01*
X132503157Y-106865188D02*
X132503157Y-106565188D01*
X132503157Y-106565188D02*
X132546014Y-106479474D01*
X132546014Y-106479474D02*
X132588871Y-106436616D01*
X132588871Y-106436616D02*
X132674585Y-106393759D01*
X132674585Y-106393759D02*
X132760300Y-106393759D01*
X132760300Y-106393759D02*
X132846014Y-106436616D01*
X132846014Y-106436616D02*
X132888871Y-106479474D01*
X132888871Y-106479474D02*
X132931728Y-106565188D01*
X132931728Y-106565188D02*
X132931728Y-106865188D01*
X133360300Y-104893760D02*
X133403157Y-104979474D01*
X133403157Y-104979474D02*
X133403157Y-105150902D01*
X133403157Y-105150902D02*
X133360300Y-105236617D01*
X133360300Y-105236617D02*
X133317442Y-105279474D01*
X133317442Y-105279474D02*
X133231728Y-105322331D01*
X133231728Y-105322331D02*
X132974585Y-105322331D01*
X132974585Y-105322331D02*
X132888871Y-105279474D01*
X132888871Y-105279474D02*
X132846014Y-105236617D01*
X132846014Y-105236617D02*
X132803157Y-105150902D01*
X132803157Y-105150902D02*
X132803157Y-104979474D01*
X132803157Y-104979474D02*
X132846014Y-104893760D01*
X133403157Y-104379473D02*
X133360300Y-104465188D01*
X133360300Y-104465188D02*
X133317442Y-104508045D01*
X133317442Y-104508045D02*
X133231728Y-104550902D01*
X133231728Y-104550902D02*
X132974585Y-104550902D01*
X132974585Y-104550902D02*
X132888871Y-104508045D01*
X132888871Y-104508045D02*
X132846014Y-104465188D01*
X132846014Y-104465188D02*
X132803157Y-104379473D01*
X132803157Y-104379473D02*
X132803157Y-104250902D01*
X132803157Y-104250902D02*
X132846014Y-104165188D01*
X132846014Y-104165188D02*
X132888871Y-104122331D01*
X132888871Y-104122331D02*
X132974585Y-104079473D01*
X132974585Y-104079473D02*
X133231728Y-104079473D01*
X133231728Y-104079473D02*
X133317442Y-104122331D01*
X133317442Y-104122331D02*
X133360300Y-104165188D01*
X133360300Y-104165188D02*
X133403157Y-104250902D01*
X133403157Y-104250902D02*
X133403157Y-104379473D01*
X133403157Y-103693759D02*
X132803157Y-103693759D01*
X132503157Y-103693759D02*
X132546014Y-103736616D01*
X132546014Y-103736616D02*
X132588871Y-103693759D01*
X132588871Y-103693759D02*
X132546014Y-103650902D01*
X132546014Y-103650902D02*
X132503157Y-103693759D01*
X132503157Y-103693759D02*
X132588871Y-103693759D01*
X133403157Y-103136616D02*
X133360300Y-103222331D01*
X133360300Y-103222331D02*
X133274585Y-103265188D01*
X133274585Y-103265188D02*
X132503157Y-103265188D01*
X132803157Y-102236616D02*
X132803157Y-101893759D01*
X132503157Y-102108045D02*
X133274585Y-102108045D01*
X133274585Y-102108045D02*
X133360300Y-102065188D01*
X133360300Y-102065188D02*
X133403157Y-101979473D01*
X133403157Y-101979473D02*
X133403157Y-101893759D01*
X133360300Y-101250902D02*
X133403157Y-101336616D01*
X133403157Y-101336616D02*
X133403157Y-101508045D01*
X133403157Y-101508045D02*
X133360300Y-101593759D01*
X133360300Y-101593759D02*
X133274585Y-101636616D01*
X133274585Y-101636616D02*
X132931728Y-101636616D01*
X132931728Y-101636616D02*
X132846014Y-101593759D01*
X132846014Y-101593759D02*
X132803157Y-101508045D01*
X132803157Y-101508045D02*
X132803157Y-101336616D01*
X132803157Y-101336616D02*
X132846014Y-101250902D01*
X132846014Y-101250902D02*
X132931728Y-101208045D01*
X132931728Y-101208045D02*
X133017442Y-101208045D01*
X133017442Y-101208045D02*
X133103157Y-101636616D01*
X133360300Y-100865187D02*
X133403157Y-100779473D01*
X133403157Y-100779473D02*
X133403157Y-100608044D01*
X133403157Y-100608044D02*
X133360300Y-100522330D01*
X133360300Y-100522330D02*
X133274585Y-100479473D01*
X133274585Y-100479473D02*
X133231728Y-100479473D01*
X133231728Y-100479473D02*
X133146014Y-100522330D01*
X133146014Y-100522330D02*
X133103157Y-100608044D01*
X133103157Y-100608044D02*
X133103157Y-100736616D01*
X133103157Y-100736616D02*
X133060300Y-100822330D01*
X133060300Y-100822330D02*
X132974585Y-100865187D01*
X132974585Y-100865187D02*
X132931728Y-100865187D01*
X132931728Y-100865187D02*
X132846014Y-100822330D01*
X132846014Y-100822330D02*
X132803157Y-100736616D01*
X132803157Y-100736616D02*
X132803157Y-100608044D01*
X132803157Y-100608044D02*
X132846014Y-100522330D01*
X132803157Y-100222330D02*
X132803157Y-99879473D01*
X132503157Y-100093759D02*
X133274585Y-100093759D01*
X133274585Y-100093759D02*
X133360300Y-100050902D01*
X133360300Y-100050902D02*
X133403157Y-99965187D01*
X133403157Y-99965187D02*
X133403157Y-99879473D01*
X133403157Y-99579473D02*
X132803157Y-99579473D01*
X132503157Y-99579473D02*
X132546014Y-99622330D01*
X132546014Y-99622330D02*
X132588871Y-99579473D01*
X132588871Y-99579473D02*
X132546014Y-99536616D01*
X132546014Y-99536616D02*
X132503157Y-99579473D01*
X132503157Y-99579473D02*
X132588871Y-99579473D01*
X132803157Y-99150902D02*
X133403157Y-99150902D01*
X132888871Y-99150902D02*
X132846014Y-99108045D01*
X132846014Y-99108045D02*
X132803157Y-99022330D01*
X132803157Y-99022330D02*
X132803157Y-98893759D01*
X132803157Y-98893759D02*
X132846014Y-98808045D01*
X132846014Y-98808045D02*
X132931728Y-98765188D01*
X132931728Y-98765188D02*
X133403157Y-98765188D01*
X132803157Y-97950902D02*
X133531728Y-97950902D01*
X133531728Y-97950902D02*
X133617442Y-97993759D01*
X133617442Y-97993759D02*
X133660300Y-98036616D01*
X133660300Y-98036616D02*
X133703157Y-98122330D01*
X133703157Y-98122330D02*
X133703157Y-98250902D01*
X133703157Y-98250902D02*
X133660300Y-98336616D01*
X133360300Y-97950902D02*
X133403157Y-98036616D01*
X133403157Y-98036616D02*
X133403157Y-98208044D01*
X133403157Y-98208044D02*
X133360300Y-98293759D01*
X133360300Y-98293759D02*
X133317442Y-98336616D01*
X133317442Y-98336616D02*
X133231728Y-98379473D01*
X133231728Y-98379473D02*
X132974585Y-98379473D01*
X132974585Y-98379473D02*
X132888871Y-98336616D01*
X132888871Y-98336616D02*
X132846014Y-98293759D01*
X132846014Y-98293759D02*
X132803157Y-98208044D01*
X132803157Y-98208044D02*
X132803157Y-98036616D01*
X132803157Y-98036616D02*
X132846014Y-97950902D01*
D15*
X128700438Y-100909553D02*
X129033771Y-100909553D01*
X128633771Y-101109553D02*
X128867105Y-100409553D01*
X128867105Y-100409553D02*
X129100438Y-101109553D01*
X129300438Y-100476220D02*
X129333771Y-100442886D01*
X129333771Y-100442886D02*
X129400438Y-100409553D01*
X129400438Y-100409553D02*
X129567105Y-100409553D01*
X129567105Y-100409553D02*
X129633771Y-100442886D01*
X129633771Y-100442886D02*
X129667105Y-100476220D01*
X129667105Y-100476220D02*
X129700438Y-100542886D01*
X129700438Y-100542886D02*
X129700438Y-100609553D01*
X129700438Y-100609553D02*
X129667105Y-100709553D01*
X129667105Y-100709553D02*
X129267105Y-101109553D01*
X129267105Y-101109553D02*
X129700438Y-101109553D01*
D17*
X114742656Y-92349760D02*
X114780752Y-92311665D01*
X114780752Y-92311665D02*
X114856942Y-92273570D01*
X114856942Y-92273570D02*
X115047418Y-92273570D01*
X115047418Y-92273570D02*
X115123609Y-92311665D01*
X115123609Y-92311665D02*
X115161704Y-92349760D01*
X115161704Y-92349760D02*
X115199799Y-92425951D01*
X115199799Y-92425951D02*
X115199799Y-92502141D01*
X115199799Y-92502141D02*
X115161704Y-92616427D01*
X115161704Y-92616427D02*
X114704561Y-93073570D01*
X114704561Y-93073570D02*
X115199799Y-93073570D01*
X115809323Y-92654522D02*
X115923609Y-92692617D01*
X115923609Y-92692617D02*
X115961704Y-92730713D01*
X115961704Y-92730713D02*
X115999800Y-92806903D01*
X115999800Y-92806903D02*
X115999800Y-92921189D01*
X115999800Y-92921189D02*
X115961704Y-92997379D01*
X115961704Y-92997379D02*
X115923609Y-93035475D01*
X115923609Y-93035475D02*
X115847419Y-93073570D01*
X115847419Y-93073570D02*
X115542657Y-93073570D01*
X115542657Y-93073570D02*
X115542657Y-92273570D01*
X115542657Y-92273570D02*
X115809323Y-92273570D01*
X115809323Y-92273570D02*
X115885514Y-92311665D01*
X115885514Y-92311665D02*
X115923609Y-92349760D01*
X115923609Y-92349760D02*
X115961704Y-92425951D01*
X115961704Y-92425951D02*
X115961704Y-92502141D01*
X115961704Y-92502141D02*
X115923609Y-92578332D01*
X115923609Y-92578332D02*
X115885514Y-92616427D01*
X115885514Y-92616427D02*
X115809323Y-92654522D01*
X115809323Y-92654522D02*
X115542657Y-92654522D01*
X116342657Y-93073570D02*
X116342657Y-92273570D01*
X137534673Y-127871266D02*
X138296578Y-127871266D01*
X137915625Y-128252219D02*
X137915625Y-127490314D01*
D13*
X99538642Y-106647397D02*
X99562451Y-106623588D01*
X99562451Y-106623588D02*
X99633880Y-106599778D01*
X99633880Y-106599778D02*
X99681499Y-106599778D01*
X99681499Y-106599778D02*
X99752927Y-106623588D01*
X99752927Y-106623588D02*
X99800546Y-106671207D01*
X99800546Y-106671207D02*
X99824356Y-106718826D01*
X99824356Y-106718826D02*
X99848165Y-106814064D01*
X99848165Y-106814064D02*
X99848165Y-106885492D01*
X99848165Y-106885492D02*
X99824356Y-106980730D01*
X99824356Y-106980730D02*
X99800546Y-107028349D01*
X99800546Y-107028349D02*
X99752927Y-107075968D01*
X99752927Y-107075968D02*
X99681499Y-107099778D01*
X99681499Y-107099778D02*
X99633880Y-107099778D01*
X99633880Y-107099778D02*
X99562451Y-107075968D01*
X99562451Y-107075968D02*
X99538642Y-107052159D01*
X99038642Y-106647397D02*
X99062451Y-106623588D01*
X99062451Y-106623588D02*
X99133880Y-106599778D01*
X99133880Y-106599778D02*
X99181499Y-106599778D01*
X99181499Y-106599778D02*
X99252927Y-106623588D01*
X99252927Y-106623588D02*
X99300546Y-106671207D01*
X99300546Y-106671207D02*
X99324356Y-106718826D01*
X99324356Y-106718826D02*
X99348165Y-106814064D01*
X99348165Y-106814064D02*
X99348165Y-106885492D01*
X99348165Y-106885492D02*
X99324356Y-106980730D01*
X99324356Y-106980730D02*
X99300546Y-107028349D01*
X99300546Y-107028349D02*
X99252927Y-107075968D01*
X99252927Y-107075968D02*
X99181499Y-107099778D01*
X99181499Y-107099778D02*
X99133880Y-107099778D01*
X99133880Y-107099778D02*
X99062451Y-107075968D01*
X99062451Y-107075968D02*
X99038642Y-107052159D01*
D15*
X129033771Y-106192886D02*
X129000438Y-106226220D01*
X129000438Y-106226220D02*
X128900438Y-106259553D01*
X128900438Y-106259553D02*
X128833771Y-106259553D01*
X128833771Y-106259553D02*
X128733771Y-106226220D01*
X128733771Y-106226220D02*
X128667105Y-106159553D01*
X128667105Y-106159553D02*
X128633771Y-106092886D01*
X128633771Y-106092886D02*
X128600438Y-105959553D01*
X128600438Y-105959553D02*
X128600438Y-105859553D01*
X128600438Y-105859553D02*
X128633771Y-105726220D01*
X128633771Y-105726220D02*
X128667105Y-105659553D01*
X128667105Y-105659553D02*
X128733771Y-105592886D01*
X128733771Y-105592886D02*
X128833771Y-105559553D01*
X128833771Y-105559553D02*
X128900438Y-105559553D01*
X128900438Y-105559553D02*
X129000438Y-105592886D01*
X129000438Y-105592886D02*
X129033771Y-105626220D01*
X129300438Y-105626220D02*
X129333771Y-105592886D01*
X129333771Y-105592886D02*
X129400438Y-105559553D01*
X129400438Y-105559553D02*
X129567105Y-105559553D01*
X129567105Y-105559553D02*
X129633771Y-105592886D01*
X129633771Y-105592886D02*
X129667105Y-105626220D01*
X129667105Y-105626220D02*
X129700438Y-105692886D01*
X129700438Y-105692886D02*
X129700438Y-105759553D01*
X129700438Y-105759553D02*
X129667105Y-105859553D01*
X129667105Y-105859553D02*
X129267105Y-106259553D01*
X129267105Y-106259553D02*
X129700438Y-106259553D01*
D17*
X113836704Y-80473570D02*
X113455752Y-80473570D01*
X113455752Y-80473570D02*
X113417656Y-80854522D01*
X113417656Y-80854522D02*
X113455752Y-80816427D01*
X113455752Y-80816427D02*
X113531942Y-80778332D01*
X113531942Y-80778332D02*
X113722418Y-80778332D01*
X113722418Y-80778332D02*
X113798609Y-80816427D01*
X113798609Y-80816427D02*
X113836704Y-80854522D01*
X113836704Y-80854522D02*
X113874799Y-80930713D01*
X113874799Y-80930713D02*
X113874799Y-81121189D01*
X113874799Y-81121189D02*
X113836704Y-81197379D01*
X113836704Y-81197379D02*
X113798609Y-81235475D01*
X113798609Y-81235475D02*
X113722418Y-81273570D01*
X113722418Y-81273570D02*
X113531942Y-81273570D01*
X113531942Y-81273570D02*
X113455752Y-81235475D01*
X113455752Y-81235475D02*
X113417656Y-81197379D01*
X115208133Y-81273570D02*
X114827181Y-81273570D01*
X114827181Y-81273570D02*
X114827181Y-80473570D01*
X115817657Y-81273570D02*
X115817657Y-80854522D01*
X115817657Y-80854522D02*
X115779562Y-80778332D01*
X115779562Y-80778332D02*
X115703371Y-80740236D01*
X115703371Y-80740236D02*
X115550990Y-80740236D01*
X115550990Y-80740236D02*
X115474800Y-80778332D01*
X115817657Y-81235475D02*
X115741466Y-81273570D01*
X115741466Y-81273570D02*
X115550990Y-81273570D01*
X115550990Y-81273570D02*
X115474800Y-81235475D01*
X115474800Y-81235475D02*
X115436704Y-81159284D01*
X115436704Y-81159284D02*
X115436704Y-81083094D01*
X115436704Y-81083094D02*
X115474800Y-81006903D01*
X115474800Y-81006903D02*
X115550990Y-80968808D01*
X115550990Y-80968808D02*
X115741466Y-80968808D01*
X115741466Y-80968808D02*
X115817657Y-80930713D01*
X116122419Y-80740236D02*
X116312895Y-81273570D01*
X116503372Y-80740236D02*
X116312895Y-81273570D01*
X116312895Y-81273570D02*
X116236705Y-81464046D01*
X116236705Y-81464046D02*
X116198610Y-81502141D01*
X116198610Y-81502141D02*
X116122419Y-81540236D01*
X117112896Y-81235475D02*
X117036705Y-81273570D01*
X117036705Y-81273570D02*
X116884324Y-81273570D01*
X116884324Y-81273570D02*
X116808134Y-81235475D01*
X116808134Y-81235475D02*
X116770038Y-81159284D01*
X116770038Y-81159284D02*
X116770038Y-80854522D01*
X116770038Y-80854522D02*
X116808134Y-80778332D01*
X116808134Y-80778332D02*
X116884324Y-80740236D01*
X116884324Y-80740236D02*
X117036705Y-80740236D01*
X117036705Y-80740236D02*
X117112896Y-80778332D01*
X117112896Y-80778332D02*
X117150991Y-80854522D01*
X117150991Y-80854522D02*
X117150991Y-80930713D01*
X117150991Y-80930713D02*
X116770038Y-81006903D01*
X117493848Y-81273570D02*
X117493848Y-80740236D01*
X117493848Y-80892617D02*
X117531943Y-80816427D01*
X117531943Y-80816427D02*
X117570038Y-80778332D01*
X117570038Y-80778332D02*
X117646229Y-80740236D01*
X117646229Y-80740236D02*
X117722419Y-80740236D01*
X123145268Y-122604195D02*
X123602411Y-122604195D01*
X123373839Y-123404195D02*
X123373839Y-122604195D01*
X123869078Y-123404195D02*
X123869078Y-122604195D01*
X124326221Y-123404195D02*
X123983363Y-122947052D01*
X124326221Y-122604195D02*
X123869078Y-123061338D01*
X125088125Y-123404195D02*
X124630982Y-123404195D01*
X124859554Y-123404195D02*
X124859554Y-122604195D01*
X124859554Y-122604195D02*
X124783363Y-122718480D01*
X124783363Y-122718480D02*
X124707173Y-122794671D01*
X124707173Y-122794671D02*
X124630982Y-122832766D01*
X125583364Y-122604195D02*
X125659554Y-122604195D01*
X125659554Y-122604195D02*
X125735745Y-122642290D01*
X125735745Y-122642290D02*
X125773840Y-122680385D01*
X125773840Y-122680385D02*
X125811935Y-122756576D01*
X125811935Y-122756576D02*
X125850030Y-122908957D01*
X125850030Y-122908957D02*
X125850030Y-123099433D01*
X125850030Y-123099433D02*
X125811935Y-123251814D01*
X125811935Y-123251814D02*
X125773840Y-123328004D01*
X125773840Y-123328004D02*
X125735745Y-123366100D01*
X125735745Y-123366100D02*
X125659554Y-123404195D01*
X125659554Y-123404195D02*
X125583364Y-123404195D01*
X125583364Y-123404195D02*
X125507173Y-123366100D01*
X125507173Y-123366100D02*
X125469078Y-123328004D01*
X125469078Y-123328004D02*
X125430983Y-123251814D01*
X125430983Y-123251814D02*
X125392887Y-123099433D01*
X125392887Y-123099433D02*
X125392887Y-122908957D01*
X125392887Y-122908957D02*
X125430983Y-122756576D01*
X125430983Y-122756576D02*
X125469078Y-122680385D01*
X125469078Y-122680385D02*
X125507173Y-122642290D01*
X125507173Y-122642290D02*
X125583364Y-122604195D01*
X126116697Y-122604195D02*
X126611935Y-122604195D01*
X126611935Y-122604195D02*
X126345269Y-122908957D01*
X126345269Y-122908957D02*
X126459554Y-122908957D01*
X126459554Y-122908957D02*
X126535745Y-122947052D01*
X126535745Y-122947052D02*
X126573840Y-122985147D01*
X126573840Y-122985147D02*
X126611935Y-123061338D01*
X126611935Y-123061338D02*
X126611935Y-123251814D01*
X126611935Y-123251814D02*
X126573840Y-123328004D01*
X126573840Y-123328004D02*
X126535745Y-123366100D01*
X126535745Y-123366100D02*
X126459554Y-123404195D01*
X126459554Y-123404195D02*
X126230983Y-123404195D01*
X126230983Y-123404195D02*
X126154792Y-123366100D01*
X126154792Y-123366100D02*
X126116697Y-123328004D01*
X107673609Y-89373570D02*
X107521228Y-89373570D01*
X107521228Y-89373570D02*
X107445037Y-89411665D01*
X107445037Y-89411665D02*
X107406942Y-89449760D01*
X107406942Y-89449760D02*
X107330752Y-89564046D01*
X107330752Y-89564046D02*
X107292656Y-89716427D01*
X107292656Y-89716427D02*
X107292656Y-90021189D01*
X107292656Y-90021189D02*
X107330752Y-90097379D01*
X107330752Y-90097379D02*
X107368847Y-90135475D01*
X107368847Y-90135475D02*
X107445037Y-90173570D01*
X107445037Y-90173570D02*
X107597418Y-90173570D01*
X107597418Y-90173570D02*
X107673609Y-90135475D01*
X107673609Y-90135475D02*
X107711704Y-90097379D01*
X107711704Y-90097379D02*
X107749799Y-90021189D01*
X107749799Y-90021189D02*
X107749799Y-89830713D01*
X107749799Y-89830713D02*
X107711704Y-89754522D01*
X107711704Y-89754522D02*
X107673609Y-89716427D01*
X107673609Y-89716427D02*
X107597418Y-89678332D01*
X107597418Y-89678332D02*
X107445037Y-89678332D01*
X107445037Y-89678332D02*
X107368847Y-89716427D01*
X107368847Y-89716427D02*
X107330752Y-89754522D01*
X107330752Y-89754522D02*
X107292656Y-89830713D01*
X109083133Y-90173570D02*
X108702181Y-90173570D01*
X108702181Y-90173570D02*
X108702181Y-89373570D01*
X109692657Y-90173570D02*
X109692657Y-89754522D01*
X109692657Y-89754522D02*
X109654562Y-89678332D01*
X109654562Y-89678332D02*
X109578371Y-89640236D01*
X109578371Y-89640236D02*
X109425990Y-89640236D01*
X109425990Y-89640236D02*
X109349800Y-89678332D01*
X109692657Y-90135475D02*
X109616466Y-90173570D01*
X109616466Y-90173570D02*
X109425990Y-90173570D01*
X109425990Y-90173570D02*
X109349800Y-90135475D01*
X109349800Y-90135475D02*
X109311704Y-90059284D01*
X109311704Y-90059284D02*
X109311704Y-89983094D01*
X109311704Y-89983094D02*
X109349800Y-89906903D01*
X109349800Y-89906903D02*
X109425990Y-89868808D01*
X109425990Y-89868808D02*
X109616466Y-89868808D01*
X109616466Y-89868808D02*
X109692657Y-89830713D01*
X109997419Y-89640236D02*
X110187895Y-90173570D01*
X110378372Y-89640236D02*
X110187895Y-90173570D01*
X110187895Y-90173570D02*
X110111705Y-90364046D01*
X110111705Y-90364046D02*
X110073610Y-90402141D01*
X110073610Y-90402141D02*
X109997419Y-90440236D01*
X110987896Y-90135475D02*
X110911705Y-90173570D01*
X110911705Y-90173570D02*
X110759324Y-90173570D01*
X110759324Y-90173570D02*
X110683134Y-90135475D01*
X110683134Y-90135475D02*
X110645038Y-90059284D01*
X110645038Y-90059284D02*
X110645038Y-89754522D01*
X110645038Y-89754522D02*
X110683134Y-89678332D01*
X110683134Y-89678332D02*
X110759324Y-89640236D01*
X110759324Y-89640236D02*
X110911705Y-89640236D01*
X110911705Y-89640236D02*
X110987896Y-89678332D01*
X110987896Y-89678332D02*
X111025991Y-89754522D01*
X111025991Y-89754522D02*
X111025991Y-89830713D01*
X111025991Y-89830713D02*
X110645038Y-89906903D01*
X111368848Y-90173570D02*
X111368848Y-89640236D01*
X111368848Y-89792617D02*
X111406943Y-89716427D01*
X111406943Y-89716427D02*
X111445038Y-89678332D01*
X111445038Y-89678332D02*
X111521229Y-89640236D01*
X111521229Y-89640236D02*
X111597419Y-89640236D01*
D15*
X129108771Y-103642886D02*
X129075438Y-103676220D01*
X129075438Y-103676220D02*
X128975438Y-103709553D01*
X128975438Y-103709553D02*
X128908771Y-103709553D01*
X128908771Y-103709553D02*
X128808771Y-103676220D01*
X128808771Y-103676220D02*
X128742105Y-103609553D01*
X128742105Y-103609553D02*
X128708771Y-103542886D01*
X128708771Y-103542886D02*
X128675438Y-103409553D01*
X128675438Y-103409553D02*
X128675438Y-103309553D01*
X128675438Y-103309553D02*
X128708771Y-103176220D01*
X128708771Y-103176220D02*
X128742105Y-103109553D01*
X128742105Y-103109553D02*
X128808771Y-103042886D01*
X128808771Y-103042886D02*
X128908771Y-103009553D01*
X128908771Y-103009553D02*
X128975438Y-103009553D01*
X128975438Y-103009553D02*
X129075438Y-103042886D01*
X129075438Y-103042886D02*
X129108771Y-103076220D01*
X129775438Y-103709553D02*
X129375438Y-103709553D01*
X129575438Y-103709553D02*
X129575438Y-103009553D01*
X129575438Y-103009553D02*
X129508771Y-103109553D01*
X129508771Y-103109553D02*
X129442105Y-103176220D01*
X129442105Y-103176220D02*
X129375438Y-103209553D01*
D17*
X113898609Y-89348570D02*
X113746228Y-89348570D01*
X113746228Y-89348570D02*
X113670037Y-89386665D01*
X113670037Y-89386665D02*
X113631942Y-89424760D01*
X113631942Y-89424760D02*
X113555752Y-89539046D01*
X113555752Y-89539046D02*
X113517656Y-89691427D01*
X113517656Y-89691427D02*
X113517656Y-89996189D01*
X113517656Y-89996189D02*
X113555752Y-90072379D01*
X113555752Y-90072379D02*
X113593847Y-90110475D01*
X113593847Y-90110475D02*
X113670037Y-90148570D01*
X113670037Y-90148570D02*
X113822418Y-90148570D01*
X113822418Y-90148570D02*
X113898609Y-90110475D01*
X113898609Y-90110475D02*
X113936704Y-90072379D01*
X113936704Y-90072379D02*
X113974799Y-89996189D01*
X113974799Y-89996189D02*
X113974799Y-89805713D01*
X113974799Y-89805713D02*
X113936704Y-89729522D01*
X113936704Y-89729522D02*
X113898609Y-89691427D01*
X113898609Y-89691427D02*
X113822418Y-89653332D01*
X113822418Y-89653332D02*
X113670037Y-89653332D01*
X113670037Y-89653332D02*
X113593847Y-89691427D01*
X113593847Y-89691427D02*
X113555752Y-89729522D01*
X113555752Y-89729522D02*
X113517656Y-89805713D01*
X115308133Y-90148570D02*
X114927181Y-90148570D01*
X114927181Y-90148570D02*
X114927181Y-89348570D01*
X115917657Y-90148570D02*
X115917657Y-89729522D01*
X115917657Y-89729522D02*
X115879562Y-89653332D01*
X115879562Y-89653332D02*
X115803371Y-89615236D01*
X115803371Y-89615236D02*
X115650990Y-89615236D01*
X115650990Y-89615236D02*
X115574800Y-89653332D01*
X115917657Y-90110475D02*
X115841466Y-90148570D01*
X115841466Y-90148570D02*
X115650990Y-90148570D01*
X115650990Y-90148570D02*
X115574800Y-90110475D01*
X115574800Y-90110475D02*
X115536704Y-90034284D01*
X115536704Y-90034284D02*
X115536704Y-89958094D01*
X115536704Y-89958094D02*
X115574800Y-89881903D01*
X115574800Y-89881903D02*
X115650990Y-89843808D01*
X115650990Y-89843808D02*
X115841466Y-89843808D01*
X115841466Y-89843808D02*
X115917657Y-89805713D01*
X116222419Y-89615236D02*
X116412895Y-90148570D01*
X116603372Y-89615236D02*
X116412895Y-90148570D01*
X116412895Y-90148570D02*
X116336705Y-90339046D01*
X116336705Y-90339046D02*
X116298610Y-90377141D01*
X116298610Y-90377141D02*
X116222419Y-90415236D01*
X117212896Y-90110475D02*
X117136705Y-90148570D01*
X117136705Y-90148570D02*
X116984324Y-90148570D01*
X116984324Y-90148570D02*
X116908134Y-90110475D01*
X116908134Y-90110475D02*
X116870038Y-90034284D01*
X116870038Y-90034284D02*
X116870038Y-89729522D01*
X116870038Y-89729522D02*
X116908134Y-89653332D01*
X116908134Y-89653332D02*
X116984324Y-89615236D01*
X116984324Y-89615236D02*
X117136705Y-89615236D01*
X117136705Y-89615236D02*
X117212896Y-89653332D01*
X117212896Y-89653332D02*
X117250991Y-89729522D01*
X117250991Y-89729522D02*
X117250991Y-89805713D01*
X117250991Y-89805713D02*
X116870038Y-89881903D01*
X117593848Y-90148570D02*
X117593848Y-89615236D01*
X117593848Y-89767617D02*
X117631943Y-89691427D01*
X117631943Y-89691427D02*
X117670038Y-89653332D01*
X117670038Y-89653332D02*
X117746229Y-89615236D01*
X117746229Y-89615236D02*
X117822419Y-89615236D01*
D15*
X128700438Y-98384553D02*
X129033771Y-98384553D01*
X128633771Y-98584553D02*
X128867105Y-97884553D01*
X128867105Y-97884553D02*
X129100438Y-98584553D01*
X129700438Y-98584553D02*
X129300438Y-98584553D01*
X129500438Y-98584553D02*
X129500438Y-97884553D01*
X129500438Y-97884553D02*
X129433771Y-97984553D01*
X129433771Y-97984553D02*
X129367105Y-98051220D01*
X129367105Y-98051220D02*
X129300438Y-98084553D01*
D17*
X120073609Y-89423570D02*
X119921228Y-89423570D01*
X119921228Y-89423570D02*
X119845037Y-89461665D01*
X119845037Y-89461665D02*
X119806942Y-89499760D01*
X119806942Y-89499760D02*
X119730752Y-89614046D01*
X119730752Y-89614046D02*
X119692656Y-89766427D01*
X119692656Y-89766427D02*
X119692656Y-90071189D01*
X119692656Y-90071189D02*
X119730752Y-90147379D01*
X119730752Y-90147379D02*
X119768847Y-90185475D01*
X119768847Y-90185475D02*
X119845037Y-90223570D01*
X119845037Y-90223570D02*
X119997418Y-90223570D01*
X119997418Y-90223570D02*
X120073609Y-90185475D01*
X120073609Y-90185475D02*
X120111704Y-90147379D01*
X120111704Y-90147379D02*
X120149799Y-90071189D01*
X120149799Y-90071189D02*
X120149799Y-89880713D01*
X120149799Y-89880713D02*
X120111704Y-89804522D01*
X120111704Y-89804522D02*
X120073609Y-89766427D01*
X120073609Y-89766427D02*
X119997418Y-89728332D01*
X119997418Y-89728332D02*
X119845037Y-89728332D01*
X119845037Y-89728332D02*
X119768847Y-89766427D01*
X119768847Y-89766427D02*
X119730752Y-89804522D01*
X119730752Y-89804522D02*
X119692656Y-89880713D01*
X121483133Y-90223570D02*
X121102181Y-90223570D01*
X121102181Y-90223570D02*
X121102181Y-89423570D01*
X122092657Y-90223570D02*
X122092657Y-89804522D01*
X122092657Y-89804522D02*
X122054562Y-89728332D01*
X122054562Y-89728332D02*
X121978371Y-89690236D01*
X121978371Y-89690236D02*
X121825990Y-89690236D01*
X121825990Y-89690236D02*
X121749800Y-89728332D01*
X122092657Y-90185475D02*
X122016466Y-90223570D01*
X122016466Y-90223570D02*
X121825990Y-90223570D01*
X121825990Y-90223570D02*
X121749800Y-90185475D01*
X121749800Y-90185475D02*
X121711704Y-90109284D01*
X121711704Y-90109284D02*
X121711704Y-90033094D01*
X121711704Y-90033094D02*
X121749800Y-89956903D01*
X121749800Y-89956903D02*
X121825990Y-89918808D01*
X121825990Y-89918808D02*
X122016466Y-89918808D01*
X122016466Y-89918808D02*
X122092657Y-89880713D01*
X122397419Y-89690236D02*
X122587895Y-90223570D01*
X122778372Y-89690236D02*
X122587895Y-90223570D01*
X122587895Y-90223570D02*
X122511705Y-90414046D01*
X122511705Y-90414046D02*
X122473610Y-90452141D01*
X122473610Y-90452141D02*
X122397419Y-90490236D01*
X123387896Y-90185475D02*
X123311705Y-90223570D01*
X123311705Y-90223570D02*
X123159324Y-90223570D01*
X123159324Y-90223570D02*
X123083134Y-90185475D01*
X123083134Y-90185475D02*
X123045038Y-90109284D01*
X123045038Y-90109284D02*
X123045038Y-89804522D01*
X123045038Y-89804522D02*
X123083134Y-89728332D01*
X123083134Y-89728332D02*
X123159324Y-89690236D01*
X123159324Y-89690236D02*
X123311705Y-89690236D01*
X123311705Y-89690236D02*
X123387896Y-89728332D01*
X123387896Y-89728332D02*
X123425991Y-89804522D01*
X123425991Y-89804522D02*
X123425991Y-89880713D01*
X123425991Y-89880713D02*
X123045038Y-89956903D01*
X123768848Y-90223570D02*
X123768848Y-89690236D01*
X123768848Y-89842617D02*
X123806943Y-89766427D01*
X123806943Y-89766427D02*
X123845038Y-89728332D01*
X123845038Y-89728332D02*
X123921229Y-89690236D01*
X123921229Y-89690236D02*
X123997419Y-89690236D01*
X103048609Y-92540236D02*
X103048609Y-93073570D01*
X102858133Y-92235475D02*
X102667656Y-92806903D01*
X102667656Y-92806903D02*
X103162895Y-92806903D01*
X103734323Y-92654522D02*
X103848609Y-92692617D01*
X103848609Y-92692617D02*
X103886704Y-92730713D01*
X103886704Y-92730713D02*
X103924800Y-92806903D01*
X103924800Y-92806903D02*
X103924800Y-92921189D01*
X103924800Y-92921189D02*
X103886704Y-92997379D01*
X103886704Y-92997379D02*
X103848609Y-93035475D01*
X103848609Y-93035475D02*
X103772419Y-93073570D01*
X103772419Y-93073570D02*
X103467657Y-93073570D01*
X103467657Y-93073570D02*
X103467657Y-92273570D01*
X103467657Y-92273570D02*
X103734323Y-92273570D01*
X103734323Y-92273570D02*
X103810514Y-92311665D01*
X103810514Y-92311665D02*
X103848609Y-92349760D01*
X103848609Y-92349760D02*
X103886704Y-92425951D01*
X103886704Y-92425951D02*
X103886704Y-92502141D01*
X103886704Y-92502141D02*
X103848609Y-92578332D01*
X103848609Y-92578332D02*
X103810514Y-92616427D01*
X103810514Y-92616427D02*
X103734323Y-92654522D01*
X103734323Y-92654522D02*
X103467657Y-92654522D01*
X104267657Y-93073570D02*
X104267657Y-92273570D01*
D11*
X96097119Y-112514931D02*
X95097119Y-112514931D01*
X95097119Y-112514931D02*
X95097119Y-112133979D01*
X95097119Y-112133979D02*
X95144738Y-112038741D01*
X95144738Y-112038741D02*
X95192357Y-111991122D01*
X95192357Y-111991122D02*
X95287595Y-111943503D01*
X95287595Y-111943503D02*
X95430452Y-111943503D01*
X95430452Y-111943503D02*
X95525690Y-111991122D01*
X95525690Y-111991122D02*
X95573309Y-112038741D01*
X95573309Y-112038741D02*
X95620928Y-112133979D01*
X95620928Y-112133979D02*
X95620928Y-112514931D01*
X96001880Y-110943503D02*
X96049500Y-110991122D01*
X96049500Y-110991122D02*
X96097119Y-111133979D01*
X96097119Y-111133979D02*
X96097119Y-111229217D01*
X96097119Y-111229217D02*
X96049500Y-111372074D01*
X96049500Y-111372074D02*
X95954261Y-111467312D01*
X95954261Y-111467312D02*
X95859023Y-111514931D01*
X95859023Y-111514931D02*
X95668547Y-111562550D01*
X95668547Y-111562550D02*
X95525690Y-111562550D01*
X95525690Y-111562550D02*
X95335214Y-111514931D01*
X95335214Y-111514931D02*
X95239976Y-111467312D01*
X95239976Y-111467312D02*
X95144738Y-111372074D01*
X95144738Y-111372074D02*
X95097119Y-111229217D01*
X95097119Y-111229217D02*
X95097119Y-111133979D01*
X95097119Y-111133979D02*
X95144738Y-110991122D01*
X95144738Y-110991122D02*
X95192357Y-110943503D01*
X95573309Y-110181598D02*
X95620928Y-110038741D01*
X95620928Y-110038741D02*
X95668547Y-109991122D01*
X95668547Y-109991122D02*
X95763785Y-109943503D01*
X95763785Y-109943503D02*
X95906642Y-109943503D01*
X95906642Y-109943503D02*
X96001880Y-109991122D01*
X96001880Y-109991122D02*
X96049500Y-110038741D01*
X96049500Y-110038741D02*
X96097119Y-110133979D01*
X96097119Y-110133979D02*
X96097119Y-110514931D01*
X96097119Y-110514931D02*
X95097119Y-110514931D01*
X95097119Y-110514931D02*
X95097119Y-110181598D01*
X95097119Y-110181598D02*
X95144738Y-110086360D01*
X95144738Y-110086360D02*
X95192357Y-110038741D01*
X95192357Y-110038741D02*
X95287595Y-109991122D01*
X95287595Y-109991122D02*
X95382833Y-109991122D01*
X95382833Y-109991122D02*
X95478071Y-110038741D01*
X95478071Y-110038741D02*
X95525690Y-110086360D01*
X95525690Y-110086360D02*
X95573309Y-110181598D01*
X95573309Y-110181598D02*
X95573309Y-110514931D01*
X95573309Y-108419693D02*
X95620928Y-108276836D01*
X95620928Y-108276836D02*
X95668547Y-108229217D01*
X95668547Y-108229217D02*
X95763785Y-108181598D01*
X95763785Y-108181598D02*
X95906642Y-108181598D01*
X95906642Y-108181598D02*
X96001880Y-108229217D01*
X96001880Y-108229217D02*
X96049500Y-108276836D01*
X96049500Y-108276836D02*
X96097119Y-108372074D01*
X96097119Y-108372074D02*
X96097119Y-108753026D01*
X96097119Y-108753026D02*
X95097119Y-108753026D01*
X95097119Y-108753026D02*
X95097119Y-108419693D01*
X95097119Y-108419693D02*
X95144738Y-108324455D01*
X95144738Y-108324455D02*
X95192357Y-108276836D01*
X95192357Y-108276836D02*
X95287595Y-108229217D01*
X95287595Y-108229217D02*
X95382833Y-108229217D01*
X95382833Y-108229217D02*
X95478071Y-108276836D01*
X95478071Y-108276836D02*
X95525690Y-108324455D01*
X95525690Y-108324455D02*
X95573309Y-108419693D01*
X95573309Y-108419693D02*
X95573309Y-108753026D01*
X96097119Y-107753026D02*
X95430452Y-107753026D01*
X95620928Y-107753026D02*
X95525690Y-107705407D01*
X95525690Y-107705407D02*
X95478071Y-107657788D01*
X95478071Y-107657788D02*
X95430452Y-107562550D01*
X95430452Y-107562550D02*
X95430452Y-107467312D01*
X95430452Y-106705407D02*
X96097119Y-106705407D01*
X95430452Y-107133978D02*
X95954261Y-107133978D01*
X95954261Y-107133978D02*
X96049500Y-107086359D01*
X96049500Y-107086359D02*
X96097119Y-106991121D01*
X96097119Y-106991121D02*
X96097119Y-106848264D01*
X96097119Y-106848264D02*
X96049500Y-106753026D01*
X96049500Y-106753026D02*
X96001880Y-106705407D01*
X96049500Y-106276835D02*
X96097119Y-106181597D01*
X96097119Y-106181597D02*
X96097119Y-105991121D01*
X96097119Y-105991121D02*
X96049500Y-105895883D01*
X96049500Y-105895883D02*
X95954261Y-105848264D01*
X95954261Y-105848264D02*
X95906642Y-105848264D01*
X95906642Y-105848264D02*
X95811404Y-105895883D01*
X95811404Y-105895883D02*
X95763785Y-105991121D01*
X95763785Y-105991121D02*
X95763785Y-106133978D01*
X95763785Y-106133978D02*
X95716166Y-106229216D01*
X95716166Y-106229216D02*
X95620928Y-106276835D01*
X95620928Y-106276835D02*
X95573309Y-106276835D01*
X95573309Y-106276835D02*
X95478071Y-106229216D01*
X95478071Y-106229216D02*
X95430452Y-106133978D01*
X95430452Y-106133978D02*
X95430452Y-105991121D01*
X95430452Y-105991121D02*
X95478071Y-105895883D01*
X96097119Y-105419692D02*
X95097119Y-105419692D01*
X96097119Y-104991121D02*
X95573309Y-104991121D01*
X95573309Y-104991121D02*
X95478071Y-105038740D01*
X95478071Y-105038740D02*
X95430452Y-105133978D01*
X95430452Y-105133978D02*
X95430452Y-105276835D01*
X95430452Y-105276835D02*
X95478071Y-105372073D01*
X95478071Y-105372073D02*
X95525690Y-105419692D01*
X96097119Y-104372073D02*
X96049500Y-104467311D01*
X96049500Y-104467311D02*
X95954261Y-104514930D01*
X95954261Y-104514930D02*
X95097119Y-104514930D01*
X96049500Y-103610168D02*
X96097119Y-103705406D01*
X96097119Y-103705406D02*
X96097119Y-103895882D01*
X96097119Y-103895882D02*
X96049500Y-103991120D01*
X96049500Y-103991120D02*
X95954261Y-104038739D01*
X95954261Y-104038739D02*
X95573309Y-104038739D01*
X95573309Y-104038739D02*
X95478071Y-103991120D01*
X95478071Y-103991120D02*
X95430452Y-103895882D01*
X95430452Y-103895882D02*
X95430452Y-103705406D01*
X95430452Y-103705406D02*
X95478071Y-103610168D01*
X95478071Y-103610168D02*
X95573309Y-103562549D01*
X95573309Y-103562549D02*
X95668547Y-103562549D01*
X95668547Y-103562549D02*
X95763785Y-104038739D01*
X96049500Y-103181596D02*
X96097119Y-103086358D01*
X96097119Y-103086358D02*
X96097119Y-102895882D01*
X96097119Y-102895882D02*
X96049500Y-102800644D01*
X96049500Y-102800644D02*
X95954261Y-102753025D01*
X95954261Y-102753025D02*
X95906642Y-102753025D01*
X95906642Y-102753025D02*
X95811404Y-102800644D01*
X95811404Y-102800644D02*
X95763785Y-102895882D01*
X95763785Y-102895882D02*
X95763785Y-103038739D01*
X95763785Y-103038739D02*
X95716166Y-103133977D01*
X95716166Y-103133977D02*
X95620928Y-103181596D01*
X95620928Y-103181596D02*
X95573309Y-103181596D01*
X95573309Y-103181596D02*
X95478071Y-103133977D01*
X95478071Y-103133977D02*
X95430452Y-103038739D01*
X95430452Y-103038739D02*
X95430452Y-102895882D01*
X95430452Y-102895882D02*
X95478071Y-102800644D01*
X96049500Y-102372072D02*
X96097119Y-102276834D01*
X96097119Y-102276834D02*
X96097119Y-102086358D01*
X96097119Y-102086358D02*
X96049500Y-101991120D01*
X96049500Y-101991120D02*
X95954261Y-101943501D01*
X95954261Y-101943501D02*
X95906642Y-101943501D01*
X95906642Y-101943501D02*
X95811404Y-101991120D01*
X95811404Y-101991120D02*
X95763785Y-102086358D01*
X95763785Y-102086358D02*
X95763785Y-102229215D01*
X95763785Y-102229215D02*
X95716166Y-102324453D01*
X95716166Y-102324453D02*
X95620928Y-102372072D01*
X95620928Y-102372072D02*
X95573309Y-102372072D01*
X95573309Y-102372072D02*
X95478071Y-102324453D01*
X95478071Y-102324453D02*
X95430452Y-102229215D01*
X95430452Y-102229215D02*
X95430452Y-102086358D01*
X95430452Y-102086358D02*
X95478071Y-101991120D01*
X96097119Y-100753024D02*
X95097119Y-100753024D01*
X95097119Y-100753024D02*
X95811404Y-100419691D01*
X95811404Y-100419691D02*
X95097119Y-100086358D01*
X95097119Y-100086358D02*
X96097119Y-100086358D01*
X96097119Y-99467310D02*
X96049500Y-99562548D01*
X96049500Y-99562548D02*
X96001880Y-99610167D01*
X96001880Y-99610167D02*
X95906642Y-99657786D01*
X95906642Y-99657786D02*
X95620928Y-99657786D01*
X95620928Y-99657786D02*
X95525690Y-99610167D01*
X95525690Y-99610167D02*
X95478071Y-99562548D01*
X95478071Y-99562548D02*
X95430452Y-99467310D01*
X95430452Y-99467310D02*
X95430452Y-99324453D01*
X95430452Y-99324453D02*
X95478071Y-99229215D01*
X95478071Y-99229215D02*
X95525690Y-99181596D01*
X95525690Y-99181596D02*
X95620928Y-99133977D01*
X95620928Y-99133977D02*
X95906642Y-99133977D01*
X95906642Y-99133977D02*
X96001880Y-99181596D01*
X96001880Y-99181596D02*
X96049500Y-99229215D01*
X96049500Y-99229215D02*
X96097119Y-99324453D01*
X96097119Y-99324453D02*
X96097119Y-99467310D01*
X95430452Y-98848262D02*
X95430452Y-98467310D01*
X95097119Y-98705405D02*
X95954261Y-98705405D01*
X95954261Y-98705405D02*
X96049500Y-98657786D01*
X96049500Y-98657786D02*
X96097119Y-98562548D01*
X96097119Y-98562548D02*
X96097119Y-98467310D01*
X96097119Y-97991119D02*
X96049500Y-98086357D01*
X96049500Y-98086357D02*
X96001880Y-98133976D01*
X96001880Y-98133976D02*
X95906642Y-98181595D01*
X95906642Y-98181595D02*
X95620928Y-98181595D01*
X95620928Y-98181595D02*
X95525690Y-98133976D01*
X95525690Y-98133976D02*
X95478071Y-98086357D01*
X95478071Y-98086357D02*
X95430452Y-97991119D01*
X95430452Y-97991119D02*
X95430452Y-97848262D01*
X95430452Y-97848262D02*
X95478071Y-97753024D01*
X95478071Y-97753024D02*
X95525690Y-97705405D01*
X95525690Y-97705405D02*
X95620928Y-97657786D01*
X95620928Y-97657786D02*
X95906642Y-97657786D01*
X95906642Y-97657786D02*
X96001880Y-97705405D01*
X96001880Y-97705405D02*
X96049500Y-97753024D01*
X96049500Y-97753024D02*
X96097119Y-97848262D01*
X96097119Y-97848262D02*
X96097119Y-97991119D01*
X96097119Y-97229214D02*
X95430452Y-97229214D01*
X95620928Y-97229214D02*
X95525690Y-97181595D01*
X95525690Y-97181595D02*
X95478071Y-97133976D01*
X95478071Y-97133976D02*
X95430452Y-97038738D01*
X95430452Y-97038738D02*
X95430452Y-96943500D01*
D15*
X129058771Y-108767886D02*
X129025438Y-108801220D01*
X129025438Y-108801220D02*
X128925438Y-108834553D01*
X128925438Y-108834553D02*
X128858771Y-108834553D01*
X128858771Y-108834553D02*
X128758771Y-108801220D01*
X128758771Y-108801220D02*
X128692105Y-108734553D01*
X128692105Y-108734553D02*
X128658771Y-108667886D01*
X128658771Y-108667886D02*
X128625438Y-108534553D01*
X128625438Y-108534553D02*
X128625438Y-108434553D01*
X128625438Y-108434553D02*
X128658771Y-108301220D01*
X128658771Y-108301220D02*
X128692105Y-108234553D01*
X128692105Y-108234553D02*
X128758771Y-108167886D01*
X128758771Y-108167886D02*
X128858771Y-108134553D01*
X128858771Y-108134553D02*
X128925438Y-108134553D01*
X128925438Y-108134553D02*
X129025438Y-108167886D01*
X129025438Y-108167886D02*
X129058771Y-108201220D01*
X129292105Y-108134553D02*
X129725438Y-108134553D01*
X129725438Y-108134553D02*
X129492105Y-108401220D01*
X129492105Y-108401220D02*
X129592105Y-108401220D01*
X129592105Y-108401220D02*
X129658771Y-108434553D01*
X129658771Y-108434553D02*
X129692105Y-108467886D01*
X129692105Y-108467886D02*
X129725438Y-108534553D01*
X129725438Y-108534553D02*
X129725438Y-108701220D01*
X129725438Y-108701220D02*
X129692105Y-108767886D01*
X129692105Y-108767886D02*
X129658771Y-108801220D01*
X129658771Y-108801220D02*
X129592105Y-108834553D01*
X129592105Y-108834553D02*
X129392105Y-108834553D01*
X129392105Y-108834553D02*
X129325438Y-108801220D01*
X129325438Y-108801220D02*
X129292105Y-108767886D01*
D17*
X104706695Y-128247231D02*
X104706695Y-127790088D01*
X105506695Y-128018660D02*
X104706695Y-128018660D01*
X105506695Y-127523421D02*
X104706695Y-127523421D01*
X105506695Y-127066278D02*
X105049552Y-127409136D01*
X104706695Y-127066278D02*
X105163838Y-127523421D01*
X105506695Y-126304374D02*
X105506695Y-126761517D01*
X105506695Y-126532945D02*
X104706695Y-126532945D01*
X104706695Y-126532945D02*
X104820980Y-126609136D01*
X104820980Y-126609136D02*
X104897171Y-126685326D01*
X104897171Y-126685326D02*
X104935266Y-126761517D01*
X104706695Y-125809135D02*
X104706695Y-125732945D01*
X104706695Y-125732945D02*
X104744790Y-125656754D01*
X104744790Y-125656754D02*
X104782885Y-125618659D01*
X104782885Y-125618659D02*
X104859076Y-125580564D01*
X104859076Y-125580564D02*
X105011457Y-125542469D01*
X105011457Y-125542469D02*
X105201933Y-125542469D01*
X105201933Y-125542469D02*
X105354314Y-125580564D01*
X105354314Y-125580564D02*
X105430504Y-125618659D01*
X105430504Y-125618659D02*
X105468600Y-125656754D01*
X105468600Y-125656754D02*
X105506695Y-125732945D01*
X105506695Y-125732945D02*
X105506695Y-125809135D01*
X105506695Y-125809135D02*
X105468600Y-125885326D01*
X105468600Y-125885326D02*
X105430504Y-125923421D01*
X105430504Y-125923421D02*
X105354314Y-125961516D01*
X105354314Y-125961516D02*
X105201933Y-125999612D01*
X105201933Y-125999612D02*
X105011457Y-125999612D01*
X105011457Y-125999612D02*
X104859076Y-125961516D01*
X104859076Y-125961516D02*
X104782885Y-125923421D01*
X104782885Y-125923421D02*
X104744790Y-125885326D01*
X104744790Y-125885326D02*
X104706695Y-125809135D01*
X104706695Y-125275802D02*
X104706695Y-124780564D01*
X104706695Y-124780564D02*
X105011457Y-125047230D01*
X105011457Y-125047230D02*
X105011457Y-124932945D01*
X105011457Y-124932945D02*
X105049552Y-124856754D01*
X105049552Y-124856754D02*
X105087647Y-124818659D01*
X105087647Y-124818659D02*
X105163838Y-124780564D01*
X105163838Y-124780564D02*
X105354314Y-124780564D01*
X105354314Y-124780564D02*
X105430504Y-124818659D01*
X105430504Y-124818659D02*
X105468600Y-124856754D01*
X105468600Y-124856754D02*
X105506695Y-124932945D01*
X105506695Y-124932945D02*
X105506695Y-125161516D01*
X105506695Y-125161516D02*
X105468600Y-125237707D01*
X105468600Y-125237707D02*
X105430504Y-125275802D01*
D11*
X97794711Y-97079619D02*
X98366139Y-97079619D01*
X98080425Y-98079619D02*
X98080425Y-97079619D01*
X98842330Y-98079619D02*
X98747092Y-98032000D01*
X98747092Y-98032000D02*
X98699473Y-97984380D01*
X98699473Y-97984380D02*
X98651854Y-97889142D01*
X98651854Y-97889142D02*
X98651854Y-97603428D01*
X98651854Y-97603428D02*
X98699473Y-97508190D01*
X98699473Y-97508190D02*
X98747092Y-97460571D01*
X98747092Y-97460571D02*
X98842330Y-97412952D01*
X98842330Y-97412952D02*
X98985187Y-97412952D01*
X98985187Y-97412952D02*
X99080425Y-97460571D01*
X99080425Y-97460571D02*
X99128044Y-97508190D01*
X99128044Y-97508190D02*
X99175663Y-97603428D01*
X99175663Y-97603428D02*
X99175663Y-97889142D01*
X99175663Y-97889142D02*
X99128044Y-97984380D01*
X99128044Y-97984380D02*
X99080425Y-98032000D01*
X99080425Y-98032000D02*
X98985187Y-98079619D01*
X98985187Y-98079619D02*
X98842330Y-98079619D01*
X99604235Y-97412952D02*
X99604235Y-98079619D01*
X99604235Y-97508190D02*
X99651854Y-97460571D01*
X99651854Y-97460571D02*
X99747092Y-97412952D01*
X99747092Y-97412952D02*
X99889949Y-97412952D01*
X99889949Y-97412952D02*
X99985187Y-97460571D01*
X99985187Y-97460571D02*
X100032806Y-97555809D01*
X100032806Y-97555809D02*
X100032806Y-98079619D01*
X100508997Y-98079619D02*
X100508997Y-97412952D01*
X100508997Y-97079619D02*
X100461378Y-97127238D01*
X100461378Y-97127238D02*
X100508997Y-97174857D01*
X100508997Y-97174857D02*
X100556616Y-97127238D01*
X100556616Y-97127238D02*
X100508997Y-97079619D01*
X100508997Y-97079619D02*
X100508997Y-97174857D01*
X100985187Y-98079619D02*
X100985187Y-97079619D01*
X101080425Y-97698666D02*
X101366139Y-98079619D01*
X101366139Y-97412952D02*
X100985187Y-97793904D01*
X101794711Y-98079619D02*
X101794711Y-97412952D01*
X101794711Y-97079619D02*
X101747092Y-97127238D01*
X101747092Y-97127238D02*
X101794711Y-97174857D01*
X101794711Y-97174857D02*
X101842330Y-97127238D01*
X101842330Y-97127238D02*
X101794711Y-97079619D01*
X101794711Y-97079619D02*
X101794711Y-97174857D01*
X102413758Y-98079619D02*
X102318520Y-98032000D01*
X102318520Y-98032000D02*
X102270901Y-97936761D01*
X102270901Y-97936761D02*
X102270901Y-97079619D01*
X102937568Y-98079619D02*
X102842330Y-98032000D01*
X102842330Y-98032000D02*
X102794711Y-97936761D01*
X102794711Y-97936761D02*
X102794711Y-97079619D01*
X103699473Y-98032000D02*
X103604235Y-98079619D01*
X103604235Y-98079619D02*
X103413759Y-98079619D01*
X103413759Y-98079619D02*
X103318521Y-98032000D01*
X103318521Y-98032000D02*
X103270902Y-97936761D01*
X103270902Y-97936761D02*
X103270902Y-97555809D01*
X103270902Y-97555809D02*
X103318521Y-97460571D01*
X103318521Y-97460571D02*
X103413759Y-97412952D01*
X103413759Y-97412952D02*
X103604235Y-97412952D01*
X103604235Y-97412952D02*
X103699473Y-97460571D01*
X103699473Y-97460571D02*
X103747092Y-97555809D01*
X103747092Y-97555809D02*
X103747092Y-97651047D01*
X103747092Y-97651047D02*
X103270902Y-97746285D01*
X104175664Y-98079619D02*
X104175664Y-97412952D01*
X104175664Y-97603428D02*
X104223283Y-97508190D01*
X104223283Y-97508190D02*
X104270902Y-97460571D01*
X104270902Y-97460571D02*
X104366140Y-97412952D01*
X104366140Y-97412952D02*
X104461378Y-97412952D01*
X105318521Y-98079619D02*
X104747093Y-98079619D01*
X105032807Y-98079619D02*
X105032807Y-97079619D01*
X105032807Y-97079619D02*
X104937569Y-97222476D01*
X104937569Y-97222476D02*
X104842331Y-97317714D01*
X104842331Y-97317714D02*
X104747093Y-97365333D01*
X105937569Y-97079619D02*
X106032807Y-97079619D01*
X106032807Y-97079619D02*
X106128045Y-97127238D01*
X106128045Y-97127238D02*
X106175664Y-97174857D01*
X106175664Y-97174857D02*
X106223283Y-97270095D01*
X106223283Y-97270095D02*
X106270902Y-97460571D01*
X106270902Y-97460571D02*
X106270902Y-97698666D01*
X106270902Y-97698666D02*
X106223283Y-97889142D01*
X106223283Y-97889142D02*
X106175664Y-97984380D01*
X106175664Y-97984380D02*
X106128045Y-98032000D01*
X106128045Y-98032000D02*
X106032807Y-98079619D01*
X106032807Y-98079619D02*
X105937569Y-98079619D01*
X105937569Y-98079619D02*
X105842331Y-98032000D01*
X105842331Y-98032000D02*
X105794712Y-97984380D01*
X105794712Y-97984380D02*
X105747093Y-97889142D01*
X105747093Y-97889142D02*
X105699474Y-97698666D01*
X105699474Y-97698666D02*
X105699474Y-97460571D01*
X105699474Y-97460571D02*
X105747093Y-97270095D01*
X105747093Y-97270095D02*
X105794712Y-97174857D01*
X105794712Y-97174857D02*
X105842331Y-97127238D01*
X105842331Y-97127238D02*
X105937569Y-97079619D01*
X106889950Y-97079619D02*
X106985188Y-97079619D01*
X106985188Y-97079619D02*
X107080426Y-97127238D01*
X107080426Y-97127238D02*
X107128045Y-97174857D01*
X107128045Y-97174857D02*
X107175664Y-97270095D01*
X107175664Y-97270095D02*
X107223283Y-97460571D01*
X107223283Y-97460571D02*
X107223283Y-97698666D01*
X107223283Y-97698666D02*
X107175664Y-97889142D01*
X107175664Y-97889142D02*
X107128045Y-97984380D01*
X107128045Y-97984380D02*
X107080426Y-98032000D01*
X107080426Y-98032000D02*
X106985188Y-98079619D01*
X106985188Y-98079619D02*
X106889950Y-98079619D01*
X106889950Y-98079619D02*
X106794712Y-98032000D01*
X106794712Y-98032000D02*
X106747093Y-97984380D01*
X106747093Y-97984380D02*
X106699474Y-97889142D01*
X106699474Y-97889142D02*
X106651855Y-97698666D01*
X106651855Y-97698666D02*
X106651855Y-97460571D01*
X106651855Y-97460571D02*
X106699474Y-97270095D01*
X106699474Y-97270095D02*
X106747093Y-97174857D01*
X106747093Y-97174857D02*
X106794712Y-97127238D01*
X106794712Y-97127238D02*
X106889950Y-97079619D01*
X107842331Y-97079619D02*
X107937569Y-97079619D01*
X107937569Y-97079619D02*
X108032807Y-97127238D01*
X108032807Y-97127238D02*
X108080426Y-97174857D01*
X108080426Y-97174857D02*
X108128045Y-97270095D01*
X108128045Y-97270095D02*
X108175664Y-97460571D01*
X108175664Y-97460571D02*
X108175664Y-97698666D01*
X108175664Y-97698666D02*
X108128045Y-97889142D01*
X108128045Y-97889142D02*
X108080426Y-97984380D01*
X108080426Y-97984380D02*
X108032807Y-98032000D01*
X108032807Y-98032000D02*
X107937569Y-98079619D01*
X107937569Y-98079619D02*
X107842331Y-98079619D01*
X107842331Y-98079619D02*
X107747093Y-98032000D01*
X107747093Y-98032000D02*
X107699474Y-97984380D01*
X107699474Y-97984380D02*
X107651855Y-97889142D01*
X107651855Y-97889142D02*
X107604236Y-97698666D01*
X107604236Y-97698666D02*
X107604236Y-97460571D01*
X107604236Y-97460571D02*
X107651855Y-97270095D01*
X107651855Y-97270095D02*
X107699474Y-97174857D01*
X107699474Y-97174857D02*
X107747093Y-97127238D01*
X107747093Y-97127238D02*
X107842331Y-97079619D01*
X108794712Y-97079619D02*
X108889950Y-97079619D01*
X108889950Y-97079619D02*
X108985188Y-97127238D01*
X108985188Y-97127238D02*
X109032807Y-97174857D01*
X109032807Y-97174857D02*
X109080426Y-97270095D01*
X109080426Y-97270095D02*
X109128045Y-97460571D01*
X109128045Y-97460571D02*
X109128045Y-97698666D01*
X109128045Y-97698666D02*
X109080426Y-97889142D01*
X109080426Y-97889142D02*
X109032807Y-97984380D01*
X109032807Y-97984380D02*
X108985188Y-98032000D01*
X108985188Y-98032000D02*
X108889950Y-98079619D01*
X108889950Y-98079619D02*
X108794712Y-98079619D01*
X108794712Y-98079619D02*
X108699474Y-98032000D01*
X108699474Y-98032000D02*
X108651855Y-97984380D01*
X108651855Y-97984380D02*
X108604236Y-97889142D01*
X108604236Y-97889142D02*
X108556617Y-97698666D01*
X108556617Y-97698666D02*
X108556617Y-97460571D01*
X108556617Y-97460571D02*
X108604236Y-97270095D01*
X108604236Y-97270095D02*
X108651855Y-97174857D01*
X108651855Y-97174857D02*
X108699474Y-97127238D01*
X108699474Y-97127238D02*
X108794712Y-97079619D01*
D17*
X101748609Y-89490236D02*
X101748609Y-90023570D01*
X101558133Y-89185475D02*
X101367656Y-89756903D01*
X101367656Y-89756903D02*
X101862895Y-89756903D01*
X103158133Y-90023570D02*
X102777181Y-90023570D01*
X102777181Y-90023570D02*
X102777181Y-89223570D01*
X103767657Y-90023570D02*
X103767657Y-89604522D01*
X103767657Y-89604522D02*
X103729562Y-89528332D01*
X103729562Y-89528332D02*
X103653371Y-89490236D01*
X103653371Y-89490236D02*
X103500990Y-89490236D01*
X103500990Y-89490236D02*
X103424800Y-89528332D01*
X103767657Y-89985475D02*
X103691466Y-90023570D01*
X103691466Y-90023570D02*
X103500990Y-90023570D01*
X103500990Y-90023570D02*
X103424800Y-89985475D01*
X103424800Y-89985475D02*
X103386704Y-89909284D01*
X103386704Y-89909284D02*
X103386704Y-89833094D01*
X103386704Y-89833094D02*
X103424800Y-89756903D01*
X103424800Y-89756903D02*
X103500990Y-89718808D01*
X103500990Y-89718808D02*
X103691466Y-89718808D01*
X103691466Y-89718808D02*
X103767657Y-89680713D01*
X104072419Y-89490236D02*
X104262895Y-90023570D01*
X104453372Y-89490236D02*
X104262895Y-90023570D01*
X104262895Y-90023570D02*
X104186705Y-90214046D01*
X104186705Y-90214046D02*
X104148610Y-90252141D01*
X104148610Y-90252141D02*
X104072419Y-90290236D01*
X105062896Y-89985475D02*
X104986705Y-90023570D01*
X104986705Y-90023570D02*
X104834324Y-90023570D01*
X104834324Y-90023570D02*
X104758134Y-89985475D01*
X104758134Y-89985475D02*
X104720038Y-89909284D01*
X104720038Y-89909284D02*
X104720038Y-89604522D01*
X104720038Y-89604522D02*
X104758134Y-89528332D01*
X104758134Y-89528332D02*
X104834324Y-89490236D01*
X104834324Y-89490236D02*
X104986705Y-89490236D01*
X104986705Y-89490236D02*
X105062896Y-89528332D01*
X105062896Y-89528332D02*
X105100991Y-89604522D01*
X105100991Y-89604522D02*
X105100991Y-89680713D01*
X105100991Y-89680713D02*
X104720038Y-89756903D01*
X105443848Y-90023570D02*
X105443848Y-89490236D01*
X105443848Y-89642617D02*
X105481943Y-89566427D01*
X105481943Y-89566427D02*
X105520038Y-89528332D01*
X105520038Y-89528332D02*
X105596229Y-89490236D01*
X105596229Y-89490236D02*
X105672419Y-89490236D01*
X101342656Y-80974760D02*
X101380752Y-80936665D01*
X101380752Y-80936665D02*
X101456942Y-80898570D01*
X101456942Y-80898570D02*
X101647418Y-80898570D01*
X101647418Y-80898570D02*
X101723609Y-80936665D01*
X101723609Y-80936665D02*
X101761704Y-80974760D01*
X101761704Y-80974760D02*
X101799799Y-81050951D01*
X101799799Y-81050951D02*
X101799799Y-81127141D01*
X101799799Y-81127141D02*
X101761704Y-81241427D01*
X101761704Y-81241427D02*
X101304561Y-81698570D01*
X101304561Y-81698570D02*
X101799799Y-81698570D01*
X103133133Y-81698570D02*
X102752181Y-81698570D01*
X102752181Y-81698570D02*
X102752181Y-80898570D01*
X103742657Y-81698570D02*
X103742657Y-81279522D01*
X103742657Y-81279522D02*
X103704562Y-81203332D01*
X103704562Y-81203332D02*
X103628371Y-81165236D01*
X103628371Y-81165236D02*
X103475990Y-81165236D01*
X103475990Y-81165236D02*
X103399800Y-81203332D01*
X103742657Y-81660475D02*
X103666466Y-81698570D01*
X103666466Y-81698570D02*
X103475990Y-81698570D01*
X103475990Y-81698570D02*
X103399800Y-81660475D01*
X103399800Y-81660475D02*
X103361704Y-81584284D01*
X103361704Y-81584284D02*
X103361704Y-81508094D01*
X103361704Y-81508094D02*
X103399800Y-81431903D01*
X103399800Y-81431903D02*
X103475990Y-81393808D01*
X103475990Y-81393808D02*
X103666466Y-81393808D01*
X103666466Y-81393808D02*
X103742657Y-81355713D01*
X104047419Y-81165236D02*
X104237895Y-81698570D01*
X104428372Y-81165236D02*
X104237895Y-81698570D01*
X104237895Y-81698570D02*
X104161705Y-81889046D01*
X104161705Y-81889046D02*
X104123610Y-81927141D01*
X104123610Y-81927141D02*
X104047419Y-81965236D01*
X105037896Y-81660475D02*
X104961705Y-81698570D01*
X104961705Y-81698570D02*
X104809324Y-81698570D01*
X104809324Y-81698570D02*
X104733134Y-81660475D01*
X104733134Y-81660475D02*
X104695038Y-81584284D01*
X104695038Y-81584284D02*
X104695038Y-81279522D01*
X104695038Y-81279522D02*
X104733134Y-81203332D01*
X104733134Y-81203332D02*
X104809324Y-81165236D01*
X104809324Y-81165236D02*
X104961705Y-81165236D01*
X104961705Y-81165236D02*
X105037896Y-81203332D01*
X105037896Y-81203332D02*
X105075991Y-81279522D01*
X105075991Y-81279522D02*
X105075991Y-81355713D01*
X105075991Y-81355713D02*
X104695038Y-81431903D01*
X105418848Y-81698570D02*
X105418848Y-81165236D01*
X105418848Y-81317617D02*
X105456943Y-81241427D01*
X105456943Y-81241427D02*
X105495038Y-81203332D01*
X105495038Y-81203332D02*
X105571229Y-81165236D01*
X105571229Y-81165236D02*
X105647419Y-81165236D01*
X121374799Y-93098570D02*
X120917656Y-93098570D01*
X121146228Y-93098570D02*
X121146228Y-92298570D01*
X121146228Y-92298570D02*
X121070037Y-92412855D01*
X121070037Y-92412855D02*
X120993847Y-92489046D01*
X120993847Y-92489046D02*
X120917656Y-92527141D01*
X121984323Y-92679522D02*
X122098609Y-92717617D01*
X122098609Y-92717617D02*
X122136704Y-92755713D01*
X122136704Y-92755713D02*
X122174800Y-92831903D01*
X122174800Y-92831903D02*
X122174800Y-92946189D01*
X122174800Y-92946189D02*
X122136704Y-93022379D01*
X122136704Y-93022379D02*
X122098609Y-93060475D01*
X122098609Y-93060475D02*
X122022419Y-93098570D01*
X122022419Y-93098570D02*
X121717657Y-93098570D01*
X121717657Y-93098570D02*
X121717657Y-92298570D01*
X121717657Y-92298570D02*
X121984323Y-92298570D01*
X121984323Y-92298570D02*
X122060514Y-92336665D01*
X122060514Y-92336665D02*
X122098609Y-92374760D01*
X122098609Y-92374760D02*
X122136704Y-92450951D01*
X122136704Y-92450951D02*
X122136704Y-92527141D01*
X122136704Y-92527141D02*
X122098609Y-92603332D01*
X122098609Y-92603332D02*
X122060514Y-92641427D01*
X122060514Y-92641427D02*
X121984323Y-92679522D01*
X121984323Y-92679522D02*
X121717657Y-92679522D01*
X122517657Y-93098570D02*
X122517657Y-92298570D01*
D15*
X138483771Y-108734553D02*
X138483771Y-108034553D01*
X138483771Y-108034553D02*
X138650438Y-108034553D01*
X138650438Y-108034553D02*
X138750438Y-108067886D01*
X138750438Y-108067886D02*
X138817105Y-108134553D01*
X138817105Y-108134553D02*
X138850438Y-108201220D01*
X138850438Y-108201220D02*
X138883771Y-108334553D01*
X138883771Y-108334553D02*
X138883771Y-108434553D01*
X138883771Y-108434553D02*
X138850438Y-108567886D01*
X138850438Y-108567886D02*
X138817105Y-108634553D01*
X138817105Y-108634553D02*
X138750438Y-108701220D01*
X138750438Y-108701220D02*
X138650438Y-108734553D01*
X138650438Y-108734553D02*
X138483771Y-108734553D01*
X139117105Y-108034553D02*
X139550438Y-108034553D01*
X139550438Y-108034553D02*
X139317105Y-108301220D01*
X139317105Y-108301220D02*
X139417105Y-108301220D01*
X139417105Y-108301220D02*
X139483771Y-108334553D01*
X139483771Y-108334553D02*
X139517105Y-108367886D01*
X139517105Y-108367886D02*
X139550438Y-108434553D01*
X139550438Y-108434553D02*
X139550438Y-108601220D01*
X139550438Y-108601220D02*
X139517105Y-108667886D01*
X139517105Y-108667886D02*
X139483771Y-108701220D01*
X139483771Y-108701220D02*
X139417105Y-108734553D01*
X139417105Y-108734553D02*
X139217105Y-108734553D01*
X139217105Y-108734553D02*
X139150438Y-108701220D01*
X139150438Y-108701220D02*
X139117105Y-108667886D01*
D17*
X137691266Y-123685326D02*
X137691266Y-122923422D01*
D15*
X138742105Y-98317886D02*
X138842105Y-98351220D01*
X138842105Y-98351220D02*
X138875438Y-98384553D01*
X138875438Y-98384553D02*
X138908771Y-98451220D01*
X138908771Y-98451220D02*
X138908771Y-98551220D01*
X138908771Y-98551220D02*
X138875438Y-98617886D01*
X138875438Y-98617886D02*
X138842105Y-98651220D01*
X138842105Y-98651220D02*
X138775438Y-98684553D01*
X138775438Y-98684553D02*
X138508771Y-98684553D01*
X138508771Y-98684553D02*
X138508771Y-97984553D01*
X138508771Y-97984553D02*
X138742105Y-97984553D01*
X138742105Y-97984553D02*
X138808771Y-98017886D01*
X138808771Y-98017886D02*
X138842105Y-98051220D01*
X138842105Y-98051220D02*
X138875438Y-98117886D01*
X138875438Y-98117886D02*
X138875438Y-98184553D01*
X138875438Y-98184553D02*
X138842105Y-98251220D01*
X138842105Y-98251220D02*
X138808771Y-98284553D01*
X138808771Y-98284553D02*
X138742105Y-98317886D01*
X138742105Y-98317886D02*
X138508771Y-98317886D01*
X139575438Y-98684553D02*
X139175438Y-98684553D01*
X139375438Y-98684553D02*
X139375438Y-97984553D01*
X139375438Y-97984553D02*
X139308771Y-98084553D01*
X139308771Y-98084553D02*
X139242105Y-98151220D01*
X139242105Y-98151220D02*
X139175438Y-98184553D01*
D17*
X95624799Y-81648570D02*
X95167656Y-81648570D01*
X95396228Y-81648570D02*
X95396228Y-80848570D01*
X95396228Y-80848570D02*
X95320037Y-80962855D01*
X95320037Y-80962855D02*
X95243847Y-81039046D01*
X95243847Y-81039046D02*
X95167656Y-81077141D01*
X96958133Y-81648570D02*
X96577181Y-81648570D01*
X96577181Y-81648570D02*
X96577181Y-80848570D01*
X97567657Y-81648570D02*
X97567657Y-81229522D01*
X97567657Y-81229522D02*
X97529562Y-81153332D01*
X97529562Y-81153332D02*
X97453371Y-81115236D01*
X97453371Y-81115236D02*
X97300990Y-81115236D01*
X97300990Y-81115236D02*
X97224800Y-81153332D01*
X97567657Y-81610475D02*
X97491466Y-81648570D01*
X97491466Y-81648570D02*
X97300990Y-81648570D01*
X97300990Y-81648570D02*
X97224800Y-81610475D01*
X97224800Y-81610475D02*
X97186704Y-81534284D01*
X97186704Y-81534284D02*
X97186704Y-81458094D01*
X97186704Y-81458094D02*
X97224800Y-81381903D01*
X97224800Y-81381903D02*
X97300990Y-81343808D01*
X97300990Y-81343808D02*
X97491466Y-81343808D01*
X97491466Y-81343808D02*
X97567657Y-81305713D01*
X97872419Y-81115236D02*
X98062895Y-81648570D01*
X98253372Y-81115236D02*
X98062895Y-81648570D01*
X98062895Y-81648570D02*
X97986705Y-81839046D01*
X97986705Y-81839046D02*
X97948610Y-81877141D01*
X97948610Y-81877141D02*
X97872419Y-81915236D01*
X98862896Y-81610475D02*
X98786705Y-81648570D01*
X98786705Y-81648570D02*
X98634324Y-81648570D01*
X98634324Y-81648570D02*
X98558134Y-81610475D01*
X98558134Y-81610475D02*
X98520038Y-81534284D01*
X98520038Y-81534284D02*
X98520038Y-81229522D01*
X98520038Y-81229522D02*
X98558134Y-81153332D01*
X98558134Y-81153332D02*
X98634324Y-81115236D01*
X98634324Y-81115236D02*
X98786705Y-81115236D01*
X98786705Y-81115236D02*
X98862896Y-81153332D01*
X98862896Y-81153332D02*
X98900991Y-81229522D01*
X98900991Y-81229522D02*
X98900991Y-81305713D01*
X98900991Y-81305713D02*
X98520038Y-81381903D01*
X99243848Y-81648570D02*
X99243848Y-81115236D01*
X99243848Y-81267617D02*
X99281943Y-81191427D01*
X99281943Y-81191427D02*
X99320038Y-81153332D01*
X99320038Y-81153332D02*
X99396229Y-81115236D01*
X99396229Y-81115236D02*
X99472419Y-81115236D01*
X108673609Y-92860475D02*
X108597418Y-92898570D01*
X108597418Y-92898570D02*
X108445037Y-92898570D01*
X108445037Y-92898570D02*
X108368847Y-92860475D01*
X108368847Y-92860475D02*
X108330752Y-92822379D01*
X108330752Y-92822379D02*
X108292656Y-92746189D01*
X108292656Y-92746189D02*
X108292656Y-92517617D01*
X108292656Y-92517617D02*
X108330752Y-92441427D01*
X108330752Y-92441427D02*
X108368847Y-92403332D01*
X108368847Y-92403332D02*
X108445037Y-92365236D01*
X108445037Y-92365236D02*
X108597418Y-92365236D01*
X108597418Y-92365236D02*
X108673609Y-92403332D01*
X109359323Y-92898570D02*
X109359323Y-92479522D01*
X109359323Y-92479522D02*
X109321228Y-92403332D01*
X109321228Y-92403332D02*
X109245037Y-92365236D01*
X109245037Y-92365236D02*
X109092656Y-92365236D01*
X109092656Y-92365236D02*
X109016466Y-92403332D01*
X109359323Y-92860475D02*
X109283132Y-92898570D01*
X109283132Y-92898570D02*
X109092656Y-92898570D01*
X109092656Y-92898570D02*
X109016466Y-92860475D01*
X109016466Y-92860475D02*
X108978370Y-92784284D01*
X108978370Y-92784284D02*
X108978370Y-92708094D01*
X108978370Y-92708094D02*
X109016466Y-92631903D01*
X109016466Y-92631903D02*
X109092656Y-92593808D01*
X109092656Y-92593808D02*
X109283132Y-92593808D01*
X109283132Y-92593808D02*
X109359323Y-92555713D01*
X109702180Y-92860475D02*
X109778371Y-92898570D01*
X109778371Y-92898570D02*
X109930752Y-92898570D01*
X109930752Y-92898570D02*
X110006942Y-92860475D01*
X110006942Y-92860475D02*
X110045038Y-92784284D01*
X110045038Y-92784284D02*
X110045038Y-92746189D01*
X110045038Y-92746189D02*
X110006942Y-92669998D01*
X110006942Y-92669998D02*
X109930752Y-92631903D01*
X109930752Y-92631903D02*
X109816466Y-92631903D01*
X109816466Y-92631903D02*
X109740276Y-92593808D01*
X109740276Y-92593808D02*
X109702180Y-92517617D01*
X109702180Y-92517617D02*
X109702180Y-92479522D01*
X109702180Y-92479522D02*
X109740276Y-92403332D01*
X109740276Y-92403332D02*
X109816466Y-92365236D01*
X109816466Y-92365236D02*
X109930752Y-92365236D01*
X109930752Y-92365236D02*
X110006942Y-92403332D01*
X110692657Y-92860475D02*
X110616466Y-92898570D01*
X110616466Y-92898570D02*
X110464085Y-92898570D01*
X110464085Y-92898570D02*
X110387895Y-92860475D01*
X110387895Y-92860475D02*
X110349799Y-92784284D01*
X110349799Y-92784284D02*
X110349799Y-92479522D01*
X110349799Y-92479522D02*
X110387895Y-92403332D01*
X110387895Y-92403332D02*
X110464085Y-92365236D01*
X110464085Y-92365236D02*
X110616466Y-92365236D01*
X110616466Y-92365236D02*
X110692657Y-92403332D01*
X110692657Y-92403332D02*
X110730752Y-92479522D01*
X110730752Y-92479522D02*
X110730752Y-92555713D01*
X110730752Y-92555713D02*
X110349799Y-92631903D01*
D15*
X138433771Y-106084553D02*
X138433771Y-105384553D01*
X138433771Y-105384553D02*
X138600438Y-105384553D01*
X138600438Y-105384553D02*
X138700438Y-105417886D01*
X138700438Y-105417886D02*
X138767105Y-105484553D01*
X138767105Y-105484553D02*
X138800438Y-105551220D01*
X138800438Y-105551220D02*
X138833771Y-105684553D01*
X138833771Y-105684553D02*
X138833771Y-105784553D01*
X138833771Y-105784553D02*
X138800438Y-105917886D01*
X138800438Y-105917886D02*
X138767105Y-105984553D01*
X138767105Y-105984553D02*
X138700438Y-106051220D01*
X138700438Y-106051220D02*
X138600438Y-106084553D01*
X138600438Y-106084553D02*
X138433771Y-106084553D01*
X139100438Y-105451220D02*
X139133771Y-105417886D01*
X139133771Y-105417886D02*
X139200438Y-105384553D01*
X139200438Y-105384553D02*
X139367105Y-105384553D01*
X139367105Y-105384553D02*
X139433771Y-105417886D01*
X139433771Y-105417886D02*
X139467105Y-105451220D01*
X139467105Y-105451220D02*
X139500438Y-105517886D01*
X139500438Y-105517886D02*
X139500438Y-105584553D01*
X139500438Y-105584553D02*
X139467105Y-105684553D01*
X139467105Y-105684553D02*
X139067105Y-106084553D01*
X139067105Y-106084553D02*
X139500438Y-106084553D01*
D17*
X125972768Y-110600445D02*
X126429911Y-110600445D01*
X126201339Y-111400445D02*
X126201339Y-110600445D01*
X126696578Y-111400445D02*
X126696578Y-110600445D01*
X127153721Y-111400445D02*
X126810863Y-110943302D01*
X127153721Y-110600445D02*
X126696578Y-111057588D01*
X127915625Y-111400445D02*
X127458482Y-111400445D01*
X127687054Y-111400445D02*
X127687054Y-110600445D01*
X127687054Y-110600445D02*
X127610863Y-110714730D01*
X127610863Y-110714730D02*
X127534673Y-110790921D01*
X127534673Y-110790921D02*
X127458482Y-110829016D01*
X128410864Y-110600445D02*
X128487054Y-110600445D01*
X128487054Y-110600445D02*
X128563245Y-110638540D01*
X128563245Y-110638540D02*
X128601340Y-110676635D01*
X128601340Y-110676635D02*
X128639435Y-110752826D01*
X128639435Y-110752826D02*
X128677530Y-110905207D01*
X128677530Y-110905207D02*
X128677530Y-111095683D01*
X128677530Y-111095683D02*
X128639435Y-111248064D01*
X128639435Y-111248064D02*
X128601340Y-111324254D01*
X128601340Y-111324254D02*
X128563245Y-111362350D01*
X128563245Y-111362350D02*
X128487054Y-111400445D01*
X128487054Y-111400445D02*
X128410864Y-111400445D01*
X128410864Y-111400445D02*
X128334673Y-111362350D01*
X128334673Y-111362350D02*
X128296578Y-111324254D01*
X128296578Y-111324254D02*
X128258483Y-111248064D01*
X128258483Y-111248064D02*
X128220387Y-111095683D01*
X128220387Y-111095683D02*
X128220387Y-110905207D01*
X128220387Y-110905207D02*
X128258483Y-110752826D01*
X128258483Y-110752826D02*
X128296578Y-110676635D01*
X128296578Y-110676635D02*
X128334673Y-110638540D01*
X128334673Y-110638540D02*
X128410864Y-110600445D01*
X128944197Y-110600445D02*
X129439435Y-110600445D01*
X129439435Y-110600445D02*
X129172769Y-110905207D01*
X129172769Y-110905207D02*
X129287054Y-110905207D01*
X129287054Y-110905207D02*
X129363245Y-110943302D01*
X129363245Y-110943302D02*
X129401340Y-110981397D01*
X129401340Y-110981397D02*
X129439435Y-111057588D01*
X129439435Y-111057588D02*
X129439435Y-111248064D01*
X129439435Y-111248064D02*
X129401340Y-111324254D01*
X129401340Y-111324254D02*
X129363245Y-111362350D01*
X129363245Y-111362350D02*
X129287054Y-111400445D01*
X129287054Y-111400445D02*
X129058483Y-111400445D01*
X129058483Y-111400445D02*
X128982292Y-111362350D01*
X128982292Y-111362350D02*
X128944197Y-111324254D01*
D11*
X107099619Y-128280288D02*
X107099619Y-127708860D01*
X108099619Y-127994574D02*
X107099619Y-127994574D01*
X108099619Y-127232669D02*
X108052000Y-127327907D01*
X108052000Y-127327907D02*
X108004380Y-127375526D01*
X108004380Y-127375526D02*
X107909142Y-127423145D01*
X107909142Y-127423145D02*
X107623428Y-127423145D01*
X107623428Y-127423145D02*
X107528190Y-127375526D01*
X107528190Y-127375526D02*
X107480571Y-127327907D01*
X107480571Y-127327907D02*
X107432952Y-127232669D01*
X107432952Y-127232669D02*
X107432952Y-127089812D01*
X107432952Y-127089812D02*
X107480571Y-126994574D01*
X107480571Y-126994574D02*
X107528190Y-126946955D01*
X107528190Y-126946955D02*
X107623428Y-126899336D01*
X107623428Y-126899336D02*
X107909142Y-126899336D01*
X107909142Y-126899336D02*
X108004380Y-126946955D01*
X108004380Y-126946955D02*
X108052000Y-126994574D01*
X108052000Y-126994574D02*
X108099619Y-127089812D01*
X108099619Y-127089812D02*
X108099619Y-127232669D01*
X107432952Y-126470764D02*
X108099619Y-126470764D01*
X107528190Y-126470764D02*
X107480571Y-126423145D01*
X107480571Y-126423145D02*
X107432952Y-126327907D01*
X107432952Y-126327907D02*
X107432952Y-126185050D01*
X107432952Y-126185050D02*
X107480571Y-126089812D01*
X107480571Y-126089812D02*
X107575809Y-126042193D01*
X107575809Y-126042193D02*
X108099619Y-126042193D01*
X108099619Y-125566002D02*
X107432952Y-125566002D01*
X107099619Y-125566002D02*
X107147238Y-125613621D01*
X107147238Y-125613621D02*
X107194857Y-125566002D01*
X107194857Y-125566002D02*
X107147238Y-125518383D01*
X107147238Y-125518383D02*
X107099619Y-125566002D01*
X107099619Y-125566002D02*
X107194857Y-125566002D01*
X108099619Y-125089812D02*
X107099619Y-125089812D01*
X107718666Y-124994574D02*
X108099619Y-124708860D01*
X107432952Y-124708860D02*
X107813904Y-125089812D01*
X108099619Y-124280288D02*
X107432952Y-124280288D01*
X107099619Y-124280288D02*
X107147238Y-124327907D01*
X107147238Y-124327907D02*
X107194857Y-124280288D01*
X107194857Y-124280288D02*
X107147238Y-124232669D01*
X107147238Y-124232669D02*
X107099619Y-124280288D01*
X107099619Y-124280288D02*
X107194857Y-124280288D01*
X108099619Y-123661241D02*
X108052000Y-123756479D01*
X108052000Y-123756479D02*
X107956761Y-123804098D01*
X107956761Y-123804098D02*
X107099619Y-123804098D01*
X108099619Y-123137431D02*
X108052000Y-123232669D01*
X108052000Y-123232669D02*
X107956761Y-123280288D01*
X107956761Y-123280288D02*
X107099619Y-123280288D01*
X108052000Y-122375526D02*
X108099619Y-122470764D01*
X108099619Y-122470764D02*
X108099619Y-122661240D01*
X108099619Y-122661240D02*
X108052000Y-122756478D01*
X108052000Y-122756478D02*
X107956761Y-122804097D01*
X107956761Y-122804097D02*
X107575809Y-122804097D01*
X107575809Y-122804097D02*
X107480571Y-122756478D01*
X107480571Y-122756478D02*
X107432952Y-122661240D01*
X107432952Y-122661240D02*
X107432952Y-122470764D01*
X107432952Y-122470764D02*
X107480571Y-122375526D01*
X107480571Y-122375526D02*
X107575809Y-122327907D01*
X107575809Y-122327907D02*
X107671047Y-122327907D01*
X107671047Y-122327907D02*
X107766285Y-122804097D01*
X108099619Y-121899335D02*
X107432952Y-121899335D01*
X107623428Y-121899335D02*
X107528190Y-121851716D01*
X107528190Y-121851716D02*
X107480571Y-121804097D01*
X107480571Y-121804097D02*
X107432952Y-121708859D01*
X107432952Y-121708859D02*
X107432952Y-121613621D01*
X108099619Y-120756478D02*
X108099619Y-121327906D01*
X108099619Y-121042192D02*
X107099619Y-121042192D01*
X107099619Y-121042192D02*
X107242476Y-121137430D01*
X107242476Y-121137430D02*
X107337714Y-121232668D01*
X107337714Y-121232668D02*
X107385333Y-121327906D01*
X107099619Y-120137430D02*
X107099619Y-120042192D01*
X107099619Y-120042192D02*
X107147238Y-119946954D01*
X107147238Y-119946954D02*
X107194857Y-119899335D01*
X107194857Y-119899335D02*
X107290095Y-119851716D01*
X107290095Y-119851716D02*
X107480571Y-119804097D01*
X107480571Y-119804097D02*
X107718666Y-119804097D01*
X107718666Y-119804097D02*
X107909142Y-119851716D01*
X107909142Y-119851716D02*
X108004380Y-119899335D01*
X108004380Y-119899335D02*
X108052000Y-119946954D01*
X108052000Y-119946954D02*
X108099619Y-120042192D01*
X108099619Y-120042192D02*
X108099619Y-120137430D01*
X108099619Y-120137430D02*
X108052000Y-120232668D01*
X108052000Y-120232668D02*
X108004380Y-120280287D01*
X108004380Y-120280287D02*
X107909142Y-120327906D01*
X107909142Y-120327906D02*
X107718666Y-120375525D01*
X107718666Y-120375525D02*
X107480571Y-120375525D01*
X107480571Y-120375525D02*
X107290095Y-120327906D01*
X107290095Y-120327906D02*
X107194857Y-120280287D01*
X107194857Y-120280287D02*
X107147238Y-120232668D01*
X107147238Y-120232668D02*
X107099619Y-120137430D01*
X107099619Y-119185049D02*
X107099619Y-119089811D01*
X107099619Y-119089811D02*
X107147238Y-118994573D01*
X107147238Y-118994573D02*
X107194857Y-118946954D01*
X107194857Y-118946954D02*
X107290095Y-118899335D01*
X107290095Y-118899335D02*
X107480571Y-118851716D01*
X107480571Y-118851716D02*
X107718666Y-118851716D01*
X107718666Y-118851716D02*
X107909142Y-118899335D01*
X107909142Y-118899335D02*
X108004380Y-118946954D01*
X108004380Y-118946954D02*
X108052000Y-118994573D01*
X108052000Y-118994573D02*
X108099619Y-119089811D01*
X108099619Y-119089811D02*
X108099619Y-119185049D01*
X108099619Y-119185049D02*
X108052000Y-119280287D01*
X108052000Y-119280287D02*
X108004380Y-119327906D01*
X108004380Y-119327906D02*
X107909142Y-119375525D01*
X107909142Y-119375525D02*
X107718666Y-119423144D01*
X107718666Y-119423144D02*
X107480571Y-119423144D01*
X107480571Y-119423144D02*
X107290095Y-119375525D01*
X107290095Y-119375525D02*
X107194857Y-119327906D01*
X107194857Y-119327906D02*
X107147238Y-119280287D01*
X107147238Y-119280287D02*
X107099619Y-119185049D01*
X107099619Y-118232668D02*
X107099619Y-118137430D01*
X107099619Y-118137430D02*
X107147238Y-118042192D01*
X107147238Y-118042192D02*
X107194857Y-117994573D01*
X107194857Y-117994573D02*
X107290095Y-117946954D01*
X107290095Y-117946954D02*
X107480571Y-117899335D01*
X107480571Y-117899335D02*
X107718666Y-117899335D01*
X107718666Y-117899335D02*
X107909142Y-117946954D01*
X107909142Y-117946954D02*
X108004380Y-117994573D01*
X108004380Y-117994573D02*
X108052000Y-118042192D01*
X108052000Y-118042192D02*
X108099619Y-118137430D01*
X108099619Y-118137430D02*
X108099619Y-118232668D01*
X108099619Y-118232668D02*
X108052000Y-118327906D01*
X108052000Y-118327906D02*
X108004380Y-118375525D01*
X108004380Y-118375525D02*
X107909142Y-118423144D01*
X107909142Y-118423144D02*
X107718666Y-118470763D01*
X107718666Y-118470763D02*
X107480571Y-118470763D01*
X107480571Y-118470763D02*
X107290095Y-118423144D01*
X107290095Y-118423144D02*
X107194857Y-118375525D01*
X107194857Y-118375525D02*
X107147238Y-118327906D01*
X107147238Y-118327906D02*
X107099619Y-118232668D01*
X107099619Y-117280287D02*
X107099619Y-117185049D01*
X107099619Y-117185049D02*
X107147238Y-117089811D01*
X107147238Y-117089811D02*
X107194857Y-117042192D01*
X107194857Y-117042192D02*
X107290095Y-116994573D01*
X107290095Y-116994573D02*
X107480571Y-116946954D01*
X107480571Y-116946954D02*
X107718666Y-116946954D01*
X107718666Y-116946954D02*
X107909142Y-116994573D01*
X107909142Y-116994573D02*
X108004380Y-117042192D01*
X108004380Y-117042192D02*
X108052000Y-117089811D01*
X108052000Y-117089811D02*
X108099619Y-117185049D01*
X108099619Y-117185049D02*
X108099619Y-117280287D01*
X108099619Y-117280287D02*
X108052000Y-117375525D01*
X108052000Y-117375525D02*
X108004380Y-117423144D01*
X108004380Y-117423144D02*
X107909142Y-117470763D01*
X107909142Y-117470763D02*
X107718666Y-117518382D01*
X107718666Y-117518382D02*
X107480571Y-117518382D01*
X107480571Y-117518382D02*
X107290095Y-117470763D01*
X107290095Y-117470763D02*
X107194857Y-117423144D01*
X107194857Y-117423144D02*
X107147238Y-117375525D01*
X107147238Y-117375525D02*
X107099619Y-117280287D01*
D19*
X94472500Y-96547500D02*
X122952500Y-96547500D01*
X122952500Y-116147500D01*
X94472500Y-116147500D01*
X94472500Y-96547500D01*
D14*
X101468570Y-125224771D02*
X101525713Y-125224771D01*
X101525713Y-125224771D02*
X101582856Y-125253342D01*
X101582856Y-125253342D02*
X101611428Y-125281914D01*
X101611428Y-125281914D02*
X101639999Y-125339057D01*
X101639999Y-125339057D02*
X101668570Y-125453342D01*
X101668570Y-125453342D02*
X101668570Y-125596200D01*
X101668570Y-125596200D02*
X101639999Y-125710485D01*
X101639999Y-125710485D02*
X101611428Y-125767628D01*
X101611428Y-125767628D02*
X101582856Y-125796200D01*
X101582856Y-125796200D02*
X101525713Y-125824771D01*
X101525713Y-125824771D02*
X101468570Y-125824771D01*
X101468570Y-125824771D02*
X101411428Y-125796200D01*
X101411428Y-125796200D02*
X101382856Y-125767628D01*
X101382856Y-125767628D02*
X101354285Y-125710485D01*
X101354285Y-125710485D02*
X101325713Y-125596200D01*
X101325713Y-125596200D02*
X101325713Y-125453342D01*
X101325713Y-125453342D02*
X101354285Y-125339057D01*
X101354285Y-125339057D02*
X101382856Y-125281914D01*
X101382856Y-125281914D02*
X101411428Y-125253342D01*
X101411428Y-125253342D02*
X101468570Y-125224771D01*
X101925714Y-125767628D02*
X101954285Y-125796200D01*
X101954285Y-125796200D02*
X101925714Y-125824771D01*
X101925714Y-125824771D02*
X101897142Y-125796200D01*
X101897142Y-125796200D02*
X101925714Y-125767628D01*
X101925714Y-125767628D02*
X101925714Y-125824771D01*
X102182856Y-125281914D02*
X102211428Y-125253342D01*
X102211428Y-125253342D02*
X102268571Y-125224771D01*
X102268571Y-125224771D02*
X102411428Y-125224771D01*
X102411428Y-125224771D02*
X102468571Y-125253342D01*
X102468571Y-125253342D02*
X102497142Y-125281914D01*
X102497142Y-125281914D02*
X102525713Y-125339057D01*
X102525713Y-125339057D02*
X102525713Y-125396200D01*
X102525713Y-125396200D02*
X102497142Y-125481914D01*
X102497142Y-125481914D02*
X102154285Y-125824771D01*
X102154285Y-125824771D02*
X102525713Y-125824771D01*
X102754285Y-125281914D02*
X102782857Y-125253342D01*
X102782857Y-125253342D02*
X102840000Y-125224771D01*
X102840000Y-125224771D02*
X102982857Y-125224771D01*
X102982857Y-125224771D02*
X103040000Y-125253342D01*
X103040000Y-125253342D02*
X103068571Y-125281914D01*
X103068571Y-125281914D02*
X103097142Y-125339057D01*
X103097142Y-125339057D02*
X103097142Y-125396200D01*
X103097142Y-125396200D02*
X103068571Y-125481914D01*
X103068571Y-125481914D02*
X102725714Y-125824771D01*
X102725714Y-125824771D02*
X103097142Y-125824771D01*
X103611429Y-125424771D02*
X103611429Y-125824771D01*
X103354286Y-125424771D02*
X103354286Y-125739057D01*
X103354286Y-125739057D02*
X103382857Y-125796200D01*
X103382857Y-125796200D02*
X103440000Y-125824771D01*
X103440000Y-125824771D02*
X103525714Y-125824771D01*
X103525714Y-125824771D02*
X103582857Y-125796200D01*
X103582857Y-125796200D02*
X103611429Y-125767628D01*
X104097143Y-125510485D02*
X103897143Y-125510485D01*
X103897143Y-125824771D02*
X103897143Y-125224771D01*
X103897143Y-125224771D02*
X104182857Y-125224771D01*
D20*
X127993691Y-125739809D02*
X127707977Y-125739809D01*
X127850834Y-125739809D02*
X127850834Y-125239809D01*
X127850834Y-125239809D02*
X127803215Y-125311238D01*
X127803215Y-125311238D02*
X127755596Y-125358857D01*
X127755596Y-125358857D02*
X127707977Y-125382666D01*
X128303214Y-125239809D02*
X128350833Y-125239809D01*
X128350833Y-125239809D02*
X128398452Y-125263619D01*
X128398452Y-125263619D02*
X128422262Y-125287428D01*
X128422262Y-125287428D02*
X128446071Y-125335047D01*
X128446071Y-125335047D02*
X128469881Y-125430285D01*
X128469881Y-125430285D02*
X128469881Y-125549333D01*
X128469881Y-125549333D02*
X128446071Y-125644571D01*
X128446071Y-125644571D02*
X128422262Y-125692190D01*
X128422262Y-125692190D02*
X128398452Y-125716000D01*
X128398452Y-125716000D02*
X128350833Y-125739809D01*
X128350833Y-125739809D02*
X128303214Y-125739809D01*
X128303214Y-125739809D02*
X128255595Y-125716000D01*
X128255595Y-125716000D02*
X128231786Y-125692190D01*
X128231786Y-125692190D02*
X128207976Y-125644571D01*
X128207976Y-125644571D02*
X128184167Y-125549333D01*
X128184167Y-125549333D02*
X128184167Y-125430285D01*
X128184167Y-125430285D02*
X128207976Y-125335047D01*
X128207976Y-125335047D02*
X128231786Y-125287428D01*
X128231786Y-125287428D02*
X128255595Y-125263619D01*
X128255595Y-125263619D02*
X128303214Y-125239809D01*
X128779404Y-125239809D02*
X128827023Y-125239809D01*
X128827023Y-125239809D02*
X128874642Y-125263619D01*
X128874642Y-125263619D02*
X128898452Y-125287428D01*
X128898452Y-125287428D02*
X128922261Y-125335047D01*
X128922261Y-125335047D02*
X128946071Y-125430285D01*
X128946071Y-125430285D02*
X128946071Y-125549333D01*
X128946071Y-125549333D02*
X128922261Y-125644571D01*
X128922261Y-125644571D02*
X128898452Y-125692190D01*
X128898452Y-125692190D02*
X128874642Y-125716000D01*
X128874642Y-125716000D02*
X128827023Y-125739809D01*
X128827023Y-125739809D02*
X128779404Y-125739809D01*
X128779404Y-125739809D02*
X128731785Y-125716000D01*
X128731785Y-125716000D02*
X128707976Y-125692190D01*
X128707976Y-125692190D02*
X128684166Y-125644571D01*
X128684166Y-125644571D02*
X128660357Y-125549333D01*
X128660357Y-125549333D02*
X128660357Y-125430285D01*
X128660357Y-125430285D02*
X128684166Y-125335047D01*
X128684166Y-125335047D02*
X128707976Y-125287428D01*
X128707976Y-125287428D02*
X128731785Y-125263619D01*
X128731785Y-125263619D02*
X128779404Y-125239809D01*
X129374642Y-125406476D02*
X129374642Y-125739809D01*
X129160356Y-125406476D02*
X129160356Y-125668380D01*
X129160356Y-125668380D02*
X129184166Y-125716000D01*
X129184166Y-125716000D02*
X129231785Y-125739809D01*
X129231785Y-125739809D02*
X129303213Y-125739809D01*
X129303213Y-125739809D02*
X129350832Y-125716000D01*
X129350832Y-125716000D02*
X129374642Y-125692190D01*
X129779404Y-125477904D02*
X129612737Y-125477904D01*
X129612737Y-125739809D02*
X129612737Y-125239809D01*
X129612737Y-125239809D02*
X129850832Y-125239809D01*
D21*
X126806775Y-116886368D02*
X126006775Y-116886368D01*
X126006775Y-116886368D02*
X126806775Y-116429225D01*
X126806775Y-116429225D02*
X126006775Y-116429225D01*
X126806775Y-116048273D02*
X126006775Y-116048273D01*
X126006775Y-116048273D02*
X126006775Y-115743511D01*
X126006775Y-115743511D02*
X126044870Y-115667321D01*
X126044870Y-115667321D02*
X126082965Y-115629226D01*
X126082965Y-115629226D02*
X126159156Y-115591130D01*
X126159156Y-115591130D02*
X126273441Y-115591130D01*
X126273441Y-115591130D02*
X126349632Y-115629226D01*
X126349632Y-115629226D02*
X126387727Y-115667321D01*
X126387727Y-115667321D02*
X126425822Y-115743511D01*
X126425822Y-115743511D02*
X126425822Y-116048273D01*
X126806775Y-115248273D02*
X126006775Y-115248273D01*
X126006775Y-115248273D02*
X126806775Y-114791130D01*
X126806775Y-114791130D02*
X126006775Y-114791130D01*
D14*
X94232857Y-127014771D02*
X93947143Y-127014771D01*
X93947143Y-127014771D02*
X93918571Y-127300485D01*
X93918571Y-127300485D02*
X93947143Y-127271914D01*
X93947143Y-127271914D02*
X94004286Y-127243342D01*
X94004286Y-127243342D02*
X94147143Y-127243342D01*
X94147143Y-127243342D02*
X94204286Y-127271914D01*
X94204286Y-127271914D02*
X94232857Y-127300485D01*
X94232857Y-127300485D02*
X94261428Y-127357628D01*
X94261428Y-127357628D02*
X94261428Y-127500485D01*
X94261428Y-127500485D02*
X94232857Y-127557628D01*
X94232857Y-127557628D02*
X94204286Y-127586200D01*
X94204286Y-127586200D02*
X94147143Y-127614771D01*
X94147143Y-127614771D02*
X94004286Y-127614771D01*
X94004286Y-127614771D02*
X93947143Y-127586200D01*
X93947143Y-127586200D02*
X93918571Y-127557628D01*
X94518572Y-127614771D02*
X94518572Y-127014771D01*
X94861429Y-127614771D02*
X94604286Y-127271914D01*
X94861429Y-127014771D02*
X94518572Y-127357628D01*
X133858333Y-111869819D02*
X133858333Y-110869819D01*
X133858333Y-110869819D02*
X134429761Y-111869819D01*
X134429761Y-111869819D02*
X134429761Y-110869819D01*
X134905952Y-111346009D02*
X135239285Y-111346009D01*
X135382142Y-111869819D02*
X134905952Y-111869819D01*
X134905952Y-111869819D02*
X134905952Y-110869819D01*
X134905952Y-110869819D02*
X135382142Y-110869819D01*
X136286904Y-110869819D02*
X135810714Y-110869819D01*
X135810714Y-110869819D02*
X135763095Y-111346009D01*
X135763095Y-111346009D02*
X135810714Y-111298390D01*
X135810714Y-111298390D02*
X135905952Y-111250771D01*
X135905952Y-111250771D02*
X136144047Y-111250771D01*
X136144047Y-111250771D02*
X136239285Y-111298390D01*
X136239285Y-111298390D02*
X136286904Y-111346009D01*
X136286904Y-111346009D02*
X136334523Y-111441247D01*
X136334523Y-111441247D02*
X136334523Y-111679342D01*
X136334523Y-111679342D02*
X136286904Y-111774580D01*
X136286904Y-111774580D02*
X136239285Y-111822200D01*
X136239285Y-111822200D02*
X136144047Y-111869819D01*
X136144047Y-111869819D02*
X135905952Y-111869819D01*
X135905952Y-111869819D02*
X135810714Y-111822200D01*
X135810714Y-111822200D02*
X135763095Y-111774580D01*
X137239285Y-110869819D02*
X136763095Y-110869819D01*
X136763095Y-110869819D02*
X136715476Y-111346009D01*
X136715476Y-111346009D02*
X136763095Y-111298390D01*
X136763095Y-111298390D02*
X136858333Y-111250771D01*
X136858333Y-111250771D02*
X137096428Y-111250771D01*
X137096428Y-111250771D02*
X137191666Y-111298390D01*
X137191666Y-111298390D02*
X137239285Y-111346009D01*
X137239285Y-111346009D02*
X137286904Y-111441247D01*
X137286904Y-111441247D02*
X137286904Y-111679342D01*
X137286904Y-111679342D02*
X137239285Y-111774580D01*
X137239285Y-111774580D02*
X137191666Y-111822200D01*
X137191666Y-111822200D02*
X137096428Y-111869819D01*
X137096428Y-111869819D02*
X136858333Y-111869819D01*
X136858333Y-111869819D02*
X136763095Y-111822200D01*
X136763095Y-111822200D02*
X136715476Y-111774580D01*
X138191666Y-110869819D02*
X137715476Y-110869819D01*
X137715476Y-110869819D02*
X137667857Y-111346009D01*
X137667857Y-111346009D02*
X137715476Y-111298390D01*
X137715476Y-111298390D02*
X137810714Y-111250771D01*
X137810714Y-111250771D02*
X138048809Y-111250771D01*
X138048809Y-111250771D02*
X138144047Y-111298390D01*
X138144047Y-111298390D02*
X138191666Y-111346009D01*
X138191666Y-111346009D02*
X138239285Y-111441247D01*
X138239285Y-111441247D02*
X138239285Y-111679342D01*
X138239285Y-111679342D02*
X138191666Y-111774580D01*
X138191666Y-111774580D02*
X138144047Y-111822200D01*
X138144047Y-111822200D02*
X138048809Y-111869819D01*
X138048809Y-111869819D02*
X137810714Y-111869819D01*
X137810714Y-111869819D02*
X137715476Y-111822200D01*
X137715476Y-111822200D02*
X137667857Y-111774580D01*
X138667857Y-111869819D02*
X138667857Y-110869819D01*
X138667857Y-110869819D02*
X138905952Y-110869819D01*
X138905952Y-110869819D02*
X139048809Y-110917438D01*
X139048809Y-110917438D02*
X139144047Y-111012676D01*
X139144047Y-111012676D02*
X139191666Y-111107914D01*
X139191666Y-111107914D02*
X139239285Y-111298390D01*
X139239285Y-111298390D02*
X139239285Y-111441247D01*
X139239285Y-111441247D02*
X139191666Y-111631723D01*
X139191666Y-111631723D02*
X139144047Y-111726961D01*
X139144047Y-111726961D02*
X139048809Y-111822200D01*
X139048809Y-111822200D02*
X138905952Y-111869819D01*
X138905952Y-111869819D02*
X138667857Y-111869819D01*
X103451428Y-121554771D02*
X103108571Y-121554771D01*
X103280000Y-121554771D02*
X103280000Y-120954771D01*
X103280000Y-120954771D02*
X103222857Y-121040485D01*
X103222857Y-121040485D02*
X103165714Y-121097628D01*
X103165714Y-121097628D02*
X103108571Y-121126200D01*
X103708572Y-121554771D02*
X103708572Y-120954771D01*
X104051429Y-121554771D02*
X103794286Y-121211914D01*
X104051429Y-120954771D02*
X103708572Y-121297628D01*
X141012319Y-127532500D02*
X141012319Y-128008690D01*
X141012319Y-128008690D02*
X141488509Y-128056309D01*
X141488509Y-128056309D02*
X141440890Y-128008690D01*
X141440890Y-128008690D02*
X141393271Y-127913452D01*
X141393271Y-127913452D02*
X141393271Y-127675357D01*
X141393271Y-127675357D02*
X141440890Y-127580119D01*
X141440890Y-127580119D02*
X141488509Y-127532500D01*
X141488509Y-127532500D02*
X141583747Y-127484881D01*
X141583747Y-127484881D02*
X141821842Y-127484881D01*
X141821842Y-127484881D02*
X141917080Y-127532500D01*
X141917080Y-127532500D02*
X141964700Y-127580119D01*
X141964700Y-127580119D02*
X142012319Y-127675357D01*
X142012319Y-127675357D02*
X142012319Y-127913452D01*
X142012319Y-127913452D02*
X141964700Y-128008690D01*
X141964700Y-128008690D02*
X141917080Y-128056309D01*
X141012319Y-127199166D02*
X142012319Y-126865833D01*
X142012319Y-126865833D02*
X141012319Y-126532500D01*
X142107557Y-126437262D02*
X142107557Y-125675357D01*
X141012319Y-125246785D02*
X141012319Y-125056309D01*
X141012319Y-125056309D02*
X141059938Y-124961071D01*
X141059938Y-124961071D02*
X141155176Y-124865833D01*
X141155176Y-124865833D02*
X141345652Y-124818214D01*
X141345652Y-124818214D02*
X141678985Y-124818214D01*
X141678985Y-124818214D02*
X141869461Y-124865833D01*
X141869461Y-124865833D02*
X141964700Y-124961071D01*
X141964700Y-124961071D02*
X142012319Y-125056309D01*
X142012319Y-125056309D02*
X142012319Y-125246785D01*
X142012319Y-125246785D02*
X141964700Y-125342023D01*
X141964700Y-125342023D02*
X141869461Y-125437261D01*
X141869461Y-125437261D02*
X141678985Y-125484880D01*
X141678985Y-125484880D02*
X141345652Y-125484880D01*
X141345652Y-125484880D02*
X141155176Y-125437261D01*
X141155176Y-125437261D02*
X141059938Y-125342023D01*
X141059938Y-125342023D02*
X141012319Y-125246785D01*
X141012319Y-124389642D02*
X141821842Y-124389642D01*
X141821842Y-124389642D02*
X141917080Y-124342023D01*
X141917080Y-124342023D02*
X141964700Y-124294404D01*
X141964700Y-124294404D02*
X142012319Y-124199166D01*
X142012319Y-124199166D02*
X142012319Y-124008690D01*
X142012319Y-124008690D02*
X141964700Y-123913452D01*
X141964700Y-123913452D02*
X141917080Y-123865833D01*
X141917080Y-123865833D02*
X141821842Y-123818214D01*
X141821842Y-123818214D02*
X141012319Y-123818214D01*
X141012319Y-123484880D02*
X141012319Y-122913452D01*
X142012319Y-123199166D02*
X141012319Y-123199166D01*
X101024286Y-126884771D02*
X101024286Y-126284771D01*
X101024286Y-126284771D02*
X101367143Y-126884771D01*
X101367143Y-126884771D02*
X101367143Y-126284771D01*
X101652857Y-126884771D02*
X101652857Y-126284771D01*
X101652857Y-126284771D02*
X101881428Y-126284771D01*
X101881428Y-126284771D02*
X101938571Y-126313342D01*
X101938571Y-126313342D02*
X101967142Y-126341914D01*
X101967142Y-126341914D02*
X101995714Y-126399057D01*
X101995714Y-126399057D02*
X101995714Y-126484771D01*
X101995714Y-126484771D02*
X101967142Y-126541914D01*
X101967142Y-126541914D02*
X101938571Y-126570485D01*
X101938571Y-126570485D02*
X101881428Y-126599057D01*
X101881428Y-126599057D02*
X101652857Y-126599057D01*
X102252857Y-126884771D02*
X102252857Y-126284771D01*
X102252857Y-126284771D02*
X102595714Y-126884771D01*
X102595714Y-126884771D02*
X102595714Y-126284771D01*
D18*
X136007856Y-123806331D02*
X135664999Y-123806331D01*
X135836428Y-123806331D02*
X135836428Y-123206331D01*
X135836428Y-123206331D02*
X135779285Y-123292045D01*
X135779285Y-123292045D02*
X135722142Y-123349188D01*
X135722142Y-123349188D02*
X135664999Y-123377760D01*
X136522143Y-123406331D02*
X136522143Y-123806331D01*
X136265000Y-123406331D02*
X136265000Y-123720617D01*
X136265000Y-123720617D02*
X136293571Y-123777760D01*
X136293571Y-123777760D02*
X136350714Y-123806331D01*
X136350714Y-123806331D02*
X136436428Y-123806331D01*
X136436428Y-123806331D02*
X136493571Y-123777760D01*
X136493571Y-123777760D02*
X136522143Y-123749188D01*
X137007857Y-123492045D02*
X136807857Y-123492045D01*
X136807857Y-123806331D02*
X136807857Y-123206331D01*
X136807857Y-123206331D02*
X137093571Y-123206331D01*
X127569285Y-111670081D02*
X127454999Y-111670081D01*
X127454999Y-111670081D02*
X127397856Y-111698652D01*
X127397856Y-111698652D02*
X127369285Y-111727224D01*
X127369285Y-111727224D02*
X127312142Y-111812938D01*
X127312142Y-111812938D02*
X127283570Y-111927224D01*
X127283570Y-111927224D02*
X127283570Y-112155795D01*
X127283570Y-112155795D02*
X127312142Y-112212938D01*
X127312142Y-112212938D02*
X127340713Y-112241510D01*
X127340713Y-112241510D02*
X127397856Y-112270081D01*
X127397856Y-112270081D02*
X127512142Y-112270081D01*
X127512142Y-112270081D02*
X127569285Y-112241510D01*
X127569285Y-112241510D02*
X127597856Y-112212938D01*
X127597856Y-112212938D02*
X127626427Y-112155795D01*
X127626427Y-112155795D02*
X127626427Y-112012938D01*
X127626427Y-112012938D02*
X127597856Y-111955795D01*
X127597856Y-111955795D02*
X127569285Y-111927224D01*
X127569285Y-111927224D02*
X127512142Y-111898652D01*
X127512142Y-111898652D02*
X127397856Y-111898652D01*
X127397856Y-111898652D02*
X127340713Y-111927224D01*
X127340713Y-111927224D02*
X127312142Y-111955795D01*
X127312142Y-111955795D02*
X127283570Y-112012938D01*
X127969285Y-111927224D02*
X127912142Y-111898652D01*
X127912142Y-111898652D02*
X127883571Y-111870081D01*
X127883571Y-111870081D02*
X127854999Y-111812938D01*
X127854999Y-111812938D02*
X127854999Y-111784367D01*
X127854999Y-111784367D02*
X127883571Y-111727224D01*
X127883571Y-111727224D02*
X127912142Y-111698652D01*
X127912142Y-111698652D02*
X127969285Y-111670081D01*
X127969285Y-111670081D02*
X128083571Y-111670081D01*
X128083571Y-111670081D02*
X128140714Y-111698652D01*
X128140714Y-111698652D02*
X128169285Y-111727224D01*
X128169285Y-111727224D02*
X128197856Y-111784367D01*
X128197856Y-111784367D02*
X128197856Y-111812938D01*
X128197856Y-111812938D02*
X128169285Y-111870081D01*
X128169285Y-111870081D02*
X128140714Y-111898652D01*
X128140714Y-111898652D02*
X128083571Y-111927224D01*
X128083571Y-111927224D02*
X127969285Y-111927224D01*
X127969285Y-111927224D02*
X127912142Y-111955795D01*
X127912142Y-111955795D02*
X127883571Y-111984367D01*
X127883571Y-111984367D02*
X127854999Y-112041510D01*
X127854999Y-112041510D02*
X127854999Y-112155795D01*
X127854999Y-112155795D02*
X127883571Y-112212938D01*
X127883571Y-112212938D02*
X127912142Y-112241510D01*
X127912142Y-112241510D02*
X127969285Y-112270081D01*
X127969285Y-112270081D02*
X128083571Y-112270081D01*
X128083571Y-112270081D02*
X128140714Y-112241510D01*
X128140714Y-112241510D02*
X128169285Y-112212938D01*
X128169285Y-112212938D02*
X128197856Y-112155795D01*
X128197856Y-112155795D02*
X128197856Y-112041510D01*
X128197856Y-112041510D02*
X128169285Y-111984367D01*
X128169285Y-111984367D02*
X128140714Y-111955795D01*
X128140714Y-111955795D02*
X128083571Y-111927224D01*
X128569285Y-111670081D02*
X128626428Y-111670081D01*
X128626428Y-111670081D02*
X128683571Y-111698652D01*
X128683571Y-111698652D02*
X128712143Y-111727224D01*
X128712143Y-111727224D02*
X128740714Y-111784367D01*
X128740714Y-111784367D02*
X128769285Y-111898652D01*
X128769285Y-111898652D02*
X128769285Y-112041510D01*
X128769285Y-112041510D02*
X128740714Y-112155795D01*
X128740714Y-112155795D02*
X128712143Y-112212938D01*
X128712143Y-112212938D02*
X128683571Y-112241510D01*
X128683571Y-112241510D02*
X128626428Y-112270081D01*
X128626428Y-112270081D02*
X128569285Y-112270081D01*
X128569285Y-112270081D02*
X128512143Y-112241510D01*
X128512143Y-112241510D02*
X128483571Y-112212938D01*
X128483571Y-112212938D02*
X128455000Y-112155795D01*
X128455000Y-112155795D02*
X128426428Y-112041510D01*
X128426428Y-112041510D02*
X128426428Y-111898652D01*
X128426428Y-111898652D02*
X128455000Y-111784367D01*
X128455000Y-111784367D02*
X128483571Y-111727224D01*
X128483571Y-111727224D02*
X128512143Y-111698652D01*
X128512143Y-111698652D02*
X128569285Y-111670081D01*
X129283572Y-111870081D02*
X129283572Y-112270081D01*
X129026429Y-111870081D02*
X129026429Y-112184367D01*
X129026429Y-112184367D02*
X129055000Y-112241510D01*
X129055000Y-112241510D02*
X129112143Y-112270081D01*
X129112143Y-112270081D02*
X129197857Y-112270081D01*
X129197857Y-112270081D02*
X129255000Y-112241510D01*
X129255000Y-112241510D02*
X129283572Y-112212938D01*
X129769286Y-111955795D02*
X129569286Y-111955795D01*
X129569286Y-112270081D02*
X129569286Y-111670081D01*
X129569286Y-111670081D02*
X129855000Y-111670081D01*
D14*
X132060356Y-128602271D02*
X131774642Y-128602271D01*
X131774642Y-128602271D02*
X131774642Y-128002271D01*
X132203213Y-128002271D02*
X132603213Y-128002271D01*
X132603213Y-128002271D02*
X132346070Y-128602271D01*
X132917499Y-128259414D02*
X132860356Y-128230842D01*
X132860356Y-128230842D02*
X132831785Y-128202271D01*
X132831785Y-128202271D02*
X132803213Y-128145128D01*
X132803213Y-128145128D02*
X132803213Y-128116557D01*
X132803213Y-128116557D02*
X132831785Y-128059414D01*
X132831785Y-128059414D02*
X132860356Y-128030842D01*
X132860356Y-128030842D02*
X132917499Y-128002271D01*
X132917499Y-128002271D02*
X133031785Y-128002271D01*
X133031785Y-128002271D02*
X133088928Y-128030842D01*
X133088928Y-128030842D02*
X133117499Y-128059414D01*
X133117499Y-128059414D02*
X133146070Y-128116557D01*
X133146070Y-128116557D02*
X133146070Y-128145128D01*
X133146070Y-128145128D02*
X133117499Y-128202271D01*
X133117499Y-128202271D02*
X133088928Y-128230842D01*
X133088928Y-128230842D02*
X133031785Y-128259414D01*
X133031785Y-128259414D02*
X132917499Y-128259414D01*
X132917499Y-128259414D02*
X132860356Y-128287985D01*
X132860356Y-128287985D02*
X132831785Y-128316557D01*
X132831785Y-128316557D02*
X132803213Y-128373700D01*
X132803213Y-128373700D02*
X132803213Y-128487985D01*
X132803213Y-128487985D02*
X132831785Y-128545128D01*
X132831785Y-128545128D02*
X132860356Y-128573700D01*
X132860356Y-128573700D02*
X132917499Y-128602271D01*
X132917499Y-128602271D02*
X133031785Y-128602271D01*
X133031785Y-128602271D02*
X133088928Y-128573700D01*
X133088928Y-128573700D02*
X133117499Y-128545128D01*
X133117499Y-128545128D02*
X133146070Y-128487985D01*
X133146070Y-128487985D02*
X133146070Y-128373700D01*
X133146070Y-128373700D02*
X133117499Y-128316557D01*
X133117499Y-128316557D02*
X133088928Y-128287985D01*
X133088928Y-128287985D02*
X133031785Y-128259414D01*
X133517499Y-128002271D02*
X133574642Y-128002271D01*
X133574642Y-128002271D02*
X133631785Y-128030842D01*
X133631785Y-128030842D02*
X133660357Y-128059414D01*
X133660357Y-128059414D02*
X133688928Y-128116557D01*
X133688928Y-128116557D02*
X133717499Y-128230842D01*
X133717499Y-128230842D02*
X133717499Y-128373700D01*
X133717499Y-128373700D02*
X133688928Y-128487985D01*
X133688928Y-128487985D02*
X133660357Y-128545128D01*
X133660357Y-128545128D02*
X133631785Y-128573700D01*
X133631785Y-128573700D02*
X133574642Y-128602271D01*
X133574642Y-128602271D02*
X133517499Y-128602271D01*
X133517499Y-128602271D02*
X133460357Y-128573700D01*
X133460357Y-128573700D02*
X133431785Y-128545128D01*
X133431785Y-128545128D02*
X133403214Y-128487985D01*
X133403214Y-128487985D02*
X133374642Y-128373700D01*
X133374642Y-128373700D02*
X133374642Y-128230842D01*
X133374642Y-128230842D02*
X133403214Y-128116557D01*
X133403214Y-128116557D02*
X133431785Y-128059414D01*
X133431785Y-128059414D02*
X133460357Y-128030842D01*
X133460357Y-128030842D02*
X133517499Y-128002271D01*
X134260357Y-128002271D02*
X133974643Y-128002271D01*
X133974643Y-128002271D02*
X133946071Y-128287985D01*
X133946071Y-128287985D02*
X133974643Y-128259414D01*
X133974643Y-128259414D02*
X134031786Y-128230842D01*
X134031786Y-128230842D02*
X134174643Y-128230842D01*
X134174643Y-128230842D02*
X134231786Y-128259414D01*
X134231786Y-128259414D02*
X134260357Y-128287985D01*
X134260357Y-128287985D02*
X134288928Y-128345128D01*
X134288928Y-128345128D02*
X134288928Y-128487985D01*
X134288928Y-128487985D02*
X134260357Y-128545128D01*
X134260357Y-128545128D02*
X134231786Y-128573700D01*
X134231786Y-128573700D02*
X134174643Y-128602271D01*
X134174643Y-128602271D02*
X134031786Y-128602271D01*
X134031786Y-128602271D02*
X133974643Y-128573700D01*
X133974643Y-128573700D02*
X133946071Y-128545128D01*
X101072856Y-128114771D02*
X100729999Y-128114771D01*
X100901428Y-128114771D02*
X100901428Y-127514771D01*
X100901428Y-127514771D02*
X100844285Y-127600485D01*
X100844285Y-127600485D02*
X100787142Y-127657628D01*
X100787142Y-127657628D02*
X100729999Y-127686200D01*
X101330000Y-127714771D02*
X101330000Y-128114771D01*
X101330000Y-127771914D02*
X101358571Y-127743342D01*
X101358571Y-127743342D02*
X101415714Y-127714771D01*
X101415714Y-127714771D02*
X101501428Y-127714771D01*
X101501428Y-127714771D02*
X101558571Y-127743342D01*
X101558571Y-127743342D02*
X101587143Y-127800485D01*
X101587143Y-127800485D02*
X101587143Y-128114771D01*
X102072857Y-127800485D02*
X101872857Y-127800485D01*
X101872857Y-128114771D02*
X101872857Y-127514771D01*
X101872857Y-127514771D02*
X102158571Y-127514771D01*
D18*
X127656427Y-120730081D02*
X127313570Y-120730081D01*
X127484999Y-120730081D02*
X127484999Y-120130081D01*
X127484999Y-120130081D02*
X127427856Y-120215795D01*
X127427856Y-120215795D02*
X127370713Y-120272938D01*
X127370713Y-120272938D02*
X127313570Y-120301510D01*
X128027856Y-120130081D02*
X128084999Y-120130081D01*
X128084999Y-120130081D02*
X128142142Y-120158652D01*
X128142142Y-120158652D02*
X128170714Y-120187224D01*
X128170714Y-120187224D02*
X128199285Y-120244367D01*
X128199285Y-120244367D02*
X128227856Y-120358652D01*
X128227856Y-120358652D02*
X128227856Y-120501510D01*
X128227856Y-120501510D02*
X128199285Y-120615795D01*
X128199285Y-120615795D02*
X128170714Y-120672938D01*
X128170714Y-120672938D02*
X128142142Y-120701510D01*
X128142142Y-120701510D02*
X128084999Y-120730081D01*
X128084999Y-120730081D02*
X128027856Y-120730081D01*
X128027856Y-120730081D02*
X127970714Y-120701510D01*
X127970714Y-120701510D02*
X127942142Y-120672938D01*
X127942142Y-120672938D02*
X127913571Y-120615795D01*
X127913571Y-120615795D02*
X127884999Y-120501510D01*
X127884999Y-120501510D02*
X127884999Y-120358652D01*
X127884999Y-120358652D02*
X127913571Y-120244367D01*
X127913571Y-120244367D02*
X127942142Y-120187224D01*
X127942142Y-120187224D02*
X127970714Y-120158652D01*
X127970714Y-120158652D02*
X128027856Y-120130081D01*
X128599285Y-120130081D02*
X128656428Y-120130081D01*
X128656428Y-120130081D02*
X128713571Y-120158652D01*
X128713571Y-120158652D02*
X128742143Y-120187224D01*
X128742143Y-120187224D02*
X128770714Y-120244367D01*
X128770714Y-120244367D02*
X128799285Y-120358652D01*
X128799285Y-120358652D02*
X128799285Y-120501510D01*
X128799285Y-120501510D02*
X128770714Y-120615795D01*
X128770714Y-120615795D02*
X128742143Y-120672938D01*
X128742143Y-120672938D02*
X128713571Y-120701510D01*
X128713571Y-120701510D02*
X128656428Y-120730081D01*
X128656428Y-120730081D02*
X128599285Y-120730081D01*
X128599285Y-120730081D02*
X128542143Y-120701510D01*
X128542143Y-120701510D02*
X128513571Y-120672938D01*
X128513571Y-120672938D02*
X128485000Y-120615795D01*
X128485000Y-120615795D02*
X128456428Y-120501510D01*
X128456428Y-120501510D02*
X128456428Y-120358652D01*
X128456428Y-120358652D02*
X128485000Y-120244367D01*
X128485000Y-120244367D02*
X128513571Y-120187224D01*
X128513571Y-120187224D02*
X128542143Y-120158652D01*
X128542143Y-120158652D02*
X128599285Y-120130081D01*
X129056429Y-120330081D02*
X129056429Y-120730081D01*
X129056429Y-120387224D02*
X129085000Y-120358652D01*
X129085000Y-120358652D02*
X129142143Y-120330081D01*
X129142143Y-120330081D02*
X129227857Y-120330081D01*
X129227857Y-120330081D02*
X129285000Y-120358652D01*
X129285000Y-120358652D02*
X129313572Y-120415795D01*
X129313572Y-120415795D02*
X129313572Y-120730081D01*
X129799286Y-120415795D02*
X129599286Y-120415795D01*
X129599286Y-120730081D02*
X129599286Y-120130081D01*
X129599286Y-120130081D02*
X129885000Y-120130081D01*
D14*
X99954286Y-121394771D02*
X99668572Y-121394771D01*
X99668572Y-121394771D02*
X99668572Y-120794771D01*
X100154286Y-121080485D02*
X100354286Y-121080485D01*
X100440000Y-121394771D02*
X100154286Y-121394771D01*
X100154286Y-121394771D02*
X100154286Y-120794771D01*
X100154286Y-120794771D02*
X100440000Y-120794771D01*
X100697143Y-121394771D02*
X100697143Y-120794771D01*
X100697143Y-120794771D02*
X100840000Y-120794771D01*
X100840000Y-120794771D02*
X100925714Y-120823342D01*
X100925714Y-120823342D02*
X100982857Y-120880485D01*
X100982857Y-120880485D02*
X101011428Y-120937628D01*
X101011428Y-120937628D02*
X101040000Y-121051914D01*
X101040000Y-121051914D02*
X101040000Y-121137628D01*
X101040000Y-121137628D02*
X101011428Y-121251914D01*
X101011428Y-121251914D02*
X100982857Y-121309057D01*
X100982857Y-121309057D02*
X100925714Y-121366200D01*
X100925714Y-121366200D02*
X100840000Y-121394771D01*
X100840000Y-121394771D02*
X100697143Y-121394771D01*
D18*
X130954999Y-119160081D02*
X130612142Y-119160081D01*
X130783571Y-119160081D02*
X130783571Y-118560081D01*
X130783571Y-118560081D02*
X130726428Y-118645795D01*
X130726428Y-118645795D02*
X130669285Y-118702938D01*
X130669285Y-118702938D02*
X130612142Y-118731510D01*
X131183571Y-118617224D02*
X131212143Y-118588652D01*
X131212143Y-118588652D02*
X131269286Y-118560081D01*
X131269286Y-118560081D02*
X131412143Y-118560081D01*
X131412143Y-118560081D02*
X131469286Y-118588652D01*
X131469286Y-118588652D02*
X131497857Y-118617224D01*
X131497857Y-118617224D02*
X131526428Y-118674367D01*
X131526428Y-118674367D02*
X131526428Y-118731510D01*
X131526428Y-118731510D02*
X131497857Y-118817224D01*
X131497857Y-118817224D02*
X131155000Y-119160081D01*
X131155000Y-119160081D02*
X131526428Y-119160081D01*
X131897857Y-118560081D02*
X131955000Y-118560081D01*
X131955000Y-118560081D02*
X132012143Y-118588652D01*
X132012143Y-118588652D02*
X132040715Y-118617224D01*
X132040715Y-118617224D02*
X132069286Y-118674367D01*
X132069286Y-118674367D02*
X132097857Y-118788652D01*
X132097857Y-118788652D02*
X132097857Y-118931510D01*
X132097857Y-118931510D02*
X132069286Y-119045795D01*
X132069286Y-119045795D02*
X132040715Y-119102938D01*
X132040715Y-119102938D02*
X132012143Y-119131510D01*
X132012143Y-119131510D02*
X131955000Y-119160081D01*
X131955000Y-119160081D02*
X131897857Y-119160081D01*
X131897857Y-119160081D02*
X131840715Y-119131510D01*
X131840715Y-119131510D02*
X131812143Y-119102938D01*
X131812143Y-119102938D02*
X131783572Y-119045795D01*
X131783572Y-119045795D02*
X131755000Y-118931510D01*
X131755000Y-118931510D02*
X131755000Y-118788652D01*
X131755000Y-118788652D02*
X131783572Y-118674367D01*
X131783572Y-118674367D02*
X131812143Y-118617224D01*
X131812143Y-118617224D02*
X131840715Y-118588652D01*
X131840715Y-118588652D02*
X131897857Y-118560081D01*
X132697858Y-119160081D02*
X132497858Y-118874367D01*
X132355001Y-119160081D02*
X132355001Y-118560081D01*
X132355001Y-118560081D02*
X132583572Y-118560081D01*
X132583572Y-118560081D02*
X132640715Y-118588652D01*
X132640715Y-118588652D02*
X132669286Y-118617224D01*
X132669286Y-118617224D02*
X132697858Y-118674367D01*
X132697858Y-118674367D02*
X132697858Y-118760081D01*
X132697858Y-118760081D02*
X132669286Y-118817224D01*
X132669286Y-118817224D02*
X132640715Y-118845795D01*
X132640715Y-118845795D02*
X132583572Y-118874367D01*
X132583572Y-118874367D02*
X132355001Y-118874367D01*
D14*
X115577080Y-126519642D02*
X115624700Y-126567261D01*
X115624700Y-126567261D02*
X115672319Y-126710118D01*
X115672319Y-126710118D02*
X115672319Y-126805356D01*
X115672319Y-126805356D02*
X115624700Y-126948213D01*
X115624700Y-126948213D02*
X115529461Y-127043451D01*
X115529461Y-127043451D02*
X115434223Y-127091070D01*
X115434223Y-127091070D02*
X115243747Y-127138689D01*
X115243747Y-127138689D02*
X115100890Y-127138689D01*
X115100890Y-127138689D02*
X114910414Y-127091070D01*
X114910414Y-127091070D02*
X114815176Y-127043451D01*
X114815176Y-127043451D02*
X114719938Y-126948213D01*
X114719938Y-126948213D02*
X114672319Y-126805356D01*
X114672319Y-126805356D02*
X114672319Y-126710118D01*
X114672319Y-126710118D02*
X114719938Y-126567261D01*
X114719938Y-126567261D02*
X114767557Y-126519642D01*
X114672319Y-125900594D02*
X114672319Y-125710118D01*
X114672319Y-125710118D02*
X114719938Y-125614880D01*
X114719938Y-125614880D02*
X114815176Y-125519642D01*
X114815176Y-125519642D02*
X115005652Y-125472023D01*
X115005652Y-125472023D02*
X115338985Y-125472023D01*
X115338985Y-125472023D02*
X115529461Y-125519642D01*
X115529461Y-125519642D02*
X115624700Y-125614880D01*
X115624700Y-125614880D02*
X115672319Y-125710118D01*
X115672319Y-125710118D02*
X115672319Y-125900594D01*
X115672319Y-125900594D02*
X115624700Y-125995832D01*
X115624700Y-125995832D02*
X115529461Y-126091070D01*
X115529461Y-126091070D02*
X115338985Y-126138689D01*
X115338985Y-126138689D02*
X115005652Y-126138689D01*
X115005652Y-126138689D02*
X114815176Y-126091070D01*
X114815176Y-126091070D02*
X114719938Y-125995832D01*
X114719938Y-125995832D02*
X114672319Y-125900594D01*
X115672319Y-125043451D02*
X114672319Y-125043451D01*
X115672319Y-124091071D02*
X115672319Y-124567261D01*
X115672319Y-124567261D02*
X114672319Y-124567261D01*
X95473571Y-117527628D02*
X95444999Y-117556200D01*
X95444999Y-117556200D02*
X95359285Y-117584771D01*
X95359285Y-117584771D02*
X95302142Y-117584771D01*
X95302142Y-117584771D02*
X95216428Y-117556200D01*
X95216428Y-117556200D02*
X95159285Y-117499057D01*
X95159285Y-117499057D02*
X95130714Y-117441914D01*
X95130714Y-117441914D02*
X95102142Y-117327628D01*
X95102142Y-117327628D02*
X95102142Y-117241914D01*
X95102142Y-117241914D02*
X95130714Y-117127628D01*
X95130714Y-117127628D02*
X95159285Y-117070485D01*
X95159285Y-117070485D02*
X95216428Y-117013342D01*
X95216428Y-117013342D02*
X95302142Y-116984771D01*
X95302142Y-116984771D02*
X95359285Y-116984771D01*
X95359285Y-116984771D02*
X95444999Y-117013342D01*
X95444999Y-117013342D02*
X95473571Y-117041914D01*
X95816428Y-117584771D02*
X95759285Y-117556200D01*
X95759285Y-117556200D02*
X95730714Y-117527628D01*
X95730714Y-117527628D02*
X95702142Y-117470485D01*
X95702142Y-117470485D02*
X95702142Y-117299057D01*
X95702142Y-117299057D02*
X95730714Y-117241914D01*
X95730714Y-117241914D02*
X95759285Y-117213342D01*
X95759285Y-117213342D02*
X95816428Y-117184771D01*
X95816428Y-117184771D02*
X95902142Y-117184771D01*
X95902142Y-117184771D02*
X95959285Y-117213342D01*
X95959285Y-117213342D02*
X95987857Y-117241914D01*
X95987857Y-117241914D02*
X96016428Y-117299057D01*
X96016428Y-117299057D02*
X96016428Y-117470485D01*
X96016428Y-117470485D02*
X95987857Y-117527628D01*
X95987857Y-117527628D02*
X95959285Y-117556200D01*
X95959285Y-117556200D02*
X95902142Y-117584771D01*
X95902142Y-117584771D02*
X95816428Y-117584771D01*
X96273571Y-117584771D02*
X96273571Y-117184771D01*
X96273571Y-116984771D02*
X96244999Y-117013342D01*
X96244999Y-117013342D02*
X96273571Y-117041914D01*
X96273571Y-117041914D02*
X96302142Y-117013342D01*
X96302142Y-117013342D02*
X96273571Y-116984771D01*
X96273571Y-116984771D02*
X96273571Y-117041914D01*
X96644999Y-117584771D02*
X96587856Y-117556200D01*
X96587856Y-117556200D02*
X96559285Y-117499057D01*
X96559285Y-117499057D02*
X96559285Y-116984771D01*
X97187856Y-117584771D02*
X96844999Y-117584771D01*
X97016428Y-117584771D02*
X97016428Y-116984771D01*
X97016428Y-116984771D02*
X96959285Y-117070485D01*
X96959285Y-117070485D02*
X96902142Y-117127628D01*
X96902142Y-117127628D02*
X96844999Y-117156200D01*
X142144523Y-116419819D02*
X141811190Y-115943628D01*
X141573095Y-116419819D02*
X141573095Y-115419819D01*
X141573095Y-115419819D02*
X141954047Y-115419819D01*
X141954047Y-115419819D02*
X142049285Y-115467438D01*
X142049285Y-115467438D02*
X142096904Y-115515057D01*
X142096904Y-115515057D02*
X142144523Y-115610295D01*
X142144523Y-115610295D02*
X142144523Y-115753152D01*
X142144523Y-115753152D02*
X142096904Y-115848390D01*
X142096904Y-115848390D02*
X142049285Y-115896009D01*
X142049285Y-115896009D02*
X141954047Y-115943628D01*
X141954047Y-115943628D02*
X141573095Y-115943628D01*
X101808571Y-117447628D02*
X101779999Y-117476200D01*
X101779999Y-117476200D02*
X101694285Y-117504771D01*
X101694285Y-117504771D02*
X101637142Y-117504771D01*
X101637142Y-117504771D02*
X101551428Y-117476200D01*
X101551428Y-117476200D02*
X101494285Y-117419057D01*
X101494285Y-117419057D02*
X101465714Y-117361914D01*
X101465714Y-117361914D02*
X101437142Y-117247628D01*
X101437142Y-117247628D02*
X101437142Y-117161914D01*
X101437142Y-117161914D02*
X101465714Y-117047628D01*
X101465714Y-117047628D02*
X101494285Y-116990485D01*
X101494285Y-116990485D02*
X101551428Y-116933342D01*
X101551428Y-116933342D02*
X101637142Y-116904771D01*
X101637142Y-116904771D02*
X101694285Y-116904771D01*
X101694285Y-116904771D02*
X101779999Y-116933342D01*
X101779999Y-116933342D02*
X101808571Y-116961914D01*
X102151428Y-117504771D02*
X102094285Y-117476200D01*
X102094285Y-117476200D02*
X102065714Y-117447628D01*
X102065714Y-117447628D02*
X102037142Y-117390485D01*
X102037142Y-117390485D02*
X102037142Y-117219057D01*
X102037142Y-117219057D02*
X102065714Y-117161914D01*
X102065714Y-117161914D02*
X102094285Y-117133342D01*
X102094285Y-117133342D02*
X102151428Y-117104771D01*
X102151428Y-117104771D02*
X102237142Y-117104771D01*
X102237142Y-117104771D02*
X102294285Y-117133342D01*
X102294285Y-117133342D02*
X102322857Y-117161914D01*
X102322857Y-117161914D02*
X102351428Y-117219057D01*
X102351428Y-117219057D02*
X102351428Y-117390485D01*
X102351428Y-117390485D02*
X102322857Y-117447628D01*
X102322857Y-117447628D02*
X102294285Y-117476200D01*
X102294285Y-117476200D02*
X102237142Y-117504771D01*
X102237142Y-117504771D02*
X102151428Y-117504771D01*
X102608571Y-117504771D02*
X102608571Y-117104771D01*
X102608571Y-116904771D02*
X102579999Y-116933342D01*
X102579999Y-116933342D02*
X102608571Y-116961914D01*
X102608571Y-116961914D02*
X102637142Y-116933342D01*
X102637142Y-116933342D02*
X102608571Y-116904771D01*
X102608571Y-116904771D02*
X102608571Y-116961914D01*
X102979999Y-117504771D02*
X102922856Y-117476200D01*
X102922856Y-117476200D02*
X102894285Y-117419057D01*
X102894285Y-117419057D02*
X102894285Y-116904771D01*
X103179999Y-116961914D02*
X103208571Y-116933342D01*
X103208571Y-116933342D02*
X103265714Y-116904771D01*
X103265714Y-116904771D02*
X103408571Y-116904771D01*
X103408571Y-116904771D02*
X103465714Y-116933342D01*
X103465714Y-116933342D02*
X103494285Y-116961914D01*
X103494285Y-116961914D02*
X103522856Y-117019057D01*
X103522856Y-117019057D02*
X103522856Y-117076200D01*
X103522856Y-117076200D02*
X103494285Y-117161914D01*
X103494285Y-117161914D02*
X103151428Y-117504771D01*
X103151428Y-117504771D02*
X103522856Y-117504771D01*
X142074523Y-112929819D02*
X141741190Y-112453628D01*
X141503095Y-112929819D02*
X141503095Y-111929819D01*
X141503095Y-111929819D02*
X141884047Y-111929819D01*
X141884047Y-111929819D02*
X141979285Y-111977438D01*
X141979285Y-111977438D02*
X142026904Y-112025057D01*
X142026904Y-112025057D02*
X142074523Y-112120295D01*
X142074523Y-112120295D02*
X142074523Y-112263152D01*
X142074523Y-112263152D02*
X142026904Y-112358390D01*
X142026904Y-112358390D02*
X141979285Y-112406009D01*
X141979285Y-112406009D02*
X141884047Y-112453628D01*
X141884047Y-112453628D02*
X141503095Y-112453628D01*
X131672142Y-120738330D02*
X131624523Y-120785950D01*
X131624523Y-120785950D02*
X131481666Y-120833569D01*
X131481666Y-120833569D02*
X131386428Y-120833569D01*
X131386428Y-120833569D02*
X131243571Y-120785950D01*
X131243571Y-120785950D02*
X131148333Y-120690711D01*
X131148333Y-120690711D02*
X131100714Y-120595473D01*
X131100714Y-120595473D02*
X131053095Y-120404997D01*
X131053095Y-120404997D02*
X131053095Y-120262140D01*
X131053095Y-120262140D02*
X131100714Y-120071664D01*
X131100714Y-120071664D02*
X131148333Y-119976426D01*
X131148333Y-119976426D02*
X131243571Y-119881188D01*
X131243571Y-119881188D02*
X131386428Y-119833569D01*
X131386428Y-119833569D02*
X131481666Y-119833569D01*
X131481666Y-119833569D02*
X131624523Y-119881188D01*
X131624523Y-119881188D02*
X131672142Y-119928807D01*
X132243571Y-120833569D02*
X132148333Y-120785950D01*
X132148333Y-120785950D02*
X132100714Y-120738330D01*
X132100714Y-120738330D02*
X132053095Y-120643092D01*
X132053095Y-120643092D02*
X132053095Y-120357378D01*
X132053095Y-120357378D02*
X132100714Y-120262140D01*
X132100714Y-120262140D02*
X132148333Y-120214521D01*
X132148333Y-120214521D02*
X132243571Y-120166902D01*
X132243571Y-120166902D02*
X132386428Y-120166902D01*
X132386428Y-120166902D02*
X132481666Y-120214521D01*
X132481666Y-120214521D02*
X132529285Y-120262140D01*
X132529285Y-120262140D02*
X132576904Y-120357378D01*
X132576904Y-120357378D02*
X132576904Y-120643092D01*
X132576904Y-120643092D02*
X132529285Y-120738330D01*
X132529285Y-120738330D02*
X132481666Y-120785950D01*
X132481666Y-120785950D02*
X132386428Y-120833569D01*
X132386428Y-120833569D02*
X132243571Y-120833569D01*
X133005476Y-120833569D02*
X133005476Y-120166902D01*
X133005476Y-119833569D02*
X132957857Y-119881188D01*
X132957857Y-119881188D02*
X133005476Y-119928807D01*
X133005476Y-119928807D02*
X133053095Y-119881188D01*
X133053095Y-119881188D02*
X133005476Y-119833569D01*
X133005476Y-119833569D02*
X133005476Y-119928807D01*
X133624523Y-120833569D02*
X133529285Y-120785950D01*
X133529285Y-120785950D02*
X133481666Y-120690711D01*
X133481666Y-120690711D02*
X133481666Y-119833569D01*
X96017143Y-121114771D02*
X96017143Y-121514771D01*
X95874285Y-120886200D02*
X95731428Y-121314771D01*
X95731428Y-121314771D02*
X96102857Y-121314771D01*
X96331429Y-121457628D02*
X96360000Y-121486200D01*
X96360000Y-121486200D02*
X96331429Y-121514771D01*
X96331429Y-121514771D02*
X96302857Y-121486200D01*
X96302857Y-121486200D02*
X96331429Y-121457628D01*
X96331429Y-121457628D02*
X96331429Y-121514771D01*
X96560000Y-120914771D02*
X96960000Y-120914771D01*
X96960000Y-120914771D02*
X96702857Y-121514771D01*
X97188572Y-121114771D02*
X97188572Y-121514771D01*
X97188572Y-121171914D02*
X97217143Y-121143342D01*
X97217143Y-121143342D02*
X97274286Y-121114771D01*
X97274286Y-121114771D02*
X97360000Y-121114771D01*
X97360000Y-121114771D02*
X97417143Y-121143342D01*
X97417143Y-121143342D02*
X97445715Y-121200485D01*
X97445715Y-121200485D02*
X97445715Y-121514771D01*
X97931429Y-121200485D02*
X97731429Y-121200485D01*
X97731429Y-121514771D02*
X97731429Y-120914771D01*
X97731429Y-120914771D02*
X98017143Y-120914771D01*
X106532975Y-113452680D02*
X105961547Y-113452680D01*
X106247261Y-112452680D02*
X106247261Y-113452680D01*
X105628213Y-112452680D02*
X105628213Y-113452680D01*
X105628213Y-113452680D02*
X105294880Y-112738395D01*
X105294880Y-112738395D02*
X104961547Y-113452680D01*
X104961547Y-113452680D02*
X104961547Y-112452680D01*
X104532975Y-112738395D02*
X104056785Y-112738395D01*
X104628213Y-112452680D02*
X104294880Y-113452680D01*
X104294880Y-113452680D02*
X103961547Y-112452680D01*
X103104404Y-113405061D02*
X103199642Y-113452680D01*
X103199642Y-113452680D02*
X103342499Y-113452680D01*
X103342499Y-113452680D02*
X103485356Y-113405061D01*
X103485356Y-113405061D02*
X103580594Y-113309823D01*
X103580594Y-113309823D02*
X103628213Y-113214585D01*
X103628213Y-113214585D02*
X103675832Y-113024109D01*
X103675832Y-113024109D02*
X103675832Y-112881252D01*
X103675832Y-112881252D02*
X103628213Y-112690776D01*
X103628213Y-112690776D02*
X103580594Y-112595538D01*
X103580594Y-112595538D02*
X103485356Y-112500300D01*
X103485356Y-112500300D02*
X103342499Y-112452680D01*
X103342499Y-112452680D02*
X103247261Y-112452680D01*
X103247261Y-112452680D02*
X103104404Y-112500300D01*
X103104404Y-112500300D02*
X103056785Y-112547919D01*
X103056785Y-112547919D02*
X103056785Y-112881252D01*
X103056785Y-112881252D02*
X103247261Y-112881252D01*
X102152023Y-113452680D02*
X102628213Y-113452680D01*
X102628213Y-113452680D02*
X102675832Y-112976490D01*
X102675832Y-112976490D02*
X102628213Y-113024109D01*
X102628213Y-113024109D02*
X102532975Y-113071728D01*
X102532975Y-113071728D02*
X102294880Y-113071728D01*
X102294880Y-113071728D02*
X102199642Y-113024109D01*
X102199642Y-113024109D02*
X102152023Y-112976490D01*
X102152023Y-112976490D02*
X102104404Y-112881252D01*
X102104404Y-112881252D02*
X102104404Y-112643157D01*
X102104404Y-112643157D02*
X102152023Y-112547919D01*
X102152023Y-112547919D02*
X102199642Y-112500300D01*
X102199642Y-112500300D02*
X102294880Y-112452680D01*
X102294880Y-112452680D02*
X102532975Y-112452680D01*
X102532975Y-112452680D02*
X102628213Y-112500300D01*
X102628213Y-112500300D02*
X102675832Y-112547919D01*
X101723451Y-113357442D02*
X101675832Y-113405061D01*
X101675832Y-113405061D02*
X101580594Y-113452680D01*
X101580594Y-113452680D02*
X101342499Y-113452680D01*
X101342499Y-113452680D02*
X101247261Y-113405061D01*
X101247261Y-113405061D02*
X101199642Y-113357442D01*
X101199642Y-113357442D02*
X101152023Y-113262204D01*
X101152023Y-113262204D02*
X101152023Y-113166966D01*
X101152023Y-113166966D02*
X101199642Y-113024109D01*
X101199642Y-113024109D02*
X101771070Y-112452680D01*
X101771070Y-112452680D02*
X101152023Y-112452680D01*
X100818689Y-113452680D02*
X100152023Y-113452680D01*
X100152023Y-113452680D02*
X100580594Y-112452680D01*
X99866308Y-113452680D02*
X99247261Y-113452680D01*
X99247261Y-113452680D02*
X99580594Y-113071728D01*
X99580594Y-113071728D02*
X99437737Y-113071728D01*
X99437737Y-113071728D02*
X99342499Y-113024109D01*
X99342499Y-113024109D02*
X99294880Y-112976490D01*
X99294880Y-112976490D02*
X99247261Y-112881252D01*
X99247261Y-112881252D02*
X99247261Y-112643157D01*
X99247261Y-112643157D02*
X99294880Y-112547919D01*
X99294880Y-112547919D02*
X99342499Y-112500300D01*
X99342499Y-112500300D02*
X99437737Y-112452680D01*
X99437737Y-112452680D02*
X99723451Y-112452680D01*
X99723451Y-112452680D02*
X99818689Y-112500300D01*
X99818689Y-112500300D02*
X99866308Y-112547919D01*
X95622856Y-127604771D02*
X95279999Y-127604771D01*
X95451428Y-127604771D02*
X95451428Y-127004771D01*
X95451428Y-127004771D02*
X95394285Y-127090485D01*
X95394285Y-127090485D02*
X95337142Y-127147628D01*
X95337142Y-127147628D02*
X95279999Y-127176200D01*
X95880000Y-127204771D02*
X95880000Y-127604771D01*
X95880000Y-127261914D02*
X95908571Y-127233342D01*
X95908571Y-127233342D02*
X95965714Y-127204771D01*
X95965714Y-127204771D02*
X96051428Y-127204771D01*
X96051428Y-127204771D02*
X96108571Y-127233342D01*
X96108571Y-127233342D02*
X96137143Y-127290485D01*
X96137143Y-127290485D02*
X96137143Y-127604771D01*
X96622857Y-127290485D02*
X96422857Y-127290485D01*
X96422857Y-127604771D02*
X96422857Y-127004771D01*
X96422857Y-127004771D02*
X96708571Y-127004771D01*
X131573095Y-111185950D02*
X131477857Y-111233569D01*
X131477857Y-111233569D02*
X131287381Y-111233569D01*
X131287381Y-111233569D02*
X131192143Y-111185950D01*
X131192143Y-111185950D02*
X131144524Y-111138330D01*
X131144524Y-111138330D02*
X131096905Y-111043092D01*
X131096905Y-111043092D02*
X131096905Y-110757378D01*
X131096905Y-110757378D02*
X131144524Y-110662140D01*
X131144524Y-110662140D02*
X131192143Y-110614521D01*
X131192143Y-110614521D02*
X131287381Y-110566902D01*
X131287381Y-110566902D02*
X131477857Y-110566902D01*
X131477857Y-110566902D02*
X131573095Y-110614521D01*
D18*
%TO.C,D10*%
X119342500Y-125677500D02*
X119342500Y-127962500D01*
X120812500Y-125677500D02*
X119342500Y-125677500D01*
X120812500Y-127962500D02*
X120812500Y-125677500D01*
%TO.C,C19*%
X102796267Y-123695000D02*
X102503733Y-123695000D01*
X102796267Y-124715000D02*
X102503733Y-124715000D01*
%TO.C,C21*%
X127407500Y-126156252D02*
X127407500Y-124733748D01*
X130127500Y-126156252D02*
X130127500Y-124733748D01*
%TO.C,Q1*%
X127115000Y-116478750D02*
X127115000Y-115828750D01*
X127115000Y-116478750D02*
X127115000Y-117128750D01*
X130235000Y-116478750D02*
X130235000Y-115828750D01*
X130235000Y-116478750D02*
X130235000Y-117128750D01*
X127165000Y-117641250D02*
X126835000Y-117881250D01*
X126835000Y-117401250D01*
X127165000Y-117641250D01*
G36*
X127165000Y-117641250D02*
G01*
X126835000Y-117881250D01*
X126835000Y-117401250D01*
X127165000Y-117641250D01*
G37*
%TO.C,REF\u002A\u002A*%
X139745000Y-96917500D02*
X141075000Y-96917500D01*
X139745000Y-98247500D02*
X139745000Y-96917500D01*
X139745000Y-99517500D02*
X139745000Y-109737500D01*
X139745000Y-99517500D02*
X142405000Y-99517500D01*
X139745000Y-109737500D02*
X142405000Y-109737500D01*
X142405000Y-99517500D02*
X142405000Y-109737500D01*
%TO.C,R14*%
X93880000Y-125497224D02*
X93880000Y-124987776D01*
X94925000Y-125497224D02*
X94925000Y-124987776D01*
%TO.C,C15*%
X123082500Y-125876252D02*
X123082500Y-125353748D01*
X124552500Y-125876252D02*
X124552500Y-125353748D01*
%TO.C,U3*%
X135920000Y-112373750D02*
X133970000Y-112373750D01*
X135920000Y-112373750D02*
X137870000Y-112373750D01*
X135920000Y-117493750D02*
X133970000Y-117493750D01*
X135920000Y-117493750D02*
X137870000Y-117493750D01*
X133220000Y-112468750D02*
X132980000Y-112138750D01*
X133460000Y-112138750D01*
X133220000Y-112468750D01*
G36*
X133220000Y-112468750D02*
G01*
X132980000Y-112138750D01*
X133460000Y-112138750D01*
X133220000Y-112468750D01*
G37*
%TO.C,R13*%
X103340276Y-121882500D02*
X103849724Y-121882500D01*
X103340276Y-122927500D02*
X103849724Y-122927500D01*
%TO.C,REF\u002A\u002A*%
X138075000Y-125480000D02*
X138075000Y-122880000D01*
X140735000Y-122880000D02*
X138075000Y-122880000D01*
X140735000Y-125480000D02*
X138075000Y-125480000D01*
X140735000Y-125480000D02*
X140735000Y-122880000D01*
X140735000Y-126750000D02*
X140735000Y-128080000D01*
X140735000Y-128080000D02*
X139405000Y-128080000D01*
%TO.C,Q3*%
X98862500Y-123605000D02*
X98212500Y-123605000D01*
X98862500Y-123605000D02*
X99512500Y-123605000D01*
X98862500Y-126725000D02*
X98212500Y-126725000D01*
X98862500Y-126725000D02*
X99512500Y-126725000D01*
X97700000Y-123655000D02*
X97460000Y-123325000D01*
X97940000Y-123325000D01*
X97700000Y-123655000D01*
G36*
X97700000Y-123655000D02*
G01*
X97460000Y-123325000D01*
X97940000Y-123325000D01*
X97700000Y-123655000D01*
G37*
%TO.C,D9*%
X121042500Y-125690000D02*
X121042500Y-127975000D01*
X122512500Y-125690000D02*
X121042500Y-125690000D01*
X122512500Y-127975000D02*
X122512500Y-125690000D01*
%TO.C,D3*%
X118240000Y-117582500D02*
X118240000Y-119867500D01*
X119710000Y-117582500D02*
X118240000Y-117582500D01*
X119710000Y-119867500D02*
X119710000Y-117582500D01*
%TO.C,C22*%
X135742500Y-126266252D02*
X135742500Y-125743748D01*
X137212500Y-126266252D02*
X137212500Y-125743748D01*
%TO.C,C12*%
X128203748Y-112653750D02*
X128726252Y-112653750D01*
X128203748Y-114123750D02*
X128726252Y-114123750D01*
%TO.C,R10*%
X116599724Y-117722500D02*
X116090276Y-117722500D01*
X116599724Y-118767500D02*
X116090276Y-118767500D01*
%TO.C,REF\u002A\u002A*%
X108892500Y-113457500D02*
X108892500Y-116117500D01*
X119112500Y-113457500D02*
X108892500Y-113457500D01*
X119112500Y-113457500D02*
X119112500Y-116117500D01*
X119112500Y-116117500D02*
X108892500Y-116117500D01*
X120382500Y-113457500D02*
X121712500Y-113457500D01*
X121712500Y-113457500D02*
X121712500Y-114787500D01*
D17*
%TO.C,U4*%
X130747500Y-125872500D02*
X130747500Y-123372500D01*
X135247500Y-123372500D02*
X135247500Y-125872500D01*
D22*
X131291880Y-123822500D02*
G75*
G02*
X131203120Y-123822500I-44380J0D01*
G01*
X131203120Y-123822500D02*
G75*
G02*
X131291880Y-123822500I44380J0D01*
G01*
D18*
%TO.C,C17*%
X98766233Y-127325000D02*
X99058767Y-127325000D01*
X98766233Y-128345000D02*
X99058767Y-128345000D01*
%TO.C,C13*%
X128741267Y-118768750D02*
X128448733Y-118768750D01*
X128741267Y-119788750D02*
X128448733Y-119788750D01*
%TO.C,D6*%
X119342500Y-122540000D02*
X119342500Y-124825000D01*
X120812500Y-122540000D02*
X119342500Y-122540000D01*
X120812500Y-124825000D02*
X120812500Y-122540000D01*
%TO.C,D8*%
X98847500Y-121670000D02*
X98847500Y-123140000D01*
X98847500Y-123140000D02*
X101132500Y-123140000D01*
X101132500Y-121670000D02*
X98847500Y-121670000D01*
%TO.C,R9*%
X130812500Y-117000974D02*
X130812500Y-116491526D01*
X131857500Y-117000974D02*
X131857500Y-116491526D01*
%TO.C,REF\u002A\u002A*%
X115975000Y-122975000D02*
X117305000Y-122975000D01*
X115975000Y-124305000D02*
X115975000Y-122975000D01*
X115975000Y-125575000D02*
X115975000Y-128175000D01*
X115975000Y-125575000D02*
X118635000Y-125575000D01*
X115975000Y-128175000D02*
X118635000Y-128175000D01*
X118635000Y-125575000D02*
X118635000Y-128175000D01*
%TO.C,R12*%
X98900000Y-110792224D02*
X98900000Y-110282776D01*
X99945000Y-110792224D02*
X99945000Y-110282776D01*
%TO.C,R15*%
X100460000Y-110792224D02*
X100460000Y-110282776D01*
X101505000Y-110792224D02*
X101505000Y-110282776D01*
%TO.C,REF\u002A\u002A*%
X125745000Y-96917500D02*
X127075000Y-96917500D01*
X125745000Y-98247500D02*
X125745000Y-96917500D01*
X125745000Y-99517500D02*
X125745000Y-109737500D01*
X125745000Y-99517500D02*
X128405000Y-99517500D01*
X125745000Y-109737500D02*
X128405000Y-109737500D01*
X128405000Y-99517500D02*
X128405000Y-109737500D01*
%TO.C,C20*%
X125272500Y-125886252D02*
X125272500Y-125363748D01*
X126742500Y-125886252D02*
X126742500Y-125363748D01*
%TO.C,REF\u002A\u002A*%
X93540000Y-120475000D02*
X93540000Y-119145000D01*
X94870000Y-120475000D02*
X93540000Y-120475000D01*
X96140000Y-117815000D02*
X98740000Y-117815000D01*
X96140000Y-120475000D02*
X96140000Y-117815000D01*
X96140000Y-120475000D02*
X98740000Y-120475000D01*
X98740000Y-120475000D02*
X98740000Y-117815000D01*
%TO.C,R7*%
X140012500Y-116243474D02*
X140012500Y-115734026D01*
X141057500Y-116243474D02*
X141057500Y-115734026D01*
%TO.C,REF\u002A\u002A*%
X111405000Y-117775000D02*
X112735000Y-117775000D01*
X111405000Y-119105000D02*
X111405000Y-117775000D01*
X111405000Y-120375000D02*
X111405000Y-120435000D01*
X111405000Y-120375000D02*
X114065000Y-120375000D01*
X111405000Y-120435000D02*
X114065000Y-120435000D01*
X114065000Y-120375000D02*
X114065000Y-120435000D01*
%TO.C,D7*%
X121052500Y-122570000D02*
X121052500Y-124855000D01*
X122522500Y-122570000D02*
X121052500Y-122570000D01*
X122522500Y-124855000D02*
X122522500Y-122570000D01*
%TO.C,REF\u002A\u002A*%
X99770000Y-117815000D02*
X99770000Y-120475000D01*
X102370000Y-117815000D02*
X99770000Y-117815000D01*
X102370000Y-117815000D02*
X102370000Y-120475000D01*
X102370000Y-120475000D02*
X99770000Y-120475000D01*
X103640000Y-117815000D02*
X104970000Y-117815000D01*
X104970000Y-117815000D02*
X104970000Y-119145000D01*
%TO.C,R8*%
X140012500Y-112753474D02*
X140012500Y-112244026D01*
X141057500Y-112753474D02*
X141057500Y-112244026D01*
%TO.C,REF\u002A\u002A*%
X133995000Y-120908750D02*
X133995000Y-119578750D01*
X135325000Y-120908750D02*
X133995000Y-120908750D01*
X136595000Y-118248750D02*
X139195000Y-118248750D01*
X136595000Y-120908750D02*
X136595000Y-118248750D01*
X136595000Y-120908750D02*
X139195000Y-120908750D01*
X139195000Y-120908750D02*
X139195000Y-118248750D01*
%TO.C,C18*%
X96726233Y-121895000D02*
X97018767Y-121895000D01*
X96726233Y-122915000D02*
X97018767Y-122915000D01*
D13*
%TO.C,U5*%
X106327500Y-109052500D02*
X104577500Y-109052500D01*
X106327500Y-112102500D02*
X104577500Y-112102500D01*
D23*
X105990000Y-111677500D02*
G75*
G02*
X105815000Y-111677500I-87500J0D01*
G01*
X105815000Y-111677500D02*
G75*
G02*
X105990000Y-111677500I87500J0D01*
G01*
D18*
%TO.C,D4*%
X119950000Y-118237500D02*
X119950000Y-120522500D01*
X119950000Y-120522500D02*
X121420000Y-120522500D01*
X121420000Y-120522500D02*
X121420000Y-118237500D01*
%TO.C,C16*%
X95502500Y-125098733D02*
X95502500Y-125391267D01*
X96522500Y-125098733D02*
X96522500Y-125391267D01*
%TO.C,REF\u002A\u002A*%
X108892500Y-110927500D02*
X108892500Y-113587500D01*
X119112500Y-110927500D02*
X108892500Y-110927500D01*
X119112500Y-110927500D02*
X119112500Y-113587500D01*
X119112500Y-113587500D02*
X108892500Y-113587500D01*
X120382500Y-110927500D02*
X121712500Y-110927500D01*
X121712500Y-110927500D02*
X121712500Y-112257500D01*
%TO.C,C11*%
X130805000Y-113462517D02*
X130805000Y-113169983D01*
X131825000Y-113462517D02*
X131825000Y-113169983D01*
%TO.C,C14*%
X116218733Y-119305000D02*
X116511267Y-119305000D01*
X116218733Y-120325000D02*
X116511267Y-120325000D01*
%TO.C,REF\u002A\u002A*%
X121985000Y-117765000D02*
X123315000Y-117765000D01*
X121985000Y-119095000D02*
X121985000Y-117765000D01*
X121985000Y-120365000D02*
X121985000Y-120425000D01*
X121985000Y-120365000D02*
X124645000Y-120365000D01*
X121985000Y-120425000D02*
X124645000Y-120425000D01*
X124645000Y-120365000D02*
X124645000Y-120425000D01*
X95032500Y-113447500D02*
X95032500Y-116107500D01*
X105252500Y-113447500D02*
X95032500Y-113447500D01*
X105252500Y-113447500D02*
X105252500Y-116107500D01*
X105252500Y-116107500D02*
X95032500Y-116107500D01*
X106522500Y-113447500D02*
X107852500Y-113447500D01*
X107852500Y-113447500D02*
X107852500Y-114777500D01*
%TO.C,R16*%
X102020000Y-110802224D02*
X102020000Y-110292776D01*
X103065000Y-110802224D02*
X103065000Y-110292776D01*
%TD*%
M02*
