%TF.GenerationSoftware,KiCad,Pcbnew,8.0.3*%
%TF.CreationDate,2024-07-16T20:49:30+03:00*%
%TF.ProjectId,PCBcoil,50434263-6f69-46c2-9e6b-696361645f70,rev?*%
%TF.SameCoordinates,Original*%
%TF.FileFunction,Copper,L4,Inr*%
%TF.FilePolarity,Positive*%
%FSLAX46Y46*%
G04 Gerber Fmt 4.6, Leading zero omitted, Abs format (unit mm)*
G04 Created by KiCad (PCBNEW 8.0.3) date 2024-07-16 20:49:30*
%MOMM*%
%LPD*%
G01*
G04 APERTURE LIST*
%TA.AperFunction,Conductor*%
%ADD10C,0.100000*%
%TD*%
%TA.AperFunction,ComponentPad*%
%ADD11R,1.700000X1.700000*%
%TD*%
%TA.AperFunction,ComponentPad*%
%ADD12O,1.700000X1.700000*%
%TD*%
%TA.AperFunction,ViaPad*%
%ADD13C,0.600000*%
%TD*%
%TA.AperFunction,ViaPad*%
%ADD14C,0.400000*%
%TD*%
%TA.AperFunction,ViaPad*%
%ADD15C,0.500000*%
%TD*%
%TA.AperFunction,Conductor*%
%ADD16C,0.130000*%
%TD*%
%TA.AperFunction,Conductor*%
%ADD17C,0.200000*%
%TD*%
G04 APERTURE END LIST*
D10*
%TO.N,unconnected-(U2-SENSEU-Pad4)*%
X109991432Y-83857313D02*
X109508697Y-84131875D01*
X114396541Y-91158062D02*
G75*
G02*
X115234431Y-89988796I1199959J24962D01*
G01*
X109508698Y-84931875D02*
G75*
G02*
X106908625Y-82331875I-98J2599975D01*
G01*
X108104987Y-91139601D02*
G75*
G02*
X109082584Y-89804807I1399913J101D01*
G01*
X121671541Y-88933062D02*
G75*
G02*
X123871538Y-91133062I59J-2199938D01*
G01*
%TO.N,Net-(D1B-K)*%
X101301299Y-107125751D02*
X102799305Y-104540373D01*
%TO.N,unconnected-(U2-SENSEU-Pad4)*%
X109504987Y-88539601D02*
G75*
G02*
X112104999Y-91139601I-87J-2600099D01*
G01*
%TO.N,Net-(D1B-K)*%
X101251562Y-106819604D02*
X102571100Y-104545111D01*
X99419526Y-102542849D02*
X100839526Y-100083337D01*
%TO.N,unconnected-(U2-SENSEU-Pad4)*%
X119486096Y-82318143D02*
G75*
G02*
X123886096Y-82318143I2200000J0D01*
G01*
X115596541Y-88533062D02*
X114872439Y-88844902D01*
X101422462Y-91101772D02*
G75*
G02*
X102819065Y-89195039I1999938J-28D01*
G01*
X121686096Y-84518143D02*
X122289514Y-84224943D01*
X109508698Y-84531875D02*
X110112116Y-84238675D01*
X121482142Y-83297124D02*
X121927463Y-83080863D01*
X103422462Y-88301772D02*
X102638018Y-88622932D01*
X119686096Y-82318143D02*
G75*
G02*
X123686096Y-82318143I2000000J0D01*
G01*
X122286096Y-82318143D02*
G75*
G02*
X121867116Y-82890166I-599896J-57D01*
G01*
X117996541Y-91133062D02*
G75*
G02*
X113196541Y-91133062I-2400000J0D01*
G01*
X108904987Y-91139601D02*
G75*
G02*
X109323951Y-90567527I599913J101D01*
G01*
%TO.N,Net-(D1B-K)*%
X107309134Y-99938991D02*
X106548404Y-99379383D01*
X108582265Y-104565156D02*
X107162265Y-107024668D01*
%TO.N,unconnected-(U2-SENSEU-Pad4)*%
X121844306Y-89945305D02*
G75*
G02*
X122871786Y-91133062I-172706J-1187695D01*
G01*
X115410911Y-83519650D02*
X115885385Y-83285293D01*
%TO.N,Net-(D1B-K)*%
X102818404Y-99672069D02*
X103938404Y-101612069D01*
%TO.N,unconnected-(U2-SENSEU-Pad4)*%
X119886096Y-82318143D02*
G75*
G02*
X123486096Y-82318143I1800000J0D01*
G01*
%TO.N,Net-(D1B-K)*%
X104723404Y-102540375D02*
X105223404Y-103406401D01*
%TO.N,unconnected-(U2-SENSEU-Pad4)*%
X103422462Y-88901772D02*
X102819044Y-89194972D01*
%TO.N,Net-(D1B-K)*%
X101673404Y-99251076D02*
X103498404Y-102412069D01*
%TO.N,unconnected-(U2-SENSEU-Pad4)*%
X109708941Y-90160620D02*
X109263620Y-90376881D01*
X115583676Y-84531893D02*
X116187094Y-84238693D01*
X115583676Y-84531893D02*
G75*
G02*
X113383607Y-82331893I-76J2199993D01*
G01*
X107308698Y-82331875D02*
G75*
G02*
X111708698Y-82331875I2200000J0D01*
G01*
%TO.N,Net-(D1B-K)*%
X102628404Y-107618388D02*
X102308404Y-107488388D01*
X102228404Y-99422069D02*
X103718404Y-102012069D01*
X108879740Y-103691899D02*
X105229740Y-103691899D01*
%TO.N,unconnected-(U2-SENSEU-Pad4)*%
X124086096Y-82318143D02*
G75*
G02*
X122410192Y-84606286I-2399896J-57D01*
G01*
%TO.N,Net-(D1B-K)*%
X100987731Y-100226638D02*
X101494238Y-99849343D01*
%TO.N,unconnected-(U2-SENSEU-Pad4)*%
X110908698Y-82331875D02*
G75*
G02*
X109931090Y-83666632I-1400098J75D01*
G01*
X114183680Y-82331893D02*
G75*
G02*
X116983676Y-82331893I1399998J1D01*
G01*
X105222462Y-91101772D02*
G75*
G02*
X101622462Y-91101772I-1800000J0D01*
G01*
%TO.N,Net-(D1B-K)*%
X102668404Y-99472069D02*
X105358404Y-99472069D01*
%TO.N,unconnected-(U2-SENSEU-Pad4)*%
X101822462Y-91101772D02*
G75*
G02*
X102939748Y-89576399I1599938J-28D01*
G01*
X119471541Y-91133062D02*
G75*
G02*
X121007801Y-89035644I2199959J-38D01*
G01*
X121513331Y-83505900D02*
G75*
G02*
X120485788Y-82318143I172869J1187900D01*
G01*
%TO.N,Net-(D1B-K)*%
X101958404Y-99352069D02*
X103608404Y-102212069D01*
%TO.N,unconnected-(U2-SENSEU-Pad4)*%
X121686096Y-84718143D02*
X122349856Y-84415623D01*
X114583676Y-82331893D02*
G75*
G02*
X116583676Y-82331893I1000000J0D01*
G01*
%TO.N,Net-(D1B-K)*%
X108190855Y-104443098D02*
X108213893Y-104283194D01*
%TO.N,unconnected-(U2-SENSEU-Pad4)*%
X109273429Y-83096498D02*
X109689723Y-82903913D01*
%TO.N,Net-(D1B-K)*%
X101222806Y-106489796D02*
X102342895Y-104549848D01*
%TO.N,unconnected-(U2-SENSEU-Pad4)*%
X121738150Y-89534453D02*
X121249149Y-89798304D01*
X123086096Y-82318143D02*
G75*
G02*
X122108475Y-83652861I-1399996J43D01*
G01*
X124271541Y-91133062D02*
G75*
G02*
X119071541Y-91133062I-2600000J0D01*
G01*
%TO.N,Net-(D1B-K)*%
X106548404Y-99379383D02*
X104723404Y-102540375D01*
%TO.N,unconnected-(U2-SENSEU-Pad4)*%
X104022462Y-91101772D02*
G75*
G02*
X102822462Y-91101772I-600000J0D01*
G01*
X107104987Y-91139601D02*
G75*
G02*
X108780869Y-88851389I2400213J-99D01*
G01*
X121686096Y-84318143D02*
X122229172Y-84034263D01*
X103489071Y-89503163D02*
X103000070Y-89767014D01*
X113983680Y-82331893D02*
G75*
G02*
X117183676Y-82331893I1599998J1D01*
G01*
X113796541Y-91133062D02*
G75*
G02*
X115053485Y-89417004I1799959J-38D01*
G01*
X114596541Y-91133062D02*
G75*
G02*
X115294852Y-90179724I999959J-38D01*
G01*
X121513331Y-83505900D02*
X121987805Y-83271543D01*
X120686096Y-82318143D02*
G75*
G02*
X122686096Y-82318143I1000000J0D01*
G01*
X111304987Y-91139601D02*
G75*
G02*
X107704987Y-91139601I-1800000J0D01*
G01*
X121686095Y-84118143D02*
G75*
G02*
X119886057Y-82318143I-95J1799943D01*
G01*
X121671541Y-89133062D02*
G75*
G02*
X123671538Y-91133062I59J-1999938D01*
G01*
X110304987Y-91139601D02*
G75*
G02*
X108704987Y-91139601I-800000J0D01*
G01*
X110508698Y-82331875D02*
G75*
G02*
X109810414Y-83285296I-999998J-25D01*
G01*
X121844306Y-89945305D02*
X121369832Y-90179662D01*
X120886096Y-82318143D02*
G75*
G02*
X122486096Y-82318143I800000J0D01*
G01*
X121686096Y-84718143D02*
G75*
G02*
X119286057Y-82318143I-96J2399943D01*
G01*
X114383420Y-82331893D02*
G75*
G02*
X116783719Y-82306892I1200280J-7D01*
G01*
X115348407Y-83096516D02*
G75*
G02*
X114783629Y-82331893I235193J764616D01*
G01*
%TO.N,Net-(D1B-K)*%
X108199519Y-102681183D02*
X108246935Y-103023311D01*
X108649778Y-103888220D02*
X105347945Y-103887162D01*
X105702560Y-104472950D02*
X105642560Y-104576873D01*
X106727557Y-100251671D02*
X105408019Y-102526164D01*
%TO.N,unconnected-(U2-SENSEU-Pad4)*%
X111504987Y-91139601D02*
G75*
G02*
X107504987Y-91139601I-2000000J0D01*
G01*
%TO.N,Net-(D1B-K)*%
X105358404Y-99472069D02*
X105678404Y-99602069D01*
%TO.N,unconnected-(U2-SENSEU-Pad4)*%
X118183676Y-82331893D02*
G75*
G02*
X116368138Y-84810790I-2600076J-7D01*
G01*
%TO.N,Net-(D1B-K)*%
X105438404Y-98872069D02*
X106068404Y-99152069D01*
%TO.N,unconnected-(U2-SENSEU-Pad4)*%
X102222462Y-91126772D02*
G75*
G02*
X103060354Y-89957511I1199938J24972D01*
G01*
X113583676Y-82331893D02*
G75*
G02*
X117583676Y-82331893I2000000J0D01*
G01*
%TO.N,Net-(D1B-K)*%
X100676321Y-99966016D02*
X101233808Y-99560420D01*
X100991395Y-106888982D02*
X99601395Y-104481432D01*
X105398404Y-107818388D02*
X105758404Y-107668388D01*
X107099444Y-105533476D02*
X106644444Y-106321559D01*
%TO.N,unconnected-(U2-SENSEU-Pad4)*%
X116596541Y-91133062D02*
G75*
G02*
X114596541Y-91133062I-1000000J0D01*
G01*
%TO.N,Net-(D1B-K)*%
X108051314Y-102824484D02*
X105578019Y-102820612D01*
X99732184Y-104047964D02*
X102519305Y-104055399D01*
%TO.N,unconnected-(U2-SENSEU-Pad4)*%
X109508698Y-84931875D02*
X110232800Y-84620035D01*
X119071541Y-91133062D02*
G75*
G02*
X120887117Y-88654284I2599959J-38D01*
G01*
%TO.N,Net-(D1B-K)*%
X100823190Y-106997642D02*
X99403190Y-104538130D01*
X107325470Y-107141988D02*
X106767983Y-107547584D01*
X99787898Y-102824810D02*
X102417436Y-102830317D01*
X99601395Y-104481432D02*
X99527902Y-103854137D01*
%TO.N,unconnected-(U2-SENSEU-Pad4)*%
X109442089Y-83930484D02*
X109931090Y-83666633D01*
%TO.N,Net-(D1B-K)*%
X108775470Y-104630515D02*
X107325470Y-107141988D01*
%TO.N,unconnected-(U2-SENSEU-Pad4)*%
X111704987Y-91139601D02*
G75*
G02*
X107304987Y-91139601I-2200000J0D01*
G01*
%TO.N,Net-(D1B-K)*%
X100991395Y-106888982D02*
X101301299Y-107125751D01*
X99352013Y-103219785D02*
X102653846Y-103220843D01*
X105408404Y-108018388D02*
X106028404Y-107738388D01*
%TO.N,unconnected-(U2-SENSEU-Pad4)*%
X115596541Y-89133062D02*
X115053465Y-89416942D01*
X115583675Y-84131893D02*
G75*
G02*
X113783607Y-82331893I-75J1799993D01*
G01*
%TO.N,Net-(D1B-K)*%
X105448404Y-108218388D02*
X102548404Y-108218388D01*
%TO.N,unconnected-(U2-SENSEU-Pad4)*%
X106908698Y-82331875D02*
G75*
G02*
X112108698Y-82331875I2600000J0D01*
G01*
X107108698Y-82331875D02*
G75*
G02*
X111908698Y-82331875I2400000J0D01*
G01*
%TO.N,Net-(D1B-K)*%
X102308404Y-107488388D02*
X103708404Y-105078388D01*
%TO.N,unconnected-(U2-SENSEU-Pad4)*%
X113783676Y-82331893D02*
G75*
G02*
X117383676Y-82331893I1800000J0D01*
G01*
X103422463Y-89301772D02*
G75*
G02*
X105222528Y-91101772I37J-1800028D01*
G01*
X110104987Y-91139601D02*
G75*
G02*
X108904987Y-91139601I-600000J0D01*
G01*
X121188807Y-89607624D02*
X121671542Y-89333062D01*
X115596542Y-89333062D02*
G75*
G02*
X117396538Y-91133062I58J-1799938D01*
G01*
X109380015Y-83725945D02*
G75*
G02*
X108108719Y-82331875I128785J1394145D01*
G01*
%TO.N,Net-(D1B-K)*%
X101551295Y-99570516D02*
X103272051Y-102550080D01*
%TO.N,unconnected-(U2-SENSEU-Pad4)*%
X122271541Y-91133062D02*
G75*
G02*
X121071541Y-91133062I-600000J0D01*
G01*
X103551145Y-89707702D02*
G75*
G02*
X104822521Y-91101772I-128645J-1394098D01*
G01*
%TO.N,Net-(D1B-K)*%
X106313404Y-107839381D02*
X104488404Y-104678388D01*
X105408404Y-99672069D02*
X104168404Y-101812069D01*
%TO.N,unconnected-(U2-SENSEU-Pad4)*%
X107708698Y-82331875D02*
G75*
G02*
X111308698Y-82331875I1800000J0D01*
G01*
%TO.N,Net-(D1B-K)*%
X107155929Y-100073632D02*
X106603442Y-99676696D01*
%TO.N,unconnected-(U2-SENSEU-Pad4)*%
X117596541Y-91133062D02*
G75*
G02*
X113596541Y-91133062I-2000000J0D01*
G01*
%TO.N,Net-(D1B-K)*%
X100902346Y-101574529D02*
X101357346Y-100786446D01*
X105168404Y-107418388D02*
X102578404Y-107418388D01*
X107309134Y-99938991D02*
X108759134Y-102450465D01*
%TO.N,unconnected-(U2-SENSEU-Pad4)*%
X115583676Y-84731893D02*
X116247436Y-84429373D01*
X120485840Y-82318143D02*
G75*
G02*
X122886098Y-82293143I1200260J-57D01*
G01*
%TO.N,Net-(D1B-K)*%
X102918404Y-107218388D02*
X103928404Y-105478388D01*
%TO.N,unconnected-(U2-SENSEU-Pad4)*%
X117396541Y-91133062D02*
G75*
G02*
X113796541Y-91133062I-1800000J0D01*
G01*
%TO.N,Net-(D1B-K)*%
X99403190Y-104538130D02*
X99314959Y-103665310D01*
%TO.N,unconnected-(U2-SENSEU-Pad4)*%
X108908698Y-82331875D02*
G75*
G02*
X110108698Y-82331875I600000J0D01*
G01*
%TO.N,Net-(D1B-K)*%
X105168404Y-107418388D02*
X104048404Y-105478388D01*
%TO.N,unconnected-(U2-SENSEU-Pad4)*%
X103626416Y-90122791D02*
G75*
G02*
X104422441Y-91101772I-204016J-979009D01*
G01*
X121450827Y-83082766D02*
X121867121Y-82890181D01*
X123686096Y-82318143D02*
G75*
G02*
X122289509Y-84224926I-1999896J-57D01*
G01*
X109504987Y-89139601D02*
G75*
G02*
X111504999Y-91139601I-87J-2000099D01*
G01*
%TO.N,Net-(D1B-K)*%
X108404060Y-104473816D02*
X107014060Y-106881366D01*
%TO.N,unconnected-(U2-SENSEU-Pad4)*%
X115831810Y-90368439D02*
G75*
G02*
X116396573Y-91133062I-235410J-764761D01*
G01*
X109504987Y-88939601D02*
G75*
G02*
X111704999Y-91139601I-87J-2200099D01*
G01*
X107304987Y-91139601D02*
G75*
G02*
X108841245Y-89042178I2199913J1D01*
G01*
X115725224Y-89738992D02*
X115234412Y-89988736D01*
X115800495Y-90154081D02*
X115355174Y-90370342D01*
X116196541Y-91133062D02*
G75*
G02*
X114996541Y-91133062I-600000J0D01*
G01*
X110308698Y-82331875D02*
G75*
G02*
X109750072Y-83094616I-799998J-25D01*
G01*
X109508698Y-84731875D02*
G75*
G02*
X107108625Y-82331875I-98J2399975D01*
G01*
%TO.N,Net-(D1B-K)*%
X101768404Y-107658388D02*
X103488404Y-104678388D01*
%TO.N,unconnected-(U2-SENSEU-Pad4)*%
X115769306Y-89945305D02*
X115294832Y-90179662D01*
X105022458Y-91101772D02*
G75*
G02*
X101822462Y-91101772I-1599998J-1D01*
G01*
%TO.N,Net-(D1B-K)*%
X99226321Y-102477490D02*
X99122051Y-103416105D01*
%TO.N,unconnected-(U2-SENSEU-Pad4)*%
X121906810Y-90368439D02*
X121490516Y-90561024D01*
X107504987Y-91139601D02*
G75*
G02*
X108901587Y-89232858I1999913J1D01*
G01*
%TO.N,Net-(D1B-K)*%
X108454156Y-104087047D02*
X105466150Y-104082425D01*
X99122051Y-103416105D02*
X102772051Y-103416106D01*
%TO.N,unconnected-(U2-SENSEU-Pad4)*%
X107704987Y-91139601D02*
G75*
G02*
X108961929Y-89423538I1799913J1D01*
G01*
X103422462Y-88701772D02*
X102758702Y-89004292D01*
X107904987Y-91139601D02*
G75*
G02*
X109022242Y-89614127I1599913J101D01*
G01*
%TO.N,Net-(D1B-K)*%
X106845855Y-106772706D02*
X106573271Y-106984834D01*
X103255715Y-104530899D02*
X102755715Y-103664874D01*
%TO.N,unconnected-(U2-SENSEU-Pad4)*%
X113596541Y-91133062D02*
G75*
G02*
X114993143Y-89226324I1999959J-38D01*
G01*
X121875495Y-90154081D02*
G75*
G02*
X122671528Y-91133062I-203895J-978919D01*
G01*
X111104983Y-91139601D02*
G75*
G02*
X107904987Y-91139601I-1599998J-1D01*
G01*
%TO.N,Net-(D1B-K)*%
X102038404Y-107568388D02*
X103598404Y-104878388D01*
%TO.N,unconnected-(U2-SENSEU-Pad4)*%
X115596541Y-89133062D02*
G75*
G02*
X117596538Y-91133062I59J-1999938D01*
G01*
X103595227Y-89914015D02*
G75*
G02*
X104622693Y-91101772I-172827J-1187785D01*
G01*
X109508698Y-84331875D02*
X110051774Y-84047995D01*
%TO.N,Net-(D1B-K)*%
X108404060Y-104473816D02*
X108454156Y-104087047D01*
%TO.N,unconnected-(U2-SENSEU-Pad4)*%
X117783676Y-82331893D02*
G75*
G02*
X116247454Y-84429430I-2200076J-7D01*
G01*
X105822462Y-91101772D02*
G75*
G02*
X101022462Y-91101772I-2400000J0D01*
G01*
%TO.N,Net-(D1B-K)*%
X108213893Y-104283194D02*
X105584355Y-104277687D01*
X105408404Y-108018388D02*
X102568404Y-108018388D01*
%TO.N,unconnected-(U2-SENSEU-Pad4)*%
X114783676Y-82331893D02*
G75*
G02*
X116383676Y-82331893I800000J0D01*
G01*
%TO.N,Net-(D1B-K)*%
X102818404Y-99672069D02*
X105408404Y-99672069D01*
X102417436Y-102830317D02*
X102587436Y-102535869D01*
X101357346Y-100786446D02*
X102359231Y-102531131D01*
%TO.N,unconnected-(U2-SENSEU-Pad4)*%
X121686096Y-85118143D02*
X122470540Y-84796983D01*
X100822462Y-91101772D02*
G75*
G02*
X102638039Y-88622999I2599938J-28D01*
G01*
%TO.N,Net-(D1B-K)*%
X107942649Y-104473002D02*
X105702560Y-104472950D01*
%TO.N,unconnected-(U2-SENSEU-Pad4)*%
X109708941Y-90160620D02*
G75*
G02*
X110504997Y-91139601I-203941J-978980D01*
G01*
X120086100Y-82318143D02*
G75*
G02*
X123286096Y-82318143I1599998J1D01*
G01*
X119671541Y-91133062D02*
G75*
G02*
X121068143Y-89226324I1999959J-38D01*
G01*
X123871541Y-91133062D02*
G75*
G02*
X119471541Y-91133062I-2200000J0D01*
G01*
X111308698Y-82331875D02*
G75*
G02*
X110051781Y-84048017I-1799998J-25D01*
G01*
%TO.N,Net-(D1B-K)*%
X103027510Y-104535636D02*
X102637510Y-103860136D01*
%TO.N,unconnected-(U2-SENSEU-Pad4)*%
X116796797Y-91133062D02*
G75*
G02*
X114396465Y-91158064I-1200297J62D01*
G01*
X117583676Y-82331893D02*
G75*
G02*
X116187083Y-84238659I-2000076J93D01*
G01*
%TO.N,Net-(D1B-K)*%
X107155929Y-100073632D02*
X108575929Y-102533144D01*
X103828404Y-101812069D02*
X104168404Y-101812069D01*
X100839526Y-100083337D02*
X101551295Y-99570516D01*
%TO.N,unconnected-(U2-SENSEU-Pad4)*%
X122486096Y-82318143D02*
G75*
G02*
X121927458Y-83080846I-799896J-57D01*
G01*
X121875495Y-90154081D02*
X121430174Y-90370342D01*
X115831810Y-90368439D02*
X115415516Y-90561024D01*
X122471541Y-91133062D02*
G75*
G02*
X120871541Y-91133062I-800000J0D01*
G01*
%TO.N,Net-(D1B-K)*%
X105318404Y-107618388D02*
X105468404Y-107558388D01*
%TO.N,unconnected-(U2-SENSEU-Pad4)*%
X109304744Y-83310856D02*
X109750065Y-83094595D01*
%TO.N,Net-(D1B-K)*%
X105584355Y-104277687D02*
X105414355Y-104572136D01*
X107014060Y-106881366D02*
X106507553Y-107258661D01*
%TO.N,unconnected-(U2-SENSEU-Pad4)*%
X109504987Y-88739601D02*
G75*
G02*
X111904999Y-91139601I-87J-2400099D01*
G01*
X115454993Y-83725963D02*
G75*
G02*
X114183617Y-82331893I128607J1394063D01*
G01*
X108108702Y-82331875D02*
G75*
G02*
X110908698Y-82331875I1399998J1D01*
G01*
X120871541Y-91133062D02*
G75*
G02*
X121430194Y-90370404I799959J-38D01*
G01*
X110708698Y-82306875D02*
G75*
G02*
X109870835Y-83476225I-1199998J-25025D01*
G01*
X121086096Y-82318143D02*
G75*
G02*
X122286096Y-82318143I600000J0D01*
G01*
%TO.N,Net-(D1B-K)*%
X101428520Y-100123170D02*
X102815641Y-102540606D01*
%TO.N,unconnected-(U2-SENSEU-Pad4)*%
X110504987Y-91139601D02*
G75*
G02*
X108504987Y-91139601I-1000000J0D01*
G01*
X121671542Y-89333062D02*
G75*
G02*
X123471538Y-91133062I58J-1799938D01*
G01*
X109504988Y-89339601D02*
G75*
G02*
X111304999Y-91139601I-88J-1800099D01*
G01*
X109740256Y-90374978D02*
G75*
G02*
X110304995Y-91139601I-235256J-764622D01*
G01*
X112108698Y-82331875D02*
G75*
G02*
X110293149Y-84810736I-2599998J-25D01*
G01*
X122168830Y-83843581D02*
X121686095Y-84118143D01*
%TO.N,Net-(D1B-K)*%
X106644444Y-106321559D02*
X105642560Y-104576873D01*
%TO.N,unconnected-(U2-SENSEU-Pad4)*%
X109022253Y-89614163D02*
X109504988Y-89339601D01*
X122686096Y-82318143D02*
G75*
G02*
X121987800Y-83271526I-999896J-57D01*
G01*
X108308442Y-82331875D02*
G75*
G02*
X110708697Y-82306875I1200258J-25D01*
G01*
%TO.N,Net-(D1B-K)*%
X102578404Y-99072069D02*
X101958404Y-99352069D01*
X105179814Y-102530901D02*
X105459814Y-103015875D01*
%TO.N,unconnected-(U2-SENSEU-Pad4)*%
X122886096Y-82293143D02*
G75*
G02*
X122048221Y-83462455I-1199896J-25057D01*
G01*
X109335933Y-83519632D02*
G75*
G02*
X108308455Y-82331875I172867J1187832D01*
G01*
X117383676Y-82331893D02*
G75*
G02*
X116126741Y-84047979I-1800076J93D01*
G01*
X109504987Y-88739601D02*
X108841227Y-89042121D01*
X115663150Y-89534453D02*
G75*
G02*
X117196532Y-91133062I-66550J-1598547D01*
G01*
X121800224Y-89738992D02*
X121309412Y-89988736D01*
%TO.N,Net-(D1B-K)*%
X100823190Y-106997642D02*
X101375677Y-107394578D01*
X108451217Y-103217138D02*
X105341609Y-103211138D01*
%TO.N,unconnected-(U2-SENSEU-Pad4)*%
X109380015Y-83725945D02*
X109870827Y-83476201D01*
X109508698Y-84531875D02*
G75*
G02*
X107308625Y-82331875I-98J2199975D01*
G01*
%TO.N,Net-(D1B-K)*%
X102618404Y-107818388D02*
X102038404Y-107568388D01*
%TO.N,unconnected-(U2-SENSEU-Pad4)*%
X109571596Y-89540992D02*
X109082595Y-89804843D01*
X114983676Y-82331893D02*
G75*
G02*
X116183676Y-82331893I600000J0D01*
G01*
%TO.N,Net-(D1B-K)*%
X101430715Y-107691892D02*
X103255715Y-104530899D01*
X108377724Y-102589843D02*
X108451217Y-103217138D01*
X104048404Y-105478388D02*
X103928404Y-105478388D01*
%TO.N,unconnected-(U2-SENSEU-Pad4)*%
X119271541Y-91133062D02*
G75*
G02*
X120947459Y-88844964I2399959J-38D01*
G01*
X114196541Y-91133062D02*
G75*
G02*
X115174168Y-89798364I1399959J-38D01*
G01*
X115379722Y-83310874D02*
X115825043Y-83094613D01*
%TO.N,Net-(D1B-K)*%
X102342895Y-104549848D02*
X102282895Y-104445925D01*
X102668404Y-99472069D02*
X102518404Y-99532069D01*
X102588404Y-99272069D02*
X102228404Y-99422069D01*
%TO.N,unconnected-(U2-SENSEU-Pad4)*%
X101022462Y-91101772D02*
G75*
G02*
X102698381Y-88813679I2399938J-28D01*
G01*
X115583676Y-84331893D02*
G75*
G02*
X113583607Y-82331893I-76J1999993D01*
G01*
X121482142Y-83297124D02*
G75*
G02*
X120686038Y-82318143I204058J979124D01*
G01*
X115596541Y-88733062D02*
G75*
G02*
X117996538Y-91133062I59J-2399938D01*
G01*
%TO.N,Net-(D1B-K)*%
X108775470Y-104630515D02*
X108879740Y-103691899D01*
%TO.N,unconnected-(U2-SENSEU-Pad4)*%
X103422462Y-89101772D02*
X102879386Y-89385652D01*
X109677752Y-89951844D02*
X109203278Y-90186201D01*
%TO.N,Net-(D1B-K)*%
X102578404Y-107418388D02*
X103818404Y-105278388D01*
%TO.N,unconnected-(U2-SENSEU-Pad4)*%
X116983676Y-82331893D02*
G75*
G02*
X116006087Y-83666710I-1400076J-7D01*
G01*
%TO.N,Net-(D1B-K)*%
X102588404Y-99272069D02*
X105368404Y-99272069D01*
%TO.N,unconnected-(U2-SENSEU-Pad4)*%
X104422462Y-91101772D02*
G75*
G02*
X102422462Y-91101772I-1000000J0D01*
G01*
X105622462Y-91101772D02*
G75*
G02*
X101222462Y-91101772I-2200000J0D01*
G01*
X115517067Y-83930502D02*
G75*
G02*
X113983614Y-82331893I66533J1598602D01*
G01*
%TO.N,Net-(D1B-K)*%
X102571100Y-104545111D02*
X102401100Y-104250662D01*
%TO.N,unconnected-(U2-SENSEU-Pad4)*%
X109335933Y-83519632D02*
X109810407Y-83285275D01*
%TO.N,Net-(D1B-K)*%
X100059141Y-102635003D02*
X101354141Y-100391997D01*
%TO.N,unconnected-(U2-SENSEU-Pad4)*%
X124286096Y-82318143D02*
G75*
G02*
X122470534Y-84796966I-2599896J-57D01*
G01*
X117196537Y-91133062D02*
G75*
G02*
X113996541Y-91133062I-1599998J-1D01*
G01*
%TO.N,Net-(D1B-K)*%
X106647649Y-106716007D02*
X105414355Y-104572136D01*
X106573271Y-106984834D02*
X105186150Y-104567399D01*
X102568404Y-108018388D02*
X101768404Y-107658388D01*
%TO.N,unconnected-(U2-SENSEU-Pad4)*%
X108508698Y-82331875D02*
G75*
G02*
X110508698Y-82331875I1000000J0D01*
G01*
X103422462Y-89101772D02*
G75*
G02*
X105422528Y-91101772I38J-2000028D01*
G01*
X102022462Y-91101772D02*
G75*
G02*
X103000090Y-89767079I1399938J-28D01*
G01*
X103657731Y-90337149D02*
X103241437Y-90529734D01*
%TO.N,Net-(D1B-K)*%
X102548404Y-108218388D02*
X101918404Y-107938388D01*
X100669985Y-107132283D02*
X99219985Y-104620810D01*
%TO.N,unconnected-(U2-SENSEU-Pad4)*%
X107908702Y-82331875D02*
G75*
G02*
X111108698Y-82331875I1599998J1D01*
G01*
X109571596Y-89540992D02*
G75*
G02*
X111104995Y-91139601I-66596J-1598608D01*
G01*
%TO.N,Net-(D1B-K)*%
X108664160Y-103405965D02*
X105223404Y-103406401D01*
%TO.N,unconnected-(U2-SENSEU-Pad4)*%
X115379722Y-83310874D02*
G75*
G02*
X114583622Y-82331893I203878J978974D01*
G01*
X115583676Y-84331893D02*
X116126752Y-84048013D01*
X104822458Y-91101772D02*
G75*
G02*
X102022462Y-91101772I-1399998J-1D01*
G01*
X110904983Y-91139601D02*
G75*
G02*
X108104987Y-91139601I-1399998J-1D01*
G01*
X113996541Y-91133062D02*
G75*
G02*
X115113826Y-89607684I1599959J-38D01*
G01*
X120471541Y-91158062D02*
G75*
G02*
X121309431Y-89988796I1199959J24962D01*
G01*
%TO.N,Net-(D1B-K)*%
X99219985Y-104620810D02*
X99147472Y-103935214D01*
X99927806Y-104246791D02*
X102401100Y-104250662D01*
%TO.N,unconnected-(U2-SENSEU-Pad4)*%
X105422462Y-91101772D02*
G75*
G02*
X101422462Y-91101772I-2000000J0D01*
G01*
%TO.N,Net-(D1B-K)*%
X105678404Y-99602069D02*
X104278404Y-102012069D01*
X105229740Y-103691899D02*
X104729740Y-104557924D01*
X105068404Y-99872069D02*
X104058404Y-101612069D01*
%TO.N,unconnected-(U2-SENSEU-Pad4)*%
X123071537Y-91133062D02*
G75*
G02*
X120271541Y-91133062I-1399998J-1D01*
G01*
%TO.N,Net-(D1B-K)*%
X105468404Y-107558388D02*
X104158404Y-105278388D01*
%TO.N,unconnected-(U2-SENSEU-Pad4)*%
X116383676Y-82331893D02*
G75*
G02*
X115825061Y-83094670I-800076J-7D01*
G01*
X117796541Y-91133062D02*
G75*
G02*
X113396541Y-91133062I-2200000J0D01*
G01*
X115583676Y-85131893D02*
X116368120Y-84810733D01*
%TO.N,Net-(D1B-K)*%
X108246935Y-103023311D02*
X105459814Y-103015875D01*
X104488404Y-104678388D02*
X103488404Y-104678388D01*
X99527902Y-103854137D02*
X102637510Y-103860136D01*
X102578404Y-99072069D02*
X105418404Y-99072069D01*
X103938404Y-101612069D02*
X104058404Y-101612069D01*
%TO.N,unconnected-(U2-SENSEU-Pad4)*%
X103422462Y-88501772D02*
G75*
G02*
X106022528Y-91101772I38J-2600028D01*
G01*
%TO.N,Net-(D1B-K)*%
X105948404Y-99522069D02*
X104388404Y-102212069D01*
%TO.N,unconnected-(U2-SENSEU-Pad4)*%
X121738150Y-89534453D02*
G75*
G02*
X123271532Y-91133062I-66550J-1598547D01*
G01*
X108708698Y-82331875D02*
G75*
G02*
X110308698Y-82331875I800000J0D01*
G01*
X103489071Y-89503163D02*
G75*
G02*
X105022427Y-91101772I-66671J-1598637D01*
G01*
X122671541Y-91133062D02*
G75*
G02*
X120671541Y-91133062I-1000000J0D01*
G01*
X114996541Y-91133062D02*
G75*
G02*
X115415535Y-90561084I599959J-38D01*
G01*
X121557413Y-83712213D02*
X122048225Y-83462469D01*
%TO.N,Net-(D1B-K)*%
X104158404Y-105278388D02*
X103818404Y-105278388D01*
%TO.N,unconnected-(U2-SENSEU-Pad4)*%
X111508698Y-82331875D02*
G75*
G02*
X110112123Y-84238697I-1999998J-25D01*
G01*
%TO.N,Net-(D1B-K)*%
X106507553Y-107258661D02*
X104957945Y-104562662D01*
%TO.N,unconnected-(U2-SENSEU-Pad4)*%
X103626416Y-90122791D02*
X103181095Y-90339052D01*
X109504987Y-88939601D02*
X108901569Y-89232801D01*
%TO.N,Net-(D1B-K)*%
X99226321Y-102477490D02*
X100676321Y-99966016D01*
X106756314Y-100581478D02*
X105636224Y-102521427D01*
X102535641Y-103025580D02*
X102815641Y-102540606D01*
X108759134Y-102450465D02*
X108831647Y-103136061D01*
%TO.N,unconnected-(U2-SENSEU-Pad4)*%
X119086096Y-82318143D02*
G75*
G02*
X124286096Y-82318143I2600000J0D01*
G01*
%TO.N,Net-(D1B-K)*%
X106987724Y-100182292D02*
X108377724Y-102589843D01*
%TO.N,unconnected-(U2-SENSEU-Pad4)*%
X103422462Y-88701772D02*
G75*
G02*
X105822528Y-91101772I38J-2400028D01*
G01*
X113196541Y-91133062D02*
G75*
G02*
X114872459Y-88844964I2399959J-38D01*
G01*
X121619487Y-83916752D02*
X122108488Y-83652901D01*
%TO.N,Net-(D1B-K)*%
X106218404Y-99432069D02*
X104498404Y-102412069D01*
%TO.N,unconnected-(U2-SENSEU-Pad4)*%
X121671541Y-88333062D02*
X120887097Y-88654222D01*
X101622462Y-91101772D02*
G75*
G02*
X102879407Y-89385719I1799938J-28D01*
G01*
X120071541Y-91133062D02*
G75*
G02*
X121188826Y-89607684I1599959J-38D01*
G01*
X121906810Y-90368439D02*
G75*
G02*
X122471573Y-91133062I-235410J-764761D01*
G01*
X115454993Y-83725963D02*
X115945805Y-83476219D01*
X115596541Y-88933062D02*
X114993123Y-89226262D01*
X121671541Y-88533062D02*
G75*
G02*
X124271538Y-91133062I59J-2599938D01*
G01*
%TO.N,Net-(D1B-K)*%
X99597731Y-102634189D02*
X100987731Y-100226638D01*
X106756314Y-100581478D02*
X108051314Y-102824484D01*
%TO.N,unconnected-(U2-SENSEU-Pad4)*%
X109504987Y-88539601D02*
X108780885Y-88851441D01*
X109504987Y-88339601D02*
X108720543Y-88660761D01*
X115517067Y-83930502D02*
X116006068Y-83666651D01*
%TO.N,Net-(D1B-K)*%
X99810936Y-102664907D02*
X101155936Y-100335298D01*
%TO.N,unconnected-(U2-SENSEU-Pad4)*%
X113183676Y-82331893D02*
G75*
G02*
X117983676Y-82331893I2400000J0D01*
G01*
%TO.N,Net-(D1B-K)*%
X104268404Y-105078388D02*
X103708404Y-105078388D01*
X99779600Y-104390092D02*
X99732184Y-104047964D01*
%TO.N,unconnected-(U2-SENSEU-Pad4)*%
X113383676Y-82331893D02*
G75*
G02*
X117783676Y-82331893I2200000J0D01*
G01*
X103595227Y-89914015D02*
X103120753Y-90148372D01*
X112983676Y-82331893D02*
G75*
G02*
X118183676Y-82331893I2600000J0D01*
G01*
X106904987Y-91139601D02*
G75*
G02*
X108720527Y-88660709I2600213J-99D01*
G01*
X121686096Y-84518143D02*
G75*
G02*
X119486057Y-82318143I-96J2199943D01*
G01*
X121671541Y-88733062D02*
G75*
G02*
X124071538Y-91133062I59J-2399938D01*
G01*
X110705243Y-91139601D02*
G75*
G02*
X108305017Y-91164600I-1200243J1D01*
G01*
X121686096Y-84918143D02*
G75*
G02*
X119086057Y-82318143I-96J2599943D01*
G01*
%TO.N,Net-(D1B-K)*%
X104378404Y-104878388D02*
X103598404Y-104878388D01*
%TO.N,unconnected-(U2-SENSEU-Pad4)*%
X121800224Y-89738992D02*
G75*
G02*
X123071529Y-91133062I-128624J-1394008D01*
G01*
X123486096Y-82318143D02*
G75*
G02*
X122229167Y-84034246I-1799896J-57D01*
G01*
X124071541Y-91133062D02*
G75*
G02*
X119271541Y-91133062I-2400000J0D01*
G01*
X123286096Y-82318143D02*
G75*
G02*
X122168825Y-83843566I-1599896J-57D01*
G01*
%TO.N,Net-(D1B-K)*%
X105398404Y-107818388D02*
X102618404Y-107818388D01*
%TO.N,unconnected-(U2-SENSEU-Pad4)*%
X121450827Y-83082766D02*
G75*
G02*
X120886103Y-82318143I235473J764766D01*
G01*
X109508698Y-85131875D02*
X110293142Y-84810715D01*
%TO.N,Net-(D1B-K)*%
X99314959Y-103665310D02*
X102755715Y-103664874D01*
%TO.N,unconnected-(U2-SENSEU-Pad4)*%
X119286096Y-82318143D02*
G75*
G02*
X124086096Y-82318143I2400000J0D01*
G01*
X122871797Y-91133062D02*
G75*
G02*
X120471465Y-91158064I-1200297J62D01*
G01*
%TO.N,Net-(D1B-K)*%
X105318404Y-107618388D02*
X102628404Y-107618388D01*
%TO.N,unconnected-(U2-SENSEU-Pad4)*%
X121671541Y-89133062D02*
X121128465Y-89416942D01*
X115596541Y-88333062D02*
X114812097Y-88654222D01*
X121686096Y-84318143D02*
G75*
G02*
X119686057Y-82318143I-96J1999943D01*
G01*
%TO.N,Net-(D1B-K)*%
X105418404Y-99072069D02*
X106218404Y-99432069D01*
%TO.N,unconnected-(U2-SENSEU-Pad4)*%
X123271537Y-91133062D02*
G75*
G02*
X120071541Y-91133062I-1599998J-1D01*
G01*
X108504987Y-91139601D02*
G75*
G02*
X109203296Y-90186258I999913J1D01*
G01*
X116396541Y-91133062D02*
G75*
G02*
X114796541Y-91133062I-800000J0D01*
G01*
X115596541Y-88933062D02*
G75*
G02*
X117796538Y-91133062I59J-2199938D01*
G01*
X103422462Y-88501772D02*
X102698360Y-88813612D01*
%TO.N,Net-(D1B-K)*%
X101155936Y-100335298D02*
X101428520Y-100123170D01*
X108190855Y-104443098D02*
X106845855Y-106772706D01*
X102799305Y-104540373D02*
X102519305Y-104055399D01*
X104951609Y-102535638D02*
X105341609Y-103211138D01*
%TO.N,unconnected-(U2-SENSEU-Pad4)*%
X109504987Y-89139601D02*
X108961911Y-89423481D01*
X109304744Y-83310856D02*
G75*
G02*
X108508705Y-82331875I204056J979056D01*
G01*
%TO.N,Net-(D1B-K)*%
X101375677Y-107394578D02*
X103027510Y-104535636D01*
%TO.N,unconnected-(U2-SENSEU-Pad4)*%
X116783676Y-82306893D02*
G75*
G02*
X115945824Y-83476278I-1200076J-25007D01*
G01*
%TO.N,Net-(D1B-K)*%
X101354141Y-100391997D02*
X102587436Y-102535869D01*
%TO.N,unconnected-(U2-SENSEU-Pad4)*%
X109508698Y-84331875D02*
G75*
G02*
X107508625Y-82331875I-98J1999975D01*
G01*
X117183676Y-82331893D02*
G75*
G02*
X116066429Y-83857390I-1600076J-7D01*
G01*
%TO.N,Net-(D1B-K)*%
X105448404Y-108218388D02*
X106313404Y-107839381D01*
%TO.N,unconnected-(U2-SENSEU-Pad4)*%
X121557413Y-83712213D02*
G75*
G02*
X120286069Y-82318143I128587J1394013D01*
G01*
%TO.N,Net-(D1B-K)*%
X103718404Y-102012069D02*
X104278404Y-102012069D01*
%TO.N,unconnected-(U2-SENSEU-Pad4)*%
X106022462Y-91101772D02*
G75*
G02*
X100822462Y-91101772I-2600000J0D01*
G01*
%TO.N,Net-(D1B-K)*%
X102538404Y-98872069D02*
X101673404Y-99251076D01*
X103828404Y-107218388D02*
X102918404Y-107218388D01*
%TO.N,unconnected-(U2-SENSEU-Pad4)*%
X111908698Y-82331875D02*
G75*
G02*
X110232807Y-84620056I-2399998J-25D01*
G01*
%TO.N,Net-(D1B-K)*%
X108575929Y-102533144D02*
X108664160Y-103405965D01*
X105636224Y-102521427D02*
X105696224Y-102625350D01*
%TO.N,unconnected-(U2-SENSEU-Pad4)*%
X121671541Y-88733062D02*
X121007781Y-89035582D01*
%TO.N,Net-(D1B-K)*%
X106854519Y-100351574D02*
X106727557Y-100251671D01*
%TO.N,unconnected-(U2-SENSEU-Pad4)*%
X102622462Y-91101772D02*
G75*
G02*
X103181116Y-90339119I799938J-28D01*
G01*
X103551145Y-89707702D02*
X103060333Y-89957446D01*
%TO.N,Net-(D1B-K)*%
X105758404Y-107668388D02*
X104268404Y-105078388D01*
X101494238Y-99849343D02*
X103043846Y-102545343D01*
%TO.N,unconnected-(U2-SENSEU-Pad4)*%
X109508698Y-84731875D02*
X110172458Y-84429355D01*
%TO.N,Net-(D1B-K)*%
X100271011Y-104441239D02*
X102282895Y-104445925D01*
%TO.N,unconnected-(U2-SENSEU-Pad4)*%
X115113807Y-89607624D02*
X115596542Y-89333062D01*
%TO.N,Net-(D1B-K)*%
X105466150Y-104082425D02*
X105186150Y-104567399D01*
X103498404Y-102412069D02*
X104498404Y-102412069D01*
%TO.N,unconnected-(U2-SENSEU-Pad4)*%
X115596541Y-88733062D02*
X114932781Y-89035582D01*
%TO.N,Net-(D1B-K)*%
X101124600Y-106719700D02*
X101251562Y-106819604D01*
%TO.N,unconnected-(U2-SENSEU-Pad4)*%
X112104987Y-91139601D02*
G75*
G02*
X106904987Y-91139601I-2600000J0D01*
G01*
%TO.N,Net-(D1B-K)*%
X106028404Y-107738388D02*
X104378404Y-104878388D01*
%TO.N,unconnected-(U2-SENSEU-Pad4)*%
X103422462Y-88901772D02*
G75*
G02*
X105622528Y-91101772I38J-2200028D01*
G01*
X107508698Y-82331875D02*
G75*
G02*
X111508698Y-82331875I2000000J0D01*
G01*
%TO.N,Net-(D1B-K)*%
X102772051Y-103416106D02*
X103272051Y-102550080D01*
X108582265Y-104565156D02*
X108649778Y-103888220D01*
X101222806Y-106489796D02*
X99927806Y-104246791D01*
%TO.N,unconnected-(U2-SENSEU-Pad4)*%
X112996541Y-91133062D02*
G75*
G02*
X114812117Y-88654284I2599959J-38D01*
G01*
%TO.N,Net-(D1B-K)*%
X102653846Y-103220843D02*
X103043846Y-102545343D01*
X106677820Y-99945523D02*
X105179814Y-102530901D01*
%TO.N,unconnected-(U2-SENSEU-Pad4)*%
X102422462Y-91101772D02*
G75*
G02*
X103120774Y-90148439I999938J-28D01*
G01*
X111108698Y-82331875D02*
G75*
G02*
X109991439Y-83857336I-1599998J-25D01*
G01*
X109633670Y-89745531D02*
G75*
G02*
X110904994Y-91139601I-128670J-1394069D01*
G01*
X108304987Y-91164601D02*
G75*
G02*
X109142846Y-89995237I1199913J25101D01*
G01*
X117983676Y-82331893D02*
G75*
G02*
X116307796Y-84620110I-2400076J-7D01*
G01*
X115725224Y-89738992D02*
G75*
G02*
X116996529Y-91133062I-128624J-1394008D01*
G01*
X115410911Y-83519650D02*
G75*
G02*
X114383362Y-82331893I172689J1187750D01*
G01*
%TO.N,Net-(D1B-K)*%
X105368404Y-99272069D02*
X105948404Y-99522069D01*
X106854519Y-100351574D02*
X108199519Y-102681183D01*
%TO.N,unconnected-(U2-SENSEU-Pad4)*%
X115583676Y-84731893D02*
G75*
G02*
X113183607Y-82331893I-76J2399993D01*
G01*
%TO.N,Net-(D1B-K)*%
X105408019Y-102526164D02*
X105578019Y-102820612D01*
%TO.N,unconnected-(U2-SENSEU-Pad4)*%
X104222462Y-91101772D02*
G75*
G02*
X102622462Y-91101772I-800000J0D01*
G01*
%TO.N,Net-(D1B-K)*%
X100726011Y-105229322D02*
X100271011Y-104441239D01*
X99547635Y-103020958D02*
X102535641Y-103025580D01*
X106603442Y-99676696D02*
X104951609Y-102535638D01*
%TO.N,unconnected-(U2-SENSEU-Pad4)*%
X123671541Y-91133062D02*
G75*
G02*
X119671541Y-91133062I-2000000J0D01*
G01*
%TO.N,Net-(D1B-K)*%
X99419526Y-102542849D02*
X99352013Y-103219785D01*
%TO.N,unconnected-(U2-SENSEU-Pad4)*%
X115596541Y-88533062D02*
G75*
G02*
X118196538Y-91133062I59J-2599938D01*
G01*
X115583676Y-84931893D02*
G75*
G02*
X112983607Y-82331893I-76J2599993D01*
G01*
X123886096Y-82318143D02*
G75*
G02*
X122349851Y-84415606I-2199896J-57D01*
G01*
X109442089Y-83930484D02*
G75*
G02*
X107908725Y-82331875I66711J1598684D01*
G01*
X114796541Y-91133062D02*
G75*
G02*
X115355194Y-90370404I799959J-38D01*
G01*
X116996537Y-91133062D02*
G75*
G02*
X114196541Y-91133062I-1399998J-1D01*
G01*
X104622718Y-91101772D02*
G75*
G02*
X102222542Y-91126770I-1200218J-28D01*
G01*
%TO.N,Net-(D1B-K)*%
X106450496Y-107537488D02*
X104729740Y-104557924D01*
%TO.N,unconnected-(U2-SENSEU-Pad4)*%
X120271541Y-91133062D02*
G75*
G02*
X121249168Y-89798364I1399959J-38D01*
G01*
X121671541Y-88533062D02*
X120947439Y-88844902D01*
X101222462Y-91101772D02*
G75*
G02*
X102758723Y-89004359I2199938J-28D01*
G01*
X115348407Y-83096516D02*
X115764701Y-82903931D01*
X116066410Y-83857331D02*
X115583675Y-84131893D01*
X109508697Y-84131875D02*
G75*
G02*
X107708625Y-82331875I-97J1799975D01*
G01*
X116583676Y-82331893D02*
G75*
G02*
X115885403Y-83285350I-1000076J-7D01*
G01*
X118196541Y-91133062D02*
G75*
G02*
X112996541Y-91133062I-2600000J0D01*
G01*
%TO.N,Net-(D1B-K)*%
X107253109Y-101841952D02*
X107708109Y-102630035D01*
X100669985Y-107132283D02*
X101430715Y-107691892D01*
%TO.N,unconnected-(U2-SENSEU-Pad4)*%
X123471541Y-91133062D02*
G75*
G02*
X119871541Y-91133062I-1800000J0D01*
G01*
X115769306Y-89945305D02*
G75*
G02*
X116796786Y-91133062I-172706J-1187695D01*
G01*
%TO.N,Net-(D1B-K)*%
X102538404Y-98872069D02*
X105438404Y-98872069D01*
%TO.N,unconnected-(U2-SENSEU-Pad4)*%
X113396541Y-91133062D02*
G75*
G02*
X114932801Y-89035644I2199959J-38D01*
G01*
X115583676Y-84931893D02*
X116307778Y-84620053D01*
X109677752Y-89951844D02*
G75*
G02*
X110705253Y-91139601I-172752J-1187756D01*
G01*
X115800495Y-90154081D02*
G75*
G02*
X116596528Y-91133062I-203895J-978919D01*
G01*
%TO.N,Net-(D1B-K)*%
X100059141Y-102635003D02*
X102299231Y-102635054D01*
X101124600Y-106719700D02*
X99779600Y-104390092D01*
%TO.N,unconnected-(U2-SENSEU-Pad4)*%
X121071541Y-91133062D02*
G75*
G02*
X121490535Y-90561084I599959J-38D01*
G01*
%TO.N,Net-(D1B-K)*%
X104158404Y-99872069D02*
X105068404Y-99872069D01*
%TO.N,unconnected-(U2-SENSEU-Pad4)*%
X108704987Y-91139601D02*
G75*
G02*
X109263638Y-90376938I799913J1D01*
G01*
X120671541Y-91133062D02*
G75*
G02*
X121369852Y-90179724I999959J-38D01*
G01*
X120286100Y-82318143D02*
G75*
G02*
X123086096Y-82318143I1399998J1D01*
G01*
X115663150Y-89534453D02*
X115174149Y-89798304D01*
X121619487Y-83916752D02*
G75*
G02*
X120086065Y-82318143I66513J1598552D01*
G01*
%TO.N,Net-(D1B-K)*%
X99810936Y-102664907D02*
X99787898Y-102824810D01*
X102518404Y-99532069D02*
X103828404Y-101812069D01*
%TO.N,unconnected-(U2-SENSEU-Pad4)*%
X116183676Y-82331893D02*
G75*
G02*
X115764720Y-82903990I-600076J-7D01*
G01*
X103657731Y-90337149D02*
G75*
G02*
X104222445Y-91101772I-235331J-764651D01*
G01*
X111708698Y-82331875D02*
G75*
G02*
X110172465Y-84429376I-2199998J-25D01*
G01*
%TO.N,Net-(D1B-K)*%
X107942649Y-104473002D02*
X106647649Y-106716007D01*
%TO.N,unconnected-(U2-SENSEU-Pad4)*%
X110108698Y-82331875D02*
G75*
G02*
X109689730Y-82903936I-599998J-25D01*
G01*
%TO.N,Net-(D1B-K)*%
X107162265Y-107024668D02*
X106450496Y-107537488D01*
X103608404Y-102212069D02*
X104388404Y-102212069D01*
%TO.N,unconnected-(U2-SENSEU-Pad4)*%
X121671541Y-88933062D02*
X121068123Y-89226262D01*
%TO.N,Net-(D1B-K)*%
X106987724Y-100182292D02*
X106677820Y-99945523D01*
%TO.N,unconnected-(U2-SENSEU-Pad4)*%
X109740256Y-90374978D02*
X109323962Y-90567563D01*
%TO.N,Net-(D1B-K)*%
X102299231Y-102635054D02*
X102359231Y-102531131D01*
%TO.N,unconnected-(U2-SENSEU-Pad4)*%
X111904987Y-91139601D02*
G75*
G02*
X107104987Y-91139601I-2400000J0D01*
G01*
%TO.N,Net-(D1B-K)*%
X99597731Y-102634189D02*
X99547635Y-103020958D01*
X105347945Y-103887162D02*
X104957945Y-104562662D01*
%TO.N,unconnected-(U2-SENSEU-Pad4)*%
X121686096Y-84918143D02*
X122410198Y-84606303D01*
%TO.N,Net-(D1B-K)*%
X107708109Y-102630035D02*
X105696224Y-102625350D01*
%TO.N,unconnected-(U2-SENSEU-Pad4)*%
X109633670Y-89745531D02*
X109142858Y-89995275D01*
X102822462Y-91101772D02*
G75*
G02*
X103241436Y-90529732I600038J-28D01*
G01*
X102939728Y-89576334D02*
X103422463Y-89301772D01*
X109273429Y-83096498D02*
G75*
G02*
X108708698Y-82331875I235371J764698D01*
G01*
X119871541Y-91133062D02*
G75*
G02*
X121128485Y-89417004I1799959J-38D01*
G01*
%TD*%
D11*
%TO.N,N/C*%
%TO.C,REF\u002A\u002A*%
X141075000Y-98247500D03*
D12*
X141075000Y-100787500D03*
%TO.N,Net-(D1C-K)*%
X141075000Y-103327500D03*
X141075000Y-105867500D03*
X141075000Y-108407500D03*
%TD*%
D11*
%TO.N,+5V*%
%TO.C,REF\u002A\u002A*%
X139405000Y-126750000D03*
D12*
%TO.N,GND2*%
X139405000Y-124210000D03*
%TD*%
D11*
%TO.N,EN*%
%TO.C,REF\u002A\u002A*%
X120382500Y-114787500D03*
D12*
%TO.N,FAULT*%
X117842500Y-114787500D03*
%TO.N,STBY*%
X115302500Y-114787500D03*
%TO.N,~{SHDN}*%
X112762500Y-114787500D03*
%TO.N,EN_U*%
X110222500Y-114787500D03*
%TD*%
D11*
%TO.N,Net-(D10-K)*%
%TO.C,REF\u002A\u002A*%
X117305000Y-124305000D03*
D12*
%TO.N,Net-(D7-A)*%
X117305000Y-126845000D03*
%TD*%
D11*
%TO.N,N/C*%
%TO.C,REF\u002A\u002A*%
X127075000Y-98247500D03*
D12*
X127075000Y-100787500D03*
%TO.N,Net-(D1C-K)*%
X127075000Y-103327500D03*
X127075000Y-105867500D03*
X127075000Y-108407500D03*
%TD*%
D11*
%TO.N,Net-(Q3-C)*%
%TO.C,REF\u002A\u002A*%
X94870000Y-119145000D03*
D12*
%TO.N,+9V*%
X97410000Y-119145000D03*
%TD*%
D11*
%TO.N,Net-(C14-Pad1)*%
%TO.C,REF\u002A\u002A*%
X112735000Y-119105000D03*
%TD*%
%TO.N,Net-(C16-Pad1)*%
%TO.C,REF\u002A\u002A*%
X103640000Y-119145000D03*
D12*
%TO.N,+9V*%
X101100000Y-119145000D03*
%TD*%
D11*
%TO.N,3.3V*%
%TO.C,REF\u002A\u002A*%
X135325000Y-119578750D03*
D12*
%TO.N,Net-(Q1-C)*%
X137865000Y-119578750D03*
%TD*%
D11*
%TO.N,IN_W*%
%TO.C,REF\u002A\u002A*%
X120382500Y-112257500D03*
D12*
%TO.N,EN_W*%
X117842500Y-112257500D03*
%TO.N,IN_V*%
X115302500Y-112257500D03*
%TO.N,EN_V*%
X112762500Y-112257500D03*
%TO.N,IN_U*%
X110222500Y-112257500D03*
%TD*%
D11*
%TO.N,Net-(D3-A)*%
%TO.C,REF\u002A\u002A*%
X123315000Y-119095000D03*
%TD*%
%TO.N,GND*%
%TO.C,REF\u002A\u002A*%
X106522500Y-114777500D03*
D12*
%TO.N,Net-(J1-Pin_1)*%
X103982500Y-114777500D03*
%TO.N,Net-(J1-Pin_2)*%
X101442500Y-114777500D03*
%TO.N,Net-(J1-Pin_3)*%
X98902500Y-114777500D03*
%TO.N,3.3V*%
X96362500Y-114777500D03*
%TD*%
D13*
%TO.N,GND4*%
X94960000Y-93515000D03*
X101010000Y-93465000D03*
D14*
%TO.N,*%
X103688404Y-100322069D03*
X106944733Y-104901444D03*
D15*
X127617276Y-80044006D03*
D14*
X104028404Y-106298388D03*
D15*
X135317276Y-86274006D03*
D14*
X106402701Y-104900271D03*
D15*
X127817276Y-86249006D03*
D14*
X102347562Y-108645750D03*
D15*
X127829776Y-82499006D03*
D14*
X101311917Y-98959856D03*
X103718404Y-106758388D03*
D15*
X131377276Y-80044006D03*
X131650000Y-99802500D03*
D14*
X100406636Y-99578401D03*
D15*
X141585000Y-90065000D03*
D14*
X101350722Y-105411354D03*
D15*
X141645000Y-86065000D03*
D14*
X107595155Y-107529603D03*
X101069382Y-104904060D03*
D15*
X131567276Y-86274006D03*
D14*
X106132373Y-98676072D03*
X100853567Y-99267023D03*
X109229661Y-102410718D03*
X98666423Y-103567288D03*
D15*
X131579776Y-93774006D03*
D14*
X103958404Y-100792069D03*
D15*
X141655000Y-82335000D03*
D14*
X101057058Y-102206561D03*
D15*
X135329776Y-90024006D03*
X139067276Y-86274006D03*
X131579776Y-82524006D03*
D14*
X109312696Y-103503987D03*
D15*
X135329776Y-82524006D03*
D14*
X106628397Y-101659920D03*
X101359246Y-108171026D03*
X101854435Y-108414385D03*
X98749458Y-104660557D03*
X106909737Y-102167215D03*
X101599090Y-102207734D03*
D15*
X139079776Y-93774006D03*
D14*
X98703262Y-104117814D03*
D15*
X127829776Y-93749006D03*
D14*
X106627562Y-98919431D03*
D15*
X139079776Y-90024006D03*
D14*
X104268404Y-100332069D03*
X107148224Y-107840981D03*
D15*
X127829776Y-89999006D03*
D14*
X131408118Y-105098669D03*
X109275857Y-102953461D03*
D15*
X135329776Y-93774006D03*
D14*
X104298404Y-106768388D03*
D15*
X141575000Y-94055000D03*
D14*
X101355718Y-101709266D03*
X136669975Y-104627846D03*
X106356365Y-102128747D03*
X106689874Y-108148148D03*
D15*
X131579776Y-90024006D03*
X139037276Y-80034006D03*
D14*
X106646073Y-105398738D03*
X101622754Y-104942527D03*
D15*
X136475000Y-99827500D03*
X135187276Y-80054006D03*
D14*
X105625641Y-98415580D03*
D15*
X139079776Y-82524006D03*
D14*
%TO.N,GND*%
X109542500Y-109977500D03*
X115472500Y-100797500D03*
X121500000Y-99597500D03*
D13*
X113183698Y-93581875D03*
D14*
X116675641Y-99595580D03*
X112412500Y-101677500D03*
D13*
X119283698Y-93531875D03*
D14*
%TO.N,V_Mot<5V*%
X112332500Y-100237500D03*
X117662500Y-103337500D03*
%TO.N,Net-(D1C-K)*%
X131400288Y-104527500D03*
X115082500Y-104647500D03*
X136098806Y-104635676D03*
%TO.N,Net-(D1B-K)*%
X99535641Y-106185580D03*
X115072500Y-103997500D03*
%TO.N,Net-(D1A-K)*%
X115092500Y-103347500D03*
D13*
%TO.N,IN_W*%
X116222500Y-97657500D03*
D14*
%TO.N,EN_V*%
X118648195Y-101154508D03*
D13*
%TO.N,unconnected-(U2-SENSEU-Pad4)*%
X114435000Y-87655000D03*
D14*
X108230000Y-85847327D03*
D13*
X103415189Y-82332155D03*
X115583678Y-82331892D03*
X96045000Y-87655000D03*
D14*
X122948511Y-87606594D03*
D13*
X110855000Y-85925000D03*
X115588322Y-91121766D03*
X121669811Y-91122047D03*
X109494811Y-91122047D03*
X97326300Y-91122328D03*
D14*
X110773511Y-87606594D03*
D13*
X109508700Y-82331874D03*
D14*
X104698511Y-87606594D03*
X114305000Y-85847327D03*
D13*
X121677211Y-82331593D03*
X123055000Y-85825000D03*
D14*
X96055000Y-85847327D03*
X102136489Y-85847608D03*
D13*
X102135000Y-87615000D03*
X97333700Y-82331874D03*
X103419811Y-91122047D03*
X108295000Y-87625000D03*
X116845000Y-85845000D03*
D14*
X120398511Y-85847046D03*
X98605000Y-87606875D03*
X116867022Y-87606313D03*
D13*
X120485000Y-87625000D03*
D14*
%TO.N,EN_U*%
X116362500Y-102437500D03*
%TO.N,STBY*%
X118892500Y-98767500D03*
D13*
%TO.N,EN_W*%
X117032500Y-97667500D03*
D14*
%TO.N,IN_U*%
X116982500Y-102377500D03*
%TO.N,IN_V*%
X118672502Y-100554998D03*
%TO.N,EN*%
X120082500Y-97667500D03*
%TO.N,~{SHDN}*%
X118352500Y-107097500D03*
%TO.N,+5V*%
X121532500Y-105837500D03*
X116752500Y-105787500D03*
D13*
X114560454Y-101572698D03*
D14*
X120082500Y-98757500D03*
X119400000Y-105787500D03*
D13*
%TO.N,Net-(Q1-C)*%
X127732500Y-119278750D03*
%TO.N,Net-(D7-A)*%
X121777500Y-126387500D03*
%TO.N,Net-(J1-Pin_3)*%
X99450454Y-111452698D03*
%TO.N,Net-(J1-Pin_2)*%
X101020454Y-111452698D03*
%TO.N,Net-(J1-Pin_1)*%
X102510454Y-111482698D03*
%TO.N,GND4*%
X107108698Y-93481875D03*
%TD*%
D16*
%TO.N,*%
X134029776Y-81236506D02*
X134029776Y-83861506D01*
X128029776Y-90524006D02*
X128029776Y-89824006D01*
X139829776Y-89274006D02*
X138329776Y-89274006D01*
X139579776Y-93299006D02*
X138629776Y-93299006D01*
X135529776Y-83036506D02*
X135529776Y-82336506D01*
X128579776Y-83574006D02*
X128579776Y-81774006D01*
X127829776Y-89824006D02*
X127829776Y-90024006D01*
X127079776Y-83299006D02*
X128304776Y-83299006D01*
X136079776Y-81786506D02*
X134579776Y-81786506D01*
D17*
X133200000Y-101602500D02*
X129800000Y-101602500D01*
D16*
X137204776Y-91899006D02*
X137204776Y-95649006D01*
D17*
X129550000Y-101352500D02*
X129550000Y-97852500D01*
D16*
X128879776Y-95099006D02*
X128879776Y-92749006D01*
X130279776Y-83849006D02*
X132604776Y-83849006D01*
X136904776Y-80961506D02*
X133754776Y-80961506D01*
X139554776Y-82049006D02*
X138604776Y-82049006D01*
X139304776Y-93574006D02*
X139104776Y-93574006D01*
X130004776Y-91624006D02*
X132879776Y-91624006D01*
X131779776Y-83024006D02*
X131779776Y-82324006D01*
X140379776Y-88724006D02*
X137779776Y-88724006D01*
X129129776Y-84124006D02*
X129129776Y-81224006D01*
X135804776Y-83311506D02*
X135804776Y-82061506D01*
X135829776Y-93311506D02*
X134879776Y-93311506D01*
X139279776Y-82324006D02*
X139079776Y-82324006D01*
X130304776Y-95099006D02*
X132629776Y-95099006D01*
X136079776Y-87336506D02*
X136079776Y-85536506D01*
X130279776Y-84974006D02*
X130279776Y-87599006D01*
X127079776Y-81774006D02*
X127079776Y-83299006D01*
X130029776Y-92199006D02*
X130029776Y-95374006D01*
X132079776Y-93299006D02*
X131129776Y-93299006D01*
X137804776Y-95099006D02*
X140129776Y-95099006D01*
X130854776Y-93024006D02*
X130854776Y-94549006D01*
X132879776Y-87874006D02*
X132879776Y-84974006D01*
X128029776Y-83024006D02*
X128029776Y-82324006D01*
X139079776Y-82324006D02*
X139079776Y-82524006D01*
D17*
X132650000Y-99002500D02*
X132650000Y-100652500D01*
D16*
X136904776Y-88161506D02*
X136904776Y-84711506D01*
X130554776Y-91074006D02*
X132329776Y-91074006D01*
X132904776Y-92474006D02*
X130304776Y-92474006D01*
X128579776Y-87324006D02*
X128579776Y-85524006D01*
X139279776Y-86074006D02*
X139079776Y-86074006D01*
X127379776Y-93299006D02*
X127379776Y-94274006D01*
X127354776Y-89549006D02*
X127354776Y-90524006D01*
X133154776Y-84699006D02*
X130004776Y-84699006D01*
X128304776Y-85799006D02*
X127354776Y-85799006D01*
X127379776Y-94274006D02*
X128054776Y-94274006D01*
X127079776Y-89274006D02*
X127079776Y-90799006D01*
X126529776Y-83849006D02*
X128854776Y-83849006D01*
X134579776Y-90811506D02*
X135804776Y-90811506D01*
D17*
X132500000Y-100802500D02*
X130550000Y-100802500D01*
D16*
X138354776Y-93024006D02*
X138354776Y-94549006D01*
X138329776Y-81774006D02*
X138329776Y-83299006D01*
X134304776Y-81511506D02*
X134304776Y-83586506D01*
X128329776Y-94549006D02*
X128329776Y-93299006D01*
X134579776Y-83311506D02*
X135804776Y-83311506D01*
X128579776Y-89274006D02*
X127079776Y-89274006D01*
X131779776Y-90524006D02*
X131779776Y-89824006D01*
X137779776Y-91349006D02*
X140104776Y-91349006D01*
D17*
X135875000Y-99427500D02*
X135875000Y-100277500D01*
X129704776Y-80649006D02*
X130309776Y-80044006D01*
X134925000Y-101627500D02*
X138325000Y-101627500D01*
D16*
X129404776Y-80949006D02*
X126254776Y-80949006D01*
X128854776Y-83849006D02*
X128854776Y-81499006D01*
D17*
X130650000Y-100252500D02*
X130650000Y-99002500D01*
D16*
X126279776Y-95374006D02*
X129154776Y-95374006D01*
X134854776Y-90536506D02*
X135529776Y-90536506D01*
X125954776Y-91899006D02*
X129404776Y-91899006D01*
X133179776Y-92199006D02*
X130029776Y-92199006D01*
X136079776Y-83586506D02*
X136079776Y-81786506D01*
X126529776Y-81224006D02*
X126529776Y-83849006D01*
X138354776Y-94549006D02*
X139579776Y-94549006D01*
X127354776Y-85799006D02*
X127354776Y-86774006D01*
X138604776Y-83024006D02*
X139279776Y-83024006D01*
D17*
X131377276Y-80044006D02*
X131407276Y-80044006D01*
X134072276Y-80044006D02*
X135177276Y-80044006D01*
D16*
X134029776Y-88736506D02*
X134029776Y-91361506D01*
X132604776Y-91349006D02*
X132604776Y-88999006D01*
X132604776Y-87599006D02*
X132604776Y-85249006D01*
X139279776Y-90524006D02*
X139279776Y-89824006D01*
X137504776Y-80949006D02*
X137504776Y-84124006D01*
X139279776Y-83024006D02*
X139279776Y-82324006D01*
X132079776Y-94549006D02*
X132079776Y-93299006D01*
X128854776Y-88999006D02*
X126804776Y-88999006D01*
X129404776Y-88149006D02*
X129404776Y-84699006D01*
X136354776Y-83861506D02*
X136354776Y-81511506D01*
X134029776Y-91361506D02*
X136354776Y-91361506D01*
X128579776Y-81774006D02*
X127079776Y-81774006D01*
X136904776Y-84411506D02*
X136904776Y-80961506D01*
D17*
X138975000Y-101777500D02*
X138975000Y-99927500D01*
D16*
X130004776Y-80949006D02*
X130004776Y-84124006D01*
X132879776Y-84974006D02*
X130279776Y-84974006D01*
X132054776Y-83299006D02*
X132054776Y-82049006D01*
X136629776Y-84136506D02*
X136629776Y-81236506D01*
X128029776Y-86774006D02*
X128029776Y-86074006D01*
X131804776Y-93574006D02*
X131604776Y-93574006D01*
X126279776Y-92199006D02*
X126279776Y-95374006D01*
X134304776Y-89011506D02*
X134304776Y-91086506D01*
X133754776Y-91636506D02*
X136629776Y-91636506D01*
X138079776Y-92749006D02*
X138079776Y-94824006D01*
X140379776Y-84974006D02*
X137779776Y-84974006D01*
X130829776Y-85524006D02*
X130829776Y-87049006D01*
X131579776Y-89824006D02*
X131579776Y-90024006D01*
D17*
X128872500Y-99652500D02*
X128477500Y-99652500D01*
D16*
X134579776Y-85536506D02*
X134579776Y-87061506D01*
X127104776Y-94549006D02*
X128329776Y-94549006D01*
X132329776Y-87324006D02*
X132329776Y-85524006D01*
X139829776Y-85524006D02*
X138329776Y-85524006D01*
X129129776Y-87874006D02*
X129129776Y-84974006D01*
X138604776Y-85799006D02*
X138604776Y-86774006D01*
X126804776Y-88999006D02*
X126804776Y-91074006D01*
D17*
X134675000Y-98327500D02*
X134675000Y-101377500D01*
D16*
X130554776Y-87324006D02*
X132329776Y-87324006D01*
X126554776Y-95099006D02*
X128879776Y-95099006D01*
X126254776Y-84124006D02*
X129129776Y-84124006D01*
D17*
X133850000Y-98002500D02*
X133850000Y-101702500D01*
D16*
X135529776Y-90536506D02*
X135529776Y-89836506D01*
X135529776Y-89836506D02*
X135329776Y-89836506D01*
D17*
X133450000Y-98302500D02*
X133450000Y-101352500D01*
D16*
X126804776Y-91074006D02*
X128579776Y-91074006D01*
X128329776Y-93299006D02*
X127379776Y-93299006D01*
X137804776Y-92474006D02*
X137804776Y-95099006D01*
X131779776Y-86074006D02*
X131579776Y-86074006D01*
X138604776Y-86774006D02*
X139279776Y-86774006D01*
D17*
X131200000Y-99202500D02*
X132050000Y-99202500D01*
X132250000Y-99402500D02*
X132250000Y-100252500D01*
D16*
X138604776Y-82049006D02*
X138604776Y-83024006D01*
X140654776Y-91899006D02*
X140654776Y-88449006D01*
X129404776Y-91899006D02*
X129404776Y-88449006D01*
X139554776Y-83299006D02*
X139554776Y-82049006D01*
X137779776Y-88724006D02*
X137779776Y-91349006D01*
D17*
X137925000Y-98027500D02*
X134975000Y-98027500D01*
D16*
X137504776Y-87874006D02*
X140379776Y-87874006D01*
X129154776Y-95374006D02*
X129154776Y-92474006D01*
X126529776Y-88724006D02*
X126529776Y-91349006D01*
X135554776Y-93586506D02*
X135354776Y-93586506D01*
X129404776Y-88449006D02*
X126254776Y-88449006D01*
X132879776Y-81224006D02*
X130279776Y-81224006D01*
X127079776Y-90799006D02*
X128304776Y-90799006D01*
X139304776Y-94274006D02*
X139304776Y-93574006D01*
X130004776Y-84699006D02*
X130004776Y-87874006D01*
X128029776Y-89824006D02*
X127829776Y-89824006D01*
X133454776Y-88161506D02*
X136904776Y-88161506D01*
X133754776Y-84136506D02*
X136629776Y-84136506D01*
X134029776Y-87611506D02*
X136354776Y-87611506D01*
X131129776Y-94274006D02*
X131804776Y-94274006D01*
X130279776Y-87599006D02*
X132604776Y-87599006D01*
X136379776Y-95111506D02*
X136379776Y-92761506D01*
X126529776Y-87599006D02*
X128854776Y-87599006D01*
X126254776Y-91624006D02*
X129129776Y-91624006D01*
D17*
X135075000Y-98677500D02*
X135075000Y-100977500D01*
X139047276Y-80044006D02*
X139077276Y-80044006D01*
D16*
X128854776Y-85249006D02*
X126804776Y-85249006D01*
X137204776Y-88149006D02*
X137204776Y-91899006D01*
X125954776Y-95649006D02*
X129429776Y-95649006D01*
X132604776Y-85249006D02*
X130554776Y-85249006D01*
X126254776Y-87874006D02*
X129129776Y-87874006D01*
X139279776Y-86774006D02*
X139279776Y-86074006D01*
X140654776Y-88449006D02*
X137504776Y-88449006D01*
X130854776Y-94549006D02*
X132079776Y-94549006D01*
X129704776Y-91899006D02*
X133154776Y-91899006D01*
X139554776Y-87049006D02*
X139554776Y-85799006D01*
X139104776Y-93574006D02*
X139104776Y-93774006D01*
X127854776Y-93574006D02*
X127854776Y-93774006D01*
X138604776Y-89549006D02*
X138604776Y-90524006D01*
X131104776Y-83024006D02*
X131779776Y-83024006D01*
X131104776Y-86774006D02*
X131779776Y-86774006D01*
X134329776Y-94836506D02*
X136104776Y-94836506D01*
X133154776Y-84399006D02*
X133154776Y-80949006D01*
X137529776Y-95374006D02*
X140404776Y-95374006D01*
X131104776Y-85799006D02*
X131104776Y-86774006D01*
X136629776Y-91636506D02*
X136629776Y-88736506D01*
X137204776Y-84399006D02*
X137204776Y-88149006D01*
X136104776Y-94836506D02*
X136104776Y-93036506D01*
D17*
X139037276Y-80034006D02*
X139047276Y-80044006D01*
D16*
X126829776Y-92749006D02*
X126829776Y-94824006D01*
X128304776Y-90799006D02*
X128304776Y-89549006D01*
X126529776Y-91349006D02*
X128854776Y-91349006D01*
X133779776Y-95386506D02*
X136654776Y-95386506D01*
X136904776Y-88461506D02*
X133754776Y-88461506D01*
X129704776Y-95649006D02*
X133179776Y-95649006D01*
D17*
X133050000Y-98652500D02*
X133050000Y-100952500D01*
D16*
X136079776Y-91086506D02*
X136079776Y-89286506D01*
X129429776Y-95649006D02*
X129429776Y-92199006D01*
X129704776Y-84399006D02*
X129704776Y-88149006D01*
D17*
X140670000Y-98237500D02*
X141090000Y-98237500D01*
D16*
X131804776Y-94274006D02*
X131804776Y-93574006D01*
X136354776Y-87611506D02*
X136354776Y-85261506D01*
X134029776Y-83861506D02*
X136354776Y-83861506D01*
X138054776Y-91074006D02*
X139829776Y-91074006D01*
X132354776Y-93024006D02*
X130854776Y-93024006D01*
X131129776Y-93299006D02*
X131129776Y-94274006D01*
X130304776Y-92474006D02*
X130304776Y-95099006D01*
X127354776Y-86774006D02*
X128029776Y-86774006D01*
X134054776Y-95111506D02*
X136379776Y-95111506D01*
D17*
X133550000Y-102002500D02*
X129400000Y-102002500D01*
X138575000Y-101377500D02*
X138575000Y-97877500D01*
D16*
X138629776Y-93299006D02*
X138629776Y-94274006D01*
X135804776Y-90811506D02*
X135804776Y-89561506D01*
X140654776Y-84399006D02*
X140654776Y-80949006D01*
X133754776Y-80961506D02*
X133754776Y-84136506D01*
X130829776Y-81774006D02*
X130829776Y-83299006D01*
D17*
X134275000Y-98027500D02*
X134275000Y-101727500D01*
D16*
X131104776Y-82049006D02*
X131104776Y-83024006D01*
X139079776Y-89824006D02*
X139079776Y-90024006D01*
D17*
X137204776Y-80649006D02*
X137809776Y-80044006D01*
D16*
X134854776Y-83036506D02*
X135529776Y-83036506D01*
X128854776Y-81499006D02*
X126804776Y-81499006D01*
X137204776Y-91899006D02*
X140654776Y-91899006D01*
X128604776Y-94824006D02*
X128604776Y-93024006D01*
X129154776Y-92474006D02*
X126554776Y-92474006D01*
X140104776Y-81499006D02*
X138054776Y-81499006D01*
X139579776Y-94549006D02*
X139579776Y-93299006D01*
X138054776Y-87324006D02*
X139829776Y-87324006D01*
X134054776Y-92486506D02*
X134054776Y-95111506D01*
X136079776Y-89286506D02*
X134579776Y-89286506D01*
X130829776Y-89274006D02*
X130829776Y-90799006D01*
X131779776Y-82324006D02*
X131579776Y-82324006D01*
X136654776Y-92486506D02*
X134054776Y-92486506D01*
X126829776Y-94824006D02*
X128604776Y-94824006D01*
X133454776Y-84411506D02*
X133454776Y-88161506D01*
X139854776Y-94824006D02*
X139854776Y-93024006D01*
X139079776Y-86074006D02*
X139079776Y-86274006D01*
X136904776Y-91911506D02*
X136904776Y-88461506D01*
D17*
X130850000Y-98802500D02*
X132450000Y-98802500D01*
D16*
X130554776Y-85249006D02*
X130554776Y-87324006D01*
X133454776Y-88161506D02*
X133454776Y-91911506D01*
X140104776Y-83849006D02*
X140104776Y-81499006D01*
D17*
X138990000Y-99917500D02*
X140670000Y-98237500D01*
X125954776Y-80649006D02*
X126559776Y-80044006D01*
D16*
X134854776Y-86786506D02*
X135529776Y-86786506D01*
D17*
X136475000Y-99827500D02*
X136925000Y-99827500D01*
D16*
X131779776Y-89824006D02*
X131579776Y-89824006D01*
X130004776Y-84124006D02*
X132879776Y-84124006D01*
X127104776Y-93024006D02*
X127104776Y-94549006D01*
X140379776Y-87874006D02*
X140379776Y-84974006D01*
X136354776Y-89011506D02*
X134304776Y-89011506D01*
X140379776Y-81224006D02*
X137779776Y-81224006D01*
X125954776Y-84399006D02*
X125954776Y-88149006D01*
X140104776Y-88999006D02*
X138054776Y-88999006D01*
X132329776Y-89274006D02*
X130829776Y-89274006D01*
D17*
X137075000Y-99677500D02*
X137075000Y-99377500D01*
D16*
X139554776Y-90799006D02*
X139554776Y-89549006D01*
X129129776Y-91624006D02*
X129129776Y-88724006D01*
X140679776Y-95649006D02*
X140679776Y-92199006D01*
D17*
X137825000Y-100577500D02*
X137825000Y-98677500D01*
D16*
X133154776Y-80949006D02*
X130004776Y-80949006D01*
X133154776Y-88149006D02*
X133154776Y-84699006D01*
X131579776Y-82324006D02*
X131579776Y-82524006D01*
X128854776Y-91349006D02*
X128854776Y-88999006D01*
X137204776Y-95649006D02*
X140679776Y-95649006D01*
D17*
X129800000Y-97602500D02*
X133450000Y-97602500D01*
D16*
X135329776Y-89836506D02*
X135329776Y-90036506D01*
X139829776Y-83574006D02*
X139829776Y-81774006D01*
X134304776Y-83586506D02*
X136079776Y-83586506D01*
X139829776Y-81774006D02*
X138329776Y-81774006D01*
X137504776Y-88449006D02*
X137504776Y-91624006D01*
X136104776Y-93036506D02*
X134604776Y-93036506D01*
X127354776Y-83024006D02*
X128029776Y-83024006D01*
X140129776Y-95099006D02*
X140129776Y-92749006D01*
X129129776Y-81224006D02*
X126529776Y-81224006D01*
X139554776Y-89549006D02*
X138604776Y-89549006D01*
X134879776Y-94286506D02*
X135554776Y-94286506D01*
D17*
X138325000Y-97627500D02*
X134675000Y-97627500D01*
D16*
X129404776Y-84399006D02*
X129404776Y-80949006D01*
X132604776Y-83849006D02*
X132604776Y-81499006D01*
X132629776Y-92749006D02*
X130579776Y-92749006D01*
X139829776Y-91074006D02*
X139829776Y-89274006D01*
X135804776Y-82061506D02*
X134854776Y-82061506D01*
X137504776Y-91624006D02*
X140379776Y-91624006D01*
X130554776Y-88999006D02*
X130554776Y-91074006D01*
X135329776Y-82336506D02*
X135329776Y-82536506D01*
X130279776Y-88724006D02*
X130279776Y-91349006D01*
X134304776Y-87336506D02*
X136079776Y-87336506D01*
X128304776Y-89549006D02*
X127354776Y-89549006D01*
X132604776Y-88999006D02*
X130554776Y-88999006D01*
X135554776Y-94286506D02*
X135554776Y-93586506D01*
X137779776Y-81224006D02*
X137779776Y-83849006D01*
D17*
X130300000Y-100552500D02*
X130300000Y-98652500D01*
D16*
X132629776Y-95099006D02*
X132629776Y-92749006D01*
X125954776Y-84399006D02*
X129404776Y-84399006D01*
X131104776Y-90524006D02*
X131779776Y-90524006D01*
X129129776Y-84974006D02*
X126529776Y-84974006D01*
D17*
X130309776Y-80044006D02*
X131377276Y-80044006D01*
D16*
X138329776Y-89274006D02*
X138329776Y-90799006D01*
X140404776Y-92474006D02*
X137804776Y-92474006D01*
X130004776Y-88449006D02*
X130004776Y-91624006D01*
X138604776Y-90524006D02*
X139279776Y-90524006D01*
X130279776Y-81224006D02*
X130279776Y-83849006D01*
X129429776Y-92199006D02*
X126279776Y-92199006D01*
X136354776Y-81511506D02*
X134304776Y-81511506D01*
X136629776Y-87886506D02*
X136629776Y-84986506D01*
X135804776Y-89561506D02*
X134854776Y-89561506D01*
D17*
X137475000Y-100277500D02*
X137475000Y-99027500D01*
D16*
X133454776Y-84411506D02*
X136904776Y-84411506D01*
X129704776Y-80649006D02*
X129704776Y-84399006D01*
X133454776Y-91911506D02*
X133454776Y-95661506D01*
X126254776Y-84699006D02*
X126254776Y-87874006D01*
X125954776Y-80649006D02*
X125954776Y-84399006D01*
X132329776Y-85524006D02*
X130829776Y-85524006D01*
X133779776Y-92211506D02*
X133779776Y-95386506D01*
X137204776Y-84399006D02*
X140654776Y-84399006D01*
X140654776Y-84699006D02*
X137504776Y-84699006D01*
X126804776Y-83574006D02*
X128579776Y-83574006D01*
X139829776Y-87324006D02*
X139829776Y-85524006D01*
X132604776Y-81499006D02*
X130554776Y-81499006D01*
X129704776Y-88149006D02*
X129704776Y-91899006D01*
X125954776Y-88149006D02*
X125954776Y-91899006D01*
X136904776Y-84711506D02*
X133754776Y-84711506D01*
D17*
X138225000Y-100977500D02*
X138225000Y-98327500D01*
D16*
X134854776Y-89561506D02*
X134854776Y-90536506D01*
X136629776Y-81236506D02*
X134029776Y-81236506D01*
X138629776Y-94274006D02*
X139304776Y-94274006D01*
D17*
X137575000Y-98427500D02*
X135325000Y-98427500D01*
D16*
X132879776Y-91624006D02*
X132879776Y-88724006D01*
X126529776Y-84974006D02*
X126529776Y-87599006D01*
X140679776Y-92199006D02*
X137529776Y-92199006D01*
X139854776Y-93024006D02*
X138354776Y-93024006D01*
X136354776Y-85261506D02*
X134304776Y-85261506D01*
D17*
X128477500Y-99652500D02*
X127072500Y-98247500D01*
D16*
X126804776Y-87324006D02*
X128579776Y-87324006D01*
X138054776Y-83574006D02*
X139829776Y-83574006D01*
X128054776Y-94274006D02*
X128054776Y-93574006D01*
X136929776Y-95661506D02*
X136929776Y-92211506D01*
X140404776Y-95374006D02*
X140404776Y-92474006D01*
X127354776Y-82049006D02*
X127354776Y-83024006D01*
X130579776Y-94824006D02*
X132354776Y-94824006D01*
X130829776Y-90799006D02*
X132054776Y-90799006D01*
X128304776Y-87049006D02*
X128304776Y-85799006D01*
X139554776Y-85799006D02*
X138604776Y-85799006D01*
X136079776Y-85536506D02*
X134579776Y-85536506D01*
X130279776Y-91349006D02*
X132604776Y-91349006D01*
X137504776Y-84699006D02*
X137504776Y-87874006D01*
X138329776Y-90799006D02*
X139554776Y-90799006D01*
X133454776Y-91911506D02*
X136904776Y-91911506D01*
D17*
X135325000Y-101227500D02*
X137975000Y-101227500D01*
D16*
X140104776Y-91349006D02*
X140104776Y-88999006D01*
X126804776Y-85249006D02*
X126804776Y-87324006D01*
X132904776Y-95374006D02*
X132904776Y-92474006D01*
X140129776Y-92749006D02*
X138079776Y-92749006D01*
X138329776Y-85524006D02*
X138329776Y-87049006D01*
X128579776Y-85524006D02*
X127079776Y-85524006D01*
D17*
X136025000Y-100427500D02*
X137325000Y-100427500D01*
D16*
X138054776Y-85249006D02*
X138054776Y-87324006D01*
X134579776Y-89286506D02*
X134579776Y-90811506D01*
X130029776Y-95374006D02*
X132904776Y-95374006D01*
D17*
X135177276Y-80044006D02*
X135187276Y-80054006D01*
D16*
X139279776Y-89824006D02*
X139079776Y-89824006D01*
X128879776Y-92749006D02*
X126829776Y-92749006D01*
X131579776Y-86074006D02*
X131579776Y-86274006D01*
D17*
X132800000Y-101202500D02*
X130150000Y-101202500D01*
D16*
X135354776Y-93586506D02*
X135354776Y-93786506D01*
X138054776Y-88999006D02*
X138054776Y-91074006D01*
X132054776Y-85799006D02*
X131104776Y-85799006D01*
X137504776Y-84124006D02*
X140379776Y-84124006D01*
X137204776Y-88149006D02*
X140654776Y-88149006D01*
X132054776Y-90799006D02*
X132054776Y-89549006D01*
X140654776Y-88149006D02*
X140654776Y-84699006D01*
X130829776Y-83299006D02*
X132054776Y-83299006D01*
X135529776Y-82336506D02*
X135329776Y-82336506D01*
X133454776Y-95661506D02*
X136929776Y-95661506D01*
D17*
X136925000Y-99227500D02*
X136075000Y-99227500D01*
D16*
X133454776Y-80661506D02*
X133454776Y-84411506D01*
X134879776Y-93311506D02*
X134879776Y-94286506D01*
X132879776Y-88724006D02*
X130279776Y-88724006D01*
X137204776Y-80649006D02*
X137204776Y-84399006D01*
X132054776Y-82049006D02*
X131104776Y-82049006D01*
X131779776Y-86774006D02*
X131779776Y-86074006D01*
D17*
X130200000Y-98002500D02*
X133150000Y-98002500D01*
X130550000Y-98402500D02*
X132800000Y-98402500D01*
D16*
X136654776Y-95386506D02*
X136654776Y-92486506D01*
X130554776Y-83574006D02*
X132329776Y-83574006D01*
X137779776Y-87599006D02*
X140104776Y-87599006D01*
X129404776Y-84699006D02*
X126254776Y-84699006D01*
X134304776Y-91086506D02*
X136079776Y-91086506D01*
X138329776Y-83299006D02*
X139554776Y-83299006D01*
X140379776Y-91624006D02*
X140379776Y-88724006D01*
X133754776Y-84711506D02*
X133754776Y-87886506D01*
X125954776Y-91899006D02*
X125954776Y-95649006D01*
X132054776Y-87049006D02*
X132054776Y-85799006D01*
X137529776Y-92199006D02*
X137529776Y-95374006D01*
X140654776Y-80949006D02*
X137504776Y-80949006D01*
X140104776Y-85249006D02*
X138054776Y-85249006D01*
X138329776Y-87049006D02*
X139554776Y-87049006D01*
D17*
X137275000Y-98827500D02*
X135675000Y-98827500D01*
D16*
X134579776Y-87061506D02*
X135804776Y-87061506D01*
X133179776Y-95649006D02*
X133179776Y-92199006D01*
X129129776Y-88724006D02*
X126529776Y-88724006D01*
X137779776Y-84974006D02*
X137779776Y-87599006D01*
X132354776Y-94824006D02*
X132354776Y-93024006D01*
X136629776Y-88736506D02*
X134029776Y-88736506D01*
D17*
X135475000Y-99027500D02*
X135475000Y-100677500D01*
D16*
X126554776Y-92474006D02*
X126554776Y-95099006D01*
X134579776Y-81786506D02*
X134579776Y-83311506D01*
X136929776Y-92211506D02*
X133779776Y-92211506D01*
D17*
X131050000Y-99652500D02*
X131050000Y-99352500D01*
X133454776Y-80661506D02*
X134072276Y-80044006D01*
D16*
X127829776Y-86074006D02*
X127829776Y-86274006D01*
D17*
X126559776Y-80044006D02*
X127617276Y-80044006D01*
X134575000Y-102027500D02*
X138725000Y-102027500D01*
D16*
X134029776Y-84986506D02*
X134029776Y-87611506D01*
D17*
X135197276Y-80044006D02*
X135257276Y-80044006D01*
D16*
X136379776Y-92761506D02*
X134329776Y-92761506D01*
X128054776Y-93574006D02*
X127854776Y-93574006D01*
X130004776Y-87874006D02*
X132879776Y-87874006D01*
X135529776Y-86086506D02*
X135329776Y-86086506D01*
X133154776Y-88449006D02*
X130004776Y-88449006D01*
X132329776Y-83574006D02*
X132329776Y-81774006D01*
X129704776Y-91899006D02*
X129704776Y-95649006D01*
X134604776Y-93036506D02*
X134604776Y-94561506D01*
D17*
X139027276Y-80044006D02*
X139037276Y-80034006D01*
D16*
X128304776Y-82049006D02*
X127354776Y-82049006D01*
X133754776Y-88461506D02*
X133754776Y-91636506D01*
X131104776Y-89549006D02*
X131104776Y-90524006D01*
X129704776Y-84399006D02*
X133154776Y-84399006D01*
X126804776Y-81499006D02*
X126804776Y-83574006D01*
X128579776Y-91074006D02*
X128579776Y-89274006D01*
X132054776Y-89549006D02*
X131104776Y-89549006D01*
X132329776Y-81774006D02*
X130829776Y-81774006D01*
X138079776Y-94824006D02*
X139854776Y-94824006D01*
D17*
X135625000Y-100827500D02*
X137575000Y-100827500D01*
X132100000Y-100402500D02*
X130800000Y-100402500D01*
D16*
X138054776Y-81499006D02*
X138054776Y-83574006D01*
X134304776Y-85261506D02*
X134304776Y-87336506D01*
X134329776Y-92761506D02*
X134329776Y-94836506D01*
X134854776Y-85811506D02*
X134854776Y-86786506D01*
X132329776Y-91074006D02*
X132329776Y-89274006D01*
X128304776Y-83299006D02*
X128304776Y-82049006D01*
D17*
X129900000Y-100952500D02*
X129900000Y-98302500D01*
D16*
X125954776Y-88149006D02*
X129404776Y-88149006D01*
X136629776Y-84986506D02*
X134029776Y-84986506D01*
X127354776Y-90524006D02*
X128029776Y-90524006D01*
X128854776Y-87599006D02*
X128854776Y-85249006D01*
X135329776Y-86086506D02*
X135329776Y-86286506D01*
X131604776Y-93574006D02*
X131604776Y-93774006D01*
X127079776Y-85524006D02*
X127079776Y-87049006D01*
X128604776Y-93024006D02*
X127104776Y-93024006D01*
D17*
X131650000Y-99802500D02*
X131200000Y-99802500D01*
D16*
X135829776Y-94561506D02*
X135829776Y-93311506D01*
D17*
X129122500Y-101727500D02*
X129122500Y-99902500D01*
D16*
X133754776Y-87886506D02*
X136629776Y-87886506D01*
X126254776Y-80949006D02*
X126254776Y-84124006D01*
X132879776Y-84124006D02*
X132879776Y-81224006D01*
D17*
X135187276Y-80054006D02*
X135197276Y-80044006D01*
D16*
X135804776Y-85811506D02*
X134854776Y-85811506D01*
X133154776Y-91899006D02*
X133154776Y-88449006D01*
X126254776Y-88449006D02*
X126254776Y-91624006D01*
X137779776Y-83849006D02*
X140104776Y-83849006D01*
X134604776Y-94561506D02*
X135829776Y-94561506D01*
X127829776Y-82324006D02*
X127829776Y-82524006D01*
X140104776Y-87599006D02*
X140104776Y-85249006D01*
X129704776Y-88149006D02*
X133154776Y-88149006D01*
X128029776Y-82324006D02*
X127829776Y-82324006D01*
X130829776Y-87049006D02*
X132054776Y-87049006D01*
X127079776Y-87049006D02*
X128304776Y-87049006D01*
X130554776Y-81499006D02*
X130554776Y-83574006D01*
X136354776Y-91361506D02*
X136354776Y-89011506D01*
X135529776Y-86786506D02*
X135529776Y-86086506D01*
X128029776Y-86074006D02*
X127829776Y-86074006D01*
X134854776Y-82061506D02*
X134854776Y-83036506D01*
D17*
X137809776Y-80044006D02*
X139027276Y-80044006D01*
D16*
X140379776Y-84124006D02*
X140379776Y-81224006D01*
X135804776Y-87061506D02*
X135804776Y-85811506D01*
X130579776Y-92749006D02*
X130579776Y-94824006D01*
D17*
X130300000Y-98652500D02*
G75*
G02*
X130550000Y-98402500I250000J0D01*
G01*
X132450000Y-98802500D02*
G75*
G02*
X132650000Y-99002500I0J-200000D01*
G01*
X130650000Y-99002500D02*
G75*
G02*
X130850000Y-98802500I200000J0D01*
G01*
X137825000Y-98677500D02*
G75*
G03*
X137575000Y-98427500I-250000J0D01*
G01*
X134275000Y-101727500D02*
G75*
G03*
X134575000Y-102027500I300000J0D01*
G01*
X136075000Y-99227500D02*
G75*
G03*
X135875000Y-99427500I0J-200000D01*
G01*
X129800000Y-101602500D02*
G75*
G02*
X129550000Y-101352500I0J250000D01*
G01*
X133150000Y-98002500D02*
G75*
G02*
X133450000Y-98302500I0J-300000D01*
G01*
X135075000Y-100977500D02*
G75*
G03*
X135325000Y-101227500I250000J0D01*
G01*
X129900000Y-98302500D02*
G75*
G02*
X130200000Y-98002500I300000J0D01*
G01*
X135675000Y-98827500D02*
G75*
G03*
X135475000Y-99027500I0J-200000D01*
G01*
X138725000Y-102027500D02*
G75*
G03*
X138975000Y-101777500I0J250000D01*
G01*
X137075000Y-99377500D02*
G75*
G03*
X136925000Y-99227500I-150000J0D01*
G01*
X130150000Y-101202500D02*
G75*
G02*
X129900000Y-100952500I0J250000D01*
G01*
X134675000Y-101377500D02*
G75*
G03*
X134925000Y-101627500I250000J0D01*
G01*
X135325000Y-98427500D02*
G75*
G03*
X135075000Y-98677500I0J-250000D01*
G01*
X136925000Y-99827500D02*
G75*
G03*
X137075000Y-99677500I0J150000D01*
G01*
X137325000Y-100427500D02*
G75*
G03*
X137475000Y-100277500I0J150000D01*
G01*
X130550000Y-100802500D02*
G75*
G02*
X130300000Y-100552500I0J250000D01*
G01*
X138225000Y-98327500D02*
G75*
G03*
X137925000Y-98027500I-300000J0D01*
G01*
X135475000Y-100677500D02*
G75*
G03*
X135625000Y-100827500I150000J0D01*
G01*
X132050000Y-99202500D02*
G75*
G02*
X132250000Y-99402500I0J-200000D01*
G01*
X138575000Y-97877500D02*
G75*
G03*
X138325000Y-97627500I-250000J0D01*
G01*
X131050000Y-99352500D02*
G75*
G02*
X131200000Y-99202500I150000J0D01*
G01*
X132800000Y-98402500D02*
G75*
G02*
X133050000Y-98652500I0J-250000D01*
G01*
X133450000Y-101352500D02*
G75*
G02*
X133200000Y-101602500I-250000J0D01*
G01*
X137475000Y-99027500D02*
G75*
G03*
X137275000Y-98827500I-200000J0D01*
G01*
X133850000Y-101702500D02*
G75*
G02*
X133550000Y-102002500I-300000J0D01*
G01*
X132250000Y-100252500D02*
G75*
G02*
X132100000Y-100402500I-150000J0D01*
G01*
X130800000Y-100402500D02*
G75*
G02*
X130650000Y-100252500I0J150000D01*
G01*
X131200000Y-99802500D02*
G75*
G02*
X131050000Y-99652500I0J150000D01*
G01*
X137975000Y-101227500D02*
G75*
G03*
X138225000Y-100977500I0J250000D01*
G01*
X129550000Y-97852500D02*
G75*
G02*
X129800000Y-97602500I250000J0D01*
G01*
X138325000Y-101627500D02*
G75*
G03*
X138575000Y-101377500I0J250000D01*
G01*
X133450000Y-97602500D02*
G75*
G02*
X133850000Y-98002500I0J-400000D01*
G01*
X135875000Y-100277500D02*
G75*
G03*
X136025000Y-100427500I150000J0D01*
G01*
X129122500Y-99902500D02*
G75*
G03*
X128872500Y-99652500I-250000J0D01*
G01*
X129397500Y-102002500D02*
G75*
G02*
X129122500Y-101727500I0J275000D01*
G01*
X132650000Y-100652500D02*
G75*
G02*
X132500000Y-100802500I-150000J0D01*
G01*
X137575000Y-100827500D02*
G75*
G03*
X137825000Y-100577500I0J250000D01*
G01*
X134975000Y-98027500D02*
G75*
G03*
X134675000Y-98327500I0J-300000D01*
G01*
X134675000Y-97627500D02*
G75*
G03*
X134275000Y-98027500I0J-400000D01*
G01*
X133050000Y-100952500D02*
G75*
G02*
X132800000Y-101202500I-250000J0D01*
G01*
%TO.N,Net-(D1C-K)*%
X135053709Y-106060676D02*
X137703709Y-106060676D01*
X131408406Y-104523669D02*
X131408118Y-104522974D01*
X138053709Y-102460676D02*
X134403709Y-102460676D01*
X137303709Y-103260676D02*
X135053709Y-103260676D01*
X130575000Y-103627500D02*
X132225000Y-103627500D01*
X138303709Y-106210676D02*
X138303709Y-102710676D01*
X130375000Y-105427500D02*
X130375000Y-103827500D01*
X129175000Y-106477500D02*
X129175000Y-102827500D01*
X134803709Y-103510676D02*
X134803709Y-105810676D01*
X128355000Y-107127500D02*
X127075000Y-108407500D01*
X135753709Y-105260676D02*
X137053709Y-105260676D01*
X133175000Y-103077500D02*
X133175000Y-106477500D01*
X132775000Y-103477500D02*
X132775000Y-106127500D01*
X135203709Y-103860676D02*
X135203709Y-105510676D01*
X136090330Y-104627200D02*
X135738341Y-104627200D01*
X129875000Y-102827500D02*
X132925000Y-102827500D01*
X136098806Y-104675026D02*
X136098806Y-104635676D01*
X137953709Y-105810676D02*
X137953709Y-103160676D01*
X131825000Y-105627500D02*
X130575000Y-105627500D01*
X135628709Y-105147863D02*
X135626952Y-105147863D01*
X135667686Y-104697855D02*
X135667686Y-104707137D01*
X132375000Y-103777500D02*
X132375000Y-105727500D01*
X137653709Y-102860676D02*
X134703709Y-102860676D01*
X135628709Y-104810676D02*
X135628709Y-105147863D01*
X136096920Y-104676912D02*
X136098806Y-104675026D01*
X129575000Y-106077500D02*
X129575000Y-103127500D01*
X132925000Y-106727500D02*
X129425000Y-106727500D01*
X133575000Y-102727500D02*
X133575000Y-106877500D01*
X137203709Y-105110676D02*
X137203709Y-103860676D01*
X136098806Y-104635676D02*
X136090330Y-104627200D01*
X139528176Y-106860676D02*
X141075000Y-108407500D01*
X134003709Y-102860676D02*
X134003709Y-106560676D01*
X133325000Y-107127500D02*
X128355000Y-107127500D01*
X129575000Y-102427500D02*
X133275000Y-102427500D01*
X134403709Y-103160676D02*
X134403709Y-106210676D01*
X134303709Y-106860676D02*
X139528176Y-106860676D01*
X134653709Y-106460676D02*
X138053709Y-106460676D01*
X131975000Y-104177500D02*
X131975000Y-105477500D01*
X137003709Y-103660676D02*
X135403709Y-103660676D01*
X132125000Y-105977500D02*
X130225000Y-105977500D01*
X131408118Y-104522974D02*
X131408118Y-104227500D01*
X137553709Y-105410676D02*
X137553709Y-103510676D01*
X135738341Y-104627200D02*
X135667686Y-104697855D01*
X132525000Y-106377500D02*
X129875000Y-106377500D01*
X130225000Y-103227500D02*
X132525000Y-103227500D01*
X135353709Y-105660676D02*
X137303709Y-105660676D01*
X129975000Y-105727500D02*
X129975000Y-103477500D01*
X131608118Y-104027500D02*
X131825000Y-104027500D01*
X135667686Y-104707137D02*
X135666788Y-104708035D01*
X135626952Y-105147863D02*
X135626952Y-105195372D01*
X129575000Y-103127500D02*
G75*
G02*
X129875000Y-102827500I300000J0D01*
G01*
X134803709Y-105810676D02*
G75*
G03*
X135053709Y-106060691I249991J-24D01*
G01*
X135666788Y-104708035D02*
G75*
G03*
X135628737Y-104810675I111112J-99565D01*
G01*
X137053709Y-105260676D02*
G75*
G03*
X137203676Y-105110676I-9J149976D01*
G01*
X132225000Y-103627500D02*
G75*
G02*
X132375000Y-103777500I0J-150000D01*
G01*
X132775000Y-106127500D02*
G75*
G02*
X132525000Y-106377500I-250000J0D01*
G01*
X133175000Y-106477500D02*
G75*
G02*
X132925000Y-106727500I-250000J0D01*
G01*
X131825000Y-104027500D02*
G75*
G02*
X131975000Y-104177500I0J-150000D01*
G01*
X130225000Y-105977500D02*
G75*
G02*
X129975000Y-105727500I0J250000D01*
G01*
X135053709Y-103260676D02*
G75*
G03*
X134803676Y-103510676I-9J-250024D01*
G01*
X135203709Y-105510676D02*
G75*
G03*
X135353709Y-105660691I149991J-24D01*
G01*
X129425000Y-106727500D02*
G75*
G02*
X129175000Y-106477500I0J250000D01*
G01*
X134003709Y-106560676D02*
G75*
G03*
X134303709Y-106860691I299991J-24D01*
G01*
X129175000Y-102827500D02*
G75*
G02*
X129575000Y-102427500I400000J0D01*
G01*
X138053709Y-106460676D02*
G75*
G03*
X138303676Y-106210676I-9J249976D01*
G01*
X134403709Y-106210676D02*
G75*
G03*
X134653709Y-106460691I249991J-24D01*
G01*
X132525000Y-103227500D02*
G75*
G02*
X132775000Y-103477500I0J-250000D01*
G01*
X130375000Y-103827500D02*
G75*
G02*
X130575000Y-103627500I200000J0D01*
G01*
X137553709Y-103510676D02*
G75*
G03*
X137303709Y-103260691I-250009J-24D01*
G01*
X132925000Y-102827500D02*
G75*
G02*
X133175000Y-103077500I0J-250000D01*
G01*
X132375000Y-105727500D02*
G75*
G02*
X132125000Y-105977500I-250000J0D01*
G01*
X131975000Y-105477500D02*
G75*
G02*
X131825000Y-105627500I-150000J0D01*
G01*
X133275000Y-102427500D02*
G75*
G02*
X133575000Y-102727500I0J-300000D01*
G01*
X135626952Y-105195372D02*
G75*
G03*
X135753709Y-105260681I129548J95772D01*
G01*
X137703709Y-106060676D02*
G75*
G03*
X137953676Y-105810676I-9J249976D01*
G01*
X134703709Y-102860676D02*
G75*
G03*
X134403676Y-103160676I-9J-300024D01*
G01*
X137203709Y-103860676D02*
G75*
G03*
X137003709Y-103660691I-200009J-24D01*
G01*
X130575000Y-105627500D02*
G75*
G02*
X130375000Y-105427500I0J200000D01*
G01*
X137303709Y-105660676D02*
G75*
G03*
X137553676Y-105410676I-9J249976D01*
G01*
X137953709Y-103160676D02*
G75*
G03*
X137653709Y-102860691I-300009J-24D01*
G01*
X134403709Y-102460676D02*
G75*
G03*
X134003676Y-102860676I-9J-400024D01*
G01*
X129975000Y-103477500D02*
G75*
G02*
X130225000Y-103227500I250000J0D01*
G01*
X133575000Y-106877500D02*
G75*
G02*
X133325000Y-107127500I-250000J0D01*
G01*
X129875000Y-106377500D02*
G75*
G02*
X129575000Y-106077500I0J300000D01*
G01*
X138303709Y-102710676D02*
G75*
G03*
X138053709Y-102460691I-250009J-24D01*
G01*
X131408118Y-104227500D02*
G75*
G02*
X131608118Y-104027518I199982J0D01*
G01*
X135403709Y-103660676D02*
G75*
G03*
X135203676Y-103860676I-9J-200024D01*
G01*
D10*
%TO.N,Net-(D1B-K)*%
X98984212Y-103652439D02*
X99147472Y-103935214D01*
X103848404Y-107218388D02*
X104298404Y-106768388D01*
X107243109Y-101824632D02*
X106628397Y-101659920D01*
X100736011Y-105246643D02*
X101350722Y-105411354D01*
X98666423Y-103567288D02*
X98984212Y-103652439D01*
X101591884Y-107938388D02*
X101918404Y-107938388D01*
X101359246Y-108171026D02*
X101591884Y-107938388D01*
X100902346Y-101574529D02*
X100892346Y-101591849D01*
X104158404Y-99872069D02*
X104138404Y-99872069D01*
X106604723Y-107830359D02*
X106767983Y-107547584D01*
X100892346Y-101591849D02*
X101057058Y-102206561D01*
X104138404Y-99872069D02*
X103688404Y-100322069D01*
X106627562Y-98919431D02*
X106394924Y-99152069D01*
X107253109Y-101841952D02*
X107243109Y-101824632D01*
X101311917Y-98959856D02*
X101397068Y-99277646D01*
X106689874Y-108148148D02*
X106604723Y-107830359D01*
X106394924Y-99152069D02*
X106068404Y-99152069D01*
X101397068Y-99277646D02*
X101233808Y-99560420D01*
X109312696Y-103503987D02*
X108994907Y-103418835D01*
X103828404Y-107218388D02*
X103848404Y-107218388D01*
X107109444Y-105516155D02*
X106944733Y-104901444D01*
X107099444Y-105533476D02*
X107109444Y-105516155D01*
X100726011Y-105229322D02*
X100736011Y-105246643D01*
X108994907Y-103418835D02*
X108831647Y-103136061D01*
%TO.N,unconnected-(U2-SENSEU-Pad4)*%
X121122850Y-85118143D02*
X120407398Y-85833595D01*
X109158698Y-82581875D02*
X109258699Y-82581875D01*
X103985708Y-88301772D02*
X104701160Y-87586320D01*
X108945452Y-85131875D02*
X108230000Y-85847327D01*
X121686096Y-85118143D02*
X121122850Y-85118143D01*
X116159787Y-88333062D02*
X116875239Y-87617610D01*
X115583676Y-85131893D02*
X115020430Y-85131893D01*
X122234787Y-88333062D02*
X122950239Y-87617610D01*
X109504987Y-88339601D02*
X110068233Y-88339601D01*
X103422462Y-88301772D02*
X103985708Y-88301772D01*
X109508698Y-85131875D02*
X108945452Y-85131875D01*
X122021541Y-90883062D02*
X121921540Y-90883062D01*
X121671541Y-88333062D02*
X122234787Y-88333062D01*
X110068233Y-88339601D02*
X110783685Y-87624149D01*
X115596541Y-88333062D02*
X116159787Y-88333062D01*
X103772462Y-90851772D02*
X103672461Y-90851772D01*
X115233676Y-82581893D02*
X115333677Y-82581893D01*
X121336096Y-82568143D02*
X121436097Y-82568143D01*
X115020430Y-85131893D02*
X114304978Y-85847345D01*
X109854987Y-90889601D02*
X109754986Y-90889601D01*
X115946541Y-90883062D02*
X115846540Y-90883062D01*
X110104987Y-91139601D02*
G75*
G03*
X109854987Y-90889613I-249987J1D01*
G01*
X115333677Y-82581893D02*
G75*
G03*
X115583693Y-82331892I23J249993D01*
G01*
X104022462Y-91101772D02*
G75*
G03*
X103772462Y-90851838I-249962J-28D01*
G01*
X108908698Y-82331875D02*
G75*
G03*
X109158698Y-82581902I250002J-25D01*
G01*
X121921540Y-90883062D02*
G75*
G03*
X121671462Y-91133063I-40J-250038D01*
G01*
X114983676Y-82331893D02*
G75*
G03*
X115233676Y-82581924I250024J-7D01*
G01*
X109754986Y-90889601D02*
G75*
G03*
X109505001Y-91139602I14J-249999D01*
G01*
X109258699Y-82581875D02*
G75*
G03*
X109508675Y-82331874I1J249975D01*
G01*
X121086096Y-82318143D02*
G75*
G03*
X121336096Y-82568104I250004J43D01*
G01*
X115846540Y-90883062D02*
G75*
G03*
X115596462Y-91133063I-40J-250038D01*
G01*
X122271541Y-91133062D02*
G75*
G03*
X122021541Y-90883059I-250041J-38D01*
G01*
X121436097Y-82568143D02*
G75*
G03*
X121686143Y-82318142I3J250043D01*
G01*
X103672461Y-90851772D02*
G75*
G03*
X103422472Y-91101773I39J-250028D01*
G01*
X116196541Y-91133062D02*
G75*
G03*
X115946541Y-90883059I-250041J-38D01*
G01*
%TD*%
%TA.AperFunction,Conductor*%
%TO.N,GND4*%
G36*
X97365519Y-88132633D02*
G01*
X97654813Y-88164776D01*
X98233402Y-88229064D01*
X98280841Y-88244423D01*
X98307624Y-88259600D01*
X98999007Y-88651383D01*
X99017255Y-88664006D01*
X99349883Y-88941196D01*
X99388782Y-88999235D01*
X99394500Y-89036455D01*
X99394500Y-89508155D01*
X99393747Y-89521802D01*
X99393248Y-89526305D01*
X99394474Y-89585825D01*
X99394500Y-89588378D01*
X99394500Y-89647770D01*
X99395088Y-89652237D01*
X99395112Y-89652554D01*
X99395216Y-89653288D01*
X99395277Y-89653578D01*
X99395961Y-89658063D01*
X99412550Y-89715238D01*
X99413235Y-89717693D01*
X99428608Y-89775062D01*
X99430335Y-89779232D01*
X99430438Y-89779527D01*
X99430732Y-89780216D01*
X99430866Y-89780480D01*
X99432684Y-89784626D01*
X99463478Y-89835511D01*
X99464781Y-89837715D01*
X99466917Y-89841415D01*
X99469203Y-89845556D01*
X99600084Y-90093666D01*
X99606113Y-90106930D01*
X99685324Y-90312466D01*
X99706215Y-90366672D01*
X99710647Y-90380552D01*
X99779591Y-90650248D01*
X99782364Y-90664551D01*
X99819199Y-90940472D01*
X99820275Y-90955002D01*
X99824490Y-91233339D01*
X99823854Y-91247895D01*
X99795393Y-91524801D01*
X99793054Y-91539183D01*
X99732308Y-91810838D01*
X99728299Y-91824845D01*
X99636108Y-92087505D01*
X99630483Y-92100946D01*
X99508119Y-92350977D01*
X99500957Y-92363664D01*
X99350113Y-92597612D01*
X99341512Y-92609373D01*
X99164259Y-92824023D01*
X99154337Y-92834693D01*
X98953137Y-93027062D01*
X98942033Y-93036494D01*
X98719665Y-93203931D01*
X98707531Y-93211997D01*
X98467043Y-93352202D01*
X98454047Y-93358788D01*
X98198776Y-93469817D01*
X98185096Y-93474833D01*
X97918571Y-93555150D01*
X97904398Y-93558527D01*
X97630295Y-93607027D01*
X97615823Y-93608719D01*
X97334257Y-93624943D01*
X97326972Y-93625148D01*
X97258849Y-93625064D01*
X97255173Y-93625306D01*
X94958455Y-93630075D01*
X94891375Y-93610529D01*
X94845511Y-93557821D01*
X94834198Y-93506075D01*
X94834198Y-91122328D01*
X96820653Y-91122328D01*
X96841134Y-91264784D01*
X96900922Y-91395699D01*
X96900923Y-91395701D01*
X96995172Y-91504471D01*
X97116247Y-91582281D01*
X97116250Y-91582282D01*
X97116249Y-91582282D01*
X97254336Y-91622827D01*
X97254338Y-91622828D01*
X97254339Y-91622828D01*
X97398262Y-91622828D01*
X97398262Y-91622827D01*
X97536353Y-91582281D01*
X97657428Y-91504471D01*
X97751677Y-91395701D01*
X97811465Y-91264785D01*
X97831947Y-91122328D01*
X97811465Y-90979871D01*
X97751677Y-90848955D01*
X97657428Y-90740185D01*
X97536353Y-90662375D01*
X97536351Y-90662374D01*
X97536349Y-90662373D01*
X97536350Y-90662373D01*
X97398263Y-90621828D01*
X97398261Y-90621828D01*
X97254339Y-90621828D01*
X97254336Y-90621828D01*
X97116249Y-90662373D01*
X96995173Y-90740184D01*
X96900923Y-90848954D01*
X96900922Y-90848956D01*
X96841134Y-90979871D01*
X96820653Y-91122328D01*
X94834198Y-91122328D01*
X94834198Y-91093499D01*
X94834494Y-91084934D01*
X94834993Y-91077726D01*
X94851786Y-90835187D01*
X94853361Y-90822300D01*
X94896502Y-90576921D01*
X94899420Y-90564260D01*
X94954061Y-90373484D01*
X94968018Y-90324752D01*
X94972247Y-90312466D01*
X94974209Y-90307610D01*
X95065545Y-90081466D01*
X95071038Y-90069688D01*
X95189120Y-89847644D01*
X95191253Y-89843799D01*
X95192750Y-89841215D01*
X95193717Y-89839575D01*
X95225013Y-89787513D01*
X95225016Y-89787501D01*
X95225737Y-89785846D01*
X95225968Y-89785388D01*
X95226256Y-89784697D01*
X95227065Y-89782793D01*
X95227409Y-89782002D01*
X95227587Y-89781492D01*
X95228267Y-89779851D01*
X95228277Y-89779836D01*
X95244074Y-89721135D01*
X95244566Y-89719364D01*
X95261359Y-89660840D01*
X95261359Y-89660830D01*
X95261632Y-89659013D01*
X95261738Y-89658505D01*
X95261833Y-89657790D01*
X95262124Y-89655724D01*
X95262244Y-89654919D01*
X95262284Y-89654388D01*
X95262521Y-89652590D01*
X95262525Y-89652579D01*
X95262590Y-89591740D01*
X95262607Y-89589903D01*
X95263680Y-89529077D01*
X95263678Y-89529071D01*
X95263472Y-89527251D01*
X95262677Y-89513095D01*
X95262682Y-89508155D01*
X95263223Y-89013140D01*
X95282981Y-88946126D01*
X95310251Y-88916061D01*
X95843467Y-88493932D01*
X95876887Y-88475053D01*
X96451437Y-88259597D01*
X96466242Y-88255078D01*
X96969536Y-88135247D01*
X96998257Y-88131875D01*
X97351826Y-88131875D01*
X97365519Y-88132633D01*
G37*
%TD.AperFunction*%
%TD*%
M02*
