M48
; DRILL file {KiCad 8.0.3} date 2024-07-16T20:49:32+0300
; FORMAT={-:-/ absolute / metric / decimal}
; #@! TF.CreationDate,2024-07-16T20:49:32+03:00
; #@! TF.GenerationSoftware,Kicad,Pcbnew,8.0.3
; #@! TF.FileFunction,Plated,1,8,PTH
FMAT,2
METRIC
; #@! TA.AperFunction,Plated,PTH,ViaDrill
T1C0.300
; #@! TA.AperFunction,Plated,PTH,ViaDrill
T2C0.400
; #@! TA.AperFunction,Plated,PTH,ComponentDrill
T3C1.000
%
G90
G05
T1
X94.96Y-93.515
X96.045Y-87.655
X96.055Y-85.847
X97.326Y-91.122
X97.334Y-82.332
X98.605Y-87.607
X98.666Y-103.567
X98.703Y-104.118
X98.749Y-104.661
X99.45Y-111.453
X99.536Y-106.186
X100.407Y-99.578
X100.854Y-99.267
X101.01Y-93.465
X101.02Y-111.453
X101.057Y-102.207
X101.069Y-104.904
X101.312Y-98.96
X101.351Y-105.411
X101.356Y-101.709
X101.359Y-108.171
X101.599Y-102.208
X101.623Y-104.943
X101.854Y-108.414
X102.135Y-87.615
X102.136Y-85.848
X102.348Y-108.646
X102.51Y-111.483
X103.415Y-82.332
X103.42Y-91.122
X103.688Y-100.322
X103.718Y-106.758
X103.958Y-100.792
X104.028Y-106.298
X104.268Y-100.332
X104.298Y-106.768
X104.699Y-87.607
X105.626Y-98.416
X106.132Y-98.676
X106.356Y-102.129
X106.403Y-104.9
X106.628Y-98.919
X106.628Y-101.66
X106.646Y-105.399
X106.69Y-108.148
X106.91Y-102.167
X106.945Y-104.901
X107.109Y-93.482
X107.148Y-107.841
X107.595Y-107.53
X108.23Y-85.847
X108.295Y-87.625
X109.23Y-102.411
X109.276Y-102.953
X109.313Y-103.504
X109.495Y-91.122
X109.509Y-82.332
X109.542Y-109.977
X110.774Y-87.607
X110.855Y-85.925
X112.332Y-100.237
X112.412Y-101.677
X113.184Y-93.582
X114.305Y-85.847
X114.435Y-87.655
X114.56Y-101.573
X115.072Y-103.998
X115.082Y-104.647
X115.093Y-103.347
X115.472Y-100.797
X115.584Y-82.332
X115.588Y-91.122
X116.222Y-97.657
X116.362Y-102.438
X116.676Y-99.596
X116.752Y-105.787
X116.845Y-85.845
X116.867Y-87.606
X116.983Y-102.377
X117.032Y-97.667
X117.662Y-103.337
X118.352Y-107.097
X118.648Y-101.155
X118.673Y-100.555
X118.892Y-98.767
X119.284Y-93.532
X119.4Y-105.787
X120.082Y-97.667
X120.082Y-98.757
X120.399Y-85.847
X120.485Y-87.625
X121.5Y-99.597
X121.532Y-105.837
X121.67Y-91.122
X121.677Y-82.332
X121.777Y-126.387
X122.949Y-87.607
X123.055Y-85.825
X127.617Y-80.044
X127.817Y-86.249
X127.83Y-82.499
X127.83Y-89.999
X127.83Y-93.749
X131.377Y-80.044
X131.4Y-104.527
X131.408Y-105.099
X131.567Y-86.274
X131.58Y-82.524
X131.58Y-90.024
X131.58Y-93.774
X131.65Y-99.802
X135.187Y-80.054
X135.317Y-86.274
X135.33Y-82.524
X135.33Y-90.024
X135.33Y-93.774
X136.099Y-104.636
X136.475Y-99.828
X136.67Y-104.628
X139.037Y-80.034
X139.067Y-86.274
X139.08Y-82.524
X139.08Y-90.024
X139.08Y-93.774
X141.575Y-94.055
X141.585Y-90.065
X141.645Y-86.065
X141.655Y-82.335
T2
X127.732Y-119.279
T3
X94.87Y-119.145
X96.362Y-114.777
X97.41Y-119.145
X98.902Y-114.777
X101.1Y-119.145
X101.442Y-114.777
X103.64Y-119.145
X103.983Y-114.777
X106.522Y-114.777
X110.222Y-112.257
X110.222Y-114.787
X112.735Y-119.105
X112.762Y-112.257
X112.762Y-114.787
X115.302Y-112.257
X115.302Y-114.787
X117.305Y-124.305
X117.305Y-126.845
X117.843Y-112.257
X117.843Y-114.787
X120.382Y-112.257
X120.382Y-114.787
X123.315Y-119.095
X127.075Y-98.248
X127.075Y-100.787
X127.075Y-103.328
X127.075Y-105.867
X127.075Y-108.407
X135.325Y-119.579
X137.865Y-119.579
X139.405Y-124.21
X139.405Y-126.75
X141.075Y-98.248
X141.075Y-100.787
X141.075Y-103.328
X141.075Y-105.867
X141.075Y-108.407
M30
