%TF.GenerationSoftware,KiCad,Pcbnew,8.0.3*%
%TF.CreationDate,2024-07-16T20:49:30+03:00*%
%TF.ProjectId,PCBcoil,50434263-6f69-46c2-9e6b-696361645f70,rev?*%
%TF.SameCoordinates,Original*%
%TF.FileFunction,Legend,Bot*%
%TF.FilePolarity,Positive*%
%FSLAX46Y46*%
G04 Gerber Fmt 4.6, Leading zero omitted, Abs format (unit mm)*
G04 Created by KiCad (PCBNEW 8.0.3) date 2024-07-16 20:49:30*
%MOMM*%
%LPD*%
G01*
G04 APERTURE LIST*
%ADD10C,0.140000*%
%ADD11C,0.180000*%
%ADD12C,0.150000*%
%ADD13C,0.120000*%
G04 APERTURE END LIST*
D10*
X139412894Y-108734553D02*
X139412894Y-108034553D01*
X139412894Y-108034553D02*
X139246227Y-108034553D01*
X139246227Y-108034553D02*
X139146227Y-108067886D01*
X139146227Y-108067886D02*
X139079561Y-108134553D01*
X139079561Y-108134553D02*
X139046227Y-108201220D01*
X139046227Y-108201220D02*
X139012894Y-108334553D01*
X139012894Y-108334553D02*
X139012894Y-108434553D01*
X139012894Y-108434553D02*
X139046227Y-108567886D01*
X139046227Y-108567886D02*
X139079561Y-108634553D01*
X139079561Y-108634553D02*
X139146227Y-108701220D01*
X139146227Y-108701220D02*
X139246227Y-108734553D01*
X139246227Y-108734553D02*
X139412894Y-108734553D01*
X138779561Y-108034553D02*
X138346227Y-108034553D01*
X138346227Y-108034553D02*
X138579561Y-108301220D01*
X138579561Y-108301220D02*
X138479561Y-108301220D01*
X138479561Y-108301220D02*
X138412894Y-108334553D01*
X138412894Y-108334553D02*
X138379561Y-108367886D01*
X138379561Y-108367886D02*
X138346227Y-108434553D01*
X138346227Y-108434553D02*
X138346227Y-108601220D01*
X138346227Y-108601220D02*
X138379561Y-108667886D01*
X138379561Y-108667886D02*
X138412894Y-108701220D01*
X138412894Y-108701220D02*
X138479561Y-108734553D01*
X138479561Y-108734553D02*
X138679561Y-108734553D01*
X138679561Y-108734553D02*
X138746227Y-108701220D01*
X138746227Y-108701220D02*
X138779561Y-108667886D01*
X129671227Y-98384553D02*
X129337894Y-98384553D01*
X129737894Y-98584553D02*
X129504561Y-97884553D01*
X129504561Y-97884553D02*
X129271227Y-98584553D01*
X128671227Y-98584553D02*
X129071227Y-98584553D01*
X128871227Y-98584553D02*
X128871227Y-97884553D01*
X128871227Y-97884553D02*
X128937894Y-97984553D01*
X128937894Y-97984553D02*
X129004561Y-98051220D01*
X129004561Y-98051220D02*
X129071227Y-98084553D01*
X139387894Y-103534553D02*
X139387894Y-102834553D01*
X139387894Y-102834553D02*
X139221227Y-102834553D01*
X139221227Y-102834553D02*
X139121227Y-102867886D01*
X139121227Y-102867886D02*
X139054561Y-102934553D01*
X139054561Y-102934553D02*
X139021227Y-103001220D01*
X139021227Y-103001220D02*
X138987894Y-103134553D01*
X138987894Y-103134553D02*
X138987894Y-103234553D01*
X138987894Y-103234553D02*
X139021227Y-103367886D01*
X139021227Y-103367886D02*
X139054561Y-103434553D01*
X139054561Y-103434553D02*
X139121227Y-103501220D01*
X139121227Y-103501220D02*
X139221227Y-103534553D01*
X139221227Y-103534553D02*
X139387894Y-103534553D01*
X138321227Y-103534553D02*
X138721227Y-103534553D01*
X138521227Y-103534553D02*
X138521227Y-102834553D01*
X138521227Y-102834553D02*
X138587894Y-102934553D01*
X138587894Y-102934553D02*
X138654561Y-103001220D01*
X138654561Y-103001220D02*
X138721227Y-103034553D01*
X129671227Y-100909553D02*
X129337894Y-100909553D01*
X129737894Y-101109553D02*
X129504561Y-100409553D01*
X129504561Y-100409553D02*
X129271227Y-101109553D01*
X129071227Y-100476220D02*
X129037894Y-100442886D01*
X129037894Y-100442886D02*
X128971227Y-100409553D01*
X128971227Y-100409553D02*
X128804561Y-100409553D01*
X128804561Y-100409553D02*
X128737894Y-100442886D01*
X128737894Y-100442886D02*
X128704561Y-100476220D01*
X128704561Y-100476220D02*
X128671227Y-100542886D01*
X128671227Y-100542886D02*
X128671227Y-100609553D01*
X128671227Y-100609553D02*
X128704561Y-100709553D01*
X128704561Y-100709553D02*
X129104561Y-101109553D01*
X129104561Y-101109553D02*
X128671227Y-101109553D01*
X129337894Y-106192886D02*
X129371227Y-106226220D01*
X129371227Y-106226220D02*
X129471227Y-106259553D01*
X129471227Y-106259553D02*
X129537894Y-106259553D01*
X129537894Y-106259553D02*
X129637894Y-106226220D01*
X129637894Y-106226220D02*
X129704561Y-106159553D01*
X129704561Y-106159553D02*
X129737894Y-106092886D01*
X129737894Y-106092886D02*
X129771227Y-105959553D01*
X129771227Y-105959553D02*
X129771227Y-105859553D01*
X129771227Y-105859553D02*
X129737894Y-105726220D01*
X129737894Y-105726220D02*
X129704561Y-105659553D01*
X129704561Y-105659553D02*
X129637894Y-105592886D01*
X129637894Y-105592886D02*
X129537894Y-105559553D01*
X129537894Y-105559553D02*
X129471227Y-105559553D01*
X129471227Y-105559553D02*
X129371227Y-105592886D01*
X129371227Y-105592886D02*
X129337894Y-105626220D01*
X129071227Y-105626220D02*
X129037894Y-105592886D01*
X129037894Y-105592886D02*
X128971227Y-105559553D01*
X128971227Y-105559553D02*
X128804561Y-105559553D01*
X128804561Y-105559553D02*
X128737894Y-105592886D01*
X128737894Y-105592886D02*
X128704561Y-105626220D01*
X128704561Y-105626220D02*
X128671227Y-105692886D01*
X128671227Y-105692886D02*
X128671227Y-105759553D01*
X128671227Y-105759553D02*
X128704561Y-105859553D01*
X128704561Y-105859553D02*
X129104561Y-106259553D01*
X129104561Y-106259553D02*
X128671227Y-106259553D01*
X129312894Y-108767886D02*
X129346227Y-108801220D01*
X129346227Y-108801220D02*
X129446227Y-108834553D01*
X129446227Y-108834553D02*
X129512894Y-108834553D01*
X129512894Y-108834553D02*
X129612894Y-108801220D01*
X129612894Y-108801220D02*
X129679561Y-108734553D01*
X129679561Y-108734553D02*
X129712894Y-108667886D01*
X129712894Y-108667886D02*
X129746227Y-108534553D01*
X129746227Y-108534553D02*
X129746227Y-108434553D01*
X129746227Y-108434553D02*
X129712894Y-108301220D01*
X129712894Y-108301220D02*
X129679561Y-108234553D01*
X129679561Y-108234553D02*
X129612894Y-108167886D01*
X129612894Y-108167886D02*
X129512894Y-108134553D01*
X129512894Y-108134553D02*
X129446227Y-108134553D01*
X129446227Y-108134553D02*
X129346227Y-108167886D01*
X129346227Y-108167886D02*
X129312894Y-108201220D01*
X129079561Y-108134553D02*
X128646227Y-108134553D01*
X128646227Y-108134553D02*
X128879561Y-108401220D01*
X128879561Y-108401220D02*
X128779561Y-108401220D01*
X128779561Y-108401220D02*
X128712894Y-108434553D01*
X128712894Y-108434553D02*
X128679561Y-108467886D01*
X128679561Y-108467886D02*
X128646227Y-108534553D01*
X128646227Y-108534553D02*
X128646227Y-108701220D01*
X128646227Y-108701220D02*
X128679561Y-108767886D01*
X128679561Y-108767886D02*
X128712894Y-108801220D01*
X128712894Y-108801220D02*
X128779561Y-108834553D01*
X128779561Y-108834553D02*
X128979561Y-108834553D01*
X128979561Y-108834553D02*
X129046227Y-108801220D01*
X129046227Y-108801220D02*
X129079561Y-108767886D01*
X129262894Y-103642886D02*
X129296227Y-103676220D01*
X129296227Y-103676220D02*
X129396227Y-103709553D01*
X129396227Y-103709553D02*
X129462894Y-103709553D01*
X129462894Y-103709553D02*
X129562894Y-103676220D01*
X129562894Y-103676220D02*
X129629561Y-103609553D01*
X129629561Y-103609553D02*
X129662894Y-103542886D01*
X129662894Y-103542886D02*
X129696227Y-103409553D01*
X129696227Y-103409553D02*
X129696227Y-103309553D01*
X129696227Y-103309553D02*
X129662894Y-103176220D01*
X129662894Y-103176220D02*
X129629561Y-103109553D01*
X129629561Y-103109553D02*
X129562894Y-103042886D01*
X129562894Y-103042886D02*
X129462894Y-103009553D01*
X129462894Y-103009553D02*
X129396227Y-103009553D01*
X129396227Y-103009553D02*
X129296227Y-103042886D01*
X129296227Y-103042886D02*
X129262894Y-103076220D01*
X128596227Y-103709553D02*
X128996227Y-103709553D01*
X128796227Y-103709553D02*
X128796227Y-103009553D01*
X128796227Y-103009553D02*
X128862894Y-103109553D01*
X128862894Y-103109553D02*
X128929561Y-103176220D01*
X128929561Y-103176220D02*
X128996227Y-103209553D01*
X139462894Y-106084553D02*
X139462894Y-105384553D01*
X139462894Y-105384553D02*
X139296227Y-105384553D01*
X139296227Y-105384553D02*
X139196227Y-105417886D01*
X139196227Y-105417886D02*
X139129561Y-105484553D01*
X139129561Y-105484553D02*
X139096227Y-105551220D01*
X139096227Y-105551220D02*
X139062894Y-105684553D01*
X139062894Y-105684553D02*
X139062894Y-105784553D01*
X139062894Y-105784553D02*
X139096227Y-105917886D01*
X139096227Y-105917886D02*
X139129561Y-105984553D01*
X139129561Y-105984553D02*
X139196227Y-106051220D01*
X139196227Y-106051220D02*
X139296227Y-106084553D01*
X139296227Y-106084553D02*
X139462894Y-106084553D01*
X138796227Y-105451220D02*
X138762894Y-105417886D01*
X138762894Y-105417886D02*
X138696227Y-105384553D01*
X138696227Y-105384553D02*
X138529561Y-105384553D01*
X138529561Y-105384553D02*
X138462894Y-105417886D01*
X138462894Y-105417886D02*
X138429561Y-105451220D01*
X138429561Y-105451220D02*
X138396227Y-105517886D01*
X138396227Y-105517886D02*
X138396227Y-105584553D01*
X138396227Y-105584553D02*
X138429561Y-105684553D01*
X138429561Y-105684553D02*
X138829561Y-106084553D01*
X138829561Y-106084553D02*
X138396227Y-106084553D01*
X139154561Y-98317886D02*
X139054561Y-98351220D01*
X139054561Y-98351220D02*
X139021227Y-98384553D01*
X139021227Y-98384553D02*
X138987894Y-98451220D01*
X138987894Y-98451220D02*
X138987894Y-98551220D01*
X138987894Y-98551220D02*
X139021227Y-98617886D01*
X139021227Y-98617886D02*
X139054561Y-98651220D01*
X139054561Y-98651220D02*
X139121227Y-98684553D01*
X139121227Y-98684553D02*
X139387894Y-98684553D01*
X139387894Y-98684553D02*
X139387894Y-97984553D01*
X139387894Y-97984553D02*
X139154561Y-97984553D01*
X139154561Y-97984553D02*
X139087894Y-98017886D01*
X139087894Y-98017886D02*
X139054561Y-98051220D01*
X139054561Y-98051220D02*
X139021227Y-98117886D01*
X139021227Y-98117886D02*
X139021227Y-98184553D01*
X139021227Y-98184553D02*
X139054561Y-98251220D01*
X139054561Y-98251220D02*
X139087894Y-98284553D01*
X139087894Y-98284553D02*
X139154561Y-98317886D01*
X139154561Y-98317886D02*
X139387894Y-98317886D01*
X138321227Y-98684553D02*
X138721227Y-98684553D01*
X138521227Y-98684553D02*
X138521227Y-97984553D01*
X138521227Y-97984553D02*
X138587894Y-98084553D01*
X138587894Y-98084553D02*
X138654561Y-98151220D01*
X138654561Y-98151220D02*
X138721227Y-98184553D01*
X139204561Y-100742886D02*
X139104561Y-100776220D01*
X139104561Y-100776220D02*
X139071227Y-100809553D01*
X139071227Y-100809553D02*
X139037894Y-100876220D01*
X139037894Y-100876220D02*
X139037894Y-100976220D01*
X139037894Y-100976220D02*
X139071227Y-101042886D01*
X139071227Y-101042886D02*
X139104561Y-101076220D01*
X139104561Y-101076220D02*
X139171227Y-101109553D01*
X139171227Y-101109553D02*
X139437894Y-101109553D01*
X139437894Y-101109553D02*
X139437894Y-100409553D01*
X139437894Y-100409553D02*
X139204561Y-100409553D01*
X139204561Y-100409553D02*
X139137894Y-100442886D01*
X139137894Y-100442886D02*
X139104561Y-100476220D01*
X139104561Y-100476220D02*
X139071227Y-100542886D01*
X139071227Y-100542886D02*
X139071227Y-100609553D01*
X139071227Y-100609553D02*
X139104561Y-100676220D01*
X139104561Y-100676220D02*
X139137894Y-100709553D01*
X139137894Y-100709553D02*
X139204561Y-100742886D01*
X139204561Y-100742886D02*
X139437894Y-100742886D01*
X138771227Y-100476220D02*
X138737894Y-100442886D01*
X138737894Y-100442886D02*
X138671227Y-100409553D01*
X138671227Y-100409553D02*
X138504561Y-100409553D01*
X138504561Y-100409553D02*
X138437894Y-100442886D01*
X138437894Y-100442886D02*
X138404561Y-100476220D01*
X138404561Y-100476220D02*
X138371227Y-100542886D01*
X138371227Y-100542886D02*
X138371227Y-100609553D01*
X138371227Y-100609553D02*
X138404561Y-100709553D01*
X138404561Y-100709553D02*
X138804561Y-101109553D01*
X138804561Y-101109553D02*
X138371227Y-101109553D01*
D11*
G36*
X133531049Y-103155885D02*
G01*
X133531810Y-103559981D01*
X133516036Y-103568171D01*
X133387038Y-103569352D01*
X133333271Y-103543485D01*
X133310071Y-103521289D01*
X133282173Y-103467559D01*
X133280822Y-103252980D01*
X133306804Y-103198974D01*
X133329001Y-103175773D01*
X133382836Y-103147822D01*
X133511836Y-103146641D01*
X133531049Y-103155885D01*
G37*
G36*
X137303820Y-103568656D02*
G01*
X137196619Y-103569456D01*
X137099557Y-103538315D01*
X137039130Y-103479375D01*
X137007074Y-103417634D01*
X136967942Y-103266822D01*
X136966677Y-103159896D01*
X137002894Y-103009346D01*
X137035223Y-102942146D01*
X137095800Y-102880041D01*
X137188664Y-102847917D01*
X137302460Y-102847068D01*
X137303820Y-103568656D01*
G37*
G36*
X133531049Y-101706936D02*
G01*
X133531810Y-102111032D01*
X133516036Y-102119222D01*
X133387038Y-102120403D01*
X133333271Y-102094536D01*
X133310071Y-102072340D01*
X133282173Y-102018610D01*
X133280822Y-101804031D01*
X133306804Y-101750025D01*
X133329001Y-101726824D01*
X133382836Y-101698873D01*
X133511836Y-101697692D01*
X133531049Y-101706936D01*
G37*
G36*
X133531049Y-100257987D02*
G01*
X133531810Y-100662083D01*
X133516036Y-100670273D01*
X133387038Y-100671454D01*
X133333271Y-100645587D01*
X133310071Y-100623391D01*
X133282173Y-100569661D01*
X133280822Y-100355082D01*
X133306804Y-100301076D01*
X133329001Y-100277875D01*
X133382836Y-100249924D01*
X133511836Y-100248743D01*
X133531049Y-100257987D01*
G37*
G36*
X137303820Y-100670523D02*
G01*
X137073118Y-100671630D01*
X137018984Y-100645588D01*
X136995783Y-100623390D01*
X136967779Y-100569454D01*
X136966758Y-100483192D01*
X136992517Y-100429647D01*
X137010899Y-100410433D01*
X137102887Y-100378612D01*
X137303268Y-100377521D01*
X137303820Y-100670523D01*
G37*
G36*
X137302931Y-100199156D02*
G01*
X137115920Y-100200174D01*
X137061839Y-100174157D01*
X137038640Y-100151962D01*
X137010539Y-100097838D01*
X137009808Y-100054218D01*
X137035375Y-100001075D01*
X137057570Y-99977876D01*
X137111269Y-99949995D01*
X137302460Y-99948954D01*
X137302931Y-100199156D01*
G37*
G36*
X133659620Y-98809038D02*
G01*
X133660381Y-99213134D01*
X133644607Y-99221324D01*
X133515609Y-99222505D01*
X133461842Y-99196638D01*
X133438642Y-99174442D01*
X133410744Y-99120712D01*
X133409393Y-98906133D01*
X133435375Y-98852127D01*
X133457572Y-98828926D01*
X133511407Y-98800975D01*
X133640407Y-98799794D01*
X133659620Y-98809038D01*
G37*
G36*
X137311485Y-98964486D02*
G01*
X137130308Y-98965188D01*
X137220473Y-98693070D01*
X137311485Y-98964486D01*
G37*
G36*
X137710157Y-104146268D02*
G01*
X130303000Y-104146268D01*
X130303000Y-103089598D01*
X130403000Y-103089598D01*
X130405489Y-103124626D01*
X130421193Y-103156034D01*
X130447722Y-103179042D01*
X130481037Y-103190147D01*
X130516065Y-103187658D01*
X130532542Y-103181352D01*
X130597121Y-103147822D01*
X130726118Y-103146641D01*
X130779886Y-103172507D01*
X130803087Y-103194704D01*
X130830983Y-103248433D01*
X130832334Y-103463012D01*
X130806351Y-103517021D01*
X130784158Y-103540218D01*
X130730319Y-103568171D01*
X130601323Y-103569352D01*
X130516065Y-103528336D01*
X130481037Y-103525847D01*
X130447722Y-103536952D01*
X130421193Y-103559960D01*
X130405489Y-103591368D01*
X130403000Y-103626396D01*
X130414105Y-103659711D01*
X130437113Y-103686240D01*
X130452044Y-103695638D01*
X130526760Y-103731583D01*
X130528006Y-103732829D01*
X130537676Y-103736834D01*
X130554235Y-103744801D01*
X130557460Y-103745030D01*
X130560449Y-103746268D01*
X130578007Y-103747997D01*
X130735963Y-103746551D01*
X130738178Y-103747290D01*
X130750427Y-103746419D01*
X130766993Y-103746268D01*
X130769981Y-103745030D01*
X130773206Y-103744801D01*
X130789684Y-103738496D01*
X130875210Y-103694089D01*
X130885153Y-103689972D01*
X130888615Y-103687130D01*
X130890330Y-103686240D01*
X130891886Y-103684445D01*
X130898790Y-103678779D01*
X130941931Y-103633685D01*
X130949107Y-103627462D01*
X130951456Y-103623728D01*
X130952840Y-103622283D01*
X130953750Y-103620084D01*
X130958505Y-103612531D01*
X130994450Y-103537814D01*
X130995696Y-103536569D01*
X130999701Y-103526898D01*
X131007668Y-103510340D01*
X131007897Y-103507114D01*
X131009135Y-103504126D01*
X131010864Y-103486568D01*
X131009331Y-103243156D01*
X131010157Y-103240681D01*
X131009234Y-103227700D01*
X131009135Y-103211867D01*
X131007897Y-103208878D01*
X131007668Y-103205653D01*
X131001362Y-103189176D01*
X130956955Y-103103646D01*
X130952839Y-103093709D01*
X130949998Y-103090247D01*
X130949107Y-103088531D01*
X130947312Y-103086974D01*
X130941647Y-103080071D01*
X130918574Y-103057997D01*
X131216579Y-103057997D01*
X131218308Y-103675555D01*
X131231747Y-103707998D01*
X131256578Y-103732829D01*
X131289021Y-103746268D01*
X131324137Y-103746268D01*
X131356580Y-103732829D01*
X131366296Y-103723112D01*
X131383903Y-103731583D01*
X131385149Y-103732829D01*
X131394819Y-103736834D01*
X131411378Y-103744801D01*
X131414603Y-103745030D01*
X131417592Y-103746268D01*
X131435150Y-103747997D01*
X131550490Y-103746632D01*
X131552464Y-103747290D01*
X131563963Y-103746472D01*
X131581279Y-103746268D01*
X131584267Y-103745030D01*
X131587492Y-103744801D01*
X131603970Y-103738496D01*
X131685507Y-103696161D01*
X131694007Y-103693328D01*
X131698545Y-103689391D01*
X131704616Y-103686240D01*
X131712010Y-103677714D01*
X131720536Y-103670320D01*
X131726129Y-103661433D01*
X131727624Y-103659711D01*
X131728085Y-103658327D01*
X131729935Y-103655389D01*
X131765879Y-103580671D01*
X131767125Y-103579426D01*
X131771131Y-103569753D01*
X131779097Y-103553196D01*
X131779326Y-103549971D01*
X131780564Y-103546983D01*
X131782293Y-103529425D01*
X131781473Y-103297582D01*
X132032594Y-103297582D01*
X132032594Y-103332698D01*
X132046033Y-103365141D01*
X132070864Y-103389972D01*
X132103307Y-103403411D01*
X132120865Y-103405140D01*
X132824137Y-103403411D01*
X132856580Y-103389972D01*
X132881411Y-103365141D01*
X132894850Y-103332698D01*
X132894850Y-103297582D01*
X132881411Y-103265139D01*
X132856580Y-103240308D01*
X132830307Y-103229425D01*
X133102293Y-103229425D01*
X133103825Y-103472836D01*
X133103000Y-103475312D01*
X133103922Y-103488292D01*
X133104022Y-103504126D01*
X133105259Y-103507114D01*
X133105489Y-103510340D01*
X133111795Y-103526818D01*
X133156200Y-103612341D01*
X133160318Y-103622283D01*
X133163161Y-103625747D01*
X133164052Y-103627463D01*
X133165847Y-103629019D01*
X133171511Y-103635921D01*
X133216602Y-103679061D01*
X133222828Y-103686240D01*
X133226561Y-103688589D01*
X133228006Y-103689972D01*
X133230202Y-103690881D01*
X133237759Y-103695638D01*
X133312475Y-103731583D01*
X133313721Y-103732829D01*
X133323391Y-103736834D01*
X133339950Y-103744801D01*
X133343175Y-103745030D01*
X133346164Y-103746268D01*
X133363722Y-103747997D01*
X133521680Y-103746551D01*
X133523895Y-103747290D01*
X133532162Y-103746702D01*
X133532594Y-103975555D01*
X133546033Y-104007998D01*
X133570864Y-104032829D01*
X133603307Y-104046268D01*
X133638423Y-104046268D01*
X133670866Y-104032829D01*
X133695697Y-104007998D01*
X133709136Y-103975555D01*
X133710865Y-103957997D01*
X133709252Y-103102339D01*
X133710158Y-103089598D01*
X133709223Y-103086794D01*
X133709136Y-103040439D01*
X133695697Y-103007996D01*
X133670866Y-102983165D01*
X133638423Y-102969726D01*
X133603307Y-102969726D01*
X133578008Y-102980205D01*
X133575484Y-102979160D01*
X133558923Y-102971193D01*
X133555697Y-102970963D01*
X133552709Y-102969726D01*
X133535151Y-102967997D01*
X133377192Y-102969442D01*
X133374978Y-102968704D01*
X133362727Y-102969574D01*
X133346164Y-102969726D01*
X133343175Y-102970963D01*
X133339950Y-102971193D01*
X133323473Y-102977499D01*
X133237943Y-103021905D01*
X133228006Y-103026022D01*
X133224544Y-103028862D01*
X133222828Y-103029754D01*
X133221271Y-103031548D01*
X133214368Y-103037214D01*
X133171227Y-103082306D01*
X133164052Y-103088530D01*
X133161701Y-103092263D01*
X133160319Y-103093709D01*
X133159409Y-103095905D01*
X133154653Y-103103461D01*
X133118707Y-103178177D01*
X133117461Y-103179424D01*
X133113454Y-103189095D01*
X133105489Y-103205653D01*
X133105259Y-103208878D01*
X133104022Y-103211867D01*
X133102293Y-103229425D01*
X132830307Y-103229425D01*
X132824137Y-103226869D01*
X132806579Y-103225140D01*
X132103307Y-103226869D01*
X132070864Y-103240308D01*
X132046033Y-103265139D01*
X132032594Y-103297582D01*
X131781473Y-103297582D01*
X131780564Y-103040439D01*
X131767125Y-103007996D01*
X131742294Y-102983165D01*
X131709851Y-102969726D01*
X131674735Y-102969726D01*
X131642292Y-102983165D01*
X131617461Y-103007996D01*
X131604022Y-103040439D01*
X131602293Y-103057997D01*
X131603875Y-103505635D01*
X131583508Y-103547973D01*
X131544504Y-103568224D01*
X131458243Y-103569245D01*
X131404699Y-103543485D01*
X131396235Y-103535388D01*
X131394850Y-103040439D01*
X131381411Y-103007996D01*
X131356580Y-102983165D01*
X131324137Y-102969726D01*
X131289021Y-102969726D01*
X131256578Y-102983165D01*
X131231747Y-103007996D01*
X131218308Y-103040439D01*
X131216579Y-103057997D01*
X130918574Y-103057997D01*
X130896553Y-103036929D01*
X130890330Y-103029754D01*
X130886595Y-103027403D01*
X130885152Y-103026022D01*
X130882957Y-103025113D01*
X130875399Y-103020355D01*
X130800681Y-102984410D01*
X130799436Y-102983165D01*
X130789763Y-102979158D01*
X130773206Y-102971193D01*
X130769981Y-102970963D01*
X130766993Y-102969726D01*
X130749435Y-102967997D01*
X130591477Y-102969442D01*
X130589263Y-102968704D01*
X130577012Y-102969574D01*
X130560449Y-102969726D01*
X130557460Y-102970963D01*
X130554235Y-102971193D01*
X130537758Y-102977499D01*
X130437113Y-103029754D01*
X130414105Y-103056283D01*
X130403000Y-103089598D01*
X130303000Y-103089598D01*
X130303000Y-102929425D01*
X133916579Y-102929425D01*
X133918027Y-103015950D01*
X133917285Y-103026397D01*
X133918275Y-103030751D01*
X133918308Y-103032698D01*
X133919217Y-103034894D01*
X133921198Y-103043600D01*
X133961166Y-103159139D01*
X133961166Y-103161269D01*
X133965634Y-103172058D01*
X133971247Y-103188282D01*
X133973366Y-103190726D01*
X133974604Y-103193713D01*
X133985796Y-103207351D01*
X134348770Y-103568643D01*
X133989021Y-103569726D01*
X133956578Y-103583165D01*
X133931747Y-103607996D01*
X133918308Y-103640439D01*
X133918308Y-103675555D01*
X133931747Y-103707998D01*
X133956578Y-103732829D01*
X133989021Y-103746268D01*
X134006579Y-103747997D01*
X134581280Y-103746268D01*
X134613723Y-103732829D01*
X134638554Y-103707998D01*
X134651993Y-103675555D01*
X134651993Y-103640439D01*
X134638554Y-103607996D01*
X134638554Y-103607995D01*
X134627361Y-103594357D01*
X134519071Y-103486568D01*
X134773722Y-103486568D01*
X134774610Y-103517622D01*
X134774429Y-103518168D01*
X134774759Y-103522818D01*
X134775451Y-103546983D01*
X134776688Y-103549971D01*
X134776918Y-103553196D01*
X134783223Y-103569674D01*
X134825557Y-103651211D01*
X134828391Y-103659711D01*
X134832327Y-103664249D01*
X134835479Y-103670320D01*
X134844004Y-103677714D01*
X134851399Y-103686240D01*
X134860282Y-103691831D01*
X134862008Y-103693328D01*
X134863394Y-103693790D01*
X134866330Y-103695638D01*
X134941046Y-103731583D01*
X134942292Y-103732829D01*
X134951962Y-103736834D01*
X134968521Y-103744801D01*
X134971746Y-103745030D01*
X134974735Y-103746268D01*
X134992293Y-103747997D01*
X135150251Y-103746551D01*
X135152466Y-103747290D01*
X135164716Y-103746419D01*
X135181280Y-103746268D01*
X135184268Y-103745030D01*
X135187494Y-103744801D01*
X135203971Y-103738495D01*
X135304616Y-103686240D01*
X135327624Y-103659711D01*
X135338729Y-103626396D01*
X135336240Y-103591368D01*
X135320536Y-103559960D01*
X135294007Y-103536952D01*
X135260692Y-103525847D01*
X135225664Y-103528336D01*
X135209187Y-103534642D01*
X135144607Y-103568171D01*
X135015609Y-103569352D01*
X134973745Y-103549212D01*
X134953153Y-103509551D01*
X134953118Y-103508321D01*
X134972506Y-103468019D01*
X135011508Y-103447769D01*
X135107635Y-103446632D01*
X135109609Y-103447290D01*
X135121108Y-103446472D01*
X135138423Y-103446268D01*
X135141411Y-103445030D01*
X135144637Y-103444801D01*
X135161114Y-103438495D01*
X135242649Y-103396161D01*
X135251150Y-103393328D01*
X135255688Y-103389391D01*
X135261759Y-103386240D01*
X135269153Y-103377714D01*
X135277679Y-103370320D01*
X135283272Y-103361433D01*
X135284767Y-103359711D01*
X135285228Y-103358327D01*
X135287078Y-103355389D01*
X135294270Y-103340439D01*
X135461165Y-103340439D01*
X135461165Y-103375555D01*
X135474604Y-103407998D01*
X135499435Y-103432829D01*
X135531878Y-103446268D01*
X135549436Y-103447997D01*
X135589099Y-103447877D01*
X135589737Y-103675555D01*
X135603176Y-103707998D01*
X135628007Y-103732829D01*
X135660450Y-103746268D01*
X135695566Y-103746268D01*
X135728009Y-103732829D01*
X135752840Y-103707998D01*
X135766279Y-103675555D01*
X135768008Y-103657997D01*
X135767839Y-103597583D01*
X136361166Y-103597583D01*
X136361166Y-103632699D01*
X136374604Y-103665143D01*
X136374608Y-103665147D01*
X136385796Y-103678780D01*
X136442291Y-103732829D01*
X136450394Y-103736185D01*
X136474735Y-103746268D01*
X136509851Y-103746268D01*
X136534192Y-103736185D01*
X136542295Y-103732829D01*
X136555933Y-103721637D01*
X136609959Y-103665165D01*
X136609982Y-103665143D01*
X136623420Y-103632699D01*
X136623421Y-103597583D01*
X136609983Y-103565139D01*
X136598791Y-103551501D01*
X136542296Y-103497450D01*
X136518655Y-103487658D01*
X136509851Y-103484011D01*
X136474735Y-103484011D01*
X136459922Y-103490147D01*
X136455731Y-103491883D01*
X136442292Y-103497449D01*
X136442291Y-103497450D01*
X136428653Y-103508643D01*
X136374603Y-103565139D01*
X136368528Y-103579808D01*
X136363740Y-103591369D01*
X136361166Y-103597583D01*
X135767839Y-103597583D01*
X135767418Y-103447341D01*
X136104285Y-103446327D01*
X136117836Y-103447291D01*
X136120875Y-103446277D01*
X136124137Y-103446268D01*
X136137456Y-103440750D01*
X136151150Y-103436186D01*
X136153594Y-103434065D01*
X136156580Y-103432829D01*
X136166777Y-103422631D01*
X136177678Y-103413177D01*
X136179124Y-103410284D01*
X136181411Y-103407998D01*
X136186932Y-103394668D01*
X136193383Y-103381768D01*
X136193612Y-103378543D01*
X136194850Y-103375555D01*
X136194850Y-103361131D01*
X136195873Y-103346740D01*
X136194850Y-103342241D01*
X136194850Y-103340439D01*
X136193941Y-103338245D01*
X136191961Y-103329537D01*
X136123604Y-103126153D01*
X136361166Y-103126153D01*
X136361166Y-103161269D01*
X136374604Y-103193713D01*
X136385796Y-103207351D01*
X136442291Y-103261400D01*
X136450394Y-103264756D01*
X136474735Y-103274839D01*
X136509851Y-103274839D01*
X136534192Y-103264756D01*
X136542295Y-103261400D01*
X136555933Y-103250208D01*
X136609982Y-103193713D01*
X136623420Y-103161269D01*
X136623420Y-103143711D01*
X136788007Y-103143711D01*
X136789471Y-103267525D01*
X136788113Y-103276657D01*
X136789707Y-103287439D01*
X136789736Y-103289840D01*
X136790243Y-103291065D01*
X136790694Y-103294110D01*
X136833448Y-103458883D01*
X136834060Y-103467483D01*
X136839091Y-103480629D01*
X136839487Y-103482154D01*
X136839875Y-103482678D01*
X136840366Y-103483960D01*
X136884772Y-103569489D01*
X136888889Y-103579427D01*
X136891729Y-103582888D01*
X136892621Y-103584605D01*
X136894415Y-103586161D01*
X136900081Y-103593065D01*
X136977433Y-103668513D01*
X136978337Y-103670320D01*
X136986904Y-103677751D01*
X136999434Y-103689972D01*
X137002420Y-103691209D01*
X137004865Y-103693329D01*
X137020976Y-103700521D01*
X137149756Y-103741838D01*
X137160449Y-103746268D01*
X137164939Y-103746710D01*
X137166750Y-103747291D01*
X137169123Y-103747122D01*
X137178007Y-103747997D01*
X137409851Y-103746268D01*
X137442294Y-103732829D01*
X137467125Y-103707998D01*
X137480564Y-103675555D01*
X137482293Y-103657997D01*
X137480564Y-102740439D01*
X137467125Y-102707996D01*
X137442294Y-102683165D01*
X137409851Y-102669726D01*
X137392293Y-102667997D01*
X137179176Y-102669586D01*
X137166750Y-102668703D01*
X137162312Y-102669712D01*
X137160449Y-102669726D01*
X137158255Y-102670634D01*
X137149547Y-102672615D01*
X137034009Y-102712583D01*
X137031879Y-102712583D01*
X137021081Y-102717055D01*
X137004865Y-102722665D01*
X137002422Y-102724783D01*
X136999435Y-102726021D01*
X136985797Y-102737214D01*
X136901180Y-102823964D01*
X136892621Y-102831388D01*
X136890221Y-102835200D01*
X136888889Y-102836566D01*
X136887980Y-102838760D01*
X136883222Y-102846319D01*
X136844137Y-102927563D01*
X136839487Y-102933839D01*
X136834780Y-102947011D01*
X136834060Y-102948510D01*
X136834013Y-102949158D01*
X136833551Y-102950454D01*
X136793429Y-103117237D01*
X136789736Y-103126153D01*
X136788662Y-103137049D01*
X136788113Y-103139336D01*
X136788308Y-103140649D01*
X136788007Y-103143711D01*
X136623420Y-103143711D01*
X136623420Y-103126153D01*
X136609982Y-103093709D01*
X136598790Y-103080071D01*
X136542295Y-103026022D01*
X136524661Y-103018718D01*
X136509851Y-103012583D01*
X136474735Y-103012583D01*
X136459925Y-103018718D01*
X136442291Y-103026022D01*
X136428653Y-103037214D01*
X136374604Y-103093709D01*
X136361166Y-103126153D01*
X136123604Y-103126153D01*
X135970482Y-102670569D01*
X135947473Y-102644041D01*
X135916064Y-102628336D01*
X135881036Y-102625846D01*
X135847722Y-102636951D01*
X135821194Y-102659960D01*
X135805489Y-102691369D01*
X135802999Y-102726397D01*
X135806912Y-102743601D01*
X135983285Y-103268367D01*
X135766918Y-103269018D01*
X135766279Y-103040439D01*
X135752840Y-103007996D01*
X135728009Y-102983165D01*
X135695566Y-102969726D01*
X135660450Y-102969726D01*
X135628007Y-102983165D01*
X135603176Y-103007996D01*
X135589737Y-103040439D01*
X135588008Y-103057997D01*
X135588600Y-103269555D01*
X135531878Y-103269726D01*
X135499435Y-103283165D01*
X135474604Y-103307996D01*
X135461165Y-103340439D01*
X135294270Y-103340439D01*
X135323022Y-103280671D01*
X135324268Y-103279426D01*
X135328274Y-103269753D01*
X135336240Y-103253196D01*
X135336469Y-103249971D01*
X135337707Y-103246983D01*
X135339436Y-103229425D01*
X135338547Y-103198369D01*
X135338729Y-103197824D01*
X135338398Y-103193173D01*
X135337707Y-103169010D01*
X135336469Y-103166021D01*
X135336240Y-103162796D01*
X135329934Y-103146319D01*
X135287600Y-103064782D01*
X135284767Y-103056283D01*
X135280830Y-103051744D01*
X135277679Y-103045674D01*
X135269153Y-103038279D01*
X135261759Y-103029754D01*
X135252872Y-103024160D01*
X135251150Y-103022666D01*
X135249766Y-103022204D01*
X135246828Y-103020355D01*
X135172111Y-102984410D01*
X135170866Y-102983165D01*
X135161198Y-102979160D01*
X135144637Y-102971193D01*
X135141411Y-102970963D01*
X135138423Y-102969726D01*
X135120865Y-102967997D01*
X135005522Y-102969361D01*
X135003549Y-102968704D01*
X134992049Y-102969521D01*
X134974735Y-102969726D01*
X134971746Y-102970963D01*
X134968521Y-102971193D01*
X134952044Y-102977499D01*
X134851399Y-103029754D01*
X134828391Y-103056283D01*
X134817286Y-103089598D01*
X134819775Y-103124626D01*
X134835479Y-103156034D01*
X134862008Y-103179042D01*
X134895323Y-103190147D01*
X134930351Y-103187658D01*
X134946828Y-103181352D01*
X135011508Y-103147769D01*
X135097772Y-103146748D01*
X135139413Y-103166781D01*
X135160004Y-103206441D01*
X135160039Y-103207670D01*
X135140650Y-103247974D01*
X135101649Y-103268224D01*
X135005522Y-103269361D01*
X135003549Y-103268704D01*
X134992049Y-103269521D01*
X134974735Y-103269726D01*
X134971746Y-103270963D01*
X134968521Y-103271193D01*
X134952044Y-103277499D01*
X134870507Y-103319832D01*
X134862008Y-103322666D01*
X134857469Y-103326602D01*
X134851399Y-103329754D01*
X134844004Y-103338279D01*
X134835479Y-103345674D01*
X134829885Y-103354560D01*
X134828391Y-103356283D01*
X134827929Y-103357666D01*
X134826080Y-103360605D01*
X134790135Y-103435321D01*
X134788890Y-103436567D01*
X134784885Y-103446234D01*
X134776918Y-103462796D01*
X134776688Y-103466021D01*
X134775451Y-103469010D01*
X134773722Y-103486568D01*
X134519071Y-103486568D01*
X134128932Y-103098236D01*
X134096395Y-103004181D01*
X134095523Y-102952116D01*
X134121090Y-102898973D01*
X134143285Y-102875774D01*
X134197059Y-102847854D01*
X134368837Y-102846573D01*
X134422744Y-102872507D01*
X134470863Y-102918543D01*
X134503307Y-102931981D01*
X134538423Y-102931981D01*
X134570867Y-102918543D01*
X134595697Y-102893713D01*
X134609135Y-102861269D01*
X134609135Y-102826153D01*
X134595697Y-102793709D01*
X134584505Y-102780071D01*
X134539411Y-102736929D01*
X134533188Y-102729754D01*
X134529453Y-102727403D01*
X134528010Y-102726022D01*
X134525815Y-102725113D01*
X134518257Y-102720355D01*
X134443540Y-102684410D01*
X134442295Y-102683165D01*
X134432627Y-102679160D01*
X134416066Y-102671193D01*
X134412840Y-102670963D01*
X134409852Y-102669726D01*
X134392294Y-102667997D01*
X134191632Y-102669493D01*
X134189264Y-102668704D01*
X134176573Y-102669605D01*
X134160450Y-102669726D01*
X134157461Y-102670963D01*
X134154236Y-102671193D01*
X134137759Y-102677499D01*
X134052235Y-102721902D01*
X134042293Y-102726021D01*
X134038829Y-102728863D01*
X134037114Y-102729754D01*
X134035558Y-102731547D01*
X134028655Y-102737213D01*
X133985508Y-102782310D01*
X133978336Y-102788531D01*
X133975987Y-102792262D01*
X133974604Y-102793708D01*
X133973693Y-102795905D01*
X133968937Y-102803462D01*
X133932992Y-102878178D01*
X133931747Y-102879424D01*
X133927742Y-102889091D01*
X133919775Y-102905653D01*
X133919545Y-102908878D01*
X133918308Y-102911867D01*
X133916579Y-102929425D01*
X130303000Y-102929425D01*
X130303000Y-101640649D01*
X131217286Y-101640649D01*
X131219775Y-101675677D01*
X131235479Y-101707085D01*
X131262008Y-101730093D01*
X131295323Y-101741198D01*
X131330351Y-101738709D01*
X131346828Y-101732403D01*
X131411407Y-101698873D01*
X131540404Y-101697692D01*
X131594172Y-101723558D01*
X131617373Y-101745755D01*
X131645269Y-101799484D01*
X131646620Y-102014063D01*
X131620637Y-102068072D01*
X131598444Y-102091269D01*
X131544605Y-102119222D01*
X131415609Y-102120403D01*
X131330351Y-102079387D01*
X131295323Y-102076898D01*
X131262008Y-102088003D01*
X131235479Y-102111011D01*
X131219775Y-102142419D01*
X131217286Y-102177447D01*
X131228391Y-102210762D01*
X131251399Y-102237291D01*
X131266330Y-102246689D01*
X131341046Y-102282634D01*
X131342292Y-102283880D01*
X131351962Y-102287885D01*
X131368521Y-102295852D01*
X131371746Y-102296081D01*
X131374735Y-102297319D01*
X131392293Y-102299048D01*
X131550249Y-102297602D01*
X131552464Y-102298341D01*
X131564713Y-102297470D01*
X131581279Y-102297319D01*
X131584267Y-102296081D01*
X131587492Y-102295852D01*
X131603970Y-102289547D01*
X131689496Y-102245140D01*
X131699439Y-102241023D01*
X131702901Y-102238181D01*
X131704616Y-102237291D01*
X131706172Y-102235496D01*
X131713076Y-102229830D01*
X131756217Y-102184736D01*
X131763393Y-102178513D01*
X131765742Y-102174779D01*
X131767126Y-102173334D01*
X131768036Y-102171135D01*
X131772791Y-102163582D01*
X131808736Y-102088865D01*
X131809982Y-102087620D01*
X131813987Y-102077949D01*
X131821954Y-102061391D01*
X131822183Y-102058165D01*
X131823421Y-102055177D01*
X131825150Y-102037619D01*
X131823960Y-101848633D01*
X132032594Y-101848633D01*
X132032594Y-101883749D01*
X132046033Y-101916192D01*
X132070864Y-101941023D01*
X132103307Y-101954462D01*
X132120865Y-101956191D01*
X132824137Y-101954462D01*
X132856580Y-101941023D01*
X132881411Y-101916192D01*
X132894850Y-101883749D01*
X132894850Y-101848633D01*
X132881411Y-101816190D01*
X132856580Y-101791359D01*
X132830307Y-101780476D01*
X133102293Y-101780476D01*
X133103825Y-102023887D01*
X133103000Y-102026363D01*
X133103922Y-102039343D01*
X133104022Y-102055177D01*
X133105259Y-102058165D01*
X133105489Y-102061391D01*
X133111795Y-102077869D01*
X133156200Y-102163392D01*
X133160318Y-102173334D01*
X133163161Y-102176798D01*
X133164052Y-102178514D01*
X133165847Y-102180070D01*
X133171511Y-102186972D01*
X133216602Y-102230112D01*
X133222828Y-102237291D01*
X133226561Y-102239640D01*
X133228006Y-102241023D01*
X133230202Y-102241932D01*
X133237759Y-102246689D01*
X133312475Y-102282634D01*
X133313721Y-102283880D01*
X133323391Y-102287885D01*
X133339950Y-102295852D01*
X133343175Y-102296081D01*
X133346164Y-102297319D01*
X133363722Y-102299048D01*
X133521680Y-102297602D01*
X133523895Y-102298341D01*
X133532162Y-102297753D01*
X133532594Y-102526606D01*
X133546033Y-102559049D01*
X133570864Y-102583880D01*
X133603307Y-102597319D01*
X133638423Y-102597319D01*
X133670866Y-102583880D01*
X133695697Y-102559049D01*
X133709136Y-102526606D01*
X133710865Y-102509048D01*
X133709252Y-101653390D01*
X133710158Y-101640649D01*
X133709223Y-101637845D01*
X133709136Y-101591490D01*
X133695697Y-101559047D01*
X133670866Y-101534216D01*
X133638423Y-101520777D01*
X133603307Y-101520777D01*
X133578008Y-101531256D01*
X133575484Y-101530211D01*
X133558923Y-101522244D01*
X133555697Y-101522014D01*
X133552709Y-101520777D01*
X133535151Y-101519048D01*
X133377192Y-101520493D01*
X133374978Y-101519755D01*
X133362727Y-101520625D01*
X133346164Y-101520777D01*
X133343175Y-101522014D01*
X133339950Y-101522244D01*
X133323473Y-101528550D01*
X133237943Y-101572956D01*
X133228006Y-101577073D01*
X133224544Y-101579913D01*
X133222828Y-101580805D01*
X133221271Y-101582599D01*
X133214368Y-101588265D01*
X133171227Y-101633357D01*
X133164052Y-101639581D01*
X133161701Y-101643314D01*
X133160319Y-101644760D01*
X133159409Y-101646956D01*
X133154653Y-101654512D01*
X133118707Y-101729228D01*
X133117461Y-101730475D01*
X133113454Y-101740146D01*
X133105489Y-101756704D01*
X133105259Y-101759929D01*
X133104022Y-101762918D01*
X133102293Y-101780476D01*
X132830307Y-101780476D01*
X132824137Y-101777920D01*
X132806579Y-101776191D01*
X132103307Y-101777920D01*
X132070864Y-101791359D01*
X132046033Y-101816190D01*
X132032594Y-101848633D01*
X131823960Y-101848633D01*
X131823617Y-101794207D01*
X131824443Y-101791732D01*
X131823520Y-101778751D01*
X131823421Y-101762918D01*
X131822183Y-101759929D01*
X131821954Y-101756704D01*
X131815648Y-101740227D01*
X131771241Y-101654697D01*
X131767125Y-101644760D01*
X131764284Y-101641298D01*
X131763393Y-101639582D01*
X131761598Y-101638025D01*
X131755933Y-101631122D01*
X131710839Y-101587980D01*
X131704616Y-101580805D01*
X131700881Y-101578454D01*
X131699438Y-101577073D01*
X131697243Y-101576164D01*
X131689685Y-101571406D01*
X131614967Y-101535461D01*
X131613722Y-101534216D01*
X131604049Y-101530209D01*
X131587492Y-101522244D01*
X131584267Y-101522014D01*
X131581279Y-101520777D01*
X131563721Y-101519048D01*
X131405763Y-101520493D01*
X131403549Y-101519755D01*
X131391298Y-101520625D01*
X131374735Y-101520777D01*
X131371746Y-101522014D01*
X131368521Y-101522244D01*
X131352044Y-101528550D01*
X131251399Y-101580805D01*
X131228391Y-101607334D01*
X131217286Y-101640649D01*
X130303000Y-101640649D01*
X130303000Y-101480476D01*
X133916579Y-101480476D01*
X133918027Y-101567001D01*
X133917285Y-101577448D01*
X133918275Y-101581802D01*
X133918308Y-101583749D01*
X133919217Y-101585945D01*
X133921198Y-101594651D01*
X133961166Y-101710190D01*
X133961166Y-101712320D01*
X133965634Y-101723109D01*
X133971247Y-101739333D01*
X133973366Y-101741777D01*
X133974604Y-101744764D01*
X133985796Y-101758402D01*
X134348770Y-102119694D01*
X133989021Y-102120777D01*
X133956578Y-102134216D01*
X133931747Y-102159047D01*
X133918308Y-102191490D01*
X133918308Y-102226606D01*
X133931747Y-102259049D01*
X133956578Y-102283880D01*
X133989021Y-102297319D01*
X134006579Y-102299048D01*
X134581280Y-102297319D01*
X134613723Y-102283880D01*
X134638554Y-102259049D01*
X134651993Y-102226606D01*
X134651993Y-102191490D01*
X134638554Y-102159047D01*
X134638554Y-102159046D01*
X134627361Y-102145408D01*
X134519071Y-102037619D01*
X134773722Y-102037619D01*
X134774610Y-102068673D01*
X134774429Y-102069219D01*
X134774759Y-102073869D01*
X134775451Y-102098034D01*
X134776688Y-102101022D01*
X134776918Y-102104247D01*
X134783223Y-102120725D01*
X134825557Y-102202262D01*
X134828391Y-102210762D01*
X134832327Y-102215300D01*
X134835479Y-102221371D01*
X134844004Y-102228765D01*
X134851399Y-102237291D01*
X134860282Y-102242882D01*
X134862008Y-102244379D01*
X134863394Y-102244841D01*
X134866330Y-102246689D01*
X134941046Y-102282634D01*
X134942292Y-102283880D01*
X134951962Y-102287885D01*
X134968521Y-102295852D01*
X134971746Y-102296081D01*
X134974735Y-102297319D01*
X134992293Y-102299048D01*
X135150251Y-102297602D01*
X135152466Y-102298341D01*
X135164716Y-102297470D01*
X135181280Y-102297319D01*
X135184268Y-102296081D01*
X135187494Y-102295852D01*
X135203971Y-102289546D01*
X135304616Y-102237291D01*
X135327624Y-102210762D01*
X135338729Y-102177447D01*
X135336240Y-102142419D01*
X135320536Y-102111011D01*
X135294007Y-102088003D01*
X135260692Y-102076898D01*
X135225664Y-102079387D01*
X135209187Y-102085693D01*
X135144607Y-102119222D01*
X135015609Y-102120403D01*
X134973745Y-102100263D01*
X134953153Y-102060602D01*
X134953118Y-102059372D01*
X134972506Y-102019070D01*
X135011508Y-101998820D01*
X135107635Y-101997683D01*
X135109609Y-101998341D01*
X135121108Y-101997523D01*
X135138423Y-101997319D01*
X135141411Y-101996081D01*
X135144637Y-101995852D01*
X135161114Y-101989546D01*
X135242649Y-101947212D01*
X135251150Y-101944379D01*
X135255688Y-101940442D01*
X135261759Y-101937291D01*
X135269153Y-101928765D01*
X135277679Y-101921371D01*
X135283272Y-101912484D01*
X135284767Y-101910762D01*
X135285228Y-101909378D01*
X135287078Y-101906440D01*
X135294270Y-101891490D01*
X135461165Y-101891490D01*
X135461165Y-101926606D01*
X135474604Y-101959049D01*
X135499435Y-101983880D01*
X135531878Y-101997319D01*
X135549436Y-101999048D01*
X135589099Y-101998928D01*
X135589737Y-102226606D01*
X135603176Y-102259049D01*
X135628007Y-102283880D01*
X135660450Y-102297319D01*
X135695566Y-102297319D01*
X135728009Y-102283880D01*
X135752840Y-102259049D01*
X135766279Y-102226606D01*
X135768008Y-102209048D01*
X135767839Y-102148634D01*
X136361166Y-102148634D01*
X136361166Y-102183750D01*
X136374604Y-102216194D01*
X136374608Y-102216198D01*
X136385796Y-102229831D01*
X136442291Y-102283880D01*
X136450394Y-102287236D01*
X136474735Y-102297319D01*
X136509851Y-102297319D01*
X136534192Y-102287236D01*
X136542295Y-102283880D01*
X136555933Y-102272688D01*
X136609959Y-102216216D01*
X136609982Y-102216194D01*
X136623420Y-102183750D01*
X136623421Y-102148634D01*
X136609983Y-102116190D01*
X136598791Y-102102552D01*
X136542296Y-102048501D01*
X136518655Y-102038709D01*
X136509851Y-102035062D01*
X136474735Y-102035062D01*
X136459922Y-102041198D01*
X136455731Y-102042934D01*
X136442292Y-102048500D01*
X136442291Y-102048501D01*
X136428653Y-102059694D01*
X136374603Y-102116190D01*
X136368528Y-102130859D01*
X136363740Y-102142420D01*
X136361166Y-102148634D01*
X135767839Y-102148634D01*
X135767418Y-101998392D01*
X136104285Y-101997378D01*
X136117836Y-101998342D01*
X136120875Y-101997328D01*
X136124137Y-101997319D01*
X136137456Y-101991801D01*
X136151150Y-101987237D01*
X136153594Y-101985116D01*
X136156580Y-101983880D01*
X136166777Y-101973682D01*
X136177678Y-101964228D01*
X136179124Y-101961335D01*
X136181411Y-101959049D01*
X136186932Y-101945719D01*
X136193383Y-101932819D01*
X136193612Y-101929594D01*
X136194850Y-101926606D01*
X136194850Y-101912182D01*
X136195873Y-101897791D01*
X136194850Y-101893292D01*
X136194850Y-101891490D01*
X136193941Y-101889296D01*
X136191961Y-101880588D01*
X136123604Y-101677204D01*
X136361166Y-101677204D01*
X136361166Y-101712320D01*
X136374604Y-101744764D01*
X136385796Y-101758402D01*
X136442291Y-101812451D01*
X136450394Y-101815807D01*
X136474735Y-101825890D01*
X136509851Y-101825890D01*
X136534192Y-101815807D01*
X136542295Y-101812451D01*
X136555933Y-101801259D01*
X136609982Y-101744764D01*
X136623420Y-101712320D01*
X136623420Y-101677204D01*
X136609982Y-101644760D01*
X136598790Y-101631122D01*
X136542295Y-101577073D01*
X136524661Y-101569769D01*
X136509851Y-101563634D01*
X136474735Y-101563634D01*
X136459925Y-101569769D01*
X136442291Y-101577073D01*
X136428653Y-101588265D01*
X136374604Y-101644760D01*
X136361166Y-101677204D01*
X136123604Y-101677204D01*
X136022774Y-101377204D01*
X136789737Y-101377204D01*
X136789737Y-101412320D01*
X136803175Y-101444764D01*
X136828005Y-101469594D01*
X136860449Y-101483032D01*
X136895565Y-101483032D01*
X136928009Y-101469594D01*
X136941647Y-101458402D01*
X136968042Y-101430811D01*
X137060394Y-101398864D01*
X137117533Y-101397907D01*
X137213599Y-101428729D01*
X137274026Y-101487669D01*
X137306082Y-101549409D01*
X137345214Y-101700221D01*
X137346479Y-101807147D01*
X137310263Y-101957693D01*
X137277933Y-102024898D01*
X137217357Y-102087002D01*
X137124191Y-102119231D01*
X137067053Y-102120188D01*
X136970590Y-102089239D01*
X136928010Y-102048501D01*
X136895566Y-102035063D01*
X136860450Y-102035063D01*
X136828006Y-102048500D01*
X136803175Y-102073330D01*
X136789737Y-102105774D01*
X136789737Y-102140890D01*
X136803174Y-102173334D01*
X136814367Y-102186972D01*
X136849254Y-102220350D01*
X136849765Y-102221371D01*
X136855720Y-102226536D01*
X136870862Y-102241023D01*
X136873849Y-102242260D01*
X136876293Y-102244380D01*
X136892404Y-102251573D01*
X137021184Y-102292889D01*
X137031878Y-102297319D01*
X137036370Y-102297761D01*
X137038180Y-102298342D01*
X137040553Y-102298173D01*
X137049436Y-102299048D01*
X137135960Y-102297599D01*
X137146407Y-102298342D01*
X137150761Y-102297351D01*
X137152708Y-102297319D01*
X137154904Y-102296409D01*
X137163610Y-102294429D01*
X137279150Y-102254461D01*
X137281279Y-102254461D01*
X137292068Y-102249992D01*
X137308292Y-102244380D01*
X137310736Y-102242260D01*
X137313723Y-102241023D01*
X137327361Y-102229831D01*
X137411978Y-102143077D01*
X137420536Y-102135656D01*
X137422934Y-102131844D01*
X137424268Y-102130478D01*
X137425177Y-102128281D01*
X137429934Y-102120725D01*
X137469019Y-102039480D01*
X137473670Y-102033205D01*
X137478376Y-102020032D01*
X137479097Y-102018534D01*
X137479143Y-102017885D01*
X137479606Y-102016590D01*
X137519727Y-101849806D01*
X137523421Y-101840891D01*
X137524494Y-101829994D01*
X137525044Y-101827708D01*
X137524848Y-101826394D01*
X137525150Y-101823333D01*
X137523685Y-101699518D01*
X137525044Y-101690387D01*
X137523449Y-101679604D01*
X137523421Y-101677204D01*
X137522913Y-101675978D01*
X137522463Y-101672934D01*
X137479708Y-101508160D01*
X137479097Y-101499561D01*
X137474065Y-101486414D01*
X137473670Y-101484890D01*
X137473281Y-101484365D01*
X137472791Y-101483084D01*
X137428384Y-101397554D01*
X137424268Y-101387617D01*
X137421427Y-101384155D01*
X137420536Y-101382439D01*
X137418741Y-101380882D01*
X137413076Y-101373979D01*
X137335723Y-101298531D01*
X137334820Y-101296725D01*
X137326253Y-101289294D01*
X137313722Y-101277072D01*
X137310734Y-101275834D01*
X137308292Y-101273716D01*
X137292182Y-101266524D01*
X137163399Y-101225205D01*
X137152708Y-101220777D01*
X137148217Y-101220334D01*
X137146407Y-101219754D01*
X137144033Y-101219922D01*
X137135150Y-101219048D01*
X137048626Y-101220496D01*
X137038180Y-101219754D01*
X137033824Y-101220744D01*
X137031878Y-101220777D01*
X137029683Y-101221685D01*
X137020976Y-101223666D01*
X136905435Y-101263635D01*
X136903306Y-101263635D01*
X136892517Y-101268103D01*
X136876293Y-101273716D01*
X136873848Y-101275835D01*
X136870862Y-101277073D01*
X136857224Y-101288265D01*
X136803175Y-101344760D01*
X136789737Y-101377204D01*
X136022774Y-101377204D01*
X135970482Y-101221620D01*
X135947473Y-101195092D01*
X135916064Y-101179387D01*
X135881036Y-101176897D01*
X135847722Y-101188002D01*
X135821194Y-101211011D01*
X135805489Y-101242420D01*
X135802999Y-101277448D01*
X135806912Y-101294652D01*
X135983285Y-101819418D01*
X135766918Y-101820069D01*
X135766279Y-101591490D01*
X135752840Y-101559047D01*
X135728009Y-101534216D01*
X135695566Y-101520777D01*
X135660450Y-101520777D01*
X135628007Y-101534216D01*
X135603176Y-101559047D01*
X135589737Y-101591490D01*
X135588008Y-101609048D01*
X135588600Y-101820606D01*
X135531878Y-101820777D01*
X135499435Y-101834216D01*
X135474604Y-101859047D01*
X135461165Y-101891490D01*
X135294270Y-101891490D01*
X135323022Y-101831722D01*
X135324268Y-101830477D01*
X135328274Y-101820804D01*
X135336240Y-101804247D01*
X135336469Y-101801022D01*
X135337707Y-101798034D01*
X135339436Y-101780476D01*
X135338547Y-101749420D01*
X135338729Y-101748875D01*
X135338398Y-101744224D01*
X135337707Y-101720061D01*
X135336469Y-101717072D01*
X135336240Y-101713847D01*
X135329934Y-101697370D01*
X135287600Y-101615833D01*
X135284767Y-101607334D01*
X135280830Y-101602795D01*
X135277679Y-101596725D01*
X135269153Y-101589330D01*
X135261759Y-101580805D01*
X135252872Y-101575211D01*
X135251150Y-101573717D01*
X135249766Y-101573255D01*
X135246828Y-101571406D01*
X135172111Y-101535461D01*
X135170866Y-101534216D01*
X135161198Y-101530211D01*
X135144637Y-101522244D01*
X135141411Y-101522014D01*
X135138423Y-101520777D01*
X135120865Y-101519048D01*
X135005522Y-101520412D01*
X135003549Y-101519755D01*
X134992049Y-101520572D01*
X134974735Y-101520777D01*
X134971746Y-101522014D01*
X134968521Y-101522244D01*
X134952044Y-101528550D01*
X134851399Y-101580805D01*
X134828391Y-101607334D01*
X134817286Y-101640649D01*
X134819775Y-101675677D01*
X134835479Y-101707085D01*
X134862008Y-101730093D01*
X134895323Y-101741198D01*
X134930351Y-101738709D01*
X134946828Y-101732403D01*
X135011508Y-101698820D01*
X135097772Y-101697799D01*
X135139413Y-101717832D01*
X135160004Y-101757492D01*
X135160039Y-101758721D01*
X135140650Y-101799025D01*
X135101649Y-101819275D01*
X135005522Y-101820412D01*
X135003549Y-101819755D01*
X134992049Y-101820572D01*
X134974735Y-101820777D01*
X134971746Y-101822014D01*
X134968521Y-101822244D01*
X134952044Y-101828550D01*
X134870507Y-101870883D01*
X134862008Y-101873717D01*
X134857469Y-101877653D01*
X134851399Y-101880805D01*
X134844004Y-101889330D01*
X134835479Y-101896725D01*
X134829885Y-101905611D01*
X134828391Y-101907334D01*
X134827929Y-101908717D01*
X134826080Y-101911656D01*
X134790135Y-101986372D01*
X134788890Y-101987618D01*
X134784885Y-101997285D01*
X134776918Y-102013847D01*
X134776688Y-102017072D01*
X134775451Y-102020061D01*
X134773722Y-102037619D01*
X134519071Y-102037619D01*
X134128932Y-101649287D01*
X134096395Y-101555232D01*
X134095523Y-101503167D01*
X134121090Y-101450024D01*
X134143285Y-101426825D01*
X134197059Y-101398905D01*
X134368837Y-101397624D01*
X134422744Y-101423558D01*
X134470863Y-101469594D01*
X134503307Y-101483032D01*
X134538423Y-101483032D01*
X134570867Y-101469594D01*
X134595697Y-101444764D01*
X134609135Y-101412320D01*
X134609135Y-101377204D01*
X134595697Y-101344760D01*
X134584505Y-101331122D01*
X134539411Y-101287980D01*
X134533188Y-101280805D01*
X134529453Y-101278454D01*
X134528010Y-101277073D01*
X134525815Y-101276164D01*
X134518257Y-101271406D01*
X134443540Y-101235461D01*
X134442295Y-101234216D01*
X134432627Y-101230211D01*
X134416066Y-101222244D01*
X134412840Y-101222014D01*
X134409852Y-101220777D01*
X134392294Y-101219048D01*
X134191632Y-101220544D01*
X134189264Y-101219755D01*
X134176573Y-101220656D01*
X134160450Y-101220777D01*
X134157461Y-101222014D01*
X134154236Y-101222244D01*
X134137759Y-101228550D01*
X134052235Y-101272953D01*
X134042293Y-101277072D01*
X134038829Y-101279914D01*
X134037114Y-101280805D01*
X134035558Y-101282598D01*
X134028655Y-101288264D01*
X133985508Y-101333361D01*
X133978336Y-101339582D01*
X133975987Y-101343313D01*
X133974604Y-101344759D01*
X133973693Y-101346956D01*
X133968937Y-101354513D01*
X133932992Y-101429229D01*
X133931747Y-101430475D01*
X133927742Y-101440142D01*
X133919775Y-101456704D01*
X133919545Y-101459929D01*
X133918308Y-101462918D01*
X133916579Y-101480476D01*
X130303000Y-101480476D01*
X130303000Y-100191700D01*
X130403000Y-100191700D01*
X130405489Y-100226728D01*
X130421193Y-100258136D01*
X130447722Y-100281144D01*
X130481037Y-100292249D01*
X130516065Y-100289760D01*
X130532542Y-100283454D01*
X130597121Y-100249924D01*
X130726118Y-100248743D01*
X130779886Y-100274609D01*
X130803087Y-100296806D01*
X130830983Y-100350535D01*
X130832334Y-100565114D01*
X130806351Y-100619123D01*
X130784158Y-100642320D01*
X130730319Y-100670273D01*
X130601323Y-100671454D01*
X130516065Y-100630438D01*
X130481037Y-100627949D01*
X130447722Y-100639054D01*
X130421193Y-100662062D01*
X130405489Y-100693470D01*
X130403000Y-100728498D01*
X130414105Y-100761813D01*
X130437113Y-100788342D01*
X130452044Y-100797740D01*
X130526760Y-100833685D01*
X130528006Y-100834931D01*
X130537676Y-100838936D01*
X130554235Y-100846903D01*
X130557460Y-100847132D01*
X130560449Y-100848370D01*
X130578007Y-100850099D01*
X130735963Y-100848653D01*
X130738178Y-100849392D01*
X130750427Y-100848521D01*
X130766993Y-100848370D01*
X130769981Y-100847132D01*
X130773206Y-100846903D01*
X130789684Y-100840598D01*
X130875210Y-100796191D01*
X130885153Y-100792074D01*
X130888615Y-100789232D01*
X130890330Y-100788342D01*
X130891886Y-100786547D01*
X130898790Y-100780881D01*
X130941931Y-100735787D01*
X130949107Y-100729564D01*
X130951456Y-100725830D01*
X130952840Y-100724385D01*
X130953750Y-100722186D01*
X130958505Y-100714633D01*
X130994450Y-100639916D01*
X130995696Y-100638671D01*
X130999701Y-100629000D01*
X131007668Y-100612442D01*
X131007897Y-100609216D01*
X131009135Y-100606228D01*
X131010864Y-100588670D01*
X131009331Y-100345258D01*
X131010157Y-100342783D01*
X131009234Y-100329802D01*
X131009135Y-100313969D01*
X131007897Y-100310980D01*
X131007668Y-100307755D01*
X131001362Y-100291278D01*
X130956955Y-100205748D01*
X130952839Y-100195811D01*
X130949998Y-100192349D01*
X130949107Y-100190633D01*
X130947312Y-100189076D01*
X130941647Y-100182173D01*
X130918574Y-100160099D01*
X131216579Y-100160099D01*
X131218308Y-100777657D01*
X131231747Y-100810100D01*
X131256578Y-100834931D01*
X131289021Y-100848370D01*
X131324137Y-100848370D01*
X131356580Y-100834931D01*
X131366296Y-100825214D01*
X131383903Y-100833685D01*
X131385149Y-100834931D01*
X131394819Y-100838936D01*
X131411378Y-100846903D01*
X131414603Y-100847132D01*
X131417592Y-100848370D01*
X131435150Y-100850099D01*
X131550490Y-100848734D01*
X131552464Y-100849392D01*
X131563963Y-100848574D01*
X131581279Y-100848370D01*
X131584267Y-100847132D01*
X131587492Y-100846903D01*
X131603970Y-100840598D01*
X131685507Y-100798263D01*
X131694007Y-100795430D01*
X131698545Y-100791493D01*
X131704616Y-100788342D01*
X131712010Y-100779816D01*
X131720536Y-100772422D01*
X131726129Y-100763535D01*
X131727624Y-100761813D01*
X131728085Y-100760429D01*
X131729935Y-100757491D01*
X131765879Y-100682773D01*
X131767125Y-100681528D01*
X131771131Y-100671855D01*
X131779097Y-100655298D01*
X131779326Y-100652073D01*
X131780564Y-100649085D01*
X131782293Y-100631527D01*
X131781473Y-100399684D01*
X132032594Y-100399684D01*
X132032594Y-100434800D01*
X132046033Y-100467243D01*
X132070864Y-100492074D01*
X132103307Y-100505513D01*
X132120865Y-100507242D01*
X132824137Y-100505513D01*
X132856580Y-100492074D01*
X132881411Y-100467243D01*
X132894850Y-100434800D01*
X132894850Y-100399684D01*
X132881411Y-100367241D01*
X132856580Y-100342410D01*
X132830307Y-100331527D01*
X133102293Y-100331527D01*
X133103825Y-100574938D01*
X133103000Y-100577414D01*
X133103922Y-100590394D01*
X133104022Y-100606228D01*
X133105259Y-100609216D01*
X133105489Y-100612442D01*
X133111795Y-100628920D01*
X133156200Y-100714443D01*
X133160318Y-100724385D01*
X133163161Y-100727849D01*
X133164052Y-100729565D01*
X133165847Y-100731121D01*
X133171511Y-100738023D01*
X133216602Y-100781163D01*
X133222828Y-100788342D01*
X133226561Y-100790691D01*
X133228006Y-100792074D01*
X133230202Y-100792983D01*
X133237759Y-100797740D01*
X133312475Y-100833685D01*
X133313721Y-100834931D01*
X133323391Y-100838936D01*
X133339950Y-100846903D01*
X133343175Y-100847132D01*
X133346164Y-100848370D01*
X133363722Y-100850099D01*
X133521680Y-100848653D01*
X133523895Y-100849392D01*
X133532162Y-100848804D01*
X133532594Y-101077657D01*
X133546033Y-101110100D01*
X133570864Y-101134931D01*
X133603307Y-101148370D01*
X133638423Y-101148370D01*
X133670866Y-101134931D01*
X133695697Y-101110100D01*
X133709136Y-101077657D01*
X133710865Y-101060099D01*
X133709701Y-100442541D01*
X133875451Y-100442541D01*
X133875451Y-100477657D01*
X133888890Y-100510100D01*
X133913721Y-100534931D01*
X133946164Y-100548370D01*
X133963722Y-100550099D01*
X134003385Y-100549979D01*
X134004023Y-100777657D01*
X134017462Y-100810100D01*
X134042293Y-100834931D01*
X134074736Y-100848370D01*
X134109852Y-100848370D01*
X134142295Y-100834931D01*
X134167126Y-100810100D01*
X134180565Y-100777657D01*
X134182294Y-100760099D01*
X134181814Y-100588670D01*
X134773722Y-100588670D01*
X134774610Y-100619724D01*
X134774429Y-100620270D01*
X134774759Y-100624920D01*
X134775451Y-100649085D01*
X134776688Y-100652073D01*
X134776918Y-100655298D01*
X134783223Y-100671776D01*
X134825557Y-100753313D01*
X134828391Y-100761813D01*
X134832327Y-100766351D01*
X134835479Y-100772422D01*
X134844004Y-100779816D01*
X134851399Y-100788342D01*
X134860282Y-100793933D01*
X134862008Y-100795430D01*
X134863394Y-100795892D01*
X134866330Y-100797740D01*
X134941046Y-100833685D01*
X134942292Y-100834931D01*
X134951962Y-100838936D01*
X134968521Y-100846903D01*
X134971746Y-100847132D01*
X134974735Y-100848370D01*
X134992293Y-100850099D01*
X135150251Y-100848653D01*
X135152466Y-100849392D01*
X135164716Y-100848521D01*
X135181280Y-100848370D01*
X135184268Y-100847132D01*
X135187494Y-100846903D01*
X135203971Y-100840597D01*
X135304616Y-100788342D01*
X135327624Y-100761813D01*
X135338729Y-100728498D01*
X135336240Y-100693470D01*
X135320536Y-100662062D01*
X135294007Y-100639054D01*
X135260692Y-100627949D01*
X135225664Y-100630438D01*
X135209187Y-100636744D01*
X135144607Y-100670273D01*
X135015609Y-100671454D01*
X134973745Y-100651314D01*
X134953153Y-100611653D01*
X134953118Y-100610423D01*
X134972506Y-100570121D01*
X135011508Y-100549871D01*
X135107635Y-100548734D01*
X135109609Y-100549392D01*
X135121108Y-100548574D01*
X135138423Y-100548370D01*
X135141411Y-100547132D01*
X135144637Y-100546903D01*
X135161114Y-100540597D01*
X135242649Y-100498263D01*
X135251150Y-100495430D01*
X135255688Y-100491493D01*
X135261759Y-100488342D01*
X135269153Y-100479816D01*
X135277679Y-100472422D01*
X135283272Y-100463535D01*
X135284767Y-100461813D01*
X135285228Y-100460429D01*
X135287078Y-100457491D01*
X135323022Y-100382773D01*
X135324268Y-100381528D01*
X135328274Y-100371855D01*
X135336240Y-100355298D01*
X135336469Y-100352073D01*
X135337707Y-100349085D01*
X135339436Y-100331527D01*
X135338547Y-100300471D01*
X135338729Y-100299926D01*
X135338398Y-100295275D01*
X135337707Y-100271112D01*
X135336469Y-100268123D01*
X135336240Y-100264898D01*
X135329934Y-100248421D01*
X135287600Y-100166884D01*
X135284767Y-100158385D01*
X135280830Y-100153846D01*
X135277679Y-100147776D01*
X135269153Y-100140381D01*
X135261759Y-100131856D01*
X135252872Y-100126262D01*
X135251150Y-100124768D01*
X135249766Y-100124306D01*
X135246828Y-100122457D01*
X135172111Y-100086512D01*
X135170866Y-100085267D01*
X135161198Y-100081262D01*
X135144637Y-100073295D01*
X135141411Y-100073065D01*
X135138423Y-100071828D01*
X135120865Y-100070099D01*
X135005522Y-100071463D01*
X135003549Y-100070806D01*
X134992049Y-100071623D01*
X134974735Y-100071828D01*
X134971746Y-100073065D01*
X134968521Y-100073295D01*
X134952044Y-100079601D01*
X134851399Y-100131856D01*
X134828391Y-100158385D01*
X134817286Y-100191700D01*
X134819775Y-100226728D01*
X134835479Y-100258136D01*
X134862008Y-100281144D01*
X134895323Y-100292249D01*
X134930351Y-100289760D01*
X134946828Y-100283454D01*
X135011508Y-100249871D01*
X135097772Y-100248850D01*
X135139413Y-100268883D01*
X135160004Y-100308543D01*
X135160039Y-100309772D01*
X135140650Y-100350076D01*
X135101649Y-100370326D01*
X135005522Y-100371463D01*
X135003549Y-100370806D01*
X134992049Y-100371623D01*
X134974735Y-100371828D01*
X134971746Y-100373065D01*
X134968521Y-100373295D01*
X134952044Y-100379601D01*
X134870507Y-100421934D01*
X134862008Y-100424768D01*
X134857469Y-100428704D01*
X134851399Y-100431856D01*
X134844004Y-100440381D01*
X134835479Y-100447776D01*
X134829885Y-100456662D01*
X134828391Y-100458385D01*
X134827929Y-100459768D01*
X134826080Y-100462707D01*
X134790135Y-100537423D01*
X134788890Y-100538669D01*
X134784885Y-100548336D01*
X134776918Y-100564898D01*
X134776688Y-100568123D01*
X134775451Y-100571112D01*
X134773722Y-100588670D01*
X134181814Y-100588670D01*
X134181704Y-100549443D01*
X134518571Y-100548429D01*
X134532122Y-100549393D01*
X134535161Y-100548379D01*
X134538423Y-100548370D01*
X134551742Y-100542852D01*
X134565436Y-100538288D01*
X134567880Y-100536167D01*
X134570866Y-100534931D01*
X134581063Y-100524733D01*
X134591964Y-100515279D01*
X134593410Y-100512386D01*
X134595697Y-100510100D01*
X134601218Y-100496770D01*
X134607669Y-100483870D01*
X134607898Y-100480645D01*
X134609136Y-100477657D01*
X134609136Y-100463233D01*
X134610159Y-100448842D01*
X134609136Y-100444343D01*
X134609136Y-100442541D01*
X134608227Y-100440347D01*
X134606247Y-100431639D01*
X134471769Y-100031527D01*
X135502293Y-100031527D01*
X135503741Y-100118052D01*
X135502999Y-100128499D01*
X135503989Y-100132853D01*
X135504022Y-100134800D01*
X135504931Y-100136996D01*
X135506912Y-100145702D01*
X135546880Y-100261241D01*
X135546880Y-100263371D01*
X135551348Y-100274160D01*
X135556961Y-100290384D01*
X135559080Y-100292828D01*
X135560318Y-100295815D01*
X135571510Y-100309453D01*
X135934484Y-100670745D01*
X135574735Y-100671828D01*
X135542292Y-100685267D01*
X135517461Y-100710098D01*
X135504022Y-100742541D01*
X135504022Y-100777657D01*
X135517461Y-100810100D01*
X135542292Y-100834931D01*
X135574735Y-100848370D01*
X135592293Y-100850099D01*
X136166994Y-100848370D01*
X136199437Y-100834931D01*
X136224268Y-100810100D01*
X136237707Y-100777657D01*
X136237707Y-100742541D01*
X136224268Y-100710098D01*
X136224268Y-100710097D01*
X136215723Y-100699685D01*
X136361166Y-100699685D01*
X136361166Y-100734801D01*
X136374604Y-100767245D01*
X136374608Y-100767249D01*
X136385796Y-100780882D01*
X136442291Y-100834931D01*
X136450394Y-100838287D01*
X136474735Y-100848370D01*
X136509851Y-100848370D01*
X136534192Y-100838287D01*
X136542295Y-100834931D01*
X136555933Y-100823739D01*
X136609959Y-100767267D01*
X136609982Y-100767245D01*
X136623420Y-100734801D01*
X136623421Y-100699685D01*
X136609983Y-100667241D01*
X136598791Y-100653603D01*
X136542296Y-100599552D01*
X136518655Y-100589760D01*
X136509851Y-100586113D01*
X136474735Y-100586113D01*
X136459922Y-100592249D01*
X136455731Y-100593985D01*
X136442292Y-100599551D01*
X136442291Y-100599552D01*
X136428653Y-100610745D01*
X136374603Y-100667241D01*
X136368686Y-100681528D01*
X136363740Y-100693471D01*
X136361166Y-100699685D01*
X136215723Y-100699685D01*
X136213075Y-100696459D01*
X135975615Y-100460099D01*
X136788007Y-100460099D01*
X136789371Y-100575440D01*
X136788714Y-100577414D01*
X136789531Y-100588913D01*
X136789736Y-100606228D01*
X136790973Y-100609216D01*
X136791203Y-100612442D01*
X136797509Y-100628919D01*
X136841914Y-100714445D01*
X136846031Y-100724385D01*
X136848872Y-100727847D01*
X136849764Y-100729564D01*
X136851559Y-100731121D01*
X136857224Y-100738023D01*
X136902315Y-100781163D01*
X136908541Y-100788342D01*
X136912275Y-100790692D01*
X136913719Y-100792074D01*
X136915913Y-100792982D01*
X136923472Y-100797741D01*
X136998189Y-100833685D01*
X136999435Y-100834931D01*
X137009107Y-100838937D01*
X137025665Y-100846903D01*
X137028889Y-100847132D01*
X137031878Y-100848370D01*
X137049436Y-100850099D01*
X137409851Y-100848370D01*
X137442294Y-100834931D01*
X137467125Y-100810100D01*
X137480564Y-100777657D01*
X137482293Y-100760099D01*
X137480564Y-99842541D01*
X137467125Y-99810098D01*
X137442294Y-99785267D01*
X137409851Y-99771828D01*
X137392293Y-99770099D01*
X137106102Y-99771657D01*
X137103549Y-99770806D01*
X137090363Y-99771742D01*
X137074735Y-99771828D01*
X137071746Y-99773065D01*
X137068521Y-99773295D01*
X137052044Y-99779601D01*
X136966520Y-99824004D01*
X136956578Y-99828123D01*
X136953114Y-99830965D01*
X136951399Y-99831856D01*
X136949843Y-99833649D01*
X136942940Y-99839315D01*
X136899793Y-99884412D01*
X136892621Y-99890633D01*
X136890272Y-99894364D01*
X136888889Y-99895810D01*
X136887978Y-99898007D01*
X136883222Y-99905564D01*
X136847277Y-99980280D01*
X136846032Y-99981526D01*
X136842027Y-99991193D01*
X136834060Y-100007755D01*
X136833830Y-100010980D01*
X136832593Y-100013969D01*
X136830864Y-100031527D01*
X136832084Y-100104444D01*
X136831571Y-100105986D01*
X136832276Y-100115920D01*
X136832593Y-100134800D01*
X136833830Y-100137788D01*
X136834060Y-100141014D01*
X136840366Y-100157491D01*
X136884770Y-100243016D01*
X136888889Y-100252959D01*
X136891730Y-100256421D01*
X136892621Y-100258136D01*
X136894415Y-100259692D01*
X136900082Y-100266596D01*
X136900807Y-100267290D01*
X136900081Y-100267887D01*
X136856939Y-100312980D01*
X136849764Y-100319204D01*
X136847413Y-100322938D01*
X136846032Y-100324382D01*
X136845123Y-100326576D01*
X136840365Y-100334135D01*
X136804420Y-100408852D01*
X136803175Y-100410098D01*
X136799168Y-100419770D01*
X136791203Y-100436328D01*
X136790973Y-100439552D01*
X136789736Y-100442541D01*
X136788007Y-100460099D01*
X135975615Y-100460099D01*
X135742693Y-100228255D01*
X136361166Y-100228255D01*
X136361166Y-100263371D01*
X136374604Y-100295815D01*
X136385796Y-100309453D01*
X136442291Y-100363502D01*
X136450394Y-100366858D01*
X136474735Y-100376941D01*
X136509851Y-100376941D01*
X136534192Y-100366858D01*
X136542295Y-100363502D01*
X136555933Y-100352310D01*
X136609982Y-100295815D01*
X136623420Y-100263371D01*
X136623420Y-100228255D01*
X136609982Y-100195811D01*
X136598790Y-100182173D01*
X136542295Y-100128124D01*
X136524661Y-100120820D01*
X136509851Y-100114685D01*
X136474735Y-100114685D01*
X136459925Y-100120820D01*
X136442291Y-100128124D01*
X136428653Y-100139316D01*
X136374604Y-100195811D01*
X136361166Y-100228255D01*
X135742693Y-100228255D01*
X135714646Y-100200338D01*
X135682109Y-100106283D01*
X135681237Y-100054218D01*
X135706804Y-100001075D01*
X135728999Y-99977876D01*
X135782773Y-99949956D01*
X135954551Y-99948675D01*
X136008458Y-99974609D01*
X136056577Y-100020645D01*
X136089021Y-100034083D01*
X136124137Y-100034083D01*
X136156581Y-100020645D01*
X136181411Y-99995815D01*
X136194849Y-99963371D01*
X136194849Y-99928255D01*
X136181411Y-99895811D01*
X136170219Y-99882173D01*
X136125125Y-99839031D01*
X136118902Y-99831856D01*
X136115167Y-99829505D01*
X136113724Y-99828124D01*
X136111529Y-99827215D01*
X136103971Y-99822457D01*
X136029254Y-99786512D01*
X136028009Y-99785267D01*
X136018341Y-99781262D01*
X136001780Y-99773295D01*
X135998554Y-99773065D01*
X135995566Y-99771828D01*
X135978008Y-99770099D01*
X135777346Y-99771595D01*
X135774978Y-99770806D01*
X135762287Y-99771707D01*
X135746164Y-99771828D01*
X135743175Y-99773065D01*
X135739950Y-99773295D01*
X135723473Y-99779601D01*
X135637949Y-99824004D01*
X135628007Y-99828123D01*
X135624543Y-99830965D01*
X135622828Y-99831856D01*
X135621272Y-99833649D01*
X135614369Y-99839315D01*
X135571222Y-99884412D01*
X135564050Y-99890633D01*
X135561701Y-99894364D01*
X135560318Y-99895810D01*
X135559407Y-99898007D01*
X135554651Y-99905564D01*
X135518706Y-99980280D01*
X135517461Y-99981526D01*
X135513456Y-99991193D01*
X135505489Y-100007755D01*
X135505259Y-100010980D01*
X135504022Y-100013969D01*
X135502293Y-100031527D01*
X134471769Y-100031527D01*
X134384768Y-99772671D01*
X134361759Y-99746143D01*
X134330350Y-99730438D01*
X134295322Y-99727948D01*
X134262008Y-99739053D01*
X134235480Y-99762062D01*
X134219775Y-99793471D01*
X134217285Y-99828499D01*
X134221198Y-99845703D01*
X134397571Y-100370469D01*
X134181204Y-100371120D01*
X134180565Y-100142541D01*
X134167126Y-100110098D01*
X134142295Y-100085267D01*
X134109852Y-100071828D01*
X134074736Y-100071828D01*
X134042293Y-100085267D01*
X134017462Y-100110098D01*
X134004023Y-100142541D01*
X134002294Y-100160099D01*
X134002886Y-100371657D01*
X133946164Y-100371828D01*
X133913721Y-100385267D01*
X133888890Y-100410098D01*
X133875451Y-100442541D01*
X133709701Y-100442541D01*
X133709252Y-100204441D01*
X133710158Y-100191700D01*
X133709223Y-100188896D01*
X133709136Y-100142541D01*
X133695697Y-100110098D01*
X133670866Y-100085267D01*
X133638423Y-100071828D01*
X133603307Y-100071828D01*
X133578008Y-100082307D01*
X133575484Y-100081262D01*
X133558923Y-100073295D01*
X133555697Y-100073065D01*
X133552709Y-100071828D01*
X133535151Y-100070099D01*
X133377192Y-100071544D01*
X133374978Y-100070806D01*
X133362727Y-100071676D01*
X133346164Y-100071828D01*
X133343175Y-100073065D01*
X133339950Y-100073295D01*
X133323473Y-100079601D01*
X133237943Y-100124007D01*
X133228006Y-100128124D01*
X133224544Y-100130964D01*
X133222828Y-100131856D01*
X133221271Y-100133650D01*
X133214368Y-100139316D01*
X133171227Y-100184408D01*
X133164052Y-100190632D01*
X133161701Y-100194365D01*
X133160319Y-100195811D01*
X133159409Y-100198007D01*
X133154653Y-100205563D01*
X133118707Y-100280279D01*
X133117461Y-100281526D01*
X133113454Y-100291197D01*
X133105489Y-100307755D01*
X133105259Y-100310980D01*
X133104022Y-100313969D01*
X133102293Y-100331527D01*
X132830307Y-100331527D01*
X132824137Y-100328971D01*
X132806579Y-100327242D01*
X132103307Y-100328971D01*
X132070864Y-100342410D01*
X132046033Y-100367241D01*
X132032594Y-100399684D01*
X131781473Y-100399684D01*
X131780564Y-100142541D01*
X131767125Y-100110098D01*
X131742294Y-100085267D01*
X131709851Y-100071828D01*
X131674735Y-100071828D01*
X131642292Y-100085267D01*
X131617461Y-100110098D01*
X131604022Y-100142541D01*
X131602293Y-100160099D01*
X131603875Y-100607737D01*
X131583508Y-100650075D01*
X131544504Y-100670326D01*
X131458243Y-100671347D01*
X131404699Y-100645587D01*
X131396235Y-100637490D01*
X131394850Y-100142541D01*
X131381411Y-100110098D01*
X131356580Y-100085267D01*
X131324137Y-100071828D01*
X131289021Y-100071828D01*
X131256578Y-100085267D01*
X131231747Y-100110098D01*
X131218308Y-100142541D01*
X131216579Y-100160099D01*
X130918574Y-100160099D01*
X130896553Y-100139031D01*
X130890330Y-100131856D01*
X130886595Y-100129505D01*
X130885152Y-100128124D01*
X130882957Y-100127215D01*
X130875399Y-100122457D01*
X130800681Y-100086512D01*
X130799436Y-100085267D01*
X130789763Y-100081260D01*
X130773206Y-100073295D01*
X130769981Y-100073065D01*
X130766993Y-100071828D01*
X130749435Y-100070099D01*
X130591477Y-100071544D01*
X130589263Y-100070806D01*
X130577012Y-100071676D01*
X130560449Y-100071828D01*
X130557460Y-100073065D01*
X130554235Y-100073295D01*
X130537758Y-100079601D01*
X130437113Y-100131856D01*
X130414105Y-100158385D01*
X130403000Y-100191700D01*
X130303000Y-100191700D01*
X130303000Y-98742751D01*
X131345857Y-98742751D01*
X131348346Y-98777779D01*
X131364050Y-98809187D01*
X131390579Y-98832195D01*
X131423894Y-98843300D01*
X131458922Y-98840811D01*
X131475399Y-98834505D01*
X131539978Y-98800975D01*
X131668975Y-98799794D01*
X131722743Y-98825660D01*
X131745944Y-98847857D01*
X131773840Y-98901586D01*
X131775191Y-99116165D01*
X131749208Y-99170174D01*
X131727015Y-99193371D01*
X131673176Y-99221324D01*
X131544180Y-99222505D01*
X131458922Y-99181489D01*
X131423894Y-99179000D01*
X131390579Y-99190105D01*
X131364050Y-99213113D01*
X131348346Y-99244521D01*
X131345857Y-99279549D01*
X131356962Y-99312864D01*
X131379970Y-99339393D01*
X131394901Y-99348791D01*
X131469617Y-99384736D01*
X131470863Y-99385982D01*
X131480533Y-99389987D01*
X131497092Y-99397954D01*
X131500317Y-99398183D01*
X131503306Y-99399421D01*
X131520864Y-99401150D01*
X131678820Y-99399704D01*
X131681035Y-99400443D01*
X131693284Y-99399572D01*
X131709850Y-99399421D01*
X131712838Y-99398183D01*
X131716063Y-99397954D01*
X131732541Y-99391649D01*
X131818067Y-99347242D01*
X131828010Y-99343125D01*
X131831472Y-99340283D01*
X131833187Y-99339393D01*
X131834743Y-99337598D01*
X131841647Y-99331932D01*
X131884788Y-99286838D01*
X131891964Y-99280615D01*
X131894313Y-99276881D01*
X131895697Y-99275436D01*
X131896607Y-99273237D01*
X131901362Y-99265684D01*
X131937307Y-99190967D01*
X131938553Y-99189722D01*
X131942558Y-99180051D01*
X131950525Y-99163493D01*
X131950754Y-99160267D01*
X131951992Y-99157279D01*
X131953721Y-99139721D01*
X131952531Y-98950735D01*
X132161165Y-98950735D01*
X132161165Y-98985851D01*
X132174604Y-99018294D01*
X132199435Y-99043125D01*
X132231878Y-99056564D01*
X132249436Y-99058293D01*
X132952708Y-99056564D01*
X132985151Y-99043125D01*
X133009982Y-99018294D01*
X133023421Y-98985851D01*
X133023421Y-98950735D01*
X133009982Y-98918292D01*
X132985151Y-98893461D01*
X132958878Y-98882578D01*
X133230864Y-98882578D01*
X133232396Y-99125989D01*
X133231571Y-99128465D01*
X133232493Y-99141445D01*
X133232593Y-99157279D01*
X133233830Y-99160267D01*
X133234060Y-99163493D01*
X133240366Y-99179971D01*
X133284771Y-99265494D01*
X133288889Y-99275436D01*
X133291732Y-99278900D01*
X133292623Y-99280616D01*
X133294418Y-99282172D01*
X133300082Y-99289074D01*
X133345173Y-99332214D01*
X133351399Y-99339393D01*
X133355132Y-99341742D01*
X133356577Y-99343125D01*
X133358773Y-99344034D01*
X133366330Y-99348791D01*
X133441046Y-99384736D01*
X133442292Y-99385982D01*
X133451962Y-99389987D01*
X133468521Y-99397954D01*
X133471746Y-99398183D01*
X133474735Y-99399421D01*
X133492293Y-99401150D01*
X133650251Y-99399704D01*
X133652466Y-99400443D01*
X133660733Y-99399855D01*
X133661165Y-99628708D01*
X133674604Y-99661151D01*
X133699435Y-99685982D01*
X133731878Y-99699421D01*
X133766994Y-99699421D01*
X133799437Y-99685982D01*
X133824268Y-99661151D01*
X133837707Y-99628708D01*
X133839436Y-99611150D01*
X133838272Y-98993592D01*
X134004022Y-98993592D01*
X134004022Y-99028708D01*
X134017461Y-99061151D01*
X134042292Y-99085982D01*
X134074735Y-99099421D01*
X134092293Y-99101150D01*
X134131956Y-99101030D01*
X134132594Y-99328708D01*
X134146033Y-99361151D01*
X134170864Y-99385982D01*
X134203307Y-99399421D01*
X134238423Y-99399421D01*
X134270866Y-99385982D01*
X134295697Y-99361151D01*
X134309136Y-99328708D01*
X134310865Y-99311150D01*
X134310385Y-99139721D01*
X134902293Y-99139721D01*
X134903181Y-99170775D01*
X134903000Y-99171321D01*
X134903330Y-99175971D01*
X134904022Y-99200136D01*
X134905259Y-99203124D01*
X134905489Y-99206349D01*
X134911794Y-99222827D01*
X134954128Y-99304364D01*
X134956962Y-99312864D01*
X134960898Y-99317402D01*
X134964050Y-99323473D01*
X134972575Y-99330867D01*
X134979970Y-99339393D01*
X134988853Y-99344984D01*
X134990579Y-99346481D01*
X134991965Y-99346943D01*
X134994901Y-99348791D01*
X135069617Y-99384736D01*
X135070863Y-99385982D01*
X135080533Y-99389987D01*
X135097092Y-99397954D01*
X135100317Y-99398183D01*
X135103306Y-99399421D01*
X135120864Y-99401150D01*
X135278822Y-99399704D01*
X135281037Y-99400443D01*
X135293287Y-99399572D01*
X135309851Y-99399421D01*
X135312839Y-99398183D01*
X135316065Y-99397954D01*
X135332542Y-99391648D01*
X135433187Y-99339393D01*
X135456195Y-99312864D01*
X135467300Y-99279549D01*
X135464811Y-99244521D01*
X135449107Y-99213113D01*
X135422578Y-99190105D01*
X135389263Y-99179000D01*
X135354235Y-99181489D01*
X135337758Y-99187795D01*
X135273178Y-99221324D01*
X135144180Y-99222505D01*
X135102316Y-99202365D01*
X135081724Y-99162704D01*
X135081689Y-99161474D01*
X135101077Y-99121172D01*
X135140079Y-99100922D01*
X135236206Y-99099785D01*
X135238180Y-99100443D01*
X135249679Y-99099625D01*
X135266994Y-99099421D01*
X135269982Y-99098183D01*
X135273208Y-99097954D01*
X135289685Y-99091648D01*
X135371220Y-99049314D01*
X135379721Y-99046481D01*
X135384259Y-99042544D01*
X135390330Y-99039393D01*
X135397724Y-99030867D01*
X135406250Y-99023473D01*
X135411843Y-99014586D01*
X135413338Y-99012864D01*
X135413799Y-99011480D01*
X135415649Y-99008542D01*
X135451593Y-98933824D01*
X135452839Y-98932579D01*
X135456845Y-98922906D01*
X135464811Y-98906349D01*
X135465040Y-98903124D01*
X135466278Y-98900136D01*
X135468007Y-98882578D01*
X135467118Y-98851522D01*
X135467300Y-98850977D01*
X135466969Y-98846326D01*
X135466278Y-98822163D01*
X135465040Y-98819174D01*
X135464811Y-98815949D01*
X135458505Y-98799472D01*
X135416171Y-98717935D01*
X135413338Y-98709436D01*
X135409401Y-98704897D01*
X135406250Y-98698827D01*
X135397724Y-98691432D01*
X135390330Y-98682907D01*
X135381443Y-98677313D01*
X135379721Y-98675819D01*
X135378337Y-98675357D01*
X135375399Y-98673508D01*
X135300682Y-98637563D01*
X135299437Y-98636318D01*
X135289769Y-98632313D01*
X135273208Y-98624346D01*
X135269982Y-98624116D01*
X135266994Y-98622879D01*
X135249436Y-98621150D01*
X135134093Y-98622514D01*
X135132120Y-98621857D01*
X135120620Y-98622674D01*
X135103306Y-98622879D01*
X135100317Y-98624116D01*
X135097092Y-98624346D01*
X135080615Y-98630652D01*
X134979970Y-98682907D01*
X134956962Y-98709436D01*
X134945857Y-98742751D01*
X134948346Y-98777779D01*
X134964050Y-98809187D01*
X134990579Y-98832195D01*
X135023894Y-98843300D01*
X135058922Y-98840811D01*
X135075399Y-98834505D01*
X135140079Y-98800922D01*
X135226343Y-98799901D01*
X135267984Y-98819934D01*
X135288575Y-98859594D01*
X135288610Y-98860823D01*
X135269221Y-98901127D01*
X135230220Y-98921377D01*
X135134093Y-98922514D01*
X135132120Y-98921857D01*
X135120620Y-98922674D01*
X135103306Y-98922879D01*
X135100317Y-98924116D01*
X135097092Y-98924346D01*
X135080615Y-98930652D01*
X134999078Y-98972985D01*
X134990579Y-98975819D01*
X134986040Y-98979755D01*
X134979970Y-98982907D01*
X134972575Y-98991432D01*
X134964050Y-98998827D01*
X134958456Y-99007713D01*
X134956962Y-99009436D01*
X134956500Y-99010819D01*
X134954651Y-99013758D01*
X134918706Y-99088474D01*
X134917461Y-99089720D01*
X134913456Y-99099387D01*
X134905489Y-99115949D01*
X134905259Y-99119174D01*
X134904022Y-99122163D01*
X134902293Y-99139721D01*
X134310385Y-99139721D01*
X134310275Y-99100494D01*
X134647142Y-99099480D01*
X134660693Y-99100444D01*
X134663732Y-99099430D01*
X134666994Y-99099421D01*
X134680313Y-99093903D01*
X134694007Y-99089339D01*
X134696451Y-99087218D01*
X134699437Y-99085982D01*
X134709634Y-99075784D01*
X134720535Y-99066330D01*
X134721981Y-99063437D01*
X134724268Y-99061151D01*
X134729789Y-99047821D01*
X134736240Y-99034921D01*
X134736469Y-99031696D01*
X134737707Y-99028708D01*
X134737707Y-99014284D01*
X134738730Y-98999893D01*
X134737707Y-98995394D01*
X134737707Y-98993592D01*
X134736798Y-98991398D01*
X134734818Y-98982690D01*
X134600340Y-98582578D01*
X135630864Y-98582578D01*
X135632312Y-98669103D01*
X135631570Y-98679550D01*
X135632560Y-98683904D01*
X135632593Y-98685851D01*
X135633502Y-98688047D01*
X135635483Y-98696753D01*
X135675451Y-98812292D01*
X135675451Y-98814422D01*
X135679919Y-98825211D01*
X135685532Y-98841435D01*
X135687651Y-98843879D01*
X135688889Y-98846866D01*
X135700081Y-98860504D01*
X136063055Y-99221796D01*
X135703306Y-99222879D01*
X135670863Y-99236318D01*
X135646032Y-99261149D01*
X135632593Y-99293592D01*
X135632593Y-99328708D01*
X135646032Y-99361151D01*
X135670863Y-99385982D01*
X135703306Y-99399421D01*
X135720864Y-99401150D01*
X136295565Y-99399421D01*
X136328008Y-99385982D01*
X136352839Y-99361151D01*
X136366278Y-99328708D01*
X136366278Y-99293592D01*
X136352839Y-99261149D01*
X136352839Y-99261148D01*
X136344294Y-99250736D01*
X136489737Y-99250736D01*
X136489737Y-99285852D01*
X136503175Y-99318296D01*
X136503179Y-99318300D01*
X136514367Y-99331933D01*
X136570862Y-99385982D01*
X136578965Y-99389338D01*
X136603306Y-99399421D01*
X136638422Y-99399421D01*
X136662763Y-99389338D01*
X136670866Y-99385982D01*
X136684504Y-99374790D01*
X136738530Y-99318318D01*
X136738553Y-99318296D01*
X136746175Y-99299893D01*
X136831570Y-99299893D01*
X136834060Y-99334921D01*
X136849765Y-99366330D01*
X136876293Y-99389339D01*
X136909607Y-99400444D01*
X136944635Y-99397954D01*
X136976044Y-99382249D01*
X136999053Y-99355721D01*
X137006245Y-99339610D01*
X137071140Y-99143756D01*
X137371209Y-99142593D01*
X137442675Y-99355720D01*
X137465684Y-99382249D01*
X137497093Y-99397953D01*
X137532121Y-99400443D01*
X137565435Y-99389339D01*
X137591963Y-99366330D01*
X137607667Y-99334921D01*
X137610157Y-99299893D01*
X137606245Y-99282689D01*
X137308108Y-98393582D01*
X137307667Y-98387379D01*
X137302689Y-98377423D01*
X137299053Y-98366579D01*
X137294837Y-98361718D01*
X137291963Y-98355970D01*
X137283438Y-98348575D01*
X137276044Y-98340051D01*
X137270295Y-98337176D01*
X137265435Y-98332961D01*
X137254725Y-98329391D01*
X137244635Y-98324346D01*
X137238220Y-98323890D01*
X137232121Y-98321857D01*
X137220871Y-98322656D01*
X137209607Y-98321856D01*
X137203500Y-98323891D01*
X137197093Y-98324347D01*
X137187008Y-98329388D01*
X137176293Y-98332961D01*
X137171432Y-98337176D01*
X137165684Y-98340051D01*
X137158291Y-98348574D01*
X137149765Y-98355970D01*
X137146889Y-98361720D01*
X137142675Y-98366580D01*
X137135482Y-98382690D01*
X136921072Y-99029774D01*
X136918308Y-99036449D01*
X136918308Y-99038118D01*
X136831570Y-99299893D01*
X136746175Y-99299893D01*
X136751991Y-99285852D01*
X136751992Y-99250736D01*
X136738554Y-99218292D01*
X136727362Y-99204654D01*
X136670867Y-99150603D01*
X136647226Y-99140811D01*
X136638422Y-99137164D01*
X136603306Y-99137164D01*
X136584301Y-99145036D01*
X136570863Y-99150602D01*
X136570862Y-99150603D01*
X136557224Y-99161796D01*
X136503174Y-99218292D01*
X136497257Y-99232579D01*
X136492311Y-99244522D01*
X136489737Y-99250736D01*
X136344294Y-99250736D01*
X136341646Y-99247510D01*
X135871264Y-98779306D01*
X136489737Y-98779306D01*
X136489737Y-98814422D01*
X136503175Y-98846866D01*
X136514367Y-98860504D01*
X136570862Y-98914553D01*
X136578965Y-98917909D01*
X136603306Y-98927992D01*
X136638422Y-98927992D01*
X136662763Y-98917909D01*
X136670866Y-98914553D01*
X136684504Y-98903361D01*
X136738553Y-98846866D01*
X136751991Y-98814422D01*
X136751991Y-98779306D01*
X136738553Y-98746862D01*
X136727361Y-98733224D01*
X136670866Y-98679175D01*
X136653232Y-98671871D01*
X136638422Y-98665736D01*
X136603306Y-98665736D01*
X136588496Y-98671871D01*
X136570862Y-98679175D01*
X136557224Y-98690367D01*
X136503175Y-98746862D01*
X136489737Y-98779306D01*
X135871264Y-98779306D01*
X135843217Y-98751389D01*
X135810680Y-98657334D01*
X135809808Y-98605269D01*
X135835375Y-98552126D01*
X135857570Y-98528927D01*
X135911344Y-98501007D01*
X136083122Y-98499726D01*
X136137029Y-98525660D01*
X136185148Y-98571696D01*
X136217592Y-98585134D01*
X136252708Y-98585134D01*
X136285152Y-98571696D01*
X136309982Y-98546866D01*
X136323420Y-98514422D01*
X136323420Y-98479306D01*
X136309982Y-98446862D01*
X136298790Y-98433224D01*
X136253696Y-98390082D01*
X136247473Y-98382907D01*
X136243738Y-98380556D01*
X136242295Y-98379175D01*
X136240100Y-98378266D01*
X136232542Y-98373508D01*
X136157825Y-98337563D01*
X136156580Y-98336318D01*
X136146912Y-98332313D01*
X136130351Y-98324346D01*
X136127125Y-98324116D01*
X136124137Y-98322879D01*
X136106579Y-98321150D01*
X135905917Y-98322646D01*
X135903549Y-98321857D01*
X135890858Y-98322758D01*
X135874735Y-98322879D01*
X135871746Y-98324116D01*
X135868521Y-98324346D01*
X135852044Y-98330652D01*
X135766520Y-98375055D01*
X135756578Y-98379174D01*
X135753114Y-98382016D01*
X135751399Y-98382907D01*
X135749843Y-98384700D01*
X135742940Y-98390366D01*
X135699793Y-98435463D01*
X135692621Y-98441684D01*
X135690272Y-98445415D01*
X135688889Y-98446861D01*
X135687978Y-98449058D01*
X135683222Y-98456615D01*
X135647277Y-98531331D01*
X135646032Y-98532577D01*
X135642027Y-98542244D01*
X135634060Y-98558806D01*
X135633830Y-98562031D01*
X135632593Y-98565020D01*
X135630864Y-98582578D01*
X134600340Y-98582578D01*
X134513339Y-98323722D01*
X134490330Y-98297194D01*
X134458921Y-98281489D01*
X134423893Y-98278999D01*
X134390579Y-98290104D01*
X134364051Y-98313113D01*
X134348346Y-98344522D01*
X134345856Y-98379550D01*
X134349769Y-98396754D01*
X134526142Y-98921520D01*
X134309775Y-98922171D01*
X134309136Y-98693592D01*
X134295697Y-98661149D01*
X134270866Y-98636318D01*
X134238423Y-98622879D01*
X134203307Y-98622879D01*
X134170864Y-98636318D01*
X134146033Y-98661149D01*
X134132594Y-98693592D01*
X134130865Y-98711150D01*
X134131457Y-98922708D01*
X134074735Y-98922879D01*
X134042292Y-98936318D01*
X134017461Y-98961149D01*
X134004022Y-98993592D01*
X133838272Y-98993592D01*
X133837823Y-98755492D01*
X133838729Y-98742751D01*
X133837794Y-98739947D01*
X133837707Y-98693592D01*
X133824268Y-98661149D01*
X133799437Y-98636318D01*
X133766994Y-98622879D01*
X133731878Y-98622879D01*
X133706579Y-98633358D01*
X133704055Y-98632313D01*
X133687494Y-98624346D01*
X133684268Y-98624116D01*
X133681280Y-98622879D01*
X133663722Y-98621150D01*
X133505763Y-98622595D01*
X133503549Y-98621857D01*
X133491298Y-98622727D01*
X133474735Y-98622879D01*
X133471746Y-98624116D01*
X133468521Y-98624346D01*
X133452044Y-98630652D01*
X133366514Y-98675058D01*
X133356577Y-98679175D01*
X133353115Y-98682015D01*
X133351399Y-98682907D01*
X133349842Y-98684701D01*
X133342939Y-98690367D01*
X133299798Y-98735459D01*
X133292623Y-98741683D01*
X133290272Y-98745416D01*
X133288890Y-98746862D01*
X133287980Y-98749058D01*
X133283224Y-98756614D01*
X133247278Y-98831330D01*
X133246032Y-98832577D01*
X133242025Y-98842248D01*
X133234060Y-98858806D01*
X133233830Y-98862031D01*
X133232593Y-98865020D01*
X133230864Y-98882578D01*
X132958878Y-98882578D01*
X132952708Y-98880022D01*
X132935150Y-98878293D01*
X132231878Y-98880022D01*
X132199435Y-98893461D01*
X132174604Y-98918292D01*
X132161165Y-98950735D01*
X131952531Y-98950735D01*
X131952188Y-98896309D01*
X131953014Y-98893834D01*
X131952091Y-98880853D01*
X131951992Y-98865020D01*
X131950754Y-98862031D01*
X131950525Y-98858806D01*
X131944219Y-98842329D01*
X131899812Y-98756799D01*
X131895696Y-98746862D01*
X131892855Y-98743400D01*
X131891964Y-98741684D01*
X131890169Y-98740127D01*
X131884504Y-98733224D01*
X131839410Y-98690082D01*
X131833187Y-98682907D01*
X131829452Y-98680556D01*
X131828009Y-98679175D01*
X131825814Y-98678266D01*
X131818256Y-98673508D01*
X131743538Y-98637563D01*
X131742293Y-98636318D01*
X131732620Y-98632311D01*
X131716063Y-98624346D01*
X131712838Y-98624116D01*
X131709850Y-98622879D01*
X131692292Y-98621150D01*
X131534334Y-98622595D01*
X131532120Y-98621857D01*
X131519869Y-98622727D01*
X131503306Y-98622879D01*
X131500317Y-98624116D01*
X131497092Y-98624346D01*
X131480615Y-98630652D01*
X131379970Y-98682907D01*
X131356962Y-98709436D01*
X131345857Y-98742751D01*
X130303000Y-98742751D01*
X130303000Y-98178999D01*
X137710157Y-98178999D01*
X137710157Y-104146268D01*
G37*
D12*
X117198214Y-110189795D02*
X117579166Y-110189795D01*
X117579166Y-110189795D02*
X117579166Y-109389795D01*
X117045833Y-109389795D02*
X116588690Y-109389795D01*
X116817262Y-110189795D02*
X116817262Y-109389795D01*
X115864880Y-110113604D02*
X115902976Y-110151700D01*
X115902976Y-110151700D02*
X116017261Y-110189795D01*
X116017261Y-110189795D02*
X116093452Y-110189795D01*
X116093452Y-110189795D02*
X116207738Y-110151700D01*
X116207738Y-110151700D02*
X116283928Y-110075509D01*
X116283928Y-110075509D02*
X116322023Y-109999319D01*
X116322023Y-109999319D02*
X116360119Y-109846938D01*
X116360119Y-109846938D02*
X116360119Y-109732652D01*
X116360119Y-109732652D02*
X116322023Y-109580271D01*
X116322023Y-109580271D02*
X116283928Y-109504080D01*
X116283928Y-109504080D02*
X116207738Y-109427890D01*
X116207738Y-109427890D02*
X116093452Y-109389795D01*
X116093452Y-109389795D02*
X116017261Y-109389795D01*
X116017261Y-109389795D02*
X115902976Y-109427890D01*
X115902976Y-109427890D02*
X115864880Y-109465985D01*
X115598214Y-109389795D02*
X115102976Y-109389795D01*
X115102976Y-109389795D02*
X115369642Y-109694557D01*
X115369642Y-109694557D02*
X115255357Y-109694557D01*
X115255357Y-109694557D02*
X115179166Y-109732652D01*
X115179166Y-109732652D02*
X115141071Y-109770747D01*
X115141071Y-109770747D02*
X115102976Y-109846938D01*
X115102976Y-109846938D02*
X115102976Y-110037414D01*
X115102976Y-110037414D02*
X115141071Y-110113604D01*
X115141071Y-110113604D02*
X115179166Y-110151700D01*
X115179166Y-110151700D02*
X115255357Y-110189795D01*
X115255357Y-110189795D02*
X115483928Y-110189795D01*
X115483928Y-110189795D02*
X115560119Y-110151700D01*
X115560119Y-110151700D02*
X115598214Y-110113604D01*
X114379166Y-109389795D02*
X114760118Y-109389795D01*
X114760118Y-109389795D02*
X114798214Y-109770747D01*
X114798214Y-109770747D02*
X114760118Y-109732652D01*
X114760118Y-109732652D02*
X114683928Y-109694557D01*
X114683928Y-109694557D02*
X114493452Y-109694557D01*
X114493452Y-109694557D02*
X114417261Y-109732652D01*
X114417261Y-109732652D02*
X114379166Y-109770747D01*
X114379166Y-109770747D02*
X114341071Y-109846938D01*
X114341071Y-109846938D02*
X114341071Y-110037414D01*
X114341071Y-110037414D02*
X114379166Y-110113604D01*
X114379166Y-110113604D02*
X114417261Y-110151700D01*
X114417261Y-110151700D02*
X114493452Y-110189795D01*
X114493452Y-110189795D02*
X114683928Y-110189795D01*
X114683928Y-110189795D02*
X114760118Y-110151700D01*
X114760118Y-110151700D02*
X114798214Y-110113604D01*
X114074404Y-109389795D02*
X113579166Y-109389795D01*
X113579166Y-109389795D02*
X113845832Y-109694557D01*
X113845832Y-109694557D02*
X113731547Y-109694557D01*
X113731547Y-109694557D02*
X113655356Y-109732652D01*
X113655356Y-109732652D02*
X113617261Y-109770747D01*
X113617261Y-109770747D02*
X113579166Y-109846938D01*
X113579166Y-109846938D02*
X113579166Y-110037414D01*
X113579166Y-110037414D02*
X113617261Y-110113604D01*
X113617261Y-110113604D02*
X113655356Y-110151700D01*
X113655356Y-110151700D02*
X113731547Y-110189795D01*
X113731547Y-110189795D02*
X113960118Y-110189795D01*
X113960118Y-110189795D02*
X114036309Y-110151700D01*
X114036309Y-110151700D02*
X114074404Y-110113604D01*
X113083927Y-109389795D02*
X113007737Y-109389795D01*
X113007737Y-109389795D02*
X112931546Y-109427890D01*
X112931546Y-109427890D02*
X112893451Y-109465985D01*
X112893451Y-109465985D02*
X112855356Y-109542176D01*
X112855356Y-109542176D02*
X112817261Y-109694557D01*
X112817261Y-109694557D02*
X112817261Y-109885033D01*
X112817261Y-109885033D02*
X112855356Y-110037414D01*
X112855356Y-110037414D02*
X112893451Y-110113604D01*
X112893451Y-110113604D02*
X112931546Y-110151700D01*
X112931546Y-110151700D02*
X113007737Y-110189795D01*
X113007737Y-110189795D02*
X113083927Y-110189795D01*
X113083927Y-110189795D02*
X113160118Y-110151700D01*
X113160118Y-110151700D02*
X113198213Y-110113604D01*
X113198213Y-110113604D02*
X113236308Y-110037414D01*
X113236308Y-110037414D02*
X113274404Y-109885033D01*
X113274404Y-109885033D02*
X113274404Y-109694557D01*
X113274404Y-109694557D02*
X113236308Y-109542176D01*
X113236308Y-109542176D02*
X113198213Y-109465985D01*
X113198213Y-109465985D02*
X113160118Y-109427890D01*
X113160118Y-109427890D02*
X113083927Y-109389795D01*
X114139167Y-98701700D02*
X114024881Y-98739795D01*
X114024881Y-98739795D02*
X113834405Y-98739795D01*
X113834405Y-98739795D02*
X113758214Y-98701700D01*
X113758214Y-98701700D02*
X113720119Y-98663604D01*
X113720119Y-98663604D02*
X113682024Y-98587414D01*
X113682024Y-98587414D02*
X113682024Y-98511223D01*
X113682024Y-98511223D02*
X113720119Y-98435033D01*
X113720119Y-98435033D02*
X113758214Y-98396938D01*
X113758214Y-98396938D02*
X113834405Y-98358842D01*
X113834405Y-98358842D02*
X113986786Y-98320747D01*
X113986786Y-98320747D02*
X114062976Y-98282652D01*
X114062976Y-98282652D02*
X114101071Y-98244557D01*
X114101071Y-98244557D02*
X114139167Y-98168366D01*
X114139167Y-98168366D02*
X114139167Y-98092176D01*
X114139167Y-98092176D02*
X114101071Y-98015985D01*
X114101071Y-98015985D02*
X114062976Y-97977890D01*
X114062976Y-97977890D02*
X113986786Y-97939795D01*
X113986786Y-97939795D02*
X113796309Y-97939795D01*
X113796309Y-97939795D02*
X113682024Y-97977890D01*
X113453452Y-97939795D02*
X112996309Y-97939795D01*
X113224881Y-98739795D02*
X113224881Y-97939795D01*
X112767738Y-98701700D02*
X112653452Y-98739795D01*
X112653452Y-98739795D02*
X112462976Y-98739795D01*
X112462976Y-98739795D02*
X112386785Y-98701700D01*
X112386785Y-98701700D02*
X112348690Y-98663604D01*
X112348690Y-98663604D02*
X112310595Y-98587414D01*
X112310595Y-98587414D02*
X112310595Y-98511223D01*
X112310595Y-98511223D02*
X112348690Y-98435033D01*
X112348690Y-98435033D02*
X112386785Y-98396938D01*
X112386785Y-98396938D02*
X112462976Y-98358842D01*
X112462976Y-98358842D02*
X112615357Y-98320747D01*
X112615357Y-98320747D02*
X112691547Y-98282652D01*
X112691547Y-98282652D02*
X112729642Y-98244557D01*
X112729642Y-98244557D02*
X112767738Y-98168366D01*
X112767738Y-98168366D02*
X112767738Y-98092176D01*
X112767738Y-98092176D02*
X112729642Y-98015985D01*
X112729642Y-98015985D02*
X112691547Y-97977890D01*
X112691547Y-97977890D02*
X112615357Y-97939795D01*
X112615357Y-97939795D02*
X112424880Y-97939795D01*
X112424880Y-97939795D02*
X112310595Y-97977890D01*
X111967737Y-98739795D02*
X111967737Y-97939795D01*
X111967737Y-97939795D02*
X111662975Y-97939795D01*
X111662975Y-97939795D02*
X111586785Y-97977890D01*
X111586785Y-97977890D02*
X111548690Y-98015985D01*
X111548690Y-98015985D02*
X111510594Y-98092176D01*
X111510594Y-98092176D02*
X111510594Y-98206461D01*
X111510594Y-98206461D02*
X111548690Y-98282652D01*
X111548690Y-98282652D02*
X111586785Y-98320747D01*
X111586785Y-98320747D02*
X111662975Y-98358842D01*
X111662975Y-98358842D02*
X111967737Y-98358842D01*
X111167737Y-98739795D02*
X111167737Y-97939795D01*
X110786785Y-98739795D02*
X110786785Y-97939795D01*
X110786785Y-97939795D02*
X110329642Y-98739795D01*
X110329642Y-98739795D02*
X110329642Y-97939795D01*
X109986786Y-98015985D02*
X109948690Y-97977890D01*
X109948690Y-97977890D02*
X109872500Y-97939795D01*
X109872500Y-97939795D02*
X109682024Y-97939795D01*
X109682024Y-97939795D02*
X109605833Y-97977890D01*
X109605833Y-97977890D02*
X109567738Y-98015985D01*
X109567738Y-98015985D02*
X109529643Y-98092176D01*
X109529643Y-98092176D02*
X109529643Y-98168366D01*
X109529643Y-98168366D02*
X109567738Y-98282652D01*
X109567738Y-98282652D02*
X110024881Y-98739795D01*
X110024881Y-98739795D02*
X109529643Y-98739795D01*
X109262976Y-97939795D02*
X108767738Y-97939795D01*
X108767738Y-97939795D02*
X109034404Y-98244557D01*
X109034404Y-98244557D02*
X108920119Y-98244557D01*
X108920119Y-98244557D02*
X108843928Y-98282652D01*
X108843928Y-98282652D02*
X108805833Y-98320747D01*
X108805833Y-98320747D02*
X108767738Y-98396938D01*
X108767738Y-98396938D02*
X108767738Y-98587414D01*
X108767738Y-98587414D02*
X108805833Y-98663604D01*
X108805833Y-98663604D02*
X108843928Y-98701700D01*
X108843928Y-98701700D02*
X108920119Y-98739795D01*
X108920119Y-98739795D02*
X109148690Y-98739795D01*
X109148690Y-98739795D02*
X109224881Y-98701700D01*
X109224881Y-98701700D02*
X109262976Y-98663604D01*
X108501071Y-97939795D02*
X108005833Y-97939795D01*
X108005833Y-97939795D02*
X108272499Y-98244557D01*
X108272499Y-98244557D02*
X108158214Y-98244557D01*
X108158214Y-98244557D02*
X108082023Y-98282652D01*
X108082023Y-98282652D02*
X108043928Y-98320747D01*
X108043928Y-98320747D02*
X108005833Y-98396938D01*
X108005833Y-98396938D02*
X108005833Y-98587414D01*
X108005833Y-98587414D02*
X108043928Y-98663604D01*
X108043928Y-98663604D02*
X108082023Y-98701700D01*
X108082023Y-98701700D02*
X108158214Y-98739795D01*
X108158214Y-98739795D02*
X108386785Y-98739795D01*
X108386785Y-98739795D02*
X108462976Y-98701700D01*
X108462976Y-98701700D02*
X108501071Y-98663604D01*
D13*
%TO.C,C8*%
X121190000Y-106500835D02*
X121190000Y-106269165D01*
X121910000Y-106500835D02*
X121910000Y-106269165D01*
%TO.C,U1*%
X113057500Y-105832500D02*
X114557500Y-105832500D01*
X113057500Y-109052500D02*
X114557500Y-109052500D01*
X116057500Y-105832500D02*
X114557500Y-105832500D01*
X116057500Y-109052500D02*
X114557500Y-109052500D01*
X112597500Y-109182500D02*
X112117500Y-109182500D01*
X112357500Y-108852500D01*
X112597500Y-109182500D01*
G36*
X112597500Y-109182500D02*
G01*
X112117500Y-109182500D01*
X112357500Y-108852500D01*
X112597500Y-109182500D01*
G37*
%TO.C,R3*%
X119020000Y-108542379D02*
X119020000Y-108877621D01*
X119780000Y-108542379D02*
X119780000Y-108877621D01*
%TO.C,R5*%
X119655121Y-98380000D02*
X119319879Y-98380000D01*
X119655121Y-99140000D02*
X119319879Y-99140000D01*
%TO.C,D2*%
X112645000Y-102842500D02*
X114055000Y-102842500D01*
X112645000Y-105162500D02*
X114045000Y-105162500D01*
X114425000Y-102892500D02*
X114185000Y-102562500D01*
X114665000Y-102562500D01*
X114425000Y-102892500D01*
G36*
X114425000Y-102892500D02*
G01*
X114185000Y-102562500D01*
X114665000Y-102562500D01*
X114425000Y-102892500D01*
G37*
%TO.C,U2*%
X114490000Y-98550000D02*
X114490000Y-99025000D01*
X114490000Y-101770000D02*
X114490000Y-101295000D01*
X114965000Y-98550000D02*
X114490000Y-98550000D01*
X114965000Y-101770000D02*
X114490000Y-101770000D01*
X117235000Y-98550000D02*
X117710000Y-98550000D01*
X117470000Y-101770000D02*
X117235000Y-101770000D01*
X117710000Y-98550000D02*
X117710000Y-99025000D01*
X117710000Y-101470000D02*
X117710000Y-101295000D01*
X118040000Y-102010000D02*
X117710000Y-101770000D01*
X118040000Y-101530000D01*
X118040000Y-102010000D01*
G36*
X118040000Y-102010000D02*
G01*
X117710000Y-101770000D01*
X118040000Y-101530000D01*
X118040000Y-102010000D01*
G37*
%TO.C,R6*%
X119642621Y-97305000D02*
X119307379Y-97305000D01*
X119642621Y-98065000D02*
X119307379Y-98065000D01*
%TO.C,L4*%
X110228335Y-106507500D02*
X109996665Y-106507500D01*
X110228335Y-107227500D02*
X109996665Y-107227500D01*
%TO.C,C9*%
X119590835Y-99475000D02*
X119359165Y-99475000D01*
X119590835Y-100195000D02*
X119359165Y-100195000D01*
%TO.C,R1*%
X110310121Y-109630000D02*
X109974879Y-109630000D01*
X110310121Y-110390000D02*
X109974879Y-110390000D01*
%TO.C,C10*%
X120990000Y-98881267D02*
X120990000Y-98588733D01*
X122010000Y-98881267D02*
X122010000Y-98588733D01*
%TO.C,C5*%
X117940000Y-108800835D02*
X117940000Y-108569165D01*
X118660000Y-108800835D02*
X118660000Y-108569165D01*
%TO.C,C4*%
X110026665Y-107525000D02*
X110258335Y-107525000D01*
X110026665Y-108245000D02*
X110258335Y-108245000D01*
%TO.C,R2*%
X119020000Y-106217379D02*
X119020000Y-106552621D01*
X119780000Y-106217379D02*
X119780000Y-106552621D01*
%TO.C,R4*%
X110310121Y-108555000D02*
X109974879Y-108555000D01*
X110310121Y-109315000D02*
X109974879Y-109315000D01*
%TO.C,C6*%
X120115000Y-106500835D02*
X120115000Y-106269165D01*
X120835000Y-106500835D02*
X120835000Y-106269165D01*
%TO.C,C2*%
X111890000Y-101006267D02*
X111890000Y-100713733D01*
X112910000Y-101006267D02*
X112910000Y-100713733D01*
%TO.C,C3*%
X120215835Y-100625000D02*
X119984165Y-100625000D01*
X120215835Y-101345000D02*
X119984165Y-101345000D01*
%TO.C,D1*%
X116012500Y-102837500D02*
X117422500Y-102837500D01*
X116012500Y-105157500D02*
X117412500Y-105157500D01*
X117792500Y-102887500D02*
X117552500Y-102557500D01*
X118032500Y-102557500D01*
X117792500Y-102887500D01*
G36*
X117792500Y-102887500D02*
G01*
X117552500Y-102557500D01*
X118032500Y-102557500D01*
X117792500Y-102887500D01*
G37*
%TO.C,C7*%
X120571267Y-103875000D02*
X120278733Y-103875000D01*
X120571267Y-104895000D02*
X120278733Y-104895000D01*
%TO.C,C1*%
X120561252Y-101825000D02*
X120038748Y-101825000D01*
X120561252Y-103295000D02*
X120038748Y-103295000D01*
%TD*%
M02*
