%TF.GenerationSoftware,KiCad,Pcbnew,8.0.3*%
%TF.CreationDate,2024-07-16T20:49:30+03:00*%
%TF.ProjectId,PCBcoil,50434263-6f69-46c2-9e6b-696361645f70,rev?*%
%TF.SameCoordinates,Original*%
%TF.FileFunction,Copper,L6,Inr*%
%TF.FilePolarity,Positive*%
%FSLAX46Y46*%
G04 Gerber Fmt 4.6, Leading zero omitted, Abs format (unit mm)*
G04 Created by KiCad (PCBNEW 8.0.3) date 2024-07-16 20:49:30*
%MOMM*%
%LPD*%
G01*
G04 APERTURE LIST*
%TA.AperFunction,Conductor*%
%ADD10C,0.100000*%
%TD*%
%TA.AperFunction,ComponentPad*%
%ADD11R,1.700000X1.700000*%
%TD*%
%TA.AperFunction,ComponentPad*%
%ADD12O,1.700000X1.700000*%
%TD*%
%TA.AperFunction,ViaPad*%
%ADD13C,0.600000*%
%TD*%
%TA.AperFunction,ViaPad*%
%ADD14C,0.400000*%
%TD*%
%TA.AperFunction,ViaPad*%
%ADD15C,0.500000*%
%TD*%
%TA.AperFunction,Conductor*%
%ADD16C,0.130000*%
%TD*%
%TA.AperFunction,Conductor*%
%ADD17C,0.200000*%
%TD*%
G04 APERTURE END LIST*
D10*
%TO.N,unconnected-(U2-SENSEU-Pad4)*%
X111108695Y-91131875D02*
G75*
G02*
X107908699Y-91131875I-1599998J-1D01*
G01*
X122471533Y-91133088D02*
G75*
G02*
X120871533Y-91133088I-800000J0D01*
G01*
X113396533Y-91133088D02*
G75*
G02*
X114932755Y-89035550I2199967J88D01*
G01*
%TO.N,Net-(D1B-K)*%
X99601395Y-104481432D02*
X99527902Y-103854137D01*
X108878675Y-103686483D02*
X105229740Y-103691899D01*
%TO.N,unconnected-(U2-SENSEU-Pad4)*%
X121671533Y-89133088D02*
G75*
G02*
X123671612Y-91133088I67J-2000012D01*
G01*
%TO.N,Net-(D1B-K)*%
X99597731Y-102634189D02*
X99547635Y-103020958D01*
%TO.N,unconnected-(U2-SENSEU-Pad4)*%
X119286104Y-82318117D02*
G75*
G02*
X124086104Y-82318117I2400000J0D01*
G01*
X117996533Y-91133088D02*
G75*
G02*
X113196533Y-91133088I-2400000J0D01*
G01*
X121738142Y-89534479D02*
G75*
G02*
X123271605Y-91133088I-66542J-1598621D01*
G01*
%TO.N,Net-(D1B-K)*%
X99314959Y-103665310D02*
X102757579Y-103662825D01*
%TO.N,unconnected-(U2-SENSEU-Pad4)*%
X115596533Y-88733088D02*
G75*
G02*
X117996612Y-91133088I67J-2400012D01*
G01*
X115596533Y-89133088D02*
G75*
G02*
X117596612Y-91133088I67J-2000012D01*
G01*
X107108699Y-91131875D02*
G75*
G02*
X108784596Y-88843713I2399901J75D01*
G01*
%TO.N,Net-(D1B-K)*%
X105758404Y-107668388D02*
X104268404Y-105078388D01*
X105398404Y-107818388D02*
X105758404Y-107668388D01*
X108582265Y-104565156D02*
X107162265Y-107024668D01*
%TO.N,unconnected-(U2-SENSEU-Pad4)*%
X121619495Y-83916726D02*
G75*
G02*
X120086183Y-82318117I66705J1598626D01*
G01*
X107508699Y-91131875D02*
G75*
G02*
X108905288Y-89225097I2000001J-25D01*
G01*
%TO.N,Net-(D1B-K)*%
X102628404Y-107618388D02*
X102308404Y-107488388D01*
X105466150Y-104082425D02*
X105186150Y-104567399D01*
X105678404Y-99602069D02*
X104278404Y-102012069D01*
%TO.N,unconnected-(U2-SENSEU-Pad4)*%
X116196533Y-91133088D02*
G75*
G02*
X114996533Y-91133088I-600000J0D01*
G01*
X120671533Y-91133088D02*
G75*
G02*
X121369806Y-90179630I999967J88D01*
G01*
X115663142Y-89534479D02*
X115174141Y-89798330D01*
%TO.N,Net-(D1B-K)*%
X101435938Y-107693677D02*
X100676849Y-107138896D01*
%TO.N,unconnected-(U2-SENSEU-Pad4)*%
X122168838Y-83843555D02*
X121686103Y-84118117D01*
X119671533Y-91133088D02*
G75*
G02*
X121068097Y-89226230I1999967J88D01*
G01*
%TO.N,Net-(D1B-K)*%
X102568404Y-108018388D02*
X101768404Y-107658388D01*
X106756314Y-100581478D02*
X106118686Y-101677074D01*
X103498404Y-102412069D02*
X104499246Y-102414707D01*
X104951609Y-102535638D02*
X105341609Y-103211138D01*
X99993404Y-105953388D02*
X99535641Y-106195580D01*
X102618404Y-107818388D02*
X102038404Y-107568388D01*
%TO.N,unconnected-(U2-SENSEU-Pad4)*%
X108708699Y-91131875D02*
G75*
G02*
X109267339Y-90369177I800001J-25D01*
G01*
X107908699Y-91131875D02*
G75*
G02*
X109025971Y-89606457I1600001J-25D01*
G01*
%TO.N,Net-(D1B-K)*%
X102518404Y-99532069D02*
X103828404Y-101812069D01*
%TO.N,unconnected-(U2-SENSEU-Pad4)*%
X123886104Y-82318117D02*
G75*
G02*
X122349847Y-84415542I-2199804J-83D01*
G01*
X110908695Y-91131875D02*
G75*
G02*
X108108699Y-91131875I-1399998J-1D01*
G01*
X117196529Y-91133088D02*
G75*
G02*
X113996533Y-91133088I-1599998J-1D01*
G01*
X121513339Y-83505874D02*
G75*
G02*
X120485913Y-82318117I172861J1187774D01*
G01*
X121686104Y-84318117D02*
X122229180Y-84034237D01*
X111508699Y-91131875D02*
G75*
G02*
X107508699Y-91131875I-2000000J0D01*
G01*
X121875487Y-90154107D02*
X121430166Y-90370368D01*
%TO.N,Net-(D1B-K)*%
X100987731Y-100226638D02*
X101494238Y-99849343D01*
X103608404Y-102212069D02*
X104388404Y-102212069D01*
X106317562Y-107835750D02*
X105457562Y-108215750D01*
X102578404Y-99072069D02*
X101958404Y-99352069D01*
%TO.N,unconnected-(U2-SENSEU-Pad4)*%
X115596534Y-89333088D02*
G75*
G02*
X117396612Y-91133088I66J-1800012D01*
G01*
X115596533Y-88333088D02*
X114812089Y-88654248D01*
X120686104Y-82318117D02*
G75*
G02*
X122686104Y-82318117I1000000J0D01*
G01*
%TO.N,Net-(D1B-K)*%
X105408404Y-99672069D02*
X104168404Y-101812069D01*
%TO.N,unconnected-(U2-SENSEU-Pad4)*%
X121686103Y-84118117D02*
G75*
G02*
X119886183Y-82318117I97J1800017D01*
G01*
X120271533Y-91133088D02*
G75*
G02*
X121249143Y-89798336I1399867J88D01*
G01*
X113996533Y-91133088D02*
G75*
G02*
X115113801Y-89607657I1599867J88D01*
G01*
X120886104Y-82318117D02*
G75*
G02*
X122486104Y-82318117I800000J0D01*
G01*
%TO.N,Net-(D1B-K)*%
X99403190Y-104538130D02*
X99314959Y-103665310D01*
X105948404Y-99522069D02*
X104388404Y-102212069D01*
%TO.N,unconnected-(U2-SENSEU-Pad4)*%
X121450835Y-83082740D02*
G75*
G02*
X120886085Y-82318117I235265J764640D01*
G01*
X121686104Y-84518117D02*
G75*
G02*
X119486183Y-82318117I-4J2199917D01*
G01*
%TO.N,Net-(D1B-K)*%
X99103404Y-103663388D02*
X99223404Y-104613388D01*
X102417436Y-102830317D02*
X102587436Y-102535869D01*
X99810936Y-102664907D02*
X99787898Y-102824810D01*
X106854519Y-100351574D02*
X108199519Y-102681183D01*
%TO.N,unconnected-(U2-SENSEU-Pad4)*%
X115800487Y-90154107D02*
X115355166Y-90370368D01*
%TO.N,Net-(D1B-K)*%
X104488404Y-104678388D02*
X103487562Y-104675750D01*
%TO.N,unconnected-(U2-SENSEU-Pad4)*%
X119871533Y-91133088D02*
G75*
G02*
X121128439Y-89416910I1799967J88D01*
G01*
X121086104Y-82318117D02*
G75*
G02*
X122286104Y-82318117I600000J0D01*
G01*
X121671533Y-88533088D02*
G75*
G02*
X124271612Y-91133088I67J-2600012D01*
G01*
X110508699Y-91131875D02*
G75*
G02*
X108508699Y-91131875I-1000000J0D01*
G01*
%TO.N,Net-(D1B-K)*%
X103828404Y-101812069D02*
X104168404Y-101812069D01*
X104378404Y-104878388D02*
X103598404Y-104878388D01*
%TO.N,unconnected-(U2-SENSEU-Pad4)*%
X121513339Y-83505874D02*
X121987813Y-83271517D01*
X124271533Y-91133088D02*
G75*
G02*
X119071533Y-91133088I-2600000J0D01*
G01*
%TO.N,Net-(D1B-K)*%
X107942649Y-104473002D02*
X106675022Y-104468598D01*
X101251562Y-106819604D02*
X102571100Y-104545111D01*
%TO.N,unconnected-(U2-SENSEU-Pad4)*%
X108108699Y-91131875D02*
G75*
G02*
X109086313Y-89797137I1400001J-25D01*
G01*
%TO.N,Net-(D1B-K)*%
X106028404Y-107738388D02*
X104378404Y-104878388D01*
X99419526Y-102542849D02*
X100839526Y-100083337D01*
%TO.N,unconnected-(U2-SENSEU-Pad4)*%
X122671533Y-91133088D02*
G75*
G02*
X120671533Y-91133088I-1000000J0D01*
G01*
%TO.N,Net-(D1B-K)*%
X108377724Y-102589843D02*
X108451217Y-103217138D01*
%TO.N,unconnected-(U2-SENSEU-Pad4)*%
X120871533Y-91133088D02*
G75*
G02*
X121430148Y-90370310I799967J88D01*
G01*
X121800216Y-89739018D02*
G75*
G02*
X123071602Y-91133088I-128616J-1394082D01*
G01*
X116596533Y-91133088D02*
G75*
G02*
X114596533Y-91133088I-1000000J0D01*
G01*
%TO.N,Net-(D1B-K)*%
X108190855Y-104443098D02*
X108213893Y-104283194D01*
X101435938Y-107693677D02*
X103255715Y-104530899D01*
X102588404Y-99272069D02*
X102228404Y-99422069D01*
%TO.N,unconnected-(U2-SENSEU-Pad4)*%
X122886104Y-82293117D02*
G75*
G02*
X122048238Y-83462458I-1199904J-25083D01*
G01*
%TO.N,Net-(D1B-K)*%
X106507553Y-107258661D02*
X104957945Y-104562662D01*
%TO.N,unconnected-(U2-SENSEU-Pad4)*%
X123071529Y-91133088D02*
G75*
G02*
X120271533Y-91133088I-1399998J-1D01*
G01*
X109743968Y-90367252D02*
G75*
G02*
X110308748Y-91131875I-235368J-764748D01*
G01*
X109508699Y-88531875D02*
X108784597Y-88843715D01*
%TO.N,Net-(D1B-K)*%
X102668404Y-99472069D02*
X105358404Y-99472069D01*
X99224027Y-102486740D02*
X100814027Y-99732779D01*
%TO.N,unconnected-(U2-SENSEU-Pad4)*%
X109508699Y-89131875D02*
G75*
G02*
X111508725Y-91131875I-99J-2000125D01*
G01*
X121188799Y-89607650D02*
X121671534Y-89333088D01*
%TO.N,Net-(D1B-K)*%
X102578404Y-99072069D02*
X105418404Y-99072069D01*
%TO.N,unconnected-(U2-SENSEU-Pad4)*%
X113596533Y-91133088D02*
G75*
G02*
X114993097Y-89226230I1999967J88D01*
G01*
X122486104Y-82318117D02*
G75*
G02*
X121927454Y-83080782I-799804J-83D01*
G01*
%TO.N,Net-(D1B-K)*%
X101375677Y-107394578D02*
X103027510Y-104535636D01*
X99123116Y-103421522D02*
X102772051Y-103416106D01*
X105643404Y-98443388D02*
X105473404Y-98873388D01*
%TO.N,unconnected-(U2-SENSEU-Pad4)*%
X121671533Y-88333088D02*
X120887089Y-88654248D01*
X114196533Y-91133088D02*
G75*
G02*
X115174143Y-89798336I1399867J88D01*
G01*
%TO.N,Net-(D1B-K)*%
X101933404Y-108843388D02*
G75*
G02*
X105261653Y-97980805I2059996J5309998D01*
G01*
X108454156Y-104087047D02*
X105466150Y-104082425D01*
%TO.N,unconnected-(U2-SENSEU-Pad4)*%
X109025965Y-89606437D02*
X109508700Y-89331875D01*
X121686104Y-84718117D02*
G75*
G02*
X119286083Y-82318117I-104J2399917D01*
G01*
X123871533Y-91133088D02*
G75*
G02*
X119471533Y-91133088I-2200000J0D01*
G01*
X120071533Y-91133088D02*
G75*
G02*
X121188801Y-89607657I1599867J88D01*
G01*
%TO.N,Net-(D1B-K)*%
X102583404Y-108213388D02*
X102423404Y-108173388D01*
X106218404Y-99432069D02*
X104499246Y-102414707D01*
%TO.N,unconnected-(U2-SENSEU-Pad4)*%
X109712653Y-90152894D02*
G75*
G02*
X110508645Y-91131875I-204053J-979006D01*
G01*
X107308699Y-91131875D02*
G75*
G02*
X108844946Y-89034417I2200001J-25D01*
G01*
%TO.N,Net-(D1B-K)*%
X102038404Y-107568388D02*
X103598404Y-104878388D01*
%TO.N,unconnected-(U2-SENSEU-Pad4)*%
X115769298Y-89945331D02*
X115294824Y-90179688D01*
X121875487Y-90154107D02*
G75*
G02*
X122671599Y-91133088I-203887J-978993D01*
G01*
%TO.N,Net-(D1B-K)*%
X101669246Y-99254707D02*
X103498404Y-102412069D01*
X102772051Y-103416106D02*
X103274757Y-102550670D01*
%TO.N,unconnected-(U2-SENSEU-Pad4)*%
X110308699Y-91131875D02*
G75*
G02*
X108708699Y-91131875I-800000J0D01*
G01*
X122686104Y-82318117D02*
G75*
G02*
X121987801Y-83271480I-1000104J117D01*
G01*
%TO.N,Net-(D1B-K)*%
X104268404Y-105078388D02*
X103708404Y-105078388D01*
%TO.N,unconnected-(U2-SENSEU-Pad4)*%
X107708699Y-91131875D02*
G75*
G02*
X108965622Y-89415753I1799901J75D01*
G01*
%TO.N,Net-(D1B-K)*%
X106756314Y-100581478D02*
X108051314Y-102824484D01*
%TO.N,unconnected-(U2-SENSEU-Pad4)*%
X123086104Y-82318117D02*
G75*
G02*
X122108500Y-83652889I-1399904J-83D01*
G01*
X121686104Y-84718117D02*
X122349864Y-84415597D01*
%TO.N,Net-(D1B-K)*%
X99810936Y-102664907D02*
X101155936Y-100335298D01*
%TO.N,unconnected-(U2-SENSEU-Pad4)*%
X109575308Y-89533266D02*
G75*
G02*
X111108725Y-91131875I-66708J-1598734D01*
G01*
X123686104Y-82318117D02*
G75*
G02*
X122289505Y-84224862I-1999804J-83D01*
G01*
%TO.N,Net-(D1B-K)*%
X107302270Y-99932379D02*
X108753404Y-102443388D01*
%TO.N,unconnected-(U2-SENSEU-Pad4)*%
X115831802Y-90368465D02*
G75*
G02*
X116396592Y-91133088I-235202J-764635D01*
G01*
%TO.N,Net-(D1B-K)*%
X108051314Y-102824484D02*
X105578019Y-102820612D01*
X99527902Y-103854137D02*
X102637510Y-103860136D01*
%TO.N,unconnected-(U2-SENSEU-Pad4)*%
X121482150Y-83297098D02*
X121927471Y-83080837D01*
%TO.N,Net-(D1B-K)*%
X103027510Y-104535636D02*
X102637510Y-103860136D01*
%TO.N,unconnected-(U2-SENSEU-Pad4)*%
X109508699Y-88731875D02*
G75*
G02*
X111908725Y-91131875I-99J-2400125D01*
G01*
%TO.N,Net-(D1B-K)*%
X108404060Y-104473816D02*
X107014060Y-106881366D01*
%TO.N,unconnected-(U2-SENSEU-Pad4)*%
X109575308Y-89533266D02*
X109086307Y-89797117D01*
X121844298Y-89945331D02*
G75*
G02*
X122871786Y-91133088I-172898J-1187869D01*
G01*
%TO.N,Net-(D1B-K)*%
X107155929Y-100073632D02*
X108575929Y-102533144D01*
%TO.N,unconnected-(U2-SENSEU-Pad4)*%
X121686104Y-84518117D02*
X122289522Y-84224917D01*
%TO.N,Net-(D1B-K)*%
X107155929Y-100073632D02*
X106603442Y-99676696D01*
%TO.N,unconnected-(U2-SENSEU-Pad4)*%
X115596533Y-88933088D02*
G75*
G02*
X117796612Y-91133088I67J-2200012D01*
G01*
X109681464Y-89944118D02*
G75*
G02*
X110708994Y-91131875I-172864J-1187882D01*
G01*
%TO.N,Net-(D1B-K)*%
X105408404Y-108018388D02*
X102568404Y-108018388D01*
X105584355Y-104277687D02*
X105414355Y-104572136D01*
%TO.N,unconnected-(U2-SENSEU-Pad4)*%
X112108699Y-91131875D02*
G75*
G02*
X106908699Y-91131875I-2600000J0D01*
G01*
%TO.N,Net-(D1B-K)*%
X99787898Y-102824810D02*
X102417436Y-102830317D01*
X101428520Y-100123170D02*
X102815641Y-102540606D01*
X101663404Y-107843388D02*
X101435938Y-107693677D01*
%TO.N,unconnected-(U2-SENSEU-Pad4)*%
X121671533Y-88933088D02*
X121068115Y-89226288D01*
X111708699Y-91131875D02*
G75*
G02*
X107308699Y-91131875I-2200000J0D01*
G01*
%TO.N,Net-(D1B-K)*%
X102578404Y-107418388D02*
X103818404Y-105278388D01*
%TO.N,unconnected-(U2-SENSEU-Pad4)*%
X115769298Y-89945331D02*
G75*
G02*
X116796786Y-91133088I-172898J-1187869D01*
G01*
X114396533Y-91158088D02*
G75*
G02*
X115234414Y-89988793I1199967J24988D01*
G01*
%TO.N,Net-(D1B-K)*%
X99779600Y-104390092D02*
X99732184Y-104047964D01*
X106727557Y-100251671D02*
X105408019Y-102526164D01*
X106677820Y-99945523D02*
X105179814Y-102530901D01*
%TO.N,unconnected-(U2-SENSEU-Pad4)*%
X124071533Y-91133088D02*
G75*
G02*
X119271533Y-91133088I-2400000J0D01*
G01*
X110108699Y-91131875D02*
G75*
G02*
X108908699Y-91131875I-600000J0D01*
G01*
%TO.N,Net-(D1B-K)*%
X105368404Y-99272069D02*
X105948404Y-99522069D01*
X100676849Y-107138896D02*
X99223404Y-104613388D01*
X108664160Y-103405965D02*
X105221540Y-103408449D01*
X102653846Y-103220843D02*
X103043846Y-102545343D01*
%TO.N,unconnected-(U2-SENSEU-Pad4)*%
X109637382Y-89737805D02*
G75*
G02*
X110908730Y-91131875I-128782J-1394195D01*
G01*
%TO.N,Net-(D1B-K)*%
X108190855Y-104443098D02*
X106845855Y-106772706D01*
%TO.N,unconnected-(U2-SENSEU-Pad4)*%
X124286104Y-82318117D02*
G75*
G02*
X122470536Y-84796920I-2600104J117D01*
G01*
%TO.N,Net-(D1B-K)*%
X106987724Y-100182292D02*
X108377724Y-102589843D01*
X102529246Y-98874707D02*
X105473404Y-98873388D01*
%TO.N,unconnected-(U2-SENSEU-Pad4)*%
X121906802Y-90368465D02*
X121490508Y-90561050D01*
%TO.N,Net-(D1B-K)*%
X105318404Y-107618388D02*
X105468404Y-107558388D01*
X99352013Y-103219785D02*
X102653846Y-103220843D01*
%TO.N,unconnected-(U2-SENSEU-Pad4)*%
X116996529Y-91133088D02*
G75*
G02*
X114196533Y-91133088I-1399998J-1D01*
G01*
X109508699Y-89131875D02*
X108965623Y-89415755D01*
%TO.N,Net-(D1B-K)*%
X101551295Y-99570516D02*
X103274757Y-102550670D01*
X108451217Y-103217138D02*
X105341609Y-103211138D01*
X102228404Y-99422069D02*
X103718404Y-102012069D01*
X105358404Y-99472069D02*
X105678404Y-99602069D01*
%TO.N,unconnected-(U2-SENSEU-Pad4)*%
X115596533Y-88533088D02*
G75*
G02*
X118196612Y-91133088I67J-2600012D01*
G01*
X120485848Y-82318117D02*
G75*
G02*
X122886090Y-82293117I1200252J-83D01*
G01*
%TO.N,Net-(D1B-K)*%
X107014060Y-106881366D02*
X106507553Y-107258661D01*
X99123116Y-103421522D02*
X99224027Y-102486740D01*
X105168404Y-107418388D02*
X102578404Y-107418388D01*
X108575929Y-102533144D02*
X108664160Y-103405965D01*
%TO.N,unconnected-(U2-SENSEU-Pad4)*%
X120471533Y-91158088D02*
G75*
G02*
X121309414Y-89988793I1199967J24988D01*
G01*
X115596533Y-88933088D02*
X114993115Y-89226288D01*
%TO.N,Net-(D1B-K)*%
X99732184Y-104047964D02*
X102519305Y-104055399D01*
X100823190Y-106997642D02*
X101375677Y-107394578D01*
X105261654Y-97980799D02*
X105643404Y-98443388D01*
%TO.N,unconnected-(U2-SENSEU-Pad4)*%
X121671534Y-89333088D02*
G75*
G02*
X123471612Y-91133088I66J-1800012D01*
G01*
%TO.N,Net-(D1B-K)*%
X100991395Y-106888982D02*
X101301299Y-107125751D01*
X102423404Y-108173388D02*
X101663404Y-107843388D01*
%TO.N,unconnected-(U2-SENSEU-Pad4)*%
X122871789Y-91133088D02*
G75*
G02*
X120471473Y-91158089I-1200289J88D01*
G01*
%TO.N,Net-(D1B-K)*%
X106543181Y-99377597D02*
X104723404Y-102540375D01*
%TO.N,unconnected-(U2-SENSEU-Pad4)*%
X109681464Y-89944118D02*
X109206990Y-90178475D01*
X123471533Y-91133088D02*
G75*
G02*
X119871533Y-91133088I-1800000J0D01*
G01*
%TO.N,Net-(D1B-K)*%
X101124600Y-106719700D02*
X101251562Y-106819604D01*
%TO.N,unconnected-(U2-SENSEU-Pad4)*%
X121671533Y-88733088D02*
X121007773Y-89035608D01*
%TO.N,Net-(D1B-K)*%
X106845855Y-106772706D02*
X106573271Y-106984834D01*
%TO.N,unconnected-(U2-SENSEU-Pad4)*%
X121844298Y-89945331D02*
X121369824Y-90179688D01*
X121738142Y-89534479D02*
X121249141Y-89798330D01*
%TO.N,Net-(D1B-K)*%
X103718404Y-102012069D02*
X104278404Y-102012069D01*
X107162265Y-107024668D02*
X106450496Y-107537488D01*
X105229740Y-103691899D02*
X104727034Y-104557335D01*
%TO.N,unconnected-(U2-SENSEU-Pad4)*%
X115596533Y-89133088D02*
X115053457Y-89416968D01*
%TO.N,Net-(D1B-K)*%
X102799305Y-104540373D02*
X102519305Y-104055399D01*
X105179814Y-102530901D02*
X105459814Y-103015875D01*
X106573271Y-106984834D02*
X105186150Y-104567399D01*
X108213893Y-104283194D02*
X105584355Y-104277687D01*
X107942649Y-104473002D02*
X106647649Y-106716007D01*
X108199519Y-102681183D02*
X108246935Y-103023311D01*
X108753404Y-102443388D02*
X109233404Y-102403388D01*
%TO.N,unconnected-(U2-SENSEU-Pad4)*%
X113796533Y-91133088D02*
G75*
G02*
X115053439Y-89416910I1799967J88D01*
G01*
%TO.N,Net-(D1B-K)*%
X102588404Y-99272069D02*
X105368404Y-99272069D01*
X102818404Y-99672069D02*
X105408404Y-99672069D01*
%TO.N,unconnected-(U2-SENSEU-Pad4)*%
X121450835Y-83082740D02*
X121867129Y-82890155D01*
%TO.N,Net-(D1B-K)*%
X101124600Y-106719700D02*
X99779600Y-104390092D01*
%TO.N,unconnected-(U2-SENSEU-Pad4)*%
X110708955Y-91131875D02*
G75*
G02*
X108308705Y-91156875I-1200255J-25D01*
G01*
X112996533Y-91133088D02*
G75*
G02*
X114812071Y-88654190I2599967J88D01*
G01*
X121557421Y-83712187D02*
G75*
G02*
X120286178Y-82318117I128779J1394087D01*
G01*
%TO.N,Net-(D1B-K)*%
X101222806Y-106489796D02*
X101860433Y-105394200D01*
%TO.N,unconnected-(U2-SENSEU-Pad4)*%
X121686104Y-84318117D02*
G75*
G02*
X119686183Y-82318117I-4J1999917D01*
G01*
%TO.N,Net-(D1B-K)*%
X101958404Y-99352069D02*
X103608404Y-102212069D01*
X105318404Y-107618388D02*
X102628404Y-107618388D01*
%TO.N,unconnected-(U2-SENSEU-Pad4)*%
X115831802Y-90368465D02*
X115415508Y-90561050D01*
%TO.N,Net-(D1B-K)*%
X107393404Y-107033388D02*
X107603404Y-107533388D01*
X108777764Y-104621264D02*
X107393404Y-107033388D01*
X104723404Y-102540375D02*
X105221540Y-103408449D01*
X104158404Y-105278388D02*
X103818404Y-105278388D01*
X105347945Y-103887162D02*
X104957945Y-104562662D01*
X108878675Y-103686483D02*
X108777764Y-104621264D01*
X106603442Y-99676696D02*
X104951609Y-102535638D01*
%TO.N,unconnected-(U2-SENSEU-Pad4)*%
X109743968Y-90367252D02*
X109327674Y-90559837D01*
X123271529Y-91133088D02*
G75*
G02*
X120071533Y-91133088I-1599998J-1D01*
G01*
%TO.N,Net-(D1B-K)*%
X102668404Y-99472069D02*
X102518404Y-99532069D01*
%TO.N,unconnected-(U2-SENSEU-Pad4)*%
X115725216Y-89739018D02*
G75*
G02*
X116996602Y-91133088I-128616J-1394082D01*
G01*
X109508700Y-89331875D02*
G75*
G02*
X111308725Y-91131875I-100J-1800125D01*
G01*
%TO.N,Net-(D1B-K)*%
X100991395Y-106888982D02*
X99601395Y-104481432D01*
X101494238Y-99849343D02*
X103043846Y-102545343D01*
%TO.N,unconnected-(U2-SENSEU-Pad4)*%
X116796789Y-91133088D02*
G75*
G02*
X114396473Y-91158089I-1200289J88D01*
G01*
X109637382Y-89737805D02*
X109146570Y-89987549D01*
%TO.N,Net-(D1B-K)*%
X99123116Y-103421522D02*
X99103404Y-103663388D01*
%TO.N,unconnected-(U2-SENSEU-Pad4)*%
X123286104Y-82318117D02*
G75*
G02*
X122168842Y-83843569I-1599904J-83D01*
G01*
X121686104Y-84918117D02*
X122410206Y-84606277D01*
X115800487Y-90154107D02*
G75*
G02*
X116596599Y-91133088I-203887J-978993D01*
G01*
X121800216Y-89739018D02*
X121309404Y-89988762D01*
%TO.N,Net-(D1B-K)*%
X108582265Y-104565156D02*
X108649778Y-103888220D01*
X101669246Y-99254707D02*
X102529246Y-98874707D01*
%TO.N,unconnected-(U2-SENSEU-Pad4)*%
X117596533Y-91133088D02*
G75*
G02*
X113596533Y-91133088I-2000000J0D01*
G01*
X109508699Y-88531875D02*
G75*
G02*
X112108725Y-91131875I-99J-2600125D01*
G01*
X119686104Y-82318117D02*
G75*
G02*
X123686104Y-82318117I2000000J0D01*
G01*
%TO.N,Net-(D1B-K)*%
X108246935Y-103023311D02*
X105459814Y-103015875D01*
X103255715Y-104530899D02*
X102757579Y-103662825D01*
X102308404Y-107488388D02*
X103708404Y-105078388D01*
X106987724Y-100182292D02*
X106677820Y-99945523D01*
X106543181Y-99377597D02*
X107302270Y-99932379D01*
X102353404Y-108643388D02*
X101933404Y-108843388D01*
X105398404Y-107818388D02*
X102618404Y-107818388D01*
%TO.N,unconnected-(U2-SENSEU-Pad4)*%
X109712653Y-90152894D02*
X109267332Y-90369155D01*
%TO.N,Net-(D1B-K)*%
X108649778Y-103888220D02*
X105347945Y-103887162D01*
X105168404Y-107418388D02*
X104538404Y-106318388D01*
%TO.N,unconnected-(U2-SENSEU-Pad4)*%
X108508699Y-91131875D02*
G75*
G02*
X109206989Y-90178473I999901J75D01*
G01*
%TO.N,Net-(D1B-K)*%
X105468404Y-107558388D02*
X104158404Y-105278388D01*
%TO.N,unconnected-(U2-SENSEU-Pad4)*%
X113196533Y-91133088D02*
G75*
G02*
X114872413Y-88844870I2399967J88D01*
G01*
X123671533Y-91133088D02*
G75*
G02*
X119671533Y-91133088I-2000000J0D01*
G01*
X106908699Y-91131875D02*
G75*
G02*
X108724254Y-88653033I2599901J75D01*
G01*
X115596533Y-88733088D02*
X114932773Y-89035608D01*
%TO.N,Net-(D1B-K)*%
X102535641Y-103025580D02*
X102815641Y-102540606D01*
%TO.N,unconnected-(U2-SENSEU-Pad4)*%
X111308699Y-91131875D02*
G75*
G02*
X107708699Y-91131875I-1800000J0D01*
G01*
%TO.N,Net-(D1B-K)*%
X101301299Y-107125751D02*
X102799305Y-104540373D01*
%TO.N,unconnected-(U2-SENSEU-Pad4)*%
X109508699Y-88931875D02*
G75*
G02*
X111708725Y-91131875I-99J-2200125D01*
G01*
%TO.N,Net-(D1B-K)*%
X99597731Y-102634189D02*
X100987731Y-100226638D01*
%TO.N,unconnected-(U2-SENSEU-Pad4)*%
X124086104Y-82318117D02*
G75*
G02*
X122410194Y-84606240I-2400104J117D01*
G01*
X121686104Y-85118117D02*
X122470548Y-84796957D01*
X109508699Y-88931875D02*
X108905281Y-89225075D01*
X121671533Y-88933088D02*
G75*
G02*
X123871612Y-91133088I67J-2200012D01*
G01*
X109508699Y-88731875D02*
X108844939Y-89034395D01*
%TO.N,Net-(D1B-K)*%
X100059141Y-102635003D02*
X101326769Y-102639407D01*
X100839526Y-100083337D02*
X101551295Y-99570516D01*
%TO.N,unconnected-(U2-SENSEU-Pad4)*%
X121071533Y-91133088D02*
G75*
G02*
X121490510Y-90561057I599867J88D01*
G01*
%TO.N,Net-(D1B-K)*%
X105408019Y-102526164D02*
X105578019Y-102820612D01*
%TO.N,unconnected-(U2-SENSEU-Pad4)*%
X114796533Y-91133088D02*
G75*
G02*
X115355148Y-90370310I799967J88D01*
G01*
X121557421Y-83712187D02*
X122048233Y-83462443D01*
X118196533Y-91133088D02*
G75*
G02*
X112996533Y-91133088I-2600000J0D01*
G01*
X116396533Y-91133088D02*
G75*
G02*
X114796533Y-91133088I-800000J0D01*
G01*
%TO.N,Net-(D1B-K)*%
X105418404Y-99072069D02*
X106218404Y-99432069D01*
%TO.N,unconnected-(U2-SENSEU-Pad4)*%
X117796533Y-91133088D02*
G75*
G02*
X113396533Y-91133088I-2200000J0D01*
G01*
X114996533Y-91133088D02*
G75*
G02*
X115415510Y-90561057I599867J88D01*
G01*
X122286104Y-82318117D02*
G75*
G02*
X121867133Y-82890169I-599904J-83D01*
G01*
X121671533Y-88733088D02*
G75*
G02*
X124071612Y-91133088I67J-2400012D01*
G01*
X122271533Y-91133088D02*
G75*
G02*
X121071533Y-91133088I-600000J0D01*
G01*
%TO.N,Net-(D1B-K)*%
X102818404Y-99672069D02*
X103448404Y-100772069D01*
%TO.N,unconnected-(U2-SENSEU-Pad4)*%
X119086104Y-82318117D02*
G75*
G02*
X124286104Y-82318117I2600000J0D01*
G01*
%TO.N,Net-(D1B-K)*%
X101155936Y-100335298D02*
X101428520Y-100123170D01*
%TO.N,unconnected-(U2-SENSEU-Pad4)*%
X119471533Y-91133088D02*
G75*
G02*
X121007755Y-89035550I2199967J88D01*
G01*
%TO.N,Net-(D1B-K)*%
X106647649Y-106716007D02*
X105414355Y-104572136D01*
%TO.N,unconnected-(U2-SENSEU-Pad4)*%
X121619495Y-83916726D02*
X122108496Y-83652875D01*
X115113799Y-89607650D02*
X115596534Y-89333088D01*
%TO.N,Net-(D1B-K)*%
X105408404Y-108018388D02*
X106028404Y-107738388D01*
%TO.N,unconnected-(U2-SENSEU-Pad4)*%
X115596533Y-88533088D02*
X114872431Y-88844928D01*
X119271533Y-91133088D02*
G75*
G02*
X120947413Y-88844870I2399967J88D01*
G01*
X108308699Y-91156875D02*
G75*
G02*
X109146576Y-89987569I1200001J24975D01*
G01*
X117396533Y-91133088D02*
G75*
G02*
X113796533Y-91133088I-1800000J0D01*
G01*
%TO.N,Net-(D1B-K)*%
X102571100Y-104545111D02*
X102401100Y-104250662D01*
%TO.N,unconnected-(U2-SENSEU-Pad4)*%
X119886104Y-82318117D02*
G75*
G02*
X123486104Y-82318117I1800000J0D01*
G01*
%TO.N,Net-(D1B-K)*%
X105457562Y-108215750D02*
X102583404Y-108213388D01*
X101222806Y-106489796D02*
X99927806Y-104246791D01*
%TO.N,unconnected-(U2-SENSEU-Pad4)*%
X111908699Y-91131875D02*
G75*
G02*
X107108699Y-91131875I-2400000J0D01*
G01*
X121671533Y-88533088D02*
X120947431Y-88844928D01*
X115725216Y-89739018D02*
X115234404Y-89988762D01*
X119486104Y-82318117D02*
G75*
G02*
X123886104Y-82318117I2200000J0D01*
G01*
X120086108Y-82318117D02*
G75*
G02*
X123286104Y-82318117I1599998J1D01*
G01*
%TO.N,Net-(D1B-K)*%
X106854519Y-100351574D02*
X106727557Y-100251671D01*
%TO.N,unconnected-(U2-SENSEU-Pad4)*%
X121671533Y-89133088D02*
X121128457Y-89416968D01*
%TO.N,Net-(D1B-K)*%
X99927806Y-104246791D02*
X102401100Y-104250662D01*
X100059141Y-102635003D02*
X101354141Y-100391997D01*
%TO.N,unconnected-(U2-SENSEU-Pad4)*%
X121686104Y-84918117D02*
G75*
G02*
X119086183Y-82318117I-4J2599917D01*
G01*
%TO.N,Net-(D1B-K)*%
X101354141Y-100391997D02*
X102587436Y-102535869D01*
%TO.N,unconnected-(U2-SENSEU-Pad4)*%
X123486104Y-82318117D02*
G75*
G02*
X122229168Y-84034200I-1800104J117D01*
G01*
X119071533Y-91133088D02*
G75*
G02*
X120887071Y-88654190I2599967J88D01*
G01*
X121482150Y-83297098D02*
G75*
G02*
X120686084Y-82318117I203950J978998D01*
G01*
X115663142Y-89534479D02*
G75*
G02*
X117196605Y-91133088I-66542J-1598621D01*
G01*
%TO.N,Net-(D1B-K)*%
X99547635Y-103020958D02*
X102535641Y-103025580D01*
X106450496Y-107537488D02*
X104727034Y-104557335D01*
%TO.N,unconnected-(U2-SENSEU-Pad4)*%
X108908699Y-91131875D02*
G75*
G02*
X109327680Y-90559857I600001J-25D01*
G01*
%TO.N,Net-(D1B-K)*%
X100823190Y-106997642D02*
X99403190Y-104538130D01*
X106317562Y-107835750D02*
X104488404Y-104678388D01*
X108404060Y-104473816D02*
X108454156Y-104087047D01*
X99419526Y-102542849D02*
X99352013Y-103219785D01*
%TO.N,unconnected-(U2-SENSEU-Pad4)*%
X120286108Y-82318117D02*
G75*
G02*
X123086104Y-82318117I1399998J1D01*
G01*
X109508699Y-88331875D02*
X108724255Y-88653035D01*
X114596533Y-91133088D02*
G75*
G02*
X115294806Y-90179630I999967J88D01*
G01*
X121906802Y-90368465D02*
G75*
G02*
X122471592Y-91133088I-235202J-764635D01*
G01*
%TO.N,Net-(D1B-K)*%
X101768404Y-107658388D02*
X103487562Y-104675750D01*
%TD*%
D11*
%TO.N,N/C*%
%TO.C,REF\u002A\u002A*%
X141075000Y-98247500D03*
D12*
X141075000Y-100787500D03*
%TO.N,Net-(D1C-K)*%
X141075000Y-103327500D03*
X141075000Y-105867500D03*
X141075000Y-108407500D03*
%TD*%
D11*
%TO.N,+5V*%
%TO.C,REF\u002A\u002A*%
X139405000Y-126750000D03*
D12*
%TO.N,GND2*%
X139405000Y-124210000D03*
%TD*%
D11*
%TO.N,EN*%
%TO.C,REF\u002A\u002A*%
X120382500Y-114787500D03*
D12*
%TO.N,FAULT*%
X117842500Y-114787500D03*
%TO.N,STBY*%
X115302500Y-114787500D03*
%TO.N,~{SHDN}*%
X112762500Y-114787500D03*
%TO.N,EN_U*%
X110222500Y-114787500D03*
%TD*%
D11*
%TO.N,Net-(D10-K)*%
%TO.C,REF\u002A\u002A*%
X117305000Y-124305000D03*
D12*
%TO.N,Net-(D7-A)*%
X117305000Y-126845000D03*
%TD*%
D11*
%TO.N,N/C*%
%TO.C,REF\u002A\u002A*%
X127075000Y-98247500D03*
D12*
X127075000Y-100787500D03*
%TO.N,Net-(D1C-K)*%
X127075000Y-103327500D03*
X127075000Y-105867500D03*
X127075000Y-108407500D03*
%TD*%
D11*
%TO.N,Net-(Q3-C)*%
%TO.C,REF\u002A\u002A*%
X94870000Y-119145000D03*
D12*
%TO.N,+9V*%
X97410000Y-119145000D03*
%TD*%
D11*
%TO.N,Net-(C14-Pad1)*%
%TO.C,REF\u002A\u002A*%
X112735000Y-119105000D03*
%TD*%
%TO.N,Net-(C16-Pad1)*%
%TO.C,REF\u002A\u002A*%
X103640000Y-119145000D03*
D12*
%TO.N,+9V*%
X101100000Y-119145000D03*
%TD*%
D11*
%TO.N,3.3V*%
%TO.C,REF\u002A\u002A*%
X135325000Y-119578750D03*
D12*
%TO.N,Net-(Q1-C)*%
X137865000Y-119578750D03*
%TD*%
D11*
%TO.N,IN_W*%
%TO.C,REF\u002A\u002A*%
X120382500Y-112257500D03*
D12*
%TO.N,EN_W*%
X117842500Y-112257500D03*
%TO.N,IN_V*%
X115302500Y-112257500D03*
%TO.N,EN_V*%
X112762500Y-112257500D03*
%TO.N,IN_U*%
X110222500Y-112257500D03*
%TD*%
D11*
%TO.N,Net-(D3-A)*%
%TO.C,REF\u002A\u002A*%
X123315000Y-119095000D03*
%TD*%
%TO.N,GND*%
%TO.C,REF\u002A\u002A*%
X106522500Y-114777500D03*
D12*
%TO.N,Net-(J1-Pin_1)*%
X103982500Y-114777500D03*
%TO.N,Net-(J1-Pin_2)*%
X101442500Y-114777500D03*
%TO.N,Net-(J1-Pin_3)*%
X98902500Y-114777500D03*
%TO.N,3.3V*%
X96362500Y-114777500D03*
%TD*%
D13*
%TO.N,GND4*%
X94960000Y-93515000D03*
X101010000Y-93465000D03*
D14*
%TO.N,*%
X103688404Y-100322069D03*
X106944733Y-104901444D03*
D15*
X127617276Y-80044006D03*
D14*
X104028404Y-106298388D03*
D15*
X135317276Y-86274006D03*
D14*
X106402701Y-104900271D03*
D15*
X127817276Y-86249006D03*
D14*
X102347562Y-108645750D03*
D15*
X127829776Y-82499006D03*
D14*
X101311917Y-98959856D03*
X103718404Y-106758388D03*
D15*
X131377276Y-80044006D03*
X131650000Y-99802500D03*
D14*
X100406636Y-99578401D03*
D15*
X141585000Y-90065000D03*
D14*
X101350722Y-105411354D03*
D15*
X141645000Y-86065000D03*
D14*
X107595155Y-107529603D03*
X101069382Y-104904060D03*
D15*
X131567276Y-86274006D03*
D14*
X106132373Y-98676072D03*
X100853567Y-99267023D03*
X109229661Y-102410718D03*
X98666423Y-103567288D03*
D15*
X131579776Y-93774006D03*
D14*
X103958404Y-100792069D03*
D15*
X141655000Y-82335000D03*
D14*
X101057058Y-102206561D03*
D15*
X135329776Y-90024006D03*
X139067276Y-86274006D03*
X131579776Y-82524006D03*
D14*
X109312696Y-103503987D03*
D15*
X135329776Y-82524006D03*
D14*
X106628397Y-101659920D03*
X101359246Y-108171026D03*
X101854435Y-108414385D03*
X98749458Y-104660557D03*
X106909737Y-102167215D03*
X101599090Y-102207734D03*
D15*
X139079776Y-93774006D03*
D14*
X98703262Y-104117814D03*
D15*
X127829776Y-93749006D03*
D14*
X106627562Y-98919431D03*
D15*
X139079776Y-90024006D03*
D14*
X104268404Y-100332069D03*
X107148224Y-107840981D03*
D15*
X127829776Y-89999006D03*
D14*
X131408118Y-105098669D03*
X109275857Y-102953461D03*
D15*
X135329776Y-93774006D03*
D14*
X104298404Y-106768388D03*
D15*
X141575000Y-94055000D03*
D14*
X101355718Y-101709266D03*
X136669975Y-104627846D03*
X106356365Y-102128747D03*
X106689874Y-108148148D03*
D15*
X131579776Y-90024006D03*
X139037276Y-80034006D03*
D14*
X106646073Y-105398738D03*
X101622754Y-104942527D03*
D15*
X136475000Y-99827500D03*
X135187276Y-80054006D03*
D14*
X105625641Y-98415580D03*
D15*
X139079776Y-82524006D03*
D14*
%TO.N,GND*%
X109542500Y-109977500D03*
X115472500Y-100797500D03*
X121500000Y-99597500D03*
D13*
X113183698Y-93581875D03*
D14*
X116675641Y-99595580D03*
X112412500Y-101677500D03*
D13*
X119283698Y-93531875D03*
D14*
%TO.N,V_Mot<5V*%
X112332500Y-100237500D03*
X117662500Y-103337500D03*
%TO.N,Net-(D1C-K)*%
X131400288Y-104527500D03*
X115082500Y-104647500D03*
X136098806Y-104635676D03*
%TO.N,Net-(D1B-K)*%
X99535641Y-106185580D03*
X115072500Y-103997500D03*
%TO.N,Net-(D1A-K)*%
X115092500Y-103347500D03*
D13*
%TO.N,IN_W*%
X116222500Y-97657500D03*
D14*
%TO.N,EN_V*%
X118648195Y-101154508D03*
D13*
%TO.N,unconnected-(U2-SENSEU-Pad4)*%
X114435000Y-87655000D03*
D14*
X108230000Y-85847327D03*
D13*
X103415189Y-82332155D03*
X115583678Y-82331892D03*
X96045000Y-87655000D03*
D14*
X122948511Y-87606594D03*
D13*
X110855000Y-85925000D03*
X115588322Y-91121766D03*
X121669811Y-91122047D03*
X109494811Y-91122047D03*
X97326300Y-91122328D03*
D14*
X110773511Y-87606594D03*
D13*
X109508700Y-82331874D03*
D14*
X104698511Y-87606594D03*
X114305000Y-85847327D03*
D13*
X121677211Y-82331593D03*
X123055000Y-85825000D03*
D14*
X96055000Y-85847327D03*
X102136489Y-85847608D03*
D13*
X102135000Y-87615000D03*
X97333700Y-82331874D03*
X103419811Y-91122047D03*
X108295000Y-87625000D03*
X116845000Y-85845000D03*
D14*
X120398511Y-85847046D03*
X98605000Y-87606875D03*
X116867022Y-87606313D03*
D13*
X120485000Y-87625000D03*
D14*
%TO.N,EN_U*%
X116362500Y-102437500D03*
%TO.N,STBY*%
X118892500Y-98767500D03*
D13*
%TO.N,EN_W*%
X117032500Y-97667500D03*
D14*
%TO.N,IN_U*%
X116982500Y-102377500D03*
%TO.N,IN_V*%
X118672502Y-100554998D03*
%TO.N,EN*%
X120082500Y-97667500D03*
%TO.N,~{SHDN}*%
X118352500Y-107097500D03*
%TO.N,+5V*%
X121532500Y-105837500D03*
X116752500Y-105787500D03*
D13*
X114560454Y-101572698D03*
D14*
X120082500Y-98757500D03*
X119400000Y-105787500D03*
D13*
%TO.N,Net-(Q1-C)*%
X127732500Y-119278750D03*
%TO.N,Net-(D7-A)*%
X121777500Y-126387500D03*
%TO.N,Net-(J1-Pin_3)*%
X99450454Y-111452698D03*
%TO.N,Net-(J1-Pin_2)*%
X101020454Y-111452698D03*
%TO.N,Net-(J1-Pin_1)*%
X102510454Y-111482698D03*
%TO.N,GND4*%
X107108698Y-93481875D03*
%TD*%
D16*
%TO.N,*%
X136067276Y-85536506D02*
X134567276Y-85536506D01*
D17*
X136925000Y-99227500D02*
X136075000Y-99227500D01*
D16*
X127067276Y-89274006D02*
X127067276Y-90799006D01*
X127342276Y-90524006D02*
X128017276Y-90524006D01*
X139267276Y-89824006D02*
X139067276Y-89824006D01*
X133142276Y-80949006D02*
X129992276Y-80949006D01*
X129692276Y-84399006D02*
X129692276Y-88149006D01*
D17*
X133450000Y-98302500D02*
X133450000Y-101352500D01*
X135625000Y-100827500D02*
X137575000Y-100827500D01*
D16*
X135542276Y-94286506D02*
X135542276Y-93586506D01*
X138342276Y-93024006D02*
X138342276Y-94549006D01*
X140117276Y-95099006D02*
X140117276Y-92749006D01*
D17*
X132800000Y-101202500D02*
X130150000Y-101202500D01*
X130650000Y-100252500D02*
X130650000Y-99002500D01*
D16*
X140642276Y-80949006D02*
X137492276Y-80949006D01*
D17*
X129125000Y-101727500D02*
X129125000Y-99902500D01*
D16*
X128867276Y-92749006D02*
X126817276Y-92749006D01*
X139817276Y-83574006D02*
X139817276Y-81774006D01*
X134292276Y-83586506D02*
X136067276Y-83586506D01*
X129117276Y-84124006D02*
X129117276Y-81224006D01*
X131117276Y-94274006D02*
X131792276Y-94274006D01*
X134042276Y-95111506D02*
X136367276Y-95111506D01*
D17*
X126547276Y-80044006D02*
X127604776Y-80044006D01*
D16*
X140092276Y-85249006D02*
X138042276Y-85249006D01*
X128017276Y-89824006D02*
X127817276Y-89824006D01*
X137517276Y-95374006D02*
X140392276Y-95374006D01*
X134567276Y-83311506D02*
X135792276Y-83311506D01*
X133767276Y-95386506D02*
X136642276Y-95386506D01*
X126817276Y-94824006D02*
X128592276Y-94824006D01*
D17*
X135174776Y-80054006D02*
X135184776Y-80044006D01*
D16*
X129392276Y-91899006D02*
X129392276Y-88449006D01*
X128017276Y-82324006D02*
X127817276Y-82324006D01*
X127067276Y-85524006D02*
X127067276Y-87049006D01*
X128842276Y-81499006D02*
X126792276Y-81499006D01*
X130017276Y-95374006D02*
X132892276Y-95374006D01*
X134567276Y-81786506D02*
X134567276Y-83311506D01*
X132317276Y-81774006D02*
X130817276Y-81774006D01*
X131592276Y-93574006D02*
X131592276Y-93774006D01*
X130567276Y-92749006D02*
X130567276Y-94824006D01*
X140367276Y-84974006D02*
X137767276Y-84974006D01*
X129392276Y-88149006D02*
X129392276Y-84699006D01*
X130292276Y-95099006D02*
X132617276Y-95099006D01*
X138067276Y-92749006D02*
X138067276Y-94824006D01*
X134292276Y-87336506D02*
X136067276Y-87336506D01*
X140367276Y-87874006D02*
X140367276Y-84974006D01*
D17*
X133550000Y-102002500D02*
X129400000Y-102002500D01*
D16*
X139542276Y-87049006D02*
X139542276Y-85799006D01*
X140367276Y-88724006D02*
X137767276Y-88724006D01*
X137517276Y-92199006D02*
X137517276Y-95374006D01*
X130817276Y-89274006D02*
X130817276Y-90799006D01*
X129992276Y-80949006D02*
X129992276Y-84124006D01*
X133442276Y-88161506D02*
X133442276Y-91911506D01*
X138317276Y-90799006D02*
X139542276Y-90799006D01*
X137767276Y-87599006D02*
X140092276Y-87599006D01*
X136642276Y-92486506D02*
X134042276Y-92486506D01*
X132042276Y-85799006D02*
X131092276Y-85799006D01*
X128292276Y-83299006D02*
X128292276Y-82049006D01*
X131767276Y-83024006D02*
X131767276Y-82324006D01*
D17*
X129550000Y-101352500D02*
X129550000Y-97852500D01*
D16*
X131092276Y-90524006D02*
X131767276Y-90524006D01*
X137192276Y-80649006D02*
X137192276Y-84399006D01*
X140392276Y-92474006D02*
X137792276Y-92474006D01*
X129692276Y-91899006D02*
X133142276Y-91899006D01*
X136642276Y-95386506D02*
X136642276Y-92486506D01*
X136892276Y-80961506D02*
X133742276Y-80961506D01*
X126242276Y-91624006D02*
X129117276Y-91624006D01*
D17*
X136025000Y-100427500D02*
X137325000Y-100427500D01*
D16*
X137792276Y-95099006D02*
X140117276Y-95099006D01*
D17*
X129800000Y-97602500D02*
X133450000Y-97602500D01*
D16*
X128292276Y-82049006D02*
X127342276Y-82049006D01*
X132617276Y-92749006D02*
X130567276Y-92749006D01*
X125942276Y-88149006D02*
X125942276Y-91899006D01*
X136917276Y-95661506D02*
X136917276Y-92211506D01*
X129692276Y-95649006D02*
X133167276Y-95649006D01*
X127092276Y-93024006D02*
X127092276Y-94549006D01*
D17*
X133850000Y-98002500D02*
X133850000Y-101702500D01*
D16*
X128567276Y-91074006D02*
X128567276Y-89274006D01*
X136092276Y-93036506D02*
X134592276Y-93036506D01*
D17*
X135075000Y-98677500D02*
X135075000Y-100977500D01*
D16*
X134317276Y-92761506D02*
X134317276Y-94836506D01*
X129117276Y-91624006D02*
X129117276Y-88724006D01*
X131567276Y-86074006D02*
X131567276Y-86274006D01*
X132042276Y-83299006D02*
X132042276Y-82049006D01*
X130542276Y-81499006D02*
X130542276Y-83574006D01*
X140092276Y-83849006D02*
X140092276Y-81499006D01*
X132042276Y-87049006D02*
X132042276Y-85799006D01*
X137767276Y-84974006D02*
X137767276Y-87599006D01*
D17*
X135875000Y-99427500D02*
X135875000Y-100277500D01*
X129900000Y-100952500D02*
X129900000Y-98302500D01*
D16*
X139567276Y-93299006D02*
X138617276Y-93299006D01*
D17*
X131650000Y-99802500D02*
X131200000Y-99802500D01*
D16*
X128567276Y-87324006D02*
X128567276Y-85524006D01*
X139267276Y-90524006D02*
X139267276Y-89824006D01*
X135317276Y-82336506D02*
X135317276Y-82536506D01*
D17*
X139024776Y-80034006D02*
X139034776Y-80044006D01*
D16*
X135792276Y-85811506D02*
X134842276Y-85811506D01*
D17*
X131050000Y-99652500D02*
X131050000Y-99352500D01*
D16*
X134017276Y-88736506D02*
X134017276Y-91361506D01*
X139542276Y-83299006D02*
X139542276Y-82049006D01*
D17*
X133442276Y-80661506D02*
X134059776Y-80044006D01*
D16*
X136617276Y-81236506D02*
X134017276Y-81236506D01*
X138592276Y-86774006D02*
X139267276Y-86774006D01*
X130817276Y-85524006D02*
X130817276Y-87049006D01*
X132592276Y-91349006D02*
X132592276Y-88999006D01*
X129117276Y-84974006D02*
X126517276Y-84974006D01*
X134042276Y-92486506D02*
X134042276Y-95111506D01*
X133442276Y-91911506D02*
X136892276Y-91911506D01*
X126517276Y-88724006D02*
X126517276Y-91349006D01*
X132592276Y-81499006D02*
X130542276Y-81499006D01*
X126517276Y-83849006D02*
X128842276Y-83849006D01*
X128567276Y-81774006D02*
X127067276Y-81774006D01*
X129992276Y-87874006D02*
X132867276Y-87874006D01*
X134317276Y-94836506D02*
X136092276Y-94836506D01*
X129992276Y-84124006D02*
X132867276Y-84124006D01*
X138042276Y-87324006D02*
X139817276Y-87324006D01*
X126542276Y-95099006D02*
X128867276Y-95099006D01*
X138042276Y-91074006D02*
X139817276Y-91074006D01*
X127367276Y-94274006D02*
X128042276Y-94274006D01*
X126242276Y-84699006D02*
X126242276Y-87874006D01*
X126792276Y-83574006D02*
X128567276Y-83574006D01*
X132042276Y-82049006D02*
X131092276Y-82049006D01*
D17*
X134059776Y-80044006D02*
X135164776Y-80044006D01*
D16*
X140392276Y-95374006D02*
X140392276Y-92474006D01*
X128317276Y-93299006D02*
X127367276Y-93299006D01*
X128292276Y-87049006D02*
X128292276Y-85799006D01*
X130267276Y-84974006D02*
X130267276Y-87599006D01*
D17*
X137825000Y-100577500D02*
X137825000Y-98677500D01*
D16*
X138617276Y-94274006D02*
X139292276Y-94274006D01*
D17*
X137192276Y-80649006D02*
X137797276Y-80044006D01*
D16*
X136067276Y-91086506D02*
X136067276Y-89286506D01*
D17*
X132650000Y-99002500D02*
X132650000Y-100652500D01*
D16*
X138592276Y-82049006D02*
X138592276Y-83024006D01*
X134017276Y-84986506D02*
X134017276Y-87611506D01*
X132867276Y-88724006D02*
X130267276Y-88724006D01*
X128317276Y-94549006D02*
X128317276Y-93299006D01*
X140642276Y-88449006D02*
X137492276Y-88449006D01*
X127342276Y-82049006D02*
X127342276Y-83024006D01*
X137792276Y-92474006D02*
X137792276Y-95099006D01*
X137767276Y-83849006D02*
X140092276Y-83849006D01*
X132892276Y-92474006D02*
X130292276Y-92474006D01*
X132067276Y-94549006D02*
X132067276Y-93299006D01*
X132592276Y-83849006D02*
X132592276Y-81499006D01*
X129692276Y-84399006D02*
X133142276Y-84399006D01*
X134567276Y-87061506D02*
X135792276Y-87061506D01*
X128867276Y-95099006D02*
X128867276Y-92749006D01*
X138067276Y-94824006D02*
X139842276Y-94824006D01*
X128842276Y-88999006D02*
X126792276Y-88999006D01*
X131567276Y-89824006D02*
X131567276Y-90024006D01*
X126517276Y-87599006D02*
X128842276Y-87599006D01*
D17*
X133200000Y-101602500D02*
X129800000Y-101602500D01*
D16*
X127067276Y-81774006D02*
X127067276Y-83299006D01*
X135817276Y-93311506D02*
X134867276Y-93311506D01*
X139267276Y-83024006D02*
X139267276Y-82324006D01*
D17*
X139014776Y-80044006D02*
X139024776Y-80034006D01*
D16*
X128592276Y-93024006D02*
X127092276Y-93024006D01*
X133142276Y-84699006D02*
X129992276Y-84699006D01*
X128017276Y-90524006D02*
X128017276Y-89824006D01*
X127342276Y-86774006D02*
X128017276Y-86774006D01*
D17*
X135184776Y-80044006D02*
X135244776Y-80044006D01*
D16*
X128292276Y-89549006D02*
X127342276Y-89549006D01*
D17*
X134675000Y-98327500D02*
X134675000Y-101377500D01*
X132100000Y-100402500D02*
X130800000Y-100402500D01*
D16*
X139292276Y-93574006D02*
X139092276Y-93574006D01*
X140367276Y-84124006D02*
X140367276Y-81224006D01*
X140092276Y-88999006D02*
X138042276Y-88999006D01*
X131567276Y-82324006D02*
X131567276Y-82524006D01*
X139817276Y-91074006D02*
X139817276Y-89274006D01*
X125942276Y-95649006D02*
X129417276Y-95649006D01*
X134867276Y-93311506D02*
X134867276Y-94286506D01*
X133742276Y-84711506D02*
X133742276Y-87886506D01*
X127067276Y-90799006D02*
X128292276Y-90799006D01*
D17*
X130300000Y-100552500D02*
X130300000Y-98652500D01*
D16*
X140667276Y-95649006D02*
X140667276Y-92199006D01*
X127342276Y-83024006D02*
X128017276Y-83024006D01*
D17*
X128480000Y-99652500D02*
X127075000Y-98247500D01*
D16*
X130842276Y-94549006D02*
X132067276Y-94549006D01*
X126792276Y-88999006D02*
X126792276Y-91074006D01*
D17*
X125942276Y-80649006D02*
X126547276Y-80044006D01*
D16*
X126792276Y-91074006D02*
X128567276Y-91074006D01*
X127067276Y-83299006D02*
X128292276Y-83299006D01*
X132592276Y-87599006D02*
X132592276Y-85249006D01*
X131092276Y-83024006D02*
X131767276Y-83024006D01*
X133442276Y-88161506D02*
X136892276Y-88161506D01*
X135817276Y-94561506D02*
X135817276Y-93311506D01*
X129392276Y-88449006D02*
X126242276Y-88449006D01*
X127842276Y-93574006D02*
X127842276Y-93774006D01*
X138342276Y-94549006D02*
X139567276Y-94549006D01*
X140367276Y-81224006D02*
X137767276Y-81224006D01*
X140092276Y-87599006D02*
X140092276Y-85249006D01*
X128567276Y-83574006D02*
X128567276Y-81774006D01*
X129142276Y-92474006D02*
X126542276Y-92474006D01*
X135792276Y-89561506D02*
X134842276Y-89561506D01*
X138042276Y-85249006D02*
X138042276Y-87324006D01*
X140642276Y-88149006D02*
X140642276Y-84699006D01*
X131092276Y-85799006D02*
X131092276Y-86774006D01*
X136342276Y-87611506D02*
X136342276Y-85261506D01*
X137767276Y-81224006D02*
X137767276Y-83849006D01*
X139092276Y-93574006D02*
X139092276Y-93774006D01*
X132867276Y-84124006D02*
X132867276Y-81224006D01*
X127367276Y-93299006D02*
X127367276Y-94274006D01*
X139842276Y-93024006D02*
X138342276Y-93024006D01*
X126242276Y-84124006D02*
X129117276Y-84124006D01*
X139817276Y-85524006D02*
X138317276Y-85524006D01*
X130567276Y-94824006D02*
X132342276Y-94824006D01*
X136342276Y-83861506D02*
X136342276Y-81511506D01*
X135517276Y-86086506D02*
X135317276Y-86086506D01*
D17*
X138225000Y-100977500D02*
X138225000Y-98327500D01*
D16*
X135517276Y-86786506D02*
X135517276Y-86086506D01*
X133442276Y-80661506D02*
X133442276Y-84411506D01*
X132592276Y-85249006D02*
X130542276Y-85249006D01*
X128042276Y-93574006D02*
X127842276Y-93574006D01*
X129692276Y-88149006D02*
X133142276Y-88149006D01*
X130267276Y-81224006D02*
X130267276Y-83849006D01*
X133442276Y-91911506D02*
X133442276Y-95661506D01*
X139067276Y-89824006D02*
X139067276Y-90024006D01*
X128292276Y-85799006D02*
X127342276Y-85799006D01*
X134292276Y-91086506D02*
X136067276Y-91086506D01*
X132317276Y-89274006D02*
X130817276Y-89274006D01*
X126267276Y-92199006D02*
X126267276Y-95374006D01*
X132867276Y-84974006D02*
X130267276Y-84974006D01*
D17*
X137797276Y-80044006D02*
X139014776Y-80044006D01*
D16*
X129692276Y-91899006D02*
X129692276Y-95649006D01*
X133742276Y-80961506D02*
X133742276Y-84136506D01*
X129117276Y-88724006D02*
X126517276Y-88724006D01*
D17*
X135475000Y-99027500D02*
X135475000Y-100677500D01*
D16*
X137192276Y-91899006D02*
X137192276Y-95649006D01*
X128567276Y-85524006D02*
X127067276Y-85524006D01*
X136067276Y-87336506D02*
X136067276Y-85536506D01*
X135792276Y-87061506D02*
X135792276Y-85811506D01*
X133142276Y-84399006D02*
X133142276Y-80949006D01*
X125942276Y-84399006D02*
X129392276Y-84399006D01*
X136067276Y-81786506D02*
X134567276Y-81786506D01*
D17*
X131200000Y-99202500D02*
X132050000Y-99202500D01*
X130550000Y-98402500D02*
X132800000Y-98402500D01*
D16*
X134292276Y-81511506D02*
X134292276Y-83586506D01*
X127817276Y-89824006D02*
X127817276Y-90024006D01*
X127817276Y-82324006D02*
X127817276Y-82524006D01*
X140117276Y-92749006D02*
X138067276Y-92749006D01*
D17*
X131364776Y-80044006D02*
X131394776Y-80044006D01*
D16*
X129992276Y-84699006D02*
X129992276Y-87874006D01*
X133442276Y-84411506D02*
X133442276Y-88161506D01*
X136342276Y-89011506D02*
X134292276Y-89011506D01*
X130267276Y-88724006D02*
X130267276Y-91349006D01*
X130817276Y-90799006D02*
X132042276Y-90799006D01*
X136342276Y-81511506D02*
X134292276Y-81511506D01*
X134017276Y-91361506D02*
X136342276Y-91361506D01*
X135792276Y-83311506D02*
X135792276Y-82061506D01*
X131092276Y-82049006D02*
X131092276Y-83024006D01*
X137492276Y-80949006D02*
X137492276Y-84124006D01*
D17*
X130200000Y-98002500D02*
X133150000Y-98002500D01*
D16*
X138317276Y-81774006D02*
X138317276Y-83299006D01*
X136342276Y-85261506D02*
X134292276Y-85261506D01*
X128017276Y-86774006D02*
X128017276Y-86074006D01*
X139542276Y-89549006D02*
X138592276Y-89549006D01*
X126792276Y-87324006D02*
X128567276Y-87324006D01*
X138592276Y-89549006D02*
X138592276Y-90524006D01*
X140092276Y-91349006D02*
X140092276Y-88999006D01*
X130817276Y-87049006D02*
X132042276Y-87049006D01*
X130542276Y-88999006D02*
X130542276Y-91074006D01*
X131792276Y-93574006D02*
X131592276Y-93574006D01*
X131117276Y-93299006D02*
X131117276Y-94274006D01*
D17*
X135325000Y-101227500D02*
X137975000Y-101227500D01*
D16*
X139267276Y-86774006D02*
X139267276Y-86074006D01*
X132067276Y-93299006D02*
X131117276Y-93299006D01*
D17*
X137575000Y-98427500D02*
X135325000Y-98427500D01*
D16*
X135542276Y-93586506D02*
X135342276Y-93586506D01*
X140092276Y-81499006D02*
X138042276Y-81499006D01*
X138042276Y-83574006D02*
X139817276Y-83574006D01*
X126817276Y-92749006D02*
X126817276Y-94824006D01*
X137192276Y-84399006D02*
X140642276Y-84399006D01*
X136617276Y-87886506D02*
X136617276Y-84986506D01*
X131767276Y-82324006D02*
X131567276Y-82324006D01*
X129692276Y-88149006D02*
X129692276Y-91899006D01*
X128017276Y-86074006D02*
X127817276Y-86074006D01*
D17*
X134575000Y-102027500D02*
X138725000Y-102027500D01*
D16*
X133742276Y-88461506D02*
X133742276Y-91636506D01*
X126792276Y-81499006D02*
X126792276Y-83574006D01*
X129992276Y-88449006D02*
X129992276Y-91624006D01*
D17*
X130297276Y-80044006D02*
X131364776Y-80044006D01*
X128875000Y-99652500D02*
X128480000Y-99652500D01*
D16*
X128592276Y-94824006D02*
X128592276Y-93024006D01*
X138617276Y-93299006D02*
X138617276Y-94274006D01*
X136892276Y-88161506D02*
X136892276Y-84711506D01*
D17*
X137475000Y-100277500D02*
X137475000Y-99027500D01*
D16*
X139542276Y-82049006D02*
X138592276Y-82049006D01*
X127342276Y-85799006D02*
X127342276Y-86774006D01*
X131767276Y-86774006D02*
X131767276Y-86074006D01*
X137492276Y-88449006D02*
X137492276Y-91624006D01*
X139817276Y-87324006D02*
X139817276Y-85524006D01*
X135517276Y-90536506D02*
X135517276Y-89836506D01*
X138317276Y-87049006D02*
X139542276Y-87049006D01*
X130817276Y-83299006D02*
X132042276Y-83299006D01*
X128842276Y-91349006D02*
X128842276Y-88999006D01*
X126242276Y-87874006D02*
X129117276Y-87874006D01*
D17*
X138970000Y-99922500D02*
X140650000Y-98242500D01*
D16*
X134292276Y-85261506D02*
X134292276Y-87336506D01*
X136617276Y-84136506D02*
X136617276Y-81236506D01*
D17*
X134925000Y-101627500D02*
X138325000Y-101627500D01*
D16*
X136617276Y-91636506D02*
X136617276Y-88736506D01*
X129392276Y-84399006D02*
X129392276Y-80949006D01*
X140642276Y-84399006D02*
X140642276Y-80949006D01*
X138042276Y-81499006D02*
X138042276Y-83574006D01*
X139267276Y-82324006D02*
X139067276Y-82324006D01*
X126517276Y-91349006D02*
X128842276Y-91349006D01*
X134567276Y-85536506D02*
X134567276Y-87061506D01*
X133442276Y-95661506D02*
X136917276Y-95661506D01*
X133742276Y-87886506D02*
X136617276Y-87886506D01*
X134842276Y-90536506D02*
X135517276Y-90536506D01*
X134017276Y-83861506D02*
X136342276Y-83861506D01*
X136892276Y-84711506D02*
X133742276Y-84711506D01*
X134842276Y-89561506D02*
X134842276Y-90536506D01*
X135317276Y-89836506D02*
X135317276Y-90036506D01*
X134567276Y-90811506D02*
X135792276Y-90811506D01*
X137492276Y-87874006D02*
X140367276Y-87874006D01*
X133142276Y-88149006D02*
X133142276Y-84699006D01*
X128842276Y-85249006D02*
X126792276Y-85249006D01*
X125942276Y-91899006D02*
X125942276Y-95649006D01*
X135517276Y-89836506D02*
X135317276Y-89836506D01*
X139542276Y-85799006D02*
X138592276Y-85799006D01*
X136367276Y-92761506D02*
X134317276Y-92761506D01*
X136067276Y-89286506D02*
X134567276Y-89286506D01*
X132342276Y-94824006D02*
X132342276Y-93024006D01*
X139542276Y-90799006D02*
X139542276Y-89549006D01*
X130267276Y-83849006D02*
X132592276Y-83849006D01*
X134567276Y-89286506D02*
X134567276Y-90811506D01*
X132317276Y-83574006D02*
X132317276Y-81774006D01*
X136917276Y-92211506D02*
X133767276Y-92211506D01*
X135517276Y-83036506D02*
X135517276Y-82336506D01*
X140642276Y-91899006D02*
X140642276Y-88449006D01*
X129117276Y-81224006D02*
X126517276Y-81224006D01*
D17*
X132500000Y-100802500D02*
X130550000Y-100802500D01*
X136475000Y-99827500D02*
X136925000Y-99827500D01*
D16*
X125942276Y-91899006D02*
X129392276Y-91899006D01*
X129692276Y-80649006D02*
X129692276Y-84399006D01*
X137767276Y-91349006D02*
X140092276Y-91349006D01*
X138317276Y-89274006D02*
X138317276Y-90799006D01*
X133167276Y-95649006D02*
X133167276Y-92199006D01*
X128292276Y-90799006D02*
X128292276Y-89549006D01*
X129117276Y-87874006D02*
X129117276Y-84974006D01*
X132342276Y-93024006D02*
X130842276Y-93024006D01*
X132617276Y-95099006D02*
X132617276Y-92749006D01*
X136892276Y-84411506D02*
X136892276Y-80961506D01*
X131767276Y-90524006D02*
X131767276Y-89824006D01*
X130267276Y-87599006D02*
X132592276Y-87599006D01*
X131767276Y-89824006D02*
X131567276Y-89824006D01*
X128567276Y-89274006D02*
X127067276Y-89274006D01*
X126267276Y-95374006D02*
X129142276Y-95374006D01*
X138317276Y-83299006D02*
X139542276Y-83299006D01*
D17*
X135164776Y-80044006D02*
X135174776Y-80054006D01*
D16*
X137192276Y-88149006D02*
X137192276Y-91899006D01*
X133142276Y-88449006D02*
X129992276Y-88449006D01*
X131792276Y-94274006D02*
X131792276Y-93574006D01*
X131092276Y-89549006D02*
X131092276Y-90524006D01*
X132317276Y-85524006D02*
X130817276Y-85524006D01*
X132867276Y-81224006D02*
X130267276Y-81224006D01*
X133767276Y-92211506D02*
X133767276Y-95386506D01*
X130292276Y-92474006D02*
X130292276Y-95099006D01*
X139292276Y-94274006D02*
X139292276Y-93574006D01*
X137492276Y-91624006D02*
X140367276Y-91624006D01*
X140642276Y-84699006D02*
X137492276Y-84699006D01*
X134842276Y-86786506D02*
X135517276Y-86786506D01*
X136892276Y-88461506D02*
X133742276Y-88461506D01*
X130542276Y-87324006D02*
X132317276Y-87324006D01*
D17*
X138575000Y-101377500D02*
X138575000Y-97877500D01*
D16*
X127817276Y-86074006D02*
X127817276Y-86274006D01*
D17*
X134275000Y-98027500D02*
X134275000Y-101727500D01*
D16*
X139817276Y-89274006D02*
X138317276Y-89274006D01*
X139567276Y-94549006D02*
X139567276Y-93299006D01*
X137492276Y-84124006D02*
X140367276Y-84124006D01*
X132592276Y-88999006D02*
X130542276Y-88999006D01*
X137492276Y-84699006D02*
X137492276Y-87874006D01*
X139817276Y-81774006D02*
X138317276Y-81774006D01*
X132317276Y-87324006D02*
X132317276Y-85524006D01*
X132042276Y-90799006D02*
X132042276Y-89549006D01*
X138042276Y-88999006D02*
X138042276Y-91074006D01*
X137192276Y-95649006D02*
X140667276Y-95649006D01*
X139842276Y-94824006D02*
X139842276Y-93024006D01*
D17*
X139034776Y-80044006D02*
X139064776Y-80044006D01*
D16*
X133442276Y-84411506D02*
X136892276Y-84411506D01*
X129992276Y-91624006D02*
X132867276Y-91624006D01*
D17*
X140650000Y-98242500D02*
X141070000Y-98242500D01*
D16*
X125942276Y-88149006D02*
X129392276Y-88149006D01*
X132317276Y-91074006D02*
X132317276Y-89274006D01*
X129392276Y-80949006D02*
X126242276Y-80949006D01*
X136367276Y-95111506D02*
X136367276Y-92761506D01*
X131767276Y-86074006D02*
X131567276Y-86074006D01*
X134592276Y-94561506D02*
X135817276Y-94561506D01*
D17*
X137275000Y-98827500D02*
X135675000Y-98827500D01*
D16*
X138317276Y-85524006D02*
X138317276Y-87049006D01*
X134842276Y-82061506D02*
X134842276Y-83036506D01*
X127067276Y-87049006D02*
X128292276Y-87049006D01*
D17*
X132250000Y-99402500D02*
X132250000Y-100252500D01*
D16*
X135317276Y-86086506D02*
X135317276Y-86286506D01*
D17*
X138975000Y-101777500D02*
X138975000Y-99927500D01*
D16*
X138592276Y-85799006D02*
X138592276Y-86774006D01*
X135517276Y-82336506D02*
X135317276Y-82336506D01*
X126517276Y-84974006D02*
X126517276Y-87599006D01*
X126542276Y-92474006D02*
X126542276Y-95099006D01*
X129417276Y-92199006D02*
X126267276Y-92199006D01*
X127092276Y-94549006D02*
X128317276Y-94549006D01*
X132867276Y-91624006D02*
X132867276Y-88724006D01*
X130017276Y-92199006D02*
X130017276Y-95374006D01*
X138592276Y-90524006D02*
X139267276Y-90524006D01*
X138592276Y-83024006D02*
X139267276Y-83024006D01*
X136892276Y-91911506D02*
X136892276Y-88461506D01*
X137192276Y-91899006D02*
X140642276Y-91899006D01*
D17*
X133050000Y-98652500D02*
X133050000Y-100952500D01*
D16*
X125942276Y-84399006D02*
X125942276Y-88149006D01*
X130267276Y-91349006D02*
X132592276Y-91349006D01*
X140367276Y-91624006D02*
X140367276Y-88724006D01*
X134017276Y-87611506D02*
X136342276Y-87611506D01*
X125942276Y-80649006D02*
X125942276Y-84399006D01*
X128017276Y-83024006D02*
X128017276Y-82324006D01*
X137192276Y-88149006D02*
X140642276Y-88149006D01*
D17*
X130850000Y-98802500D02*
X132450000Y-98802500D01*
D16*
X136617276Y-84986506D02*
X134017276Y-84986506D01*
X136092276Y-94836506D02*
X136092276Y-93036506D01*
D17*
X137925000Y-98027500D02*
X134975000Y-98027500D01*
D16*
X126242276Y-80949006D02*
X126242276Y-84124006D01*
X130842276Y-93024006D02*
X130842276Y-94549006D01*
X132042276Y-89549006D02*
X131092276Y-89549006D01*
X129142276Y-95374006D02*
X129142276Y-92474006D01*
X134017276Y-81236506D02*
X134017276Y-83861506D01*
X136617276Y-88736506D02*
X134017276Y-88736506D01*
X128842276Y-87599006D02*
X128842276Y-85249006D01*
X130817276Y-81774006D02*
X130817276Y-83299006D01*
X126792276Y-85249006D02*
X126792276Y-87324006D01*
X133742276Y-84136506D02*
X136617276Y-84136506D01*
X132892276Y-95374006D02*
X132892276Y-92474006D01*
X128842276Y-83849006D02*
X128842276Y-81499006D01*
X135792276Y-90811506D02*
X135792276Y-89561506D01*
X134292276Y-89011506D02*
X134292276Y-91086506D01*
X128042276Y-94274006D02*
X128042276Y-93574006D01*
X130542276Y-83574006D02*
X132317276Y-83574006D01*
X137767276Y-88724006D02*
X137767276Y-91349006D01*
X130542276Y-91074006D02*
X132317276Y-91074006D01*
X134867276Y-94286506D02*
X135542276Y-94286506D01*
X133742276Y-91636506D02*
X136617276Y-91636506D01*
D17*
X138325000Y-97627500D02*
X134675000Y-97627500D01*
D16*
X133167276Y-92199006D02*
X130017276Y-92199006D01*
D17*
X137075000Y-99677500D02*
X137075000Y-99377500D01*
D16*
X126242276Y-88449006D02*
X126242276Y-91624006D01*
X139067276Y-86074006D02*
X139067276Y-86274006D01*
X136342276Y-91361506D02*
X136342276Y-89011506D01*
X137192276Y-84399006D02*
X137192276Y-88149006D01*
X135792276Y-82061506D02*
X134842276Y-82061506D01*
X130542276Y-85249006D02*
X130542276Y-87324006D01*
X139267276Y-86074006D02*
X139067276Y-86074006D01*
X131092276Y-86774006D02*
X131767276Y-86774006D01*
X135342276Y-93586506D02*
X135342276Y-93786506D01*
X140667276Y-92199006D02*
X137517276Y-92199006D01*
X129417276Y-95649006D02*
X129417276Y-92199006D01*
X136067276Y-83586506D02*
X136067276Y-81786506D01*
X129392276Y-84699006D02*
X126242276Y-84699006D01*
X134842276Y-83036506D02*
X135517276Y-83036506D01*
X134592276Y-93036506D02*
X134592276Y-94561506D01*
X132867276Y-87874006D02*
X132867276Y-84974006D01*
X134842276Y-85811506D02*
X134842276Y-86786506D01*
X127342276Y-89549006D02*
X127342276Y-90524006D01*
X133142276Y-91899006D02*
X133142276Y-88449006D01*
X126517276Y-81224006D02*
X126517276Y-83849006D01*
X139067276Y-82324006D02*
X139067276Y-82524006D01*
D17*
X129692276Y-80649006D02*
X130297276Y-80044006D01*
X130300000Y-98652500D02*
G75*
G02*
X130550000Y-98402500I250000J0D01*
G01*
X129900000Y-98302500D02*
G75*
G02*
X130200000Y-98002500I300000J0D01*
G01*
X135075000Y-100977500D02*
G75*
G03*
X135325000Y-101227500I250000J0D01*
G01*
X134975000Y-98027500D02*
G75*
G03*
X134675000Y-98327500I0J-300000D01*
G01*
X130800000Y-100402500D02*
G75*
G02*
X130650000Y-100252500I0J150000D01*
G01*
X132250000Y-100252500D02*
G75*
G02*
X132100000Y-100402500I-150000J0D01*
G01*
X135325000Y-98427500D02*
G75*
G03*
X135075000Y-98677500I0J-250000D01*
G01*
X129125000Y-99902500D02*
G75*
G03*
X128875000Y-99652500I-250000J0D01*
G01*
X138325000Y-101627500D02*
G75*
G03*
X138575000Y-101377500I0J250000D01*
G01*
X133050000Y-100952500D02*
G75*
G02*
X132800000Y-101202500I-250000J0D01*
G01*
X130650000Y-99002500D02*
G75*
G02*
X130850000Y-98802500I200000J0D01*
G01*
X137825000Y-98677500D02*
G75*
G03*
X137575000Y-98427500I-250000J0D01*
G01*
X132800000Y-98402500D02*
G75*
G02*
X133050000Y-98652500I0J-250000D01*
G01*
X133150000Y-98002500D02*
G75*
G02*
X133450000Y-98302500I0J-300000D01*
G01*
X134675000Y-101377500D02*
G75*
G03*
X134925000Y-101627500I250000J0D01*
G01*
X138725000Y-102027500D02*
G75*
G03*
X138975000Y-101777500I0J250000D01*
G01*
X136075000Y-99227500D02*
G75*
G03*
X135875000Y-99427500I0J-200000D01*
G01*
X135675000Y-98827500D02*
G75*
G03*
X135475000Y-99027500I0J-200000D01*
G01*
X134675000Y-97627500D02*
G75*
G03*
X134275000Y-98027500I0J-400000D01*
G01*
X129550000Y-97852500D02*
G75*
G02*
X129800000Y-97602500I250000J0D01*
G01*
X130150000Y-101202500D02*
G75*
G02*
X129900000Y-100952500I0J250000D01*
G01*
X135475000Y-100677500D02*
G75*
G03*
X135625000Y-100827500I150000J0D01*
G01*
X129800000Y-101602500D02*
G75*
G02*
X129550000Y-101352500I0J250000D01*
G01*
X135875000Y-100277500D02*
G75*
G03*
X136025000Y-100427500I150000J0D01*
G01*
X137075000Y-99377500D02*
G75*
G03*
X136925000Y-99227500I-150000J0D01*
G01*
X138575000Y-97877500D02*
G75*
G03*
X138325000Y-97627500I-250000J0D01*
G01*
X132050000Y-99202500D02*
G75*
G02*
X132250000Y-99402500I0J-200000D01*
G01*
X131200000Y-99802500D02*
G75*
G02*
X131050000Y-99652500I0J150000D01*
G01*
X131050000Y-99352500D02*
G75*
G02*
X131200000Y-99202500I150000J0D01*
G01*
X138225000Y-98327500D02*
G75*
G03*
X137925000Y-98027500I-300000J0D01*
G01*
X133850000Y-101702500D02*
G75*
G02*
X133550000Y-102002500I-300000J0D01*
G01*
X133450000Y-97602500D02*
G75*
G02*
X133850000Y-98002500I0J-400000D01*
G01*
X136925000Y-99827500D02*
G75*
G03*
X137075000Y-99677500I0J150000D01*
G01*
X137475000Y-99027500D02*
G75*
G03*
X137275000Y-98827500I-200000J0D01*
G01*
X137325000Y-100427500D02*
G75*
G03*
X137475000Y-100277500I0J150000D01*
G01*
X129400000Y-102002500D02*
G75*
G02*
X129125000Y-101727500I0J275000D01*
G01*
X133450000Y-101352500D02*
G75*
G02*
X133200000Y-101602500I-250000J0D01*
G01*
X134275000Y-101727500D02*
G75*
G03*
X134575000Y-102027500I300000J0D01*
G01*
X137975000Y-101227500D02*
G75*
G03*
X138225000Y-100977500I0J250000D01*
G01*
X132650000Y-100652500D02*
G75*
G02*
X132500000Y-100802500I-150000J0D01*
G01*
X132450000Y-98802500D02*
G75*
G02*
X132650000Y-99002500I0J-200000D01*
G01*
X130550000Y-100802500D02*
G75*
G02*
X130300000Y-100552500I0J250000D01*
G01*
X137575000Y-100827500D02*
G75*
G03*
X137825000Y-100577500I0J250000D01*
G01*
%TO.N,Net-(D1C-K)*%
X138056091Y-102443722D02*
X134406091Y-102443722D01*
X135056091Y-106043722D02*
X137706091Y-106043722D01*
X137206091Y-105093722D02*
X137206091Y-103843722D01*
X130964739Y-104033594D02*
X131814739Y-104033594D01*
X138306091Y-106193722D02*
X138306091Y-102693722D01*
X132764739Y-103483594D02*
X132764739Y-106133594D01*
X129964739Y-105733594D02*
X129964739Y-103483594D01*
X128341094Y-107133594D02*
X127075000Y-105867500D01*
X134006091Y-102843722D02*
X134006091Y-106543722D01*
X134806091Y-103493722D02*
X134806091Y-105793722D01*
X129864739Y-102833594D02*
X132914739Y-102833594D01*
X129564739Y-106083594D02*
X129564739Y-103133594D01*
X132364739Y-103783594D02*
X132364739Y-105733594D01*
X130214739Y-103233594D02*
X132514739Y-103233594D01*
X129164739Y-106483594D02*
X129164739Y-102833594D01*
X132114739Y-105983594D02*
X130214739Y-105983594D01*
X137306091Y-103243722D02*
X135056091Y-103243722D01*
X135206091Y-103843722D02*
X135206091Y-105493722D01*
X137006091Y-103643722D02*
X135406091Y-103643722D01*
X133564739Y-102733594D02*
X133564739Y-106883594D01*
X134656091Y-106443722D02*
X138056091Y-106443722D01*
X133164739Y-103083594D02*
X133164739Y-106483594D01*
X138355856Y-106843722D02*
X139332078Y-105867500D01*
X131964739Y-104183594D02*
X131964739Y-105483594D01*
X130764739Y-104983594D02*
X130764739Y-104233594D01*
X136556091Y-104043722D02*
X135806091Y-104043722D01*
X133314739Y-107133594D02*
X128341094Y-107133594D01*
X129564739Y-102433594D02*
X133264739Y-102433594D01*
X134406091Y-103143722D02*
X134406091Y-106193722D01*
X137556091Y-105393722D02*
X137556091Y-103493722D01*
X131814739Y-105633594D02*
X130564739Y-105633594D01*
X136677260Y-104676840D02*
X136677260Y-104164891D01*
X132514739Y-106383594D02*
X129864739Y-106383594D01*
X135756091Y-105243722D02*
X137056091Y-105243722D01*
X137956091Y-105793722D02*
X137956091Y-103143722D01*
X135606091Y-104243722D02*
X135606091Y-105093722D01*
X132914739Y-106733594D02*
X129414739Y-106733594D01*
X137656091Y-102843722D02*
X134706091Y-102843722D01*
X134306091Y-106843722D02*
X138355856Y-106843722D01*
X131397857Y-105104763D02*
X130885908Y-105104763D01*
X135356091Y-105643722D02*
X137306091Y-105643722D01*
X139332078Y-105867500D02*
X141075000Y-105867500D01*
X130564739Y-103633594D02*
X132214739Y-103633594D01*
X130364739Y-105433594D02*
X130364739Y-103833594D01*
X137306091Y-105643722D02*
G75*
G03*
X137556122Y-105393722I9J250022D01*
G01*
X134406091Y-106193722D02*
G75*
G03*
X134656091Y-106443709I250009J22D01*
G01*
X134706091Y-102843722D02*
G75*
G03*
X134406122Y-103143722I9J-299978D01*
G01*
X135806091Y-104043722D02*
G75*
G03*
X135606122Y-104243722I9J-199978D01*
G01*
X131964739Y-105483594D02*
G75*
G02*
X131814739Y-105633639I-150039J-6D01*
G01*
X130214739Y-105983594D02*
G75*
G02*
X129964706Y-105733594I-39J249994D01*
G01*
X134406091Y-102443722D02*
G75*
G03*
X134006122Y-102843722I9J-399978D01*
G01*
X129864739Y-106383594D02*
G75*
G02*
X129564706Y-106083594I-39J299994D01*
G01*
X134006091Y-106543722D02*
G75*
G03*
X134306091Y-106843709I300009J22D01*
G01*
X132764739Y-106133594D02*
G75*
G02*
X132514739Y-106383639I-250039J-6D01*
G01*
X134806091Y-105793722D02*
G75*
G03*
X135056091Y-106043709I250009J22D01*
G01*
X133164739Y-106483594D02*
G75*
G02*
X132914739Y-106733639I-250039J-6D01*
G01*
X130564739Y-105633594D02*
G75*
G02*
X130364706Y-105433594I-39J199994D01*
G01*
X132914739Y-102833594D02*
G75*
G02*
X133164706Y-103083594I-39J-250006D01*
G01*
X135406091Y-103643722D02*
G75*
G03*
X135206122Y-103843722I9J-199978D01*
G01*
X135056091Y-103243722D02*
G75*
G03*
X134806122Y-103493722I9J-249978D01*
G01*
X132214739Y-103633594D02*
G75*
G02*
X132364706Y-103783594I-39J-150006D01*
G01*
X132514739Y-103233594D02*
G75*
G02*
X132764706Y-103483594I-39J-250006D01*
G01*
X129164739Y-102833594D02*
G75*
G02*
X129564739Y-102433639I399961J-6D01*
G01*
X130885908Y-105104763D02*
G75*
G02*
X130764737Y-104983594I-8J121163D01*
G01*
X129564739Y-103133594D02*
G75*
G02*
X129864739Y-102833639I299961J-6D01*
G01*
X135206091Y-105493722D02*
G75*
G03*
X135356091Y-105643709I150009J22D01*
G01*
X129964739Y-103483594D02*
G75*
G02*
X130214739Y-103233639I249961J-6D01*
G01*
X138306091Y-102693722D02*
G75*
G03*
X138056091Y-102443709I-249991J22D01*
G01*
X133264739Y-102433594D02*
G75*
G02*
X133564706Y-102733594I-39J-300006D01*
G01*
X137556091Y-103493722D02*
G75*
G03*
X137306091Y-103243709I-249991J22D01*
G01*
X137706091Y-106043722D02*
G75*
G03*
X137956122Y-105793722I9J250022D01*
G01*
X130764739Y-104233594D02*
G75*
G02*
X130964739Y-104033639I199961J-6D01*
G01*
X138056091Y-106443722D02*
G75*
G03*
X138306122Y-106193722I9J250022D01*
G01*
X133564739Y-106883594D02*
G75*
G02*
X133314739Y-107133639I-250039J-6D01*
G01*
X137206091Y-103843722D02*
G75*
G03*
X137006091Y-103643709I-199991J22D01*
G01*
X137956091Y-103143722D02*
G75*
G03*
X137656091Y-102843709I-299991J22D01*
G01*
X137056091Y-105243722D02*
G75*
G03*
X137206122Y-105093722I9J150022D01*
G01*
X130364739Y-103833594D02*
G75*
G02*
X130564739Y-103633639I199961J-6D01*
G01*
X132364739Y-105733594D02*
G75*
G02*
X132114739Y-105983639I-250039J-6D01*
G01*
X131814739Y-104033594D02*
G75*
G02*
X131964706Y-104183594I-39J-150006D01*
G01*
X136677260Y-104164891D02*
G75*
G03*
X136556091Y-104043740I-121160J-9D01*
G01*
X129414739Y-106733594D02*
G75*
G02*
X129164706Y-106483594I-39J249994D01*
G01*
X135606091Y-105093722D02*
G75*
G03*
X135756091Y-105243709I150009J22D01*
G01*
D10*
%TO.N,Net-(D1B-K)*%
X101867754Y-105366880D02*
X101622754Y-104942527D01*
X101354090Y-102632086D02*
X101599090Y-102207734D01*
X103448404Y-100772069D02*
X103468404Y-100792069D01*
X104538404Y-106318388D02*
X104518404Y-106298388D01*
X106675022Y-104468598D02*
X106647701Y-104475918D01*
X101326769Y-102639407D02*
X101354090Y-102632086D01*
X104518404Y-106298388D02*
X104028404Y-106298388D01*
X106647701Y-104475918D02*
X106402701Y-104900271D01*
X106118686Y-101677074D02*
X106111365Y-101704395D01*
X101860433Y-105394200D02*
X101867754Y-105366880D01*
X106111365Y-101704395D02*
X106356365Y-102128747D01*
X103468404Y-100792069D02*
X103958404Y-100792069D01*
%TO.N,unconnected-(U2-SENSEU-Pad4)*%
X115946533Y-90883088D02*
X115846532Y-90883088D01*
X121671533Y-88333088D02*
X122234779Y-88333088D01*
X122234779Y-88333088D02*
X122950231Y-87617636D01*
X116159779Y-88333088D02*
X116875231Y-87617636D01*
X109858699Y-90881875D02*
X109758698Y-90881875D01*
X110071945Y-88331875D02*
X110787397Y-87616423D01*
X121122858Y-85118117D02*
X120407406Y-85833569D01*
X122021533Y-90883088D02*
X121921532Y-90883088D01*
X121686104Y-85118117D02*
X121122858Y-85118117D01*
X121336104Y-82568117D02*
X121436105Y-82568117D01*
X109508699Y-88331875D02*
X110071945Y-88331875D01*
X115596533Y-88333088D02*
X116159779Y-88333088D01*
X116196533Y-91133088D02*
G75*
G03*
X115946533Y-90883067I-250033J-12D01*
G01*
X121086104Y-82318117D02*
G75*
G03*
X121336104Y-82568096I249996J17D01*
G01*
X109758698Y-90881875D02*
G75*
G03*
X109508675Y-91131876I2J-250025D01*
G01*
X121921532Y-90883088D02*
G75*
G03*
X121671488Y-91133089I-32J-250012D01*
G01*
X115846532Y-90883088D02*
G75*
G03*
X115596488Y-91133089I-32J-250012D01*
G01*
X122271533Y-91133088D02*
G75*
G03*
X122021533Y-90883067I-250033J-12D01*
G01*
X110108699Y-91131875D02*
G75*
G03*
X109858699Y-90881901I-249999J-25D01*
G01*
X121436105Y-82568117D02*
G75*
G03*
X121686117Y-82318116I-5J250017D01*
G01*
%TD*%
%TA.AperFunction,Conductor*%
%TO.N,GND4*%
G36*
X97365519Y-88132633D02*
G01*
X97654813Y-88164776D01*
X98233402Y-88229064D01*
X98280841Y-88244423D01*
X98307624Y-88259600D01*
X98999007Y-88651383D01*
X99017255Y-88664006D01*
X99349883Y-88941196D01*
X99388782Y-88999235D01*
X99394500Y-89036455D01*
X99394500Y-89508155D01*
X99393747Y-89521802D01*
X99393248Y-89526305D01*
X99394474Y-89585825D01*
X99394500Y-89588378D01*
X99394500Y-89647770D01*
X99395088Y-89652237D01*
X99395112Y-89652554D01*
X99395216Y-89653288D01*
X99395277Y-89653578D01*
X99395961Y-89658063D01*
X99412550Y-89715238D01*
X99413235Y-89717693D01*
X99428608Y-89775062D01*
X99430335Y-89779232D01*
X99430438Y-89779527D01*
X99430732Y-89780216D01*
X99430866Y-89780480D01*
X99432684Y-89784626D01*
X99463478Y-89835511D01*
X99464781Y-89837715D01*
X99466917Y-89841415D01*
X99469203Y-89845556D01*
X99600084Y-90093666D01*
X99606113Y-90106930D01*
X99685324Y-90312466D01*
X99706215Y-90366672D01*
X99710647Y-90380552D01*
X99779591Y-90650248D01*
X99782364Y-90664551D01*
X99819199Y-90940472D01*
X99820275Y-90955002D01*
X99824490Y-91233339D01*
X99823854Y-91247895D01*
X99795393Y-91524801D01*
X99793054Y-91539183D01*
X99732308Y-91810838D01*
X99728299Y-91824845D01*
X99636108Y-92087505D01*
X99630483Y-92100946D01*
X99508119Y-92350977D01*
X99500957Y-92363664D01*
X99350113Y-92597612D01*
X99341512Y-92609373D01*
X99164259Y-92824023D01*
X99154337Y-92834693D01*
X98953137Y-93027062D01*
X98942033Y-93036494D01*
X98719665Y-93203931D01*
X98707531Y-93211997D01*
X98467043Y-93352202D01*
X98454047Y-93358788D01*
X98198776Y-93469817D01*
X98185096Y-93474833D01*
X97918571Y-93555150D01*
X97904398Y-93558527D01*
X97630295Y-93607027D01*
X97615823Y-93608719D01*
X97334257Y-93624943D01*
X97326972Y-93625148D01*
X97258849Y-93625064D01*
X97255173Y-93625306D01*
X94958455Y-93630075D01*
X94891375Y-93610529D01*
X94845511Y-93557821D01*
X94834198Y-93506075D01*
X94834198Y-91122328D01*
X96820653Y-91122328D01*
X96841134Y-91264784D01*
X96900922Y-91395699D01*
X96900923Y-91395701D01*
X96995172Y-91504471D01*
X97116247Y-91582281D01*
X97116250Y-91582282D01*
X97116249Y-91582282D01*
X97254336Y-91622827D01*
X97254338Y-91622828D01*
X97254339Y-91622828D01*
X97398262Y-91622828D01*
X97398262Y-91622827D01*
X97536353Y-91582281D01*
X97657428Y-91504471D01*
X97751677Y-91395701D01*
X97811465Y-91264785D01*
X97831947Y-91122328D01*
X97811465Y-90979871D01*
X97751677Y-90848955D01*
X97657428Y-90740185D01*
X97536353Y-90662375D01*
X97536351Y-90662374D01*
X97536349Y-90662373D01*
X97536350Y-90662373D01*
X97398263Y-90621828D01*
X97398261Y-90621828D01*
X97254339Y-90621828D01*
X97254336Y-90621828D01*
X97116249Y-90662373D01*
X96995173Y-90740184D01*
X96900923Y-90848954D01*
X96900922Y-90848956D01*
X96841134Y-90979871D01*
X96820653Y-91122328D01*
X94834198Y-91122328D01*
X94834198Y-91093499D01*
X94834494Y-91084934D01*
X94845885Y-90920422D01*
X94851786Y-90835187D01*
X94853361Y-90822300D01*
X94896502Y-90576921D01*
X94899420Y-90564260D01*
X94954061Y-90373484D01*
X94968018Y-90324752D01*
X94972247Y-90312466D01*
X95058012Y-90100120D01*
X95065545Y-90081466D01*
X95071038Y-90069688D01*
X95189120Y-89847644D01*
X95191253Y-89843799D01*
X95192750Y-89841215D01*
X95193717Y-89839575D01*
X95225013Y-89787513D01*
X95225016Y-89787501D01*
X95225737Y-89785846D01*
X95225968Y-89785388D01*
X95226256Y-89784697D01*
X95227065Y-89782793D01*
X95227409Y-89782002D01*
X95227587Y-89781492D01*
X95228267Y-89779851D01*
X95228277Y-89779836D01*
X95244074Y-89721135D01*
X95244566Y-89719364D01*
X95261359Y-89660840D01*
X95261359Y-89660830D01*
X95261632Y-89659013D01*
X95261738Y-89658505D01*
X95261833Y-89657790D01*
X95262124Y-89655724D01*
X95262244Y-89654919D01*
X95262284Y-89654388D01*
X95262521Y-89652590D01*
X95262525Y-89652579D01*
X95262590Y-89591740D01*
X95262607Y-89589903D01*
X95263680Y-89529077D01*
X95263678Y-89529071D01*
X95263472Y-89527251D01*
X95262677Y-89513095D01*
X95262682Y-89508155D01*
X95263223Y-89013140D01*
X95282981Y-88946126D01*
X95310251Y-88916061D01*
X95843467Y-88493932D01*
X95876887Y-88475053D01*
X96451437Y-88259597D01*
X96466242Y-88255078D01*
X96969536Y-88135247D01*
X96998257Y-88131875D01*
X97351826Y-88131875D01*
X97365519Y-88132633D01*
G37*
%TD.AperFunction*%
%TD*%
%TA.AperFunction,Conductor*%
%TO.N,GND4*%
G36*
X103440519Y-88132633D02*
G01*
X103729813Y-88164776D01*
X104308402Y-88229064D01*
X104355841Y-88244423D01*
X104382624Y-88259600D01*
X105074007Y-88651383D01*
X105092255Y-88664006D01*
X105453394Y-88964955D01*
X105492293Y-89022994D01*
X105498011Y-89060214D01*
X105498011Y-89507938D01*
X105497234Y-89521799D01*
X105496855Y-89525164D01*
X105497989Y-89585219D01*
X105498011Y-89587559D01*
X105498011Y-89647487D01*
X105498452Y-89650839D01*
X105498481Y-89651225D01*
X105498761Y-89653208D01*
X105498835Y-89653562D01*
X105499343Y-89656928D01*
X105515972Y-89714612D01*
X105516598Y-89716861D01*
X105532120Y-89774782D01*
X105533417Y-89777914D01*
X105533543Y-89778275D01*
X105534319Y-89780098D01*
X105534478Y-89780414D01*
X105535847Y-89783549D01*
X105566856Y-89834992D01*
X105568019Y-89836961D01*
X105569671Y-89839824D01*
X105572049Y-89844138D01*
X105703087Y-90093554D01*
X105709090Y-90106817D01*
X105809064Y-90367449D01*
X105813471Y-90381324D01*
X105882210Y-90651880D01*
X105884960Y-90666176D01*
X105921514Y-90942916D01*
X105922570Y-90957436D01*
X105926437Y-91236556D01*
X105925784Y-91251099D01*
X105896912Y-91528747D01*
X105894559Y-91543115D01*
X105833342Y-91815474D01*
X105829321Y-91829465D01*
X105736608Y-92092764D01*
X105730975Y-92106189D01*
X105608041Y-92356809D01*
X105600873Y-92369480D01*
X105449414Y-92603963D01*
X105440811Y-92615708D01*
X105262913Y-92830823D01*
X105252993Y-92841477D01*
X105051107Y-93034263D01*
X105040006Y-93043682D01*
X104816920Y-93211475D01*
X104804792Y-93219528D01*
X104563573Y-93360021D01*
X104550584Y-93366597D01*
X104294561Y-93477850D01*
X104280891Y-93482858D01*
X104013604Y-93563334D01*
X103999442Y-93566705D01*
X103724550Y-93615303D01*
X103710090Y-93616992D01*
X103428039Y-93633230D01*
X103420761Y-93633435D01*
X103358239Y-93633358D01*
X103350177Y-93634410D01*
X103350104Y-93633851D01*
X103330220Y-93636435D01*
X101049793Y-93632239D01*
X100982790Y-93612431D01*
X100937132Y-93559543D01*
X100926021Y-93508575D01*
X100925951Y-93482858D01*
X100919554Y-91122047D01*
X102914164Y-91122047D01*
X102934645Y-91264503D01*
X102947183Y-91291956D01*
X102994434Y-91395420D01*
X103088683Y-91504190D01*
X103209758Y-91582000D01*
X103209761Y-91582001D01*
X103209760Y-91582001D01*
X103347847Y-91622546D01*
X103347849Y-91622547D01*
X103347850Y-91622547D01*
X103491773Y-91622547D01*
X103491773Y-91622546D01*
X103629864Y-91582000D01*
X103750939Y-91504190D01*
X103845188Y-91395420D01*
X103904976Y-91264504D01*
X103925458Y-91122047D01*
X103904976Y-90979590D01*
X103845188Y-90848674D01*
X103750939Y-90739904D01*
X103629864Y-90662094D01*
X103629862Y-90662093D01*
X103629860Y-90662092D01*
X103629861Y-90662092D01*
X103491774Y-90621547D01*
X103491772Y-90621547D01*
X103347850Y-90621547D01*
X103347847Y-90621547D01*
X103209760Y-90662092D01*
X103088684Y-90739903D01*
X102994434Y-90848673D01*
X102994433Y-90848675D01*
X102934645Y-90979590D01*
X102914164Y-91122047D01*
X100919554Y-91122047D01*
X100919475Y-91092919D01*
X100919771Y-91084024D01*
X100925261Y-91004693D01*
X100937082Y-90833880D01*
X100938656Y-90820997D01*
X100981941Y-90574766D01*
X100984858Y-90562109D01*
X101053688Y-90321778D01*
X101057918Y-90309483D01*
X101139770Y-90106817D01*
X101151540Y-90077673D01*
X101157020Y-90065919D01*
X101275190Y-89843710D01*
X101277257Y-89839984D01*
X101279208Y-89836604D01*
X101280255Y-89834823D01*
X101311426Y-89782968D01*
X101311426Y-89782964D01*
X101311428Y-89782963D01*
X101312438Y-89780642D01*
X101312638Y-89780245D01*
X101312767Y-89779934D01*
X101313640Y-89777877D01*
X101313782Y-89777549D01*
X101313934Y-89777115D01*
X101314894Y-89774794D01*
X101314903Y-89774780D01*
X101330561Y-89716338D01*
X101331087Y-89714441D01*
X101347772Y-89656295D01*
X101347772Y-89656289D01*
X101348143Y-89653809D01*
X101348237Y-89653357D01*
X101348288Y-89652974D01*
X101348592Y-89650810D01*
X101348649Y-89650429D01*
X101348682Y-89649978D01*
X101349009Y-89647489D01*
X101349011Y-89647486D01*
X101349011Y-89587125D01*
X101349030Y-89584940D01*
X101349042Y-89584227D01*
X101350095Y-89524532D01*
X101350093Y-89524525D01*
X101349805Y-89521984D01*
X101349011Y-89507971D01*
X101349011Y-89004739D01*
X101368696Y-88937700D01*
X101396041Y-88907519D01*
X101918467Y-88493932D01*
X101951887Y-88475053D01*
X102526437Y-88259597D01*
X102541242Y-88255078D01*
X103044536Y-88135247D01*
X103073257Y-88131875D01*
X103426826Y-88131875D01*
X103440519Y-88132633D01*
G37*
%TD.AperFunction*%
%TD*%
M02*
