%TF.GenerationSoftware,KiCad,Pcbnew,8.0.3*%
%TF.CreationDate,2024-07-16T20:49:30+03:00*%
%TF.ProjectId,PCBcoil,50434263-6f69-46c2-9e6b-696361645f70,rev?*%
%TF.SameCoordinates,Original*%
%TF.FileFunction,Soldermask,Bot*%
%TF.FilePolarity,Negative*%
%FSLAX46Y46*%
G04 Gerber Fmt 4.6, Leading zero omitted, Abs format (unit mm)*
G04 Created by KiCad (PCBNEW 8.0.3) date 2024-07-16 20:49:30*
%MOMM*%
%LPD*%
G01*
G04 APERTURE LIST*
G04 Aperture macros list*
%AMRoundRect*
0 Rectangle with rounded corners*
0 $1 Rounding radius*
0 $2 $3 $4 $5 $6 $7 $8 $9 X,Y pos of 4 corners*
0 Add a 4 corners polygon primitive as box body*
4,1,4,$2,$3,$4,$5,$6,$7,$8,$9,$2,$3,0*
0 Add four circle primitives for the rounded corners*
1,1,$1+$1,$2,$3*
1,1,$1+$1,$4,$5*
1,1,$1+$1,$6,$7*
1,1,$1+$1,$8,$9*
0 Add four rect primitives between the rounded corners*
20,1,$1+$1,$2,$3,$4,$5,0*
20,1,$1+$1,$4,$5,$6,$7,0*
20,1,$1+$1,$6,$7,$8,$9,0*
20,1,$1+$1,$8,$9,$2,$3,0*%
G04 Aperture macros list end*
%ADD10R,1.700000X1.700000*%
%ADD11O,1.700000X1.700000*%
%ADD12RoundRect,0.155000X-0.155000X0.212500X-0.155000X-0.212500X0.155000X-0.212500X0.155000X0.212500X0*%
%ADD13RoundRect,0.075000X-0.662500X-0.075000X0.662500X-0.075000X0.662500X0.075000X-0.662500X0.075000X0*%
%ADD14R,1.730000X1.980000*%
%ADD15RoundRect,0.160000X0.160000X-0.197500X0.160000X0.197500X-0.160000X0.197500X-0.160000X-0.197500X0*%
%ADD16RoundRect,0.160000X-0.197500X-0.160000X0.197500X-0.160000X0.197500X0.160000X-0.197500X0.160000X0*%
%ADD17RoundRect,0.100000X0.225000X0.100000X-0.225000X0.100000X-0.225000X-0.100000X0.225000X-0.100000X0*%
%ADD18RoundRect,0.062500X0.062500X-0.325000X0.062500X0.325000X-0.062500X0.325000X-0.062500X-0.325000X0*%
%ADD19RoundRect,0.062500X0.325000X-0.062500X0.325000X0.062500X-0.325000X0.062500X-0.325000X-0.062500X0*%
%ADD20R,1.800000X1.800000*%
%ADD21RoundRect,0.155000X-0.212500X-0.155000X0.212500X-0.155000X0.212500X0.155000X-0.212500X0.155000X0*%
%ADD22RoundRect,0.237500X-0.237500X0.300000X-0.237500X-0.300000X0.237500X-0.300000X0.237500X0.300000X0*%
%ADD23RoundRect,0.155000X0.212500X0.155000X-0.212500X0.155000X-0.212500X-0.155000X0.212500X-0.155000X0*%
%ADD24RoundRect,0.237500X-0.300000X-0.237500X0.300000X-0.237500X0.300000X0.237500X-0.300000X0.237500X0*%
%ADD25RoundRect,0.250000X-0.337500X-0.475000X0.337500X-0.475000X0.337500X0.475000X-0.337500X0.475000X0*%
G04 APERTURE END LIST*
D10*
%TO.C,REF\u002A\u002A*%
X141075000Y-98247500D03*
D11*
X141075000Y-100787500D03*
X141075000Y-103327500D03*
X141075000Y-105867500D03*
X141075000Y-108407500D03*
%TD*%
D10*
%TO.C,REF\u002A\u002A*%
X139405000Y-126750000D03*
D11*
X139405000Y-124210000D03*
%TD*%
D10*
%TO.C,REF\u002A\u002A*%
X120382500Y-114787500D03*
D11*
X117842500Y-114787500D03*
X115302500Y-114787500D03*
X112762500Y-114787500D03*
X110222500Y-114787500D03*
%TD*%
D10*
%TO.C,REF\u002A\u002A*%
X117305000Y-124305000D03*
D11*
X117305000Y-126845000D03*
%TD*%
D10*
%TO.C,REF\u002A\u002A*%
X127075000Y-98247500D03*
D11*
X127075000Y-100787500D03*
X127075000Y-103327500D03*
X127075000Y-105867500D03*
X127075000Y-108407500D03*
%TD*%
D10*
%TO.C,REF\u002A\u002A*%
X94870000Y-119145000D03*
D11*
X97410000Y-119145000D03*
%TD*%
D10*
%TO.C,REF\u002A\u002A*%
X112735000Y-119105000D03*
%TD*%
%TO.C,REF\u002A\u002A*%
X103640000Y-119145000D03*
D11*
X101100000Y-119145000D03*
%TD*%
D10*
%TO.C,REF\u002A\u002A*%
X135325000Y-119578750D03*
D11*
X137865000Y-119578750D03*
%TD*%
D10*
%TO.C,REF\u002A\u002A*%
X120382500Y-112257500D03*
D11*
X117842500Y-112257500D03*
X115302500Y-112257500D03*
X112762500Y-112257500D03*
X110222500Y-112257500D03*
%TD*%
D10*
%TO.C,REF\u002A\u002A*%
X123315000Y-119095000D03*
%TD*%
%TO.C,REF\u002A\u002A*%
X106522500Y-114777500D03*
D11*
X103982500Y-114777500D03*
X101442500Y-114777500D03*
X98902500Y-114777500D03*
X96362500Y-114777500D03*
%TD*%
D12*
%TO.C,C8*%
X121550000Y-105817500D03*
X121550000Y-106952500D03*
%TD*%
D13*
%TO.C,U1*%
X112395000Y-108442500D03*
X112395000Y-107942500D03*
X112395000Y-107442500D03*
X112395000Y-106942500D03*
X112395000Y-106442500D03*
X116720000Y-106442500D03*
X116720000Y-106942500D03*
X116720000Y-107442500D03*
X116720000Y-107942500D03*
X116720000Y-108442500D03*
D14*
X114557500Y-107442500D03*
%TD*%
D15*
%TO.C,R3*%
X119400000Y-109307500D03*
X119400000Y-108112500D03*
%TD*%
D16*
%TO.C,R5*%
X118890000Y-98760000D03*
X120085000Y-98760000D03*
%TD*%
D17*
%TO.C,D2*%
X114295000Y-103352500D03*
X114295000Y-104002500D03*
X114295000Y-104652500D03*
X112395000Y-104652500D03*
X112395000Y-104002500D03*
X112395000Y-103352500D03*
%TD*%
D18*
%TO.C,U2*%
X116850000Y-101647500D03*
X116350000Y-101647500D03*
X115850000Y-101647500D03*
X115350000Y-101647500D03*
D19*
X114612500Y-100910000D03*
X114612500Y-100410000D03*
X114612500Y-99910000D03*
X114612500Y-99410000D03*
D18*
X115350000Y-98672500D03*
X115850000Y-98672500D03*
X116350000Y-98672500D03*
X116850000Y-98672500D03*
D19*
X117587500Y-99410000D03*
X117587500Y-99910000D03*
X117587500Y-100410000D03*
X117587500Y-100910000D03*
D20*
X116100000Y-100160000D03*
%TD*%
D16*
%TO.C,R6*%
X118877500Y-97685000D03*
X120072500Y-97685000D03*
%TD*%
D21*
%TO.C,L4*%
X109545000Y-106867500D03*
X110680000Y-106867500D03*
%TD*%
%TO.C,C9*%
X118907500Y-99835000D03*
X120042500Y-99835000D03*
%TD*%
D16*
%TO.C,R1*%
X109545000Y-110010000D03*
X110740000Y-110010000D03*
%TD*%
D22*
%TO.C,C10*%
X121500000Y-97872500D03*
X121500000Y-99597500D03*
%TD*%
D12*
%TO.C,C5*%
X118300000Y-108117500D03*
X118300000Y-109252500D03*
%TD*%
D23*
%TO.C,C4*%
X110710000Y-107885000D03*
X109575000Y-107885000D03*
%TD*%
D15*
%TO.C,R2*%
X119400000Y-106982500D03*
X119400000Y-105787500D03*
%TD*%
D16*
%TO.C,R4*%
X109545000Y-108935000D03*
X110740000Y-108935000D03*
%TD*%
D12*
%TO.C,C6*%
X120475000Y-105817500D03*
X120475000Y-106952500D03*
%TD*%
D22*
%TO.C,C2*%
X112400000Y-99997500D03*
X112400000Y-101722500D03*
%TD*%
D21*
%TO.C,C3*%
X119532500Y-100985000D03*
X120667500Y-100985000D03*
%TD*%
D17*
%TO.C,D1*%
X117662500Y-103347500D03*
X117662500Y-103997500D03*
X117662500Y-104647500D03*
X115762500Y-104647500D03*
X115762500Y-103997500D03*
X115762500Y-103347500D03*
%TD*%
D24*
%TO.C,C7*%
X119562500Y-104385000D03*
X121287500Y-104385000D03*
%TD*%
D25*
%TO.C,C1*%
X119262500Y-102560000D03*
X121337500Y-102560000D03*
%TD*%
M02*
