%TF.GenerationSoftware,KiCad,Pcbnew,8.0.3*%
%TF.CreationDate,2024-07-16T20:49:30+03:00*%
%TF.ProjectId,PCBcoil,50434263-6f69-46c2-9e6b-696361645f70,rev?*%
%TF.SameCoordinates,Original*%
%TF.FileFunction,Copper,L8,Bot*%
%TF.FilePolarity,Positive*%
%FSLAX46Y46*%
G04 Gerber Fmt 4.6, Leading zero omitted, Abs format (unit mm)*
G04 Created by KiCad (PCBNEW 8.0.3) date 2024-07-16 20:49:30*
%MOMM*%
%LPD*%
G01*
G04 APERTURE LIST*
G04 Aperture macros list*
%AMRoundRect*
0 Rectangle with rounded corners*
0 $1 Rounding radius*
0 $2 $3 $4 $5 $6 $7 $8 $9 X,Y pos of 4 corners*
0 Add a 4 corners polygon primitive as box body*
4,1,4,$2,$3,$4,$5,$6,$7,$8,$9,$2,$3,0*
0 Add four circle primitives for the rounded corners*
1,1,$1+$1,$2,$3*
1,1,$1+$1,$4,$5*
1,1,$1+$1,$6,$7*
1,1,$1+$1,$8,$9*
0 Add four rect primitives between the rounded corners*
20,1,$1+$1,$2,$3,$4,$5,0*
20,1,$1+$1,$4,$5,$6,$7,0*
20,1,$1+$1,$6,$7,$8,$9,0*
20,1,$1+$1,$8,$9,$2,$3,0*%
G04 Aperture macros list end*
%TA.AperFunction,Conductor*%
%ADD10C,0.100000*%
%TD*%
%TA.AperFunction,ComponentPad*%
%ADD11R,1.700000X1.700000*%
%TD*%
%TA.AperFunction,ComponentPad*%
%ADD12O,1.700000X1.700000*%
%TD*%
%TA.AperFunction,SMDPad,CuDef*%
%ADD13RoundRect,0.155000X-0.155000X0.212500X-0.155000X-0.212500X0.155000X-0.212500X0.155000X0.212500X0*%
%TD*%
%TA.AperFunction,SMDPad,CuDef*%
%ADD14RoundRect,0.075000X-0.662500X-0.075000X0.662500X-0.075000X0.662500X0.075000X-0.662500X0.075000X0*%
%TD*%
%TA.AperFunction,HeatsinkPad*%
%ADD15R,1.730000X1.980000*%
%TD*%
%TA.AperFunction,SMDPad,CuDef*%
%ADD16RoundRect,0.160000X0.160000X-0.197500X0.160000X0.197500X-0.160000X0.197500X-0.160000X-0.197500X0*%
%TD*%
%TA.AperFunction,SMDPad,CuDef*%
%ADD17RoundRect,0.160000X-0.197500X-0.160000X0.197500X-0.160000X0.197500X0.160000X-0.197500X0.160000X0*%
%TD*%
%TA.AperFunction,SMDPad,CuDef*%
%ADD18RoundRect,0.100000X0.225000X0.100000X-0.225000X0.100000X-0.225000X-0.100000X0.225000X-0.100000X0*%
%TD*%
%TA.AperFunction,SMDPad,CuDef*%
%ADD19RoundRect,0.062500X0.062500X-0.325000X0.062500X0.325000X-0.062500X0.325000X-0.062500X-0.325000X0*%
%TD*%
%TA.AperFunction,SMDPad,CuDef*%
%ADD20RoundRect,0.062500X0.325000X-0.062500X0.325000X0.062500X-0.325000X0.062500X-0.325000X-0.062500X0*%
%TD*%
%TA.AperFunction,HeatsinkPad*%
%ADD21R,1.800000X1.800000*%
%TD*%
%TA.AperFunction,SMDPad,CuDef*%
%ADD22RoundRect,0.155000X-0.212500X-0.155000X0.212500X-0.155000X0.212500X0.155000X-0.212500X0.155000X0*%
%TD*%
%TA.AperFunction,SMDPad,CuDef*%
%ADD23RoundRect,0.237500X-0.237500X0.300000X-0.237500X-0.300000X0.237500X-0.300000X0.237500X0.300000X0*%
%TD*%
%TA.AperFunction,SMDPad,CuDef*%
%ADD24RoundRect,0.155000X0.212500X0.155000X-0.212500X0.155000X-0.212500X-0.155000X0.212500X-0.155000X0*%
%TD*%
%TA.AperFunction,SMDPad,CuDef*%
%ADD25RoundRect,0.237500X-0.300000X-0.237500X0.300000X-0.237500X0.300000X0.237500X-0.300000X0.237500X0*%
%TD*%
%TA.AperFunction,SMDPad,CuDef*%
%ADD26RoundRect,0.250000X-0.337500X-0.475000X0.337500X-0.475000X0.337500X0.475000X-0.337500X0.475000X0*%
%TD*%
%TA.AperFunction,ViaPad*%
%ADD27C,0.600000*%
%TD*%
%TA.AperFunction,ViaPad*%
%ADD28C,0.400000*%
%TD*%
%TA.AperFunction,ViaPad*%
%ADD29C,0.500000*%
%TD*%
%TA.AperFunction,Conductor*%
%ADD30C,0.130000*%
%TD*%
%TA.AperFunction,Conductor*%
%ADD31C,0.200000*%
%TD*%
%TA.AperFunction,Conductor*%
%ADD32C,0.300000*%
%TD*%
%TA.AperFunction,Conductor*%
%ADD33C,0.500000*%
%TD*%
G04 APERTURE END LIST*
D10*
%TO.N,unconnected-(U2-SENSEU-Pad4)*%
X103415187Y-84932156D02*
X104139289Y-84620316D01*
%TO.N,Net-(D1B-K)*%
X102886199Y-103672864D02*
X98764573Y-104673109D01*
%TO.N,unconnected-(U2-SENSEU-Pad4)*%
X103415186Y-84132156D02*
G75*
G02*
X101615144Y-82332156I-86J1799956D01*
G01*
X102815187Y-82332156D02*
G75*
G02*
X104015187Y-82332156I600000J0D01*
G01*
X105015187Y-82332156D02*
G75*
G02*
X103897932Y-83857627I-1599987J-44D01*
G01*
X104815187Y-82332156D02*
G75*
G02*
X103837590Y-83666947I-1399987J-44D01*
G01*
X103348578Y-83930765D02*
G75*
G02*
X101815151Y-82332156I66522J1598565D01*
G01*
X103179918Y-83096779D02*
X103596212Y-82904194D01*
X105615187Y-82332156D02*
G75*
G02*
X104078957Y-84429667I-2199987J-44D01*
G01*
X103415187Y-84732156D02*
G75*
G02*
X101015144Y-82332156I-87J2399956D01*
G01*
X104415187Y-82332156D02*
G75*
G02*
X103716906Y-83285587I-999987J-44D01*
G01*
X101415187Y-82332156D02*
G75*
G02*
X105415187Y-82332156I2000000J0D01*
G01*
X103415187Y-84532156D02*
X104018605Y-84238956D01*
X102615187Y-82332156D02*
G75*
G02*
X104215187Y-82332156I800000J0D01*
G01*
X103211233Y-83311137D02*
X103656554Y-83094876D01*
X105815187Y-82332156D02*
G75*
G02*
X104139299Y-84620347I-2399987J-44D01*
G01*
X102415187Y-82332156D02*
G75*
G02*
X104415187Y-82332156I1000000J0D01*
G01*
%TO.N,Net-(D1B-K)*%
X109248135Y-102435047D02*
X105121868Y-103550640D01*
%TO.N,unconnected-(U2-SENSEU-Pad4)*%
X103415187Y-84932156D02*
G75*
G02*
X100815144Y-82332156I-87J2599956D01*
G01*
X103415187Y-84732156D02*
X104078947Y-84429636D01*
X105415187Y-82332156D02*
G75*
G02*
X104018615Y-84238987I-1999987J-44D01*
G01*
X103211233Y-83311137D02*
G75*
G02*
X102415160Y-82332156I203867J978937D01*
G01*
X104615187Y-82307156D02*
G75*
G02*
X103777327Y-83476516I-1199987J-25044D01*
G01*
X101815191Y-82332156D02*
G75*
G02*
X105015187Y-82332156I1599998J1D01*
G01*
X102015191Y-82332156D02*
G75*
G02*
X104815187Y-82332156I1399998J1D01*
G01*
X102214931Y-82332156D02*
G75*
G02*
X104615208Y-82307156I1200269J-44D01*
G01*
X101615187Y-82332156D02*
G75*
G02*
X105215187Y-82332156I1800000J0D01*
G01*
X103897921Y-83857594D02*
X103415186Y-84132156D01*
X103348578Y-83930765D02*
X103837579Y-83666914D01*
%TO.N,Net-(D1B-K)*%
X105121868Y-103550640D02*
G75*
G02*
X102886284Y-103672856I-1120468J-12160D01*
G01*
%TO.N,unconnected-(U2-SENSEU-Pad4)*%
X105215187Y-82332156D02*
G75*
G02*
X103958273Y-84048308I-1799987J-44D01*
G01*
X101015187Y-82332156D02*
G75*
G02*
X105815187Y-82332156I2400000J0D01*
G01*
X100815187Y-82332156D02*
G75*
G02*
X106015187Y-82332156I2600000J0D01*
G01*
X104015187Y-82332156D02*
G75*
G02*
X103596223Y-82904227I-599987J-44D01*
G01*
X101215187Y-82332156D02*
G75*
G02*
X105615187Y-82332156I2200000J0D01*
G01*
X103415187Y-84532156D02*
G75*
G02*
X101215144Y-82332156I-87J2199956D01*
G01*
X103415187Y-84332156D02*
X103958263Y-84048276D01*
X103286504Y-83726226D02*
G75*
G02*
X102015155Y-82332156I128596J1394026D01*
G01*
X103415187Y-85132156D02*
X104199631Y-84810996D01*
X103286504Y-83726226D02*
X103777316Y-83476482D01*
X106015187Y-82332156D02*
G75*
G02*
X104199641Y-84811027I-2599987J-44D01*
G01*
X103415187Y-84332156D02*
G75*
G02*
X101415144Y-82332156I-87J1999956D01*
G01*
X103179918Y-83096779D02*
G75*
G02*
X102615168Y-82332156I235182J764579D01*
G01*
X103242422Y-83519913D02*
G75*
G02*
X102214900Y-82332156I172678J1187713D01*
G01*
X103242422Y-83519913D02*
X103716896Y-83285556D01*
X104215187Y-82332156D02*
G75*
G02*
X103656564Y-83094907I-799987J-44D01*
G01*
%TD*%
D11*
%TO.P,REF\u002A\u002A,1*%
%TO.N,N/C*%
X141075000Y-98247500D03*
D12*
%TO.P,REF\u002A\u002A,2*%
X141075000Y-100787500D03*
%TO.P,REF\u002A\u002A,3*%
%TO.N,Net-(D1C-K)*%
X141075000Y-103327500D03*
%TO.P,REF\u002A\u002A,4*%
X141075000Y-105867500D03*
%TO.P,REF\u002A\u002A,5*%
X141075000Y-108407500D03*
%TD*%
D11*
%TO.P,REF\u002A\u002A,1*%
%TO.N,+5V*%
X139405000Y-126750000D03*
D12*
%TO.P,REF\u002A\u002A,2*%
%TO.N,GND2*%
X139405000Y-124210000D03*
%TD*%
D11*
%TO.P,REF\u002A\u002A,1*%
%TO.N,EN*%
X120382500Y-114787500D03*
D12*
%TO.P,REF\u002A\u002A,2*%
%TO.N,FAULT*%
X117842500Y-114787500D03*
%TO.P,REF\u002A\u002A,3*%
%TO.N,STBY*%
X115302500Y-114787500D03*
%TO.P,REF\u002A\u002A,4*%
%TO.N,~{SHDN}*%
X112762500Y-114787500D03*
%TO.P,REF\u002A\u002A,5*%
%TO.N,EN_U*%
X110222500Y-114787500D03*
%TD*%
D11*
%TO.P,REF\u002A\u002A,1*%
%TO.N,Net-(D10-K)*%
X117305000Y-124305000D03*
D12*
%TO.P,REF\u002A\u002A,2*%
%TO.N,Net-(D7-A)*%
X117305000Y-126845000D03*
%TD*%
D11*
%TO.P,REF\u002A\u002A,1*%
%TO.N,N/C*%
X127075000Y-98247500D03*
D12*
%TO.P,REF\u002A\u002A,2*%
X127075000Y-100787500D03*
%TO.P,REF\u002A\u002A,3*%
%TO.N,Net-(D1C-K)*%
X127075000Y-103327500D03*
%TO.P,REF\u002A\u002A,4*%
X127075000Y-105867500D03*
%TO.P,REF\u002A\u002A,5*%
X127075000Y-108407500D03*
%TD*%
D11*
%TO.P,REF\u002A\u002A,1*%
%TO.N,Net-(Q3-C)*%
X94870000Y-119145000D03*
D12*
%TO.P,REF\u002A\u002A,2*%
%TO.N,+9V*%
X97410000Y-119145000D03*
%TD*%
D11*
%TO.P,REF\u002A\u002A,1*%
%TO.N,Net-(C14-Pad1)*%
X112735000Y-119105000D03*
%TD*%
%TO.P,REF\u002A\u002A,1*%
%TO.N,Net-(C16-Pad1)*%
X103640000Y-119145000D03*
D12*
%TO.P,REF\u002A\u002A,2*%
%TO.N,+9V*%
X101100000Y-119145000D03*
%TD*%
D11*
%TO.P,REF\u002A\u002A,1*%
%TO.N,3.3V*%
X135325000Y-119578750D03*
D12*
%TO.P,REF\u002A\u002A,2*%
%TO.N,Net-(Q1-C)*%
X137865000Y-119578750D03*
%TD*%
D11*
%TO.P,REF\u002A\u002A,1*%
%TO.N,IN_W*%
X120382500Y-112257500D03*
D12*
%TO.P,REF\u002A\u002A,2*%
%TO.N,EN_W*%
X117842500Y-112257500D03*
%TO.P,REF\u002A\u002A,3*%
%TO.N,IN_V*%
X115302500Y-112257500D03*
%TO.P,REF\u002A\u002A,4*%
%TO.N,EN_V*%
X112762500Y-112257500D03*
%TO.P,REF\u002A\u002A,5*%
%TO.N,IN_U*%
X110222500Y-112257500D03*
%TD*%
D11*
%TO.P,REF\u002A\u002A,1*%
%TO.N,Net-(D3-A)*%
X123315000Y-119095000D03*
%TD*%
%TO.P,REF\u002A\u002A,1*%
%TO.N,GND*%
X106522500Y-114777500D03*
D12*
%TO.P,REF\u002A\u002A,2*%
%TO.N,Net-(J1-Pin_1)*%
X103982500Y-114777500D03*
%TO.P,REF\u002A\u002A,3*%
%TO.N,Net-(J1-Pin_2)*%
X101442500Y-114777500D03*
%TO.P,REF\u002A\u002A,4*%
%TO.N,Net-(J1-Pin_3)*%
X98902500Y-114777500D03*
%TO.P,REF\u002A\u002A,5*%
%TO.N,3.3V*%
X96362500Y-114777500D03*
%TD*%
D13*
%TO.P,C8,1*%
%TO.N,+5V*%
X121550000Y-105817500D03*
%TO.P,C8,2*%
%TO.N,GND*%
X121550000Y-106952500D03*
%TD*%
D14*
%TO.P,U1,1,RT*%
%TO.N,Net-(U1-RT)*%
X112395000Y-108442500D03*
%TO.P,U1,2,BURST*%
%TO.N,Net-(U1-BURST)*%
X112395000Y-107942500D03*
%TO.P,U1,3,SW1*%
%TO.N,Net-(U1-SW1)*%
X112395000Y-107442500D03*
%TO.P,U1,4,SW2*%
%TO.N,Net-(U1-SW2)*%
X112395000Y-106942500D03*
%TO.P,U1,5,GND*%
%TO.N,GND*%
X112395000Y-106442500D03*
%TO.P,U1,6,Vout*%
%TO.N,+5V*%
X116720000Y-106442500D03*
%TO.P,U1,7,Vin*%
%TO.N,V_Mot<5V*%
X116720000Y-106942500D03*
%TO.P,U1,8,~{SHDN}*%
%TO.N,~{SHDN}*%
X116720000Y-107442500D03*
%TO.P,U1,9,FB*%
%TO.N,Net-(U1-FB)*%
X116720000Y-107942500D03*
%TO.P,U1,10,Vc*%
%TO.N,Net-(U1-Vc)*%
X116720000Y-108442500D03*
D15*
%TO.P,U1,11*%
%TO.N,GND*%
X114557500Y-107442500D03*
%TD*%
D16*
%TO.P,R3,1*%
%TO.N,Net-(U1-Vc)*%
X119400000Y-109307500D03*
%TO.P,R3,2*%
%TO.N,Net-(U1-FB)*%
X119400000Y-108112500D03*
%TD*%
D17*
%TO.P,R5,1*%
%TO.N,STBY*%
X118890000Y-98760000D03*
%TO.P,R5,2*%
%TO.N,+5V*%
X120085000Y-98760000D03*
%TD*%
D18*
%TO.P,D2,1,A*%
%TO.N,Net-(D1A-K)*%
X114295000Y-103352500D03*
%TO.P,D2,2,A*%
%TO.N,Net-(D1B-K)*%
X114295000Y-104002500D03*
%TO.P,D2,3,A*%
%TO.N,Net-(D1C-K)*%
X114295000Y-104652500D03*
%TO.P,D2,4,K*%
%TO.N,GND*%
X112395000Y-104652500D03*
%TO.P,D2,5,K*%
X112395000Y-104002500D03*
%TO.P,D2,6,K*%
X112395000Y-103352500D03*
%TD*%
D19*
%TO.P,U2,1,INU*%
%TO.N,IN_U*%
X116850000Y-101647500D03*
%TO.P,U2,2,ENU*%
%TO.N,EN_U*%
X116350000Y-101647500D03*
%TO.P,U2,3,OUTU*%
%TO.N,Net-(D1A-K)*%
X115850000Y-101647500D03*
%TO.P,U2,4,SENSEU*%
%TO.N,unconnected-(U2-SENSEU-Pad4)*%
X115350000Y-101647500D03*
D20*
%TO.P,U2,5,VS*%
%TO.N,+5V*%
X114612500Y-100910000D03*
%TO.P,U2,6,GND*%
%TO.N,GND*%
X114612500Y-100410000D03*
%TO.P,U2,7,OUTV*%
%TO.N,Net-(D1B-K)*%
X114612500Y-99910000D03*
%TO.P,U2,8,SENSEV*%
%TO.N,unconnected-(U2-SENSEV-Pad8)*%
X114612500Y-99410000D03*
D19*
%TO.P,U2,9,SENSEW*%
%TO.N,unconnected-(U2-SENSEW-Pad9)*%
X115350000Y-98672500D03*
%TO.P,U2,10,OUTW*%
%TO.N,Net-(D1C-K)*%
X115850000Y-98672500D03*
%TO.P,U2,11,INW*%
%TO.N,IN_W*%
X116350000Y-98672500D03*
%TO.P,U2,12,ENW*%
%TO.N,EN_W*%
X116850000Y-98672500D03*
D20*
%TO.P,U2,13,EN/FAULT*%
%TO.N,FAULT*%
X117587500Y-99410000D03*
%TO.P,U2,14,STBY/RESET*%
%TO.N,STBY*%
X117587500Y-99910000D03*
%TO.P,U2,15,INV*%
%TO.N,IN_V*%
X117587500Y-100410000D03*
%TO.P,U2,16,ENV*%
%TO.N,EN_V*%
X117587500Y-100910000D03*
D21*
%TO.P,U2,17,GND*%
%TO.N,GND*%
X116100000Y-100160000D03*
%TD*%
D17*
%TO.P,R6,1*%
%TO.N,FAULT*%
X118877500Y-97685000D03*
%TO.P,R6,2*%
%TO.N,EN*%
X120072500Y-97685000D03*
%TD*%
D22*
%TO.P,L4,1,1*%
%TO.N,Net-(U1-SW2)*%
X109545000Y-106867500D03*
%TO.P,L4,2,2*%
%TO.N,Net-(U1-SW1)*%
X110680000Y-106867500D03*
%TD*%
%TO.P,C9,1*%
%TO.N,STBY*%
X118907500Y-99835000D03*
%TO.P,C9,2*%
%TO.N,GND*%
X120042500Y-99835000D03*
%TD*%
D17*
%TO.P,R1,1*%
%TO.N,GND*%
X109545000Y-110010000D03*
%TO.P,R1,2*%
%TO.N,Net-(U1-RT)*%
X110740000Y-110010000D03*
%TD*%
D23*
%TO.P,C10,1*%
%TO.N,FAULT*%
X121500000Y-97872500D03*
%TO.P,C10,2*%
%TO.N,GND*%
X121500000Y-99597500D03*
%TD*%
D13*
%TO.P,C5,1*%
%TO.N,Net-(U1-FB)*%
X118300000Y-108117500D03*
%TO.P,C5,2*%
%TO.N,Net-(U1-Vc)*%
X118300000Y-109252500D03*
%TD*%
D24*
%TO.P,C4,1*%
%TO.N,Net-(U1-BURST)*%
X110710000Y-107885000D03*
%TO.P,C4,2*%
%TO.N,GND*%
X109575000Y-107885000D03*
%TD*%
D16*
%TO.P,R2,1*%
%TO.N,Net-(U1-FB)*%
X119400000Y-106982500D03*
%TO.P,R2,2*%
%TO.N,+5V*%
X119400000Y-105787500D03*
%TD*%
D17*
%TO.P,R4,1*%
%TO.N,GND*%
X109545000Y-108935000D03*
%TO.P,R4,2*%
%TO.N,Net-(U1-BURST)*%
X110740000Y-108935000D03*
%TD*%
D13*
%TO.P,C6,1*%
%TO.N,+5V*%
X120475000Y-105817500D03*
%TO.P,C6,2*%
%TO.N,GND*%
X120475000Y-106952500D03*
%TD*%
D23*
%TO.P,C2,1*%
%TO.N,V_Mot<5V*%
X112400000Y-99997500D03*
%TO.P,C2,2*%
%TO.N,GND*%
X112400000Y-101722500D03*
%TD*%
D22*
%TO.P,C3,1*%
%TO.N,V_Mot<5V*%
X119532500Y-100985000D03*
%TO.P,C3,2*%
%TO.N,GND*%
X120667500Y-100985000D03*
%TD*%
D18*
%TO.P,D1,1,A*%
%TO.N,V_Mot<5V*%
X117662500Y-103347500D03*
%TO.P,D1,2,A*%
X117662500Y-103997500D03*
%TO.P,D1,3,A*%
X117662500Y-104647500D03*
%TO.P,D1,4,K*%
%TO.N,Net-(D1C-K)*%
X115762500Y-104647500D03*
%TO.P,D1,5,K*%
%TO.N,Net-(D1B-K)*%
X115762500Y-103997500D03*
%TO.P,D1,6,K*%
%TO.N,Net-(D1A-K)*%
X115762500Y-103347500D03*
%TD*%
D25*
%TO.P,C7,1*%
%TO.N,+5V*%
X119562500Y-104385000D03*
%TO.P,C7,2*%
%TO.N,GND*%
X121287500Y-104385000D03*
%TD*%
D26*
%TO.P,C1,1*%
%TO.N,V_Mot<5V*%
X119262500Y-102560000D03*
%TO.P,C1,2*%
%TO.N,GND*%
X121337500Y-102560000D03*
%TD*%
D27*
%TO.N,GND4*%
X94960000Y-93515000D03*
X101010000Y-93465000D03*
D28*
%TO.N,*%
X103688404Y-100322069D03*
X106944733Y-104901444D03*
D29*
X127617276Y-80044006D03*
D28*
X104028404Y-106298388D03*
D29*
X135317276Y-86274006D03*
D28*
X106402701Y-104900271D03*
D29*
X127817276Y-86249006D03*
D28*
X102347562Y-108645750D03*
D29*
X127829776Y-82499006D03*
D28*
X101311917Y-98959856D03*
X103718404Y-106758388D03*
D29*
X131377276Y-80044006D03*
X131650000Y-99802500D03*
D28*
X100406636Y-99578401D03*
D29*
X141585000Y-90065000D03*
D28*
X101350722Y-105411354D03*
D29*
X141645000Y-86065000D03*
D28*
X107595155Y-107529603D03*
X101069382Y-104904060D03*
D29*
X131567276Y-86274006D03*
D28*
X106132373Y-98676072D03*
X100853567Y-99267023D03*
X109229661Y-102410718D03*
X98666423Y-103567288D03*
D29*
X131579776Y-93774006D03*
D28*
X103958404Y-100792069D03*
D29*
X141655000Y-82335000D03*
D28*
X101057058Y-102206561D03*
D29*
X135329776Y-90024006D03*
X139067276Y-86274006D03*
X131579776Y-82524006D03*
D28*
X109312696Y-103503987D03*
D29*
X135329776Y-82524006D03*
D28*
X106628397Y-101659920D03*
X101359246Y-108171026D03*
X101854435Y-108414385D03*
X98749458Y-104660557D03*
X106909737Y-102167215D03*
X101599090Y-102207734D03*
D29*
X139079776Y-93774006D03*
D28*
X98703262Y-104117814D03*
D29*
X127829776Y-93749006D03*
D28*
X106627562Y-98919431D03*
D29*
X139079776Y-90024006D03*
D28*
X104268404Y-100332069D03*
X107148224Y-107840981D03*
D29*
X127829776Y-89999006D03*
D28*
X131408118Y-105098669D03*
X109275857Y-102953461D03*
D29*
X135329776Y-93774006D03*
D28*
X104298404Y-106768388D03*
D29*
X141575000Y-94055000D03*
D28*
X101355718Y-101709266D03*
X136669975Y-104627846D03*
X106356365Y-102128747D03*
X106689874Y-108148148D03*
D29*
X131579776Y-90024006D03*
X139037276Y-80034006D03*
D28*
X106646073Y-105398738D03*
X101622754Y-104942527D03*
D29*
X136475000Y-99827500D03*
X135187276Y-80054006D03*
D28*
X105625641Y-98415580D03*
D29*
X139079776Y-82524006D03*
D28*
%TO.N,GND*%
X109542500Y-109977500D03*
X115472500Y-100797500D03*
X121500000Y-99597500D03*
D27*
X113183698Y-93581875D03*
D28*
X116675641Y-99595580D03*
X112412500Y-101677500D03*
D27*
X119283698Y-93531875D03*
D28*
%TO.N,V_Mot<5V*%
X112332500Y-100237500D03*
X117662500Y-103337500D03*
%TO.N,Net-(D1C-K)*%
X131400288Y-104527500D03*
X115082500Y-104647500D03*
X136098806Y-104635676D03*
%TO.N,Net-(D1B-K)*%
X99535641Y-106185580D03*
X115072500Y-103997500D03*
%TO.N,Net-(D1A-K)*%
X115092500Y-103347500D03*
D27*
%TO.N,IN_W*%
X116222500Y-97657500D03*
D28*
%TO.N,EN_V*%
X118648195Y-101154508D03*
D27*
%TO.N,unconnected-(U2-SENSEU-Pad4)*%
X114435000Y-87655000D03*
D28*
X108230000Y-85847327D03*
D27*
X103415189Y-82332155D03*
X115583678Y-82331892D03*
X96045000Y-87655000D03*
D28*
X122948511Y-87606594D03*
D27*
X110855000Y-85925000D03*
X115588322Y-91121766D03*
X121669811Y-91122047D03*
X109494811Y-91122047D03*
X97326300Y-91122328D03*
D28*
X110773511Y-87606594D03*
D27*
X109508700Y-82331874D03*
D28*
X104698511Y-87606594D03*
X114305000Y-85847327D03*
D27*
X121677211Y-82331593D03*
X123055000Y-85825000D03*
D28*
X96055000Y-85847327D03*
X102136489Y-85847608D03*
D27*
X102135000Y-87615000D03*
X97333700Y-82331874D03*
X103419811Y-91122047D03*
X108295000Y-87625000D03*
X116845000Y-85845000D03*
D28*
X120398511Y-85847046D03*
X98605000Y-87606875D03*
X116867022Y-87606313D03*
D27*
X120485000Y-87625000D03*
D28*
%TO.N,EN_U*%
X116362500Y-102437500D03*
%TO.N,STBY*%
X118892500Y-98767500D03*
D27*
%TO.N,EN_W*%
X117032500Y-97667500D03*
D28*
%TO.N,IN_U*%
X116982500Y-102377500D03*
%TO.N,IN_V*%
X118672502Y-100554998D03*
%TO.N,EN*%
X120082500Y-97667500D03*
%TO.N,~{SHDN}*%
X118352500Y-107097500D03*
%TO.N,+5V*%
X121532500Y-105837500D03*
X116752500Y-105787500D03*
D27*
X114560454Y-101572698D03*
D28*
X120082500Y-98757500D03*
X119400000Y-105787500D03*
D27*
%TO.N,Net-(Q1-C)*%
X127732500Y-119278750D03*
%TO.N,Net-(D7-A)*%
X121777500Y-126387500D03*
%TO.N,Net-(J1-Pin_3)*%
X99450454Y-111452698D03*
%TO.N,Net-(J1-Pin_2)*%
X101020454Y-111452698D03*
%TO.N,Net-(J1-Pin_1)*%
X102510454Y-111482698D03*
%TO.N,GND4*%
X107108698Y-93481875D03*
%TD*%
D30*
%TO.N,*%
X138329776Y-89274006D02*
X138329776Y-90799006D01*
X134854776Y-89561506D02*
X134854776Y-90536506D01*
X129129776Y-87874006D02*
X129129776Y-84974006D01*
D31*
X140655000Y-98247500D02*
X141075000Y-98247500D01*
X133850000Y-98002500D02*
X133850000Y-101702500D01*
D30*
X127379776Y-94274006D02*
X128054776Y-94274006D01*
X139279776Y-89824006D02*
X139079776Y-89824006D01*
X130854776Y-93024006D02*
X130854776Y-94549006D01*
X139579776Y-94549006D02*
X139579776Y-93299006D01*
X131104776Y-90524006D02*
X131779776Y-90524006D01*
X138054776Y-81499006D02*
X138054776Y-83574006D01*
X126554776Y-95099006D02*
X128879776Y-95099006D01*
X126804776Y-91074006D02*
X128579776Y-91074006D01*
X132054776Y-87049006D02*
X132054776Y-85799006D01*
D31*
X130550000Y-98402500D02*
X132800000Y-98402500D01*
D30*
X138329776Y-87049006D02*
X139554776Y-87049006D01*
X138604776Y-90524006D02*
X139279776Y-90524006D01*
D31*
X132650000Y-99002500D02*
X132650000Y-100652500D01*
D30*
X136379776Y-92761506D02*
X134329776Y-92761506D01*
X135329776Y-86086506D02*
X135329776Y-86286506D01*
X132054776Y-89549006D02*
X131104776Y-89549006D01*
X137529776Y-92199006D02*
X137529776Y-95374006D01*
X131779776Y-82324006D02*
X131579776Y-82324006D01*
X128579776Y-83574006D02*
X128579776Y-81774006D01*
X129704776Y-91899006D02*
X133154776Y-91899006D01*
X133154776Y-91899006D02*
X133154776Y-88449006D01*
X126554776Y-92474006D02*
X126554776Y-95099006D01*
X136904776Y-88161506D02*
X136904776Y-84711506D01*
X132329776Y-91074006D02*
X132329776Y-89274006D01*
X131579776Y-89824006D02*
X131579776Y-90024006D01*
X128304776Y-85799006D02*
X127354776Y-85799006D01*
X134854776Y-90536506D02*
X135529776Y-90536506D01*
X125954776Y-84399006D02*
X125954776Y-88149006D01*
X132604776Y-88999006D02*
X130554776Y-88999006D01*
D31*
X135325000Y-101227500D02*
X137975000Y-101227500D01*
D30*
X135529776Y-82336506D02*
X135329776Y-82336506D01*
X137504776Y-84124006D02*
X140379776Y-84124006D01*
X129404776Y-84699006D02*
X126254776Y-84699006D01*
X138629776Y-93299006D02*
X138629776Y-94274006D01*
X137779776Y-83849006D02*
X140104776Y-83849006D01*
X139279776Y-86774006D02*
X139279776Y-86074006D01*
X138329776Y-90799006D02*
X139554776Y-90799006D01*
D31*
X139037276Y-80034006D02*
X139047276Y-80044006D01*
D30*
X137204776Y-91899006D02*
X140654776Y-91899006D01*
X132604776Y-85249006D02*
X130554776Y-85249006D01*
X138629776Y-94274006D02*
X139304776Y-94274006D01*
X137204776Y-84399006D02*
X140654776Y-84399006D01*
X130279776Y-91349006D02*
X132604776Y-91349006D01*
X134604776Y-94561506D02*
X135829776Y-94561506D01*
X129429776Y-95649006D02*
X129429776Y-92199006D01*
X127829776Y-82324006D02*
X127829776Y-82524006D01*
X135329776Y-89836506D02*
X135329776Y-90036506D01*
X140679776Y-95649006D02*
X140679776Y-92199006D01*
D31*
X135475000Y-99027500D02*
X135475000Y-100677500D01*
D30*
X136929776Y-92211506D02*
X133779776Y-92211506D01*
X133754776Y-87886506D02*
X136629776Y-87886506D01*
X128579776Y-91074006D02*
X128579776Y-89274006D01*
X139279776Y-86074006D02*
X139079776Y-86074006D01*
D31*
X135177276Y-80044006D02*
X135187276Y-80054006D01*
D30*
X134604776Y-93036506D02*
X134604776Y-94561506D01*
X130554776Y-85249006D02*
X130554776Y-87324006D01*
D31*
X126559776Y-80044006D02*
X127617276Y-80044006D01*
X133450000Y-98302500D02*
X133450000Y-101352500D01*
X129550000Y-101352500D02*
X129550000Y-97852500D01*
D30*
X126804776Y-88999006D02*
X126804776Y-91074006D01*
X134879776Y-94286506D02*
X135554776Y-94286506D01*
X130554776Y-87324006D02*
X132329776Y-87324006D01*
X125954776Y-91899006D02*
X129404776Y-91899006D01*
X132329776Y-83574006D02*
X132329776Y-81774006D01*
X132054776Y-85799006D02*
X131104776Y-85799006D01*
X128579776Y-81774006D02*
X127079776Y-81774006D01*
X132329776Y-89274006D02*
X130829776Y-89274006D01*
X138354776Y-94549006D02*
X139579776Y-94549006D01*
X140379776Y-81224006D02*
X137779776Y-81224006D01*
X134054776Y-92486506D02*
X134054776Y-95111506D01*
X133454776Y-84411506D02*
X136904776Y-84411506D01*
X127079776Y-83299006D02*
X128304776Y-83299006D01*
X132354776Y-93024006D02*
X130854776Y-93024006D01*
X135804776Y-89561506D02*
X134854776Y-89561506D01*
X127829776Y-86074006D02*
X127829776Y-86274006D01*
X132879776Y-87874006D02*
X132879776Y-84974006D01*
X131104776Y-82049006D02*
X131104776Y-83024006D01*
X125954776Y-91899006D02*
X125954776Y-95649006D01*
X129704776Y-84399006D02*
X129704776Y-88149006D01*
X130004776Y-88449006D02*
X130004776Y-91624006D01*
X139304776Y-93574006D02*
X139104776Y-93574006D01*
X137779776Y-87599006D02*
X140104776Y-87599006D01*
X134579776Y-89286506D02*
X134579776Y-90811506D01*
X136904776Y-84411506D02*
X136904776Y-80961506D01*
X136354776Y-91361506D02*
X136354776Y-89011506D01*
X136354776Y-87611506D02*
X136354776Y-85261506D01*
X129704776Y-95649006D02*
X133179776Y-95649006D01*
X133454776Y-88161506D02*
X136904776Y-88161506D01*
X131779776Y-89824006D02*
X131579776Y-89824006D01*
X129129776Y-84124006D02*
X129129776Y-81224006D01*
D31*
X132100000Y-100402500D02*
X130800000Y-100402500D01*
D30*
X137804776Y-92474006D02*
X137804776Y-95099006D01*
X132604776Y-81499006D02*
X130554776Y-81499006D01*
X139079776Y-86074006D02*
X139079776Y-86274006D01*
X133154776Y-84699006D02*
X130004776Y-84699006D01*
X136629776Y-84986506D02*
X134029776Y-84986506D01*
X138329776Y-85524006D02*
X138329776Y-87049006D01*
X132879776Y-81224006D02*
X130279776Y-81224006D01*
X137779776Y-88724006D02*
X137779776Y-91349006D01*
X140104776Y-83849006D02*
X140104776Y-81499006D01*
X130829776Y-83299006D02*
X132054776Y-83299006D01*
X127104776Y-93024006D02*
X127104776Y-94549006D01*
X140379776Y-84124006D02*
X140379776Y-81224006D01*
X127354776Y-89549006D02*
X127354776Y-90524006D01*
X127354776Y-90524006D02*
X128029776Y-90524006D01*
X131804776Y-94274006D02*
X131804776Y-93574006D01*
X129704776Y-88149006D02*
X133154776Y-88149006D01*
X136079776Y-81786506D02*
X134579776Y-81786506D01*
X133454776Y-80661506D02*
X133454776Y-84411506D01*
X140104776Y-85249006D02*
X138054776Y-85249006D01*
X129704776Y-88149006D02*
X129704776Y-91899006D01*
X129129776Y-81224006D02*
X126529776Y-81224006D01*
X134579776Y-87061506D02*
X135804776Y-87061506D01*
X139554776Y-82049006D02*
X138604776Y-82049006D01*
X127354776Y-86774006D02*
X128029776Y-86774006D01*
X127829776Y-89824006D02*
X127829776Y-90024006D01*
X128579776Y-87324006D02*
X128579776Y-85524006D01*
X125954776Y-80649006D02*
X125954776Y-84399006D01*
D31*
X134072276Y-80044006D02*
X135177276Y-80044006D01*
D30*
X139829776Y-87324006D02*
X139829776Y-85524006D01*
X133454776Y-84411506D02*
X133454776Y-88161506D01*
X140404776Y-95374006D02*
X140404776Y-92474006D01*
X140129776Y-92749006D02*
X138079776Y-92749006D01*
D31*
X131050000Y-99652500D02*
X131050000Y-99352500D01*
D30*
X127079776Y-85524006D02*
X127079776Y-87049006D01*
X125954776Y-88149006D02*
X125954776Y-91899006D01*
X134579776Y-83311506D02*
X135804776Y-83311506D01*
X139854776Y-93024006D02*
X138354776Y-93024006D01*
X139554776Y-83299006D02*
X139554776Y-82049006D01*
D31*
X128875000Y-99652500D02*
X128480000Y-99652500D01*
D30*
X131604776Y-93574006D02*
X131604776Y-93774006D01*
X127354776Y-82049006D02*
X127354776Y-83024006D01*
X126529776Y-83849006D02*
X128854776Y-83849006D01*
D31*
X132250000Y-99402500D02*
X132250000Y-100252500D01*
D30*
X131104776Y-85799006D02*
X131104776Y-86774006D01*
X137504776Y-88449006D02*
X137504776Y-91624006D01*
D31*
X133050000Y-98652500D02*
X133050000Y-100952500D01*
D30*
X130554776Y-83574006D02*
X132329776Y-83574006D01*
X126829776Y-94824006D02*
X128604776Y-94824006D01*
X136629776Y-88736506D02*
X134029776Y-88736506D01*
X129404776Y-91899006D02*
X129404776Y-88449006D01*
X128054776Y-94274006D02*
X128054776Y-93574006D01*
X126529776Y-87599006D02*
X128854776Y-87599006D01*
X134854776Y-83036506D02*
X135529776Y-83036506D01*
X134579776Y-90811506D02*
X135804776Y-90811506D01*
X134854776Y-86786506D02*
X135529776Y-86786506D01*
X132879776Y-88724006D02*
X130279776Y-88724006D01*
D31*
X138225000Y-100977500D02*
X138225000Y-98327500D01*
D30*
X139554776Y-85799006D02*
X138604776Y-85799006D01*
X136904776Y-91911506D02*
X136904776Y-88461506D01*
X140104776Y-81499006D02*
X138054776Y-81499006D01*
X140379776Y-88724006D02*
X137779776Y-88724006D01*
D31*
X130309776Y-80044006D02*
X131377276Y-80044006D01*
X128480000Y-99652500D02*
X127075000Y-98247500D01*
D30*
X139279776Y-82324006D02*
X139079776Y-82324006D01*
X136629776Y-91636506D02*
X136629776Y-88736506D01*
X132904776Y-92474006D02*
X130304776Y-92474006D01*
X126829776Y-92749006D02*
X126829776Y-94824006D01*
X128329776Y-94549006D02*
X128329776Y-93299006D01*
X135554776Y-93586506D02*
X135354776Y-93586506D01*
X128304776Y-90799006D02*
X128304776Y-89549006D01*
X128029776Y-89824006D02*
X127829776Y-89824006D01*
X133454776Y-88161506D02*
X133454776Y-91911506D01*
X132604776Y-87599006D02*
X132604776Y-85249006D01*
X139554776Y-90799006D02*
X139554776Y-89549006D01*
X139104776Y-93574006D02*
X139104776Y-93774006D01*
X131104776Y-89549006D02*
X131104776Y-90524006D01*
D31*
X137809776Y-80044006D02*
X139027276Y-80044006D01*
D30*
X126529776Y-88724006D02*
X126529776Y-91349006D01*
X137504776Y-87874006D02*
X140379776Y-87874006D01*
X136354776Y-81511506D02*
X134304776Y-81511506D01*
X129404776Y-88449006D02*
X126254776Y-88449006D01*
X138354776Y-93024006D02*
X138354776Y-94549006D01*
X139579776Y-93299006D02*
X138629776Y-93299006D01*
D31*
X137075000Y-99677500D02*
X137075000Y-99377500D01*
D30*
X129404776Y-80949006D02*
X126254776Y-80949006D01*
X134029776Y-87611506D02*
X136354776Y-87611506D01*
X130029776Y-95374006D02*
X132904776Y-95374006D01*
X132329776Y-85524006D02*
X130829776Y-85524006D01*
X126529776Y-91349006D02*
X128854776Y-91349006D01*
X130579776Y-92749006D02*
X130579776Y-94824006D01*
D31*
X134275000Y-98027500D02*
X134275000Y-101727500D01*
D30*
X125954776Y-95649006D02*
X129429776Y-95649006D01*
X140104776Y-88999006D02*
X138054776Y-88999006D01*
X128304776Y-89549006D02*
X127354776Y-89549006D01*
D31*
X129125000Y-101727500D02*
X129125000Y-99902500D01*
X138975000Y-99927500D02*
X140655000Y-98247500D01*
D30*
X135804776Y-90811506D02*
X135804776Y-89561506D01*
D31*
X139047276Y-80044006D02*
X139077276Y-80044006D01*
D30*
X135529776Y-83036506D02*
X135529776Y-82336506D01*
X133454776Y-91911506D02*
X133454776Y-95661506D01*
X128029776Y-86074006D02*
X127829776Y-86074006D01*
D31*
X131650000Y-99802500D02*
X131200000Y-99802500D01*
X134925000Y-101627500D02*
X138325000Y-101627500D01*
D30*
X137779776Y-84974006D02*
X137779776Y-87599006D01*
X129429776Y-92199006D02*
X126279776Y-92199006D01*
X134304776Y-81511506D02*
X134304776Y-83586506D01*
D31*
X137275000Y-98827500D02*
X135675000Y-98827500D01*
D30*
X136354776Y-89011506D02*
X134304776Y-89011506D01*
X136079776Y-85536506D02*
X134579776Y-85536506D01*
X135829776Y-94561506D02*
X135829776Y-93311506D01*
X136354776Y-85261506D02*
X134304776Y-85261506D01*
X132629776Y-92749006D02*
X130579776Y-92749006D01*
X137504776Y-91624006D02*
X140379776Y-91624006D01*
X139829776Y-81774006D02*
X138329776Y-81774006D01*
X137204776Y-88149006D02*
X137204776Y-91899006D01*
X136079776Y-83586506D02*
X136079776Y-81786506D01*
X127104776Y-94549006D02*
X128329776Y-94549006D01*
D31*
X131377276Y-80044006D02*
X131407276Y-80044006D01*
D30*
X126254776Y-88449006D02*
X126254776Y-91624006D01*
D31*
X136025000Y-100427500D02*
X137325000Y-100427500D01*
D30*
X129129776Y-91624006D02*
X129129776Y-88724006D01*
X140129776Y-95099006D02*
X140129776Y-92749006D01*
X138079776Y-94824006D02*
X139854776Y-94824006D01*
X135529776Y-89836506D02*
X135329776Y-89836506D01*
X132879776Y-84124006D02*
X132879776Y-81224006D01*
X132629776Y-95099006D02*
X132629776Y-92749006D01*
X136904776Y-80961506D02*
X133754776Y-80961506D01*
X128854776Y-81499006D02*
X126804776Y-81499006D01*
X135354776Y-93586506D02*
X135354776Y-93786506D01*
X132904776Y-95374006D02*
X132904776Y-92474006D01*
X130829776Y-89274006D02*
X130829776Y-90799006D01*
X131779776Y-86074006D02*
X131579776Y-86074006D01*
X137204776Y-95649006D02*
X140679776Y-95649006D01*
X130004776Y-87874006D02*
X132879776Y-87874006D01*
X138079776Y-92749006D02*
X138079776Y-94824006D01*
D31*
X135075000Y-98677500D02*
X135075000Y-100977500D01*
X133454776Y-80661506D02*
X134072276Y-80044006D01*
D30*
X126804776Y-87324006D02*
X128579776Y-87324006D01*
X129154776Y-95374006D02*
X129154776Y-92474006D01*
X134054776Y-95111506D02*
X136379776Y-95111506D01*
D31*
X137925000Y-98027500D02*
X134975000Y-98027500D01*
D30*
X131779776Y-83024006D02*
X131779776Y-82324006D01*
X140404776Y-92474006D02*
X137804776Y-92474006D01*
X128879776Y-92749006D02*
X126829776Y-92749006D01*
X130829776Y-85524006D02*
X130829776Y-87049006D01*
D31*
X129704776Y-80649006D02*
X130309776Y-80044006D01*
D30*
X135529776Y-86786506D02*
X135529776Y-86086506D01*
X138054776Y-87324006D02*
X139829776Y-87324006D01*
X140104776Y-87599006D02*
X140104776Y-85249006D01*
X139079776Y-82324006D02*
X139079776Y-82524006D01*
X134304776Y-87336506D02*
X136079776Y-87336506D01*
D31*
X135197276Y-80044006D02*
X135257276Y-80044006D01*
D30*
X139279776Y-83024006D02*
X139279776Y-82324006D01*
X134854776Y-85811506D02*
X134854776Y-86786506D01*
X132604776Y-83849006D02*
X132604776Y-81499006D01*
X132604776Y-91349006D02*
X132604776Y-88999006D01*
D31*
X131200000Y-99202500D02*
X132050000Y-99202500D01*
D30*
X127079776Y-81774006D02*
X127079776Y-83299006D01*
X134029776Y-83861506D02*
X136354776Y-83861506D01*
X136929776Y-95661506D02*
X136929776Y-92211506D01*
D31*
X133200000Y-101602500D02*
X129800000Y-101602500D01*
D30*
X126529776Y-84974006D02*
X126529776Y-87599006D01*
X131104776Y-86774006D02*
X131779776Y-86774006D01*
X135804776Y-83311506D02*
X135804776Y-82061506D01*
D31*
X130200000Y-98002500D02*
X133150000Y-98002500D01*
D30*
X136079776Y-89286506D02*
X134579776Y-89286506D01*
X138604776Y-85799006D02*
X138604776Y-86774006D01*
X133454776Y-95661506D02*
X136929776Y-95661506D01*
X130279776Y-87599006D02*
X132604776Y-87599006D01*
D31*
X137204776Y-80649006D02*
X137809776Y-80044006D01*
D30*
X130279776Y-84974006D02*
X130279776Y-87599006D01*
X128579776Y-89274006D02*
X127079776Y-89274006D01*
X130029776Y-92199006D02*
X130029776Y-95374006D01*
X134854776Y-82061506D02*
X134854776Y-83036506D01*
X130554776Y-88999006D02*
X130554776Y-91074006D01*
X129404776Y-84399006D02*
X129404776Y-80949006D01*
X136629776Y-81236506D02*
X134029776Y-81236506D01*
X126804776Y-85249006D02*
X126804776Y-87324006D01*
X126804776Y-81499006D02*
X126804776Y-83574006D01*
X127854776Y-93574006D02*
X127854776Y-93774006D01*
X136904776Y-84711506D02*
X133754776Y-84711506D01*
X128854776Y-83849006D02*
X128854776Y-81499006D01*
X131129776Y-93299006D02*
X131129776Y-94274006D01*
X139829776Y-85524006D02*
X138329776Y-85524006D01*
X139829776Y-91074006D02*
X139829776Y-89274006D01*
X138329776Y-83299006D02*
X139554776Y-83299006D01*
X128304776Y-87049006D02*
X128304776Y-85799006D01*
X126254776Y-84124006D02*
X129129776Y-84124006D01*
X133779776Y-92211506D02*
X133779776Y-95386506D01*
X137204776Y-88149006D02*
X140654776Y-88149006D01*
X138329776Y-81774006D02*
X138329776Y-83299006D01*
X137504776Y-80949006D02*
X137504776Y-84124006D01*
X130554776Y-91074006D02*
X132329776Y-91074006D01*
X133179776Y-92199006D02*
X130029776Y-92199006D01*
X133154776Y-84399006D02*
X133154776Y-80949006D01*
X130304776Y-95099006D02*
X132629776Y-95099006D01*
X135529776Y-86086506D02*
X135329776Y-86086506D01*
X127079776Y-90799006D02*
X128304776Y-90799006D01*
X131804776Y-93574006D02*
X131604776Y-93574006D01*
X126804776Y-83574006D02*
X128579776Y-83574006D01*
X138604776Y-82049006D02*
X138604776Y-83024006D01*
X128854776Y-91349006D02*
X128854776Y-88999006D01*
D31*
X138575000Y-101377500D02*
X138575000Y-97877500D01*
D30*
X127079776Y-87049006D02*
X128304776Y-87049006D01*
X129704776Y-84399006D02*
X133154776Y-84399006D01*
X133754776Y-84136506D02*
X136629776Y-84136506D01*
X128029776Y-86774006D02*
X128029776Y-86074006D01*
X136104776Y-93036506D02*
X134604776Y-93036506D01*
X139829776Y-83574006D02*
X139829776Y-81774006D01*
X130829776Y-90799006D02*
X132054776Y-90799006D01*
X132054776Y-90799006D02*
X132054776Y-89549006D01*
X134304776Y-89011506D02*
X134304776Y-91086506D01*
X132354776Y-94824006D02*
X132354776Y-93024006D01*
X138604776Y-89549006D02*
X138604776Y-90524006D01*
X134029776Y-84986506D02*
X134029776Y-87611506D01*
X133754776Y-84711506D02*
X133754776Y-87886506D01*
X132329776Y-87324006D02*
X132329776Y-85524006D01*
X140654776Y-80949006D02*
X137504776Y-80949006D01*
X133754776Y-88461506D02*
X133754776Y-91636506D01*
X137779776Y-81224006D02*
X137779776Y-83849006D01*
X131579776Y-82324006D02*
X131579776Y-82524006D01*
X128029776Y-90524006D02*
X128029776Y-89824006D01*
D31*
X130300000Y-100552500D02*
X130300000Y-98652500D01*
D30*
X129404776Y-88149006D02*
X129404776Y-84699006D01*
D31*
X135187276Y-80054006D02*
X135197276Y-80044006D01*
D30*
X128879776Y-95099006D02*
X128879776Y-92749006D01*
X139829776Y-89274006D02*
X138329776Y-89274006D01*
X132329776Y-81774006D02*
X130829776Y-81774006D01*
X126254776Y-84699006D02*
X126254776Y-87874006D01*
X138604776Y-83024006D02*
X139279776Y-83024006D01*
X130004776Y-84699006D02*
X130004776Y-87874006D01*
D31*
X133550000Y-102002500D02*
X129400000Y-102002500D01*
D30*
X130304776Y-92474006D02*
X130304776Y-95099006D01*
X130829776Y-87049006D02*
X132054776Y-87049006D01*
X137779776Y-91349006D02*
X140104776Y-91349006D01*
X133779776Y-95386506D02*
X136654776Y-95386506D01*
X131129776Y-94274006D02*
X131804776Y-94274006D01*
D31*
X130850000Y-98802500D02*
X132450000Y-98802500D01*
D30*
X126529776Y-81224006D02*
X126529776Y-83849006D01*
X127379776Y-93299006D02*
X127379776Y-94274006D01*
X126254776Y-91624006D02*
X129129776Y-91624006D01*
X131779776Y-90524006D02*
X131779776Y-89824006D01*
X136904776Y-88461506D02*
X133754776Y-88461506D01*
X132079776Y-93299006D02*
X131129776Y-93299006D01*
X130004776Y-84124006D02*
X132879776Y-84124006D01*
X129129776Y-88724006D02*
X126529776Y-88724006D01*
X128304776Y-83299006D02*
X128304776Y-82049006D01*
X132054776Y-82049006D02*
X131104776Y-82049006D01*
X133754776Y-91636506D02*
X136629776Y-91636506D01*
X140654776Y-88149006D02*
X140654776Y-84699006D01*
X140379776Y-91624006D02*
X140379776Y-88724006D01*
D31*
X134575000Y-102027500D02*
X138725000Y-102027500D01*
D30*
X127354776Y-85799006D02*
X127354776Y-86774006D01*
X139554776Y-87049006D02*
X139554776Y-85799006D01*
X140679776Y-92199006D02*
X137529776Y-92199006D01*
X140654776Y-91899006D02*
X140654776Y-88449006D01*
D31*
X125954776Y-80649006D02*
X126559776Y-80044006D01*
D30*
X129704776Y-80649006D02*
X129704776Y-84399006D01*
X135554776Y-94286506D02*
X135554776Y-93586506D01*
X138604776Y-86774006D02*
X139279776Y-86774006D01*
X135829776Y-93311506D02*
X134879776Y-93311506D01*
X140654776Y-84399006D02*
X140654776Y-80949006D01*
D31*
X137475000Y-100277500D02*
X137475000Y-99027500D01*
D30*
X140104776Y-91349006D02*
X140104776Y-88999006D01*
X131779776Y-86774006D02*
X131779776Y-86074006D01*
X130829776Y-81774006D02*
X130829776Y-83299006D01*
X138054776Y-91074006D02*
X139829776Y-91074006D01*
X136654776Y-92486506D02*
X134054776Y-92486506D01*
X126279776Y-92199006D02*
X126279776Y-95374006D01*
X132054776Y-83299006D02*
X132054776Y-82049006D01*
X139854776Y-94824006D02*
X139854776Y-93024006D01*
X128029776Y-83024006D02*
X128029776Y-82324006D01*
X129154776Y-92474006D02*
X126554776Y-92474006D01*
X140654776Y-88449006D02*
X137504776Y-88449006D01*
X126279776Y-95374006D02*
X129154776Y-95374006D01*
X133454776Y-91911506D02*
X136904776Y-91911506D01*
X128854776Y-87599006D02*
X128854776Y-85249006D01*
X140654776Y-84699006D02*
X137504776Y-84699006D01*
X136629776Y-84136506D02*
X136629776Y-81236506D01*
X137504776Y-84699006D02*
X137504776Y-87874006D01*
X134579776Y-85536506D02*
X134579776Y-87061506D01*
X133754776Y-80961506D02*
X133754776Y-84136506D01*
D31*
X135875000Y-99427500D02*
X135875000Y-100277500D01*
D30*
X136379776Y-95111506D02*
X136379776Y-92761506D01*
X130004776Y-91624006D02*
X132879776Y-91624006D01*
X130579776Y-94824006D02*
X132354776Y-94824006D01*
X132879776Y-91624006D02*
X132879776Y-88724006D01*
X136079776Y-91086506D02*
X136079776Y-89286506D01*
D31*
X132500000Y-100802500D02*
X130550000Y-100802500D01*
D30*
X136079776Y-87336506D02*
X136079776Y-85536506D01*
X131104776Y-83024006D02*
X131779776Y-83024006D01*
X128604776Y-93024006D02*
X127104776Y-93024006D01*
X138054776Y-88999006D02*
X138054776Y-91074006D01*
X128854776Y-85249006D02*
X126804776Y-85249006D01*
X126254776Y-87874006D02*
X129129776Y-87874006D01*
X132079776Y-94549006D02*
X132079776Y-93299006D01*
D31*
X136925000Y-99227500D02*
X136075000Y-99227500D01*
D30*
X128054776Y-93574006D02*
X127854776Y-93574006D01*
X137204776Y-84399006D02*
X137204776Y-88149006D01*
X134029776Y-91361506D02*
X136354776Y-91361506D01*
D31*
X129800000Y-97602500D02*
X133450000Y-97602500D01*
D30*
X129704776Y-91899006D02*
X129704776Y-95649006D01*
X130554776Y-81499006D02*
X130554776Y-83574006D01*
X134329776Y-94836506D02*
X136104776Y-94836506D01*
X137529776Y-95374006D02*
X140404776Y-95374006D01*
X128304776Y-82049006D02*
X127354776Y-82049006D01*
X140379776Y-84974006D02*
X137779776Y-84974006D01*
X125954776Y-84399006D02*
X129404776Y-84399006D01*
X133154776Y-88449006D02*
X130004776Y-88449006D01*
X136654776Y-95386506D02*
X136654776Y-92486506D01*
D31*
X138975000Y-101777500D02*
X138975000Y-99927500D01*
D30*
X139554776Y-89549006D02*
X138604776Y-89549006D01*
X139279776Y-90524006D02*
X139279776Y-89824006D01*
X130279776Y-81224006D02*
X130279776Y-83849006D01*
X127354776Y-83024006D02*
X128029776Y-83024006D01*
X134304776Y-91086506D02*
X136079776Y-91086506D01*
X129129776Y-84974006D02*
X126529776Y-84974006D01*
D31*
X132800000Y-101202500D02*
X130150000Y-101202500D01*
D30*
X134329776Y-92761506D02*
X134329776Y-94836506D01*
D31*
X137575000Y-98427500D02*
X135325000Y-98427500D01*
D30*
X135804776Y-87061506D02*
X135804776Y-85811506D01*
X134879776Y-93311506D02*
X134879776Y-94286506D01*
X134579776Y-81786506D02*
X134579776Y-83311506D01*
D31*
X130650000Y-100252500D02*
X130650000Y-99002500D01*
D30*
X139079776Y-89824006D02*
X139079776Y-90024006D01*
X133154776Y-88149006D02*
X133154776Y-84699006D01*
X125954776Y-88149006D02*
X129404776Y-88149006D01*
X135804776Y-82061506D02*
X134854776Y-82061506D01*
D31*
X134675000Y-98327500D02*
X134675000Y-101377500D01*
D30*
X128329776Y-93299006D02*
X127379776Y-93299006D01*
X131579776Y-86074006D02*
X131579776Y-86274006D01*
X132879776Y-84974006D02*
X130279776Y-84974006D01*
X137204776Y-80649006D02*
X137204776Y-84399006D01*
X130854776Y-94549006D02*
X132079776Y-94549006D01*
X136629776Y-87886506D02*
X136629776Y-84986506D01*
X138054776Y-83574006D02*
X139829776Y-83574006D01*
X127079776Y-89274006D02*
X127079776Y-90799006D01*
X140379776Y-87874006D02*
X140379776Y-84974006D01*
X133179776Y-95649006D02*
X133179776Y-92199006D01*
X128029776Y-82324006D02*
X127829776Y-82324006D01*
X134304776Y-83586506D02*
X136079776Y-83586506D01*
X136354776Y-83861506D02*
X136354776Y-81511506D01*
X139304776Y-94274006D02*
X139304776Y-93574006D01*
X126254776Y-80949006D02*
X126254776Y-84124006D01*
X137804776Y-95099006D02*
X140129776Y-95099006D01*
X130004776Y-80949006D02*
X130004776Y-84124006D01*
D31*
X129900000Y-100952500D02*
X129900000Y-98302500D01*
D30*
X128854776Y-88999006D02*
X126804776Y-88999006D01*
X130279776Y-88724006D02*
X130279776Y-91349006D01*
D31*
X139027276Y-80044006D02*
X139037276Y-80034006D01*
X136475000Y-99827500D02*
X136925000Y-99827500D01*
D30*
X134029776Y-81236506D02*
X134029776Y-83861506D01*
X135329776Y-82336506D02*
X135329776Y-82536506D01*
D31*
X137825000Y-100577500D02*
X137825000Y-98677500D01*
D30*
X138054776Y-85249006D02*
X138054776Y-87324006D01*
X135804776Y-85811506D02*
X134854776Y-85811506D01*
X130279776Y-83849006D02*
X132604776Y-83849006D01*
D31*
X135625000Y-100827500D02*
X137575000Y-100827500D01*
D30*
X128579776Y-85524006D02*
X127079776Y-85524006D01*
X137204776Y-91899006D02*
X137204776Y-95649006D01*
D31*
X138325000Y-97627500D02*
X134675000Y-97627500D01*
D30*
X133154776Y-80949006D02*
X130004776Y-80949006D01*
X134029776Y-88736506D02*
X134029776Y-91361506D01*
X136104776Y-94836506D02*
X136104776Y-93036506D01*
X135529776Y-90536506D02*
X135529776Y-89836506D01*
X128604776Y-94824006D02*
X128604776Y-93024006D01*
X134304776Y-85261506D02*
X134304776Y-87336506D01*
D31*
X137975000Y-101227500D02*
G75*
G03*
X138225000Y-100977500I0J250000D01*
G01*
X134275000Y-101727500D02*
G75*
G03*
X134575000Y-102027500I300000J0D01*
G01*
X129800000Y-101602500D02*
G75*
G02*
X129550000Y-101352500I0J250000D01*
G01*
X133450000Y-101352500D02*
G75*
G02*
X133200000Y-101602500I-250000J0D01*
G01*
X135875000Y-100277500D02*
G75*
G03*
X136025000Y-100427500I150000J0D01*
G01*
X129400000Y-102002500D02*
G75*
G02*
X129125000Y-101727500I0J275000D01*
G01*
X130150000Y-101202500D02*
G75*
G02*
X129900000Y-100952500I0J250000D01*
G01*
X136075000Y-99227500D02*
G75*
G03*
X135875000Y-99427500I0J-200000D01*
G01*
X136925000Y-99827500D02*
G75*
G03*
X137075000Y-99677500I0J150000D01*
G01*
X132800000Y-98402500D02*
G75*
G02*
X133050000Y-98652500I0J-250000D01*
G01*
X135075000Y-100977500D02*
G75*
G03*
X135325000Y-101227500I250000J0D01*
G01*
X130650000Y-99002500D02*
G75*
G02*
X130850000Y-98802500I200000J0D01*
G01*
X131050000Y-99352500D02*
G75*
G02*
X131200000Y-99202500I150000J0D01*
G01*
X130800000Y-100402500D02*
G75*
G02*
X130650000Y-100252500I0J150000D01*
G01*
X135325000Y-98427500D02*
G75*
G03*
X135075000Y-98677500I0J-250000D01*
G01*
X137325000Y-100427500D02*
G75*
G03*
X137475000Y-100277500I0J150000D01*
G01*
X131200000Y-99802500D02*
G75*
G02*
X131050000Y-99652500I0J150000D01*
G01*
X134975000Y-98027500D02*
G75*
G03*
X134675000Y-98327500I0J-300000D01*
G01*
X133150000Y-98002500D02*
G75*
G02*
X133450000Y-98302500I0J-300000D01*
G01*
X133850000Y-101702500D02*
G75*
G02*
X133550000Y-102002500I-300000J0D01*
G01*
X129550000Y-97852500D02*
G75*
G02*
X129800000Y-97602500I250000J0D01*
G01*
X138325000Y-101627500D02*
G75*
G03*
X138575000Y-101377500I0J250000D01*
G01*
X137825000Y-98677500D02*
G75*
G03*
X137575000Y-98427500I-250000J0D01*
G01*
X129900000Y-98302500D02*
G75*
G02*
X130200000Y-98002500I300000J0D01*
G01*
X132250000Y-100252500D02*
G75*
G02*
X132100000Y-100402500I-150000J0D01*
G01*
X130300000Y-98652500D02*
G75*
G02*
X130550000Y-98402500I250000J0D01*
G01*
X133050000Y-100952500D02*
G75*
G02*
X132800000Y-101202500I-250000J0D01*
G01*
X132050000Y-99202500D02*
G75*
G02*
X132250000Y-99402500I0J-200000D01*
G01*
X137575000Y-100827500D02*
G75*
G03*
X137825000Y-100577500I0J250000D01*
G01*
X134675000Y-97627500D02*
G75*
G03*
X134275000Y-98027500I0J-400000D01*
G01*
X137475000Y-99027500D02*
G75*
G03*
X137275000Y-98827500I-200000J0D01*
G01*
X130550000Y-100802500D02*
G75*
G02*
X130300000Y-100552500I0J250000D01*
G01*
X129125000Y-99902500D02*
G75*
G03*
X128875000Y-99652500I-250000J0D01*
G01*
X138725000Y-102027500D02*
G75*
G03*
X138975000Y-101777500I0J250000D01*
G01*
X132650000Y-100652500D02*
G75*
G02*
X132500000Y-100802500I-150000J0D01*
G01*
X138575000Y-97877500D02*
G75*
G03*
X138325000Y-97627500I-250000J0D01*
G01*
X138225000Y-98327500D02*
G75*
G03*
X137925000Y-98027500I-300000J0D01*
G01*
X132450000Y-98802500D02*
G75*
G02*
X132650000Y-99002500I0J-200000D01*
G01*
X135675000Y-98827500D02*
G75*
G03*
X135475000Y-99027500I0J-200000D01*
G01*
X134675000Y-101377500D02*
G75*
G03*
X134925000Y-101627500I250000J0D01*
G01*
X135475000Y-100677500D02*
G75*
G03*
X135625000Y-100827500I150000J0D01*
G01*
X137075000Y-99377500D02*
G75*
G03*
X136925000Y-99227500I-150000J0D01*
G01*
X133450000Y-97602500D02*
G75*
G02*
X133850000Y-98002500I0J-400000D01*
G01*
%TO.N,GND*%
X121550000Y-106952500D02*
X121932500Y-106952500D01*
D32*
X112412500Y-101710000D02*
X112412500Y-101677500D01*
D31*
X115850000Y-100410000D02*
X116100000Y-100160000D01*
X121262500Y-99835000D02*
X120042500Y-99835000D01*
D32*
X108812500Y-106514026D02*
X108812500Y-107327500D01*
X112412500Y-101677500D02*
X112445000Y-101677500D01*
D31*
X121500000Y-99597500D02*
X121262500Y-99835000D01*
X120475000Y-106952500D02*
X121550000Y-106952500D01*
X120667500Y-100985000D02*
X121500000Y-100985000D01*
D32*
X113557500Y-106442500D02*
X114557500Y-107442500D01*
X112395000Y-101727500D02*
X112412500Y-101710000D01*
D31*
X121500000Y-100985000D02*
X121500000Y-99597500D01*
X109545000Y-109975000D02*
X109545000Y-108935000D01*
D32*
X112395000Y-104652500D02*
X112395000Y-105897500D01*
D31*
X121500000Y-102485000D02*
X121500000Y-100985000D01*
X109545000Y-110010000D02*
X109545000Y-109980000D01*
X121337500Y-104335000D02*
X121287500Y-104385000D01*
X121337500Y-102560000D02*
X121337500Y-104335000D01*
D32*
X112445000Y-101677500D02*
X112400000Y-101722500D01*
X112305000Y-105807500D02*
X109519026Y-105807500D01*
X112395000Y-105897500D02*
X112395000Y-106442500D01*
D31*
X109575000Y-108905000D02*
X109545000Y-108935000D01*
D32*
X112395000Y-105897500D02*
X112305000Y-105807500D01*
D31*
X114612500Y-100410000D02*
X115850000Y-100410000D01*
D32*
X112395000Y-103352500D02*
X112395000Y-101727500D01*
D31*
X109542500Y-109977500D02*
X109545000Y-109975000D01*
D32*
X109519026Y-105807500D02*
X108812500Y-106514026D01*
D31*
X109545000Y-109980000D02*
X109542500Y-109977500D01*
X122175000Y-105272500D02*
X121287500Y-104385000D01*
D32*
X108812500Y-107327500D02*
X109370000Y-107885000D01*
D31*
X121287500Y-104047500D02*
X121287500Y-104385000D01*
X109575000Y-107885000D02*
X109575000Y-108905000D01*
D32*
X112395000Y-106442500D02*
X113557500Y-106442500D01*
X112395000Y-103352500D02*
X112395000Y-104652500D01*
D31*
X122175000Y-106710000D02*
X122175000Y-105272500D01*
X121932500Y-106952500D02*
X122175000Y-106710000D01*
D32*
%TO.N,V_Mot<5V*%
X117862500Y-104847500D02*
X117862500Y-106640620D01*
D31*
X119262500Y-102560000D02*
X119262500Y-101255000D01*
D32*
X117862500Y-106640620D02*
X117560620Y-106942500D01*
X117662500Y-103337500D02*
X117662500Y-104647500D01*
X117662500Y-103347500D02*
X117662500Y-103337500D01*
X117662500Y-104647500D02*
X117862500Y-104847500D01*
X117662500Y-103347500D02*
X118475000Y-103347500D01*
X117560620Y-106942500D02*
X116720000Y-106942500D01*
D31*
X119532500Y-102340000D02*
X119487500Y-102385000D01*
X119262500Y-101255000D02*
X119532500Y-100985000D01*
D32*
X118475000Y-103347500D02*
X119437500Y-102385000D01*
D31*
%TO.N,Net-(D1C-K)*%
X134304900Y-106852200D02*
X139519700Y-106852200D01*
X130225000Y-103227500D02*
X132525000Y-103227500D01*
X129175000Y-106477500D02*
X129175000Y-102827500D01*
D32*
X115082500Y-104647500D02*
X114300000Y-104647500D01*
D31*
X133566882Y-102729763D02*
X133566882Y-106879763D01*
X129966882Y-105729763D02*
X129966882Y-103479763D01*
X136099997Y-104666550D02*
X136099997Y-104627200D01*
X132925000Y-106727500D02*
X129425000Y-106727500D01*
X113250000Y-98630000D02*
X113250000Y-104210000D01*
X139519700Y-106852200D02*
X141075000Y-108407500D01*
X131602263Y-104027500D02*
X131825000Y-104027500D01*
X134004900Y-102852200D02*
X134004900Y-106552200D01*
X133175000Y-103077500D02*
X133175000Y-106477500D01*
X129166882Y-106479763D02*
X129166882Y-102829763D01*
X131966882Y-104179763D02*
X131966882Y-105479763D01*
X132516882Y-106379763D02*
X129866882Y-106379763D01*
X135668877Y-104689379D02*
X135668877Y-104698661D01*
X135354900Y-105652200D02*
X137304900Y-105652200D01*
X129875000Y-102827500D02*
X132925000Y-102827500D01*
X130375000Y-105427500D02*
X130375000Y-103827500D01*
X115850000Y-98135000D02*
X115625000Y-97910000D01*
X130566882Y-103629763D02*
X132216882Y-103629763D01*
X132766882Y-103479763D02*
X132766882Y-106129763D01*
X137654900Y-102852200D02*
X134704900Y-102852200D01*
X129575000Y-106077500D02*
X129575000Y-103127500D01*
X128352737Y-107129763D02*
X127075000Y-108407500D01*
X131816882Y-105629763D02*
X130566882Y-105629763D01*
X135204900Y-103852200D02*
X135204900Y-105502200D01*
D32*
X114300000Y-104647500D02*
X114295000Y-104652500D01*
D31*
X135628143Y-105139387D02*
X135628143Y-105186896D01*
X129566882Y-102429763D02*
X133266882Y-102429763D01*
X133166882Y-103079763D02*
X133166882Y-106479763D01*
X137954900Y-105802200D02*
X137954900Y-103152200D01*
X135739532Y-104618724D02*
X135668877Y-104689379D01*
X133316882Y-107129763D02*
X128352737Y-107129763D01*
D32*
X115082500Y-104647500D02*
X115762500Y-104647500D01*
D31*
X129866882Y-102829763D02*
X132916882Y-102829763D01*
X135629900Y-104802200D02*
X135629900Y-105139387D01*
X115625000Y-97910000D02*
X113970000Y-97910000D01*
X131975000Y-104177500D02*
X131975000Y-105477500D01*
X135629900Y-105139387D02*
X135628143Y-105139387D01*
X137004900Y-103652200D02*
X135404900Y-103652200D01*
X132525000Y-106377500D02*
X129875000Y-106377500D01*
X132366882Y-103779763D02*
X132366882Y-105729763D01*
X134654900Y-106452200D02*
X138054900Y-106452200D01*
X115850000Y-98672500D02*
X115850000Y-98135000D01*
X131400000Y-104525237D02*
X131400000Y-104229763D01*
X129566882Y-106079763D02*
X129566882Y-103129763D01*
X132775000Y-103477500D02*
X132775000Y-106127500D01*
X131825000Y-105627500D02*
X130575000Y-105627500D01*
X132916882Y-106729763D02*
X129416882Y-106729763D01*
X132116882Y-105979763D02*
X130216882Y-105979763D01*
X130216882Y-103229763D02*
X132516882Y-103229763D01*
X113250000Y-104210000D02*
X113692500Y-104652500D01*
X132125000Y-105977500D02*
X130225000Y-105977500D01*
X134804900Y-103502200D02*
X134804900Y-105802200D01*
X135054900Y-106052200D02*
X137704900Y-106052200D01*
X137304900Y-103252200D02*
X135054900Y-103252200D01*
X136098111Y-104668436D02*
X136099997Y-104666550D01*
X135668877Y-104698661D02*
X135667979Y-104699559D01*
X132375000Y-103777500D02*
X132375000Y-105727500D01*
X130366882Y-105429763D02*
X130366882Y-103829763D01*
X113692500Y-104652500D02*
X114295000Y-104652500D01*
X135754900Y-105252200D02*
X137054900Y-105252200D01*
X129975000Y-105727500D02*
X129975000Y-103477500D01*
X138304900Y-106202200D02*
X138304900Y-102702200D01*
X136091521Y-104618724D02*
X135739532Y-104618724D01*
X130575000Y-103627500D02*
X132225000Y-103627500D01*
X133575000Y-102727500D02*
X133575000Y-106877500D01*
X131400288Y-104525932D02*
X131400000Y-104525237D01*
X136099997Y-104627200D02*
X136091521Y-104618724D01*
X137554900Y-105402200D02*
X137554900Y-103502200D01*
X137204900Y-105102200D02*
X137204900Y-103852200D01*
X129575000Y-102427500D02*
X133275000Y-102427500D01*
X134404900Y-103152200D02*
X134404900Y-106202200D01*
X138054900Y-102452200D02*
X134404900Y-102452200D01*
X113970000Y-97910000D02*
X113250000Y-98630000D01*
X133166882Y-106479763D02*
G75*
G02*
X132916882Y-106729782I-249982J-37D01*
G01*
X137304900Y-105652200D02*
G75*
G03*
X137554900Y-105402200I0J250000D01*
G01*
X131966882Y-105479763D02*
G75*
G02*
X131816882Y-105629782I-149982J-37D01*
G01*
X133566882Y-106879763D02*
G75*
G02*
X133316882Y-107129782I-249982J-37D01*
G01*
X134404900Y-106202200D02*
G75*
G03*
X134654900Y-106452200I250000J0D01*
G01*
X132225000Y-103627500D02*
G75*
G02*
X132375000Y-103777500I0J-150000D01*
G01*
X129166882Y-102829763D02*
G75*
G02*
X129566882Y-102429782I400018J-37D01*
G01*
X129175000Y-102827500D02*
G75*
G02*
X129575000Y-102427500I400000J0D01*
G01*
X137554900Y-103502200D02*
G75*
G03*
X137304900Y-103252200I-250000J0D01*
G01*
X129566882Y-103129763D02*
G75*
G02*
X129866882Y-102829782I300018J-37D01*
G01*
X137054900Y-105252200D02*
G75*
G03*
X137204900Y-105102200I0J150000D01*
G01*
X129866882Y-106379763D02*
G75*
G02*
X129566937Y-106079763I18J299963D01*
G01*
X134804900Y-105802200D02*
G75*
G03*
X135054900Y-106052200I250000J0D01*
G01*
X130375000Y-103827500D02*
G75*
G02*
X130575000Y-103627500I200000J0D01*
G01*
X129425000Y-106727500D02*
G75*
G02*
X129175000Y-106477500I0J250000D01*
G01*
X133575000Y-106877500D02*
G75*
G02*
X133325000Y-107127500I-250000J0D01*
G01*
X138054900Y-106452200D02*
G75*
G03*
X138304900Y-106202200I0J250000D01*
G01*
X130216882Y-105979763D02*
G75*
G02*
X129966937Y-105729763I18J249963D01*
G01*
X132766882Y-106129763D02*
G75*
G02*
X132516882Y-106379782I-249982J-37D01*
G01*
X133275000Y-102427500D02*
G75*
G02*
X133575000Y-102727500I0J-300000D01*
G01*
X131400000Y-104229763D02*
G75*
G02*
X131602263Y-104027500I202300J-37D01*
G01*
X132916882Y-102829763D02*
G75*
G02*
X133166937Y-103079763I18J-250037D01*
G01*
X133175000Y-106477500D02*
G75*
G02*
X132925000Y-106727500I-250000J0D01*
G01*
X130566882Y-105629763D02*
G75*
G02*
X130366937Y-105429763I18J199963D01*
G01*
X132525000Y-103227500D02*
G75*
G02*
X132775000Y-103477500I0J-250000D01*
G01*
X134704900Y-102852200D02*
G75*
G03*
X134404900Y-103152200I0J-300000D01*
G01*
X131975000Y-105477500D02*
G75*
G02*
X131825000Y-105627500I-150000J0D01*
G01*
X129875000Y-106377500D02*
G75*
G02*
X129575000Y-106077500I0J300000D01*
G01*
X133266882Y-102429763D02*
G75*
G02*
X133566937Y-102729763I18J-300037D01*
G01*
X135054900Y-103252200D02*
G75*
G03*
X134804900Y-103502200I0J-250000D01*
G01*
X134404900Y-102452200D02*
G75*
G03*
X134004900Y-102852200I0J-400000D01*
G01*
X132366882Y-105729763D02*
G75*
G02*
X132116882Y-105979782I-249982J-37D01*
G01*
X135404900Y-103652200D02*
G75*
G03*
X135204900Y-103852200I0J-200000D01*
G01*
X135204900Y-105502200D02*
G75*
G03*
X135354900Y-105652200I150000J0D01*
G01*
X137204900Y-103852200D02*
G75*
G03*
X137004900Y-103652200I-200000J0D01*
G01*
X132925000Y-102827500D02*
G75*
G02*
X133175000Y-103077500I0J-250000D01*
G01*
X138304900Y-102702200D02*
G75*
G03*
X138054900Y-102452200I-250000J0D01*
G01*
X129575000Y-103127500D02*
G75*
G02*
X129875000Y-102827500I300000J0D01*
G01*
X132516882Y-103229763D02*
G75*
G02*
X132766937Y-103479763I18J-250037D01*
G01*
X132775000Y-106127500D02*
G75*
G02*
X132525000Y-106377500I-250000J0D01*
G01*
X131880706Y-104038556D02*
G75*
G02*
X131966869Y-104179763I-67606J-138144D01*
G01*
X131825000Y-104027500D02*
G75*
G02*
X131975000Y-104177500I0J-150000D01*
G01*
X135628143Y-105186896D02*
G75*
G03*
X135754899Y-105252243I129557J95696D01*
G01*
X130575000Y-105627500D02*
G75*
G02*
X130375000Y-105427500I0J200000D01*
G01*
X129416882Y-106729763D02*
G75*
G02*
X129166937Y-106479763I18J249963D01*
G01*
X129975000Y-103477500D02*
G75*
G02*
X130225000Y-103227500I250000J0D01*
G01*
X132375000Y-105727500D02*
G75*
G02*
X132125000Y-105977500I-250000J0D01*
G01*
X132216882Y-103629763D02*
G75*
G02*
X132366937Y-103779763I18J-150037D01*
G01*
X130225000Y-105977500D02*
G75*
G02*
X129975000Y-105727500I0J250000D01*
G01*
X129966882Y-103479763D02*
G75*
G02*
X130216882Y-103229782I250018J-37D01*
G01*
X137704900Y-106052200D02*
G75*
G03*
X137954900Y-105802200I0J250000D01*
G01*
X137954900Y-103152200D02*
G75*
G03*
X137654900Y-102852200I-300000J0D01*
G01*
X134004900Y-106552200D02*
G75*
G03*
X134304900Y-106852200I300000J0D01*
G01*
X130366882Y-103829763D02*
G75*
G02*
X130566882Y-103629782I200018J-37D01*
G01*
X135667979Y-104699559D02*
G75*
G03*
X135629878Y-104802200I111121J-99641D01*
G01*
D32*
%TO.N,Net-(D1B-K)*%
X115762500Y-103997500D02*
X114300000Y-103997500D01*
D31*
X113842500Y-104002500D02*
X114295000Y-104002500D01*
D32*
X114300000Y-103997500D02*
X114295000Y-104002500D01*
D31*
X113950000Y-99910000D02*
X113650000Y-100210000D01*
X113650000Y-103810000D02*
X113842500Y-104002500D01*
X114612500Y-99910000D02*
X113950000Y-99910000D01*
X113650000Y-100210000D02*
X113650000Y-103810000D01*
%TO.N,Net-(D1A-K)*%
X115850000Y-103260000D02*
X115762500Y-103347500D01*
D32*
X115762500Y-103347500D02*
X114300000Y-103347500D01*
D31*
X115850000Y-101647500D02*
X115850000Y-103260000D01*
D32*
X114300000Y-103347500D02*
X114295000Y-103352500D01*
D31*
%TO.N,FAULT*%
X121732500Y-113497500D02*
X122592500Y-112637500D01*
X120692500Y-97065000D02*
X121500000Y-97872500D01*
X122592500Y-98965000D02*
X121500000Y-97872500D01*
X119162500Y-113497500D02*
X121732500Y-113497500D01*
X117862500Y-114797500D02*
X119162500Y-113497500D01*
X117587500Y-99410000D02*
X117587500Y-98975000D01*
X118877500Y-97685000D02*
X119497500Y-97065000D01*
X119497500Y-97065000D02*
X120692500Y-97065000D01*
X122592500Y-112637500D02*
X122592500Y-98965000D01*
X117587500Y-98975000D02*
X118877500Y-97685000D01*
%TO.N,IN_W*%
X116350000Y-98672500D02*
X116350000Y-97785000D01*
X116350000Y-97785000D02*
X116222500Y-97657500D01*
%TO.N,EN_V*%
X118648195Y-101154508D02*
X118548685Y-101054998D01*
X118548685Y-101054998D02*
X118465395Y-101054998D01*
X118465395Y-101054998D02*
X118320397Y-100910000D01*
X118320397Y-100910000D02*
X117587500Y-100910000D01*
D10*
%TO.N,unconnected-(U2-SENSEU-Pad4)*%
X103415187Y-85132156D02*
X102851941Y-85132156D01*
X97333700Y-84568627D02*
X96055000Y-85847327D01*
X103065187Y-82582156D02*
X103165188Y-82582156D01*
X97333700Y-82331874D02*
X97333700Y-84568627D01*
X102851941Y-85132156D02*
X102136489Y-85847608D01*
X102815187Y-82332156D02*
G75*
G03*
X103065187Y-82582213I250013J-44D01*
G01*
X103165188Y-82582156D02*
G75*
G03*
X103415156Y-82332155I12J249956D01*
G01*
D31*
%TO.N,EN_U*%
X116350000Y-102425000D02*
X116362500Y-102437500D01*
X116350000Y-101647500D02*
X116350000Y-102425000D01*
%TO.N,STBY*%
X117587500Y-99910000D02*
X118832500Y-99910000D01*
X118890000Y-98770000D02*
X118890000Y-99817500D01*
X118832500Y-99910000D02*
X118907500Y-99835000D01*
X118890000Y-99817500D02*
X118907500Y-99835000D01*
X118890000Y-98760000D02*
X118890000Y-98765000D01*
X118892500Y-98767500D02*
X118890000Y-98770000D01*
X118890000Y-98765000D02*
X118892500Y-98767500D01*
%TO.N,EN_W*%
X116850000Y-97850000D02*
X117032500Y-97667500D01*
X116850000Y-98672500D02*
X116850000Y-97850000D01*
%TO.N,IN_U*%
X116850000Y-101647500D02*
X116850000Y-102245000D01*
X116850000Y-102245000D02*
X116982500Y-102377500D01*
%TO.N,IN_V*%
X118672502Y-100554998D02*
X118612236Y-100554998D01*
X118612236Y-100554998D02*
X118467238Y-100410000D01*
X118467238Y-100410000D02*
X117587500Y-100410000D01*
%TO.N,Net-(U1-Vc)*%
X118355000Y-109307500D02*
X118300000Y-109252500D01*
X116720000Y-108442500D02*
X117490000Y-108442500D01*
X117490000Y-108442500D02*
X118300000Y-109252500D01*
X119400000Y-109307500D02*
X118355000Y-109307500D01*
%TO.N,Net-(U1-SW1)*%
X111527500Y-107442500D02*
X110952500Y-106867500D01*
X112395000Y-107442500D02*
X111527500Y-107442500D01*
X110952500Y-106867500D02*
X110680000Y-106867500D01*
%TO.N,Net-(U1-RT)*%
X110740000Y-110010000D02*
X111725000Y-110010000D01*
X112395000Y-109340000D02*
X112395000Y-108442500D01*
X111725000Y-110010000D02*
X112395000Y-109340000D01*
%TO.N,~{SHDN}*%
X118007500Y-107442500D02*
X118352500Y-107097500D01*
X116720000Y-107442500D02*
X118007500Y-107442500D01*
%TO.N,Net-(U1-FB)*%
X118125000Y-107942500D02*
X118300000Y-108117500D01*
X119395000Y-108117500D02*
X119400000Y-108112500D01*
X116720000Y-107942500D02*
X118125000Y-107942500D01*
X118300000Y-108117500D02*
X119395000Y-108117500D01*
X119400000Y-108112500D02*
X119400000Y-106982500D01*
%TO.N,Net-(U1-BURST)*%
X110767500Y-107942500D02*
X110710000Y-107885000D01*
X110740000Y-107915000D02*
X110710000Y-107885000D01*
X110740000Y-108935000D02*
X110740000Y-107915000D01*
X112395000Y-107942500D02*
X110767500Y-107942500D01*
%TO.N,Net-(U1-SW2)*%
X111352500Y-106669910D02*
X111352500Y-106507500D01*
X111102500Y-106257500D02*
X110155000Y-106257500D01*
X111625090Y-106942500D02*
X111352500Y-106669910D01*
X111352500Y-106507500D02*
X111102500Y-106257500D01*
X112395000Y-106942500D02*
X111625090Y-106942500D01*
X110155000Y-106257500D02*
X109545000Y-106867500D01*
%TO.N,+5V*%
X116720000Y-106442500D02*
X116720000Y-105820000D01*
X119400000Y-104547500D02*
X119562500Y-104385000D01*
X119400000Y-105787500D02*
X119400000Y-104547500D01*
X121532500Y-105837500D02*
X121570000Y-105837500D01*
X121570000Y-105837500D02*
X121550000Y-105817500D01*
X114612500Y-101520652D02*
X114560454Y-101572698D01*
X114612500Y-100910000D02*
X114612500Y-101520652D01*
X116720000Y-105820000D02*
X116752500Y-105787500D01*
X121512500Y-105817500D02*
X121532500Y-105837500D01*
X120475000Y-105817500D02*
X121512500Y-105817500D01*
D33*
%TO.N,Net-(Q1-C)*%
X128882500Y-118128750D02*
X136365000Y-118128750D01*
X127732500Y-119278750D02*
X128882500Y-118128750D01*
X136365000Y-118128750D02*
X137865000Y-119628750D01*
%TO.N,Net-(D7-A)*%
X121332500Y-126832500D02*
X117307500Y-126832500D01*
X121777500Y-126387500D02*
X121332500Y-126832500D01*
%TO.N,Net-(J1-Pin_3)*%
X99450454Y-111452698D02*
X99450454Y-114252698D01*
X99450454Y-114252698D02*
X98930454Y-114772698D01*
%TO.N,Net-(J1-Pin_2)*%
X101020454Y-114362698D02*
X101550454Y-114892698D01*
X101020454Y-111452698D02*
X101020454Y-114362698D01*
%TO.N,Net-(J1-Pin_1)*%
X102510454Y-113292698D02*
X104020454Y-114802698D01*
X102510454Y-111482698D02*
X102510454Y-113292698D01*
%TD*%
%TA.AperFunction,Conductor*%
%TO.N,GND4*%
G36*
X109490519Y-88132633D02*
G01*
X109779813Y-88164776D01*
X110358402Y-88229064D01*
X110405840Y-88244422D01*
X110679429Y-88399456D01*
X111124009Y-88651385D01*
X111142255Y-88664006D01*
X111528396Y-88985790D01*
X111567293Y-89043827D01*
X111573011Y-89081047D01*
X111573011Y-89507938D01*
X111572234Y-89521799D01*
X111571855Y-89525164D01*
X111572989Y-89585219D01*
X111573011Y-89587559D01*
X111573011Y-89647487D01*
X111573452Y-89650839D01*
X111573481Y-89651225D01*
X111573761Y-89653208D01*
X111573835Y-89653562D01*
X111574343Y-89656928D01*
X111590972Y-89714612D01*
X111591598Y-89716861D01*
X111607120Y-89774782D01*
X111608417Y-89777914D01*
X111608543Y-89778275D01*
X111609319Y-89780098D01*
X111609478Y-89780414D01*
X111610847Y-89783549D01*
X111641856Y-89834992D01*
X111643019Y-89836961D01*
X111644671Y-89839824D01*
X111647049Y-89844138D01*
X111778087Y-90093554D01*
X111784090Y-90106817D01*
X111884064Y-90367449D01*
X111888471Y-90381324D01*
X111957210Y-90651880D01*
X111959960Y-90666176D01*
X111996514Y-90942916D01*
X111997570Y-90957436D01*
X112001437Y-91236556D01*
X112000784Y-91251099D01*
X111971912Y-91528747D01*
X111969559Y-91543115D01*
X111908342Y-91815474D01*
X111904321Y-91829465D01*
X111811608Y-92092764D01*
X111805975Y-92106189D01*
X111683041Y-92356809D01*
X111675873Y-92369480D01*
X111524414Y-92603963D01*
X111515811Y-92615708D01*
X111337913Y-92830823D01*
X111327993Y-92841477D01*
X111126107Y-93034263D01*
X111115006Y-93043682D01*
X110891920Y-93211475D01*
X110879792Y-93219528D01*
X110638573Y-93360021D01*
X110625584Y-93366597D01*
X110369561Y-93477850D01*
X110355891Y-93482858D01*
X110088604Y-93563334D01*
X110074442Y-93566705D01*
X109799550Y-93615303D01*
X109785090Y-93616992D01*
X109503039Y-93633230D01*
X109495761Y-93633435D01*
X109433239Y-93633358D01*
X109425177Y-93634410D01*
X109425104Y-93633851D01*
X109405220Y-93636435D01*
X107124793Y-93632239D01*
X107057790Y-93612431D01*
X107012132Y-93559543D01*
X107001021Y-93508575D01*
X107000951Y-93482858D01*
X106994554Y-91122047D01*
X108989164Y-91122047D01*
X109009645Y-91264503D01*
X109069433Y-91395418D01*
X109069434Y-91395420D01*
X109163683Y-91504190D01*
X109284758Y-91582000D01*
X109284761Y-91582001D01*
X109284760Y-91582001D01*
X109422847Y-91622546D01*
X109422849Y-91622547D01*
X109422850Y-91622547D01*
X109566773Y-91622547D01*
X109566773Y-91622546D01*
X109704864Y-91582000D01*
X109825939Y-91504190D01*
X109920188Y-91395420D01*
X109979976Y-91264504D01*
X110000458Y-91122047D01*
X109979976Y-90979590D01*
X109920188Y-90848674D01*
X109825939Y-90739904D01*
X109704864Y-90662094D01*
X109704862Y-90662093D01*
X109704860Y-90662092D01*
X109704861Y-90662092D01*
X109566774Y-90621547D01*
X109566772Y-90621547D01*
X109422850Y-90621547D01*
X109422847Y-90621547D01*
X109284760Y-90662092D01*
X109163684Y-90739903D01*
X109069434Y-90848673D01*
X109069433Y-90848675D01*
X109009645Y-90979590D01*
X108989164Y-91122047D01*
X106994554Y-91122047D01*
X106994475Y-91092919D01*
X106994771Y-91084024D01*
X107012082Y-90833880D01*
X107013656Y-90820997D01*
X107056941Y-90574766D01*
X107059858Y-90562109D01*
X107128688Y-90321778D01*
X107132918Y-90309483D01*
X107214770Y-90106817D01*
X107226540Y-90077673D01*
X107232020Y-90065919D01*
X107350190Y-89843710D01*
X107352257Y-89839984D01*
X107354208Y-89836604D01*
X107355255Y-89834823D01*
X107386426Y-89782968D01*
X107386426Y-89782964D01*
X107386428Y-89782963D01*
X107387438Y-89780642D01*
X107387638Y-89780245D01*
X107387767Y-89779934D01*
X107388640Y-89777877D01*
X107388782Y-89777549D01*
X107388934Y-89777115D01*
X107389894Y-89774794D01*
X107389903Y-89774780D01*
X107405561Y-89716338D01*
X107406087Y-89714441D01*
X107422772Y-89656295D01*
X107422772Y-89656289D01*
X107423143Y-89653809D01*
X107423237Y-89653357D01*
X107423288Y-89652974D01*
X107423592Y-89650810D01*
X107423649Y-89650429D01*
X107423682Y-89649978D01*
X107424009Y-89647489D01*
X107424011Y-89647486D01*
X107424011Y-89587125D01*
X107424030Y-89584940D01*
X107424042Y-89584227D01*
X107425095Y-89524532D01*
X107425093Y-89524525D01*
X107424805Y-89521984D01*
X107424011Y-89507971D01*
X107424011Y-88984947D01*
X107443696Y-88917908D01*
X107471040Y-88887728D01*
X107968467Y-88493932D01*
X108001887Y-88475053D01*
X108576437Y-88259597D01*
X108591242Y-88255078D01*
X109094536Y-88135247D01*
X109123257Y-88131875D01*
X109476826Y-88131875D01*
X109490519Y-88132633D01*
G37*
%TD.AperFunction*%
%TD*%
%TA.AperFunction,Conductor*%
%TO.N,GND4*%
G36*
X97365519Y-88132633D02*
G01*
X97654813Y-88164776D01*
X98233402Y-88229064D01*
X98280841Y-88244423D01*
X98307624Y-88259600D01*
X98999007Y-88651383D01*
X99017255Y-88664006D01*
X99349883Y-88941196D01*
X99388782Y-88999235D01*
X99394500Y-89036455D01*
X99394500Y-89508155D01*
X99393747Y-89521802D01*
X99393248Y-89526305D01*
X99394474Y-89585825D01*
X99394500Y-89588378D01*
X99394500Y-89647770D01*
X99395088Y-89652237D01*
X99395112Y-89652554D01*
X99395216Y-89653288D01*
X99395277Y-89653578D01*
X99395961Y-89658063D01*
X99412550Y-89715238D01*
X99413235Y-89717693D01*
X99428608Y-89775062D01*
X99430335Y-89779232D01*
X99430438Y-89779527D01*
X99430732Y-89780216D01*
X99430866Y-89780480D01*
X99432684Y-89784626D01*
X99463478Y-89835511D01*
X99464781Y-89837715D01*
X99466917Y-89841415D01*
X99469203Y-89845556D01*
X99600084Y-90093666D01*
X99606113Y-90106930D01*
X99685324Y-90312466D01*
X99706215Y-90366672D01*
X99710647Y-90380552D01*
X99779591Y-90650248D01*
X99782364Y-90664551D01*
X99819199Y-90940472D01*
X99820275Y-90955002D01*
X99824490Y-91233339D01*
X99823854Y-91247895D01*
X99795393Y-91524801D01*
X99793054Y-91539183D01*
X99732308Y-91810838D01*
X99728299Y-91824845D01*
X99636108Y-92087505D01*
X99630483Y-92100946D01*
X99508119Y-92350977D01*
X99500957Y-92363664D01*
X99350113Y-92597612D01*
X99341512Y-92609373D01*
X99164259Y-92824023D01*
X99154337Y-92834693D01*
X98953137Y-93027062D01*
X98942033Y-93036494D01*
X98719665Y-93203931D01*
X98707531Y-93211997D01*
X98467043Y-93352202D01*
X98454047Y-93358788D01*
X98198776Y-93469817D01*
X98185096Y-93474833D01*
X97918571Y-93555150D01*
X97904398Y-93558527D01*
X97630295Y-93607027D01*
X97615823Y-93608719D01*
X97334257Y-93624943D01*
X97326972Y-93625148D01*
X97258849Y-93625064D01*
X97255173Y-93625306D01*
X94958455Y-93630075D01*
X94891375Y-93610529D01*
X94845511Y-93557821D01*
X94834198Y-93506075D01*
X94834198Y-91122328D01*
X96820653Y-91122328D01*
X96841134Y-91264784D01*
X96900922Y-91395699D01*
X96900923Y-91395701D01*
X96995172Y-91504471D01*
X97116247Y-91582281D01*
X97116250Y-91582282D01*
X97116249Y-91582282D01*
X97254336Y-91622827D01*
X97254338Y-91622828D01*
X97254339Y-91622828D01*
X97398262Y-91622828D01*
X97398262Y-91622827D01*
X97536353Y-91582281D01*
X97657428Y-91504471D01*
X97751677Y-91395701D01*
X97811465Y-91264785D01*
X97831947Y-91122328D01*
X97811465Y-90979871D01*
X97751677Y-90848955D01*
X97657428Y-90740185D01*
X97536353Y-90662375D01*
X97536351Y-90662374D01*
X97536349Y-90662373D01*
X97536350Y-90662373D01*
X97398263Y-90621828D01*
X97398261Y-90621828D01*
X97254339Y-90621828D01*
X97254336Y-90621828D01*
X97116249Y-90662373D01*
X96995173Y-90740184D01*
X96900923Y-90848954D01*
X96900922Y-90848956D01*
X96841134Y-90979871D01*
X96820653Y-91122328D01*
X94834198Y-91122328D01*
X94834198Y-91093499D01*
X94834494Y-91084934D01*
X94845885Y-90920422D01*
X94851786Y-90835187D01*
X94853361Y-90822300D01*
X94896502Y-90576921D01*
X94899420Y-90564260D01*
X94954061Y-90373484D01*
X94968018Y-90324752D01*
X94972247Y-90312466D01*
X95058012Y-90100120D01*
X95065545Y-90081466D01*
X95071038Y-90069688D01*
X95189120Y-89847644D01*
X95191253Y-89843799D01*
X95192750Y-89841215D01*
X95193717Y-89839575D01*
X95225013Y-89787513D01*
X95225016Y-89787501D01*
X95225737Y-89785846D01*
X95225968Y-89785388D01*
X95226256Y-89784697D01*
X95227065Y-89782793D01*
X95227409Y-89782002D01*
X95227587Y-89781492D01*
X95228267Y-89779851D01*
X95228277Y-89779836D01*
X95244074Y-89721135D01*
X95244566Y-89719364D01*
X95261359Y-89660840D01*
X95261359Y-89660830D01*
X95261632Y-89659013D01*
X95261738Y-89658505D01*
X95261833Y-89657790D01*
X95262124Y-89655724D01*
X95262244Y-89654919D01*
X95262284Y-89654388D01*
X95262521Y-89652590D01*
X95262525Y-89652579D01*
X95262590Y-89591740D01*
X95262607Y-89589903D01*
X95263680Y-89529077D01*
X95263678Y-89529071D01*
X95263472Y-89527251D01*
X95262677Y-89513095D01*
X95262682Y-89508155D01*
X95263223Y-89013140D01*
X95282981Y-88946126D01*
X95310251Y-88916061D01*
X95843467Y-88493932D01*
X95876887Y-88475053D01*
X96451437Y-88259597D01*
X96466242Y-88255078D01*
X96969536Y-88135247D01*
X96998257Y-88131875D01*
X97351826Y-88131875D01*
X97365519Y-88132633D01*
G37*
%TD.AperFunction*%
%TD*%
%TA.AperFunction,Conductor*%
%TO.N,GND4*%
G36*
X103440519Y-88132633D02*
G01*
X103729813Y-88164776D01*
X104308402Y-88229064D01*
X104355841Y-88244423D01*
X104382624Y-88259600D01*
X105074007Y-88651383D01*
X105092255Y-88664006D01*
X105453394Y-88964955D01*
X105492293Y-89022994D01*
X105498011Y-89060214D01*
X105498011Y-89507938D01*
X105497234Y-89521799D01*
X105496855Y-89525164D01*
X105497989Y-89585219D01*
X105498011Y-89587559D01*
X105498011Y-89647487D01*
X105498452Y-89650839D01*
X105498481Y-89651225D01*
X105498761Y-89653208D01*
X105498835Y-89653562D01*
X105499343Y-89656928D01*
X105515972Y-89714612D01*
X105516598Y-89716861D01*
X105532120Y-89774782D01*
X105533417Y-89777914D01*
X105533543Y-89778275D01*
X105534319Y-89780098D01*
X105534478Y-89780414D01*
X105535847Y-89783549D01*
X105566856Y-89834992D01*
X105568019Y-89836961D01*
X105569671Y-89839824D01*
X105572049Y-89844138D01*
X105703087Y-90093554D01*
X105709090Y-90106817D01*
X105809064Y-90367449D01*
X105813471Y-90381324D01*
X105882210Y-90651880D01*
X105884960Y-90666176D01*
X105921514Y-90942916D01*
X105922570Y-90957436D01*
X105926437Y-91236556D01*
X105925784Y-91251099D01*
X105896912Y-91528747D01*
X105894559Y-91543115D01*
X105833342Y-91815474D01*
X105829321Y-91829465D01*
X105736608Y-92092764D01*
X105730975Y-92106189D01*
X105608041Y-92356809D01*
X105600873Y-92369480D01*
X105449414Y-92603963D01*
X105440811Y-92615708D01*
X105262913Y-92830823D01*
X105252993Y-92841477D01*
X105051107Y-93034263D01*
X105040006Y-93043682D01*
X104816920Y-93211475D01*
X104804792Y-93219528D01*
X104563573Y-93360021D01*
X104550584Y-93366597D01*
X104294561Y-93477850D01*
X104280891Y-93482858D01*
X104013604Y-93563334D01*
X103999442Y-93566705D01*
X103724550Y-93615303D01*
X103710090Y-93616992D01*
X103428039Y-93633230D01*
X103420761Y-93633435D01*
X103358239Y-93633358D01*
X103350177Y-93634410D01*
X103350104Y-93633851D01*
X103330220Y-93636435D01*
X101049793Y-93632239D01*
X100982790Y-93612431D01*
X100937132Y-93559543D01*
X100926021Y-93508575D01*
X100925951Y-93482858D01*
X100919554Y-91122047D01*
X102914164Y-91122047D01*
X102934645Y-91264503D01*
X102994433Y-91395418D01*
X102994434Y-91395420D01*
X103088683Y-91504190D01*
X103209758Y-91582000D01*
X103209761Y-91582001D01*
X103209760Y-91582001D01*
X103347847Y-91622546D01*
X103347849Y-91622547D01*
X103347850Y-91622547D01*
X103491773Y-91622547D01*
X103491773Y-91622546D01*
X103629864Y-91582000D01*
X103750939Y-91504190D01*
X103845188Y-91395420D01*
X103904976Y-91264504D01*
X103925458Y-91122047D01*
X103904976Y-90979590D01*
X103845188Y-90848674D01*
X103750939Y-90739904D01*
X103629864Y-90662094D01*
X103629862Y-90662093D01*
X103629860Y-90662092D01*
X103629861Y-90662092D01*
X103491774Y-90621547D01*
X103491772Y-90621547D01*
X103347850Y-90621547D01*
X103347847Y-90621547D01*
X103209760Y-90662092D01*
X103088684Y-90739903D01*
X102994434Y-90848673D01*
X102994433Y-90848675D01*
X102934645Y-90979590D01*
X102914164Y-91122047D01*
X100919554Y-91122047D01*
X100919475Y-91092919D01*
X100919771Y-91084024D01*
X100937082Y-90833880D01*
X100938656Y-90820997D01*
X100981941Y-90574766D01*
X100984858Y-90562109D01*
X101053688Y-90321778D01*
X101057918Y-90309483D01*
X101139770Y-90106817D01*
X101151540Y-90077673D01*
X101157020Y-90065919D01*
X101275190Y-89843710D01*
X101277257Y-89839984D01*
X101279208Y-89836604D01*
X101280255Y-89834823D01*
X101311426Y-89782968D01*
X101311426Y-89782964D01*
X101311428Y-89782963D01*
X101312438Y-89780642D01*
X101312638Y-89780245D01*
X101312767Y-89779934D01*
X101313640Y-89777877D01*
X101313782Y-89777549D01*
X101313934Y-89777115D01*
X101314894Y-89774794D01*
X101314903Y-89774780D01*
X101330561Y-89716338D01*
X101331087Y-89714441D01*
X101347772Y-89656295D01*
X101347772Y-89656289D01*
X101348143Y-89653809D01*
X101348237Y-89653357D01*
X101348288Y-89652974D01*
X101348592Y-89650810D01*
X101348649Y-89650429D01*
X101348682Y-89649978D01*
X101349009Y-89647489D01*
X101349011Y-89647486D01*
X101349011Y-89587125D01*
X101349030Y-89584940D01*
X101349042Y-89584227D01*
X101350095Y-89524532D01*
X101350093Y-89524525D01*
X101349805Y-89521984D01*
X101349011Y-89507971D01*
X101349011Y-89004739D01*
X101368696Y-88937700D01*
X101396041Y-88907519D01*
X101918467Y-88493932D01*
X101951887Y-88475053D01*
X102526437Y-88259597D01*
X102541242Y-88255078D01*
X103044536Y-88135247D01*
X103073257Y-88131875D01*
X103426826Y-88131875D01*
X103440519Y-88132633D01*
G37*
%TD.AperFunction*%
%TD*%
%TA.AperFunction,Conductor*%
%TO.N,GND4*%
G36*
X115633876Y-88123665D02*
G01*
X115923170Y-88155808D01*
X116501759Y-88220096D01*
X116549198Y-88235455D01*
X116575981Y-88250632D01*
X117267364Y-88642415D01*
X117285612Y-88655038D01*
X117621905Y-88935282D01*
X117660804Y-88993321D01*
X117666522Y-89030541D01*
X117666522Y-89507653D01*
X117665745Y-89521514D01*
X117665366Y-89524879D01*
X117666500Y-89584934D01*
X117666522Y-89587274D01*
X117666522Y-89647207D01*
X117666963Y-89650560D01*
X117666991Y-89650934D01*
X117667274Y-89652941D01*
X117667348Y-89653292D01*
X117667852Y-89656635D01*
X117667936Y-89656925D01*
X117684503Y-89714396D01*
X117685093Y-89716519D01*
X117700630Y-89774499D01*
X117700632Y-89774506D01*
X117701922Y-89777620D01*
X117702045Y-89777971D01*
X117702838Y-89779836D01*
X117703002Y-89780160D01*
X117704359Y-89783269D01*
X117735337Y-89834658D01*
X117736532Y-89836684D01*
X117738165Y-89839513D01*
X117740545Y-89843833D01*
X117871594Y-90093273D01*
X117877597Y-90106535D01*
X117977570Y-90367170D01*
X117981975Y-90381038D01*
X118050712Y-90651593D01*
X118053462Y-90665889D01*
X118090013Y-90942627D01*
X118091069Y-90957147D01*
X118094935Y-91236266D01*
X118094282Y-91250809D01*
X118065409Y-91528456D01*
X118063056Y-91542823D01*
X118001839Y-91815178D01*
X117997818Y-91829169D01*
X117905105Y-92092468D01*
X117899472Y-92105893D01*
X117776536Y-92356516D01*
X117769368Y-92369187D01*
X117617911Y-92603665D01*
X117609308Y-92615409D01*
X117431412Y-92830522D01*
X117421492Y-92841177D01*
X117219607Y-93033962D01*
X117208506Y-93043381D01*
X116985421Y-93211173D01*
X116973293Y-93219226D01*
X116732075Y-93359719D01*
X116719086Y-93366295D01*
X116463067Y-93477546D01*
X116449398Y-93482554D01*
X116182100Y-93563035D01*
X116167937Y-93566406D01*
X115893065Y-93615001D01*
X115878605Y-93616690D01*
X115596208Y-93632949D01*
X115588931Y-93633154D01*
X115526742Y-93633078D01*
X115518687Y-93634129D01*
X115518614Y-93633570D01*
X115498733Y-93636154D01*
X113803919Y-93633035D01*
X113736916Y-93613227D01*
X113691258Y-93560339D01*
X113681409Y-93526681D01*
X113668863Y-93439418D01*
X113609075Y-93308502D01*
X113514826Y-93199732D01*
X113393751Y-93121922D01*
X113393749Y-93121921D01*
X113393747Y-93121920D01*
X113393748Y-93121920D01*
X113255661Y-93081375D01*
X113255659Y-93081375D01*
X113217040Y-93081375D01*
X113150001Y-93061690D01*
X113104246Y-93008886D01*
X113093040Y-92957711D01*
X113092711Y-92836444D01*
X113088065Y-91121766D01*
X115082675Y-91121766D01*
X115103156Y-91264222D01*
X115162944Y-91395137D01*
X115162945Y-91395139D01*
X115257194Y-91503909D01*
X115378269Y-91581719D01*
X115378272Y-91581720D01*
X115378271Y-91581720D01*
X115516358Y-91622265D01*
X115516360Y-91622266D01*
X115516361Y-91622266D01*
X115660284Y-91622266D01*
X115660284Y-91622265D01*
X115798375Y-91581719D01*
X115919450Y-91503909D01*
X116013699Y-91395139D01*
X116073487Y-91264223D01*
X116093969Y-91121766D01*
X116073487Y-90979309D01*
X116013699Y-90848393D01*
X115919450Y-90739623D01*
X115798375Y-90661813D01*
X115798373Y-90661812D01*
X115798371Y-90661811D01*
X115798372Y-90661811D01*
X115660285Y-90621266D01*
X115660283Y-90621266D01*
X115516361Y-90621266D01*
X115516358Y-90621266D01*
X115378271Y-90661811D01*
X115257195Y-90739622D01*
X115162945Y-90848392D01*
X115162944Y-90848394D01*
X115103156Y-90979309D01*
X115082675Y-91121766D01*
X113088065Y-91121766D01*
X113087986Y-91092649D01*
X113088282Y-91083755D01*
X113105592Y-90833600D01*
X113107166Y-90820716D01*
X113150452Y-90574479D01*
X113153365Y-90561838D01*
X113222203Y-90321481D01*
X113226419Y-90309226D01*
X113320052Y-90077397D01*
X113325533Y-90065641D01*
X113443802Y-89843253D01*
X113445867Y-89839528D01*
X113447728Y-89836306D01*
X113448811Y-89834469D01*
X113452628Y-89828119D01*
X113479935Y-89782694D01*
X113479936Y-89782688D01*
X113480951Y-89780358D01*
X113481146Y-89779971D01*
X113481269Y-89779675D01*
X113482153Y-89777594D01*
X113482297Y-89777262D01*
X113482446Y-89776835D01*
X113483411Y-89774504D01*
X113483414Y-89774499D01*
X113499073Y-89716054D01*
X113499579Y-89714230D01*
X113516282Y-89656021D01*
X113516282Y-89656016D01*
X113516661Y-89653487D01*
X113516750Y-89653056D01*
X113516793Y-89652736D01*
X113517098Y-89650567D01*
X113517155Y-89650184D01*
X113517189Y-89649730D01*
X113517522Y-89647202D01*
X113517522Y-89586826D01*
X113517541Y-89584640D01*
X113517545Y-89584412D01*
X113518606Y-89524258D01*
X113518605Y-89524253D01*
X113518316Y-89521705D01*
X113517522Y-89507696D01*
X113517522Y-89015441D01*
X113537207Y-88948402D01*
X113564553Y-88918220D01*
X114111822Y-88484966D01*
X114145247Y-88466084D01*
X114719794Y-88250629D01*
X114734599Y-88246110D01*
X115237893Y-88126279D01*
X115266614Y-88122907D01*
X115620183Y-88122907D01*
X115633876Y-88123665D01*
G37*
%TD.AperFunction*%
%TD*%
%TA.AperFunction,Conductor*%
%TO.N,GND*%
G36*
X121590559Y-99058561D02*
G01*
X121695723Y-99072406D01*
X121726991Y-99080784D01*
X121817418Y-99118240D01*
X121845452Y-99134425D01*
X121923102Y-99194009D01*
X121945991Y-99216898D01*
X122005574Y-99294548D01*
X122021759Y-99322581D01*
X122059215Y-99413008D01*
X122067593Y-99444275D01*
X122081439Y-99549439D01*
X122082500Y-99565625D01*
X122082500Y-104399374D01*
X122081439Y-104415560D01*
X122067593Y-104520724D01*
X122059215Y-104551991D01*
X122021759Y-104642418D01*
X122005574Y-104670451D01*
X121945991Y-104748101D01*
X121923101Y-104770991D01*
X121845451Y-104830574D01*
X121817418Y-104846759D01*
X121726991Y-104884215D01*
X121695724Y-104892593D01*
X121601898Y-104904946D01*
X121590558Y-104906439D01*
X121574374Y-104907500D01*
X120819565Y-104907500D01*
X120803401Y-104906442D01*
X120789387Y-104904599D01*
X120698369Y-104892632D01*
X120667143Y-104884277D01*
X120649314Y-104876903D01*
X120576813Y-104846917D01*
X120548811Y-104830776D01*
X120471207Y-104771336D01*
X120448326Y-104748503D01*
X120448017Y-104748101D01*
X120388725Y-104671025D01*
X120372526Y-104643060D01*
X120334973Y-104552804D01*
X120326554Y-104521603D01*
X120312523Y-104416584D01*
X120311432Y-104400450D01*
X120303174Y-100477499D01*
X120303173Y-100477497D01*
X120302500Y-100157500D01*
X119982500Y-100157500D01*
X119982500Y-100157496D01*
X119982466Y-100157493D01*
X119884231Y-100137952D01*
X119839533Y-100119438D01*
X119776731Y-100077475D01*
X119742524Y-100043268D01*
X119700560Y-99980464D01*
X119682047Y-99935768D01*
X119667312Y-99861692D01*
X119667312Y-99813309D01*
X119682047Y-99739232D01*
X119700559Y-99694536D01*
X119742526Y-99631728D01*
X119776728Y-99597526D01*
X119839536Y-99555559D01*
X119884232Y-99537047D01*
X119970521Y-99519883D01*
X119994712Y-99517500D01*
X120245107Y-99517500D01*
X120412500Y-99517500D01*
X120880846Y-99164320D01*
X120897718Y-99153616D01*
X121013282Y-99092778D01*
X121051101Y-99080116D01*
X121179989Y-99059113D01*
X121199932Y-99057500D01*
X121574374Y-99057500D01*
X121590559Y-99058561D01*
G37*
%TD.AperFunction*%
%TD*%
M02*
