%TF.GenerationSoftware,KiCad,Pcbnew,8.0.3*%
%TF.CreationDate,2024-07-16T20:49:30+03:00*%
%TF.ProjectId,PCBcoil,50434263-6f69-46c2-9e6b-696361645f70,rev?*%
%TF.SameCoordinates,Original*%
%TF.FileFunction,Copper,L3,Inr*%
%TF.FilePolarity,Positive*%
%FSLAX46Y46*%
G04 Gerber Fmt 4.6, Leading zero omitted, Abs format (unit mm)*
G04 Created by KiCad (PCBNEW 8.0.3) date 2024-07-16 20:49:30*
%MOMM*%
%LPD*%
G01*
G04 APERTURE LIST*
%TA.AperFunction,Conductor*%
%ADD10C,0.100000*%
%TD*%
%TA.AperFunction,ComponentPad*%
%ADD11R,1.700000X1.700000*%
%TD*%
%TA.AperFunction,ComponentPad*%
%ADD12O,1.700000X1.700000*%
%TD*%
%TA.AperFunction,ViaPad*%
%ADD13C,0.600000*%
%TD*%
%TA.AperFunction,ViaPad*%
%ADD14C,0.400000*%
%TD*%
%TA.AperFunction,ViaPad*%
%ADD15C,0.500000*%
%TD*%
%TA.AperFunction,Conductor*%
%ADD16C,0.130000*%
%TD*%
%TA.AperFunction,Conductor*%
%ADD17C,0.200000*%
%TD*%
%TA.AperFunction,Conductor*%
%ADD18C,0.250000*%
%TD*%
G04 APERTURE END LIST*
D10*
%TO.N,unconnected-(U2-SENSEU-Pad4)*%
X111311157Y-91135424D02*
G75*
G02*
X107711157Y-91135424I-1800000J0D01*
G01*
X119083658Y-82331841D02*
G75*
G02*
X124283658Y-82331841I2600000J0D01*
G01*
X115840346Y-90356644D02*
G75*
G02*
X116398907Y-91119364I-241246J-762556D01*
G01*
%TO.N,Net-(D1B-K)*%
X103818404Y-105278388D02*
X102508404Y-107558388D01*
X100971395Y-106854341D02*
X99581395Y-104446791D01*
%TO.N,unconnected-(U2-SENSEU-Pad4)*%
X124273979Y-91119364D02*
G75*
G02*
X119073979Y-91119364I-2600000J0D01*
G01*
X114977820Y-84252391D02*
X115581238Y-84545591D01*
X119073979Y-91119364D02*
G75*
G02*
X121673979Y-88519379I2600021J-36D01*
G01*
X107511157Y-91135424D02*
G75*
G02*
X109511157Y-89135357I1999943J124D01*
G01*
X109083868Y-83680331D02*
G75*
G02*
X108106246Y-82345573I422332J1334731D01*
G01*
X103891431Y-89581437D02*
G75*
G02*
X105008695Y-91106875I-482631J-1525363D01*
G01*
X112106260Y-82345573D02*
G75*
G02*
X109506260Y-84945660I-2600060J-27D01*
G01*
X107106260Y-82345573D02*
G75*
G02*
X111906260Y-82345573I2400000J0D01*
G01*
X113381238Y-82345591D02*
G75*
G02*
X117781238Y-82345591I2200000J0D01*
G01*
%TO.N,Net-(D1B-K)*%
X103718404Y-102012069D02*
X104278404Y-102012069D01*
%TO.N,unconnected-(U2-SENSEU-Pad4)*%
X106911157Y-91135424D02*
G75*
G02*
X109511157Y-88535357I2599943J124D01*
G01*
X116262739Y-89021884D02*
G75*
G02*
X117798958Y-91119364I-663839J-2097516D01*
G01*
X104132799Y-88818715D02*
G75*
G02*
X105808697Y-91106875I-723999J-2288085D01*
G01*
%TO.N,Net-(D1B-K)*%
X105186150Y-104567399D02*
X106684156Y-107152777D01*
%TO.N,unconnected-(U2-SENSEU-Pad4)*%
X119273979Y-91119364D02*
G75*
G02*
X121673979Y-88719379I2400021J-36D01*
G01*
%TO.N,Net-(D1B-K)*%
X104168404Y-101812069D02*
X105478404Y-99532069D01*
%TO.N,unconnected-(U2-SENSEU-Pad4)*%
X108963184Y-84061693D02*
G75*
G02*
X107706244Y-82345573I543016J1716093D01*
G01*
X97917752Y-91136405D02*
G75*
G02*
X96717752Y-91136405I-600000J0D01*
G01*
X117581238Y-82345591D02*
G75*
G02*
X115581238Y-84345538I-2000038J91D01*
G01*
X102408697Y-91106875D02*
G75*
G02*
X103204748Y-90127916I1000003J-25D01*
G01*
X116202397Y-89212564D02*
G75*
G02*
X117598958Y-91119364I-603497J-1906836D01*
G01*
X121200924Y-83857279D02*
G75*
G02*
X120083650Y-82331841I482776J1525479D01*
G01*
X97384361Y-89537796D02*
G75*
G02*
X98917689Y-91136405I-66561J-1598504D01*
G01*
X108842500Y-84443053D02*
G75*
G02*
X107306244Y-82345573I663700J2097453D01*
G01*
%TO.N,Net-(D1B-K)*%
X104723404Y-102540375D02*
X105223404Y-103406401D01*
X103598404Y-104878388D02*
X101948404Y-107738388D01*
X105408019Y-102526164D02*
X106641314Y-100382292D01*
%TO.N,unconnected-(U2-SENSEU-Pad4)*%
X110174917Y-89037944D02*
X109511157Y-88735424D01*
X122096371Y-89784606D02*
G75*
G02*
X123073956Y-91119364I-422471J-1334794D01*
G01*
%TO.N,Net-(D1B-K)*%
X102342895Y-104549848D02*
X101819812Y-105463841D01*
%TO.N,unconnected-(U2-SENSEU-Pad4)*%
X122673979Y-91119364D02*
G75*
G02*
X120673979Y-91119364I-1000000J0D01*
G01*
X121975688Y-90165964D02*
X121501214Y-89931607D01*
%TO.N,Net-(D1B-K)*%
X105584355Y-104277687D02*
X108057649Y-104273816D01*
X104498404Y-102412069D02*
X106238404Y-99392069D01*
%TO.N,unconnected-(U2-SENSEU-Pad4)*%
X124073979Y-91119364D02*
G75*
G02*
X119273979Y-91119364I-2400000J0D01*
G01*
X122683658Y-82331841D02*
G75*
G02*
X121887617Y-83310845I-999958J-59D01*
G01*
%TO.N,Net-(D1B-K)*%
X103718404Y-102012069D02*
X102318404Y-99602069D01*
X104048404Y-105478388D02*
X103928404Y-105478388D01*
%TO.N,unconnected-(U2-SENSEU-Pad4)*%
X103650064Y-90344155D02*
G75*
G02*
X104208697Y-91106875I-241264J-762645D01*
G01*
X108782158Y-84633733D02*
X109506260Y-84945573D01*
X103951773Y-89390755D02*
G75*
G02*
X105208697Y-91106875I-542973J-1716045D01*
G01*
X98117752Y-91136405D02*
G75*
G02*
X96517752Y-91136405I-800000J0D01*
G01*
X120483658Y-82306841D02*
G75*
G02*
X122884004Y-82331841I1200042J-25059D01*
G01*
%TO.N,Net-(D1B-K)*%
X105408404Y-108018388D02*
X102568404Y-108018388D01*
%TO.N,unconnected-(U2-SENSEU-Pad4)*%
X105408697Y-91106875D02*
G75*
G02*
X101408697Y-91106875I-2000000J0D01*
G01*
%TO.N,Net-(D1B-K)*%
X105668404Y-107488388D02*
X105348404Y-107618388D01*
%TO.N,unconnected-(U2-SENSEU-Pad4)*%
X108506260Y-82345573D02*
G75*
G02*
X110506260Y-82345573I1000000J0D01*
G01*
X123283654Y-82331841D02*
G75*
G02*
X121750268Y-83930469I-1599954J-59D01*
G01*
%TO.N,Net-(D1B-K)*%
X101477902Y-107231636D02*
X100971395Y-106854341D01*
X102571100Y-104545111D02*
X101337806Y-106688982D01*
%TO.N,unconnected-(U2-SENSEU-Pad4)*%
X110506260Y-82345573D02*
G75*
G02*
X109710229Y-83324626I-1000060J-27D01*
G01*
%TO.N,Net-(D1B-K)*%
X99419526Y-102542849D02*
X100839526Y-100083337D01*
%TO.N,unconnected-(U2-SENSEU-Pad4)*%
X109506261Y-84145573D02*
X109023526Y-83871011D01*
%TO.N,Net-(D1B-K)*%
X101534959Y-107510463D02*
X100823190Y-106997642D01*
%TO.N,unconnected-(U2-SENSEU-Pad4)*%
X113181238Y-82345591D02*
G75*
G02*
X117981238Y-82345591I2400000J0D01*
G01*
X103831089Y-89772117D02*
X103342088Y-89508266D01*
X119873979Y-91119364D02*
G75*
G02*
X121673978Y-89319379I1800021J-36D01*
G01*
X110911157Y-91135424D02*
G75*
G02*
X108111161Y-91135424I-1399998J-1D01*
G01*
X104008697Y-91106875D02*
G75*
G02*
X102808697Y-91106875I-600000J0D01*
G01*
%TO.N,Net-(D1B-K)*%
X103255715Y-104530899D02*
X101534959Y-107510463D01*
%TO.N,unconnected-(U2-SENSEU-Pad4)*%
X122036108Y-89975038D02*
X121545296Y-89725294D01*
X122217055Y-89403244D02*
X121673979Y-89119364D01*
X114181238Y-82345591D02*
G75*
G02*
X116981234Y-82345591I1399998J1D01*
G01*
X117598979Y-91119364D02*
G75*
G02*
X113598979Y-91119364I-2000000J0D01*
G01*
X121321529Y-83476167D02*
G75*
G02*
X120483719Y-82306842I362271J1144367D01*
G01*
X101608697Y-91106875D02*
G75*
G02*
X103408696Y-89306897I1800003J-25D01*
G01*
X121321529Y-83476167D02*
X121812341Y-83725911D01*
%TO.N,Net-(D1B-K)*%
X102299231Y-102635054D02*
X101246148Y-102639048D01*
X105636224Y-102521427D02*
X105696224Y-102625350D01*
%TO.N,unconnected-(U2-SENSEU-Pad4)*%
X110511157Y-91135424D02*
G75*
G02*
X108511157Y-91135424I-1000000J0D01*
G01*
X114917478Y-84443071D02*
G75*
G02*
X113381220Y-82345591I663722J2097471D01*
G01*
%TO.N,Net-(D1B-K)*%
X108582265Y-104565156D02*
X107162265Y-107024668D01*
%TO.N,unconnected-(U2-SENSEU-Pad4)*%
X109692182Y-90563386D02*
X109275888Y-90370801D01*
%TO.N,Net-(D1B-K)*%
X102638404Y-99472069D02*
X105328404Y-99472069D01*
%TO.N,unconnected-(U2-SENSEU-Pad4)*%
X110711157Y-91160424D02*
G75*
G02*
X108310984Y-91135424I-1199957J24924D01*
G01*
X109204551Y-83298973D02*
X109679025Y-83533330D01*
%TO.N,Net-(D1B-K)*%
X102578404Y-99072069D02*
X105418404Y-99072069D01*
%TO.N,unconnected-(U2-SENSEU-Pad4)*%
X109692182Y-90563386D02*
G75*
G02*
X110111162Y-91135424I-180982J-572014D01*
G01*
X115840346Y-90356644D02*
X115395025Y-90140383D01*
X121915346Y-90356644D02*
G75*
G02*
X122473907Y-91119364I-241246J-762556D01*
G01*
X109933549Y-89800666D02*
G75*
G02*
X110911162Y-91135424I-422349J-1334734D01*
G01*
%TO.N,Net-(D1B-K)*%
X105398404Y-107418388D02*
X102808404Y-107418388D01*
X99335677Y-103861195D02*
X99403190Y-104538130D01*
X102637510Y-103860136D02*
X99335677Y-103861195D01*
%TO.N,unconnected-(U2-SENSEU-Pad4)*%
X97521706Y-90157424D02*
G75*
G02*
X98317688Y-91136405I-203906J-978876D01*
G01*
X110306260Y-82345573D02*
G75*
G02*
X109741549Y-83110261I-800060J-27D01*
G01*
X116398979Y-91119364D02*
G75*
G02*
X114798979Y-91119364I-800000J0D01*
G01*
X116323081Y-88831204D02*
X115598979Y-88519364D01*
X102608697Y-91106875D02*
G75*
G02*
X103173434Y-90342273I800003J-25D01*
G01*
X109752524Y-90372704D02*
X109307203Y-90156443D01*
X97317752Y-89136405D02*
X96774676Y-89420285D01*
%TO.N,Net-(D1B-K)*%
X99771562Y-104256169D02*
X99794600Y-104416073D01*
X107007724Y-100216933D02*
X108397724Y-102624484D01*
X108457553Y-103881162D02*
X108384060Y-104508457D01*
%TO.N,unconnected-(U2-SENSEU-Pad4)*%
X116981234Y-82345591D02*
G75*
G02*
X115709917Y-83739622I-1399834J-109D01*
G01*
%TO.N,Net-(D1B-K)*%
X101139600Y-106745681D02*
X99794600Y-104416073D01*
%TO.N,unconnected-(U2-SENSEU-Pad4)*%
X112998979Y-91119364D02*
G75*
G02*
X115598979Y-88519379I2600021J-36D01*
G01*
X116021371Y-89784606D02*
G75*
G02*
X116998956Y-91119364I-422471J-1334794D01*
G01*
%TO.N,Net-(D1B-K)*%
X99944141Y-102834189D02*
X101239141Y-100591183D01*
X105229740Y-103691899D02*
X104729740Y-104557924D01*
X101337806Y-106688982D02*
X100042806Y-104445976D01*
%TO.N,unconnected-(U2-SENSEU-Pad4)*%
X116262739Y-89021884D02*
X115598979Y-88719364D01*
%TO.N,Net-(D1B-K)*%
X99795936Y-102690887D02*
X101140936Y-100361279D01*
%TO.N,unconnected-(U2-SENSEU-Pad4)*%
X104193141Y-88628035D02*
X103408697Y-88306875D01*
X97317752Y-88936405D02*
X96714334Y-89229605D01*
X110295601Y-88656584D02*
X109511157Y-88335424D01*
X109083868Y-83680331D02*
X109572869Y-83944182D01*
X121140582Y-84047961D02*
X121683658Y-84331841D01*
%TO.N,Net-(D1B-K)*%
X102401100Y-104250662D02*
X99771562Y-104256169D01*
%TO.N,unconnected-(U2-SENSEU-Pad4)*%
X118198979Y-91119364D02*
G75*
G02*
X112998979Y-91119364I-2600000J0D01*
G01*
X96717752Y-91136405D02*
G75*
G02*
X97136728Y-90564371I599848J105D01*
G01*
%TO.N,Net-(D1B-K)*%
X102571100Y-104545111D02*
X102401100Y-104250662D01*
X108253271Y-104074989D02*
X108205855Y-104417117D01*
%TO.N,unconnected-(U2-SENSEU-Pad4)*%
X122473979Y-91119364D02*
G75*
G02*
X120873979Y-91119364I-800000J0D01*
G01*
X96117752Y-91161405D02*
G75*
G02*
X96955623Y-89992080I1199848J25105D01*
G01*
X122398081Y-88831204D02*
X121673979Y-88519364D01*
X120959556Y-84620001D02*
X121683658Y-84931841D01*
%TO.N,Net-(D1B-K)*%
X105179814Y-102530901D02*
X106566935Y-100113465D01*
%TO.N,unconnected-(U2-SENSEU-Pad4)*%
X104132799Y-88818715D02*
X103408697Y-88506875D01*
%TO.N,Net-(D1B-K)*%
X106684156Y-107152777D02*
X106994060Y-106916007D01*
%TO.N,unconnected-(U2-SENSEU-Pad4)*%
X110054233Y-89419304D02*
X109511157Y-89135424D01*
X114857136Y-84633751D02*
G75*
G02*
X113181220Y-82345591I724064J2288151D01*
G01*
%TO.N,Net-(D1B-K)*%
X104723404Y-102540375D02*
X106444160Y-99560812D01*
%TO.N,unconnected-(U2-SENSEU-Pad4)*%
X108711157Y-91135424D02*
G75*
G02*
X109275886Y-90370794I799843J124D01*
G01*
X116998979Y-91119364D02*
G75*
G02*
X114198983Y-91119364I-1399998J-1D01*
G01*
X108306260Y-82320573D02*
G75*
G02*
X110706601Y-82345573I1200040J-25027D01*
G01*
X122458423Y-88640524D02*
X121673979Y-88319364D01*
%TO.N,Net-(D1B-K)*%
X105478404Y-99532069D02*
X105328404Y-99472069D01*
%TO.N,unconnected-(U2-SENSEU-Pad4)*%
X103951773Y-89390755D02*
X103408697Y-89106875D01*
X124083658Y-82331841D02*
G75*
G02*
X121683658Y-84731858I-2399958J-59D01*
G01*
X115900688Y-90165964D02*
X115426214Y-89931607D01*
%TO.N,Net-(D1B-K)*%
X101412184Y-106957809D02*
X101139600Y-106745681D01*
X102535641Y-103025580D02*
X99748520Y-103033016D01*
%TO.N,unconnected-(U2-SENSEU-Pad4)*%
X122398081Y-88831204D02*
G75*
G02*
X124073958Y-91119364I-724181J-2288196D01*
G01*
%TO.N,Net-(D1B-K)*%
X108670496Y-103692335D02*
X108582265Y-104565156D01*
%TO.N,unconnected-(U2-SENSEU-Pad4)*%
X115038162Y-84061711D02*
X115581238Y-84345591D01*
%TO.N,Net-(D1B-K)*%
X103608404Y-102212069D02*
X102048404Y-99522069D01*
%TO.N,unconnected-(U2-SENSEU-Pad4)*%
X113781238Y-82345591D02*
G75*
G02*
X117381238Y-82345591I1800000J0D01*
G01*
X120273983Y-91119364D02*
G75*
G02*
X121545298Y-89725311I1400017J-36D01*
G01*
X117998979Y-91119364D02*
G75*
G02*
X113198979Y-91119364I-2400000J0D01*
G01*
X115219109Y-83489917D02*
G75*
G02*
X114381223Y-82320591I362091J1144317D01*
G01*
%TO.N,Net-(D1B-K)*%
X103498404Y-102412069D02*
X101778404Y-99432069D01*
%TO.N,unconnected-(U2-SENSEU-Pad4)*%
X101408697Y-91106875D02*
G75*
G02*
X103408697Y-89106897I2000003J-25D01*
G01*
X119673979Y-91119364D02*
G75*
G02*
X121673979Y-89119379I2000021J-36D01*
G01*
%TO.N,Net-(D1B-K)*%
X102588404Y-99672069D02*
X105178404Y-99672069D01*
%TO.N,unconnected-(U2-SENSEU-Pad4)*%
X110111157Y-91135424D02*
G75*
G02*
X108911157Y-91135424I-600000J0D01*
G01*
%TO.N,Net-(D1B-K)*%
X108643442Y-103210080D02*
X108575929Y-102533144D01*
%TO.N,unconnected-(U2-SENSEU-Pad4)*%
X114857136Y-84633751D02*
X115581238Y-84945591D01*
X107306260Y-82345573D02*
G75*
G02*
X111706260Y-82345573I2200000J0D01*
G01*
%TO.N,Net-(D1B-K)*%
X108447820Y-103011253D02*
X108397724Y-102624484D01*
%TO.N,unconnected-(U2-SENSEU-Pad4)*%
X123083654Y-82331841D02*
G75*
G02*
X121812343Y-83725931I-1399954J-59D01*
G01*
X120673979Y-91119364D02*
G75*
G02*
X121470029Y-90140402I1000021J-36D01*
G01*
X107506260Y-82345573D02*
G75*
G02*
X111506260Y-82345573I2000000J0D01*
G01*
X121683659Y-84131841D02*
X121200924Y-83857279D01*
%TO.N,Net-(D1B-K)*%
X105636224Y-102521427D02*
X106159307Y-101607433D01*
%TO.N,unconnected-(U2-SENSEU-Pad4)*%
X100808697Y-91106875D02*
G75*
G02*
X103408697Y-88506897I2600003J-25D01*
G01*
X117381238Y-82345591D02*
G75*
G02*
X115581239Y-84145538I-1800038J91D01*
G01*
X110174917Y-89037944D02*
G75*
G02*
X111711164Y-91135424I-663717J-2097456D01*
G01*
X116383423Y-88640524D02*
G75*
G02*
X118198958Y-91119364I-784523J-2478876D01*
G01*
%TO.N,Net-(D1B-K)*%
X101392013Y-99686401D02*
X100839526Y-100083337D01*
X102359231Y-102531131D02*
X101239141Y-100591183D01*
%TO.N,unconnected-(U2-SENSEU-Pad4)*%
X123273979Y-91119364D02*
G75*
G02*
X120073983Y-91119364I-1599998J-1D01*
G01*
X104072457Y-89009395D02*
G75*
G02*
X105608653Y-91106875I-663857J-2097505D01*
G01*
X120883658Y-82331841D02*
G75*
G02*
X122483658Y-82331841I800000J0D01*
G01*
X122458423Y-88640524D02*
G75*
G02*
X124273958Y-91119364I-784523J-2478876D01*
G01*
%TO.N,Net-(D1B-K)*%
X102755715Y-103664874D02*
X99270318Y-103667989D01*
X104058404Y-101612069D02*
X105178404Y-99672069D01*
%TO.N,unconnected-(U2-SENSEU-Pad4)*%
X121019898Y-84429321D02*
X121683658Y-84731841D01*
X115098504Y-83871029D02*
G75*
G02*
X113981222Y-82345591I482696J1525429D01*
G01*
%TO.N,Net-(D1B-K)*%
X106641314Y-100382292D02*
X107936314Y-102625298D01*
%TO.N,unconnected-(U2-SENSEU-Pad4)*%
X108511157Y-91135424D02*
G75*
G02*
X109307204Y-90156447I999843J124D01*
G01*
X108902842Y-84252373D02*
G75*
G02*
X107506244Y-82345573I603358J1906773D01*
G01*
%TO.N,Net-(D1B-K)*%
X104158404Y-105278388D02*
X103818404Y-105278388D01*
X106733893Y-106846629D02*
X106860855Y-106746725D01*
%TO.N,unconnected-(U2-SENSEU-Pad4)*%
X107711157Y-91135424D02*
G75*
G02*
X109511156Y-89335457I1800043J-76D01*
G01*
X121080240Y-84238641D02*
G75*
G02*
X119683648Y-82331841I603460J1906841D01*
G01*
%TO.N,Net-(D1B-K)*%
X106839519Y-100325594D02*
X108184519Y-102655202D01*
X99331295Y-103415669D02*
X99419526Y-102542849D01*
%TO.N,unconnected-(U2-SENSEU-Pad4)*%
X97446435Y-89742335D02*
G75*
G02*
X98717696Y-91136405I-128735J-1394065D01*
G01*
X115961108Y-89975038D02*
X115470296Y-89725294D01*
%TO.N,Net-(D1B-K)*%
X105408019Y-102526164D02*
X105578019Y-102820612D01*
%TO.N,unconnected-(U2-SENSEU-Pad4)*%
X121442291Y-83094561D02*
X121887612Y-83310822D01*
%TO.N,Net-(D1B-K)*%
X107155929Y-100073632D02*
X108575929Y-102533144D01*
%TO.N,unconnected-(U2-SENSEU-Pad4)*%
X111711157Y-91135424D02*
G75*
G02*
X107311157Y-91135424I-2200000J0D01*
G01*
X97317752Y-88736405D02*
X96653992Y-89038925D01*
X114598979Y-91119364D02*
G75*
G02*
X115395029Y-90140402I1000021J-36D01*
G01*
X107906260Y-82345573D02*
G75*
G02*
X111106256Y-82345573I1599998J1D01*
G01*
X122337739Y-89021884D02*
G75*
G02*
X123873958Y-91119364I-663839J-2097516D01*
G01*
X115339871Y-83108311D02*
X115785192Y-83324572D01*
X104193141Y-88628035D02*
G75*
G02*
X106008653Y-91106875I-784541J-2478865D01*
G01*
X103770826Y-89962549D02*
G75*
G02*
X104608679Y-91131875I-362326J-1144451D01*
G01*
X121442291Y-83094561D02*
G75*
G02*
X120883648Y-82331841I241409J762761D01*
G01*
X109264893Y-83108293D02*
G75*
G02*
X108706244Y-82345573I241307J762693D01*
G01*
X114981238Y-82345591D02*
G75*
G02*
X116181238Y-82345591I600000J0D01*
G01*
X114581238Y-82345591D02*
G75*
G02*
X116581238Y-82345591I1000000J0D01*
G01*
X109144131Y-83489899D02*
X109634943Y-83739643D01*
X116198979Y-91119364D02*
G75*
G02*
X114998979Y-91119364I-600000J0D01*
G01*
X95917752Y-91136405D02*
G75*
G02*
X96895361Y-89801651I1399848J105D01*
G01*
X101808701Y-91106875D02*
G75*
G02*
X103342089Y-89508288I1599999J-25D01*
G01*
%TO.N,Net-(D1B-K)*%
X105341609Y-103211138D02*
X108643442Y-103210080D01*
%TO.N,unconnected-(U2-SENSEU-Pad4)*%
X115038162Y-84061711D02*
G75*
G02*
X113781220Y-82345591I543038J1716111D01*
G01*
X120899214Y-84810681D02*
X121683658Y-85131841D01*
X121855004Y-90547326D02*
X121438710Y-90354741D01*
%TO.N,Net-(D1B-K)*%
X104268404Y-105078388D02*
X105668404Y-107488388D01*
X104278404Y-102012069D02*
X105768404Y-99422069D01*
X106609778Y-107421603D02*
X107162265Y-107024668D01*
%TO.N,unconnected-(U2-SENSEU-Pad4)*%
X115339871Y-83108311D02*
G75*
G02*
X114781220Y-82345591I241329J762711D01*
G01*
X108906260Y-82345573D02*
G75*
G02*
X110106260Y-82345573I600000J0D01*
G01*
X114198983Y-91119364D02*
G75*
G02*
X115470298Y-89725311I1400017J-36D01*
G01*
X96517752Y-91136405D02*
G75*
G02*
X97076387Y-90373691I799848J105D01*
G01*
X109511156Y-89335424D02*
X109993891Y-89609986D01*
X98717748Y-91136405D02*
G75*
G02*
X95917752Y-91136405I-1399998J-1D01*
G01*
X120899214Y-84810681D02*
G75*
G02*
X119083648Y-82331841I784486J2478881D01*
G01*
%TO.N,Net-(D1B-K)*%
X102519305Y-104055399D02*
X99531299Y-104060021D01*
%TO.N,unconnected-(U2-SENSEU-Pad4)*%
X121502633Y-82903879D02*
G75*
G02*
X121083650Y-82331841I181067J572079D01*
G01*
%TO.N,Net-(D1B-K)*%
X99544238Y-103226842D02*
X99617731Y-102599548D01*
%TO.N,unconnected-(U2-SENSEU-Pad4)*%
X103589722Y-90534837D02*
G75*
G02*
X104008695Y-91106875I-180922J-571963D01*
G01*
X110906256Y-82345573D02*
G75*
G02*
X109634950Y-83739723I-1400056J-27D01*
G01*
X103831089Y-89772117D02*
G75*
G02*
X104808695Y-91106875I-422289J-1334683D01*
G01*
%TO.N,Net-(D1B-K)*%
X102282895Y-104445925D02*
X100042806Y-104445976D01*
%TO.N,unconnected-(U2-SENSEU-Pad4)*%
X108106260Y-82345573D02*
G75*
G02*
X110906256Y-82345573I1399998J1D01*
G01*
X119283658Y-82331841D02*
G75*
G02*
X124083658Y-82331841I2400000J0D01*
G01*
%TO.N,Net-(D1B-K)*%
X101267898Y-100261375D02*
X101140936Y-100361279D01*
%TO.N,unconnected-(U2-SENSEU-Pad4)*%
X97317752Y-88936405D02*
G75*
G02*
X99517695Y-91136405I-52J-2199995D01*
G01*
X115279529Y-83298991D02*
X115754003Y-83533348D01*
X108721816Y-84824413D02*
X109506260Y-85145573D01*
X108842500Y-84443053D02*
X109506260Y-84745573D01*
X97384361Y-89537796D02*
X96895360Y-89801647D01*
X122277397Y-89212564D02*
G75*
G02*
X123673958Y-91119364I-603497J-1906836D01*
G01*
%TO.N,Net-(D1B-K)*%
X102772051Y-103416106D02*
X103272051Y-102550080D01*
%TO.N,unconnected-(U2-SENSEU-Pad4)*%
X102008701Y-91106875D02*
G75*
G02*
X103280016Y-89712828I1399999J-25D01*
G01*
X97317752Y-89136405D02*
G75*
G02*
X99317695Y-91136405I-52J-1999995D01*
G01*
X116021371Y-89784606D02*
X115532370Y-89520755D01*
%TO.N,Net-(D1B-K)*%
X102653846Y-103220843D02*
X103043846Y-102545343D01*
%TO.N,unconnected-(U2-SENSEU-Pad4)*%
X108963184Y-84061693D02*
X109506260Y-84345573D01*
%TO.N,Net-(D1B-K)*%
X103608404Y-102212069D02*
X104388404Y-102212069D01*
X104488404Y-104678388D02*
X103488404Y-104678388D01*
X102218404Y-107668388D02*
X102578404Y-107818388D01*
%TO.N,unconnected-(U2-SENSEU-Pad4)*%
X119883658Y-82331841D02*
G75*
G02*
X123483658Y-82331841I1800000J0D01*
G01*
X105208697Y-91106875D02*
G75*
G02*
X101608697Y-91106875I-1800000J0D01*
G01*
X120959556Y-84620001D02*
G75*
G02*
X119283648Y-82331841I724144J2288201D01*
G01*
X111111157Y-91135424D02*
G75*
G02*
X107911161Y-91135424I-1599998J-1D01*
G01*
X94717752Y-91136405D02*
G75*
G02*
X96533304Y-88657553I2600148J-95D01*
G01*
X115598978Y-89319364D02*
X116081713Y-89593926D01*
X108721816Y-84824413D02*
G75*
G02*
X106906244Y-82345573I784384J2478813D01*
G01*
X121502633Y-82903879D02*
X121918927Y-83096464D01*
%TO.N,Net-(D1B-K)*%
X102318404Y-99602069D02*
X102638404Y-99472069D01*
%TO.N,unconnected-(U2-SENSEU-Pad4)*%
X99717752Y-91136405D02*
G75*
G02*
X94917752Y-91136405I-2400000J0D01*
G01*
X121915346Y-90356644D02*
X121470025Y-90140383D01*
X96835018Y-89610967D02*
X97317753Y-89336405D01*
X122337739Y-89021884D02*
X121673979Y-88719364D01*
X122036108Y-89975038D02*
G75*
G02*
X122873957Y-91144364I-362208J-1144362D01*
G01*
X117398979Y-91119364D02*
G75*
G02*
X113798979Y-91119364I-1800000J0D01*
G01*
%TO.N,Net-(D1B-K)*%
X105466150Y-104082425D02*
X108253271Y-104074989D01*
%TO.N,unconnected-(U2-SENSEU-Pad4)*%
X115400213Y-82917629D02*
X115816507Y-83110214D01*
X99917752Y-91136405D02*
G75*
G02*
X94717752Y-91136405I-2600000J0D01*
G01*
X109933549Y-89800666D02*
X109444548Y-89536815D01*
X109023526Y-83871011D02*
G75*
G02*
X107906246Y-82345573I482674J1525411D01*
G01*
X113581238Y-82345591D02*
G75*
G02*
X117581238Y-82345591I2000000J0D01*
G01*
%TO.N,Net-(D1B-K)*%
X105702560Y-104472950D02*
X106755643Y-104468957D01*
%TO.N,unconnected-(U2-SENSEU-Pad4)*%
X105008697Y-91106875D02*
G75*
G02*
X101808701Y-91106875I-1599998J-1D01*
G01*
%TO.N,Net-(D1B-K)*%
X99531299Y-104060021D02*
X99581395Y-104446791D01*
X108205855Y-104417117D02*
X106860855Y-106746725D01*
X102815641Y-102540606D02*
X101317635Y-99955228D01*
%TO.N,unconnected-(U2-SENSEU-Pad4)*%
X123473979Y-91119364D02*
G75*
G02*
X119873979Y-91119364I-1800000J0D01*
G01*
X95517752Y-91136405D02*
G75*
G02*
X96774678Y-89420291I1799848J105D01*
G01*
%TO.N,Net-(D1B-K)*%
X104378404Y-104878388D02*
X103598404Y-104878388D01*
%TO.N,unconnected-(U2-SENSEU-Pad4)*%
X113398979Y-91119364D02*
G75*
G02*
X115598979Y-88919379I2200021J-36D01*
G01*
X106906260Y-82345573D02*
G75*
G02*
X112106260Y-82345573I2600000J0D01*
G01*
%TO.N,Net-(D1B-K)*%
X102508404Y-107558388D02*
X102658404Y-107618388D01*
%TO.N,unconnected-(U2-SENSEU-Pad4)*%
X118181238Y-82345591D02*
G75*
G02*
X115581238Y-84945538I-2600038J91D01*
G01*
X97521706Y-90157424D02*
X97076385Y-90373685D01*
%TO.N,Net-(D1B-K)*%
X104957945Y-104562662D02*
X106609778Y-107421603D01*
%TO.N,unconnected-(U2-SENSEU-Pad4)*%
X114781238Y-82345591D02*
G75*
G02*
X116381238Y-82345591I800000J0D01*
G01*
X117781238Y-82345591D02*
G75*
G02*
X115581238Y-84545538I-2200038J91D01*
G01*
X104012115Y-89200075D02*
X103408697Y-88906875D01*
X96317752Y-91136405D02*
G75*
G02*
X97016045Y-90183011I999848J105D01*
G01*
%TO.N,Net-(D1B-K)*%
X102299231Y-102635054D02*
X102359231Y-102531131D01*
%TO.N,unconnected-(U2-SENSEU-Pad4)*%
X103650064Y-90344155D02*
X103204743Y-90127894D01*
X121975688Y-90165964D02*
G75*
G02*
X122673958Y-91119364I-301788J-953436D01*
G01*
X97446435Y-89742335D02*
X96955623Y-89992079D01*
X114398723Y-91119364D02*
G75*
G02*
X115426217Y-89931624I1200277J-36D01*
G01*
%TO.N,Net-(D1B-K)*%
X103708404Y-105078388D02*
X102218404Y-107668388D01*
X105584355Y-104277687D02*
X105414355Y-104572136D01*
X103938404Y-101612069D02*
X104058404Y-101612069D01*
%TO.N,unconnected-(U2-SENSEU-Pad4)*%
X97317753Y-89336405D02*
G75*
G02*
X99117695Y-91136405I-53J-1799995D01*
G01*
%TO.N,Net-(D1B-K)*%
X102653846Y-103220843D02*
X99544238Y-103226842D01*
%TO.N,unconnected-(U2-SENSEU-Pad4)*%
X122096371Y-89784606D02*
X121607370Y-89520755D01*
X105808697Y-91106875D02*
G75*
G02*
X101008697Y-91106875I-2400000J0D01*
G01*
X115900688Y-90165964D02*
G75*
G02*
X116598958Y-91119364I-301788J-953436D01*
G01*
X122873979Y-91144364D02*
G75*
G02*
X120473761Y-91119364I-1199979J24964D01*
G01*
X115581239Y-84145591D02*
X115098504Y-83871029D01*
X121080240Y-84238641D02*
X121683658Y-84531841D01*
X121381949Y-83285241D02*
G75*
G02*
X120683604Y-82331841I301551J953341D01*
G01*
X117798979Y-91119364D02*
G75*
G02*
X113398979Y-91119364I-2200000J0D01*
G01*
X112111157Y-91135424D02*
G75*
G02*
X106911157Y-91135424I-2600000J0D01*
G01*
X114798979Y-91119364D02*
G75*
G02*
X115363716Y-90354760I800021J-36D01*
G01*
%TO.N,Net-(D1B-K)*%
X105348404Y-107618388D02*
X102658404Y-107618388D01*
%TO.N,unconnected-(U2-SENSEU-Pad4)*%
X107911161Y-91135424D02*
G75*
G02*
X109444549Y-89536842I1599839J124D01*
G01*
X120283658Y-82331841D02*
G75*
G02*
X123083654Y-82331841I1399998J1D01*
G01*
%TO.N,Net-(D1B-K)*%
X102417436Y-102830317D02*
X99944141Y-102834189D01*
%TO.N,unconnected-(U2-SENSEU-Pad4)*%
X104408697Y-91106875D02*
G75*
G02*
X102408697Y-91106875I-1000000J0D01*
G01*
%TO.N,Net-(D1B-K)*%
X108384060Y-104508457D02*
X106994060Y-106916007D01*
%TO.N,unconnected-(U2-SENSEU-Pad4)*%
X105608697Y-91106875D02*
G75*
G02*
X101208697Y-91106875I-2200000J0D01*
G01*
X109812866Y-90182024D02*
G75*
G02*
X110511164Y-91135424I-301666J-953376D01*
G01*
X108111161Y-91135424D02*
G75*
G02*
X109382476Y-89741374I1399839J124D01*
G01*
X104072457Y-89009395D02*
X103408697Y-88706875D01*
X122883914Y-82331841D02*
G75*
G02*
X121856426Y-83519620I-1200214J-59D01*
G01*
X109325235Y-82917611D02*
X109741529Y-83110196D01*
X119483658Y-82331841D02*
G75*
G02*
X123883658Y-82331841I2200000J0D01*
G01*
X109204551Y-83298973D02*
G75*
G02*
X108506244Y-82345573I301649J953373D01*
G01*
X109144131Y-83489899D02*
G75*
G02*
X108306247Y-82320573I362069J1144299D01*
G01*
X97490517Y-89948648D02*
X97016043Y-90183005D01*
X104608697Y-91131875D02*
G75*
G02*
X102208443Y-91106875I-1199997J24975D01*
G01*
%TO.N,Net-(D1B-K)*%
X105466150Y-104082425D02*
X105186150Y-104567399D01*
%TO.N,unconnected-(U2-SENSEU-Pad4)*%
X122217055Y-89403244D02*
G75*
G02*
X123473958Y-91119364I-543155J-1716156D01*
G01*
X107706260Y-82345573D02*
G75*
G02*
X111306260Y-82345573I1800000J0D01*
G01*
X108310901Y-91135424D02*
G75*
G02*
X109338394Y-89947679I1200099J124D01*
G01*
%TO.N,Net-(D1B-K)*%
X103928404Y-105478388D02*
X102808404Y-107418388D01*
X101317635Y-99955228D02*
X101007731Y-100191997D01*
%TO.N,unconnected-(U2-SENSEU-Pad4)*%
X121673978Y-89319364D02*
X122156713Y-89593926D01*
%TO.N,Net-(D1B-K)*%
X102587436Y-102535869D02*
X101267898Y-100261375D01*
%TO.N,unconnected-(U2-SENSEU-Pad4)*%
X109873286Y-89991098D02*
X109382474Y-89741354D01*
X116781494Y-82345591D02*
G75*
G02*
X115753999Y-83533318I-1200094J-109D01*
G01*
X122483658Y-82331841D02*
G75*
G02*
X121918935Y-83096490I-799958J-59D01*
G01*
X109325235Y-82917611D02*
G75*
G02*
X108906246Y-82345573I180965J572011D01*
G01*
%TO.N,Net-(D1B-K)*%
X104488404Y-104678388D02*
X106208404Y-107658388D01*
X108207557Y-102815106D02*
X108184519Y-102655202D01*
%TO.N,unconnected-(U2-SENSEU-Pad4)*%
X119473979Y-91119364D02*
G75*
G02*
X121673979Y-88919379I2200021J-36D01*
G01*
%TO.N,Net-(D1B-K)*%
X103488404Y-104678388D02*
X101748404Y-107698388D01*
%TO.N,unconnected-(U2-SENSEU-Pad4)*%
X121019898Y-84429321D02*
G75*
G02*
X119483648Y-82331841I663802J2097521D01*
G01*
X102208441Y-91106875D02*
G75*
G02*
X103235935Y-89919140I1200259J-25D01*
G01*
X108902842Y-84252373D02*
X109506260Y-84545573D01*
X109873286Y-89991098D02*
G75*
G02*
X110711161Y-91160424I-362086J-1144302D01*
G01*
X115158846Y-83680349D02*
G75*
G02*
X114181222Y-82345591I422354J1334749D01*
G01*
X115219109Y-83489917D02*
X115709921Y-83739661D01*
X114796794Y-84824431D02*
X115581238Y-85145591D01*
%TO.N,Net-(D1B-K)*%
X105229740Y-103691899D02*
X108670496Y-103692335D01*
%TO.N,unconnected-(U2-SENSEU-Pad4)*%
X97490517Y-89948648D02*
G75*
G02*
X98517945Y-91136405I-172717J-1187652D01*
G01*
X110706516Y-82345573D02*
G75*
G02*
X109679036Y-83533407I-1200316J-27D01*
G01*
X113798979Y-91119364D02*
G75*
G02*
X115598978Y-89319379I1800021J-36D01*
G01*
%TO.N,Net-(D1B-K)*%
X103828404Y-101812069D02*
X104168404Y-101812069D01*
%TO.N,unconnected-(U2-SENSEU-Pad4)*%
X107311157Y-91135424D02*
G75*
G02*
X109511157Y-88935357I2199943J124D01*
G01*
%TO.N,Net-(D1B-K)*%
X100823190Y-106997642D02*
X99403190Y-104538130D01*
%TO.N,unconnected-(U2-SENSEU-Pad4)*%
X114977820Y-84252391D02*
G75*
G02*
X113581220Y-82345591I603380J1906791D01*
G01*
X114796794Y-84824431D02*
G75*
G02*
X112981220Y-82345591I784406J2478831D01*
G01*
X114381238Y-82320591D02*
G75*
G02*
X116781421Y-82345591I1199962J-24909D01*
G01*
X99117752Y-91136405D02*
G75*
G02*
X95517752Y-91136405I-1800000J0D01*
G01*
X97317752Y-88736405D02*
G75*
G02*
X99717695Y-91136405I-52J-2399995D01*
G01*
%TO.N,Net-(D1B-K)*%
X106208404Y-107658388D02*
X105408404Y-108018388D01*
%TO.N,unconnected-(U2-SENSEU-Pad4)*%
X111511157Y-91135424D02*
G75*
G02*
X107511157Y-91135424I-2000000J0D01*
G01*
%TO.N,Net-(D1B-K)*%
X102799305Y-104540373D02*
X101412184Y-106957809D01*
X104951609Y-102535638D02*
X106501217Y-99839639D01*
%TO.N,unconnected-(U2-SENSEU-Pad4)*%
X123483658Y-82331841D02*
G75*
G02*
X121683659Y-84131858I-1799958J-59D01*
G01*
X115158846Y-83680349D02*
X115647847Y-83944200D01*
%TO.N,Net-(D1B-K)*%
X104378404Y-104878388D02*
X105938404Y-107568388D01*
X102772051Y-103416106D02*
X99331295Y-103415669D01*
%TO.N,unconnected-(U2-SENSEU-Pad4)*%
X110114575Y-89228624D02*
X109511157Y-88935424D01*
%TO.N,Net-(D1B-K)*%
X103255715Y-104530899D02*
X102755715Y-103664874D01*
%TO.N,unconnected-(U2-SENSEU-Pad4)*%
X120083658Y-82331841D02*
G75*
G02*
X123283654Y-82331841I1599998J1D01*
G01*
X99317752Y-91136405D02*
G75*
G02*
X95317752Y-91136405I-2000000J0D01*
G01*
X123873979Y-91119364D02*
G75*
G02*
X119473979Y-91119364I-2200000J0D01*
G01*
X103710406Y-90153475D02*
G75*
G02*
X104408679Y-91106875I-301906J-953525D01*
G01*
%TO.N,Net-(D1B-K)*%
X101948404Y-107738388D02*
X102568404Y-108018388D01*
%TO.N,unconnected-(U2-SENSEU-Pad4)*%
X116142055Y-89403244D02*
G75*
G02*
X117398958Y-91119364I-543155J-1716156D01*
G01*
X112981238Y-82345591D02*
G75*
G02*
X118181238Y-82345591I2600000J0D01*
G01*
%TO.N,Net-(D1B-K)*%
X106444160Y-99560812D02*
X107155929Y-100073632D01*
%TO.N,unconnected-(U2-SENSEU-Pad4)*%
X116383423Y-88640524D02*
X115598979Y-88319364D01*
X106008697Y-91106875D02*
G75*
G02*
X100808697Y-91106875I-2600000J0D01*
G01*
%TO.N,Net-(D1B-K)*%
X104048404Y-105478388D02*
X104578404Y-106388388D01*
%TO.N,unconnected-(U2-SENSEU-Pad4)*%
X98317752Y-91136405D02*
G75*
G02*
X96317752Y-91136405I-1000000J0D01*
G01*
X116202397Y-89212564D02*
X115598979Y-88919364D01*
X94917752Y-91136405D02*
G75*
G02*
X96593646Y-88848233I2400148J-95D01*
G01*
X115780004Y-90547326D02*
G75*
G02*
X116198956Y-91119364I-181104J-572074D01*
G01*
X119683658Y-82331841D02*
G75*
G02*
X123683658Y-82331841I2000000J0D01*
G01*
X99517752Y-91136405D02*
G75*
G02*
X95117752Y-91136405I-2200000J0D01*
G01*
X111106256Y-82345573D02*
G75*
G02*
X109572873Y-83944266I-1600056J-27D01*
G01*
%TO.N,Net-(D1B-K)*%
X102628404Y-99272069D02*
X105408404Y-99272069D01*
%TO.N,unconnected-(U2-SENSEU-Pad4)*%
X108706260Y-82345573D02*
G75*
G02*
X110306260Y-82345573I800000J0D01*
G01*
X101208697Y-91106875D02*
G75*
G02*
X103408697Y-88906897I2200003J-25D01*
G01*
X111906260Y-82345573D02*
G75*
G02*
X109506260Y-84745660I-2400060J-27D01*
G01*
X110114575Y-89228624D02*
G75*
G02*
X111511164Y-91135424I-603375J-1906776D01*
G01*
%TO.N,Net-(D1B-K)*%
X105223404Y-103406401D02*
X108708801Y-103403285D01*
%TO.N,unconnected-(U2-SENSEU-Pad4)*%
X108782158Y-84633733D02*
G75*
G02*
X107106244Y-82345573I724042J2288133D01*
G01*
X97317752Y-88536405D02*
X96593650Y-88848245D01*
X115400213Y-82917629D02*
G75*
G02*
X114981222Y-82345591I180987J572029D01*
G01*
X103589722Y-90534837D02*
X103173428Y-90342252D01*
%TO.N,Net-(D1B-K)*%
X99617731Y-102599548D02*
X101007731Y-100191997D01*
X102048404Y-99522069D02*
X102628404Y-99272069D01*
%TO.N,unconnected-(U2-SENSEU-Pad4)*%
X113998983Y-91119364D02*
G75*
G02*
X115532371Y-89520771I1600017J-36D01*
G01*
%TO.N,Net-(D1B-K)*%
X103272051Y-102550080D02*
X101526654Y-99533196D01*
%TO.N,unconnected-(U2-SENSEU-Pad4)*%
X121381949Y-83285241D02*
X121856423Y-83519598D01*
X109264893Y-83108293D02*
X109710214Y-83324554D01*
%TO.N,Net-(D1B-K)*%
X102535641Y-103025580D02*
X102815641Y-102540606D01*
%TO.N,unconnected-(U2-SENSEU-Pad4)*%
X97317752Y-88536405D02*
G75*
G02*
X99917695Y-91136405I-52J-2599995D01*
G01*
X95717752Y-91136405D02*
G75*
G02*
X96835019Y-89610971I1599848J105D01*
G01*
%TO.N,Net-(D1B-K)*%
X105696224Y-102625350D02*
X107936314Y-102625298D01*
%TO.N,unconnected-(U2-SENSEU-Pad4)*%
X104012115Y-89200075D02*
G75*
G02*
X105408653Y-91106875I-603515J-1906825D01*
G01*
X122277397Y-89212564D02*
X121673979Y-88919364D01*
X95117752Y-91136405D02*
G75*
G02*
X96653994Y-89038931I2199848J105D01*
G01*
%TO.N,Net-(D1B-K)*%
X106038404Y-99352069D02*
X105418404Y-99072069D01*
X105578019Y-102820612D02*
X108207557Y-102815106D01*
%TO.N,unconnected-(U2-SENSEU-Pad4)*%
X97553021Y-90371782D02*
G75*
G02*
X98117710Y-91136405I-235321J-764618D01*
G01*
X109812866Y-90182024D02*
X109338392Y-89947667D01*
%TO.N,Net-(D1B-K)*%
X104268404Y-105078388D02*
X103708404Y-105078388D01*
%TO.N,unconnected-(U2-SENSEU-Pad4)*%
X120683658Y-82331841D02*
G75*
G02*
X122683658Y-82331841I1000000J0D01*
G01*
X116598979Y-91119364D02*
G75*
G02*
X114598979Y-91119364I-1000000J0D01*
G01*
X111506260Y-82345573D02*
G75*
G02*
X109506260Y-84345660I-2000060J-27D01*
G01*
X121083658Y-82331841D02*
G75*
G02*
X122283658Y-82331841I600000J0D01*
G01*
X109752524Y-90372704D02*
G75*
G02*
X110311190Y-91135424I-241424J-762796D01*
G01*
X120873979Y-91119364D02*
G75*
G02*
X121438716Y-90354760I800021J-36D01*
G01*
X113981238Y-82345591D02*
G75*
G02*
X117181234Y-82345591I1599998J1D01*
G01*
X120473723Y-91119364D02*
G75*
G02*
X121501217Y-89931624I1200277J-36D01*
G01*
%TO.N,Net-(D1B-K)*%
X105179814Y-102530901D02*
X105459814Y-103015875D01*
X108057649Y-104273816D02*
X106762649Y-106516822D01*
X103498404Y-102412069D02*
X104498404Y-102412069D01*
%TO.N,unconnected-(U2-SENSEU-Pad4)*%
X117981238Y-82345591D02*
G75*
G02*
X115581238Y-84745538I-2400038J91D01*
G01*
%TO.N,Net-(D1B-K)*%
X104158404Y-105278388D02*
X105398404Y-107418388D01*
X105358404Y-107818388D02*
X102578404Y-107818388D01*
X105642560Y-104576873D02*
X106762649Y-106516822D01*
X103938404Y-101612069D02*
X103408404Y-100702069D01*
%TO.N,unconnected-(U2-SENSEU-Pad4)*%
X110235259Y-88847264D02*
G75*
G02*
X111911164Y-91135424I-724059J-2288136D01*
G01*
%TO.N,Net-(D1B-K)*%
X106566935Y-100113465D02*
X106839519Y-100325594D01*
%TO.N,unconnected-(U2-SENSEU-Pad4)*%
X104808697Y-91106875D02*
G75*
G02*
X102008701Y-91106875I-1399998J-1D01*
G01*
X116581238Y-82345591D02*
G75*
G02*
X115785187Y-83324550I-999838J-109D01*
G01*
X121261266Y-83666599D02*
X121750267Y-83930450D01*
%TO.N,Net-(D1B-K)*%
X103043846Y-102545343D02*
X101392013Y-99686401D01*
X106501217Y-99839639D02*
X107007724Y-100216933D01*
X104388404Y-102212069D02*
X106038404Y-99352069D01*
%TO.N,unconnected-(U2-SENSEU-Pad4)*%
X116323081Y-88831204D02*
G75*
G02*
X117998958Y-91119364I-724181J-2288196D01*
G01*
X103770826Y-89962549D02*
X103280014Y-89712805D01*
%TO.N,Net-(D1B-K)*%
X103828404Y-101812069D02*
X102588404Y-99672069D01*
%TO.N,unconnected-(U2-SENSEU-Pad4)*%
X97317752Y-88336405D02*
X96533308Y-88657565D01*
X110054233Y-89419304D02*
G75*
G02*
X111311164Y-91135424I-543033J-1716096D01*
G01*
X115780004Y-90547326D02*
X115363710Y-90354741D01*
%TO.N,Net-(D1B-K)*%
X102799305Y-104540373D02*
X102519305Y-104055399D01*
X105414355Y-104572136D02*
X106733893Y-106846629D01*
%TO.N,unconnected-(U2-SENSEU-Pad4)*%
X104208697Y-91106875D02*
G75*
G02*
X102608697Y-91106875I-800000J0D01*
G01*
X97553021Y-90371782D02*
X97136727Y-90564367D01*
X116798979Y-91144364D02*
G75*
G02*
X114398761Y-91119364I-1199979J24964D01*
G01*
X113598979Y-91119364D02*
G75*
G02*
X115598979Y-89119379I2000021J-36D01*
G01*
X117198979Y-91119364D02*
G75*
G02*
X113998983Y-91119364I-1599998J-1D01*
G01*
X109993891Y-89609986D02*
G75*
G02*
X111111162Y-91135424I-482691J-1525414D01*
G01*
X116381238Y-82345591D02*
G75*
G02*
X115816504Y-83110204I-799838J-109D01*
G01*
%TO.N,Net-(D1B-K)*%
X101778404Y-99432069D02*
X102578404Y-99072069D01*
%TO.N,unconnected-(U2-SENSEU-Pad4)*%
X111306260Y-82345573D02*
G75*
G02*
X109506261Y-84145660I-1800060J-27D01*
G01*
%TO.N,Net-(D1B-K)*%
X105459814Y-103015875D02*
X108447820Y-103011253D01*
%TO.N,unconnected-(U2-SENSEU-Pad4)*%
X123683658Y-82331841D02*
G75*
G02*
X121683658Y-84331858I-1999958J-59D01*
G01*
X103408696Y-89306875D02*
X103891431Y-89581437D01*
X120073983Y-91119364D02*
G75*
G02*
X121607371Y-89520771I1600017J-36D01*
G01*
%TO.N,Net-(D1B-K)*%
X105768404Y-99422069D02*
X105408404Y-99272069D01*
X105347945Y-103887162D02*
X108457553Y-103881162D01*
X102342895Y-104549848D02*
X102282895Y-104445925D01*
X104729740Y-104557924D02*
X106475137Y-107574809D01*
%TO.N,unconnected-(U2-SENSEU-Pad4)*%
X122273979Y-91119364D02*
G75*
G02*
X121073979Y-91119364I-600000J0D01*
G01*
%TO.N,Net-(D1B-K)*%
X102417436Y-102830317D02*
X102587436Y-102535869D01*
%TO.N,unconnected-(U2-SENSEU-Pad4)*%
X101008697Y-91106875D02*
G75*
G02*
X103408697Y-88706897I2400003J-25D01*
G01*
%TO.N,Net-(D1B-K)*%
X105347945Y-103887162D02*
X104957945Y-104562662D01*
%TO.N,unconnected-(U2-SENSEU-Pad4)*%
X116081713Y-89593926D02*
G75*
G02*
X117198956Y-91119364I-482813J-1525474D01*
G01*
X115279529Y-83298991D02*
G75*
G02*
X114581220Y-82345591I301671J953391D01*
G01*
X121261266Y-83666599D02*
G75*
G02*
X120283650Y-82331841I422434J1334799D01*
G01*
X98518008Y-91136405D02*
G75*
G02*
X96117653Y-91161407I-1200308J5D01*
G01*
X123673979Y-91119364D02*
G75*
G02*
X119673979Y-91119364I-2000000J0D01*
G01*
X114917478Y-84443071D02*
X115581238Y-84745591D01*
%TO.N,Net-(D1B-K)*%
X105702560Y-104472950D02*
X105642560Y-104576873D01*
%TO.N,unconnected-(U2-SENSEU-Pad4)*%
X103710406Y-90153475D02*
X103235932Y-89919118D01*
X115961108Y-89975038D02*
G75*
G02*
X116798957Y-91144364I-362208J-1144362D01*
G01*
%TO.N,Net-(D1B-K)*%
X105938404Y-107568388D02*
X105358404Y-107818388D01*
%TO.N,unconnected-(U2-SENSEU-Pad4)*%
X117181234Y-82345591D02*
G75*
G02*
X115647845Y-83944154I-1599834J-109D01*
G01*
X113198979Y-91119364D02*
G75*
G02*
X115598979Y-88719379I2400021J-36D01*
G01*
%TO.N,Net-(D1B-K)*%
X103027510Y-104535636D02*
X101477902Y-107231636D01*
X103027510Y-104535636D02*
X102637510Y-103860136D01*
%TO.N,unconnected-(U2-SENSEU-Pad4)*%
X110311157Y-91135424D02*
G75*
G02*
X108711157Y-91135424I-800000J0D01*
G01*
X121855004Y-90547326D02*
G75*
G02*
X122273956Y-91119364I-181104J-572074D01*
G01*
X110235259Y-88847264D02*
X109511157Y-88535424D01*
X116142055Y-89403244D02*
X115598979Y-89119364D01*
%TO.N,Net-(D1B-K)*%
X99748520Y-103033016D02*
X99795936Y-102690887D01*
%TO.N,unconnected-(U2-SENSEU-Pad4)*%
X107111157Y-91135424D02*
G75*
G02*
X109511157Y-88735457I2400043J-76D01*
G01*
X123883658Y-82331841D02*
G75*
G02*
X121683658Y-84531858I-2199958J-59D01*
G01*
X121140582Y-84047961D02*
G75*
G02*
X119883648Y-82331841I543118J1716161D01*
G01*
X122156713Y-89593926D02*
G75*
G02*
X123273956Y-91119364I-482813J-1525474D01*
G01*
X111706260Y-82345573D02*
G75*
G02*
X109506260Y-84545660I-2200060J-27D01*
G01*
%TO.N,Net-(D1B-K)*%
X104951609Y-102535638D02*
X105341609Y-103211138D01*
%TO.N,unconnected-(U2-SENSEU-Pad4)*%
X110295601Y-88656584D02*
G75*
G02*
X112111164Y-91135424I-784401J-2478816D01*
G01*
X123073979Y-91119364D02*
G75*
G02*
X120273983Y-91119364I-1399998J-1D01*
G01*
X124283658Y-82331841D02*
G75*
G02*
X121683658Y-84931858I-2599958J-59D01*
G01*
X111911157Y-91135424D02*
G75*
G02*
X107111157Y-91135424I-2400000J0D01*
G01*
X95317752Y-91136405D02*
G75*
G02*
X96714336Y-89229611I1999848J105D01*
G01*
X98917748Y-91136405D02*
G75*
G02*
X95717752Y-91136405I-1599998J-1D01*
G01*
%TD*%
D11*
%TO.N,N/C*%
%TO.C,REF\u002A\u002A*%
X141075000Y-98247500D03*
D12*
X141075000Y-100787500D03*
%TO.N,Net-(D1C-K)*%
X141075000Y-103327500D03*
X141075000Y-105867500D03*
X141075000Y-108407500D03*
%TD*%
D11*
%TO.N,+5V*%
%TO.C,REF\u002A\u002A*%
X139405000Y-126750000D03*
D12*
%TO.N,GND2*%
X139405000Y-124210000D03*
%TD*%
D11*
%TO.N,EN*%
%TO.C,REF\u002A\u002A*%
X120382500Y-114787500D03*
D12*
%TO.N,FAULT*%
X117842500Y-114787500D03*
%TO.N,STBY*%
X115302500Y-114787500D03*
%TO.N,~{SHDN}*%
X112762500Y-114787500D03*
%TO.N,EN_U*%
X110222500Y-114787500D03*
%TD*%
D11*
%TO.N,Net-(D10-K)*%
%TO.C,REF\u002A\u002A*%
X117305000Y-124305000D03*
D12*
%TO.N,Net-(D7-A)*%
X117305000Y-126845000D03*
%TD*%
D11*
%TO.N,N/C*%
%TO.C,REF\u002A\u002A*%
X127075000Y-98247500D03*
D12*
X127075000Y-100787500D03*
%TO.N,Net-(D1C-K)*%
X127075000Y-103327500D03*
X127075000Y-105867500D03*
X127075000Y-108407500D03*
%TD*%
D11*
%TO.N,Net-(Q3-C)*%
%TO.C,REF\u002A\u002A*%
X94870000Y-119145000D03*
D12*
%TO.N,+9V*%
X97410000Y-119145000D03*
%TD*%
D11*
%TO.N,Net-(C14-Pad1)*%
%TO.C,REF\u002A\u002A*%
X112735000Y-119105000D03*
%TD*%
%TO.N,Net-(C16-Pad1)*%
%TO.C,REF\u002A\u002A*%
X103640000Y-119145000D03*
D12*
%TO.N,+9V*%
X101100000Y-119145000D03*
%TD*%
D11*
%TO.N,3.3V*%
%TO.C,REF\u002A\u002A*%
X135325000Y-119578750D03*
D12*
%TO.N,Net-(Q1-C)*%
X137865000Y-119578750D03*
%TD*%
D11*
%TO.N,IN_W*%
%TO.C,REF\u002A\u002A*%
X120382500Y-112257500D03*
D12*
%TO.N,EN_W*%
X117842500Y-112257500D03*
%TO.N,IN_V*%
X115302500Y-112257500D03*
%TO.N,EN_V*%
X112762500Y-112257500D03*
%TO.N,IN_U*%
X110222500Y-112257500D03*
%TD*%
D11*
%TO.N,Net-(D3-A)*%
%TO.C,REF\u002A\u002A*%
X123315000Y-119095000D03*
%TD*%
%TO.N,GND*%
%TO.C,REF\u002A\u002A*%
X106522500Y-114777500D03*
D12*
%TO.N,Net-(J1-Pin_1)*%
X103982500Y-114777500D03*
%TO.N,Net-(J1-Pin_2)*%
X101442500Y-114777500D03*
%TO.N,Net-(J1-Pin_3)*%
X98902500Y-114777500D03*
%TO.N,3.3V*%
X96362500Y-114777500D03*
%TD*%
D13*
%TO.N,GND4*%
X94960000Y-93515000D03*
X101010000Y-93465000D03*
D14*
%TO.N,*%
X103688404Y-100322069D03*
X106944733Y-104901444D03*
D15*
X127617276Y-80044006D03*
D14*
X104028404Y-106298388D03*
D15*
X135317276Y-86274006D03*
D14*
X106402701Y-104900271D03*
D15*
X127817276Y-86249006D03*
D14*
X102347562Y-108645750D03*
D15*
X127829776Y-82499006D03*
D14*
X101311917Y-98959856D03*
X103718404Y-106758388D03*
D15*
X131377276Y-80044006D03*
X131650000Y-99802500D03*
D14*
X100406636Y-99578401D03*
D15*
X141585000Y-90065000D03*
D14*
X101350722Y-105411354D03*
D15*
X141645000Y-86065000D03*
D14*
X107595155Y-107529603D03*
X101069382Y-104904060D03*
D15*
X131567276Y-86274006D03*
D14*
X106132373Y-98676072D03*
X100853567Y-99267023D03*
X109229661Y-102410718D03*
X98666423Y-103567288D03*
D15*
X131579776Y-93774006D03*
D14*
X103958404Y-100792069D03*
D15*
X141655000Y-82335000D03*
D14*
X101057058Y-102206561D03*
D15*
X135329776Y-90024006D03*
X139067276Y-86274006D03*
X131579776Y-82524006D03*
D14*
X109312696Y-103503987D03*
D15*
X135329776Y-82524006D03*
D14*
X106628397Y-101659920D03*
X101359246Y-108171026D03*
X101854435Y-108414385D03*
X98749458Y-104660557D03*
X106909737Y-102167215D03*
X101599090Y-102207734D03*
D15*
X139079776Y-93774006D03*
D14*
X98703262Y-104117814D03*
D15*
X127829776Y-93749006D03*
D14*
X106627562Y-98919431D03*
D15*
X139079776Y-90024006D03*
D14*
X104268404Y-100332069D03*
X107148224Y-107840981D03*
D15*
X127829776Y-89999006D03*
D14*
X131408118Y-105098669D03*
X109275857Y-102953461D03*
D15*
X135329776Y-93774006D03*
D14*
X104298404Y-106768388D03*
D15*
X141575000Y-94055000D03*
D14*
X101355718Y-101709266D03*
X136669975Y-104627846D03*
X106356365Y-102128747D03*
X106689874Y-108148148D03*
D15*
X131579776Y-90024006D03*
X139037276Y-80034006D03*
D14*
X106646073Y-105398738D03*
X101622754Y-104942527D03*
D15*
X136475000Y-99827500D03*
X135187276Y-80054006D03*
D14*
X105625641Y-98415580D03*
D15*
X139079776Y-82524006D03*
D14*
%TO.N,GND*%
X109542500Y-109977500D03*
X115472500Y-100797500D03*
X121500000Y-99597500D03*
D13*
X113183698Y-93581875D03*
D14*
X116675641Y-99595580D03*
X112412500Y-101677500D03*
D13*
X119283698Y-93531875D03*
D14*
%TO.N,V_Mot<5V*%
X112332500Y-100237500D03*
X117662500Y-103337500D03*
%TO.N,Net-(D1C-K)*%
X131400288Y-104527500D03*
X115082500Y-104647500D03*
X136098806Y-104635676D03*
%TO.N,Net-(D1B-K)*%
X99535641Y-106185580D03*
X115072500Y-103997500D03*
%TO.N,Net-(D1A-K)*%
X115092500Y-103347500D03*
D13*
%TO.N,IN_W*%
X116222500Y-97657500D03*
D14*
%TO.N,EN_V*%
X118648195Y-101154508D03*
D13*
%TO.N,unconnected-(U2-SENSEU-Pad4)*%
X114435000Y-87655000D03*
D14*
X108230000Y-85847327D03*
D13*
X103415189Y-82332155D03*
X115583678Y-82331892D03*
X96045000Y-87655000D03*
D14*
X122948511Y-87606594D03*
D13*
X110855000Y-85925000D03*
X115588322Y-91121766D03*
X121669811Y-91122047D03*
X109494811Y-91122047D03*
X97326300Y-91122328D03*
D14*
X110773511Y-87606594D03*
D13*
X109508700Y-82331874D03*
D14*
X104698511Y-87606594D03*
X114305000Y-85847327D03*
D13*
X121677211Y-82331593D03*
X123055000Y-85825000D03*
D14*
X96055000Y-85847327D03*
X102136489Y-85847608D03*
D13*
X102135000Y-87615000D03*
X97333700Y-82331874D03*
X103419811Y-91122047D03*
X108295000Y-87625000D03*
X116845000Y-85845000D03*
D14*
X120398511Y-85847046D03*
X98605000Y-87606875D03*
X116867022Y-87606313D03*
D13*
X120485000Y-87625000D03*
D14*
%TO.N,EN_U*%
X116362500Y-102437500D03*
%TO.N,STBY*%
X118892500Y-98767500D03*
D13*
%TO.N,EN_W*%
X117032500Y-97667500D03*
D14*
%TO.N,IN_U*%
X116982500Y-102377500D03*
%TO.N,IN_V*%
X118672502Y-100554998D03*
%TO.N,EN*%
X120082500Y-97667500D03*
%TO.N,~{SHDN}*%
X118352500Y-107097500D03*
%TO.N,+5V*%
X121532500Y-105837500D03*
X116752500Y-105787500D03*
D13*
X114560454Y-101572698D03*
D14*
X120082500Y-98757500D03*
X119400000Y-105787500D03*
D13*
%TO.N,Net-(Q1-C)*%
X127732500Y-119278750D03*
%TO.N,Net-(D7-A)*%
X121777500Y-126387500D03*
%TO.N,Net-(J1-Pin_3)*%
X99450454Y-111452698D03*
%TO.N,Net-(J1-Pin_2)*%
X101020454Y-111452698D03*
%TO.N,Net-(J1-Pin_1)*%
X102510454Y-111482698D03*
%TO.N,GND4*%
X107108698Y-93481875D03*
%TD*%
D16*
%TO.N,*%
X130244776Y-85259006D02*
X132594776Y-85259006D01*
D17*
X138990000Y-100167500D02*
X139600000Y-100777500D01*
D16*
X132607276Y-83559006D02*
X130532276Y-83559006D01*
X129694776Y-88159006D02*
X129694776Y-84709006D01*
X140107276Y-83559006D02*
X138032276Y-83559006D01*
X129694776Y-84709006D02*
X133144776Y-84709006D01*
X139282276Y-89834006D02*
X139282276Y-90034006D01*
X133719776Y-84984006D02*
X136619776Y-84984006D01*
X138032276Y-94809006D02*
X138032276Y-93034006D01*
X134007276Y-81509006D02*
X136357276Y-81509006D01*
X135794776Y-85809006D02*
X135794776Y-86759006D01*
X130794776Y-85809006D02*
X132044776Y-85809006D01*
X128569776Y-85509006D02*
X128569776Y-87009006D01*
X138307276Y-90784006D02*
X138307276Y-89559006D01*
X136632276Y-88734006D02*
X136632276Y-91334006D01*
D17*
X130850000Y-98802500D02*
X132450000Y-98802500D01*
D16*
X134557276Y-94534006D02*
X134557276Y-93309006D01*
X128857276Y-92734006D02*
X128857276Y-94784006D01*
X128032276Y-89809006D02*
X128032276Y-90009006D01*
X138582276Y-90509006D02*
X138582276Y-89834006D01*
X132044776Y-86759006D02*
X131069776Y-86759006D01*
X128857276Y-91034006D02*
X126782276Y-91034006D01*
X129407276Y-80934006D02*
X129407276Y-84084006D01*
X133144776Y-84709006D02*
X133144776Y-87859006D01*
X131082276Y-82334006D02*
X131782276Y-82334006D01*
X138019776Y-85534006D02*
X139819776Y-85534006D01*
X128307276Y-94234006D02*
X127332276Y-94234006D01*
X138019776Y-87309006D02*
X138019776Y-85534006D01*
X136357276Y-89009006D02*
X136357276Y-91059006D01*
X138032276Y-93034006D02*
X139832276Y-93034006D01*
X138582276Y-94259006D02*
X138582276Y-93584006D01*
X137744776Y-87584006D02*
X137744776Y-85259006D01*
X132332276Y-89284006D02*
X132332276Y-90784006D01*
D17*
X132100000Y-100402500D02*
X130800000Y-100402500D01*
D16*
X138582276Y-93584006D02*
X139282276Y-93584006D01*
X140107276Y-92759006D02*
X140107276Y-94809006D01*
X139819776Y-87034006D02*
X138294776Y-87034006D01*
X137207276Y-95659006D02*
X137207276Y-92209006D01*
X136632276Y-91334006D02*
X134007276Y-91334006D01*
X132057276Y-82059006D02*
X132057276Y-83009006D01*
X139282276Y-82534006D02*
X139082276Y-82534006D01*
X128582276Y-90759006D02*
X127057276Y-90759006D01*
X135532276Y-82334006D02*
X135532276Y-82534006D01*
X139269776Y-86284006D02*
X139069776Y-86284006D01*
X134832276Y-93584006D02*
X135532276Y-93584006D01*
X133144776Y-87859006D02*
X129969776Y-87859006D01*
X133157276Y-95359006D02*
X129982276Y-95359006D01*
X132332276Y-90784006D02*
X130807276Y-90784006D01*
X133457276Y-95659006D02*
X133457276Y-92209006D01*
X139557276Y-90509006D02*
X138582276Y-90509006D01*
D17*
X134675000Y-101327500D02*
X134675000Y-98277500D01*
D16*
X140644776Y-84709006D02*
X140644776Y-87859006D01*
X136082276Y-94534006D02*
X134557276Y-94534006D01*
X134557276Y-82059006D02*
X135807276Y-82059006D01*
X132882276Y-91334006D02*
X130257276Y-91334006D01*
X126769776Y-85509006D02*
X128569776Y-85509006D01*
X126507276Y-83809006D02*
X126507276Y-81484006D01*
X139819776Y-85534006D02*
X139819776Y-87034006D01*
X131769776Y-86084006D02*
X131769776Y-86284006D01*
X136082276Y-89284006D02*
X136082276Y-90784006D01*
X128582276Y-89259006D02*
X128582276Y-90759006D01*
D17*
X138975000Y-97877500D02*
X138975000Y-100177500D01*
D16*
X138294776Y-87034006D02*
X138294776Y-85809006D01*
D17*
X137575000Y-101227500D02*
X135325000Y-101227500D01*
D16*
X129132276Y-92459006D02*
X129132276Y-95059006D01*
D18*
X141562276Y-91391506D02*
X141562276Y-90239006D01*
D16*
X128294776Y-86734006D02*
X127319776Y-86734006D01*
X129707276Y-95659006D02*
X125957276Y-95659006D01*
X138032276Y-83559006D02*
X138032276Y-81784006D01*
X126782276Y-89259006D02*
X128582276Y-89259006D01*
X133157276Y-92209006D02*
X133157276Y-95359006D01*
X134007276Y-95084006D02*
X134007276Y-92759006D01*
X136894776Y-87859006D02*
X133719776Y-87859006D01*
X125957276Y-95659006D02*
X125957276Y-92184006D01*
X135807276Y-83009006D02*
X134832276Y-83009006D01*
X130532276Y-89284006D02*
X132332276Y-89284006D01*
X136632276Y-92484006D02*
X136632276Y-95084006D01*
X140107276Y-89009006D02*
X140107276Y-91059006D01*
X136357276Y-91059006D02*
X134282276Y-91059006D01*
X130807276Y-93309006D02*
X132057276Y-93309006D01*
X134557276Y-89559006D02*
X135807276Y-89559006D01*
X126782276Y-94784006D02*
X126782276Y-93009006D01*
X130257276Y-95084006D02*
X130257276Y-92759006D01*
X133457276Y-84409006D02*
X133457276Y-80959006D01*
X130519776Y-87309006D02*
X130519776Y-85534006D01*
X140944776Y-88159006D02*
X137194776Y-88159006D01*
X126507276Y-95059006D02*
X126507276Y-92734006D01*
X129407276Y-88434006D02*
X129407276Y-91584006D01*
D17*
X133050000Y-98652500D02*
X133050000Y-100952500D01*
D16*
X132332276Y-94534006D02*
X130807276Y-94534006D01*
X138294776Y-85809006D02*
X139544776Y-85809006D01*
X129119776Y-87559006D02*
X126494776Y-87559006D01*
X139832276Y-89284006D02*
X139832276Y-90784006D01*
X139282276Y-93784006D02*
X139082276Y-93784006D01*
X128857276Y-94784006D02*
X126782276Y-94784006D01*
X132594776Y-85259006D02*
X132594776Y-87309006D01*
X127319776Y-86734006D02*
X127319776Y-86059006D01*
X136357276Y-81509006D02*
X136357276Y-83559006D01*
X138582276Y-82334006D02*
X139282276Y-82334006D01*
X129132276Y-91309006D02*
X126507276Y-91309006D01*
X128307276Y-82984006D02*
X127332276Y-82984006D01*
X133457276Y-91909006D02*
X129707276Y-91909006D01*
X132057276Y-94259006D02*
X131082276Y-94259006D01*
X138032276Y-81784006D02*
X139832276Y-81784006D01*
X127332276Y-89809006D02*
X128032276Y-89809006D01*
X130257276Y-92759006D02*
X132607276Y-92759006D01*
X133994776Y-85259006D02*
X136344776Y-85259006D01*
X132332276Y-81784006D02*
X132332276Y-83284006D01*
D17*
X135625000Y-98827500D02*
X137575000Y-98827500D01*
D16*
X130257276Y-91334006D02*
X130257276Y-89009006D01*
X140382276Y-91334006D02*
X137757276Y-91334006D01*
D17*
X133850000Y-98002500D02*
X133850000Y-101702500D01*
D16*
X137469776Y-84984006D02*
X140369776Y-84984006D01*
X128032276Y-90009006D02*
X127832276Y-90009006D01*
X137757276Y-91334006D02*
X137757276Y-89009006D01*
X126507276Y-92734006D02*
X128857276Y-92734006D01*
X126507276Y-81484006D02*
X128857276Y-81484006D01*
X126232276Y-84084006D02*
X126232276Y-81209006D01*
X125957276Y-92184006D02*
X129407276Y-92184006D01*
X134282276Y-94809006D02*
X134282276Y-93034006D01*
X135807276Y-94259006D02*
X134832276Y-94259006D01*
D17*
X131200000Y-99202500D02*
X132050000Y-99202500D01*
D16*
X130807276Y-83284006D02*
X130807276Y-82059006D01*
X127332276Y-82984006D02*
X127332276Y-82309006D01*
X131782276Y-93584006D02*
X131782276Y-93784006D01*
X132332276Y-93034006D02*
X132332276Y-94534006D01*
X132057276Y-83009006D02*
X131082276Y-83009006D01*
X128569776Y-87009006D02*
X127044776Y-87009006D01*
X139832276Y-94534006D02*
X138307276Y-94534006D01*
X140657276Y-80959006D02*
X140657276Y-84109006D01*
D17*
X138325000Y-102027500D02*
X134675000Y-102027500D01*
D16*
X136069776Y-87034006D02*
X134544776Y-87034006D01*
X131082276Y-94259006D02*
X131082276Y-93584006D01*
D17*
X131050000Y-99652500D02*
X131050000Y-99352500D01*
D16*
X127057276Y-90759006D02*
X127057276Y-89534006D01*
X137194776Y-88159006D02*
X133444776Y-88159006D01*
X139544776Y-85809006D02*
X139544776Y-86759006D01*
X140382276Y-81234006D02*
X140382276Y-83834006D01*
X135519776Y-86284006D02*
X135319776Y-86284006D01*
X133732276Y-92484006D02*
X136632276Y-92484006D01*
X139544776Y-86759006D02*
X138569776Y-86759006D01*
X127332276Y-93559006D02*
X128032276Y-93559006D01*
X129982276Y-88734006D02*
X132882276Y-88734006D01*
X125944776Y-84684006D02*
X129394776Y-84684006D01*
X137207276Y-91909006D02*
X133457276Y-91909006D01*
X136632276Y-81234006D02*
X136632276Y-83834006D01*
D18*
X140944776Y-88159006D02*
X141639776Y-87464006D01*
D16*
X133732276Y-84109006D02*
X133732276Y-81234006D01*
X129707276Y-91909006D02*
X129707276Y-88459006D01*
X127332276Y-82309006D02*
X128032276Y-82309006D01*
X133157276Y-88459006D02*
X133157276Y-91609006D01*
X131082276Y-93584006D02*
X131782276Y-93584006D01*
D17*
X135325000Y-98427500D02*
X137975000Y-98427500D01*
D16*
X134819776Y-86084006D02*
X135519776Y-86084006D01*
X134832276Y-94259006D02*
X134832276Y-93584006D01*
X134832276Y-90509006D02*
X134832276Y-89834006D01*
X135807276Y-90509006D02*
X134832276Y-90509006D01*
X129694776Y-88159006D02*
X125944776Y-88159006D01*
X125957276Y-88434006D02*
X129407276Y-88434006D01*
X138582276Y-89834006D02*
X139282276Y-89834006D01*
X133444776Y-88159006D02*
X129694776Y-88159006D01*
X140094776Y-87309006D02*
X138019776Y-87309006D01*
X140957276Y-95659006D02*
X141585000Y-95031282D01*
X137469776Y-87859006D02*
X137469776Y-84984006D01*
X133157276Y-84109006D02*
X129982276Y-84109006D01*
X130532276Y-81784006D02*
X132332276Y-81784006D01*
D17*
X132500000Y-100802500D02*
X130550000Y-100802500D01*
D16*
X132869776Y-84984006D02*
X132869776Y-87584006D01*
X130257276Y-89009006D02*
X132607276Y-89009006D01*
X140644776Y-87859006D02*
X137469776Y-87859006D01*
X136082276Y-81784006D02*
X136082276Y-83284006D01*
D17*
X134275000Y-101627500D02*
X134275000Y-97927500D01*
X134925000Y-98027500D02*
X138325000Y-98027500D01*
D16*
X137194776Y-84709006D02*
X140644776Y-84709006D01*
X129969776Y-87859006D02*
X129969776Y-84984006D01*
X139557276Y-89559006D02*
X139557276Y-90509006D01*
X129707276Y-84409006D02*
X125957276Y-84409006D01*
X140657276Y-91609006D02*
X137482276Y-91609006D01*
X134282276Y-91059006D02*
X134282276Y-89284006D01*
X126494776Y-85234006D02*
X128844776Y-85234006D01*
X137482276Y-84109006D02*
X137482276Y-81234006D01*
X133457276Y-92209006D02*
X136907276Y-92209006D01*
X136619776Y-87584006D02*
X133994776Y-87584006D01*
X129982276Y-92484006D02*
X132882276Y-92484006D01*
X131082276Y-90509006D02*
X131082276Y-89834006D01*
X129707276Y-80959006D02*
X133157276Y-80959006D01*
X138582276Y-83009006D02*
X138582276Y-82334006D01*
X127057276Y-89534006D02*
X128307276Y-89534006D01*
X129982276Y-81234006D02*
X132882276Y-81234006D01*
X127332276Y-90484006D02*
X127332276Y-89809006D01*
D17*
X136025000Y-99227500D02*
X137325000Y-99227500D01*
D16*
X125957276Y-80934006D02*
X129407276Y-80934006D01*
X130257276Y-81509006D02*
X132607276Y-81509006D01*
X132319776Y-87034006D02*
X130794776Y-87034006D01*
X128307276Y-93284006D02*
X128307276Y-94234006D01*
D17*
X134575000Y-97627500D02*
X138725000Y-97627500D01*
D16*
X135794776Y-86759006D02*
X134819776Y-86759006D01*
X128307276Y-90484006D02*
X127332276Y-90484006D01*
X126507276Y-88984006D02*
X128857276Y-88984006D01*
X139282276Y-82334006D02*
X139282276Y-82534006D01*
X132882276Y-92484006D02*
X132882276Y-95084006D01*
X137207276Y-84409006D02*
X133457276Y-84409006D01*
X127332276Y-94234006D02*
X127332276Y-93559006D01*
X132332276Y-83284006D02*
X130807276Y-83284006D01*
X131082276Y-83009006D02*
X131082276Y-82334006D01*
X129982276Y-91609006D02*
X129982276Y-88734006D01*
X130807276Y-89559006D02*
X132057276Y-89559006D01*
X136082276Y-83284006D02*
X134557276Y-83284006D01*
X135519776Y-86084006D02*
X135519776Y-86284006D01*
X140657276Y-92209006D02*
X140657276Y-95359006D01*
X134282276Y-93034006D02*
X136082276Y-93034006D01*
X126507276Y-91309006D02*
X126507276Y-88984006D01*
D17*
X128875000Y-99652500D02*
X128450000Y-99652500D01*
D16*
X126494776Y-87559006D02*
X126494776Y-85234006D01*
X136907276Y-84109006D02*
X133732276Y-84109006D01*
X136907276Y-91609006D02*
X133732276Y-91609006D01*
X136907276Y-95359006D02*
X133732276Y-95359006D01*
X131082276Y-89834006D02*
X131782276Y-89834006D01*
X128032276Y-93559006D02*
X128032276Y-93759006D01*
X130532276Y-91059006D02*
X130532276Y-89284006D01*
X135532276Y-93584006D02*
X135532276Y-93784006D01*
X136357276Y-83559006D02*
X134282276Y-83559006D01*
D17*
X128210000Y-99652500D02*
X127075000Y-100787500D01*
D16*
X139557276Y-94259006D02*
X138582276Y-94259006D01*
X128857276Y-81484006D02*
X128857276Y-83534006D01*
X133444776Y-88159006D02*
X133444776Y-84709006D01*
X133457276Y-84409006D02*
X129707276Y-84409006D01*
X132607276Y-92759006D02*
X132607276Y-94809006D01*
X126219776Y-84959006D02*
X129119776Y-84959006D01*
X134282276Y-81784006D02*
X136082276Y-81784006D01*
D17*
X130650000Y-100252500D02*
X130650000Y-99002500D01*
D16*
X139269776Y-86084006D02*
X139269776Y-86284006D01*
X130807276Y-82059006D02*
X132057276Y-82059006D01*
D17*
X135075000Y-100977500D02*
X135075000Y-98677500D01*
D16*
X138307276Y-82059006D02*
X139557276Y-82059006D01*
X138307276Y-93309006D02*
X139557276Y-93309006D01*
X131782276Y-90034006D02*
X131582276Y-90034006D01*
D17*
X136925000Y-100427500D02*
X136075000Y-100427500D01*
D16*
X132607276Y-94809006D02*
X130532276Y-94809006D01*
X129707276Y-92209006D02*
X133157276Y-92209006D01*
X137757276Y-83834006D02*
X137757276Y-81509006D01*
X126232276Y-92459006D02*
X129132276Y-92459006D01*
X133994776Y-87584006D02*
X133994776Y-85259006D01*
X141585000Y-95031282D02*
X141585000Y-94045000D01*
D17*
X131650000Y-99802500D02*
X131200000Y-99802500D01*
D16*
X138569776Y-86084006D02*
X139269776Y-86084006D01*
X134269776Y-87309006D02*
X134269776Y-85534006D01*
X136082276Y-90784006D02*
X134557276Y-90784006D01*
X137207276Y-91909006D02*
X137207276Y-88459006D01*
X129119776Y-84959006D02*
X129119776Y-87559006D01*
X126232276Y-88709006D02*
X129132276Y-88709006D01*
D17*
X128450000Y-99652500D02*
X128210000Y-99652500D01*
X138975000Y-100177500D02*
X139500000Y-100702500D01*
D16*
X127057276Y-94509006D02*
X127057276Y-93284006D01*
D17*
X130200000Y-98002500D02*
X133150000Y-98002500D01*
D16*
X129132276Y-88709006D02*
X129132276Y-91309006D01*
X129132276Y-95059006D02*
X126507276Y-95059006D01*
X139557276Y-82059006D02*
X139557276Y-83009006D01*
X130257276Y-83834006D02*
X130257276Y-81509006D01*
X129394776Y-87834006D02*
X126219776Y-87834006D01*
X140957276Y-91909006D02*
X137207276Y-91909006D01*
X127057276Y-93284006D02*
X128307276Y-93284006D01*
X133732276Y-95359006D02*
X133732276Y-92484006D01*
X139832276Y-90784006D02*
X138307276Y-90784006D01*
X134544776Y-85809006D02*
X135794776Y-85809006D01*
X140369776Y-84984006D02*
X140369776Y-87584006D01*
X134007276Y-83834006D02*
X134007276Y-81509006D01*
X128032276Y-93759006D02*
X127832276Y-93759006D01*
X126232276Y-91584006D02*
X126232276Y-88709006D01*
X129132276Y-83809006D02*
X126507276Y-83809006D01*
X140382276Y-95084006D02*
X137757276Y-95084006D01*
X138307276Y-89559006D02*
X139557276Y-89559006D01*
X130532276Y-94809006D02*
X130532276Y-93034006D01*
X133732276Y-81234006D02*
X136632276Y-81234006D01*
X128019776Y-86259006D02*
X127819776Y-86259006D01*
D17*
X129900000Y-100952500D02*
X129900000Y-98302500D01*
D16*
X127057276Y-82034006D02*
X128307276Y-82034006D01*
X129707276Y-95659006D02*
X129707276Y-92209006D01*
X140657276Y-95359006D02*
X137482276Y-95359006D01*
X139282276Y-90034006D02*
X139082276Y-90034006D01*
X140382276Y-83834006D02*
X137757276Y-83834006D01*
D17*
X130550000Y-98402500D02*
X132800000Y-98402500D01*
D16*
X140382276Y-92484006D02*
X140382276Y-95084006D01*
X130794776Y-87034006D02*
X130794776Y-85809006D01*
X136357276Y-94809006D02*
X134282276Y-94809006D01*
D17*
X133550000Y-102002500D02*
X129400000Y-102002500D01*
D16*
X132607276Y-89009006D02*
X132607276Y-91059006D01*
X133457276Y-91909006D02*
X133457276Y-88459006D01*
X129982276Y-84109006D02*
X129982276Y-81234006D01*
X137757276Y-95084006D02*
X137757276Y-92759006D01*
X139282276Y-93584006D02*
X139282276Y-93784006D01*
X132882276Y-83834006D02*
X130257276Y-83834006D01*
X135532276Y-93784006D02*
X135332276Y-93784006D01*
X128032276Y-82309006D02*
X128032276Y-82509006D01*
D17*
X135875000Y-100227500D02*
X135875000Y-99377500D01*
D16*
X131782276Y-93784006D02*
X131582276Y-93784006D01*
X133157276Y-80959006D02*
X133157276Y-84109006D01*
X128857276Y-88984006D02*
X128857276Y-91034006D01*
X126782276Y-83534006D02*
X126782276Y-81759006D01*
X128019776Y-86059006D02*
X128019776Y-86259006D01*
X129407276Y-91584006D02*
X126232276Y-91584006D01*
X128307276Y-89534006D02*
X128307276Y-90484006D01*
X131069776Y-86759006D02*
X131069776Y-86084006D01*
X129407276Y-92184006D02*
X129407276Y-95334006D01*
X133732276Y-91609006D02*
X133732276Y-88734006D01*
X126232276Y-81209006D02*
X129132276Y-81209006D01*
X130519776Y-85534006D02*
X132319776Y-85534006D01*
X130532276Y-83559006D02*
X130532276Y-81784006D01*
X132057276Y-90509006D02*
X131082276Y-90509006D01*
X132882276Y-95084006D02*
X130257276Y-95084006D01*
D17*
X133200000Y-101602500D02*
X129800000Y-101602500D01*
D16*
X127319776Y-86059006D02*
X128019776Y-86059006D01*
X137757276Y-92759006D02*
X140107276Y-92759006D01*
D17*
X137825000Y-99077500D02*
X137825000Y-100977500D01*
D16*
X131782276Y-82334006D02*
X131782276Y-82534006D01*
X130807276Y-90784006D02*
X130807276Y-89559006D01*
X134282276Y-89284006D02*
X136082276Y-89284006D01*
X132869776Y-87584006D02*
X130244776Y-87584006D01*
X130244776Y-87584006D02*
X130244776Y-85259006D01*
X131769776Y-86284006D02*
X131569776Y-86284006D01*
X134282276Y-83559006D02*
X134282276Y-81784006D01*
X137744776Y-85259006D02*
X140094776Y-85259006D01*
X140957276Y-95659006D02*
X137207276Y-95659006D01*
X132319776Y-85534006D02*
X132319776Y-87034006D01*
X127057276Y-83259006D02*
X127057276Y-82034006D01*
X126782276Y-93009006D02*
X128582276Y-93009006D01*
X135807276Y-93309006D02*
X135807276Y-94259006D01*
X138307276Y-83284006D02*
X138307276Y-82059006D01*
X129969776Y-84984006D02*
X132869776Y-84984006D01*
X128844776Y-85234006D02*
X128844776Y-87284006D01*
X132057276Y-93309006D02*
X132057276Y-94259006D01*
X137482276Y-81234006D02*
X140382276Y-81234006D01*
X134819776Y-86759006D02*
X134819776Y-86084006D01*
X134269776Y-85534006D02*
X136069776Y-85534006D01*
X136357276Y-92759006D02*
X136357276Y-94809006D01*
X137207276Y-84409006D02*
X137207276Y-80959006D01*
X137207276Y-88459006D02*
X140657276Y-88459006D01*
X136069776Y-85534006D02*
X136069776Y-87034006D01*
X134557276Y-90784006D02*
X134557276Y-89559006D01*
X137482276Y-95359006D02*
X137482276Y-92484006D01*
X134832276Y-83009006D02*
X134832276Y-82334006D01*
X138569776Y-86759006D02*
X138569776Y-86084006D01*
X129407276Y-95334006D02*
X126232276Y-95334006D01*
X140657276Y-84109006D02*
X137482276Y-84109006D01*
X140107276Y-94809006D02*
X138032276Y-94809006D01*
X129132276Y-81209006D02*
X129132276Y-83809006D01*
X136344776Y-85259006D02*
X136344776Y-87309006D01*
X139557276Y-93309006D02*
X139557276Y-94259006D01*
X126219776Y-87834006D02*
X126219776Y-84959006D01*
X132594776Y-87309006D02*
X130519776Y-87309006D01*
X140107276Y-91059006D02*
X138032276Y-91059006D01*
X125957276Y-84409006D02*
X125957276Y-80934006D01*
D17*
X138225000Y-98677500D02*
X138225000Y-101327500D01*
D16*
X139557276Y-83009006D02*
X138582276Y-83009006D01*
X127044776Y-87009006D02*
X127044776Y-85784006D01*
X136082276Y-93034006D02*
X136082276Y-94534006D01*
X137207276Y-95659006D02*
X133457276Y-95659006D01*
X134544776Y-87034006D02*
X134544776Y-85809006D01*
X132057276Y-89559006D02*
X132057276Y-90509006D01*
X131782276Y-82534006D02*
X131582276Y-82534006D01*
X130807276Y-94534006D02*
X130807276Y-93309006D01*
D17*
X136475000Y-99827500D02*
X136925000Y-99827500D01*
D16*
X128307276Y-82034006D02*
X128307276Y-82984006D01*
X137482276Y-92484006D02*
X140382276Y-92484006D01*
X134832276Y-82334006D02*
X135532276Y-82334006D01*
X125957276Y-91909006D02*
X125957276Y-88434006D01*
X133457276Y-88459006D02*
X136907276Y-88459006D01*
X139832276Y-81784006D02*
X139832276Y-83284006D01*
D17*
X137475000Y-99377500D02*
X137475000Y-100627500D01*
D16*
X128582276Y-93009006D02*
X128582276Y-94509006D01*
X134007276Y-92759006D02*
X136357276Y-92759006D01*
X139832276Y-93034006D02*
X139832276Y-94534006D01*
X133719776Y-87859006D02*
X133719776Y-84984006D01*
X136907276Y-92209006D02*
X136907276Y-95359006D01*
X128582276Y-81759006D02*
X128582276Y-83259006D01*
X137757276Y-81509006D02*
X140107276Y-81509006D01*
D17*
X130300000Y-100552500D02*
X130300000Y-98652500D01*
D16*
X129707276Y-91909006D02*
X125957276Y-91909006D01*
X126782276Y-81759006D02*
X128582276Y-81759006D01*
X137207276Y-92209006D02*
X140657276Y-92209006D01*
X137482276Y-91609006D02*
X137482276Y-88734006D01*
D17*
X132650000Y-99002500D02*
X132650000Y-100652500D01*
D16*
X137482276Y-88734006D02*
X140382276Y-88734006D01*
D17*
X137275000Y-100827500D02*
X135675000Y-100827500D01*
D16*
X136632276Y-95084006D02*
X134007276Y-95084006D01*
D17*
X132800000Y-101202500D02*
X130150000Y-101202500D01*
D16*
X136344776Y-87309006D02*
X134269776Y-87309006D01*
X133457276Y-95659006D02*
X129707276Y-95659006D01*
X139832276Y-83284006D02*
X138307276Y-83284006D01*
D17*
X137925000Y-101627500D02*
X134975000Y-101627500D01*
D16*
X132044776Y-85809006D02*
X132044776Y-86759006D01*
X140094776Y-85259006D02*
X140094776Y-87309006D01*
D17*
X129800000Y-97602500D02*
X133450000Y-97602500D01*
D16*
X135532276Y-82534006D02*
X135332276Y-82534006D01*
X138307276Y-94534006D02*
X138307276Y-93309006D01*
X131782276Y-89834006D02*
X131782276Y-90034006D01*
X133444776Y-84709006D02*
X136894776Y-84709006D01*
D18*
X140957276Y-91909006D02*
X141639776Y-91226506D01*
D16*
X133732276Y-88734006D02*
X136632276Y-88734006D01*
X128582276Y-83259006D02*
X127057276Y-83259006D01*
X138032276Y-89284006D02*
X139832276Y-89284006D01*
X128857276Y-83534006D02*
X126782276Y-83534006D01*
X135807276Y-89559006D02*
X135807276Y-90509006D01*
X140382276Y-88734006D02*
X140382276Y-91334006D01*
D17*
X137075000Y-99977500D02*
X137075000Y-100277500D01*
D16*
X129407276Y-84084006D02*
X126232276Y-84084006D01*
D17*
X135475000Y-100627500D02*
X135475000Y-98977500D01*
D16*
X135532276Y-90034006D02*
X135332276Y-90034006D01*
X134832276Y-89834006D02*
X135532276Y-89834006D01*
X136632276Y-83834006D02*
X134007276Y-83834006D01*
X133157276Y-91609006D02*
X129982276Y-91609006D01*
X129982276Y-95359006D02*
X129982276Y-92484006D01*
D17*
X138575000Y-98277500D02*
X138575000Y-101777500D01*
D16*
X136619776Y-84984006D02*
X136619776Y-87584006D01*
X127044776Y-85784006D02*
X128294776Y-85784006D01*
X137757276Y-89009006D02*
X140107276Y-89009006D01*
X140369776Y-87584006D02*
X137744776Y-87584006D01*
X140957276Y-84409006D02*
X137207276Y-84409006D01*
D17*
X133450000Y-98302500D02*
X133450000Y-101352500D01*
D16*
X138032276Y-91059006D02*
X138032276Y-89284006D01*
X125944776Y-88159006D02*
X125944776Y-84684006D01*
X137194776Y-88159006D02*
X137194776Y-84709006D01*
X135807276Y-82059006D02*
X135807276Y-83009006D01*
X134557276Y-93309006D02*
X135807276Y-93309006D01*
X126782276Y-91034006D02*
X126782276Y-89259006D01*
D17*
X132250000Y-99402500D02*
X132250000Y-100252500D01*
D16*
X136894776Y-84709006D02*
X136894776Y-87859006D01*
X132607276Y-91059006D02*
X130532276Y-91059006D01*
X132882276Y-88734006D02*
X132882276Y-91334006D01*
X136907276Y-88459006D02*
X136907276Y-91609006D01*
X134007276Y-89009006D02*
X136357276Y-89009006D01*
X134007276Y-91334006D02*
X134007276Y-89009006D01*
X140657276Y-88459006D02*
X140657276Y-91609006D01*
D17*
X139600000Y-100777500D02*
X141090000Y-100777500D01*
D16*
X129707276Y-88459006D02*
X133157276Y-88459006D01*
D18*
X140957276Y-84409006D02*
X141639776Y-83726506D01*
D16*
X131069776Y-86084006D02*
X131769776Y-86084006D01*
X128294776Y-85784006D02*
X128294776Y-86734006D01*
X136907276Y-80959006D02*
X136907276Y-84109006D01*
X128032276Y-82509006D02*
X127832276Y-82509006D01*
X134557276Y-83284006D02*
X134557276Y-82059006D01*
D17*
X129125000Y-101727500D02*
X129125000Y-99902500D01*
D16*
X128582276Y-94509006D02*
X127057276Y-94509006D01*
X133457276Y-80959006D02*
X136907276Y-80959006D01*
X126769776Y-87284006D02*
X126769776Y-85509006D01*
X135532276Y-89834006D02*
X135532276Y-90034006D01*
X130532276Y-93034006D02*
X132332276Y-93034006D01*
X140107276Y-81509006D02*
X140107276Y-83559006D01*
X128844776Y-87284006D02*
X126769776Y-87284006D01*
D17*
X129550000Y-101352500D02*
X129550000Y-97852500D01*
D16*
X137207276Y-80959006D02*
X140657276Y-80959006D01*
X129394776Y-84684006D02*
X129394776Y-87834006D01*
X132882276Y-81234006D02*
X132882276Y-83834006D01*
X132607276Y-81509006D02*
X132607276Y-83559006D01*
X129707276Y-84409006D02*
X129707276Y-80959006D01*
X126232276Y-95334006D02*
X126232276Y-92459006D01*
D17*
X136925000Y-99827500D02*
G75*
G02*
X137075000Y-99977500I0J-150000D01*
G01*
X134275000Y-97927500D02*
G75*
G02*
X134575000Y-97627500I300000J0D01*
G01*
X130650000Y-99002500D02*
G75*
G02*
X130850000Y-98802500I200000J0D01*
G01*
X137075000Y-100277500D02*
G75*
G02*
X136925000Y-100427500I-150000J0D01*
G01*
X130150000Y-101202500D02*
G75*
G02*
X129900000Y-100952500I0J250000D01*
G01*
X129125000Y-99902500D02*
G75*
G03*
X128875000Y-99652500I-250000J0D01*
G01*
X133450000Y-101352500D02*
G75*
G02*
X133200000Y-101602500I-250000J0D01*
G01*
X130300000Y-98652500D02*
G75*
G02*
X130550000Y-98402500I250000J0D01*
G01*
X134975000Y-101627500D02*
G75*
G02*
X134675000Y-101327500I0J300000D01*
G01*
X135875000Y-99377500D02*
G75*
G02*
X136025000Y-99227500I150000J0D01*
G01*
X132050000Y-99202500D02*
G75*
G02*
X132250000Y-99402500I0J-200000D01*
G01*
X129900000Y-98302500D02*
G75*
G02*
X130200000Y-98002500I300000J0D01*
G01*
X136075000Y-100427500D02*
G75*
G02*
X135875000Y-100227500I0J200000D01*
G01*
X129800000Y-101602500D02*
G75*
G02*
X129550000Y-101352500I0J250000D01*
G01*
X135475000Y-98977500D02*
G75*
G02*
X135625000Y-98827500I150000J0D01*
G01*
X133850000Y-101702500D02*
G75*
G02*
X133550000Y-102002500I-300000J0D01*
G01*
X137575000Y-98827500D02*
G75*
G02*
X137825000Y-99077500I0J-250000D01*
G01*
X137975000Y-98427500D02*
G75*
G02*
X138225000Y-98677500I0J-250000D01*
G01*
X133450000Y-97602500D02*
G75*
G02*
X133850000Y-98002500I0J-400000D01*
G01*
X137325000Y-99227500D02*
G75*
G02*
X137475000Y-99377500I0J-150000D01*
G01*
X138325000Y-98027500D02*
G75*
G02*
X138575000Y-98277500I0J-250000D01*
G01*
X135675000Y-100827500D02*
G75*
G02*
X135475000Y-100627500I0J200000D01*
G01*
X134675000Y-102027500D02*
G75*
G02*
X134275000Y-101627500I0J400000D01*
G01*
X133050000Y-100952500D02*
G75*
G02*
X132800000Y-101202500I-250000J0D01*
G01*
X131200000Y-99802500D02*
G75*
G02*
X131050000Y-99652500I0J150000D01*
G01*
X135325000Y-101227500D02*
G75*
G02*
X135075000Y-100977500I0J250000D01*
G01*
X130550000Y-100802500D02*
G75*
G02*
X130300000Y-100552500I0J250000D01*
G01*
X131050000Y-99352500D02*
G75*
G02*
X131200000Y-99202500I150000J0D01*
G01*
X132800000Y-98402500D02*
G75*
G02*
X133050000Y-98652500I0J-250000D01*
G01*
X132250000Y-100252500D02*
G75*
G02*
X132100000Y-100402500I-150000J0D01*
G01*
X135075000Y-98677500D02*
G75*
G02*
X135325000Y-98427500I250000J0D01*
G01*
X132650000Y-100652500D02*
G75*
G02*
X132500000Y-100802500I-150000J0D01*
G01*
X137475000Y-100627500D02*
G75*
G02*
X137275000Y-100827500I-200000J0D01*
G01*
X132450000Y-98802500D02*
G75*
G02*
X132650000Y-99002500I0J-200000D01*
G01*
X129400000Y-102002500D02*
G75*
G02*
X129125000Y-101727500I0J275000D01*
G01*
X138575000Y-101777500D02*
G75*
G02*
X138325000Y-102027500I-250000J0D01*
G01*
X138725000Y-97627500D02*
G75*
G02*
X138975000Y-97877500I0J-250000D01*
G01*
X129550000Y-97852500D02*
G75*
G02*
X129800000Y-97602500I250000J0D01*
G01*
X130800000Y-100402500D02*
G75*
G02*
X130650000Y-100252500I0J150000D01*
G01*
X138225000Y-101327500D02*
G75*
G02*
X137925000Y-101627500I-300000J0D01*
G01*
X137825000Y-100977500D02*
G75*
G02*
X137575000Y-101227500I-250000J0D01*
G01*
X134675000Y-98277500D02*
G75*
G02*
X134925000Y-98027500I250000J0D01*
G01*
X133150000Y-98002500D02*
G75*
G02*
X133450000Y-98302500I0J-300000D01*
G01*
%TO.N,GND*%
X116677561Y-99597500D02*
X116675641Y-99595580D01*
X121500000Y-99597500D02*
X116677561Y-99597500D01*
%TO.N,Net-(D1C-K)*%
X130566882Y-103631331D02*
X132216882Y-103631331D01*
X132516882Y-106381331D02*
X129866882Y-106381331D01*
X135629900Y-104502200D02*
X135629900Y-104165013D01*
X138704900Y-105232400D02*
X139340000Y-105867500D01*
X137654900Y-106452200D02*
X134704900Y-106452200D01*
X138704900Y-102652200D02*
X138704900Y-105232400D01*
X137204900Y-104202200D02*
X137204900Y-105452200D01*
X129566882Y-102431331D02*
X133266882Y-102431331D01*
X135754900Y-104052200D02*
X137054900Y-104052200D01*
X134804900Y-105802200D02*
X134804900Y-103502200D01*
X131400288Y-104527500D02*
X131400000Y-104526805D01*
X135628143Y-104165013D02*
X135628143Y-104117504D01*
X132916882Y-106731331D02*
X129416882Y-106731331D01*
X131816882Y-105631331D02*
X130566882Y-105631331D01*
X129966882Y-105731331D02*
X129966882Y-103481331D01*
X137554900Y-103902200D02*
X137554900Y-105802200D01*
X129866882Y-102831331D02*
X132916882Y-102831331D01*
X135629900Y-104165013D02*
X135628143Y-104165013D01*
X134004900Y-106452200D02*
X134004900Y-102752200D01*
X133316882Y-107131331D02*
X128338831Y-107131331D01*
X129566882Y-106081331D02*
X129566882Y-103131331D01*
X132116882Y-105981331D02*
X130216882Y-105981331D01*
X136098806Y-104635676D02*
X135763376Y-104635676D01*
X139340000Y-105867500D02*
X141075000Y-105867500D01*
X133566882Y-102731331D02*
X133566882Y-106881331D01*
X130216882Y-103231331D02*
X132516882Y-103231331D01*
X131600000Y-104031331D02*
X131816882Y-104031331D01*
X138054900Y-106852200D02*
X134404900Y-106852200D01*
X135354900Y-103652200D02*
X137304900Y-103652200D01*
X135054900Y-103252200D02*
X137704900Y-103252200D01*
X131400000Y-104526805D02*
X131400000Y-104231331D01*
X138304900Y-103102200D02*
X138304900Y-106602200D01*
X137004900Y-105652200D02*
X135404900Y-105652200D01*
X135204900Y-105452200D02*
X135204900Y-103802200D01*
X132766882Y-103481331D02*
X132766882Y-106131331D01*
X130366882Y-105431331D02*
X130366882Y-103831331D01*
X136098111Y-104635964D02*
X136098806Y-104635676D01*
X131966882Y-104181331D02*
X131966882Y-105481331D01*
X132366882Y-103781331D02*
X132366882Y-105731331D01*
X128338831Y-107131331D02*
X127075000Y-105867500D01*
X137304900Y-106052200D02*
X135054900Y-106052200D01*
X137954900Y-103502200D02*
X137954900Y-106152200D01*
X133166882Y-103081331D02*
X133166882Y-106481331D01*
X129166882Y-106481331D02*
X129166882Y-102831331D01*
X134304900Y-102452200D02*
X138504900Y-102452200D01*
X134404900Y-106152200D02*
X134404900Y-103102200D01*
X134654900Y-102852200D02*
X138054900Y-102852200D01*
X134004900Y-102752200D02*
G75*
G02*
X134304900Y-102452200I300000J0D01*
G01*
X137554900Y-105802200D02*
G75*
G02*
X137304900Y-106052200I-250000J0D01*
G01*
X137204900Y-105452200D02*
G75*
G02*
X137004900Y-105652200I-200000J0D01*
G01*
X135404900Y-105652200D02*
G75*
G02*
X135204900Y-105452200I0J200000D01*
G01*
X133566882Y-106881331D02*
G75*
G02*
X133316882Y-107131282I-249982J31D01*
G01*
X129866882Y-106381331D02*
G75*
G02*
X129566869Y-106081331I18J300031D01*
G01*
X134404900Y-106852200D02*
G75*
G02*
X134004900Y-106452200I0J400000D01*
G01*
X131400000Y-104231331D02*
G75*
G02*
X131600000Y-104031300I200000J31D01*
G01*
X129416882Y-106731331D02*
G75*
G02*
X129166869Y-106481331I18J250031D01*
G01*
X135054900Y-106052200D02*
G75*
G02*
X134804900Y-105802200I0J250000D01*
G01*
X137304900Y-103652200D02*
G75*
G02*
X137554900Y-103902200I0J-250000D01*
G01*
X134404900Y-103102200D02*
G75*
G02*
X134654900Y-102852200I250000J0D01*
G01*
X132916882Y-102831331D02*
G75*
G02*
X133166869Y-103081331I18J-249969D01*
G01*
X134704900Y-106452200D02*
G75*
G02*
X134404900Y-106152200I0J300000D01*
G01*
X138504900Y-102452200D02*
G75*
G02*
X138704900Y-102652200I0J-200000D01*
G01*
X135763376Y-104635676D02*
G75*
G02*
X135629924Y-104502200I24J133476D01*
G01*
X132216882Y-103631331D02*
G75*
G02*
X132366869Y-103781331I18J-149969D01*
G01*
X135628143Y-104117504D02*
G75*
G02*
X135754899Y-104052157I129557J-95696D01*
G01*
X132366882Y-105731331D02*
G75*
G02*
X132116882Y-105981282I-249982J31D01*
G01*
X131816882Y-104031331D02*
G75*
G02*
X131966869Y-104181331I18J-149969D01*
G01*
X137054900Y-104052200D02*
G75*
G02*
X137204900Y-104202200I0J-150000D01*
G01*
X130216882Y-105981331D02*
G75*
G02*
X129966869Y-105731331I18J250031D01*
G01*
X131966882Y-105481331D02*
G75*
G02*
X131816882Y-105631282I-149982J31D01*
G01*
X132516882Y-103231331D02*
G75*
G02*
X132766869Y-103481331I18J-249969D01*
G01*
X133166882Y-106481331D02*
G75*
G02*
X132916882Y-106731282I-249982J31D01*
G01*
X130366882Y-103831331D02*
G75*
G02*
X130566882Y-103631282I200018J31D01*
G01*
X130566882Y-105631331D02*
G75*
G02*
X130366869Y-105431331I18J200031D01*
G01*
X137954900Y-106152200D02*
G75*
G02*
X137654900Y-106452200I-300000J0D01*
G01*
X133266882Y-102431331D02*
G75*
G02*
X133566869Y-102731331I18J-299969D01*
G01*
X132766882Y-106131331D02*
G75*
G02*
X132516882Y-106381282I-249982J31D01*
G01*
X129566882Y-103131331D02*
G75*
G02*
X129866882Y-102831282I300018J31D01*
G01*
X138304900Y-106602200D02*
G75*
G02*
X138054900Y-106852200I-250000J0D01*
G01*
X135204900Y-103802200D02*
G75*
G02*
X135354900Y-103652200I150000J0D01*
G01*
X129966882Y-103481331D02*
G75*
G02*
X130216882Y-103231282I250018J31D01*
G01*
X129166882Y-102831331D02*
G75*
G02*
X129566882Y-102431282I400018J31D01*
G01*
X138054900Y-102852200D02*
G75*
G02*
X138304900Y-103102200I0J-250000D01*
G01*
X134804900Y-103502200D02*
G75*
G02*
X135054900Y-103252200I250000J0D01*
G01*
X137704900Y-103252200D02*
G75*
G02*
X137954900Y-103502200I0J-250000D01*
G01*
D10*
%TO.N,Net-(D1B-K)*%
X99114434Y-103757989D02*
X99075624Y-103902831D01*
X101854435Y-107984419D02*
X101854435Y-108414385D01*
X101733209Y-105513841D02*
X101350722Y-105411354D01*
X106238404Y-99212069D02*
X106132373Y-99106038D01*
X106475137Y-107574809D02*
X106631021Y-107664809D01*
X106842246Y-104518957D02*
X106944733Y-104901444D01*
X101159545Y-102589048D02*
X101057058Y-102206561D01*
X106755643Y-104468957D02*
X106842246Y-104518957D01*
X106631021Y-107664809D02*
X106775862Y-107625998D01*
X101819812Y-105463841D02*
X101733209Y-105513841D01*
X99075624Y-103902831D02*
X98703262Y-104117814D01*
X101526654Y-99533196D02*
X101370770Y-99443196D01*
X104578404Y-106388388D02*
X104578404Y-106488388D01*
X106245910Y-101557433D02*
X106628397Y-101659920D01*
X103408404Y-100602069D02*
X103688404Y-100322069D01*
X101246148Y-102639048D02*
X101159545Y-102589048D01*
X101225929Y-99482006D02*
X100853567Y-99267023D01*
X101748404Y-107698388D02*
X101748404Y-107878388D01*
X108903495Y-103168444D02*
X109275857Y-102953461D01*
X101370770Y-99443196D02*
X101225929Y-99482006D01*
X106132373Y-99106038D02*
X106132373Y-98676072D01*
X104578404Y-106488388D02*
X104298404Y-106768388D01*
X99270318Y-103667989D02*
X99114434Y-103757989D01*
X106238404Y-99392069D02*
X106238404Y-99212069D01*
X106159307Y-101607433D02*
X106245910Y-101557433D01*
X108864685Y-103313285D02*
X108903495Y-103168444D01*
X103408404Y-100702069D02*
X103408404Y-100602069D01*
X106775862Y-107625998D02*
X107148224Y-107840981D01*
X108708801Y-103403285D02*
X108864685Y-103313285D01*
X101748404Y-107878388D02*
X101854435Y-107984419D01*
%TO.N,unconnected-(U2-SENSEU-Pad4)*%
X109161157Y-90885424D02*
X109261158Y-90885424D01*
X108237995Y-87625000D02*
X108235259Y-87622264D01*
X115248979Y-90869364D02*
X115348980Y-90869364D01*
X110068998Y-85145573D02*
X110782158Y-85858733D01*
X102154084Y-87615000D02*
X102135000Y-87615000D01*
X109856260Y-82595573D02*
X109756259Y-82595573D01*
X120416877Y-87625000D02*
X120398081Y-87606204D01*
X109506260Y-85145573D02*
X110068998Y-85145573D01*
X103058697Y-90856875D02*
X103158698Y-90856875D01*
X120485000Y-87693123D02*
X120485000Y-87625000D01*
X103408697Y-88306875D02*
X102845959Y-88306875D01*
X121673979Y-88319364D02*
X121111241Y-88319364D01*
X116143976Y-85145591D02*
X116857136Y-85858751D01*
X122033658Y-82581841D02*
X121933657Y-82581841D01*
X97667752Y-90886405D02*
X97567751Y-90886405D01*
X115931238Y-82595591D02*
X115831237Y-82595591D01*
X97880998Y-88336405D02*
X98596450Y-87620953D01*
X121111241Y-88319364D02*
X120485000Y-87693123D01*
X121323979Y-90869364D02*
X121423980Y-90869364D01*
X115598979Y-88319364D02*
X115036241Y-88319364D01*
X115581238Y-85145591D02*
X116143976Y-85145591D01*
X108948419Y-88335424D02*
X108295000Y-87682005D01*
X102135000Y-87615000D02*
X102135000Y-87595916D01*
X97317752Y-88336405D02*
X97880998Y-88336405D01*
X108295000Y-87682005D02*
X108295000Y-87625000D01*
X109511157Y-88335424D02*
X108948419Y-88335424D01*
X114435000Y-87655000D02*
X114371877Y-87655000D01*
X102135000Y-87595916D02*
X102132799Y-87593715D01*
X115036241Y-88319364D02*
X114435000Y-87718123D01*
X102845959Y-88306875D02*
X102154084Y-87615000D01*
X114371877Y-87655000D02*
X114323081Y-87606204D01*
X122246396Y-85131841D02*
X122959556Y-85845001D01*
X108295000Y-87625000D02*
X108237995Y-87625000D01*
X114435000Y-87718123D02*
X114435000Y-87655000D01*
X121683658Y-85131841D02*
X122246396Y-85131841D01*
X120485000Y-87625000D02*
X120416877Y-87625000D01*
X108911157Y-91135424D02*
G75*
G02*
X109161157Y-90885357I250043J24D01*
G01*
X121423980Y-90869364D02*
G75*
G02*
X121674036Y-91119365I20J-250036D01*
G01*
X122283658Y-82331841D02*
G75*
G02*
X122033658Y-82581758I-249958J41D01*
G01*
X115348980Y-90869364D02*
G75*
G02*
X115599036Y-91119365I20J-250036D01*
G01*
X97917752Y-91136405D02*
G75*
G03*
X97667752Y-90886448I-249952J5D01*
G01*
X103158698Y-90856875D02*
G75*
G02*
X103408725Y-91106876I2J-250025D01*
G01*
X110106260Y-82345573D02*
G75*
G02*
X109856260Y-82595560I-249960J-27D01*
G01*
X116181238Y-82345591D02*
G75*
G02*
X115931238Y-82595638I-250038J-9D01*
G01*
X109261158Y-90885424D02*
G75*
G02*
X109511176Y-91135425I42J-249976D01*
G01*
X102808697Y-91106875D02*
G75*
G02*
X103058697Y-90856897I250003J-25D01*
G01*
X115831237Y-82595591D02*
G75*
G02*
X115581209Y-82345590I-37J249991D01*
G01*
X114998979Y-91119364D02*
G75*
G02*
X115248979Y-90869379I250021J-36D01*
G01*
X121073979Y-91119364D02*
G75*
G02*
X121323979Y-90869379I250021J-36D01*
G01*
X97567751Y-90886405D02*
G75*
G03*
X97317805Y-91136406I49J-249995D01*
G01*
X121933657Y-82581841D02*
G75*
G02*
X121683659Y-82331840I43J250041D01*
G01*
X109756259Y-82595573D02*
G75*
G02*
X109506327Y-82345572I41J249973D01*
G01*
D17*
%TO.N,+5V*%
X121482500Y-105787500D02*
X121532500Y-105837500D01*
X119400000Y-105787500D02*
X121482500Y-105787500D01*
%TD*%
M02*
