%TF.GenerationSoftware,KiCad,Pcbnew,(6.0.5)*%
%TF.CreationDate,2023-08-07T17:40:20+03:00*%
%TF.ProjectId,JLC3,4a4c4333-2e6b-4696-9361-645f70636258,rev?*%
%TF.SameCoordinates,Original*%
%TF.FileFunction,Copper,L1,Top*%
%TF.FilePolarity,Positive*%
%FSLAX46Y46*%
G04 Gerber Fmt 4.6, Leading zero omitted, Abs format (unit mm)*
G04 Created by KiCad (PCBNEW (6.0.5)) date 2023-08-07 17:40:20*
%MOMM*%
%LPD*%
G01*
G04 APERTURE LIST*
G04 Aperture macros list*
%AMRoundRect*
0 Rectangle with rounded corners*
0 $1 Rounding radius*
0 $2 $3 $4 $5 $6 $7 $8 $9 X,Y pos of 4 corners*
0 Add a 4 corners polygon primitive as box body*
4,1,4,$2,$3,$4,$5,$6,$7,$8,$9,$2,$3,0*
0 Add four circle primitives for the rounded corners*
1,1,$1+$1,$2,$3*
1,1,$1+$1,$4,$5*
1,1,$1+$1,$6,$7*
1,1,$1+$1,$8,$9*
0 Add four rect primitives between the rounded corners*
20,1,$1+$1,$2,$3,$4,$5,0*
20,1,$1+$1,$4,$5,$6,$7,0*
20,1,$1+$1,$6,$7,$8,$9,0*
20,1,$1+$1,$8,$9,$2,$3,0*%
G04 Aperture macros list end*
%TA.AperFunction,ComponentPad*%
%ADD10R,1.700000X1.700000*%
%TD*%
%TA.AperFunction,ComponentPad*%
%ADD11O,1.700000X1.700000*%
%TD*%
%TA.AperFunction,ComponentPad*%
%ADD12C,2.000000*%
%TD*%
%TA.AperFunction,ComponentPad*%
%ADD13R,1.600000X2.400000*%
%TD*%
%TA.AperFunction,ComponentPad*%
%ADD14O,1.600000X2.400000*%
%TD*%
%TA.AperFunction,ComponentPad*%
%ADD15C,1.200000*%
%TD*%
%TA.AperFunction,ComponentPad*%
%ADD16C,1.600000*%
%TD*%
%TA.AperFunction,ComponentPad*%
%ADD17O,1.600000X1.600000*%
%TD*%
%TA.AperFunction,ComponentPad*%
%ADD18R,1.800000X1.800000*%
%TD*%
%TA.AperFunction,ComponentPad*%
%ADD19C,1.800000*%
%TD*%
%TA.AperFunction,SMDPad,CuDef*%
%ADD20RoundRect,0.250000X-0.312500X-0.625000X0.312500X-0.625000X0.312500X0.625000X-0.312500X0.625000X0*%
%TD*%
%TA.AperFunction,ComponentPad*%
%ADD21O,2.000000X2.000000*%
%TD*%
%TA.AperFunction,ComponentPad*%
%ADD22O,2.400000X1.600000*%
%TD*%
%TA.AperFunction,ComponentPad*%
%ADD23R,2.400000X1.600000*%
%TD*%
%TA.AperFunction,ComponentPad*%
%ADD24C,1.560000*%
%TD*%
%TA.AperFunction,ComponentPad*%
%ADD25R,1.560000X1.560000*%
%TD*%
%TA.AperFunction,SMDPad,CuDef*%
%ADD26R,1.550000X2.200000*%
%TD*%
%TA.AperFunction,SMDPad,CuDef*%
%ADD27R,2.500000X2.200000*%
%TD*%
%TA.AperFunction,ComponentPad*%
%ADD28R,1.200000X1.200000*%
%TD*%
%TA.AperFunction,SMDPad,CuDef*%
%ADD29R,0.400000X1.900000*%
%TD*%
%TA.AperFunction,SMDPad,CuDef*%
%ADD30RoundRect,0.250000X0.475000X-0.250000X0.475000X0.250000X-0.475000X0.250000X-0.475000X-0.250000X0*%
%TD*%
%TA.AperFunction,SMDPad,CuDef*%
%ADD31R,1.000000X1.500000*%
%TD*%
%TA.AperFunction,SMDPad,CuDef*%
%ADD32R,1.000000X1.800000*%
%TD*%
%TA.AperFunction,SMDPad,CuDef*%
%ADD33R,2.200000X3.700000*%
%TD*%
%TA.AperFunction,ComponentPad*%
%ADD34R,2.000000X2.000000*%
%TD*%
%TA.AperFunction,SMDPad,CuDef*%
%ADD35R,1.422400X0.508000*%
%TD*%
%TA.AperFunction,SMDPad,CuDef*%
%ADD36R,0.508000X1.422400*%
%TD*%
%TA.AperFunction,SMDPad,CuDef*%
%ADD37R,2.200000X2.200000*%
%TD*%
%TA.AperFunction,SMDPad,CuDef*%
%ADD38R,2.200000X1.250000*%
%TD*%
%TA.AperFunction,SMDPad,CuDef*%
%ADD39RoundRect,0.250000X-0.250000X-0.475000X0.250000X-0.475000X0.250000X0.475000X-0.250000X0.475000X0*%
%TD*%
%TA.AperFunction,SMDPad,CuDef*%
%ADD40RoundRect,0.250000X0.312500X0.625000X-0.312500X0.625000X-0.312500X-0.625000X0.312500X-0.625000X0*%
%TD*%
%TA.AperFunction,SMDPad,CuDef*%
%ADD41R,2.200000X1.550000*%
%TD*%
%TA.AperFunction,SMDPad,CuDef*%
%ADD42R,2.200000X2.500000*%
%TD*%
%TA.AperFunction,ComponentPad*%
%ADD43R,1.440000X2.000000*%
%TD*%
%TA.AperFunction,ComponentPad*%
%ADD44O,1.440000X2.000000*%
%TD*%
%TA.AperFunction,SMDPad,CuDef*%
%ADD45R,1.250000X2.200000*%
%TD*%
%TA.AperFunction,ComponentPad*%
%ADD46O,3.240000X2.720000*%
%TD*%
%TA.AperFunction,SMDPad,CuDef*%
%ADD47RoundRect,0.250000X0.625000X-0.312500X0.625000X0.312500X-0.625000X0.312500X-0.625000X-0.312500X0*%
%TD*%
%TA.AperFunction,ViaPad*%
%ADD48C,0.800000*%
%TD*%
%TA.AperFunction,ViaPad*%
%ADD49C,0.600000*%
%TD*%
%TA.AperFunction,Conductor*%
%ADD50C,1.000000*%
%TD*%
%TA.AperFunction,Conductor*%
%ADD51C,0.500000*%
%TD*%
%TA.AperFunction,Conductor*%
%ADD52C,0.300000*%
%TD*%
%TA.AperFunction,Conductor*%
%ADD53C,0.400000*%
%TD*%
%TA.AperFunction,Conductor*%
%ADD54C,0.390000*%
%TD*%
G04 APERTURE END LIST*
D10*
%TO.P,REF\u002A\u002A,1*%
%TO.N,N/C*%
X125280000Y-127859999D03*
D11*
%TO.P,REF\u002A\u002A,2*%
X122740000Y-127859999D03*
%TO.P,REF\u002A\u002A,3*%
X125280000Y-125319999D03*
%TO.P,REF\u002A\u002A,4*%
X122740000Y-125319999D03*
%TO.P,REF\u002A\u002A,5*%
X125280000Y-122779999D03*
%TO.P,REF\u002A\u002A,6*%
X122740000Y-122779999D03*
%TD*%
D12*
%TO.P,REF\u002A\u002A,1*%
%TO.N,N/C*%
X132870000Y-98989999D03*
X132870000Y-105489999D03*
%TO.P,REF\u002A\u002A,2*%
X128370000Y-98989999D03*
X128370000Y-105489999D03*
%TD*%
D13*
%TO.P,NE555,1*%
%TO.N,N/C*%
X140020000Y-107329999D03*
D14*
%TO.P,NE555,2*%
X142560000Y-107329999D03*
%TO.P,NE555,3*%
X145100000Y-107329999D03*
%TO.P,NE555,4*%
X147640000Y-107329999D03*
%TO.P,NE555,5*%
X147640000Y-99709999D03*
%TO.P,NE555,6*%
X145100000Y-99709999D03*
%TO.P,NE555,7*%
X142560000Y-99709999D03*
%TO.P,NE555,8*%
X140020000Y-99709999D03*
%TD*%
D15*
%TO.P,100nF,1*%
%TO.N,N/C*%
X144920000Y-94529999D03*
%TO.P,100nF,2*%
X144920000Y-97029999D03*
%TD*%
D16*
%TO.P,1M,1*%
%TO.N,N/C*%
X136520000Y-97049999D03*
D17*
%TO.P,1M,2*%
X136520000Y-107209999D03*
%TD*%
D15*
%TO.P,100nF,1*%
%TO.N,N/C*%
X147670000Y-94529999D03*
%TO.P,100nF,2*%
X147670000Y-97029999D03*
%TD*%
D18*
%TO.P,ON,1*%
%TO.N,N/C*%
X120890000Y-117134999D03*
D19*
%TO.P,ON,2*%
X123430000Y-117134999D03*
%TD*%
D18*
%TO.P,ON,1*%
%TO.N,N/C*%
X120915000Y-110509999D03*
D19*
%TO.P,ON,2*%
X123455000Y-110509999D03*
%TD*%
D18*
%TO.P,MODE,1*%
%TO.N,N/C*%
X136140000Y-111359999D03*
D19*
%TO.P,MODE,2*%
X136140000Y-113859999D03*
%TO.P,MODE,3*%
X136140000Y-116359999D03*
%TO.P,MODE,4*%
X130140000Y-111359999D03*
%TO.P,MODE,5*%
X130140000Y-113859999D03*
%TO.P,MODE,6*%
X130140000Y-116359999D03*
%TD*%
D17*
%TO.P,220R,2*%
%TO.N,N/C*%
X126790000Y-108754999D03*
D16*
%TO.P,220R,1*%
X126790000Y-118914999D03*
%TD*%
D20*
%TO.P,100nF,1*%
%TO.N,N/C*%
X69507500Y-82722500D03*
%TO.P,100nF,2*%
X72432500Y-82722500D03*
%TD*%
D21*
%TO.P,J2,1,Pin_1*%
%TO.N,N/C*%
X143169294Y-62558292D03*
%TO.P,J2,2,Pin_2*%
X145709294Y-62558292D03*
%TO.P,J2,3,Pin_3*%
X143169294Y-65098292D03*
%TO.P,J2,4,Pin_4*%
X145709294Y-65098292D03*
%TO.P,J2,5,Pin_5*%
X143169294Y-67638292D03*
%TO.P,J2,6,Pin_6*%
X145709294Y-67638292D03*
%TD*%
%TO.P,J4,1,Pin_1*%
%TO.N,N/C*%
X118247893Y-39282893D03*
%TO.P,J4,2,Pin_2*%
X118247893Y-36742893D03*
%TD*%
%TO.P,J3,1,Pin_1*%
%TO.N,N/C*%
X118247893Y-45432893D03*
%TO.P,J3,2,Pin_2*%
X118247893Y-42892893D03*
%TD*%
D10*
%TO.P,REF\u002A\u002A,1*%
%TO.N,N/C*%
X95620000Y-33715000D03*
D11*
%TO.P,REF\u002A\u002A,2*%
X98160000Y-33715000D03*
%TO.P,REF\u002A\u002A,3*%
X100700000Y-33715000D03*
%TO.P,REF\u002A\u002A,4*%
X103240000Y-33715000D03*
%TD*%
D13*
%TO.P,NE555,1*%
%TO.N,N/C*%
X140010000Y-91719999D03*
D14*
%TO.P,NE555,2*%
X142550000Y-91719999D03*
%TO.P,NE555,3*%
X145090000Y-91719999D03*
%TO.P,NE555,4*%
X147630000Y-91719999D03*
%TO.P,NE555,5*%
X147630000Y-84099999D03*
%TO.P,NE555,6*%
X145090000Y-84099999D03*
%TO.P,NE555,7*%
X142550000Y-84099999D03*
%TO.P,NE555,8*%
X140010000Y-84099999D03*
%TD*%
D22*
%TO.P,74LS574,20*%
%TO.N,N/C*%
X72875000Y-85830000D03*
%TO.P,74LS574,19*%
X72875000Y-88370000D03*
%TO.P,74LS574,18*%
X72875000Y-90910000D03*
%TO.P,74LS574,17*%
X72875000Y-93450000D03*
%TO.P,74LS574,16*%
X72875000Y-95990000D03*
%TO.P,74LS574,15*%
X72875000Y-98530000D03*
%TO.P,74LS574,14*%
X72875000Y-101070000D03*
%TO.P,74LS574,13*%
X72875000Y-103610000D03*
%TO.P,74LS574,12*%
X72875000Y-106150000D03*
%TO.P,74LS574,11*%
X72875000Y-108690000D03*
%TO.P,74LS574,10*%
X65255000Y-108690000D03*
%TO.P,74LS574,9*%
X65255000Y-106150000D03*
%TO.P,74LS574,8*%
X65255000Y-103610000D03*
%TO.P,74LS574,7*%
X65255000Y-101070000D03*
%TO.P,74LS574,6*%
X65255000Y-98530000D03*
%TO.P,74LS574,5*%
X65255000Y-95990000D03*
%TO.P,74LS574,4*%
X65255000Y-93450000D03*
%TO.P,74LS574,3*%
X65255000Y-90910000D03*
%TO.P,74LS574,2*%
X65255000Y-88370000D03*
D23*
%TO.P,74LS574,1*%
X65255000Y-85830000D03*
%TD*%
D14*
%TO.P,74LS138,16*%
%TO.N,N/C*%
X98357143Y-121145455D03*
%TO.P,74LS138,15*%
X100897143Y-121145455D03*
%TO.P,74LS138,14*%
X103437143Y-121145455D03*
%TO.P,74LS138,13*%
X105977143Y-121145455D03*
%TO.P,74LS138,12*%
X108517143Y-121145455D03*
%TO.P,74LS138,11*%
X111057143Y-121145455D03*
%TO.P,74LS138,10*%
X113597143Y-121145455D03*
%TO.P,74LS138,9*%
X116137143Y-121145455D03*
%TO.P,74LS138,8*%
X116137143Y-128765455D03*
%TO.P,74LS138,7*%
X113597143Y-128765455D03*
%TO.P,74LS138,6*%
X111057143Y-128765455D03*
%TO.P,74LS138,5*%
X108517143Y-128765455D03*
%TO.P,74LS138,4*%
X105977143Y-128765455D03*
%TO.P,74LS138,3*%
X103437143Y-128765455D03*
%TO.P,74LS138,2*%
X100897143Y-128765455D03*
D13*
%TO.P,74LS138,1*%
X98357143Y-128765455D03*
%TD*%
%TO.P,74LS00,1*%
%TO.N,N/C*%
X130195000Y-128529999D03*
D14*
%TO.P,74LS00,2*%
X132735000Y-128529999D03*
%TO.P,74LS00,3*%
X135275000Y-128529999D03*
%TO.P,74LS00,4*%
X137815000Y-128529999D03*
%TO.P,74LS00,5*%
X140355000Y-128529999D03*
%TO.P,74LS00,6*%
X142895000Y-128529999D03*
%TO.P,74LS00,7*%
X145435000Y-128529999D03*
%TO.P,74LS00,8*%
X145435000Y-120909999D03*
%TO.P,74LS00,9*%
X142895000Y-120909999D03*
%TO.P,74LS00,10*%
X140355000Y-120909999D03*
%TO.P,74LS00,11*%
X137815000Y-120909999D03*
%TO.P,74LS00,12*%
X135275000Y-120909999D03*
%TO.P,74LS00,13*%
X132735000Y-120909999D03*
%TO.P,74LS00,14*%
X130195000Y-120909999D03*
%TD*%
D20*
%TO.P,1K,2*%
%TO.N,N/C*%
X69009643Y-127974546D03*
%TO.P,1K,1*%
X66084643Y-127974546D03*
%TD*%
D22*
%TO.P,28C64,28*%
%TO.N,N/C*%
X99145000Y-83285000D03*
%TO.P,28C64,27*%
X99145000Y-85825000D03*
%TO.P,28C64,26*%
X99145000Y-88365000D03*
%TO.P,28C64,25*%
X99145000Y-90905000D03*
%TO.P,28C64,24*%
X99145000Y-93445000D03*
%TO.P,28C64,23*%
X99145000Y-95985000D03*
%TO.P,28C64,22*%
X99145000Y-98525000D03*
%TO.P,28C64,21*%
X99145000Y-101065000D03*
%TO.P,28C64,20*%
X99145000Y-103605000D03*
%TO.P,28C64,19*%
X99145000Y-106145000D03*
%TO.P,28C64,18*%
X99145000Y-108685000D03*
%TO.P,28C64,17*%
X99145000Y-111225000D03*
%TO.P,28C64,16*%
X99145000Y-113765000D03*
%TO.P,28C64,15*%
X99145000Y-116305000D03*
%TO.P,28C64,14*%
X83905000Y-116305000D03*
%TO.P,28C64,13*%
X83905000Y-113765000D03*
%TO.P,28C64,12*%
X83905000Y-111225000D03*
%TO.P,28C64,11*%
X83905000Y-108685000D03*
%TO.P,28C64,10*%
X83905000Y-106145000D03*
%TO.P,28C64,9*%
X83905000Y-103605000D03*
%TO.P,28C64,8*%
X83905000Y-101065000D03*
%TO.P,28C64,7*%
X83905000Y-98525000D03*
%TO.P,28C64,6*%
X83905000Y-95985000D03*
%TO.P,28C64,5*%
X83905000Y-93445000D03*
%TO.P,28C64,4*%
X83905000Y-90905000D03*
%TO.P,28C64,3*%
X83905000Y-88365000D03*
%TO.P,28C64,2*%
X83905000Y-85825000D03*
D23*
%TO.P,28C64,1*%
X83905000Y-83285000D03*
%TD*%
D24*
%TO.P,1M,3*%
%TO.N,N/C*%
X74587143Y-112854546D03*
%TO.P,1M,2*%
X79587143Y-115354546D03*
D25*
%TO.P,1M,1*%
X74587143Y-117854546D03*
%TD*%
D18*
%TO.P,ON,1*%
%TO.N,N/C*%
X125485000Y-94139999D03*
D19*
%TO.P,ON,2*%
X128025000Y-94139999D03*
%TD*%
D20*
%TO.P,10nF,2*%
%TO.N,N/C*%
X64289643Y-125494546D03*
%TO.P,10nF,1*%
X61364643Y-125494546D03*
%TD*%
%TO.P,REF\u002A\u002A,1*%
%TO.N,N/C*%
X66127500Y-39470000D03*
%TO.P,REF\u002A\u002A,2*%
X69052500Y-39470000D03*
%TD*%
D14*
%TO.P,74LS76,16*%
%TO.N,N/C*%
X94990000Y-128770000D03*
%TO.P,74LS76,15*%
X92450000Y-128770000D03*
%TO.P,74LS76,14*%
X89910000Y-128770000D03*
%TO.P,74LS76,13*%
X87370000Y-128770000D03*
%TO.P,74LS76,12*%
X84830000Y-128770000D03*
%TO.P,74LS76,11*%
X82290000Y-128770000D03*
%TO.P,74LS76,10*%
X79750000Y-128770000D03*
%TO.P,74LS76,9*%
X77210000Y-128770000D03*
%TO.P,74LS76,8*%
X77210000Y-121150000D03*
%TO.P,74LS76,7*%
X79750000Y-121150000D03*
%TO.P,74LS76,6*%
X82290000Y-121150000D03*
%TO.P,74LS76,5*%
X84830000Y-121150000D03*
%TO.P,74LS76,4*%
X87370000Y-121150000D03*
%TO.P,74LS76,3*%
X89910000Y-121150000D03*
%TO.P,74LS76,2*%
X92450000Y-121150000D03*
D13*
%TO.P,74LS76,1*%
X94990000Y-121150000D03*
%TD*%
D10*
%TO.P,REF\u002A\u002A,1*%
%TO.N,N/C*%
X109565000Y-42810000D03*
D11*
%TO.P,REF\u002A\u002A,2*%
X109565000Y-40270000D03*
%TO.P,REF\u002A\u002A,3*%
X109565000Y-37730000D03*
%TO.P,REF\u002A\u002A,4*%
X109565000Y-35190000D03*
%TD*%
D26*
%TO.P,REF\u002A\u002A,2*%
%TO.N,N/C*%
X76205000Y-102770000D03*
D27*
%TO.P,REF\u002A\u002A,1*%
X78780000Y-102770000D03*
%TD*%
D28*
%TO.P,1uF,1*%
%TO.N,N/C*%
X143396300Y-80972598D03*
D15*
%TO.P,1uF,2*%
X143396300Y-78972598D03*
%TD*%
D10*
%TO.P,D_IN,1*%
%TO.N,N/C*%
X58630000Y-117312500D03*
%TD*%
D16*
%TO.P,1K,1*%
%TO.N,N/C*%
X136410000Y-81939999D03*
D17*
%TO.P,1K,2*%
X136410000Y-92099999D03*
%TD*%
D26*
%TO.P,REF\u002A\u002A,2*%
%TO.N,N/C*%
X76205000Y-88070000D03*
D27*
%TO.P,REF\u002A\u002A,1*%
X78780000Y-88070000D03*
%TD*%
D15*
%TO.P,100nF,1*%
%TO.N,N/C*%
X147646300Y-81349999D03*
%TO.P,100nF,2*%
X147646300Y-78849999D03*
%TD*%
D26*
%TO.P,REF\u002A\u002A,2*%
%TO.N,N/C*%
X76205000Y-91570000D03*
D27*
%TO.P,REF\u002A\u002A,1*%
X78780000Y-91570000D03*
%TD*%
D29*
%TO.P,Y1,1,1*%
%TO.N,N/C*%
X131012893Y-62192893D03*
%TO.P,Y1,2,2*%
X132212893Y-62192893D03*
%TO.P,Y1,3,3*%
X133412893Y-62192893D03*
%TD*%
D10*
%TO.P,SW2,1,Pin_1*%
%TO.N,N/C*%
X146977893Y-32182893D03*
D11*
%TO.P,SW2,2,Pin_2*%
X149517893Y-32182893D03*
%TO.P,SW2,3,Pin_3*%
X152057893Y-32182893D03*
%TD*%
D10*
%TO.P,U3,1,V_Mot*%
%TO.N,N/C*%
X133480393Y-33492893D03*
D11*
%TO.P,U3,2,VCC*%
X130940393Y-33492893D03*
%TO.P,U3,3,GND*%
X128400393Y-33492893D03*
%TO.P,U3,4,A1*%
X125860393Y-33492893D03*
%TO.P,U3,5,A2*%
X123320393Y-33492893D03*
%TO.P,U3,6,B2*%
X120780393Y-33492893D03*
%TO.P,U3,7,B1*%
X118240393Y-33492893D03*
%TO.P,U3,8,GND*%
X115700393Y-33492893D03*
%TO.P,U3,9,GND*%
X115715393Y-48742893D03*
%TO.P,U3,10,PWMB*%
X118255393Y-48742893D03*
%TO.P,U3,11,BIN2*%
X120795393Y-48742893D03*
%TO.P,U3,12,BIN1*%
X123335393Y-48742893D03*
%TO.P,U3,13,STBY*%
X125875393Y-48742893D03*
%TO.P,U3,14,AIN1*%
X128415393Y-48742893D03*
%TO.P,U3,15,AIN2*%
X130955393Y-48742893D03*
D10*
%TO.P,U3,16,PWMA*%
X133495393Y-48742893D03*
%TD*%
D30*
%TO.P,C1,1*%
%TO.N,N/C*%
X136592893Y-33242893D03*
%TO.P,C1,2*%
X136592893Y-31342893D03*
%TD*%
D10*
%TO.P,J8,1,Pin_1*%
%TO.N,N/C*%
X147652893Y-36232893D03*
%TD*%
D31*
%TO.P,U2,1,VO*%
%TO.N,N/C*%
X139362893Y-35052893D03*
D32*
%TO.P,U2,2,GND*%
X137862893Y-35202893D03*
D33*
X137862893Y-37952893D03*
D31*
%TO.P,U2,3,VI*%
X136362893Y-35052893D03*
%TD*%
D34*
%TO.P,J6,1,Pin_1*%
%TO.N,N/C*%
X138632893Y-67402893D03*
D21*
%TO.P,J6,2,Pin_2*%
X136092893Y-67402893D03*
%TO.P,J6,3,Pin_3*%
X133552893Y-67402893D03*
%TO.P,J6,4,Pin_4*%
X131012893Y-67402893D03*
%TO.P,J6,5,Pin_5*%
X128472893Y-67402893D03*
%TO.P,J6,6,Pin_6*%
X125932893Y-67402893D03*
%TD*%
D34*
%TO.P,J1,1,Pin_1*%
%TO.N,N/C*%
X117014294Y-52413292D03*
D21*
%TO.P,J1,2,Pin_2*%
X117014294Y-54953292D03*
%TO.P,J1,3,Pin_3*%
X117014294Y-57493292D03*
%TO.P,J1,4,Pin_4*%
X117014294Y-60033292D03*
%TO.P,J1,5,Pin_5*%
X117014294Y-62573292D03*
%TO.P,J1,6,Pin_6*%
X117014294Y-65113292D03*
%TD*%
D10*
%TO.P,J9,1,Pin_1*%
%TO.N,N/C*%
X151372893Y-36202893D03*
%TD*%
D12*
%TO.P,SW1,2,2*%
%TO.N,N/C*%
X127289294Y-55038292D03*
X127289294Y-61538292D03*
%TO.P,SW1,1,1*%
X122789294Y-61538292D03*
X122789294Y-55038292D03*
%TD*%
D21*
%TO.P,J5,1,Pin_1*%
%TO.N,N/C*%
X149747893Y-41027893D03*
%TO.P,J5,2,Pin_2*%
X149747893Y-43567893D03*
%TO.P,J5,3,Pin_3*%
X149747893Y-46107893D03*
%TO.P,J5,4,Pin_4*%
X149747893Y-48647893D03*
%TO.P,J5,5,Pin_5*%
X149747893Y-51187893D03*
%TO.P,J5,6,Pin_6*%
X149747893Y-53727893D03*
%TO.P,J5,7,Pin_7*%
X149747893Y-56267893D03*
%TO.P,J5,8,Pin_8*%
X149747893Y-58807893D03*
%TO.P,J5,9,Pin_9*%
X149747893Y-61347893D03*
%TO.P,J5,10,Pin_10*%
X149747893Y-63887893D03*
%TD*%
D35*
%TO.P,U1,1,~PD3*%
%TO.N,N/C*%
X133422093Y-53722893D03*
%TO.P,U1,2,PD4*%
X133422093Y-54522891D03*
%TO.P,U1,3,GND*%
X133422093Y-55322892D03*
%TO.P,U1,4,VCC*%
X133422093Y-56122893D03*
%TO.P,U1,5,GND*%
X133422093Y-56922891D03*
%TO.P,U1,6,VCC*%
X133422093Y-57722892D03*
%TO.P,U1,7,XTAL1/PB6*%
X133422093Y-58522891D03*
%TO.P,U1,8,XTAL2/PB7*%
X133422093Y-59322891D03*
D36*
%TO.P,U1,9,~PD5*%
X134889294Y-60790092D03*
%TO.P,U1,10,~PD6*%
X135689292Y-60790092D03*
%TO.P,U1,11,PD7*%
X136489293Y-60790092D03*
%TO.P,U1,12,PB0*%
X137289294Y-60790092D03*
%TO.P,U1,13,~PB1*%
X138089292Y-60790092D03*
%TO.P,U1,14,~PB2*%
X138889293Y-60790092D03*
%TO.P,U1,15,~PB3*%
X139689292Y-60790092D03*
%TO.P,U1,16,PB4*%
X140489292Y-60790092D03*
D35*
%TO.P,U1,17,PB5*%
X141956493Y-59322891D03*
%TO.P,U1,18,AVCC*%
X141956493Y-58522893D03*
%TO.P,U1,19,ADC6*%
X141956493Y-57722892D03*
%TO.P,U1,20,AREF*%
X141956493Y-56922891D03*
%TO.P,U1,21,GND*%
X141956493Y-56122893D03*
%TO.P,U1,22,ADC7*%
X141956493Y-55322892D03*
%TO.P,U1,23,A0/PC0*%
X141956493Y-54522893D03*
%TO.P,U1,24,A1/PC1*%
X141956493Y-53722893D03*
D36*
%TO.P,U1,25,A2/PC2*%
X140489292Y-52255692D03*
%TO.P,U1,26,A3/PC3*%
X139689294Y-52255692D03*
%TO.P,U1,27,A4/PC4*%
X138889293Y-52255692D03*
%TO.P,U1,28,A5/PC5*%
X138089292Y-52255692D03*
%TO.P,U1,29,~{RESET}/PC6*%
X137289294Y-52255692D03*
%TO.P,U1,30,RX/PD0*%
X136489293Y-52255692D03*
%TO.P,U1,31,TX/PD1*%
X135689294Y-52255692D03*
%TO.P,U1,32,PD2*%
X134889294Y-52255692D03*
%TD*%
D37*
%TO.P,D1,1,K*%
%TO.N,N/C*%
X143002893Y-32082893D03*
D38*
%TO.P,D1,2,A*%
X143002893Y-34357893D03*
%TD*%
D39*
%TO.P,C3,1*%
%TO.N,N/C*%
X124902893Y-64372893D03*
%TO.P,C3,2*%
X126802893Y-64372893D03*
%TD*%
D20*
%TO.P,R1,1*%
%TO.N,N/C*%
X138640393Y-48132893D03*
%TO.P,R1,2*%
X141565393Y-48132893D03*
%TD*%
D30*
%TO.P,C2,1*%
%TO.N,N/C*%
X139122893Y-33242893D03*
%TO.P,C2,2*%
X139122893Y-31342893D03*
%TD*%
D40*
%TO.P,R2,1*%
%TO.N,N/C*%
X144945393Y-36882893D03*
%TO.P,R2,2*%
X142020393Y-36882893D03*
%TD*%
D14*
%TO.P,NE555,8*%
%TO.N,N/C*%
X71357143Y-122714546D03*
%TO.P,NE555,7*%
X68817143Y-122714546D03*
%TO.P,NE555,6*%
X66277143Y-122714546D03*
%TO.P,NE555,5*%
X63737143Y-122714546D03*
%TO.P,NE555,4*%
X63737143Y-115094546D03*
%TO.P,NE555,3*%
X66277143Y-115094546D03*
%TO.P,NE555,2*%
X68817143Y-115094546D03*
D13*
%TO.P,NE555,1*%
X71357143Y-115094546D03*
%TD*%
D11*
%TO.P,BUS,10*%
%TO.N,N/C*%
X59225000Y-111225000D03*
%TO.P,BUS,9*%
X59225000Y-108685000D03*
%TO.P,BUS,8*%
X59225000Y-106145000D03*
%TO.P,BUS,7*%
X59225000Y-103605000D03*
%TO.P,BUS,6*%
X59225000Y-101065000D03*
%TO.P,BUS,5*%
X59225000Y-98525000D03*
%TO.P,BUS,4*%
X59225000Y-95985000D03*
%TO.P,BUS,3*%
X59225000Y-93445000D03*
%TO.P,BUS,2*%
X59225000Y-90905000D03*
D10*
%TO.P,BUS,1*%
X59225000Y-88365000D03*
%TD*%
D41*
%TO.P,CLK,2*%
%TO.N,N/C*%
X72367143Y-125389546D03*
D42*
%TO.P,CLK,1*%
X72367143Y-127964546D03*
%TD*%
D43*
%TO.P,EEPROM SOCKET,1*%
%TO.N,N/C*%
X66810000Y-63120000D03*
D44*
%TO.P,EEPROM SOCKET,2*%
X69350000Y-63120000D03*
%TO.P,EEPROM SOCKET,3*%
X71890000Y-63120000D03*
%TO.P,EEPROM SOCKET,4*%
X74430000Y-63120000D03*
%TO.P,EEPROM SOCKET,5*%
X76970000Y-63120000D03*
%TO.P,EEPROM SOCKET,6*%
X79510000Y-63120000D03*
%TO.P,EEPROM SOCKET,7*%
X82050000Y-63120000D03*
%TO.P,EEPROM SOCKET,8*%
X84590000Y-63120000D03*
%TO.P,EEPROM SOCKET,9*%
X87130000Y-63120000D03*
%TO.P,EEPROM SOCKET,10*%
X89670000Y-63120000D03*
%TO.P,EEPROM SOCKET,11*%
X92210000Y-63120000D03*
%TO.P,EEPROM SOCKET,12*%
X94750000Y-63120000D03*
%TO.P,EEPROM SOCKET,13*%
X97290000Y-63120000D03*
%TO.P,EEPROM SOCKET,14*%
X99830000Y-63120000D03*
%TO.P,EEPROM SOCKET,15*%
X99830000Y-47880000D03*
%TO.P,EEPROM SOCKET,16*%
X97290000Y-47880000D03*
%TO.P,EEPROM SOCKET,17*%
X94750000Y-47880000D03*
%TO.P,EEPROM SOCKET,18*%
X92210000Y-47880000D03*
%TO.P,EEPROM SOCKET,19*%
X89670000Y-47880000D03*
%TO.P,EEPROM SOCKET,20*%
X87130000Y-47880000D03*
%TO.P,EEPROM SOCKET,21*%
X84590000Y-47880000D03*
%TO.P,EEPROM SOCKET,22*%
X82050000Y-47880000D03*
%TO.P,EEPROM SOCKET,23*%
X79510000Y-47880000D03*
%TO.P,EEPROM SOCKET,24*%
X76970000Y-47880000D03*
%TO.P,EEPROM SOCKET,25*%
X74430000Y-47880000D03*
%TO.P,EEPROM SOCKET,26*%
X71890000Y-47880000D03*
%TO.P,EEPROM SOCKET,27*%
X69350000Y-47880000D03*
%TO.P,EEPROM SOCKET,28*%
X66810000Y-47880000D03*
%TD*%
D26*
%TO.P,REF\u002A\u002A,2*%
%TO.N,N/C*%
X76205000Y-106270000D03*
D27*
%TO.P,REF\u002A\u002A,1*%
X78780000Y-106270000D03*
%TD*%
D20*
%TO.P,10k,2*%
%TO.N,N/C*%
X67542500Y-82750000D03*
%TO.P,10k,1*%
X64617500Y-82750000D03*
%TD*%
D37*
%TO.P,REF\u002A\u002A,1*%
%TO.N,N/C*%
X68402500Y-36487500D03*
D45*
%TO.P,REF\u002A\u002A,2*%
X66127500Y-36487500D03*
%TD*%
D46*
%TO.P,1M,*%
%TO.N,*%
X125375000Y-79519999D03*
X125375000Y-89119999D03*
D18*
%TO.P,1M,1*%
%TO.N,N/C*%
X132875000Y-86819999D03*
D19*
%TO.P,1M,2*%
X132875000Y-84319999D03*
%TO.P,1M,3*%
X132875000Y-81819999D03*
%TD*%
D20*
%TO.P,100K,2*%
%TO.N,N/C*%
X69009643Y-125484546D03*
%TO.P,100K,1*%
X66084643Y-125484546D03*
%TD*%
D10*
%TO.P,REF\u002A\u002A,1*%
%TO.N,N/C*%
X109600000Y-46592500D03*
D11*
%TO.P,REF\u002A\u002A,2*%
X109600000Y-49132500D03*
%TO.P,REF\u002A\u002A,3*%
X109600000Y-51672500D03*
%TO.P,REF\u002A\u002A,4*%
X109600000Y-54212500D03*
%TO.P,REF\u002A\u002A,5*%
X109600000Y-56752500D03*
%TO.P,REF\u002A\u002A,6*%
X109600000Y-59292500D03*
%TO.P,REF\u002A\u002A,7*%
X109600000Y-61832500D03*
%TO.P,REF\u002A\u002A,8*%
X109600000Y-64372500D03*
%TD*%
D47*
%TO.P,1K,2*%
%TO.N,N/C*%
X74287143Y-120472046D03*
%TO.P,1K,1*%
X74287143Y-123397046D03*
%TD*%
D11*
%TO.P,Mode,3*%
%TO.N,N/C*%
X56675000Y-84605000D03*
%TO.P,Mode,2*%
X59215000Y-84605000D03*
D10*
%TO.P,Mode,1*%
X61755000Y-84605000D03*
%TD*%
D13*
%TO.P,74HC595,1*%
%TO.N,N/C*%
X89670000Y-69427500D03*
D14*
%TO.P,74HC595,2*%
X87130000Y-69427500D03*
%TO.P,74HC595,3*%
X84590000Y-69427500D03*
%TO.P,74HC595,4*%
X82050000Y-69427500D03*
%TO.P,74HC595,5*%
X79510000Y-69427500D03*
%TO.P,74HC595,6*%
X76970000Y-69427500D03*
%TO.P,74HC595,7*%
X74430000Y-69427500D03*
%TO.P,74HC595,8*%
X71890000Y-69427500D03*
%TO.P,74HC595,9*%
X71890000Y-77047500D03*
%TO.P,74HC595,10*%
X74430000Y-77047500D03*
%TO.P,74HC595,11*%
X76970000Y-77047500D03*
%TO.P,74HC595,12*%
X79510000Y-77047500D03*
%TO.P,74HC595,13*%
X82050000Y-77047500D03*
%TO.P,74HC595,14*%
X84590000Y-77047500D03*
%TO.P,74HC595,15*%
X87130000Y-77047500D03*
%TO.P,74HC595,16*%
X89670000Y-77047500D03*
%TD*%
D11*
%TO.P,BUS,10*%
%TO.N,N/C*%
X61775000Y-111235000D03*
%TO.P,BUS,9*%
X61775000Y-108695000D03*
%TO.P,BUS,8*%
X61775000Y-106155000D03*
%TO.P,BUS,7*%
X61775000Y-103615000D03*
%TO.P,BUS,6*%
X61775000Y-101075000D03*
%TO.P,BUS,5*%
X61775000Y-98535000D03*
%TO.P,BUS,4*%
X61775000Y-95995000D03*
%TO.P,BUS,3*%
X61775000Y-93455000D03*
%TO.P,BUS,2*%
X61775000Y-90915000D03*
D10*
%TO.P,BUS,1*%
X61775000Y-88375000D03*
%TD*%
D16*
%TO.P,100K,1*%
%TO.N,N/C*%
X132390000Y-94986299D03*
D17*
%TO.P,100K,2*%
X142550000Y-94986299D03*
%TD*%
D26*
%TO.P,REF\u002A\u002A,2*%
%TO.N,N/C*%
X76205000Y-99270000D03*
D27*
%TO.P,REF\u002A\u002A,1*%
X78780000Y-99270000D03*
%TD*%
D26*
%TO.P,REF\u002A\u002A,2*%
%TO.N,N/C*%
X76205000Y-84570000D03*
D27*
%TO.P,REF\u002A\u002A,1*%
X78780000Y-84570000D03*
%TD*%
D26*
%TO.P,REF\u002A\u002A,2*%
%TO.N,N/C*%
X76205000Y-109770000D03*
D27*
%TO.P,REF\u002A\u002A,1*%
X78780000Y-109770000D03*
%TD*%
D13*
%TO.P,74HC595,1*%
%TO.N,N/C*%
X89670000Y-32270000D03*
D14*
%TO.P,74HC595,2*%
X87130000Y-32270000D03*
%TO.P,74HC595,3*%
X84590000Y-32270000D03*
%TO.P,74HC595,4*%
X82050000Y-32270000D03*
%TO.P,74HC595,5*%
X79510000Y-32270000D03*
%TO.P,74HC595,6*%
X76970000Y-32270000D03*
%TO.P,74HC595,7*%
X74430000Y-32270000D03*
%TO.P,74HC595,8*%
X71890000Y-32270000D03*
%TO.P,74HC595,9*%
X71890000Y-39890000D03*
%TO.P,74HC595,10*%
X74430000Y-39890000D03*
%TO.P,74HC595,11*%
X76970000Y-39890000D03*
%TO.P,74HC595,12*%
X79510000Y-39890000D03*
%TO.P,74HC595,13*%
X82050000Y-39890000D03*
%TO.P,74HC595,14*%
X84590000Y-39890000D03*
%TO.P,74HC595,15*%
X87130000Y-39890000D03*
%TO.P,74HC595,16*%
X89670000Y-39890000D03*
%TD*%
D11*
%TO.P,REF\u002A\u002A,6*%
%TO.N,N/C*%
X104600000Y-106275000D03*
%TO.P,REF\u002A\u002A,5*%
X104600000Y-103735000D03*
%TO.P,REF\u002A\u002A,4*%
X104600000Y-101195000D03*
%TO.P,REF\u002A\u002A,3*%
X104600000Y-98655000D03*
%TO.P,REF\u002A\u002A,2*%
X104600000Y-96115000D03*
D10*
%TO.P,REF\u002A\u002A,1*%
X104600000Y-93575000D03*
%TD*%
%TO.P,REF\u002A\u002A,12*%
%TO.N,N/C*%
X114750000Y-93575000D03*
D11*
%TO.P,REF\u002A\u002A,11*%
X114750000Y-96115000D03*
%TO.P,REF\u002A\u002A,10*%
X114750000Y-98655000D03*
%TO.P,REF\u002A\u002A,9*%
X114750000Y-101195000D03*
%TO.P,REF\u002A\u002A,8*%
X114750000Y-103735000D03*
%TO.P,REF\u002A\u002A,7*%
X114750000Y-106275000D03*
%TD*%
D20*
%TO.P,10nF,2*%
%TO.N,N/C*%
X64289643Y-127964546D03*
%TO.P,10nF,1*%
X61364643Y-127964546D03*
%TD*%
D26*
%TO.P,REF\u002A\u002A,2*%
%TO.N,N/C*%
X76205000Y-95070000D03*
D27*
%TO.P,REF\u002A\u002A,1*%
X78780000Y-95070000D03*
%TD*%
D16*
%TO.P,220R,1*%
%TO.N,N/C*%
X121760000Y-102199999D03*
D17*
%TO.P,220R,2*%
X121760000Y-92039999D03*
%TD*%
D48*
%TO.N,*%
X72367143Y-127964546D03*
D49*
X91190000Y-46030000D03*
D48*
X139122893Y-33242893D03*
X136662893Y-55252893D03*
X143002893Y-32082893D03*
D49*
X140512893Y-55252893D03*
X143612893Y-56122893D03*
D48*
X148052893Y-60532893D03*
X141565393Y-48132893D03*
X135532893Y-55232893D03*
D49*
X143392893Y-59392893D03*
X82050000Y-73480000D03*
X101130000Y-50447500D03*
X101240000Y-53307500D03*
X74287143Y-120434546D03*
X76205000Y-106270000D03*
X101190000Y-51877500D03*
X87130000Y-72090000D03*
X62970000Y-73480000D03*
X76205000Y-102770000D03*
X63750000Y-74370000D03*
X76205000Y-99270000D03*
X64977143Y-120434546D03*
X79510000Y-74370000D03*
X91730000Y-75210000D03*
X87240000Y-125290000D03*
X64560000Y-75220000D03*
X76205000Y-95070000D03*
X91720000Y-73490000D03*
X84830000Y-125240000D03*
X91730000Y-74380000D03*
X76205000Y-109770000D03*
X76205000Y-88070000D03*
X76205000Y-84570000D03*
X61407143Y-117164546D03*
X74420000Y-42750000D03*
X76970000Y-75200000D03*
X103840000Y-42750000D03*
X76205000Y-91570000D03*
X91950000Y-41000000D03*
%TD*%
D50*
%TO.N,*%
X126790000Y-118419999D02*
X149780000Y-118419999D01*
X126790000Y-118914999D02*
X126790000Y-118419999D01*
X149780000Y-118499999D02*
X149780000Y-128529999D01*
X149780000Y-78849999D02*
X149780000Y-118499999D01*
X149780000Y-118419999D02*
X149780000Y-118499999D01*
X149780000Y-128529999D02*
X145435000Y-128529999D01*
X147646300Y-78849999D02*
X149780000Y-78849999D01*
X142895000Y-123549999D02*
X142895000Y-120909999D01*
X126050000Y-123549999D02*
X142895000Y-123549999D01*
X125280000Y-122779999D02*
X126050000Y-123549999D01*
X127220000Y-125319999D02*
X125280000Y-125319999D01*
X127230000Y-125329999D02*
X127220000Y-125319999D01*
X127700000Y-124859999D02*
X127230000Y-125329999D01*
X140355000Y-124859999D02*
X127700000Y-124859999D01*
X127090000Y-127859999D02*
X125280000Y-127859999D01*
X135275000Y-126329999D02*
X128620000Y-126329999D01*
X128620000Y-126329999D02*
X127090000Y-127859999D01*
X135275000Y-128529999D02*
X135275000Y-126329999D01*
X137815000Y-128529999D02*
X140355000Y-128529999D01*
X140355000Y-124859999D02*
X140355000Y-128529999D01*
X145435000Y-124859999D02*
X140355000Y-124859999D01*
X145435000Y-120909999D02*
X145435000Y-124859999D01*
X132080000Y-102699999D02*
X138270000Y-102699999D01*
X128370000Y-98989999D02*
X132080000Y-102699999D01*
X138270000Y-105579999D02*
X138270000Y-102699999D01*
X138270000Y-102699999D02*
X138270000Y-98989999D01*
X135000000Y-113859999D02*
X136140000Y-113859999D01*
X133980000Y-112839999D02*
X135000000Y-113859999D01*
X133980000Y-109659999D02*
X133980000Y-112839999D01*
X126220000Y-99799999D02*
X130710000Y-104289999D01*
X130710000Y-104289999D02*
X130710000Y-106389999D01*
X126220000Y-97929999D02*
X126220000Y-99799999D01*
X130710000Y-106389999D02*
X133980000Y-109659999D01*
X128025000Y-96124999D02*
X126220000Y-97929999D01*
X128025000Y-94139999D02*
X128025000Y-96124999D01*
X136210000Y-109689999D02*
X132870000Y-106349999D01*
X132870000Y-106349999D02*
X132870000Y-105489999D01*
X142560000Y-109689999D02*
X136210000Y-109689999D01*
X142560000Y-107329999D02*
X142560000Y-109689999D01*
X136190000Y-111309999D02*
X136140000Y-111359999D01*
X145100000Y-111309999D02*
X136190000Y-111309999D01*
X145100000Y-107329999D02*
X145100000Y-111309999D01*
X138270000Y-98989999D02*
X138270000Y-96999999D01*
X142910000Y-96999999D02*
X138270000Y-96999999D01*
X144920000Y-94529999D02*
X144920000Y-94989999D01*
X138270000Y-96999999D02*
X138270000Y-93459999D01*
X144920000Y-94989999D02*
X142910000Y-96999999D01*
X138270000Y-93459999D02*
X140010000Y-91719999D01*
X140020000Y-107329999D02*
X138270000Y-105579999D01*
X140010000Y-86593699D02*
X140010000Y-84099999D01*
X141516300Y-88099999D02*
X140010000Y-86593699D01*
X147630000Y-89713699D02*
X146016300Y-88099999D01*
X146016300Y-88099999D02*
X141516300Y-88099999D01*
X147630000Y-91719999D02*
X147630000Y-89713699D01*
X136253701Y-107209999D02*
X136520000Y-107209999D01*
D51*
X89670000Y-84560000D02*
X89720000Y-84560000D01*
X89720000Y-84560000D02*
X99145000Y-84560000D01*
X80830000Y-84560000D02*
X89720000Y-84560000D01*
X67542500Y-82722500D02*
X67542500Y-82750000D01*
X69507500Y-82722500D02*
X67542500Y-82722500D01*
X85790000Y-103605000D02*
X99145000Y-103605000D01*
X85790000Y-107410000D02*
X85790000Y-103605000D01*
D50*
X121574693Y-45432893D02*
X125860393Y-41147193D01*
X125860393Y-41147193D02*
X125860393Y-33492893D01*
X118247893Y-45432893D02*
X121574693Y-45432893D01*
X119964693Y-42892893D02*
X123320393Y-39537193D01*
X123320393Y-39537193D02*
X123320393Y-33492893D01*
X118247893Y-42892893D02*
X119964693Y-42892893D01*
X120780393Y-38317193D02*
X120780393Y-33492893D01*
X119814693Y-39282893D02*
X120780393Y-38317193D01*
X118247893Y-39282893D02*
X119814693Y-39282893D01*
X118247893Y-33500393D02*
X118240393Y-33492893D01*
X118247893Y-36742893D02*
X118247893Y-33500393D01*
D51*
X149489294Y-34694294D02*
X149489294Y-36958292D01*
X146977893Y-32182893D02*
X149489294Y-34694294D01*
X149489294Y-36958292D02*
X152289294Y-39758292D01*
X152289294Y-62228292D02*
X152289294Y-39758292D01*
D50*
X151372893Y-34481891D02*
X151372893Y-36202893D01*
X149517893Y-32626891D02*
X151372893Y-34481891D01*
X149517893Y-32182893D02*
X149517893Y-32626891D01*
D51*
X150629693Y-63887893D02*
X152289294Y-62228292D01*
X149747893Y-63887893D02*
X150629693Y-63887893D01*
X117754693Y-64372893D02*
X117014294Y-65113292D01*
X124902893Y-64372893D02*
X117754693Y-64372893D01*
X122789294Y-55038292D02*
X122789294Y-61538292D01*
X68980000Y-43880000D02*
X69052500Y-43807500D01*
X69052500Y-43807500D02*
X69052500Y-39470000D01*
X66810000Y-43880000D02*
X68980000Y-43880000D01*
X66810000Y-47880000D02*
X66810000Y-43880000D01*
X71890000Y-36487500D02*
X71890000Y-32270000D01*
X68402500Y-36487500D02*
X71890000Y-36487500D01*
X89670000Y-72040000D02*
X89670000Y-77047500D01*
X94580000Y-72040000D02*
X89670000Y-72040000D01*
X103840000Y-42750000D02*
X103840000Y-62780000D01*
X103840000Y-62780000D02*
X94580000Y-72040000D01*
X71890000Y-67247500D02*
X71890000Y-69427500D01*
X109565000Y-37730000D02*
X104810000Y-42485000D01*
X104810000Y-63050000D02*
X94370000Y-73490000D01*
X94370000Y-73490000D02*
X91720000Y-73490000D01*
X104810000Y-42485000D02*
X104810000Y-63050000D01*
X91950000Y-45270000D02*
X91950000Y-41000000D01*
X91190000Y-46030000D02*
X91950000Y-45270000D01*
X107090000Y-45285000D02*
X107090000Y-63630000D01*
X99830000Y-63120000D02*
X95702500Y-67247500D01*
X95702500Y-67247500D02*
X71890000Y-67247500D01*
X102250000Y-41000000D02*
X91950000Y-41000000D01*
X99830000Y-63120000D02*
X102250000Y-60700000D01*
X102250000Y-60700000D02*
X102250000Y-41000000D01*
X105970000Y-63280000D02*
X94870000Y-74380000D01*
X109565000Y-40270000D02*
X105970000Y-43865000D01*
X95510000Y-75210000D02*
X91730000Y-75210000D01*
X107090000Y-63630000D02*
X95510000Y-75210000D01*
X94870000Y-74380000D02*
X91730000Y-74380000D01*
X105970000Y-43865000D02*
X105970000Y-63280000D01*
X109565000Y-42810000D02*
X107090000Y-45285000D01*
D50*
X66127500Y-39470000D02*
X66127500Y-36507500D01*
X66127500Y-36507500D02*
X66117500Y-36497500D01*
D51*
X94120000Y-71220000D02*
X84590000Y-71220000D01*
X109565000Y-35190000D02*
X102980000Y-41775000D01*
X84590000Y-71220000D02*
X84590000Y-77047500D01*
X102980000Y-62360000D02*
X94120000Y-71220000D01*
X102980000Y-41775000D02*
X102980000Y-62360000D01*
X138889293Y-67146493D02*
X138632893Y-67402893D01*
X138889293Y-60790092D02*
X138889293Y-67146493D01*
D50*
X144945393Y-34675393D02*
X144627893Y-34357893D01*
D51*
X135689292Y-60790092D02*
X135689292Y-63116494D01*
X134889294Y-47649294D02*
X134382893Y-47142893D01*
X137289294Y-63546492D02*
X133552893Y-67282893D01*
X134889294Y-62886492D02*
X133282893Y-64492893D01*
X130672893Y-65202893D02*
X128472893Y-67402893D01*
X137289294Y-60790092D02*
X137289294Y-63546492D01*
X135689292Y-63116494D02*
X133602893Y-65202893D01*
X134889294Y-60790092D02*
X134889294Y-62886492D01*
X134889294Y-52255692D02*
X134889294Y-47649294D01*
X134382893Y-47142893D02*
X132555393Y-47142893D01*
X132502893Y-65912893D02*
X131012893Y-67402893D01*
X134489293Y-55322892D02*
X134689293Y-55522892D01*
X128842893Y-64492893D02*
X125932893Y-67402893D01*
X132222891Y-54522891D02*
X128415393Y-50715393D01*
X136489293Y-63326493D02*
X133902893Y-65912893D01*
D50*
X144945393Y-36882893D02*
X144945393Y-34675393D01*
X144627893Y-34357893D02*
X143002893Y-34357893D01*
D51*
X138089292Y-63816494D02*
X136092893Y-65812893D01*
X132555393Y-47142893D02*
X130955393Y-48742893D01*
X133552893Y-67282893D02*
X133552893Y-67402893D01*
X138089292Y-60790092D02*
X138089292Y-63816494D01*
X133282893Y-64492893D02*
X128842893Y-64492893D01*
X133495393Y-53649593D02*
X133495393Y-48742893D01*
X133422093Y-54522891D02*
X132222891Y-54522891D01*
X133602893Y-65202893D02*
X130672893Y-65202893D01*
X133422093Y-53722893D02*
X133495393Y-53649593D01*
X128415393Y-50715393D02*
X128415393Y-48742893D01*
X136092893Y-65812893D02*
X136092893Y-67402893D01*
X136489293Y-60790092D02*
X136489293Y-63326493D01*
X133902893Y-65912893D02*
X132502893Y-65912893D01*
X141956493Y-56122893D02*
X143612893Y-56122893D01*
X134689293Y-56122892D02*
X134689293Y-56722892D01*
X126862893Y-50332893D02*
X131852892Y-55322892D01*
X148032893Y-46602893D02*
X148032893Y-45282893D01*
D50*
X136362893Y-35052893D02*
X135762893Y-35652893D01*
D51*
X139689294Y-51316492D02*
X139952893Y-51052893D01*
X115715393Y-48742893D02*
X117305393Y-50332893D01*
D52*
X130492893Y-63862893D02*
X130062893Y-63432893D01*
D51*
X147222893Y-46272893D02*
X147222893Y-43552893D01*
X117305393Y-50332893D02*
X122932893Y-50332893D01*
D52*
X131412893Y-56052893D02*
X132142894Y-55322892D01*
D51*
X133422093Y-55322892D02*
X134489293Y-55322892D01*
X137862893Y-35202893D02*
X137862893Y-31342893D01*
X136362893Y-33472893D02*
X136592893Y-33242893D01*
X134489294Y-56922891D02*
X133422093Y-56922891D01*
X147222893Y-43552893D02*
X149747893Y-41027893D01*
X148032893Y-45282893D02*
X149747893Y-43567893D01*
D50*
X147652893Y-38342893D02*
X147652893Y-36232893D01*
X146137893Y-31342893D02*
X146977893Y-32182893D01*
D51*
X139622893Y-50332893D02*
X144302893Y-50332893D01*
X141956493Y-56122893D02*
X134689293Y-56122892D01*
X138089292Y-52255692D02*
X138089292Y-50816494D01*
D50*
X129212893Y-31342893D02*
X136592893Y-31342893D01*
D51*
X122932893Y-50332893D02*
X126862893Y-50332893D01*
D50*
X135762893Y-35652893D02*
X135762893Y-40192893D01*
X128400393Y-32155393D02*
X129212893Y-31342893D01*
D51*
X136362893Y-35052893D02*
X136362893Y-33472893D01*
D52*
X130062893Y-59562893D02*
X131412893Y-58212893D01*
D50*
X145142893Y-40852893D02*
X147652893Y-38342893D01*
D52*
X132212893Y-62192893D02*
X132212893Y-63452893D01*
D51*
X122842893Y-50422893D02*
X122932893Y-50332893D01*
D50*
X139122893Y-31342893D02*
X143002893Y-31342893D01*
X136592893Y-33242893D02*
X133730393Y-33242893D01*
X135762893Y-40192893D02*
X136422893Y-40852893D01*
X143002893Y-32082893D02*
X143002893Y-31342893D01*
D51*
X134689293Y-56722892D02*
X134489294Y-56922891D01*
X122842893Y-54972893D02*
X122842893Y-50422893D01*
X148052893Y-63887893D02*
X149747893Y-63887893D01*
X148052893Y-60532893D02*
X148052893Y-63887893D01*
D52*
X132212893Y-63452893D02*
X131802893Y-63862893D01*
D51*
X139312893Y-49592893D02*
X143902893Y-49592893D01*
X138889293Y-51066493D02*
X139622893Y-50332893D01*
X138889293Y-52255692D02*
X138889293Y-51066493D01*
D50*
X139122893Y-31342893D02*
X136592893Y-31342893D01*
D52*
X132142894Y-55322892D02*
X133422093Y-55322892D01*
X130062893Y-63432893D02*
X130062893Y-59562893D01*
X131802893Y-63862893D02*
X130492893Y-63862893D01*
D51*
X138089292Y-50816494D02*
X139312893Y-49592893D01*
D50*
X133730393Y-33242893D02*
X133480393Y-33492893D01*
X136422893Y-40852893D02*
X145142893Y-40852893D01*
X143002893Y-31342893D02*
X146137893Y-31342893D01*
D51*
X144302893Y-50332893D02*
X148032893Y-46602893D01*
X131852892Y-55322892D02*
X133422093Y-55322892D01*
X134689293Y-55522892D02*
X134689293Y-56122892D01*
X143902893Y-49592893D02*
X147222893Y-46272893D01*
D52*
X131412893Y-58212893D02*
X131412893Y-56052893D01*
D51*
X141956493Y-55322892D02*
X148802892Y-55322892D01*
D50*
X128400393Y-33492893D02*
X128400393Y-32155393D01*
D51*
X141956493Y-57722892D02*
X148682892Y-57722892D01*
D52*
X142377893Y-67637893D02*
X143177893Y-67637893D01*
X141956493Y-59666493D02*
X143222893Y-60932893D01*
X141956493Y-59322891D02*
X141956493Y-59666493D01*
X143222893Y-60932893D02*
X146492893Y-60932893D01*
D51*
X137289294Y-52255692D02*
X137289294Y-54369294D01*
X148802892Y-55322892D02*
X149747893Y-56267893D01*
X148682892Y-57722892D02*
X149747893Y-58787893D01*
D52*
X140852893Y-59682893D02*
X143177893Y-62007893D01*
D51*
X136489293Y-55079293D02*
X136662893Y-55252893D01*
X135689294Y-52255692D02*
X135689294Y-55076492D01*
X135689294Y-55076492D02*
X135532893Y-55232893D01*
D53*
X133422093Y-62183693D02*
X133422093Y-59322891D01*
D52*
X141452893Y-61753693D02*
X141452893Y-66712893D01*
X140032893Y-59682893D02*
X140852893Y-59682893D01*
D53*
X131012893Y-59822893D02*
X132312895Y-58522891D01*
X131012893Y-62192893D02*
X131012893Y-59822893D01*
D52*
X140489292Y-60790092D02*
X141452893Y-61753693D01*
X146492893Y-60932893D02*
X147342893Y-61782893D01*
D51*
X138172893Y-55252893D02*
X140512893Y-55252893D01*
D52*
X139689292Y-60790092D02*
X139689292Y-60026494D01*
D51*
X137289294Y-49483992D02*
X138640393Y-48132893D01*
X137289294Y-54369294D02*
X138172893Y-55252893D01*
X126802893Y-64372893D02*
X126802893Y-62012893D01*
X137289294Y-52255692D02*
X137289294Y-49483992D01*
D52*
X147342893Y-61782893D02*
X147342893Y-66012893D01*
D51*
X136489293Y-52255692D02*
X136489293Y-55079293D01*
X126802893Y-62012893D02*
X127342893Y-61472893D01*
D52*
X139689292Y-60026494D02*
X140032893Y-59682893D01*
X143177893Y-62007893D02*
X143177893Y-62557893D01*
D51*
X149747893Y-58787893D02*
X149747893Y-58807893D01*
D53*
X132312895Y-58522891D02*
X133422093Y-58522891D01*
D52*
X147342893Y-66012893D02*
X145717893Y-67637893D01*
D51*
X144802893Y-51052893D02*
X149747893Y-46107893D01*
D52*
X141452893Y-66712893D02*
X142377893Y-67637893D01*
D51*
X143092893Y-58522893D02*
X143392893Y-58822893D01*
X151392893Y-59702893D02*
X151392893Y-40272893D01*
X141956493Y-54522893D02*
X148952893Y-54522893D01*
X140939293Y-58522892D02*
X140739293Y-58322892D01*
X132339293Y-57722892D02*
X132139293Y-57522892D01*
X149042893Y-39222893D02*
X146352893Y-41912893D01*
X140689293Y-57722892D02*
X140739293Y-57772892D01*
X146352893Y-45902893D02*
X144122893Y-48132893D01*
X140739293Y-57122892D02*
X140939292Y-56922893D01*
X139362893Y-33482893D02*
X139122893Y-33242893D01*
X132139293Y-57522892D02*
X132139293Y-56322892D01*
X140739293Y-58322892D02*
X140739293Y-57772892D01*
D50*
X142020393Y-36882893D02*
X141192893Y-36882893D01*
D51*
X140739293Y-57772892D02*
X140739293Y-57122892D01*
X140939292Y-56922893D02*
X142006493Y-56922893D01*
X149737893Y-51187893D02*
X149747893Y-51187893D01*
X141956493Y-58522893D02*
X143092893Y-58522893D01*
X146140094Y-52255692D02*
X149747893Y-48647893D01*
X148952893Y-54522893D02*
X149747893Y-53727893D01*
X142006493Y-58522892D02*
X140939293Y-58522892D01*
D50*
X141192893Y-36882893D02*
X139362893Y-35052893D01*
D51*
X144122893Y-48132893D02*
X141565393Y-48132893D01*
X149747893Y-61347893D02*
X151392893Y-59702893D01*
X140489292Y-52255692D02*
X146140094Y-52255692D01*
X143392893Y-58822893D02*
X143392893Y-59392893D01*
X147202893Y-53722893D02*
X149737893Y-51187893D01*
X146352893Y-41912893D02*
X146352893Y-45902893D01*
X139362893Y-35052893D02*
X139362893Y-33482893D01*
X151392893Y-40272893D02*
X150342893Y-39222893D01*
X133406493Y-57722892D02*
X132339293Y-57722892D01*
X150342893Y-39222893D02*
X149042893Y-39222893D01*
X133422093Y-57722892D02*
X140689293Y-57722892D01*
X139952893Y-51052893D02*
X144802893Y-51052893D01*
X132139293Y-56322892D02*
X132339292Y-56122893D01*
X132339292Y-56122893D02*
X133406493Y-56122893D01*
X141956493Y-53722893D02*
X147202893Y-53722893D01*
X139689294Y-52255692D02*
X139689294Y-51316492D01*
D54*
X82052500Y-113765000D02*
X83905000Y-113765000D01*
D51*
X79750000Y-123020000D02*
X84810000Y-123020000D01*
X76970000Y-47880000D02*
X76970000Y-49367500D01*
X85790000Y-116305000D02*
X85790000Y-107410000D01*
X73150000Y-46227500D02*
X73150000Y-61427500D01*
X75710000Y-35420000D02*
X79510000Y-35420000D01*
X72875000Y-85830000D02*
X72875000Y-82520000D01*
X68817143Y-125484546D02*
X69009643Y-125484546D01*
X84810000Y-121150000D02*
X84830000Y-121150000D01*
X89910000Y-126930000D02*
X98357143Y-126930000D01*
X67542500Y-85830000D02*
X65255000Y-85830000D01*
X67527143Y-127974546D02*
X66084643Y-127974546D01*
X100897143Y-126180000D02*
X100897143Y-128765455D01*
X87130000Y-39890000D02*
X88390000Y-39890000D01*
X79750000Y-121150000D02*
X77210000Y-121150000D01*
D54*
X81392500Y-111225000D02*
X81392500Y-118515000D01*
D51*
X64560000Y-75200000D02*
X64560000Y-75220000D01*
X70087143Y-127974546D02*
X70087143Y-117854546D01*
X80770000Y-47880000D02*
X80770000Y-36820000D01*
D54*
X99145000Y-111225000D02*
X102300000Y-111225000D01*
D51*
X80770000Y-36820000D02*
X84590000Y-36820000D01*
X64289643Y-127662046D02*
X64289643Y-127964546D01*
X69460000Y-75200000D02*
X64560000Y-75200000D01*
X94750000Y-63120000D02*
X94750000Y-51877500D01*
X79750000Y-128770000D02*
X79750000Y-126180000D01*
X77210000Y-115354546D02*
X77210000Y-121150000D01*
D54*
X101590000Y-108685000D02*
X101590000Y-96115000D01*
D51*
X84810000Y-123020000D02*
X84810000Y-121150000D01*
X73160000Y-34700000D02*
X73160000Y-44627500D01*
X61407143Y-117164546D02*
X61407143Y-125494546D01*
X66277143Y-120424546D02*
X66277143Y-122714546D01*
D54*
X101590000Y-96115000D02*
X104600000Y-96115000D01*
D51*
X68817143Y-120424546D02*
X66277143Y-120424546D01*
D54*
X99145000Y-116305000D02*
X106370000Y-116305000D01*
D51*
X73150000Y-61427500D02*
X69350000Y-61427500D01*
X77210000Y-121150000D02*
X77210000Y-128770000D01*
X76970000Y-77047500D02*
X76970000Y-75200000D01*
X66277143Y-125484546D02*
X66084643Y-125484546D01*
D54*
X99145000Y-108685000D02*
X101590000Y-108685000D01*
D51*
X98357143Y-121145455D02*
X98357143Y-124340000D01*
X61364643Y-127964546D02*
X61364643Y-129514546D01*
X78780000Y-109770000D02*
X78780000Y-111350000D01*
X78780000Y-99800000D02*
X78780000Y-99270000D01*
X76970000Y-32270000D02*
X76970000Y-34700000D01*
X61407143Y-125494546D02*
X61364643Y-125494546D01*
D54*
X82052500Y-117895000D02*
X82052500Y-113765000D01*
D51*
X98357143Y-124340000D02*
X92450000Y-124340000D01*
D50*
X140010000Y-89393699D02*
X138166300Y-87549999D01*
D51*
X71357143Y-122714546D02*
X71357143Y-121964546D01*
D54*
X116782500Y-119135000D02*
X80772500Y-119135000D01*
D51*
X98357143Y-126930000D02*
X98357143Y-128765455D01*
X66277143Y-119274546D02*
X64977143Y-119274546D01*
D54*
X83905000Y-111225000D02*
X81392500Y-111225000D01*
D51*
X99145000Y-84560000D02*
X99145000Y-83285000D01*
X63737143Y-125494546D02*
X64289643Y-125494546D01*
X66810000Y-60637500D02*
X66810000Y-63120000D01*
X74430000Y-50467500D02*
X74430000Y-47880000D01*
X75710000Y-45347500D02*
X75710000Y-35420000D01*
X64617500Y-82750000D02*
X61755000Y-82750000D01*
X70620000Y-44627500D02*
X70620000Y-60637500D01*
X79510000Y-77047500D02*
X79510000Y-74370000D01*
D54*
X102300000Y-98655000D02*
X104600000Y-98655000D01*
D51*
X61755000Y-82750000D02*
X61755000Y-84605000D01*
X69009643Y-125484546D02*
X67527143Y-125484546D01*
D54*
X102980000Y-113765000D02*
X102980000Y-101195000D01*
D51*
X74430000Y-79027500D02*
X89670000Y-79027500D01*
X97290000Y-53307500D02*
X101240000Y-53307500D01*
X84830000Y-125240000D02*
X84810000Y-125220000D01*
X63737143Y-122714546D02*
X63737143Y-125494546D01*
X85790000Y-107410000D02*
X78780000Y-107410000D01*
X87130000Y-37520000D02*
X83310000Y-37520000D01*
X79750000Y-126180000D02*
X100897143Y-126180000D01*
X84590000Y-36820000D02*
X84590000Y-32270000D01*
X70087143Y-117854546D02*
X74587143Y-117854546D01*
D50*
X138166300Y-82699999D02*
X141893701Y-78972598D01*
D51*
X79750000Y-121150000D02*
X79750000Y-123020000D01*
X64977143Y-119274546D02*
X64977143Y-120434546D01*
X88390000Y-50467500D02*
X74430000Y-50467500D01*
X61364643Y-129514546D02*
X72367143Y-129514546D01*
X83310000Y-37520000D02*
X83310000Y-47880000D01*
X66277143Y-115094546D02*
X66277143Y-119274546D01*
X83905000Y-116305000D02*
X85790000Y-116305000D01*
X61364643Y-127964546D02*
X61364643Y-125494546D01*
X68817143Y-122714546D02*
X68817143Y-125484546D01*
X99145000Y-85825000D02*
X99145000Y-84560000D01*
X83310000Y-47880000D02*
X84590000Y-47880000D01*
D54*
X80772500Y-119135000D02*
X80772500Y-108685000D01*
D51*
X79510000Y-47880000D02*
X80770000Y-47880000D01*
X78780000Y-111350000D02*
X71261689Y-111350000D01*
D54*
X102300000Y-111225000D02*
X102300000Y-98655000D01*
D51*
X82050000Y-32270000D02*
X82050000Y-36120000D01*
X69009643Y-127974546D02*
X70087143Y-127974546D01*
X76970000Y-49367500D02*
X85860000Y-49367500D01*
D54*
X116152500Y-118515000D02*
X116152500Y-98655000D01*
D50*
X141893701Y-78972598D02*
X143396300Y-78972598D01*
D51*
X79587143Y-115354546D02*
X77210000Y-115354546D01*
X79510000Y-74370000D02*
X63750000Y-74370000D01*
X62970000Y-73480000D02*
X82050000Y-73480000D01*
X65255000Y-111350000D02*
X65255000Y-108690000D01*
D54*
X116782500Y-96115000D02*
X116782500Y-119135000D01*
D51*
X66084643Y-125484546D02*
X66084643Y-125867046D01*
X92210000Y-50447500D02*
X101130000Y-50447500D01*
X74430000Y-42750000D02*
X74420000Y-42750000D01*
X85860000Y-49367500D02*
X85860000Y-38230000D01*
X70620000Y-60637500D02*
X66810000Y-60637500D01*
X89910000Y-128770000D02*
X89910000Y-126930000D01*
X71890000Y-45347500D02*
X75710000Y-45347500D01*
X66277143Y-122714546D02*
X66277143Y-125484546D01*
X74430000Y-77047500D02*
X74430000Y-79027500D01*
D54*
X87130000Y-72090000D02*
X87130000Y-77047500D01*
D51*
X85860000Y-38230000D02*
X89670000Y-38230000D01*
X78240000Y-36120000D02*
X78240000Y-46227500D01*
X71890000Y-47880000D02*
X71890000Y-45347500D01*
X74287143Y-123397046D02*
X74287143Y-125389546D01*
X87130000Y-32270000D02*
X87130000Y-37520000D01*
X94750000Y-51877500D02*
X101190000Y-51877500D01*
X97290000Y-63120000D02*
X97290000Y-53307500D01*
X67527143Y-125484546D02*
X67527143Y-127974546D01*
X97930000Y-125290000D02*
X87240000Y-125290000D01*
X74287143Y-125389546D02*
X72367143Y-125389546D01*
D54*
X99145000Y-113765000D02*
X102980000Y-113765000D01*
D51*
X69350000Y-61427500D02*
X69350000Y-63120000D01*
D54*
X116152500Y-98655000D02*
X114750000Y-98655000D01*
D51*
X80830000Y-82520000D02*
X80830000Y-84560000D01*
X82050000Y-36120000D02*
X78240000Y-36120000D01*
X79510000Y-35420000D02*
X79510000Y-32270000D01*
D50*
X140010000Y-91719999D02*
X140010000Y-89393699D01*
D51*
X71357143Y-121964546D02*
X77210000Y-121964546D01*
X71357143Y-111350000D02*
X71261689Y-111350000D01*
D54*
X106370000Y-116305000D02*
X106370000Y-103735000D01*
D51*
X72875000Y-82520000D02*
X80830000Y-82520000D01*
X67542500Y-82750000D02*
X67542500Y-85830000D01*
X76970000Y-75200000D02*
X69460000Y-75200000D01*
X98357143Y-124340000D02*
X111057143Y-124340000D01*
X92450000Y-124340000D02*
X92450000Y-121150000D01*
X72367143Y-129514546D02*
X72367143Y-127964546D01*
X92210000Y-63120000D02*
X92210000Y-50447500D01*
X82050000Y-73480000D02*
X82050000Y-77047500D01*
D54*
X80772500Y-108685000D02*
X83905000Y-108685000D01*
D51*
X78780000Y-107410000D02*
X78780000Y-106270000D01*
X68817143Y-115094546D02*
X68817143Y-120424546D01*
X71261689Y-111350000D02*
X65255000Y-111350000D01*
D54*
X106370000Y-103735000D02*
X104600000Y-103735000D01*
D51*
X76970000Y-34700000D02*
X73160000Y-34700000D01*
X103437143Y-128765455D02*
X103437143Y-125290000D01*
D54*
X81392500Y-118515000D02*
X116152500Y-118515000D01*
D51*
X88390000Y-39890000D02*
X88390000Y-50467500D01*
D54*
X114750000Y-117895000D02*
X82052500Y-117895000D01*
D51*
X66084643Y-125867046D02*
X64289643Y-127662046D01*
X77210000Y-121964546D02*
X77210000Y-121150000D01*
D50*
X138166300Y-86974999D02*
X138166300Y-82699999D01*
X78780000Y-84570000D02*
X78780000Y-109770000D01*
D51*
X84810000Y-125220000D02*
X84810000Y-123020000D01*
D54*
X100922500Y-93575000D02*
X104600000Y-93575000D01*
D51*
X89670000Y-38230000D02*
X89670000Y-32270000D01*
X78240000Y-46227500D02*
X73150000Y-46227500D01*
D54*
X114750000Y-96115000D02*
X116782500Y-96115000D01*
D51*
X111057143Y-124340000D02*
X111057143Y-128765455D01*
X89670000Y-79027500D02*
X89670000Y-77047500D01*
X73160000Y-44627500D02*
X70620000Y-44627500D01*
X74430000Y-39890000D02*
X74430000Y-42750000D01*
D54*
X100922500Y-106145000D02*
X100922500Y-93575000D01*
D51*
X103437143Y-125290000D02*
X97930000Y-125290000D01*
D54*
X99145000Y-106145000D02*
X100922500Y-106145000D01*
D51*
X71357143Y-115094546D02*
X71357143Y-111350000D01*
D50*
X138166300Y-87549999D02*
X138166300Y-86974999D01*
D54*
X114750000Y-106275000D02*
X114750000Y-117895000D01*
X102980000Y-101195000D02*
X104600000Y-101195000D01*
%TD*%
M02*
