%TF.GenerationSoftware,KiCad,Pcbnew,(6.0.5)*%
%TF.CreationDate,2023-08-07T17:40:20+03:00*%
%TF.ProjectId,JLC3,4a4c4333-2e6b-4696-9361-645f70636258,rev?*%
%TF.SameCoordinates,Original*%
%TF.FileFunction,Profile,NP*%
%FSLAX46Y46*%
G04 Gerber Fmt 4.6, Leading zero omitted, Abs format (unit mm)*
G04 Created by KiCad (PCBNEW (6.0.5)) date 2023-08-07 17:40:20*
%MOMM*%
%LPD*%
G01*
G04 APERTURE LIST*
%TA.AperFunction,Profile*%
%ADD10C,0.100000*%
%TD*%
G04 APERTURE END LIST*
D10*
X148180000Y-76070000D02*
X148180000Y-71070000D01*
X128180000Y-71070000D02*
X128180000Y-76070000D01*
X128180000Y-70410000D02*
X124840000Y-70405786D01*
X148180000Y-70410000D02*
X152842893Y-70402893D01*
X148180000Y-71070000D02*
X148180000Y-70410000D01*
X128180000Y-71070000D02*
X128180000Y-70410000D01*
X119837109Y-77259999D02*
X128180000Y-77260000D01*
X148180000Y-77260000D02*
X149802890Y-77259999D01*
X148180000Y-76070000D02*
X148180000Y-77260000D01*
X128180000Y-76070000D02*
X128180000Y-77260000D01*
X118830000Y-80900000D02*
X118830000Y-78257109D01*
X117837110Y-129402890D02*
X117837110Y-130400000D01*
X118830000Y-80900000D02*
X117830000Y-80900000D01*
X118837110Y-129402890D02*
X117837110Y-129402890D01*
X150802890Y-78259999D02*
X150802890Y-129402889D01*
X149802891Y-130402889D02*
X119837110Y-130402889D01*
X149802891Y-130402890D02*
G75*
G03*
X150802891Y-129402889I9J999991D01*
G01*
X150802891Y-78259999D02*
G75*
G03*
X149802890Y-77259999I-999991J9D01*
G01*
X119837109Y-77259998D02*
G75*
G03*
X118830000Y-78257109I-2916J-1004214D01*
G01*
X118837109Y-129402890D02*
G75*
G03*
X119837110Y-130402890I999991J-9D01*
G01*
X53840000Y-80900000D02*
X57445350Y-80900000D01*
X53830000Y-130400000D02*
X53830000Y-130312500D01*
X117840000Y-130400000D02*
X53830000Y-130400000D01*
X108829995Y-79892883D02*
X108829995Y-80900000D01*
X117840000Y-80900000D02*
X108829995Y-80900000D01*
X57445350Y-80900000D02*
X57450000Y-79900000D01*
X112840000Y-66401136D02*
X112840000Y-75885384D01*
X112840000Y-66401136D02*
X113840000Y-66405786D01*
X113840000Y-34410000D02*
X113840000Y-31400000D01*
X112840000Y-34405350D02*
X113840000Y-34410000D01*
X53833784Y-130312500D02*
X53840000Y-80900000D01*
X53839998Y-76300076D02*
G75*
G03*
X57450000Y-79900000I3610010J10100D01*
G01*
X108829995Y-79892899D02*
G75*
G03*
X112840000Y-75885384I2505J4007499D01*
G01*
X57439924Y-30390000D02*
G75*
G03*
X53840000Y-34000000I10090J-3610000D01*
G01*
X112839954Y-34405350D02*
G75*
G03*
X108832501Y-30395345I-4007454J2550D01*
G01*
X57439924Y-30390000D02*
X108832501Y-30395345D01*
X53840000Y-76300076D02*
X53840000Y-34000000D01*
X152842893Y-70402891D02*
G75*
G03*
X153842893Y-69402893I1J999999D01*
G01*
X133092893Y-42682893D02*
G75*
G03*
X133092893Y-42682893I-1500000J0D01*
G01*
X152845786Y-30400000D02*
X114840000Y-30400000D01*
X153845786Y-31400000D02*
G75*
G03*
X152845786Y-30400000I-999992J8D01*
G01*
X113840000Y-66405786D02*
G75*
G03*
X114840000Y-67405786I999994J-6D01*
G01*
X114840000Y-67405786D02*
X121839998Y-67402893D01*
X153842893Y-69402893D02*
X153845786Y-31400000D01*
X123840000Y-69405786D02*
G75*
G03*
X124840000Y-70405786I999994J-6D01*
G01*
X114840000Y-30399998D02*
G75*
G03*
X113840000Y-31400000I-6J-999994D01*
G01*
X123839995Y-69405786D02*
G75*
G03*
X121839998Y-67402893I-2002901J-6D01*
G01*
M02*
