%TF.GenerationSoftware,KiCad,Pcbnew,(6.0.5)*%
%TF.CreationDate,2023-08-07T17:40:20+03:00*%
%TF.ProjectId,JLC3,4a4c4333-2e6b-4696-9361-645f70636258,rev?*%
%TF.SameCoordinates,Original*%
%TF.FileFunction,Soldermask,Bot*%
%TF.FilePolarity,Negative*%
%FSLAX46Y46*%
G04 Gerber Fmt 4.6, Leading zero omitted, Abs format (unit mm)*
G04 Created by KiCad (PCBNEW (6.0.5)) date 2023-08-07 17:40:20*
%MOMM*%
%LPD*%
G01*
G04 APERTURE LIST*
%ADD10R,1.700000X1.700000*%
%ADD11O,1.700000X1.700000*%
%ADD12C,2.000000*%
%ADD13R,1.600000X2.400000*%
%ADD14O,1.600000X2.400000*%
%ADD15C,1.200000*%
%ADD16C,1.600000*%
%ADD17O,1.600000X1.600000*%
%ADD18R,1.800000X1.800000*%
%ADD19C,1.800000*%
%ADD20O,2.000000X2.000000*%
%ADD21O,2.400000X1.600000*%
%ADD22R,2.400000X1.600000*%
%ADD23C,1.560000*%
%ADD24R,1.560000X1.560000*%
%ADD25R,1.200000X1.200000*%
%ADD26R,2.000000X2.000000*%
%ADD27R,1.440000X2.000000*%
%ADD28O,1.440000X2.000000*%
%ADD29O,3.240000X2.720000*%
G04 APERTURE END LIST*
D10*
%TO.C,REF\u002A\u002A*%
X125280000Y-127859999D03*
D11*
X122740000Y-127859999D03*
X125280000Y-125319999D03*
X122740000Y-125319999D03*
X125280000Y-122779999D03*
X122740000Y-122779999D03*
%TD*%
D12*
%TO.C,REF\u002A\u002A*%
X132870000Y-98989999D03*
X132870000Y-105489999D03*
X128370000Y-98989999D03*
X128370000Y-105489999D03*
%TD*%
D13*
%TO.C,NE555*%
X140020000Y-107329999D03*
D14*
X142560000Y-107329999D03*
X145100000Y-107329999D03*
X147640000Y-107329999D03*
X147640000Y-99709999D03*
X145100000Y-99709999D03*
X142560000Y-99709999D03*
X140020000Y-99709999D03*
%TD*%
D15*
%TO.C,100nF*%
X144920000Y-94529999D03*
X144920000Y-97029999D03*
%TD*%
D16*
%TO.C,1M*%
X136520000Y-97049999D03*
D17*
X136520000Y-107209999D03*
%TD*%
D15*
%TO.C,100nF*%
X147670000Y-94529999D03*
X147670000Y-97029999D03*
%TD*%
D18*
%TO.C,ON*%
X120890000Y-117134999D03*
D19*
X123430000Y-117134999D03*
%TD*%
D18*
%TO.C,ON*%
X120915000Y-110509999D03*
D19*
X123455000Y-110509999D03*
%TD*%
D18*
%TO.C,MODE*%
X136140000Y-111359999D03*
D19*
X136140000Y-113859999D03*
X136140000Y-116359999D03*
X130140000Y-111359999D03*
X130140000Y-113859999D03*
X130140000Y-116359999D03*
%TD*%
D17*
%TO.C,220R*%
X126790000Y-108754999D03*
D16*
X126790000Y-118914999D03*
%TD*%
D20*
%TO.C,J2*%
X143169294Y-62558292D03*
X145709294Y-62558292D03*
X143169294Y-65098292D03*
X145709294Y-65098292D03*
X143169294Y-67638292D03*
X145709294Y-67638292D03*
%TD*%
%TO.C,J4*%
X118247893Y-39282893D03*
X118247893Y-36742893D03*
%TD*%
%TO.C,J3*%
X118247893Y-45432893D03*
X118247893Y-42892893D03*
%TD*%
D10*
%TO.C,REF\u002A\u002A*%
X95620000Y-33715000D03*
D11*
X98160000Y-33715000D03*
X100700000Y-33715000D03*
X103240000Y-33715000D03*
%TD*%
D13*
%TO.C,NE555*%
X140010000Y-91719999D03*
D14*
X142550000Y-91719999D03*
X145090000Y-91719999D03*
X147630000Y-91719999D03*
X147630000Y-84099999D03*
X145090000Y-84099999D03*
X142550000Y-84099999D03*
X140010000Y-84099999D03*
%TD*%
D21*
%TO.C,74LS574*%
X72875000Y-85830000D03*
X72875000Y-88370000D03*
X72875000Y-90910000D03*
X72875000Y-93450000D03*
X72875000Y-95990000D03*
X72875000Y-98530000D03*
X72875000Y-101070000D03*
X72875000Y-103610000D03*
X72875000Y-106150000D03*
X72875000Y-108690000D03*
X65255000Y-108690000D03*
X65255000Y-106150000D03*
X65255000Y-103610000D03*
X65255000Y-101070000D03*
X65255000Y-98530000D03*
X65255000Y-95990000D03*
X65255000Y-93450000D03*
X65255000Y-90910000D03*
X65255000Y-88370000D03*
D22*
X65255000Y-85830000D03*
%TD*%
D14*
%TO.C,74LS138*%
X98357143Y-121145455D03*
X100897143Y-121145455D03*
X103437143Y-121145455D03*
X105977143Y-121145455D03*
X108517143Y-121145455D03*
X111057143Y-121145455D03*
X113597143Y-121145455D03*
X116137143Y-121145455D03*
X116137143Y-128765455D03*
X113597143Y-128765455D03*
X111057143Y-128765455D03*
X108517143Y-128765455D03*
X105977143Y-128765455D03*
X103437143Y-128765455D03*
X100897143Y-128765455D03*
D13*
X98357143Y-128765455D03*
%TD*%
%TO.C,74LS00*%
X130195000Y-128529999D03*
D14*
X132735000Y-128529999D03*
X135275000Y-128529999D03*
X137815000Y-128529999D03*
X140355000Y-128529999D03*
X142895000Y-128529999D03*
X145435000Y-128529999D03*
X145435000Y-120909999D03*
X142895000Y-120909999D03*
X140355000Y-120909999D03*
X137815000Y-120909999D03*
X135275000Y-120909999D03*
X132735000Y-120909999D03*
X130195000Y-120909999D03*
%TD*%
D21*
%TO.C,28C64*%
X99145000Y-83285000D03*
X99145000Y-85825000D03*
X99145000Y-88365000D03*
X99145000Y-90905000D03*
X99145000Y-93445000D03*
X99145000Y-95985000D03*
X99145000Y-98525000D03*
X99145000Y-101065000D03*
X99145000Y-103605000D03*
X99145000Y-106145000D03*
X99145000Y-108685000D03*
X99145000Y-111225000D03*
X99145000Y-113765000D03*
X99145000Y-116305000D03*
X83905000Y-116305000D03*
X83905000Y-113765000D03*
X83905000Y-111225000D03*
X83905000Y-108685000D03*
X83905000Y-106145000D03*
X83905000Y-103605000D03*
X83905000Y-101065000D03*
X83905000Y-98525000D03*
X83905000Y-95985000D03*
X83905000Y-93445000D03*
X83905000Y-90905000D03*
X83905000Y-88365000D03*
X83905000Y-85825000D03*
D22*
X83905000Y-83285000D03*
%TD*%
D23*
%TO.C,1M*%
X74587143Y-112854546D03*
X79587143Y-115354546D03*
D24*
X74587143Y-117854546D03*
%TD*%
D18*
%TO.C,ON*%
X125485000Y-94139999D03*
D19*
X128025000Y-94139999D03*
%TD*%
D14*
%TO.C,74LS76*%
X94990000Y-128770000D03*
X92450000Y-128770000D03*
X89910000Y-128770000D03*
X87370000Y-128770000D03*
X84830000Y-128770000D03*
X82290000Y-128770000D03*
X79750000Y-128770000D03*
X77210000Y-128770000D03*
X77210000Y-121150000D03*
X79750000Y-121150000D03*
X82290000Y-121150000D03*
X84830000Y-121150000D03*
X87370000Y-121150000D03*
X89910000Y-121150000D03*
X92450000Y-121150000D03*
D13*
X94990000Y-121150000D03*
%TD*%
D10*
%TO.C,REF\u002A\u002A*%
X109565000Y-42810000D03*
D11*
X109565000Y-40270000D03*
X109565000Y-37730000D03*
X109565000Y-35190000D03*
%TD*%
D25*
%TO.C,1uF*%
X143396300Y-80972598D03*
D15*
X143396300Y-78972598D03*
%TD*%
D10*
%TO.C,D_IN*%
X58630000Y-117312500D03*
%TD*%
D16*
%TO.C,1K*%
X136410000Y-81939999D03*
D17*
X136410000Y-92099999D03*
%TD*%
D15*
%TO.C,100nF*%
X147646300Y-81349999D03*
X147646300Y-78849999D03*
%TD*%
D10*
%TO.C,SW2*%
X146977893Y-32182893D03*
D11*
X149517893Y-32182893D03*
X152057893Y-32182893D03*
%TD*%
D10*
%TO.C,U3*%
X133480393Y-33492893D03*
D11*
X130940393Y-33492893D03*
X128400393Y-33492893D03*
X125860393Y-33492893D03*
X123320393Y-33492893D03*
X120780393Y-33492893D03*
X118240393Y-33492893D03*
X115700393Y-33492893D03*
X115715393Y-48742893D03*
X118255393Y-48742893D03*
X120795393Y-48742893D03*
X123335393Y-48742893D03*
X125875393Y-48742893D03*
X128415393Y-48742893D03*
X130955393Y-48742893D03*
D10*
X133495393Y-48742893D03*
%TD*%
%TO.C,J8*%
X147652893Y-36232893D03*
%TD*%
D26*
%TO.C,J6*%
X138632893Y-67402893D03*
D20*
X136092893Y-67402893D03*
X133552893Y-67402893D03*
X131012893Y-67402893D03*
X128472893Y-67402893D03*
X125932893Y-67402893D03*
%TD*%
D26*
%TO.C,J1*%
X117014294Y-52413292D03*
D20*
X117014294Y-54953292D03*
X117014294Y-57493292D03*
X117014294Y-60033292D03*
X117014294Y-62573292D03*
X117014294Y-65113292D03*
%TD*%
D10*
%TO.C,J9*%
X151372893Y-36202893D03*
%TD*%
D12*
%TO.C,SW1*%
X127289294Y-55038292D03*
X127289294Y-61538292D03*
X122789294Y-61538292D03*
X122789294Y-55038292D03*
%TD*%
D20*
%TO.C,J5*%
X149747893Y-41027893D03*
X149747893Y-43567893D03*
X149747893Y-46107893D03*
X149747893Y-48647893D03*
X149747893Y-51187893D03*
X149747893Y-53727893D03*
X149747893Y-56267893D03*
X149747893Y-58807893D03*
X149747893Y-61347893D03*
X149747893Y-63887893D03*
%TD*%
D14*
%TO.C,NE555*%
X71357143Y-122714546D03*
X68817143Y-122714546D03*
X66277143Y-122714546D03*
X63737143Y-122714546D03*
X63737143Y-115094546D03*
X66277143Y-115094546D03*
X68817143Y-115094546D03*
D13*
X71357143Y-115094546D03*
%TD*%
D11*
%TO.C,BUS*%
X59225000Y-111225000D03*
X59225000Y-108685000D03*
X59225000Y-106145000D03*
X59225000Y-103605000D03*
X59225000Y-101065000D03*
X59225000Y-98525000D03*
X59225000Y-95985000D03*
X59225000Y-93445000D03*
X59225000Y-90905000D03*
D10*
X59225000Y-88365000D03*
%TD*%
D27*
%TO.C,EEPROM SOCKET*%
X66810000Y-63120000D03*
D28*
X69350000Y-63120000D03*
X71890000Y-63120000D03*
X74430000Y-63120000D03*
X76970000Y-63120000D03*
X79510000Y-63120000D03*
X82050000Y-63120000D03*
X84590000Y-63120000D03*
X87130000Y-63120000D03*
X89670000Y-63120000D03*
X92210000Y-63120000D03*
X94750000Y-63120000D03*
X97290000Y-63120000D03*
X99830000Y-63120000D03*
X99830000Y-47880000D03*
X97290000Y-47880000D03*
X94750000Y-47880000D03*
X92210000Y-47880000D03*
X89670000Y-47880000D03*
X87130000Y-47880000D03*
X84590000Y-47880000D03*
X82050000Y-47880000D03*
X79510000Y-47880000D03*
X76970000Y-47880000D03*
X74430000Y-47880000D03*
X71890000Y-47880000D03*
X69350000Y-47880000D03*
X66810000Y-47880000D03*
%TD*%
D29*
%TO.C,1M*%
X125375000Y-79519999D03*
X125375000Y-89119999D03*
D18*
X132875000Y-86819999D03*
D19*
X132875000Y-84319999D03*
X132875000Y-81819999D03*
%TD*%
D10*
%TO.C,REF\u002A\u002A*%
X109600000Y-46592500D03*
D11*
X109600000Y-49132500D03*
X109600000Y-51672500D03*
X109600000Y-54212500D03*
X109600000Y-56752500D03*
X109600000Y-59292500D03*
X109600000Y-61832500D03*
X109600000Y-64372500D03*
%TD*%
%TO.C,Mode*%
X56675000Y-84605000D03*
X59215000Y-84605000D03*
D10*
X61755000Y-84605000D03*
%TD*%
D13*
%TO.C,74HC595*%
X89670000Y-69427500D03*
D14*
X87130000Y-69427500D03*
X84590000Y-69427500D03*
X82050000Y-69427500D03*
X79510000Y-69427500D03*
X76970000Y-69427500D03*
X74430000Y-69427500D03*
X71890000Y-69427500D03*
X71890000Y-77047500D03*
X74430000Y-77047500D03*
X76970000Y-77047500D03*
X79510000Y-77047500D03*
X82050000Y-77047500D03*
X84590000Y-77047500D03*
X87130000Y-77047500D03*
X89670000Y-77047500D03*
%TD*%
D11*
%TO.C,BUS*%
X61775000Y-111235000D03*
X61775000Y-108695000D03*
X61775000Y-106155000D03*
X61775000Y-103615000D03*
X61775000Y-101075000D03*
X61775000Y-98535000D03*
X61775000Y-95995000D03*
X61775000Y-93455000D03*
X61775000Y-90915000D03*
D10*
X61775000Y-88375000D03*
%TD*%
D16*
%TO.C,100K*%
X132390000Y-94986299D03*
D17*
X142550000Y-94986299D03*
%TD*%
D13*
%TO.C,74HC595*%
X89670000Y-32270000D03*
D14*
X87130000Y-32270000D03*
X84590000Y-32270000D03*
X82050000Y-32270000D03*
X79510000Y-32270000D03*
X76970000Y-32270000D03*
X74430000Y-32270000D03*
X71890000Y-32270000D03*
X71890000Y-39890000D03*
X74430000Y-39890000D03*
X76970000Y-39890000D03*
X79510000Y-39890000D03*
X82050000Y-39890000D03*
X84590000Y-39890000D03*
X87130000Y-39890000D03*
X89670000Y-39890000D03*
%TD*%
D11*
%TO.C,REF\u002A\u002A*%
X104600000Y-106275000D03*
X104600000Y-103735000D03*
X104600000Y-101195000D03*
X104600000Y-98655000D03*
X104600000Y-96115000D03*
D10*
X104600000Y-93575000D03*
%TD*%
%TO.C,REF\u002A\u002A*%
X114750000Y-93575000D03*
D11*
X114750000Y-96115000D03*
X114750000Y-98655000D03*
X114750000Y-101195000D03*
X114750000Y-103735000D03*
X114750000Y-106275000D03*
%TD*%
D16*
%TO.C,220R*%
X121760000Y-102199999D03*
D17*
X121760000Y-92039999D03*
%TD*%
M02*
