%TF.GenerationSoftware,KiCad,Pcbnew,(6.0.5)*%
%TF.CreationDate,2023-08-07T17:40:20+03:00*%
%TF.ProjectId,JLC3,4a4c4333-2e6b-4696-9361-645f70636258,rev?*%
%TF.SameCoordinates,Original*%
%TF.FileFunction,Paste,Top*%
%TF.FilePolarity,Positive*%
%FSLAX46Y46*%
G04 Gerber Fmt 4.6, Leading zero omitted, Abs format (unit mm)*
G04 Created by KiCad (PCBNEW (6.0.5)) date 2023-08-07 17:40:20*
%MOMM*%
%LPD*%
G01*
G04 APERTURE LIST*
G04 Aperture macros list*
%AMRoundRect*
0 Rectangle with rounded corners*
0 $1 Rounding radius*
0 $2 $3 $4 $5 $6 $7 $8 $9 X,Y pos of 4 corners*
0 Add a 4 corners polygon primitive as box body*
4,1,4,$2,$3,$4,$5,$6,$7,$8,$9,$2,$3,0*
0 Add four circle primitives for the rounded corners*
1,1,$1+$1,$2,$3*
1,1,$1+$1,$4,$5*
1,1,$1+$1,$6,$7*
1,1,$1+$1,$8,$9*
0 Add four rect primitives between the rounded corners*
20,1,$1+$1,$2,$3,$4,$5,0*
20,1,$1+$1,$4,$5,$6,$7,0*
20,1,$1+$1,$6,$7,$8,$9,0*
20,1,$1+$1,$8,$9,$2,$3,0*%
G04 Aperture macros list end*
%ADD10RoundRect,0.250000X-0.312500X-0.625000X0.312500X-0.625000X0.312500X0.625000X-0.312500X0.625000X0*%
%ADD11R,1.550000X2.200000*%
%ADD12R,2.500000X2.200000*%
%ADD13R,0.400000X1.900000*%
%ADD14RoundRect,0.250000X0.475000X-0.250000X0.475000X0.250000X-0.475000X0.250000X-0.475000X-0.250000X0*%
%ADD15R,1.000000X1.500000*%
%ADD16R,1.000000X1.800000*%
%ADD17R,2.200000X3.700000*%
%ADD18R,1.422400X0.508000*%
%ADD19R,0.508000X1.422400*%
%ADD20R,2.200000X2.200000*%
%ADD21R,2.200000X1.250000*%
%ADD22RoundRect,0.250000X-0.250000X-0.475000X0.250000X-0.475000X0.250000X0.475000X-0.250000X0.475000X0*%
%ADD23RoundRect,0.250000X0.312500X0.625000X-0.312500X0.625000X-0.312500X-0.625000X0.312500X-0.625000X0*%
%ADD24R,2.200000X1.550000*%
%ADD25R,2.200000X2.500000*%
%ADD26R,1.250000X2.200000*%
%ADD27RoundRect,0.250000X0.625000X-0.312500X0.625000X0.312500X-0.625000X0.312500X-0.625000X-0.312500X0*%
G04 APERTURE END LIST*
D10*
%TO.C,100nF*%
X69507500Y-82722500D03*
X72432500Y-82722500D03*
%TD*%
%TO.C,1K*%
X69009643Y-127974546D03*
X66084643Y-127974546D03*
%TD*%
%TO.C,10nF*%
X64289643Y-125494546D03*
X61364643Y-125494546D03*
%TD*%
%TO.C,REF\u002A\u002A*%
X66127500Y-39470000D03*
X69052500Y-39470000D03*
%TD*%
D11*
%TO.C,REF\u002A\u002A*%
X76205000Y-102770000D03*
D12*
X78780000Y-102770000D03*
%TD*%
D11*
%TO.C,REF\u002A\u002A*%
X76205000Y-88070000D03*
D12*
X78780000Y-88070000D03*
%TD*%
D11*
%TO.C,REF\u002A\u002A*%
X76205000Y-91570000D03*
D12*
X78780000Y-91570000D03*
%TD*%
D13*
%TO.C,Y1*%
X131012893Y-62192893D03*
X132212893Y-62192893D03*
X133412893Y-62192893D03*
%TD*%
D14*
%TO.C,C1*%
X136592893Y-33242893D03*
X136592893Y-31342893D03*
%TD*%
D15*
%TO.C,U2*%
X139362893Y-35052893D03*
D16*
X137862893Y-35202893D03*
D17*
X137862893Y-37952893D03*
D15*
X136362893Y-35052893D03*
%TD*%
D18*
%TO.C,U1*%
X133422093Y-53722893D03*
X133422093Y-54522891D03*
X133422093Y-55322892D03*
X133422093Y-56122893D03*
X133422093Y-56922891D03*
X133422093Y-57722892D03*
X133422093Y-58522891D03*
X133422093Y-59322891D03*
D19*
X134889294Y-60790092D03*
X135689292Y-60790092D03*
X136489293Y-60790092D03*
X137289294Y-60790092D03*
X138089292Y-60790092D03*
X138889293Y-60790092D03*
X139689292Y-60790092D03*
X140489292Y-60790092D03*
D18*
X141956493Y-59322891D03*
X141956493Y-58522893D03*
X141956493Y-57722892D03*
X141956493Y-56922891D03*
X141956493Y-56122893D03*
X141956493Y-55322892D03*
X141956493Y-54522893D03*
X141956493Y-53722893D03*
D19*
X140489292Y-52255692D03*
X139689294Y-52255692D03*
X138889293Y-52255692D03*
X138089292Y-52255692D03*
X137289294Y-52255692D03*
X136489293Y-52255692D03*
X135689294Y-52255692D03*
X134889294Y-52255692D03*
%TD*%
D20*
%TO.C,D1*%
X143002893Y-32082893D03*
D21*
X143002893Y-34357893D03*
%TD*%
D22*
%TO.C,C3*%
X124902893Y-64372893D03*
X126802893Y-64372893D03*
%TD*%
D10*
%TO.C,R1*%
X138640393Y-48132893D03*
X141565393Y-48132893D03*
%TD*%
D14*
%TO.C,C2*%
X139122893Y-33242893D03*
X139122893Y-31342893D03*
%TD*%
D23*
%TO.C,R2*%
X144945393Y-36882893D03*
X142020393Y-36882893D03*
%TD*%
D24*
%TO.C,CLK*%
X72367143Y-125389546D03*
D25*
X72367143Y-127964546D03*
%TD*%
D11*
%TO.C,REF\u002A\u002A*%
X76205000Y-106270000D03*
D12*
X78780000Y-106270000D03*
%TD*%
D10*
%TO.C,10k*%
X67542500Y-82750000D03*
X64617500Y-82750000D03*
%TD*%
D20*
%TO.C,REF\u002A\u002A*%
X68402500Y-36487500D03*
D26*
X66127500Y-36487500D03*
%TD*%
D10*
%TO.C,100K*%
X69009643Y-125484546D03*
X66084643Y-125484546D03*
%TD*%
D27*
%TO.C,1K*%
X74287143Y-120472046D03*
X74287143Y-123397046D03*
%TD*%
D11*
%TO.C,REF\u002A\u002A*%
X76205000Y-99270000D03*
D12*
X78780000Y-99270000D03*
%TD*%
D11*
%TO.C,REF\u002A\u002A*%
X76205000Y-84570000D03*
D12*
X78780000Y-84570000D03*
%TD*%
D11*
%TO.C,REF\u002A\u002A*%
X76205000Y-109770000D03*
D12*
X78780000Y-109770000D03*
%TD*%
D10*
%TO.C,10nF*%
X64289643Y-127964546D03*
X61364643Y-127964546D03*
%TD*%
D11*
%TO.C,REF\u002A\u002A*%
X76205000Y-95070000D03*
D12*
X78780000Y-95070000D03*
%TD*%
M02*
