%TF.GenerationSoftware,KiCad,Pcbnew,(6.0.5)*%
%TF.CreationDate,2023-08-07T17:40:20+03:00*%
%TF.ProjectId,JLC3,4a4c4333-2e6b-4696-9361-645f70636258,rev?*%
%TF.SameCoordinates,Original*%
%TF.FileFunction,Soldermask,Top*%
%TF.FilePolarity,Negative*%
%FSLAX46Y46*%
G04 Gerber Fmt 4.6, Leading zero omitted, Abs format (unit mm)*
G04 Created by KiCad (PCBNEW (6.0.5)) date 2023-08-07 17:40:20*
%MOMM*%
%LPD*%
G01*
G04 APERTURE LIST*
G04 Aperture macros list*
%AMRoundRect*
0 Rectangle with rounded corners*
0 $1 Rounding radius*
0 $2 $3 $4 $5 $6 $7 $8 $9 X,Y pos of 4 corners*
0 Add a 4 corners polygon primitive as box body*
4,1,4,$2,$3,$4,$5,$6,$7,$8,$9,$2,$3,0*
0 Add four circle primitives for the rounded corners*
1,1,$1+$1,$2,$3*
1,1,$1+$1,$4,$5*
1,1,$1+$1,$6,$7*
1,1,$1+$1,$8,$9*
0 Add four rect primitives between the rounded corners*
20,1,$1+$1,$2,$3,$4,$5,0*
20,1,$1+$1,$4,$5,$6,$7,0*
20,1,$1+$1,$6,$7,$8,$9,0*
20,1,$1+$1,$8,$9,$2,$3,0*%
G04 Aperture macros list end*
%ADD10R,1.700000X1.700000*%
%ADD11O,1.700000X1.700000*%
%ADD12C,2.000000*%
%ADD13R,1.600000X2.400000*%
%ADD14O,1.600000X2.400000*%
%ADD15C,1.200000*%
%ADD16C,1.600000*%
%ADD17O,1.600000X1.600000*%
%ADD18R,1.800000X1.800000*%
%ADD19C,1.800000*%
%ADD20RoundRect,0.250000X-0.312500X-0.625000X0.312500X-0.625000X0.312500X0.625000X-0.312500X0.625000X0*%
%ADD21O,2.000000X2.000000*%
%ADD22O,2.400000X1.600000*%
%ADD23R,2.400000X1.600000*%
%ADD24C,1.560000*%
%ADD25R,1.560000X1.560000*%
%ADD26R,1.550000X2.200000*%
%ADD27R,2.500000X2.200000*%
%ADD28R,1.200000X1.200000*%
%ADD29R,0.400000X1.900000*%
%ADD30RoundRect,0.250000X0.475000X-0.250000X0.475000X0.250000X-0.475000X0.250000X-0.475000X-0.250000X0*%
%ADD31R,1.000000X1.500000*%
%ADD32R,1.000000X1.800000*%
%ADD33R,2.200000X3.700000*%
%ADD34R,2.000000X2.000000*%
%ADD35R,1.422400X0.508000*%
%ADD36R,0.508000X1.422400*%
%ADD37R,2.200000X2.200000*%
%ADD38R,2.200000X1.250000*%
%ADD39RoundRect,0.250000X-0.250000X-0.475000X0.250000X-0.475000X0.250000X0.475000X-0.250000X0.475000X0*%
%ADD40RoundRect,0.250000X0.312500X0.625000X-0.312500X0.625000X-0.312500X-0.625000X0.312500X-0.625000X0*%
%ADD41R,2.200000X1.550000*%
%ADD42R,2.200000X2.500000*%
%ADD43R,1.440000X2.000000*%
%ADD44O,1.440000X2.000000*%
%ADD45R,1.250000X2.200000*%
%ADD46O,3.240000X2.720000*%
%ADD47RoundRect,0.250000X0.625000X-0.312500X0.625000X0.312500X-0.625000X0.312500X-0.625000X-0.312500X0*%
G04 APERTURE END LIST*
D10*
%TO.C,REF\u002A\u002A*%
X125280000Y-127859999D03*
D11*
X122740000Y-127859999D03*
X125280000Y-125319999D03*
X122740000Y-125319999D03*
X125280000Y-122779999D03*
X122740000Y-122779999D03*
%TD*%
D12*
%TO.C,REF\u002A\u002A*%
X132870000Y-98989999D03*
X132870000Y-105489999D03*
X128370000Y-98989999D03*
X128370000Y-105489999D03*
%TD*%
D13*
%TO.C,NE555*%
X140020000Y-107329999D03*
D14*
X142560000Y-107329999D03*
X145100000Y-107329999D03*
X147640000Y-107329999D03*
X147640000Y-99709999D03*
X145100000Y-99709999D03*
X142560000Y-99709999D03*
X140020000Y-99709999D03*
%TD*%
D15*
%TO.C,100nF*%
X144920000Y-94529999D03*
X144920000Y-97029999D03*
%TD*%
D16*
%TO.C,1M*%
X136520000Y-97049999D03*
D17*
X136520000Y-107209999D03*
%TD*%
D15*
%TO.C,100nF*%
X147670000Y-94529999D03*
X147670000Y-97029999D03*
%TD*%
D18*
%TO.C,ON*%
X120890000Y-117134999D03*
D19*
X123430000Y-117134999D03*
%TD*%
D18*
%TO.C,ON*%
X120915000Y-110509999D03*
D19*
X123455000Y-110509999D03*
%TD*%
D18*
%TO.C,MODE*%
X136140000Y-111359999D03*
D19*
X136140000Y-113859999D03*
X136140000Y-116359999D03*
X130140000Y-111359999D03*
X130140000Y-113859999D03*
X130140000Y-116359999D03*
%TD*%
D17*
%TO.C,220R*%
X126790000Y-108754999D03*
D16*
X126790000Y-118914999D03*
%TD*%
D20*
%TO.C,100nF*%
X69507500Y-82722500D03*
X72432500Y-82722500D03*
%TD*%
D21*
%TO.C,J2*%
X143169294Y-62558292D03*
X145709294Y-62558292D03*
X143169294Y-65098292D03*
X145709294Y-65098292D03*
X143169294Y-67638292D03*
X145709294Y-67638292D03*
%TD*%
%TO.C,J4*%
X118247893Y-39282893D03*
X118247893Y-36742893D03*
%TD*%
%TO.C,J3*%
X118247893Y-45432893D03*
X118247893Y-42892893D03*
%TD*%
D10*
%TO.C,REF\u002A\u002A*%
X95620000Y-33715000D03*
D11*
X98160000Y-33715000D03*
X100700000Y-33715000D03*
X103240000Y-33715000D03*
%TD*%
D13*
%TO.C,NE555*%
X140010000Y-91719999D03*
D14*
X142550000Y-91719999D03*
X145090000Y-91719999D03*
X147630000Y-91719999D03*
X147630000Y-84099999D03*
X145090000Y-84099999D03*
X142550000Y-84099999D03*
X140010000Y-84099999D03*
%TD*%
D22*
%TO.C,74LS574*%
X72875000Y-85830000D03*
X72875000Y-88370000D03*
X72875000Y-90910000D03*
X72875000Y-93450000D03*
X72875000Y-95990000D03*
X72875000Y-98530000D03*
X72875000Y-101070000D03*
X72875000Y-103610000D03*
X72875000Y-106150000D03*
X72875000Y-108690000D03*
X65255000Y-108690000D03*
X65255000Y-106150000D03*
X65255000Y-103610000D03*
X65255000Y-101070000D03*
X65255000Y-98530000D03*
X65255000Y-95990000D03*
X65255000Y-93450000D03*
X65255000Y-90910000D03*
X65255000Y-88370000D03*
D23*
X65255000Y-85830000D03*
%TD*%
D14*
%TO.C,74LS138*%
X98357143Y-121145455D03*
X100897143Y-121145455D03*
X103437143Y-121145455D03*
X105977143Y-121145455D03*
X108517143Y-121145455D03*
X111057143Y-121145455D03*
X113597143Y-121145455D03*
X116137143Y-121145455D03*
X116137143Y-128765455D03*
X113597143Y-128765455D03*
X111057143Y-128765455D03*
X108517143Y-128765455D03*
X105977143Y-128765455D03*
X103437143Y-128765455D03*
X100897143Y-128765455D03*
D13*
X98357143Y-128765455D03*
%TD*%
%TO.C,74LS00*%
X130195000Y-128529999D03*
D14*
X132735000Y-128529999D03*
X135275000Y-128529999D03*
X137815000Y-128529999D03*
X140355000Y-128529999D03*
X142895000Y-128529999D03*
X145435000Y-128529999D03*
X145435000Y-120909999D03*
X142895000Y-120909999D03*
X140355000Y-120909999D03*
X137815000Y-120909999D03*
X135275000Y-120909999D03*
X132735000Y-120909999D03*
X130195000Y-120909999D03*
%TD*%
D20*
%TO.C,1K*%
X69009643Y-127974546D03*
X66084643Y-127974546D03*
%TD*%
D22*
%TO.C,28C64*%
X99145000Y-83285000D03*
X99145000Y-85825000D03*
X99145000Y-88365000D03*
X99145000Y-90905000D03*
X99145000Y-93445000D03*
X99145000Y-95985000D03*
X99145000Y-98525000D03*
X99145000Y-101065000D03*
X99145000Y-103605000D03*
X99145000Y-106145000D03*
X99145000Y-108685000D03*
X99145000Y-111225000D03*
X99145000Y-113765000D03*
X99145000Y-116305000D03*
X83905000Y-116305000D03*
X83905000Y-113765000D03*
X83905000Y-111225000D03*
X83905000Y-108685000D03*
X83905000Y-106145000D03*
X83905000Y-103605000D03*
X83905000Y-101065000D03*
X83905000Y-98525000D03*
X83905000Y-95985000D03*
X83905000Y-93445000D03*
X83905000Y-90905000D03*
X83905000Y-88365000D03*
X83905000Y-85825000D03*
D23*
X83905000Y-83285000D03*
%TD*%
D24*
%TO.C,1M*%
X74587143Y-112854546D03*
X79587143Y-115354546D03*
D25*
X74587143Y-117854546D03*
%TD*%
D18*
%TO.C,ON*%
X125485000Y-94139999D03*
D19*
X128025000Y-94139999D03*
%TD*%
D20*
%TO.C,10nF*%
X64289643Y-125494546D03*
X61364643Y-125494546D03*
%TD*%
%TO.C,REF\u002A\u002A*%
X66127500Y-39470000D03*
X69052500Y-39470000D03*
%TD*%
D14*
%TO.C,74LS76*%
X94990000Y-128770000D03*
X92450000Y-128770000D03*
X89910000Y-128770000D03*
X87370000Y-128770000D03*
X84830000Y-128770000D03*
X82290000Y-128770000D03*
X79750000Y-128770000D03*
X77210000Y-128770000D03*
X77210000Y-121150000D03*
X79750000Y-121150000D03*
X82290000Y-121150000D03*
X84830000Y-121150000D03*
X87370000Y-121150000D03*
X89910000Y-121150000D03*
X92450000Y-121150000D03*
D13*
X94990000Y-121150000D03*
%TD*%
D10*
%TO.C,REF\u002A\u002A*%
X109565000Y-42810000D03*
D11*
X109565000Y-40270000D03*
X109565000Y-37730000D03*
X109565000Y-35190000D03*
%TD*%
D26*
%TO.C,REF\u002A\u002A*%
X76205000Y-102770000D03*
D27*
X78780000Y-102770000D03*
%TD*%
D28*
%TO.C,1uF*%
X143396300Y-80972598D03*
D15*
X143396300Y-78972598D03*
%TD*%
D10*
%TO.C,D_IN*%
X58630000Y-117312500D03*
%TD*%
D16*
%TO.C,1K*%
X136410000Y-81939999D03*
D17*
X136410000Y-92099999D03*
%TD*%
D26*
%TO.C,REF\u002A\u002A*%
X76205000Y-88070000D03*
D27*
X78780000Y-88070000D03*
%TD*%
D15*
%TO.C,100nF*%
X147646300Y-81349999D03*
X147646300Y-78849999D03*
%TD*%
D26*
%TO.C,REF\u002A\u002A*%
X76205000Y-91570000D03*
D27*
X78780000Y-91570000D03*
%TD*%
D29*
%TO.C,Y1*%
X131012893Y-62192893D03*
X132212893Y-62192893D03*
X133412893Y-62192893D03*
%TD*%
D10*
%TO.C,SW2*%
X146977893Y-32182893D03*
D11*
X149517893Y-32182893D03*
X152057893Y-32182893D03*
%TD*%
D10*
%TO.C,U3*%
X133480393Y-33492893D03*
D11*
X130940393Y-33492893D03*
X128400393Y-33492893D03*
X125860393Y-33492893D03*
X123320393Y-33492893D03*
X120780393Y-33492893D03*
X118240393Y-33492893D03*
X115700393Y-33492893D03*
X115715393Y-48742893D03*
X118255393Y-48742893D03*
X120795393Y-48742893D03*
X123335393Y-48742893D03*
X125875393Y-48742893D03*
X128415393Y-48742893D03*
X130955393Y-48742893D03*
D10*
X133495393Y-48742893D03*
%TD*%
D30*
%TO.C,C1*%
X136592893Y-33242893D03*
X136592893Y-31342893D03*
%TD*%
D10*
%TO.C,J8*%
X147652893Y-36232893D03*
%TD*%
D31*
%TO.C,U2*%
X139362893Y-35052893D03*
D32*
X137862893Y-35202893D03*
D33*
X137862893Y-37952893D03*
D31*
X136362893Y-35052893D03*
%TD*%
D34*
%TO.C,J6*%
X138632893Y-67402893D03*
D21*
X136092893Y-67402893D03*
X133552893Y-67402893D03*
X131012893Y-67402893D03*
X128472893Y-67402893D03*
X125932893Y-67402893D03*
%TD*%
D34*
%TO.C,J1*%
X117014294Y-52413292D03*
D21*
X117014294Y-54953292D03*
X117014294Y-57493292D03*
X117014294Y-60033292D03*
X117014294Y-62573292D03*
X117014294Y-65113292D03*
%TD*%
D10*
%TO.C,J9*%
X151372893Y-36202893D03*
%TD*%
D12*
%TO.C,SW1*%
X127289294Y-55038292D03*
X127289294Y-61538292D03*
X122789294Y-61538292D03*
X122789294Y-55038292D03*
%TD*%
D21*
%TO.C,J5*%
X149747893Y-41027893D03*
X149747893Y-43567893D03*
X149747893Y-46107893D03*
X149747893Y-48647893D03*
X149747893Y-51187893D03*
X149747893Y-53727893D03*
X149747893Y-56267893D03*
X149747893Y-58807893D03*
X149747893Y-61347893D03*
X149747893Y-63887893D03*
%TD*%
D35*
%TO.C,U1*%
X133422093Y-53722893D03*
X133422093Y-54522891D03*
X133422093Y-55322892D03*
X133422093Y-56122893D03*
X133422093Y-56922891D03*
X133422093Y-57722892D03*
X133422093Y-58522891D03*
X133422093Y-59322891D03*
D36*
X134889294Y-60790092D03*
X135689292Y-60790092D03*
X136489293Y-60790092D03*
X137289294Y-60790092D03*
X138089292Y-60790092D03*
X138889293Y-60790092D03*
X139689292Y-60790092D03*
X140489292Y-60790092D03*
D35*
X141956493Y-59322891D03*
X141956493Y-58522893D03*
X141956493Y-57722892D03*
X141956493Y-56922891D03*
X141956493Y-56122893D03*
X141956493Y-55322892D03*
X141956493Y-54522893D03*
X141956493Y-53722893D03*
D36*
X140489292Y-52255692D03*
X139689294Y-52255692D03*
X138889293Y-52255692D03*
X138089292Y-52255692D03*
X137289294Y-52255692D03*
X136489293Y-52255692D03*
X135689294Y-52255692D03*
X134889294Y-52255692D03*
%TD*%
D37*
%TO.C,D1*%
X143002893Y-32082893D03*
D38*
X143002893Y-34357893D03*
%TD*%
D39*
%TO.C,C3*%
X124902893Y-64372893D03*
X126802893Y-64372893D03*
%TD*%
D20*
%TO.C,R1*%
X138640393Y-48132893D03*
X141565393Y-48132893D03*
%TD*%
D30*
%TO.C,C2*%
X139122893Y-33242893D03*
X139122893Y-31342893D03*
%TD*%
D40*
%TO.C,R2*%
X144945393Y-36882893D03*
X142020393Y-36882893D03*
%TD*%
D14*
%TO.C,NE555*%
X71357143Y-122714546D03*
X68817143Y-122714546D03*
X66277143Y-122714546D03*
X63737143Y-122714546D03*
X63737143Y-115094546D03*
X66277143Y-115094546D03*
X68817143Y-115094546D03*
D13*
X71357143Y-115094546D03*
%TD*%
D11*
%TO.C,BUS*%
X59225000Y-111225000D03*
X59225000Y-108685000D03*
X59225000Y-106145000D03*
X59225000Y-103605000D03*
X59225000Y-101065000D03*
X59225000Y-98525000D03*
X59225000Y-95985000D03*
X59225000Y-93445000D03*
X59225000Y-90905000D03*
D10*
X59225000Y-88365000D03*
%TD*%
D41*
%TO.C,CLK*%
X72367143Y-125389546D03*
D42*
X72367143Y-127964546D03*
%TD*%
D43*
%TO.C,EEPROM SOCKET*%
X66810000Y-63120000D03*
D44*
X69350000Y-63120000D03*
X71890000Y-63120000D03*
X74430000Y-63120000D03*
X76970000Y-63120000D03*
X79510000Y-63120000D03*
X82050000Y-63120000D03*
X84590000Y-63120000D03*
X87130000Y-63120000D03*
X89670000Y-63120000D03*
X92210000Y-63120000D03*
X94750000Y-63120000D03*
X97290000Y-63120000D03*
X99830000Y-63120000D03*
X99830000Y-47880000D03*
X97290000Y-47880000D03*
X94750000Y-47880000D03*
X92210000Y-47880000D03*
X89670000Y-47880000D03*
X87130000Y-47880000D03*
X84590000Y-47880000D03*
X82050000Y-47880000D03*
X79510000Y-47880000D03*
X76970000Y-47880000D03*
X74430000Y-47880000D03*
X71890000Y-47880000D03*
X69350000Y-47880000D03*
X66810000Y-47880000D03*
%TD*%
D26*
%TO.C,REF\u002A\u002A*%
X76205000Y-106270000D03*
D27*
X78780000Y-106270000D03*
%TD*%
D20*
%TO.C,10k*%
X67542500Y-82750000D03*
X64617500Y-82750000D03*
%TD*%
D37*
%TO.C,REF\u002A\u002A*%
X68402500Y-36487500D03*
D45*
X66127500Y-36487500D03*
%TD*%
D46*
%TO.C,1M*%
X125375000Y-79519999D03*
X125375000Y-89119999D03*
D18*
X132875000Y-86819999D03*
D19*
X132875000Y-84319999D03*
X132875000Y-81819999D03*
%TD*%
D20*
%TO.C,100K*%
X69009643Y-125484546D03*
X66084643Y-125484546D03*
%TD*%
D10*
%TO.C,REF\u002A\u002A*%
X109600000Y-46592500D03*
D11*
X109600000Y-49132500D03*
X109600000Y-51672500D03*
X109600000Y-54212500D03*
X109600000Y-56752500D03*
X109600000Y-59292500D03*
X109600000Y-61832500D03*
X109600000Y-64372500D03*
%TD*%
D47*
%TO.C,1K*%
X74287143Y-120472046D03*
X74287143Y-123397046D03*
%TD*%
D11*
%TO.C,Mode*%
X56675000Y-84605000D03*
X59215000Y-84605000D03*
D10*
X61755000Y-84605000D03*
%TD*%
D13*
%TO.C,74HC595*%
X89670000Y-69427500D03*
D14*
X87130000Y-69427500D03*
X84590000Y-69427500D03*
X82050000Y-69427500D03*
X79510000Y-69427500D03*
X76970000Y-69427500D03*
X74430000Y-69427500D03*
X71890000Y-69427500D03*
X71890000Y-77047500D03*
X74430000Y-77047500D03*
X76970000Y-77047500D03*
X79510000Y-77047500D03*
X82050000Y-77047500D03*
X84590000Y-77047500D03*
X87130000Y-77047500D03*
X89670000Y-77047500D03*
%TD*%
D11*
%TO.C,BUS*%
X61775000Y-111235000D03*
X61775000Y-108695000D03*
X61775000Y-106155000D03*
X61775000Y-103615000D03*
X61775000Y-101075000D03*
X61775000Y-98535000D03*
X61775000Y-95995000D03*
X61775000Y-93455000D03*
X61775000Y-90915000D03*
D10*
X61775000Y-88375000D03*
%TD*%
D16*
%TO.C,100K*%
X132390000Y-94986299D03*
D17*
X142550000Y-94986299D03*
%TD*%
D26*
%TO.C,REF\u002A\u002A*%
X76205000Y-99270000D03*
D27*
X78780000Y-99270000D03*
%TD*%
D26*
%TO.C,REF\u002A\u002A*%
X76205000Y-84570000D03*
D27*
X78780000Y-84570000D03*
%TD*%
D26*
%TO.C,REF\u002A\u002A*%
X76205000Y-109770000D03*
D27*
X78780000Y-109770000D03*
%TD*%
D13*
%TO.C,74HC595*%
X89670000Y-32270000D03*
D14*
X87130000Y-32270000D03*
X84590000Y-32270000D03*
X82050000Y-32270000D03*
X79510000Y-32270000D03*
X76970000Y-32270000D03*
X74430000Y-32270000D03*
X71890000Y-32270000D03*
X71890000Y-39890000D03*
X74430000Y-39890000D03*
X76970000Y-39890000D03*
X79510000Y-39890000D03*
X82050000Y-39890000D03*
X84590000Y-39890000D03*
X87130000Y-39890000D03*
X89670000Y-39890000D03*
%TD*%
D11*
%TO.C,REF\u002A\u002A*%
X104600000Y-106275000D03*
X104600000Y-103735000D03*
X104600000Y-101195000D03*
X104600000Y-98655000D03*
X104600000Y-96115000D03*
D10*
X104600000Y-93575000D03*
%TD*%
%TO.C,REF\u002A\u002A*%
X114750000Y-93575000D03*
D11*
X114750000Y-96115000D03*
X114750000Y-98655000D03*
X114750000Y-101195000D03*
X114750000Y-103735000D03*
X114750000Y-106275000D03*
%TD*%
D20*
%TO.C,10nF*%
X64289643Y-127964546D03*
X61364643Y-127964546D03*
%TD*%
D26*
%TO.C,REF\u002A\u002A*%
X76205000Y-95070000D03*
D27*
X78780000Y-95070000D03*
%TD*%
D16*
%TO.C,220R*%
X121760000Y-102199999D03*
D17*
X121760000Y-92039999D03*
%TD*%
M02*
