%TF.GenerationSoftware,KiCad,Pcbnew,(6.0.5)*%
%TF.CreationDate,2023-08-07T17:40:20+03:00*%
%TF.ProjectId,JLC3,4a4c4333-2e6b-4696-9361-645f70636258,rev?*%
%TF.SameCoordinates,Original*%
%TF.FileFunction,Copper,L2,Bot*%
%TF.FilePolarity,Positive*%
%FSLAX46Y46*%
G04 Gerber Fmt 4.6, Leading zero omitted, Abs format (unit mm)*
G04 Created by KiCad (PCBNEW (6.0.5)) date 2023-08-07 17:40:20*
%MOMM*%
%LPD*%
G01*
G04 APERTURE LIST*
%TA.AperFunction,ComponentPad*%
%ADD10R,1.700000X1.700000*%
%TD*%
%TA.AperFunction,ComponentPad*%
%ADD11O,1.700000X1.700000*%
%TD*%
%TA.AperFunction,ComponentPad*%
%ADD12C,2.000000*%
%TD*%
%TA.AperFunction,ComponentPad*%
%ADD13R,1.600000X2.400000*%
%TD*%
%TA.AperFunction,ComponentPad*%
%ADD14O,1.600000X2.400000*%
%TD*%
%TA.AperFunction,ComponentPad*%
%ADD15C,1.200000*%
%TD*%
%TA.AperFunction,ComponentPad*%
%ADD16C,1.600000*%
%TD*%
%TA.AperFunction,ComponentPad*%
%ADD17O,1.600000X1.600000*%
%TD*%
%TA.AperFunction,ComponentPad*%
%ADD18R,1.800000X1.800000*%
%TD*%
%TA.AperFunction,ComponentPad*%
%ADD19C,1.800000*%
%TD*%
%TA.AperFunction,ComponentPad*%
%ADD20O,2.000000X2.000000*%
%TD*%
%TA.AperFunction,ComponentPad*%
%ADD21O,2.400000X1.600000*%
%TD*%
%TA.AperFunction,ComponentPad*%
%ADD22R,2.400000X1.600000*%
%TD*%
%TA.AperFunction,ComponentPad*%
%ADD23C,1.560000*%
%TD*%
%TA.AperFunction,ComponentPad*%
%ADD24R,1.560000X1.560000*%
%TD*%
%TA.AperFunction,ComponentPad*%
%ADD25R,1.200000X1.200000*%
%TD*%
%TA.AperFunction,ComponentPad*%
%ADD26R,2.000000X2.000000*%
%TD*%
%TA.AperFunction,ComponentPad*%
%ADD27R,1.440000X2.000000*%
%TD*%
%TA.AperFunction,ComponentPad*%
%ADD28O,1.440000X2.000000*%
%TD*%
%TA.AperFunction,ComponentPad*%
%ADD29O,3.240000X2.720000*%
%TD*%
%TA.AperFunction,ViaPad*%
%ADD30C,0.800000*%
%TD*%
%TA.AperFunction,ViaPad*%
%ADD31C,0.600000*%
%TD*%
%TA.AperFunction,Conductor*%
%ADD32C,1.000000*%
%TD*%
%TA.AperFunction,Conductor*%
%ADD33C,1.500000*%
%TD*%
%TA.AperFunction,Conductor*%
%ADD34C,0.500000*%
%TD*%
%TA.AperFunction,Conductor*%
%ADD35C,0.390000*%
%TD*%
G04 APERTURE END LIST*
D10*
%TO.P,REF\u002A\u002A,1*%
%TO.N,N/C*%
X125280000Y-127859999D03*
D11*
%TO.P,REF\u002A\u002A,2*%
X122740000Y-127859999D03*
%TO.P,REF\u002A\u002A,3*%
X125280000Y-125319999D03*
%TO.P,REF\u002A\u002A,4*%
X122740000Y-125319999D03*
%TO.P,REF\u002A\u002A,5*%
X125280000Y-122779999D03*
%TO.P,REF\u002A\u002A,6*%
X122740000Y-122779999D03*
%TD*%
D12*
%TO.P,REF\u002A\u002A,1*%
%TO.N,N/C*%
X132870000Y-98989999D03*
X132870000Y-105489999D03*
%TO.P,REF\u002A\u002A,2*%
X128370000Y-98989999D03*
X128370000Y-105489999D03*
%TD*%
D13*
%TO.P,NE555,1*%
%TO.N,N/C*%
X140020000Y-107329999D03*
D14*
%TO.P,NE555,2*%
X142560000Y-107329999D03*
%TO.P,NE555,3*%
X145100000Y-107329999D03*
%TO.P,NE555,4*%
X147640000Y-107329999D03*
%TO.P,NE555,5*%
X147640000Y-99709999D03*
%TO.P,NE555,6*%
X145100000Y-99709999D03*
%TO.P,NE555,7*%
X142560000Y-99709999D03*
%TO.P,NE555,8*%
X140020000Y-99709999D03*
%TD*%
D15*
%TO.P,100nF,1*%
%TO.N,N/C*%
X144920000Y-94529999D03*
%TO.P,100nF,2*%
X144920000Y-97029999D03*
%TD*%
D16*
%TO.P,1M,1*%
%TO.N,N/C*%
X136520000Y-97049999D03*
D17*
%TO.P,1M,2*%
X136520000Y-107209999D03*
%TD*%
D15*
%TO.P,100nF,1*%
%TO.N,N/C*%
X147670000Y-94529999D03*
%TO.P,100nF,2*%
X147670000Y-97029999D03*
%TD*%
D18*
%TO.P,ON,1*%
%TO.N,N/C*%
X120890000Y-117134999D03*
D19*
%TO.P,ON,2*%
X123430000Y-117134999D03*
%TD*%
D18*
%TO.P,ON,1*%
%TO.N,N/C*%
X120915000Y-110509999D03*
D19*
%TO.P,ON,2*%
X123455000Y-110509999D03*
%TD*%
D18*
%TO.P,MODE,1*%
%TO.N,N/C*%
X136140000Y-111359999D03*
D19*
%TO.P,MODE,2*%
X136140000Y-113859999D03*
%TO.P,MODE,3*%
X136140000Y-116359999D03*
%TO.P,MODE,4*%
X130140000Y-111359999D03*
%TO.P,MODE,5*%
X130140000Y-113859999D03*
%TO.P,MODE,6*%
X130140000Y-116359999D03*
%TD*%
D17*
%TO.P,220R,2*%
%TO.N,N/C*%
X126790000Y-108754999D03*
D16*
%TO.P,220R,1*%
X126790000Y-118914999D03*
%TD*%
D20*
%TO.P,J2,1,Pin_1*%
%TO.N,N/C*%
X143169294Y-62558292D03*
%TO.P,J2,2,Pin_2*%
X145709294Y-62558292D03*
%TO.P,J2,3,Pin_3*%
X143169294Y-65098292D03*
%TO.P,J2,4,Pin_4*%
X145709294Y-65098292D03*
%TO.P,J2,5,Pin_5*%
X143169294Y-67638292D03*
%TO.P,J2,6,Pin_6*%
X145709294Y-67638292D03*
%TD*%
%TO.P,J4,1,Pin_1*%
%TO.N,N/C*%
X118247893Y-39282893D03*
%TO.P,J4,2,Pin_2*%
X118247893Y-36742893D03*
%TD*%
%TO.P,J3,1,Pin_1*%
%TO.N,N/C*%
X118247893Y-45432893D03*
%TO.P,J3,2,Pin_2*%
X118247893Y-42892893D03*
%TD*%
D10*
%TO.P,REF\u002A\u002A,1*%
%TO.N,N/C*%
X95620000Y-33715000D03*
D11*
%TO.P,REF\u002A\u002A,2*%
X98160000Y-33715000D03*
%TO.P,REF\u002A\u002A,3*%
X100700000Y-33715000D03*
%TO.P,REF\u002A\u002A,4*%
X103240000Y-33715000D03*
%TD*%
D13*
%TO.P,NE555,1*%
%TO.N,N/C*%
X140010000Y-91719999D03*
D14*
%TO.P,NE555,2*%
X142550000Y-91719999D03*
%TO.P,NE555,3*%
X145090000Y-91719999D03*
%TO.P,NE555,4*%
X147630000Y-91719999D03*
%TO.P,NE555,5*%
X147630000Y-84099999D03*
%TO.P,NE555,6*%
X145090000Y-84099999D03*
%TO.P,NE555,7*%
X142550000Y-84099999D03*
%TO.P,NE555,8*%
X140010000Y-84099999D03*
%TD*%
D21*
%TO.P,74LS574,20*%
%TO.N,N/C*%
X72875000Y-85830000D03*
%TO.P,74LS574,19*%
X72875000Y-88370000D03*
%TO.P,74LS574,18*%
X72875000Y-90910000D03*
%TO.P,74LS574,17*%
X72875000Y-93450000D03*
%TO.P,74LS574,16*%
X72875000Y-95990000D03*
%TO.P,74LS574,15*%
X72875000Y-98530000D03*
%TO.P,74LS574,14*%
X72875000Y-101070000D03*
%TO.P,74LS574,13*%
X72875000Y-103610000D03*
%TO.P,74LS574,12*%
X72875000Y-106150000D03*
%TO.P,74LS574,11*%
X72875000Y-108690000D03*
%TO.P,74LS574,10*%
X65255000Y-108690000D03*
%TO.P,74LS574,9*%
X65255000Y-106150000D03*
%TO.P,74LS574,8*%
X65255000Y-103610000D03*
%TO.P,74LS574,7*%
X65255000Y-101070000D03*
%TO.P,74LS574,6*%
X65255000Y-98530000D03*
%TO.P,74LS574,5*%
X65255000Y-95990000D03*
%TO.P,74LS574,4*%
X65255000Y-93450000D03*
%TO.P,74LS574,3*%
X65255000Y-90910000D03*
%TO.P,74LS574,2*%
X65255000Y-88370000D03*
D22*
%TO.P,74LS574,1*%
X65255000Y-85830000D03*
%TD*%
D14*
%TO.P,74LS138,16*%
%TO.N,N/C*%
X98357143Y-121145455D03*
%TO.P,74LS138,15*%
X100897143Y-121145455D03*
%TO.P,74LS138,14*%
X103437143Y-121145455D03*
%TO.P,74LS138,13*%
X105977143Y-121145455D03*
%TO.P,74LS138,12*%
X108517143Y-121145455D03*
%TO.P,74LS138,11*%
X111057143Y-121145455D03*
%TO.P,74LS138,10*%
X113597143Y-121145455D03*
%TO.P,74LS138,9*%
X116137143Y-121145455D03*
%TO.P,74LS138,8*%
X116137143Y-128765455D03*
%TO.P,74LS138,7*%
X113597143Y-128765455D03*
%TO.P,74LS138,6*%
X111057143Y-128765455D03*
%TO.P,74LS138,5*%
X108517143Y-128765455D03*
%TO.P,74LS138,4*%
X105977143Y-128765455D03*
%TO.P,74LS138,3*%
X103437143Y-128765455D03*
%TO.P,74LS138,2*%
X100897143Y-128765455D03*
D13*
%TO.P,74LS138,1*%
X98357143Y-128765455D03*
%TD*%
%TO.P,74LS00,1*%
%TO.N,N/C*%
X130195000Y-128529999D03*
D14*
%TO.P,74LS00,2*%
X132735000Y-128529999D03*
%TO.P,74LS00,3*%
X135275000Y-128529999D03*
%TO.P,74LS00,4*%
X137815000Y-128529999D03*
%TO.P,74LS00,5*%
X140355000Y-128529999D03*
%TO.P,74LS00,6*%
X142895000Y-128529999D03*
%TO.P,74LS00,7*%
X145435000Y-128529999D03*
%TO.P,74LS00,8*%
X145435000Y-120909999D03*
%TO.P,74LS00,9*%
X142895000Y-120909999D03*
%TO.P,74LS00,10*%
X140355000Y-120909999D03*
%TO.P,74LS00,11*%
X137815000Y-120909999D03*
%TO.P,74LS00,12*%
X135275000Y-120909999D03*
%TO.P,74LS00,13*%
X132735000Y-120909999D03*
%TO.P,74LS00,14*%
X130195000Y-120909999D03*
%TD*%
D21*
%TO.P,28C64,28*%
%TO.N,N/C*%
X99145000Y-83285000D03*
%TO.P,28C64,27*%
X99145000Y-85825000D03*
%TO.P,28C64,26*%
X99145000Y-88365000D03*
%TO.P,28C64,25*%
X99145000Y-90905000D03*
%TO.P,28C64,24*%
X99145000Y-93445000D03*
%TO.P,28C64,23*%
X99145000Y-95985000D03*
%TO.P,28C64,22*%
X99145000Y-98525000D03*
%TO.P,28C64,21*%
X99145000Y-101065000D03*
%TO.P,28C64,20*%
X99145000Y-103605000D03*
%TO.P,28C64,19*%
X99145000Y-106145000D03*
%TO.P,28C64,18*%
X99145000Y-108685000D03*
%TO.P,28C64,17*%
X99145000Y-111225000D03*
%TO.P,28C64,16*%
X99145000Y-113765000D03*
%TO.P,28C64,15*%
X99145000Y-116305000D03*
%TO.P,28C64,14*%
X83905000Y-116305000D03*
%TO.P,28C64,13*%
X83905000Y-113765000D03*
%TO.P,28C64,12*%
X83905000Y-111225000D03*
%TO.P,28C64,11*%
X83905000Y-108685000D03*
%TO.P,28C64,10*%
X83905000Y-106145000D03*
%TO.P,28C64,9*%
X83905000Y-103605000D03*
%TO.P,28C64,8*%
X83905000Y-101065000D03*
%TO.P,28C64,7*%
X83905000Y-98525000D03*
%TO.P,28C64,6*%
X83905000Y-95985000D03*
%TO.P,28C64,5*%
X83905000Y-93445000D03*
%TO.P,28C64,4*%
X83905000Y-90905000D03*
%TO.P,28C64,3*%
X83905000Y-88365000D03*
%TO.P,28C64,2*%
X83905000Y-85825000D03*
D22*
%TO.P,28C64,1*%
X83905000Y-83285000D03*
%TD*%
D23*
%TO.P,1M,3*%
%TO.N,N/C*%
X74587143Y-112854546D03*
%TO.P,1M,2*%
X79587143Y-115354546D03*
D24*
%TO.P,1M,1*%
X74587143Y-117854546D03*
%TD*%
D18*
%TO.P,ON,1*%
%TO.N,N/C*%
X125485000Y-94139999D03*
D19*
%TO.P,ON,2*%
X128025000Y-94139999D03*
%TD*%
D14*
%TO.P,74LS76,16*%
%TO.N,N/C*%
X94990000Y-128770000D03*
%TO.P,74LS76,15*%
X92450000Y-128770000D03*
%TO.P,74LS76,14*%
X89910000Y-128770000D03*
%TO.P,74LS76,13*%
X87370000Y-128770000D03*
%TO.P,74LS76,12*%
X84830000Y-128770000D03*
%TO.P,74LS76,11*%
X82290000Y-128770000D03*
%TO.P,74LS76,10*%
X79750000Y-128770000D03*
%TO.P,74LS76,9*%
X77210000Y-128770000D03*
%TO.P,74LS76,8*%
X77210000Y-121150000D03*
%TO.P,74LS76,7*%
X79750000Y-121150000D03*
%TO.P,74LS76,6*%
X82290000Y-121150000D03*
%TO.P,74LS76,5*%
X84830000Y-121150000D03*
%TO.P,74LS76,4*%
X87370000Y-121150000D03*
%TO.P,74LS76,3*%
X89910000Y-121150000D03*
%TO.P,74LS76,2*%
X92450000Y-121150000D03*
D13*
%TO.P,74LS76,1*%
X94990000Y-121150000D03*
%TD*%
D10*
%TO.P,REF\u002A\u002A,1*%
%TO.N,N/C*%
X109565000Y-42810000D03*
D11*
%TO.P,REF\u002A\u002A,2*%
X109565000Y-40270000D03*
%TO.P,REF\u002A\u002A,3*%
X109565000Y-37730000D03*
%TO.P,REF\u002A\u002A,4*%
X109565000Y-35190000D03*
%TD*%
D25*
%TO.P,1uF,1*%
%TO.N,N/C*%
X143396300Y-80972598D03*
D15*
%TO.P,1uF,2*%
X143396300Y-78972598D03*
%TD*%
D10*
%TO.P,D_IN,1*%
%TO.N,N/C*%
X58630000Y-117312500D03*
%TD*%
D16*
%TO.P,1K,1*%
%TO.N,N/C*%
X136410000Y-81939999D03*
D17*
%TO.P,1K,2*%
X136410000Y-92099999D03*
%TD*%
D15*
%TO.P,100nF,1*%
%TO.N,N/C*%
X147646300Y-81349999D03*
%TO.P,100nF,2*%
X147646300Y-78849999D03*
%TD*%
D10*
%TO.P,SW2,1,Pin_1*%
%TO.N,N/C*%
X146977893Y-32182893D03*
D11*
%TO.P,SW2,2,Pin_2*%
X149517893Y-32182893D03*
%TO.P,SW2,3,Pin_3*%
X152057893Y-32182893D03*
%TD*%
D10*
%TO.P,U3,1,V_Mot*%
%TO.N,N/C*%
X133480393Y-33492893D03*
D11*
%TO.P,U3,2,VCC*%
X130940393Y-33492893D03*
%TO.P,U3,3,GND*%
X128400393Y-33492893D03*
%TO.P,U3,4,A1*%
X125860393Y-33492893D03*
%TO.P,U3,5,A2*%
X123320393Y-33492893D03*
%TO.P,U3,6,B2*%
X120780393Y-33492893D03*
%TO.P,U3,7,B1*%
X118240393Y-33492893D03*
%TO.P,U3,8,GND*%
X115700393Y-33492893D03*
%TO.P,U3,9,GND*%
X115715393Y-48742893D03*
%TO.P,U3,10,PWMB*%
X118255393Y-48742893D03*
%TO.P,U3,11,BIN2*%
X120795393Y-48742893D03*
%TO.P,U3,12,BIN1*%
X123335393Y-48742893D03*
%TO.P,U3,13,STBY*%
X125875393Y-48742893D03*
%TO.P,U3,14,AIN1*%
X128415393Y-48742893D03*
%TO.P,U3,15,AIN2*%
X130955393Y-48742893D03*
D10*
%TO.P,U3,16,PWMA*%
X133495393Y-48742893D03*
%TD*%
%TO.P,J8,1,Pin_1*%
%TO.N,N/C*%
X147652893Y-36232893D03*
%TD*%
D26*
%TO.P,J6,1,Pin_1*%
%TO.N,N/C*%
X138632893Y-67402893D03*
D20*
%TO.P,J6,2,Pin_2*%
X136092893Y-67402893D03*
%TO.P,J6,3,Pin_3*%
X133552893Y-67402893D03*
%TO.P,J6,4,Pin_4*%
X131012893Y-67402893D03*
%TO.P,J6,5,Pin_5*%
X128472893Y-67402893D03*
%TO.P,J6,6,Pin_6*%
X125932893Y-67402893D03*
%TD*%
D26*
%TO.P,J1,1,Pin_1*%
%TO.N,N/C*%
X117014294Y-52413292D03*
D20*
%TO.P,J1,2,Pin_2*%
X117014294Y-54953292D03*
%TO.P,J1,3,Pin_3*%
X117014294Y-57493292D03*
%TO.P,J1,4,Pin_4*%
X117014294Y-60033292D03*
%TO.P,J1,5,Pin_5*%
X117014294Y-62573292D03*
%TO.P,J1,6,Pin_6*%
X117014294Y-65113292D03*
%TD*%
D10*
%TO.P,J9,1,Pin_1*%
%TO.N,N/C*%
X151372893Y-36202893D03*
%TD*%
D12*
%TO.P,SW1,2,2*%
%TO.N,N/C*%
X127289294Y-55038292D03*
X127289294Y-61538292D03*
%TO.P,SW1,1,1*%
X122789294Y-61538292D03*
X122789294Y-55038292D03*
%TD*%
D20*
%TO.P,J5,1,Pin_1*%
%TO.N,N/C*%
X149747893Y-41027893D03*
%TO.P,J5,2,Pin_2*%
X149747893Y-43567893D03*
%TO.P,J5,3,Pin_3*%
X149747893Y-46107893D03*
%TO.P,J5,4,Pin_4*%
X149747893Y-48647893D03*
%TO.P,J5,5,Pin_5*%
X149747893Y-51187893D03*
%TO.P,J5,6,Pin_6*%
X149747893Y-53727893D03*
%TO.P,J5,7,Pin_7*%
X149747893Y-56267893D03*
%TO.P,J5,8,Pin_8*%
X149747893Y-58807893D03*
%TO.P,J5,9,Pin_9*%
X149747893Y-61347893D03*
%TO.P,J5,10,Pin_10*%
X149747893Y-63887893D03*
%TD*%
D14*
%TO.P,NE555,8*%
%TO.N,N/C*%
X71357143Y-122714546D03*
%TO.P,NE555,7*%
X68817143Y-122714546D03*
%TO.P,NE555,6*%
X66277143Y-122714546D03*
%TO.P,NE555,5*%
X63737143Y-122714546D03*
%TO.P,NE555,4*%
X63737143Y-115094546D03*
%TO.P,NE555,3*%
X66277143Y-115094546D03*
%TO.P,NE555,2*%
X68817143Y-115094546D03*
D13*
%TO.P,NE555,1*%
X71357143Y-115094546D03*
%TD*%
D11*
%TO.P,BUS,10*%
%TO.N,N/C*%
X59225000Y-111225000D03*
%TO.P,BUS,9*%
X59225000Y-108685000D03*
%TO.P,BUS,8*%
X59225000Y-106145000D03*
%TO.P,BUS,7*%
X59225000Y-103605000D03*
%TO.P,BUS,6*%
X59225000Y-101065000D03*
%TO.P,BUS,5*%
X59225000Y-98525000D03*
%TO.P,BUS,4*%
X59225000Y-95985000D03*
%TO.P,BUS,3*%
X59225000Y-93445000D03*
%TO.P,BUS,2*%
X59225000Y-90905000D03*
D10*
%TO.P,BUS,1*%
X59225000Y-88365000D03*
%TD*%
D27*
%TO.P,EEPROM SOCKET,1*%
%TO.N,N/C*%
X66810000Y-63120000D03*
D28*
%TO.P,EEPROM SOCKET,2*%
X69350000Y-63120000D03*
%TO.P,EEPROM SOCKET,3*%
X71890000Y-63120000D03*
%TO.P,EEPROM SOCKET,4*%
X74430000Y-63120000D03*
%TO.P,EEPROM SOCKET,5*%
X76970000Y-63120000D03*
%TO.P,EEPROM SOCKET,6*%
X79510000Y-63120000D03*
%TO.P,EEPROM SOCKET,7*%
X82050000Y-63120000D03*
%TO.P,EEPROM SOCKET,8*%
X84590000Y-63120000D03*
%TO.P,EEPROM SOCKET,9*%
X87130000Y-63120000D03*
%TO.P,EEPROM SOCKET,10*%
X89670000Y-63120000D03*
%TO.P,EEPROM SOCKET,11*%
X92210000Y-63120000D03*
%TO.P,EEPROM SOCKET,12*%
X94750000Y-63120000D03*
%TO.P,EEPROM SOCKET,13*%
X97290000Y-63120000D03*
%TO.P,EEPROM SOCKET,14*%
X99830000Y-63120000D03*
%TO.P,EEPROM SOCKET,15*%
X99830000Y-47880000D03*
%TO.P,EEPROM SOCKET,16*%
X97290000Y-47880000D03*
%TO.P,EEPROM SOCKET,17*%
X94750000Y-47880000D03*
%TO.P,EEPROM SOCKET,18*%
X92210000Y-47880000D03*
%TO.P,EEPROM SOCKET,19*%
X89670000Y-47880000D03*
%TO.P,EEPROM SOCKET,20*%
X87130000Y-47880000D03*
%TO.P,EEPROM SOCKET,21*%
X84590000Y-47880000D03*
%TO.P,EEPROM SOCKET,22*%
X82050000Y-47880000D03*
%TO.P,EEPROM SOCKET,23*%
X79510000Y-47880000D03*
%TO.P,EEPROM SOCKET,24*%
X76970000Y-47880000D03*
%TO.P,EEPROM SOCKET,25*%
X74430000Y-47880000D03*
%TO.P,EEPROM SOCKET,26*%
X71890000Y-47880000D03*
%TO.P,EEPROM SOCKET,27*%
X69350000Y-47880000D03*
%TO.P,EEPROM SOCKET,28*%
X66810000Y-47880000D03*
%TD*%
D29*
%TO.P,1M,*%
%TO.N,*%
X125375000Y-79519999D03*
X125375000Y-89119999D03*
D18*
%TO.P,1M,1*%
%TO.N,N/C*%
X132875000Y-86819999D03*
D19*
%TO.P,1M,2*%
X132875000Y-84319999D03*
%TO.P,1M,3*%
X132875000Y-81819999D03*
%TD*%
D10*
%TO.P,REF\u002A\u002A,1*%
%TO.N,N/C*%
X109600000Y-46592500D03*
D11*
%TO.P,REF\u002A\u002A,2*%
X109600000Y-49132500D03*
%TO.P,REF\u002A\u002A,3*%
X109600000Y-51672500D03*
%TO.P,REF\u002A\u002A,4*%
X109600000Y-54212500D03*
%TO.P,REF\u002A\u002A,5*%
X109600000Y-56752500D03*
%TO.P,REF\u002A\u002A,6*%
X109600000Y-59292500D03*
%TO.P,REF\u002A\u002A,7*%
X109600000Y-61832500D03*
%TO.P,REF\u002A\u002A,8*%
X109600000Y-64372500D03*
%TD*%
%TO.P,Mode,3*%
%TO.N,N/C*%
X56675000Y-84605000D03*
%TO.P,Mode,2*%
X59215000Y-84605000D03*
D10*
%TO.P,Mode,1*%
X61755000Y-84605000D03*
%TD*%
D13*
%TO.P,74HC595,1*%
%TO.N,N/C*%
X89670000Y-69427500D03*
D14*
%TO.P,74HC595,2*%
X87130000Y-69427500D03*
%TO.P,74HC595,3*%
X84590000Y-69427500D03*
%TO.P,74HC595,4*%
X82050000Y-69427500D03*
%TO.P,74HC595,5*%
X79510000Y-69427500D03*
%TO.P,74HC595,6*%
X76970000Y-69427500D03*
%TO.P,74HC595,7*%
X74430000Y-69427500D03*
%TO.P,74HC595,8*%
X71890000Y-69427500D03*
%TO.P,74HC595,9*%
X71890000Y-77047500D03*
%TO.P,74HC595,10*%
X74430000Y-77047500D03*
%TO.P,74HC595,11*%
X76970000Y-77047500D03*
%TO.P,74HC595,12*%
X79510000Y-77047500D03*
%TO.P,74HC595,13*%
X82050000Y-77047500D03*
%TO.P,74HC595,14*%
X84590000Y-77047500D03*
%TO.P,74HC595,15*%
X87130000Y-77047500D03*
%TO.P,74HC595,16*%
X89670000Y-77047500D03*
%TD*%
D11*
%TO.P,BUS,10*%
%TO.N,N/C*%
X61775000Y-111235000D03*
%TO.P,BUS,9*%
X61775000Y-108695000D03*
%TO.P,BUS,8*%
X61775000Y-106155000D03*
%TO.P,BUS,7*%
X61775000Y-103615000D03*
%TO.P,BUS,6*%
X61775000Y-101075000D03*
%TO.P,BUS,5*%
X61775000Y-98535000D03*
%TO.P,BUS,4*%
X61775000Y-95995000D03*
%TO.P,BUS,3*%
X61775000Y-93455000D03*
%TO.P,BUS,2*%
X61775000Y-90915000D03*
D10*
%TO.P,BUS,1*%
X61775000Y-88375000D03*
%TD*%
D16*
%TO.P,100K,1*%
%TO.N,N/C*%
X132390000Y-94986299D03*
D17*
%TO.P,100K,2*%
X142550000Y-94986299D03*
%TD*%
D13*
%TO.P,74HC595,1*%
%TO.N,N/C*%
X89670000Y-32270000D03*
D14*
%TO.P,74HC595,2*%
X87130000Y-32270000D03*
%TO.P,74HC595,3*%
X84590000Y-32270000D03*
%TO.P,74HC595,4*%
X82050000Y-32270000D03*
%TO.P,74HC595,5*%
X79510000Y-32270000D03*
%TO.P,74HC595,6*%
X76970000Y-32270000D03*
%TO.P,74HC595,7*%
X74430000Y-32270000D03*
%TO.P,74HC595,8*%
X71890000Y-32270000D03*
%TO.P,74HC595,9*%
X71890000Y-39890000D03*
%TO.P,74HC595,10*%
X74430000Y-39890000D03*
%TO.P,74HC595,11*%
X76970000Y-39890000D03*
%TO.P,74HC595,12*%
X79510000Y-39890000D03*
%TO.P,74HC595,13*%
X82050000Y-39890000D03*
%TO.P,74HC595,14*%
X84590000Y-39890000D03*
%TO.P,74HC595,15*%
X87130000Y-39890000D03*
%TO.P,74HC595,16*%
X89670000Y-39890000D03*
%TD*%
D11*
%TO.P,REF\u002A\u002A,6*%
%TO.N,N/C*%
X104600000Y-106275000D03*
%TO.P,REF\u002A\u002A,5*%
X104600000Y-103735000D03*
%TO.P,REF\u002A\u002A,4*%
X104600000Y-101195000D03*
%TO.P,REF\u002A\u002A,3*%
X104600000Y-98655000D03*
%TO.P,REF\u002A\u002A,2*%
X104600000Y-96115000D03*
D10*
%TO.P,REF\u002A\u002A,1*%
X104600000Y-93575000D03*
%TD*%
%TO.P,REF\u002A\u002A,12*%
%TO.N,N/C*%
X114750000Y-93575000D03*
D11*
%TO.P,REF\u002A\u002A,11*%
X114750000Y-96115000D03*
%TO.P,REF\u002A\u002A,10*%
X114750000Y-98655000D03*
%TO.P,REF\u002A\u002A,9*%
X114750000Y-101195000D03*
%TO.P,REF\u002A\u002A,8*%
X114750000Y-103735000D03*
%TO.P,REF\u002A\u002A,7*%
X114750000Y-106275000D03*
%TD*%
D16*
%TO.P,220R,1*%
%TO.N,N/C*%
X121760000Y-102199999D03*
D17*
%TO.P,220R,2*%
X121760000Y-92039999D03*
%TD*%
D30*
%TO.N,*%
X72367143Y-127964546D03*
D31*
X91190000Y-46030000D03*
D30*
X139122893Y-33242893D03*
X136662893Y-55252893D03*
X143002893Y-32082893D03*
D31*
X140512893Y-55252893D03*
X143612893Y-56122893D03*
D30*
X148052893Y-60532893D03*
X141565393Y-48132893D03*
X135532893Y-55232893D03*
D31*
X143392893Y-59392893D03*
X82050000Y-73480000D03*
X101130000Y-50447500D03*
X101240000Y-53307500D03*
X74287143Y-120434546D03*
X76205000Y-106270000D03*
X101190000Y-51877500D03*
X87130000Y-72090000D03*
X62970000Y-73480000D03*
X76205000Y-102770000D03*
X63750000Y-74370000D03*
X76205000Y-99270000D03*
X64977143Y-120434546D03*
X79510000Y-74370000D03*
X91730000Y-75210000D03*
X87240000Y-125290000D03*
X64560000Y-75220000D03*
X76205000Y-95070000D03*
X91720000Y-73490000D03*
X84830000Y-125240000D03*
X91730000Y-74380000D03*
X76205000Y-109770000D03*
X76205000Y-88070000D03*
X76205000Y-84570000D03*
X61407143Y-117164546D03*
X74420000Y-42750000D03*
X76970000Y-75200000D03*
X103840000Y-42750000D03*
X76205000Y-91570000D03*
X91950000Y-41000000D03*
%TD*%
D32*
%TO.N,*%
X122740000Y-125319999D02*
X122740000Y-127859999D01*
X120890000Y-125319999D02*
X122740000Y-125319999D01*
X120890000Y-118914999D02*
X120890000Y-125319999D01*
X122740000Y-120909999D02*
X122740000Y-122779999D01*
X130195000Y-120909999D02*
X122740000Y-120909999D01*
X130195000Y-128529999D02*
X132735000Y-128529999D01*
X132735000Y-126279999D02*
X132735000Y-128529999D01*
X142895000Y-126279999D02*
X132735000Y-126279999D01*
X142895000Y-128529999D02*
X142895000Y-126279999D01*
X137815000Y-120909999D02*
X140355000Y-120909999D01*
X134030000Y-120899999D02*
X134040000Y-120909999D01*
X136140000Y-113859999D02*
X134030000Y-113859999D01*
X132735000Y-120909999D02*
X134040000Y-120909999D01*
X134040000Y-120909999D02*
X135275000Y-120909999D01*
X134030000Y-113859999D02*
X134030000Y-120899999D01*
X130195000Y-118649999D02*
X132350000Y-118649999D01*
X130195000Y-120909999D02*
X130195000Y-118649999D01*
X132350000Y-118649999D02*
X132350000Y-113859999D01*
X121760000Y-102199999D02*
X120915000Y-103044999D01*
X120915000Y-103044999D02*
X120915000Y-110509999D01*
X121760000Y-94139999D02*
X121760000Y-92039999D01*
X125485000Y-94139999D02*
X121760000Y-94139999D01*
X130700000Y-94139999D02*
X130700000Y-94179999D01*
X130700000Y-94179999D02*
X130700000Y-102659999D01*
X130700000Y-92009999D02*
X130700000Y-94179999D01*
X132350000Y-108754999D02*
X130710000Y-108754999D01*
X130140000Y-113859999D02*
X132350000Y-113859999D01*
X132350000Y-113859999D02*
X132350000Y-108754999D01*
X128370000Y-98989999D02*
X128370000Y-102199999D01*
X128370000Y-102199999D02*
X128370000Y-105489999D01*
X121760000Y-102199999D02*
X128370000Y-102199999D01*
X130700000Y-86786299D02*
X130700000Y-92009999D01*
X140010000Y-86786299D02*
X130700000Y-86786299D01*
X140010000Y-84099999D02*
X140010000Y-86786299D01*
X136410000Y-84286299D02*
X136410000Y-81939999D01*
X132908700Y-84286299D02*
X136410000Y-84286299D01*
X132875000Y-84319999D02*
X132908700Y-84286299D01*
X126790000Y-108754999D02*
X130710000Y-108754999D01*
X130710000Y-108754999D02*
X130710000Y-102669999D01*
X120890000Y-118914999D02*
X120890000Y-117134999D01*
X126790000Y-118914999D02*
X120890000Y-118914999D01*
X138720000Y-116359999D02*
X136140000Y-116359999D01*
X149790000Y-88589999D02*
X149790000Y-109689999D01*
X138720000Y-109689999D02*
X138720000Y-116359999D01*
X146580000Y-88589999D02*
X149790000Y-88589999D01*
X145090000Y-90079999D02*
X146580000Y-88589999D01*
X145090000Y-91719999D02*
X145090000Y-90079999D01*
X149790000Y-109689999D02*
X138720000Y-109689999D01*
X140020000Y-99709999D02*
X140020000Y-102669999D01*
X140020000Y-102669999D02*
X144660000Y-102669999D01*
X136490000Y-102669999D02*
X140020000Y-102669999D01*
X136520000Y-102669999D02*
X136490000Y-102669999D01*
X136520000Y-107209999D02*
X136520000Y-102669999D01*
X130710000Y-102669999D02*
X136490000Y-102669999D01*
X130700000Y-102659999D02*
X130710000Y-102669999D01*
X147640000Y-105649999D02*
X147640000Y-107329999D01*
X144660000Y-102669999D02*
X147640000Y-105649999D01*
X130700000Y-102679999D02*
X130710000Y-102669999D01*
X132390000Y-92099999D02*
X132390000Y-94986299D01*
X136410000Y-92099999D02*
X132390000Y-92099999D01*
X142550000Y-91719999D02*
X142550000Y-94986299D01*
X140046300Y-84063699D02*
X140010000Y-84099999D01*
X147640000Y-99709999D02*
X147640000Y-97059999D01*
X141345000Y-97004999D02*
X136565000Y-97004999D01*
D33*
X142560000Y-99709999D02*
X145100000Y-99709999D01*
D32*
X136565000Y-97004999D02*
X136520000Y-97049999D01*
X147640000Y-97059999D02*
X147670000Y-97029999D01*
X144920000Y-94529999D02*
X147720000Y-94529999D01*
X144920000Y-97029999D02*
X144920000Y-99529999D01*
X142560000Y-99709999D02*
X142560000Y-98219999D01*
X142560000Y-98219999D02*
X141345000Y-97004999D01*
X144920000Y-99529999D02*
X145100000Y-99709999D01*
X120890000Y-117134999D02*
X120915000Y-117109999D01*
X120890000Y-110534999D02*
X120915000Y-110509999D01*
X124305000Y-111359999D02*
X123455000Y-110509999D01*
X124205000Y-116359999D02*
X123430000Y-117134999D01*
X130140000Y-111359999D02*
X124305000Y-111359999D01*
X130140000Y-116359999D02*
X124205000Y-116359999D01*
X120890000Y-117134999D02*
X120890000Y-110534999D01*
D34*
X58630000Y-112944546D02*
X58630000Y-117312500D01*
X68827143Y-112944546D02*
X58630000Y-112944546D01*
X72875000Y-108690000D02*
X68827143Y-108690000D01*
X68827143Y-108690000D02*
X68827143Y-112944546D01*
X87240000Y-125290000D02*
X87240000Y-124110000D01*
X87240000Y-124110000D02*
X72367143Y-124110000D01*
X72367143Y-124110000D02*
X72367143Y-127964546D01*
X94990000Y-119370000D02*
X74287143Y-119370000D01*
X74287143Y-119370000D02*
X74287143Y-120434546D01*
X94990000Y-121150000D02*
X94990000Y-119370000D01*
D32*
X123759994Y-50858292D02*
X125875393Y-48742893D01*
X119379294Y-56608292D02*
X119379294Y-53558292D01*
X122079294Y-50858292D02*
X123759994Y-50858292D01*
X118494294Y-57493292D02*
X119379294Y-56608292D01*
X119379294Y-53558292D02*
X122079294Y-50858292D01*
X117014294Y-57493292D02*
X118494294Y-57493292D01*
D34*
X119034294Y-60033292D02*
X117014294Y-60033292D01*
X124459294Y-57388292D02*
X123639294Y-58208292D01*
X126184693Y-52182893D02*
X124459294Y-53908292D01*
X124459294Y-53908292D02*
X124459294Y-57388292D01*
X133772893Y-52182893D02*
X126184693Y-52182893D01*
X136662893Y-55072893D02*
X133772893Y-52182893D01*
X136662893Y-55252893D02*
X136662893Y-55072893D01*
X123639294Y-58208292D02*
X120859294Y-58208292D01*
X120859294Y-58208292D02*
X119034294Y-60033292D01*
X133392893Y-53092893D02*
X135532893Y-55232893D01*
X126714693Y-53092893D02*
X133392893Y-53092893D01*
X125419294Y-54388292D02*
X126714693Y-53092893D01*
X125419294Y-57948292D02*
X125419294Y-54388292D01*
X122229294Y-59358292D02*
X124009294Y-59358292D01*
X124009294Y-59358292D02*
X125419294Y-57948292D01*
X119014294Y-62573292D02*
X122229294Y-59358292D01*
X117014294Y-62573292D02*
X119014294Y-62573292D01*
D32*
X117014294Y-54953292D02*
X117014294Y-52413292D01*
X115715393Y-48742893D02*
X115715393Y-51114391D01*
X115715393Y-51114391D02*
X117014294Y-52413292D01*
D34*
X91190000Y-46030000D02*
X87130000Y-46030000D01*
X87130000Y-46030000D02*
X87130000Y-47880000D01*
X103240000Y-35200000D02*
X103240000Y-33715000D01*
X105970000Y-44940000D02*
X105970000Y-35200000D01*
X103790000Y-44940000D02*
X105970000Y-44940000D01*
X105970000Y-35200000D02*
X103240000Y-35200000D01*
X100700000Y-36010000D02*
X100700000Y-33715000D01*
X104810000Y-43880000D02*
X104810000Y-36010000D01*
X103530000Y-43880000D02*
X104810000Y-43880000D01*
X104810000Y-36010000D02*
X100700000Y-36010000D01*
X91950000Y-33715000D02*
X95620000Y-33715000D01*
X91950000Y-34510000D02*
X91950000Y-33715000D01*
X98160000Y-35490000D02*
X98160000Y-33715000D01*
X93030000Y-35490000D02*
X98160000Y-35490000D01*
X93030000Y-42750000D02*
X93030000Y-35490000D01*
D32*
X115700393Y-33492893D02*
X115700393Y-32630393D01*
D34*
X148052893Y-60532893D02*
X148032893Y-60532893D01*
X143602893Y-32682893D02*
X143602893Y-56112893D01*
D32*
X117102893Y-31227893D02*
X127692893Y-31227893D01*
D34*
X148032893Y-60532893D02*
X143622893Y-56122893D01*
D32*
X127692893Y-31227893D02*
X128400393Y-31935393D01*
X128400393Y-31935393D02*
X128400393Y-33492893D01*
X115700393Y-48727893D02*
X115715393Y-48742893D01*
D34*
X143602893Y-56112893D02*
X143612893Y-56122893D01*
X146927893Y-63887893D02*
X149747893Y-63887893D01*
D32*
X115700393Y-32630393D02*
X117102893Y-31227893D01*
D34*
X143002893Y-32082893D02*
X143602893Y-32682893D01*
X145717893Y-65097893D02*
X146927893Y-63887893D01*
D32*
X115700393Y-33492893D02*
X115700393Y-48727893D01*
D34*
X148537893Y-62557893D02*
X149747893Y-61347893D01*
X140482893Y-56122893D02*
X128492893Y-56122893D01*
X143392893Y-59392893D02*
X141565393Y-57565393D01*
D32*
X138122893Y-31342893D02*
X139122893Y-32342893D01*
X130940393Y-33492893D02*
X130940393Y-32025393D01*
D34*
X127342893Y-54972893D02*
X127342893Y-61472893D01*
X128492893Y-56122893D02*
X127342893Y-54972893D01*
X140512893Y-56092893D02*
X140482893Y-56122893D01*
D32*
X130940393Y-33492893D02*
X130940393Y-39225393D01*
D34*
X140512893Y-62432893D02*
X143177893Y-65097893D01*
D32*
X139122893Y-32342893D02*
X139122893Y-33242893D01*
D34*
X139122893Y-33242893D02*
X139122893Y-45690393D01*
X141565393Y-57565393D02*
X141565393Y-48132893D01*
X143392893Y-59392893D02*
X143392893Y-60232893D01*
X140512893Y-55252893D02*
X140512893Y-56092893D01*
D32*
X125875393Y-44290393D02*
X125875393Y-48742893D01*
D34*
X145717893Y-62557893D02*
X148537893Y-62557893D01*
X140512893Y-56092893D02*
X140512893Y-62432893D01*
D32*
X131622893Y-31342893D02*
X138122893Y-31342893D01*
D34*
X143392893Y-60232893D02*
X145717893Y-62557893D01*
D32*
X130940393Y-32025393D02*
X131622893Y-31342893D01*
D34*
X139122893Y-45690393D02*
X141565393Y-48132893D01*
D32*
X130940393Y-39225393D02*
X125875393Y-44290393D01*
D34*
X84830000Y-125240000D02*
X84830000Y-128770000D01*
X66810000Y-42750000D02*
X74420000Y-42750000D01*
X76970000Y-38170000D02*
X70760000Y-38170000D01*
X107965000Y-53307500D02*
X109600000Y-51672500D01*
X87130000Y-72090000D02*
X87130000Y-71220000D01*
X76190000Y-101065000D02*
X76190000Y-102770000D01*
X100930000Y-98525000D02*
X100930000Y-103605000D01*
X76190000Y-90910000D02*
X76190000Y-88070000D01*
X99145000Y-98525000D02*
X100930000Y-98525000D01*
X74287143Y-120434546D02*
X66277143Y-120434546D01*
D32*
X144493899Y-80972598D02*
X143396300Y-80972598D01*
D34*
X89670000Y-47880000D02*
X89670000Y-61197500D01*
X76210000Y-95950000D02*
X76210000Y-95070000D01*
X89670000Y-39890000D02*
X89670000Y-42750000D01*
X76205000Y-101070000D02*
X72875000Y-101070000D01*
X89670000Y-61197500D02*
X106425000Y-61197500D01*
X84590000Y-65660000D02*
X82050000Y-63120000D01*
X65400000Y-77047500D02*
X71890000Y-77047500D01*
X87240000Y-125290000D02*
X87240000Y-128770000D01*
X71357143Y-117164546D02*
X61407143Y-117164546D01*
X65255000Y-103610000D02*
X59225000Y-103610000D01*
X82050000Y-39890000D02*
X82050000Y-36680000D01*
X91720000Y-73480000D02*
X91720000Y-73490000D01*
X76190000Y-102770000D02*
X76205000Y-102770000D01*
X65255000Y-93450000D02*
X59225000Y-93450000D01*
X91730000Y-74370000D02*
X91730000Y-74380000D01*
X74430000Y-69427500D02*
X74430000Y-65660000D01*
X116137143Y-128765455D02*
X116137143Y-127020000D01*
X82290000Y-123010000D02*
X82290000Y-121150000D01*
X69350000Y-47880000D02*
X69350000Y-43880000D01*
X82050000Y-69427500D02*
X82050000Y-65660000D01*
X89910000Y-128770000D02*
X89910000Y-123010000D01*
X89670000Y-65660000D02*
X89670000Y-69427500D01*
X76205000Y-103610000D02*
X72875000Y-103610000D01*
X87130000Y-65660000D02*
X87130000Y-69427500D01*
X91950000Y-34510000D02*
X71890000Y-34510000D01*
X93030000Y-42750000D02*
X103840000Y-42750000D01*
X59225000Y-108690000D02*
X59225000Y-108685000D01*
X101130000Y-50447500D02*
X105745000Y-50447500D01*
X63010000Y-55020000D02*
X63010000Y-73480000D01*
X104600000Y-119190000D02*
X100897143Y-119190000D01*
X59225000Y-88370000D02*
X59225000Y-88365000D01*
X82050000Y-65660000D02*
X79510000Y-63120000D01*
X102380000Y-118290000D02*
X99630000Y-118290000D01*
X109790000Y-122820000D02*
X105977143Y-122820000D01*
X76970000Y-69427500D02*
X76970000Y-65660000D01*
X103790000Y-44940000D02*
X104530000Y-44940000D01*
X97290000Y-47880000D02*
X97290000Y-56387500D01*
X108517143Y-127020000D02*
X108517143Y-128765455D01*
X83900000Y-95990000D02*
X76250000Y-95990000D01*
X100930000Y-103605000D02*
X99145000Y-103605000D01*
D35*
X64630000Y-70590000D02*
X64620000Y-70590000D01*
D32*
X140641300Y-88849999D02*
X142550000Y-86941299D01*
D34*
X94750000Y-47880000D02*
X94750000Y-57967500D01*
X76205000Y-106270000D02*
X76205000Y-103610000D01*
X71357143Y-124754546D02*
X71357143Y-122714546D01*
X76250000Y-95990000D02*
X72875000Y-95990000D01*
X68560000Y-36680000D02*
X63010000Y-36680000D01*
X76970000Y-65660000D02*
X74430000Y-63120000D01*
X103437143Y-121145455D02*
X103437143Y-123570000D01*
X74500000Y-88370000D02*
X72875000Y-88370000D01*
X99630000Y-118290000D02*
X99630000Y-128765455D01*
X64560000Y-75220000D02*
X64560000Y-38170000D01*
X65255000Y-85830000D02*
X67150000Y-85830000D01*
X102380000Y-93445000D02*
X102380000Y-118290000D01*
X91730000Y-75200000D02*
X91730000Y-75210000D01*
X69350000Y-43880000D02*
X103530000Y-43880000D01*
X59225000Y-98530000D02*
X59225000Y-98525000D01*
X64560000Y-38170000D02*
X70760000Y-38170000D01*
X99145000Y-93445000D02*
X102380000Y-93445000D01*
D32*
X147523701Y-78972598D02*
X147646300Y-78849999D01*
D34*
X83900000Y-90910000D02*
X76190000Y-90910000D01*
X64977143Y-120434546D02*
X66277143Y-120434546D01*
D32*
X142550000Y-86941299D02*
X142550000Y-84099999D01*
D34*
X63750000Y-74370000D02*
X63750000Y-37430000D01*
X59215000Y-84595000D02*
X59215000Y-84605000D01*
X107335000Y-59567500D02*
X109600000Y-61832500D01*
X82050000Y-47880000D02*
X82050000Y-44940000D01*
X83905000Y-85825000D02*
X79015000Y-85825000D01*
X59225000Y-111235000D02*
X59225000Y-111225000D01*
X76970000Y-39890000D02*
X76970000Y-38170000D01*
D32*
X147630000Y-81391299D02*
X147671300Y-81349999D01*
D34*
X77950000Y-88370000D02*
X76205000Y-86625000D01*
X76205000Y-93450000D02*
X72875000Y-93450000D01*
X76210000Y-106270000D02*
X76205000Y-106270000D01*
X82050000Y-36680000D02*
X68560000Y-36680000D01*
X106855000Y-51877500D02*
X109600000Y-49132500D01*
X76205000Y-109770000D02*
X76205000Y-107375000D01*
X74980000Y-106150000D02*
X72875000Y-106150000D01*
X59225000Y-90910000D02*
X59225000Y-90905000D01*
X83905000Y-103605000D02*
X76210000Y-103605000D01*
X112330000Y-123570000D02*
X112330000Y-103735000D01*
D32*
X145798701Y-78972598D02*
X147523701Y-78972598D01*
D34*
X101660000Y-117590000D02*
X97050000Y-117590000D01*
X92450000Y-121150000D02*
X84830000Y-121150000D01*
X56675000Y-111225000D02*
X56675000Y-124754546D01*
D32*
X147630000Y-84099999D02*
X147630000Y-81391299D01*
D34*
X94750000Y-57967500D02*
X108275000Y-57967500D01*
X79510000Y-74370000D02*
X91730000Y-74370000D01*
D32*
X145090000Y-84099999D02*
X145090000Y-87426299D01*
D34*
X56675000Y-124754546D02*
X71357143Y-124754546D01*
X97290000Y-56387500D02*
X109235000Y-56387500D01*
X101190000Y-51877500D02*
X106855000Y-51877500D01*
X74430000Y-65660000D02*
X71890000Y-63120000D01*
X63010000Y-73480000D02*
X62970000Y-73480000D01*
X83900000Y-98530000D02*
X76040000Y-98530000D01*
X87130000Y-63120000D02*
X89670000Y-65660000D01*
X108517143Y-93575000D02*
X108517143Y-121145455D01*
X105745000Y-50447500D02*
X109600000Y-46592500D01*
X59225000Y-93450000D02*
X59225000Y-93445000D01*
X103437143Y-128765455D02*
X108517143Y-128765455D01*
X100897143Y-119190000D02*
X100897143Y-121145455D01*
X101660000Y-95985000D02*
X101660000Y-117590000D01*
X84590000Y-63120000D02*
X87130000Y-65660000D01*
X82050000Y-44940000D02*
X103790000Y-44940000D01*
X59225000Y-101070000D02*
X59225000Y-101065000D01*
X104600000Y-106275000D02*
X104600000Y-119190000D01*
X91050000Y-71220000D02*
X91050000Y-64500000D01*
X66810000Y-47880000D02*
X66810000Y-42750000D01*
X76040000Y-98530000D02*
X72875000Y-98530000D01*
X76210000Y-103605000D02*
X76210000Y-106270000D01*
X83900000Y-88370000D02*
X77950000Y-88370000D01*
X67150000Y-108690000D02*
X65255000Y-108690000D01*
X79510000Y-69427500D02*
X79510000Y-65660000D01*
D32*
X136410000Y-92099999D02*
X136410000Y-91156299D01*
D34*
X114750000Y-101195000D02*
X109790000Y-101195000D01*
X89910000Y-123010000D02*
X82290000Y-123010000D01*
D32*
X145090000Y-81568699D02*
X144493899Y-80972598D01*
D34*
X76205000Y-91570000D02*
X76205000Y-93450000D01*
X76205000Y-107375000D02*
X74980000Y-106150000D01*
X68010000Y-111235000D02*
X61775000Y-111235000D01*
X68010000Y-85830000D02*
X68010000Y-111235000D01*
X103437143Y-123570000D02*
X112330000Y-123570000D01*
X83905000Y-101065000D02*
X76190000Y-101065000D01*
X84590000Y-41720000D02*
X65400000Y-41720000D01*
X65255000Y-106150000D02*
X59225000Y-106150000D01*
X99145000Y-95985000D02*
X101660000Y-95985000D01*
X92210000Y-47880000D02*
X92210000Y-59567500D01*
X109790000Y-101195000D02*
X109790000Y-122820000D01*
X105977143Y-122820000D02*
X105977143Y-121145455D01*
X79510000Y-65660000D02*
X76970000Y-63120000D01*
X65400000Y-41720000D02*
X65400000Y-77047500D01*
X76205000Y-107265000D02*
X76205000Y-109770000D01*
X76205000Y-88070000D02*
X76205000Y-90910000D01*
X108275000Y-57967500D02*
X109600000Y-59292500D01*
X108975000Y-54837500D02*
X109600000Y-54212500D01*
X76205000Y-102770000D02*
X76205000Y-101070000D01*
X89670000Y-42750000D02*
X89720000Y-42750000D01*
X63750000Y-37430000D02*
X79510000Y-37430000D01*
X76205000Y-98595000D02*
X76205000Y-99270000D01*
X76205000Y-90910000D02*
X72875000Y-90910000D01*
X103530000Y-43880000D02*
X104360000Y-43880000D01*
D32*
X145090000Y-84099999D02*
X145090000Y-81568699D01*
D34*
X59225000Y-103610000D02*
X59225000Y-103605000D01*
X92210000Y-59567500D02*
X107335000Y-59567500D01*
X94990000Y-126880000D02*
X92450000Y-124340000D01*
X76140000Y-98530000D02*
X76205000Y-98595000D01*
X89670000Y-39890000D02*
X89710000Y-39930000D01*
X67150000Y-85830000D02*
X67150000Y-108690000D01*
X89720000Y-42750000D02*
X93030000Y-42750000D01*
X74420000Y-42750000D02*
X89720000Y-42750000D01*
X114750000Y-93575000D02*
X108517143Y-93575000D01*
X74430000Y-39890000D02*
X74440000Y-39900000D01*
X106425000Y-61197500D02*
X109600000Y-64372500D01*
X63010000Y-36680000D02*
X63010000Y-55020000D01*
D32*
X143396300Y-78972598D02*
X145798701Y-78972598D01*
X136410000Y-91156299D02*
X138716300Y-88849999D01*
D34*
X72875000Y-85830000D02*
X68010000Y-85830000D01*
X61775000Y-111235000D02*
X59225000Y-111235000D01*
X101240000Y-53307500D02*
X107965000Y-53307500D01*
X65255000Y-95990000D02*
X59225000Y-95990000D01*
X87130000Y-71220000D02*
X91050000Y-71220000D01*
X77325000Y-106145000D02*
X76205000Y-107265000D01*
X91950000Y-41000000D02*
X91950000Y-34510000D01*
X76265000Y-93445000D02*
X76205000Y-93385000D01*
X76205000Y-84570000D02*
X76205000Y-86665000D01*
D32*
X138716300Y-88849999D02*
X140641300Y-88849999D01*
D34*
X84590000Y-39890000D02*
X84590000Y-41720000D01*
X87240000Y-128770000D02*
X87370000Y-128770000D01*
D32*
X145090000Y-87426299D02*
X142550000Y-89966299D01*
D34*
X79510000Y-37430000D02*
X79510000Y-39890000D01*
X76205000Y-86665000D02*
X74500000Y-88370000D01*
X82050000Y-73480000D02*
X91720000Y-73480000D01*
X99830000Y-54837500D02*
X108975000Y-54837500D01*
X76040000Y-98530000D02*
X76140000Y-98530000D01*
X56675000Y-111225000D02*
X59225000Y-111225000D01*
X65255000Y-88370000D02*
X59225000Y-88370000D01*
X97050000Y-128765455D02*
X98357143Y-128765455D01*
X59225000Y-106150000D02*
X59225000Y-106145000D01*
X70760000Y-38170000D02*
X68420000Y-38170000D01*
X116137143Y-127020000D02*
X108517143Y-127020000D01*
X76240000Y-83050000D02*
X60760000Y-83050000D01*
X65255000Y-90910000D02*
X59225000Y-90910000D01*
X76205000Y-93385000D02*
X76205000Y-91570000D01*
X60760000Y-83050000D02*
X59215000Y-84595000D01*
X79015000Y-85825000D02*
X76240000Y-83050000D01*
X97050000Y-117590000D02*
X97050000Y-128765455D01*
X65255000Y-98530000D02*
X59225000Y-98530000D01*
X112330000Y-103735000D02*
X114750000Y-103735000D01*
X71890000Y-34510000D02*
X71890000Y-32270000D01*
X76205000Y-86625000D02*
X76205000Y-84570000D01*
X99630000Y-128765455D02*
X100897143Y-128765455D01*
X84590000Y-69427500D02*
X84590000Y-65660000D01*
X71357143Y-115094546D02*
X71357143Y-117164546D01*
X76970000Y-75200000D02*
X91730000Y-75200000D01*
X83905000Y-93445000D02*
X76265000Y-93445000D01*
X76250000Y-95990000D02*
X76210000Y-95950000D01*
D32*
X145758799Y-78932696D02*
X145798701Y-78972598D01*
D34*
X91050000Y-64500000D02*
X89670000Y-63120000D01*
X94990000Y-128770000D02*
X94990000Y-126880000D01*
X56675000Y-84605000D02*
X56675000Y-111225000D01*
X65255000Y-101070000D02*
X59225000Y-101070000D01*
X109235000Y-56387500D02*
X109600000Y-56752500D01*
X65255000Y-108690000D02*
X59225000Y-108690000D01*
X92450000Y-124340000D02*
X92450000Y-121150000D01*
D32*
X142550000Y-89966299D02*
X142550000Y-91719999D01*
D34*
X59225000Y-95990000D02*
X59225000Y-95985000D01*
X76190000Y-88070000D02*
X76205000Y-88070000D01*
X83905000Y-106145000D02*
X77325000Y-106145000D01*
X76210000Y-95070000D02*
X76205000Y-95070000D01*
X99830000Y-47880000D02*
X99830000Y-54837500D01*
%TD*%
M02*
