%TF.GenerationSoftware,KiCad,Pcbnew,(6.0.5)*%
%TF.CreationDate,2023-08-07T17:40:22+03:00*%
%TF.ProjectId,JLC3,4a4c4333-2e6b-4696-9361-645f70636258,rev?*%
%TF.SameCoordinates,Original*%
%TF.FileFunction,Plated,1,2,PTH,Mixed*%
%TF.FilePolarity,Positive*%
%FSLAX46Y46*%
G04 Gerber Fmt 4.6, Leading zero omitted, Abs format (unit mm)*
G04 Created by KiCad (PCBNEW (6.0.5)) date 2023-08-07 17:40:22*
%MOMM*%
%LPD*%
G01*
G04 APERTURE LIST*
%TA.AperFunction,ViaDrill*%
%ADD10C,0.300000*%
%TD*%
%TA.AperFunction,ViaDrill*%
%ADD11C,0.400000*%
%TD*%
%TA.AperFunction,ComponentDrill*%
%ADD12C,0.600000*%
%TD*%
%TA.AperFunction,ComponentDrill*%
%ADD13C,0.800000*%
%TD*%
%TA.AperFunction,ComponentDrill*%
%ADD14C,0.900000*%
%TD*%
%TA.AperFunction,ComponentDrill*%
%ADD15C,1.000000*%
%TD*%
%TA.AperFunction,ComponentDrill*%
%ADD16C,1.100000*%
%TD*%
G04 aperture for slot hole*
%TA.AperFunction,ComponentDrill*%
%ADD17O,1.800000X1.100000*%
%TD*%
G04 APERTURE END LIST*
D10*
X61407143Y-117164546D03*
X62970000Y-73480000D03*
X63750000Y-74370000D03*
X64560000Y-75220000D03*
X64977143Y-120434546D03*
X74287143Y-120434546D03*
X74420000Y-42750000D03*
X76205000Y-84570000D03*
X76205000Y-88070000D03*
X76205000Y-91570000D03*
X76205000Y-95070000D03*
X76205000Y-99270000D03*
X76205000Y-102770000D03*
X76205000Y-106270000D03*
X76205000Y-109770000D03*
X76970000Y-75200000D03*
X79510000Y-74370000D03*
X82050000Y-73480000D03*
X84830000Y-125240000D03*
X87130000Y-72090000D03*
X87240000Y-125290000D03*
X91190000Y-46030000D03*
X91720000Y-73490000D03*
X91730000Y-74380000D03*
X91730000Y-75210000D03*
X91950000Y-41000000D03*
X101130000Y-50447500D03*
X101190000Y-51877500D03*
X101240000Y-53307500D03*
X103840000Y-42750000D03*
X140512893Y-55252893D03*
X143392893Y-59392893D03*
X143612893Y-56122893D03*
D11*
X72367143Y-127964546D03*
X135532893Y-55232893D03*
X136662893Y-55252893D03*
X139122893Y-33242893D03*
X141565393Y-48132893D03*
X143002893Y-32082893D03*
X148052893Y-60532893D03*
D12*
%TO.C,1uF*%
X143396300Y-78972598D03*
X143396300Y-80972598D03*
%TO.C,100nF*%
X144920000Y-94529999D03*
X144920000Y-97029999D03*
X147646300Y-78849999D03*
X147646300Y-81349999D03*
X147670000Y-94529999D03*
X147670000Y-97029999D03*
D13*
%TO.C,NE555*%
X63737143Y-115094546D03*
X63737143Y-122714546D03*
%TO.C,74LS574*%
X65255000Y-85830000D03*
X65255000Y-88370000D03*
X65255000Y-90910000D03*
X65255000Y-93450000D03*
X65255000Y-95990000D03*
X65255000Y-98530000D03*
X65255000Y-101070000D03*
X65255000Y-103610000D03*
X65255000Y-106150000D03*
X65255000Y-108690000D03*
%TO.C,NE555*%
X66277143Y-115094546D03*
X66277143Y-122714546D03*
X68817143Y-115094546D03*
X68817143Y-122714546D03*
X71357143Y-115094546D03*
X71357143Y-122714546D03*
%TO.C,74HC595*%
X71890000Y-32270000D03*
X71890000Y-39890000D03*
X71890000Y-69427500D03*
X71890000Y-77047500D03*
%TO.C,74LS574*%
X72875000Y-85830000D03*
X72875000Y-88370000D03*
X72875000Y-90910000D03*
X72875000Y-93450000D03*
X72875000Y-95990000D03*
X72875000Y-98530000D03*
X72875000Y-101070000D03*
X72875000Y-103610000D03*
X72875000Y-106150000D03*
X72875000Y-108690000D03*
%TO.C,74HC595*%
X74430000Y-32270000D03*
X74430000Y-39890000D03*
X74430000Y-69427500D03*
X74430000Y-77047500D03*
X76970000Y-32270000D03*
X76970000Y-39890000D03*
X76970000Y-69427500D03*
X76970000Y-77047500D03*
%TO.C,74LS76*%
X77210000Y-121150000D03*
X77210000Y-128770000D03*
%TO.C,74HC595*%
X79510000Y-32270000D03*
X79510000Y-39890000D03*
X79510000Y-69427500D03*
X79510000Y-77047500D03*
%TO.C,74LS76*%
X79750000Y-121150000D03*
X79750000Y-128770000D03*
%TO.C,74HC595*%
X82050000Y-32270000D03*
X82050000Y-39890000D03*
X82050000Y-69427500D03*
X82050000Y-77047500D03*
%TO.C,74LS76*%
X82290000Y-121150000D03*
X82290000Y-128770000D03*
%TO.C,28C64*%
X83905000Y-83285000D03*
X83905000Y-85825000D03*
X83905000Y-88365000D03*
X83905000Y-90905000D03*
X83905000Y-93445000D03*
X83905000Y-95985000D03*
X83905000Y-98525000D03*
X83905000Y-101065000D03*
X83905000Y-103605000D03*
X83905000Y-106145000D03*
X83905000Y-108685000D03*
X83905000Y-111225000D03*
X83905000Y-113765000D03*
X83905000Y-116305000D03*
%TO.C,74HC595*%
X84590000Y-32270000D03*
X84590000Y-39890000D03*
X84590000Y-69427500D03*
X84590000Y-77047500D03*
%TO.C,74LS76*%
X84830000Y-121150000D03*
X84830000Y-128770000D03*
%TO.C,74HC595*%
X87130000Y-32270000D03*
X87130000Y-39890000D03*
X87130000Y-69427500D03*
X87130000Y-77047500D03*
%TO.C,74LS76*%
X87370000Y-121150000D03*
X87370000Y-128770000D03*
%TO.C,74HC595*%
X89670000Y-32270000D03*
X89670000Y-39890000D03*
X89670000Y-69427500D03*
X89670000Y-77047500D03*
%TO.C,74LS76*%
X89910000Y-121150000D03*
X89910000Y-128770000D03*
X92450000Y-121150000D03*
X92450000Y-128770000D03*
X94990000Y-121150000D03*
X94990000Y-128770000D03*
%TO.C,74LS138*%
X98357143Y-121145455D03*
X98357143Y-128765455D03*
%TO.C,28C64*%
X99145000Y-83285000D03*
X99145000Y-85825000D03*
X99145000Y-88365000D03*
X99145000Y-90905000D03*
X99145000Y-93445000D03*
X99145000Y-95985000D03*
X99145000Y-98525000D03*
X99145000Y-101065000D03*
X99145000Y-103605000D03*
X99145000Y-106145000D03*
X99145000Y-108685000D03*
X99145000Y-111225000D03*
X99145000Y-113765000D03*
X99145000Y-116305000D03*
%TO.C,74LS138*%
X100897143Y-121145455D03*
X100897143Y-128765455D03*
X103437143Y-121145455D03*
X103437143Y-128765455D03*
X105977143Y-121145455D03*
X105977143Y-128765455D03*
X108517143Y-121145455D03*
X108517143Y-128765455D03*
X111057143Y-121145455D03*
X111057143Y-128765455D03*
X113597143Y-121145455D03*
X113597143Y-128765455D03*
X116137143Y-121145455D03*
X116137143Y-128765455D03*
%TO.C,220R*%
X121760000Y-92039999D03*
X121760000Y-102199999D03*
X126790000Y-108754999D03*
X126790000Y-118914999D03*
%TO.C,74LS00*%
X130195000Y-120909999D03*
X130195000Y-128529999D03*
%TO.C,100K*%
X132390000Y-94986299D03*
%TO.C,74LS00*%
X132735000Y-120909999D03*
X132735000Y-128529999D03*
X135275000Y-120909999D03*
X135275000Y-128529999D03*
%TO.C,1K*%
X136410000Y-81939999D03*
X136410000Y-92099999D03*
%TO.C,1M*%
X136520000Y-97049999D03*
X136520000Y-107209999D03*
%TO.C,74LS00*%
X137815000Y-120909999D03*
X137815000Y-128529999D03*
%TO.C,NE555*%
X140010000Y-84099999D03*
X140010000Y-91719999D03*
X140020000Y-99709999D03*
X140020000Y-107329999D03*
%TO.C,74LS00*%
X140355000Y-120909999D03*
X140355000Y-128529999D03*
%TO.C,NE555*%
X142550000Y-84099999D03*
X142550000Y-91719999D03*
%TO.C,100K*%
X142550000Y-94986299D03*
%TO.C,NE555*%
X142560000Y-99709999D03*
X142560000Y-107329999D03*
%TO.C,74LS00*%
X142895000Y-120909999D03*
X142895000Y-128529999D03*
%TO.C,NE555*%
X145090000Y-84099999D03*
X145090000Y-91719999D03*
X145100000Y-99709999D03*
X145100000Y-107329999D03*
%TO.C,74LS00*%
X145435000Y-120909999D03*
X145435000Y-128529999D03*
%TO.C,NE555*%
X147630000Y-84099999D03*
X147630000Y-91719999D03*
X147640000Y-99709999D03*
X147640000Y-107329999D03*
D14*
%TO.C,ON*%
X120890000Y-117134999D03*
X120915000Y-110509999D03*
X123430000Y-117134999D03*
X123455000Y-110509999D03*
X125485000Y-94139999D03*
X128025000Y-94139999D03*
%TO.C,MODE*%
X130140000Y-111359999D03*
X130140000Y-113859999D03*
X130140000Y-116359999D03*
X136140000Y-111359999D03*
X136140000Y-113859999D03*
X136140000Y-116359999D03*
D15*
%TO.C,Mode*%
X56675000Y-84605000D03*
%TO.C,D_IN*%
X58630000Y-117312500D03*
%TO.C,Mode*%
X59215000Y-84605000D03*
%TO.C,BUS*%
X59225000Y-88365000D03*
X59225000Y-90905000D03*
X59225000Y-93445000D03*
X59225000Y-95985000D03*
X59225000Y-98525000D03*
X59225000Y-101065000D03*
X59225000Y-103605000D03*
X59225000Y-106145000D03*
X59225000Y-108685000D03*
X59225000Y-111225000D03*
%TO.C,Mode*%
X61755000Y-84605000D03*
%TO.C,BUS*%
X61775000Y-88375000D03*
X61775000Y-90915000D03*
X61775000Y-93455000D03*
X61775000Y-95995000D03*
X61775000Y-98535000D03*
X61775000Y-101075000D03*
X61775000Y-103615000D03*
X61775000Y-106155000D03*
X61775000Y-108695000D03*
X61775000Y-111235000D03*
%TO.C,EEPROM SOCKET*%
X66810000Y-47880000D03*
X66810000Y-63120000D03*
X69350000Y-47880000D03*
X69350000Y-63120000D03*
X71890000Y-47880000D03*
X71890000Y-63120000D03*
X74430000Y-47880000D03*
X74430000Y-63120000D03*
%TO.C,1M*%
X74587143Y-112854546D03*
X74587143Y-117854546D03*
%TO.C,EEPROM SOCKET*%
X76970000Y-47880000D03*
X76970000Y-63120000D03*
X79510000Y-47880000D03*
X79510000Y-63120000D03*
%TO.C,1M*%
X79587143Y-115354546D03*
%TO.C,EEPROM SOCKET*%
X82050000Y-47880000D03*
X82050000Y-63120000D03*
X84590000Y-47880000D03*
X84590000Y-63120000D03*
X87130000Y-47880000D03*
X87130000Y-63120000D03*
X89670000Y-47880000D03*
X89670000Y-63120000D03*
X92210000Y-47880000D03*
X92210000Y-63120000D03*
X94750000Y-47880000D03*
X94750000Y-63120000D03*
%TO.C,REF\u002A\u002A*%
X95620000Y-33715000D03*
%TO.C,EEPROM SOCKET*%
X97290000Y-47880000D03*
X97290000Y-63120000D03*
%TO.C,REF\u002A\u002A*%
X98160000Y-33715000D03*
%TO.C,EEPROM SOCKET*%
X99830000Y-47880000D03*
X99830000Y-63120000D03*
%TO.C,REF\u002A\u002A*%
X100700000Y-33715000D03*
X103240000Y-33715000D03*
X104600000Y-93575000D03*
X104600000Y-96115000D03*
X104600000Y-98655000D03*
X104600000Y-101195000D03*
X104600000Y-103735000D03*
X104600000Y-106275000D03*
X109565000Y-35190000D03*
X109565000Y-37730000D03*
X109565000Y-40270000D03*
X109565000Y-42810000D03*
X109600000Y-46592500D03*
X109600000Y-49132500D03*
X109600000Y-51672500D03*
X109600000Y-54212500D03*
X109600000Y-56752500D03*
X109600000Y-59292500D03*
X109600000Y-61832500D03*
X109600000Y-64372500D03*
X114750000Y-93575000D03*
X114750000Y-96115000D03*
X114750000Y-98655000D03*
X114750000Y-101195000D03*
X114750000Y-103735000D03*
X114750000Y-106275000D03*
%TO.C,U3*%
X115700393Y-33492893D03*
X115715393Y-48742893D03*
%TO.C,J1*%
X117014294Y-52413292D03*
X117014294Y-54953292D03*
X117014294Y-57493292D03*
X117014294Y-60033292D03*
X117014294Y-62573292D03*
X117014294Y-65113292D03*
%TO.C,U3*%
X118240393Y-33492893D03*
%TO.C,J4*%
X118247893Y-36742893D03*
X118247893Y-39282893D03*
%TO.C,J3*%
X118247893Y-42892893D03*
X118247893Y-45432893D03*
%TO.C,U3*%
X118255393Y-48742893D03*
X120780393Y-33492893D03*
X120795393Y-48742893D03*
%TO.C,REF\u002A\u002A*%
X122740000Y-122779999D03*
X122740000Y-125319999D03*
X122740000Y-127859999D03*
%TO.C,U3*%
X123320393Y-33492893D03*
X123335393Y-48742893D03*
%TO.C,REF\u002A\u002A*%
X125280000Y-122779999D03*
X125280000Y-125319999D03*
X125280000Y-127859999D03*
%TO.C,U3*%
X125860393Y-33492893D03*
X125875393Y-48742893D03*
%TO.C,J6*%
X125932893Y-67402893D03*
%TO.C,U3*%
X128400393Y-33492893D03*
X128415393Y-48742893D03*
%TO.C,J6*%
X128472893Y-67402893D03*
%TO.C,U3*%
X130940393Y-33492893D03*
X130955393Y-48742893D03*
%TO.C,J6*%
X131012893Y-67402893D03*
%TO.C,1M*%
X132875000Y-81819999D03*
X132875000Y-84319999D03*
X132875000Y-86819999D03*
%TO.C,U3*%
X133480393Y-33492893D03*
X133495393Y-48742893D03*
%TO.C,J6*%
X133552893Y-67402893D03*
X136092893Y-67402893D03*
X138632893Y-67402893D03*
%TO.C,J2*%
X143169294Y-62558292D03*
X143169294Y-65098292D03*
X143169294Y-67638292D03*
X145709294Y-62558292D03*
X145709294Y-65098292D03*
X145709294Y-67638292D03*
%TO.C,SW2*%
X146977893Y-32182893D03*
%TO.C,J8*%
X147652893Y-36232893D03*
%TO.C,SW2*%
X149517893Y-32182893D03*
%TO.C,J5*%
X149747893Y-41027893D03*
X149747893Y-43567893D03*
X149747893Y-46107893D03*
X149747893Y-48647893D03*
X149747893Y-51187893D03*
X149747893Y-53727893D03*
X149747893Y-56267893D03*
X149747893Y-58807893D03*
X149747893Y-61347893D03*
X149747893Y-63887893D03*
%TO.C,J9*%
X151372893Y-36202893D03*
%TO.C,SW2*%
X152057893Y-32182893D03*
D16*
%TO.C,SW1*%
X122789294Y-55038292D03*
X122789294Y-61538292D03*
D17*
%TO.C,1M*%
X125375000Y-79519999D03*
X125375000Y-89119999D03*
D16*
%TO.C,SW1*%
X127289294Y-55038292D03*
X127289294Y-61538292D03*
%TO.C,REF\u002A\u002A*%
X128370000Y-98989999D03*
X128370000Y-105489999D03*
X132870000Y-98989999D03*
X132870000Y-105489999D03*
M02*
