%TF.GenerationSoftware,KiCad,Pcbnew,(6.0.5)*%
%TF.CreationDate,2023-06-16T09:38:04+03:00*%
%TF.ProjectId,JLC1,4a4c4331-2e6b-4696-9361-645f70636258,rev?*%
%TF.SameCoordinates,Original*%
%TF.FileFunction,Paste,Top*%
%TF.FilePolarity,Positive*%
%FSLAX46Y46*%
G04 Gerber Fmt 4.6, Leading zero omitted, Abs format (unit mm)*
G04 Created by KiCad (PCBNEW (6.0.5)) date 2023-06-16 09:38:04*
%MOMM*%
%LPD*%
G01*
G04 APERTURE LIST*
G04 Aperture macros list*
%AMRoundRect*
0 Rectangle with rounded corners*
0 $1 Rounding radius*
0 $2 $3 $4 $5 $6 $7 $8 $9 X,Y pos of 4 corners*
0 Add a 4 corners polygon primitive as box body*
4,1,4,$2,$3,$4,$5,$6,$7,$8,$9,$2,$3,0*
0 Add four circle primitives for the rounded corners*
1,1,$1+$1,$2,$3*
1,1,$1+$1,$4,$5*
1,1,$1+$1,$6,$7*
1,1,$1+$1,$8,$9*
0 Add four rect primitives between the rounded corners*
20,1,$1+$1,$2,$3,$4,$5,0*
20,1,$1+$1,$4,$5,$6,$7,0*
20,1,$1+$1,$6,$7,$8,$9,0*
20,1,$1+$1,$8,$9,$2,$3,0*%
G04 Aperture macros list end*
%ADD10RoundRect,0.250000X-0.312500X-0.625000X0.312500X-0.625000X0.312500X0.625000X-0.312500X0.625000X0*%
%ADD11RoundRect,0.250000X0.625000X-0.312500X0.625000X0.312500X-0.625000X0.312500X-0.625000X-0.312500X0*%
%ADD12RoundRect,0.175000X0.175000X0.575000X-0.175000X0.575000X-0.175000X-0.575000X0.175000X-0.575000X0*%
%ADD13RoundRect,0.250000X0.312500X0.625000X-0.312500X0.625000X-0.312500X-0.625000X0.312500X-0.625000X0*%
%ADD14R,1.550000X1.300000*%
%ADD15R,2.500000X2.200000*%
%ADD16R,1.550000X2.200000*%
%ADD17R,1.473200X0.508000*%
%ADD18R,0.508000X1.473200*%
%ADD19RoundRect,0.250000X-0.650000X0.325000X-0.650000X-0.325000X0.650000X-0.325000X0.650000X0.325000X0*%
%ADD20R,1.900000X0.400000*%
%ADD21RoundRect,0.197500X-0.197500X-0.632500X0.197500X-0.632500X0.197500X0.632500X-0.197500X0.632500X0*%
%ADD22R,2.200000X2.200000*%
%ADD23R,1.250000X2.200000*%
%ADD24RoundRect,0.250000X0.475000X-0.250000X0.475000X0.250000X-0.475000X0.250000X-0.475000X-0.250000X0*%
%ADD25R,1.525000X0.440000*%
%ADD26R,0.550000X1.600000*%
%ADD27R,1.600000X0.550000*%
%ADD28R,0.599440X1.998980*%
%ADD29RoundRect,0.250000X-0.625000X0.312500X-0.625000X-0.312500X0.625000X-0.312500X0.625000X0.312500X0*%
%ADD30R,1.300000X1.550000*%
%ADD31RoundRect,0.250000X-0.250000X-0.475000X0.250000X-0.475000X0.250000X0.475000X-0.250000X0.475000X0*%
%ADD32RoundRect,0.250000X-0.412500X-0.650000X0.412500X-0.650000X0.412500X0.650000X-0.412500X0.650000X0*%
%ADD33R,0.850000X0.650000*%
%ADD34R,0.500000X0.300000*%
%ADD35R,2.200000X2.500000*%
%ADD36R,2.200000X1.550000*%
%ADD37RoundRect,0.250000X-0.475000X0.250000X-0.475000X-0.250000X0.475000X-0.250000X0.475000X0.250000X0*%
%ADD38RoundRect,0.250000X0.650000X-0.325000X0.650000X0.325000X-0.650000X0.325000X-0.650000X-0.325000X0*%
%ADD39R,2.500000X0.500000*%
%ADD40R,2.500000X2.000000*%
%ADD41RoundRect,0.242500X-0.242500X0.242500X-0.242500X-0.242500X0.242500X-0.242500X0.242500X0.242500X0*%
%ADD42RoundRect,0.062500X-0.062500X0.337500X-0.062500X-0.337500X0.062500X-0.337500X0.062500X0.337500X0*%
%ADD43RoundRect,0.062500X-0.337500X0.062500X-0.337500X-0.062500X0.337500X-0.062500X0.337500X0.062500X0*%
%ADD44R,0.400000X1.900000*%
%ADD45R,2.500000X1.100000*%
%ADD46RoundRect,0.049600X-0.260400X0.605400X-0.260400X-0.605400X0.260400X-0.605400X0.260400X0.605400X0*%
G04 APERTURE END LIST*
D10*
%TO.C,2K7*%
X75587500Y-72717500D03*
X78512500Y-72717500D03*
%TD*%
D11*
%TO.C,330R*%
X74750000Y-53380000D03*
X74750000Y-50455000D03*
%TD*%
D12*
%TO.C,*%
X155025000Y-104275000D03*
%TD*%
%TO.C,*%
X150275000Y-104262500D03*
%TD*%
D13*
%TO.C,330R*%
X115443450Y-42579050D03*
X112518450Y-42579050D03*
%TD*%
D14*
%TO.C,RESET*%
X149518450Y-38854050D03*
X141568450Y-38854050D03*
X141568450Y-34354050D03*
X149518450Y-34354050D03*
%TD*%
D13*
%TO.C,47K*%
X97278750Y-40947500D03*
X94353750Y-40947500D03*
%TD*%
D15*
%TO.C,PORT2*%
X80400000Y-43942500D03*
D16*
X77825000Y-43942500D03*
%TD*%
D13*
%TO.C,220R*%
X97278750Y-71847500D03*
X94353750Y-71847500D03*
%TD*%
D12*
%TO.C,*%
X149375000Y-132937500D03*
%TD*%
D17*
%TO.C,ATmega32U4*%
X131655250Y-53383950D03*
X131655250Y-52596550D03*
X131655250Y-51783750D03*
X131655250Y-50996350D03*
X131655250Y-50183550D03*
X131655250Y-49396150D03*
X131655250Y-48608750D03*
X131655250Y-47795950D03*
X131655250Y-47008550D03*
X131655250Y-46195750D03*
X131655250Y-45408350D03*
D18*
X129902650Y-43655750D03*
X129115250Y-43655750D03*
X128302450Y-43655750D03*
X127515050Y-43655750D03*
X126702250Y-43655750D03*
X125914850Y-43655750D03*
X125127450Y-43655750D03*
X124314650Y-43655750D03*
X123527250Y-43655750D03*
X122714450Y-43655750D03*
X121927050Y-43655750D03*
D17*
X120174450Y-45408350D03*
X120174450Y-46195750D03*
X120174450Y-47008550D03*
X120174450Y-47795950D03*
X120174450Y-48608750D03*
X120174450Y-49396150D03*
X120174450Y-50183550D03*
X120174450Y-50996350D03*
X120174450Y-51783750D03*
X120174450Y-52596550D03*
X120174450Y-53383950D03*
D18*
X121927050Y-55136550D03*
X122714450Y-55136550D03*
X123527250Y-55136550D03*
X124314650Y-55136550D03*
X125127450Y-55136550D03*
X125914850Y-55136550D03*
X126702250Y-55136550D03*
X127515050Y-55136550D03*
X128302450Y-55136550D03*
X129115250Y-55136550D03*
X129902650Y-55136550D03*
%TD*%
D12*
%TO.C,*%
X153225000Y-104275000D03*
%TD*%
D13*
%TO.C,22R*%
X140300000Y-74937500D03*
X137375000Y-74937500D03*
%TD*%
D12*
%TO.C,*%
X147575000Y-132937500D03*
%TD*%
D19*
%TO.C,100nF*%
X140790000Y-88947500D03*
X140790000Y-91897500D03*
%TD*%
D20*
%TO.C,16MHz*%
X137040000Y-92347500D03*
X137040000Y-91147500D03*
X137040000Y-89947500D03*
%TD*%
D21*
%TO.C,REF\u002A\u002A*%
X99091250Y-66322500D03*
X99091250Y-62322500D03*
X100891250Y-66322500D03*
X100891250Y-62322500D03*
%TD*%
D15*
%TO.C,REF\u002A\u002A*%
X126940000Y-102272500D03*
D16*
X124365000Y-102272500D03*
%TD*%
D15*
%TO.C,PORT4*%
X77650000Y-36942500D03*
D16*
X80225000Y-36942500D03*
%TD*%
D22*
%TO.C,REF\u002A\u002A*%
X149250000Y-123812500D03*
D23*
X146975000Y-123812500D03*
%TD*%
D24*
%TO.C,0.1uF*%
X132714850Y-56721150D03*
X132714850Y-54821150D03*
%TD*%
D11*
%TO.C,330R*%
X78575000Y-53380000D03*
X78575000Y-50455000D03*
%TD*%
D13*
%TO.C,REF\u002A\u002A*%
X142587500Y-118037500D03*
X139662500Y-118037500D03*
%TD*%
D22*
%TO.C,REF\u002A\u002A*%
X154975000Y-107450000D03*
D23*
X152700000Y-107450000D03*
%TD*%
D13*
%TO.C,47K*%
X97291250Y-69522500D03*
X94366250Y-69522500D03*
%TD*%
%TO.C,REF\u002A\u002A*%
X142587500Y-120487500D03*
X139662500Y-120487500D03*
%TD*%
D10*
%TO.C,22R*%
X137645950Y-49504050D03*
X140570950Y-49504050D03*
%TD*%
D12*
%TO.C,*%
X147575000Y-104262500D03*
%TD*%
%TO.C,*%
X153225000Y-132950000D03*
%TD*%
D11*
%TO.C,*%
X82250000Y-53392500D03*
%TD*%
D13*
%TO.C,220R*%
X97278750Y-90897500D03*
X94353750Y-90897500D03*
%TD*%
D25*
%TO.C,FE1.1s*%
X75771500Y-60452500D03*
X75771500Y-61092500D03*
X75771500Y-61732500D03*
X75771500Y-62372500D03*
X75771500Y-63012500D03*
X75771500Y-63652500D03*
X75771500Y-64292500D03*
X75771500Y-64932500D03*
X75771500Y-65572500D03*
X75771500Y-66212500D03*
X75771500Y-66852500D03*
X75771500Y-67492500D03*
X75771500Y-68132500D03*
X75771500Y-68772500D03*
X81195500Y-68772500D03*
X81195500Y-68132500D03*
X81195500Y-67492500D03*
X81195500Y-66852500D03*
X81195500Y-66212500D03*
X81195500Y-65572500D03*
X81195500Y-64932500D03*
X81195500Y-64292500D03*
X81195500Y-63652500D03*
X81195500Y-63012500D03*
X81195500Y-62372500D03*
X81195500Y-61732500D03*
X81195500Y-61092500D03*
X81195500Y-60452500D03*
%TD*%
D12*
%TO.C,*%
X152325000Y-132950000D03*
%TD*%
D13*
%TO.C,47K*%
X97278750Y-60022500D03*
X94353750Y-60022500D03*
%TD*%
D11*
%TO.C,1K*%
X89125000Y-72255000D03*
X89125000Y-69330000D03*
%TD*%
D13*
%TO.C,220R*%
X97278750Y-100422500D03*
X94353750Y-100422500D03*
%TD*%
%TO.C,330R*%
X125865000Y-95422500D03*
X122940000Y-95422500D03*
%TD*%
D26*
%TO.C,ATmega16U2*%
X136790000Y-94372500D03*
X135990000Y-94372500D03*
X135190000Y-94372500D03*
X134390000Y-94372500D03*
X133590000Y-94372500D03*
X132790000Y-94372500D03*
X131990000Y-94372500D03*
X131190000Y-94372500D03*
D27*
X129740000Y-95822500D03*
X129740000Y-96622500D03*
X129740000Y-97422500D03*
X129740000Y-98222500D03*
X129740000Y-99022500D03*
X129740000Y-99822500D03*
X129740000Y-100622500D03*
X129740000Y-101422500D03*
D26*
X131190000Y-102872500D03*
X131990000Y-102872500D03*
X132790000Y-102872500D03*
X133590000Y-102872500D03*
X134390000Y-102872500D03*
X135190000Y-102872500D03*
X135990000Y-102872500D03*
X136790000Y-102872500D03*
D27*
X138240000Y-101422500D03*
X138240000Y-100622500D03*
X138240000Y-99822500D03*
X138240000Y-99022500D03*
X138240000Y-98222500D03*
X138240000Y-97422500D03*
X138240000Y-96622500D03*
X138240000Y-95822500D03*
%TD*%
D21*
%TO.C,REF\u002A\u002A*%
X99091250Y-104422500D03*
X99091250Y-100422500D03*
X100891250Y-104422500D03*
X100891250Y-100422500D03*
%TD*%
D28*
%TO.C,REF\u002A\u002A*%
X86152500Y-121147200D03*
X87422500Y-121147200D03*
X88692500Y-121147200D03*
X89962500Y-121147200D03*
X91232500Y-121147200D03*
X92502500Y-121147200D03*
X93772500Y-121147200D03*
X95042500Y-121147200D03*
X95042500Y-116346600D03*
X93772500Y-116346600D03*
X92502500Y-116346600D03*
X91232500Y-116346600D03*
X89962500Y-116346600D03*
X88692500Y-116346600D03*
X87422500Y-116346600D03*
X86152500Y-116346600D03*
%TD*%
D12*
%TO.C,*%
X154125000Y-132950000D03*
%TD*%
%TO.C,*%
X152325000Y-104275000D03*
%TD*%
D22*
%TO.C,REF\u002A\u002A*%
X154950000Y-112900000D03*
D23*
X152675000Y-112900000D03*
%TD*%
D12*
%TO.C,*%
X154125000Y-104275000D03*
%TD*%
D21*
%TO.C,REF\u002A\u002A*%
X99091250Y-94897500D03*
X99091250Y-90897500D03*
X100891250Y-94897500D03*
X100891250Y-90897500D03*
%TD*%
D13*
%TO.C,220R*%
X97278750Y-62347500D03*
X94353750Y-62347500D03*
%TD*%
D29*
%TO.C,10uF*%
X140875000Y-67075000D03*
X140875000Y-70000000D03*
%TD*%
D30*
%TO.C,RESET*%
X89325000Y-77367500D03*
X89325000Y-85317500D03*
X84825000Y-85317500D03*
X84825000Y-77367500D03*
%TD*%
D29*
%TO.C,100nF*%
X117125000Y-69575000D03*
X117125000Y-72500000D03*
%TD*%
D22*
%TO.C,REF\u002A\u002A*%
X149325000Y-107437500D03*
D23*
X147050000Y-107437500D03*
%TD*%
D29*
%TO.C,100nF*%
X138550000Y-67075000D03*
X138550000Y-70000000D03*
%TD*%
D13*
%TO.C,FUSE*%
X86212500Y-64542500D03*
X83287500Y-64542500D03*
%TD*%
D31*
%TO.C,1uF*%
X140640000Y-101622500D03*
X142540000Y-101622500D03*
%TD*%
D13*
%TO.C,REF\u002A\u002A*%
X155500000Y-126550000D03*
X152575000Y-126550000D03*
%TD*%
D29*
%TO.C,330R*%
X114640000Y-98147500D03*
X114640000Y-101072500D03*
%TD*%
D15*
%TO.C,PORT1*%
X80500000Y-47442500D03*
D16*
X83075000Y-47442500D03*
%TD*%
D12*
%TO.C,*%
X146675000Y-132937500D03*
%TD*%
D13*
%TO.C,47K*%
X97278750Y-50472500D03*
X94353750Y-50472500D03*
%TD*%
D15*
%TO.C,REF\u002A\u002A*%
X122752500Y-117622500D03*
D16*
X120177500Y-117622500D03*
%TD*%
D15*
%TO.C,REF\u002A\u002A*%
X118465000Y-95047500D03*
D16*
X121040000Y-95047500D03*
%TD*%
D24*
%TO.C,1uF*%
X144525000Y-119737500D03*
X144525000Y-117837500D03*
%TD*%
D12*
%TO.C,*%
X149375000Y-104262500D03*
%TD*%
D13*
%TO.C,REF\u002A\u002A*%
X149925000Y-110162500D03*
X147000000Y-110162500D03*
%TD*%
D32*
%TO.C,10uF*%
X75337500Y-76792500D03*
X78462500Y-76792500D03*
%TD*%
D22*
%TO.C,REF\u002A\u002A*%
X154900000Y-123825000D03*
D23*
X152625000Y-123825000D03*
%TD*%
D13*
%TO.C,220R*%
X97278750Y-43272500D03*
X94353750Y-43272500D03*
%TD*%
%TO.C,REF\u002A\u002A*%
X155550000Y-115625000D03*
X152625000Y-115625000D03*
%TD*%
D33*
%TO.C,LM358*%
X142275000Y-115862500D03*
X142275000Y-114987500D03*
D34*
X141375000Y-114675000D03*
X141375000Y-115175000D03*
X141375000Y-115675000D03*
X141375000Y-116175000D03*
X143175000Y-116175000D03*
X143175000Y-115675000D03*
X143175000Y-115175000D03*
X143175000Y-114675000D03*
%TD*%
D22*
%TO.C,REF\u002A\u002A*%
X149275000Y-118362500D03*
D23*
X147000000Y-118362500D03*
%TD*%
D12*
%TO.C,*%
X146675000Y-104262500D03*
%TD*%
D35*
%TO.C,TX*%
X118958450Y-38904050D03*
D36*
X118958450Y-41479050D03*
%TD*%
D13*
%TO.C,REF\u002A\u002A*%
X149875000Y-121087500D03*
X146950000Y-121087500D03*
%TD*%
D31*
%TO.C,1uF*%
X136625000Y-77587500D03*
X138525000Y-77587500D03*
%TD*%
D13*
%TO.C,220R*%
X97278750Y-33747500D03*
X94353750Y-33747500D03*
%TD*%
D12*
%TO.C,*%
X155925000Y-132950000D03*
%TD*%
D13*
%TO.C,330R*%
X115468450Y-39029050D03*
X112543450Y-39029050D03*
%TD*%
%TO.C,REF\u002A\u002A*%
X155575000Y-110175000D03*
X152650000Y-110175000D03*
%TD*%
D12*
%TO.C,*%
X155025000Y-132950000D03*
%TD*%
D33*
%TO.C,LM358*%
X139175000Y-115825000D03*
X139175000Y-114950000D03*
D34*
X138275000Y-114637500D03*
X138275000Y-115137500D03*
X138275000Y-115637500D03*
X138275000Y-116137500D03*
X140075000Y-116137500D03*
X140075000Y-115637500D03*
X140075000Y-115137500D03*
X140075000Y-114637500D03*
%TD*%
D14*
%TO.C,RESET*%
X148450000Y-84787500D03*
X140500000Y-84787500D03*
X148450000Y-80287500D03*
X140500000Y-80287500D03*
%TD*%
D12*
%TO.C,*%
X148475000Y-104262500D03*
%TD*%
D37*
%TO.C,10uF*%
X136908450Y-54829050D03*
X136908450Y-56729050D03*
%TD*%
D12*
%TO.C,*%
X148475000Y-132937500D03*
%TD*%
%TO.C,*%
X150275000Y-132937500D03*
%TD*%
D13*
%TO.C,220R*%
X97278750Y-52797500D03*
X94353750Y-52797500D03*
%TD*%
D31*
%TO.C,1uF*%
X133577450Y-49008550D03*
X135477450Y-49008550D03*
%TD*%
D11*
%TO.C,10K*%
X112290000Y-101072500D03*
X112290000Y-98147500D03*
%TD*%
D24*
%TO.C,1uF*%
X144525000Y-123537500D03*
X144525000Y-121637500D03*
%TD*%
D11*
%TO.C,330R*%
X82250000Y-53392500D03*
X82250000Y-50467500D03*
%TD*%
D10*
%TO.C,1K*%
X113540000Y-115772500D03*
X116465000Y-115772500D03*
%TD*%
D13*
%TO.C,1K*%
X119887500Y-74487500D03*
X116962500Y-74487500D03*
%TD*%
%TO.C,47K*%
X97278750Y-88572500D03*
X94353750Y-88572500D03*
%TD*%
D21*
%TO.C,REF\u002A\u002A*%
X99091250Y-85372500D03*
X99091250Y-81372500D03*
X100891250Y-85372500D03*
X100891250Y-81372500D03*
%TD*%
D10*
%TO.C,22R*%
X137653950Y-51873050D03*
X140578950Y-51873050D03*
%TD*%
D21*
%TO.C,REF\u002A\u002A*%
X99091250Y-37747500D03*
X99091250Y-33747500D03*
X100891250Y-37747500D03*
X100891250Y-33747500D03*
%TD*%
D35*
%TO.C,REF\u002A\u002A*%
X117525000Y-77987500D03*
D36*
X117525000Y-80562500D03*
%TD*%
D38*
%TO.C,100nF*%
X113252500Y-129197500D03*
X113252500Y-126247500D03*
%TD*%
D39*
%TO.C,USB*%
X129502500Y-124447500D03*
X129502500Y-123647500D03*
X129502500Y-122847500D03*
X129502500Y-122047500D03*
X129502500Y-121247500D03*
D40*
X135002500Y-118447500D03*
X129502500Y-127247500D03*
X135002500Y-127247500D03*
X129502500Y-118447500D03*
%TD*%
D22*
%TO.C,REF\u002A\u002A*%
X142025000Y-123437500D03*
D23*
X139750000Y-123437500D03*
%TD*%
D21*
%TO.C,REF\u002A\u002A*%
X99091250Y-75847500D03*
X99091250Y-71847500D03*
X100891250Y-75847500D03*
X100891250Y-71847500D03*
%TD*%
D13*
%TO.C,47K*%
X97278750Y-98097500D03*
X94353750Y-98097500D03*
%TD*%
D11*
%TO.C,10K*%
X131268450Y-41141550D03*
X131268450Y-38216550D03*
%TD*%
D13*
%TO.C,REF\u002A\u002A*%
X155525000Y-121100000D03*
X152600000Y-121100000D03*
%TD*%
D32*
%TO.C,10uF*%
X75387500Y-84542500D03*
X78512500Y-84542500D03*
%TD*%
D15*
%TO.C,POW*%
X137533450Y-59554050D03*
D16*
X134958450Y-59554050D03*
%TD*%
D13*
%TO.C,330R*%
X125865000Y-97372500D03*
X122940000Y-97372500D03*
%TD*%
%TO.C,REF\u002A\u002A*%
X149900000Y-115612500D03*
X146975000Y-115612500D03*
%TD*%
%TO.C,47K*%
X97278750Y-106447500D03*
X94353750Y-106447500D03*
%TD*%
D21*
%TO.C,REF\u002A\u002A*%
X99091250Y-47272500D03*
X99091250Y-43272500D03*
X100891250Y-47272500D03*
X100891250Y-43272500D03*
%TD*%
D41*
%TO.C,AT90USB162*%
X132425000Y-73437500D03*
X132425000Y-75837500D03*
X131225000Y-73437500D03*
X133625000Y-74637500D03*
X132425000Y-74637500D03*
X133625000Y-73437500D03*
X131225000Y-75837500D03*
X133625000Y-75837500D03*
X131225000Y-74637500D03*
D42*
X134175000Y-72187500D03*
X133675000Y-72187500D03*
X133175000Y-72187500D03*
X132675000Y-72187500D03*
X132175000Y-72187500D03*
X131675000Y-72187500D03*
X131175000Y-72187500D03*
X130675000Y-72187500D03*
D43*
X129975000Y-72887500D03*
X129975000Y-73387500D03*
X129975000Y-73887500D03*
X129975000Y-74387500D03*
X129975000Y-74887500D03*
X129975000Y-75387500D03*
X129975000Y-75887500D03*
X129975000Y-76387500D03*
D42*
X130675000Y-77087500D03*
X131175000Y-77087500D03*
X131675000Y-77087500D03*
X132175000Y-77087500D03*
X132675000Y-77087500D03*
X133175000Y-77087500D03*
X133675000Y-77087500D03*
X134175000Y-77087500D03*
D43*
X134875000Y-76387500D03*
X134875000Y-75887500D03*
X134875000Y-75387500D03*
X134875000Y-74887500D03*
X134875000Y-74387500D03*
X134875000Y-73887500D03*
X134875000Y-73387500D03*
X134875000Y-72887500D03*
%TD*%
D11*
%TO.C,330R*%
X140533450Y-57691550D03*
X140533450Y-54766550D03*
%TD*%
D35*
%TO.C,PWR*%
X74150000Y-46892500D03*
D36*
X74150000Y-44317500D03*
%TD*%
D35*
%TO.C,REF\u002A\u002A*%
X68800000Y-117562500D03*
D36*
X68800000Y-114987500D03*
%TD*%
D35*
%TO.C,RX*%
X122533450Y-38904050D03*
D36*
X122533450Y-41479050D03*
%TD*%
D21*
%TO.C,REF\u002A\u002A*%
X99091250Y-56797500D03*
X99091250Y-52797500D03*
X100891250Y-56797500D03*
X100891250Y-52797500D03*
%TD*%
D22*
%TO.C,REF\u002A\u002A*%
X154925000Y-118375000D03*
D23*
X152650000Y-118375000D03*
%TD*%
D13*
%TO.C,10K*%
X143287500Y-77687500D03*
X140362500Y-77687500D03*
%TD*%
D19*
%TO.C,100nF*%
X113230000Y-118897500D03*
X113230000Y-121847500D03*
%TD*%
D20*
%TO.C,16MHz*%
X135725000Y-68387500D03*
X135725000Y-69587500D03*
X135725000Y-70787500D03*
%TD*%
D28*
%TO.C,REF\u002A\u002A*%
X74830000Y-121162500D03*
X76100000Y-121162500D03*
X77370000Y-121162500D03*
X78640000Y-121162500D03*
X79910000Y-121162500D03*
X81180000Y-121162500D03*
X82450000Y-121162500D03*
X83720000Y-121162500D03*
X83720000Y-116361900D03*
X82450000Y-116361900D03*
X81180000Y-116361900D03*
X79910000Y-116361900D03*
X78640000Y-116361900D03*
X77370000Y-116361900D03*
X76100000Y-116361900D03*
X74830000Y-116361900D03*
%TD*%
D22*
%TO.C,REF\u002A\u002A*%
X149300000Y-112887500D03*
D23*
X147025000Y-112887500D03*
%TD*%
D12*
%TO.C,*%
X155925000Y-104275000D03*
%TD*%
D13*
%TO.C,47K*%
X97278750Y-79047500D03*
X94353750Y-79047500D03*
%TD*%
D44*
%TO.C,16MHz*%
X125227450Y-39958550D03*
X126427450Y-39958550D03*
X127627450Y-39958550D03*
%TD*%
D32*
%TO.C,10uF*%
X75412500Y-80692500D03*
X78537500Y-80692500D03*
%TD*%
D29*
%TO.C,1K*%
X65725000Y-115200000D03*
X65725000Y-118125000D03*
%TD*%
D44*
%TO.C,12MHz*%
X73100000Y-57542500D03*
X74300000Y-57542500D03*
X75500000Y-57542500D03*
%TD*%
D24*
%TO.C,1uF*%
X134789850Y-56721150D03*
X134789850Y-54821150D03*
%TD*%
D13*
%TO.C,REF\u002A\u002A*%
X149850000Y-126537500D03*
X146925000Y-126537500D03*
%TD*%
D15*
%TO.C,REF\u002A\u002A*%
X118440000Y-98497500D03*
D16*
X121015000Y-98497500D03*
%TD*%
D13*
%TO.C,22R*%
X140300000Y-72637500D03*
X137375000Y-72637500D03*
%TD*%
D45*
%TO.C,USB_0*%
X143875000Y-68237500D03*
X143875000Y-70737500D03*
X143875000Y-72737500D03*
X143875000Y-75237500D03*
%TD*%
D15*
%TO.C,PORT3*%
X82950000Y-40417500D03*
D16*
X80375000Y-40417500D03*
%TD*%
D44*
%TO.C,12MHz*%
X115480000Y-119250000D03*
X116680000Y-119250000D03*
X117880000Y-119250000D03*
%TD*%
D13*
%TO.C,220R*%
X97278750Y-81372500D03*
X94353750Y-81372500D03*
%TD*%
D14*
%TO.C,RESET*%
X113865000Y-107522500D03*
X121815000Y-107522500D03*
X113865000Y-103022500D03*
X121815000Y-103022500D03*
%TD*%
D46*
%TO.C,CH340G*%
X125450000Y-121725000D03*
X124180000Y-121725000D03*
X122910000Y-121725000D03*
X121640000Y-121725000D03*
X120370000Y-121725000D03*
X119100000Y-121725000D03*
X117830000Y-121725000D03*
X116560000Y-121725000D03*
X116560000Y-127225000D03*
X117830000Y-127225000D03*
X119100000Y-127225000D03*
X120370000Y-127225000D03*
X121640000Y-127225000D03*
X122910000Y-127225000D03*
X124180000Y-127225000D03*
X125450000Y-127225000D03*
%TD*%
M02*
