M48
; DRILL file {KiCad 8.0.3} date 2024-09-09T16:29:26+0300
; FORMAT={-:-/ absolute / inch / decimal}
; #@! TF.CreationDate,2024-09-09T16:29:26+03:00
; #@! TF.GenerationSoftware,Kicad,Pcbnew,8.0.3
; #@! TF.FileFunction,Plated,1,2,PTH
FMAT,2
INCH
; #@! TA.AperFunction,Plated,PTH,ViaDrill
T1C0.0118
; #@! TA.AperFunction,Plated,PTH,ViaDrill
T2C0.0157
; #@! TA.AperFunction,Plated,PTH,ComponentDrill
T3C0.0236
; #@! TA.AperFunction,Plated,PTH,ComponentDrill
T4C0.0354
; #@! TA.AperFunction,Plated,PTH,ComponentDrill
T5C0.0394
; #@! TA.AperFunction,Plated,PTH,ComponentDrill
T6C0.0433
; #@! TA.AperFunction,Plated,PTH,ComponentDrill
T7C0.0472
; #@! TA.AperFunction,Plated,PTH,ComponentDrill
T8C0.0512
; #@! TA.AperFunction,Plated,PTH,ComponentDrill
T9C0.0551
; #@! TA.AperFunction,Plated,PTH,ComponentDrill
T10C0.0591
%
G90
G05
T1
X2.8821Y-2.2524
X2.9303Y-2.2143
X2.9402Y-2.0732
X2.9978Y-2.0791
X3.0002Y-2.3429
X3.4431Y-3.9612
X3.45Y-4.4209
X3.5309Y-3.8423
X3.6097Y-3.8364
X3.8467Y-4.1177
X3.9323Y-2.1153
X3.9346Y-2.379
X3.9923Y-2.3849
X4.0022Y-2.2439
X4.0504Y-2.2058
X4.863Y-3.0336
X5.0136Y-4.9724
X5.0961Y-2.8477
X5.0965Y-2.7647
X5.1029Y-4.9292
X5.1577Y-5.2151
X5.2096Y-5.1275
X5.2272Y-2.9009
X5.2411Y-5.0969
X5.2583Y-2.9005
X5.2687Y-5.3256
X5.3132Y-4.8284
X5.3132Y-4.9851
X5.4622Y-4.6927
X5.5344Y-5.0969
X5.6328Y-5.0505
T2
X2.6094Y-2.2652
X2.6105Y-2.3674
X3.075Y-2.0299
X3.8575Y-2.4282
X4.3219Y-2.0907
X4.323Y-2.193
X4.863Y-2.8084
X5.039Y-2.804
X5.039Y-2.8828
X5.0453Y-5.157
X5.065Y-5.1225
X5.252Y-4.7846
X5.2904Y-4.1187
X5.3898Y-4.9975
X5.4459Y-5.0054
X5.4518Y-4.9552
X5.4552Y-2.802
X5.4833Y-5.0339
X5.6006Y-4.7328
X5.7972Y-4.1806
X5.8464Y-4.1944
X5.8504Y-4.1462
T4
X5.1917Y-2.5753
X5.2705Y-2.5753
X5.3492Y-2.5753
T5
X2.349Y-1.9666
X2.349Y-2.0666
X2.349Y-2.1666
X2.349Y-2.2666
X2.349Y-2.3666
X2.349Y-2.4666
X2.6045Y-3.9524
X2.9037Y-3.9524
X3.2585Y-3.548
X3.3585Y-3.548
X3.4585Y-3.548
X3.5585Y-3.548
X3.6044Y-5.1792
X3.6044Y-5.2792
X3.6044Y-5.3792
X3.6044Y-5.4792
X3.6094Y-2.7943
X3.6094Y-2.8943
X3.6132Y-4.7995
X3.638Y-4.5094
X3.6585Y-3.548
X3.7132Y-4.7995
X3.738Y-4.5094
X3.7585Y-3.548
X3.7896Y-2.7943
X3.7896Y-2.8943
X3.8132Y-4.7995
X3.838Y-4.5094
X3.8751Y-5.3841
X3.8751Y-5.4825
X3.8751Y-5.581
X3.9132Y-4.7995
X3.938Y-4.5094
X3.9657Y-2.7933
X3.9657Y-2.8933
X4.0132Y-4.7995
X4.038Y-4.5094
X4.1132Y-4.7995
X4.138Y-4.5094
X4.14Y-2.7933
X4.14Y-2.8933
X4.2132Y-4.7995
X4.238Y-4.5094
X4.3132Y-4.7995
X4.338Y-4.5094
X4.3594Y-2.7933
X4.3594Y-2.8933
X4.4459Y-5.3841
X4.4459Y-5.581
X4.5835Y-1.9915
X4.5835Y-2.0915
X4.5835Y-2.1915
X4.5835Y-2.2915
X4.5835Y-2.3915
X4.5835Y-2.4915
X4.8167Y-4.5072
X4.8167Y-4.6072
X4.8167Y-4.7072
X4.8167Y-4.8072
X4.8167Y-4.9072
X4.8167Y-5.0072
X4.8167Y-5.1072
X4.8167Y-5.2072
X4.8167Y-5.3072
X4.8167Y-5.4072
X4.8167Y-5.5072
X4.8167Y-5.6072
X4.8167Y-5.7072
X4.8167Y-5.8072
X5.001Y-4.4584
X5.001Y-4.5584
X5.101Y-4.4584
X5.101Y-4.5584
X5.1055Y-3.4194
X5.1716Y-3.0162
X5.201Y-4.4584
X5.201Y-4.5584
X5.2055Y-3.4194
X5.3508Y-3.4186
X5.3684Y-3.0162
X5.4508Y-3.4186
X5.9093Y-4.6064
X5.9093Y-4.7064
X5.9093Y-4.8064
X5.9093Y-4.9064
X5.9093Y-5.0064
X5.9093Y-5.1064
X5.9096Y-5.3064
X5.9096Y-5.4064
X5.9096Y-5.5064
X5.9096Y-5.6064
X5.9096Y-5.7064
X5.9096Y-5.8064
T6
X4.3142Y-3.085
X4.3142Y-3.185
X4.3142Y-3.285
T7
X2.9254Y-2.9915
X2.9254Y-3.1915
X2.9254Y-3.4915
X2.9254Y-3.5915
T8
X3.1675Y-2.7949
X3.1675Y-2.9917
X3.4018Y-2.7929
X3.4018Y-2.9898
T9
X2.515Y-3.286
X2.515Y-3.4829
X2.5159Y-2.7959
X2.5159Y-2.9927
T10
X5.1091Y-2.5753
X5.4319Y-2.5753
T3
G00X3.1709Y-2.1158
M15
G01X3.2142Y-2.1158
M16
G05
G00X3.1709Y-2.456
M15
G01X3.2142Y-2.456
M16
G05
G00X3.3453Y-2.1158
M15
G01X3.3689Y-2.1158
M16
G05
G00X3.3453Y-2.456
M15
G01X3.3689Y-2.456
M16
G05
G00X3.5872Y-2.0022
M15
G01X3.5636Y-2.0022
M16
G05
G00X3.5872Y-2.3423
M15
G01X3.5636Y-2.3423
M16
G05
G00X3.7616Y-2.0022
M15
G01X3.7183Y-2.0022
M16
G05
G00X3.7616Y-2.3423
M15
G01X3.7183Y-2.3423
M16
G05
G00X5.214Y-3.7032
M15
G01X5.214Y-3.6796
M16
G05
G00X5.214Y-3.8777
M15
G01X5.214Y-3.8344
M16
G05
G00X5.5541Y-3.7032
M15
G01X5.5541Y-3.6796
M16
G05
G00X5.5541Y-3.8777
M15
G01X5.5541Y-3.8344
M16
G05
T10
G00X4.1447Y-5.2621
M15
G01X4.1959Y-5.2621
M16
G05
G00X4.1447Y-5.703
M15
G01X4.1959Y-5.703
M16
G05
M30
