%TF.GenerationSoftware,KiCad,Pcbnew,8.0.3*%
%TF.CreationDate,2024-09-09T16:29:24+03:00*%
%TF.ProjectId,JLC7,4a4c4337-2e6b-4696-9361-645f70636258,rev?*%
%TF.SameCoordinates,Original*%
%TF.FileFunction,Legend,Bot*%
%TF.FilePolarity,Positive*%
%FSLAX46Y46*%
G04 Gerber Fmt 4.6, Leading zero omitted, Abs format (unit mm)*
G04 Created by KiCad (PCBNEW 8.0.3) date 2024-09-09 16:29:24*
%MOMM*%
%LPD*%
G01*
G04 APERTURE LIST*
%ADD10C,0.150000*%
%ADD11C,0.200000*%
%ADD12C,0.125000*%
%ADD13C,0.160000*%
%ADD14C,0.120000*%
%ADD15C,0.254000*%
%ADD16C,0.000000*%
G04 APERTURE END LIST*
D10*
X127608097Y-117086637D02*
X127674764Y-117053304D01*
X127674764Y-117053304D02*
X127774764Y-117053304D01*
X127774764Y-117053304D02*
X127874764Y-117086637D01*
X127874764Y-117086637D02*
X127941431Y-117153304D01*
X127941431Y-117153304D02*
X127974764Y-117219971D01*
X127974764Y-117219971D02*
X128008097Y-117353304D01*
X128008097Y-117353304D02*
X128008097Y-117453304D01*
X128008097Y-117453304D02*
X127974764Y-117586637D01*
X127974764Y-117586637D02*
X127941431Y-117653304D01*
X127941431Y-117653304D02*
X127874764Y-117719971D01*
X127874764Y-117719971D02*
X127774764Y-117753304D01*
X127774764Y-117753304D02*
X127708097Y-117753304D01*
X127708097Y-117753304D02*
X127608097Y-117719971D01*
X127608097Y-117719971D02*
X127574764Y-117686637D01*
X127574764Y-117686637D02*
X127574764Y-117453304D01*
X127574764Y-117453304D02*
X127708097Y-117453304D01*
X127274764Y-117753304D02*
X127274764Y-117053304D01*
X127274764Y-117053304D02*
X126874764Y-117753304D01*
X126874764Y-117753304D02*
X126874764Y-117053304D01*
X126541431Y-117753304D02*
X126541431Y-117053304D01*
X126541431Y-117053304D02*
X126374764Y-117053304D01*
X126374764Y-117053304D02*
X126274764Y-117086637D01*
X126274764Y-117086637D02*
X126208098Y-117153304D01*
X126208098Y-117153304D02*
X126174764Y-117219971D01*
X126174764Y-117219971D02*
X126141431Y-117353304D01*
X126141431Y-117353304D02*
X126141431Y-117453304D01*
X126141431Y-117453304D02*
X126174764Y-117586637D01*
X126174764Y-117586637D02*
X126208098Y-117653304D01*
X126208098Y-117653304D02*
X126274764Y-117719971D01*
X126274764Y-117719971D02*
X126374764Y-117753304D01*
X126374764Y-117753304D02*
X126541431Y-117753304D01*
X130399764Y-111794971D02*
X130299764Y-111828304D01*
X130299764Y-111828304D02*
X130133098Y-111828304D01*
X130133098Y-111828304D02*
X130066431Y-111794971D01*
X130066431Y-111794971D02*
X130033098Y-111761637D01*
X130033098Y-111761637D02*
X129999764Y-111694971D01*
X129999764Y-111694971D02*
X129999764Y-111628304D01*
X129999764Y-111628304D02*
X130033098Y-111561637D01*
X130033098Y-111561637D02*
X130066431Y-111528304D01*
X130066431Y-111528304D02*
X130133098Y-111494971D01*
X130133098Y-111494971D02*
X130266431Y-111461637D01*
X130266431Y-111461637D02*
X130333098Y-111428304D01*
X130333098Y-111428304D02*
X130366431Y-111394971D01*
X130366431Y-111394971D02*
X130399764Y-111328304D01*
X130399764Y-111328304D02*
X130399764Y-111261637D01*
X130399764Y-111261637D02*
X130366431Y-111194971D01*
X130366431Y-111194971D02*
X130333098Y-111161637D01*
X130333098Y-111161637D02*
X130266431Y-111128304D01*
X130266431Y-111128304D02*
X130099764Y-111128304D01*
X130099764Y-111128304D02*
X129999764Y-111161637D01*
X129299764Y-111761637D02*
X129333097Y-111794971D01*
X129333097Y-111794971D02*
X129433097Y-111828304D01*
X129433097Y-111828304D02*
X129499764Y-111828304D01*
X129499764Y-111828304D02*
X129599764Y-111794971D01*
X129599764Y-111794971D02*
X129666431Y-111728304D01*
X129666431Y-111728304D02*
X129699764Y-111661637D01*
X129699764Y-111661637D02*
X129733097Y-111528304D01*
X129733097Y-111528304D02*
X129733097Y-111428304D01*
X129733097Y-111428304D02*
X129699764Y-111294971D01*
X129699764Y-111294971D02*
X129666431Y-111228304D01*
X129666431Y-111228304D02*
X129599764Y-111161637D01*
X129599764Y-111161637D02*
X129499764Y-111128304D01*
X129499764Y-111128304D02*
X129433097Y-111128304D01*
X129433097Y-111128304D02*
X129333097Y-111161637D01*
X129333097Y-111161637D02*
X129299764Y-111194971D01*
X128999764Y-111828304D02*
X128999764Y-111128304D01*
X128599764Y-111828304D02*
X128899764Y-111428304D01*
X128599764Y-111128304D02*
X128999764Y-111528304D01*
D11*
X124540069Y-117889255D02*
X124540069Y-117432112D01*
X123740069Y-117660684D02*
X124540069Y-117660684D01*
X124540069Y-117241636D02*
X123740069Y-116708302D01*
X124540069Y-116708302D02*
X123740069Y-117241636D01*
X124540069Y-116251159D02*
X124540069Y-116098778D01*
X124540069Y-116098778D02*
X124501974Y-116022588D01*
X124501974Y-116022588D02*
X124425784Y-115946397D01*
X124425784Y-115946397D02*
X124273403Y-115908302D01*
X124273403Y-115908302D02*
X124006736Y-115908302D01*
X124006736Y-115908302D02*
X123854355Y-115946397D01*
X123854355Y-115946397D02*
X123778165Y-116022588D01*
X123778165Y-116022588D02*
X123740069Y-116098778D01*
X123740069Y-116098778D02*
X123740069Y-116251159D01*
X123740069Y-116251159D02*
X123778165Y-116327350D01*
X123778165Y-116327350D02*
X123854355Y-116403540D01*
X123854355Y-116403540D02*
X124006736Y-116441636D01*
X124006736Y-116441636D02*
X124273403Y-116441636D01*
X124273403Y-116441636D02*
X124425784Y-116403540D01*
X124425784Y-116403540D02*
X124501974Y-116327350D01*
X124501974Y-116327350D02*
X124540069Y-116251159D01*
D10*
X127666431Y-111853304D02*
X127899764Y-111519971D01*
X128066431Y-111853304D02*
X128066431Y-111153304D01*
X128066431Y-111153304D02*
X127799764Y-111153304D01*
X127799764Y-111153304D02*
X127733098Y-111186637D01*
X127733098Y-111186637D02*
X127699764Y-111219971D01*
X127699764Y-111219971D02*
X127666431Y-111286637D01*
X127666431Y-111286637D02*
X127666431Y-111386637D01*
X127666431Y-111386637D02*
X127699764Y-111453304D01*
X127699764Y-111453304D02*
X127733098Y-111486637D01*
X127733098Y-111486637D02*
X127799764Y-111519971D01*
X127799764Y-111519971D02*
X128066431Y-111519971D01*
X127366431Y-111486637D02*
X127133098Y-111486637D01*
X127033098Y-111853304D02*
X127366431Y-111853304D01*
X127366431Y-111853304D02*
X127366431Y-111153304D01*
X127366431Y-111153304D02*
X127033098Y-111153304D01*
X126766431Y-111819971D02*
X126666431Y-111853304D01*
X126666431Y-111853304D02*
X126499765Y-111853304D01*
X126499765Y-111853304D02*
X126433098Y-111819971D01*
X126433098Y-111819971D02*
X126399765Y-111786637D01*
X126399765Y-111786637D02*
X126366431Y-111719971D01*
X126366431Y-111719971D02*
X126366431Y-111653304D01*
X126366431Y-111653304D02*
X126399765Y-111586637D01*
X126399765Y-111586637D02*
X126433098Y-111553304D01*
X126433098Y-111553304D02*
X126499765Y-111519971D01*
X126499765Y-111519971D02*
X126633098Y-111486637D01*
X126633098Y-111486637D02*
X126699765Y-111453304D01*
X126699765Y-111453304D02*
X126733098Y-111419971D01*
X126733098Y-111419971D02*
X126766431Y-111353304D01*
X126766431Y-111353304D02*
X126766431Y-111286637D01*
X126766431Y-111286637D02*
X126733098Y-111219971D01*
X126733098Y-111219971D02*
X126699765Y-111186637D01*
X126699765Y-111186637D02*
X126633098Y-111153304D01*
X126633098Y-111153304D02*
X126466431Y-111153304D01*
X126466431Y-111153304D02*
X126366431Y-111186637D01*
X126066431Y-111486637D02*
X125833098Y-111486637D01*
X125733098Y-111853304D02*
X126066431Y-111853304D01*
X126066431Y-111853304D02*
X126066431Y-111153304D01*
X126066431Y-111153304D02*
X125733098Y-111153304D01*
X125533098Y-111153304D02*
X125133098Y-111153304D01*
X125333098Y-111853304D02*
X125333098Y-111153304D01*
D11*
X123778165Y-120382905D02*
X123740069Y-120268619D01*
X123740069Y-120268619D02*
X123740069Y-120078143D01*
X123740069Y-120078143D02*
X123778165Y-120001952D01*
X123778165Y-120001952D02*
X123816260Y-119963857D01*
X123816260Y-119963857D02*
X123892450Y-119925762D01*
X123892450Y-119925762D02*
X123968641Y-119925762D01*
X123968641Y-119925762D02*
X124044831Y-119963857D01*
X124044831Y-119963857D02*
X124082926Y-120001952D01*
X124082926Y-120001952D02*
X124121022Y-120078143D01*
X124121022Y-120078143D02*
X124159117Y-120230524D01*
X124159117Y-120230524D02*
X124197212Y-120306714D01*
X124197212Y-120306714D02*
X124235307Y-120344809D01*
X124235307Y-120344809D02*
X124311498Y-120382905D01*
X124311498Y-120382905D02*
X124387688Y-120382905D01*
X124387688Y-120382905D02*
X124463879Y-120344809D01*
X124463879Y-120344809D02*
X124501974Y-120306714D01*
X124501974Y-120306714D02*
X124540069Y-120230524D01*
X124540069Y-120230524D02*
X124540069Y-120040047D01*
X124540069Y-120040047D02*
X124501974Y-119925762D01*
X123740069Y-119582904D02*
X124540069Y-119582904D01*
X124540069Y-119582904D02*
X124540069Y-119392428D01*
X124540069Y-119392428D02*
X124501974Y-119278142D01*
X124501974Y-119278142D02*
X124425784Y-119201952D01*
X124425784Y-119201952D02*
X124349593Y-119163857D01*
X124349593Y-119163857D02*
X124197212Y-119125761D01*
X124197212Y-119125761D02*
X124082926Y-119125761D01*
X124082926Y-119125761D02*
X123930545Y-119163857D01*
X123930545Y-119163857D02*
X123854355Y-119201952D01*
X123854355Y-119201952D02*
X123778165Y-119278142D01*
X123778165Y-119278142D02*
X123740069Y-119392428D01*
X123740069Y-119392428D02*
X123740069Y-119582904D01*
X123968641Y-118821000D02*
X123968641Y-118440047D01*
X123740069Y-118897190D02*
X124540069Y-118630523D01*
X124540069Y-118630523D02*
X123740069Y-118363857D01*
D10*
X133274764Y-111853304D02*
X133274764Y-111153304D01*
X133274764Y-111153304D02*
X133041431Y-111653304D01*
X133041431Y-111653304D02*
X132808097Y-111153304D01*
X132808097Y-111153304D02*
X132808097Y-111853304D01*
X132474764Y-111853304D02*
X132474764Y-111153304D01*
X132174764Y-111819971D02*
X132074764Y-111853304D01*
X132074764Y-111853304D02*
X131908098Y-111853304D01*
X131908098Y-111853304D02*
X131841431Y-111819971D01*
X131841431Y-111819971D02*
X131808098Y-111786637D01*
X131808098Y-111786637D02*
X131774764Y-111719971D01*
X131774764Y-111719971D02*
X131774764Y-111653304D01*
X131774764Y-111653304D02*
X131808098Y-111586637D01*
X131808098Y-111586637D02*
X131841431Y-111553304D01*
X131841431Y-111553304D02*
X131908098Y-111519971D01*
X131908098Y-111519971D02*
X132041431Y-111486637D01*
X132041431Y-111486637D02*
X132108098Y-111453304D01*
X132108098Y-111453304D02*
X132141431Y-111419971D01*
X132141431Y-111419971D02*
X132174764Y-111353304D01*
X132174764Y-111353304D02*
X132174764Y-111286637D01*
X132174764Y-111286637D02*
X132141431Y-111219971D01*
X132141431Y-111219971D02*
X132108098Y-111186637D01*
X132108098Y-111186637D02*
X132041431Y-111153304D01*
X132041431Y-111153304D02*
X131874764Y-111153304D01*
X131874764Y-111153304D02*
X131774764Y-111186637D01*
X131341431Y-111153304D02*
X131208097Y-111153304D01*
X131208097Y-111153304D02*
X131141431Y-111186637D01*
X131141431Y-111186637D02*
X131074764Y-111253304D01*
X131074764Y-111253304D02*
X131041431Y-111386637D01*
X131041431Y-111386637D02*
X131041431Y-111619971D01*
X131041431Y-111619971D02*
X131074764Y-111753304D01*
X131074764Y-111753304D02*
X131141431Y-111819971D01*
X131141431Y-111819971D02*
X131208097Y-111853304D01*
X131208097Y-111853304D02*
X131341431Y-111853304D01*
X131341431Y-111853304D02*
X131408097Y-111819971D01*
X131408097Y-111819971D02*
X131474764Y-111753304D01*
X131474764Y-111753304D02*
X131508097Y-111619971D01*
X131508097Y-111619971D02*
X131508097Y-111386637D01*
X131508097Y-111386637D02*
X131474764Y-111253304D01*
X131474764Y-111253304D02*
X131408097Y-111186637D01*
X131408097Y-111186637D02*
X131341431Y-111153304D01*
D11*
X123778165Y-122914652D02*
X123740069Y-122800366D01*
X123740069Y-122800366D02*
X123740069Y-122609890D01*
X123740069Y-122609890D02*
X123778165Y-122533699D01*
X123778165Y-122533699D02*
X123816260Y-122495604D01*
X123816260Y-122495604D02*
X123892450Y-122457509D01*
X123892450Y-122457509D02*
X123968641Y-122457509D01*
X123968641Y-122457509D02*
X124044831Y-122495604D01*
X124044831Y-122495604D02*
X124082926Y-122533699D01*
X124082926Y-122533699D02*
X124121022Y-122609890D01*
X124121022Y-122609890D02*
X124159117Y-122762271D01*
X124159117Y-122762271D02*
X124197212Y-122838461D01*
X124197212Y-122838461D02*
X124235307Y-122876556D01*
X124235307Y-122876556D02*
X124311498Y-122914652D01*
X124311498Y-122914652D02*
X124387688Y-122914652D01*
X124387688Y-122914652D02*
X124463879Y-122876556D01*
X124463879Y-122876556D02*
X124501974Y-122838461D01*
X124501974Y-122838461D02*
X124540069Y-122762271D01*
X124540069Y-122762271D02*
X124540069Y-122571794D01*
X124540069Y-122571794D02*
X124501974Y-122457509D01*
X123816260Y-121657508D02*
X123778165Y-121695604D01*
X123778165Y-121695604D02*
X123740069Y-121809889D01*
X123740069Y-121809889D02*
X123740069Y-121886080D01*
X123740069Y-121886080D02*
X123778165Y-122000366D01*
X123778165Y-122000366D02*
X123854355Y-122076556D01*
X123854355Y-122076556D02*
X123930545Y-122114651D01*
X123930545Y-122114651D02*
X124082926Y-122152747D01*
X124082926Y-122152747D02*
X124197212Y-122152747D01*
X124197212Y-122152747D02*
X124349593Y-122114651D01*
X124349593Y-122114651D02*
X124425784Y-122076556D01*
X124425784Y-122076556D02*
X124501974Y-122000366D01*
X124501974Y-122000366D02*
X124540069Y-121886080D01*
X124540069Y-121886080D02*
X124540069Y-121809889D01*
X124540069Y-121809889D02*
X124501974Y-121695604D01*
X124501974Y-121695604D02*
X124463879Y-121657508D01*
X123740069Y-120933699D02*
X123740069Y-121314651D01*
X123740069Y-121314651D02*
X124540069Y-121314651D01*
D10*
X133083098Y-117028304D02*
X132849765Y-117728304D01*
X132849765Y-117728304D02*
X132616431Y-117028304D01*
X131983098Y-117661637D02*
X132016431Y-117694971D01*
X132016431Y-117694971D02*
X132116431Y-117728304D01*
X132116431Y-117728304D02*
X132183098Y-117728304D01*
X132183098Y-117728304D02*
X132283098Y-117694971D01*
X132283098Y-117694971D02*
X132349765Y-117628304D01*
X132349765Y-117628304D02*
X132383098Y-117561637D01*
X132383098Y-117561637D02*
X132416431Y-117428304D01*
X132416431Y-117428304D02*
X132416431Y-117328304D01*
X132416431Y-117328304D02*
X132383098Y-117194971D01*
X132383098Y-117194971D02*
X132349765Y-117128304D01*
X132349765Y-117128304D02*
X132283098Y-117061637D01*
X132283098Y-117061637D02*
X132183098Y-117028304D01*
X132183098Y-117028304D02*
X132116431Y-117028304D01*
X132116431Y-117028304D02*
X132016431Y-117061637D01*
X132016431Y-117061637D02*
X131983098Y-117094971D01*
X131283098Y-117661637D02*
X131316431Y-117694971D01*
X131316431Y-117694971D02*
X131416431Y-117728304D01*
X131416431Y-117728304D02*
X131483098Y-117728304D01*
X131483098Y-117728304D02*
X131583098Y-117694971D01*
X131583098Y-117694971D02*
X131649765Y-117628304D01*
X131649765Y-117628304D02*
X131683098Y-117561637D01*
X131683098Y-117561637D02*
X131716431Y-117428304D01*
X131716431Y-117428304D02*
X131716431Y-117328304D01*
X131716431Y-117328304D02*
X131683098Y-117194971D01*
X131683098Y-117194971D02*
X131649765Y-117128304D01*
X131649765Y-117128304D02*
X131583098Y-117061637D01*
X131583098Y-117061637D02*
X131483098Y-117028304D01*
X131483098Y-117028304D02*
X131416431Y-117028304D01*
X131416431Y-117028304D02*
X131316431Y-117061637D01*
X131316431Y-117061637D02*
X131283098Y-117094971D01*
D11*
X123740069Y-114786079D02*
X124121022Y-115052746D01*
X123740069Y-115243222D02*
X124540069Y-115243222D01*
X124540069Y-115243222D02*
X124540069Y-114938460D01*
X124540069Y-114938460D02*
X124501974Y-114862270D01*
X124501974Y-114862270D02*
X124463879Y-114824175D01*
X124463879Y-114824175D02*
X124387688Y-114786079D01*
X124387688Y-114786079D02*
X124273403Y-114786079D01*
X124273403Y-114786079D02*
X124197212Y-114824175D01*
X124197212Y-114824175D02*
X124159117Y-114862270D01*
X124159117Y-114862270D02*
X124121022Y-114938460D01*
X124121022Y-114938460D02*
X124121022Y-115243222D01*
X124540069Y-114519413D02*
X123740069Y-113986079D01*
X124540069Y-113986079D02*
X123740069Y-114519413D01*
X123740069Y-113681317D02*
X124540069Y-113681317D01*
D10*
X130658098Y-117703304D02*
X130658098Y-117003304D01*
X130658098Y-117003304D02*
X130424765Y-117503304D01*
X130424765Y-117503304D02*
X130191431Y-117003304D01*
X130191431Y-117003304D02*
X130191431Y-117703304D01*
X129724765Y-117003304D02*
X129591431Y-117003304D01*
X129591431Y-117003304D02*
X129524765Y-117036637D01*
X129524765Y-117036637D02*
X129458098Y-117103304D01*
X129458098Y-117103304D02*
X129424765Y-117236637D01*
X129424765Y-117236637D02*
X129424765Y-117469971D01*
X129424765Y-117469971D02*
X129458098Y-117603304D01*
X129458098Y-117603304D02*
X129524765Y-117669971D01*
X129524765Y-117669971D02*
X129591431Y-117703304D01*
X129591431Y-117703304D02*
X129724765Y-117703304D01*
X129724765Y-117703304D02*
X129791431Y-117669971D01*
X129791431Y-117669971D02*
X129858098Y-117603304D01*
X129858098Y-117603304D02*
X129891431Y-117469971D01*
X129891431Y-117469971D02*
X129891431Y-117236637D01*
X129891431Y-117236637D02*
X129858098Y-117103304D01*
X129858098Y-117103304D02*
X129791431Y-117036637D01*
X129791431Y-117036637D02*
X129724765Y-117003304D01*
X129158098Y-117669971D02*
X129058098Y-117703304D01*
X129058098Y-117703304D02*
X128891432Y-117703304D01*
X128891432Y-117703304D02*
X128824765Y-117669971D01*
X128824765Y-117669971D02*
X128791432Y-117636637D01*
X128791432Y-117636637D02*
X128758098Y-117569971D01*
X128758098Y-117569971D02*
X128758098Y-117503304D01*
X128758098Y-117503304D02*
X128791432Y-117436637D01*
X128791432Y-117436637D02*
X128824765Y-117403304D01*
X128824765Y-117403304D02*
X128891432Y-117369971D01*
X128891432Y-117369971D02*
X129024765Y-117336637D01*
X129024765Y-117336637D02*
X129091432Y-117303304D01*
X129091432Y-117303304D02*
X129124765Y-117269971D01*
X129124765Y-117269971D02*
X129158098Y-117203304D01*
X129158098Y-117203304D02*
X129158098Y-117136637D01*
X129158098Y-117136637D02*
X129124765Y-117069971D01*
X129124765Y-117069971D02*
X129091432Y-117036637D01*
X129091432Y-117036637D02*
X129024765Y-117003304D01*
X129024765Y-117003304D02*
X128858098Y-117003304D01*
X128858098Y-117003304D02*
X128758098Y-117036637D01*
X128458098Y-117703304D02*
X128458098Y-117003304D01*
X122574771Y-80224642D02*
X122574771Y-79881785D01*
X122574771Y-80053214D02*
X121974771Y-80053214D01*
X121974771Y-80053214D02*
X122060485Y-79996071D01*
X122060485Y-79996071D02*
X122117628Y-79938928D01*
X122117628Y-79938928D02*
X122146200Y-79881785D01*
X121974771Y-80596071D02*
X121974771Y-80653214D01*
X121974771Y-80653214D02*
X122003342Y-80710357D01*
X122003342Y-80710357D02*
X122031914Y-80738929D01*
X122031914Y-80738929D02*
X122089057Y-80767500D01*
X122089057Y-80767500D02*
X122203342Y-80796071D01*
X122203342Y-80796071D02*
X122346200Y-80796071D01*
X122346200Y-80796071D02*
X122460485Y-80767500D01*
X122460485Y-80767500D02*
X122517628Y-80738929D01*
X122517628Y-80738929D02*
X122546200Y-80710357D01*
X122546200Y-80710357D02*
X122574771Y-80653214D01*
X122574771Y-80653214D02*
X122574771Y-80596071D01*
X122574771Y-80596071D02*
X122546200Y-80538929D01*
X122546200Y-80538929D02*
X122517628Y-80510357D01*
X122517628Y-80510357D02*
X122460485Y-80481786D01*
X122460485Y-80481786D02*
X122346200Y-80453214D01*
X122346200Y-80453214D02*
X122203342Y-80453214D01*
X122203342Y-80453214D02*
X122089057Y-80481786D01*
X122089057Y-80481786D02*
X122031914Y-80510357D01*
X122031914Y-80510357D02*
X122003342Y-80538929D01*
X122003342Y-80538929D02*
X121974771Y-80596071D01*
X122174771Y-81053215D02*
X122574771Y-81053215D01*
X122231914Y-81053215D02*
X122203342Y-81081786D01*
X122203342Y-81081786D02*
X122174771Y-81138929D01*
X122174771Y-81138929D02*
X122174771Y-81224643D01*
X122174771Y-81224643D02*
X122203342Y-81281786D01*
X122203342Y-81281786D02*
X122260485Y-81310358D01*
X122260485Y-81310358D02*
X122574771Y-81310358D01*
X122260485Y-81796072D02*
X122260485Y-81596072D01*
X122574771Y-81596072D02*
X121974771Y-81596072D01*
X121974771Y-81596072D02*
X121974771Y-81881786D01*
X136858215Y-74327271D02*
X136515358Y-74327271D01*
X136686786Y-74927271D02*
X136686786Y-74327271D01*
X135972500Y-74870128D02*
X136001072Y-74898700D01*
X136001072Y-74898700D02*
X136086786Y-74927271D01*
X136086786Y-74927271D02*
X136143929Y-74927271D01*
X136143929Y-74927271D02*
X136229643Y-74898700D01*
X136229643Y-74898700D02*
X136286786Y-74841557D01*
X136286786Y-74841557D02*
X136315357Y-74784414D01*
X136315357Y-74784414D02*
X136343929Y-74670128D01*
X136343929Y-74670128D02*
X136343929Y-74584414D01*
X136343929Y-74584414D02*
X136315357Y-74470128D01*
X136315357Y-74470128D02*
X136286786Y-74412985D01*
X136286786Y-74412985D02*
X136229643Y-74355842D01*
X136229643Y-74355842D02*
X136143929Y-74327271D01*
X136143929Y-74327271D02*
X136086786Y-74327271D01*
X136086786Y-74327271D02*
X136001072Y-74355842D01*
X136001072Y-74355842D02*
X135972500Y-74384414D01*
X135772500Y-74327271D02*
X135372500Y-74327271D01*
X135372500Y-74327271D02*
X135629643Y-74927271D01*
X135058214Y-74584414D02*
X135115357Y-74555842D01*
X135115357Y-74555842D02*
X135143928Y-74527271D01*
X135143928Y-74527271D02*
X135172500Y-74470128D01*
X135172500Y-74470128D02*
X135172500Y-74441557D01*
X135172500Y-74441557D02*
X135143928Y-74384414D01*
X135143928Y-74384414D02*
X135115357Y-74355842D01*
X135115357Y-74355842D02*
X135058214Y-74327271D01*
X135058214Y-74327271D02*
X134943928Y-74327271D01*
X134943928Y-74327271D02*
X134886786Y-74355842D01*
X134886786Y-74355842D02*
X134858214Y-74384414D01*
X134858214Y-74384414D02*
X134829643Y-74441557D01*
X134829643Y-74441557D02*
X134829643Y-74470128D01*
X134829643Y-74470128D02*
X134858214Y-74527271D01*
X134858214Y-74527271D02*
X134886786Y-74555842D01*
X134886786Y-74555842D02*
X134943928Y-74584414D01*
X134943928Y-74584414D02*
X135058214Y-74584414D01*
X135058214Y-74584414D02*
X135115357Y-74612985D01*
X135115357Y-74612985D02*
X135143928Y-74641557D01*
X135143928Y-74641557D02*
X135172500Y-74698700D01*
X135172500Y-74698700D02*
X135172500Y-74812985D01*
X135172500Y-74812985D02*
X135143928Y-74870128D01*
X135143928Y-74870128D02*
X135115357Y-74898700D01*
X135115357Y-74898700D02*
X135058214Y-74927271D01*
X135058214Y-74927271D02*
X134943928Y-74927271D01*
X134943928Y-74927271D02*
X134886786Y-74898700D01*
X134886786Y-74898700D02*
X134858214Y-74870128D01*
X134858214Y-74870128D02*
X134829643Y-74812985D01*
X134829643Y-74812985D02*
X134829643Y-74698700D01*
X134829643Y-74698700D02*
X134858214Y-74641557D01*
X134858214Y-74641557D02*
X134886786Y-74612985D01*
X134886786Y-74612985D02*
X134943928Y-74584414D01*
X134572499Y-74927271D02*
X134572499Y-74327271D01*
X134572499Y-74612985D02*
X134229642Y-74612985D01*
X134229642Y-74927271D02*
X134229642Y-74327271D01*
X133686786Y-74327271D02*
X133801071Y-74327271D01*
X133801071Y-74327271D02*
X133858214Y-74355842D01*
X133858214Y-74355842D02*
X133886786Y-74384414D01*
X133886786Y-74384414D02*
X133943928Y-74470128D01*
X133943928Y-74470128D02*
X133972500Y-74584414D01*
X133972500Y-74584414D02*
X133972500Y-74812985D01*
X133972500Y-74812985D02*
X133943928Y-74870128D01*
X133943928Y-74870128D02*
X133915357Y-74898700D01*
X133915357Y-74898700D02*
X133858214Y-74927271D01*
X133858214Y-74927271D02*
X133743928Y-74927271D01*
X133743928Y-74927271D02*
X133686786Y-74898700D01*
X133686786Y-74898700D02*
X133658214Y-74870128D01*
X133658214Y-74870128D02*
X133629643Y-74812985D01*
X133629643Y-74812985D02*
X133629643Y-74670128D01*
X133629643Y-74670128D02*
X133658214Y-74612985D01*
X133658214Y-74612985D02*
X133686786Y-74584414D01*
X133686786Y-74584414D02*
X133743928Y-74555842D01*
X133743928Y-74555842D02*
X133858214Y-74555842D01*
X133858214Y-74555842D02*
X133915357Y-74584414D01*
X133915357Y-74584414D02*
X133943928Y-74612985D01*
X133943928Y-74612985D02*
X133972500Y-74670128D01*
X133401071Y-74384414D02*
X133372499Y-74355842D01*
X133372499Y-74355842D02*
X133315357Y-74327271D01*
X133315357Y-74327271D02*
X133172499Y-74327271D01*
X133172499Y-74327271D02*
X133115357Y-74355842D01*
X133115357Y-74355842D02*
X133086785Y-74384414D01*
X133086785Y-74384414D02*
X133058214Y-74441557D01*
X133058214Y-74441557D02*
X133058214Y-74498700D01*
X133058214Y-74498700D02*
X133086785Y-74584414D01*
X133086785Y-74584414D02*
X133429642Y-74927271D01*
X133429642Y-74927271D02*
X133058214Y-74927271D01*
X132486785Y-74927271D02*
X132829642Y-74927271D01*
X132658213Y-74927271D02*
X132658213Y-74327271D01*
X132658213Y-74327271D02*
X132715356Y-74412985D01*
X132715356Y-74412985D02*
X132772499Y-74470128D01*
X132772499Y-74470128D02*
X132829642Y-74498700D01*
X132029641Y-74612985D02*
X132229641Y-74612985D01*
X132229641Y-74927271D02*
X132229641Y-74327271D01*
X132229641Y-74327271D02*
X131943927Y-74327271D01*
X131715355Y-74927271D02*
X131715355Y-74327271D01*
X131715355Y-74327271D02*
X131372498Y-74927271D01*
X131372498Y-74927271D02*
X131372498Y-74327271D01*
X130772499Y-74355842D02*
X130829642Y-74327271D01*
X130829642Y-74327271D02*
X130915356Y-74327271D01*
X130915356Y-74327271D02*
X131001070Y-74355842D01*
X131001070Y-74355842D02*
X131058213Y-74412985D01*
X131058213Y-74412985D02*
X131086784Y-74470128D01*
X131086784Y-74470128D02*
X131115356Y-74584414D01*
X131115356Y-74584414D02*
X131115356Y-74670128D01*
X131115356Y-74670128D02*
X131086784Y-74784414D01*
X131086784Y-74784414D02*
X131058213Y-74841557D01*
X131058213Y-74841557D02*
X131001070Y-74898700D01*
X131001070Y-74898700D02*
X130915356Y-74927271D01*
X130915356Y-74927271D02*
X130858213Y-74927271D01*
X130858213Y-74927271D02*
X130772499Y-74898700D01*
X130772499Y-74898700D02*
X130743927Y-74870128D01*
X130743927Y-74870128D02*
X130743927Y-74670128D01*
X130743927Y-74670128D02*
X130858213Y-74670128D01*
X74225001Y-64133342D02*
X73939287Y-64133342D01*
X74282144Y-64304771D02*
X74082144Y-63704771D01*
X74082144Y-63704771D02*
X73882144Y-64304771D01*
X73682143Y-64304771D02*
X73682143Y-63704771D01*
X73682143Y-63704771D02*
X73482143Y-64133342D01*
X73482143Y-64133342D02*
X73282143Y-63704771D01*
X73282143Y-63704771D02*
X73282143Y-64304771D01*
X73025001Y-64276200D02*
X72939287Y-64304771D01*
X72939287Y-64304771D02*
X72796429Y-64304771D01*
X72796429Y-64304771D02*
X72739287Y-64276200D01*
X72739287Y-64276200D02*
X72710715Y-64247628D01*
X72710715Y-64247628D02*
X72682144Y-64190485D01*
X72682144Y-64190485D02*
X72682144Y-64133342D01*
X72682144Y-64133342D02*
X72710715Y-64076200D01*
X72710715Y-64076200D02*
X72739287Y-64047628D01*
X72739287Y-64047628D02*
X72796429Y-64019057D01*
X72796429Y-64019057D02*
X72910715Y-63990485D01*
X72910715Y-63990485D02*
X72967858Y-63961914D01*
X72967858Y-63961914D02*
X72996429Y-63933342D01*
X72996429Y-63933342D02*
X73025001Y-63876200D01*
X73025001Y-63876200D02*
X73025001Y-63819057D01*
X73025001Y-63819057D02*
X72996429Y-63761914D01*
X72996429Y-63761914D02*
X72967858Y-63733342D01*
X72967858Y-63733342D02*
X72910715Y-63704771D01*
X72910715Y-63704771D02*
X72767858Y-63704771D01*
X72767858Y-63704771D02*
X72682144Y-63733342D01*
X72110715Y-64304771D02*
X72453572Y-64304771D01*
X72282143Y-64304771D02*
X72282143Y-63704771D01*
X72282143Y-63704771D02*
X72339286Y-63790485D01*
X72339286Y-63790485D02*
X72396429Y-63847628D01*
X72396429Y-63847628D02*
X72453572Y-63876200D01*
X71539286Y-64304771D02*
X71882143Y-64304771D01*
X71710714Y-64304771D02*
X71710714Y-63704771D01*
X71710714Y-63704771D02*
X71767857Y-63790485D01*
X71767857Y-63790485D02*
X71825000Y-63847628D01*
X71825000Y-63847628D02*
X71882143Y-63876200D01*
X70967857Y-64304771D02*
X71310714Y-64304771D01*
X71139285Y-64304771D02*
X71139285Y-63704771D01*
X71139285Y-63704771D02*
X71196428Y-63790485D01*
X71196428Y-63790485D02*
X71253571Y-63847628D01*
X71253571Y-63847628D02*
X71310714Y-63876200D01*
X70767856Y-63704771D02*
X70367856Y-63704771D01*
X70367856Y-63704771D02*
X70624999Y-64304771D01*
X70139284Y-64076200D02*
X69682142Y-64076200D01*
X69453570Y-63704771D02*
X69082142Y-63704771D01*
X69082142Y-63704771D02*
X69282142Y-63933342D01*
X69282142Y-63933342D02*
X69196427Y-63933342D01*
X69196427Y-63933342D02*
X69139285Y-63961914D01*
X69139285Y-63961914D02*
X69110713Y-63990485D01*
X69110713Y-63990485D02*
X69082142Y-64047628D01*
X69082142Y-64047628D02*
X69082142Y-64190485D01*
X69082142Y-64190485D02*
X69110713Y-64247628D01*
X69110713Y-64247628D02*
X69139285Y-64276200D01*
X69139285Y-64276200D02*
X69196427Y-64304771D01*
X69196427Y-64304771D02*
X69367856Y-64304771D01*
X69367856Y-64304771D02*
X69424999Y-64276200D01*
X69424999Y-64276200D02*
X69453570Y-64247628D01*
X68824998Y-64247628D02*
X68796427Y-64276200D01*
X68796427Y-64276200D02*
X68824998Y-64304771D01*
X68824998Y-64304771D02*
X68853570Y-64276200D01*
X68853570Y-64276200D02*
X68824998Y-64247628D01*
X68824998Y-64247628D02*
X68824998Y-64304771D01*
X68596427Y-63704771D02*
X68224999Y-63704771D01*
X68224999Y-63704771D02*
X68424999Y-63933342D01*
X68424999Y-63933342D02*
X68339284Y-63933342D01*
X68339284Y-63933342D02*
X68282142Y-63961914D01*
X68282142Y-63961914D02*
X68253570Y-63990485D01*
X68253570Y-63990485D02*
X68224999Y-64047628D01*
X68224999Y-64047628D02*
X68224999Y-64190485D01*
X68224999Y-64190485D02*
X68253570Y-64247628D01*
X68253570Y-64247628D02*
X68282142Y-64276200D01*
X68282142Y-64276200D02*
X68339284Y-64304771D01*
X68339284Y-64304771D02*
X68510713Y-64304771D01*
X68510713Y-64304771D02*
X68567856Y-64276200D01*
X68567856Y-64276200D02*
X68596427Y-64247628D01*
X136605714Y-78659771D02*
X136891428Y-78659771D01*
X136891428Y-78659771D02*
X136891428Y-78059771D01*
X136405714Y-78659771D02*
X136405714Y-78059771D01*
X136405714Y-78059771D02*
X136205714Y-78488342D01*
X136205714Y-78488342D02*
X136005714Y-78059771D01*
X136005714Y-78059771D02*
X136005714Y-78659771D01*
X135777143Y-78059771D02*
X135377143Y-78059771D01*
X135377143Y-78059771D02*
X135634286Y-78659771D01*
X135062857Y-78316914D02*
X135120000Y-78288342D01*
X135120000Y-78288342D02*
X135148571Y-78259771D01*
X135148571Y-78259771D02*
X135177143Y-78202628D01*
X135177143Y-78202628D02*
X135177143Y-78174057D01*
X135177143Y-78174057D02*
X135148571Y-78116914D01*
X135148571Y-78116914D02*
X135120000Y-78088342D01*
X135120000Y-78088342D02*
X135062857Y-78059771D01*
X135062857Y-78059771D02*
X134948571Y-78059771D01*
X134948571Y-78059771D02*
X134891429Y-78088342D01*
X134891429Y-78088342D02*
X134862857Y-78116914D01*
X134862857Y-78116914D02*
X134834286Y-78174057D01*
X134834286Y-78174057D02*
X134834286Y-78202628D01*
X134834286Y-78202628D02*
X134862857Y-78259771D01*
X134862857Y-78259771D02*
X134891429Y-78288342D01*
X134891429Y-78288342D02*
X134948571Y-78316914D01*
X134948571Y-78316914D02*
X135062857Y-78316914D01*
X135062857Y-78316914D02*
X135120000Y-78345485D01*
X135120000Y-78345485D02*
X135148571Y-78374057D01*
X135148571Y-78374057D02*
X135177143Y-78431200D01*
X135177143Y-78431200D02*
X135177143Y-78545485D01*
X135177143Y-78545485D02*
X135148571Y-78602628D01*
X135148571Y-78602628D02*
X135120000Y-78631200D01*
X135120000Y-78631200D02*
X135062857Y-78659771D01*
X135062857Y-78659771D02*
X134948571Y-78659771D01*
X134948571Y-78659771D02*
X134891429Y-78631200D01*
X134891429Y-78631200D02*
X134862857Y-78602628D01*
X134862857Y-78602628D02*
X134834286Y-78545485D01*
X134834286Y-78545485D02*
X134834286Y-78431200D01*
X134834286Y-78431200D02*
X134862857Y-78374057D01*
X134862857Y-78374057D02*
X134891429Y-78345485D01*
X134891429Y-78345485D02*
X134948571Y-78316914D01*
X134291428Y-78659771D02*
X134577142Y-78659771D01*
X134577142Y-78659771D02*
X134577142Y-78059771D01*
X133977143Y-78059771D02*
X133920000Y-78059771D01*
X133920000Y-78059771D02*
X133862857Y-78088342D01*
X133862857Y-78088342D02*
X133834286Y-78116914D01*
X133834286Y-78116914D02*
X133805714Y-78174057D01*
X133805714Y-78174057D02*
X133777143Y-78288342D01*
X133777143Y-78288342D02*
X133777143Y-78431200D01*
X133777143Y-78431200D02*
X133805714Y-78545485D01*
X133805714Y-78545485D02*
X133834286Y-78602628D01*
X133834286Y-78602628D02*
X133862857Y-78631200D01*
X133862857Y-78631200D02*
X133920000Y-78659771D01*
X133920000Y-78659771D02*
X133977143Y-78659771D01*
X133977143Y-78659771D02*
X134034286Y-78631200D01*
X134034286Y-78631200D02*
X134062857Y-78602628D01*
X134062857Y-78602628D02*
X134091428Y-78545485D01*
X134091428Y-78545485D02*
X134120000Y-78431200D01*
X134120000Y-78431200D02*
X134120000Y-78288342D01*
X134120000Y-78288342D02*
X134091428Y-78174057D01*
X134091428Y-78174057D02*
X134062857Y-78116914D01*
X134062857Y-78116914D02*
X134034286Y-78088342D01*
X134034286Y-78088342D02*
X133977143Y-78059771D01*
X133234285Y-78059771D02*
X133519999Y-78059771D01*
X133519999Y-78059771D02*
X133548571Y-78345485D01*
X133548571Y-78345485D02*
X133519999Y-78316914D01*
X133519999Y-78316914D02*
X133462857Y-78288342D01*
X133462857Y-78288342D02*
X133319999Y-78288342D01*
X133319999Y-78288342D02*
X133262857Y-78316914D01*
X133262857Y-78316914D02*
X133234285Y-78345485D01*
X133234285Y-78345485D02*
X133205714Y-78402628D01*
X133205714Y-78402628D02*
X133205714Y-78545485D01*
X133205714Y-78545485D02*
X133234285Y-78602628D01*
X133234285Y-78602628D02*
X133262857Y-78631200D01*
X133262857Y-78631200D02*
X133319999Y-78659771D01*
X133319999Y-78659771D02*
X133462857Y-78659771D01*
X133462857Y-78659771D02*
X133519999Y-78631200D01*
X133519999Y-78631200D02*
X133548571Y-78602628D01*
X133091428Y-78716914D02*
X132634285Y-78716914D01*
X132577142Y-78059771D02*
X132234285Y-78059771D01*
X132405713Y-78659771D02*
X132405713Y-78059771D01*
X131919999Y-78059771D02*
X131805713Y-78059771D01*
X131805713Y-78059771D02*
X131748570Y-78088342D01*
X131748570Y-78088342D02*
X131691427Y-78145485D01*
X131691427Y-78145485D02*
X131662856Y-78259771D01*
X131662856Y-78259771D02*
X131662856Y-78459771D01*
X131662856Y-78459771D02*
X131691427Y-78574057D01*
X131691427Y-78574057D02*
X131748570Y-78631200D01*
X131748570Y-78631200D02*
X131805713Y-78659771D01*
X131805713Y-78659771D02*
X131919999Y-78659771D01*
X131919999Y-78659771D02*
X131977142Y-78631200D01*
X131977142Y-78631200D02*
X132034284Y-78574057D01*
X132034284Y-78574057D02*
X132062856Y-78459771D01*
X132062856Y-78459771D02*
X132062856Y-78259771D01*
X132062856Y-78259771D02*
X132034284Y-78145485D01*
X132034284Y-78145485D02*
X131977142Y-78088342D01*
X131977142Y-78088342D02*
X131919999Y-78059771D01*
X131377142Y-78659771D02*
X131262856Y-78659771D01*
X131262856Y-78659771D02*
X131205713Y-78631200D01*
X131205713Y-78631200D02*
X131177142Y-78602628D01*
X131177142Y-78602628D02*
X131119999Y-78516914D01*
X131119999Y-78516914D02*
X131091428Y-78402628D01*
X131091428Y-78402628D02*
X131091428Y-78174057D01*
X131091428Y-78174057D02*
X131119999Y-78116914D01*
X131119999Y-78116914D02*
X131148571Y-78088342D01*
X131148571Y-78088342D02*
X131205713Y-78059771D01*
X131205713Y-78059771D02*
X131319999Y-78059771D01*
X131319999Y-78059771D02*
X131377142Y-78088342D01*
X131377142Y-78088342D02*
X131405713Y-78116914D01*
X131405713Y-78116914D02*
X131434285Y-78174057D01*
X131434285Y-78174057D02*
X131434285Y-78316914D01*
X131434285Y-78316914D02*
X131405713Y-78374057D01*
X131405713Y-78374057D02*
X131377142Y-78402628D01*
X131377142Y-78402628D02*
X131319999Y-78431200D01*
X131319999Y-78431200D02*
X131205713Y-78431200D01*
X131205713Y-78431200D02*
X131148571Y-78402628D01*
X131148571Y-78402628D02*
X131119999Y-78374057D01*
X131119999Y-78374057D02*
X131091428Y-78316914D01*
X130862856Y-78116914D02*
X130834284Y-78088342D01*
X130834284Y-78088342D02*
X130777142Y-78059771D01*
X130777142Y-78059771D02*
X130634284Y-78059771D01*
X130634284Y-78059771D02*
X130577142Y-78088342D01*
X130577142Y-78088342D02*
X130548570Y-78116914D01*
X130548570Y-78116914D02*
X130519999Y-78174057D01*
X130519999Y-78174057D02*
X130519999Y-78231200D01*
X130519999Y-78231200D02*
X130548570Y-78316914D01*
X130548570Y-78316914D02*
X130891427Y-78659771D01*
X130891427Y-78659771D02*
X130519999Y-78659771D01*
X107860001Y-49300842D02*
X107574287Y-49300842D01*
X107917144Y-49472271D02*
X107717144Y-48872271D01*
X107717144Y-48872271D02*
X107517144Y-49472271D01*
X107317143Y-49472271D02*
X107317143Y-48872271D01*
X107317143Y-48872271D02*
X107117143Y-49300842D01*
X107117143Y-49300842D02*
X106917143Y-48872271D01*
X106917143Y-48872271D02*
X106917143Y-49472271D01*
X106660001Y-49443700D02*
X106574287Y-49472271D01*
X106574287Y-49472271D02*
X106431429Y-49472271D01*
X106431429Y-49472271D02*
X106374287Y-49443700D01*
X106374287Y-49443700D02*
X106345715Y-49415128D01*
X106345715Y-49415128D02*
X106317144Y-49357985D01*
X106317144Y-49357985D02*
X106317144Y-49300842D01*
X106317144Y-49300842D02*
X106345715Y-49243700D01*
X106345715Y-49243700D02*
X106374287Y-49215128D01*
X106374287Y-49215128D02*
X106431429Y-49186557D01*
X106431429Y-49186557D02*
X106545715Y-49157985D01*
X106545715Y-49157985D02*
X106602858Y-49129414D01*
X106602858Y-49129414D02*
X106631429Y-49100842D01*
X106631429Y-49100842D02*
X106660001Y-49043700D01*
X106660001Y-49043700D02*
X106660001Y-48986557D01*
X106660001Y-48986557D02*
X106631429Y-48929414D01*
X106631429Y-48929414D02*
X106602858Y-48900842D01*
X106602858Y-48900842D02*
X106545715Y-48872271D01*
X106545715Y-48872271D02*
X106402858Y-48872271D01*
X106402858Y-48872271D02*
X106317144Y-48900842D01*
X105745715Y-49472271D02*
X106088572Y-49472271D01*
X105917143Y-49472271D02*
X105917143Y-48872271D01*
X105917143Y-48872271D02*
X105974286Y-48957985D01*
X105974286Y-48957985D02*
X106031429Y-49015128D01*
X106031429Y-49015128D02*
X106088572Y-49043700D01*
X105174286Y-49472271D02*
X105517143Y-49472271D01*
X105345714Y-49472271D02*
X105345714Y-48872271D01*
X105345714Y-48872271D02*
X105402857Y-48957985D01*
X105402857Y-48957985D02*
X105460000Y-49015128D01*
X105460000Y-49015128D02*
X105517143Y-49043700D01*
X104602857Y-49472271D02*
X104945714Y-49472271D01*
X104774285Y-49472271D02*
X104774285Y-48872271D01*
X104774285Y-48872271D02*
X104831428Y-48957985D01*
X104831428Y-48957985D02*
X104888571Y-49015128D01*
X104888571Y-49015128D02*
X104945714Y-49043700D01*
X104402856Y-48872271D02*
X104002856Y-48872271D01*
X104002856Y-48872271D02*
X104259999Y-49472271D01*
X103774284Y-49243700D02*
X103317142Y-49243700D01*
X103088570Y-48872271D02*
X102717142Y-48872271D01*
X102717142Y-48872271D02*
X102917142Y-49100842D01*
X102917142Y-49100842D02*
X102831427Y-49100842D01*
X102831427Y-49100842D02*
X102774285Y-49129414D01*
X102774285Y-49129414D02*
X102745713Y-49157985D01*
X102745713Y-49157985D02*
X102717142Y-49215128D01*
X102717142Y-49215128D02*
X102717142Y-49357985D01*
X102717142Y-49357985D02*
X102745713Y-49415128D01*
X102745713Y-49415128D02*
X102774285Y-49443700D01*
X102774285Y-49443700D02*
X102831427Y-49472271D01*
X102831427Y-49472271D02*
X103002856Y-49472271D01*
X103002856Y-49472271D02*
X103059999Y-49443700D01*
X103059999Y-49443700D02*
X103088570Y-49415128D01*
X102459998Y-49415128D02*
X102431427Y-49443700D01*
X102431427Y-49443700D02*
X102459998Y-49472271D01*
X102459998Y-49472271D02*
X102488570Y-49443700D01*
X102488570Y-49443700D02*
X102459998Y-49415128D01*
X102459998Y-49415128D02*
X102459998Y-49472271D01*
X102231427Y-48872271D02*
X101859999Y-48872271D01*
X101859999Y-48872271D02*
X102059999Y-49100842D01*
X102059999Y-49100842D02*
X101974284Y-49100842D01*
X101974284Y-49100842D02*
X101917142Y-49129414D01*
X101917142Y-49129414D02*
X101888570Y-49157985D01*
X101888570Y-49157985D02*
X101859999Y-49215128D01*
X101859999Y-49215128D02*
X101859999Y-49357985D01*
X101859999Y-49357985D02*
X101888570Y-49415128D01*
X101888570Y-49415128D02*
X101917142Y-49443700D01*
X101917142Y-49443700D02*
X101974284Y-49472271D01*
X101974284Y-49472271D02*
X102145713Y-49472271D01*
X102145713Y-49472271D02*
X102202856Y-49443700D01*
X102202856Y-49443700D02*
X102231427Y-49415128D01*
D12*
X130203808Y-81754809D02*
X130489522Y-81754809D01*
X130346665Y-81754809D02*
X130346665Y-81254809D01*
X130346665Y-81254809D02*
X130394284Y-81326238D01*
X130394284Y-81326238D02*
X130441903Y-81373857D01*
X130441903Y-81373857D02*
X130489522Y-81397666D01*
X129894285Y-81254809D02*
X129846666Y-81254809D01*
X129846666Y-81254809D02*
X129799047Y-81278619D01*
X129799047Y-81278619D02*
X129775237Y-81302428D01*
X129775237Y-81302428D02*
X129751428Y-81350047D01*
X129751428Y-81350047D02*
X129727618Y-81445285D01*
X129727618Y-81445285D02*
X129727618Y-81564333D01*
X129727618Y-81564333D02*
X129751428Y-81659571D01*
X129751428Y-81659571D02*
X129775237Y-81707190D01*
X129775237Y-81707190D02*
X129799047Y-81731000D01*
X129799047Y-81731000D02*
X129846666Y-81754809D01*
X129846666Y-81754809D02*
X129894285Y-81754809D01*
X129894285Y-81754809D02*
X129941904Y-81731000D01*
X129941904Y-81731000D02*
X129965713Y-81707190D01*
X129965713Y-81707190D02*
X129989523Y-81659571D01*
X129989523Y-81659571D02*
X130013332Y-81564333D01*
X130013332Y-81564333D02*
X130013332Y-81445285D01*
X130013332Y-81445285D02*
X129989523Y-81350047D01*
X129989523Y-81350047D02*
X129965713Y-81302428D01*
X129965713Y-81302428D02*
X129941904Y-81278619D01*
X129941904Y-81278619D02*
X129894285Y-81254809D01*
X129418095Y-81254809D02*
X129370476Y-81254809D01*
X129370476Y-81254809D02*
X129322857Y-81278619D01*
X129322857Y-81278619D02*
X129299047Y-81302428D01*
X129299047Y-81302428D02*
X129275238Y-81350047D01*
X129275238Y-81350047D02*
X129251428Y-81445285D01*
X129251428Y-81445285D02*
X129251428Y-81564333D01*
X129251428Y-81564333D02*
X129275238Y-81659571D01*
X129275238Y-81659571D02*
X129299047Y-81707190D01*
X129299047Y-81707190D02*
X129322857Y-81731000D01*
X129322857Y-81731000D02*
X129370476Y-81754809D01*
X129370476Y-81754809D02*
X129418095Y-81754809D01*
X129418095Y-81754809D02*
X129465714Y-81731000D01*
X129465714Y-81731000D02*
X129489523Y-81707190D01*
X129489523Y-81707190D02*
X129513333Y-81659571D01*
X129513333Y-81659571D02*
X129537142Y-81564333D01*
X129537142Y-81564333D02*
X129537142Y-81445285D01*
X129537142Y-81445285D02*
X129513333Y-81350047D01*
X129513333Y-81350047D02*
X129489523Y-81302428D01*
X129489523Y-81302428D02*
X129465714Y-81278619D01*
X129465714Y-81278619D02*
X129418095Y-81254809D01*
X128822857Y-81421476D02*
X128822857Y-81754809D01*
X129037143Y-81421476D02*
X129037143Y-81683380D01*
X129037143Y-81683380D02*
X129013333Y-81731000D01*
X129013333Y-81731000D02*
X128965714Y-81754809D01*
X128965714Y-81754809D02*
X128894286Y-81754809D01*
X128894286Y-81754809D02*
X128846667Y-81731000D01*
X128846667Y-81731000D02*
X128822857Y-81707190D01*
X128418095Y-81492904D02*
X128584762Y-81492904D01*
X128584762Y-81754809D02*
X128584762Y-81254809D01*
X128584762Y-81254809D02*
X128346667Y-81254809D01*
D10*
X121659771Y-70736785D02*
X121659771Y-70451071D01*
X121659771Y-70451071D02*
X121945485Y-70422499D01*
X121945485Y-70422499D02*
X121916914Y-70451071D01*
X121916914Y-70451071D02*
X121888342Y-70508214D01*
X121888342Y-70508214D02*
X121888342Y-70651071D01*
X121888342Y-70651071D02*
X121916914Y-70708214D01*
X121916914Y-70708214D02*
X121945485Y-70736785D01*
X121945485Y-70736785D02*
X122002628Y-70765356D01*
X122002628Y-70765356D02*
X122145485Y-70765356D01*
X122145485Y-70765356D02*
X122202628Y-70736785D01*
X122202628Y-70736785D02*
X122231200Y-70708214D01*
X122231200Y-70708214D02*
X122259771Y-70651071D01*
X122259771Y-70651071D02*
X122259771Y-70508214D01*
X122259771Y-70508214D02*
X122231200Y-70451071D01*
X122231200Y-70451071D02*
X122202628Y-70422499D01*
X122202628Y-71022500D02*
X122231200Y-71051071D01*
X122231200Y-71051071D02*
X122259771Y-71022500D01*
X122259771Y-71022500D02*
X122231200Y-70993928D01*
X122231200Y-70993928D02*
X122202628Y-71022500D01*
X122202628Y-71022500D02*
X122259771Y-71022500D01*
X122259771Y-71622499D02*
X122259771Y-71279642D01*
X122259771Y-71451071D02*
X121659771Y-71451071D01*
X121659771Y-71451071D02*
X121745485Y-71393928D01*
X121745485Y-71393928D02*
X121802628Y-71336785D01*
X121802628Y-71336785D02*
X121831200Y-71279642D01*
X122259771Y-71879643D02*
X121659771Y-71879643D01*
X122259771Y-72222500D02*
X121916914Y-71965357D01*
X121659771Y-72222500D02*
X122002628Y-71879643D01*
X128579286Y-70167271D02*
X128922143Y-70167271D01*
X128750714Y-70167271D02*
X128750714Y-69567271D01*
X128750714Y-69567271D02*
X128807857Y-69652985D01*
X128807857Y-69652985D02*
X128865000Y-69710128D01*
X128865000Y-69710128D02*
X128922143Y-69738700D01*
X128350714Y-69624414D02*
X128322142Y-69595842D01*
X128322142Y-69595842D02*
X128265000Y-69567271D01*
X128265000Y-69567271D02*
X128122142Y-69567271D01*
X128122142Y-69567271D02*
X128065000Y-69595842D01*
X128065000Y-69595842D02*
X128036428Y-69624414D01*
X128036428Y-69624414D02*
X128007857Y-69681557D01*
X128007857Y-69681557D02*
X128007857Y-69738700D01*
X128007857Y-69738700D02*
X128036428Y-69824414D01*
X128036428Y-69824414D02*
X128379285Y-70167271D01*
X128379285Y-70167271D02*
X128007857Y-70167271D01*
X127750713Y-70167271D02*
X127750713Y-69567271D01*
X127407856Y-70167271D02*
X127664999Y-69824414D01*
X127407856Y-69567271D02*
X127750713Y-69910128D01*
D12*
X139414809Y-69541072D02*
X139414809Y-69588691D01*
X139414809Y-69588691D02*
X139438619Y-69636310D01*
X139438619Y-69636310D02*
X139462428Y-69660120D01*
X139462428Y-69660120D02*
X139510047Y-69683929D01*
X139510047Y-69683929D02*
X139605285Y-69707739D01*
X139605285Y-69707739D02*
X139724333Y-69707739D01*
X139724333Y-69707739D02*
X139819571Y-69683929D01*
X139819571Y-69683929D02*
X139867190Y-69660120D01*
X139867190Y-69660120D02*
X139891000Y-69636310D01*
X139891000Y-69636310D02*
X139914809Y-69588691D01*
X139914809Y-69588691D02*
X139914809Y-69541072D01*
X139914809Y-69541072D02*
X139891000Y-69493453D01*
X139891000Y-69493453D02*
X139867190Y-69469644D01*
X139867190Y-69469644D02*
X139819571Y-69445834D01*
X139819571Y-69445834D02*
X139724333Y-69422025D01*
X139724333Y-69422025D02*
X139605285Y-69422025D01*
X139605285Y-69422025D02*
X139510047Y-69445834D01*
X139510047Y-69445834D02*
X139462428Y-69469644D01*
X139462428Y-69469644D02*
X139438619Y-69493453D01*
X139438619Y-69493453D02*
X139414809Y-69541072D01*
X139867190Y-69922024D02*
X139891000Y-69945834D01*
X139891000Y-69945834D02*
X139914809Y-69922024D01*
X139914809Y-69922024D02*
X139891000Y-69898215D01*
X139891000Y-69898215D02*
X139867190Y-69922024D01*
X139867190Y-69922024D02*
X139914809Y-69922024D01*
X139914809Y-70422024D02*
X139914809Y-70136310D01*
X139914809Y-70279167D02*
X139414809Y-70279167D01*
X139414809Y-70279167D02*
X139486238Y-70231548D01*
X139486238Y-70231548D02*
X139533857Y-70183929D01*
X139533857Y-70183929D02*
X139557666Y-70136310D01*
X139581476Y-70850595D02*
X139914809Y-70850595D01*
X139581476Y-70636309D02*
X139843380Y-70636309D01*
X139843380Y-70636309D02*
X139891000Y-70660119D01*
X139891000Y-70660119D02*
X139914809Y-70707738D01*
X139914809Y-70707738D02*
X139914809Y-70779166D01*
X139914809Y-70779166D02*
X139891000Y-70826785D01*
X139891000Y-70826785D02*
X139867190Y-70850595D01*
X139652904Y-71255357D02*
X139652904Y-71088690D01*
X139914809Y-71088690D02*
X139414809Y-71088690D01*
X139414809Y-71088690D02*
X139414809Y-71326785D01*
D10*
X130677857Y-134252086D02*
X130725476Y-134299706D01*
X130725476Y-134299706D02*
X130868333Y-134347325D01*
X130868333Y-134347325D02*
X130963571Y-134347325D01*
X130963571Y-134347325D02*
X131106428Y-134299706D01*
X131106428Y-134299706D02*
X131201666Y-134204467D01*
X131201666Y-134204467D02*
X131249285Y-134109229D01*
X131249285Y-134109229D02*
X131296904Y-133918753D01*
X131296904Y-133918753D02*
X131296904Y-133775896D01*
X131296904Y-133775896D02*
X131249285Y-133585420D01*
X131249285Y-133585420D02*
X131201666Y-133490182D01*
X131201666Y-133490182D02*
X131106428Y-133394944D01*
X131106428Y-133394944D02*
X130963571Y-133347325D01*
X130963571Y-133347325D02*
X130868333Y-133347325D01*
X130868333Y-133347325D02*
X130725476Y-133394944D01*
X130725476Y-133394944D02*
X130677857Y-133442563D01*
X129725476Y-134347325D02*
X130296904Y-134347325D01*
X130011190Y-134347325D02*
X130011190Y-133347325D01*
X130011190Y-133347325D02*
X130106428Y-133490182D01*
X130106428Y-133490182D02*
X130201666Y-133585420D01*
X130201666Y-133585420D02*
X130296904Y-133633039D01*
X129344523Y-133442563D02*
X129296904Y-133394944D01*
X129296904Y-133394944D02*
X129201666Y-133347325D01*
X129201666Y-133347325D02*
X128963571Y-133347325D01*
X128963571Y-133347325D02*
X128868333Y-133394944D01*
X128868333Y-133394944D02*
X128820714Y-133442563D01*
X128820714Y-133442563D02*
X128773095Y-133537801D01*
X128773095Y-133537801D02*
X128773095Y-133633039D01*
X128773095Y-133633039D02*
X128820714Y-133775896D01*
X128820714Y-133775896D02*
X129392142Y-134347325D01*
X129392142Y-134347325D02*
X128773095Y-134347325D01*
D12*
X138693808Y-81844809D02*
X138979522Y-81844809D01*
X138836665Y-81844809D02*
X138836665Y-81344809D01*
X138836665Y-81344809D02*
X138884284Y-81416238D01*
X138884284Y-81416238D02*
X138931903Y-81463857D01*
X138931903Y-81463857D02*
X138979522Y-81487666D01*
X138384285Y-81344809D02*
X138336666Y-81344809D01*
X138336666Y-81344809D02*
X138289047Y-81368619D01*
X138289047Y-81368619D02*
X138265237Y-81392428D01*
X138265237Y-81392428D02*
X138241428Y-81440047D01*
X138241428Y-81440047D02*
X138217618Y-81535285D01*
X138217618Y-81535285D02*
X138217618Y-81654333D01*
X138217618Y-81654333D02*
X138241428Y-81749571D01*
X138241428Y-81749571D02*
X138265237Y-81797190D01*
X138265237Y-81797190D02*
X138289047Y-81821000D01*
X138289047Y-81821000D02*
X138336666Y-81844809D01*
X138336666Y-81844809D02*
X138384285Y-81844809D01*
X138384285Y-81844809D02*
X138431904Y-81821000D01*
X138431904Y-81821000D02*
X138455713Y-81797190D01*
X138455713Y-81797190D02*
X138479523Y-81749571D01*
X138479523Y-81749571D02*
X138503332Y-81654333D01*
X138503332Y-81654333D02*
X138503332Y-81535285D01*
X138503332Y-81535285D02*
X138479523Y-81440047D01*
X138479523Y-81440047D02*
X138455713Y-81392428D01*
X138455713Y-81392428D02*
X138431904Y-81368619D01*
X138431904Y-81368619D02*
X138384285Y-81344809D01*
X137908095Y-81344809D02*
X137860476Y-81344809D01*
X137860476Y-81344809D02*
X137812857Y-81368619D01*
X137812857Y-81368619D02*
X137789047Y-81392428D01*
X137789047Y-81392428D02*
X137765238Y-81440047D01*
X137765238Y-81440047D02*
X137741428Y-81535285D01*
X137741428Y-81535285D02*
X137741428Y-81654333D01*
X137741428Y-81654333D02*
X137765238Y-81749571D01*
X137765238Y-81749571D02*
X137789047Y-81797190D01*
X137789047Y-81797190D02*
X137812857Y-81821000D01*
X137812857Y-81821000D02*
X137860476Y-81844809D01*
X137860476Y-81844809D02*
X137908095Y-81844809D01*
X137908095Y-81844809D02*
X137955714Y-81821000D01*
X137955714Y-81821000D02*
X137979523Y-81797190D01*
X137979523Y-81797190D02*
X138003333Y-81749571D01*
X138003333Y-81749571D02*
X138027142Y-81654333D01*
X138027142Y-81654333D02*
X138027142Y-81535285D01*
X138027142Y-81535285D02*
X138003333Y-81440047D01*
X138003333Y-81440047D02*
X137979523Y-81392428D01*
X137979523Y-81392428D02*
X137955714Y-81368619D01*
X137955714Y-81368619D02*
X137908095Y-81344809D01*
X137312857Y-81511476D02*
X137312857Y-81844809D01*
X137527143Y-81511476D02*
X137527143Y-81773380D01*
X137527143Y-81773380D02*
X137503333Y-81821000D01*
X137503333Y-81821000D02*
X137455714Y-81844809D01*
X137455714Y-81844809D02*
X137384286Y-81844809D01*
X137384286Y-81844809D02*
X137336667Y-81821000D01*
X137336667Y-81821000D02*
X137312857Y-81797190D01*
X136908095Y-81582904D02*
X137074762Y-81582904D01*
X137074762Y-81844809D02*
X137074762Y-81344809D01*
X137074762Y-81344809D02*
X136836667Y-81344809D01*
D13*
X126239285Y-76389275D02*
X126239285Y-75589275D01*
X126239285Y-75589275D02*
X125782142Y-76389275D01*
X125782142Y-76389275D02*
X125782142Y-75589275D01*
X125439286Y-76160703D02*
X125058333Y-76160703D01*
X125515476Y-76389275D02*
X125248809Y-75589275D01*
X125248809Y-75589275D02*
X124982143Y-76389275D01*
X124334524Y-75589275D02*
X124715476Y-75589275D01*
X124715476Y-75589275D02*
X124753572Y-75970227D01*
X124753572Y-75970227D02*
X124715476Y-75932132D01*
X124715476Y-75932132D02*
X124639286Y-75894037D01*
X124639286Y-75894037D02*
X124448810Y-75894037D01*
X124448810Y-75894037D02*
X124372619Y-75932132D01*
X124372619Y-75932132D02*
X124334524Y-75970227D01*
X124334524Y-75970227D02*
X124296429Y-76046418D01*
X124296429Y-76046418D02*
X124296429Y-76236894D01*
X124296429Y-76236894D02*
X124334524Y-76313084D01*
X124334524Y-76313084D02*
X124372619Y-76351180D01*
X124372619Y-76351180D02*
X124448810Y-76389275D01*
X124448810Y-76389275D02*
X124639286Y-76389275D01*
X124639286Y-76389275D02*
X124715476Y-76351180D01*
X124715476Y-76351180D02*
X124753572Y-76313084D01*
X123572619Y-75589275D02*
X123953571Y-75589275D01*
X123953571Y-75589275D02*
X123991667Y-75970227D01*
X123991667Y-75970227D02*
X123953571Y-75932132D01*
X123953571Y-75932132D02*
X123877381Y-75894037D01*
X123877381Y-75894037D02*
X123686905Y-75894037D01*
X123686905Y-75894037D02*
X123610714Y-75932132D01*
X123610714Y-75932132D02*
X123572619Y-75970227D01*
X123572619Y-75970227D02*
X123534524Y-76046418D01*
X123534524Y-76046418D02*
X123534524Y-76236894D01*
X123534524Y-76236894D02*
X123572619Y-76313084D01*
X123572619Y-76313084D02*
X123610714Y-76351180D01*
X123610714Y-76351180D02*
X123686905Y-76389275D01*
X123686905Y-76389275D02*
X123877381Y-76389275D01*
X123877381Y-76389275D02*
X123953571Y-76351180D01*
X123953571Y-76351180D02*
X123991667Y-76313084D01*
X122810714Y-75589275D02*
X123191666Y-75589275D01*
X123191666Y-75589275D02*
X123229762Y-75970227D01*
X123229762Y-75970227D02*
X123191666Y-75932132D01*
X123191666Y-75932132D02*
X123115476Y-75894037D01*
X123115476Y-75894037D02*
X122925000Y-75894037D01*
X122925000Y-75894037D02*
X122848809Y-75932132D01*
X122848809Y-75932132D02*
X122810714Y-75970227D01*
X122810714Y-75970227D02*
X122772619Y-76046418D01*
X122772619Y-76046418D02*
X122772619Y-76236894D01*
X122772619Y-76236894D02*
X122810714Y-76313084D01*
X122810714Y-76313084D02*
X122848809Y-76351180D01*
X122848809Y-76351180D02*
X122925000Y-76389275D01*
X122925000Y-76389275D02*
X123115476Y-76389275D01*
X123115476Y-76389275D02*
X123191666Y-76351180D01*
X123191666Y-76351180D02*
X123229762Y-76313084D01*
X122429761Y-76389275D02*
X122429761Y-75589275D01*
X122429761Y-75589275D02*
X122239285Y-75589275D01*
X122239285Y-75589275D02*
X122124999Y-75627370D01*
X122124999Y-75627370D02*
X122048809Y-75703560D01*
X122048809Y-75703560D02*
X122010714Y-75779751D01*
X122010714Y-75779751D02*
X121972618Y-75932132D01*
X121972618Y-75932132D02*
X121972618Y-76046418D01*
X121972618Y-76046418D02*
X122010714Y-76198799D01*
X122010714Y-76198799D02*
X122048809Y-76274989D01*
X122048809Y-76274989D02*
X122124999Y-76351180D01*
X122124999Y-76351180D02*
X122239285Y-76389275D01*
X122239285Y-76389275D02*
X122429761Y-76389275D01*
D10*
X128950714Y-74917271D02*
X129293571Y-74917271D01*
X129122142Y-74917271D02*
X129122142Y-74317271D01*
X129122142Y-74317271D02*
X129179285Y-74402985D01*
X129179285Y-74402985D02*
X129236428Y-74460128D01*
X129236428Y-74460128D02*
X129293571Y-74488700D01*
X128693570Y-74860128D02*
X128664999Y-74888700D01*
X128664999Y-74888700D02*
X128693570Y-74917271D01*
X128693570Y-74917271D02*
X128722142Y-74888700D01*
X128722142Y-74888700D02*
X128693570Y-74860128D01*
X128693570Y-74860128D02*
X128693570Y-74917271D01*
X128122142Y-74317271D02*
X128407856Y-74317271D01*
X128407856Y-74317271D02*
X128436428Y-74602985D01*
X128436428Y-74602985D02*
X128407856Y-74574414D01*
X128407856Y-74574414D02*
X128350714Y-74545842D01*
X128350714Y-74545842D02*
X128207856Y-74545842D01*
X128207856Y-74545842D02*
X128150714Y-74574414D01*
X128150714Y-74574414D02*
X128122142Y-74602985D01*
X128122142Y-74602985D02*
X128093571Y-74660128D01*
X128093571Y-74660128D02*
X128093571Y-74802985D01*
X128093571Y-74802985D02*
X128122142Y-74860128D01*
X128122142Y-74860128D02*
X128150714Y-74888700D01*
X128150714Y-74888700D02*
X128207856Y-74917271D01*
X128207856Y-74917271D02*
X128350714Y-74917271D01*
X128350714Y-74917271D02*
X128407856Y-74888700D01*
X128407856Y-74888700D02*
X128436428Y-74860128D01*
X127836427Y-74517271D02*
X127836427Y-74917271D01*
X127836427Y-74574414D02*
X127807856Y-74545842D01*
X127807856Y-74545842D02*
X127750713Y-74517271D01*
X127750713Y-74517271D02*
X127664999Y-74517271D01*
X127664999Y-74517271D02*
X127607856Y-74545842D01*
X127607856Y-74545842D02*
X127579285Y-74602985D01*
X127579285Y-74602985D02*
X127579285Y-74917271D01*
X127093570Y-74602985D02*
X127293570Y-74602985D01*
X127293570Y-74917271D02*
X127293570Y-74317271D01*
X127293570Y-74317271D02*
X127007856Y-74317271D01*
D14*
%TO.C,C4*%
X125296252Y-80142500D02*
X124773748Y-80142500D01*
X125296252Y-81612500D02*
X124773748Y-81612500D01*
%TO.C,C1*%
X107320000Y-51516248D02*
X107320000Y-52038752D01*
X108790000Y-51516248D02*
X108790000Y-52038752D01*
%TO.C,U1*%
X133772500Y-68622500D02*
X131572500Y-68622500D01*
X133772500Y-68622500D02*
X135972500Y-68622500D01*
X133772500Y-74092500D02*
X130172500Y-74092500D01*
X133772500Y-74092500D02*
X135972500Y-74092500D01*
D11*
X69155000Y-58785000D02*
X69155000Y-61285000D01*
X73655000Y-61285000D02*
X73655000Y-58785000D01*
D15*
X73199380Y-59235000D02*
G75*
G02*
X73110620Y-59235000I-44380J0D01*
G01*
X73110620Y-59235000D02*
G75*
G02*
X73199380Y-59235000I44380J0D01*
G01*
D11*
%TO.C,U2*%
X131410000Y-81172500D02*
X131410000Y-83672500D01*
X135910000Y-83672500D02*
X135910000Y-81172500D01*
D15*
X131954380Y-83222500D02*
G75*
G02*
X131865620Y-83222500I-44380J0D01*
G01*
X131865620Y-83222500D02*
G75*
G02*
X131954380Y-83222500I44380J0D01*
G01*
D11*
%TO.C,U1*%
X102430000Y-51952500D02*
X102430000Y-54452500D01*
X106930000Y-54452500D02*
X106930000Y-51952500D01*
D15*
X102974380Y-54002500D02*
G75*
G02*
X102885620Y-54002500I-44380J0D01*
G01*
X102885620Y-54002500D02*
G75*
G02*
X102974380Y-54002500I44380J0D01*
G01*
D14*
%TO.C,C3*%
X128070000Y-80888748D02*
X128070000Y-82311252D01*
X130790000Y-80888748D02*
X130790000Y-82311252D01*
D16*
%TO.C,G\u002A\u002A\u002A*%
G36*
X143823564Y-76004488D02*
G01*
X143819348Y-76013857D01*
X143798542Y-76029510D01*
X143788112Y-76026214D01*
X143782716Y-76006177D01*
X143805770Y-75986695D01*
X143816568Y-75985514D01*
X143823564Y-76004488D01*
G37*
G36*
X144538634Y-75627492D02*
G01*
X144538634Y-75827667D01*
X144471909Y-75827667D01*
X144405184Y-75827667D01*
X144405184Y-75627492D01*
X144405184Y-75427317D01*
X144471909Y-75427317D01*
X144538634Y-75427317D01*
X144538634Y-75627492D01*
G37*
G36*
X144916742Y-78496669D02*
G01*
X144916742Y-78630119D01*
X144850017Y-78630119D01*
X144783292Y-78630119D01*
X144783292Y-78496669D01*
X144783292Y-78363219D01*
X144850017Y-78363219D01*
X144916742Y-78363219D01*
X144916742Y-78496669D01*
G37*
G36*
X141571224Y-76207820D02*
G01*
X141597221Y-76225239D01*
X141602732Y-76272500D01*
X141600688Y-76307718D01*
X141583268Y-76333714D01*
X141536007Y-76339226D01*
X141500790Y-76337181D01*
X141474793Y-76319762D01*
X141469282Y-76272500D01*
X141471326Y-76237283D01*
X141488745Y-76211287D01*
X141536007Y-76205775D01*
X141571224Y-76207820D01*
G37*
G36*
X142327441Y-77609045D02*
G01*
X142353438Y-77626465D01*
X142358949Y-77673726D01*
X142356905Y-77708944D01*
X142339485Y-77734940D01*
X142292224Y-77740451D01*
X142257007Y-77738407D01*
X142231010Y-77720988D01*
X142225499Y-77673726D01*
X142227543Y-77638509D01*
X142244963Y-77612513D01*
X142292224Y-77607001D01*
X142327441Y-77609045D01*
G37*
G36*
X143217108Y-74673144D02*
G01*
X143243105Y-74690563D01*
X143248616Y-74737824D01*
X143246572Y-74773042D01*
X143229153Y-74799038D01*
X143181891Y-74804550D01*
X143146674Y-74802505D01*
X143120677Y-74785086D01*
X143115166Y-74737824D01*
X143117210Y-74702607D01*
X143134630Y-74676611D01*
X143181891Y-74671099D01*
X143217108Y-74673144D01*
G37*
G36*
X143617459Y-74161585D02*
G01*
X143643455Y-74179004D01*
X143648967Y-74226266D01*
X143646922Y-74261483D01*
X143629503Y-74287480D01*
X143582241Y-74292991D01*
X143547024Y-74290947D01*
X143521028Y-74273527D01*
X143515516Y-74226266D01*
X143517561Y-74191049D01*
X143534980Y-74165052D01*
X143582241Y-74159541D01*
X143617459Y-74161585D01*
G37*
G36*
X143617459Y-78231813D02*
G01*
X143643455Y-78249232D01*
X143648967Y-78296493D01*
X143646922Y-78331711D01*
X143629503Y-78357707D01*
X143582241Y-78363219D01*
X143547024Y-78361174D01*
X143521028Y-78343755D01*
X143515516Y-78296493D01*
X143517561Y-78261276D01*
X143534980Y-78235280D01*
X143582241Y-78229768D01*
X143617459Y-78231813D01*
G37*
G36*
X143862117Y-77097487D02*
G01*
X143888114Y-77114906D01*
X143893625Y-77162168D01*
X143891581Y-77197385D01*
X143874161Y-77223382D01*
X143826900Y-77228893D01*
X143791683Y-77226849D01*
X143765686Y-77209429D01*
X143760175Y-77162168D01*
X143762219Y-77126951D01*
X143779639Y-77100954D01*
X143826900Y-77095443D01*
X143862117Y-77097487D01*
G37*
G36*
X143958051Y-75983926D02*
G01*
X144007343Y-75991672D01*
X144027075Y-76005600D01*
X144024806Y-76010586D01*
X143993820Y-76022909D01*
X143938108Y-76027842D01*
X143918166Y-76027275D01*
X143868873Y-76019528D01*
X143849142Y-76005600D01*
X143851410Y-76000615D01*
X143882397Y-75988292D01*
X143938108Y-75983359D01*
X143958051Y-75983926D01*
G37*
G36*
X144234025Y-74805877D02*
G01*
X144264552Y-74820415D01*
X144271734Y-74860154D01*
X144270140Y-74884334D01*
X144252695Y-74909773D01*
X144205009Y-74915758D01*
X144175992Y-74914430D01*
X144145465Y-74899892D01*
X144138284Y-74860154D01*
X144139877Y-74835974D01*
X144157322Y-74810534D01*
X144205009Y-74804550D01*
X144234025Y-74805877D01*
G37*
G36*
X144507126Y-75940919D02*
G01*
X144533123Y-75958339D01*
X144538634Y-76005600D01*
X144536590Y-76040817D01*
X144519170Y-76066814D01*
X144471909Y-76072325D01*
X144436692Y-76070281D01*
X144410695Y-76052862D01*
X144405184Y-76005600D01*
X144407228Y-75970383D01*
X144424647Y-75944386D01*
X144471909Y-75938875D01*
X144507126Y-75940919D01*
G37*
G36*
X144751784Y-75562811D02*
G01*
X144777781Y-75580230D01*
X144783292Y-75627492D01*
X144781248Y-75662709D01*
X144763829Y-75688706D01*
X144716567Y-75694217D01*
X144681350Y-75692173D01*
X144655353Y-75674753D01*
X144649842Y-75627492D01*
X144651886Y-75592275D01*
X144669306Y-75566278D01*
X144716567Y-75560767D01*
X144751784Y-75562811D01*
G37*
G36*
X144885234Y-76207820D02*
G01*
X144911231Y-76225239D01*
X144916742Y-76272500D01*
X144914698Y-76307718D01*
X144897279Y-76333714D01*
X144850017Y-76339226D01*
X144814800Y-76337181D01*
X144788803Y-76319762D01*
X144783292Y-76272500D01*
X144785336Y-76237283D01*
X144802756Y-76211287D01*
X144850017Y-76205775D01*
X144885234Y-76207820D01*
G37*
G36*
X145263343Y-75184702D02*
G01*
X145289340Y-75202122D01*
X145294851Y-75249383D01*
X145292807Y-75284600D01*
X145275387Y-75310597D01*
X145228126Y-75316108D01*
X145192909Y-75314064D01*
X145166912Y-75296644D01*
X145161401Y-75249383D01*
X145163445Y-75214166D01*
X145180865Y-75188169D01*
X145228126Y-75182658D01*
X145263343Y-75184702D01*
G37*
G36*
X145263343Y-75429361D02*
G01*
X145289340Y-75446780D01*
X145294851Y-75494042D01*
X145292807Y-75529259D01*
X145275387Y-75555255D01*
X145228126Y-75560767D01*
X145192909Y-75558723D01*
X145166912Y-75541303D01*
X145161401Y-75494042D01*
X145163445Y-75458824D01*
X145180865Y-75432828D01*
X145228126Y-75427317D01*
X145263343Y-75429361D01*
G37*
G36*
X145263343Y-77097487D02*
G01*
X145289340Y-77114906D01*
X145294851Y-77162168D01*
X145292807Y-77197385D01*
X145275387Y-77223382D01*
X145228126Y-77228893D01*
X145192909Y-77226849D01*
X145166912Y-77209429D01*
X145161401Y-77162168D01*
X145163445Y-77126951D01*
X145180865Y-77100954D01*
X145228126Y-77095443D01*
X145263343Y-77097487D01*
G37*
G36*
X145396793Y-77342145D02*
G01*
X145422790Y-77359565D01*
X145428301Y-77406826D01*
X145426257Y-77442043D01*
X145408837Y-77468040D01*
X145361576Y-77473551D01*
X145326359Y-77471507D01*
X145300362Y-77454088D01*
X145294851Y-77406826D01*
X145296895Y-77371609D01*
X145314315Y-77345612D01*
X145361576Y-77340101D01*
X145396793Y-77342145D01*
G37*
G36*
X145641452Y-76207820D02*
G01*
X145667448Y-76225239D01*
X145672960Y-76272500D01*
X145670915Y-76307718D01*
X145653496Y-76333714D01*
X145606234Y-76339226D01*
X145571017Y-76337181D01*
X145545021Y-76319762D01*
X145539509Y-76272500D01*
X145541554Y-76237283D01*
X145558973Y-76211287D01*
X145606234Y-76205775D01*
X145641452Y-76207820D01*
G37*
G36*
X145641452Y-78231813D02*
G01*
X145667448Y-78249232D01*
X145672960Y-78296493D01*
X145670915Y-78331711D01*
X145653496Y-78357707D01*
X145606234Y-78363219D01*
X145571017Y-78361174D01*
X145545021Y-78343755D01*
X145539509Y-78296493D01*
X145541554Y-78261276D01*
X145558973Y-78235280D01*
X145606234Y-78229768D01*
X145641452Y-78231813D01*
G37*
G36*
X145774902Y-76830587D02*
G01*
X145800898Y-76848006D01*
X145806410Y-76895268D01*
X145804365Y-76930485D01*
X145786946Y-76956481D01*
X145739685Y-76961993D01*
X145704467Y-76959948D01*
X145678471Y-76942529D01*
X145672960Y-76895268D01*
X145675004Y-76860050D01*
X145692423Y-76834054D01*
X145739685Y-76828543D01*
X145774902Y-76830587D01*
G37*
G36*
X146419911Y-76319028D02*
G01*
X146445907Y-76336448D01*
X146451418Y-76383709D01*
X146449374Y-76418926D01*
X146431955Y-76444923D01*
X146384693Y-76450434D01*
X146349476Y-76448390D01*
X146323479Y-76430970D01*
X146317968Y-76383709D01*
X146320012Y-76348492D01*
X146337432Y-76322495D01*
X146384693Y-76316984D01*
X146419911Y-76319028D01*
G37*
G36*
X146419911Y-76585928D02*
G01*
X146445907Y-76603348D01*
X146451418Y-76650609D01*
X146449374Y-76685826D01*
X146431955Y-76711823D01*
X146384693Y-76717334D01*
X146349476Y-76715290D01*
X146323479Y-76697870D01*
X146317968Y-76650609D01*
X146320012Y-76615392D01*
X146337432Y-76589395D01*
X146384693Y-76583884D01*
X146419911Y-76585928D01*
G37*
G36*
X141266978Y-73656478D02*
G01*
X141309142Y-73674672D01*
X141313200Y-73679597D01*
X141329561Y-73727831D01*
X141336077Y-73799708D01*
X141333179Y-73878622D01*
X141321303Y-73947967D01*
X141300880Y-73991139D01*
X141295737Y-73995461D01*
X141246582Y-74014364D01*
X141174267Y-74024643D01*
X141095397Y-74025865D01*
X141026577Y-74017595D01*
X140984413Y-73999401D01*
X140980355Y-73994476D01*
X140963993Y-73946241D01*
X140957478Y-73874365D01*
X140960376Y-73795451D01*
X140972252Y-73726105D01*
X140992674Y-73682933D01*
X140997818Y-73678612D01*
X141046973Y-73659708D01*
X141119288Y-73649429D01*
X141198158Y-73648208D01*
X141266978Y-73656478D01*
G37*
G36*
X141266978Y-78505164D02*
G01*
X141309142Y-78523359D01*
X141313200Y-78528283D01*
X141329561Y-78576518D01*
X141336077Y-78648395D01*
X141333179Y-78727308D01*
X141321303Y-78796654D01*
X141300880Y-78839826D01*
X141295737Y-78844147D01*
X141246582Y-78863051D01*
X141174267Y-78873330D01*
X141095397Y-78874551D01*
X141026577Y-78866282D01*
X140984413Y-78848087D01*
X140980355Y-78843163D01*
X140963993Y-78794928D01*
X140957478Y-78723051D01*
X140960376Y-78644137D01*
X140972252Y-78574792D01*
X140992674Y-78531620D01*
X140997818Y-78527298D01*
X141046973Y-78508395D01*
X141119288Y-78498116D01*
X141198158Y-78496894D01*
X141266978Y-78505164D01*
G37*
G36*
X143905756Y-76067672D02*
G01*
X143935654Y-76082462D01*
X143988152Y-76103366D01*
X144001279Y-76109805D01*
X144023206Y-76138250D01*
X144025693Y-76169084D01*
X144004833Y-76183534D01*
X143999517Y-76182887D01*
X143982592Y-76161292D01*
X143978008Y-76149814D01*
X143948844Y-76139622D01*
X143910596Y-76145700D01*
X143884358Y-76166852D01*
X143873016Y-76183209D01*
X143858409Y-76166852D01*
X143850887Y-76156060D01*
X143813926Y-76139050D01*
X143800295Y-76136848D01*
X143782417Y-76116809D01*
X143785537Y-76107187D01*
X143813926Y-76094567D01*
X143827375Y-76092401D01*
X143853859Y-76069295D01*
X143867858Y-76055461D01*
X143905756Y-76067672D01*
G37*
G36*
X143927558Y-76405976D02*
G01*
X143981902Y-76410820D01*
X144012976Y-76421507D01*
X144021704Y-76452231D01*
X144020906Y-76504914D01*
X144011661Y-76548167D01*
X143986420Y-76570649D01*
X143931210Y-76579666D01*
X143900962Y-76581310D01*
X143860512Y-76574864D01*
X143849142Y-76551864D01*
X143863776Y-76526498D01*
X143915867Y-76517159D01*
X143916697Y-76517157D01*
X143963264Y-76510534D01*
X143982592Y-76494917D01*
X143982587Y-76494641D01*
X143962717Y-76479118D01*
X143915867Y-76472676D01*
X143869035Y-76465800D01*
X143849142Y-76439313D01*
X143849143Y-76439066D01*
X143867190Y-76413954D01*
X143923281Y-76405951D01*
X143927558Y-76405976D01*
G37*
G36*
X144373676Y-78498713D02*
G01*
X144399672Y-78516132D01*
X144405184Y-78563394D01*
X144407228Y-78598611D01*
X144424647Y-78624607D01*
X144471909Y-78630119D01*
X144500925Y-78631447D01*
X144531452Y-78645984D01*
X144538634Y-78685723D01*
X144537040Y-78709903D01*
X144519595Y-78735343D01*
X144471909Y-78741327D01*
X144442893Y-78739999D01*
X144412365Y-78725462D01*
X144405184Y-78685723D01*
X144403590Y-78661543D01*
X144386145Y-78636103D01*
X144338459Y-78630119D01*
X144303241Y-78628075D01*
X144277245Y-78610655D01*
X144271734Y-78563394D01*
X144273778Y-78528176D01*
X144291197Y-78502180D01*
X144338459Y-78496669D01*
X144373676Y-78498713D01*
G37*
G36*
X146115664Y-73656478D02*
G01*
X146157828Y-73674672D01*
X146161887Y-73679597D01*
X146178248Y-73727831D01*
X146184763Y-73799708D01*
X146181866Y-73878622D01*
X146169989Y-73947967D01*
X146149567Y-73991139D01*
X146144424Y-73995461D01*
X146095268Y-74014364D01*
X146022953Y-74024643D01*
X145944083Y-74025865D01*
X145875264Y-74017595D01*
X145833100Y-73999401D01*
X145829041Y-73994476D01*
X145812680Y-73946241D01*
X145806165Y-73874365D01*
X145809062Y-73795451D01*
X145820939Y-73726105D01*
X145841361Y-73682933D01*
X145846504Y-73678612D01*
X145895659Y-73659708D01*
X145967975Y-73649429D01*
X146046844Y-73648208D01*
X146115664Y-73656478D01*
G37*
G36*
X143939962Y-76606126D02*
G01*
X144020403Y-76606126D01*
X144018178Y-76678411D01*
X144015038Y-76714932D01*
X143997391Y-76746133D01*
X143953445Y-76757864D01*
X143935454Y-76758903D01*
X143878102Y-76747555D01*
X143841023Y-76718725D01*
X143836950Y-76685602D01*
X143893625Y-76685602D01*
X143898961Y-76703823D01*
X143930705Y-76713405D01*
X143944769Y-76709484D01*
X143973410Y-76687129D01*
X143972571Y-76662327D01*
X143939962Y-76650609D01*
X143912334Y-76656728D01*
X143893625Y-76685602D01*
X143836950Y-76685602D01*
X143836311Y-76680408D01*
X143835902Y-76661806D01*
X143803960Y-76650609D01*
X143778773Y-76646533D01*
X143760175Y-76628367D01*
X143773456Y-76618559D01*
X143820575Y-76609579D01*
X143890289Y-76606126D01*
X143939962Y-76606126D01*
G37*
G36*
X143953892Y-76208138D02*
G01*
X144006816Y-76216170D01*
X144027075Y-76228017D01*
X144013270Y-76242645D01*
X143971471Y-76250259D01*
X143928899Y-76259860D01*
X143915867Y-76294742D01*
X143927868Y-76328800D01*
X143971471Y-76339226D01*
X144008041Y-76344748D01*
X144027075Y-76361467D01*
X144012900Y-76371512D01*
X143964708Y-76380332D01*
X143893625Y-76383709D01*
X143833358Y-76381346D01*
X143780434Y-76373314D01*
X143760175Y-76361467D01*
X143768516Y-76348540D01*
X143804658Y-76339226D01*
X143833414Y-76331915D01*
X143849142Y-76294742D01*
X143841831Y-76265986D01*
X143804658Y-76250259D01*
X143778803Y-76246088D01*
X143760175Y-76228017D01*
X143774350Y-76217973D01*
X143822542Y-76209152D01*
X143893625Y-76205775D01*
X143953892Y-76208138D01*
G37*
G36*
X143942412Y-75770194D02*
G01*
X143992124Y-75795893D01*
X144023690Y-75846445D01*
X144024412Y-75901682D01*
X143993646Y-75944141D01*
X143935729Y-75961117D01*
X143920385Y-75960727D01*
X143881701Y-75949094D01*
X143871383Y-75915135D01*
X143871393Y-75913249D01*
X143880982Y-75881372D01*
X143915867Y-75883271D01*
X143935924Y-75886232D01*
X143959207Y-75871851D01*
X143956516Y-75843867D01*
X143925376Y-75819005D01*
X143921046Y-75817514D01*
X143868665Y-75819809D01*
X143823730Y-75849570D01*
X143804658Y-75895174D01*
X143800594Y-75920281D01*
X143782417Y-75938875D01*
X143780413Y-75938706D01*
X143764704Y-75917426D01*
X143760897Y-75873118D01*
X143768461Y-75823836D01*
X143786865Y-75787632D01*
X143813872Y-75771618D01*
X143875802Y-75761812D01*
X143942412Y-75770194D01*
G37*
G36*
X140775014Y-77096030D02*
G01*
X140807080Y-77105581D01*
X140823992Y-77133535D01*
X140828901Y-77188463D01*
X140824954Y-77278937D01*
X140825081Y-77312311D01*
X140841670Y-77335223D01*
X140889322Y-77340101D01*
X140927102Y-77342367D01*
X140952418Y-77359960D01*
X140957723Y-77406826D01*
X140955679Y-77442043D01*
X140938259Y-77468040D01*
X140890998Y-77473551D01*
X140855781Y-77471507D01*
X140829784Y-77454088D01*
X140824273Y-77406826D01*
X140822229Y-77371609D01*
X140804809Y-77345612D01*
X140757548Y-77340101D01*
X140756528Y-77340101D01*
X140718823Y-77337921D01*
X140699286Y-77324106D01*
X140691943Y-77287706D01*
X140690823Y-77217772D01*
X140690823Y-77215901D01*
X140692012Y-77146777D01*
X140699548Y-77110959D01*
X140719402Y-77097497D01*
X140757548Y-77095443D01*
X140775014Y-77096030D01*
G37*
G36*
X144538634Y-76450434D02*
G01*
X144538635Y-76455111D01*
X144539972Y-76527117D01*
X144546784Y-76565618D01*
X144563421Y-76581058D01*
X144594238Y-76583884D01*
X144618418Y-76582291D01*
X144643858Y-76564845D01*
X144649842Y-76517159D01*
X144651886Y-76481942D01*
X144669306Y-76455945D01*
X144716567Y-76450434D01*
X144751784Y-76452478D01*
X144777781Y-76469898D01*
X144783292Y-76517159D01*
X144781004Y-76553826D01*
X144763041Y-76578671D01*
X144715090Y-76583884D01*
X144676815Y-76586050D01*
X144654097Y-76602230D01*
X144653925Y-76645049D01*
X144655324Y-76655248D01*
X144674490Y-76697321D01*
X144722128Y-76713251D01*
X144734143Y-76714923D01*
X144773065Y-76732555D01*
X144783292Y-76774416D01*
X144781787Y-76797039D01*
X144764346Y-76822467D01*
X144716567Y-76828543D01*
X144687551Y-76827215D01*
X144657024Y-76812677D01*
X144649842Y-76772938D01*
X144649607Y-76762691D01*
X144636564Y-76726520D01*
X144594238Y-76717334D01*
X144570058Y-76715741D01*
X144544618Y-76698296D01*
X144538634Y-76650609D01*
X144536590Y-76615392D01*
X144519170Y-76589395D01*
X144471909Y-76583884D01*
X144405184Y-76583884D01*
X144405184Y-76450434D01*
X144405184Y-76316984D01*
X144471909Y-76316984D01*
X144538634Y-76316984D01*
X144538634Y-76450434D01*
G37*
G36*
X143484009Y-77097487D02*
G01*
X143510005Y-77114906D01*
X143515516Y-77162168D01*
X143517561Y-77197385D01*
X143534980Y-77223382D01*
X143582241Y-77228893D01*
X143611258Y-77230221D01*
X143641785Y-77244758D01*
X143648967Y-77284497D01*
X143649201Y-77294744D01*
X143662245Y-77330915D01*
X143704571Y-77340101D01*
X143728751Y-77341695D01*
X143754190Y-77359140D01*
X143760175Y-77406826D01*
X143758847Y-77435842D01*
X143744309Y-77466370D01*
X143704571Y-77473551D01*
X143677857Y-77475238D01*
X143661332Y-77486180D01*
X143652736Y-77515184D01*
X143649477Y-77571057D01*
X143648967Y-77662606D01*
X143648967Y-77851660D01*
X143582241Y-77851660D01*
X143577775Y-77851661D01*
X143545278Y-77849973D01*
X143525714Y-77839031D01*
X143515802Y-77810027D01*
X143512261Y-77754154D01*
X143511809Y-77662606D01*
X143512338Y-77572359D01*
X143515770Y-77515921D01*
X143524870Y-77486511D01*
X143542399Y-77475324D01*
X143571121Y-77473551D01*
X143595301Y-77471958D01*
X143620740Y-77454513D01*
X143626725Y-77406826D01*
X143625397Y-77377810D01*
X143610859Y-77347283D01*
X143571121Y-77340101D01*
X143560874Y-77339866D01*
X143524703Y-77326823D01*
X143515516Y-77284497D01*
X143513923Y-77260317D01*
X143496478Y-77234877D01*
X143448791Y-77228893D01*
X143413574Y-77226849D01*
X143387578Y-77209429D01*
X143382066Y-77162168D01*
X143384110Y-77126951D01*
X143401530Y-77100954D01*
X143448791Y-77095443D01*
X143484009Y-77097487D01*
G37*
G36*
X143999135Y-74673272D02*
G01*
X144018550Y-74687086D01*
X144025917Y-74723490D01*
X144027075Y-74793429D01*
X144027075Y-74915758D01*
X143954790Y-74917950D01*
X143921542Y-74918895D01*
X143843845Y-74922006D01*
X143798825Y-74930261D01*
X143777629Y-74949990D01*
X143771403Y-74987528D01*
X143771296Y-75049208D01*
X143772316Y-75112617D01*
X143779196Y-75153510D01*
X143797418Y-75171635D01*
X143832460Y-75178575D01*
X143867009Y-75180135D01*
X143889053Y-75164630D01*
X143893625Y-75117410D01*
X143893625Y-75115391D01*
X143895810Y-75077278D01*
X143909625Y-75057613D01*
X143946024Y-75050292D01*
X144015954Y-75049208D01*
X144017825Y-75049208D01*
X144086949Y-75050397D01*
X144122768Y-75057933D01*
X144136229Y-75077787D01*
X144138284Y-75115933D01*
X144136956Y-75144949D01*
X144122418Y-75175477D01*
X144082679Y-75182658D01*
X144058499Y-75184252D01*
X144033060Y-75201697D01*
X144027075Y-75249383D01*
X144027075Y-75316108D01*
X143893625Y-75316108D01*
X143888947Y-75316109D01*
X143816942Y-75317447D01*
X143778441Y-75324258D01*
X143763001Y-75340896D01*
X143760175Y-75371712D01*
X143758581Y-75395892D01*
X143741136Y-75421332D01*
X143693450Y-75427317D01*
X143626725Y-75427317D01*
X143626725Y-75171537D01*
X143626725Y-74915758D01*
X143693450Y-74915758D01*
X143721339Y-74914537D01*
X143752685Y-74900389D01*
X143760175Y-74861631D01*
X143760502Y-74850961D01*
X143775366Y-74814807D01*
X143821340Y-74800466D01*
X143831539Y-74799068D01*
X143873612Y-74779902D01*
X143889542Y-74732264D01*
X143893492Y-74708504D01*
X143913670Y-74678285D01*
X143961827Y-74671099D01*
X143961834Y-74671099D01*
X143999135Y-74673272D01*
G37*
G36*
X143465912Y-75961559D02*
G01*
X143524378Y-75969961D01*
X143572475Y-75995716D01*
X143629342Y-76047467D01*
X143659253Y-76078601D01*
X143704612Y-76136963D01*
X143712291Y-76171907D01*
X143682329Y-76183534D01*
X143665465Y-76178498D01*
X143648967Y-76147063D01*
X143641744Y-76120481D01*
X143610044Y-76081045D01*
X143594345Y-76069819D01*
X143558052Y-76052007D01*
X143548055Y-76060622D01*
X143570371Y-76093739D01*
X143592131Y-76127887D01*
X143595103Y-76175896D01*
X143583944Y-76194380D01*
X143566559Y-76186652D01*
X143537129Y-76143362D01*
X143514126Y-76110972D01*
X143471779Y-76080119D01*
X143412312Y-76072595D01*
X143323682Y-76085114D01*
X143300339Y-76090309D01*
X143277013Y-76102130D01*
X143264943Y-76127767D01*
X143260420Y-76177443D01*
X143259737Y-76261380D01*
X143259943Y-76321098D01*
X143262742Y-76381291D01*
X143271826Y-76413965D01*
X143290903Y-76429342D01*
X143323682Y-76437645D01*
X143366389Y-76445233D01*
X143442922Y-76449136D01*
X143494601Y-76431338D01*
X143532525Y-76389269D01*
X143545994Y-76369626D01*
X143585327Y-76338289D01*
X143643406Y-76335074D01*
X143648765Y-76335655D01*
X143696208Y-76347641D01*
X143715692Y-76365493D01*
X143708654Y-76381778D01*
X143677300Y-76423357D01*
X143629342Y-76475292D01*
X143606309Y-76497788D01*
X143554871Y-76539025D01*
X143505200Y-76557429D01*
X143438159Y-76561642D01*
X143418850Y-76561095D01*
X143335181Y-76548312D01*
X143268257Y-76523205D01*
X143219774Y-76480271D01*
X143168769Y-76408923D01*
X143130345Y-76329879D01*
X143115166Y-76261380D01*
X143127935Y-76199558D01*
X143164751Y-76120708D01*
X143215081Y-76047959D01*
X143268257Y-75999554D01*
X143281159Y-75992815D01*
X143354524Y-75970071D01*
X143438159Y-75961117D01*
X143465912Y-75961559D01*
G37*
G36*
X141504103Y-73481189D02*
G01*
X141524419Y-73504605D01*
X141566499Y-73566916D01*
X141588173Y-73620199D01*
X141590111Y-73635848D01*
X141593379Y-73699419D01*
X141594355Y-73787565D01*
X141592795Y-73886182D01*
X141589483Y-73959927D01*
X141577218Y-74063568D01*
X141553671Y-74138233D01*
X141515121Y-74193674D01*
X141457846Y-74239639D01*
X141420490Y-74256845D01*
X141335055Y-74276970D01*
X141226254Y-74288712D01*
X141106547Y-74290933D01*
X140988399Y-74282497D01*
X140969771Y-74280043D01*
X140893072Y-74264137D01*
X140838133Y-74236753D01*
X140785873Y-74189090D01*
X140713065Y-74111890D01*
X140713065Y-73856590D01*
X140713121Y-73829915D01*
X140713230Y-73826109D01*
X140824273Y-73826109D01*
X140827660Y-73938205D01*
X140843791Y-74034292D01*
X140878949Y-74098317D01*
X140939342Y-74136432D01*
X141031175Y-74154789D01*
X141160656Y-74159541D01*
X141214556Y-74159281D01*
X141286435Y-74156092D01*
X141333513Y-74146505D01*
X141368541Y-74127117D01*
X141404268Y-74094527D01*
X141428065Y-74069596D01*
X141450815Y-74036847D01*
X141462932Y-73996597D01*
X141467543Y-73936524D01*
X141467776Y-73844308D01*
X141467396Y-73820412D01*
X141462687Y-73729746D01*
X141453996Y-73655077D01*
X141442842Y-73610642D01*
X141408263Y-73566472D01*
X141343414Y-73533914D01*
X141246323Y-73518211D01*
X141112010Y-73517966D01*
X141067697Y-73520163D01*
X140991362Y-73526531D01*
X140942281Y-73537603D01*
X140908415Y-73556995D01*
X140877726Y-73588320D01*
X140874990Y-73591528D01*
X140848412Y-73629106D01*
X140833051Y-73672051D01*
X140825980Y-73733380D01*
X140824273Y-73826109D01*
X140713230Y-73826109D01*
X140717338Y-73683318D01*
X140732131Y-73574556D01*
X140762926Y-73498059D01*
X140815150Y-73448258D01*
X140894229Y-73419581D01*
X141005591Y-73406460D01*
X141112010Y-73404221D01*
X141154660Y-73403324D01*
X141430667Y-73403324D01*
X141504103Y-73481189D01*
G37*
G36*
X141276824Y-78237698D02*
G01*
X141369194Y-78251232D01*
X141412330Y-78266236D01*
X141490710Y-78317322D01*
X141553815Y-78386832D01*
X141587481Y-78461147D01*
X141595361Y-78530179D01*
X141598750Y-78628838D01*
X141597342Y-78736580D01*
X141591388Y-78835613D01*
X141581140Y-78908140D01*
X141552009Y-78981481D01*
X141492353Y-79058271D01*
X141492147Y-79058456D01*
X141462242Y-79083703D01*
X141433128Y-79100800D01*
X141395751Y-79111335D01*
X141341056Y-79116894D01*
X141259988Y-79119065D01*
X141143492Y-79119436D01*
X140862888Y-79119436D01*
X140787976Y-79040006D01*
X140713065Y-78960577D01*
X140713065Y-78698549D01*
X140713096Y-78668873D01*
X140713220Y-78658451D01*
X140824273Y-78658451D01*
X140829335Y-78791002D01*
X140848620Y-78888212D01*
X140887807Y-78952693D01*
X140952572Y-78989948D01*
X141048592Y-79005480D01*
X141181545Y-79004793D01*
X141225858Y-79002596D01*
X141302192Y-78996228D01*
X141351273Y-78985156D01*
X141385139Y-78965765D01*
X141415829Y-78934439D01*
X141423831Y-78924890D01*
X141447775Y-78888769D01*
X141461298Y-78845976D01*
X141467073Y-78783928D01*
X141467776Y-78690043D01*
X141463329Y-78573493D01*
X141446826Y-78481112D01*
X141411941Y-78420150D01*
X141352265Y-78384351D01*
X141261387Y-78367459D01*
X141132899Y-78363219D01*
X141078999Y-78363478D01*
X141007120Y-78366667D01*
X140960042Y-78376254D01*
X140925014Y-78395642D01*
X140889287Y-78428233D01*
X140878105Y-78439611D01*
X140848760Y-78475503D01*
X140832582Y-78514823D01*
X140825706Y-78571247D01*
X140824273Y-78658451D01*
X140713220Y-78658451D01*
X140714361Y-78562716D01*
X140718572Y-78488805D01*
X140727229Y-78437179D01*
X140741832Y-78397879D01*
X140763879Y-78360947D01*
X140765205Y-78359001D01*
X140823227Y-78298562D01*
X140891768Y-78258826D01*
X140950986Y-78245186D01*
X141051145Y-78234938D01*
X141132899Y-78233087D01*
X141165282Y-78232354D01*
X141276824Y-78237698D01*
G37*
G36*
X146021839Y-73403596D02*
G01*
X146093084Y-73406372D01*
X146150233Y-73408599D01*
X146244250Y-73421634D01*
X146311322Y-73444958D01*
X146358882Y-73480825D01*
X146394360Y-73531493D01*
X146401982Y-73548496D01*
X146416654Y-73610968D01*
X146425207Y-73705954D01*
X146428286Y-73839308D01*
X146428301Y-73843528D01*
X146427723Y-73953665D01*
X146424054Y-74030120D01*
X146415676Y-74083334D01*
X146400970Y-74123751D01*
X146378320Y-74161812D01*
X146351636Y-74196022D01*
X146289373Y-74245076D01*
X146205803Y-74275225D01*
X146093820Y-74288529D01*
X145946318Y-74287047D01*
X145878822Y-74282799D01*
X145772383Y-74268763D01*
X145695676Y-74244165D01*
X145639053Y-74205210D01*
X145592862Y-74148105D01*
X145575644Y-74110696D01*
X145555537Y-74025310D01*
X145543785Y-73916623D01*
X145541992Y-73821595D01*
X145673263Y-73821595D01*
X145673306Y-73832017D01*
X145675566Y-73921322D01*
X145680524Y-73997014D01*
X145687211Y-74043663D01*
X145713528Y-74091418D01*
X145774480Y-74130030D01*
X145871309Y-74152355D01*
X146007191Y-74159541D01*
X146064965Y-74159245D01*
X146136094Y-74155966D01*
X146182723Y-74146312D01*
X146217471Y-74126945D01*
X146252954Y-74094527D01*
X146271180Y-74075728D01*
X146296867Y-74041842D01*
X146310642Y-74002495D01*
X146315944Y-73944690D01*
X146316212Y-73855429D01*
X146316207Y-73854880D01*
X146310033Y-73722343D01*
X146290651Y-73627976D01*
X146252044Y-73566067D01*
X146188194Y-73530903D01*
X146093084Y-73516774D01*
X145960697Y-73517966D01*
X145916383Y-73520163D01*
X145840049Y-73526531D01*
X145790968Y-73537603D01*
X145757102Y-73556995D01*
X145726412Y-73588320D01*
X145726320Y-73588427D01*
X145698409Y-73626716D01*
X145682285Y-73669465D01*
X145674914Y-73729986D01*
X145673263Y-73821595D01*
X145541992Y-73821595D01*
X145541531Y-73797129D01*
X145549920Y-73679324D01*
X145565676Y-73593676D01*
X145592667Y-73532589D01*
X145639519Y-73476799D01*
X145712995Y-73403324D01*
X145972103Y-73403324D01*
X146021839Y-73403596D01*
G37*
G36*
X144243733Y-77097623D02*
G01*
X144263270Y-77111438D01*
X144270613Y-77147838D01*
X144271734Y-77217772D01*
X144271734Y-77219643D01*
X144272923Y-77288767D01*
X144280458Y-77324585D01*
X144300313Y-77338047D01*
X144338459Y-77340101D01*
X144367475Y-77338773D01*
X144398002Y-77324236D01*
X144405184Y-77284497D01*
X144411723Y-77251279D01*
X144438311Y-77230889D01*
X144492827Y-77224149D01*
X144583117Y-77228594D01*
X144595022Y-77229575D01*
X144629990Y-77235028D01*
X144647373Y-77251214D01*
X144653141Y-77289382D01*
X144653263Y-77360783D01*
X144652389Y-77473551D01*
X144784566Y-77473551D01*
X144803985Y-77473561D01*
X144869119Y-77475170D01*
X144902600Y-77483280D01*
X144914963Y-77503209D01*
X144916742Y-77540276D01*
X144916742Y-77607001D01*
X144783292Y-77607001D01*
X144778615Y-77607003D01*
X144706609Y-77608340D01*
X144668108Y-77615151D01*
X144652668Y-77631789D01*
X144649842Y-77662606D01*
X144649845Y-77664555D01*
X144653054Y-77694557D01*
X144669402Y-77710599D01*
X144709333Y-77717032D01*
X144783292Y-77718210D01*
X144803100Y-77718222D01*
X144868545Y-77719848D01*
X144902311Y-77727846D01*
X144914882Y-77747340D01*
X144916742Y-77783457D01*
X144915602Y-77808935D01*
X144899947Y-77842973D01*
X144855578Y-77855743D01*
X144846702Y-77856934D01*
X144803732Y-77875802D01*
X144787505Y-77922598D01*
X144786704Y-77928786D01*
X144768031Y-77972675D01*
X144720780Y-77989323D01*
X144692562Y-77993914D01*
X144672304Y-78006243D01*
X144661037Y-78035115D01*
X144655401Y-78089839D01*
X144652034Y-78179725D01*
X144649071Y-78216031D01*
X144633181Y-78245226D01*
X144594238Y-78252010D01*
X144583991Y-78252245D01*
X144547820Y-78265288D01*
X144538634Y-78307614D01*
X144538869Y-78317861D01*
X144551912Y-78354032D01*
X144594238Y-78363219D01*
X144618418Y-78364812D01*
X144643858Y-78382257D01*
X144649842Y-78429944D01*
X144648621Y-78457833D01*
X144634473Y-78489179D01*
X144595715Y-78496669D01*
X144585045Y-78496341D01*
X144548891Y-78481477D01*
X144534551Y-78435504D01*
X144533152Y-78425305D01*
X144513986Y-78383231D01*
X144466348Y-78367302D01*
X144405184Y-78360264D01*
X144405184Y-78174164D01*
X144405184Y-77988065D01*
X144466348Y-77981027D01*
X144489351Y-77978798D01*
X144506810Y-77973922D01*
X144518345Y-77959626D01*
X144525533Y-77928907D01*
X144529951Y-77874760D01*
X144533176Y-77790181D01*
X144536784Y-77668166D01*
X144537967Y-77649880D01*
X144552839Y-77615509D01*
X144594238Y-77607001D01*
X144618418Y-77605408D01*
X144643858Y-77587963D01*
X144649842Y-77540276D01*
X144648621Y-77512387D01*
X144634473Y-77481041D01*
X144595715Y-77473551D01*
X144585045Y-77473224D01*
X144548891Y-77458360D01*
X144534551Y-77412387D01*
X144533152Y-77402188D01*
X144513986Y-77360114D01*
X144466348Y-77344184D01*
X144431800Y-77342624D01*
X144409756Y-77358129D01*
X144405184Y-77405349D01*
X144402945Y-77442828D01*
X144385371Y-77468222D01*
X144338459Y-77473551D01*
X144303241Y-77475595D01*
X144277245Y-77493015D01*
X144271734Y-77540276D01*
X144269689Y-77575493D01*
X144252270Y-77601490D01*
X144205009Y-77607001D01*
X144169791Y-77604957D01*
X144143795Y-77587538D01*
X144138284Y-77540276D01*
X144140328Y-77505059D01*
X144157747Y-77479062D01*
X144205009Y-77473551D01*
X144239527Y-77471601D01*
X144266036Y-77454590D01*
X144271734Y-77408415D01*
X144269562Y-77371214D01*
X144255747Y-77351809D01*
X144219344Y-77344440D01*
X144149404Y-77343279D01*
X144079540Y-77344435D01*
X144043095Y-77351791D01*
X144029256Y-77371175D01*
X144027075Y-77408415D01*
X144025077Y-77442111D01*
X144007651Y-77467990D01*
X143960350Y-77473551D01*
X143925133Y-77471507D01*
X143899136Y-77454088D01*
X143893625Y-77406826D01*
X143895669Y-77371609D01*
X143913089Y-77345612D01*
X143960350Y-77340101D01*
X143989366Y-77338773D01*
X144019894Y-77324236D01*
X144027075Y-77284497D01*
X144027310Y-77274250D01*
X144040353Y-77238079D01*
X144082679Y-77228893D01*
X144106859Y-77227299D01*
X144132299Y-77209854D01*
X144138284Y-77162168D01*
X144140328Y-77126951D01*
X144157747Y-77100954D01*
X144205009Y-77095443D01*
X144206029Y-77095443D01*
X144243733Y-77097623D01*
G37*
G36*
X142103170Y-73381082D02*
G01*
X142225499Y-73381082D01*
X142225499Y-73447807D01*
X142227543Y-73483024D01*
X142244963Y-73509021D01*
X142292224Y-73514532D01*
X142327441Y-73512488D01*
X142353438Y-73495068D01*
X142358949Y-73447807D01*
X142358949Y-73381082D01*
X142492399Y-73381082D01*
X142625849Y-73381082D01*
X142625849Y-73514532D01*
X142625837Y-73534340D01*
X142624211Y-73599785D01*
X142616213Y-73633551D01*
X142596719Y-73646122D01*
X142560601Y-73647982D01*
X142535124Y-73646842D01*
X142501086Y-73631186D01*
X142488316Y-73586817D01*
X142486918Y-73576618D01*
X142467751Y-73534545D01*
X142420114Y-73518615D01*
X142386770Y-73516954D01*
X142363765Y-73531811D01*
X142358949Y-73578302D01*
X142357622Y-73606342D01*
X142341783Y-73639601D01*
X142297784Y-73652065D01*
X142284211Y-73653996D01*
X142246400Y-73671932D01*
X142236620Y-73714707D01*
X142237026Y-73727093D01*
X142251969Y-73763187D01*
X142297784Y-73777349D01*
X142327976Y-73782584D01*
X142348970Y-73798077D01*
X142357401Y-73834556D01*
X142358949Y-73903761D01*
X142358047Y-73962791D01*
X142351346Y-74004536D01*
X142333152Y-74023083D01*
X142297784Y-74030174D01*
X142284211Y-74032105D01*
X142246400Y-74050040D01*
X142236620Y-74092816D01*
X142237026Y-74105202D01*
X142251969Y-74141295D01*
X142297784Y-74155458D01*
X142300689Y-74155796D01*
X142333513Y-74162647D01*
X142350904Y-74180634D01*
X142357753Y-74220869D01*
X142358949Y-74294468D01*
X142358940Y-74313535D01*
X142357339Y-74378746D01*
X142349240Y-74412272D01*
X142329312Y-74424656D01*
X142292224Y-74426441D01*
X142263208Y-74427769D01*
X142232680Y-74442306D01*
X142225499Y-74482045D01*
X142227092Y-74506225D01*
X142236620Y-74520120D01*
X142244537Y-74531665D01*
X142292224Y-74537649D01*
X142358949Y-74537649D01*
X142358949Y-74726704D01*
X142358949Y-74915758D01*
X142384643Y-74915758D01*
X142425674Y-74915758D01*
X142454690Y-74914430D01*
X142485218Y-74899892D01*
X142492399Y-74860154D01*
X142492634Y-74849907D01*
X142505677Y-74813736D01*
X142548003Y-74804550D01*
X142549952Y-74804547D01*
X142579955Y-74801337D01*
X142595997Y-74784990D01*
X142602430Y-74745059D01*
X142603607Y-74671099D01*
X142603607Y-74537649D01*
X142681453Y-74537649D01*
X142737058Y-74537649D01*
X142741735Y-74537648D01*
X142813741Y-74536311D01*
X142852242Y-74529500D01*
X142867682Y-74512862D01*
X142870508Y-74482045D01*
X142870505Y-74480096D01*
X142867296Y-74450094D01*
X142850948Y-74434052D01*
X142811017Y-74427618D01*
X142737058Y-74426441D01*
X142603607Y-74426441D01*
X142603607Y-74359716D01*
X142602280Y-74330700D01*
X142587742Y-74300172D01*
X142548003Y-74292991D01*
X142546054Y-74292988D01*
X142516052Y-74289779D01*
X142500010Y-74273431D01*
X142493576Y-74233500D01*
X142493461Y-74226266D01*
X142625849Y-74226266D01*
X142627177Y-74255282D01*
X142641715Y-74285809D01*
X142681453Y-74292991D01*
X142705633Y-74291397D01*
X142731073Y-74273952D01*
X142737058Y-74226266D01*
X142736803Y-74220705D01*
X142874591Y-74220705D01*
X142876522Y-74234278D01*
X142894457Y-74272090D01*
X142937233Y-74281870D01*
X142949619Y-74281464D01*
X142985712Y-74266521D01*
X142999875Y-74220705D01*
X143001316Y-74185025D01*
X142985172Y-74163887D01*
X142937233Y-74159541D01*
X142896854Y-74161879D01*
X142874649Y-74178185D01*
X142874591Y-74220705D01*
X142736803Y-74220705D01*
X142735730Y-74197250D01*
X142721192Y-74166722D01*
X142681453Y-74159541D01*
X142657273Y-74161134D01*
X142631834Y-74178579D01*
X142625849Y-74226266D01*
X142493461Y-74226266D01*
X142492399Y-74159541D01*
X142492400Y-74154863D01*
X142493737Y-74082857D01*
X142500549Y-74044357D01*
X142517187Y-74028916D01*
X142548003Y-74026091D01*
X142558250Y-74025856D01*
X142594421Y-74012813D01*
X142603607Y-73970486D01*
X142603373Y-73960239D01*
X142590329Y-73924069D01*
X142548003Y-73914882D01*
X142523823Y-73913289D01*
X142498384Y-73895844D01*
X142492399Y-73848157D01*
X142492527Y-73840070D01*
X142500633Y-73802701D01*
X142527376Y-73782529D01*
X142581145Y-73776393D01*
X142670333Y-73781133D01*
X142681453Y-73782049D01*
X142682237Y-73782114D01*
X142717205Y-73787567D01*
X142734588Y-73803753D01*
X142740356Y-73841921D01*
X142740478Y-73913322D01*
X142739605Y-74026091D01*
X142871781Y-74026091D01*
X142891200Y-74026100D01*
X142937233Y-74027237D01*
X142956335Y-74027709D01*
X142989815Y-74035820D01*
X143002178Y-74055749D01*
X143003958Y-74092816D01*
X143006002Y-74128033D01*
X143023421Y-74154030D01*
X143070683Y-74159541D01*
X143105900Y-74161585D01*
X143131897Y-74179004D01*
X143137408Y-74226266D01*
X143138736Y-74255282D01*
X143153273Y-74285809D01*
X143193012Y-74292991D01*
X143219725Y-74291304D01*
X143236251Y-74280362D01*
X143244847Y-74251358D01*
X143246841Y-74217167D01*
X143382066Y-74217167D01*
X143382066Y-74404199D01*
X143571121Y-74404199D01*
X143760175Y-74404199D01*
X143760175Y-74217167D01*
X143760175Y-74030135D01*
X143571121Y-74030135D01*
X143382066Y-74030135D01*
X143382066Y-74217167D01*
X143246841Y-74217167D01*
X143248106Y-74195485D01*
X143248616Y-74103937D01*
X143248616Y-73914882D01*
X143181891Y-73914882D01*
X143146674Y-73912838D01*
X143120677Y-73895419D01*
X143115166Y-73848157D01*
X143113838Y-73819141D01*
X143099301Y-73788614D01*
X143059562Y-73781432D01*
X143035382Y-73779839D01*
X143009942Y-73762394D01*
X143003958Y-73714707D01*
X143001914Y-73679490D01*
X142984494Y-73653493D01*
X142937233Y-73647982D01*
X142870508Y-73647982D01*
X142870508Y-73514532D01*
X142870508Y-73381082D01*
X143003958Y-73381082D01*
X143137408Y-73381082D01*
X143137408Y-73447807D01*
X143138736Y-73476823D01*
X143153273Y-73507351D01*
X143193012Y-73514532D01*
X143217192Y-73512939D01*
X143242632Y-73495493D01*
X143248616Y-73447807D01*
X143250660Y-73412590D01*
X143268080Y-73386593D01*
X143315341Y-73381082D01*
X143349910Y-73383039D01*
X143376383Y-73400078D01*
X143382066Y-73446330D01*
X143380926Y-73471807D01*
X143365271Y-73505845D01*
X143320902Y-73518615D01*
X143292203Y-73523292D01*
X143273274Y-73535540D01*
X143262953Y-73564409D01*
X143258048Y-73619183D01*
X143255365Y-73709147D01*
X143250994Y-73892641D01*
X143316530Y-73892641D01*
X143343634Y-73891446D01*
X143374706Y-73877029D01*
X143382066Y-73837036D01*
X143760175Y-73837036D01*
X143760178Y-73838985D01*
X143763387Y-73868988D01*
X143779734Y-73885030D01*
X143819665Y-73891463D01*
X143893625Y-73892641D01*
X144027075Y-73892641D01*
X144027075Y-73959366D01*
X144025031Y-73994583D01*
X144007611Y-74020579D01*
X143960350Y-74026091D01*
X143893625Y-74026091D01*
X143893625Y-74215145D01*
X143893625Y-74404199D01*
X144015954Y-74404199D01*
X144077048Y-74403288D01*
X144118325Y-74397023D01*
X144135108Y-74380441D01*
X144138284Y-74348595D01*
X144138049Y-74338348D01*
X144125005Y-74302177D01*
X144082679Y-74292991D01*
X144058499Y-74291397D01*
X144033060Y-74273952D01*
X144027075Y-74226266D01*
X144149404Y-74226266D01*
X144149811Y-74238652D01*
X144164754Y-74274745D01*
X144210569Y-74288908D01*
X144246249Y-74290349D01*
X144267388Y-74274205D01*
X144271734Y-74226266D01*
X144269395Y-74185888D01*
X144253089Y-74163682D01*
X144210569Y-74163624D01*
X144196996Y-74165555D01*
X144159184Y-74183490D01*
X144149404Y-74226266D01*
X144027075Y-74226266D01*
X144028403Y-74197250D01*
X144042941Y-74166722D01*
X144082679Y-74159541D01*
X144109393Y-74157854D01*
X144125918Y-74146912D01*
X144134515Y-74117908D01*
X144137773Y-74062035D01*
X144138284Y-73970486D01*
X144137806Y-73882383D01*
X144134675Y-73825012D01*
X144126370Y-73794932D01*
X144110371Y-73783340D01*
X144084157Y-73781432D01*
X144073486Y-73781105D01*
X144037333Y-73766241D01*
X144022992Y-73720268D01*
X144021594Y-73710069D01*
X144002427Y-73667995D01*
X143954790Y-73652065D01*
X143920241Y-73650505D01*
X143898198Y-73666010D01*
X143893625Y-73713230D01*
X143891386Y-73750709D01*
X143873812Y-73776103D01*
X143826900Y-73781432D01*
X143797884Y-73782760D01*
X143767356Y-73797298D01*
X143760175Y-73837036D01*
X143382066Y-73837036D01*
X143382216Y-73830100D01*
X143390889Y-73799185D01*
X143418843Y-73782341D01*
X143474319Y-73777039D01*
X143565560Y-73780752D01*
X143598935Y-73780624D01*
X143621846Y-73764036D01*
X143626725Y-73716383D01*
X143625207Y-73684711D01*
X143610510Y-73654923D01*
X143571121Y-73647982D01*
X143546941Y-73646389D01*
X143521501Y-73628944D01*
X143515516Y-73581257D01*
X143515517Y-73580237D01*
X143517697Y-73542533D01*
X143531512Y-73522995D01*
X143567912Y-73515652D01*
X143637846Y-73514532D01*
X143639716Y-73514532D01*
X143708841Y-73513343D01*
X143744659Y-73505807D01*
X143758121Y-73485953D01*
X143760175Y-73447807D01*
X143760175Y-73381082D01*
X143920241Y-73381082D01*
X144205009Y-73381082D01*
X144649842Y-73381082D01*
X144649842Y-73447807D01*
X144648229Y-73479256D01*
X144632272Y-73508548D01*
X144588678Y-73516382D01*
X144475355Y-73519733D01*
X144387929Y-73522942D01*
X144331520Y-73527186D01*
X144299123Y-73534013D01*
X144283732Y-73544971D01*
X144278342Y-73561608D01*
X144275947Y-73585470D01*
X144275145Y-73591658D01*
X144256472Y-73635548D01*
X144209222Y-73652195D01*
X144198087Y-73653741D01*
X144159482Y-73671545D01*
X144149404Y-73714707D01*
X144149811Y-73727093D01*
X144164754Y-73763187D01*
X144210569Y-73777349D01*
X144241501Y-73782807D01*
X144262015Y-73798585D01*
X144270234Y-73835509D01*
X144271734Y-73905239D01*
X144272861Y-73974149D01*
X144280303Y-74010349D01*
X144300142Y-74023991D01*
X144338459Y-74026091D01*
X144405184Y-74026091D01*
X144405184Y-74161018D01*
X144405198Y-74182498D01*
X144406783Y-74247580D01*
X144414354Y-74280424D01*
X144432634Y-74290907D01*
X144466348Y-74288908D01*
X144476547Y-74287509D01*
X144518621Y-74268343D01*
X144534551Y-74220705D01*
X144535951Y-74210394D01*
X144553278Y-74170263D01*
X144594238Y-74159541D01*
X144603142Y-74159789D01*
X144639386Y-74174554D01*
X144653925Y-74220705D01*
X144655324Y-74230904D01*
X144674490Y-74272978D01*
X144722128Y-74288908D01*
X144731866Y-74289996D01*
X144755705Y-74289922D01*
X144761451Y-74289904D01*
X144776734Y-74274962D01*
X144782440Y-74235293D01*
X144783292Y-74161018D01*
X144783292Y-74026091D01*
X144905622Y-74026091D01*
X144966715Y-74025180D01*
X145007992Y-74018914D01*
X145024775Y-74002332D01*
X145027951Y-73970486D01*
X145025947Y-73942717D01*
X145012162Y-73923954D01*
X144975682Y-73916326D01*
X144905622Y-73914882D01*
X144844528Y-73915793D01*
X144803251Y-73922059D01*
X144786468Y-73938641D01*
X144783292Y-73970486D01*
X144781699Y-73994667D01*
X144764254Y-74020106D01*
X144716567Y-74026091D01*
X144687551Y-74024763D01*
X144657024Y-74010225D01*
X144649842Y-73970486D01*
X144649607Y-73960239D01*
X144636564Y-73924069D01*
X144594238Y-73914882D01*
X144583991Y-73915117D01*
X144547820Y-73928160D01*
X144538634Y-73970486D01*
X144537040Y-73994667D01*
X144519595Y-74020106D01*
X144471909Y-74026091D01*
X144405184Y-74026091D01*
X144338459Y-74026091D01*
X144373676Y-74024047D01*
X144399672Y-74006627D01*
X144405184Y-73959366D01*
X144407228Y-73924148D01*
X144424647Y-73898152D01*
X144471909Y-73892641D01*
X144500925Y-73891313D01*
X144531452Y-73876775D01*
X144538634Y-73837036D01*
X144537040Y-73812856D01*
X144519595Y-73787417D01*
X144471909Y-73781432D01*
X144436692Y-73779388D01*
X144410695Y-73761968D01*
X144405184Y-73714707D01*
X144407226Y-73676660D01*
X144420705Y-73656673D01*
X144456637Y-73649141D01*
X144526036Y-73647982D01*
X144587264Y-73648943D01*
X144628578Y-73655734D01*
X144646911Y-73673943D01*
X144653925Y-73709147D01*
X144655324Y-73719346D01*
X144674490Y-73761419D01*
X144722128Y-73777349D01*
X144756676Y-73778909D01*
X144778720Y-73763404D01*
X144783292Y-73716184D01*
X144785531Y-73678706D01*
X144803105Y-73653311D01*
X144850017Y-73647982D01*
X144885234Y-73645938D01*
X144905622Y-73632276D01*
X144911231Y-73628518D01*
X144916742Y-73581257D01*
X144918786Y-73546040D01*
X144936206Y-73520043D01*
X144983467Y-73514532D01*
X145018685Y-73516576D01*
X145044681Y-73533996D01*
X145050192Y-73581257D01*
X145048148Y-73616474D01*
X145030729Y-73642471D01*
X144983467Y-73647982D01*
X144948250Y-73650026D01*
X144922254Y-73667446D01*
X144916742Y-73714707D01*
X144918786Y-73749924D01*
X144936206Y-73775921D01*
X144983467Y-73781432D01*
X145012483Y-73782760D01*
X145043011Y-73797298D01*
X145050192Y-73837036D01*
X145050427Y-73847283D01*
X145063470Y-73883454D01*
X145105797Y-73892641D01*
X145132510Y-73890954D01*
X145149035Y-73880012D01*
X145157632Y-73851008D01*
X145160890Y-73795135D01*
X145161401Y-73703586D01*
X145161401Y-73514532D01*
X145228126Y-73514532D01*
X145263343Y-73512488D01*
X145289340Y-73495068D01*
X145294851Y-73447807D01*
X145296895Y-73412590D01*
X145314315Y-73386593D01*
X145361576Y-73381082D01*
X145396793Y-73383126D01*
X145422790Y-73400546D01*
X145428301Y-73447807D01*
X145426257Y-73483024D01*
X145408837Y-73509021D01*
X145361576Y-73514532D01*
X145294851Y-73514532D01*
X145294851Y-73647982D01*
X145294851Y-73781432D01*
X145361576Y-73781432D01*
X145362596Y-73781432D01*
X145400300Y-73783612D01*
X145419838Y-73797428D01*
X145427181Y-73833828D01*
X145428301Y-73903761D01*
X145428301Y-74026091D01*
X145300411Y-74028447D01*
X145247953Y-74029035D01*
X145168279Y-74028632D01*
X145111357Y-74026771D01*
X145077983Y-74026899D01*
X145055071Y-74043487D01*
X145050192Y-74091139D01*
X145051711Y-74122812D01*
X145066407Y-74152600D01*
X145105797Y-74159541D01*
X145129977Y-74161134D01*
X145155416Y-74178579D01*
X145161401Y-74226266D01*
X145159357Y-74261483D01*
X145141937Y-74287480D01*
X145094676Y-74292991D01*
X145059459Y-74290947D01*
X145033462Y-74273527D01*
X145027951Y-74226266D01*
X145026623Y-74197250D01*
X145012085Y-74166722D01*
X144972347Y-74159541D01*
X144944577Y-74161545D01*
X144925815Y-74175330D01*
X144918186Y-74211809D01*
X144916742Y-74281870D01*
X144916742Y-74404199D01*
X144919067Y-74404199D01*
X144972347Y-74404199D01*
X145105797Y-74404199D01*
X145294851Y-74404199D01*
X145294851Y-74281870D01*
X145294851Y-74279999D01*
X145296040Y-74210875D01*
X145303576Y-74175057D01*
X145323430Y-74161595D01*
X145361576Y-74159541D01*
X145362596Y-74159541D01*
X145400300Y-74161721D01*
X145419838Y-74175536D01*
X145425924Y-74205705D01*
X145427181Y-74211936D01*
X145428301Y-74281870D01*
X145428301Y-74283741D01*
X145429490Y-74352865D01*
X145437026Y-74388683D01*
X145456880Y-74402145D01*
X145495026Y-74404199D01*
X145530243Y-74406243D01*
X145556240Y-74423663D01*
X145561751Y-74470924D01*
X145562972Y-74498813D01*
X145577120Y-74530160D01*
X145615878Y-74537649D01*
X145626548Y-74537977D01*
X145662702Y-74552841D01*
X145677043Y-74598814D01*
X145678441Y-74609013D01*
X145697607Y-74651086D01*
X145745245Y-74667016D01*
X145754983Y-74668105D01*
X145784568Y-74668013D01*
X145799852Y-74653071D01*
X145805558Y-74613402D01*
X145806410Y-74539127D01*
X145806410Y-74404199D01*
X145995464Y-74404199D01*
X146184518Y-74404199D01*
X146184518Y-74470924D01*
X146186562Y-74506141D01*
X146203982Y-74532138D01*
X146251243Y-74537649D01*
X146286460Y-74539693D01*
X146312457Y-74557113D01*
X146317968Y-74604374D01*
X146315680Y-74641041D01*
X146297717Y-74665886D01*
X146249766Y-74671099D01*
X146211491Y-74673266D01*
X146188773Y-74689445D01*
X146188601Y-74732264D01*
X146190000Y-74742463D01*
X146209166Y-74784537D01*
X146245494Y-74796684D01*
X146256804Y-74800466D01*
X146268819Y-74802139D01*
X146307741Y-74819771D01*
X146317968Y-74861631D01*
X146319473Y-74884254D01*
X146336914Y-74909682D01*
X146384693Y-74915758D01*
X146451418Y-74915758D01*
X146451418Y-75049208D01*
X146451418Y-75182658D01*
X146384693Y-75182658D01*
X146383673Y-75182658D01*
X146345969Y-75184838D01*
X146326431Y-75198654D01*
X146319089Y-75235054D01*
X146317968Y-75304987D01*
X146317968Y-75306858D01*
X146319157Y-75375982D01*
X146326693Y-75411801D01*
X146346548Y-75425262D01*
X146384693Y-75427317D01*
X146451418Y-75427317D01*
X146451418Y-75560767D01*
X146451418Y-75694217D01*
X146317968Y-75694217D01*
X146184518Y-75694217D01*
X146184518Y-75760942D01*
X146182474Y-75796159D01*
X146165054Y-75822156D01*
X146117793Y-75827667D01*
X146088777Y-75828995D01*
X146058250Y-75843532D01*
X146051068Y-75883271D01*
X146050833Y-75893518D01*
X146037790Y-75929689D01*
X145995464Y-75938875D01*
X145993515Y-75938878D01*
X145963512Y-75942087D01*
X145947471Y-75958435D01*
X145941037Y-75998366D01*
X145939860Y-76072325D01*
X145939861Y-76077003D01*
X145941198Y-76149009D01*
X145948009Y-76187509D01*
X145964647Y-76202950D01*
X145995464Y-76205775D01*
X146019644Y-76204182D01*
X146045084Y-76186737D01*
X146051068Y-76139050D01*
X146053112Y-76103833D01*
X146070532Y-76077837D01*
X146117793Y-76072325D01*
X146153010Y-76074369D01*
X146179007Y-76091789D01*
X146184518Y-76139050D01*
X146182474Y-76174268D01*
X146165054Y-76200264D01*
X146117793Y-76205775D01*
X146088777Y-76207103D01*
X146058250Y-76221641D01*
X146051068Y-76261380D01*
X146052662Y-76285560D01*
X146070107Y-76310999D01*
X146117793Y-76316984D01*
X146152362Y-76318941D01*
X146178834Y-76335980D01*
X146184518Y-76382232D01*
X146183378Y-76407709D01*
X146167722Y-76441747D01*
X146123354Y-76454517D01*
X146113155Y-76455915D01*
X146071081Y-76475082D01*
X146055151Y-76522719D01*
X146053479Y-76534735D01*
X146035847Y-76573656D01*
X145993987Y-76583884D01*
X145971363Y-76585389D01*
X145945935Y-76602830D01*
X145939860Y-76650609D01*
X145941188Y-76679625D01*
X145955725Y-76710153D01*
X145995464Y-76717334D01*
X146005711Y-76717569D01*
X146041882Y-76730612D01*
X146051068Y-76772938D01*
X146051071Y-76774887D01*
X146054280Y-76804890D01*
X146070628Y-76820932D01*
X146110558Y-76827365D01*
X146184518Y-76828543D01*
X146317968Y-76828543D01*
X146317968Y-76895268D01*
X146320012Y-76930485D01*
X146337432Y-76956481D01*
X146384693Y-76961993D01*
X146419911Y-76964037D01*
X146445907Y-76981456D01*
X146451418Y-77028718D01*
X146451418Y-77095443D01*
X146316491Y-77095443D01*
X146295011Y-77095457D01*
X146229929Y-77097042D01*
X146197085Y-77104613D01*
X146186602Y-77122893D01*
X146188601Y-77156607D01*
X146190000Y-77166806D01*
X146209166Y-77208880D01*
X146256804Y-77224810D01*
X146268819Y-77226482D01*
X146307741Y-77244114D01*
X146317968Y-77285974D01*
X146319473Y-77308598D01*
X146336914Y-77334025D01*
X146384693Y-77340101D01*
X146451418Y-77340101D01*
X146451418Y-77662606D01*
X146451418Y-77985110D01*
X146384693Y-77985110D01*
X146349476Y-77987154D01*
X146323479Y-78004574D01*
X146317968Y-78051835D01*
X146320012Y-78087052D01*
X146337432Y-78113049D01*
X146384693Y-78118560D01*
X146385714Y-78118560D01*
X146423418Y-78120740D01*
X146442955Y-78134556D01*
X146450298Y-78170956D01*
X146451418Y-78240889D01*
X146451418Y-78242760D01*
X146450229Y-78311884D01*
X146442693Y-78347703D01*
X146422839Y-78361164D01*
X146384693Y-78363219D01*
X146349476Y-78365263D01*
X146323479Y-78382682D01*
X146317968Y-78429944D01*
X146320012Y-78465161D01*
X146337432Y-78491157D01*
X146384693Y-78496669D01*
X146385714Y-78496669D01*
X146423418Y-78498849D01*
X146442955Y-78512664D01*
X146450298Y-78549064D01*
X146451418Y-78618998D01*
X146451418Y-78620869D01*
X146450229Y-78689993D01*
X146442693Y-78725811D01*
X146422839Y-78739273D01*
X146384693Y-78741327D01*
X146349476Y-78743371D01*
X146323479Y-78760791D01*
X146317968Y-78808052D01*
X146320012Y-78843269D01*
X146337432Y-78869266D01*
X146384693Y-78874777D01*
X146419911Y-78876821D01*
X146445907Y-78894241D01*
X146451418Y-78941502D01*
X146449374Y-78976719D01*
X146431955Y-79002716D01*
X146384693Y-79008227D01*
X146348378Y-79006000D01*
X146323254Y-78988172D01*
X146317968Y-78940392D01*
X146317968Y-78872557D01*
X146190079Y-78879228D01*
X146122204Y-78883963D01*
X146080824Y-78893258D01*
X146062237Y-78912399D01*
X146055151Y-78947063D01*
X146053479Y-78959078D01*
X146035847Y-78998000D01*
X145993987Y-79008227D01*
X145971363Y-79009732D01*
X145945935Y-79027173D01*
X145939860Y-79074952D01*
X145937816Y-79110170D01*
X145920396Y-79136166D01*
X145873135Y-79141677D01*
X145838566Y-79139720D01*
X145812093Y-79122681D01*
X145806410Y-79076430D01*
X145807550Y-79050952D01*
X145823205Y-79016915D01*
X145867574Y-79004144D01*
X145896254Y-78999470D01*
X145915198Y-78987221D01*
X145925541Y-78958351D01*
X145930482Y-78903576D01*
X145933220Y-78813613D01*
X145937701Y-78630119D01*
X145872055Y-78630119D01*
X145871774Y-78630119D01*
X145834365Y-78632293D01*
X145814918Y-78646108D01*
X145807558Y-78682511D01*
X145806410Y-78752448D01*
X145806410Y-78754319D01*
X145805220Y-78823443D01*
X145797685Y-78859261D01*
X145777830Y-78872723D01*
X145739685Y-78874777D01*
X145704467Y-78876821D01*
X145678471Y-78894241D01*
X145672960Y-78941502D01*
X145671632Y-78970518D01*
X145657094Y-79001046D01*
X145617355Y-79008227D01*
X145593175Y-79009821D01*
X145567736Y-79027266D01*
X145561751Y-79074952D01*
X145561751Y-79141677D01*
X145428301Y-79141677D01*
X145294851Y-79141677D01*
X145294851Y-79074952D01*
X145294851Y-79073932D01*
X145292671Y-79036228D01*
X145278855Y-79016690D01*
X145252653Y-79011405D01*
X145292536Y-79011405D01*
X145354858Y-79004256D01*
X145367339Y-79002501D01*
X145408630Y-78983193D01*
X145424218Y-78935942D01*
X145429676Y-78905009D01*
X145445454Y-78884495D01*
X145482377Y-78876277D01*
X145552108Y-78874777D01*
X145672960Y-78874777D01*
X145672960Y-78752448D01*
X145672049Y-78691354D01*
X145665783Y-78650078D01*
X145649201Y-78633294D01*
X145617355Y-78630119D01*
X145607108Y-78630354D01*
X145570937Y-78643397D01*
X145561751Y-78685723D01*
X145559331Y-78713724D01*
X145539824Y-78736774D01*
X145489466Y-78743519D01*
X145456363Y-78744458D01*
X145378705Y-78747625D01*
X145333325Y-78756291D01*
X145311062Y-78777121D01*
X145302758Y-78816778D01*
X145299254Y-78881927D01*
X145292536Y-79011405D01*
X145252653Y-79011405D01*
X145242455Y-79009348D01*
X145172522Y-79008227D01*
X145170651Y-79008227D01*
X145101527Y-79009416D01*
X145065708Y-79016952D01*
X145052247Y-79036807D01*
X145050192Y-79074952D01*
X145048148Y-79110170D01*
X145030729Y-79136166D01*
X144983467Y-79141677D01*
X144948250Y-79139633D01*
X144922254Y-79122214D01*
X144916742Y-79074952D01*
X144918070Y-79045936D01*
X144932608Y-79015409D01*
X144972347Y-79008227D01*
X144997382Y-79006488D01*
X145022153Y-78988703D01*
X145027951Y-78940603D01*
X145027951Y-78872978D01*
X144844457Y-78879438D01*
X144764982Y-78882643D01*
X144706081Y-78887773D01*
X144675063Y-78897280D01*
X144663000Y-78914183D01*
X144660963Y-78941502D01*
X144661369Y-78953888D01*
X144676312Y-78989982D01*
X144722128Y-79004144D01*
X144745888Y-79008094D01*
X144776107Y-79028272D01*
X144783292Y-79076430D01*
X144781291Y-79110233D01*
X144763866Y-79136119D01*
X144716567Y-79141677D01*
X144681350Y-79139633D01*
X144655353Y-79122214D01*
X144649842Y-79074952D01*
X144648514Y-79045936D01*
X144633977Y-79015409D01*
X144594238Y-79008227D01*
X144570058Y-79009821D01*
X144544618Y-79027266D01*
X144538634Y-79074952D01*
X144538634Y-79141677D01*
X144405184Y-79141677D01*
X144271734Y-79141677D01*
X144271734Y-79074952D01*
X144271733Y-79073932D01*
X144269553Y-79036228D01*
X144255738Y-79016690D01*
X144219338Y-79009348D01*
X144149404Y-79008227D01*
X144147534Y-79008227D01*
X144078409Y-79009416D01*
X144042591Y-79016952D01*
X144029129Y-79036807D01*
X144027075Y-79074952D01*
X144027075Y-79141677D01*
X143893625Y-79141677D01*
X143760175Y-79141677D01*
X143760175Y-79074952D01*
X143760175Y-79073932D01*
X143757995Y-79036228D01*
X143744179Y-79016690D01*
X143707779Y-79009348D01*
X143637846Y-79008227D01*
X143635975Y-79008227D01*
X143566851Y-79009416D01*
X143531032Y-79016952D01*
X143517571Y-79036807D01*
X143515516Y-79074952D01*
X143513472Y-79110170D01*
X143496053Y-79136166D01*
X143448791Y-79141677D01*
X143413574Y-79139633D01*
X143387578Y-79122214D01*
X143382066Y-79074952D01*
X143382066Y-79008227D01*
X143193012Y-79008227D01*
X143003958Y-79008227D01*
X143003958Y-79074952D01*
X143003958Y-79141677D01*
X142870508Y-79141677D01*
X142737058Y-79141677D01*
X142737058Y-79008227D01*
X142737056Y-79003550D01*
X142735719Y-78931544D01*
X142728908Y-78893043D01*
X142712270Y-78877603D01*
X142681453Y-78874777D01*
X142657273Y-78876371D01*
X142631834Y-78893816D01*
X142625849Y-78941502D01*
X142623805Y-78976719D01*
X142606385Y-79002716D01*
X142559124Y-79008227D01*
X142523907Y-79010271D01*
X142497910Y-79027691D01*
X142492399Y-79074952D01*
X142492399Y-79141677D01*
X142358949Y-79141677D01*
X142225499Y-79141677D01*
X142225499Y-79074952D01*
X142225499Y-79073932D01*
X142223319Y-79036228D01*
X142209503Y-79016690D01*
X142173103Y-79009348D01*
X142103170Y-79008227D01*
X142101299Y-79008227D01*
X142032175Y-79009416D01*
X141996356Y-79016952D01*
X141982895Y-79036807D01*
X141980840Y-79074952D01*
X141980840Y-79141677D01*
X141847390Y-79141677D01*
X141713940Y-79141677D01*
X141713940Y-78941502D01*
X141713940Y-78752448D01*
X141858511Y-78752448D01*
X141858511Y-78874777D01*
X141859532Y-78938186D01*
X141866411Y-78979080D01*
X141884633Y-78997204D01*
X141919676Y-79004144D01*
X141954225Y-79005704D01*
X141976268Y-78990199D01*
X141980840Y-78942980D01*
X141983079Y-78905501D01*
X142000653Y-78880106D01*
X142047565Y-78874777D01*
X142077082Y-78873400D01*
X142107246Y-78858679D01*
X142114291Y-78818475D01*
X142109890Y-78781700D01*
X142088483Y-78756464D01*
X142041034Y-78746391D01*
X141958599Y-78747401D01*
X141858511Y-78752448D01*
X141713940Y-78752448D01*
X141713940Y-78741327D01*
X141780665Y-78741327D01*
X141809681Y-78739999D01*
X141840209Y-78725462D01*
X141847390Y-78685723D01*
X141848072Y-78669230D01*
X141863279Y-78637363D01*
X141908555Y-78628075D01*
X141963878Y-78626376D01*
X142036885Y-78622833D01*
X142041034Y-78621946D01*
X142078745Y-78613880D01*
X142098030Y-78593727D01*
X142103314Y-78556586D01*
X142103170Y-78496669D01*
X142102149Y-78433259D01*
X142095270Y-78392366D01*
X142077047Y-78374242D01*
X142042005Y-78367302D01*
X142029990Y-78365629D01*
X141991068Y-78347997D01*
X141980840Y-78306137D01*
X141979335Y-78283514D01*
X141961895Y-78258086D01*
X141914115Y-78252010D01*
X141913095Y-78252010D01*
X141875391Y-78254190D01*
X141855854Y-78268006D01*
X141848511Y-78304406D01*
X141847390Y-78374339D01*
X141847390Y-78376210D01*
X141846201Y-78445334D01*
X141838665Y-78481153D01*
X141818811Y-78494614D01*
X141780665Y-78496669D01*
X141713940Y-78496669D01*
X141713940Y-78307614D01*
X141713940Y-78240889D01*
X142114291Y-78240889D01*
X142115201Y-78301983D01*
X142121467Y-78343260D01*
X142138049Y-78360043D01*
X142169895Y-78363219D01*
X142188658Y-78363297D01*
X142206694Y-78367162D01*
X142218498Y-78381548D01*
X142225328Y-78413250D01*
X142228439Y-78469058D01*
X142229089Y-78555764D01*
X142228534Y-78680162D01*
X142227546Y-78874777D01*
X142293247Y-78874777D01*
X142327486Y-78876792D01*
X142353406Y-78894216D01*
X142358949Y-78941502D01*
X142360993Y-78976719D01*
X142378413Y-79002716D01*
X142425674Y-79008227D01*
X142492399Y-79008227D01*
X142492399Y-78874777D01*
X142492400Y-78870100D01*
X142492807Y-78848161D01*
X142739581Y-78848161D01*
X142755086Y-78870205D01*
X142802305Y-78874777D01*
X142839784Y-78877016D01*
X142865179Y-78894590D01*
X142870508Y-78941502D01*
X142872552Y-78976719D01*
X142889971Y-79002716D01*
X142937233Y-79008227D01*
X142972450Y-79006183D01*
X142998447Y-78988764D01*
X143003958Y-78941502D01*
X143005286Y-78912486D01*
X143019823Y-78881959D01*
X143059562Y-78874777D01*
X143083742Y-78873184D01*
X143109182Y-78855739D01*
X143115166Y-78808052D01*
X143117210Y-78772835D01*
X143134630Y-78746838D01*
X143181891Y-78741327D01*
X143217108Y-78743371D01*
X143243105Y-78760791D01*
X143248616Y-78808052D01*
X143250660Y-78843269D01*
X143268080Y-78869266D01*
X143315341Y-78874777D01*
X143350558Y-78876821D01*
X143376555Y-78894241D01*
X143382066Y-78941502D01*
X143384017Y-78976020D01*
X143401028Y-79002530D01*
X143447203Y-79008227D01*
X143483433Y-79006253D01*
X143503480Y-78992921D01*
X143511121Y-78957189D01*
X143512339Y-78888016D01*
X143512326Y-78877776D01*
X143509880Y-78803266D01*
X143499522Y-78762272D01*
X143475975Y-78744917D01*
X143433964Y-78741327D01*
X143427474Y-78741211D01*
X143391545Y-78728346D01*
X143382066Y-78685723D01*
X143515516Y-78685723D01*
X143515751Y-78695970D01*
X143528794Y-78732141D01*
X143571121Y-78741327D01*
X143581368Y-78741092D01*
X143617538Y-78728049D01*
X143626725Y-78685723D01*
X143626490Y-78675476D01*
X143613447Y-78639305D01*
X143571121Y-78630119D01*
X143560874Y-78630354D01*
X143524703Y-78643397D01*
X143515516Y-78685723D01*
X143382066Y-78685723D01*
X143382063Y-78683774D01*
X143378854Y-78653771D01*
X143362507Y-78637730D01*
X143322576Y-78631296D01*
X143248616Y-78630119D01*
X143115166Y-78630119D01*
X143115166Y-78563394D01*
X143113838Y-78534378D01*
X143099301Y-78503850D01*
X143059562Y-78496669D01*
X143035382Y-78498262D01*
X143009942Y-78515707D01*
X143003958Y-78563394D01*
X143001914Y-78598611D01*
X142984494Y-78624607D01*
X142937233Y-78630119D01*
X142902016Y-78628075D01*
X142876019Y-78610655D01*
X142870508Y-78563394D01*
X142868219Y-78526727D01*
X142850256Y-78501882D01*
X142802305Y-78496669D01*
X142764030Y-78498835D01*
X142741312Y-78515014D01*
X142741141Y-78557833D01*
X142742539Y-78568032D01*
X142761705Y-78610106D01*
X142809343Y-78626036D01*
X142821358Y-78627708D01*
X142860280Y-78645340D01*
X142870508Y-78687200D01*
X142872013Y-78709824D01*
X142889453Y-78735251D01*
X142937233Y-78741327D01*
X142972450Y-78743371D01*
X142998447Y-78760791D01*
X143003958Y-78808052D01*
X143002001Y-78842621D01*
X142984961Y-78869093D01*
X142938710Y-78874777D01*
X142913232Y-78873637D01*
X142879195Y-78857981D01*
X142866425Y-78813613D01*
X142864493Y-78800040D01*
X142846558Y-78762228D01*
X142803783Y-78752448D01*
X142791397Y-78752854D01*
X142755303Y-78767797D01*
X142741141Y-78813613D01*
X142739581Y-78848161D01*
X142492807Y-78848161D01*
X142493737Y-78798094D01*
X142500549Y-78759593D01*
X142517187Y-78744153D01*
X142548003Y-78741327D01*
X142558250Y-78741092D01*
X142594421Y-78728049D01*
X142603607Y-78685723D01*
X142603373Y-78675476D01*
X142590329Y-78639305D01*
X142548003Y-78630119D01*
X142521290Y-78628432D01*
X142504765Y-78617490D01*
X142496168Y-78588486D01*
X142492910Y-78532613D01*
X142492399Y-78441064D01*
X142492399Y-78307614D01*
X142870508Y-78307614D01*
X142872101Y-78331794D01*
X142889546Y-78357234D01*
X142937233Y-78363219D01*
X142966249Y-78361891D01*
X142996776Y-78347353D01*
X143003958Y-78307614D01*
X143002364Y-78283434D01*
X142984919Y-78257995D01*
X142937233Y-78252010D01*
X142908217Y-78253338D01*
X142877689Y-78267876D01*
X142870508Y-78307614D01*
X142492399Y-78307614D01*
X142492399Y-78252010D01*
X142425674Y-78252010D01*
X142390457Y-78249966D01*
X142364460Y-78232546D01*
X142358949Y-78185285D01*
X142358949Y-78184265D01*
X142356769Y-78146561D01*
X142342953Y-78127023D01*
X142306553Y-78119680D01*
X142236620Y-78118560D01*
X142114291Y-78118560D01*
X142114291Y-78240889D01*
X141713940Y-78240889D01*
X141713940Y-78118560D01*
X141591611Y-78118560D01*
X141589740Y-78118560D01*
X141520616Y-78117371D01*
X141484798Y-78109835D01*
X141471336Y-78089981D01*
X141469282Y-78051835D01*
X141736182Y-78051835D01*
X141737510Y-78080851D01*
X141752047Y-78111379D01*
X141791786Y-78118560D01*
X141815966Y-78116967D01*
X141841406Y-78099521D01*
X141847390Y-78051835D01*
X142625849Y-78051835D01*
X142627177Y-78080851D01*
X142641715Y-78111379D01*
X142681453Y-78118560D01*
X142705633Y-78116967D01*
X142731073Y-78099521D01*
X142737058Y-78051835D01*
X142735730Y-78022819D01*
X142721192Y-77992291D01*
X142681453Y-77985110D01*
X142657273Y-77986703D01*
X142631834Y-78004148D01*
X142625849Y-78051835D01*
X141847390Y-78051835D01*
X141846062Y-78022819D01*
X141831525Y-77992291D01*
X141791786Y-77985110D01*
X141767606Y-77986703D01*
X141742166Y-78004148D01*
X141736182Y-78051835D01*
X141469282Y-78051835D01*
X141469282Y-78050815D01*
X141471462Y-78013110D01*
X141485277Y-77993573D01*
X141521677Y-77986230D01*
X141591611Y-77985110D01*
X141595461Y-77985110D01*
X141663722Y-77983888D01*
X141698921Y-77976163D01*
X141712011Y-77955811D01*
X141713940Y-77916709D01*
X141711858Y-77879523D01*
X141695674Y-77854968D01*
X141652776Y-77852340D01*
X141634137Y-77853513D01*
X141549649Y-77855852D01*
X141499505Y-77848741D01*
X141475464Y-77829652D01*
X141469282Y-77796056D01*
X141847390Y-77796056D01*
X141848984Y-77820236D01*
X141866429Y-77845675D01*
X141914115Y-77851660D01*
X141943131Y-77850332D01*
X141973659Y-77835794D01*
X141980840Y-77796056D01*
X141979247Y-77771876D01*
X141961802Y-77746436D01*
X141914115Y-77740451D01*
X141885099Y-77741779D01*
X141854572Y-77756317D01*
X141847390Y-77796056D01*
X141469282Y-77796056D01*
X141467414Y-77770308D01*
X141449335Y-77746094D01*
X141400880Y-77740451D01*
X141363694Y-77742533D01*
X141339139Y-77758718D01*
X141336512Y-77801616D01*
X141337852Y-77833946D01*
X141338810Y-77907820D01*
X141338188Y-77990670D01*
X141335832Y-78118560D01*
X141213502Y-78118560D01*
X141211632Y-78118560D01*
X141142508Y-78117371D01*
X141106689Y-78109835D01*
X141093227Y-78089981D01*
X141091173Y-78051835D01*
X141091173Y-77985110D01*
X140957723Y-77985110D01*
X140824273Y-77985110D01*
X140824273Y-78051835D01*
X140822229Y-78087052D01*
X140804809Y-78113049D01*
X140757548Y-78118560D01*
X140722331Y-78116516D01*
X140696334Y-78099096D01*
X140690823Y-78051835D01*
X140692867Y-78016618D01*
X140710287Y-77990621D01*
X140757548Y-77985110D01*
X140792765Y-77983066D01*
X140818762Y-77965646D01*
X140824273Y-77918385D01*
X140824273Y-77851660D01*
X141013327Y-77851660D01*
X141202382Y-77851660D01*
X141202382Y-77784935D01*
X141204426Y-77749718D01*
X141221845Y-77723721D01*
X141269107Y-77718210D01*
X141298123Y-77716882D01*
X141328650Y-77702344D01*
X141335832Y-77662606D01*
X141469282Y-77662606D01*
X141470969Y-77689319D01*
X141481910Y-77705844D01*
X141510914Y-77714441D01*
X141566787Y-77717699D01*
X141658336Y-77718210D01*
X141749161Y-77717714D01*
X141791786Y-77715272D01*
X141805347Y-77714495D01*
X141834576Y-77705965D01*
X141845655Y-77689532D01*
X141847390Y-77662606D01*
X141847393Y-77660657D01*
X141850602Y-77630654D01*
X141866950Y-77614612D01*
X141906881Y-77608179D01*
X141914115Y-77608064D01*
X141980840Y-77607001D01*
X142114291Y-77607001D01*
X142114291Y-77729331D01*
X142115154Y-77788653D01*
X142121248Y-77830900D01*
X142137400Y-77848281D01*
X142168417Y-77851660D01*
X142179088Y-77851987D01*
X142215241Y-77866851D01*
X142229582Y-77912824D01*
X142235823Y-77945351D01*
X142253069Y-77965530D01*
X142292200Y-77975407D01*
X142364509Y-77980659D01*
X142492399Y-77987330D01*
X142492399Y-77797166D01*
X142492399Y-77796381D01*
X142492712Y-77740451D01*
X142625849Y-77740451D01*
X142625849Y-77796056D01*
X142625849Y-77851660D01*
X142681453Y-77851660D01*
X142937233Y-77851660D01*
X143248616Y-77851660D01*
X143248616Y-77729331D01*
X143247705Y-77668237D01*
X143241440Y-77626960D01*
X143224858Y-77610177D01*
X143193012Y-77607001D01*
X143168832Y-77608595D01*
X143143392Y-77626040D01*
X143137408Y-77673726D01*
X143137408Y-77740451D01*
X142881629Y-77740451D01*
X142625849Y-77740451D01*
X142492712Y-77740451D01*
X142492912Y-77704787D01*
X142496162Y-77648834D01*
X142504715Y-77619739D01*
X142521139Y-77608722D01*
X142548003Y-77607001D01*
X142572183Y-77605408D01*
X142597623Y-77587963D01*
X142603607Y-77540276D01*
X142602386Y-77512387D01*
X142588239Y-77481041D01*
X142549481Y-77473551D01*
X142538810Y-77473224D01*
X142502657Y-77458360D01*
X142488316Y-77412387D01*
X142487317Y-77406826D01*
X142625849Y-77406826D01*
X142627070Y-77434715D01*
X142641218Y-77466061D01*
X142679976Y-77473551D01*
X142690646Y-77473879D01*
X142726800Y-77488743D01*
X142741141Y-77534716D01*
X142746823Y-77566362D01*
X142762889Y-77586413D01*
X142800256Y-77594426D01*
X142870508Y-77595881D01*
X142933917Y-77594860D01*
X142974810Y-77587980D01*
X142992934Y-77569758D01*
X142999875Y-77534716D01*
X143001547Y-77522701D01*
X143019179Y-77483779D01*
X143061039Y-77473551D01*
X143083663Y-77472046D01*
X143109090Y-77454605D01*
X143115166Y-77406826D01*
X143113838Y-77377810D01*
X143099301Y-77347283D01*
X143059562Y-77340101D01*
X143035382Y-77341695D01*
X143009942Y-77359140D01*
X143003958Y-77406826D01*
X143003958Y-77473551D01*
X142870508Y-77473551D01*
X142737058Y-77473551D01*
X142737058Y-77406826D01*
X142735730Y-77377810D01*
X142721192Y-77347283D01*
X142681453Y-77340101D01*
X142657273Y-77341695D01*
X142631834Y-77359140D01*
X142625849Y-77406826D01*
X142487317Y-77406826D01*
X142482633Y-77380741D01*
X142466568Y-77360690D01*
X142429201Y-77352676D01*
X142358949Y-77351222D01*
X142295540Y-77352243D01*
X142254647Y-77359122D01*
X142236522Y-77377344D01*
X142229582Y-77412387D01*
X142227910Y-77424402D01*
X142210278Y-77463324D01*
X142168417Y-77473551D01*
X142162985Y-77473453D01*
X142132181Y-77464977D01*
X142115311Y-77437035D01*
X142109935Y-77381454D01*
X142113610Y-77290057D01*
X142113483Y-77256683D01*
X142096894Y-77233771D01*
X142049242Y-77228893D01*
X142047089Y-77228893D01*
X142008920Y-77231078D01*
X141989238Y-77244894D01*
X141981919Y-77281292D01*
X141980840Y-77351222D01*
X141980840Y-77473551D01*
X141858511Y-77473551D01*
X141856640Y-77473551D01*
X141787516Y-77474740D01*
X141751698Y-77482276D01*
X141738236Y-77502131D01*
X141736182Y-77540276D01*
X141736182Y-77607001D01*
X141602732Y-77607001D01*
X141598054Y-77607003D01*
X141526048Y-77608340D01*
X141487548Y-77615151D01*
X141472107Y-77631789D01*
X141469282Y-77662606D01*
X141335832Y-77662606D01*
X141333828Y-77634836D01*
X141320043Y-77616074D01*
X141283563Y-77608445D01*
X141213502Y-77607001D01*
X141211632Y-77607001D01*
X141142508Y-77608190D01*
X141106689Y-77615726D01*
X141093227Y-77635581D01*
X141091173Y-77673726D01*
X141089129Y-77708944D01*
X141071709Y-77734940D01*
X141024448Y-77740451D01*
X140989879Y-77738495D01*
X140963407Y-77721455D01*
X140957723Y-77675204D01*
X140958863Y-77649726D01*
X140974519Y-77615689D01*
X141018888Y-77602918D01*
X141051414Y-77596677D01*
X141071593Y-77579432D01*
X141081470Y-77540300D01*
X141086723Y-77467991D01*
X141091099Y-77403840D01*
X141099720Y-77361356D01*
X141116958Y-77343647D01*
X141147887Y-77340101D01*
X141157033Y-77339902D01*
X141193117Y-77326903D01*
X141202382Y-77284497D01*
X141202147Y-77274250D01*
X141189104Y-77238079D01*
X141146777Y-77228893D01*
X141122597Y-77227299D01*
X141097158Y-77209854D01*
X141091173Y-77162168D01*
X141089129Y-77126951D01*
X141071709Y-77100954D01*
X141024448Y-77095443D01*
X140989231Y-77093399D01*
X140963234Y-77075979D01*
X140957723Y-77028718D01*
X140957723Y-76961993D01*
X140824273Y-76961993D01*
X140690823Y-76961993D01*
X140690823Y-76895268D01*
X140692867Y-76860050D01*
X140710287Y-76834054D01*
X140757548Y-76828543D01*
X140758568Y-76828542D01*
X140796272Y-76826362D01*
X140815810Y-76812547D01*
X140823153Y-76776147D01*
X140824095Y-76717334D01*
X140957723Y-76717334D01*
X140957723Y-76839663D01*
X140957723Y-76841534D01*
X140958912Y-76910658D01*
X140966448Y-76946477D01*
X140986303Y-76959938D01*
X141024448Y-76961993D01*
X141059665Y-76964037D01*
X141085662Y-76981456D01*
X141091173Y-77028718D01*
X141093120Y-77066269D01*
X141106362Y-77086584D01*
X141141960Y-77094255D01*
X141210978Y-77095443D01*
X141270112Y-77096353D01*
X141312155Y-77103074D01*
X141331134Y-77121275D01*
X141338868Y-77156607D01*
X141341921Y-77182828D01*
X141342273Y-77271577D01*
X141321441Y-77323314D01*
X141278750Y-77340101D01*
X141256127Y-77341606D01*
X141230699Y-77359047D01*
X141224623Y-77406826D01*
X141225951Y-77435842D01*
X141240489Y-77466370D01*
X141280227Y-77473551D01*
X141304408Y-77471958D01*
X141329847Y-77454513D01*
X141335832Y-77406826D01*
X141337876Y-77371609D01*
X141355295Y-77345612D01*
X141402557Y-77340101D01*
X141437774Y-77342145D01*
X141463771Y-77359565D01*
X141469282Y-77406826D01*
X141471570Y-77443493D01*
X141489533Y-77468338D01*
X141537484Y-77473551D01*
X141575759Y-77471385D01*
X141598477Y-77455206D01*
X141598649Y-77412387D01*
X141597250Y-77402188D01*
X141578084Y-77360114D01*
X141530446Y-77344184D01*
X141520135Y-77342784D01*
X141480004Y-77325457D01*
X141469282Y-77284497D01*
X141469530Y-77275592D01*
X141484295Y-77239349D01*
X141530446Y-77224810D01*
X141540645Y-77223411D01*
X141582719Y-77204245D01*
X141598649Y-77156607D01*
X141599737Y-77146869D01*
X141599645Y-77117284D01*
X141584703Y-77102000D01*
X141545034Y-77096295D01*
X141470759Y-77095443D01*
X141335832Y-77095443D01*
X141335832Y-77085134D01*
X141736182Y-77085134D01*
X141736182Y-77340101D01*
X141791786Y-77340101D01*
X141819556Y-77338097D01*
X141838318Y-77324312D01*
X141845947Y-77287832D01*
X141847390Y-77217772D01*
X141847390Y-77215901D01*
X141848579Y-77146777D01*
X141856115Y-77110959D01*
X141875970Y-77097497D01*
X141914115Y-77095443D01*
X141952239Y-77093385D01*
X141972175Y-77079868D01*
X141979686Y-77043885D01*
X141980840Y-76974426D01*
X141979468Y-76925679D01*
X141973411Y-76869481D01*
X141964159Y-76843569D01*
X141953802Y-76840438D01*
X141907644Y-76834925D01*
X141841830Y-76831947D01*
X141736182Y-76830166D01*
X141736182Y-77085134D01*
X141335832Y-77085134D01*
X141335832Y-76961993D01*
X141335832Y-76905690D01*
X141469282Y-76905690D01*
X141470914Y-76930596D01*
X141488360Y-76956048D01*
X141536007Y-76961993D01*
X141565524Y-76960615D01*
X141595687Y-76945894D01*
X141602732Y-76905690D01*
X141594759Y-76866208D01*
X141569369Y-76836586D01*
X141529823Y-76830055D01*
X141486170Y-76852199D01*
X141469282Y-76905690D01*
X141335832Y-76905690D01*
X141335832Y-76828543D01*
X141402557Y-76828543D01*
X141430446Y-76827321D01*
X141461792Y-76813174D01*
X141469282Y-76774416D01*
X141469609Y-76763745D01*
X141484473Y-76727592D01*
X141529823Y-76713445D01*
X141530446Y-76713251D01*
X141540645Y-76711853D01*
X141582719Y-76692686D01*
X141596229Y-76652285D01*
X141736182Y-76652285D01*
X141738264Y-76689471D01*
X141754448Y-76714026D01*
X141797347Y-76716654D01*
X141815985Y-76715480D01*
X141900473Y-76713142D01*
X141950617Y-76720253D01*
X141974658Y-76739342D01*
X141980840Y-76772938D01*
X141982434Y-76797118D01*
X141999879Y-76822558D01*
X142047565Y-76828543D01*
X142049242Y-76828543D01*
X142114291Y-76828543D01*
X142114291Y-76961993D01*
X142114291Y-76963664D01*
X142115573Y-77036962D01*
X142122201Y-77076405D01*
X142138406Y-77092422D01*
X142168417Y-77095443D01*
X142179088Y-77095770D01*
X142215241Y-77110634D01*
X142229582Y-77156607D01*
X142230980Y-77166806D01*
X142250147Y-77208880D01*
X142297784Y-77224810D01*
X142307522Y-77225898D01*
X142337108Y-77225806D01*
X142352391Y-77210864D01*
X142358097Y-77171195D01*
X142358949Y-77096920D01*
X142358949Y-76961993D01*
X142425674Y-76961993D01*
X142492399Y-76961993D01*
X142492399Y-77151047D01*
X142492895Y-77241872D01*
X142496113Y-77298058D01*
X142504644Y-77327287D01*
X142521077Y-77338365D01*
X142548003Y-77340101D01*
X142558250Y-77339866D01*
X142594421Y-77326823D01*
X142603607Y-77284497D01*
X142605201Y-77260317D01*
X142622646Y-77234877D01*
X142670333Y-77228893D01*
X142705550Y-77226849D01*
X142731546Y-77209429D01*
X142737058Y-77162168D01*
X142735013Y-77126951D01*
X142717594Y-77100954D01*
X142670333Y-77095443D01*
X142635115Y-77093399D01*
X142609119Y-77075979D01*
X142603607Y-77028718D01*
X142602386Y-77000829D01*
X142588239Y-76969482D01*
X142549481Y-76961993D01*
X142538810Y-76961665D01*
X142502657Y-76946801D01*
X142488316Y-76900828D01*
X142486918Y-76890629D01*
X142467751Y-76848555D01*
X142420114Y-76832626D01*
X142389181Y-76827167D01*
X142368667Y-76811389D01*
X142360449Y-76774466D01*
X142360416Y-76772938D01*
X142492399Y-76772938D01*
X142493993Y-76797118D01*
X142511438Y-76822558D01*
X142559124Y-76828543D01*
X142594341Y-76830587D01*
X142620338Y-76848006D01*
X142625849Y-76895268D01*
X142627070Y-76923157D01*
X142641218Y-76954503D01*
X142679976Y-76961993D01*
X142690646Y-76962320D01*
X142726800Y-76977184D01*
X142741141Y-77023157D01*
X142742332Y-77032033D01*
X142761200Y-77075003D01*
X142807996Y-77091230D01*
X142814183Y-77092031D01*
X142858073Y-77110704D01*
X142874721Y-77157955D01*
X142876267Y-77169089D01*
X142894070Y-77207694D01*
X142937233Y-77217772D01*
X142949619Y-77217365D01*
X142985712Y-77202423D01*
X142999875Y-77156607D01*
X143005333Y-77125675D01*
X143021111Y-77105161D01*
X143058034Y-77096943D01*
X143059562Y-77096910D01*
X143127764Y-77095443D01*
X143196675Y-77096570D01*
X143232875Y-77104013D01*
X143246517Y-77123851D01*
X143248616Y-77162168D01*
X143247288Y-77191184D01*
X143232751Y-77221711D01*
X143193012Y-77228893D01*
X143182765Y-77229128D01*
X143146594Y-77242171D01*
X143137408Y-77284497D01*
X143139095Y-77311210D01*
X143150037Y-77327735D01*
X143179040Y-77336332D01*
X143193012Y-77337147D01*
X143234913Y-77339591D01*
X143326462Y-77340101D01*
X143515516Y-77340101D01*
X143515516Y-77405716D01*
X143515514Y-77408956D01*
X143512797Y-77444614D01*
X143497703Y-77463979D01*
X143459543Y-77473095D01*
X143387627Y-77478002D01*
X143322031Y-77482497D01*
X143280339Y-77491212D01*
X143263116Y-77508747D01*
X143259737Y-77540276D01*
X143260144Y-77552662D01*
X143275086Y-77588756D01*
X143320902Y-77602918D01*
X143351094Y-77608153D01*
X143372088Y-77623646D01*
X143380518Y-77660125D01*
X143382066Y-77729331D01*
X143381164Y-77788360D01*
X143374464Y-77830105D01*
X143356270Y-77848652D01*
X143320902Y-77855743D01*
X143310703Y-77857141D01*
X143268629Y-77876308D01*
X143252699Y-77923945D01*
X143247241Y-77954878D01*
X143231463Y-77975392D01*
X143194540Y-77983610D01*
X143124810Y-77985110D01*
X143003958Y-77985110D01*
X143003958Y-78107439D01*
X143003958Y-78109310D01*
X143005147Y-78178434D01*
X143012683Y-78214253D01*
X143032537Y-78227714D01*
X143059562Y-78229169D01*
X143070683Y-78229768D01*
X143105900Y-78231813D01*
X143131897Y-78249232D01*
X143137408Y-78296493D01*
X143138736Y-78325510D01*
X143153273Y-78356037D01*
X143193012Y-78363219D01*
X143219725Y-78361532D01*
X143236251Y-78350590D01*
X143244847Y-78321586D01*
X143245662Y-78307614D01*
X143382066Y-78307614D01*
X143382066Y-78496669D01*
X143571121Y-78496669D01*
X143760175Y-78496669D01*
X143760175Y-78307614D01*
X143760175Y-78118560D01*
X143571121Y-78118560D01*
X143382066Y-78118560D01*
X143382066Y-78307614D01*
X143245662Y-78307614D01*
X143248106Y-78265713D01*
X143248616Y-78174164D01*
X143248616Y-77985110D01*
X143315341Y-77985110D01*
X143350558Y-77983066D01*
X143376555Y-77965646D01*
X143382066Y-77918385D01*
X143384110Y-77883168D01*
X143401530Y-77857171D01*
X143448791Y-77851660D01*
X143484009Y-77853704D01*
X143510005Y-77871124D01*
X143515516Y-77918385D01*
X143515516Y-77985110D01*
X143704571Y-77985110D01*
X143893625Y-77985110D01*
X143893625Y-77918385D01*
X143893625Y-77917365D01*
X143895805Y-77879660D01*
X143909621Y-77860123D01*
X143946021Y-77852780D01*
X144015954Y-77851660D01*
X144077048Y-77850749D01*
X144118325Y-77844483D01*
X144135108Y-77827901D01*
X144138284Y-77796056D01*
X144136279Y-77768286D01*
X144122495Y-77749524D01*
X144086015Y-77741895D01*
X144015954Y-77740451D01*
X144014084Y-77740451D01*
X143944959Y-77739262D01*
X143909141Y-77731727D01*
X143895679Y-77711872D01*
X143893625Y-77673726D01*
X143893625Y-77672706D01*
X143895805Y-77635002D01*
X143909621Y-77615465D01*
X143946021Y-77608122D01*
X144015954Y-77607001D01*
X144077048Y-77607912D01*
X144118325Y-77614178D01*
X144135108Y-77630760D01*
X144138284Y-77662606D01*
X144138286Y-77664555D01*
X144141496Y-77694557D01*
X144157843Y-77710599D01*
X144197774Y-77717032D01*
X144271734Y-77718210D01*
X144291542Y-77718222D01*
X144356987Y-77719848D01*
X144390752Y-77727846D01*
X144403323Y-77747340D01*
X144405184Y-77783457D01*
X144404044Y-77808935D01*
X144388388Y-77842973D01*
X144344019Y-77855743D01*
X144335143Y-77856934D01*
X144292173Y-77875802D01*
X144275947Y-77922598D01*
X144275145Y-77928786D01*
X144256472Y-77972675D01*
X144209222Y-77989323D01*
X144198087Y-77990869D01*
X144159482Y-78008673D01*
X144149404Y-78051835D01*
X144149811Y-78064221D01*
X144164754Y-78100315D01*
X144210569Y-78114477D01*
X144271734Y-78121515D01*
X144271734Y-78309092D01*
X144271734Y-78496669D01*
X144205009Y-78496669D01*
X144138284Y-78496669D01*
X144138284Y-78307614D01*
X144138284Y-78118560D01*
X144015954Y-78118560D01*
X143893625Y-78118560D01*
X143893625Y-78374339D01*
X143893625Y-78630119D01*
X143826900Y-78630119D01*
X143825880Y-78630119D01*
X143788175Y-78632299D01*
X143768638Y-78646114D01*
X143761295Y-78682514D01*
X143760175Y-78752448D01*
X143760175Y-78754319D01*
X143761364Y-78823443D01*
X143768900Y-78859261D01*
X143788754Y-78872723D01*
X143826900Y-78874777D01*
X143863567Y-78877066D01*
X143888412Y-78895029D01*
X143893625Y-78942980D01*
X143895791Y-78981254D01*
X143911971Y-79003972D01*
X143954790Y-79004144D01*
X143964989Y-79002746D01*
X144007062Y-78983580D01*
X144022992Y-78935942D01*
X144024664Y-78923927D01*
X144042296Y-78885005D01*
X144084157Y-78874777D01*
X144108341Y-78873000D01*
X144132552Y-78854921D01*
X144138284Y-78806376D01*
X144136202Y-78769190D01*
X144120017Y-78744635D01*
X144077119Y-78742008D01*
X144062203Y-78742955D01*
X143976188Y-78745536D01*
X143924870Y-78738732D01*
X143900074Y-78720100D01*
X143893625Y-78687200D01*
X143893952Y-78676530D01*
X143908816Y-78640376D01*
X143954790Y-78626036D01*
X143964989Y-78624637D01*
X144007062Y-78605471D01*
X144022992Y-78557833D01*
X144024392Y-78547522D01*
X144041719Y-78507391D01*
X144082679Y-78496669D01*
X144091584Y-78496917D01*
X144127827Y-78511682D01*
X144142367Y-78557833D01*
X144143765Y-78568032D01*
X144162931Y-78610106D01*
X144210569Y-78626036D01*
X144271734Y-78633073D01*
X144271734Y-78821760D01*
X144271734Y-79010447D01*
X144399623Y-79003777D01*
X144467498Y-78999042D01*
X144508878Y-78989746D01*
X144527465Y-78970605D01*
X144534551Y-78935942D01*
X144536223Y-78923927D01*
X144553855Y-78885005D01*
X144595715Y-78874777D01*
X144621964Y-78872825D01*
X144640657Y-78859053D01*
X144648347Y-78822549D01*
X144649842Y-78752448D01*
X144649842Y-78750577D01*
X144651031Y-78681453D01*
X144658567Y-78645635D01*
X144678422Y-78632173D01*
X144716567Y-78630119D01*
X144745583Y-78631447D01*
X144776111Y-78645984D01*
X144783292Y-78685723D01*
X144784886Y-78709903D01*
X144802331Y-78735343D01*
X144850017Y-78741327D01*
X144879033Y-78739999D01*
X144909561Y-78725462D01*
X144916742Y-78685723D01*
X144918336Y-78661543D01*
X144935781Y-78636103D01*
X144983467Y-78630119D01*
X145012483Y-78631447D01*
X145043011Y-78645984D01*
X145050192Y-78685723D01*
X145050427Y-78695970D01*
X145063470Y-78732141D01*
X145105797Y-78741327D01*
X145116044Y-78741092D01*
X145152214Y-78728049D01*
X145161401Y-78685723D01*
X145162994Y-78661543D01*
X145180439Y-78636103D01*
X145228126Y-78630119D01*
X145294851Y-78630119D01*
X145294851Y-78495191D01*
X145294836Y-78473711D01*
X145293252Y-78408629D01*
X145285681Y-78375785D01*
X145267401Y-78365302D01*
X145233686Y-78367302D01*
X145223487Y-78368700D01*
X145181414Y-78387866D01*
X145165484Y-78435504D01*
X145161534Y-78459264D01*
X145141356Y-78489483D01*
X145093198Y-78496669D01*
X145059395Y-78494667D01*
X145033509Y-78477242D01*
X145027951Y-78429944D01*
X145026623Y-78400927D01*
X145012085Y-78370400D01*
X144972347Y-78363219D01*
X144962100Y-78362984D01*
X144925929Y-78349941D01*
X144916742Y-78307614D01*
X145050192Y-78307614D01*
X145050427Y-78317861D01*
X145063470Y-78354032D01*
X145105797Y-78363219D01*
X145116044Y-78362984D01*
X145152214Y-78349941D01*
X145161401Y-78307614D01*
X145428301Y-78307614D01*
X145428301Y-78496669D01*
X145617355Y-78496669D01*
X145806410Y-78496669D01*
X146062189Y-78496669D01*
X146063210Y-78560078D01*
X146070089Y-78600971D01*
X146088311Y-78619095D01*
X146123354Y-78626036D01*
X146133092Y-78627124D01*
X146162677Y-78627032D01*
X146177960Y-78612090D01*
X146183666Y-78572421D01*
X146184518Y-78498146D01*
X146184518Y-78363219D01*
X146251243Y-78363219D01*
X146252264Y-78363218D01*
X146289968Y-78361038D01*
X146309505Y-78347223D01*
X146316848Y-78310823D01*
X146317968Y-78240889D01*
X146317968Y-78239019D01*
X146316779Y-78169894D01*
X146309243Y-78134076D01*
X146289389Y-78120614D01*
X146251243Y-78118560D01*
X146213196Y-78120602D01*
X146193210Y-78134082D01*
X146185677Y-78170013D01*
X146184518Y-78239412D01*
X146183557Y-78300640D01*
X146176766Y-78341954D01*
X146158557Y-78360287D01*
X146123354Y-78367302D01*
X146091708Y-78372984D01*
X146071657Y-78389050D01*
X146063643Y-78426417D01*
X146062189Y-78496669D01*
X145806410Y-78496669D01*
X145806410Y-78307614D01*
X145806410Y-78118560D01*
X145617355Y-78118560D01*
X145428301Y-78118560D01*
X145428301Y-78307614D01*
X145161401Y-78307614D01*
X145161166Y-78297367D01*
X145148123Y-78261196D01*
X145105797Y-78252010D01*
X145095550Y-78252245D01*
X145059379Y-78265288D01*
X145050192Y-78307614D01*
X144916742Y-78307614D01*
X144915149Y-78283434D01*
X144897704Y-78257995D01*
X144850017Y-78252010D01*
X144783292Y-78252010D01*
X144783292Y-78118560D01*
X144783292Y-77985110D01*
X144850017Y-77985110D01*
X144851038Y-77985110D01*
X144888742Y-77987290D01*
X144908279Y-78001106D01*
X144915622Y-78037506D01*
X144916742Y-78107439D01*
X144917653Y-78168533D01*
X144923919Y-78209810D01*
X144940501Y-78226593D01*
X144972347Y-78229768D01*
X145027951Y-78229768D01*
X145027951Y-78174164D01*
X145161401Y-78174164D01*
X145162994Y-78198344D01*
X145180439Y-78223784D01*
X145228126Y-78229768D01*
X145257142Y-78228441D01*
X145287669Y-78213903D01*
X145294851Y-78174164D01*
X145293257Y-78149984D01*
X145275812Y-78124545D01*
X145228126Y-78118560D01*
X145199110Y-78119888D01*
X145168582Y-78134425D01*
X145161401Y-78174164D01*
X145027951Y-78174164D01*
X145027951Y-77784935D01*
X145027951Y-77340101D01*
X144972347Y-77340101D01*
X144962100Y-77339866D01*
X144925929Y-77326823D01*
X144916742Y-77284497D01*
X144923282Y-77251279D01*
X144949869Y-77230889D01*
X145004385Y-77224149D01*
X145094676Y-77228594D01*
X145105797Y-77229510D01*
X145106580Y-77229575D01*
X145141548Y-77235028D01*
X145158932Y-77251214D01*
X145164699Y-77289382D01*
X145164821Y-77360783D01*
X145165172Y-77417474D01*
X145171633Y-77456223D01*
X145190868Y-77471118D01*
X145229399Y-77473551D01*
X145264840Y-77475803D01*
X145289597Y-77493772D01*
X145294851Y-77541754D01*
X145297017Y-77580028D01*
X145313197Y-77602747D01*
X145356016Y-77602918D01*
X145366215Y-77601520D01*
X145408288Y-77582354D01*
X145424218Y-77534716D01*
X145425890Y-77522701D01*
X145443522Y-77483779D01*
X145485383Y-77473551D01*
X145508006Y-77472046D01*
X145533434Y-77454605D01*
X145539509Y-77406826D01*
X145541554Y-77371609D01*
X145558973Y-77345612D01*
X145606234Y-77340101D01*
X145635251Y-77338773D01*
X145665778Y-77324236D01*
X145672960Y-77284497D01*
X145674553Y-77260317D01*
X145691998Y-77234877D01*
X145739685Y-77228893D01*
X145767574Y-77230114D01*
X145798920Y-77244261D01*
X145806410Y-77283020D01*
X145806082Y-77293690D01*
X145791218Y-77329844D01*
X145745245Y-77344184D01*
X145735046Y-77345583D01*
X145692972Y-77364749D01*
X145677043Y-77412387D01*
X145675483Y-77446935D01*
X145690988Y-77468979D01*
X145738207Y-77473551D01*
X145806410Y-77473551D01*
X145806410Y-77662606D01*
X145806734Y-77721609D01*
X145805285Y-77792670D01*
X145794048Y-77832985D01*
X145764597Y-77851146D01*
X145708508Y-77855743D01*
X145617355Y-77855367D01*
X145527109Y-77854839D01*
X145470671Y-77851406D01*
X145441261Y-77842307D01*
X145430073Y-77824778D01*
X145428301Y-77796056D01*
X145428298Y-77794107D01*
X145425089Y-77764104D01*
X145408742Y-77748062D01*
X145368811Y-77741629D01*
X145294851Y-77740451D01*
X145290173Y-77740453D01*
X145218167Y-77741790D01*
X145179667Y-77748601D01*
X145164226Y-77765239D01*
X145161401Y-77796056D01*
X145162994Y-77820236D01*
X145180439Y-77845675D01*
X145228126Y-77851660D01*
X145263343Y-77853704D01*
X145289340Y-77871124D01*
X145294851Y-77918385D01*
X145294851Y-77985110D01*
X145428301Y-77985110D01*
X145550630Y-77985110D01*
X145806410Y-77985110D01*
X145806410Y-77918385D01*
X145808454Y-77883168D01*
X145825873Y-77857171D01*
X145873135Y-77851660D01*
X145939860Y-77851660D01*
X145939860Y-78107439D01*
X145939860Y-78363219D01*
X145995464Y-78363219D01*
X146022177Y-78361532D01*
X146038702Y-78350590D01*
X146047299Y-78321586D01*
X146050558Y-78265713D01*
X146051068Y-78174164D01*
X146051068Y-77985110D01*
X146117793Y-77985110D01*
X146153010Y-77983066D01*
X146179007Y-77965646D01*
X146184518Y-77918385D01*
X146182474Y-77883168D01*
X146165054Y-77857171D01*
X146117793Y-77851660D01*
X146082576Y-77849616D01*
X146056579Y-77832196D01*
X146051068Y-77784935D01*
X146051068Y-77718210D01*
X146184518Y-77718210D01*
X146251243Y-77718210D01*
X146317968Y-77718210D01*
X146317968Y-77539578D01*
X146317319Y-77479183D01*
X146312617Y-77406561D01*
X146302179Y-77365556D01*
X146284606Y-77348144D01*
X146245494Y-77341620D01*
X146201599Y-77363275D01*
X146184518Y-77415772D01*
X146184153Y-77427259D01*
X146169250Y-77463380D01*
X146123354Y-77477634D01*
X146113155Y-77479033D01*
X146071081Y-77498199D01*
X146055151Y-77545837D01*
X146053751Y-77556148D01*
X146036424Y-77596279D01*
X145995464Y-77607001D01*
X145986559Y-77606753D01*
X145950316Y-77591988D01*
X145935777Y-77545837D01*
X145934378Y-77535638D01*
X145915212Y-77493564D01*
X145867574Y-77477634D01*
X145843814Y-77473684D01*
X145813595Y-77453506D01*
X145806410Y-77405349D01*
X145806410Y-77405342D01*
X145808582Y-77368041D01*
X145822397Y-77348626D01*
X145858800Y-77341259D01*
X145928739Y-77340101D01*
X146051068Y-77340101D01*
X146051068Y-77217772D01*
X146050157Y-77156678D01*
X146043891Y-77115402D01*
X146027310Y-77098618D01*
X145995464Y-77095443D01*
X145978971Y-77094761D01*
X145947104Y-77079554D01*
X145937816Y-77034278D01*
X145937378Y-77021212D01*
X145933757Y-76932732D01*
X145928104Y-76878644D01*
X145917281Y-76849936D01*
X145898151Y-76837600D01*
X145867574Y-76832626D01*
X145836642Y-76827167D01*
X145816128Y-76811389D01*
X145807910Y-76774466D01*
X145806410Y-76704736D01*
X145805282Y-76635826D01*
X145797840Y-76599626D01*
X145778001Y-76585984D01*
X145739685Y-76583884D01*
X145738664Y-76583884D01*
X145700960Y-76586064D01*
X145681423Y-76599880D01*
X145674080Y-76636280D01*
X145672960Y-76706213D01*
X145672959Y-76708084D01*
X145671770Y-76777208D01*
X145664235Y-76813027D01*
X145644380Y-76826488D01*
X145606234Y-76828543D01*
X145605214Y-76828542D01*
X145567510Y-76826362D01*
X145547973Y-76812547D01*
X145540630Y-76776147D01*
X145539509Y-76706213D01*
X145538598Y-76645120D01*
X145532333Y-76603843D01*
X145515751Y-76587059D01*
X145483905Y-76583884D01*
X145459725Y-76585477D01*
X145434286Y-76602923D01*
X145428301Y-76650609D01*
X145426257Y-76685826D01*
X145408837Y-76711823D01*
X145361576Y-76717334D01*
X145294851Y-76717334D01*
X145294851Y-76582407D01*
X145294836Y-76560926D01*
X145293252Y-76495844D01*
X145285681Y-76463001D01*
X145267401Y-76452517D01*
X145233686Y-76454517D01*
X145223487Y-76455915D01*
X145181414Y-76475082D01*
X145165484Y-76522719D01*
X145163812Y-76534735D01*
X145146180Y-76573656D01*
X145104319Y-76583884D01*
X145081696Y-76585389D01*
X145056268Y-76602830D01*
X145050192Y-76650609D01*
X145051520Y-76679625D01*
X145066058Y-76710153D01*
X145105797Y-76717334D01*
X145116044Y-76717569D01*
X145152214Y-76730612D01*
X145161401Y-76772938D01*
X145161404Y-76774887D01*
X145164613Y-76804890D01*
X145180960Y-76820932D01*
X145220891Y-76827365D01*
X145294851Y-76828543D01*
X145428301Y-76828543D01*
X145428301Y-76895268D01*
X145430345Y-76930485D01*
X145447765Y-76956481D01*
X145495026Y-76961993D01*
X145530243Y-76964037D01*
X145556240Y-76981456D01*
X145561751Y-77028718D01*
X145561751Y-77095443D01*
X145428301Y-77095443D01*
X145294851Y-77095443D01*
X145294851Y-77028718D01*
X145294851Y-77027697D01*
X145292671Y-76989993D01*
X145278855Y-76970456D01*
X145242455Y-76963113D01*
X145172522Y-76961993D01*
X145170651Y-76961993D01*
X145101527Y-76963182D01*
X145065708Y-76970717D01*
X145052247Y-76990572D01*
X145050192Y-77028718D01*
X145050192Y-77095443D01*
X144916742Y-77095443D01*
X144783292Y-77095443D01*
X144783292Y-77162168D01*
X144781248Y-77197385D01*
X144763829Y-77223382D01*
X144716567Y-77228893D01*
X144681350Y-77226849D01*
X144655353Y-77209429D01*
X144649842Y-77162168D01*
X144648621Y-77134279D01*
X144634473Y-77102932D01*
X144595715Y-77095443D01*
X144585045Y-77095115D01*
X144548891Y-77080251D01*
X144534551Y-77034278D01*
X144533152Y-77024079D01*
X144513986Y-76982006D01*
X144466348Y-76966076D01*
X144442588Y-76962125D01*
X144412369Y-76941948D01*
X144405184Y-76893790D01*
X144407185Y-76859987D01*
X144424610Y-76834100D01*
X144471909Y-76828543D01*
X144507126Y-76830587D01*
X144533123Y-76848006D01*
X144538634Y-76895268D01*
X144538634Y-76961993D01*
X144783292Y-76961993D01*
X145027951Y-76961993D01*
X145027951Y-76895268D01*
X145026623Y-76866251D01*
X145012085Y-76835724D01*
X144972347Y-76828543D01*
X144944577Y-76826538D01*
X144925815Y-76812754D01*
X144918186Y-76776274D01*
X144916742Y-76706213D01*
X144917653Y-76645120D01*
X144923919Y-76603843D01*
X144940501Y-76587059D01*
X144972347Y-76583884D01*
X144996527Y-76582291D01*
X145021966Y-76564845D01*
X145027951Y-76517159D01*
X145029995Y-76481942D01*
X145047414Y-76455945D01*
X145094676Y-76450434D01*
X145123692Y-76449106D01*
X145154219Y-76434568D01*
X145161401Y-76394830D01*
X145159807Y-76370650D01*
X145142362Y-76345210D01*
X145094676Y-76339226D01*
X145027951Y-76339226D01*
X145027951Y-76261380D01*
X145428301Y-76261380D01*
X145428301Y-76450434D01*
X145617355Y-76450434D01*
X145806410Y-76450434D01*
X145806410Y-76394830D01*
X145939860Y-76394830D01*
X145940095Y-76405077D01*
X145953138Y-76441248D01*
X145995464Y-76450434D01*
X146005711Y-76450199D01*
X146041882Y-76437156D01*
X146051068Y-76394830D01*
X146050833Y-76384583D01*
X146037790Y-76348412D01*
X145995464Y-76339226D01*
X145985217Y-76339460D01*
X145949046Y-76352504D01*
X145939860Y-76394830D01*
X145806410Y-76394830D01*
X145806410Y-76261380D01*
X145806410Y-76072325D01*
X145617355Y-76072325D01*
X145428301Y-76072325D01*
X145428301Y-76261380D01*
X145027951Y-76261380D01*
X145027951Y-76139050D01*
X145027948Y-76121391D01*
X145027372Y-76045709D01*
X145163924Y-76045709D01*
X145179429Y-76067753D01*
X145226649Y-76072325D01*
X145264728Y-76069998D01*
X145289681Y-76052042D01*
X145294851Y-76004123D01*
X145292685Y-75965848D01*
X145276505Y-75943130D01*
X145233686Y-75942958D01*
X145223487Y-75944357D01*
X145181414Y-75963523D01*
X145165484Y-76011161D01*
X145163924Y-76045709D01*
X145027372Y-76045709D01*
X145027274Y-76032858D01*
X145023754Y-75978901D01*
X145015012Y-75950958D01*
X144998669Y-75940469D01*
X144972347Y-75938875D01*
X144948166Y-75940469D01*
X144922727Y-75957914D01*
X144916742Y-76005600D01*
X144916742Y-76072325D01*
X144783292Y-76072325D01*
X144649842Y-76072325D01*
X144649842Y-75938875D01*
X144649842Y-75805425D01*
X144850017Y-75805425D01*
X145050192Y-75805425D01*
X145050192Y-75872150D01*
X145051520Y-75901166D01*
X145066058Y-75931694D01*
X145105797Y-75938875D01*
X145133566Y-75936871D01*
X145152329Y-75923086D01*
X145159957Y-75886607D01*
X145160026Y-75883271D01*
X145428301Y-75883271D01*
X145428536Y-75893518D01*
X145441579Y-75929689D01*
X145483905Y-75938875D01*
X145494152Y-75938640D01*
X145530323Y-75925597D01*
X145539509Y-75883271D01*
X145672960Y-75883271D01*
X145672967Y-75886401D01*
X145676375Y-75915768D01*
X145693109Y-75931454D01*
X145733551Y-75937732D01*
X145808086Y-75938875D01*
X145827934Y-75938861D01*
X145893880Y-75937270D01*
X145927669Y-75929690D01*
X145939402Y-75911408D01*
X145939179Y-75877711D01*
X145938006Y-75859072D01*
X145935667Y-75774584D01*
X145942778Y-75724440D01*
X145961868Y-75700399D01*
X145995464Y-75694217D01*
X145997413Y-75694214D01*
X146027415Y-75691005D01*
X146043457Y-75674657D01*
X146049891Y-75634726D01*
X146051068Y-75560767D01*
X146051068Y-75427317D01*
X146117793Y-75427317D01*
X146146809Y-75425989D01*
X146177337Y-75411451D01*
X146184518Y-75371712D01*
X146182831Y-75344999D01*
X146171889Y-75328474D01*
X146142886Y-75319877D01*
X146087013Y-75316619D01*
X145995464Y-75316108D01*
X145806410Y-75316108D01*
X145806410Y-75571888D01*
X145806410Y-75827667D01*
X145739685Y-75827667D01*
X145710668Y-75828995D01*
X145680141Y-75843532D01*
X145672960Y-75883271D01*
X145539509Y-75883271D01*
X145539275Y-75873024D01*
X145526231Y-75836853D01*
X145483905Y-75827667D01*
X145473658Y-75827902D01*
X145437487Y-75840945D01*
X145428301Y-75883271D01*
X145160026Y-75883271D01*
X145161401Y-75816546D01*
X145161401Y-75814675D01*
X145160212Y-75745551D01*
X145152676Y-75709733D01*
X145132821Y-75696271D01*
X145094676Y-75694217D01*
X145059459Y-75692173D01*
X145033462Y-75674753D01*
X145027951Y-75627492D01*
X145029908Y-75592923D01*
X145046947Y-75566450D01*
X145093198Y-75560767D01*
X145118676Y-75561907D01*
X145152714Y-75577562D01*
X145165484Y-75621931D01*
X145171167Y-75653577D01*
X145187232Y-75673628D01*
X145224599Y-75681642D01*
X145233686Y-75681830D01*
X145294851Y-75683096D01*
X145358260Y-75682075D01*
X145399153Y-75675196D01*
X145417278Y-75656974D01*
X145424218Y-75621931D01*
X145428168Y-75598171D01*
X145448346Y-75567952D01*
X145483905Y-75562647D01*
X145496503Y-75560767D01*
X145530307Y-75562768D01*
X145556193Y-75580193D01*
X145561751Y-75627492D01*
X145563079Y-75656508D01*
X145577617Y-75687035D01*
X145617355Y-75694217D01*
X145619304Y-75694214D01*
X145649307Y-75691005D01*
X145665349Y-75674657D01*
X145671782Y-75634726D01*
X145672960Y-75560767D01*
X145672960Y-75427317D01*
X145606234Y-75427317D01*
X145605214Y-75427316D01*
X145567510Y-75425136D01*
X145547973Y-75411321D01*
X145540630Y-75374921D01*
X145539509Y-75304987D01*
X145538598Y-75243894D01*
X145532333Y-75202617D01*
X145515751Y-75185834D01*
X145483905Y-75182658D01*
X145459725Y-75181065D01*
X145434286Y-75163620D01*
X145428301Y-75115933D01*
X145430345Y-75080716D01*
X145447765Y-75054719D01*
X145495026Y-75049208D01*
X145531137Y-75051400D01*
X145556424Y-75069151D01*
X145561751Y-75116833D01*
X145561751Y-75184457D01*
X145745245Y-75177997D01*
X145824720Y-75174793D01*
X145883621Y-75169662D01*
X145914639Y-75160155D01*
X145926702Y-75143252D01*
X145928739Y-75115933D01*
X146062189Y-75115933D01*
X146064658Y-75144582D01*
X146079702Y-75163493D01*
X146117967Y-75172977D01*
X146190079Y-75178208D01*
X146317968Y-75184878D01*
X146317968Y-75060741D01*
X146316143Y-75002657D01*
X146305761Y-74947491D01*
X146284606Y-74923801D01*
X146245494Y-74917277D01*
X146201599Y-74938932D01*
X146184518Y-74991428D01*
X146184153Y-75002915D01*
X146169250Y-75039037D01*
X146123354Y-75053291D01*
X146109781Y-75055222D01*
X146071969Y-75073157D01*
X146062189Y-75115933D01*
X145928739Y-75115933D01*
X145928332Y-75103547D01*
X145913390Y-75067454D01*
X145867574Y-75053291D01*
X145836642Y-75047833D01*
X145816128Y-75032055D01*
X145807910Y-74995132D01*
X145806410Y-74925401D01*
X145806410Y-74804550D01*
X145684080Y-74804550D01*
X145622987Y-74805460D01*
X145581710Y-74811726D01*
X145564927Y-74828308D01*
X145561751Y-74860154D01*
X145560158Y-74884334D01*
X145542713Y-74909773D01*
X145495026Y-74915758D01*
X145459809Y-74917802D01*
X145433812Y-74935222D01*
X145428301Y-74982483D01*
X145426344Y-75017052D01*
X145409304Y-75043524D01*
X145363053Y-75049208D01*
X145337576Y-75048068D01*
X145303538Y-75032412D01*
X145290768Y-74988043D01*
X145288837Y-74974470D01*
X145270901Y-74936659D01*
X145228126Y-74926879D01*
X145215740Y-74927285D01*
X145179646Y-74942228D01*
X145165484Y-74988043D01*
X145163812Y-75000059D01*
X145146180Y-75038980D01*
X145104319Y-75049208D01*
X145103641Y-75049208D01*
X145073912Y-75052369D01*
X145057914Y-75068711D01*
X145051418Y-75108664D01*
X145050192Y-75182658D01*
X145050192Y-75316108D01*
X144983467Y-75316108D01*
X144982447Y-75316108D01*
X144944743Y-75318288D01*
X144925206Y-75332104D01*
X144917863Y-75368504D01*
X144916742Y-75438437D01*
X144916742Y-75440308D01*
X144915553Y-75509432D01*
X144908017Y-75545251D01*
X144888163Y-75558713D01*
X144850017Y-75560767D01*
X144814800Y-75558723D01*
X144788803Y-75541303D01*
X144783292Y-75494042D01*
X144781248Y-75458824D01*
X144763829Y-75432828D01*
X144716567Y-75427317D01*
X144715547Y-75427316D01*
X144677843Y-75425136D01*
X144658305Y-75411321D01*
X144650963Y-75374921D01*
X144649842Y-75304987D01*
X144648931Y-75243894D01*
X144642665Y-75202617D01*
X144626084Y-75185834D01*
X144594238Y-75182658D01*
X144570058Y-75184252D01*
X144544618Y-75201697D01*
X144538634Y-75249383D01*
X144536590Y-75284600D01*
X144519170Y-75310597D01*
X144471909Y-75316108D01*
X144437340Y-75314151D01*
X144410868Y-75297112D01*
X144405184Y-75250860D01*
X144406324Y-75225383D01*
X144421979Y-75191345D01*
X144466348Y-75178575D01*
X144495596Y-75173869D01*
X144516092Y-75161515D01*
X144527447Y-75132636D01*
X144533088Y-75077917D01*
X144534159Y-75049208D01*
X144660963Y-75049208D01*
X144661984Y-75112617D01*
X144668863Y-75153510D01*
X144687085Y-75171635D01*
X144722128Y-75178575D01*
X144732860Y-75179768D01*
X144761896Y-75179445D01*
X144776882Y-75164130D01*
X144782464Y-75123995D01*
X144783292Y-75049208D01*
X144783274Y-75025276D01*
X144781630Y-74960710D01*
X144773990Y-74928170D01*
X144755705Y-74917824D01*
X144722128Y-74919841D01*
X144690482Y-74925524D01*
X144670431Y-74941589D01*
X144662417Y-74978956D01*
X144660963Y-75049208D01*
X144534159Y-75049208D01*
X144536442Y-74988043D01*
X144539405Y-74951737D01*
X144555295Y-74922542D01*
X144594238Y-74915758D01*
X144604485Y-74915523D01*
X144640656Y-74902480D01*
X144649842Y-74860154D01*
X144916742Y-74860154D01*
X144916977Y-74870401D01*
X144930020Y-74906572D01*
X144972347Y-74915758D01*
X144982594Y-74915523D01*
X145018764Y-74902480D01*
X145027951Y-74860154D01*
X145027716Y-74849907D01*
X145014673Y-74813736D01*
X144972347Y-74804550D01*
X144962100Y-74804784D01*
X144925929Y-74817828D01*
X144916742Y-74860154D01*
X144649842Y-74860154D01*
X144647838Y-74832384D01*
X144634053Y-74813622D01*
X144597573Y-74805993D01*
X144527513Y-74804550D01*
X144527500Y-74804550D01*
X144457567Y-74803391D01*
X144421167Y-74796022D01*
X144407355Y-74776606D01*
X144405184Y-74739302D01*
X144406324Y-74713824D01*
X144421979Y-74679787D01*
X144456290Y-74669911D01*
X145050192Y-74669911D01*
X145050192Y-74802172D01*
X145233686Y-74797800D01*
X145417180Y-74793429D01*
X145420095Y-74671099D01*
X145939860Y-74671099D01*
X145939861Y-74675777D01*
X145941198Y-74747783D01*
X145948009Y-74786283D01*
X145964647Y-74801724D01*
X145995464Y-74804550D01*
X145997413Y-74804547D01*
X146027415Y-74801337D01*
X146043457Y-74784990D01*
X146049891Y-74745059D01*
X146051068Y-74671099D01*
X146051067Y-74666422D01*
X146049730Y-74594416D01*
X146042918Y-74555915D01*
X146026280Y-74540475D01*
X145995464Y-74537649D01*
X145993515Y-74537652D01*
X145963512Y-74540861D01*
X145947471Y-74557209D01*
X145941037Y-74597140D01*
X145939860Y-74671099D01*
X145420095Y-74671099D01*
X145421552Y-74609935D01*
X145425924Y-74426441D01*
X145360387Y-74426441D01*
X145360181Y-74426441D01*
X145322802Y-74428615D01*
X145303364Y-74442430D01*
X145296002Y-74478833D01*
X145294851Y-74548770D01*
X145294851Y-74550641D01*
X145293662Y-74619765D01*
X145286126Y-74655584D01*
X145266272Y-74669045D01*
X145228126Y-74671099D01*
X145192909Y-74669055D01*
X145166912Y-74651636D01*
X145161401Y-74604374D01*
X145160073Y-74575358D01*
X145145535Y-74544831D01*
X145105797Y-74537649D01*
X145104711Y-74537650D01*
X145074244Y-74540721D01*
X145057942Y-74556794D01*
X145051395Y-74596361D01*
X145050192Y-74669911D01*
X144456290Y-74669911D01*
X144466348Y-74667016D01*
X144476547Y-74665618D01*
X144518621Y-74646452D01*
X144534551Y-74598814D01*
X144536223Y-74586799D01*
X144552781Y-74550248D01*
X144783292Y-74550248D01*
X144783292Y-74552616D01*
X144784439Y-74621913D01*
X144791436Y-74657246D01*
X144809653Y-74668864D01*
X144844457Y-74667016D01*
X144871139Y-74662548D01*
X144894963Y-74647475D01*
X144906530Y-74611650D01*
X144912344Y-74543210D01*
X144919067Y-74426441D01*
X144851180Y-74426441D01*
X144847914Y-74426442D01*
X144810689Y-74428766D01*
X144791489Y-74442919D01*
X144784347Y-74479784D01*
X144783292Y-74550248D01*
X144552781Y-74550248D01*
X144553855Y-74547877D01*
X144595715Y-74537649D01*
X144621964Y-74535697D01*
X144640657Y-74521925D01*
X144648347Y-74485421D01*
X144649842Y-74415320D01*
X144648931Y-74354226D01*
X144642665Y-74312950D01*
X144626084Y-74296166D01*
X144594238Y-74292991D01*
X144570058Y-74294584D01*
X144544618Y-74312029D01*
X144538634Y-74359716D01*
X144536590Y-74394933D01*
X144519170Y-74420930D01*
X144471909Y-74426441D01*
X144470888Y-74426441D01*
X144433184Y-74428621D01*
X144413647Y-74442437D01*
X144406304Y-74478837D01*
X144405184Y-74548770D01*
X144405184Y-74671099D01*
X144271734Y-74671099D01*
X144138284Y-74671099D01*
X144138284Y-74604374D01*
X144140328Y-74569157D01*
X144157747Y-74543161D01*
X144205009Y-74537649D01*
X144234025Y-74536321D01*
X144264552Y-74521784D01*
X144271734Y-74482045D01*
X144270140Y-74457865D01*
X144252695Y-74432425D01*
X144205009Y-74426441D01*
X144175992Y-74427769D01*
X144145465Y-74442306D01*
X144138284Y-74482045D01*
X144138284Y-74537649D01*
X143893625Y-74537649D01*
X143648967Y-74537649D01*
X143648967Y-74671099D01*
X143648967Y-74804550D01*
X143582241Y-74804550D01*
X143553225Y-74805877D01*
X143522698Y-74820415D01*
X143515516Y-74860154D01*
X143513923Y-74884334D01*
X143496478Y-74909773D01*
X143448791Y-74915758D01*
X143410744Y-74913716D01*
X143390758Y-74900236D01*
X143383226Y-74864305D01*
X143382066Y-74794906D01*
X143383027Y-74733678D01*
X143389818Y-74692364D01*
X143408027Y-74674031D01*
X143443231Y-74667016D01*
X143456804Y-74665085D01*
X143494616Y-74647150D01*
X143504396Y-74604374D01*
X143503989Y-74591989D01*
X143489046Y-74555895D01*
X143443231Y-74541732D01*
X143408682Y-74540172D01*
X143386639Y-74555677D01*
X143382066Y-74602897D01*
X143379827Y-74640376D01*
X143362253Y-74665771D01*
X143315341Y-74671099D01*
X143280124Y-74669055D01*
X143254127Y-74651636D01*
X143248616Y-74604374D01*
X143246572Y-74569157D01*
X143229153Y-74543161D01*
X143181891Y-74537649D01*
X143180871Y-74537649D01*
X143143167Y-74535469D01*
X143123629Y-74521654D01*
X143116287Y-74485254D01*
X143115166Y-74415320D01*
X143114255Y-74354226D01*
X143107989Y-74312950D01*
X143091408Y-74296166D01*
X143059562Y-74292991D01*
X143031792Y-74294995D01*
X143013030Y-74308780D01*
X143005401Y-74345260D01*
X143003958Y-74415320D01*
X143003958Y-74417191D01*
X143002769Y-74486315D01*
X142995233Y-74522133D01*
X142975378Y-74535595D01*
X142937233Y-74537649D01*
X142902016Y-74539693D01*
X142876019Y-74557113D01*
X142870508Y-74604374D01*
X142872552Y-74639592D01*
X142889971Y-74665588D01*
X142937233Y-74671099D01*
X142938253Y-74671100D01*
X142975957Y-74673280D01*
X142995495Y-74687095D01*
X143002837Y-74723495D01*
X143003958Y-74793429D01*
X143003958Y-74915758D01*
X143193012Y-74915758D01*
X143382066Y-74915758D01*
X143382066Y-74982483D01*
X143384110Y-75017700D01*
X143401530Y-75043697D01*
X143448791Y-75049208D01*
X143515516Y-75049208D01*
X143515516Y-75236287D01*
X143515516Y-75423366D01*
X143387627Y-75430901D01*
X143335997Y-75433167D01*
X143251383Y-75434085D01*
X143187452Y-75431468D01*
X143115166Y-75424498D01*
X143115166Y-75236853D01*
X143114709Y-75150734D01*
X143111618Y-75093062D01*
X143103341Y-75062808D01*
X143087331Y-75051135D01*
X143061039Y-75049208D01*
X143050369Y-75048881D01*
X143014215Y-75034017D01*
X142999875Y-74988043D01*
X142997943Y-74974470D01*
X142980008Y-74936659D01*
X142937233Y-74926879D01*
X142926850Y-74927159D01*
X142889306Y-74941515D01*
X142874721Y-74986696D01*
X142873919Y-74992884D01*
X142855246Y-75036774D01*
X142807996Y-75053421D01*
X142796861Y-75054967D01*
X142758256Y-75072771D01*
X142748178Y-75115933D01*
X142748585Y-75128319D01*
X142763528Y-75164413D01*
X142809343Y-75178575D01*
X142843892Y-75180135D01*
X142865935Y-75164630D01*
X142870508Y-75117410D01*
X142872747Y-75079932D01*
X142890321Y-75054537D01*
X142937233Y-75049208D01*
X143003958Y-75049208D01*
X143003958Y-75237152D01*
X143003958Y-75425097D01*
X142876068Y-75431767D01*
X142748178Y-75438437D01*
X142744375Y-75627492D01*
X142743861Y-75652822D01*
X142741874Y-75747069D01*
X142740080Y-75827070D01*
X142738815Y-75877711D01*
X142737653Y-75896077D01*
X142722831Y-75930389D01*
X142681453Y-75938875D01*
X142679504Y-75938878D01*
X142649502Y-75942087D01*
X142633460Y-75958435D01*
X142627027Y-75998366D01*
X142625849Y-76072325D01*
X142627090Y-76145993D01*
X142633587Y-76186150D01*
X142649486Y-76202605D01*
X142678929Y-76205775D01*
X142688245Y-76206341D01*
X142727038Y-76230329D01*
X142744493Y-76290784D01*
X142741141Y-76389269D01*
X142739468Y-76401284D01*
X142721836Y-76440206D01*
X142679976Y-76450434D01*
X142657353Y-76451939D01*
X142631925Y-76469380D01*
X142625849Y-76517159D01*
X142627177Y-76546175D01*
X142641715Y-76576703D01*
X142681453Y-76583884D01*
X142705633Y-76585477D01*
X142731073Y-76602923D01*
X142737058Y-76650609D01*
X142737057Y-76651629D01*
X142734877Y-76689334D01*
X142721062Y-76708871D01*
X142684662Y-76716214D01*
X142614728Y-76717334D01*
X142553635Y-76718245D01*
X142512358Y-76724511D01*
X142495575Y-76741093D01*
X142492399Y-76772938D01*
X142360416Y-76772938D01*
X142358949Y-76704736D01*
X142360077Y-76635826D01*
X142367519Y-76599626D01*
X142387357Y-76585984D01*
X142425674Y-76583884D01*
X142460891Y-76581840D01*
X142486888Y-76564420D01*
X142492399Y-76517159D01*
X142493727Y-76488143D01*
X142508265Y-76457615D01*
X142548003Y-76450434D01*
X142575773Y-76448430D01*
X142594535Y-76434645D01*
X142602164Y-76398165D01*
X142603607Y-76328105D01*
X142602697Y-76267011D01*
X142596431Y-76225734D01*
X142579849Y-76208951D01*
X142548003Y-76205775D01*
X142523823Y-76207369D01*
X142498384Y-76224814D01*
X142492399Y-76272500D01*
X142490355Y-76307718D01*
X142472935Y-76333714D01*
X142425674Y-76339226D01*
X142358949Y-76339226D01*
X142358949Y-76072325D01*
X142358949Y-75805425D01*
X142425674Y-75805425D01*
X142460891Y-75807469D01*
X142486888Y-75824889D01*
X142492399Y-75872150D01*
X142493727Y-75901166D01*
X142508265Y-75931694D01*
X142548003Y-75938875D01*
X142603607Y-75938875D01*
X142603607Y-75560767D01*
X142603607Y-75182658D01*
X142549481Y-75182658D01*
X142538810Y-75182331D01*
X142502657Y-75167467D01*
X142488316Y-75121493D01*
X142486918Y-75111295D01*
X142467751Y-75069221D01*
X142420114Y-75053291D01*
X142418944Y-75053157D01*
X142384643Y-75051531D01*
X142366790Y-75063640D01*
X142360014Y-75099734D01*
X142358949Y-75170060D01*
X142358949Y-75174636D01*
X142360201Y-75243125D01*
X142367828Y-75278571D01*
X142387697Y-75291857D01*
X142425674Y-75293866D01*
X142460243Y-75295823D01*
X142486715Y-75312863D01*
X142492399Y-75359114D01*
X142491259Y-75384592D01*
X142475603Y-75418629D01*
X142431234Y-75431400D01*
X142422359Y-75432591D01*
X142379388Y-75451459D01*
X142363162Y-75498255D01*
X142362360Y-75504442D01*
X142343688Y-75548332D01*
X142296437Y-75564980D01*
X142287756Y-75566156D01*
X142245666Y-75585254D01*
X142229582Y-75633052D01*
X142227910Y-75645067D01*
X142210278Y-75683989D01*
X142168417Y-75694217D01*
X142145794Y-75695722D01*
X142120366Y-75713163D01*
X142114291Y-75760942D01*
X142112246Y-75796159D01*
X142094827Y-75822156D01*
X142047565Y-75827667D01*
X142045099Y-75827668D01*
X142008187Y-75829989D01*
X141989084Y-75844141D01*
X141981924Y-75881008D01*
X141980840Y-75951473D01*
X141980841Y-75953841D01*
X141981987Y-76023139D01*
X141988984Y-76058472D01*
X142007201Y-76070090D01*
X142042005Y-76068242D01*
X142052204Y-76066844D01*
X142094278Y-76047678D01*
X142110207Y-76000040D01*
X142111880Y-75988025D01*
X142129512Y-75949103D01*
X142171372Y-75938875D01*
X142193048Y-75938813D01*
X142208907Y-75942936D01*
X142219206Y-75957959D01*
X142225139Y-75990599D01*
X142227900Y-76047572D01*
X142228681Y-76135593D01*
X142228676Y-76261380D01*
X142228693Y-76385168D01*
X142227945Y-76473861D01*
X142225207Y-76531373D01*
X142219257Y-76564417D01*
X142208871Y-76579708D01*
X142192825Y-76583959D01*
X142169895Y-76583884D01*
X142149636Y-76583225D01*
X142129720Y-76576351D01*
X142117760Y-76555610D01*
X142111979Y-76513350D01*
X142110604Y-76441919D01*
X142111860Y-76333665D01*
X142112054Y-76320782D01*
X142111650Y-76254404D01*
X142104330Y-76220250D01*
X142084691Y-76207609D01*
X142047330Y-76205775D01*
X141980840Y-76205775D01*
X141980840Y-76394830D01*
X141980840Y-76583884D01*
X141858511Y-76583884D01*
X141854661Y-76583884D01*
X141786400Y-76585106D01*
X141751201Y-76592831D01*
X141738112Y-76613183D01*
X141736182Y-76652285D01*
X141596229Y-76652285D01*
X141598649Y-76645049D01*
X141605687Y-76583884D01*
X141415155Y-76583884D01*
X141224623Y-76583884D01*
X141224623Y-76650609D01*
X141225951Y-76679625D01*
X141240489Y-76710153D01*
X141280227Y-76717334D01*
X141290474Y-76717569D01*
X141326645Y-76730612D01*
X141335832Y-76772938D01*
X141334238Y-76797118D01*
X141316793Y-76822558D01*
X141269107Y-76828543D01*
X141240091Y-76827215D01*
X141209563Y-76812677D01*
X141202382Y-76772938D01*
X141200377Y-76745168D01*
X141186593Y-76726406D01*
X141150113Y-76718777D01*
X141080052Y-76717334D01*
X140957723Y-76717334D01*
X140824095Y-76717334D01*
X140824273Y-76706213D01*
X140824273Y-76704343D01*
X140825462Y-76635218D01*
X140832998Y-76599400D01*
X140852852Y-76585938D01*
X140890998Y-76583884D01*
X140926215Y-76581840D01*
X140952212Y-76564420D01*
X140957723Y-76517159D01*
X140955679Y-76481942D01*
X140938259Y-76455945D01*
X140890998Y-76450434D01*
X140861982Y-76449106D01*
X140831454Y-76434568D01*
X140824273Y-76394830D01*
X140957723Y-76394830D01*
X140959317Y-76419010D01*
X140976762Y-76444449D01*
X141024448Y-76450434D01*
X141059665Y-76452478D01*
X141085662Y-76469898D01*
X141091173Y-76517159D01*
X141092501Y-76546175D01*
X141107039Y-76576703D01*
X141146777Y-76583884D01*
X141170957Y-76582291D01*
X141196397Y-76564845D01*
X141202382Y-76517159D01*
X141201054Y-76488143D01*
X141186516Y-76457615D01*
X141146777Y-76450434D01*
X141136530Y-76450199D01*
X141100360Y-76437156D01*
X141091173Y-76394830D01*
X141089580Y-76370650D01*
X141072135Y-76345210D01*
X141024448Y-76339226D01*
X140995432Y-76340553D01*
X140964905Y-76355091D01*
X140957723Y-76394830D01*
X140824273Y-76394830D01*
X140822680Y-76370650D01*
X140805234Y-76345210D01*
X140757548Y-76339226D01*
X140722331Y-76337181D01*
X140696334Y-76319762D01*
X140690823Y-76272500D01*
X140691468Y-76261380D01*
X141339876Y-76261380D01*
X141339876Y-76450434D01*
X141526908Y-76450434D01*
X141605687Y-76450434D01*
X141713940Y-76450434D01*
X141713940Y-76261380D01*
X141713940Y-76072325D01*
X141526908Y-76072325D01*
X141339876Y-76072325D01*
X141339876Y-76261380D01*
X140691468Y-76261380D01*
X140692867Y-76237283D01*
X140710287Y-76211287D01*
X140757548Y-76205775D01*
X140824273Y-76205775D01*
X140824273Y-76072325D01*
X140824273Y-76004123D01*
X140957723Y-76004123D01*
X140959962Y-76041602D01*
X140977536Y-76066997D01*
X141024448Y-76072325D01*
X141059665Y-76074369D01*
X141085662Y-76091789D01*
X141091173Y-76139050D01*
X141092501Y-76168066D01*
X141107039Y-76198594D01*
X141146777Y-76205775D01*
X141170957Y-76204182D01*
X141196397Y-76186737D01*
X141202382Y-76139050D01*
X141201161Y-76111161D01*
X141187013Y-76079815D01*
X141148255Y-76072325D01*
X141137584Y-76071998D01*
X141101431Y-76057134D01*
X141087090Y-76011161D01*
X141085692Y-76000962D01*
X141066525Y-75958888D01*
X141018888Y-75942958D01*
X140984339Y-75941398D01*
X140962296Y-75956903D01*
X140957723Y-76004123D01*
X140824273Y-76004123D01*
X140824273Y-75938875D01*
X140757548Y-75938875D01*
X140756528Y-75938875D01*
X140718823Y-75936695D01*
X140699286Y-75922880D01*
X140691943Y-75886480D01*
X140690823Y-75816546D01*
X140690823Y-75814675D01*
X140692012Y-75745551D01*
X140699548Y-75709733D01*
X140719402Y-75696271D01*
X140757548Y-75694217D01*
X140775014Y-75694804D01*
X140807080Y-75704355D01*
X140823992Y-75732309D01*
X140828901Y-75787237D01*
X140824954Y-75877711D01*
X140825081Y-75911085D01*
X140841670Y-75933997D01*
X140889322Y-75938875D01*
X140891475Y-75938875D01*
X140929643Y-75936690D01*
X140949325Y-75922874D01*
X140956644Y-75886476D01*
X140957723Y-75816546D01*
X140957723Y-75814675D01*
X140958912Y-75745551D01*
X140966448Y-75709733D01*
X140984339Y-75697603D01*
X140986303Y-75696271D01*
X141024448Y-75694217D01*
X141025468Y-75694217D01*
X141063173Y-75696397D01*
X141082710Y-75710212D01*
X141090053Y-75746612D01*
X141091173Y-75816546D01*
X141092084Y-75877640D01*
X141098350Y-75918916D01*
X141114932Y-75935700D01*
X141146777Y-75938875D01*
X141170957Y-75937282D01*
X141196397Y-75919837D01*
X141202382Y-75872150D01*
X141204426Y-75836933D01*
X141221845Y-75810936D01*
X141269107Y-75805425D01*
X141304324Y-75807469D01*
X141330320Y-75824889D01*
X141335832Y-75872150D01*
X141335832Y-75938875D01*
X141339876Y-75938875D01*
X141524886Y-75938875D01*
X141615711Y-75938379D01*
X141671897Y-75935161D01*
X141701126Y-75926630D01*
X141712204Y-75910197D01*
X141713940Y-75883271D01*
X141711936Y-75855501D01*
X141698151Y-75836739D01*
X141661672Y-75829110D01*
X141591611Y-75827667D01*
X141589740Y-75827667D01*
X141520616Y-75826478D01*
X141484798Y-75818942D01*
X141471336Y-75799087D01*
X141469282Y-75760942D01*
X141469282Y-75749821D01*
X141736182Y-75749821D01*
X141738186Y-75777591D01*
X141751971Y-75796353D01*
X141788451Y-75803982D01*
X141858511Y-75805425D01*
X141917833Y-75804561D01*
X141960081Y-75798468D01*
X141977461Y-75782316D01*
X141980840Y-75751298D01*
X141981168Y-75740628D01*
X141996032Y-75704474D01*
X142042005Y-75690134D01*
X142085347Y-75676839D01*
X142109668Y-75637697D01*
X142110427Y-75600598D01*
X142092711Y-75575504D01*
X142047342Y-75563710D01*
X141966013Y-75560767D01*
X141900276Y-75561803D01*
X141863484Y-75569100D01*
X141849561Y-75588912D01*
X141847390Y-75627492D01*
X141846062Y-75656508D01*
X141831525Y-75687035D01*
X141791786Y-75694217D01*
X141781539Y-75694452D01*
X141745368Y-75707495D01*
X141736182Y-75749821D01*
X141469282Y-75749821D01*
X141469282Y-75694217D01*
X141335832Y-75694217D01*
X141202382Y-75694217D01*
X141202382Y-75628969D01*
X141469282Y-75628969D01*
X141471448Y-75667244D01*
X141487627Y-75689962D01*
X141530446Y-75690134D01*
X141573788Y-75676839D01*
X141598110Y-75637697D01*
X141599148Y-75603947D01*
X141577509Y-75570523D01*
X141521179Y-75560767D01*
X141499588Y-75562356D01*
X141475205Y-75580352D01*
X141469282Y-75628969D01*
X141202382Y-75628969D01*
X141202382Y-75560767D01*
X141202382Y-75427317D01*
X141269107Y-75427317D01*
X141298123Y-75425989D01*
X141328650Y-75411451D01*
X141335832Y-75371712D01*
X141469282Y-75371712D01*
X141470875Y-75395892D01*
X141488320Y-75421332D01*
X141521179Y-75425456D01*
X141536007Y-75427317D01*
X141565023Y-75425989D01*
X141595550Y-75411451D01*
X141602732Y-75371712D01*
X141601138Y-75347532D01*
X141583693Y-75322093D01*
X141536007Y-75316108D01*
X141506991Y-75317436D01*
X141476463Y-75331974D01*
X141469282Y-75371712D01*
X141335832Y-75371712D01*
X141333828Y-75343943D01*
X141320043Y-75325180D01*
X141283563Y-75317552D01*
X141213502Y-75316108D01*
X141211632Y-75316108D01*
X141142508Y-75314919D01*
X141106689Y-75307383D01*
X141093227Y-75287529D01*
X141091173Y-75249383D01*
X141089129Y-75214166D01*
X141071709Y-75188169D01*
X141024448Y-75182658D01*
X140989231Y-75184702D01*
X140963234Y-75202122D01*
X140957723Y-75249383D01*
X140955679Y-75284600D01*
X140938259Y-75310597D01*
X140890998Y-75316108D01*
X140861982Y-75317436D01*
X140831454Y-75331974D01*
X140824273Y-75371712D01*
X140825866Y-75395892D01*
X140843312Y-75421332D01*
X140890998Y-75427317D01*
X140926215Y-75429361D01*
X140952212Y-75446780D01*
X140957723Y-75494042D01*
X140955679Y-75529259D01*
X140938259Y-75555255D01*
X140890998Y-75560767D01*
X140855781Y-75558723D01*
X140829784Y-75541303D01*
X140824273Y-75494042D01*
X140822229Y-75458824D01*
X140804809Y-75432828D01*
X140757548Y-75427317D01*
X140756528Y-75427316D01*
X140718823Y-75425136D01*
X140699286Y-75411321D01*
X140691943Y-75374921D01*
X140690823Y-75304987D01*
X140690823Y-75303117D01*
X140692012Y-75233992D01*
X140699548Y-75198174D01*
X140719402Y-75184712D01*
X140757548Y-75182658D01*
X140824273Y-75182658D01*
X140824273Y-75049208D01*
X140824273Y-75022592D01*
X140960246Y-75022592D01*
X140975751Y-75044636D01*
X141022971Y-75049208D01*
X141060450Y-75051447D01*
X141085844Y-75069021D01*
X141091173Y-75115933D01*
X141091173Y-75182658D01*
X141346953Y-75182658D01*
X141536007Y-75182658D01*
X141602732Y-75182658D01*
X141602732Y-75238262D01*
X141604325Y-75262442D01*
X141621770Y-75287882D01*
X141669457Y-75293866D01*
X141704674Y-75295911D01*
X141730671Y-75313330D01*
X141736182Y-75360592D01*
X141737510Y-75389608D01*
X141752047Y-75420135D01*
X141791786Y-75427317D01*
X141815966Y-75425723D01*
X141841406Y-75408278D01*
X141845995Y-75371712D01*
X142114291Y-75371712D01*
X142116295Y-75399482D01*
X142130079Y-75418244D01*
X142166559Y-75425873D01*
X142236620Y-75427317D01*
X142297713Y-75426406D01*
X142338990Y-75420140D01*
X142355774Y-75403558D01*
X142358949Y-75371712D01*
X142356945Y-75343943D01*
X142343160Y-75325180D01*
X142306680Y-75317552D01*
X142236620Y-75316108D01*
X142175526Y-75317019D01*
X142134249Y-75323285D01*
X142117466Y-75339867D01*
X142114291Y-75371712D01*
X141845995Y-75371712D01*
X141847390Y-75360592D01*
X141849434Y-75325374D01*
X141866854Y-75299378D01*
X141914115Y-75293866D01*
X141943131Y-75292539D01*
X141966013Y-75281642D01*
X141973659Y-75278001D01*
X141980840Y-75238262D01*
X141982845Y-75210492D01*
X141996629Y-75191730D01*
X142033109Y-75184101D01*
X142103170Y-75182658D01*
X142105040Y-75182658D01*
X142174165Y-75181469D01*
X142209983Y-75173933D01*
X142223445Y-75154079D01*
X142225499Y-75115933D01*
X142223457Y-75077886D01*
X142209977Y-75057899D01*
X142174046Y-75050367D01*
X142104647Y-75049208D01*
X142043419Y-75048247D01*
X142002105Y-75041456D01*
X141983772Y-75023247D01*
X141976757Y-74988043D01*
X141975825Y-74982483D01*
X142625849Y-74982483D01*
X142627177Y-75011499D01*
X142641715Y-75042027D01*
X142681453Y-75049208D01*
X142705633Y-75047615D01*
X142731073Y-75030169D01*
X142737058Y-74982483D01*
X142735730Y-74953467D01*
X142721192Y-74922939D01*
X142681453Y-74915758D01*
X142657273Y-74917351D01*
X142631834Y-74934796D01*
X142625849Y-74982483D01*
X141975825Y-74982483D01*
X141972210Y-74960917D01*
X141957154Y-74937492D01*
X141921358Y-74926489D01*
X141852951Y-74921533D01*
X141787818Y-74919522D01*
X141751673Y-74925028D01*
X141738190Y-74944133D01*
X141736182Y-74982697D01*
X141736182Y-75049208D01*
X141415155Y-75049208D01*
X141094128Y-75049208D01*
X141087090Y-74988043D01*
X141085159Y-74974470D01*
X141067224Y-74936659D01*
X141024448Y-74926879D01*
X141012062Y-74927285D01*
X140975969Y-74942228D01*
X140961806Y-74988043D01*
X140960246Y-75022592D01*
X140824273Y-75022592D01*
X140824273Y-74915758D01*
X140890998Y-74915758D01*
X140920014Y-74914430D01*
X140950542Y-74899892D01*
X140957723Y-74860154D01*
X141469282Y-74860154D01*
X141470875Y-74884334D01*
X141488320Y-74909773D01*
X141536007Y-74915758D01*
X141565023Y-74914430D01*
X141595550Y-74899892D01*
X141602732Y-74860154D01*
X141601138Y-74835974D01*
X141583693Y-74810534D01*
X141536007Y-74804550D01*
X141506991Y-74805877D01*
X141476463Y-74820415D01*
X141469282Y-74860154D01*
X140957723Y-74860154D01*
X140957720Y-74858205D01*
X140954511Y-74828202D01*
X140938164Y-74812160D01*
X140898233Y-74805727D01*
X140824273Y-74804550D01*
X140690823Y-74804550D01*
X140690823Y-74604374D01*
X140690823Y-74537649D01*
X140955503Y-74537649D01*
X140962174Y-74665539D01*
X140966668Y-74731135D01*
X140975384Y-74772827D01*
X140992919Y-74790049D01*
X141024448Y-74793429D01*
X141053097Y-74790959D01*
X141072008Y-74775915D01*
X141081449Y-74737824D01*
X141736182Y-74737824D01*
X141737510Y-74766841D01*
X141752047Y-74797368D01*
X141787818Y-74803833D01*
X141791786Y-74804550D01*
X141815966Y-74802956D01*
X141829859Y-74793429D01*
X141980840Y-74793429D01*
X141980840Y-74915758D01*
X142103170Y-74915758D01*
X142164263Y-74914847D01*
X142205540Y-74908581D01*
X142222323Y-74891999D01*
X142225499Y-74860154D01*
X142225264Y-74849907D01*
X142212221Y-74813736D01*
X142169895Y-74804550D01*
X142145715Y-74802956D01*
X142120275Y-74785511D01*
X142114291Y-74737824D01*
X142112246Y-74702607D01*
X142094827Y-74676611D01*
X142047565Y-74671099D01*
X142046545Y-74671100D01*
X142008841Y-74673280D01*
X141989304Y-74687095D01*
X141981961Y-74723495D01*
X141980840Y-74793429D01*
X141829859Y-74793429D01*
X141841406Y-74785511D01*
X141847390Y-74737824D01*
X141846062Y-74708808D01*
X141831525Y-74678281D01*
X141791786Y-74671099D01*
X141767606Y-74672693D01*
X141742166Y-74690138D01*
X141736182Y-74737824D01*
X141081449Y-74737824D01*
X141081492Y-74737651D01*
X141086723Y-74665539D01*
X141093393Y-74537649D01*
X141024448Y-74537649D01*
X140955503Y-74537649D01*
X140690823Y-74537649D01*
X140690823Y-74404199D01*
X140890998Y-74404199D01*
X140955503Y-74404199D01*
X141091173Y-74404199D01*
X141091173Y-74470924D01*
X141093217Y-74506141D01*
X141110637Y-74532138D01*
X141157898Y-74537649D01*
X141193115Y-74539693D01*
X141219112Y-74557113D01*
X141224623Y-74604374D01*
X141224623Y-74671099D01*
X141469282Y-74671099D01*
X141536007Y-74671099D01*
X141713940Y-74671099D01*
X141713940Y-74604374D01*
X141713940Y-74537649D01*
X141524886Y-74537649D01*
X141335832Y-74537649D01*
X141335832Y-74470924D01*
X141335832Y-74404199D01*
X141591611Y-74404199D01*
X141791786Y-74404199D01*
X141847390Y-74404199D01*
X141847390Y-74348595D01*
X141845797Y-74324415D01*
X141828352Y-74298975D01*
X141780665Y-74292991D01*
X141745448Y-74290947D01*
X141719451Y-74273527D01*
X141713940Y-74226266D01*
X141715984Y-74191049D01*
X141733404Y-74165052D01*
X141780665Y-74159541D01*
X141815882Y-74157497D01*
X141841879Y-74140077D01*
X141847390Y-74092816D01*
X141845346Y-74057599D01*
X141827927Y-74031602D01*
X141780665Y-74026091D01*
X141713940Y-74026091D01*
X141713940Y-73970486D01*
X141847390Y-73970486D01*
X141848984Y-73994667D01*
X141866429Y-74020106D01*
X141914115Y-74026091D01*
X141949333Y-74028135D01*
X141975329Y-74045554D01*
X141980840Y-74092816D01*
X141978552Y-74129483D01*
X141960589Y-74154327D01*
X141912638Y-74159541D01*
X141874363Y-74161707D01*
X141851645Y-74177886D01*
X141851473Y-74220705D01*
X141852872Y-74230904D01*
X141872038Y-74272978D01*
X141919676Y-74288908D01*
X141950608Y-74294366D01*
X141971122Y-74310144D01*
X141979340Y-74347067D01*
X141980840Y-74416797D01*
X141981968Y-74485708D01*
X141989410Y-74521908D01*
X142009249Y-74535550D01*
X142047565Y-74537649D01*
X142082783Y-74535605D01*
X142108779Y-74518186D01*
X142114291Y-74470924D01*
X142115618Y-74441908D01*
X142130156Y-74411381D01*
X142169895Y-74404199D01*
X142197665Y-74402195D01*
X142216427Y-74388410D01*
X142224056Y-74351931D01*
X142225499Y-74281870D01*
X142224588Y-74220776D01*
X142218322Y-74179500D01*
X142201740Y-74162716D01*
X142169895Y-74159541D01*
X142145715Y-74161134D01*
X142120275Y-74178579D01*
X142114291Y-74226266D01*
X142112246Y-74261483D01*
X142094827Y-74287480D01*
X142047565Y-74292991D01*
X142012997Y-74291034D01*
X141986524Y-74273994D01*
X141980840Y-74227743D01*
X141981981Y-74202265D01*
X141997636Y-74168228D01*
X142042005Y-74155458D01*
X142055578Y-74153526D01*
X142093390Y-74135591D01*
X142103170Y-74092816D01*
X142102763Y-74080430D01*
X142087820Y-74044336D01*
X142042005Y-74030174D01*
X142029990Y-74028502D01*
X141991068Y-74010869D01*
X141980840Y-73969009D01*
X141979335Y-73946386D01*
X141961895Y-73920958D01*
X141914115Y-73914882D01*
X141885099Y-73916210D01*
X141854572Y-73930748D01*
X141847390Y-73970486D01*
X141713940Y-73970486D01*
X141713940Y-73903761D01*
X142114291Y-73903761D01*
X142115201Y-73964855D01*
X142121467Y-74006132D01*
X142138049Y-74022915D01*
X142169895Y-74026091D01*
X142197665Y-74024087D01*
X142216427Y-74010302D01*
X142224056Y-73973822D01*
X142225499Y-73903761D01*
X142224588Y-73842668D01*
X142218322Y-73801391D01*
X142201740Y-73784608D01*
X142169895Y-73781432D01*
X142142125Y-73783436D01*
X142123363Y-73797221D01*
X142115734Y-73833701D01*
X142114291Y-73903761D01*
X141713940Y-73903761D01*
X141713940Y-73837036D01*
X141713940Y-73709147D01*
X141851473Y-73709147D01*
X141853405Y-73722720D01*
X141871340Y-73760531D01*
X141914115Y-73770311D01*
X141926501Y-73769905D01*
X141962595Y-73754962D01*
X141976757Y-73709147D01*
X141982215Y-73678214D01*
X141997994Y-73657700D01*
X142034917Y-73649482D01*
X142104647Y-73647982D01*
X142169895Y-73646927D01*
X142172422Y-73646886D01*
X142209250Y-73639622D01*
X142223272Y-73620253D01*
X142225499Y-73582846D01*
X142223327Y-73545645D01*
X142209513Y-73526240D01*
X142173109Y-73518870D01*
X142103170Y-73517709D01*
X142033305Y-73518866D01*
X141996861Y-73526222D01*
X141983021Y-73545605D01*
X141980840Y-73582846D01*
X141978598Y-73617981D01*
X141960628Y-73642718D01*
X141912638Y-73647982D01*
X141874363Y-73650148D01*
X141851645Y-73666328D01*
X141851473Y-73709147D01*
X141713940Y-73709147D01*
X141713940Y-73647982D01*
X141780665Y-73647982D01*
X141847390Y-73647982D01*
X141847390Y-73514532D01*
X141847390Y-73381082D01*
X142036445Y-73381082D01*
X142103170Y-73381082D01*
G37*
D14*
%TO.C,R1*%
X124747064Y-70597500D02*
X124292936Y-70597500D01*
X124747064Y-72067500D02*
X124292936Y-72067500D01*
%TO.C,C2*%
X74120000Y-61671252D02*
X74120000Y-61148748D01*
X75590000Y-61671252D02*
X75590000Y-61148748D01*
%TO.C,R2*%
X127255000Y-72449564D02*
X127255000Y-71995436D01*
X128725000Y-72449564D02*
X128725000Y-71995436D01*
%TO.C,C1*%
X138052500Y-70453767D02*
X138052500Y-70161233D01*
X139072500Y-70453767D02*
X139072500Y-70161233D01*
%TO.C,C2*%
X100495000Y-51566248D02*
X100495000Y-52088752D01*
X101965000Y-51566248D02*
X101965000Y-52088752D01*
%TO.C,C1*%
X67295000Y-61721252D02*
X67295000Y-61198748D01*
X68765000Y-61721252D02*
X68765000Y-61198748D01*
%TO.C,C12*%
X130181267Y-134812506D02*
X129888733Y-134812506D01*
X130181267Y-135832506D02*
X129888733Y-135832506D01*
%TO.C,C2*%
X136550000Y-80888748D02*
X136550000Y-82311252D01*
X139270000Y-80888748D02*
X139270000Y-82311252D01*
%TO.C,U3*%
X121600000Y-76092500D02*
X121600000Y-74142500D01*
X121600000Y-76092500D02*
X121600000Y-78042500D01*
X126720000Y-76092500D02*
X126720000Y-74142500D01*
X126720000Y-76092500D02*
X126720000Y-79542500D01*
%TO.C,C5*%
X127265000Y-77333752D02*
X127265000Y-76811248D01*
X128735000Y-77333752D02*
X128735000Y-76811248D01*
%TD*%
M02*
