%TF.GenerationSoftware,KiCad,Pcbnew,8.0.3*%
%TF.CreationDate,2024-09-09T16:29:24+03:00*%
%TF.ProjectId,JLC7,4a4c4337-2e6b-4696-9361-645f70636258,rev?*%
%TF.SameCoordinates,Original*%
%TF.FileFunction,Soldermask,Top*%
%TF.FilePolarity,Negative*%
%FSLAX46Y46*%
G04 Gerber Fmt 4.6, Leading zero omitted, Abs format (unit mm)*
G04 Created by KiCad (PCBNEW 8.0.3) date 2024-09-09 16:29:24*
%MOMM*%
%LPD*%
G01*
G04 APERTURE LIST*
G04 Aperture macros list*
%AMRoundRect*
0 Rectangle with rounded corners*
0 $1 Rounding radius*
0 $2 $3 $4 $5 $6 $7 $8 $9 X,Y pos of 4 corners*
0 Add a 4 corners polygon primitive as box body*
4,1,4,$2,$3,$4,$5,$6,$7,$8,$9,$2,$3,0*
0 Add four circle primitives for the rounded corners*
1,1,$1+$1,$2,$3*
1,1,$1+$1,$4,$5*
1,1,$1+$1,$6,$7*
1,1,$1+$1,$8,$9*
0 Add four rect primitives between the rounded corners*
20,1,$1+$1,$2,$3,$4,$5,0*
20,1,$1+$1,$4,$5,$6,$7,0*
20,1,$1+$1,$6,$7,$8,$9,0*
20,1,$1+$1,$8,$9,$2,$3,0*%
%AMRotRect*
0 Rectangle, with rotation*
0 The origin of the aperture is its center*
0 $1 length*
0 $2 width*
0 $3 Rotation angle, in degrees counterclockwise*
0 Add horizontal line*
21,1,$1,$2,0,0,$3*%
%AMFreePoly0*
4,1,19,0.500000,-0.750000,0.000000,-0.750000,0.000000,-0.744911,-0.071157,-0.744911,-0.207708,-0.704816,-0.327430,-0.627875,-0.420627,-0.520320,-0.479746,-0.390866,-0.500000,-0.250000,-0.500000,0.250000,-0.479746,0.390866,-0.420627,0.520320,-0.327430,0.627875,-0.207708,0.704816,-0.071157,0.744911,0.000000,0.744911,0.000000,0.750000,0.500000,0.750000,0.500000,-0.750000,0.500000,-0.750000,
$1*%
%AMFreePoly1*
4,1,19,0.000000,0.744911,0.071157,0.744911,0.207708,0.704816,0.327430,0.627875,0.420627,0.520320,0.479746,0.390866,0.500000,0.250000,0.500000,-0.250000,0.479746,-0.390866,0.420627,-0.520320,0.327430,-0.627875,0.207708,-0.704816,0.071157,-0.744911,0.000000,-0.744911,0.000000,-0.750000,-0.500000,-0.750000,-0.500000,0.750000,0.000000,0.750000,0.000000,0.744911,0.000000,0.744911,
$1*%
G04 Aperture macros list end*
%ADD10RoundRect,0.237500X0.044194X0.380070X-0.380070X-0.044194X-0.044194X-0.380070X0.380070X0.044194X0*%
%ADD11RoundRect,0.237500X-0.237500X0.300000X-0.237500X-0.300000X0.237500X-0.300000X0.237500X0.300000X0*%
%ADD12RoundRect,0.237500X0.250000X0.237500X-0.250000X0.237500X-0.250000X-0.237500X0.250000X-0.237500X0*%
%ADD13RoundRect,0.250000X-0.625000X0.400000X-0.625000X-0.400000X0.625000X-0.400000X0.625000X0.400000X0*%
%ADD14RoundRect,0.375000X-0.625000X-0.375000X0.625000X-0.375000X0.625000X0.375000X-0.625000X0.375000X0*%
%ADD15RoundRect,0.500000X-0.500000X-1.400000X0.500000X-1.400000X0.500000X1.400000X-0.500000X1.400000X0*%
%ADD16R,1.700000X1.700000*%
%ADD17O,1.700000X1.700000*%
%ADD18RoundRect,0.200000X-0.275000X0.200000X-0.275000X-0.200000X0.275000X-0.200000X0.275000X0.200000X0*%
%ADD19RoundRect,0.237500X-0.344715X0.008839X0.008839X-0.344715X0.344715X-0.008839X-0.008839X0.344715X0*%
%ADD20RoundRect,0.200000X0.275000X-0.200000X0.275000X0.200000X-0.275000X0.200000X-0.275000X-0.200000X0*%
%ADD21RoundRect,0.237500X0.237500X-0.287500X0.237500X0.287500X-0.237500X0.287500X-0.237500X-0.287500X0*%
%ADD22RoundRect,0.237500X0.237500X-0.250000X0.237500X0.250000X-0.237500X0.250000X-0.237500X-0.250000X0*%
%ADD23C,2.200000*%
%ADD24R,0.400000X1.900000*%
%ADD25RotRect,0.508000X1.473200X135.000000*%
%ADD26RotRect,0.508000X1.473200X45.000000*%
%ADD27R,2.500000X2.500000*%
%ADD28O,2.500000X2.500000*%
%ADD29RoundRect,0.237500X0.380070X-0.044194X-0.044194X0.380070X-0.380070X0.044194X0.044194X-0.380070X0*%
%ADD30RoundRect,0.237500X-0.237500X0.287500X-0.237500X-0.287500X0.237500X-0.287500X0.237500X0.287500X0*%
%ADD31RoundRect,0.237500X0.008839X0.344715X-0.344715X-0.008839X-0.008839X-0.344715X0.344715X0.008839X0*%
%ADD32R,1.000000X1.000000*%
%ADD33RoundRect,0.237500X-0.250000X-0.237500X0.250000X-0.237500X0.250000X0.237500X-0.250000X0.237500X0*%
%ADD34R,1.000000X0.500000*%
%ADD35R,0.500000X0.800000*%
%ADD36R,0.500000X1.000000*%
%ADD37R,0.800000X0.500000*%
%ADD38R,1.500000X1.000000*%
%ADD39R,3.700000X2.200000*%
%ADD40R,1.800000X1.000000*%
%ADD41RoundRect,0.250000X0.412500X1.100000X-0.412500X1.100000X-0.412500X-1.100000X0.412500X-1.100000X0*%
%ADD42R,2.000000X2.000000*%
%ADD43C,2.000000*%
%ADD44R,1.000000X1.500000*%
%ADD45R,2.200000X3.700000*%
%ADD46R,1.000000X1.800000*%
%ADD47RoundRect,0.250000X-0.337500X-0.475000X0.337500X-0.475000X0.337500X0.475000X-0.337500X0.475000X0*%
%ADD48O,3.500000X3.500000*%
%ADD49R,2.000000X1.905000*%
%ADD50O,2.000000X1.905000*%
%ADD51RoundRect,0.237500X-0.380070X0.044194X0.044194X-0.380070X0.380070X-0.044194X-0.044194X0.380070X0*%
%ADD52RoundRect,0.237500X-0.044194X-0.380070X0.380070X0.044194X0.044194X0.380070X-0.380070X-0.044194X0*%
%ADD53C,0.650000*%
%ADD54R,0.600000X1.450000*%
%ADD55R,0.300000X1.450000*%
%ADD56O,1.000000X2.100000*%
%ADD57O,1.000000X1.600000*%
%ADD58RoundRect,0.250000X-0.312500X-0.625000X0.312500X-0.625000X0.312500X0.625000X-0.312500X0.625000X0*%
%ADD59R,0.990600X2.006600*%
%ADD60R,1.295400X0.990600*%
%ADD61R,3.000000X2.000000*%
%ADD62O,3.000000X2.000000*%
%ADD63RoundRect,0.250000X0.625000X-0.312500X0.625000X0.312500X-0.625000X0.312500X-0.625000X-0.312500X0*%
%ADD64RoundRect,0.237500X-0.008839X-0.344715X0.344715X0.008839X0.008839X0.344715X-0.344715X-0.008839X0*%
%ADD65RotRect,0.400000X1.900000X45.000000*%
%ADD66RoundRect,0.250000X0.337500X0.475000X-0.337500X0.475000X-0.337500X-0.475000X0.337500X-0.475000X0*%
%ADD67RoundRect,0.250000X0.250000X0.475000X-0.250000X0.475000X-0.250000X-0.475000X0.250000X-0.475000X0*%
%ADD68R,3.200000X2.000000*%
%ADD69C,2.100000*%
%ADD70FreePoly0,0.000000*%
%ADD71FreePoly1,0.000000*%
%ADD72RoundRect,0.250000X-1.100000X0.412500X-1.100000X-0.412500X1.100000X-0.412500X1.100000X0.412500X0*%
%ADD73RoundRect,0.237500X-0.300000X-0.237500X0.300000X-0.237500X0.300000X0.237500X-0.300000X0.237500X0*%
%ADD74RoundRect,0.049600X0.260400X-0.605400X0.260400X0.605400X-0.260400X0.605400X-0.260400X-0.605400X0*%
%ADD75R,1.300000X1.550000*%
%ADD76O,2.200000X3.500000*%
%ADD77R,1.500000X2.500000*%
%ADD78O,1.500000X2.500000*%
%ADD79RoundRect,0.250000X-0.350000X-0.450000X0.350000X-0.450000X0.350000X0.450000X-0.350000X0.450000X0*%
%ADD80R,1.450000X0.600000*%
%ADD81R,1.450000X0.300000*%
%ADD82O,2.100000X1.000000*%
%ADD83O,1.600000X1.000000*%
%ADD84RoundRect,0.237500X0.300000X0.237500X-0.300000X0.237500X-0.300000X-0.237500X0.300000X-0.237500X0*%
%ADD85RoundRect,0.049600X-0.260400X0.605400X-0.260400X-0.605400X0.260400X-0.605400X0.260400X0.605400X0*%
%ADD86RoundRect,0.237500X0.237500X-0.300000X0.237500X0.300000X-0.237500X0.300000X-0.237500X-0.300000X0*%
%ADD87RoundRect,0.250000X0.325000X0.450000X-0.325000X0.450000X-0.325000X-0.450000X0.325000X-0.450000X0*%
G04 APERTURE END LIST*
D10*
%TO.C,C9*%
X143407464Y-121351068D03*
X142187704Y-122570828D03*
%TD*%
D11*
%TO.C,C4*%
X63465000Y-61780000D03*
X63465000Y-63505000D03*
%TD*%
D12*
%TO.C,R1*%
X65297500Y-54992500D03*
X63472500Y-54992500D03*
%TD*%
D13*
%TO.C,R3*%
X94826320Y-143281180D03*
X94826320Y-146381180D03*
%TD*%
D14*
%TO.C,U4*%
X106110000Y-88127500D03*
X106110000Y-90427500D03*
D15*
X112410000Y-90427500D03*
D14*
X106110000Y-92727500D03*
%TD*%
D16*
%TO.C,FAN2*%
X96255000Y-70975000D03*
D17*
X96255000Y-73515000D03*
%TD*%
D18*
%TO.C,R5*%
X98035000Y-56860000D03*
X98035000Y-58510000D03*
%TD*%
D16*
%TO.C,J6*%
X132220000Y-86852500D03*
D17*
X129680000Y-86852500D03*
%TD*%
D19*
%TO.C,R4*%
X132109765Y-120237271D03*
X133400235Y-121527741D03*
%TD*%
D20*
%TO.C,R5*%
X78050000Y-56377500D03*
X78050000Y-54727500D03*
%TD*%
D21*
%TO.C,D3*%
X132685000Y-106359282D03*
X132685000Y-104609282D03*
%TD*%
D22*
%TO.C,R3*%
X130975000Y-109921782D03*
X130975000Y-108096782D03*
%TD*%
D23*
%TO.C,REF\u002A\u002A*%
X115326320Y-146281180D03*
%TD*%
D16*
%TO.C,J6*%
X150095000Y-117002506D03*
D17*
X150095000Y-119542506D03*
X150095000Y-122082506D03*
X150095000Y-124622506D03*
X150095000Y-127162506D03*
X150095000Y-129702506D03*
%TD*%
D23*
%TO.C,REF\u002A\u002A*%
X115355000Y-114215000D03*
%TD*%
D24*
%TO.C,Y1*%
X68525000Y-52872500D03*
X67325000Y-52872500D03*
X66125000Y-52872500D03*
%TD*%
D25*
%TO.C,U1*%
X143073876Y-128283231D03*
X142517100Y-127726455D03*
X141942364Y-127151718D03*
X141385588Y-126594943D03*
X140810852Y-126020206D03*
X140254076Y-125463430D03*
X139697300Y-124906654D03*
X139122563Y-124331918D03*
X138565788Y-123775142D03*
X137991051Y-123200406D03*
X137434275Y-122643630D03*
D26*
X134955725Y-122643630D03*
X134398949Y-123200406D03*
X133824212Y-123775142D03*
X133267437Y-124331918D03*
X132692700Y-124906654D03*
X132135924Y-125463430D03*
X131579148Y-126020206D03*
X131004412Y-126594943D03*
X130447636Y-127151718D03*
X129872900Y-127726455D03*
X129316124Y-128283231D03*
D25*
X129316124Y-130761781D03*
X129872900Y-131318557D03*
X130447636Y-131893294D03*
X131004412Y-132450069D03*
X131579148Y-133024806D03*
X132135924Y-133581582D03*
X132692700Y-134138358D03*
X133267437Y-134713094D03*
X133824212Y-135269870D03*
X134398949Y-135844606D03*
X134955725Y-136401382D03*
D26*
X137434275Y-136401382D03*
X137991051Y-135844606D03*
X138565788Y-135269870D03*
X139122563Y-134713094D03*
X139697300Y-134138358D03*
X140254076Y-133581582D03*
X140810852Y-133024806D03*
X141385588Y-132450069D03*
X141942364Y-131893294D03*
X142517100Y-131318557D03*
X143073876Y-130761781D03*
%TD*%
D27*
%TO.C,J2*%
X86405000Y-70940000D03*
D28*
X86405000Y-75940000D03*
%TD*%
D16*
%TO.C,J3*%
X95465302Y-90120300D03*
D17*
X92925302Y-90120300D03*
X90385302Y-90120300D03*
X87845302Y-90120300D03*
X85305302Y-90120300D03*
X82765302Y-90120300D03*
%TD*%
D29*
%TO.C,C10*%
X145477464Y-119260828D03*
X144257704Y-118041068D03*
%TD*%
D24*
%TO.C,Y1*%
X107560000Y-60365000D03*
X108760000Y-60365000D03*
X109960000Y-60365000D03*
%TD*%
D23*
%TO.C,REF\u002A\u002A*%
X73350000Y-71225000D03*
%TD*%
%TO.C,REF\u002A\u002A*%
X61326320Y-146281180D03*
%TD*%
D16*
%TO.C,J5*%
X132105000Y-113242506D03*
D17*
X132105000Y-115782506D03*
X129565000Y-113242506D03*
X129565000Y-115782506D03*
X127025000Y-113242506D03*
X127025000Y-115782506D03*
%TD*%
D16*
%TO.C,REF\u002A\u002A*%
X91776320Y-121906180D03*
D17*
X94316320Y-121906180D03*
X96856320Y-121906180D03*
X99396320Y-121906180D03*
X101936320Y-121906180D03*
X104476320Y-121906180D03*
X107016320Y-121906180D03*
X109556320Y-121906180D03*
%TD*%
D21*
%TO.C,D1*%
X130975000Y-106371782D03*
X130975000Y-104621782D03*
%TD*%
D23*
%TO.C,REF\u002A\u002A*%
X61326320Y-122281180D03*
%TD*%
D30*
%TO.C,D1*%
X63455000Y-50257500D03*
X63455000Y-52007500D03*
%TD*%
D31*
%TO.C,R7*%
X140030235Y-117904047D03*
X138739765Y-119194517D03*
%TD*%
D32*
%TO.C,REF\u002A\u002A*%
X109520000Y-50485000D03*
%TD*%
%TO.C,REF\u002A\u002A*%
X105940000Y-50485000D03*
%TD*%
D33*
%TO.C,R1*%
X138612500Y-101012506D03*
X140437500Y-101012506D03*
%TD*%
D16*
%TO.C,FAN4*%
X105155000Y-70950000D03*
D17*
X105155000Y-73490000D03*
%TD*%
D34*
%TO.C,SW1*%
X148574765Y-108862271D03*
X148574765Y-107362271D03*
X148574765Y-104362271D03*
X148574765Y-102862271D03*
D35*
X149374765Y-100662271D03*
X151474765Y-100662271D03*
X151474765Y-111062271D03*
X149374765Y-111062271D03*
%TD*%
D32*
%TO.C,REF\u002A\u002A*%
X104150000Y-50485000D03*
%TD*%
D21*
%TO.C,D1*%
X112630000Y-62980000D03*
X112630000Y-61230000D03*
%TD*%
D23*
%TO.C,REF\u002A\u002A*%
X61355000Y-114215000D03*
%TD*%
D36*
%TO.C,SW1*%
X96940000Y-61675000D03*
X99940000Y-61675000D03*
X101440000Y-61675000D03*
D37*
X102640000Y-62475000D03*
X102640000Y-64575000D03*
X95740000Y-64575000D03*
X95740000Y-62475000D03*
%TD*%
D16*
%TO.C,J4*%
X59665000Y-62652500D03*
D17*
X59665000Y-60112500D03*
X59665000Y-57572500D03*
X59665000Y-55032500D03*
X59665000Y-52492500D03*
X59665000Y-49952500D03*
%TD*%
D38*
%TO.C,U3*%
X146697265Y-108858521D03*
D39*
X143797265Y-107358521D03*
D40*
X146547265Y-107358521D03*
D38*
X146697265Y-105858521D03*
%TD*%
D41*
%TO.C,C3*%
X146699765Y-111468521D03*
X143574765Y-111468521D03*
%TD*%
D32*
%TO.C,REF\u002A\u002A*%
X107730000Y-50485000D03*
%TD*%
D42*
%TO.C,LS1*%
X136357677Y-76612500D03*
D43*
X131357677Y-76612500D03*
%TD*%
D44*
%TO.C,U2*%
X147085000Y-97842506D03*
D45*
X148585000Y-94942506D03*
D46*
X148585000Y-97692506D03*
D44*
X150085000Y-97842506D03*
%TD*%
D16*
%TO.C,FAN3*%
X100730000Y-70950000D03*
D17*
X100730000Y-73490000D03*
%TD*%
D47*
%TO.C,C5*%
X75397500Y-62915000D03*
X77472500Y-62915000D03*
%TD*%
D13*
%TO.C,R2*%
X112955000Y-77800000D03*
X112955000Y-80900000D03*
%TD*%
D16*
%TO.C,TH1*%
X110730000Y-70950000D03*
D17*
X110730000Y-73490000D03*
%TD*%
D48*
%TO.C,Q1*%
X92920000Y-80900000D03*
D49*
X109580000Y-83440000D03*
D50*
X109580000Y-80900000D03*
X109580000Y-78360000D03*
%TD*%
D51*
%TO.C,C7*%
X144141111Y-132377450D03*
X145360871Y-133597210D03*
%TD*%
D16*
%TO.C,REF\u002A\u002A*%
X92405000Y-114540000D03*
D17*
X94945000Y-114540000D03*
X97485000Y-114540000D03*
X100025000Y-114540000D03*
X102565000Y-114540000D03*
X105105000Y-114540000D03*
X107645000Y-114540000D03*
X110185000Y-114540000D03*
%TD*%
D52*
%TO.C,C8*%
X141035120Y-121432386D03*
X142254880Y-120212626D03*
%TD*%
D32*
%TO.C,REF\u002A\u002A*%
X71935000Y-62752500D03*
%TD*%
D20*
%TO.C,R4*%
X98045000Y-53760000D03*
X98045000Y-52110000D03*
%TD*%
D27*
%TO.C,J4*%
X80455000Y-75990000D03*
D28*
X80455000Y-70990000D03*
%TD*%
D53*
%TO.C,J1*%
X139645000Y-97412506D03*
X133865000Y-97412506D03*
D54*
X140005000Y-98857506D03*
X139205000Y-98857506D03*
D55*
X138005000Y-98857506D03*
X137005000Y-98857506D03*
X136505000Y-98857506D03*
X135505000Y-98857506D03*
D54*
X133505000Y-98857506D03*
X134305000Y-98857506D03*
D55*
X135005000Y-98857506D03*
X136005000Y-98857506D03*
X137505000Y-98857506D03*
X138505000Y-98857506D03*
D56*
X141075000Y-97942506D03*
D57*
X141075000Y-93762506D03*
D56*
X132435000Y-97942506D03*
D57*
X132435000Y-93762506D03*
%TD*%
D31*
%TO.C,R8*%
X141176052Y-119052429D03*
X139885582Y-120342899D03*
%TD*%
D16*
%TO.C,J1*%
X138450000Y-86832500D03*
D17*
X135910000Y-86832500D03*
%TD*%
D58*
%TO.C,R4*%
X89297802Y-93295300D03*
X92222802Y-93295300D03*
%TD*%
D59*
%TO.C,U1*%
X85680002Y-110715002D03*
X87680001Y-110715002D03*
X89680002Y-110715002D03*
X91680000Y-110715002D03*
X93680002Y-110715002D03*
X95680000Y-110715002D03*
X97680001Y-110715002D03*
X99680000Y-110715002D03*
D60*
X101205001Y-108365001D03*
X101205001Y-106365000D03*
X101205001Y-104365002D03*
X101205001Y-102365000D03*
X101205001Y-100365002D03*
X101205001Y-98365001D03*
D59*
X99680000Y-96015000D03*
X97680001Y-96015000D03*
X95680000Y-96015000D03*
X93680002Y-96015000D03*
X91680000Y-96015000D03*
X89680002Y-96015000D03*
X87680001Y-96015000D03*
X85680000Y-96015000D03*
%TD*%
D41*
%TO.C,C1*%
X146699765Y-103238521D03*
X143574765Y-103238521D03*
%TD*%
D61*
%TO.C,U2*%
X74305000Y-75985000D03*
D62*
X74305000Y-81065000D03*
X74305000Y-88685000D03*
X74305000Y-91225000D03*
%TD*%
D16*
%TO.C,J4*%
X122345000Y-114482506D03*
D17*
X122345000Y-117022506D03*
X122345000Y-119562506D03*
X122345000Y-122102506D03*
X122345000Y-124642506D03*
X122345000Y-127182506D03*
X122345000Y-129722506D03*
X122345000Y-132262506D03*
X122345000Y-134802506D03*
X122345000Y-137342506D03*
X122345000Y-139882506D03*
X122345000Y-142422506D03*
X122345000Y-144962506D03*
X122345000Y-147502506D03*
%TD*%
D16*
%TO.C,J4*%
X116420000Y-50585000D03*
D17*
X116420000Y-53125000D03*
X116420000Y-55665000D03*
X116420000Y-58205000D03*
X116420000Y-60745000D03*
X116420000Y-63285000D03*
%TD*%
D63*
%TO.C,R1*%
X79485302Y-91132800D03*
X79485302Y-88207800D03*
%TD*%
D32*
%TO.C,REF\u002A\u002A*%
X68355000Y-62752500D03*
%TD*%
D64*
%TO.C,R5*%
X143497619Y-123933776D03*
X144788089Y-122643306D03*
%TD*%
D65*
%TO.C,Y1*%
X129326472Y-123801034D03*
X130175000Y-122952506D03*
X131023528Y-122103978D03*
%TD*%
D66*
%TO.C,C5*%
X100687500Y-50322500D03*
X98612500Y-50322500D03*
%TD*%
D16*
%TO.C,FAN1*%
X91680000Y-70975000D03*
D17*
X91680000Y-73515000D03*
%TD*%
D67*
%TO.C,C1*%
X81780000Y-93290000D03*
X79880000Y-93290000D03*
%TD*%
D42*
%TO.C,SW3*%
X98426320Y-136756180D03*
D43*
X98426320Y-141756180D03*
X98426320Y-139256180D03*
D68*
X105926320Y-133656180D03*
X105926320Y-144856180D03*
D43*
X112926320Y-141756180D03*
X112926320Y-136756180D03*
%TD*%
D33*
%TO.C,R3*%
X63462500Y-60132500D03*
X65287500Y-60132500D03*
%TD*%
D69*
%TO.C,J6*%
X63905000Y-71015000D03*
X63905000Y-76015000D03*
%TD*%
D64*
%TO.C,R6*%
X144628990Y-125065147D03*
X145919460Y-123774677D03*
%TD*%
D42*
%TO.C,BZ1*%
X73755000Y-100390000D03*
D43*
X66155000Y-100390000D03*
%TD*%
D70*
%TO.C,JP1*%
X80920000Y-113135000D03*
D71*
X82220000Y-113135000D03*
%TD*%
D16*
%TO.C,U3*%
X91551320Y-139171180D03*
D17*
X91551320Y-136631180D03*
X91551320Y-134091180D03*
X91551320Y-131551180D03*
%TD*%
D72*
%TO.C,C6*%
X144425000Y-94717506D03*
X144425000Y-97842506D03*
%TD*%
D41*
%TO.C,C3*%
X102892500Y-88352500D03*
X99767500Y-88352500D03*
%TD*%
D73*
%TO.C,C4*%
X138662500Y-102642506D03*
X140387500Y-102642506D03*
%TD*%
D41*
%TO.C,C2*%
X102892500Y-92602500D03*
X99767500Y-92602500D03*
%TD*%
D32*
%TO.C,REF\u002A\u002A*%
X70145000Y-62752500D03*
%TD*%
D74*
%TO.C,U3*%
X99880000Y-58055000D03*
X101150000Y-58055000D03*
X102420000Y-58055000D03*
X103690000Y-58055000D03*
X104960000Y-58055000D03*
X106230000Y-58055000D03*
X107500000Y-58055000D03*
X108770000Y-58055000D03*
X108770000Y-52555000D03*
X107500000Y-52555000D03*
X106230000Y-52555000D03*
X104960000Y-52555000D03*
X103690000Y-52555000D03*
X102420000Y-52555000D03*
X101150000Y-52555000D03*
X99880000Y-52555000D03*
%TD*%
D73*
%TO.C,C3*%
X71542500Y-53312500D03*
X73267500Y-53312500D03*
%TD*%
D75*
%TO.C,SW2*%
X122205000Y-109194282D03*
X122205000Y-101244282D03*
X126705000Y-109194282D03*
X126705000Y-101244282D03*
%TD*%
D69*
%TO.C,J1*%
X63880000Y-83465000D03*
X63880000Y-88465000D03*
%TD*%
D18*
%TO.C,R4*%
X78040000Y-59477500D03*
X78040000Y-61127500D03*
%TD*%
D12*
%TO.C,R3*%
X112622500Y-53105000D03*
X110797500Y-53105000D03*
%TD*%
D70*
%TO.C,JP2*%
X94260000Y-93305000D03*
D71*
X95560000Y-93305000D03*
%TD*%
D16*
%TO.C,J7*%
X150105000Y-134782506D03*
D17*
X150105000Y-137322506D03*
X150105000Y-139862506D03*
X150105000Y-142402506D03*
X150105000Y-144942506D03*
X150105000Y-147482506D03*
%TD*%
D76*
%TO.C,SW1*%
X137970000Y-65412500D03*
X129770000Y-65412500D03*
D77*
X135870000Y-65412500D03*
D78*
X133870000Y-65412500D03*
X131870000Y-65412500D03*
%TD*%
D36*
%TO.C,SW1*%
X79145000Y-51562500D03*
X76145000Y-51562500D03*
X74645000Y-51562500D03*
D37*
X73445000Y-50762500D03*
X73445000Y-48662500D03*
X80345000Y-48662500D03*
X80345000Y-50762500D03*
%TD*%
D79*
%TO.C,R3*%
X130837500Y-69452500D03*
X132837500Y-69452500D03*
%TD*%
D23*
%TO.C,REF\u002A\u002A*%
X115326320Y-122281180D03*
%TD*%
D29*
%TO.C,C11*%
X146494880Y-132422386D03*
X145275120Y-131202626D03*
%TD*%
D32*
%TO.C,REF\u002A\u002A*%
X66565000Y-62752500D03*
%TD*%
D53*
%TO.C,J2*%
X81620000Y-60952500D03*
X81620000Y-55172500D03*
D80*
X80175000Y-61312500D03*
X80175000Y-60512500D03*
D81*
X80175000Y-59312500D03*
X80175000Y-58312500D03*
X80175000Y-57812500D03*
X80175000Y-56812500D03*
D80*
X80175000Y-54812500D03*
X80175000Y-55612500D03*
D81*
X80175000Y-56312500D03*
X80175000Y-57312500D03*
X80175000Y-58812500D03*
X80175000Y-59812500D03*
D82*
X81090000Y-62382500D03*
D83*
X85270000Y-62382500D03*
D82*
X81090000Y-53742500D03*
D83*
X85270000Y-53742500D03*
%TD*%
D23*
%TO.C,REF\u002A\u002A*%
X115355000Y-70240000D03*
%TD*%
D84*
%TO.C,C3*%
X104542500Y-59925000D03*
X102817500Y-59925000D03*
%TD*%
D85*
%TO.C,U3*%
X76205000Y-55182500D03*
X74935000Y-55182500D03*
X73665000Y-55182500D03*
X72395000Y-55182500D03*
X71125000Y-55182500D03*
X69855000Y-55182500D03*
X68585000Y-55182500D03*
X67315000Y-55182500D03*
X67315000Y-60682500D03*
X68585000Y-60682500D03*
X69855000Y-60682500D03*
X71125000Y-60682500D03*
X72395000Y-60682500D03*
X73665000Y-60682500D03*
X74935000Y-60682500D03*
X76205000Y-60682500D03*
%TD*%
D86*
%TO.C,C4*%
X112620000Y-51457500D03*
X112620000Y-49732500D03*
%TD*%
D53*
%TO.C,J2*%
X94465000Y-52285000D03*
X94465000Y-58065000D03*
D80*
X95910000Y-51925000D03*
X95910000Y-52725000D03*
D81*
X95910000Y-53925000D03*
X95910000Y-54925000D03*
X95910000Y-55425000D03*
X95910000Y-56425000D03*
D80*
X95910000Y-58425000D03*
X95910000Y-57625000D03*
D81*
X95910000Y-56925000D03*
X95910000Y-55925000D03*
X95910000Y-54425000D03*
X95910000Y-53425000D03*
D82*
X94995000Y-50855000D03*
D83*
X90815000Y-50855000D03*
D82*
X94995000Y-59495000D03*
D83*
X90815000Y-59495000D03*
%TD*%
D33*
%TO.C,R1*%
X110787500Y-58245000D03*
X112612500Y-58245000D03*
%TD*%
D87*
%TO.C,D1*%
X136645000Y-69462500D03*
X134595000Y-69462500D03*
%TD*%
D12*
%TO.C,R2*%
X112622500Y-55655000D03*
X110797500Y-55655000D03*
%TD*%
D21*
%TO.C,D2*%
X134375000Y-106364282D03*
X134375000Y-104614282D03*
%TD*%
D12*
%TO.C,R2*%
X134395000Y-101012506D03*
X132570000Y-101012506D03*
%TD*%
D33*
%TO.C,R2*%
X63462500Y-57582500D03*
X65287500Y-57582500D03*
%TD*%
D73*
%TO.C,C2*%
X138637500Y-104355006D03*
X140362500Y-104355006D03*
%TD*%
M02*
