%TF.GenerationSoftware,KiCad,Pcbnew,(6.0.5)*%
%TF.CreationDate,2023-08-07T21:45:28+03:00*%
%TF.ProjectId,JLC2,4a4c4332-2e6b-4696-9361-645f70636258,rev?*%
%TF.SameCoordinates,Original*%
%TF.FileFunction,Copper,L4,Bot*%
%TF.FilePolarity,Positive*%
%FSLAX46Y46*%
G04 Gerber Fmt 4.6, Leading zero omitted, Abs format (unit mm)*
G04 Created by KiCad (PCBNEW (6.0.5)) date 2023-08-07 21:45:28*
%MOMM*%
%LPD*%
G01*
G04 APERTURE LIST*
G04 Aperture macros list*
%AMRoundRect*
0 Rectangle with rounded corners*
0 $1 Rounding radius*
0 $2 $3 $4 $5 $6 $7 $8 $9 X,Y pos of 4 corners*
0 Add a 4 corners polygon primitive as box body*
4,1,4,$2,$3,$4,$5,$6,$7,$8,$9,$2,$3,0*
0 Add four circle primitives for the rounded corners*
1,1,$1+$1,$2,$3*
1,1,$1+$1,$4,$5*
1,1,$1+$1,$6,$7*
1,1,$1+$1,$8,$9*
0 Add four rect primitives between the rounded corners*
20,1,$1+$1,$2,$3,$4,$5,0*
20,1,$1+$1,$4,$5,$6,$7,0*
20,1,$1+$1,$6,$7,$8,$9,0*
20,1,$1+$1,$8,$9,$2,$3,0*%
G04 Aperture macros list end*
%TA.AperFunction,ComponentPad*%
%ADD10O,3.500000X1.900000*%
%TD*%
%TA.AperFunction,ComponentPad*%
%ADD11R,1.700000X1.700000*%
%TD*%
%TA.AperFunction,ComponentPad*%
%ADD12O,1.700000X1.700000*%
%TD*%
%TA.AperFunction,SMDPad,CuDef*%
%ADD13RoundRect,0.250000X-0.250000X-0.750000X0.250000X-0.750000X0.250000X0.750000X-0.250000X0.750000X0*%
%TD*%
%TA.AperFunction,SMDPad,CuDef*%
%ADD14RoundRect,0.250000X0.475000X-0.250000X0.475000X0.250000X-0.475000X0.250000X-0.475000X-0.250000X0*%
%TD*%
%TA.AperFunction,SMDPad,CuDef*%
%ADD15RoundRect,0.150000X0.512500X0.150000X-0.512500X0.150000X-0.512500X-0.150000X0.512500X-0.150000X0*%
%TD*%
%TA.AperFunction,SMDPad,CuDef*%
%ADD16RoundRect,0.250000X-0.250000X-0.475000X0.250000X-0.475000X0.250000X0.475000X-0.250000X0.475000X0*%
%TD*%
%TA.AperFunction,SMDPad,CuDef*%
%ADD17RoundRect,0.250000X-0.475000X0.250000X-0.475000X-0.250000X0.475000X-0.250000X0.475000X0.250000X0*%
%TD*%
%TA.AperFunction,SMDPad,CuDef*%
%ADD18R,1.275000X0.300000*%
%TD*%
%TA.AperFunction,SMDPad,CuDef*%
%ADD19R,2.200000X2.200000*%
%TD*%
%TA.AperFunction,SMDPad,CuDef*%
%ADD20R,1.250000X2.200000*%
%TD*%
%TA.AperFunction,SMDPad,CuDef*%
%ADD21RoundRect,0.250000X0.250000X0.475000X-0.250000X0.475000X-0.250000X-0.475000X0.250000X-0.475000X0*%
%TD*%
%TA.AperFunction,SMDPad,CuDef*%
%ADD22RoundRect,0.250000X-0.312500X-0.625000X0.312500X-0.625000X0.312500X0.625000X-0.312500X0.625000X0*%
%TD*%
%TA.AperFunction,SMDPad,CuDef*%
%ADD23RoundRect,0.250000X0.312500X0.625000X-0.312500X0.625000X-0.312500X-0.625000X0.312500X-0.625000X0*%
%TD*%
%TA.AperFunction,ViaPad*%
%ADD24C,0.400000*%
%TD*%
%TA.AperFunction,ViaPad*%
%ADD25C,0.600000*%
%TD*%
%TA.AperFunction,ViaPad*%
%ADD26C,0.800000*%
%TD*%
%TA.AperFunction,Conductor*%
%ADD27C,0.600000*%
%TD*%
%TA.AperFunction,Conductor*%
%ADD28C,0.300000*%
%TD*%
%TA.AperFunction,Conductor*%
%ADD29C,1.000000*%
%TD*%
%TA.AperFunction,Conductor*%
%ADD30C,0.500000*%
%TD*%
G04 APERTURE END LIST*
D10*
%TO.P,J1,5,Shield*%
%TO.N,N/C*%
X145050000Y-74400000D03*
X145050000Y-63000000D03*
%TD*%
D11*
%TO.P,BAT+,1*%
%TO.N,N/C*%
X129290000Y-104918750D03*
%TD*%
%TO.P,-USB+,1*%
%TO.N,N/C*%
X145865000Y-107778750D03*
D12*
%TO.P,-USB+,2*%
X143325000Y-107778750D03*
%TD*%
D10*
%TO.P,J1,5,Shield*%
%TO.N,N/C*%
X145050001Y-81319999D03*
X145050001Y-92719999D03*
%TD*%
D11*
%TO.P,BAT-,1*%
%TO.N,N/C*%
X140970000Y-104308750D03*
%TD*%
D13*
%TO.P,REF\u002A\u002A,1*%
%TO.N,N/C*%
X99470000Y-76110000D03*
%TD*%
D14*
%TO.P,C19,1*%
%TO.N,N/C*%
X134130001Y-81949999D03*
%TO.P,C19,2*%
X134130001Y-80049999D03*
%TD*%
D15*
%TO.P,U1,1,VIN*%
%TO.N,N/C*%
X140637501Y-80039999D03*
%TO.P,U1,2,GND*%
X140637501Y-80989999D03*
%TO.P,U1,3,INH*%
X140637501Y-81939999D03*
%TO.P,U1,4,BYP*%
X138362501Y-81939999D03*
%TO.P,U1,5,VOUT*%
X138362501Y-80039999D03*
%TD*%
D16*
%TO.P,C10,1*%
%TO.N,N/C*%
X132260001Y-91869999D03*
%TO.P,C10,2*%
X134160001Y-91869999D03*
%TD*%
D13*
%TO.P,REF\u002A\u002A,1*%
%TO.N,N/C*%
X102720000Y-61440000D03*
%TD*%
D17*
%TO.P,C2,1*%
%TO.N,N/C*%
X99680001Y-86019999D03*
%TO.P,C2,2*%
X99680001Y-87919999D03*
%TD*%
D18*
%TO.P,m2,1,N.C_1*%
%TO.N,N/C*%
X101620001Y-92679999D03*
%TO.P,m2,2,N.C_2*%
X101620001Y-92179999D03*
%TO.P,m2,3,N.C_3*%
X101620001Y-91679999D03*
%TO.P,m2,4,N.C_4*%
X101620001Y-91179999D03*
%TO.P,m2,5,N.C_5*%
X101620001Y-90679999D03*
%TO.P,m2,6,N.C_6*%
X101620001Y-90179999D03*
%TO.P,m2,7,R/~{B}*%
X101620001Y-89679999D03*
%TO.P,m2,8,~{RE}*%
X101620001Y-89179999D03*
%TO.P,m2,9,~{CE}*%
X101620001Y-88679999D03*
%TO.P,m2,10,N.C_7*%
X101620001Y-88179999D03*
%TO.P,m2,11,N.C_8*%
X101620001Y-87679999D03*
%TO.P,m2,12,VCC_1*%
X101620001Y-87179999D03*
%TO.P,m2,13,VSS_1*%
X101620001Y-86679999D03*
%TO.P,m2,14,N.C_9*%
X101620001Y-86179999D03*
%TO.P,m2,15,N.C_10*%
X101620001Y-85679999D03*
%TO.P,m2,16,CLE*%
X101620001Y-85179999D03*
%TO.P,m2,17,ALE*%
X101620001Y-84679999D03*
%TO.P,m2,18,~{WE}*%
X101620001Y-84179999D03*
%TO.P,m2,19,~{WP}*%
X101620001Y-83679999D03*
%TO.P,m2,20,N.C_11*%
X101620001Y-83179999D03*
%TO.P,m2,21,N.C_12*%
X101620001Y-82679999D03*
%TO.P,m2,22,N.C_13*%
X101620001Y-82179999D03*
%TO.P,m2,23,N.C_14*%
X101620001Y-81679999D03*
%TO.P,m2,24,N.C_15*%
X101620001Y-81179999D03*
%TO.P,m2,25,N.C_16*%
X121296001Y-81179999D03*
%TO.P,m2,26,N.C_17*%
X121296001Y-81679999D03*
%TO.P,m2,27,N.C_18*%
X121296001Y-82179999D03*
%TO.P,m2,28,N.C_19*%
X121296001Y-82679999D03*
%TO.P,m2,29,I/O0*%
X121296001Y-83179999D03*
%TO.P,m2,30,I/O1*%
X121296001Y-83679999D03*
%TO.P,m2,31,I/O2*%
X121296001Y-84179999D03*
%TO.P,m2,32,I/O3*%
X121296001Y-84679999D03*
%TO.P,m2,33,N.C_20*%
X121296001Y-85179999D03*
%TO.P,m2,34,N.C_21*%
X121296001Y-85679999D03*
%TO.P,m2,35,N.C_22*%
X121296001Y-86179999D03*
%TO.P,m2,36,VSS_2*%
X121296001Y-86679999D03*
%TO.P,m2,37,VCC_2*%
X121296001Y-87179999D03*
%TO.P,m2,38,N.C_23*%
X121296001Y-87679999D03*
%TO.P,m2,39,N.C_24*%
X121296001Y-88179999D03*
%TO.P,m2,40,N.C_25*%
X121296001Y-88679999D03*
%TO.P,m2,41,I/O4*%
X121296001Y-89179999D03*
%TO.P,m2,42,I/O5*%
X121296001Y-89679999D03*
%TO.P,m2,43,I/O6*%
X121296001Y-90179999D03*
%TO.P,m2,44,I/O7*%
X121296001Y-90679999D03*
%TO.P,m2,45,N.C_26*%
X121296001Y-91179999D03*
%TO.P,m2,46,N.C_27*%
X121296001Y-91679999D03*
%TO.P,m2,47,N.C_28*%
X121296001Y-92179999D03*
%TO.P,m2,48,N.C_29*%
X121296001Y-92679999D03*
%TD*%
D17*
%TO.P,C6,1*%
%TO.N,N/C*%
X123190001Y-86069999D03*
%TO.P,C6,2*%
X123190001Y-87969999D03*
%TD*%
D13*
%TO.P,REF\u002A\u002A,1*%
%TO.N,N/C*%
X101230000Y-76150000D03*
%TD*%
D14*
%TO.P,C17,1*%
%TO.N,N/C*%
X132100001Y-81939999D03*
%TO.P,C17,2*%
X132100001Y-80039999D03*
%TD*%
D13*
%TO.P,REF\u002A\u002A,1*%
%TO.N,N/C*%
X99330000Y-61400000D03*
%TD*%
%TO.P,REF\u002A\u002A,1*%
%TO.N,N/C*%
X101090000Y-61440000D03*
%TD*%
%TO.P,REF\u002A\u002A,1*%
%TO.N,N/C*%
X104300000Y-61460000D03*
%TD*%
D19*
%TO.P,D3,1,K*%
%TO.N,N/C*%
X136810001Y-93989999D03*
D20*
%TO.P,D3,2,A*%
X139085001Y-93989999D03*
%TD*%
D21*
%TO.P,C11,1*%
%TO.N,N/C*%
X140260001Y-84479999D03*
%TO.P,C11,2*%
X138360001Y-84479999D03*
%TD*%
D14*
%TO.P,C12,1*%
%TO.N,N/C*%
X136210001Y-81949999D03*
%TO.P,C12,2*%
X136210001Y-80049999D03*
%TD*%
D22*
%TO.P,R1,1*%
%TO.N,N/C*%
X129985001Y-87789999D03*
%TO.P,R1,2*%
X132910001Y-87789999D03*
%TD*%
D23*
%TO.P,R7,1*%
%TO.N,N/C*%
X134532501Y-94019999D03*
%TO.P,R7,2*%
X131607501Y-94019999D03*
%TD*%
D13*
%TO.P,REF\u002A\u002A,1*%
%TO.N,N/C*%
X104440000Y-76170000D03*
%TD*%
%TO.P,REF\u002A\u002A,1*%
%TO.N,N/C*%
X102860000Y-76150000D03*
%TD*%
D19*
%TO.P,D2,1,K*%
%TO.N,N/C*%
X136810001Y-87159999D03*
D20*
%TO.P,D2,2,A*%
X139085001Y-87159999D03*
%TD*%
D22*
%TO.P,R2,1*%
%TO.N,N/C*%
X129977501Y-85449999D03*
%TO.P,R2,2*%
X132902501Y-85449999D03*
%TD*%
D19*
%TO.P,D1,1,K*%
%TO.N,N/C*%
X136810001Y-90579999D03*
D20*
%TO.P,D1,2,A*%
X139085001Y-90579999D03*
%TD*%
D24*
%TO.N,*%
X130660001Y-89519999D03*
D25*
X109610000Y-100420000D03*
D24*
X125660001Y-84759999D03*
X141520001Y-81939999D03*
X103220001Y-87479999D03*
D26*
X104400000Y-70430000D03*
D24*
X134030001Y-87339999D03*
D25*
X105232500Y-103505000D03*
D24*
X99540001Y-91337499D03*
X130710001Y-80119999D03*
X106500001Y-90639999D03*
X123415001Y-81674999D03*
D26*
X104360000Y-63010000D03*
D24*
X99540001Y-94262499D03*
X99580001Y-80019999D03*
D25*
X107952500Y-105410000D03*
D26*
X101460000Y-67740000D03*
D24*
X98970001Y-84159999D03*
X134030001Y-87969999D03*
X106530001Y-88119999D03*
X118450001Y-85499999D03*
D25*
X102625000Y-108460000D03*
D24*
X136210001Y-81949999D03*
X142300001Y-88019999D03*
X129980001Y-80899999D03*
D26*
X99750000Y-67760000D03*
D25*
X110870000Y-100400000D03*
D24*
X117940001Y-85139999D03*
X128450001Y-84049999D03*
D26*
X137210000Y-107248750D03*
D25*
X109722500Y-108620000D03*
D24*
X134040001Y-86709999D03*
D25*
X100012500Y-104030000D03*
D24*
X134050001Y-85449999D03*
X103840001Y-86679999D03*
X137180001Y-83919999D03*
X134060001Y-84819999D03*
D26*
X103160000Y-67730000D03*
X99720000Y-75230000D03*
D24*
X119580001Y-87459999D03*
X131970001Y-89919999D03*
D26*
X101420000Y-75230000D03*
D24*
X133790001Y-89709999D03*
X126320001Y-84749999D03*
X106500001Y-91269999D03*
X134050001Y-86079999D03*
X123100001Y-92319999D03*
X133120001Y-81019999D03*
X142300001Y-86019999D03*
X125030001Y-85079999D03*
X106510001Y-90009999D03*
X99790001Y-84279999D03*
X106520001Y-88749999D03*
X136480001Y-92259999D03*
X118990001Y-85869999D03*
X133330001Y-89229999D03*
X127700001Y-92069999D03*
D26*
X103140000Y-75190000D03*
D24*
X102950001Y-83489999D03*
X106520001Y-89379999D03*
X124400001Y-85089999D03*
X119010001Y-86679999D03*
X136210001Y-80049999D03*
X130558001Y-90159999D03*
X117450001Y-84759999D03*
D25*
X118305000Y-97977500D03*
%TD*%
D27*
%TO.N,*%
X137210000Y-105588750D02*
X138490000Y-104308750D01*
D28*
X101620001Y-87179999D02*
X100420001Y-87179999D01*
X107180001Y-87939999D02*
X107180001Y-89149999D01*
X106200001Y-91269999D02*
X106500001Y-91269999D01*
X131350001Y-85449999D02*
X131350001Y-90579999D01*
X136210001Y-81949999D02*
X136210001Y-80989999D01*
X121296001Y-90679999D02*
X124610001Y-90679999D01*
X122060001Y-93459999D02*
X123100001Y-92419999D01*
X122580001Y-86679999D02*
X123190001Y-86069999D01*
X117450001Y-84759999D02*
X119030001Y-83179999D01*
X136480001Y-92259999D02*
X134550001Y-92259999D01*
D29*
X102860000Y-75470000D02*
X102860000Y-76150000D01*
D28*
X105240001Y-86829999D02*
X105240001Y-86159999D01*
X107090001Y-91509999D02*
X107090001Y-90229999D01*
D29*
X103160000Y-67730000D02*
X102720000Y-67290000D01*
D28*
X139085001Y-93989999D02*
X139085001Y-90629999D01*
X133120001Y-81019999D02*
X133110001Y-81009999D01*
X119010001Y-86679999D02*
X121296001Y-86679999D01*
X121296001Y-86679999D02*
X122580001Y-86679999D01*
X141720001Y-81409999D02*
X141720001Y-81939999D01*
X130980001Y-91869999D02*
X130558001Y-91447999D01*
X99660001Y-89679999D02*
X101620001Y-89679999D01*
D27*
X118305000Y-105410000D02*
X118305000Y-97977500D01*
D28*
X119580001Y-87459999D02*
X119860001Y-87179999D01*
D29*
X104440000Y-76170000D02*
X104440000Y-70470000D01*
D28*
X104130001Y-84179999D02*
X105830001Y-85879999D01*
X120180001Y-84679999D02*
X121296001Y-84679999D01*
X101620001Y-88679999D02*
X105320001Y-88679999D01*
X105830001Y-86589999D02*
X107180001Y-87939999D01*
X130558001Y-91447999D02*
X130558001Y-90159999D01*
D29*
X104440000Y-70470000D02*
X104400000Y-70430000D01*
D30*
X110870000Y-100400000D02*
X110870000Y-105410000D01*
D28*
X136210001Y-80039999D02*
X136210001Y-80049999D01*
D27*
X107952500Y-105410000D02*
X102625000Y-105410000D01*
D28*
X128970001Y-94019999D02*
X131607501Y-94019999D01*
X119580001Y-87459999D02*
X119580001Y-92659999D01*
X104690001Y-87144999D02*
X106295001Y-88749999D01*
X130660001Y-89519999D02*
X129985001Y-88844999D01*
X125660001Y-88829999D02*
X125660001Y-84759999D01*
X137180001Y-85619999D02*
X137180001Y-83919999D01*
X121296001Y-89179999D02*
X123750001Y-89179999D01*
X132910001Y-87929999D02*
X133570001Y-88589999D01*
X99530001Y-89809999D02*
X99530001Y-91327499D01*
X120380001Y-93459999D02*
X122060001Y-93459999D01*
X98600001Y-85419999D02*
X98600001Y-89099999D01*
X105320001Y-88679999D02*
X105880001Y-89239999D01*
D29*
X99330000Y-67340000D02*
X99330000Y-61400000D01*
D28*
X139480001Y-84479999D02*
X139480001Y-80989999D01*
D29*
X101460000Y-67740000D02*
X101090000Y-67370000D01*
D28*
X133570001Y-88589999D02*
X136810001Y-88589999D01*
X133110001Y-81009999D02*
X130820001Y-81009999D01*
X117940001Y-85139999D02*
X119400001Y-83679999D01*
X98600001Y-89099999D02*
X99180001Y-89679999D01*
X101620001Y-85179999D02*
X103410001Y-85179999D01*
X101620001Y-89179999D02*
X105050001Y-89179999D01*
X102760001Y-83679999D02*
X101620001Y-83679999D01*
X103760001Y-84679999D02*
X101620001Y-84679999D01*
X132910001Y-87789999D02*
X132910001Y-87929999D01*
X128450001Y-84049999D02*
X128970001Y-84569999D01*
X134130001Y-81949999D02*
X136210001Y-81949999D01*
X130820001Y-85449999D02*
X129977501Y-85449999D01*
X119580001Y-92659999D02*
X120380001Y-93459999D01*
X138362501Y-81939999D02*
X138362501Y-84479999D01*
X124310001Y-90179999D02*
X125660001Y-88829999D01*
X118450001Y-85499999D02*
X119770001Y-84179999D01*
X99180001Y-89679999D02*
X99660001Y-89679999D01*
D30*
X100012500Y-104030000D02*
X105232500Y-104030000D01*
D28*
X126320001Y-88969999D02*
X126320001Y-84749999D01*
X119400001Y-83679999D02*
X121296001Y-83679999D01*
X98970001Y-84159999D02*
X99450001Y-83679999D01*
X103220001Y-87179999D02*
X103220001Y-87479999D01*
X101620001Y-87179999D02*
X103220001Y-87179999D01*
X121296001Y-89679999D02*
X124060001Y-89679999D01*
D29*
X101090000Y-67370000D02*
X101090000Y-61440000D01*
D28*
X138362501Y-84479999D02*
X138360001Y-84479999D01*
X100340001Y-86679999D02*
X99680001Y-86019999D01*
X140637501Y-80039999D02*
X141720001Y-80039999D01*
X134130001Y-81949999D02*
X132110001Y-81949999D01*
X102950001Y-83489999D02*
X102760001Y-83679999D01*
X128970001Y-84569999D02*
X128970001Y-94019999D01*
X119770001Y-84179999D02*
X121296001Y-84179999D01*
X106950001Y-89379999D02*
X106520001Y-89379999D01*
X106295001Y-88749999D02*
X106520001Y-88749999D01*
X101620001Y-86679999D02*
X100340001Y-86679999D01*
X106050001Y-91879999D02*
X106720001Y-91879999D01*
X105880001Y-90949999D02*
X106200001Y-91269999D01*
X134550001Y-92259999D02*
X134160001Y-91869999D01*
D29*
X102720000Y-67290000D02*
X102720000Y-61440000D01*
D28*
X139480001Y-80989999D02*
X140637501Y-80989999D01*
X125030001Y-88709999D02*
X125030001Y-85089999D01*
X134562501Y-93989999D02*
X134532501Y-94019999D01*
X105050001Y-89179999D02*
X105330001Y-89459999D01*
X121296001Y-90179999D02*
X124310001Y-90179999D01*
X124610001Y-90679999D02*
X126320001Y-88969999D01*
D27*
X137210000Y-107248750D02*
X137210000Y-105588750D01*
D29*
X101420000Y-75230000D02*
X101230000Y-75420000D01*
D27*
X138490000Y-104308750D02*
X140970000Y-104308750D01*
D28*
X139085001Y-87159999D02*
X139085001Y-85619999D01*
X123750001Y-89179999D02*
X124400001Y-88529999D01*
X136810001Y-93989999D02*
X134562501Y-93989999D01*
X103410001Y-85179999D02*
X104690001Y-86459999D01*
D27*
X110870000Y-105410000D02*
X118305000Y-105410000D01*
D28*
X105330001Y-89459999D02*
X105330001Y-91159999D01*
X132260001Y-91869999D02*
X130980001Y-91869999D01*
X130790001Y-80039999D02*
X132100001Y-80039999D01*
X99530001Y-91327499D02*
X99540001Y-91337499D01*
X124060001Y-89679999D02*
X125030001Y-88709999D01*
X137320001Y-85619999D02*
X137180001Y-85619999D01*
X106530001Y-88119999D02*
X105240001Y-86829999D01*
X99450001Y-83679999D02*
X101620001Y-83679999D01*
X141720001Y-81939999D02*
X141520001Y-81939999D01*
X100420001Y-87179999D02*
X99680001Y-87919999D01*
D29*
X104360000Y-61520000D02*
X104300000Y-61460000D01*
D28*
X129985001Y-88844999D02*
X129985001Y-87789999D01*
D29*
X104360000Y-63010000D02*
X104360000Y-61520000D01*
D28*
X136810001Y-88589999D02*
X136810001Y-87159999D01*
X124400001Y-88529999D02*
X124400001Y-85089999D01*
X123100001Y-92419999D02*
X123100001Y-92319999D01*
X130820001Y-81009999D02*
X130820001Y-85449999D01*
X101620001Y-84179999D02*
X104130001Y-84179999D01*
X131350001Y-90579999D02*
X136810001Y-90579999D01*
X141720001Y-80039999D02*
X141720001Y-81409999D01*
D27*
X107952500Y-105410000D02*
X110870000Y-105410000D01*
D29*
X99470000Y-75480000D02*
X99470000Y-76110000D01*
D28*
X138362501Y-80039999D02*
X136210001Y-80039999D01*
X134130001Y-80049999D02*
X136210001Y-80049999D01*
X101620001Y-86679999D02*
X103840001Y-86679999D01*
D29*
X99750000Y-67760000D02*
X99330000Y-67340000D01*
D28*
X99740001Y-84279999D02*
X98600001Y-85419999D01*
X118990001Y-85869999D02*
X120180001Y-84679999D01*
X106870001Y-90009999D02*
X106510001Y-90009999D01*
X121296001Y-87179999D02*
X122400001Y-87179999D01*
X122400001Y-87179999D02*
X123190001Y-87969999D01*
X99790001Y-84279999D02*
X99740001Y-84279999D01*
D29*
X101230000Y-75420000D02*
X101230000Y-76150000D01*
D28*
X132110001Y-81949999D02*
X132100001Y-81939999D01*
X106720001Y-91879999D02*
X107090001Y-91509999D01*
X119860001Y-87179999D02*
X121296001Y-87179999D01*
X132902501Y-85449999D02*
X131350001Y-85449999D01*
D30*
X105232500Y-104030000D02*
X105232500Y-103505000D01*
D28*
X105240001Y-86159999D02*
X103760001Y-84679999D01*
X107180001Y-89149999D02*
X106950001Y-89379999D01*
X134130001Y-80049999D02*
X132110001Y-80049999D01*
X136210001Y-80989999D02*
X139480001Y-80989999D01*
X105830001Y-85879999D02*
X105830001Y-86589999D01*
X107090001Y-90229999D02*
X106870001Y-90009999D01*
X130710001Y-80119999D02*
X130790001Y-80039999D01*
X139085001Y-85619999D02*
X137320001Y-85619999D01*
D27*
X102625000Y-105410000D02*
X102625000Y-108460000D01*
D29*
X103140000Y-75190000D02*
X102860000Y-75470000D01*
D28*
X139090001Y-90629999D02*
X139085001Y-90629999D01*
X132110001Y-80049999D02*
X132100001Y-80039999D01*
D29*
X99720000Y-75230000D02*
X99470000Y-75480000D01*
D28*
X104690001Y-86459999D02*
X104690001Y-87144999D01*
X105880001Y-89239999D02*
X105880001Y-90949999D01*
X141520001Y-81939999D02*
X140637501Y-81939999D01*
X105330001Y-91159999D02*
X106050001Y-91879999D01*
X139090001Y-87289999D02*
X139090001Y-90629999D01*
X140260001Y-84479999D02*
X139480001Y-84479999D01*
X119030001Y-83179999D02*
X121296001Y-83179999D01*
%TD*%
M02*
