%TF.GenerationSoftware,KiCad,Pcbnew,(6.0.5)*%
%TF.CreationDate,2023-08-07T21:45:28+03:00*%
%TF.ProjectId,JLC2,4a4c4332-2e6b-4696-9361-645f70636258,rev?*%
%TF.SameCoordinates,Original*%
%TF.FileFunction,Legend,Bot*%
%TF.FilePolarity,Positive*%
%FSLAX46Y46*%
G04 Gerber Fmt 4.6, Leading zero omitted, Abs format (unit mm)*
G04 Created by KiCad (PCBNEW (6.0.5)) date 2023-08-07 21:45:28*
%MOMM*%
%LPD*%
G01*
G04 APERTURE LIST*
%ADD10C,0.250000*%
%ADD11C,0.062500*%
%ADD12C,0.100000*%
%ADD13C,0.254000*%
%ADD14C,0.125000*%
%ADD15C,0.075000*%
%ADD16C,0.120000*%
%ADD17C,0.200000*%
G04 APERTURE END LIST*
D10*
X118044285Y-98022380D02*
X117472857Y-98022380D01*
X117758571Y-99022380D02*
X117758571Y-98022380D01*
X116996666Y-99022380D02*
X117091904Y-98974761D01*
X117139523Y-98927142D01*
X117187142Y-98831904D01*
X117187142Y-98546190D01*
X117139523Y-98450952D01*
X117091904Y-98403333D01*
X116996666Y-98355714D01*
X116853809Y-98355714D01*
X116758571Y-98403333D01*
X116710952Y-98450952D01*
X116663333Y-98546190D01*
X116663333Y-98831904D01*
X116710952Y-98927142D01*
X116758571Y-98974761D01*
X116853809Y-99022380D01*
X116996666Y-99022380D01*
X116234761Y-98355714D02*
X116234761Y-99022380D01*
X116234761Y-98450952D02*
X116187142Y-98403333D01*
X116091904Y-98355714D01*
X115949047Y-98355714D01*
X115853809Y-98403333D01*
X115806190Y-98498571D01*
X115806190Y-99022380D01*
X115330000Y-99022380D02*
X115330000Y-98355714D01*
X115330000Y-98022380D02*
X115377619Y-98070000D01*
X115330000Y-98117619D01*
X115282380Y-98070000D01*
X115330000Y-98022380D01*
X115330000Y-98117619D01*
X114853809Y-99022380D02*
X114853809Y-98022380D01*
X114758571Y-98641428D02*
X114472857Y-99022380D01*
X114472857Y-98355714D02*
X114853809Y-98736666D01*
X114044285Y-99022380D02*
X114044285Y-98355714D01*
X114044285Y-98022380D02*
X114091904Y-98070000D01*
X114044285Y-98117619D01*
X113996666Y-98070000D01*
X114044285Y-98022380D01*
X114044285Y-98117619D01*
X113425238Y-99022380D02*
X113520476Y-98974761D01*
X113568095Y-98879523D01*
X113568095Y-98022380D01*
X112901428Y-99022380D02*
X112996666Y-98974761D01*
X113044285Y-98879523D01*
X113044285Y-98022380D01*
X112139523Y-98974761D02*
X112234761Y-99022380D01*
X112425238Y-99022380D01*
X112520476Y-98974761D01*
X112568095Y-98879523D01*
X112568095Y-98498571D01*
X112520476Y-98403333D01*
X112425238Y-98355714D01*
X112234761Y-98355714D01*
X112139523Y-98403333D01*
X112091904Y-98498571D01*
X112091904Y-98593809D01*
X112568095Y-98689047D01*
X111663333Y-99022380D02*
X111663333Y-98355714D01*
X111663333Y-98546190D02*
X111615714Y-98450952D01*
X111568095Y-98403333D01*
X111472857Y-98355714D01*
X111377619Y-98355714D01*
X110520476Y-99022380D02*
X111091904Y-99022380D01*
X110806190Y-99022380D02*
X110806190Y-98022380D01*
X110901428Y-98165238D01*
X110996666Y-98260476D01*
X111091904Y-98308095D01*
X109901428Y-98022380D02*
X109806190Y-98022380D01*
X109710952Y-98070000D01*
X109663333Y-98117619D01*
X109615714Y-98212857D01*
X109568095Y-98403333D01*
X109568095Y-98641428D01*
X109615714Y-98831904D01*
X109663333Y-98927142D01*
X109710952Y-98974761D01*
X109806190Y-99022380D01*
X109901428Y-99022380D01*
X109996666Y-98974761D01*
X110044285Y-98927142D01*
X110091904Y-98831904D01*
X110139523Y-98641428D01*
X110139523Y-98403333D01*
X110091904Y-98212857D01*
X110044285Y-98117619D01*
X109996666Y-98070000D01*
X109901428Y-98022380D01*
X108949047Y-98022380D02*
X108853809Y-98022380D01*
X108758571Y-98070000D01*
X108710952Y-98117619D01*
X108663333Y-98212857D01*
X108615714Y-98403333D01*
X108615714Y-98641428D01*
X108663333Y-98831904D01*
X108710952Y-98927142D01*
X108758571Y-98974761D01*
X108853809Y-99022380D01*
X108949047Y-99022380D01*
X109044285Y-98974761D01*
X109091904Y-98927142D01*
X109139523Y-98831904D01*
X109187142Y-98641428D01*
X109187142Y-98403333D01*
X109139523Y-98212857D01*
X109091904Y-98117619D01*
X109044285Y-98070000D01*
X108949047Y-98022380D01*
X107996666Y-98022380D02*
X107901428Y-98022380D01*
X107806190Y-98070000D01*
X107758571Y-98117619D01*
X107710952Y-98212857D01*
X107663333Y-98403333D01*
X107663333Y-98641428D01*
X107710952Y-98831904D01*
X107758571Y-98927142D01*
X107806190Y-98974761D01*
X107901428Y-99022380D01*
X107996666Y-99022380D01*
X108091904Y-98974761D01*
X108139523Y-98927142D01*
X108187142Y-98831904D01*
X108234761Y-98641428D01*
X108234761Y-98403333D01*
X108187142Y-98212857D01*
X108139523Y-98117619D01*
X108091904Y-98070000D01*
X107996666Y-98022380D01*
X107044285Y-98022380D02*
X106949047Y-98022380D01*
X106853809Y-98070000D01*
X106806190Y-98117619D01*
X106758571Y-98212857D01*
X106710952Y-98403333D01*
X106710952Y-98641428D01*
X106758571Y-98831904D01*
X106806190Y-98927142D01*
X106853809Y-98974761D01*
X106949047Y-99022380D01*
X107044285Y-99022380D01*
X107139523Y-98974761D01*
X107187142Y-98927142D01*
X107234761Y-98831904D01*
X107282380Y-98641428D01*
X107282380Y-98403333D01*
X107234761Y-98212857D01*
X107187142Y-98117619D01*
X107139523Y-98070000D01*
X107044285Y-98022380D01*
X118657142Y-100657142D02*
X118704761Y-100704761D01*
X118847619Y-100752380D01*
X118942857Y-100752380D01*
X119085714Y-100704761D01*
X119180952Y-100609523D01*
X119228571Y-100514285D01*
X119276190Y-100323809D01*
X119276190Y-100180952D01*
X119228571Y-99990476D01*
X119180952Y-99895238D01*
X119085714Y-99800000D01*
X118942857Y-99752380D01*
X118847619Y-99752380D01*
X118704761Y-99800000D01*
X118657142Y-99847619D01*
X118228571Y-100752380D02*
X118228571Y-99752380D01*
X118228571Y-100228571D02*
X117657142Y-100228571D01*
X117657142Y-100752380D02*
X117657142Y-99752380D01*
X117228571Y-100466666D02*
X116752380Y-100466666D01*
X117323809Y-100752380D02*
X116990476Y-99752380D01*
X116657142Y-100752380D01*
X115752380Y-100752380D02*
X116085714Y-100276190D01*
X116323809Y-100752380D02*
X116323809Y-99752380D01*
X115942857Y-99752380D01*
X115847619Y-99800000D01*
X115800000Y-99847619D01*
X115752380Y-99942857D01*
X115752380Y-100085714D01*
X115800000Y-100180952D01*
X115847619Y-100228571D01*
X115942857Y-100276190D01*
X116323809Y-100276190D01*
X114800000Y-99800000D02*
X114895238Y-99752380D01*
X115038095Y-99752380D01*
X115180952Y-99800000D01*
X115276190Y-99895238D01*
X115323809Y-99990476D01*
X115371428Y-100180952D01*
X115371428Y-100323809D01*
X115323809Y-100514285D01*
X115276190Y-100609523D01*
X115180952Y-100704761D01*
X115038095Y-100752380D01*
X114942857Y-100752380D01*
X114800000Y-100704761D01*
X114752380Y-100657142D01*
X114752380Y-100323809D01*
X114942857Y-100323809D01*
X114323809Y-100752380D02*
X114323809Y-99752380D01*
X113847619Y-100752380D02*
X113847619Y-99752380D01*
X113276190Y-100752380D01*
X113276190Y-99752380D01*
X112276190Y-99800000D02*
X112371428Y-99752380D01*
X112514285Y-99752380D01*
X112657142Y-99800000D01*
X112752380Y-99895238D01*
X112800000Y-99990476D01*
X112847619Y-100180952D01*
X112847619Y-100323809D01*
X112800000Y-100514285D01*
X112752380Y-100609523D01*
X112657142Y-100704761D01*
X112514285Y-100752380D01*
X112419047Y-100752380D01*
X112276190Y-100704761D01*
X112228571Y-100657142D01*
X112228571Y-100323809D01*
X112419047Y-100323809D01*
X111038095Y-100752380D02*
X111038095Y-99752380D01*
X110800000Y-99752380D01*
X110657142Y-99800000D01*
X110561904Y-99895238D01*
X110514285Y-99990476D01*
X110466666Y-100180952D01*
X110466666Y-100323809D01*
X110514285Y-100514285D01*
X110561904Y-100609523D01*
X110657142Y-100704761D01*
X110800000Y-100752380D01*
X111038095Y-100752380D01*
X110038095Y-100228571D02*
X109704761Y-100228571D01*
X109561904Y-100752380D02*
X110038095Y-100752380D01*
X110038095Y-99752380D01*
X109561904Y-99752380D01*
X109276190Y-99752380D02*
X108942857Y-100752380D01*
X108609523Y-99752380D01*
X108276190Y-100752380D02*
X108276190Y-99752380D01*
X107228571Y-100657142D02*
X107276190Y-100704761D01*
X107419047Y-100752380D01*
X107514285Y-100752380D01*
X107657142Y-100704761D01*
X107752380Y-100609523D01*
X107800000Y-100514285D01*
X107847619Y-100323809D01*
X107847619Y-100180952D01*
X107800000Y-99990476D01*
X107752380Y-99895238D01*
X107657142Y-99800000D01*
X107514285Y-99752380D01*
X107419047Y-99752380D01*
X107276190Y-99800000D01*
X107228571Y-99847619D01*
X106800000Y-100228571D02*
X106466666Y-100228571D01*
X106323809Y-100752380D02*
X106800000Y-100752380D01*
X106800000Y-99752380D01*
X106323809Y-99752380D01*
D11*
%TO.C,C19*%
X134659762Y-80896903D02*
X134647858Y-80884999D01*
X134624048Y-80873094D01*
X134564524Y-80873094D01*
X134540715Y-80884999D01*
X134528810Y-80896903D01*
X134516905Y-80920713D01*
X134516905Y-80944522D01*
X134528810Y-80980237D01*
X134671667Y-81123094D01*
X134516905Y-81123094D01*
X134421667Y-80896903D02*
X134409762Y-80884999D01*
X134385953Y-80873094D01*
X134326429Y-80873094D01*
X134302620Y-80884999D01*
X134290715Y-80896903D01*
X134278810Y-80920713D01*
X134278810Y-80944522D01*
X134290715Y-80980237D01*
X134433572Y-81123094D01*
X134278810Y-81123094D01*
X134124048Y-80873094D02*
X134100239Y-80873094D01*
X134076429Y-80884999D01*
X134064524Y-80896903D01*
X134052620Y-80920713D01*
X134040715Y-80968332D01*
X134040715Y-81027856D01*
X134052620Y-81075475D01*
X134064524Y-81099284D01*
X134076429Y-81111189D01*
X134100239Y-81123094D01*
X134124048Y-81123094D01*
X134147858Y-81111189D01*
X134159762Y-81099284D01*
X134171667Y-81075475D01*
X134183572Y-81027856D01*
X134183572Y-80968332D01*
X134171667Y-80920713D01*
X134159762Y-80896903D01*
X134147858Y-80884999D01*
X134124048Y-80873094D01*
X133933572Y-80956427D02*
X133933572Y-81123094D01*
X133933572Y-80980237D02*
X133921667Y-80968332D01*
X133897858Y-80956427D01*
X133862143Y-80956427D01*
X133838334Y-80968332D01*
X133826429Y-80992141D01*
X133826429Y-81123094D01*
X133624048Y-80992141D02*
X133707381Y-80992141D01*
X133707381Y-81123094D02*
X133707381Y-80873094D01*
X133588334Y-80873094D01*
D12*
%TO.C,U1*%
X142213334Y-83260951D02*
X142403810Y-83260951D01*
X142403810Y-82860951D01*
X142080001Y-83260951D02*
X142080001Y-82860951D01*
X141984762Y-82860951D01*
X141927620Y-82879999D01*
X141889524Y-82918094D01*
X141870477Y-82956189D01*
X141851429Y-83032379D01*
X141851429Y-83089522D01*
X141870477Y-83165713D01*
X141889524Y-83203808D01*
X141927620Y-83241903D01*
X141984762Y-83260951D01*
X142080001Y-83260951D01*
X141718096Y-82860951D02*
X141470477Y-82860951D01*
X141603810Y-83013332D01*
X141546667Y-83013332D01*
X141508572Y-83032379D01*
X141489524Y-83051427D01*
X141470477Y-83089522D01*
X141470477Y-83184760D01*
X141489524Y-83222856D01*
X141508572Y-83241903D01*
X141546667Y-83260951D01*
X141660953Y-83260951D01*
X141699048Y-83241903D01*
X141718096Y-83222856D01*
X141280001Y-83260951D02*
X141203810Y-83260951D01*
X141165715Y-83241903D01*
X141146667Y-83222856D01*
X141108572Y-83165713D01*
X141089524Y-83089522D01*
X141089524Y-82937141D01*
X141108572Y-82899046D01*
X141127620Y-82879999D01*
X141165715Y-82860951D01*
X141241905Y-82860951D01*
X141280001Y-82879999D01*
X141299048Y-82899046D01*
X141318096Y-82937141D01*
X141318096Y-83032379D01*
X141299048Y-83070475D01*
X141280001Y-83089522D01*
X141241905Y-83108570D01*
X141165715Y-83108570D01*
X141127620Y-83089522D01*
X141108572Y-83070475D01*
X141089524Y-83032379D01*
X140860953Y-83032379D02*
X140899048Y-83013332D01*
X140918096Y-82994284D01*
X140937143Y-82956189D01*
X140937143Y-82937141D01*
X140918096Y-82899046D01*
X140899048Y-82879999D01*
X140860953Y-82860951D01*
X140784762Y-82860951D01*
X140746667Y-82879999D01*
X140727620Y-82899046D01*
X140708572Y-82937141D01*
X140708572Y-82956189D01*
X140727620Y-82994284D01*
X140746667Y-83013332D01*
X140784762Y-83032379D01*
X140860953Y-83032379D01*
X140899048Y-83051427D01*
X140918096Y-83070475D01*
X140937143Y-83108570D01*
X140937143Y-83184760D01*
X140918096Y-83222856D01*
X140899048Y-83241903D01*
X140860953Y-83260951D01*
X140784762Y-83260951D01*
X140746667Y-83241903D01*
X140727620Y-83222856D01*
X140708572Y-83184760D01*
X140708572Y-83108570D01*
X140727620Y-83070475D01*
X140746667Y-83051427D01*
X140784762Y-83032379D01*
X140346667Y-82860951D02*
X140537143Y-82860951D01*
X140556191Y-83051427D01*
X140537143Y-83032379D01*
X140499048Y-83013332D01*
X140403810Y-83013332D01*
X140365715Y-83032379D01*
X140346667Y-83051427D01*
X140327620Y-83089522D01*
X140327620Y-83184760D01*
X140346667Y-83222856D01*
X140365715Y-83241903D01*
X140403810Y-83260951D01*
X140499048Y-83260951D01*
X140537143Y-83241903D01*
X140556191Y-83222856D01*
X140156191Y-83260951D02*
X140156191Y-82860951D01*
X140022858Y-83146665D01*
X139889524Y-82860951D01*
X139889524Y-83260951D01*
X139737143Y-82860951D02*
X139489524Y-82860951D01*
X139622858Y-83013332D01*
X139565715Y-83013332D01*
X139527620Y-83032379D01*
X139508572Y-83051427D01*
X139489524Y-83089522D01*
X139489524Y-83184760D01*
X139508572Y-83222856D01*
X139527620Y-83241903D01*
X139565715Y-83260951D01*
X139680001Y-83260951D01*
X139718096Y-83241903D01*
X139737143Y-83222856D01*
X139356191Y-82860951D02*
X139108572Y-82860951D01*
X139241905Y-83013332D01*
X139184762Y-83013332D01*
X139146667Y-83032379D01*
X139127620Y-83051427D01*
X139108572Y-83089522D01*
X139108572Y-83184760D01*
X139127620Y-83222856D01*
X139146667Y-83241903D01*
X139184762Y-83260951D01*
X139299048Y-83260951D01*
X139337143Y-83241903D01*
X139356191Y-83222856D01*
X138708572Y-83260951D02*
X138841905Y-83070475D01*
X138937143Y-83260951D02*
X138937143Y-82860951D01*
X138784762Y-82860951D01*
X138746667Y-82879999D01*
X138727620Y-82899046D01*
X138708572Y-82937141D01*
X138708572Y-82994284D01*
X138727620Y-83032379D01*
X138746667Y-83051427D01*
X138784762Y-83070475D01*
X138937143Y-83070475D01*
X138632381Y-83299046D02*
X138327620Y-83299046D01*
X138251429Y-83241903D02*
X138194286Y-83260951D01*
X138099048Y-83260951D01*
X138060953Y-83241903D01*
X138041905Y-83222856D01*
X138022858Y-83184760D01*
X138022858Y-83146665D01*
X138041905Y-83108570D01*
X138060953Y-83089522D01*
X138099048Y-83070475D01*
X138175239Y-83051427D01*
X138213334Y-83032379D01*
X138232381Y-83013332D01*
X138251429Y-82975237D01*
X138251429Y-82937141D01*
X138232381Y-82899046D01*
X138213334Y-82879999D01*
X138175239Y-82860951D01*
X138080001Y-82860951D01*
X138022858Y-82879999D01*
X137775239Y-82860951D02*
X137699048Y-82860951D01*
X137660953Y-82879999D01*
X137622858Y-82918094D01*
X137603810Y-82994284D01*
X137603810Y-83127618D01*
X137622858Y-83203808D01*
X137660953Y-83241903D01*
X137699048Y-83260951D01*
X137775239Y-83260951D01*
X137813334Y-83241903D01*
X137851429Y-83203808D01*
X137870477Y-83127618D01*
X137870477Y-82994284D01*
X137851429Y-82918094D01*
X137813334Y-82879999D01*
X137775239Y-82860951D01*
X137489524Y-82860951D02*
X137260953Y-82860951D01*
X137375239Y-83260951D02*
X137375239Y-82860951D01*
X137146667Y-82899046D02*
X137127620Y-82879999D01*
X137089524Y-82860951D01*
X136994286Y-82860951D01*
X136956191Y-82879999D01*
X136937143Y-82899046D01*
X136918096Y-82937141D01*
X136918096Y-82975237D01*
X136937143Y-83032379D01*
X137165715Y-83260951D01*
X136918096Y-83260951D01*
X136784762Y-82860951D02*
X136537143Y-82860951D01*
X136670477Y-83013332D01*
X136613334Y-83013332D01*
X136575239Y-83032379D01*
X136556191Y-83051427D01*
X136537143Y-83089522D01*
X136537143Y-83184760D01*
X136556191Y-83222856D01*
X136575239Y-83241903D01*
X136613334Y-83260951D01*
X136727620Y-83260951D01*
X136765715Y-83241903D01*
X136784762Y-83222856D01*
D11*
%TO.C,C10*%
X133283096Y-91582141D02*
X133283096Y-91439284D01*
X133283096Y-91510713D02*
X133033096Y-91510713D01*
X133068810Y-91486903D01*
X133092620Y-91463094D01*
X133104524Y-91439284D01*
X133033096Y-91736903D02*
X133033096Y-91760713D01*
X133045001Y-91784522D01*
X133056905Y-91796427D01*
X133080715Y-91808332D01*
X133128334Y-91820237D01*
X133187858Y-91820237D01*
X133235477Y-91808332D01*
X133259286Y-91796427D01*
X133271191Y-91784522D01*
X133283096Y-91760713D01*
X133283096Y-91736903D01*
X133271191Y-91713094D01*
X133259286Y-91701189D01*
X133235477Y-91689284D01*
X133187858Y-91677379D01*
X133128334Y-91677379D01*
X133080715Y-91689284D01*
X133056905Y-91701189D01*
X133045001Y-91713094D01*
X133033096Y-91736903D01*
X133116429Y-91927379D02*
X133283096Y-91927379D01*
X133140239Y-91927379D02*
X133128334Y-91939284D01*
X133116429Y-91963094D01*
X133116429Y-91998808D01*
X133128334Y-92022618D01*
X133152143Y-92034522D01*
X133283096Y-92034522D01*
X133152143Y-92236903D02*
X133152143Y-92153570D01*
X133283096Y-92153570D02*
X133033096Y-92153570D01*
X133033096Y-92272618D01*
%TO.C,C2*%
X100096905Y-87093094D02*
X100239762Y-87093094D01*
X100168334Y-87093094D02*
X100168334Y-86843094D01*
X100192143Y-86878808D01*
X100215953Y-86902618D01*
X100239762Y-86914522D01*
X99942143Y-86843094D02*
X99918334Y-86843094D01*
X99894524Y-86854999D01*
X99882620Y-86866903D01*
X99870715Y-86890713D01*
X99858810Y-86938332D01*
X99858810Y-86997856D01*
X99870715Y-87045475D01*
X99882620Y-87069284D01*
X99894524Y-87081189D01*
X99918334Y-87093094D01*
X99942143Y-87093094D01*
X99965953Y-87081189D01*
X99977858Y-87069284D01*
X99989762Y-87045475D01*
X100001667Y-86997856D01*
X100001667Y-86938332D01*
X99989762Y-86890713D01*
X99977858Y-86866903D01*
X99965953Y-86854999D01*
X99942143Y-86843094D01*
X99704048Y-86843094D02*
X99680239Y-86843094D01*
X99656429Y-86854999D01*
X99644524Y-86866903D01*
X99632620Y-86890713D01*
X99620715Y-86938332D01*
X99620715Y-86997856D01*
X99632620Y-87045475D01*
X99644524Y-87069284D01*
X99656429Y-87081189D01*
X99680239Y-87093094D01*
X99704048Y-87093094D01*
X99727858Y-87081189D01*
X99739762Y-87069284D01*
X99751667Y-87045475D01*
X99763572Y-86997856D01*
X99763572Y-86938332D01*
X99751667Y-86890713D01*
X99739762Y-86866903D01*
X99727858Y-86854999D01*
X99704048Y-86843094D01*
X99513572Y-86926427D02*
X99513572Y-87093094D01*
X99513572Y-86950237D02*
X99501667Y-86938332D01*
X99477858Y-86926427D01*
X99442143Y-86926427D01*
X99418334Y-86938332D01*
X99406429Y-86962141D01*
X99406429Y-87093094D01*
X99204048Y-86962141D02*
X99287381Y-86962141D01*
X99287381Y-87093094D02*
X99287381Y-86843094D01*
X99168334Y-86843094D01*
D13*
%TO.C,m2*%
X117263715Y-87504522D02*
X117263715Y-86234522D01*
X116538001Y-87504522D02*
X117082286Y-86778808D01*
X116538001Y-86234522D02*
X117263715Y-86960237D01*
X115933239Y-87504522D02*
X115691334Y-87504522D01*
X115570381Y-87444046D01*
X115509905Y-87383570D01*
X115388953Y-87202141D01*
X115328477Y-86960237D01*
X115328477Y-86476427D01*
X115388953Y-86355475D01*
X115449429Y-86294999D01*
X115570381Y-86234522D01*
X115812286Y-86234522D01*
X115933239Y-86294999D01*
X115993715Y-86355475D01*
X116054191Y-86476427D01*
X116054191Y-86778808D01*
X115993715Y-86899760D01*
X115933239Y-86960237D01*
X115812286Y-87020713D01*
X115570381Y-87020713D01*
X115449429Y-86960237D01*
X115388953Y-86899760D01*
X115328477Y-86778808D01*
X114118953Y-86294999D02*
X114239905Y-86234522D01*
X114421334Y-86234522D01*
X114602762Y-86294999D01*
X114723715Y-86415951D01*
X114784191Y-86536903D01*
X114844667Y-86778808D01*
X114844667Y-86960237D01*
X114784191Y-87202141D01*
X114723715Y-87323094D01*
X114602762Y-87444046D01*
X114421334Y-87504522D01*
X114300381Y-87504522D01*
X114118953Y-87444046D01*
X114058477Y-87383570D01*
X114058477Y-86960237D01*
X114300381Y-86960237D01*
X113574667Y-87141665D02*
X112969905Y-87141665D01*
X113695620Y-87504522D02*
X113272286Y-86234522D01*
X112848953Y-87504522D01*
X111760381Y-86294999D02*
X111881334Y-86234522D01*
X112062762Y-86234522D01*
X112244191Y-86294999D01*
X112365143Y-86415951D01*
X112425620Y-86536903D01*
X112486096Y-86778808D01*
X112486096Y-86960237D01*
X112425620Y-87202141D01*
X112365143Y-87323094D01*
X112244191Y-87444046D01*
X112062762Y-87504522D01*
X111941810Y-87504522D01*
X111760381Y-87444046D01*
X111699905Y-87383570D01*
X111699905Y-86960237D01*
X111941810Y-86960237D01*
X110913715Y-86234522D02*
X110792762Y-86234522D01*
X110671810Y-86294999D01*
X110611334Y-86355475D01*
X110550858Y-86476427D01*
X110490381Y-86718332D01*
X110490381Y-87020713D01*
X110550858Y-87262618D01*
X110611334Y-87383570D01*
X110671810Y-87444046D01*
X110792762Y-87504522D01*
X110913715Y-87504522D01*
X111034667Y-87444046D01*
X111095143Y-87383570D01*
X111155620Y-87262618D01*
X111216096Y-87020713D01*
X111216096Y-86718332D01*
X111155620Y-86476427D01*
X111095143Y-86355475D01*
X111034667Y-86294999D01*
X110913715Y-86234522D01*
X109764667Y-86778808D02*
X109885620Y-86718332D01*
X109946096Y-86657856D01*
X110006572Y-86536903D01*
X110006572Y-86476427D01*
X109946096Y-86355475D01*
X109885620Y-86294999D01*
X109764667Y-86234522D01*
X109522762Y-86234522D01*
X109401810Y-86294999D01*
X109341334Y-86355475D01*
X109280858Y-86476427D01*
X109280858Y-86536903D01*
X109341334Y-86657856D01*
X109401810Y-86718332D01*
X109522762Y-86778808D01*
X109764667Y-86778808D01*
X109885620Y-86839284D01*
X109946096Y-86899760D01*
X110006572Y-87020713D01*
X110006572Y-87262618D01*
X109946096Y-87383570D01*
X109885620Y-87444046D01*
X109764667Y-87504522D01*
X109522762Y-87504522D01*
X109401810Y-87444046D01*
X109341334Y-87383570D01*
X109280858Y-87262618D01*
X109280858Y-87020713D01*
X109341334Y-86899760D01*
X109401810Y-86839284D01*
X109522762Y-86778808D01*
X108736572Y-86234522D02*
X108736572Y-87262618D01*
X108676096Y-87383570D01*
X108615620Y-87444046D01*
X108494667Y-87504522D01*
X108252762Y-87504522D01*
X108131810Y-87444046D01*
X108071334Y-87383570D01*
X108010858Y-87262618D01*
X108010858Y-86234522D01*
X107164191Y-86234522D02*
X107043239Y-86234522D01*
X106922286Y-86294999D01*
X106861810Y-86355475D01*
X106801334Y-86476427D01*
X106740858Y-86718332D01*
X106740858Y-87020713D01*
X106801334Y-87262618D01*
X106861810Y-87383570D01*
X106922286Y-87444046D01*
X107043239Y-87504522D01*
X107164191Y-87504522D01*
X107285143Y-87444046D01*
X107345620Y-87383570D01*
X107406096Y-87262618D01*
X107466572Y-87020713D01*
X107466572Y-86718332D01*
X107406096Y-86476427D01*
X107345620Y-86355475D01*
X107285143Y-86294999D01*
X107164191Y-86234522D01*
X106196572Y-86839284D02*
X105773239Y-86839284D01*
X105591810Y-87504522D02*
X106196572Y-87504522D01*
X106196572Y-86234522D01*
X105591810Y-86234522D01*
D11*
%TO.C,C6*%
X123596905Y-87123094D02*
X123739762Y-87123094D01*
X123668334Y-87123094D02*
X123668334Y-86873094D01*
X123692143Y-86908808D01*
X123715953Y-86932618D01*
X123739762Y-86944522D01*
X123442143Y-86873094D02*
X123418334Y-86873094D01*
X123394524Y-86884999D01*
X123382620Y-86896903D01*
X123370715Y-86920713D01*
X123358810Y-86968332D01*
X123358810Y-87027856D01*
X123370715Y-87075475D01*
X123382620Y-87099284D01*
X123394524Y-87111189D01*
X123418334Y-87123094D01*
X123442143Y-87123094D01*
X123465953Y-87111189D01*
X123477858Y-87099284D01*
X123489762Y-87075475D01*
X123501667Y-87027856D01*
X123501667Y-86968332D01*
X123489762Y-86920713D01*
X123477858Y-86896903D01*
X123465953Y-86884999D01*
X123442143Y-86873094D01*
X123204048Y-86873094D02*
X123180239Y-86873094D01*
X123156429Y-86884999D01*
X123144524Y-86896903D01*
X123132620Y-86920713D01*
X123120715Y-86968332D01*
X123120715Y-87027856D01*
X123132620Y-87075475D01*
X123144524Y-87099284D01*
X123156429Y-87111189D01*
X123180239Y-87123094D01*
X123204048Y-87123094D01*
X123227858Y-87111189D01*
X123239762Y-87099284D01*
X123251667Y-87075475D01*
X123263572Y-87027856D01*
X123263572Y-86968332D01*
X123251667Y-86920713D01*
X123239762Y-86896903D01*
X123227858Y-86884999D01*
X123204048Y-86873094D01*
X123013572Y-86956427D02*
X123013572Y-87123094D01*
X123013572Y-86980237D02*
X123001667Y-86968332D01*
X122977858Y-86956427D01*
X122942143Y-86956427D01*
X122918334Y-86968332D01*
X122906429Y-86992141D01*
X122906429Y-87123094D01*
X122704048Y-86992141D02*
X122787381Y-86992141D01*
X122787381Y-87123094D02*
X122787381Y-86873094D01*
X122668334Y-86873094D01*
%TO.C,C17*%
X132357858Y-81153094D02*
X132500715Y-81153094D01*
X132429286Y-81153094D02*
X132429286Y-80903094D01*
X132453096Y-80938808D01*
X132476905Y-80962618D01*
X132500715Y-80974522D01*
X132203096Y-80903094D02*
X132179286Y-80903094D01*
X132155477Y-80914999D01*
X132143572Y-80926903D01*
X132131667Y-80950713D01*
X132119762Y-80998332D01*
X132119762Y-81057856D01*
X132131667Y-81105475D01*
X132143572Y-81129284D01*
X132155477Y-81141189D01*
X132179286Y-81153094D01*
X132203096Y-81153094D01*
X132226905Y-81141189D01*
X132238810Y-81129284D01*
X132250715Y-81105475D01*
X132262620Y-81057856D01*
X132262620Y-80998332D01*
X132250715Y-80950713D01*
X132238810Y-80926903D01*
X132226905Y-80914999D01*
X132203096Y-80903094D01*
X132012620Y-80986427D02*
X132012620Y-81153094D01*
X132012620Y-81010237D02*
X132000715Y-80998332D01*
X131976905Y-80986427D01*
X131941191Y-80986427D01*
X131917381Y-80998332D01*
X131905477Y-81022141D01*
X131905477Y-81153094D01*
X131703096Y-81022141D02*
X131786429Y-81022141D01*
X131786429Y-81153094D02*
X131786429Y-80903094D01*
X131667381Y-80903094D01*
D14*
%TO.C,D3*%
X140076191Y-93495713D02*
X140576191Y-93614760D01*
X140219048Y-93709999D01*
X140576191Y-93805237D01*
X140076191Y-93924284D01*
X140576191Y-94114760D02*
X140076191Y-94114760D01*
X140076191Y-94305237D01*
X140100001Y-94352856D01*
X140123810Y-94376665D01*
X140171429Y-94400475D01*
X140242858Y-94400475D01*
X140290477Y-94376665D01*
X140314286Y-94352856D01*
X140338096Y-94305237D01*
X140338096Y-94114760D01*
D11*
%TO.C,C11*%
X139403096Y-84212141D02*
X139403096Y-84069284D01*
X139403096Y-84140713D02*
X139153096Y-84140713D01*
X139188810Y-84116903D01*
X139212620Y-84093094D01*
X139224524Y-84069284D01*
X139153096Y-84366903D02*
X139153096Y-84390713D01*
X139165001Y-84414522D01*
X139176905Y-84426427D01*
X139200715Y-84438332D01*
X139248334Y-84450237D01*
X139307858Y-84450237D01*
X139355477Y-84438332D01*
X139379286Y-84426427D01*
X139391191Y-84414522D01*
X139403096Y-84390713D01*
X139403096Y-84366903D01*
X139391191Y-84343094D01*
X139379286Y-84331189D01*
X139355477Y-84319284D01*
X139307858Y-84307379D01*
X139248334Y-84307379D01*
X139200715Y-84319284D01*
X139176905Y-84331189D01*
X139165001Y-84343094D01*
X139153096Y-84366903D01*
X139236429Y-84557379D02*
X139403096Y-84557379D01*
X139260239Y-84557379D02*
X139248334Y-84569284D01*
X139236429Y-84593094D01*
X139236429Y-84628808D01*
X139248334Y-84652618D01*
X139272143Y-84664522D01*
X139403096Y-84664522D01*
X139272143Y-84866903D02*
X139272143Y-84783570D01*
X139403096Y-84783570D02*
X139153096Y-84783570D01*
X139153096Y-84902618D01*
%TO.C,C12*%
X136541191Y-80926427D02*
X136541191Y-81093094D01*
X136600715Y-80831189D02*
X136660239Y-81009760D01*
X136505477Y-81009760D01*
X136410239Y-81069284D02*
X136398334Y-81081189D01*
X136410239Y-81093094D01*
X136422143Y-81081189D01*
X136410239Y-81069284D01*
X136410239Y-81093094D01*
X136315001Y-80843094D02*
X136148334Y-80843094D01*
X136255477Y-81093094D01*
X135945953Y-80926427D02*
X135945953Y-81093094D01*
X136053096Y-80926427D02*
X136053096Y-81057379D01*
X136041191Y-81081189D01*
X136017381Y-81093094D01*
X135981667Y-81093094D01*
X135957858Y-81081189D01*
X135945953Y-81069284D01*
X135743572Y-80962141D02*
X135826905Y-80962141D01*
X135826905Y-81093094D02*
X135826905Y-80843094D01*
X135707858Y-80843094D01*
D12*
%TO.C,R1*%
X131306548Y-87074760D02*
X131287501Y-87093808D01*
X131268453Y-87131903D01*
X131268453Y-87227141D01*
X131287501Y-87265237D01*
X131306548Y-87284284D01*
X131344643Y-87303332D01*
X131382739Y-87303332D01*
X131439881Y-87284284D01*
X131668453Y-87055713D01*
X131668453Y-87303332D01*
X131306548Y-87455713D02*
X131287501Y-87474760D01*
X131268453Y-87512856D01*
X131268453Y-87608094D01*
X131287501Y-87646189D01*
X131306548Y-87665237D01*
X131344643Y-87684284D01*
X131382739Y-87684284D01*
X131439881Y-87665237D01*
X131668453Y-87436665D01*
X131668453Y-87684284D01*
X131268453Y-87931903D02*
X131268453Y-87969999D01*
X131287501Y-88008094D01*
X131306548Y-88027141D01*
X131344643Y-88046189D01*
X131420834Y-88065237D01*
X131516072Y-88065237D01*
X131592262Y-88046189D01*
X131630358Y-88027141D01*
X131649405Y-88008094D01*
X131668453Y-87969999D01*
X131668453Y-87931903D01*
X131649405Y-87893808D01*
X131630358Y-87874760D01*
X131592262Y-87855713D01*
X131516072Y-87836665D01*
X131420834Y-87836665D01*
X131344643Y-87855713D01*
X131306548Y-87874760D01*
X131287501Y-87893808D01*
X131268453Y-87931903D01*
X131668453Y-88465237D02*
X131477977Y-88331903D01*
X131668453Y-88236665D02*
X131268453Y-88236665D01*
X131268453Y-88389046D01*
X131287501Y-88427141D01*
X131306548Y-88446189D01*
X131344643Y-88465237D01*
X131401786Y-88465237D01*
X131439881Y-88446189D01*
X131458929Y-88427141D01*
X131477977Y-88389046D01*
X131477977Y-88236665D01*
%TO.C,R7*%
X132859048Y-93324760D02*
X132840001Y-93343808D01*
X132820953Y-93381903D01*
X132820953Y-93477141D01*
X132840001Y-93515237D01*
X132859048Y-93534284D01*
X132897143Y-93553332D01*
X132935239Y-93553332D01*
X132992381Y-93534284D01*
X133220953Y-93305713D01*
X133220953Y-93553332D01*
X132859048Y-93705713D02*
X132840001Y-93724760D01*
X132820953Y-93762856D01*
X132820953Y-93858094D01*
X132840001Y-93896189D01*
X132859048Y-93915237D01*
X132897143Y-93934284D01*
X132935239Y-93934284D01*
X132992381Y-93915237D01*
X133220953Y-93686665D01*
X133220953Y-93934284D01*
X132820953Y-94181903D02*
X132820953Y-94219999D01*
X132840001Y-94258094D01*
X132859048Y-94277141D01*
X132897143Y-94296189D01*
X132973334Y-94315237D01*
X133068572Y-94315237D01*
X133144762Y-94296189D01*
X133182858Y-94277141D01*
X133201905Y-94258094D01*
X133220953Y-94219999D01*
X133220953Y-94181903D01*
X133201905Y-94143808D01*
X133182858Y-94124760D01*
X133144762Y-94105713D01*
X133068572Y-94086665D01*
X132973334Y-94086665D01*
X132897143Y-94105713D01*
X132859048Y-94124760D01*
X132840001Y-94143808D01*
X132820953Y-94181903D01*
X133220953Y-94715237D02*
X133030477Y-94581903D01*
X133220953Y-94486665D02*
X132820953Y-94486665D01*
X132820953Y-94639046D01*
X132840001Y-94677141D01*
X132859048Y-94696189D01*
X132897143Y-94715237D01*
X132954286Y-94715237D01*
X132992381Y-94696189D01*
X133011429Y-94677141D01*
X133030477Y-94639046D01*
X133030477Y-94486665D01*
D15*
%TO.C,D2*%
X140095715Y-86681427D02*
X140338572Y-86681427D01*
X140367143Y-86695713D01*
X140381429Y-86709999D01*
X140395715Y-86738570D01*
X140395715Y-86795713D01*
X140381429Y-86824284D01*
X140367143Y-86838570D01*
X140338572Y-86852856D01*
X140095715Y-86852856D01*
X140381429Y-86981427D02*
X140395715Y-87024284D01*
X140395715Y-87095713D01*
X140381429Y-87124284D01*
X140367143Y-87138570D01*
X140338572Y-87152856D01*
X140310001Y-87152856D01*
X140281429Y-87138570D01*
X140267143Y-87124284D01*
X140252858Y-87095713D01*
X140238572Y-87038570D01*
X140224286Y-87009999D01*
X140210001Y-86995713D01*
X140181429Y-86981427D01*
X140152858Y-86981427D01*
X140124286Y-86995713D01*
X140110001Y-87009999D01*
X140095715Y-87038570D01*
X140095715Y-87109999D01*
X140110001Y-87152856D01*
X140238572Y-87381427D02*
X140252858Y-87424284D01*
X140267143Y-87438570D01*
X140295715Y-87452856D01*
X140338572Y-87452856D01*
X140367143Y-87438570D01*
X140381429Y-87424284D01*
X140395715Y-87395713D01*
X140395715Y-87281427D01*
X140095715Y-87281427D01*
X140095715Y-87381427D01*
X140110001Y-87409999D01*
X140124286Y-87424284D01*
X140152858Y-87438570D01*
X140181429Y-87438570D01*
X140210001Y-87424284D01*
X140224286Y-87409999D01*
X140238572Y-87381427D01*
X140238572Y-87281427D01*
D12*
%TO.C,R2*%
X131299048Y-84754760D02*
X131280001Y-84773808D01*
X131260953Y-84811903D01*
X131260953Y-84907141D01*
X131280001Y-84945237D01*
X131299048Y-84964284D01*
X131337143Y-84983332D01*
X131375239Y-84983332D01*
X131432381Y-84964284D01*
X131660953Y-84735713D01*
X131660953Y-84983332D01*
X131299048Y-85135713D02*
X131280001Y-85154760D01*
X131260953Y-85192856D01*
X131260953Y-85288094D01*
X131280001Y-85326189D01*
X131299048Y-85345237D01*
X131337143Y-85364284D01*
X131375239Y-85364284D01*
X131432381Y-85345237D01*
X131660953Y-85116665D01*
X131660953Y-85364284D01*
X131260953Y-85611903D02*
X131260953Y-85649999D01*
X131280001Y-85688094D01*
X131299048Y-85707141D01*
X131337143Y-85726189D01*
X131413334Y-85745237D01*
X131508572Y-85745237D01*
X131584762Y-85726189D01*
X131622858Y-85707141D01*
X131641905Y-85688094D01*
X131660953Y-85649999D01*
X131660953Y-85611903D01*
X131641905Y-85573808D01*
X131622858Y-85554760D01*
X131584762Y-85535713D01*
X131508572Y-85516665D01*
X131413334Y-85516665D01*
X131337143Y-85535713D01*
X131299048Y-85554760D01*
X131280001Y-85573808D01*
X131260953Y-85611903D01*
X131660953Y-86145237D02*
X131470477Y-86011903D01*
X131660953Y-85916665D02*
X131260953Y-85916665D01*
X131260953Y-86069046D01*
X131280001Y-86107141D01*
X131299048Y-86126189D01*
X131337143Y-86145237D01*
X131394286Y-86145237D01*
X131432381Y-86126189D01*
X131451429Y-86107141D01*
X131470477Y-86069046D01*
X131470477Y-85916665D01*
D15*
%TO.C,D1*%
X140445715Y-89848570D02*
X140145715Y-89848570D01*
X140445715Y-90019999D01*
X140145715Y-90019999D01*
X140360001Y-90148570D02*
X140360001Y-90291427D01*
X140445715Y-90119999D02*
X140145715Y-90219999D01*
X140445715Y-90319999D01*
X140445715Y-90419999D02*
X140145715Y-90419999D01*
X140445715Y-90591427D01*
X140145715Y-90591427D01*
X140445715Y-90734284D02*
X140145715Y-90734284D01*
X140145715Y-90805713D01*
X140160001Y-90848570D01*
X140188572Y-90877141D01*
X140217143Y-90891427D01*
X140274286Y-90905713D01*
X140317143Y-90905713D01*
X140374286Y-90891427D01*
X140402858Y-90877141D01*
X140431429Y-90848570D01*
X140445715Y-90805713D01*
X140445715Y-90734284D01*
D16*
%TO.C,C19*%
X133395001Y-81261251D02*
X133395001Y-80738747D01*
X134865001Y-81261251D02*
X134865001Y-80738747D01*
%TO.C,U1*%
X139500001Y-79429999D02*
X141300001Y-79429999D01*
X139500001Y-79429999D02*
X138700001Y-79429999D01*
X139500001Y-82549999D02*
X140300001Y-82549999D01*
X139500001Y-82549999D02*
X138700001Y-82549999D01*
%TO.C,C10*%
X132948749Y-92604999D02*
X133471253Y-92604999D01*
X132948749Y-91134999D02*
X133471253Y-91134999D01*
%TO.C,C2*%
X98945001Y-86708747D02*
X98945001Y-87231251D01*
X100415001Y-86708747D02*
X100415001Y-87231251D01*
D17*
%TO.C,m2*%
X100983001Y-93179999D02*
X102258001Y-93179999D01*
X120308001Y-92929999D02*
X120308001Y-80929999D01*
X102608001Y-92929999D02*
X120308001Y-92929999D01*
X102608001Y-80929999D02*
X102608001Y-92929999D01*
X120308001Y-80929999D02*
X102608001Y-80929999D01*
D16*
%TO.C,C6*%
X122455001Y-86758747D02*
X122455001Y-87281251D01*
X123925001Y-86758747D02*
X123925001Y-87281251D01*
%TO.C,C17*%
X131365001Y-81251251D02*
X131365001Y-80728747D01*
X132835001Y-81251251D02*
X132835001Y-80728747D01*
%TO.C,G\u002A\u002A\u002A*%
G36*
X103406172Y-101486172D02*
G01*
X103240623Y-101486172D01*
X103240623Y-101320623D01*
X103406172Y-101320623D01*
X103406172Y-101486172D01*
G37*
G36*
X99680739Y-97104026D02*
G01*
X99716449Y-97104407D01*
X99749696Y-97104914D01*
X99779768Y-97105547D01*
X99805949Y-97106306D01*
X99827527Y-97107190D01*
X99843789Y-97108201D01*
X99854020Y-97109337D01*
X99887503Y-97116500D01*
X99934356Y-97131916D01*
X99977727Y-97153087D01*
X100017793Y-97180104D01*
X100054730Y-97213060D01*
X100079912Y-97241462D01*
X100107525Y-97281585D01*
X100129609Y-97325583D01*
X100146157Y-97373442D01*
X100157161Y-97425145D01*
X100157322Y-97427927D01*
X100157544Y-97437194D01*
X100157765Y-97452245D01*
X100157980Y-97472516D01*
X100158185Y-97497443D01*
X100158375Y-97526463D01*
X100158548Y-97559010D01*
X100158699Y-97594522D01*
X100158823Y-97632434D01*
X100158918Y-97672182D01*
X100158923Y-97675012D01*
X100159004Y-97723577D01*
X100159026Y-97765953D01*
X100158956Y-97802678D01*
X100158762Y-97834290D01*
X100158411Y-97861328D01*
X100157870Y-97884329D01*
X100157107Y-97903832D01*
X100156087Y-97920376D01*
X100154780Y-97934498D01*
X100153152Y-97946737D01*
X100151169Y-97957632D01*
X100148801Y-97967720D01*
X100146013Y-97977539D01*
X100142772Y-97987629D01*
X100139047Y-97998528D01*
X100132902Y-98014920D01*
X100111994Y-98057921D01*
X100085582Y-98097445D01*
X100054084Y-98133109D01*
X100017920Y-98164530D01*
X99977510Y-98191328D01*
X99933272Y-98213120D01*
X99885626Y-98229523D01*
X99883076Y-98230224D01*
X99877644Y-98231656D01*
X99872255Y-98232889D01*
X99866385Y-98233939D01*
X99859511Y-98234825D01*
X99851110Y-98235565D01*
X99840660Y-98236176D01*
X99827636Y-98236677D01*
X99811517Y-98237086D01*
X99791778Y-98237420D01*
X99767898Y-98237697D01*
X99739353Y-98237935D01*
X99705620Y-98238153D01*
X99666176Y-98238367D01*
X99620498Y-98238596D01*
X99597927Y-98238697D01*
X99549149Y-98238834D01*
X99504878Y-98238839D01*
X99465436Y-98238716D01*
X99431144Y-98238468D01*
X99402323Y-98238097D01*
X99379296Y-98237606D01*
X99362381Y-98236998D01*
X99351902Y-98236276D01*
X99316261Y-98230895D01*
X99274677Y-98220027D01*
X99234928Y-98204092D01*
X99216914Y-98195185D01*
X99193071Y-98181589D01*
X99171484Y-98166538D01*
X99150190Y-98148617D01*
X99127228Y-98126413D01*
X99107928Y-98105512D01*
X99083365Y-98073430D01*
X99063324Y-98039171D01*
X99047019Y-98001329D01*
X99033667Y-97958495D01*
X99032878Y-97955487D01*
X99031564Y-97950137D01*
X99030430Y-97944646D01*
X99029459Y-97938507D01*
X99028637Y-97931209D01*
X99027946Y-97922244D01*
X99027371Y-97911103D01*
X99026896Y-97897276D01*
X99026505Y-97880256D01*
X99026183Y-97859532D01*
X99025913Y-97834596D01*
X99025679Y-97804940D01*
X99025465Y-97770053D01*
X99025256Y-97729427D01*
X99025036Y-97682553D01*
X99024823Y-97633377D01*
X99024681Y-97589600D01*
X99024655Y-97565469D01*
X99186765Y-97565469D01*
X99186788Y-97599594D01*
X99186939Y-97639347D01*
X99187174Y-97685294D01*
X99188292Y-97896454D01*
X99197395Y-97923706D01*
X99199731Y-97930374D01*
X99216055Y-97965549D01*
X99237523Y-97996534D01*
X99263760Y-98023003D01*
X99294392Y-98044630D01*
X99329045Y-98061087D01*
X99367345Y-98072048D01*
X99370656Y-98072680D01*
X99377402Y-98073725D01*
X99385334Y-98074599D01*
X99395008Y-98075312D01*
X99406981Y-98075874D01*
X99421810Y-98076297D01*
X99440054Y-98076591D01*
X99462268Y-98076766D01*
X99489011Y-98076833D01*
X99520838Y-98076803D01*
X99558308Y-98076686D01*
X99601978Y-98076492D01*
X99809697Y-98075482D01*
X99836725Y-98066321D01*
X99865555Y-98054199D01*
X99898249Y-98034108D01*
X99927586Y-98008819D01*
X99952936Y-97978983D01*
X99973672Y-97945253D01*
X99989164Y-97908279D01*
X99989707Y-97906570D01*
X99990894Y-97902141D01*
X99991906Y-97896885D01*
X99992759Y-97890262D01*
X99993469Y-97881734D01*
X99994052Y-97870762D01*
X99994524Y-97856806D01*
X99994900Y-97839327D01*
X99995197Y-97817787D01*
X99995431Y-97791645D01*
X99995617Y-97760364D01*
X99995772Y-97723404D01*
X99995911Y-97680226D01*
X99995919Y-97677693D01*
X99995980Y-97640253D01*
X99995955Y-97604467D01*
X99995849Y-97570973D01*
X99995669Y-97540409D01*
X99995421Y-97513412D01*
X99995109Y-97490622D01*
X99994740Y-97472675D01*
X99994320Y-97460209D01*
X99993854Y-97453863D01*
X99986260Y-97422623D01*
X99972754Y-97390139D01*
X99954473Y-97359826D01*
X99932200Y-97332781D01*
X99906716Y-97310100D01*
X99878806Y-97292877D01*
X99877200Y-97292089D01*
X99867683Y-97287397D01*
X99859250Y-97283358D01*
X99851342Y-97279922D01*
X99843398Y-97277042D01*
X99834859Y-97274667D01*
X99825163Y-97272750D01*
X99813752Y-97271242D01*
X99800064Y-97270094D01*
X99783540Y-97269257D01*
X99763620Y-97268683D01*
X99739743Y-97268322D01*
X99711350Y-97268127D01*
X99677880Y-97268047D01*
X99638773Y-97268035D01*
X99593469Y-97268042D01*
X99373863Y-97268042D01*
X99350213Y-97275899D01*
X99327905Y-97284329D01*
X99302033Y-97297648D01*
X99278015Y-97314762D01*
X99253809Y-97336962D01*
X99253525Y-97337249D01*
X99238846Y-97352707D01*
X99227888Y-97366060D01*
X99219114Y-97379379D01*
X99210988Y-97394738D01*
X99208253Y-97400368D01*
X99203805Y-97409785D01*
X99199995Y-97418629D01*
X99196777Y-97427464D01*
X99194103Y-97436854D01*
X99191928Y-97447361D01*
X99190206Y-97459551D01*
X99188890Y-97473987D01*
X99187934Y-97491233D01*
X99187292Y-97511853D01*
X99186918Y-97536410D01*
X99186765Y-97565469D01*
X99024655Y-97565469D01*
X99024640Y-97551552D01*
X99024725Y-97518714D01*
X99024963Y-97490568D01*
X99025378Y-97466595D01*
X99025997Y-97446278D01*
X99026846Y-97429098D01*
X99027949Y-97414537D01*
X99029333Y-97402076D01*
X99031023Y-97391196D01*
X99033045Y-97381381D01*
X99035425Y-97372111D01*
X99038189Y-97362868D01*
X99041361Y-97353134D01*
X99044495Y-97344134D01*
X99063911Y-97300055D01*
X99088710Y-97259238D01*
X99118352Y-97222154D01*
X99152299Y-97189276D01*
X99190011Y-97161076D01*
X99230949Y-97138023D01*
X99274573Y-97120591D01*
X99320344Y-97109251D01*
X99329435Y-97108203D01*
X99345147Y-97107187D01*
X99366244Y-97106299D01*
X99392013Y-97105539D01*
X99421741Y-97104906D01*
X99454713Y-97104400D01*
X99490217Y-97104020D01*
X99527539Y-97103768D01*
X99565966Y-97103643D01*
X99604784Y-97103644D01*
X99638773Y-97103757D01*
X99643279Y-97103772D01*
X99680739Y-97104026D01*
G37*
G36*
X99680739Y-101320467D02*
G01*
X99716449Y-101320848D01*
X99749696Y-101321354D01*
X99779768Y-101321987D01*
X99805949Y-101322746D01*
X99827527Y-101323631D01*
X99843789Y-101324642D01*
X99854020Y-101325778D01*
X99887503Y-101332941D01*
X99934356Y-101348356D01*
X99977727Y-101369527D01*
X100017793Y-101396545D01*
X100054730Y-101429501D01*
X100079912Y-101457903D01*
X100107525Y-101498025D01*
X100129609Y-101542023D01*
X100146157Y-101589882D01*
X100157161Y-101641586D01*
X100157322Y-101644368D01*
X100157544Y-101653635D01*
X100157765Y-101668686D01*
X100157980Y-101688957D01*
X100158185Y-101713884D01*
X100158375Y-101742903D01*
X100158548Y-101775451D01*
X100158699Y-101810962D01*
X100158823Y-101848874D01*
X100158918Y-101888622D01*
X100158923Y-101891452D01*
X100159004Y-101940018D01*
X100159026Y-101982394D01*
X100158956Y-102019119D01*
X100158762Y-102050731D01*
X100158411Y-102077768D01*
X100157870Y-102100770D01*
X100157107Y-102120273D01*
X100156087Y-102136816D01*
X100154780Y-102150939D01*
X100153152Y-102163178D01*
X100151169Y-102174072D01*
X100148801Y-102184160D01*
X100146013Y-102193980D01*
X100142772Y-102204070D01*
X100139047Y-102214968D01*
X100132902Y-102231361D01*
X100111994Y-102274362D01*
X100085582Y-102313885D01*
X100054084Y-102349549D01*
X100017920Y-102380971D01*
X99977510Y-102407769D01*
X99933272Y-102429560D01*
X99885626Y-102445963D01*
X99883076Y-102446665D01*
X99877644Y-102448097D01*
X99872255Y-102449329D01*
X99866385Y-102450379D01*
X99859511Y-102451265D01*
X99851110Y-102452005D01*
X99840660Y-102452617D01*
X99827636Y-102453118D01*
X99811517Y-102453526D01*
X99791778Y-102453860D01*
X99767898Y-102454137D01*
X99739353Y-102454376D01*
X99705620Y-102454593D01*
X99666176Y-102454808D01*
X99620498Y-102455037D01*
X99597927Y-102455138D01*
X99549149Y-102455274D01*
X99504878Y-102455279D01*
X99465436Y-102455157D01*
X99431144Y-102454908D01*
X99402323Y-102454537D01*
X99379296Y-102454046D01*
X99362381Y-102453438D01*
X99351902Y-102452716D01*
X99316261Y-102447335D01*
X99274677Y-102436467D01*
X99234928Y-102420532D01*
X99216914Y-102411626D01*
X99193071Y-102398029D01*
X99171484Y-102382978D01*
X99150190Y-102365058D01*
X99127228Y-102342854D01*
X99107928Y-102321952D01*
X99083365Y-102289870D01*
X99063324Y-102255612D01*
X99047019Y-102217770D01*
X99033667Y-102174935D01*
X99032878Y-102171927D01*
X99031564Y-102166577D01*
X99030430Y-102161087D01*
X99029459Y-102154947D01*
X99028637Y-102147649D01*
X99027946Y-102138684D01*
X99027371Y-102127543D01*
X99026896Y-102113717D01*
X99026505Y-102096696D01*
X99026183Y-102075973D01*
X99025913Y-102051037D01*
X99025679Y-102021380D01*
X99025465Y-101986493D01*
X99025256Y-101945867D01*
X99025036Y-101898993D01*
X99024823Y-101849817D01*
X99024681Y-101806041D01*
X99024655Y-101781910D01*
X99186765Y-101781910D01*
X99186788Y-101816034D01*
X99186939Y-101855788D01*
X99187174Y-101901735D01*
X99188292Y-102112895D01*
X99197395Y-102140146D01*
X99199731Y-102146815D01*
X99216055Y-102181989D01*
X99237523Y-102212975D01*
X99263760Y-102239444D01*
X99294392Y-102261070D01*
X99329045Y-102277527D01*
X99367345Y-102288489D01*
X99370656Y-102289121D01*
X99377402Y-102290166D01*
X99385334Y-102291039D01*
X99395008Y-102291752D01*
X99406981Y-102292315D01*
X99421810Y-102292738D01*
X99440054Y-102293031D01*
X99462268Y-102293207D01*
X99489011Y-102293274D01*
X99520838Y-102293243D01*
X99558308Y-102293126D01*
X99601978Y-102292933D01*
X99809697Y-102291923D01*
X99836725Y-102282762D01*
X99865555Y-102270639D01*
X99898249Y-102250549D01*
X99927586Y-102225260D01*
X99952936Y-102195424D01*
X99973672Y-102161693D01*
X99989164Y-102124719D01*
X99989707Y-102123011D01*
X99990894Y-102118582D01*
X99991906Y-102113325D01*
X99992759Y-102106703D01*
X99993469Y-102098175D01*
X99994052Y-102087202D01*
X99994524Y-102073246D01*
X99994900Y-102055768D01*
X99995197Y-102034227D01*
X99995431Y-102008086D01*
X99995617Y-101976805D01*
X99995772Y-101939845D01*
X99995911Y-101896667D01*
X99995919Y-101894134D01*
X99995980Y-101856693D01*
X99995955Y-101820907D01*
X99995849Y-101787413D01*
X99995669Y-101756849D01*
X99995421Y-101729853D01*
X99995109Y-101707063D01*
X99994740Y-101689116D01*
X99994320Y-101676650D01*
X99993854Y-101670303D01*
X99986260Y-101639064D01*
X99972754Y-101606579D01*
X99954473Y-101576267D01*
X99932200Y-101549222D01*
X99906716Y-101526540D01*
X99878806Y-101509317D01*
X99877200Y-101508530D01*
X99867683Y-101503838D01*
X99859250Y-101499798D01*
X99851342Y-101496363D01*
X99843398Y-101493482D01*
X99834859Y-101491108D01*
X99825163Y-101489191D01*
X99813752Y-101487683D01*
X99800064Y-101486535D01*
X99783540Y-101485698D01*
X99763620Y-101485123D01*
X99739743Y-101484763D01*
X99711350Y-101484567D01*
X99677880Y-101484488D01*
X99638773Y-101484476D01*
X99593469Y-101484483D01*
X99373863Y-101484483D01*
X99350213Y-101492340D01*
X99327905Y-101500770D01*
X99302033Y-101514089D01*
X99278015Y-101531202D01*
X99253809Y-101553403D01*
X99253525Y-101553689D01*
X99238846Y-101569148D01*
X99227888Y-101582500D01*
X99219114Y-101595819D01*
X99210988Y-101611179D01*
X99208253Y-101616808D01*
X99203805Y-101626226D01*
X99199995Y-101635070D01*
X99196777Y-101643905D01*
X99194103Y-101653294D01*
X99191928Y-101663802D01*
X99190206Y-101675992D01*
X99188890Y-101690428D01*
X99187934Y-101707674D01*
X99187292Y-101728293D01*
X99186918Y-101752851D01*
X99186765Y-101781910D01*
X99024655Y-101781910D01*
X99024640Y-101767992D01*
X99024725Y-101735154D01*
X99024963Y-101707008D01*
X99025378Y-101683036D01*
X99025997Y-101662719D01*
X99026846Y-101645539D01*
X99027949Y-101630977D01*
X99029333Y-101618516D01*
X99031023Y-101607637D01*
X99033045Y-101597821D01*
X99035425Y-101588551D01*
X99038189Y-101579309D01*
X99041361Y-101569574D01*
X99044495Y-101560575D01*
X99063911Y-101516495D01*
X99088710Y-101475678D01*
X99118352Y-101438595D01*
X99152299Y-101405717D01*
X99190011Y-101377516D01*
X99230949Y-101354464D01*
X99274573Y-101337032D01*
X99320344Y-101325691D01*
X99329435Y-101324643D01*
X99345147Y-101323628D01*
X99366244Y-101322740D01*
X99392013Y-101321979D01*
X99421741Y-101321346D01*
X99454713Y-101320840D01*
X99490217Y-101320461D01*
X99527539Y-101320209D01*
X99565966Y-101320083D01*
X99604784Y-101320085D01*
X99638773Y-101320198D01*
X99643279Y-101320213D01*
X99680739Y-101320467D01*
G37*
G36*
X99351902Y-100837367D02*
G01*
X99271661Y-100838272D01*
X99191421Y-100839178D01*
X99189609Y-100999660D01*
X99024182Y-100999660D01*
X99024182Y-100834110D01*
X99186353Y-100834110D01*
X99186353Y-100671939D01*
X99351902Y-100671939D01*
X99351902Y-100837367D01*
G37*
G36*
X99654574Y-101645483D02*
G01*
X99682068Y-101645799D01*
X99703663Y-101646365D01*
X99719074Y-101647175D01*
X99728017Y-101648223D01*
X99730048Y-101648659D01*
X99758948Y-101658221D01*
X99783868Y-101673012D01*
X99804369Y-101692618D01*
X99820014Y-101716629D01*
X99830366Y-101744632D01*
X99830584Y-101745550D01*
X99831734Y-101752979D01*
X99832643Y-101764127D01*
X99833322Y-101779501D01*
X99833785Y-101799606D01*
X99834043Y-101824949D01*
X99834109Y-101856034D01*
X99833995Y-101893369D01*
X99833347Y-102025214D01*
X99821759Y-102048783D01*
X99812822Y-102064347D01*
X99795264Y-102086717D01*
X99774512Y-102105802D01*
X99752261Y-102119868D01*
X99731990Y-102129787D01*
X99602338Y-102130784D01*
X99568157Y-102130968D01*
X99532412Y-102130936D01*
X99503110Y-102130625D01*
X99480327Y-102130036D01*
X99464141Y-102129171D01*
X99454629Y-102128032D01*
X99438433Y-102123640D01*
X99412281Y-102111770D01*
X99389497Y-102095193D01*
X99371073Y-102074698D01*
X99357996Y-102051072D01*
X99357957Y-102050976D01*
X99356052Y-102046111D01*
X99354488Y-102041390D01*
X99353232Y-102036124D01*
X99352249Y-102029622D01*
X99351507Y-102021193D01*
X99350971Y-102010149D01*
X99350609Y-101995797D01*
X99350385Y-101977450D01*
X99350267Y-101954415D01*
X99350221Y-101926004D01*
X99350213Y-101891526D01*
X99350213Y-101751242D01*
X99361539Y-101728238D01*
X99365227Y-101721249D01*
X99383110Y-101695956D01*
X99405743Y-101674421D01*
X99431789Y-101657980D01*
X99454785Y-101646653D01*
X99582658Y-101645621D01*
X99583031Y-101645618D01*
X99621467Y-101645421D01*
X99654574Y-101645483D01*
G37*
G36*
X99654574Y-97429042D02*
G01*
X99682068Y-97429359D01*
X99703663Y-97429924D01*
X99719074Y-97430734D01*
X99728017Y-97431783D01*
X99730048Y-97432219D01*
X99758948Y-97441781D01*
X99783868Y-97456571D01*
X99804369Y-97476178D01*
X99820014Y-97500189D01*
X99830366Y-97528191D01*
X99830584Y-97529109D01*
X99831734Y-97536538D01*
X99832643Y-97547686D01*
X99833322Y-97563060D01*
X99833785Y-97583166D01*
X99834043Y-97608508D01*
X99834109Y-97639594D01*
X99833995Y-97676929D01*
X99833347Y-97808774D01*
X99821759Y-97832342D01*
X99812822Y-97847906D01*
X99795264Y-97870276D01*
X99774512Y-97889362D01*
X99752261Y-97903427D01*
X99731990Y-97913347D01*
X99602338Y-97914343D01*
X99568157Y-97914527D01*
X99532412Y-97914495D01*
X99503110Y-97914184D01*
X99480327Y-97913596D01*
X99464141Y-97912731D01*
X99454629Y-97911591D01*
X99438433Y-97907200D01*
X99412281Y-97895330D01*
X99389497Y-97878753D01*
X99371073Y-97858257D01*
X99357996Y-97834632D01*
X99357957Y-97834535D01*
X99356052Y-97829670D01*
X99354488Y-97824950D01*
X99353232Y-97819684D01*
X99352249Y-97813181D01*
X99351507Y-97804753D01*
X99350971Y-97793708D01*
X99350609Y-97779357D01*
X99350385Y-97761009D01*
X99350267Y-97737975D01*
X99350221Y-97709563D01*
X99350213Y-97675085D01*
X99350213Y-97534802D01*
X99361539Y-97511797D01*
X99365227Y-97504809D01*
X99383110Y-97479516D01*
X99405743Y-97457981D01*
X99431789Y-97441539D01*
X99454785Y-97430213D01*
X99582658Y-97429181D01*
X99583031Y-97429178D01*
X99621467Y-97428980D01*
X99654574Y-97429042D01*
G37*
G36*
X103871066Y-97428948D02*
G01*
X103898512Y-97429272D01*
X103919833Y-97429884D01*
X103935239Y-97430786D01*
X103944939Y-97431984D01*
X103945449Y-97432084D01*
X103974197Y-97440940D01*
X103998961Y-97455177D01*
X104019441Y-97474512D01*
X104035337Y-97498664D01*
X104046347Y-97527349D01*
X104046701Y-97528714D01*
X104047923Y-97535111D01*
X104048896Y-97543658D01*
X104049636Y-97555012D01*
X104050163Y-97569832D01*
X104050495Y-97588775D01*
X104050649Y-97612501D01*
X104050645Y-97641666D01*
X104050501Y-97676929D01*
X104049787Y-97808774D01*
X104038200Y-97832342D01*
X104029263Y-97847906D01*
X104011705Y-97870276D01*
X103990953Y-97889362D01*
X103968702Y-97903427D01*
X103948431Y-97913347D01*
X103818778Y-97914343D01*
X103784598Y-97914527D01*
X103748853Y-97914495D01*
X103719550Y-97914184D01*
X103696767Y-97913596D01*
X103680581Y-97912731D01*
X103671070Y-97911591D01*
X103654874Y-97907200D01*
X103628721Y-97895330D01*
X103605938Y-97878753D01*
X103587513Y-97858257D01*
X103574437Y-97834632D01*
X103574398Y-97834535D01*
X103572493Y-97829670D01*
X103570929Y-97824950D01*
X103569672Y-97819684D01*
X103568690Y-97813181D01*
X103567948Y-97804753D01*
X103567412Y-97793708D01*
X103567049Y-97779357D01*
X103566825Y-97761009D01*
X103566707Y-97737975D01*
X103566661Y-97709563D01*
X103566653Y-97675085D01*
X103566653Y-97534802D01*
X103577980Y-97511797D01*
X103581668Y-97504809D01*
X103599551Y-97479516D01*
X103622183Y-97457981D01*
X103648229Y-97441539D01*
X103671225Y-97430213D01*
X103798003Y-97429136D01*
X103837284Y-97428907D01*
X103871066Y-97428948D01*
G37*
G36*
X102108972Y-97186112D02*
G01*
X102108976Y-97187751D01*
X102109009Y-97217608D01*
X102109007Y-97251216D01*
X102108972Y-97285950D01*
X102108907Y-97319181D01*
X102108814Y-97348283D01*
X102108489Y-97428524D01*
X102267598Y-97428524D01*
X102267598Y-97266353D01*
X102429769Y-97266353D01*
X102429769Y-97104182D01*
X103081830Y-97104182D01*
X103081830Y-97269731D01*
X103001590Y-97269831D01*
X102990073Y-97269850D01*
X102965989Y-97269906D01*
X102937001Y-97269989D01*
X102904271Y-97270096D01*
X102868961Y-97270222D01*
X102832235Y-97270364D01*
X102795253Y-97270516D01*
X102759178Y-97270676D01*
X102597007Y-97271421D01*
X102596102Y-97351661D01*
X102595196Y-97431902D01*
X102515016Y-97432041D01*
X102514274Y-97432042D01*
X102484877Y-97432124D01*
X102451462Y-97432262D01*
X102416693Y-97432445D01*
X102383235Y-97432657D01*
X102353751Y-97432886D01*
X102272666Y-97433591D01*
X102270854Y-97594073D01*
X102105427Y-97594073D01*
X102105427Y-97431778D01*
X102026876Y-97432685D01*
X101948324Y-97433591D01*
X101947418Y-97513832D01*
X101946513Y-97594073D01*
X101781086Y-97594073D01*
X101781086Y-97428524D01*
X101943256Y-97428524D01*
X101943256Y-97104182D01*
X102108806Y-97104182D01*
X102108972Y-97186112D01*
G37*
G36*
X102595318Y-100188806D02*
G01*
X102429769Y-100188806D01*
X102429769Y-100023256D01*
X102595318Y-100023256D01*
X102595318Y-100188806D01*
G37*
G36*
X104380008Y-99780845D02*
G01*
X104380172Y-99796850D01*
X104380335Y-99818527D01*
X104380407Y-99837395D01*
X104380387Y-99852466D01*
X104380274Y-99862755D01*
X104380068Y-99867274D01*
X104379934Y-99868892D01*
X104379697Y-99876591D01*
X104379495Y-99889492D01*
X104379336Y-99906573D01*
X104379233Y-99926817D01*
X104379197Y-99949204D01*
X104379197Y-100026635D01*
X104213647Y-100026635D01*
X104213647Y-99864464D01*
X104051477Y-99864464D01*
X104051477Y-99698915D01*
X104379077Y-99698915D01*
X104380008Y-99780845D01*
G37*
G36*
X101781086Y-98077207D02*
G01*
X101781086Y-97752865D01*
X101946635Y-97752865D01*
X101946635Y-97915036D01*
X102105427Y-97915036D01*
X102105427Y-97752865D01*
X102270976Y-97752865D01*
X102270976Y-97915036D01*
X102429769Y-97915036D01*
X102429769Y-97590694D01*
X102595318Y-97590694D01*
X102595318Y-97752865D01*
X102757489Y-97752865D01*
X102757489Y-97915036D01*
X102916281Y-97915036D01*
X102916281Y-97428524D01*
X103081830Y-97428524D01*
X103081896Y-97509609D01*
X103081902Y-97518444D01*
X103081913Y-97539116D01*
X103081923Y-97565317D01*
X103081932Y-97596258D01*
X103081940Y-97631153D01*
X103081947Y-97669212D01*
X103081953Y-97709648D01*
X103081958Y-97751671D01*
X103081960Y-97794494D01*
X103081961Y-97837329D01*
X103081961Y-97861494D01*
X103081959Y-97904330D01*
X103081955Y-97946665D01*
X103081950Y-97987718D01*
X103081944Y-98026705D01*
X103081936Y-98062846D01*
X103081927Y-98095358D01*
X103081917Y-98123459D01*
X103081907Y-98146366D01*
X103081896Y-98163299D01*
X103081830Y-98242634D01*
X103001590Y-98243540D01*
X102921349Y-98244445D01*
X102920552Y-98485168D01*
X102919754Y-98725890D01*
X103078452Y-98725890D01*
X103078452Y-98401548D01*
X103243771Y-98401548D01*
X103244731Y-98483478D01*
X103244745Y-98484745D01*
X103244991Y-98514709D01*
X103245112Y-98548621D01*
X103245109Y-98583803D01*
X103244981Y-98617580D01*
X103244729Y-98647278D01*
X103243768Y-98729147D01*
X103163644Y-98730052D01*
X103083520Y-98730958D01*
X103082613Y-98809509D01*
X103081706Y-98888061D01*
X103730514Y-98888061D01*
X103730514Y-99050232D01*
X104051477Y-99050232D01*
X104051477Y-98891439D01*
X103889306Y-98891439D01*
X103889306Y-98567026D01*
X103727980Y-98567177D01*
X103707880Y-98567194D01*
X103671085Y-98567220D01*
X103633960Y-98567238D01*
X103597686Y-98567248D01*
X103563444Y-98567251D01*
X103532415Y-98567247D01*
X103505781Y-98567234D01*
X103484723Y-98567213D01*
X103402793Y-98567098D01*
X103402793Y-98401548D01*
X104054855Y-98401548D01*
X104054855Y-98563719D01*
X104213647Y-98563719D01*
X104213647Y-98401548D01*
X104379077Y-98401548D01*
X104379981Y-98483478D01*
X104380023Y-98487375D01*
X104380249Y-98517368D01*
X104380375Y-98551178D01*
X104380399Y-98586243D01*
X104380319Y-98619995D01*
X104380131Y-98649872D01*
X104380089Y-98654679D01*
X104379856Y-98685008D01*
X104379647Y-98718456D01*
X104379474Y-98752555D01*
X104379349Y-98784835D01*
X104379286Y-98812827D01*
X104379197Y-98891317D01*
X104218715Y-98893129D01*
X104217810Y-98973308D01*
X104216904Y-99053488D01*
X104136724Y-99054394D01*
X104056544Y-99055299D01*
X104055638Y-99133851D01*
X104054731Y-99212402D01*
X104217026Y-99212402D01*
X104217026Y-99377952D01*
X104051477Y-99377952D01*
X104051477Y-99215656D01*
X103972925Y-99216563D01*
X103894374Y-99217470D01*
X103892562Y-99377952D01*
X103812382Y-99378091D01*
X103811640Y-99378092D01*
X103782243Y-99378173D01*
X103748828Y-99378312D01*
X103714060Y-99378494D01*
X103680601Y-99378707D01*
X103651117Y-99378935D01*
X103570032Y-99379641D01*
X103569125Y-99458192D01*
X103568218Y-99536744D01*
X103892454Y-99536744D01*
X103893414Y-99618674D01*
X103893428Y-99619926D01*
X103893674Y-99649894D01*
X103893795Y-99683817D01*
X103893792Y-99719016D01*
X103893664Y-99752814D01*
X103893412Y-99782534D01*
X103892450Y-99864464D01*
X103727135Y-99864464D01*
X103727135Y-99702169D01*
X103648584Y-99703076D01*
X103570032Y-99703983D01*
X103569126Y-99784223D01*
X103568220Y-99864464D01*
X103402793Y-99864464D01*
X103402793Y-99702293D01*
X103240623Y-99702293D01*
X103240623Y-99698915D01*
X103406047Y-99698915D01*
X103564964Y-99698915D01*
X103564964Y-99539998D01*
X103486413Y-99540905D01*
X103407861Y-99541812D01*
X103406954Y-99620363D01*
X103406047Y-99698915D01*
X103240623Y-99698915D01*
X103240623Y-99539998D01*
X103162071Y-99540905D01*
X103083520Y-99541812D01*
X103082614Y-99622053D01*
X103081708Y-99702293D01*
X103001528Y-99702432D01*
X103000786Y-99702433D01*
X102971389Y-99702515D01*
X102937974Y-99702653D01*
X102903206Y-99702836D01*
X102869747Y-99703048D01*
X102840263Y-99703277D01*
X102759178Y-99703983D01*
X102758272Y-99784223D01*
X102757367Y-99864464D01*
X102591939Y-99864464D01*
X102591939Y-99702169D01*
X102434837Y-99703983D01*
X102433931Y-99784162D01*
X102433025Y-99864342D01*
X102352845Y-99865248D01*
X102272666Y-99866153D01*
X102271868Y-100106876D01*
X102271071Y-100347598D01*
X102433147Y-100347598D01*
X102433147Y-100509769D01*
X102591939Y-100509769D01*
X102591939Y-100347598D01*
X102757489Y-100347598D01*
X102757489Y-100509769D01*
X102916281Y-100509769D01*
X102916281Y-100347598D01*
X103078452Y-100347598D01*
X103078452Y-100026510D01*
X102999900Y-100027417D01*
X102921349Y-100028324D01*
X102919537Y-100188806D01*
X102754110Y-100188806D01*
X102754110Y-100023256D01*
X102916281Y-100023256D01*
X102916281Y-99861086D01*
X103081830Y-99861086D01*
X103081830Y-100023256D01*
X103406172Y-100023256D01*
X103406172Y-100185427D01*
X103564964Y-100185427D01*
X103564964Y-100023256D01*
X103730514Y-100023256D01*
X103730514Y-100188683D01*
X103570032Y-100190495D01*
X103569126Y-100270736D01*
X103568220Y-100350976D01*
X103402793Y-100350976D01*
X103402793Y-100188681D01*
X103324242Y-100189588D01*
X103245690Y-100190495D01*
X103244866Y-100350132D01*
X103244041Y-100509769D01*
X103727135Y-100509769D01*
X103892560Y-100509769D01*
X104051477Y-100509769D01*
X104051477Y-100350852D01*
X103972925Y-100351759D01*
X103894374Y-100352666D01*
X103893467Y-100431217D01*
X103892560Y-100509769D01*
X103727135Y-100509769D01*
X103727135Y-100347598D01*
X103889306Y-100347598D01*
X103889306Y-100185427D01*
X104379197Y-100185427D01*
X104379197Y-100350854D01*
X104218715Y-100352666D01*
X104217890Y-100512303D01*
X104217066Y-100671939D01*
X104379197Y-100671939D01*
X104379292Y-100753869D01*
X104379324Y-100785150D01*
X104379366Y-100841198D01*
X104379387Y-100896097D01*
X104379386Y-100949445D01*
X104379365Y-101000842D01*
X104379325Y-101049887D01*
X104379267Y-101096179D01*
X104379191Y-101139320D01*
X104379098Y-101178907D01*
X104378990Y-101214540D01*
X104378867Y-101245819D01*
X104378730Y-101272344D01*
X104378580Y-101293713D01*
X104378417Y-101309527D01*
X104378244Y-101319385D01*
X104378059Y-101322886D01*
X104374594Y-101323133D01*
X104365029Y-101323398D01*
X104350029Y-101323671D01*
X104330258Y-101323943D01*
X104306379Y-101324206D01*
X104279055Y-101324454D01*
X104248949Y-101324676D01*
X104216725Y-101324865D01*
X104056544Y-101325690D01*
X104055720Y-101485327D01*
X104054895Y-101644964D01*
X104213647Y-101644964D01*
X104213647Y-101482793D01*
X104379197Y-101482793D01*
X104379197Y-101648220D01*
X104218715Y-101650032D01*
X104217808Y-101728584D01*
X104216901Y-101807135D01*
X104379197Y-101807135D01*
X104379197Y-101972562D01*
X104218715Y-101974374D01*
X104217808Y-102052925D01*
X104216901Y-102131477D01*
X104379197Y-102131477D01*
X104379197Y-102297026D01*
X104213647Y-102297026D01*
X104213647Y-102134855D01*
X104051477Y-102134855D01*
X104051477Y-101972779D01*
X103810754Y-101973576D01*
X103570032Y-101974374D01*
X103569125Y-102052925D01*
X103568218Y-102131477D01*
X103730514Y-102131477D01*
X103730514Y-102293647D01*
X103892684Y-102293647D01*
X103892684Y-102459197D01*
X103813288Y-102459289D01*
X103808957Y-102459294D01*
X103779754Y-102459321D01*
X103746706Y-102459345D01*
X103712306Y-102459364D01*
X103679049Y-102459377D01*
X103649428Y-102459381D01*
X103645227Y-102459381D01*
X103614690Y-102459375D01*
X103580746Y-102459362D01*
X103545935Y-102459342D01*
X103512799Y-102459317D01*
X103483879Y-102459289D01*
X103402793Y-102459197D01*
X103402793Y-102296901D01*
X103324242Y-102297808D01*
X103245690Y-102298715D01*
X103244785Y-102378839D01*
X103243879Y-102458963D01*
X103162010Y-102459925D01*
X103160745Y-102459939D01*
X103130796Y-102460186D01*
X103096892Y-102460307D01*
X103061710Y-102460305D01*
X103027924Y-102460178D01*
X102998211Y-102459926D01*
X102916281Y-102458967D01*
X102916281Y-102134731D01*
X102837730Y-102135638D01*
X102759178Y-102136544D01*
X102758272Y-102216724D01*
X102757367Y-102296904D01*
X102677187Y-102297810D01*
X102597007Y-102298715D01*
X102596102Y-102378956D01*
X102595196Y-102459197D01*
X102429769Y-102459197D01*
X102429769Y-102297026D01*
X102267598Y-102297026D01*
X102267598Y-102293647D01*
X102433023Y-102293647D01*
X102591939Y-102293647D01*
X102591939Y-102134731D01*
X102513388Y-102135638D01*
X102434837Y-102136544D01*
X102433930Y-102215096D01*
X102433023Y-102293647D01*
X102267598Y-102293647D01*
X102267598Y-102134731D01*
X102189046Y-102135638D01*
X102110495Y-102136544D01*
X102109589Y-102216724D01*
X102108684Y-102296904D01*
X102028504Y-102297810D01*
X101948324Y-102298715D01*
X101947419Y-102378839D01*
X101946513Y-102458963D01*
X101864644Y-102459925D01*
X101863379Y-102459939D01*
X101833430Y-102460186D01*
X101799526Y-102460307D01*
X101764344Y-102460305D01*
X101730558Y-102460178D01*
X101700845Y-102459926D01*
X101618915Y-102458967D01*
X101618915Y-102293647D01*
X101943256Y-102293647D01*
X101943256Y-102134855D01*
X101781086Y-102134855D01*
X101781086Y-102131477D01*
X102270852Y-102131477D01*
X102429769Y-102131477D01*
X102595193Y-102131477D01*
X102754110Y-102131477D01*
X102754110Y-101972560D01*
X102675559Y-101973467D01*
X102597007Y-101974374D01*
X102596100Y-102052925D01*
X102595193Y-102131477D01*
X102429769Y-102131477D01*
X102429769Y-101972560D01*
X102351217Y-101973467D01*
X102272666Y-101974374D01*
X102271759Y-102052925D01*
X102270852Y-102131477D01*
X101781086Y-102131477D01*
X101781086Y-101972560D01*
X101702534Y-101973467D01*
X101623983Y-101974374D01*
X101623077Y-102054553D01*
X101622171Y-102134733D01*
X101541992Y-102135639D01*
X101461812Y-102136544D01*
X101460000Y-102296904D01*
X101379821Y-102297810D01*
X101299641Y-102298715D01*
X101298735Y-102378839D01*
X101297830Y-102458963D01*
X101215961Y-102459925D01*
X101214695Y-102459939D01*
X101184746Y-102460186D01*
X101150843Y-102460307D01*
X101115660Y-102460305D01*
X101081875Y-102460178D01*
X101052162Y-102459926D01*
X100970232Y-102458967D01*
X100970232Y-102297066D01*
X100810595Y-102297890D01*
X100650958Y-102298715D01*
X100649146Y-102459197D01*
X100483719Y-102459197D01*
X100483719Y-102293647D01*
X100645890Y-102293647D01*
X100973650Y-102293647D01*
X101132402Y-102293647D01*
X101132402Y-102131477D01*
X101297827Y-102131477D01*
X101456744Y-102131477D01*
X101456744Y-101972560D01*
X101378192Y-101973467D01*
X101299641Y-101974374D01*
X101298734Y-102052925D01*
X101297827Y-102131477D01*
X101132402Y-102131477D01*
X101132402Y-101972560D01*
X101053851Y-101973467D01*
X100975299Y-101974374D01*
X100974475Y-102134010D01*
X100973650Y-102293647D01*
X100645890Y-102293647D01*
X100645890Y-102134538D01*
X100565649Y-102134863D01*
X100564044Y-102134870D01*
X100534616Y-102134961D01*
X100501218Y-102135025D01*
X100466477Y-102135058D01*
X100433022Y-102135057D01*
X100403478Y-102135022D01*
X100321548Y-102134855D01*
X100321548Y-101969306D01*
X100649144Y-101969306D01*
X100808061Y-101969306D01*
X101135876Y-101969306D01*
X101294573Y-101969306D01*
X101946510Y-101969306D01*
X102105427Y-101969306D01*
X102105427Y-101810389D01*
X102026876Y-101811296D01*
X101948324Y-101812203D01*
X101947417Y-101890754D01*
X101946510Y-101969306D01*
X101294573Y-101969306D01*
X101294573Y-101807135D01*
X101459998Y-101807135D01*
X101618915Y-101807135D01*
X101784340Y-101807135D01*
X101943256Y-101807135D01*
X101943256Y-101648218D01*
X101864705Y-101649125D01*
X101786153Y-101650032D01*
X101785246Y-101728584D01*
X101784340Y-101807135D01*
X101618915Y-101807135D01*
X101618915Y-101648218D01*
X101540363Y-101649125D01*
X101461812Y-101650032D01*
X101460905Y-101728584D01*
X101459998Y-101807135D01*
X101294573Y-101807135D01*
X101294573Y-101644964D01*
X102271016Y-101644964D01*
X102433147Y-101644964D01*
X102433314Y-101726894D01*
X102433317Y-101728533D01*
X102433351Y-101758390D01*
X102433349Y-101791999D01*
X102433314Y-101826732D01*
X102433248Y-101859964D01*
X102433155Y-101889065D01*
X102432830Y-101969306D01*
X102591939Y-101969306D01*
X102591939Y-101807135D01*
X102757489Y-101807135D01*
X102757489Y-101969306D01*
X102919660Y-101969306D01*
X102919660Y-102131477D01*
X103078452Y-102131477D01*
X103078452Y-101969306D01*
X103402793Y-101969306D01*
X103402793Y-101810442D01*
X103241467Y-101810593D01*
X103221368Y-101810610D01*
X103184573Y-101810636D01*
X103147447Y-101810654D01*
X103111173Y-101810664D01*
X103076931Y-101810667D01*
X103045903Y-101810662D01*
X103019269Y-101810650D01*
X102998211Y-101810629D01*
X102916281Y-101810514D01*
X102916281Y-101807135D01*
X103892560Y-101807135D01*
X104051477Y-101807135D01*
X104051477Y-101648218D01*
X103972925Y-101649125D01*
X103894374Y-101650032D01*
X103893467Y-101728584D01*
X103892560Y-101807135D01*
X102916281Y-101807135D01*
X102916281Y-101648026D01*
X102836040Y-101648351D01*
X102834435Y-101648357D01*
X102805007Y-101648449D01*
X102771609Y-101648512D01*
X102736868Y-101648545D01*
X102703413Y-101648545D01*
X102673869Y-101648509D01*
X102591939Y-101648343D01*
X102591939Y-101644964D01*
X103081925Y-101644964D01*
X103564964Y-101644964D01*
X103730608Y-101644964D01*
X103889306Y-101644964D01*
X103889306Y-101161706D01*
X103810754Y-101162613D01*
X103732203Y-101163520D01*
X103731406Y-101404242D01*
X103730608Y-101644964D01*
X103564964Y-101644964D01*
X103564964Y-101161925D01*
X103324242Y-101162722D01*
X103083520Y-101163520D01*
X103082722Y-101404242D01*
X103081925Y-101644964D01*
X102591939Y-101644964D01*
X102591939Y-101486172D01*
X102429769Y-101486172D01*
X102429769Y-101323877D01*
X102351217Y-101324784D01*
X102272666Y-101325690D01*
X102271016Y-101644964D01*
X101294573Y-101644964D01*
X101294573Y-101486047D01*
X101216022Y-101486954D01*
X101137470Y-101487861D01*
X101136673Y-101728584D01*
X101135876Y-101969306D01*
X100808061Y-101969306D01*
X100808061Y-101810389D01*
X100729509Y-101811296D01*
X100650958Y-101812203D01*
X100650051Y-101890754D01*
X100649144Y-101969306D01*
X100321548Y-101969306D01*
X100321548Y-101807135D01*
X100486973Y-101807135D01*
X100645890Y-101807135D01*
X100645890Y-101648218D01*
X100567339Y-101649125D01*
X100488787Y-101650032D01*
X100487880Y-101728584D01*
X100486973Y-101807135D01*
X100321548Y-101807135D01*
X100321548Y-101644964D01*
X100649144Y-101644964D01*
X100970232Y-101644964D01*
X100970232Y-101486212D01*
X100810595Y-101487036D01*
X100650958Y-101487861D01*
X100650051Y-101566413D01*
X100649144Y-101644964D01*
X100321548Y-101644964D01*
X100321548Y-101482793D01*
X100973486Y-101482793D01*
X101132402Y-101482793D01*
X101622169Y-101482793D01*
X101781086Y-101482793D01*
X101781086Y-101323877D01*
X101702534Y-101324784D01*
X101623983Y-101325690D01*
X101623076Y-101404242D01*
X101622169Y-101482793D01*
X101132402Y-101482793D01*
X101132402Y-101323877D01*
X101053851Y-101324784D01*
X100975299Y-101325690D01*
X100974392Y-101404242D01*
X100973486Y-101482793D01*
X100321548Y-101482793D01*
X100321548Y-101320623D01*
X100645890Y-101320623D01*
X100645890Y-101161830D01*
X100483719Y-101161830D01*
X100483719Y-101158452D01*
X100973486Y-101158452D01*
X101135781Y-101158452D01*
X101135781Y-101320623D01*
X101294573Y-101320623D01*
X101294573Y-100999699D01*
X100975299Y-101001349D01*
X100974392Y-101079900D01*
X100973486Y-101158452D01*
X100483719Y-101158452D01*
X100483719Y-100834110D01*
X100649269Y-100834110D01*
X100649269Y-100996281D01*
X100808061Y-100996281D01*
X101297827Y-100996281D01*
X101460122Y-100996281D01*
X101460122Y-101158452D01*
X101618915Y-101158452D01*
X101784340Y-101158452D01*
X101946635Y-101158452D01*
X101946635Y-101320623D01*
X102267598Y-101320623D01*
X102267598Y-101161830D01*
X102105427Y-101161830D01*
X102105427Y-101158452D01*
X102271016Y-101158452D01*
X102433147Y-101158452D01*
X102433147Y-101320623D01*
X102595318Y-101320623D01*
X102595318Y-101482793D01*
X102916281Y-101482793D01*
X102916281Y-101161830D01*
X102754110Y-101161830D01*
X102754110Y-101158452D01*
X104054895Y-101158452D01*
X104213647Y-101158452D01*
X104213647Y-100837364D01*
X104135096Y-100838271D01*
X104056544Y-100839178D01*
X104055720Y-100998815D01*
X104054895Y-101158452D01*
X102754110Y-101158452D01*
X102754110Y-100996281D01*
X102919535Y-100996281D01*
X103078452Y-100996281D01*
X103406047Y-100996281D01*
X103727135Y-100996281D01*
X103727135Y-100675193D01*
X103648584Y-100676100D01*
X103570032Y-100677007D01*
X103569126Y-100757187D01*
X103568221Y-100837367D01*
X103488041Y-100838272D01*
X103407861Y-100839178D01*
X103406954Y-100917730D01*
X103406047Y-100996281D01*
X103078452Y-100996281D01*
X103078452Y-100837364D01*
X102999900Y-100838271D01*
X102921349Y-100839178D01*
X102920442Y-100917730D01*
X102919535Y-100996281D01*
X102754110Y-100996281D01*
X102754110Y-100837364D01*
X102675559Y-100838271D01*
X102597007Y-100839178D01*
X102596102Y-100919419D01*
X102595196Y-100999660D01*
X102429769Y-100999660D01*
X102429769Y-100837364D01*
X102351217Y-100838271D01*
X102272666Y-100839178D01*
X102271016Y-101158452D01*
X102105427Y-101158452D01*
X102105427Y-100837364D01*
X102026876Y-100838271D01*
X101948324Y-100839178D01*
X101947418Y-100919358D01*
X101946513Y-100999538D01*
X101866333Y-101000443D01*
X101786153Y-101001349D01*
X101785246Y-101079900D01*
X101784340Y-101158452D01*
X101618915Y-101158452D01*
X101618915Y-100996281D01*
X101781086Y-100996281D01*
X101781086Y-100837489D01*
X101618915Y-100837489D01*
X101618915Y-100675193D01*
X101540363Y-100676100D01*
X101461812Y-100677007D01*
X101460000Y-100837367D01*
X101379821Y-100838272D01*
X101299641Y-100839178D01*
X101298734Y-100917730D01*
X101297827Y-100996281D01*
X100808061Y-100996281D01*
X100808061Y-100834110D01*
X100973486Y-100834110D01*
X101132402Y-100834110D01*
X101132402Y-100675193D01*
X101053851Y-100676100D01*
X100975299Y-100677007D01*
X100974392Y-100755559D01*
X100973486Y-100834110D01*
X100808061Y-100834110D01*
X100808061Y-100675001D01*
X100727820Y-100675326D01*
X100726214Y-100675333D01*
X100696786Y-100675424D01*
X100663389Y-100675487D01*
X100628648Y-100675520D01*
X100595193Y-100675520D01*
X100565649Y-100675485D01*
X100483719Y-100675318D01*
X100483719Y-100671939D01*
X101135656Y-100671939D01*
X101456744Y-100671939D01*
X101622333Y-100671939D01*
X102108806Y-100671939D01*
X102108806Y-100834110D01*
X102267598Y-100834110D01*
X102433023Y-100834110D01*
X102591939Y-100834110D01*
X103081706Y-100834110D01*
X103402793Y-100834110D01*
X103402793Y-100675358D01*
X103243157Y-100676182D01*
X103083520Y-100677007D01*
X103082613Y-100755559D01*
X103081706Y-100834110D01*
X102591939Y-100834110D01*
X102591939Y-100675193D01*
X102434837Y-100677007D01*
X102433930Y-100755559D01*
X102433023Y-100834110D01*
X102267598Y-100834110D01*
X102267598Y-100671939D01*
X102595193Y-100671939D01*
X102754110Y-100671939D01*
X102919535Y-100671939D01*
X103078452Y-100671939D01*
X103078452Y-100513023D01*
X102999900Y-100513930D01*
X102921349Y-100514837D01*
X102919535Y-100671939D01*
X102754110Y-100671939D01*
X102754110Y-100513023D01*
X102675559Y-100513930D01*
X102597007Y-100514837D01*
X102595193Y-100671939D01*
X102267598Y-100671939D01*
X102267598Y-100513075D01*
X102106272Y-100513226D01*
X102086172Y-100513244D01*
X102049377Y-100513269D01*
X102012252Y-100513287D01*
X101975978Y-100513298D01*
X101941736Y-100513301D01*
X101910707Y-100513296D01*
X101884073Y-100513283D01*
X101863016Y-100513262D01*
X101781086Y-100513147D01*
X101781086Y-100350852D01*
X101702534Y-100351759D01*
X101623983Y-100352666D01*
X101623158Y-100512303D01*
X101622333Y-100671939D01*
X101456744Y-100671939D01*
X101456744Y-100350852D01*
X101378192Y-100351759D01*
X101299641Y-100352666D01*
X101298735Y-100432845D01*
X101297830Y-100513025D01*
X101137470Y-100514837D01*
X101135656Y-100671939D01*
X100483719Y-100671939D01*
X100483719Y-100513023D01*
X100405168Y-100513930D01*
X100326616Y-100514837D01*
X100325711Y-100595016D01*
X100324805Y-100675196D01*
X100244625Y-100676102D01*
X100164445Y-100677007D01*
X100163539Y-100755559D01*
X100162632Y-100834110D01*
X100324697Y-100834110D01*
X100325657Y-100916040D01*
X100325671Y-100917320D01*
X100325917Y-100947281D01*
X100326038Y-100981182D01*
X100326035Y-101016348D01*
X100325907Y-101050107D01*
X100325655Y-101079784D01*
X100324694Y-101161597D01*
X100242880Y-101162559D01*
X100241603Y-101162573D01*
X100211672Y-101162819D01*
X100177786Y-101162941D01*
X100142618Y-101162939D01*
X100108844Y-101162812D01*
X100079137Y-101162560D01*
X99997207Y-101161600D01*
X99997207Y-100996281D01*
X100159378Y-100996281D01*
X100159378Y-100837489D01*
X99997207Y-100837489D01*
X99997207Y-100671939D01*
X100159378Y-100671939D01*
X100159378Y-100512830D01*
X100079137Y-100513155D01*
X100077531Y-100513162D01*
X100048103Y-100513253D01*
X100014705Y-100513317D01*
X99979965Y-100513350D01*
X99946509Y-100513350D01*
X99916966Y-100513314D01*
X99835036Y-100513147D01*
X99835036Y-100347598D01*
X100162756Y-100347598D01*
X100162756Y-100509769D01*
X100321548Y-100509769D01*
X100321548Y-100347598D01*
X100483719Y-100347598D01*
X100483719Y-100188806D01*
X100321548Y-100188806D01*
X100321548Y-100023256D01*
X100486973Y-100023256D01*
X100811439Y-100023256D01*
X100811439Y-100188683D01*
X100731199Y-100189589D01*
X100650958Y-100190495D01*
X100650051Y-100269046D01*
X100649144Y-100347598D01*
X100811439Y-100347598D01*
X100811439Y-100509769D01*
X101132402Y-100509769D01*
X101132402Y-100347598D01*
X101294573Y-100347598D01*
X101946675Y-100347598D01*
X102105427Y-100347598D01*
X102105427Y-100026510D01*
X102026876Y-100027417D01*
X101948324Y-100028324D01*
X101947499Y-100187961D01*
X101946675Y-100347598D01*
X101294573Y-100347598D01*
X101294573Y-100185427D01*
X101456744Y-100185427D01*
X101622169Y-100185427D01*
X101781086Y-100185427D01*
X101781086Y-100026510D01*
X101702534Y-100027417D01*
X101623983Y-100028324D01*
X101623076Y-100106876D01*
X101622169Y-100185427D01*
X101456744Y-100185427D01*
X101456744Y-100026675D01*
X101297107Y-100027499D01*
X101137470Y-100028324D01*
X101136564Y-100108565D01*
X101135659Y-100188806D01*
X100970232Y-100188806D01*
X100970232Y-100023256D01*
X101132402Y-100023256D01*
X101459998Y-100023256D01*
X101618915Y-100023256D01*
X101618915Y-99864340D01*
X101540363Y-99865246D01*
X101461812Y-99866153D01*
X101460905Y-99944705D01*
X101459998Y-100023256D01*
X101132402Y-100023256D01*
X101132402Y-99861086D01*
X101298046Y-99861086D01*
X101456744Y-99861086D01*
X101456744Y-99698915D01*
X101943256Y-99698915D01*
X101943256Y-99536744D01*
X102108806Y-99536744D01*
X102108806Y-99698915D01*
X102429769Y-99698915D01*
X102429769Y-99540122D01*
X102267598Y-99540122D01*
X102267598Y-99536744D01*
X102433023Y-99536744D01*
X103078452Y-99536744D01*
X103243877Y-99536744D01*
X103402793Y-99536744D01*
X103402793Y-99377827D01*
X103324242Y-99378734D01*
X103245690Y-99379641D01*
X103244784Y-99458192D01*
X103243877Y-99536744D01*
X103078452Y-99536744D01*
X103078452Y-99212402D01*
X103240623Y-99212402D01*
X103568218Y-99212402D01*
X103727135Y-99212402D01*
X103727135Y-99053486D01*
X103648584Y-99054392D01*
X103570032Y-99055299D01*
X103569125Y-99133851D01*
X103568218Y-99212402D01*
X103240623Y-99212402D01*
X103240623Y-99053538D01*
X103079296Y-99053689D01*
X103059197Y-99053707D01*
X103022402Y-99053732D01*
X102985277Y-99053750D01*
X102949002Y-99053761D01*
X102914761Y-99053764D01*
X102883732Y-99053759D01*
X102857098Y-99053746D01*
X102836040Y-99053725D01*
X102754110Y-99053610D01*
X102754110Y-98891479D01*
X102594473Y-98892304D01*
X102434837Y-98893129D01*
X102434012Y-99052765D01*
X102433187Y-99212402D01*
X102595318Y-99212402D01*
X102595318Y-99377829D01*
X102515077Y-99378735D01*
X102434837Y-99379641D01*
X102433930Y-99458192D01*
X102433023Y-99536744D01*
X102267598Y-99536744D01*
X102267598Y-99377635D01*
X102187357Y-99377960D01*
X102185752Y-99377966D01*
X102156323Y-99378058D01*
X102122926Y-99378121D01*
X102088185Y-99378154D01*
X102054730Y-99378154D01*
X102025186Y-99378118D01*
X101943256Y-99377952D01*
X101943256Y-99374573D01*
X102270852Y-99374573D01*
X102429769Y-99374573D01*
X102429769Y-99215656D01*
X102351217Y-99216563D01*
X102272666Y-99217470D01*
X102271759Y-99296022D01*
X102270852Y-99374573D01*
X101943256Y-99374573D01*
X101943256Y-99050232D01*
X102108681Y-99050232D01*
X102267598Y-99050232D01*
X102267598Y-98891315D01*
X102189046Y-98892222D01*
X102110495Y-98893129D01*
X102109588Y-98971680D01*
X102108681Y-99050232D01*
X101943256Y-99050232D01*
X101943256Y-98888061D01*
X102271016Y-98888061D01*
X102429769Y-98888061D01*
X102429769Y-98566973D01*
X102351217Y-98567880D01*
X102272666Y-98568787D01*
X102271016Y-98888061D01*
X101943256Y-98888061D01*
X101943256Y-98567137D01*
X101783619Y-98567962D01*
X101623983Y-98568787D01*
X101622171Y-98729147D01*
X101541992Y-98730052D01*
X101461812Y-98730958D01*
X101460905Y-98809509D01*
X101459998Y-98888061D01*
X101622293Y-98888061D01*
X101622293Y-99050232D01*
X101784464Y-99050232D01*
X101784579Y-99132162D01*
X101784601Y-99149463D01*
X101784641Y-99194830D01*
X101784655Y-99239472D01*
X101784644Y-99282884D01*
X101784609Y-99324566D01*
X101784552Y-99364014D01*
X101784474Y-99400725D01*
X101784377Y-99434198D01*
X101784262Y-99463929D01*
X101784130Y-99489416D01*
X101783983Y-99510156D01*
X101783822Y-99525647D01*
X101783648Y-99535386D01*
X101783464Y-99538870D01*
X101783431Y-99538889D01*
X101779438Y-99539179D01*
X101769317Y-99539445D01*
X101753659Y-99539683D01*
X101733055Y-99539890D01*
X101708097Y-99540063D01*
X101679375Y-99540198D01*
X101647480Y-99540291D01*
X101613004Y-99540340D01*
X101576539Y-99540340D01*
X101538674Y-99540289D01*
X101456744Y-99540122D01*
X101456744Y-99377827D01*
X101378192Y-99378734D01*
X101299641Y-99379641D01*
X101298844Y-99620363D01*
X101298046Y-99861086D01*
X101132402Y-99861086D01*
X101132402Y-99702293D01*
X100970232Y-99702293D01*
X100970232Y-99539998D01*
X100891680Y-99540905D01*
X100813129Y-99541812D01*
X100812223Y-99621992D01*
X100811317Y-99702171D01*
X100731138Y-99703077D01*
X100650958Y-99703983D01*
X100650052Y-99784162D01*
X100649147Y-99864342D01*
X100568967Y-99865248D01*
X100488787Y-99866153D01*
X100487880Y-99944705D01*
X100486973Y-100023256D01*
X100321548Y-100023256D01*
X100321548Y-99861086D01*
X100483719Y-99861086D01*
X100483719Y-99702333D01*
X100164445Y-99703983D01*
X100163540Y-99784107D01*
X100162634Y-99864231D01*
X100080765Y-99865192D01*
X100079500Y-99865207D01*
X100049551Y-99865453D01*
X100015647Y-99865575D01*
X99980465Y-99865572D01*
X99946679Y-99865445D01*
X99916966Y-99865194D01*
X99835036Y-99864234D01*
X99835036Y-99702169D01*
X99756485Y-99703076D01*
X99677933Y-99703983D01*
X99677027Y-99784162D01*
X99676122Y-99864342D01*
X99595942Y-99865248D01*
X99515762Y-99866153D01*
X99514965Y-100106876D01*
X99514168Y-100347598D01*
X99676244Y-100347598D01*
X99676339Y-100429528D01*
X99676346Y-100436888D01*
X99676359Y-100457284D01*
X99676370Y-100483260D01*
X99676376Y-100514013D01*
X99676380Y-100548740D01*
X99676380Y-100586638D01*
X99676377Y-100626903D01*
X99676371Y-100668732D01*
X99676361Y-100711322D01*
X99676347Y-100753869D01*
X99676261Y-100996281D01*
X99838415Y-100996281D01*
X99838415Y-101161830D01*
X99759018Y-101161923D01*
X99754687Y-101161927D01*
X99725485Y-101161955D01*
X99692437Y-101161979D01*
X99658037Y-101161998D01*
X99624779Y-101162010D01*
X99595158Y-101162015D01*
X99590957Y-101162015D01*
X99560421Y-101162009D01*
X99526476Y-101161995D01*
X99491666Y-101161975D01*
X99458529Y-101161951D01*
X99429609Y-101161923D01*
X99348524Y-101161830D01*
X99348524Y-100996281D01*
X99510694Y-100996281D01*
X99510694Y-100513147D01*
X99348524Y-100513147D01*
X99348524Y-100026510D01*
X99269972Y-100027417D01*
X99191421Y-100028324D01*
X99190676Y-100190495D01*
X99190580Y-100211765D01*
X99190424Y-100248519D01*
X99190278Y-100285489D01*
X99190145Y-100321513D01*
X99190030Y-100355430D01*
X99189937Y-100386075D01*
X99189869Y-100412288D01*
X99189831Y-100432906D01*
X99189731Y-100513147D01*
X99024182Y-100513147D01*
X99024182Y-99698915D01*
X99186353Y-99698915D01*
X99351942Y-99698915D01*
X99672865Y-99698915D01*
X100000461Y-99698915D01*
X100159378Y-99698915D01*
X100487192Y-99698915D01*
X100645890Y-99698915D01*
X100645890Y-99536744D01*
X100808061Y-99536744D01*
X100808061Y-99374573D01*
X100973610Y-99374573D01*
X100973610Y-99536744D01*
X101132402Y-99536744D01*
X101132402Y-99374573D01*
X101294573Y-99374573D01*
X101294573Y-99215781D01*
X101132402Y-99215781D01*
X101132402Y-99212402D01*
X101459998Y-99212402D01*
X101618915Y-99212402D01*
X101618915Y-99053486D01*
X101540363Y-99054392D01*
X101461812Y-99055299D01*
X101460905Y-99133851D01*
X101459998Y-99212402D01*
X101132402Y-99212402D01*
X101132402Y-99050232D01*
X101294573Y-99050232D01*
X101294573Y-98729144D01*
X101216022Y-98730051D01*
X101137470Y-98730958D01*
X101136565Y-98811138D01*
X101135659Y-98891317D01*
X100975299Y-98893129D01*
X100974394Y-98973369D01*
X100973488Y-99053610D01*
X100893308Y-99053749D01*
X100892566Y-99053750D01*
X100863169Y-99053831D01*
X100829754Y-99053970D01*
X100794985Y-99054153D01*
X100761527Y-99054365D01*
X100732043Y-99054594D01*
X100650958Y-99055299D01*
X100650052Y-99135479D01*
X100649147Y-99215659D01*
X100568967Y-99216565D01*
X100488787Y-99217470D01*
X100487990Y-99458192D01*
X100487192Y-99698915D01*
X100159378Y-99698915D01*
X100159378Y-99539998D01*
X100080826Y-99540905D01*
X100002275Y-99541812D01*
X100001368Y-99620363D01*
X100000461Y-99698915D01*
X99672865Y-99698915D01*
X99672865Y-99540122D01*
X99510694Y-99540122D01*
X99510694Y-99377827D01*
X99432143Y-99378734D01*
X99353591Y-99379641D01*
X99352767Y-99539278D01*
X99351942Y-99698915D01*
X99186353Y-99698915D01*
X99186353Y-99377952D01*
X99024182Y-99377952D01*
X99024182Y-99374573D01*
X99513948Y-99374573D01*
X99676244Y-99374573D01*
X99676244Y-99536744D01*
X99997207Y-99536744D01*
X99997207Y-99377952D01*
X99835036Y-99377952D01*
X99835036Y-99374573D01*
X100000461Y-99374573D01*
X100162756Y-99374573D01*
X100162756Y-99536744D01*
X100321548Y-99536744D01*
X100321548Y-99215821D01*
X100161912Y-99216645D01*
X100002275Y-99217470D01*
X100001368Y-99296022D01*
X100000461Y-99374573D01*
X99835036Y-99374573D01*
X99835036Y-99215821D01*
X99675399Y-99216645D01*
X99515762Y-99217470D01*
X99514855Y-99296022D01*
X99513948Y-99374573D01*
X99024182Y-99374573D01*
X99024182Y-99212402D01*
X99189771Y-99212402D01*
X99510694Y-99212402D01*
X99510694Y-99053610D01*
X99348524Y-99053610D01*
X99348524Y-99050232D01*
X99514113Y-99050232D01*
X99835036Y-99050232D01*
X100000461Y-99050232D01*
X100321548Y-99050232D01*
X100486973Y-99050232D01*
X100645890Y-99050232D01*
X100645890Y-98891315D01*
X100567339Y-98892222D01*
X100488787Y-98893129D01*
X100487880Y-98971680D01*
X100486973Y-99050232D01*
X100321548Y-99050232D01*
X100321548Y-98729144D01*
X100242997Y-98730051D01*
X100164445Y-98730958D01*
X100163540Y-98811138D01*
X100162634Y-98891317D01*
X100082454Y-98892223D01*
X100002275Y-98893129D01*
X100001368Y-98971680D01*
X100000461Y-99050232D01*
X99835036Y-99050232D01*
X99835036Y-98891439D01*
X99672865Y-98891439D01*
X99672865Y-98729144D01*
X99594314Y-98730051D01*
X99515762Y-98730958D01*
X99514937Y-98890595D01*
X99514113Y-99050232D01*
X99348524Y-99050232D01*
X99348524Y-98891315D01*
X99269972Y-98892222D01*
X99191421Y-98893129D01*
X99190596Y-99052765D01*
X99189771Y-99212402D01*
X99024182Y-99212402D01*
X99024182Y-98725890D01*
X99676119Y-98725890D01*
X99838415Y-98725890D01*
X99838415Y-98888061D01*
X99997207Y-98888061D01*
X99997207Y-98725890D01*
X100159378Y-98725890D01*
X100159378Y-98567192D01*
X99918655Y-98567990D01*
X99677933Y-98568787D01*
X99677026Y-98647339D01*
X99676119Y-98725890D01*
X99024182Y-98725890D01*
X99024182Y-98563719D01*
X99348524Y-98563719D01*
X99348524Y-98401548D01*
X100324927Y-98401548D01*
X100325094Y-98483478D01*
X100325097Y-98485117D01*
X100325130Y-98514974D01*
X100325128Y-98548583D01*
X100325093Y-98583316D01*
X100325028Y-98616548D01*
X100324935Y-98645649D01*
X100324610Y-98725890D01*
X100808061Y-98725890D01*
X100808061Y-98563719D01*
X100970232Y-98563719D01*
X101135656Y-98563719D01*
X101618915Y-98563719D01*
X102595358Y-98563719D01*
X102754110Y-98563719D01*
X102754110Y-98242632D01*
X102675559Y-98243539D01*
X102597007Y-98244445D01*
X102596182Y-98404082D01*
X102595358Y-98563719D01*
X101618915Y-98563719D01*
X101618915Y-98405022D01*
X101378192Y-98405819D01*
X101137470Y-98406616D01*
X101136563Y-98485168D01*
X101135656Y-98563719D01*
X100970232Y-98563719D01*
X100970232Y-98404610D01*
X100889991Y-98404935D01*
X100888385Y-98404942D01*
X100858957Y-98405033D01*
X100825559Y-98405096D01*
X100790819Y-98405129D01*
X100757363Y-98405129D01*
X100727820Y-98405094D01*
X100645890Y-98404927D01*
X100645890Y-98401548D01*
X100973486Y-98401548D01*
X101132402Y-98401548D01*
X101622169Y-98401548D01*
X101943256Y-98401548D01*
X102108900Y-98401548D01*
X102267598Y-98401548D01*
X102267598Y-98239378D01*
X102433187Y-98239378D01*
X102591939Y-98239378D01*
X102757364Y-98239378D01*
X102916281Y-98239378D01*
X102916281Y-98080461D01*
X102837730Y-98081368D01*
X102759178Y-98082275D01*
X102758271Y-98160826D01*
X102757364Y-98239378D01*
X102591939Y-98239378D01*
X102591939Y-98077207D01*
X102754110Y-98077207D01*
X102754110Y-97918454D01*
X102594473Y-97919279D01*
X102434837Y-97920104D01*
X102433187Y-98239378D01*
X102267598Y-98239378D01*
X102267598Y-97918290D01*
X102189046Y-97919197D01*
X102110495Y-97920104D01*
X102109698Y-98160826D01*
X102108900Y-98401548D01*
X101943256Y-98401548D01*
X101943256Y-98080461D01*
X101864705Y-98081368D01*
X101786153Y-98082275D01*
X101785248Y-98162454D01*
X101784342Y-98242634D01*
X101704162Y-98243540D01*
X101623983Y-98244445D01*
X101623076Y-98322997D01*
X101622169Y-98401548D01*
X101132402Y-98401548D01*
X101132402Y-98242632D01*
X101053851Y-98243539D01*
X100975299Y-98244445D01*
X100974392Y-98322997D01*
X100973486Y-98401548D01*
X100645890Y-98401548D01*
X100645890Y-98239378D01*
X100811315Y-98239378D01*
X100970232Y-98239378D01*
X101135656Y-98239378D01*
X101294573Y-98239378D01*
X101294573Y-98080461D01*
X101216022Y-98081368D01*
X101137470Y-98082275D01*
X101136563Y-98160826D01*
X101135656Y-98239378D01*
X100970232Y-98239378D01*
X100970232Y-98080461D01*
X100891680Y-98081368D01*
X100813129Y-98082275D01*
X100812222Y-98160826D01*
X100811315Y-98239378D01*
X100645890Y-98239378D01*
X100645890Y-98077207D01*
X100808061Y-98077207D01*
X100808061Y-97918415D01*
X100645890Y-97918415D01*
X100645890Y-97752865D01*
X100808061Y-97752865D01*
X100808061Y-97594113D01*
X100648424Y-97594937D01*
X100488787Y-97595762D01*
X100488027Y-97839018D01*
X100487962Y-97859854D01*
X100487834Y-97902499D01*
X100487711Y-97944745D01*
X100487596Y-97985795D01*
X100487490Y-98024857D01*
X100487397Y-98061135D01*
X100487317Y-98093834D01*
X100487253Y-98122161D01*
X100487208Y-98145319D01*
X100487182Y-98162515D01*
X100487098Y-98242756D01*
X100321548Y-98242756D01*
X100321548Y-97428524D01*
X100808061Y-97428524D01*
X100808061Y-97269660D01*
X100646735Y-97269811D01*
X100626635Y-97269828D01*
X100589840Y-97269853D01*
X100552715Y-97269871D01*
X100516441Y-97269882D01*
X100482199Y-97269885D01*
X100451170Y-97269880D01*
X100424536Y-97269867D01*
X100403478Y-97269846D01*
X100321548Y-97269731D01*
X100321548Y-97104182D01*
X100973610Y-97104182D01*
X100973683Y-97185267D01*
X100973698Y-97205083D01*
X100973715Y-97237085D01*
X100973730Y-97273930D01*
X100973741Y-97314565D01*
X100973748Y-97357935D01*
X100973752Y-97402985D01*
X100973752Y-97448661D01*
X100973749Y-97493907D01*
X100973743Y-97537669D01*
X100973733Y-97578893D01*
X100973720Y-97616523D01*
X100973703Y-97649506D01*
X100973683Y-97676787D01*
X100973610Y-97756122D01*
X100893369Y-97757027D01*
X100813129Y-97757933D01*
X100812222Y-97836485D01*
X100811315Y-97915036D01*
X100973610Y-97915036D01*
X100973610Y-98077207D01*
X101132402Y-98077207D01*
X101132402Y-97752865D01*
X101294573Y-97752865D01*
X101294573Y-97431902D01*
X101132402Y-97431902D01*
X101132402Y-97428524D01*
X101297827Y-97428524D01*
X101456744Y-97428524D01*
X101456744Y-97269607D01*
X101378192Y-97270514D01*
X101299641Y-97271421D01*
X101298734Y-97349972D01*
X101297827Y-97428524D01*
X101132402Y-97428524D01*
X101132402Y-97266353D01*
X101294573Y-97266353D01*
X101294573Y-97104182D01*
X101622063Y-97104182D01*
X101623023Y-97186112D01*
X101623038Y-97187378D01*
X101623283Y-97217343D01*
X101623404Y-97251254D01*
X101623401Y-97286436D01*
X101623273Y-97320214D01*
X101623021Y-97349911D01*
X101622060Y-97431780D01*
X101541936Y-97432686D01*
X101461812Y-97433591D01*
X101461067Y-97595762D01*
X101460971Y-97617044D01*
X101460815Y-97653793D01*
X101460669Y-97690756D01*
X101460536Y-97726771D01*
X101460421Y-97760676D01*
X101460328Y-97791309D01*
X101460260Y-97817508D01*
X101460222Y-97838113D01*
X101460122Y-97918292D01*
X101379882Y-97919198D01*
X101299641Y-97920104D01*
X101298734Y-97998655D01*
X101297827Y-98077207D01*
X101460122Y-98077207D01*
X101460122Y-98239378D01*
X101618915Y-98239378D01*
X101618915Y-98077207D01*
X101781086Y-98077207D01*
G37*
G36*
X103897179Y-97104026D02*
G01*
X103932890Y-97104407D01*
X103966137Y-97104914D01*
X103996208Y-97105547D01*
X104022390Y-97106306D01*
X104043968Y-97107190D01*
X104060229Y-97108201D01*
X104070461Y-97109337D01*
X104103943Y-97116500D01*
X104150796Y-97131916D01*
X104194167Y-97153087D01*
X104234233Y-97180104D01*
X104271171Y-97213060D01*
X104296352Y-97241462D01*
X104323965Y-97281585D01*
X104346050Y-97325583D01*
X104362598Y-97373442D01*
X104373602Y-97425145D01*
X104373762Y-97427927D01*
X104373985Y-97437194D01*
X104374206Y-97452245D01*
X104374421Y-97472516D01*
X104374625Y-97497443D01*
X104374816Y-97526463D01*
X104374989Y-97559010D01*
X104375139Y-97594522D01*
X104375264Y-97632434D01*
X104375358Y-97672182D01*
X104375363Y-97675012D01*
X104375444Y-97723577D01*
X104375466Y-97765953D01*
X104375397Y-97802678D01*
X104375203Y-97834290D01*
X104374852Y-97861328D01*
X104374311Y-97884329D01*
X104373547Y-97903832D01*
X104372528Y-97920376D01*
X104371221Y-97934498D01*
X104369592Y-97946737D01*
X104367610Y-97957632D01*
X104365241Y-97967720D01*
X104362453Y-97977539D01*
X104359213Y-97987629D01*
X104355488Y-97998528D01*
X104349343Y-98014920D01*
X104328435Y-98057921D01*
X104302022Y-98097445D01*
X104270524Y-98133109D01*
X104234361Y-98164530D01*
X104193950Y-98191328D01*
X104149712Y-98213120D01*
X104102066Y-98229523D01*
X104099516Y-98230224D01*
X104094085Y-98231656D01*
X104088696Y-98232889D01*
X104082825Y-98233939D01*
X104075952Y-98234825D01*
X104067551Y-98235565D01*
X104057100Y-98236176D01*
X104044077Y-98236677D01*
X104027957Y-98237086D01*
X104008219Y-98237420D01*
X103984339Y-98237697D01*
X103955794Y-98237935D01*
X103922060Y-98238153D01*
X103882616Y-98238367D01*
X103836938Y-98238596D01*
X103814368Y-98238697D01*
X103765589Y-98238834D01*
X103721318Y-98238839D01*
X103681876Y-98238716D01*
X103647584Y-98238468D01*
X103618764Y-98238097D01*
X103595736Y-98237606D01*
X103578822Y-98236998D01*
X103568343Y-98236276D01*
X103532702Y-98230895D01*
X103491117Y-98220027D01*
X103451368Y-98204092D01*
X103433354Y-98195185D01*
X103409512Y-98181589D01*
X103387924Y-98166538D01*
X103366631Y-98148617D01*
X103343669Y-98126413D01*
X103324368Y-98105512D01*
X103299806Y-98073430D01*
X103279765Y-98039171D01*
X103263460Y-98001329D01*
X103250107Y-97958495D01*
X103249318Y-97955487D01*
X103248004Y-97950137D01*
X103246870Y-97944646D01*
X103245900Y-97938507D01*
X103245077Y-97931209D01*
X103244386Y-97922244D01*
X103243811Y-97911103D01*
X103243337Y-97897276D01*
X103242946Y-97880256D01*
X103242623Y-97859532D01*
X103242353Y-97834596D01*
X103242119Y-97804940D01*
X103241906Y-97770053D01*
X103241697Y-97729427D01*
X103241477Y-97682553D01*
X103241263Y-97633377D01*
X103241121Y-97589600D01*
X103241095Y-97565469D01*
X103403206Y-97565469D01*
X103403228Y-97599594D01*
X103403380Y-97639347D01*
X103403614Y-97685294D01*
X103404732Y-97896454D01*
X103413835Y-97923706D01*
X103416171Y-97930374D01*
X103432496Y-97965549D01*
X103453963Y-97996534D01*
X103480200Y-98023003D01*
X103510833Y-98044630D01*
X103545486Y-98061087D01*
X103583786Y-98072048D01*
X103587096Y-98072680D01*
X103593843Y-98073725D01*
X103601775Y-98074599D01*
X103611448Y-98075312D01*
X103623421Y-98075874D01*
X103638251Y-98076297D01*
X103656494Y-98076591D01*
X103678709Y-98076766D01*
X103705451Y-98076833D01*
X103737279Y-98076803D01*
X103774749Y-98076686D01*
X103818418Y-98076492D01*
X104026137Y-98075482D01*
X104053166Y-98066321D01*
X104081995Y-98054199D01*
X104114689Y-98034108D01*
X104144026Y-98008819D01*
X104169377Y-97978983D01*
X104190112Y-97945253D01*
X104205604Y-97908279D01*
X104206148Y-97906570D01*
X104207335Y-97902141D01*
X104208347Y-97896885D01*
X104209200Y-97890262D01*
X104209910Y-97881734D01*
X104210493Y-97870762D01*
X104210964Y-97856806D01*
X104211340Y-97839327D01*
X104211638Y-97817787D01*
X104211871Y-97791645D01*
X104212058Y-97760364D01*
X104212212Y-97723404D01*
X104212352Y-97680226D01*
X104212359Y-97677693D01*
X104212420Y-97640253D01*
X104212395Y-97604467D01*
X104212290Y-97570973D01*
X104212110Y-97540409D01*
X104211861Y-97513412D01*
X104211550Y-97490622D01*
X104211181Y-97472675D01*
X104210760Y-97460209D01*
X104210294Y-97453863D01*
X104202700Y-97422623D01*
X104189195Y-97390139D01*
X104170914Y-97359826D01*
X104148640Y-97332781D01*
X104123157Y-97310100D01*
X104095246Y-97292877D01*
X104093641Y-97292089D01*
X104084124Y-97287397D01*
X104075691Y-97283358D01*
X104067783Y-97279922D01*
X104059839Y-97277042D01*
X104051299Y-97274667D01*
X104041604Y-97272750D01*
X104030192Y-97271242D01*
X104016505Y-97270094D01*
X103999981Y-97269257D01*
X103980060Y-97268683D01*
X103956184Y-97268322D01*
X103927790Y-97268127D01*
X103894320Y-97268047D01*
X103855213Y-97268035D01*
X103809910Y-97268042D01*
X103590303Y-97268042D01*
X103566653Y-97275899D01*
X103544346Y-97284329D01*
X103518474Y-97297648D01*
X103494455Y-97314762D01*
X103470249Y-97336962D01*
X103469965Y-97337249D01*
X103455287Y-97352707D01*
X103444329Y-97366060D01*
X103435555Y-97379379D01*
X103427428Y-97394738D01*
X103424693Y-97400368D01*
X103420246Y-97409785D01*
X103416436Y-97418629D01*
X103413217Y-97427464D01*
X103410543Y-97436854D01*
X103408369Y-97447361D01*
X103406646Y-97459551D01*
X103405330Y-97473987D01*
X103404374Y-97491233D01*
X103403732Y-97511853D01*
X103403358Y-97536410D01*
X103403206Y-97565469D01*
X103241095Y-97565469D01*
X103241080Y-97551552D01*
X103241166Y-97518714D01*
X103241403Y-97490568D01*
X103241819Y-97466595D01*
X103242438Y-97446278D01*
X103243286Y-97429098D01*
X103244389Y-97414537D01*
X103245773Y-97402076D01*
X103247464Y-97391196D01*
X103249486Y-97381381D01*
X103251866Y-97372111D01*
X103254629Y-97362868D01*
X103257802Y-97353134D01*
X103260936Y-97344134D01*
X103280351Y-97300055D01*
X103305150Y-97259238D01*
X103334793Y-97222154D01*
X103368740Y-97189276D01*
X103406452Y-97161076D01*
X103447389Y-97138023D01*
X103491014Y-97120591D01*
X103536785Y-97109251D01*
X103545876Y-97108203D01*
X103561587Y-97107187D01*
X103582684Y-97106299D01*
X103608454Y-97105539D01*
X103638181Y-97104906D01*
X103671154Y-97104400D01*
X103706658Y-97104020D01*
X103743980Y-97103768D01*
X103782407Y-97103643D01*
X103821224Y-97103644D01*
X103855213Y-97103757D01*
X103859720Y-97103772D01*
X103897179Y-97104026D01*
G37*
G36*
X99838415Y-100188806D02*
G01*
X99672865Y-100188806D01*
X99672865Y-100023256D01*
X99838415Y-100023256D01*
X99838415Y-100188806D01*
G37*
G36*
X100162756Y-100188806D02*
G01*
X99997207Y-100188806D01*
X99997207Y-100023256D01*
X100162756Y-100023256D01*
X100162756Y-100188806D01*
G37*
%TO.C,D3*%
X135510001Y-95589999D02*
X135510001Y-92389999D01*
X139110001Y-95589999D02*
X135510001Y-95589999D01*
X139110001Y-92389999D02*
X135510001Y-92389999D01*
%TO.C,C11*%
X139571253Y-83744999D02*
X139048749Y-83744999D01*
X139571253Y-85214999D02*
X139048749Y-85214999D01*
%TO.C,C12*%
X136945001Y-81261251D02*
X136945001Y-80738747D01*
X135475001Y-81261251D02*
X135475001Y-80738747D01*
%TO.C,R1*%
X130720437Y-86879999D02*
X132174565Y-86879999D01*
X130720437Y-88699999D02*
X132174565Y-88699999D01*
%TO.C,R7*%
X133797065Y-93109999D02*
X132342937Y-93109999D01*
X133797065Y-94929999D02*
X132342937Y-94929999D01*
%TO.C,D2*%
X135510001Y-88759999D02*
X135510001Y-85559999D01*
X139110001Y-85559999D02*
X135510001Y-85559999D01*
X139110001Y-88759999D02*
X135510001Y-88759999D01*
%TO.C,R2*%
X130712937Y-86359999D02*
X132167065Y-86359999D01*
X130712937Y-84539999D02*
X132167065Y-84539999D01*
%TO.C,D1*%
X139110001Y-88979999D02*
X135510001Y-88979999D01*
X135510001Y-92179999D02*
X135510001Y-88979999D01*
X139110001Y-92179999D02*
X135510001Y-92179999D01*
%TO.C,G\u002A\u002A\u002A*%
G36*
X137160774Y-66508591D02*
G01*
X137158043Y-66508596D01*
X137108284Y-66508652D01*
X137052271Y-66508648D01*
X136994384Y-66508590D01*
X136939001Y-66508481D01*
X136890501Y-66508327D01*
X136756772Y-66507785D01*
X136756772Y-67313500D01*
X137027045Y-67313500D01*
X137027045Y-67583773D01*
X137292215Y-67583773D01*
X137567590Y-67583773D01*
X137832440Y-67583773D01*
X137830929Y-67452860D01*
X137829417Y-67321946D01*
X137698504Y-67320435D01*
X137567590Y-67318923D01*
X137567590Y-67583773D01*
X137292215Y-67583773D01*
X137291673Y-67450044D01*
X137291663Y-67447368D01*
X137291511Y-67398324D01*
X137291405Y-67342663D01*
X137291350Y-67284765D01*
X137291350Y-67229008D01*
X137291409Y-67179772D01*
X137291687Y-67043228D01*
X137837863Y-67043228D01*
X137837863Y-67313500D01*
X138102505Y-67313500D01*
X138102505Y-67043228D01*
X138378408Y-67043228D01*
X138378408Y-67313500D01*
X138642984Y-67313500D01*
X138641610Y-67047451D01*
X138640235Y-66781401D01*
X138234826Y-66780134D01*
X138200102Y-66780026D01*
X138129030Y-66779812D01*
X138058624Y-66779607D01*
X137990209Y-66779415D01*
X137925109Y-66779240D01*
X137864648Y-66779084D01*
X137810152Y-66778951D01*
X137762943Y-66778845D01*
X137724347Y-66778769D01*
X137695688Y-66778726D01*
X137561960Y-66778586D01*
X137561960Y-66502682D01*
X138918954Y-66502682D01*
X138918954Y-67313500D01*
X139183715Y-67313500D01*
X139183464Y-67044635D01*
X139183435Y-67011137D01*
X139183393Y-66949815D01*
X139183362Y-66887942D01*
X139183345Y-66827488D01*
X139183340Y-66770421D01*
X139183348Y-66718709D01*
X139183369Y-66674321D01*
X139183404Y-66639226D01*
X139183596Y-66502682D01*
X139459499Y-66502682D01*
X139459499Y-67589404D01*
X139324363Y-67589524D01*
X139291339Y-67589550D01*
X139238005Y-67589579D01*
X139176598Y-67589603D01*
X139108876Y-67589621D01*
X139036596Y-67589633D01*
X138961516Y-67589640D01*
X138885394Y-67589640D01*
X138809987Y-67589635D01*
X138737053Y-67589625D01*
X138668350Y-67589608D01*
X138605635Y-67589586D01*
X138550666Y-67589558D01*
X138505201Y-67589524D01*
X138372982Y-67589404D01*
X138369962Y-67321946D01*
X138239049Y-67320435D01*
X138108136Y-67318923D01*
X138108136Y-67589404D01*
X137837863Y-67589404D01*
X137837863Y-67854046D01*
X138378408Y-67854046D01*
X138378408Y-68124318D01*
X138913323Y-68124318D01*
X138913323Y-67854046D01*
X139189226Y-67854046D01*
X139189226Y-68124318D01*
X139459499Y-68124318D01*
X139459499Y-68670111D01*
X139322955Y-68671710D01*
X139320845Y-68671735D01*
X139270906Y-68672144D01*
X139214390Y-68672346D01*
X139155755Y-68672340D01*
X139099462Y-68672127D01*
X139049969Y-68671707D01*
X138913526Y-68670105D01*
X138910508Y-68403037D01*
X138640235Y-68401795D01*
X138604768Y-68401636D01*
X138543521Y-68401376D01*
X138481919Y-68401133D01*
X138421897Y-68400911D01*
X138365391Y-68400719D01*
X138314338Y-68400564D01*
X138270675Y-68400451D01*
X138236336Y-68400388D01*
X138102709Y-68400222D01*
X138102645Y-68394591D01*
X138918954Y-68394591D01*
X139183803Y-68394591D01*
X139182292Y-68263678D01*
X139180780Y-68132764D01*
X139049867Y-68131253D01*
X138918954Y-68129741D01*
X138918954Y-68394591D01*
X138102645Y-68394591D01*
X138101199Y-68266493D01*
X138099690Y-68132764D01*
X137968776Y-68131253D01*
X137837863Y-68129741D01*
X137837863Y-68400222D01*
X137567590Y-68400222D01*
X137567590Y-68664864D01*
X137837863Y-68664864D01*
X137837863Y-68935136D01*
X138378408Y-68935136D01*
X138378408Y-69211040D01*
X138108136Y-69211040D01*
X138108136Y-69475682D01*
X138378408Y-69475682D01*
X138378408Y-69751585D01*
X138108136Y-69751585D01*
X138108136Y-70016227D01*
X138648681Y-70016227D01*
X138648681Y-70292130D01*
X138378408Y-70292130D01*
X138378408Y-70562403D01*
X138108136Y-70562403D01*
X138108136Y-70827045D01*
X138918954Y-70827045D01*
X138918954Y-71102948D01*
X138783817Y-71103057D01*
X138769093Y-71103068D01*
X138734642Y-71103085D01*
X138690976Y-71103102D01*
X138639408Y-71103118D01*
X138581253Y-71103131D01*
X138517824Y-71103143D01*
X138450435Y-71103153D01*
X138380399Y-71103160D01*
X138309030Y-71103165D01*
X138237641Y-71103166D01*
X138197369Y-71103166D01*
X138125979Y-71103162D01*
X138055423Y-71103156D01*
X137987005Y-71103148D01*
X137922028Y-71103137D01*
X137861797Y-71103124D01*
X137807613Y-71103109D01*
X137760780Y-71103093D01*
X137722602Y-71103076D01*
X137694383Y-71103057D01*
X137562164Y-71102948D01*
X137560654Y-70969220D01*
X137559144Y-70835491D01*
X136756772Y-70832833D01*
X136756772Y-71097318D01*
X137297318Y-71097318D01*
X137297318Y-71372838D01*
X137160774Y-71374437D01*
X137158663Y-71374461D01*
X137108725Y-71374871D01*
X137052208Y-71375072D01*
X136993574Y-71375067D01*
X136937281Y-71374854D01*
X136887787Y-71374434D01*
X136751345Y-71372832D01*
X136749836Y-71239298D01*
X136748326Y-71105764D01*
X136617413Y-71104252D01*
X136486500Y-71102741D01*
X136486500Y-72184039D01*
X136216227Y-72184039D01*
X136216227Y-72718954D01*
X136480869Y-72718954D01*
X136480869Y-72448681D01*
X137021534Y-72448681D01*
X137021283Y-72179816D01*
X137021254Y-72146318D01*
X137021211Y-72084996D01*
X137021181Y-72023123D01*
X137021163Y-71962669D01*
X137021158Y-71905601D01*
X137021166Y-71853890D01*
X137021188Y-71809502D01*
X137021223Y-71774407D01*
X137021414Y-71637863D01*
X137297318Y-71637863D01*
X137297318Y-72724584D01*
X137027045Y-72724584D01*
X137027045Y-72989226D01*
X137297318Y-72989226D01*
X137297318Y-73264929D01*
X137160774Y-73266437D01*
X137154279Y-73266506D01*
X137104294Y-73266883D01*
X137047945Y-73267094D01*
X136989508Y-73267134D01*
X136933256Y-73266999D01*
X136883463Y-73266686D01*
X136875452Y-73266616D01*
X136824906Y-73266229D01*
X136769161Y-73265881D01*
X136712333Y-73265592D01*
X136658536Y-73265384D01*
X136611884Y-73265278D01*
X136481073Y-73265130D01*
X136479563Y-73131401D01*
X136478054Y-72997672D01*
X136210800Y-72994654D01*
X136209290Y-72861027D01*
X136207781Y-72727400D01*
X136076868Y-72725888D01*
X135945954Y-72724377D01*
X135945954Y-72994857D01*
X135670051Y-72994857D01*
X135670051Y-72718954D01*
X135940531Y-72718954D01*
X135939020Y-72588040D01*
X135937508Y-72457127D01*
X135803780Y-72455617D01*
X135670051Y-72454108D01*
X135669820Y-72320481D01*
X135669818Y-72319244D01*
X135669682Y-72270251D01*
X135669451Y-72214562D01*
X135669261Y-72178408D01*
X135945954Y-72178408D01*
X136210804Y-72178408D01*
X136209293Y-72047495D01*
X136207781Y-71916582D01*
X136076868Y-71915070D01*
X135945954Y-71913559D01*
X135945954Y-72178408D01*
X135669261Y-72178408D01*
X135669147Y-72156617D01*
X135668793Y-72100855D01*
X135668412Y-72051718D01*
X135667236Y-71916582D01*
X135536322Y-71915070D01*
X135405409Y-71913559D01*
X135405409Y-72453928D01*
X135268865Y-72455528D01*
X135266779Y-72455552D01*
X135216833Y-72455961D01*
X135160298Y-72456163D01*
X135101636Y-72456158D01*
X135045308Y-72455945D01*
X134995777Y-72455524D01*
X134859233Y-72453922D01*
X134859233Y-72178408D01*
X135129713Y-72178408D01*
X135128202Y-72047495D01*
X135126690Y-71916582D01*
X134992962Y-71915072D01*
X134859233Y-71913562D01*
X134859233Y-71908136D01*
X135135136Y-71908136D01*
X135399986Y-71908136D01*
X135398475Y-71777222D01*
X135396963Y-71646309D01*
X135266050Y-71644797D01*
X135135136Y-71643286D01*
X135135136Y-71908136D01*
X134859233Y-71908136D01*
X134859233Y-71637863D01*
X135129506Y-71637863D01*
X135405409Y-71637863D01*
X135670259Y-71637863D01*
X135668747Y-71506950D01*
X135667236Y-71376036D01*
X135536322Y-71374525D01*
X135405409Y-71373013D01*
X135405409Y-71637863D01*
X135129506Y-71637863D01*
X135129506Y-71367590D01*
X135399986Y-71367590D01*
X135398475Y-71236677D01*
X135396963Y-71105764D01*
X135263234Y-71104254D01*
X135129506Y-71102744D01*
X135129497Y-71097318D01*
X135405409Y-71097318D01*
X135945954Y-71097318D01*
X135945954Y-71367590D01*
X136210716Y-71367590D01*
X136210465Y-71098725D01*
X136210436Y-71065227D01*
X136210393Y-71003905D01*
X136210363Y-70942032D01*
X136210345Y-70881578D01*
X136210340Y-70827045D01*
X137567590Y-70827045D01*
X137832440Y-70827045D01*
X137830929Y-70696132D01*
X137829417Y-70565218D01*
X137698504Y-70563707D01*
X137567590Y-70562195D01*
X137567590Y-70827045D01*
X136210340Y-70827045D01*
X136210340Y-70824511D01*
X136210348Y-70772799D01*
X136210370Y-70728411D01*
X136210405Y-70693316D01*
X136210596Y-70556772D01*
X138102439Y-70556772D01*
X138101064Y-70290723D01*
X138099690Y-70024673D01*
X137833640Y-70023298D01*
X137567590Y-70021924D01*
X137567590Y-70286500D01*
X137837863Y-70286500D01*
X137837863Y-70556772D01*
X137562167Y-70556772D01*
X137560656Y-70425859D01*
X137559144Y-70294946D01*
X137293095Y-70293571D01*
X137027045Y-70292196D01*
X137027045Y-70556772D01*
X136480803Y-70556772D01*
X136479428Y-70290723D01*
X136478054Y-70024673D01*
X136212004Y-70023298D01*
X135945954Y-70021924D01*
X135945954Y-70292130D01*
X135670255Y-70292130D01*
X135668745Y-70158402D01*
X135667236Y-70024673D01*
X135536322Y-70023161D01*
X135405409Y-70021650D01*
X135405409Y-71097318D01*
X135129497Y-71097318D01*
X135129274Y-70969118D01*
X135129272Y-70967881D01*
X135129137Y-70918888D01*
X135128906Y-70863199D01*
X135128601Y-70805253D01*
X135128247Y-70749492D01*
X135127867Y-70700355D01*
X135126690Y-70565218D01*
X134992962Y-70563709D01*
X134859233Y-70562199D01*
X134859233Y-70286500D01*
X135129713Y-70286500D01*
X135128202Y-70155586D01*
X135126690Y-70024673D01*
X134993063Y-70023164D01*
X134859436Y-70021654D01*
X134856418Y-69754400D01*
X134455232Y-69753071D01*
X134054046Y-69751743D01*
X134054046Y-70021858D01*
X133783773Y-70021858D01*
X133783773Y-70286500D01*
X134054046Y-70286500D01*
X134054046Y-70562403D01*
X133783773Y-70562403D01*
X133783773Y-70827045D01*
X134054046Y-70827045D01*
X134054046Y-71097318D01*
X134589168Y-71097318D01*
X134587657Y-70966404D01*
X134586145Y-70835491D01*
X134452416Y-70833981D01*
X134318688Y-70832472D01*
X134318688Y-70556772D01*
X134594591Y-70556772D01*
X134594591Y-70827045D01*
X134864864Y-70827045D01*
X134864864Y-71102948D01*
X134594591Y-71102948D01*
X134594591Y-71643494D01*
X134324318Y-71643494D01*
X134324318Y-71908136D01*
X134594591Y-71908136D01*
X134594591Y-72184039D01*
X134318892Y-72184039D01*
X134317382Y-72050310D01*
X134315872Y-71916582D01*
X134182144Y-71915072D01*
X134048415Y-71913562D01*
X134048415Y-71637863D01*
X134318895Y-71637863D01*
X134317384Y-71506950D01*
X134315872Y-71376036D01*
X134049823Y-71374662D01*
X133783773Y-71373287D01*
X133783773Y-72178408D01*
X134054046Y-72178408D01*
X134054046Y-72448681D01*
X134324318Y-72448681D01*
X134324318Y-73265130D01*
X134048619Y-73265130D01*
X134047109Y-73131401D01*
X134045600Y-72997672D01*
X133779550Y-72996298D01*
X133513500Y-72994923D01*
X133513500Y-73265130D01*
X133376956Y-73265288D01*
X133324825Y-73265342D01*
X133231415Y-73265412D01*
X133139921Y-73265446D01*
X133051012Y-73265445D01*
X132965355Y-73265410D01*
X132883617Y-73265343D01*
X132806465Y-73265246D01*
X132734568Y-73265119D01*
X132668592Y-73264965D01*
X132609206Y-73264785D01*
X132557076Y-73264580D01*
X132512871Y-73264352D01*
X132477256Y-73264102D01*
X132450901Y-73263831D01*
X132434472Y-73263541D01*
X132428637Y-73263234D01*
X132428225Y-73257458D01*
X132427784Y-73241517D01*
X132427330Y-73216519D01*
X132426877Y-73183569D01*
X132426437Y-73143772D01*
X132426025Y-73098234D01*
X132425655Y-73048060D01*
X132425339Y-72994355D01*
X132425313Y-72989226D01*
X132702682Y-72989226D01*
X133237805Y-72989226D01*
X133236293Y-72858313D01*
X133234782Y-72727400D01*
X132702682Y-72724650D01*
X132702682Y-72989226D01*
X132425313Y-72989226D01*
X132423964Y-72727400D01*
X131891864Y-72724650D01*
X131891864Y-72989226D01*
X132162137Y-72989226D01*
X132162137Y-73265130D01*
X131886438Y-73265130D01*
X131883418Y-72997672D01*
X131752505Y-72996161D01*
X131621592Y-72994649D01*
X131621592Y-73265130D01*
X131345892Y-73265130D01*
X131344383Y-73131401D01*
X131342873Y-72997672D01*
X131211960Y-72996161D01*
X131081046Y-72994649D01*
X131081046Y-73265130D01*
X130805143Y-73265130D01*
X130805143Y-72989226D01*
X131075416Y-72989226D01*
X131075416Y-72718954D01*
X131345531Y-72718954D01*
X131621592Y-72718954D01*
X131886441Y-72718954D01*
X133783773Y-72718954D01*
X134048623Y-72718954D01*
X134047111Y-72588040D01*
X134045600Y-72457127D01*
X133914686Y-72455615D01*
X133783773Y-72454104D01*
X133783773Y-72718954D01*
X131886441Y-72718954D01*
X131884930Y-72588040D01*
X131883418Y-72457127D01*
X131752505Y-72455615D01*
X131621592Y-72454104D01*
X131621592Y-72718954D01*
X131345531Y-72718954D01*
X131344636Y-72448681D01*
X131891864Y-72448681D01*
X132697259Y-72448681D01*
X132695748Y-72317768D01*
X132694236Y-72186854D01*
X132293050Y-72185525D01*
X131891864Y-72184197D01*
X131891864Y-72448681D01*
X131344636Y-72448681D01*
X131343741Y-72178408D01*
X132972955Y-72178408D01*
X133508077Y-72178408D01*
X133506566Y-72047495D01*
X133505054Y-71916582D01*
X133371427Y-71915072D01*
X133237800Y-71913563D01*
X133234782Y-71646309D01*
X133103868Y-71644797D01*
X132972955Y-71643286D01*
X132972955Y-72178408D01*
X131343741Y-72178408D01*
X131342873Y-71916582D01*
X131211960Y-71915070D01*
X131081046Y-71913559D01*
X131081046Y-72184039D01*
X130810774Y-72184039D01*
X130810774Y-72454312D01*
X130534870Y-72454312D01*
X130534717Y-72321991D01*
X130534709Y-72314771D01*
X130534663Y-72266103D01*
X130534623Y-72211026D01*
X130534591Y-72153695D01*
X130534571Y-72098268D01*
X130534563Y-72048903D01*
X130534564Y-72041900D01*
X130534573Y-71991009D01*
X130534596Y-71934438D01*
X130534611Y-71908136D01*
X131891864Y-71908136D01*
X132696894Y-71908136D01*
X132695999Y-71637863D01*
X133243228Y-71637863D01*
X133507804Y-71637863D01*
X133506429Y-71371813D01*
X133505054Y-71105764D01*
X133374141Y-71104252D01*
X133243228Y-71102741D01*
X133243228Y-71637863D01*
X132695999Y-71637863D01*
X132694236Y-71105764D01*
X131891864Y-71103106D01*
X131891864Y-71908136D01*
X130534611Y-71908136D01*
X130534629Y-71876422D01*
X130534670Y-71821198D01*
X130534717Y-71772999D01*
X130534870Y-71637863D01*
X130805351Y-71637863D01*
X130803839Y-71506950D01*
X130802328Y-71376036D01*
X130535260Y-71373018D01*
X130533657Y-71236575D01*
X130533633Y-71234466D01*
X130533223Y-71184554D01*
X130533019Y-71128050D01*
X130533022Y-71097318D01*
X131081046Y-71097318D01*
X131351319Y-71097318D01*
X131351319Y-71637863D01*
X131616081Y-71637863D01*
X131615829Y-71368998D01*
X131615800Y-71335500D01*
X131615758Y-71274178D01*
X131615728Y-71212305D01*
X131615710Y-71151851D01*
X131615705Y-71094783D01*
X131615713Y-71043072D01*
X131615734Y-70998684D01*
X131615769Y-70963589D01*
X131615953Y-70832468D01*
X132972955Y-70832468D01*
X132972955Y-71097318D01*
X133237805Y-71097318D01*
X133513500Y-71097318D01*
X133778350Y-71097318D01*
X133776839Y-70966404D01*
X133775327Y-70835491D01*
X133644414Y-70833979D01*
X133513500Y-70832468D01*
X133513500Y-71097318D01*
X133237805Y-71097318D01*
X133236293Y-70966404D01*
X133234782Y-70835491D01*
X133103868Y-70833979D01*
X132972955Y-70832468D01*
X131615953Y-70832468D01*
X131615961Y-70827045D01*
X131886762Y-70827045D01*
X132162137Y-70827045D01*
X132697052Y-70827045D01*
X132697052Y-70556772D01*
X133778350Y-70556772D01*
X133776839Y-70425859D01*
X133775327Y-70294946D01*
X133644414Y-70293434D01*
X133513500Y-70291923D01*
X133513500Y-70556772D01*
X133237805Y-70556772D01*
X133236293Y-70425859D01*
X133234782Y-70294946D01*
X132967324Y-70291926D01*
X132967324Y-70286500D01*
X133243228Y-70286500D01*
X133508077Y-70286500D01*
X133506566Y-70155586D01*
X133505054Y-70024673D01*
X133374141Y-70023161D01*
X133243228Y-70021650D01*
X133243228Y-70286500D01*
X132967324Y-70286500D01*
X132967324Y-70016227D01*
X133237805Y-70016227D01*
X133236293Y-69885314D01*
X133234782Y-69754400D01*
X132968732Y-69753026D01*
X132702682Y-69751651D01*
X132702682Y-70021858D01*
X132432410Y-70021858D01*
X132432410Y-70292130D01*
X132162137Y-70292130D01*
X132162137Y-70827045D01*
X131886762Y-70827045D01*
X131886220Y-70693316D01*
X131886209Y-70690640D01*
X131886057Y-70641596D01*
X131885951Y-70585935D01*
X131885896Y-70528037D01*
X131885897Y-70472280D01*
X131885956Y-70423044D01*
X131886234Y-70286500D01*
X132156506Y-70286500D01*
X132156506Y-70016227D01*
X132426987Y-70016227D01*
X132425475Y-69885314D01*
X132423964Y-69754400D01*
X132157914Y-69753026D01*
X131891864Y-69751651D01*
X131891864Y-70021858D01*
X131755320Y-70022135D01*
X131752589Y-70022141D01*
X131702830Y-70022196D01*
X131646818Y-70022193D01*
X131588931Y-70022135D01*
X131533548Y-70022026D01*
X131485048Y-70021871D01*
X131351319Y-70021329D01*
X131351319Y-70286500D01*
X131621592Y-70286500D01*
X131621592Y-70562403D01*
X131351319Y-70562403D01*
X131351319Y-70832676D01*
X131081046Y-70832676D01*
X131081046Y-71097318D01*
X130533022Y-71097318D01*
X130533024Y-71069416D01*
X130533235Y-71013109D01*
X130533654Y-70963589D01*
X130535254Y-70827045D01*
X131075623Y-70827045D01*
X131074112Y-70696132D01*
X131072600Y-70565218D01*
X130805346Y-70562200D01*
X130805285Y-70556772D01*
X131081046Y-70556772D01*
X131345896Y-70556772D01*
X131344385Y-70425859D01*
X131342873Y-70294946D01*
X131211960Y-70293434D01*
X131081046Y-70291923D01*
X131081046Y-70556772D01*
X130805285Y-70556772D01*
X130802328Y-70294946D01*
X130534870Y-70291926D01*
X130534870Y-70286500D01*
X130810774Y-70286500D01*
X131075623Y-70286500D01*
X131074112Y-70155586D01*
X131072600Y-70024673D01*
X130941687Y-70023161D01*
X130810774Y-70021650D01*
X130810774Y-70286500D01*
X130534870Y-70286500D01*
X130534870Y-70016227D01*
X130805143Y-70016227D01*
X131081046Y-70016227D01*
X131345896Y-70016227D01*
X131344385Y-69885314D01*
X131342873Y-69754400D01*
X131211960Y-69752889D01*
X131081046Y-69751377D01*
X131081046Y-70016227D01*
X130805143Y-70016227D01*
X130805143Y-69745954D01*
X131075623Y-69745954D01*
X132432410Y-69745954D01*
X132697052Y-69745954D01*
X133243228Y-69745954D01*
X133778262Y-69745954D01*
X133778011Y-69477089D01*
X133778010Y-69475682D01*
X134054046Y-69475682D01*
X134589168Y-69475682D01*
X134587657Y-69344768D01*
X134586145Y-69213855D01*
X134320095Y-69212480D01*
X134054046Y-69211106D01*
X134054046Y-69475682D01*
X133778010Y-69475682D01*
X133777982Y-69443591D01*
X133777939Y-69382269D01*
X133777909Y-69320396D01*
X133777891Y-69259942D01*
X133777886Y-69202875D01*
X133777894Y-69151163D01*
X133777916Y-69106775D01*
X133777951Y-69071680D01*
X133778142Y-68935136D01*
X134048623Y-68935136D01*
X134324318Y-68935136D01*
X134589168Y-68935136D01*
X134587657Y-68804223D01*
X134586145Y-68673310D01*
X134455232Y-68671798D01*
X134324318Y-68670287D01*
X134324318Y-68935136D01*
X134048623Y-68935136D01*
X134047111Y-68804223D01*
X134045600Y-68673310D01*
X133513500Y-68670560D01*
X133513500Y-69481312D01*
X133243228Y-69481312D01*
X133243228Y-69745954D01*
X132697052Y-69745954D01*
X132697052Y-69475682D01*
X133237805Y-69475682D01*
X133236293Y-69344768D01*
X133234782Y-69213855D01*
X133101155Y-69212346D01*
X132967528Y-69210836D01*
X132966018Y-69077209D01*
X132964509Y-68943582D01*
X132833596Y-68942071D01*
X132702682Y-68940559D01*
X132702682Y-69211040D01*
X132432410Y-69211040D01*
X132432410Y-69745954D01*
X131075623Y-69745954D01*
X131074112Y-69615041D01*
X131072600Y-69484128D01*
X130938973Y-69482618D01*
X130805346Y-69481109D01*
X130805285Y-69475682D01*
X131351319Y-69475682D01*
X131616169Y-69475682D01*
X131614657Y-69344768D01*
X131613146Y-69213855D01*
X131482232Y-69212343D01*
X131351319Y-69210832D01*
X131351319Y-69475682D01*
X130805285Y-69475682D01*
X130802328Y-69213855D01*
X130535260Y-69210837D01*
X130533657Y-69074394D01*
X130533633Y-69072285D01*
X130533223Y-69022372D01*
X130533019Y-68965869D01*
X130533024Y-68907234D01*
X130533235Y-68850927D01*
X130533654Y-68801408D01*
X130535254Y-68664864D01*
X130810774Y-68664864D01*
X130810774Y-69205409D01*
X131075416Y-69205409D01*
X131621592Y-69205409D01*
X131886441Y-69205409D01*
X131884930Y-69074496D01*
X131883418Y-68943582D01*
X131752505Y-68942071D01*
X131621592Y-68940559D01*
X131621592Y-69205409D01*
X131075416Y-69205409D01*
X131075416Y-68935136D01*
X131345896Y-68935136D01*
X131344385Y-68804223D01*
X131342873Y-68673310D01*
X131209246Y-68671800D01*
X131075619Y-68670291D01*
X131075619Y-68670287D01*
X132162137Y-68670287D01*
X132162137Y-68935136D01*
X132426987Y-68935136D01*
X132425475Y-68804223D01*
X132423964Y-68673310D01*
X132293050Y-68671798D01*
X132162137Y-68670287D01*
X131075619Y-68670287D01*
X131075558Y-68664864D01*
X131621592Y-68664864D01*
X131886441Y-68664864D01*
X132702682Y-68664864D01*
X132972955Y-68664864D01*
X132972955Y-68935136D01*
X133237597Y-68935136D01*
X133237597Y-68664864D01*
X134859441Y-68664864D01*
X134857929Y-68533950D01*
X134856418Y-68403037D01*
X134725504Y-68401525D01*
X134594591Y-68400014D01*
X134594591Y-68664864D01*
X133508077Y-68664864D01*
X133506566Y-68533950D01*
X133505054Y-68403037D01*
X133371427Y-68401528D01*
X133237800Y-68400018D01*
X133237739Y-68394591D01*
X133513500Y-68394591D01*
X134048623Y-68394591D01*
X134047111Y-68263678D01*
X134045600Y-68132764D01*
X133778346Y-68129746D01*
X133776836Y-67996119D01*
X133775327Y-67862492D01*
X133644414Y-67860980D01*
X133513500Y-67859469D01*
X133513500Y-68394591D01*
X133237739Y-68394591D01*
X133234782Y-68132764D01*
X133103868Y-68131253D01*
X132972955Y-68129741D01*
X132972955Y-68400222D01*
X132702682Y-68400222D01*
X132702682Y-68664864D01*
X131886441Y-68664864D01*
X131884930Y-68533950D01*
X131883418Y-68403037D01*
X131752505Y-68401525D01*
X131621592Y-68400014D01*
X131621592Y-68664864D01*
X131075558Y-68664864D01*
X131074110Y-68536664D01*
X131072600Y-68403037D01*
X130938973Y-68401528D01*
X130805346Y-68400018D01*
X130805285Y-68394591D01*
X131081046Y-68394591D01*
X131345896Y-68394591D01*
X131344385Y-68263678D01*
X131342873Y-68132764D01*
X131211960Y-68131253D01*
X131081046Y-68129741D01*
X131081046Y-68394591D01*
X130805285Y-68394591D01*
X130802328Y-68132764D01*
X130535260Y-68129746D01*
X130535196Y-68124318D01*
X131351319Y-68124318D01*
X132156714Y-68124318D01*
X132432410Y-68124318D01*
X132967258Y-68124318D01*
X132965884Y-67858269D01*
X132965862Y-67854046D01*
X133243228Y-67854046D01*
X133508077Y-67854046D01*
X133783773Y-67854046D01*
X134054046Y-67854046D01*
X134054046Y-68124318D01*
X134324318Y-68124318D01*
X134324318Y-68394591D01*
X134588894Y-68394591D01*
X134864864Y-68394591D01*
X135135136Y-68394591D01*
X135135136Y-69205409D01*
X135405409Y-69205409D01*
X135405409Y-69481312D01*
X135135136Y-69481312D01*
X135135136Y-70016227D01*
X135399778Y-70016227D01*
X135675682Y-70016227D01*
X137021622Y-70016227D01*
X137020111Y-69885314D01*
X137018599Y-69754400D01*
X136752549Y-69753026D01*
X136486500Y-69751651D01*
X136486500Y-70016227D01*
X135940531Y-70016227D01*
X135939020Y-69885314D01*
X135937508Y-69754400D01*
X135806595Y-69752889D01*
X135675682Y-69751377D01*
X135675682Y-70016227D01*
X135399778Y-70016227D01*
X135399778Y-69745954D01*
X135670579Y-69745954D01*
X136216227Y-69745954D01*
X138102713Y-69745954D01*
X138101201Y-69615041D01*
X138099690Y-69484128D01*
X137297318Y-69481470D01*
X137297318Y-69745954D01*
X136481077Y-69745954D01*
X136479565Y-69615041D01*
X136478054Y-69484128D01*
X136347140Y-69482616D01*
X136216227Y-69481105D01*
X136216227Y-69745954D01*
X135670579Y-69745954D01*
X135670037Y-69612226D01*
X135670027Y-69609550D01*
X135669875Y-69560505D01*
X135669769Y-69504844D01*
X135669714Y-69446946D01*
X135669714Y-69391190D01*
X135669773Y-69341953D01*
X135670051Y-69205409D01*
X137832440Y-69205409D01*
X137830929Y-69074496D01*
X137829417Y-68943582D01*
X137562163Y-68940564D01*
X137560654Y-68806937D01*
X137559144Y-68673310D01*
X137428231Y-68671798D01*
X137297318Y-68670287D01*
X137297318Y-69205409D01*
X137021348Y-69205409D01*
X137019974Y-68939359D01*
X137018599Y-68673310D01*
X136884972Y-68671800D01*
X136751345Y-68670291D01*
X136751284Y-68664864D01*
X137027045Y-68664864D01*
X137291529Y-68664864D01*
X137290201Y-68263678D01*
X137288872Y-67862492D01*
X137157958Y-67860980D01*
X137027045Y-67859469D01*
X137567590Y-67859469D01*
X137567590Y-68124318D01*
X137832440Y-68124318D01*
X137830929Y-67993405D01*
X137829417Y-67862492D01*
X137698504Y-67860980D01*
X137567590Y-67859469D01*
X137027045Y-67859469D01*
X137027045Y-68664864D01*
X136751284Y-68664864D01*
X136749836Y-68536664D01*
X136748326Y-68403037D01*
X136617413Y-68401525D01*
X136486500Y-68400014D01*
X136486500Y-68670494D01*
X136216227Y-68670494D01*
X136216227Y-68940767D01*
X136079683Y-68940959D01*
X136050849Y-68940996D01*
X135975240Y-68941062D01*
X135900841Y-68941085D01*
X135828490Y-68941066D01*
X135759023Y-68941008D01*
X135693280Y-68940913D01*
X135632097Y-68940783D01*
X135576312Y-68940621D01*
X135526762Y-68940429D01*
X135484286Y-68940210D01*
X135449720Y-68939965D01*
X135423903Y-68939697D01*
X135407673Y-68939408D01*
X135401865Y-68939100D01*
X135401833Y-68939045D01*
X135401350Y-68932391D01*
X135400907Y-68915523D01*
X135400510Y-68889428D01*
X135400165Y-68855089D01*
X135399878Y-68813494D01*
X135399653Y-68765625D01*
X135399497Y-68712470D01*
X135399430Y-68664864D01*
X135945954Y-68664864D01*
X136210804Y-68664864D01*
X136209293Y-68533950D01*
X136207781Y-68403037D01*
X136076868Y-68401525D01*
X135945954Y-68400014D01*
X135945954Y-68664864D01*
X135399430Y-68664864D01*
X135399416Y-68655013D01*
X135399416Y-68594240D01*
X135399501Y-68531135D01*
X135399778Y-68394591D01*
X135670259Y-68394591D01*
X135668747Y-68263678D01*
X135667236Y-68132764D01*
X135266050Y-68131435D01*
X134864864Y-68130107D01*
X134864864Y-68394591D01*
X134588894Y-68394591D01*
X134587520Y-68128541D01*
X134586145Y-67862492D01*
X134452416Y-67860982D01*
X134318688Y-67859472D01*
X134318688Y-67583773D01*
X134594591Y-67583773D01*
X134594591Y-67854046D01*
X135129506Y-67854046D01*
X135129506Y-67583773D01*
X135399986Y-67583773D01*
X135398475Y-67452860D01*
X135396963Y-67321946D01*
X135129709Y-67318928D01*
X135128200Y-67185301D01*
X135126690Y-67051674D01*
X134993063Y-67050164D01*
X134859436Y-67048655D01*
X134859375Y-67043228D01*
X135135136Y-67043228D01*
X135405409Y-67043228D01*
X135405409Y-67313500D01*
X135675682Y-67313500D01*
X135675682Y-67589404D01*
X135405409Y-67589404D01*
X135405409Y-67854046D01*
X135675682Y-67854046D01*
X135675682Y-68124318D01*
X135940324Y-68124318D01*
X135940324Y-67854046D01*
X136216227Y-67854046D01*
X136216227Y-68124318D01*
X136751349Y-68124318D01*
X136749838Y-67993405D01*
X136748326Y-67862492D01*
X136614699Y-67860982D01*
X136481072Y-67859473D01*
X136481011Y-67854046D01*
X137297318Y-67854046D01*
X137562167Y-67854046D01*
X137560656Y-67723132D01*
X137559144Y-67592219D01*
X137428231Y-67590707D01*
X137297318Y-67589196D01*
X137297318Y-67854046D01*
X136481011Y-67854046D01*
X136478054Y-67592219D01*
X136344325Y-67590709D01*
X136210596Y-67589200D01*
X136210365Y-67455573D01*
X136210363Y-67454336D01*
X136210228Y-67405343D01*
X136209996Y-67349654D01*
X136209692Y-67291709D01*
X136209338Y-67235947D01*
X136208957Y-67186810D01*
X136207781Y-67051674D01*
X136074154Y-67050164D01*
X135940527Y-67048655D01*
X135940466Y-67043228D01*
X136216227Y-67043228D01*
X136481077Y-67043228D01*
X136479565Y-66912314D01*
X136478054Y-66781401D01*
X136347140Y-66779889D01*
X136216227Y-66778378D01*
X136216227Y-67043228D01*
X135940466Y-67043228D01*
X135939018Y-66915028D01*
X135937508Y-66781401D01*
X135135136Y-66778743D01*
X135135136Y-67043228D01*
X134859375Y-67043228D01*
X134856418Y-66781401D01*
X134725504Y-66779889D01*
X134594591Y-66778378D01*
X134594591Y-67319131D01*
X134318892Y-67319131D01*
X134317382Y-67185402D01*
X134315872Y-67051674D01*
X134184959Y-67050162D01*
X134054046Y-67048651D01*
X134054046Y-67319131D01*
X133783773Y-67319131D01*
X133783773Y-67854046D01*
X133508077Y-67854046D01*
X133506566Y-67723132D01*
X133505054Y-67592219D01*
X133374141Y-67590707D01*
X133243228Y-67589196D01*
X133243228Y-67854046D01*
X132965862Y-67854046D01*
X132964509Y-67592219D01*
X132833596Y-67590707D01*
X132702682Y-67589196D01*
X132702682Y-67859676D01*
X132432410Y-67859676D01*
X132432410Y-68124318D01*
X132156714Y-68124318D01*
X132155203Y-67993405D01*
X132153691Y-67862492D01*
X131351319Y-67859834D01*
X131351319Y-68124318D01*
X130535196Y-68124318D01*
X130533657Y-67993303D01*
X130533633Y-67991194D01*
X130533223Y-67941282D01*
X130533019Y-67884778D01*
X130533022Y-67854046D01*
X130810774Y-67854046D01*
X131345896Y-67854046D01*
X132162137Y-67854046D01*
X132426987Y-67854046D01*
X132425475Y-67723132D01*
X132423964Y-67592219D01*
X132293050Y-67590707D01*
X132162137Y-67589196D01*
X132162137Y-67854046D01*
X131345896Y-67854046D01*
X131344385Y-67723132D01*
X131342873Y-67592219D01*
X131076823Y-67590844D01*
X130810774Y-67589470D01*
X130810774Y-67854046D01*
X130533022Y-67854046D01*
X130533024Y-67826144D01*
X130533235Y-67769837D01*
X130533654Y-67720317D01*
X130535254Y-67583773D01*
X130805077Y-67583773D01*
X131891864Y-67583773D01*
X132156440Y-67583773D01*
X132155066Y-67317723D01*
X132153691Y-67051674D01*
X132022778Y-67050162D01*
X131891864Y-67048651D01*
X131891864Y-67583773D01*
X130805077Y-67583773D01*
X130803702Y-67317723D01*
X130803680Y-67313500D01*
X131351319Y-67313500D01*
X131616169Y-67313500D01*
X131614657Y-67182587D01*
X131613146Y-67051674D01*
X131482232Y-67050162D01*
X131351319Y-67048651D01*
X131351319Y-67313500D01*
X130803680Y-67313500D01*
X130802328Y-67051674D01*
X130534870Y-67048654D01*
X130534870Y-66772955D01*
X130810774Y-66772955D01*
X130810774Y-67043228D01*
X131075944Y-67043228D01*
X131075402Y-66909499D01*
X131075391Y-66906823D01*
X131075239Y-66857778D01*
X131075133Y-66802118D01*
X131075110Y-66778378D01*
X131621592Y-66778378D01*
X131621592Y-67043228D01*
X131886441Y-67043228D01*
X131884930Y-66912314D01*
X131883418Y-66781401D01*
X131752505Y-66779889D01*
X131621592Y-66778378D01*
X131075110Y-66778378D01*
X131075078Y-66744220D01*
X131075079Y-66688463D01*
X131075138Y-66639226D01*
X131075416Y-66502682D01*
X132432410Y-66502682D01*
X132432410Y-67043228D01*
X132697052Y-67043228D01*
X132697052Y-66772955D01*
X133243228Y-66772955D01*
X133243228Y-67048858D01*
X132972955Y-67048858D01*
X132972955Y-67313500D01*
X133508398Y-67313500D01*
X133507856Y-67179772D01*
X133507845Y-67177096D01*
X133507693Y-67128051D01*
X133507587Y-67072390D01*
X133507532Y-67014492D01*
X133507533Y-66958736D01*
X133507592Y-66909499D01*
X133507870Y-66772955D01*
X133778350Y-66772955D01*
X133776839Y-66642042D01*
X133775327Y-66511128D01*
X133508073Y-66508110D01*
X133506564Y-66374483D01*
X133505054Y-66240856D01*
X133374141Y-66239344D01*
X133243228Y-66237833D01*
X133243228Y-66507930D01*
X133106684Y-66509529D01*
X133104551Y-66509553D01*
X133054619Y-66509963D01*
X132998120Y-66510165D01*
X132939511Y-66510159D01*
X132883249Y-66509946D01*
X132833790Y-66509526D01*
X132697440Y-66507925D01*
X132695838Y-66371575D01*
X132695814Y-66369445D01*
X132695403Y-66319562D01*
X132695201Y-66263088D01*
X132695205Y-66204479D01*
X132695417Y-66148191D01*
X132695836Y-66098681D01*
X132697435Y-65962137D01*
X132972955Y-65962137D01*
X132972955Y-66232410D01*
X133237597Y-66232410D01*
X133237597Y-65962137D01*
X133513500Y-65962137D01*
X133513500Y-66232410D01*
X133778671Y-66232410D01*
X133778129Y-66098681D01*
X133778118Y-66096005D01*
X133777966Y-66046960D01*
X133777860Y-65991300D01*
X133777805Y-65933402D01*
X133777805Y-65877645D01*
X133777865Y-65828408D01*
X133778142Y-65691864D01*
X134054046Y-65691864D01*
X134054046Y-66238040D01*
X133783773Y-66238040D01*
X133783773Y-66502682D01*
X134054046Y-66502682D01*
X134054046Y-66772955D01*
X134318688Y-66772955D01*
X134318688Y-66502682D01*
X134864864Y-66502682D01*
X134864864Y-66772955D01*
X135129440Y-66772955D01*
X135128065Y-66506905D01*
X135128043Y-66502682D01*
X135405409Y-66502682D01*
X135940258Y-66502682D01*
X136216227Y-66502682D01*
X136751349Y-66502682D01*
X136749838Y-66371769D01*
X136748326Y-66240856D01*
X136614699Y-66239346D01*
X136481072Y-66237837D01*
X136478054Y-65970583D01*
X136347140Y-65969071D01*
X136216227Y-65967560D01*
X136216227Y-66502682D01*
X135940258Y-66502682D01*
X135938883Y-66236633D01*
X135937508Y-65970583D01*
X135806595Y-65969071D01*
X135675682Y-65967560D01*
X135675682Y-66238040D01*
X135405409Y-66238040D01*
X135405409Y-66502682D01*
X135128043Y-66502682D01*
X135126690Y-66240856D01*
X134993156Y-66239346D01*
X134859622Y-66237837D01*
X134859558Y-66232410D01*
X135135136Y-66232410D01*
X135399986Y-66232410D01*
X135398475Y-66101496D01*
X135396963Y-65970583D01*
X135266050Y-65969071D01*
X135135136Y-65967560D01*
X135135136Y-66232410D01*
X134859558Y-66232410D01*
X134858020Y-66101395D01*
X134857996Y-66099286D01*
X134857585Y-66049373D01*
X134857382Y-65992870D01*
X134857384Y-65962137D01*
X135405409Y-65962137D01*
X135670051Y-65962137D01*
X136486500Y-65962137D01*
X136756772Y-65962137D01*
X136756772Y-66232410D01*
X137021257Y-66232410D01*
X137018599Y-65430038D01*
X136887686Y-65428526D01*
X136756772Y-65427015D01*
X136756772Y-65697495D01*
X136486500Y-65697495D01*
X136486500Y-65962137D01*
X135670051Y-65962137D01*
X135670051Y-65691864D01*
X135940258Y-65691864D01*
X136216227Y-65691864D01*
X136480869Y-65691864D01*
X136480869Y-65421592D01*
X136751349Y-65421592D01*
X136749838Y-65290678D01*
X136748326Y-65159765D01*
X136482277Y-65158390D01*
X136216227Y-65157016D01*
X136216227Y-65691864D01*
X135940258Y-65691864D01*
X135938883Y-65425815D01*
X135937508Y-65159765D01*
X135806595Y-65158253D01*
X135675682Y-65156742D01*
X135675682Y-65427222D01*
X135405409Y-65427222D01*
X135405409Y-65962137D01*
X134857384Y-65962137D01*
X134857386Y-65934235D01*
X134857598Y-65877928D01*
X134858017Y-65828408D01*
X134859616Y-65691864D01*
X135129713Y-65691864D01*
X135128202Y-65560951D01*
X135126690Y-65430038D01*
X134993063Y-65428528D01*
X134859436Y-65427019D01*
X134859375Y-65421592D01*
X135135136Y-65421592D01*
X135399778Y-65421592D01*
X135399778Y-65151319D01*
X135670259Y-65151319D01*
X135945954Y-65151319D01*
X136210596Y-65151319D01*
X136210596Y-64881046D01*
X136481077Y-64881046D01*
X136479565Y-64750133D01*
X136478054Y-64619220D01*
X135945954Y-64616470D01*
X135945954Y-65151319D01*
X135670259Y-65151319D01*
X135668747Y-65020406D01*
X135667236Y-64889492D01*
X135401186Y-64888118D01*
X135135136Y-64886743D01*
X135135136Y-65421592D01*
X134859375Y-65421592D01*
X134856418Y-65159765D01*
X134054046Y-65157107D01*
X134054046Y-65427222D01*
X133917502Y-65427380D01*
X133905236Y-65427392D01*
X133871245Y-65427415D01*
X133827953Y-65427432D01*
X133776699Y-65427443D01*
X133718823Y-65427449D01*
X133655663Y-65427449D01*
X133588558Y-65427444D01*
X133518846Y-65427433D01*
X133447866Y-65427417D01*
X133376956Y-65427395D01*
X132972955Y-65427251D01*
X132972955Y-65697495D01*
X132697052Y-65697495D01*
X132696898Y-65565174D01*
X132696890Y-65557955D01*
X132696844Y-65509287D01*
X132696804Y-65454209D01*
X132696773Y-65396878D01*
X132696752Y-65341452D01*
X132696745Y-65292086D01*
X132696745Y-65285083D01*
X132696754Y-65234192D01*
X132696777Y-65177621D01*
X132696810Y-65119606D01*
X132696851Y-65064381D01*
X132696898Y-65016183D01*
X132697052Y-64881046D01*
X132972955Y-64881046D01*
X132972955Y-65151319D01*
X133778142Y-65151319D01*
X133778142Y-64881046D01*
X134589168Y-64881046D01*
X134587657Y-64750133D01*
X134586145Y-64619220D01*
X134315872Y-64617978D01*
X134280424Y-64617819D01*
X134219170Y-64617559D01*
X134157556Y-64617315D01*
X134097518Y-64617094D01*
X134040994Y-64616902D01*
X133989920Y-64616746D01*
X133946233Y-64616634D01*
X133911871Y-64616570D01*
X133778142Y-64616404D01*
X133778142Y-64340501D01*
X135135136Y-64340501D01*
X135135136Y-64610774D01*
X135670051Y-64610774D01*
X135670051Y-64340501D01*
X137027045Y-64340501D01*
X137027045Y-64881046D01*
X137297318Y-64881046D01*
X137297318Y-66508313D01*
X137160774Y-66508591D01*
G37*
G36*
X138780170Y-64902737D02*
G01*
X138791818Y-64908884D01*
X138833970Y-64938688D01*
X138869861Y-64976407D01*
X138897263Y-65019816D01*
X138916138Y-65058141D01*
X138917859Y-65271252D01*
X138917864Y-65271874D01*
X138918193Y-65335931D01*
X138918090Y-65391108D01*
X138917562Y-65436928D01*
X138916620Y-65472918D01*
X138915270Y-65498603D01*
X138913522Y-65513507D01*
X138912795Y-65516892D01*
X138896860Y-65565057D01*
X138872210Y-65606587D01*
X138839534Y-65640754D01*
X138799518Y-65666829D01*
X138752849Y-65684081D01*
X138751319Y-65684444D01*
X138738938Y-65686361D01*
X138720358Y-65687875D01*
X138694736Y-65689008D01*
X138661229Y-65689778D01*
X138618993Y-65690209D01*
X138567186Y-65690319D01*
X138504964Y-65690129D01*
X138285232Y-65689049D01*
X138245952Y-65669737D01*
X138220014Y-65654843D01*
X138182732Y-65625581D01*
X138150925Y-65590996D01*
X138127483Y-65553912D01*
X138110951Y-65520128D01*
X138109290Y-65304051D01*
X138108984Y-65247086D01*
X138109037Y-65187514D01*
X138109555Y-65138678D01*
X138110536Y-65100708D01*
X138111978Y-65073733D01*
X138113877Y-65057881D01*
X138121196Y-65030889D01*
X138140978Y-64987304D01*
X138168605Y-64949333D01*
X138202763Y-64918626D01*
X138242137Y-64896833D01*
X138242298Y-64896768D01*
X138250406Y-64893593D01*
X138258273Y-64890986D01*
X138267049Y-64888893D01*
X138277886Y-64887255D01*
X138291933Y-64886018D01*
X138310340Y-64885125D01*
X138334258Y-64884521D01*
X138364836Y-64884148D01*
X138403225Y-64883952D01*
X138450575Y-64883875D01*
X138508036Y-64883862D01*
X138741832Y-64883862D01*
X138780170Y-64902737D01*
G37*
G36*
X135135136Y-73264929D02*
G01*
X134998592Y-73266482D01*
X134971918Y-73266756D01*
X134935792Y-73267027D01*
X134904347Y-73267146D01*
X134879229Y-73267113D01*
X134862081Y-73266925D01*
X134854550Y-73266582D01*
X134851853Y-73266358D01*
X134839022Y-73265964D01*
X134817523Y-73265626D01*
X134789054Y-73265362D01*
X134755316Y-73265191D01*
X134718006Y-73265130D01*
X134588960Y-73265130D01*
X134588960Y-72989226D01*
X134859233Y-72989226D01*
X134859233Y-72718954D01*
X135135136Y-72718954D01*
X135135136Y-73264929D01*
G37*
G36*
X139459759Y-65434713D02*
G01*
X139459124Y-65494228D01*
X139458280Y-65549638D01*
X139457225Y-65599754D01*
X139455960Y-65643388D01*
X139454485Y-65679350D01*
X139452801Y-65706452D01*
X139450908Y-65723503D01*
X139438969Y-65779305D01*
X139413278Y-65857389D01*
X139377995Y-65929671D01*
X139332968Y-65996445D01*
X139278044Y-66058005D01*
X139230709Y-66099972D01*
X139163841Y-66145992D01*
X139090514Y-66182798D01*
X139010753Y-66210376D01*
X138924585Y-66228715D01*
X138919948Y-66228983D01*
X138904504Y-66229354D01*
X138879420Y-66229722D01*
X138845636Y-66230080D01*
X138804093Y-66230421D01*
X138755730Y-66230739D01*
X138701486Y-66231027D01*
X138642303Y-66231278D01*
X138579119Y-66231485D01*
X138512875Y-66231643D01*
X138508159Y-66231652D01*
X138427220Y-66231786D01*
X138356596Y-66231823D01*
X138295390Y-66231707D01*
X138242706Y-66231384D01*
X138197646Y-66230799D01*
X138159312Y-66229897D01*
X138126808Y-66228625D01*
X138099237Y-66226926D01*
X138075701Y-66224747D01*
X138055303Y-66222033D01*
X138037146Y-66218730D01*
X138020334Y-66214782D01*
X138003968Y-66210136D01*
X137987152Y-66204735D01*
X137968989Y-66198527D01*
X137941670Y-66188286D01*
X137870004Y-66153440D01*
X137804135Y-66109422D01*
X137744698Y-66056928D01*
X137692330Y-65996658D01*
X137647669Y-65929310D01*
X137611352Y-65855583D01*
X137584014Y-65776177D01*
X137582845Y-65771927D01*
X137580459Y-65762875D01*
X137578405Y-65753893D01*
X137576655Y-65744110D01*
X137575178Y-65732654D01*
X137573945Y-65718653D01*
X137572926Y-65701236D01*
X137572091Y-65679532D01*
X137571410Y-65652667D01*
X137570854Y-65619771D01*
X137570392Y-65579973D01*
X137569994Y-65532400D01*
X137569632Y-65476180D01*
X137569275Y-65410443D01*
X137568893Y-65334316D01*
X137568724Y-65296700D01*
X137568497Y-65215406D01*
X137568488Y-65141625D01*
X137568570Y-65115181D01*
X137838486Y-65115181D01*
X137838536Y-65168224D01*
X137838732Y-65230672D01*
X137839054Y-65303451D01*
X137840737Y-65649634D01*
X137856005Y-65694680D01*
X137876209Y-65742726D01*
X137909691Y-65797214D01*
X137951838Y-65846107D01*
X138001562Y-65888356D01*
X138057777Y-65922913D01*
X138119397Y-65948732D01*
X138122245Y-65949638D01*
X138129627Y-65951616D01*
X138138387Y-65953303D01*
X138149424Y-65954725D01*
X138163636Y-65955908D01*
X138181923Y-65956879D01*
X138205182Y-65957665D01*
X138234312Y-65958292D01*
X138270211Y-65958787D01*
X138313778Y-65959177D01*
X138365910Y-65959487D01*
X138427508Y-65959745D01*
X138499468Y-65959978D01*
X138503689Y-65959990D01*
X138566088Y-65960092D01*
X138625729Y-65960050D01*
X138681549Y-65959875D01*
X138732487Y-65959575D01*
X138777479Y-65959160D01*
X138815461Y-65958641D01*
X138845372Y-65958026D01*
X138866147Y-65957325D01*
X138876724Y-65956549D01*
X138928787Y-65943892D01*
X138982926Y-65921384D01*
X139033444Y-65890917D01*
X139078517Y-65853796D01*
X139116318Y-65811326D01*
X139145022Y-65764811D01*
X139146335Y-65762135D01*
X139154154Y-65746273D01*
X139160886Y-65732220D01*
X139166612Y-65719040D01*
X139171413Y-65705801D01*
X139175370Y-65691569D01*
X139178565Y-65675410D01*
X139181078Y-65656392D01*
X139182991Y-65633580D01*
X139184386Y-65606041D01*
X139185343Y-65572842D01*
X139185945Y-65533050D01*
X139186271Y-65485730D01*
X139186403Y-65429949D01*
X139186423Y-65364773D01*
X139186411Y-65289271D01*
X139186411Y-64923276D01*
X139173316Y-64883862D01*
X139159268Y-64846684D01*
X139137070Y-64803566D01*
X139108549Y-64763537D01*
X139071550Y-64723195D01*
X139071072Y-64722722D01*
X139045309Y-64698259D01*
X139023056Y-64679996D01*
X139000858Y-64665373D01*
X138975261Y-64651830D01*
X138965879Y-64647272D01*
X138950183Y-64639860D01*
X138935444Y-64633510D01*
X138920719Y-64628146D01*
X138905071Y-64623690D01*
X138887559Y-64620065D01*
X138867243Y-64617195D01*
X138843185Y-64615001D01*
X138814443Y-64613408D01*
X138780078Y-64612339D01*
X138739151Y-64611715D01*
X138690721Y-64611460D01*
X138633850Y-64611498D01*
X138567597Y-64611751D01*
X138491022Y-64612142D01*
X138139105Y-64614004D01*
X138093687Y-64629176D01*
X138082573Y-64633069D01*
X138023952Y-64660275D01*
X137972312Y-64696053D01*
X137928199Y-64739779D01*
X137892156Y-64790831D01*
X137864729Y-64848584D01*
X137846460Y-64912414D01*
X137845407Y-64917932D01*
X137843666Y-64929175D01*
X137842210Y-64942394D01*
X137841022Y-64958516D01*
X137840084Y-64978470D01*
X137839379Y-65003185D01*
X137838890Y-65033590D01*
X137838598Y-65070612D01*
X137838486Y-65115181D01*
X137568570Y-65115181D01*
X137568693Y-65075891D01*
X137569107Y-65018740D01*
X137569725Y-64970708D01*
X137570543Y-64932330D01*
X137571557Y-64904141D01*
X137572760Y-64886677D01*
X137581728Y-64827278D01*
X137599841Y-64757973D01*
X137626398Y-64691728D01*
X137641241Y-64661706D01*
X137663901Y-64621970D01*
X137688985Y-64585993D01*
X137718851Y-64550505D01*
X137755856Y-64512237D01*
X137790690Y-64480071D01*
X137844158Y-64439135D01*
X137901253Y-64405735D01*
X137964320Y-64378561D01*
X138035708Y-64356308D01*
X138040721Y-64354993D01*
X138049637Y-64352803D01*
X138058788Y-64350913D01*
X138069020Y-64349296D01*
X138081183Y-64347925D01*
X138096124Y-64346773D01*
X138114691Y-64345815D01*
X138137734Y-64345024D01*
X138166100Y-64344373D01*
X138200638Y-64343835D01*
X138242196Y-64343385D01*
X138291622Y-64342995D01*
X138349764Y-64342640D01*
X138417471Y-64342291D01*
X138495591Y-64341924D01*
X138577547Y-64341569D01*
X138650505Y-64341332D01*
X138713916Y-64341264D01*
X138768643Y-64341406D01*
X138815551Y-64341802D01*
X138855504Y-64342494D01*
X138889364Y-64343526D01*
X138917996Y-64344940D01*
X138942264Y-64346779D01*
X138963032Y-64349085D01*
X138981163Y-64351902D01*
X138997522Y-64355272D01*
X139012971Y-64359239D01*
X139028375Y-64363844D01*
X139044598Y-64369132D01*
X139059596Y-64374355D01*
X139133059Y-64406713D01*
X139201085Y-64448042D01*
X139262888Y-64497444D01*
X139317682Y-64554020D01*
X139364681Y-64616870D01*
X139403100Y-64685097D01*
X139432152Y-64757801D01*
X139451052Y-64834082D01*
X139452798Y-64849233D01*
X139454491Y-64875418D01*
X139455970Y-64910579D01*
X139457238Y-64953525D01*
X139458293Y-65003069D01*
X139459137Y-65058021D01*
X139459768Y-65117192D01*
X139460189Y-65179392D01*
X139460398Y-65243434D01*
X139460396Y-65308127D01*
X139460208Y-65364773D01*
X139460183Y-65372284D01*
X139459759Y-65434713D01*
G37*
G36*
X138918954Y-69205409D02*
G01*
X139459499Y-69205409D01*
X139459499Y-69481312D01*
X139322955Y-69481590D01*
X139320224Y-69481595D01*
X139270465Y-69481651D01*
X139214453Y-69481648D01*
X139156566Y-69481590D01*
X139101183Y-69481481D01*
X139052682Y-69481326D01*
X138918954Y-69480784D01*
X138918954Y-69745954D01*
X139189226Y-69745954D01*
X139189226Y-70016227D01*
X139459499Y-70016227D01*
X139459499Y-71102948D01*
X139183596Y-71102948D01*
X139183430Y-70969220D01*
X139183398Y-70950026D01*
X139183305Y-70909888D01*
X139183166Y-70861576D01*
X139182988Y-70807029D01*
X139182778Y-70748182D01*
X139182542Y-70686974D01*
X139182288Y-70625340D01*
X139182022Y-70565218D01*
X139180780Y-70294946D01*
X139047052Y-70293436D01*
X138913323Y-70291926D01*
X138913092Y-70158300D01*
X138913090Y-70157063D01*
X138912954Y-70108070D01*
X138912723Y-70052381D01*
X138912419Y-69994435D01*
X138912065Y-69938674D01*
X138911684Y-69889537D01*
X138910508Y-69754400D01*
X138776779Y-69752891D01*
X138643050Y-69751381D01*
X138643050Y-69475682D01*
X138913531Y-69475682D01*
X138912019Y-69344768D01*
X138910508Y-69213855D01*
X138776779Y-69212345D01*
X138643050Y-69210836D01*
X138643050Y-68935136D01*
X138918954Y-68935136D01*
X138918954Y-69205409D01*
G37*
G36*
X133243228Y-64610774D02*
G01*
X133513500Y-64610774D01*
X133513500Y-64886677D01*
X133237801Y-64886677D01*
X133236291Y-64752948D01*
X133234782Y-64619220D01*
X132967324Y-64616200D01*
X132967324Y-64340501D01*
X133243228Y-64340501D01*
X133243228Y-64610774D01*
G37*
G36*
X134594591Y-70292130D02*
G01*
X134318688Y-70292130D01*
X134318688Y-70016227D01*
X134594591Y-70016227D01*
X134594591Y-70292130D01*
G37*
G36*
X134594591Y-65697495D02*
G01*
X134318688Y-65697495D01*
X134318688Y-65421592D01*
X134594591Y-65421592D01*
X134594591Y-65697495D01*
G37*
G36*
X132432669Y-65434713D02*
G01*
X132432035Y-65494228D01*
X132431190Y-65549638D01*
X132430135Y-65599754D01*
X132428871Y-65643388D01*
X132427396Y-65679350D01*
X132425712Y-65706452D01*
X132423818Y-65723503D01*
X132411880Y-65779305D01*
X132386189Y-65857389D01*
X132350906Y-65929671D01*
X132305878Y-65996445D01*
X132250954Y-66058005D01*
X132203620Y-66099972D01*
X132136752Y-66145992D01*
X132063425Y-66182798D01*
X131983664Y-66210376D01*
X131897495Y-66228715D01*
X131892858Y-66228983D01*
X131877414Y-66229354D01*
X131852330Y-66229722D01*
X131818547Y-66230080D01*
X131777004Y-66230421D01*
X131728640Y-66230739D01*
X131674397Y-66231027D01*
X131615213Y-66231278D01*
X131552030Y-66231485D01*
X131485785Y-66231643D01*
X131481070Y-66231652D01*
X131400130Y-66231786D01*
X131329507Y-66231823D01*
X131268301Y-66231707D01*
X131215617Y-66231384D01*
X131170556Y-66230799D01*
X131132223Y-66229897D01*
X131099719Y-66228625D01*
X131072147Y-66226926D01*
X131048611Y-66224747D01*
X131028213Y-66222033D01*
X131010057Y-66218730D01*
X130993244Y-66214782D01*
X130976879Y-66210136D01*
X130960063Y-66204735D01*
X130941900Y-66198527D01*
X130914580Y-66188286D01*
X130842915Y-66153440D01*
X130777045Y-66109422D01*
X130717608Y-66056928D01*
X130665241Y-65996658D01*
X130620580Y-65929310D01*
X130584262Y-65855583D01*
X130556925Y-65776177D01*
X130555756Y-65771927D01*
X130553369Y-65762875D01*
X130551316Y-65753893D01*
X130549566Y-65744110D01*
X130548089Y-65732654D01*
X130546856Y-65718653D01*
X130545837Y-65701236D01*
X130545002Y-65679532D01*
X130544321Y-65652667D01*
X130543764Y-65619771D01*
X130543302Y-65579973D01*
X130542905Y-65532400D01*
X130542543Y-65476180D01*
X130542185Y-65410443D01*
X130541803Y-65334316D01*
X130541635Y-65296700D01*
X130541408Y-65215406D01*
X130541399Y-65141625D01*
X130541481Y-65115181D01*
X130811397Y-65115181D01*
X130811447Y-65168224D01*
X130811642Y-65230672D01*
X130811965Y-65303451D01*
X130813648Y-65649634D01*
X130828916Y-65694680D01*
X130849119Y-65742726D01*
X130882602Y-65797214D01*
X130924748Y-65846107D01*
X130974472Y-65888356D01*
X131030688Y-65922913D01*
X131092308Y-65948732D01*
X131095156Y-65949638D01*
X131102537Y-65951616D01*
X131111297Y-65953303D01*
X131122334Y-65954725D01*
X131136547Y-65955908D01*
X131154834Y-65956879D01*
X131178093Y-65957665D01*
X131207222Y-65958292D01*
X131243122Y-65958787D01*
X131286688Y-65959177D01*
X131338821Y-65959487D01*
X131400418Y-65959745D01*
X131472379Y-65959978D01*
X131476600Y-65959990D01*
X131538998Y-65960092D01*
X131598639Y-65960050D01*
X131654460Y-65959875D01*
X131705398Y-65959575D01*
X131750389Y-65959160D01*
X131788372Y-65958641D01*
X131818282Y-65958026D01*
X131839057Y-65957325D01*
X131849634Y-65956549D01*
X131901698Y-65943892D01*
X131955836Y-65921384D01*
X132006355Y-65890917D01*
X132051428Y-65853796D01*
X132089229Y-65811326D01*
X132117933Y-65764811D01*
X132119245Y-65762135D01*
X132127065Y-65746273D01*
X132133797Y-65732220D01*
X132139523Y-65719040D01*
X132144323Y-65705801D01*
X132148281Y-65691569D01*
X132151475Y-65675410D01*
X132153989Y-65656392D01*
X132155902Y-65633580D01*
X132157297Y-65606041D01*
X132158254Y-65572842D01*
X132158855Y-65533050D01*
X132159181Y-65485730D01*
X132159313Y-65429949D01*
X132159333Y-65364773D01*
X132159322Y-65289271D01*
X132159322Y-64923276D01*
X132146227Y-64883862D01*
X132132178Y-64846684D01*
X132109981Y-64803566D01*
X132081459Y-64763537D01*
X132044460Y-64723195D01*
X132043983Y-64722722D01*
X132018220Y-64698259D01*
X131995967Y-64679996D01*
X131973769Y-64665373D01*
X131948171Y-64651830D01*
X131938789Y-64647272D01*
X131923094Y-64639860D01*
X131908354Y-64633510D01*
X131893630Y-64628146D01*
X131877982Y-64623690D01*
X131860470Y-64620065D01*
X131840154Y-64617195D01*
X131816095Y-64615001D01*
X131787353Y-64613408D01*
X131752989Y-64612339D01*
X131712061Y-64611715D01*
X131663632Y-64611460D01*
X131606761Y-64611498D01*
X131540507Y-64611751D01*
X131463933Y-64612142D01*
X131112015Y-64614004D01*
X131066598Y-64629176D01*
X131055484Y-64633069D01*
X130996862Y-64660275D01*
X130945223Y-64696053D01*
X130901109Y-64739779D01*
X130865067Y-64790831D01*
X130837639Y-64848584D01*
X130819371Y-64912414D01*
X130818318Y-64917932D01*
X130816576Y-64929175D01*
X130815120Y-64942394D01*
X130813932Y-64958516D01*
X130812995Y-64978470D01*
X130812290Y-65003185D01*
X130811800Y-65033590D01*
X130811508Y-65070612D01*
X130811397Y-65115181D01*
X130541481Y-65115181D01*
X130541604Y-65075891D01*
X130542018Y-65018740D01*
X130542636Y-64970708D01*
X130543454Y-64932330D01*
X130544467Y-64904141D01*
X130545671Y-64886677D01*
X130554639Y-64827278D01*
X130572751Y-64757973D01*
X130599308Y-64691728D01*
X130614152Y-64661706D01*
X130636812Y-64621970D01*
X130661896Y-64585993D01*
X130691761Y-64550505D01*
X130728767Y-64512237D01*
X130763601Y-64480071D01*
X130817069Y-64439135D01*
X130874163Y-64405735D01*
X130937231Y-64378561D01*
X131008619Y-64356308D01*
X131013631Y-64354993D01*
X131022548Y-64352803D01*
X131031698Y-64350913D01*
X131041931Y-64349296D01*
X131054093Y-64347925D01*
X131069034Y-64346773D01*
X131087602Y-64345815D01*
X131110645Y-64345024D01*
X131139011Y-64344373D01*
X131173549Y-64343835D01*
X131215106Y-64343385D01*
X131264532Y-64342995D01*
X131322674Y-64342640D01*
X131390381Y-64342291D01*
X131468501Y-64341924D01*
X131550458Y-64341569D01*
X131623416Y-64341332D01*
X131686827Y-64341264D01*
X131741554Y-64341406D01*
X131788462Y-64341802D01*
X131828414Y-64342494D01*
X131862275Y-64343526D01*
X131890907Y-64344940D01*
X131915175Y-64346779D01*
X131935943Y-64349085D01*
X131954074Y-64351902D01*
X131970432Y-64355272D01*
X131985882Y-64359239D01*
X132001286Y-64363844D01*
X132017509Y-64369132D01*
X132032507Y-64374355D01*
X132105970Y-64406713D01*
X132173996Y-64448042D01*
X132235798Y-64497444D01*
X132290592Y-64554020D01*
X132337591Y-64616870D01*
X132376010Y-64685097D01*
X132405063Y-64757801D01*
X132423963Y-64834082D01*
X132425709Y-64849233D01*
X132427401Y-64875418D01*
X132428881Y-64910579D01*
X132430149Y-64953525D01*
X132431204Y-65003069D01*
X132432047Y-65058021D01*
X132432679Y-65117192D01*
X132433099Y-65179392D01*
X132433308Y-65243434D01*
X132433306Y-65308127D01*
X132433118Y-65364773D01*
X132433093Y-65372284D01*
X132432669Y-65434713D01*
G37*
G36*
X139459759Y-72461803D02*
G01*
X139459124Y-72521317D01*
X139458280Y-72576727D01*
X139457225Y-72626844D01*
X139455960Y-72670477D01*
X139454485Y-72706440D01*
X139452801Y-72733541D01*
X139450908Y-72750592D01*
X139438969Y-72806394D01*
X139413278Y-72884479D01*
X139377995Y-72956761D01*
X139332968Y-73023534D01*
X139278044Y-73085094D01*
X139230709Y-73127061D01*
X139163841Y-73173082D01*
X139090514Y-73209887D01*
X139010753Y-73237466D01*
X138924585Y-73255805D01*
X138919948Y-73256072D01*
X138904504Y-73256444D01*
X138879420Y-73256812D01*
X138845636Y-73257170D01*
X138804093Y-73257511D01*
X138755730Y-73257828D01*
X138701486Y-73258116D01*
X138642303Y-73258367D01*
X138579119Y-73258575D01*
X138512875Y-73258732D01*
X138508159Y-73258741D01*
X138427220Y-73258876D01*
X138356596Y-73258913D01*
X138295390Y-73258797D01*
X138242706Y-73258473D01*
X138197646Y-73257888D01*
X138159312Y-73256987D01*
X138126808Y-73255714D01*
X138099237Y-73254015D01*
X138075701Y-73251837D01*
X138055303Y-73249123D01*
X138037146Y-73245819D01*
X138020334Y-73241871D01*
X138003968Y-73237225D01*
X137987152Y-73231825D01*
X137968989Y-73225617D01*
X137941670Y-73215375D01*
X137870004Y-73180530D01*
X137804135Y-73136511D01*
X137744698Y-73084017D01*
X137692330Y-73023747D01*
X137647669Y-72956399D01*
X137611352Y-72882673D01*
X137584014Y-72803266D01*
X137582845Y-72799016D01*
X137580459Y-72789964D01*
X137578405Y-72780982D01*
X137576655Y-72771199D01*
X137575178Y-72759743D01*
X137573945Y-72745743D01*
X137572926Y-72728326D01*
X137572091Y-72706621D01*
X137571410Y-72679756D01*
X137570854Y-72646861D01*
X137570392Y-72607062D01*
X137569994Y-72559489D01*
X137569632Y-72503270D01*
X137569275Y-72437532D01*
X137568893Y-72361405D01*
X137568724Y-72323790D01*
X137568497Y-72242495D01*
X137568488Y-72168714D01*
X137568570Y-72142270D01*
X137838486Y-72142270D01*
X137838536Y-72195314D01*
X137838732Y-72257761D01*
X137839054Y-72330541D01*
X137840737Y-72676723D01*
X137856005Y-72721769D01*
X137876209Y-72769816D01*
X137909691Y-72824303D01*
X137951838Y-72873196D01*
X138001562Y-72915445D01*
X138057777Y-72950003D01*
X138119397Y-72975822D01*
X138122245Y-72976727D01*
X138129627Y-72978706D01*
X138138387Y-72980392D01*
X138149424Y-72981814D01*
X138163636Y-72982997D01*
X138181923Y-72983968D01*
X138205182Y-72984754D01*
X138234312Y-72985382D01*
X138270211Y-72985877D01*
X138313778Y-72986266D01*
X138365910Y-72986577D01*
X138427508Y-72986835D01*
X138499468Y-72987067D01*
X138503689Y-72987079D01*
X138566088Y-72987181D01*
X138625729Y-72987140D01*
X138681549Y-72986964D01*
X138732487Y-72986664D01*
X138777479Y-72986249D01*
X138815461Y-72985730D01*
X138845372Y-72985115D01*
X138866147Y-72984415D01*
X138876724Y-72983638D01*
X138928787Y-72970981D01*
X138982926Y-72948473D01*
X139033444Y-72918007D01*
X139078517Y-72880885D01*
X139116318Y-72838415D01*
X139145022Y-72791900D01*
X139146335Y-72789224D01*
X139154154Y-72773363D01*
X139160886Y-72759309D01*
X139166612Y-72746129D01*
X139171413Y-72732890D01*
X139175370Y-72718658D01*
X139178565Y-72702500D01*
X139181078Y-72683481D01*
X139182991Y-72660669D01*
X139184386Y-72633131D01*
X139185343Y-72599932D01*
X139185945Y-72560139D01*
X139186271Y-72512819D01*
X139186403Y-72457038D01*
X139186423Y-72391863D01*
X139186411Y-72316360D01*
X139186411Y-71950366D01*
X139173316Y-71910951D01*
X139159268Y-71873773D01*
X139137070Y-71830655D01*
X139108549Y-71790626D01*
X139071550Y-71750284D01*
X139071072Y-71749811D01*
X139045309Y-71725348D01*
X139023056Y-71707085D01*
X139000858Y-71692463D01*
X138975261Y-71678919D01*
X138965879Y-71674361D01*
X138950183Y-71666949D01*
X138935444Y-71660599D01*
X138920719Y-71655235D01*
X138905071Y-71650779D01*
X138887559Y-71647154D01*
X138867243Y-71644284D01*
X138843185Y-71642091D01*
X138814443Y-71640498D01*
X138780078Y-71639428D01*
X138739151Y-71638804D01*
X138690721Y-71638550D01*
X138633850Y-71638587D01*
X138567597Y-71638840D01*
X138491022Y-71639231D01*
X138139105Y-71641094D01*
X138093687Y-71656265D01*
X138082573Y-71660158D01*
X138023952Y-71687364D01*
X137972312Y-71723142D01*
X137928199Y-71766869D01*
X137892156Y-71817920D01*
X137864729Y-71875673D01*
X137846460Y-71939504D01*
X137845407Y-71945021D01*
X137843666Y-71956265D01*
X137842210Y-71969483D01*
X137841022Y-71985606D01*
X137840084Y-72005560D01*
X137839379Y-72030275D01*
X137838890Y-72060679D01*
X137838598Y-72097701D01*
X137838486Y-72142270D01*
X137568570Y-72142270D01*
X137568693Y-72102980D01*
X137569107Y-72045830D01*
X137569725Y-71997798D01*
X137570543Y-71959420D01*
X137571557Y-71931231D01*
X137572760Y-71913766D01*
X137581728Y-71854368D01*
X137599841Y-71785063D01*
X137626398Y-71718817D01*
X137641241Y-71688796D01*
X137663901Y-71649059D01*
X137688985Y-71613082D01*
X137718851Y-71577594D01*
X137755856Y-71539326D01*
X137790690Y-71507160D01*
X137844158Y-71466225D01*
X137901253Y-71432824D01*
X137964320Y-71405651D01*
X138035708Y-71383397D01*
X138040721Y-71382082D01*
X138049637Y-71379892D01*
X138058788Y-71378002D01*
X138069020Y-71376385D01*
X138081183Y-71375014D01*
X138096124Y-71373863D01*
X138114691Y-71372905D01*
X138137734Y-71372113D01*
X138166100Y-71371462D01*
X138200638Y-71370925D01*
X138242196Y-71370474D01*
X138291622Y-71370085D01*
X138349764Y-71369729D01*
X138417471Y-71369381D01*
X138495591Y-71369014D01*
X138577547Y-71368658D01*
X138650505Y-71368422D01*
X138713916Y-71368353D01*
X138768643Y-71368495D01*
X138815551Y-71368891D01*
X138855504Y-71369584D01*
X138889364Y-71370615D01*
X138917996Y-71372029D01*
X138942264Y-71373868D01*
X138963032Y-71376174D01*
X138981163Y-71378991D01*
X138997522Y-71382362D01*
X139012971Y-71386328D01*
X139028375Y-71390934D01*
X139044598Y-71396221D01*
X139059596Y-71401444D01*
X139133059Y-71433802D01*
X139201085Y-71475131D01*
X139262888Y-71524533D01*
X139317682Y-71581109D01*
X139364681Y-71643960D01*
X139403100Y-71712186D01*
X139432152Y-71784890D01*
X139451052Y-71861172D01*
X139452798Y-71876323D01*
X139454491Y-71902508D01*
X139455970Y-71937668D01*
X139457238Y-71980615D01*
X139458293Y-72030158D01*
X139459137Y-72085110D01*
X139459768Y-72144281D01*
X139460189Y-72206482D01*
X139460398Y-72270523D01*
X139460396Y-72335217D01*
X139460208Y-72391863D01*
X139460183Y-72399373D01*
X139459759Y-72461803D01*
G37*
G36*
X138780170Y-71929827D02*
G01*
X138791818Y-71935973D01*
X138833971Y-71965777D01*
X138869861Y-72003496D01*
X138897263Y-72046905D01*
X138916138Y-72085230D01*
X138917933Y-72296516D01*
X138918315Y-72361982D01*
X138918246Y-72418283D01*
X138917706Y-72464025D01*
X138916687Y-72499558D01*
X138915183Y-72525232D01*
X138913187Y-72541399D01*
X138913020Y-72542248D01*
X138898261Y-72590160D01*
X138874534Y-72631432D01*
X138842310Y-72665564D01*
X138802059Y-72692055D01*
X138754253Y-72710405D01*
X138751977Y-72710995D01*
X138741316Y-72713032D01*
X138727072Y-72714652D01*
X138708149Y-72715886D01*
X138683451Y-72716764D01*
X138651880Y-72717317D01*
X138612339Y-72717575D01*
X138563733Y-72717568D01*
X138504964Y-72717327D01*
X138285232Y-72716138D01*
X138245952Y-72696827D01*
X138220014Y-72681932D01*
X138182732Y-72652670D01*
X138150925Y-72618085D01*
X138127483Y-72581002D01*
X138110951Y-72547218D01*
X138109290Y-72331140D01*
X138108984Y-72274175D01*
X138109037Y-72214603D01*
X138109555Y-72165768D01*
X138110536Y-72127798D01*
X138111978Y-72100822D01*
X138113877Y-72084970D01*
X138121196Y-72057978D01*
X138140978Y-72014393D01*
X138168605Y-71976422D01*
X138202763Y-71945715D01*
X138242137Y-71923923D01*
X138242298Y-71923857D01*
X138250406Y-71920682D01*
X138258273Y-71918076D01*
X138267049Y-71915982D01*
X138277886Y-71914344D01*
X138291933Y-71913107D01*
X138310340Y-71912215D01*
X138334258Y-71911610D01*
X138364836Y-71911238D01*
X138403225Y-71911041D01*
X138450575Y-71910964D01*
X138508036Y-71910951D01*
X138741832Y-71910951D01*
X138780170Y-71929827D01*
G37*
G36*
X134594591Y-66238040D02*
G01*
X134318688Y-66238040D01*
X134318688Y-65962137D01*
X134594591Y-65962137D01*
X134594591Y-66238040D01*
G37*
G36*
X131753081Y-64902737D02*
G01*
X131764728Y-64908884D01*
X131806881Y-64938688D01*
X131842771Y-64976407D01*
X131870173Y-65019816D01*
X131889049Y-65058141D01*
X131890769Y-65271252D01*
X131890774Y-65271874D01*
X131891104Y-65335931D01*
X131891000Y-65391108D01*
X131890473Y-65436928D01*
X131889530Y-65472918D01*
X131888181Y-65498603D01*
X131886433Y-65513507D01*
X131885706Y-65516892D01*
X131869770Y-65565057D01*
X131845121Y-65606587D01*
X131812444Y-65640754D01*
X131772428Y-65666829D01*
X131725759Y-65684081D01*
X131724229Y-65684444D01*
X131711849Y-65686361D01*
X131693269Y-65687875D01*
X131667647Y-65689008D01*
X131634139Y-65689778D01*
X131591904Y-65690209D01*
X131540096Y-65690319D01*
X131477874Y-65690129D01*
X131258143Y-65689049D01*
X131218863Y-65669737D01*
X131192925Y-65654843D01*
X131155643Y-65625581D01*
X131123835Y-65590996D01*
X131100393Y-65553912D01*
X131083862Y-65520128D01*
X131082201Y-65304051D01*
X131081894Y-65247086D01*
X131081948Y-65187514D01*
X131082466Y-65138678D01*
X131083447Y-65100708D01*
X131084888Y-65073733D01*
X131086788Y-65057881D01*
X131094106Y-65030889D01*
X131113889Y-64987304D01*
X131141516Y-64949333D01*
X131175674Y-64918626D01*
X131215048Y-64896833D01*
X131215209Y-64896768D01*
X131223316Y-64893593D01*
X131231183Y-64890986D01*
X131239960Y-64888893D01*
X131250797Y-64887255D01*
X131264844Y-64886018D01*
X131283251Y-64885125D01*
X131307168Y-64884521D01*
X131337747Y-64884148D01*
X131376136Y-64883952D01*
X131423486Y-64883875D01*
X131480947Y-64883862D01*
X131714742Y-64883862D01*
X131753081Y-64902737D01*
G37*
G36*
X132432410Y-71643494D02*
G01*
X132156506Y-71643494D01*
X132156506Y-71367590D01*
X132432410Y-71367590D01*
X132432410Y-71643494D01*
G37*
%TD*%
M02*
