%TF.GenerationSoftware,KiCad,Pcbnew,(6.0.5)*%
%TF.CreationDate,2023-08-07T21:45:28+03:00*%
%TF.ProjectId,JLC2,4a4c4332-2e6b-4696-9361-645f70636258,rev?*%
%TF.SameCoordinates,Original*%
%TF.FileFunction,Paste,Top*%
%TF.FilePolarity,Positive*%
%FSLAX46Y46*%
G04 Gerber Fmt 4.6, Leading zero omitted, Abs format (unit mm)*
G04 Created by KiCad (PCBNEW (6.0.5)) date 2023-08-07 21:45:28*
%MOMM*%
%LPD*%
G01*
G04 APERTURE LIST*
G04 Aperture macros list*
%AMRoundRect*
0 Rectangle with rounded corners*
0 $1 Rounding radius*
0 $2 $3 $4 $5 $6 $7 $8 $9 X,Y pos of 4 corners*
0 Add a 4 corners polygon primitive as box body*
4,1,4,$2,$3,$4,$5,$6,$7,$8,$9,$2,$3,0*
0 Add four circle primitives for the rounded corners*
1,1,$1+$1,$2,$3*
1,1,$1+$1,$4,$5*
1,1,$1+$1,$6,$7*
1,1,$1+$1,$8,$9*
0 Add four rect primitives between the rounded corners*
20,1,$1+$1,$2,$3,$4,$5,0*
20,1,$1+$1,$4,$5,$6,$7,0*
20,1,$1+$1,$6,$7,$8,$9,0*
20,1,$1+$1,$8,$9,$2,$3,0*%
G04 Aperture macros list end*
%ADD10RoundRect,0.250000X0.312500X0.625000X-0.312500X0.625000X-0.312500X-0.625000X0.312500X-0.625000X0*%
%ADD11RoundRect,0.250000X0.625000X-0.312500X0.625000X0.312500X-0.625000X0.312500X-0.625000X-0.312500X0*%
%ADD12R,1.560000X0.650000*%
%ADD13RoundRect,0.250000X-0.475000X0.250000X-0.475000X-0.250000X0.475000X-0.250000X0.475000X0.250000X0*%
%ADD14R,1.100000X2.000000*%
%ADD15RoundRect,0.250000X-0.750000X0.250000X-0.750000X-0.250000X0.750000X-0.250000X0.750000X0.250000X0*%
%ADD16RoundRect,0.250000X-0.250000X-0.475000X0.250000X-0.475000X0.250000X0.475000X-0.250000X0.475000X0*%
%ADD17R,2.500000X1.100000*%
%ADD18RoundRect,0.250000X-0.625000X0.312500X-0.625000X-0.312500X0.625000X-0.312500X0.625000X0.312500X0*%
%ADD19R,1.525000X0.700000*%
%ADD20R,2.513000X3.402000*%
%ADD21RoundRect,0.100000X0.100000X-0.637500X0.100000X0.637500X-0.100000X0.637500X-0.100000X-0.637500X0*%
%ADD22R,2.200000X2.200000*%
%ADD23R,2.200000X1.250000*%
%ADD24RoundRect,0.250000X0.250000X0.750000X-0.250000X0.750000X-0.250000X-0.750000X0.250000X-0.750000X0*%
%ADD25RoundRect,0.250000X0.475000X-0.250000X0.475000X0.250000X-0.475000X0.250000X-0.475000X-0.250000X0*%
%ADD26R,0.450000X1.475000*%
%ADD27RoundRect,0.250000X-0.312500X-0.625000X0.312500X-0.625000X0.312500X0.625000X-0.312500X0.625000X0*%
%ADD28R,1.500000X0.435000*%
%ADD29R,1.250000X2.200000*%
%ADD30RoundRect,0.250000X-0.250000X-0.750000X0.250000X-0.750000X0.250000X0.750000X-0.250000X0.750000X0*%
%ADD31R,1.275000X0.300000*%
%ADD32R,0.650000X1.200000*%
%ADD33RoundRect,0.250000X0.250000X0.475000X-0.250000X0.475000X-0.250000X-0.475000X0.250000X-0.475000X0*%
%ADD34R,0.300000X1.475000*%
%ADD35R,1.475000X0.300000*%
%ADD36R,0.500000X1.000000*%
%ADD37R,0.800000X0.500000*%
%ADD38R,0.400000X1.900000*%
G04 APERTURE END LIST*
D10*
%TO.C,R1*%
X142402500Y-98593750D03*
X139477500Y-98593750D03*
%TD*%
D11*
%TO.C,Rr*%
X112270000Y-105692500D03*
X112270000Y-102767500D03*
%TD*%
D12*
%TO.C,REF\u002A\u002A*%
X105252500Y-103510000D03*
X105252500Y-104460000D03*
X105252500Y-105410000D03*
X107952500Y-105410000D03*
X107952500Y-103510000D03*
%TD*%
D13*
%TO.C,C4*%
X138050001Y-88399999D03*
X138050001Y-90299999D03*
%TD*%
D14*
%TO.C,REF\u002A\u002A*%
X103140000Y-62960000D03*
X101440000Y-62960000D03*
X99740000Y-62960000D03*
X99740000Y-67760000D03*
X101440000Y-67760000D03*
X103140000Y-67760000D03*
%TD*%
D15*
%TO.C,BAT+*%
X109712500Y-107100000D03*
%TD*%
D16*
%TO.C,C7*%
X123090001Y-94349999D03*
X124990001Y-94349999D03*
%TD*%
D10*
%TO.C,R3*%
X118637500Y-107810000D03*
X115712500Y-107810000D03*
%TD*%
%TO.C,R1*%
X142392500Y-100963750D03*
X139467500Y-100963750D03*
%TD*%
D17*
%TO.C,J1*%
X142300000Y-65200000D03*
X142300000Y-67700000D03*
X142300000Y-69700000D03*
X142300000Y-72200000D03*
%TD*%
D18*
%TO.C,R3*%
X133480000Y-104471250D03*
X133480000Y-107396250D03*
%TD*%
D19*
%TO.C,J\u002A\u002A*%
X131658000Y-98708750D03*
X131658000Y-99978750D03*
X131658000Y-101248750D03*
X131658000Y-102518750D03*
X137082000Y-102518750D03*
X137082000Y-101248750D03*
X137082000Y-99978750D03*
X137082000Y-98708750D03*
D20*
X134370000Y-100613750D03*
%TD*%
D11*
%TO.C,R5*%
X99540001Y-94262499D03*
X99540001Y-91337499D03*
%TD*%
D21*
%TO.C,U9*%
X114325000Y-105532500D03*
X114975000Y-105532500D03*
X115625000Y-105532500D03*
X116275000Y-105532500D03*
X116275000Y-99807500D03*
X115625000Y-99807500D03*
X114975000Y-99807500D03*
X114325000Y-99807500D03*
%TD*%
D11*
%TO.C,Rr*%
X102922500Y-106392500D03*
X102922500Y-103467500D03*
%TD*%
%TO.C,R1*%
X132700000Y-72412500D03*
X132700000Y-69487500D03*
%TD*%
D22*
%TO.C,D2*%
X99972500Y-104070000D03*
D23*
X99972500Y-106345000D03*
%TD*%
D14*
%TO.C,REF\u002A\u002A*%
X103160000Y-70420000D03*
X101460000Y-70420000D03*
X99760000Y-70420000D03*
X99760000Y-75220000D03*
X101460000Y-75220000D03*
X103160000Y-75220000D03*
%TD*%
D13*
%TO.C,C13*%
X105252500Y-107210000D03*
X105252500Y-109110000D03*
%TD*%
D11*
%TO.C,R3*%
X118305000Y-100902500D03*
X118305000Y-97977500D03*
%TD*%
%TO.C,R1*%
X137350000Y-65262500D03*
X137350000Y-62337500D03*
%TD*%
D24*
%TO.C,REF\u002A\u002A*%
X134050000Y-62250000D03*
%TD*%
D25*
%TO.C,C3*%
X123190001Y-87969999D03*
X123190001Y-86069999D03*
%TD*%
D26*
%TO.C,Q\u002A\u002A*%
X126035000Y-97853250D03*
X125385000Y-97853250D03*
X124735000Y-97853250D03*
X124085000Y-97853250D03*
X124085000Y-103729250D03*
X124735000Y-103729250D03*
X125385000Y-103729250D03*
X126035000Y-103729250D03*
%TD*%
D27*
%TO.C,R4*%
X131667501Y-94529999D03*
X134592501Y-94529999D03*
%TD*%
D28*
%TO.C,IC\u002A\u002A*%
X125050000Y-65396000D03*
X125050000Y-66030000D03*
X125050000Y-66666000D03*
X125050000Y-67300000D03*
X125050000Y-67936000D03*
X125050000Y-68570000D03*
X125050000Y-69206000D03*
X125050000Y-69840000D03*
X130450000Y-69840000D03*
X130450000Y-69206000D03*
X130450000Y-68570000D03*
X130450000Y-67936000D03*
X130450000Y-67300000D03*
X130450000Y-66666000D03*
X130450000Y-66030000D03*
X130450000Y-65396000D03*
%TD*%
D25*
%TO.C,C13*%
X136500001Y-94189999D03*
X136500001Y-92289999D03*
%TD*%
D11*
%TO.C,R3*%
X126215000Y-108641250D03*
X126215000Y-105716250D03*
%TD*%
D13*
%TO.C,C5*%
X139465001Y-79499999D03*
X139465001Y-81399999D03*
%TD*%
D11*
%TO.C,Rr*%
X118320000Y-105682500D03*
X118320000Y-102757500D03*
%TD*%
D25*
%TO.C,C14*%
X131830001Y-81329999D03*
X131830001Y-79429999D03*
%TD*%
D24*
%TO.C,REF\u002A\u002A*%
X135400000Y-62250000D03*
%TD*%
D22*
%TO.C,D2*%
X146435000Y-99163750D03*
D29*
X144160000Y-99163750D03*
%TD*%
D25*
%TO.C,C1*%
X99680001Y-87919999D03*
X99680001Y-86019999D03*
%TD*%
D15*
%TO.C,BAT-*%
X109722500Y-108620000D03*
%TD*%
D30*
%TO.C,VCC*%
X110940000Y-100420000D03*
%TD*%
D24*
%TO.C,*%
X121950000Y-62500000D03*
%TD*%
D11*
%TO.C,R1*%
X131150000Y-64112500D03*
X131150000Y-61187500D03*
%TD*%
D22*
%TO.C,D2*%
X126500000Y-62400000D03*
D29*
X124225000Y-62400000D03*
%TD*%
D27*
%TO.C,R3*%
X128327500Y-107901250D03*
X131252500Y-107901250D03*
%TD*%
D31*
%TO.C,m1*%
X101622001Y-81179999D03*
X101622001Y-81679999D03*
X101622001Y-82179999D03*
X101622001Y-82679999D03*
X101622001Y-83179999D03*
X101622001Y-83679999D03*
X101622001Y-84179999D03*
X101622001Y-84679999D03*
X101622001Y-85179999D03*
X101622001Y-85679999D03*
X101622001Y-86179999D03*
X101622001Y-86679999D03*
X101622001Y-87179999D03*
X101622001Y-87679999D03*
X101622001Y-88179999D03*
X101622001Y-88679999D03*
X101622001Y-89179999D03*
X101622001Y-89679999D03*
X101622001Y-90179999D03*
X101622001Y-90679999D03*
X101622001Y-91179999D03*
X101622001Y-91679999D03*
X101622001Y-92179999D03*
X101622001Y-92679999D03*
X121298001Y-92679999D03*
X121298001Y-92179999D03*
X121298001Y-91679999D03*
X121298001Y-91179999D03*
X121298001Y-90679999D03*
X121298001Y-90179999D03*
X121298001Y-89679999D03*
X121298001Y-89179999D03*
X121298001Y-88679999D03*
X121298001Y-88179999D03*
X121298001Y-87679999D03*
X121298001Y-87179999D03*
X121298001Y-86679999D03*
X121298001Y-86179999D03*
X121298001Y-85679999D03*
X121298001Y-85179999D03*
X121298001Y-84679999D03*
X121298001Y-84179999D03*
X121298001Y-83679999D03*
X121298001Y-83179999D03*
X121298001Y-82679999D03*
X121298001Y-82179999D03*
X121298001Y-81679999D03*
X121298001Y-81179999D03*
%TD*%
D11*
%TO.C,R1*%
X121995000Y-103903750D03*
X121995000Y-100978750D03*
%TD*%
D10*
%TO.C,R1*%
X126862500Y-71735500D03*
X123937500Y-71735500D03*
%TD*%
D27*
%TO.C,Rr*%
X99700000Y-108460000D03*
X102625000Y-108460000D03*
%TD*%
D22*
%TO.C,D2*%
X146435000Y-102573750D03*
D29*
X144160000Y-102573750D03*
%TD*%
D30*
%TO.C,GND*%
X109550000Y-100420000D03*
%TD*%
D22*
%TO.C,D2*%
X126500000Y-75200000D03*
D29*
X124225000Y-75200000D03*
%TD*%
D18*
%TO.C,R3*%
X99580001Y-80047499D03*
X99580001Y-82972499D03*
%TD*%
D17*
%TO.C,J1*%
X142300001Y-83519999D03*
X142300001Y-86019999D03*
X142300001Y-88019999D03*
X142300001Y-90519999D03*
%TD*%
D32*
%TO.C,IC\u002A\u002A*%
X124040000Y-105791250D03*
X123090000Y-105791250D03*
X122140000Y-105791250D03*
X122140000Y-108291250D03*
X123090000Y-108291250D03*
X124040000Y-108291250D03*
%TD*%
D11*
%TO.C,R3*%
X129360000Y-101206250D03*
X129360000Y-98281250D03*
%TD*%
D13*
%TO.C,C13*%
X107302500Y-107210000D03*
X107302500Y-109110000D03*
%TD*%
D33*
%TO.C,C16*%
X125000001Y-92319999D03*
X123100001Y-92319999D03*
%TD*%
D34*
%TO.C,f1*%
X129058001Y-91647999D03*
X129558001Y-91647999D03*
X130058001Y-91647999D03*
X130558001Y-91647999D03*
X131058001Y-91647999D03*
X131558001Y-91647999D03*
X132058001Y-91647999D03*
X132558001Y-91647999D03*
X133058001Y-91647999D03*
X133558001Y-91647999D03*
X134058001Y-91647999D03*
X134558001Y-91647999D03*
D35*
X136046001Y-90159999D03*
X136046001Y-89659999D03*
X136046001Y-89159999D03*
X136046001Y-88659999D03*
X136046001Y-88159999D03*
X136046001Y-87659999D03*
X136046001Y-87159999D03*
X136046001Y-86659999D03*
X136046001Y-86159999D03*
X136046001Y-85659999D03*
X136046001Y-85159999D03*
X136046001Y-84659999D03*
D34*
X134558001Y-83171999D03*
X134058001Y-83171999D03*
X133558001Y-83171999D03*
X133058001Y-83171999D03*
X132558001Y-83171999D03*
X132058001Y-83171999D03*
X131558001Y-83171999D03*
X131058001Y-83171999D03*
X130558001Y-83171999D03*
X130058001Y-83171999D03*
X129558001Y-83171999D03*
X129058001Y-83171999D03*
D35*
X127570001Y-84659999D03*
X127570001Y-85159999D03*
X127570001Y-85659999D03*
X127570001Y-86159999D03*
X127570001Y-86659999D03*
X127570001Y-87159999D03*
X127570001Y-87659999D03*
X127570001Y-88159999D03*
X127570001Y-88659999D03*
X127570001Y-89159999D03*
X127570001Y-89659999D03*
X127570001Y-90159999D03*
%TD*%
D36*
%TO.C,SW1*%
X128780001Y-81689999D03*
X125780001Y-81689999D03*
X124280001Y-81689999D03*
D37*
X123080001Y-80889999D03*
X123080001Y-78789999D03*
X129980001Y-78789999D03*
X129980001Y-80889999D03*
%TD*%
D11*
%TO.C,R1*%
X135050000Y-72412500D03*
X135050000Y-69487500D03*
%TD*%
%TO.C,R1*%
X137400000Y-72412500D03*
X137400000Y-69487500D03*
%TD*%
D13*
%TO.C,C8*%
X141585001Y-79499999D03*
X141585001Y-81399999D03*
%TD*%
D18*
%TO.C,R3*%
X137210000Y-104391250D03*
X137210000Y-107316250D03*
%TD*%
D15*
%TO.C,*%
X113430000Y-107770000D03*
%TD*%
D38*
%TO.C,Y2*%
X127720001Y-93819999D03*
X128920001Y-93819999D03*
X130120001Y-93819999D03*
%TD*%
M02*
