%TF.GenerationSoftware,KiCad,Pcbnew,(6.0.5)*%
%TF.CreationDate,2023-08-07T21:45:29+03:00*%
%TF.ProjectId,JLC2,4a4c4332-2e6b-4696-9361-645f70636258,rev?*%
%TF.SameCoordinates,Original*%
%TF.FileFunction,Plated,1,4,PTH,Mixed*%
%TF.FilePolarity,Positive*%
%FSLAX46Y46*%
G04 Gerber Fmt 4.6, Leading zero omitted, Abs format (unit mm)*
G04 Created by KiCad (PCBNEW (6.0.5)) date 2023-08-07 21:45:29*
%MOMM*%
%LPD*%
G01*
G04 APERTURE LIST*
%TA.AperFunction,ViaDrill*%
%ADD10C,0.300000*%
%TD*%
%TA.AperFunction,ViaDrill*%
%ADD11C,0.400000*%
%TD*%
G04 aperture for slot hole*
%TA.AperFunction,ComponentDrill*%
%ADD12O,2.500000X0.900000*%
%TD*%
%TA.AperFunction,ComponentDrill*%
%ADD13C,1.000000*%
%TD*%
G04 APERTURE END LIST*
D10*
X98970001Y-84159999D03*
X99540001Y-91337499D03*
X99540001Y-94262499D03*
X99580001Y-80019999D03*
X99790001Y-84279999D03*
X100012500Y-104030000D03*
X102625000Y-108460000D03*
X102950001Y-83489999D03*
X103220001Y-87479999D03*
X103840001Y-86679999D03*
X105232500Y-103505000D03*
X106500001Y-90639999D03*
X106500001Y-91269999D03*
X106510001Y-90009999D03*
X106520001Y-88749999D03*
X106520001Y-89379999D03*
X106530001Y-88119999D03*
X107952500Y-105410000D03*
X109610000Y-100420000D03*
X109722500Y-108620000D03*
X110870000Y-100400000D03*
X117450001Y-84759999D03*
X117940001Y-85139999D03*
X118305000Y-97977500D03*
X118450001Y-85499999D03*
X118990001Y-85869999D03*
X119010001Y-86679999D03*
X119580001Y-87459999D03*
X123100001Y-92319999D03*
X123415001Y-81674999D03*
X124400001Y-85089999D03*
X125030001Y-85079999D03*
X125660001Y-84759999D03*
X126320001Y-84749999D03*
X127700001Y-92069999D03*
X128450001Y-84049999D03*
X129980001Y-80899999D03*
X130558001Y-90159999D03*
X130660001Y-89519999D03*
X130710001Y-80119999D03*
X131970001Y-89919999D03*
X133120001Y-81019999D03*
X133330001Y-89229999D03*
X133790001Y-89709999D03*
X134030001Y-87339999D03*
X134030001Y-87969999D03*
X134040001Y-86709999D03*
X134050001Y-85449999D03*
X134050001Y-86079999D03*
X134060001Y-84819999D03*
X136210001Y-80049999D03*
X136210001Y-81949999D03*
X136480001Y-92259999D03*
X137180001Y-83919999D03*
X141520001Y-81939999D03*
X142300001Y-86019999D03*
X142300001Y-88019999D03*
D11*
X99720000Y-75230000D03*
X99750000Y-67760000D03*
X101420000Y-75230000D03*
X101460000Y-67740000D03*
X103140000Y-75190000D03*
X103160000Y-67730000D03*
X104360000Y-63010000D03*
X104400000Y-70430000D03*
X137210000Y-107248750D03*
D12*
%TO.C,J1*%
X145050000Y-63000000D03*
X145050000Y-74400000D03*
X145050001Y-81319999D03*
X145050001Y-92719999D03*
D13*
%TO.C,BAT+*%
X129290000Y-104918750D03*
%TO.C,BAT-*%
X140970000Y-104308750D03*
%TO.C,-USB+*%
X143325000Y-107778750D03*
X145865000Y-107778750D03*
M02*
