%TF.GenerationSoftware,KiCad,Pcbnew,(6.0.5)*%
%TF.CreationDate,2023-08-07T21:45:28+03:00*%
%TF.ProjectId,JLC2,4a4c4332-2e6b-4696-9361-645f70636258,rev?*%
%TF.SameCoordinates,Original*%
%TF.FileFunction,Soldermask,Bot*%
%TF.FilePolarity,Negative*%
%FSLAX46Y46*%
G04 Gerber Fmt 4.6, Leading zero omitted, Abs format (unit mm)*
G04 Created by KiCad (PCBNEW (6.0.5)) date 2023-08-07 21:45:28*
%MOMM*%
%LPD*%
G01*
G04 APERTURE LIST*
G04 Aperture macros list*
%AMRoundRect*
0 Rectangle with rounded corners*
0 $1 Rounding radius*
0 $2 $3 $4 $5 $6 $7 $8 $9 X,Y pos of 4 corners*
0 Add a 4 corners polygon primitive as box body*
4,1,4,$2,$3,$4,$5,$6,$7,$8,$9,$2,$3,0*
0 Add four circle primitives for the rounded corners*
1,1,$1+$1,$2,$3*
1,1,$1+$1,$4,$5*
1,1,$1+$1,$6,$7*
1,1,$1+$1,$8,$9*
0 Add four rect primitives between the rounded corners*
20,1,$1+$1,$2,$3,$4,$5,0*
20,1,$1+$1,$4,$5,$6,$7,0*
20,1,$1+$1,$6,$7,$8,$9,0*
20,1,$1+$1,$8,$9,$2,$3,0*%
G04 Aperture macros list end*
%ADD10C,1.100000*%
%ADD11O,3.500000X1.900000*%
%ADD12R,1.700000X1.700000*%
%ADD13O,1.700000X1.700000*%
%ADD14RoundRect,0.250000X-0.250000X-0.750000X0.250000X-0.750000X0.250000X0.750000X-0.250000X0.750000X0*%
%ADD15RoundRect,0.250000X0.475000X-0.250000X0.475000X0.250000X-0.475000X0.250000X-0.475000X-0.250000X0*%
%ADD16RoundRect,0.150000X0.512500X0.150000X-0.512500X0.150000X-0.512500X-0.150000X0.512500X-0.150000X0*%
%ADD17RoundRect,0.250000X-0.250000X-0.475000X0.250000X-0.475000X0.250000X0.475000X-0.250000X0.475000X0*%
%ADD18RoundRect,0.250000X-0.475000X0.250000X-0.475000X-0.250000X0.475000X-0.250000X0.475000X0.250000X0*%
%ADD19R,1.275000X0.300000*%
%ADD20R,2.200000X2.200000*%
%ADD21R,1.250000X2.200000*%
%ADD22RoundRect,0.250000X0.250000X0.475000X-0.250000X0.475000X-0.250000X-0.475000X0.250000X-0.475000X0*%
%ADD23RoundRect,0.250000X-0.312500X-0.625000X0.312500X-0.625000X0.312500X0.625000X-0.312500X0.625000X0*%
%ADD24RoundRect,0.250000X0.312500X0.625000X-0.312500X0.625000X-0.312500X-0.625000X0.312500X-0.625000X0*%
G04 APERTURE END LIST*
D10*
%TO.C,J1*%
X145050000Y-71000000D03*
X145050000Y-66400000D03*
D11*
X145050000Y-74400000D03*
X145050000Y-63000000D03*
%TD*%
D12*
%TO.C,BAT+*%
X129290000Y-104918750D03*
%TD*%
%TO.C,-USB+*%
X145865000Y-107778750D03*
D13*
X143325000Y-107778750D03*
%TD*%
D10*
%TO.C,J1*%
X145050001Y-84719999D03*
X145050001Y-89319999D03*
D11*
X145050001Y-81319999D03*
X145050001Y-92719999D03*
%TD*%
D12*
%TO.C,BAT-*%
X140970000Y-104308750D03*
%TD*%
D14*
%TO.C,REF\u002A\u002A*%
X99470000Y-76110000D03*
%TD*%
D15*
%TO.C,C19*%
X134130001Y-81949999D03*
X134130001Y-80049999D03*
%TD*%
D16*
%TO.C,U1*%
X140637501Y-80039999D03*
X140637501Y-80989999D03*
X140637501Y-81939999D03*
X138362501Y-81939999D03*
X138362501Y-80039999D03*
%TD*%
D17*
%TO.C,C10*%
X132260001Y-91869999D03*
X134160001Y-91869999D03*
%TD*%
D14*
%TO.C,REF\u002A\u002A*%
X102720000Y-61440000D03*
%TD*%
D18*
%TO.C,C2*%
X99680001Y-86019999D03*
X99680001Y-87919999D03*
%TD*%
D19*
%TO.C,m2*%
X101620001Y-92679999D03*
X101620001Y-92179999D03*
X101620001Y-91679999D03*
X101620001Y-91179999D03*
X101620001Y-90679999D03*
X101620001Y-90179999D03*
X101620001Y-89679999D03*
X101620001Y-89179999D03*
X101620001Y-88679999D03*
X101620001Y-88179999D03*
X101620001Y-87679999D03*
X101620001Y-87179999D03*
X101620001Y-86679999D03*
X101620001Y-86179999D03*
X101620001Y-85679999D03*
X101620001Y-85179999D03*
X101620001Y-84679999D03*
X101620001Y-84179999D03*
X101620001Y-83679999D03*
X101620001Y-83179999D03*
X101620001Y-82679999D03*
X101620001Y-82179999D03*
X101620001Y-81679999D03*
X101620001Y-81179999D03*
X121296001Y-81179999D03*
X121296001Y-81679999D03*
X121296001Y-82179999D03*
X121296001Y-82679999D03*
X121296001Y-83179999D03*
X121296001Y-83679999D03*
X121296001Y-84179999D03*
X121296001Y-84679999D03*
X121296001Y-85179999D03*
X121296001Y-85679999D03*
X121296001Y-86179999D03*
X121296001Y-86679999D03*
X121296001Y-87179999D03*
X121296001Y-87679999D03*
X121296001Y-88179999D03*
X121296001Y-88679999D03*
X121296001Y-89179999D03*
X121296001Y-89679999D03*
X121296001Y-90179999D03*
X121296001Y-90679999D03*
X121296001Y-91179999D03*
X121296001Y-91679999D03*
X121296001Y-92179999D03*
X121296001Y-92679999D03*
%TD*%
D18*
%TO.C,C6*%
X123190001Y-86069999D03*
X123190001Y-87969999D03*
%TD*%
D14*
%TO.C,REF\u002A\u002A*%
X101230000Y-76150000D03*
%TD*%
D15*
%TO.C,C17*%
X132100001Y-81939999D03*
X132100001Y-80039999D03*
%TD*%
D14*
%TO.C,REF\u002A\u002A*%
X99330000Y-61400000D03*
%TD*%
%TO.C,REF\u002A\u002A*%
X101090000Y-61440000D03*
%TD*%
%TO.C,REF\u002A\u002A*%
X104300000Y-61460000D03*
%TD*%
D20*
%TO.C,D3*%
X136810001Y-93989999D03*
D21*
X139085001Y-93989999D03*
%TD*%
D22*
%TO.C,C11*%
X140260001Y-84479999D03*
X138360001Y-84479999D03*
%TD*%
D15*
%TO.C,C12*%
X136210001Y-81949999D03*
X136210001Y-80049999D03*
%TD*%
D23*
%TO.C,R1*%
X129985001Y-87789999D03*
X132910001Y-87789999D03*
%TD*%
D24*
%TO.C,R7*%
X134532501Y-94019999D03*
X131607501Y-94019999D03*
%TD*%
D14*
%TO.C,REF\u002A\u002A*%
X104440000Y-76170000D03*
%TD*%
%TO.C,REF\u002A\u002A*%
X102860000Y-76150000D03*
%TD*%
D20*
%TO.C,D2*%
X136810001Y-87159999D03*
D21*
X139085001Y-87159999D03*
%TD*%
D23*
%TO.C,R2*%
X129977501Y-85449999D03*
X132902501Y-85449999D03*
%TD*%
D20*
%TO.C,D1*%
X136810001Y-90579999D03*
D21*
X139085001Y-90579999D03*
%TD*%
M02*
