%TF.GenerationSoftware,KiCad,Pcbnew,(6.0.5)*%
%TF.CreationDate,2023-08-07T21:45:28+03:00*%
%TF.ProjectId,JLC2,4a4c4332-2e6b-4696-9361-645f70636258,rev?*%
%TF.SameCoordinates,Original*%
%TF.FileFunction,Profile,NP*%
%FSLAX46Y46*%
G04 Gerber Fmt 4.6, Leading zero omitted, Abs format (unit mm)*
G04 Created by KiCad (PCBNEW (6.0.5)) date 2023-08-07 21:45:28*
%MOMM*%
%LPD*%
G01*
G04 APERTURE LIST*
%TA.AperFunction,Profile*%
%ADD10C,0.100000*%
%TD*%
%TA.AperFunction,Profile*%
%ADD11C,0.120000*%
%TD*%
G04 APERTURE END LIST*
D10*
X98160000Y-60049999D02*
X98160000Y-77649999D01*
X98160000Y-60049999D02*
X105350000Y-60050000D01*
X142510001Y-94709999D02*
G75*
G03*
X142510001Y-94709999I-800000J0D01*
G01*
X147740001Y-77649999D02*
X148150000Y-77650000D01*
X147740000Y-95770000D02*
G75*
G03*
X148140000Y-95369998I0J400000D01*
G01*
X147740000Y-78450000D02*
X147740001Y-77649999D01*
X98562843Y-78449999D02*
X98562843Y-77649999D01*
X148140000Y-78850000D02*
G75*
G03*
X147740000Y-78450000I-400000J0D01*
G01*
X148150000Y-96570000D02*
X148150000Y-110050000D01*
X98160000Y-95369999D02*
G75*
G03*
X98560000Y-95769999I399999J-1D01*
G01*
X105350000Y-60050000D02*
X105350000Y-60450000D01*
X118110001Y-79499999D02*
G75*
G03*
X118110001Y-79499999I-800000J0D01*
G01*
X147740000Y-95769998D02*
X147740000Y-96570000D01*
X98540000Y-96570000D02*
X98160000Y-96570000D01*
X98560000Y-77649999D02*
X98160000Y-77649999D01*
X147740000Y-96570000D02*
X148150000Y-96570000D01*
X102590001Y-79499999D02*
G75*
G03*
X102590001Y-79499999I-800000J0D01*
G01*
X98562843Y-78450001D02*
G75*
G03*
X98162843Y-78849999I-1J-399999D01*
G01*
X98560001Y-95769999D02*
X98560000Y-96570000D01*
X98160000Y-95369999D02*
X98160000Y-78849999D01*
X148150000Y-110050000D02*
X98160000Y-110050000D01*
X148150000Y-60050000D02*
X106150000Y-60050000D01*
X148150000Y-77650000D02*
X148150000Y-60050000D01*
X105350000Y-60450000D02*
X106150000Y-60450000D01*
X148140000Y-78850000D02*
X148140000Y-95369998D01*
X102590001Y-94719999D02*
G75*
G03*
X102590001Y-94719999I-800000J0D01*
G01*
X118110001Y-94719999D02*
G75*
G03*
X118110001Y-94719999I-800000J0D01*
G01*
X106150000Y-60450000D02*
X106150000Y-60050000D01*
X98160000Y-110050000D02*
X98160000Y-96570000D01*
D11*
%TO.C,*%
X110250000Y-72850000D02*
G75*
G03*
X110250000Y-72850000I-500000J0D01*
G01*
X110250000Y-64500000D02*
G75*
G03*
X110250000Y-64500000I-500000J0D01*
G01*
%TO.C,SW1*%
X128430001Y-79839999D02*
G75*
G03*
X128430001Y-79839999I-400000J0D01*
G01*
X125430001Y-79839999D02*
G75*
G03*
X125430001Y-79839999I-400000J0D01*
G01*
%TD*%
M02*
