%TF.GenerationSoftware,KiCad,Pcbnew,8.0.3*%
%TF.CreationDate,2024-10-06T13:21:57+03:00*%
%TF.ProjectId,JLC9,4a4c4339-2e6b-4696-9361-645f70636258,rev?*%
%TF.SameCoordinates,Original*%
%TF.FileFunction,Soldermask,Top*%
%TF.FilePolarity,Negative*%
%FSLAX46Y46*%
G04 Gerber Fmt 4.6, Leading zero omitted, Abs format (unit mm)*
G04 Created by KiCad (PCBNEW 8.0.3) date 2024-10-06 13:21:57*
%MOMM*%
%LPD*%
G01*
G04 APERTURE LIST*
G04 Aperture macros list*
%AMRoundRect*
0 Rectangle with rounded corners*
0 $1 Rounding radius*
0 $2 $3 $4 $5 $6 $7 $8 $9 X,Y pos of 4 corners*
0 Add a 4 corners polygon primitive as box body*
4,1,4,$2,$3,$4,$5,$6,$7,$8,$9,$2,$3,0*
0 Add four circle primitives for the rounded corners*
1,1,$1+$1,$2,$3*
1,1,$1+$1,$4,$5*
1,1,$1+$1,$6,$7*
1,1,$1+$1,$8,$9*
0 Add four rect primitives between the rounded corners*
20,1,$1+$1,$2,$3,$4,$5,0*
20,1,$1+$1,$4,$5,$6,$7,0*
20,1,$1+$1,$6,$7,$8,$9,0*
20,1,$1+$1,$8,$9,$2,$3,0*%
G04 Aperture macros list end*
%ADD10R,1.800000X1.800000*%
%ADD11C,1.800000*%
%ADD12RoundRect,0.237500X0.237500X-0.287500X0.237500X0.287500X-0.237500X0.287500X-0.237500X-0.287500X0*%
%ADD13C,2.000000*%
%ADD14O,2.000000X2.000000*%
%ADD15RoundRect,0.150000X-0.150000X0.587500X-0.150000X-0.587500X0.150000X-0.587500X0.150000X0.587500X0*%
%ADD16RoundRect,0.237500X-0.250000X-0.237500X0.250000X-0.237500X0.250000X0.237500X-0.250000X0.237500X0*%
%ADD17R,1.600000X1.600000*%
%ADD18O,1.600000X1.600000*%
%ADD19C,1.600000*%
%ADD20R,4.000000X4.000000*%
%ADD21RoundRect,0.150000X0.587500X0.150000X-0.587500X0.150000X-0.587500X-0.150000X0.587500X-0.150000X0*%
%ADD22RoundRect,0.150000X-0.587500X-0.150000X0.587500X-0.150000X0.587500X0.150000X-0.587500X0.150000X0*%
%ADD23R,1.700000X1.700000*%
%ADD24O,1.700000X1.700000*%
%ADD25RoundRect,0.237500X0.237500X-0.250000X0.237500X0.250000X-0.237500X0.250000X-0.237500X-0.250000X0*%
%ADD26RoundRect,0.237500X-0.237500X0.250000X-0.237500X-0.250000X0.237500X-0.250000X0.237500X0.250000X0*%
%ADD27R,1.560000X1.560000*%
%ADD28C,1.560000*%
%ADD29RoundRect,0.237500X0.250000X0.237500X-0.250000X0.237500X-0.250000X-0.237500X0.250000X-0.237500X0*%
%ADD30O,2.400000X1.600000*%
%ADD31R,2.400000X1.600000*%
%ADD32C,2.250000*%
%ADD33R,2.250000X2.250000*%
%ADD34R,2.200000X2.200000*%
%ADD35O,2.200000X2.200000*%
%ADD36R,1.500000X1.050000*%
%ADD37O,1.500000X1.050000*%
%ADD38R,1.800000X1.100000*%
%ADD39RoundRect,0.275000X0.625000X-0.275000X0.625000X0.275000X-0.625000X0.275000X-0.625000X-0.275000X0*%
%ADD40R,1.600000X2.400000*%
%ADD41O,1.600000X2.400000*%
G04 APERTURE END LIST*
D10*
%TO.C,D5*%
X187344218Y-87988282D03*
D11*
X184804218Y-87988282D03*
%TD*%
D12*
%TO.C,D2*%
X224215094Y-74794852D03*
X224215094Y-76544852D03*
%TD*%
D13*
%TO.C,SW1*%
X138800000Y-79690000D03*
X138800000Y-73190000D03*
X143300000Y-79690000D03*
X143300000Y-73190000D03*
%TD*%
D14*
%TO.C,C33*%
X176304218Y-79935782D03*
X176304218Y-82435782D03*
%TD*%
D15*
%TO.C,Q6*%
X219146344Y-85757352D03*
X218196344Y-83882352D03*
X220096344Y-83882352D03*
%TD*%
D16*
%TO.C,R11*%
X210340094Y-77344852D03*
X208515094Y-77344852D03*
%TD*%
D12*
%TO.C,D1*%
X215490094Y-80007352D03*
X215490094Y-81757352D03*
%TD*%
D17*
%TO.C,U2*%
X179754218Y-79288282D03*
D18*
X182294218Y-79288282D03*
X184834218Y-79288282D03*
X187374218Y-79288282D03*
X187374218Y-71668282D03*
X184834218Y-71668282D03*
X182294218Y-71668282D03*
X179754218Y-71668282D03*
%TD*%
D15*
%TO.C,Q24*%
X201515094Y-68032352D03*
X200565094Y-66157352D03*
X202465094Y-66157352D03*
%TD*%
D13*
%TO.C,SW3*%
X176314218Y-92985782D03*
X176314218Y-86485782D03*
X180814218Y-92985782D03*
X180814218Y-86485782D03*
%TD*%
D19*
%TO.C,R25*%
X131450000Y-85105000D03*
D18*
X131450000Y-74945000D03*
%TD*%
D19*
%TO.C,R20*%
X110700000Y-85935000D03*
D18*
X110700000Y-75775000D03*
%TD*%
D20*
%TO.C,PAD3*%
X213973426Y-94007352D03*
%TD*%
D21*
%TO.C,Q23*%
X204352594Y-70907352D03*
X206227594Y-69957352D03*
X206227594Y-71857352D03*
%TD*%
D20*
%TO.C,PAD4*%
X222440094Y-94007352D03*
%TD*%
D13*
%TO.C,SW2*%
X153050000Y-73190000D03*
X153050000Y-79690000D03*
X148550000Y-73190000D03*
X148550000Y-79690000D03*
%TD*%
D15*
%TO.C,Q14*%
X205102594Y-75782352D03*
X204152594Y-73907352D03*
X206052594Y-73907352D03*
%TD*%
D22*
%TO.C,Q18*%
X198277594Y-88219852D03*
X196402594Y-89169852D03*
X196402594Y-87269852D03*
%TD*%
D11*
%TO.C,D3*%
X165050000Y-89950000D03*
D10*
X165050000Y-92490000D03*
%TD*%
D18*
%TO.C,R19*%
X167210000Y-75940000D03*
D19*
X157050000Y-75940000D03*
%TD*%
%TO.C,R24*%
X127950000Y-74865000D03*
D18*
X127950000Y-85025000D03*
%TD*%
D23*
%TO.C,REF\u002A\u002A*%
X187279218Y-93185782D03*
D24*
X184739218Y-93185782D03*
%TD*%
D18*
%TO.C,R18*%
X167210000Y-85690000D03*
D19*
X157050000Y-85690000D03*
%TD*%
D25*
%TO.C,R4*%
X217270094Y-79907352D03*
X217270094Y-81732352D03*
%TD*%
D15*
%TO.C,Q5*%
X219146344Y-89882352D03*
X218196344Y-88007352D03*
X220096344Y-88007352D03*
%TD*%
%TO.C,Q4*%
X211040094Y-85607352D03*
X210090094Y-83732352D03*
X211990094Y-83732352D03*
%TD*%
D21*
%TO.C,Q16*%
X200340094Y-78594852D03*
X202215094Y-77644852D03*
X202215094Y-79544852D03*
%TD*%
D11*
%TO.C,D6*%
X158050000Y-89925000D03*
D10*
X158050000Y-92465000D03*
%TD*%
D24*
%TO.C,REF\u002A\u002A*%
X163790000Y-72000000D03*
D23*
X166330000Y-72000000D03*
%TD*%
D22*
%TO.C,Q8*%
X220427594Y-75719852D03*
X218552594Y-76669852D03*
X218552594Y-74769852D03*
%TD*%
D15*
%TO.C,Q3*%
X214815094Y-85632352D03*
X213865094Y-83757352D03*
X215765094Y-83757352D03*
%TD*%
D26*
%TO.C,R3*%
X216621344Y-69782352D03*
X216621344Y-67957352D03*
%TD*%
%TO.C,R2*%
X212052594Y-76582352D03*
X212052594Y-74757352D03*
%TD*%
D25*
%TO.C,R15*%
X197790094Y-72682352D03*
X197790094Y-74507352D03*
%TD*%
D21*
%TO.C,Q13*%
X204402594Y-78594852D03*
X206277594Y-77644852D03*
X206277594Y-79544852D03*
%TD*%
D15*
%TO.C,Q7*%
X210990094Y-81319852D03*
X210040094Y-79444852D03*
X211940094Y-79444852D03*
%TD*%
D25*
%TO.C,R6*%
X222552594Y-74757352D03*
X222552594Y-76582352D03*
%TD*%
D21*
%TO.C,Q11*%
X218683844Y-68869852D03*
X220558844Y-67919852D03*
X220558844Y-69819852D03*
%TD*%
D20*
%TO.C,PAD2*%
X205506760Y-94007352D03*
%TD*%
D18*
%TO.C,R21*%
X167210000Y-79190000D03*
D19*
X157050000Y-79190000D03*
%TD*%
D21*
%TO.C,Q20*%
X200352594Y-70907352D03*
X202227594Y-69957352D03*
X202227594Y-71857352D03*
%TD*%
D17*
%TO.C,U3*%
X117150000Y-75975000D03*
D18*
X117150000Y-78515000D03*
X117150000Y-81055000D03*
X117150000Y-83595000D03*
X124770000Y-83595000D03*
X124770000Y-81055000D03*
X124770000Y-78515000D03*
X124770000Y-75975000D03*
%TD*%
D20*
%TO.C,PAD5*%
X222456762Y-62007352D03*
%TD*%
%TO.C,PAD1*%
X197040094Y-94007352D03*
%TD*%
D16*
%TO.C,R14*%
X210340094Y-72344852D03*
X208515094Y-72344852D03*
%TD*%
D20*
%TO.C,PAD8*%
X197056762Y-62007352D03*
%TD*%
D16*
%TO.C,R8*%
X210340094Y-74844852D03*
X208515094Y-74844852D03*
%TD*%
D27*
%TO.C,RV2*%
X124690000Y-86350000D03*
D28*
X119690000Y-88850000D03*
X124690000Y-91350000D03*
%TD*%
D15*
%TO.C,Q15*%
X204840094Y-84719852D03*
X203890094Y-82844852D03*
X205790094Y-82844852D03*
%TD*%
D25*
%TO.C,R9*%
X207590094Y-82869852D03*
X207590094Y-84694852D03*
%TD*%
D22*
%TO.C,Q1*%
X215990094Y-75669852D03*
X214115094Y-76619852D03*
X214115094Y-74719852D03*
%TD*%
D14*
%TO.C,C31*%
X173054218Y-79935782D03*
X173054218Y-82435782D03*
%TD*%
D29*
%TO.C,R12*%
X208427594Y-69594852D03*
X210252594Y-69594852D03*
%TD*%
D20*
%TO.C,PAD7*%
X205523428Y-62007352D03*
%TD*%
D26*
%TO.C,R13*%
X207590094Y-88944852D03*
X207590094Y-87119852D03*
%TD*%
D15*
%TO.C,Q21*%
X205090094Y-68032352D03*
X204140094Y-66157352D03*
X206040094Y-66157352D03*
%TD*%
D16*
%TO.C,R5*%
X216533844Y-71619852D03*
X214708844Y-71619852D03*
%TD*%
D18*
%TO.C,R22*%
X167210000Y-82440000D03*
D19*
X157050000Y-82440000D03*
%TD*%
D20*
%TO.C,PAD6*%
X213990094Y-62007352D03*
%TD*%
D18*
%TO.C,U1*%
X152330000Y-90720000D03*
X149790000Y-90720000D03*
X147250000Y-90720000D03*
X144710000Y-90720000D03*
X144710000Y-83100000D03*
X147250000Y-83100000D03*
X149790000Y-83100000D03*
D17*
X152330000Y-83100000D03*
%TD*%
D15*
%TO.C,Q9*%
X214865094Y-89872352D03*
X213915094Y-87997352D03*
X215815094Y-87997352D03*
%TD*%
D25*
%TO.C,R16*%
X197790094Y-77107352D03*
X197790094Y-78932352D03*
%TD*%
D15*
%TO.C,Q19*%
X204840094Y-88969852D03*
X203890094Y-87094852D03*
X205790094Y-87094852D03*
%TD*%
D14*
%TO.C,C1*%
X119950000Y-72525000D03*
X117450000Y-72525000D03*
%TD*%
D23*
%TO.C,REF\u002A\u002A*%
X126250000Y-71700000D03*
D24*
X123710000Y-71700000D03*
%TD*%
D14*
%TO.C,C3*%
X141380000Y-83200000D03*
X138880000Y-83200000D03*
%TD*%
%TO.C,C5*%
X114200000Y-78525000D03*
X114200000Y-76025000D03*
%TD*%
D15*
%TO.C,Q22*%
X201090094Y-88969852D03*
X200140094Y-87094852D03*
X202040094Y-87094852D03*
%TD*%
D25*
%TO.C,R17*%
X197790094Y-81519852D03*
X197790094Y-83344852D03*
%TD*%
D27*
%TO.C,RV1*%
X171864218Y-71985782D03*
D28*
X174364218Y-76985782D03*
X176864218Y-71985782D03*
%TD*%
D19*
%TO.C,R23*%
X179304218Y-82738282D03*
D18*
X189464218Y-82738282D03*
%TD*%
D21*
%TO.C,Q2*%
X212746344Y-68919852D03*
X214621344Y-67969852D03*
X214621344Y-69869852D03*
%TD*%
D15*
%TO.C,Q10*%
X211040094Y-89757352D03*
X210090094Y-87882352D03*
X211990094Y-87882352D03*
%TD*%
D16*
%TO.C,R10*%
X197552594Y-85582352D03*
X195727594Y-85582352D03*
%TD*%
D26*
%TO.C,R1*%
X213740094Y-81794852D03*
X213740094Y-79969852D03*
%TD*%
D10*
%TO.C,D4*%
X111200000Y-91025000D03*
D11*
X113740000Y-91025000D03*
%TD*%
D15*
%TO.C,Q17*%
X201352594Y-75719852D03*
X200402594Y-73844852D03*
X202302594Y-73844852D03*
%TD*%
D29*
%TO.C,R7*%
X218458844Y-71619852D03*
X220283844Y-71619852D03*
%TD*%
D15*
%TO.C,Q12*%
X201090094Y-84719852D03*
X200140094Y-82844852D03*
X202040094Y-82844852D03*
%TD*%
D19*
%TO.C,R145*%
X210440000Y-139215000D03*
D18*
X210440000Y-129055000D03*
%TD*%
D30*
%TO.C,U6*%
X88220000Y-110975000D03*
X88220000Y-113515000D03*
X88220000Y-116055000D03*
X88220000Y-118595000D03*
X88220000Y-121135000D03*
X88220000Y-123675000D03*
X88220000Y-126215000D03*
X88220000Y-128755000D03*
X80600000Y-128755000D03*
X80600000Y-126215000D03*
X80600000Y-123675000D03*
X80600000Y-121135000D03*
X80600000Y-118595000D03*
X80600000Y-116055000D03*
X80600000Y-113515000D03*
D31*
X80600000Y-110975000D03*
%TD*%
D24*
%TO.C,REF\u002A\u002A*%
X95275000Y-136410000D03*
D23*
X95275000Y-138950000D03*
%TD*%
D11*
%TO.C,D35*%
X147810000Y-117650371D03*
D10*
X150350000Y-117650371D03*
%TD*%
D18*
%TO.C,R32*%
X145180000Y-148150371D03*
D19*
X135020000Y-148150371D03*
%TD*%
D18*
%TO.C,R23*%
X115760000Y-98600000D03*
D19*
X105600000Y-98600000D03*
%TD*%
D11*
%TO.C,D31*%
X100100000Y-112905000D03*
D10*
X100100000Y-110365000D03*
%TD*%
D32*
%TO.C,SW19*%
X132350000Y-139650371D03*
D33*
X125850000Y-139650371D03*
%TD*%
D18*
%TO.C,R29*%
X145260000Y-135400371D03*
D19*
X135100000Y-135400371D03*
%TD*%
D32*
%TO.C,SW18*%
X132350000Y-135400371D03*
D33*
X125850000Y-135400371D03*
%TD*%
%TO.C,SW61*%
X221990000Y-114135000D03*
D32*
X215490000Y-114135000D03*
%TD*%
D10*
%TO.C,D100*%
X185990000Y-144185000D03*
D11*
X185990000Y-141645000D03*
%TD*%
D23*
%TO.C,SW68*%
X185940000Y-124760000D03*
D24*
X185940000Y-122220000D03*
X185940000Y-119680000D03*
%TD*%
%TO.C,REF\u002A\u002A*%
X171910000Y-100075371D03*
D23*
X174450000Y-100075371D03*
%TD*%
D33*
%TO.C,SW63*%
X221990000Y-105385000D03*
D32*
X215490000Y-105385000D03*
%TD*%
%TO.C,SW11*%
X132350000Y-107150371D03*
D33*
X125850000Y-107150371D03*
%TD*%
D18*
%TO.C,R21*%
X115850000Y-122680000D03*
D19*
X115850000Y-112520000D03*
%TD*%
D10*
%TO.C,D92*%
X191140000Y-144225000D03*
D11*
X191140000Y-141685000D03*
%TD*%
%TO.C,D22*%
X62670000Y-100850000D03*
D10*
X60130000Y-100850000D03*
%TD*%
D11*
%TO.C,D30*%
X62600000Y-138350000D03*
D10*
X60060000Y-138350000D03*
%TD*%
D33*
%TO.C,SW66*%
X221990000Y-100885000D03*
D32*
X215490000Y-100885000D03*
%TD*%
D10*
%TO.C,D95*%
X196390000Y-99995000D03*
D11*
X196390000Y-102535000D03*
%TD*%
D18*
%TO.C,R13*%
X65060000Y-128100000D03*
D19*
X75220000Y-128100000D03*
%TD*%
D11*
%TO.C,D24*%
X62655000Y-109900000D03*
D10*
X60115000Y-109900000D03*
%TD*%
D18*
%TO.C,R26*%
X145260000Y-122650371D03*
D19*
X135100000Y-122650371D03*
%TD*%
D24*
%TO.C,REF\u002A\u002A*%
X92775000Y-136410000D03*
D23*
X92775000Y-138950000D03*
%TD*%
D18*
%TO.C,R38*%
X135020000Y-106150371D03*
D19*
X145180000Y-106150371D03*
%TD*%
D24*
%TO.C,REF\u002A\u002A*%
X88145000Y-136600000D03*
X85605000Y-136600000D03*
X83065000Y-136600000D03*
X80525000Y-136600000D03*
D23*
X77985000Y-136600000D03*
%TD*%
D11*
%TO.C,D44*%
X174310000Y-142900371D03*
D10*
X171770000Y-142900371D03*
%TD*%
D18*
%TO.C,R15*%
X65270000Y-132600000D03*
D19*
X75430000Y-132600000D03*
%TD*%
D32*
%TO.C,SW15*%
X132350000Y-122650371D03*
D33*
X125850000Y-122650371D03*
%TD*%
D11*
%TO.C,D26*%
X62655000Y-119150000D03*
D10*
X60115000Y-119150000D03*
%TD*%
D32*
%TO.C,SW17*%
X132350000Y-131150371D03*
D33*
X125850000Y-131150371D03*
%TD*%
D11*
%TO.C,D28*%
X62640000Y-128100000D03*
D10*
X60100000Y-128100000D03*
%TD*%
%TO.C,D97*%
X210440000Y-144210000D03*
D11*
X210440000Y-141670000D03*
%TD*%
D18*
%TO.C,R22*%
X112600000Y-122680000D03*
D19*
X112600000Y-112520000D03*
%TD*%
D11*
%TO.C,D33*%
X94100000Y-112905000D03*
D10*
X94100000Y-110365000D03*
%TD*%
D11*
%TO.C,D34*%
X147835000Y-111400371D03*
D10*
X150375000Y-111400371D03*
%TD*%
D14*
%TO.C,REF\u002A\u002A*%
X154575000Y-106575371D03*
X154575000Y-109075371D03*
%TD*%
D34*
%TO.C,D1*%
X71100000Y-80655000D03*
D35*
X71100000Y-90815000D03*
%TD*%
D34*
%TO.C,D2*%
X74530000Y-90825000D03*
D35*
X74530000Y-80665000D03*
%TD*%
D23*
%TO.C,J3*%
X85500000Y-75710000D03*
D24*
X85500000Y-73170000D03*
%TD*%
D19*
%TO.C,R2*%
X64110000Y-77515000D03*
D18*
X64110000Y-67355000D03*
%TD*%
D23*
%TO.C,SW1*%
X85500000Y-81010000D03*
D24*
X85500000Y-83550000D03*
X85500000Y-86090000D03*
%TD*%
D23*
%TO.C,J2*%
X84200000Y-92235000D03*
D24*
X81660000Y-92235000D03*
%TD*%
D10*
%TO.C,D3*%
X78100000Y-77035000D03*
D11*
X78100000Y-74495000D03*
%TD*%
D23*
%TO.C,J1*%
X59700000Y-92235000D03*
D24*
X62240000Y-92235000D03*
%TD*%
D19*
%TO.C,R1*%
X60870000Y-77515000D03*
D18*
X60870000Y-67355000D03*
%TD*%
D19*
%TO.C,R4*%
X78100000Y-90715000D03*
D18*
X78100000Y-80555000D03*
%TD*%
D27*
%TO.C,RV1*%
X72400000Y-73435000D03*
D28*
X69900000Y-68435000D03*
X67400000Y-73435000D03*
%TD*%
D36*
%TO.C,Q1*%
X63400000Y-82905000D03*
D37*
X63400000Y-81635000D03*
X63400000Y-80365000D03*
%TD*%
D19*
%TO.C,R3*%
X67600000Y-90615000D03*
D18*
X67600000Y-80455000D03*
%TD*%
D19*
%TO.C,C1*%
X58900000Y-82885000D03*
X58900000Y-80385000D03*
%TD*%
D14*
%TO.C,R190*%
X97350000Y-74170000D03*
X97350000Y-64010000D03*
%TD*%
%TO.C,R191*%
X97400000Y-93080000D03*
X97400000Y-82920000D03*
%TD*%
%TO.C,R221*%
X93700000Y-74170000D03*
X93700000Y-64010000D03*
%TD*%
D23*
%TO.C,REF\u002A\u002A*%
X101550000Y-65200000D03*
D24*
X101550000Y-67740000D03*
X101550000Y-70280000D03*
X101550000Y-72820000D03*
%TD*%
D17*
%TO.C,C29*%
X102850000Y-82150000D03*
D14*
X102850000Y-79650000D03*
%TD*%
D17*
%TO.C,C23*%
X102850000Y-88667621D03*
D14*
X102850000Y-91167621D03*
%TD*%
D19*
%TO.C,C2*%
X67450000Y-77535000D03*
X69950000Y-77535000D03*
%TD*%
D14*
%TO.C,R222*%
X93750000Y-93080000D03*
X93750000Y-82920000D03*
%TD*%
D38*
%TO.C,Q180*%
X97400000Y-79720000D03*
D39*
X95330000Y-78450000D03*
X97400000Y-77180000D03*
%TD*%
D18*
%TO.C,R30*%
X145180000Y-139900371D03*
D19*
X135020000Y-139900371D03*
%TD*%
D18*
%TO.C,R11*%
X65075000Y-119250000D03*
D19*
X75235000Y-119250000D03*
%TD*%
D11*
%TO.C,D38*%
X147835000Y-131150371D03*
D10*
X150375000Y-131150371D03*
%TD*%
D32*
%TO.C,SW12*%
X125850000Y-101650371D03*
D33*
X132350000Y-101650371D03*
%TD*%
D24*
%TO.C,J20*%
X167975000Y-99975371D03*
X165435000Y-99975371D03*
X162895000Y-99975371D03*
X160355000Y-99975371D03*
X157815000Y-99975371D03*
X155275000Y-99975371D03*
X152735000Y-99975371D03*
D23*
X150195000Y-99975371D03*
%TD*%
D18*
%TO.C,R20*%
X115850000Y-126520000D03*
D19*
X115850000Y-136680000D03*
%TD*%
D32*
%TO.C,SW14*%
X132350000Y-118400371D03*
D33*
X125850000Y-118400371D03*
%TD*%
D32*
%TO.C,SW21*%
X132350000Y-148150371D03*
D33*
X125850000Y-148150371D03*
%TD*%
D11*
%TO.C,D32*%
X106100000Y-112890000D03*
D10*
X106100000Y-110350000D03*
%TD*%
D33*
%TO.C,SW65*%
X222040000Y-122835000D03*
D32*
X215540000Y-122835000D03*
%TD*%
D24*
%TO.C,REF\u002A\u002A*%
X101540000Y-100175000D03*
D23*
X99000000Y-100175000D03*
%TD*%
D18*
%TO.C,R8*%
X65075000Y-105350000D03*
D19*
X75235000Y-105350000D03*
%TD*%
D18*
%TO.C,R9*%
X65075000Y-109850000D03*
D19*
X75235000Y-109850000D03*
%TD*%
D11*
%TO.C,D39*%
X147835000Y-135650371D03*
D10*
X150375000Y-135650371D03*
%TD*%
%TO.C,D91*%
X195740000Y-144210000D03*
D11*
X195740000Y-141670000D03*
%TD*%
D13*
%TO.C,SW6*%
X102850000Y-126600000D03*
X109350000Y-126600000D03*
X102850000Y-131100000D03*
X109350000Y-131100000D03*
%TD*%
D11*
%TO.C,D29*%
X62600000Y-132650000D03*
D10*
X60060000Y-132650000D03*
%TD*%
D24*
%TO.C,REF\u002A\u002A*%
X97775000Y-136410000D03*
D23*
X97775000Y-138950000D03*
%TD*%
D18*
%TO.C,R24*%
X145180000Y-112650371D03*
D19*
X135020000Y-112650371D03*
%TD*%
D18*
%TO.C,R25*%
X145180000Y-118400371D03*
D19*
X135020000Y-118400371D03*
%TD*%
D18*
%TO.C,R6*%
X65170000Y-100900000D03*
D19*
X75330000Y-100900000D03*
%TD*%
D13*
%TO.C,SW7*%
X99350000Y-122600000D03*
X92850000Y-122600000D03*
X99350000Y-118100000D03*
X92850000Y-118100000D03*
%TD*%
D19*
%TO.C,R146*%
X206540000Y-104905000D03*
D18*
X206540000Y-115065000D03*
%TD*%
D10*
%TO.C,D94*%
X200990000Y-99995000D03*
D11*
X200990000Y-102535000D03*
%TD*%
D24*
%TO.C,SW9*%
X154545000Y-134150371D03*
X157085000Y-134150371D03*
D23*
X159625000Y-134150371D03*
%TD*%
D19*
%TO.C,R143*%
X193540000Y-104905000D03*
D18*
X193540000Y-115065000D03*
%TD*%
D19*
%TO.C,C35*%
X190340000Y-105485000D03*
X187840000Y-105485000D03*
%TD*%
D18*
%TO.C,R34*%
X174430000Y-138400371D03*
D19*
X164270000Y-138400371D03*
%TD*%
D33*
%TO.C,SW60*%
X222040000Y-118535000D03*
D32*
X215540000Y-118535000D03*
%TD*%
D24*
%TO.C,J20*%
X95765000Y-100100000D03*
X93225000Y-100100000D03*
X90685000Y-100100000D03*
X88145000Y-100100000D03*
X85605000Y-100100000D03*
X83065000Y-100100000D03*
X80525000Y-100100000D03*
D23*
X77985000Y-100100000D03*
%TD*%
D19*
%TO.C,R141*%
X199740000Y-104905000D03*
D18*
X199740000Y-115065000D03*
%TD*%
%TO.C,R10*%
X65075000Y-114650000D03*
D19*
X75235000Y-114650000D03*
%TD*%
%TO.C,R147*%
X186190000Y-129055000D03*
D18*
X186190000Y-139215000D03*
%TD*%
D11*
%TO.C,D42*%
X147850000Y-149150371D03*
D10*
X150390000Y-149150371D03*
%TD*%
D18*
%TO.C,R28*%
X145180000Y-131150371D03*
D19*
X135020000Y-131150371D03*
%TD*%
D24*
%TO.C,REF\u002A\u002A*%
X167345000Y-147775371D03*
X164805000Y-147775371D03*
X162265000Y-147775371D03*
D23*
X159725000Y-147775371D03*
%TD*%
D10*
%TO.C,D96*%
X191790000Y-99995000D03*
D11*
X191790000Y-102535000D03*
%TD*%
D19*
%TO.C,R140*%
X202840000Y-104905000D03*
D18*
X202840000Y-115065000D03*
%TD*%
D19*
%TO.C,R139*%
X193640000Y-139245000D03*
D18*
X193640000Y-129085000D03*
%TD*%
D19*
%TO.C,R138*%
X196740000Y-139245000D03*
D18*
X196740000Y-129085000D03*
%TD*%
D11*
%TO.C,D6*%
X147835000Y-106400371D03*
D10*
X150375000Y-106400371D03*
%TD*%
D33*
%TO.C,SW64*%
X221990000Y-132585000D03*
D32*
X215490000Y-132585000D03*
%TD*%
%TO.C,SW10*%
X132350000Y-112650371D03*
D33*
X125850000Y-112650371D03*
%TD*%
D32*
%TO.C,SW16*%
X132350000Y-126900371D03*
D33*
X125850000Y-126900371D03*
%TD*%
D19*
%TO.C,R149*%
X189440000Y-139215000D03*
D18*
X189440000Y-129055000D03*
%TD*%
%TO.C,R36*%
X135020000Y-102650371D03*
D19*
X145180000Y-102650371D03*
%TD*%
D18*
%TO.C,R12*%
X65060000Y-123650000D03*
D19*
X75220000Y-123650000D03*
%TD*%
D18*
%TO.C,R17*%
X115760000Y-101850000D03*
D19*
X105600000Y-101850000D03*
%TD*%
D11*
%TO.C,D40*%
X147850000Y-140150371D03*
D10*
X150390000Y-140150371D03*
%TD*%
D19*
%TO.C,R137*%
X199840000Y-139245000D03*
D18*
X199840000Y-129085000D03*
%TD*%
D10*
%TO.C,D93*%
X205590000Y-99995000D03*
D11*
X205590000Y-102535000D03*
%TD*%
%TO.C,D41*%
X147835000Y-144650371D03*
D10*
X150375000Y-144650371D03*
%TD*%
D11*
%TO.C,D43*%
X174350000Y-147650371D03*
D10*
X171810000Y-147650371D03*
%TD*%
D18*
%TO.C,R31*%
X145180000Y-143900371D03*
D19*
X135020000Y-143900371D03*
%TD*%
D18*
%TO.C,R33*%
X174430000Y-133650371D03*
D19*
X164270000Y-133650371D03*
%TD*%
D11*
%TO.C,D25*%
X62655000Y-114500000D03*
D10*
X60115000Y-114500000D03*
%TD*%
D24*
%TO.C,SW4*%
X102560000Y-136600000D03*
X105100000Y-136600000D03*
D23*
X107640000Y-136600000D03*
%TD*%
D18*
%TO.C,R37*%
X145180000Y-99400371D03*
D19*
X135020000Y-99400371D03*
%TD*%
D18*
%TO.C,R18*%
X115760000Y-105100000D03*
D19*
X105600000Y-105100000D03*
%TD*%
D40*
%TO.C,U20*%
X207390000Y-118385000D03*
D41*
X204850000Y-118385000D03*
X202310000Y-118385000D03*
X199770000Y-118385000D03*
X197230000Y-118385000D03*
X194690000Y-118385000D03*
X192150000Y-118385000D03*
X189610000Y-118385000D03*
X189610000Y-126005000D03*
X192150000Y-126005000D03*
X194690000Y-126005000D03*
X197230000Y-126005000D03*
X199770000Y-126005000D03*
X202310000Y-126005000D03*
X204850000Y-126005000D03*
X207390000Y-126005000D03*
%TD*%
D33*
%TO.C,SW62*%
X221990000Y-109785000D03*
D32*
X215490000Y-109785000D03*
%TD*%
D10*
%TO.C,D90*%
X200340000Y-144210000D03*
D11*
X200340000Y-141670000D03*
%TD*%
D13*
%TO.C,SW5*%
X92850000Y-126600000D03*
X99350000Y-126600000D03*
X92850000Y-131100000D03*
X99350000Y-131100000D03*
%TD*%
D19*
%TO.C,R144*%
X209740000Y-115015000D03*
D18*
X209740000Y-104855000D03*
%TD*%
%TO.C,R19*%
X112600000Y-126520000D03*
D19*
X112600000Y-136680000D03*
%TD*%
D18*
%TO.C,R16*%
X65005000Y-138350000D03*
D19*
X75165000Y-138350000D03*
%TD*%
D24*
%TO.C,REF\u002A\u002A*%
X171910000Y-102575371D03*
D23*
X174450000Y-102575371D03*
%TD*%
D11*
%TO.C,D36*%
X147835000Y-122150371D03*
D10*
X150375000Y-122150371D03*
%TD*%
D11*
%TO.C,D23*%
X62655000Y-105350000D03*
D10*
X60115000Y-105350000D03*
%TD*%
D32*
%TO.C,SW20*%
X132350000Y-143900371D03*
D33*
X125850000Y-143900371D03*
%TD*%
D24*
%TO.C,REF\u002A\u002A*%
X171910000Y-105075371D03*
D23*
X174450000Y-105075371D03*
%TD*%
D11*
%TO.C,D27*%
X62640000Y-123600000D03*
D10*
X60100000Y-123600000D03*
%TD*%
D19*
%TO.C,R136*%
X202940000Y-139245000D03*
D18*
X202940000Y-129085000D03*
%TD*%
D10*
%TO.C,D99*%
X210940000Y-99995000D03*
D11*
X210940000Y-102535000D03*
%TD*%
%TO.C,D37*%
X147850000Y-126650371D03*
D10*
X150390000Y-126650371D03*
%TD*%
D33*
%TO.C,SW67*%
X222040000Y-127085000D03*
D32*
X215540000Y-127085000D03*
%TD*%
D19*
%TO.C,R142*%
X196640000Y-104925000D03*
D18*
X196640000Y-115085000D03*
%TD*%
D13*
%TO.C,SW8*%
X109350000Y-122600000D03*
X102850000Y-122600000D03*
X109350000Y-118100000D03*
X102850000Y-118100000D03*
%TD*%
D23*
%TO.C,REF\u002A\u002A*%
X182350000Y-127400000D03*
D24*
X182350000Y-129940000D03*
X182350000Y-132480000D03*
X182350000Y-135020000D03*
X182350000Y-137560000D03*
%TD*%
D18*
%TO.C,R35*%
X145180000Y-109400371D03*
D19*
X135020000Y-109400371D03*
%TD*%
D23*
%TO.C,REF\u002A\u002A*%
X221900000Y-137285000D03*
D24*
X221900000Y-139825000D03*
%TD*%
D14*
%TO.C,REF\u002A\u002A*%
X115175000Y-108675000D03*
X112675000Y-108675000D03*
%TD*%
D23*
%TO.C,REF\u002A\u002A*%
X182350000Y-142205000D03*
D24*
X182350000Y-144745000D03*
%TD*%
D18*
%TO.C,R27*%
X145180000Y-126900371D03*
D19*
X135020000Y-126900371D03*
%TD*%
D30*
%TO.C,U7*%
X157030000Y-130050371D03*
X157030000Y-127510371D03*
X157030000Y-124970371D03*
X157030000Y-122430371D03*
X157030000Y-119890371D03*
X157030000Y-117350371D03*
X157030000Y-114810371D03*
X157030000Y-112270371D03*
X164650000Y-112270371D03*
X164650000Y-114810371D03*
X164650000Y-117350371D03*
X164650000Y-119890371D03*
X164650000Y-122430371D03*
X164650000Y-124970371D03*
X164650000Y-127510371D03*
D31*
X164650000Y-130050371D03*
%TD*%
D10*
%TO.C,D89*%
X204940000Y-144210000D03*
D11*
X204940000Y-141670000D03*
%TD*%
D23*
%TO.C,J20*%
X182330000Y-99615000D03*
D24*
X182330000Y-102155000D03*
X182330000Y-104695000D03*
X182330000Y-107235000D03*
X182330000Y-109775000D03*
X182330000Y-112315000D03*
X182330000Y-114855000D03*
X182330000Y-117395000D03*
%TD*%
M02*
