M48
; DRILL file {KiCad 8.0.3} date 2024-10-06T13:22:00+0300
; FORMAT={-:-/ absolute / metric / decimal}
; #@! TF.CreationDate,2024-10-06T13:22:00+03:00
; #@! TF.GenerationSoftware,Kicad,Pcbnew,8.0.3
; #@! TF.FileFunction,Plated,1,2,PTH
FMAT,2
METRIC
; #@! TA.AperFunction,Plated,PTH,ViaDrill
T1C0.300
; #@! TA.AperFunction,Plated,PTH,ViaDrill
T2C0.400
; #@! TA.AperFunction,Plated,PTH,ComponentDrill
T3C0.750
; #@! TA.AperFunction,Plated,PTH,ComponentDrill
T4C0.800
; #@! TA.AperFunction,Plated,PTH,ComponentDrill
T5C0.900
; #@! TA.AperFunction,Plated,PTH,ComponentDrill
T6C1.000
; #@! TA.AperFunction,Plated,PTH,ComponentDrill
T7C1.100
; #@! TA.AperFunction,Plated,PTH,ComponentDrill
T8C1.300
%
G90
G05
T1
X195.7Y-91.647
X196.04Y-75.447
X196.8Y-91.647
X197.8Y-82.547
X197.9Y-91.647
X199.0Y-91.647
X199.003Y-83.345
X199.1Y-92.947
X199.853Y-84.195
X200.3Y-69.947
X201.0Y-82.847
X201.6Y-73.847
X203.3Y-91.847
X205.0Y-73.947
X205.2Y-77.647
X206.2Y-75.447
X207.546Y-69.595
X207.636Y-85.94
X209.5Y-69.547
X209.7Y-66.047
X210.0Y-89.447
X210.99Y-78.632
X211.1Y-84.147
X211.8Y-64.247
X211.9Y-81.047
X211.9Y-82.247
X212.0Y-85.447
X212.0Y-86.547
X213.9Y-88.947
X214.6Y-68.947
X214.8Y-82.647
X215.036Y-75.67
X215.4Y-74.72
X215.6Y-91.547
X216.436Y-82.74
X216.536Y-77.54
X218.136Y-81.74
X218.2Y-85.547
X219.1Y-84.547
X219.3Y-67.947
X219.5Y-72.047
X220.1Y-86.847
X220.4Y-91.847
T2
X160.775Y-106.975
X166.85Y-130.65
X168.6Y-131.65
X170.35Y-132.475
X172.1Y-133.225
T3
X63.4Y-80.365
X63.4Y-81.635
X63.4Y-82.905
X95.73Y-78.45
X97.0Y-77.18
X97.0Y-79.72
T4
X58.9Y-80.385
X58.9Y-82.885
X60.87Y-67.355
X60.87Y-77.515
X64.11Y-67.355
X64.11Y-77.515
X65.005Y-138.35
X65.06Y-123.65
X65.06Y-128.1
X65.075Y-105.35
X65.075Y-109.85
X65.075Y-114.65
X65.075Y-119.25
X65.17Y-100.9
X65.27Y-132.6
X67.45Y-77.535
X67.6Y-80.455
X67.6Y-90.615
X69.95Y-77.535
X75.165Y-138.35
X75.22Y-123.65
X75.22Y-128.1
X75.235Y-105.35
X75.235Y-109.85
X75.235Y-114.65
X75.235Y-119.25
X75.33Y-100.9
X75.43Y-132.6
X78.1Y-80.555
X78.1Y-90.715
X80.6Y-110.975
X80.6Y-113.515
X80.6Y-116.055
X80.6Y-118.595
X80.6Y-121.135
X80.6Y-123.675
X80.6Y-126.215
X80.6Y-128.755
X88.22Y-110.975
X88.22Y-113.515
X88.22Y-116.055
X88.22Y-118.595
X88.22Y-121.135
X88.22Y-123.675
X88.22Y-126.215
X88.22Y-128.755
X102.85Y-82.15
X102.85Y-88.668
X105.6Y-98.6
X105.6Y-101.85
X105.6Y-105.1
X110.7Y-75.775
X110.7Y-85.935
X112.6Y-112.52
X112.6Y-122.68
X112.6Y-126.52
X112.6Y-136.68
X115.76Y-98.6
X115.76Y-101.85
X115.76Y-105.1
X115.85Y-112.52
X115.85Y-122.68
X115.85Y-126.52
X115.85Y-136.68
X117.15Y-75.975
X117.15Y-78.515
X117.15Y-81.055
X117.15Y-83.595
X124.77Y-75.975
X124.77Y-78.515
X124.77Y-81.055
X124.77Y-83.595
X127.95Y-74.865
X127.95Y-85.025
X131.45Y-74.945
X131.45Y-85.105
X135.02Y-99.4
X135.02Y-102.65
X135.02Y-106.15
X135.02Y-109.4
X135.02Y-112.65
X135.02Y-118.4
X135.02Y-126.9
X135.02Y-131.15
X135.02Y-139.9
X135.02Y-143.9
X135.02Y-148.15
X135.1Y-122.65
X135.1Y-135.4
X144.71Y-83.1
X144.71Y-90.72
X145.18Y-99.4
X145.18Y-102.65
X145.18Y-106.15
X145.18Y-109.4
X145.18Y-112.65
X145.18Y-118.4
X145.18Y-126.9
X145.18Y-131.15
X145.18Y-139.9
X145.18Y-143.9
X145.18Y-148.15
X145.26Y-122.65
X145.26Y-135.4
X147.25Y-83.1
X147.25Y-90.72
X149.79Y-83.1
X149.79Y-90.72
X152.33Y-83.1
X152.33Y-90.72
X157.03Y-112.27
X157.03Y-114.81
X157.03Y-117.35
X157.03Y-119.89
X157.03Y-122.43
X157.03Y-124.97
X157.03Y-127.51
X157.03Y-130.05
X157.05Y-75.94
X157.05Y-79.19
X157.05Y-82.44
X157.05Y-85.69
X164.27Y-133.65
X164.27Y-138.4
X164.65Y-112.27
X164.65Y-114.81
X164.65Y-117.35
X164.65Y-119.89
X164.65Y-122.43
X164.65Y-124.97
X164.65Y-127.51
X164.65Y-130.05
X167.21Y-75.94
X167.21Y-79.19
X167.21Y-82.44
X167.21Y-85.69
X174.43Y-133.65
X174.43Y-138.4
X179.304Y-82.738
X179.754Y-71.668
X179.754Y-79.288
X182.294Y-71.668
X182.294Y-79.288
X184.834Y-71.668
X184.834Y-79.288
X186.19Y-129.055
X186.19Y-139.215
X187.374Y-71.668
X187.374Y-79.288
X187.84Y-105.485
X189.44Y-129.055
X189.44Y-139.215
X189.464Y-82.738
X189.61Y-118.385
X189.61Y-126.005
X190.34Y-105.485
X192.15Y-118.385
X192.15Y-126.005
X193.54Y-104.905
X193.54Y-115.065
X193.64Y-129.085
X193.64Y-139.245
X194.69Y-118.385
X194.69Y-126.005
X196.64Y-104.925
X196.64Y-115.085
X196.74Y-129.085
X196.74Y-139.245
X197.23Y-118.385
X197.23Y-126.005
X199.74Y-104.905
X199.74Y-115.065
X199.77Y-118.385
X199.77Y-126.005
X199.84Y-129.085
X199.84Y-139.245
X202.31Y-118.385
X202.31Y-126.005
X202.84Y-104.905
X202.84Y-115.065
X202.94Y-129.085
X202.94Y-139.245
X204.85Y-118.385
X204.85Y-126.005
X206.54Y-104.905
X206.54Y-115.065
X207.39Y-118.385
X207.39Y-126.005
X209.74Y-104.855
X209.74Y-115.015
X210.44Y-129.055
X210.44Y-139.215
T5
X60.06Y-132.65
X60.06Y-138.35
X60.1Y-123.6
X60.1Y-128.1
X60.115Y-105.35
X60.115Y-109.9
X60.115Y-114.5
X60.115Y-119.15
X60.13Y-100.85
X62.6Y-132.65
X62.6Y-138.35
X62.64Y-123.6
X62.64Y-128.1
X62.655Y-105.35
X62.655Y-109.9
X62.655Y-114.5
X62.655Y-119.15
X62.67Y-100.85
X78.1Y-74.495
X78.1Y-77.035
X94.1Y-110.365
X94.1Y-112.905
X100.1Y-110.365
X100.1Y-112.905
X106.1Y-110.35
X106.1Y-112.89
X111.2Y-91.025
X113.74Y-91.025
X147.81Y-117.65
X147.835Y-106.4
X147.835Y-111.4
X147.835Y-122.15
X147.835Y-131.15
X147.835Y-135.65
X147.835Y-144.65
X147.85Y-126.65
X147.85Y-140.15
X147.85Y-149.15
X150.35Y-117.65
X150.375Y-106.4
X150.375Y-111.4
X150.375Y-122.15
X150.375Y-131.15
X150.375Y-135.65
X150.375Y-144.65
X150.39Y-126.65
X150.39Y-140.15
X150.39Y-149.15
X158.05Y-89.925
X158.05Y-92.465
X165.05Y-89.95
X165.05Y-92.49
X171.77Y-142.9
X171.81Y-147.65
X174.31Y-142.9
X174.35Y-147.65
X184.804Y-87.988
X185.99Y-141.645
X185.99Y-144.185
X187.344Y-87.988
X191.14Y-141.685
X191.14Y-144.225
X191.79Y-99.995
X191.79Y-102.535
X195.74Y-141.67
X195.74Y-144.21
X196.39Y-99.995
X196.39Y-102.535
X200.34Y-141.67
X200.34Y-144.21
X200.99Y-99.995
X200.99Y-102.535
X204.94Y-141.67
X204.94Y-144.21
X205.59Y-99.995
X205.59Y-102.535
X210.44Y-141.67
X210.44Y-144.21
X210.94Y-99.995
X210.94Y-102.535
T6
X59.7Y-92.235
X62.24Y-92.235
X67.4Y-73.435
X69.9Y-68.435
X72.4Y-73.435
X77.985Y-100.1
X77.985Y-136.6
X80.525Y-100.1
X80.525Y-136.6
X81.66Y-92.235
X83.065Y-100.1
X83.065Y-136.6
X84.2Y-92.235
X85.5Y-73.17
X85.5Y-75.71
X85.5Y-81.01
X85.5Y-83.55
X85.5Y-86.09
X85.605Y-100.1
X85.605Y-136.6
X88.145Y-100.1
X88.145Y-136.6
X90.685Y-100.1
X92.775Y-136.41
X92.775Y-138.95
X93.225Y-100.1
X93.7Y-64.01
X93.7Y-74.17
X93.75Y-82.92
X93.75Y-93.08
X95.275Y-136.41
X95.275Y-138.95
X95.765Y-100.1
X97.35Y-64.01
X97.35Y-74.17
X97.4Y-82.92
X97.4Y-93.08
X97.775Y-136.41
X97.775Y-138.95
X99.0Y-100.175
X101.54Y-100.175
X101.55Y-65.2
X101.55Y-67.74
X101.55Y-70.28
X101.55Y-72.82
X102.56Y-136.6
X102.85Y-79.65
X102.85Y-91.168
X105.1Y-136.6
X107.64Y-136.6
X112.675Y-108.675
X114.2Y-76.025
X114.2Y-78.525
X115.175Y-108.675
X117.45Y-72.525
X119.69Y-88.85
X119.95Y-72.525
X123.71Y-71.7
X124.69Y-86.35
X124.69Y-91.35
X126.25Y-71.7
X138.88Y-83.2
X141.38Y-83.2
X150.195Y-99.975
X152.735Y-99.975
X154.545Y-134.15
X154.575Y-106.575
X154.575Y-109.075
X155.275Y-99.975
X157.085Y-134.15
X157.815Y-99.975
X159.625Y-134.15
X159.725Y-147.775
X160.355Y-99.975
X162.265Y-147.775
X162.895Y-99.975
X163.79Y-72.0
X164.805Y-147.775
X165.435Y-99.975
X166.33Y-72.0
X167.345Y-147.775
X167.975Y-99.975
X171.864Y-71.986
X171.91Y-100.075
X171.91Y-102.575
X171.91Y-105.075
X173.054Y-79.936
X173.054Y-82.436
X174.364Y-76.986
X174.45Y-100.075
X174.45Y-102.575
X174.45Y-105.075
X176.304Y-79.936
X176.304Y-82.436
X176.864Y-71.986
X182.33Y-99.615
X182.33Y-102.155
X182.33Y-104.695
X182.33Y-107.235
X182.33Y-109.775
X182.33Y-112.315
X182.33Y-114.855
X182.33Y-117.395
X182.35Y-127.4
X182.35Y-129.94
X182.35Y-132.48
X182.35Y-135.02
X182.35Y-137.56
X182.35Y-142.205
X182.35Y-144.745
X184.739Y-93.186
X185.94Y-119.68
X185.94Y-122.22
X185.94Y-124.76
X187.279Y-93.186
X221.9Y-137.285
X221.9Y-139.825
T7
X71.1Y-80.655
X71.1Y-90.815
X74.53Y-80.665
X74.53Y-90.825
X92.85Y-118.1
X92.85Y-122.6
X92.85Y-126.6
X92.85Y-131.1
X99.35Y-118.1
X99.35Y-122.6
X99.35Y-126.6
X99.35Y-131.1
X102.85Y-118.1
X102.85Y-122.6
X102.85Y-126.6
X102.85Y-131.1
X109.35Y-118.1
X109.35Y-122.6
X109.35Y-126.6
X109.35Y-131.1
X138.8Y-73.19
X138.8Y-79.69
X143.3Y-73.19
X143.3Y-79.69
X148.55Y-73.19
X148.55Y-79.69
X153.05Y-73.19
X153.05Y-79.69
X176.314Y-86.486
X176.314Y-92.986
X180.814Y-86.486
X180.814Y-92.986
T8
X125.85Y-101.65
X125.85Y-107.15
X125.85Y-112.65
X125.85Y-118.4
X125.85Y-122.65
X125.85Y-126.9
X125.85Y-131.15
X125.85Y-135.4
X125.85Y-139.65
X125.85Y-143.9
X125.85Y-148.15
X132.35Y-101.65
X132.35Y-107.15
X132.35Y-112.65
X132.35Y-118.4
X132.35Y-122.65
X132.35Y-126.9
X132.35Y-131.15
X132.35Y-135.4
X132.35Y-139.65
X132.35Y-143.9
X132.35Y-148.15
X215.49Y-100.885
X215.49Y-105.385
X215.49Y-109.785
X215.49Y-114.135
X215.49Y-132.585
X215.54Y-118.535
X215.54Y-122.835
X215.54Y-127.085
X221.99Y-100.885
X221.99Y-105.385
X221.99Y-109.785
X221.99Y-114.135
X221.99Y-132.585
X222.04Y-118.535
X222.04Y-122.835
X222.04Y-127.085
M30
