%TF.GenerationSoftware,KiCad,Pcbnew,8.0.3*%
%TF.CreationDate,2024-10-06T13:21:57+03:00*%
%TF.ProjectId,JLC9,4a4c4339-2e6b-4696-9361-645f70636258,rev?*%
%TF.SameCoordinates,Original*%
%TF.FileFunction,Paste,Top*%
%TF.FilePolarity,Positive*%
%FSLAX46Y46*%
G04 Gerber Fmt 4.6, Leading zero omitted, Abs format (unit mm)*
G04 Created by KiCad (PCBNEW 8.0.3) date 2024-10-06 13:21:57*
%MOMM*%
%LPD*%
G01*
G04 APERTURE LIST*
G04 Aperture macros list*
%AMRoundRect*
0 Rectangle with rounded corners*
0 $1 Rounding radius*
0 $2 $3 $4 $5 $6 $7 $8 $9 X,Y pos of 4 corners*
0 Add a 4 corners polygon primitive as box body*
4,1,4,$2,$3,$4,$5,$6,$7,$8,$9,$2,$3,0*
0 Add four circle primitives for the rounded corners*
1,1,$1+$1,$2,$3*
1,1,$1+$1,$4,$5*
1,1,$1+$1,$6,$7*
1,1,$1+$1,$8,$9*
0 Add four rect primitives between the rounded corners*
20,1,$1+$1,$2,$3,$4,$5,0*
20,1,$1+$1,$4,$5,$6,$7,0*
20,1,$1+$1,$6,$7,$8,$9,0*
20,1,$1+$1,$8,$9,$2,$3,0*%
G04 Aperture macros list end*
%ADD10RoundRect,0.237500X0.237500X-0.287500X0.237500X0.287500X-0.237500X0.287500X-0.237500X-0.287500X0*%
%ADD11RoundRect,0.150000X-0.150000X0.587500X-0.150000X-0.587500X0.150000X-0.587500X0.150000X0.587500X0*%
%ADD12RoundRect,0.237500X-0.250000X-0.237500X0.250000X-0.237500X0.250000X0.237500X-0.250000X0.237500X0*%
%ADD13RoundRect,0.150000X0.587500X0.150000X-0.587500X0.150000X-0.587500X-0.150000X0.587500X-0.150000X0*%
%ADD14RoundRect,0.150000X-0.587500X-0.150000X0.587500X-0.150000X0.587500X0.150000X-0.587500X0.150000X0*%
%ADD15RoundRect,0.237500X0.237500X-0.250000X0.237500X0.250000X-0.237500X0.250000X-0.237500X-0.250000X0*%
%ADD16RoundRect,0.237500X-0.237500X0.250000X-0.237500X-0.250000X0.237500X-0.250000X0.237500X0.250000X0*%
%ADD17RoundRect,0.237500X0.250000X0.237500X-0.250000X0.237500X-0.250000X-0.237500X0.250000X-0.237500X0*%
G04 APERTURE END LIST*
D10*
%TO.C,D2*%
X224215094Y-74794852D03*
X224215094Y-76544852D03*
%TD*%
D11*
%TO.C,Q6*%
X219146344Y-85757352D03*
X218196344Y-83882352D03*
X220096344Y-83882352D03*
%TD*%
D12*
%TO.C,R11*%
X210340094Y-77344852D03*
X208515094Y-77344852D03*
%TD*%
D10*
%TO.C,D1*%
X215490094Y-80007352D03*
X215490094Y-81757352D03*
%TD*%
D11*
%TO.C,Q24*%
X201515094Y-68032352D03*
X200565094Y-66157352D03*
X202465094Y-66157352D03*
%TD*%
D13*
%TO.C,Q23*%
X204352594Y-70907352D03*
X206227594Y-69957352D03*
X206227594Y-71857352D03*
%TD*%
D11*
%TO.C,Q14*%
X205102594Y-75782352D03*
X204152594Y-73907352D03*
X206052594Y-73907352D03*
%TD*%
D14*
%TO.C,Q18*%
X198277594Y-88219852D03*
X196402594Y-89169852D03*
X196402594Y-87269852D03*
%TD*%
D15*
%TO.C,R4*%
X217270094Y-79907352D03*
X217270094Y-81732352D03*
%TD*%
D11*
%TO.C,Q5*%
X219146344Y-89882352D03*
X218196344Y-88007352D03*
X220096344Y-88007352D03*
%TD*%
%TO.C,Q4*%
X211040094Y-85607352D03*
X210090094Y-83732352D03*
X211990094Y-83732352D03*
%TD*%
D13*
%TO.C,Q16*%
X200340094Y-78594852D03*
X202215094Y-77644852D03*
X202215094Y-79544852D03*
%TD*%
D14*
%TO.C,Q8*%
X220427594Y-75719852D03*
X218552594Y-76669852D03*
X218552594Y-74769852D03*
%TD*%
D11*
%TO.C,Q3*%
X214815094Y-85632352D03*
X213865094Y-83757352D03*
X215765094Y-83757352D03*
%TD*%
D16*
%TO.C,R3*%
X216621344Y-69782352D03*
X216621344Y-67957352D03*
%TD*%
%TO.C,R2*%
X212052594Y-76582352D03*
X212052594Y-74757352D03*
%TD*%
D15*
%TO.C,R15*%
X197790094Y-72682352D03*
X197790094Y-74507352D03*
%TD*%
D13*
%TO.C,Q13*%
X204402594Y-78594852D03*
X206277594Y-77644852D03*
X206277594Y-79544852D03*
%TD*%
D11*
%TO.C,Q7*%
X210990094Y-81319852D03*
X210040094Y-79444852D03*
X211940094Y-79444852D03*
%TD*%
D15*
%TO.C,R6*%
X222552594Y-74757352D03*
X222552594Y-76582352D03*
%TD*%
D13*
%TO.C,Q11*%
X218683844Y-68869852D03*
X220558844Y-67919852D03*
X220558844Y-69819852D03*
%TD*%
%TO.C,Q20*%
X200352594Y-70907352D03*
X202227594Y-69957352D03*
X202227594Y-71857352D03*
%TD*%
D12*
%TO.C,R14*%
X210340094Y-72344852D03*
X208515094Y-72344852D03*
%TD*%
%TO.C,R8*%
X210340094Y-74844852D03*
X208515094Y-74844852D03*
%TD*%
D11*
%TO.C,Q15*%
X204840094Y-84719852D03*
X203890094Y-82844852D03*
X205790094Y-82844852D03*
%TD*%
D15*
%TO.C,R9*%
X207590094Y-82869852D03*
X207590094Y-84694852D03*
%TD*%
D14*
%TO.C,Q1*%
X215990094Y-75669852D03*
X214115094Y-76619852D03*
X214115094Y-74719852D03*
%TD*%
D17*
%TO.C,R12*%
X208427594Y-69594852D03*
X210252594Y-69594852D03*
%TD*%
D16*
%TO.C,R13*%
X207590094Y-88944852D03*
X207590094Y-87119852D03*
%TD*%
D11*
%TO.C,Q21*%
X205090094Y-68032352D03*
X204140094Y-66157352D03*
X206040094Y-66157352D03*
%TD*%
D12*
%TO.C,R5*%
X216533844Y-71619852D03*
X214708844Y-71619852D03*
%TD*%
D11*
%TO.C,Q9*%
X214865094Y-89872352D03*
X213915094Y-87997352D03*
X215815094Y-87997352D03*
%TD*%
D15*
%TO.C,R16*%
X197790094Y-77107352D03*
X197790094Y-78932352D03*
%TD*%
D11*
%TO.C,Q19*%
X204840094Y-88969852D03*
X203890094Y-87094852D03*
X205790094Y-87094852D03*
%TD*%
%TO.C,Q22*%
X201090094Y-88969852D03*
X200140094Y-87094852D03*
X202040094Y-87094852D03*
%TD*%
D15*
%TO.C,R17*%
X197790094Y-81519852D03*
X197790094Y-83344852D03*
%TD*%
D13*
%TO.C,Q2*%
X212746344Y-68919852D03*
X214621344Y-67969852D03*
X214621344Y-69869852D03*
%TD*%
D11*
%TO.C,Q10*%
X211040094Y-89757352D03*
X210090094Y-87882352D03*
X211990094Y-87882352D03*
%TD*%
D12*
%TO.C,R10*%
X197552594Y-85582352D03*
X195727594Y-85582352D03*
%TD*%
D16*
%TO.C,R1*%
X213740094Y-81794852D03*
X213740094Y-79969852D03*
%TD*%
D11*
%TO.C,Q17*%
X201352594Y-75719852D03*
X200402594Y-73844852D03*
X202302594Y-73844852D03*
%TD*%
D17*
%TO.C,R7*%
X218458844Y-71619852D03*
X220283844Y-71619852D03*
%TD*%
D11*
%TO.C,Q12*%
X201090094Y-84719852D03*
X200140094Y-82844852D03*
X202040094Y-82844852D03*
%TD*%
M02*
