%TF.GenerationSoftware,KiCad,Pcbnew,8.0.3*%
%TF.CreationDate,2024-10-06T13:21:57+03:00*%
%TF.ProjectId,JLC9,4a4c4339-2e6b-4696-9361-645f70636258,rev?*%
%TF.SameCoordinates,Original*%
%TF.FileFunction,Copper,L1,Top*%
%TF.FilePolarity,Positive*%
%FSLAX46Y46*%
G04 Gerber Fmt 4.6, Leading zero omitted, Abs format (unit mm)*
G04 Created by KiCad (PCBNEW 8.0.3) date 2024-10-06 13:21:57*
%MOMM*%
%LPD*%
G01*
G04 APERTURE LIST*
G04 Aperture macros list*
%AMRoundRect*
0 Rectangle with rounded corners*
0 $1 Rounding radius*
0 $2 $3 $4 $5 $6 $7 $8 $9 X,Y pos of 4 corners*
0 Add a 4 corners polygon primitive as box body*
4,1,4,$2,$3,$4,$5,$6,$7,$8,$9,$2,$3,0*
0 Add four circle primitives for the rounded corners*
1,1,$1+$1,$2,$3*
1,1,$1+$1,$4,$5*
1,1,$1+$1,$6,$7*
1,1,$1+$1,$8,$9*
0 Add four rect primitives between the rounded corners*
20,1,$1+$1,$2,$3,$4,$5,0*
20,1,$1+$1,$4,$5,$6,$7,0*
20,1,$1+$1,$6,$7,$8,$9,0*
20,1,$1+$1,$8,$9,$2,$3,0*%
G04 Aperture macros list end*
%TA.AperFunction,ComponentPad*%
%ADD10R,1.800000X1.800000*%
%TD*%
%TA.AperFunction,ComponentPad*%
%ADD11C,1.800000*%
%TD*%
%TA.AperFunction,SMDPad,CuDef*%
%ADD12RoundRect,0.237500X0.237500X-0.287500X0.237500X0.287500X-0.237500X0.287500X-0.237500X-0.287500X0*%
%TD*%
%TA.AperFunction,ComponentPad*%
%ADD13C,2.000000*%
%TD*%
%TA.AperFunction,ComponentPad*%
%ADD14O,2.000000X2.000000*%
%TD*%
%TA.AperFunction,SMDPad,CuDef*%
%ADD15RoundRect,0.150000X-0.150000X0.587500X-0.150000X-0.587500X0.150000X-0.587500X0.150000X0.587500X0*%
%TD*%
%TA.AperFunction,SMDPad,CuDef*%
%ADD16RoundRect,0.237500X-0.250000X-0.237500X0.250000X-0.237500X0.250000X0.237500X-0.250000X0.237500X0*%
%TD*%
%TA.AperFunction,ComponentPad*%
%ADD17R,1.600000X1.600000*%
%TD*%
%TA.AperFunction,ComponentPad*%
%ADD18O,1.600000X1.600000*%
%TD*%
%TA.AperFunction,ComponentPad*%
%ADD19C,1.600000*%
%TD*%
%TA.AperFunction,SMDPad,CuDef*%
%ADD20R,4.000000X4.000000*%
%TD*%
%TA.AperFunction,SMDPad,CuDef*%
%ADD21RoundRect,0.150000X0.587500X0.150000X-0.587500X0.150000X-0.587500X-0.150000X0.587500X-0.150000X0*%
%TD*%
%TA.AperFunction,SMDPad,CuDef*%
%ADD22RoundRect,0.150000X-0.587500X-0.150000X0.587500X-0.150000X0.587500X0.150000X-0.587500X0.150000X0*%
%TD*%
%TA.AperFunction,ComponentPad*%
%ADD23R,1.700000X1.700000*%
%TD*%
%TA.AperFunction,ComponentPad*%
%ADD24O,1.700000X1.700000*%
%TD*%
%TA.AperFunction,SMDPad,CuDef*%
%ADD25RoundRect,0.237500X0.237500X-0.250000X0.237500X0.250000X-0.237500X0.250000X-0.237500X-0.250000X0*%
%TD*%
%TA.AperFunction,SMDPad,CuDef*%
%ADD26RoundRect,0.237500X-0.237500X0.250000X-0.237500X-0.250000X0.237500X-0.250000X0.237500X0.250000X0*%
%TD*%
%TA.AperFunction,ComponentPad*%
%ADD27R,1.560000X1.560000*%
%TD*%
%TA.AperFunction,ComponentPad*%
%ADD28C,1.560000*%
%TD*%
%TA.AperFunction,SMDPad,CuDef*%
%ADD29RoundRect,0.237500X0.250000X0.237500X-0.250000X0.237500X-0.250000X-0.237500X0.250000X-0.237500X0*%
%TD*%
%TA.AperFunction,ComponentPad*%
%ADD30O,2.400000X1.600000*%
%TD*%
%TA.AperFunction,ComponentPad*%
%ADD31R,2.400000X1.600000*%
%TD*%
%TA.AperFunction,ComponentPad*%
%ADD32C,2.250000*%
%TD*%
%TA.AperFunction,ComponentPad*%
%ADD33R,2.250000X2.250000*%
%TD*%
%TA.AperFunction,ComponentPad*%
%ADD34R,2.200000X2.200000*%
%TD*%
%TA.AperFunction,ComponentPad*%
%ADD35O,2.200000X2.200000*%
%TD*%
%TA.AperFunction,ComponentPad*%
%ADD36R,1.500000X1.050000*%
%TD*%
%TA.AperFunction,ComponentPad*%
%ADD37O,1.500000X1.050000*%
%TD*%
%TA.AperFunction,ComponentPad*%
%ADD38R,1.800000X1.100000*%
%TD*%
%TA.AperFunction,ComponentPad*%
%ADD39RoundRect,0.275000X0.625000X-0.275000X0.625000X0.275000X-0.625000X0.275000X-0.625000X-0.275000X0*%
%TD*%
%TA.AperFunction,ComponentPad*%
%ADD40R,1.600000X2.400000*%
%TD*%
%TA.AperFunction,ComponentPad*%
%ADD41O,1.600000X2.400000*%
%TD*%
%TA.AperFunction,ViaPad*%
%ADD42C,0.600000*%
%TD*%
%TA.AperFunction,ViaPad*%
%ADD43C,0.800000*%
%TD*%
%TA.AperFunction,Conductor*%
%ADD44C,0.400000*%
%TD*%
%TA.AperFunction,Conductor*%
%ADD45C,0.500000*%
%TD*%
%TA.AperFunction,Conductor*%
%ADD46C,1.000000*%
%TD*%
%TA.AperFunction,Conductor*%
%ADD47C,0.600000*%
%TD*%
G04 APERTURE END LIST*
D10*
%TO.P,D5,1,K*%
%TO.N,N/C*%
X187344218Y-87988282D03*
D11*
%TO.P,D5,2,A*%
X184804218Y-87988282D03*
%TD*%
D12*
%TO.P,D2,2,A*%
%TO.N,N/C*%
X224215094Y-74794852D03*
%TO.P,D2,1,K*%
X224215094Y-76544852D03*
%TD*%
D13*
%TO.P,SW1,2,2*%
%TO.N,N/C*%
X138800000Y-79690000D03*
X138800000Y-73190000D03*
%TO.P,SW1,1,1*%
X143300000Y-79690000D03*
X143300000Y-73190000D03*
%TD*%
D14*
%TO.P,C33,1*%
%TO.N,N/C*%
X176304218Y-79935782D03*
%TO.P,C33,2*%
X176304218Y-82435782D03*
%TD*%
D15*
%TO.P,Q6,3,C*%
%TO.N,N/C*%
X219146344Y-85757352D03*
%TO.P,Q6,2,B*%
X218196344Y-83882352D03*
%TO.P,Q6,1,E*%
X220096344Y-83882352D03*
%TD*%
D16*
%TO.P,R11,2*%
%TO.N,N/C*%
X210340094Y-77344852D03*
%TO.P,R11,1*%
X208515094Y-77344852D03*
%TD*%
D12*
%TO.P,D1,2,A*%
%TO.N,N/C*%
X215490094Y-80007352D03*
%TO.P,D1,1,K*%
X215490094Y-81757352D03*
%TD*%
D17*
%TO.P,U2,1,GND*%
%TO.N,N/C*%
X179754218Y-79288282D03*
D18*
%TO.P,U2,2,TR*%
X182294218Y-79288282D03*
%TO.P,U2,3,Q*%
X184834218Y-79288282D03*
%TO.P,U2,4,R*%
X187374218Y-79288282D03*
%TO.P,U2,5,CV*%
X187374218Y-71668282D03*
%TO.P,U2,6,THR*%
X184834218Y-71668282D03*
%TO.P,U2,7,DIS*%
X182294218Y-71668282D03*
%TO.P,U2,8,VCC*%
X179754218Y-71668282D03*
%TD*%
D15*
%TO.P,Q24,3,C*%
%TO.N,N/C*%
X201515094Y-68032352D03*
%TO.P,Q24,2,B*%
X200565094Y-66157352D03*
%TO.P,Q24,1,E*%
X202465094Y-66157352D03*
%TD*%
D13*
%TO.P,SW3,1,1*%
%TO.N,N/C*%
X176314218Y-92985782D03*
X176314218Y-86485782D03*
%TO.P,SW3,2,2*%
X180814218Y-92985782D03*
X180814218Y-86485782D03*
%TD*%
D19*
%TO.P,R25,1*%
%TO.N,N/C*%
X131450000Y-85105000D03*
D18*
%TO.P,R25,2*%
X131450000Y-74945000D03*
%TD*%
D19*
%TO.P,R20,1*%
%TO.N,N/C*%
X110700000Y-85935000D03*
D18*
%TO.P,R20,2*%
X110700000Y-75775000D03*
%TD*%
D20*
%TO.P,PAD3,1*%
%TO.N,N/C*%
X213973426Y-94007352D03*
%TD*%
D21*
%TO.P,Q23,3,C*%
%TO.N,N/C*%
X204352594Y-70907352D03*
%TO.P,Q23,2,B*%
X206227594Y-69957352D03*
%TO.P,Q23,1,E*%
X206227594Y-71857352D03*
%TD*%
D20*
%TO.P,PAD4,1*%
%TO.N,N/C*%
X222440094Y-94007352D03*
%TD*%
D13*
%TO.P,SW2,2,2*%
%TO.N,N/C*%
X153050000Y-73190000D03*
X153050000Y-79690000D03*
%TO.P,SW2,1,1*%
X148550000Y-73190000D03*
X148550000Y-79690000D03*
%TD*%
D15*
%TO.P,Q14,3,C*%
%TO.N,N/C*%
X205102594Y-75782352D03*
%TO.P,Q14,2,B*%
X204152594Y-73907352D03*
%TO.P,Q14,1,E*%
X206052594Y-73907352D03*
%TD*%
D22*
%TO.P,Q18,3,C*%
%TO.N,N/C*%
X198277594Y-88219852D03*
%TO.P,Q18,2,B*%
X196402594Y-89169852D03*
%TO.P,Q18,1,E*%
X196402594Y-87269852D03*
%TD*%
D11*
%TO.P,D3,2,A*%
%TO.N,N/C*%
X165050000Y-89950000D03*
D10*
%TO.P,D3,1,K*%
X165050000Y-92490000D03*
%TD*%
D18*
%TO.P,R19,2*%
%TO.N,N/C*%
X167210000Y-75940000D03*
D19*
%TO.P,R19,1*%
X157050000Y-75940000D03*
%TD*%
%TO.P,R24,1*%
%TO.N,N/C*%
X127950000Y-74865000D03*
D18*
%TO.P,R24,2*%
X127950000Y-85025000D03*
%TD*%
D23*
%TO.P,REF\u002A\u002A,1*%
%TO.N,N/C*%
X187279218Y-93185782D03*
D24*
%TO.P,REF\u002A\u002A,2*%
X184739218Y-93185782D03*
%TD*%
D18*
%TO.P,R18,2*%
%TO.N,N/C*%
X167210000Y-85690000D03*
D19*
%TO.P,R18,1*%
X157050000Y-85690000D03*
%TD*%
D25*
%TO.P,R4,2*%
%TO.N,N/C*%
X217270094Y-79907352D03*
%TO.P,R4,1*%
X217270094Y-81732352D03*
%TD*%
D15*
%TO.P,Q5,3,C*%
%TO.N,N/C*%
X219146344Y-89882352D03*
%TO.P,Q5,2,B*%
X218196344Y-88007352D03*
%TO.P,Q5,1,E*%
X220096344Y-88007352D03*
%TD*%
%TO.P,Q4,3,C*%
%TO.N,N/C*%
X211040094Y-85607352D03*
%TO.P,Q4,2,B*%
X210090094Y-83732352D03*
%TO.P,Q4,1,E*%
X211990094Y-83732352D03*
%TD*%
D21*
%TO.P,Q16,3,C*%
%TO.N,N/C*%
X200340094Y-78594852D03*
%TO.P,Q16,2,B*%
X202215094Y-77644852D03*
%TO.P,Q16,1,E*%
X202215094Y-79544852D03*
%TD*%
D11*
%TO.P,D6,2,A*%
%TO.N,N/C*%
X158050000Y-89925000D03*
D10*
%TO.P,D6,1,K*%
X158050000Y-92465000D03*
%TD*%
D24*
%TO.P,REF\u002A\u002A,2*%
%TO.N,N/C*%
X163790000Y-72000000D03*
D23*
%TO.P,REF\u002A\u002A,1*%
X166330000Y-72000000D03*
%TD*%
D22*
%TO.P,Q8,3,C*%
%TO.N,N/C*%
X220427594Y-75719852D03*
%TO.P,Q8,2,B*%
X218552594Y-76669852D03*
%TO.P,Q8,1,E*%
X218552594Y-74769852D03*
%TD*%
D15*
%TO.P,Q3,3,C*%
%TO.N,N/C*%
X214815094Y-85632352D03*
%TO.P,Q3,2,B*%
X213865094Y-83757352D03*
%TO.P,Q3,1,E*%
X215765094Y-83757352D03*
%TD*%
D26*
%TO.P,R3,2*%
%TO.N,N/C*%
X216621344Y-69782352D03*
%TO.P,R3,1*%
X216621344Y-67957352D03*
%TD*%
%TO.P,R2,2*%
%TO.N,N/C*%
X212052594Y-76582352D03*
%TO.P,R2,1*%
X212052594Y-74757352D03*
%TD*%
D25*
%TO.P,R15,2*%
%TO.N,N/C*%
X197790094Y-72682352D03*
%TO.P,R15,1*%
X197790094Y-74507352D03*
%TD*%
D21*
%TO.P,Q13,3,C*%
%TO.N,N/C*%
X204402594Y-78594852D03*
%TO.P,Q13,2,B*%
X206277594Y-77644852D03*
%TO.P,Q13,1,E*%
X206277594Y-79544852D03*
%TD*%
D15*
%TO.P,Q7,3,C*%
%TO.N,N/C*%
X210990094Y-81319852D03*
%TO.P,Q7,2,B*%
X210040094Y-79444852D03*
%TO.P,Q7,1,E*%
X211940094Y-79444852D03*
%TD*%
D25*
%TO.P,R6,2*%
%TO.N,N/C*%
X222552594Y-74757352D03*
%TO.P,R6,1*%
X222552594Y-76582352D03*
%TD*%
D21*
%TO.P,Q11,3,C*%
%TO.N,N/C*%
X218683844Y-68869852D03*
%TO.P,Q11,2,B*%
X220558844Y-67919852D03*
%TO.P,Q11,1,E*%
X220558844Y-69819852D03*
%TD*%
D20*
%TO.P,PAD2,1*%
%TO.N,N/C*%
X205506760Y-94007352D03*
%TD*%
D18*
%TO.P,R21,2*%
%TO.N,N/C*%
X167210000Y-79190000D03*
D19*
%TO.P,R21,1*%
X157050000Y-79190000D03*
%TD*%
D21*
%TO.P,Q20,3,C*%
%TO.N,N/C*%
X200352594Y-70907352D03*
%TO.P,Q20,2,B*%
X202227594Y-69957352D03*
%TO.P,Q20,1,E*%
X202227594Y-71857352D03*
%TD*%
D17*
%TO.P,U3,1,GND*%
%TO.N,N/C*%
X117150000Y-75975000D03*
D18*
%TO.P,U3,2,TR*%
X117150000Y-78515000D03*
%TO.P,U3,3,Q*%
X117150000Y-81055000D03*
%TO.P,U3,4,R*%
X117150000Y-83595000D03*
%TO.P,U3,5,CV*%
X124770000Y-83595000D03*
%TO.P,U3,6,THR*%
X124770000Y-81055000D03*
%TO.P,U3,7,DIS*%
X124770000Y-78515000D03*
%TO.P,U3,8,VCC*%
X124770000Y-75975000D03*
%TD*%
D20*
%TO.P,PAD5,1*%
%TO.N,N/C*%
X222456762Y-62007352D03*
%TD*%
%TO.P,PAD1,1*%
%TO.N,N/C*%
X197040094Y-94007352D03*
%TD*%
D16*
%TO.P,R14,2*%
%TO.N,N/C*%
X210340094Y-72344852D03*
%TO.P,R14,1*%
X208515094Y-72344852D03*
%TD*%
D20*
%TO.P,PAD8,1*%
%TO.N,N/C*%
X197056762Y-62007352D03*
%TD*%
D16*
%TO.P,R8,2*%
%TO.N,N/C*%
X210340094Y-74844852D03*
%TO.P,R8,1*%
X208515094Y-74844852D03*
%TD*%
D27*
%TO.P,RV2,1,1*%
%TO.N,N/C*%
X124690000Y-86350000D03*
D28*
%TO.P,RV2,2,2*%
X119690000Y-88850000D03*
%TO.P,RV2,3,3*%
X124690000Y-91350000D03*
%TD*%
D15*
%TO.P,Q15,3,C*%
%TO.N,N/C*%
X204840094Y-84719852D03*
%TO.P,Q15,2,B*%
X203890094Y-82844852D03*
%TO.P,Q15,1,E*%
X205790094Y-82844852D03*
%TD*%
D25*
%TO.P,R9,2*%
%TO.N,N/C*%
X207590094Y-82869852D03*
%TO.P,R9,1*%
X207590094Y-84694852D03*
%TD*%
D22*
%TO.P,Q1,3,C*%
%TO.N,N/C*%
X215990094Y-75669852D03*
%TO.P,Q1,2,B*%
X214115094Y-76619852D03*
%TO.P,Q1,1,E*%
X214115094Y-74719852D03*
%TD*%
D14*
%TO.P,C31,1*%
%TO.N,N/C*%
X173054218Y-79935782D03*
%TO.P,C31,2*%
X173054218Y-82435782D03*
%TD*%
D29*
%TO.P,R12,2*%
%TO.N,N/C*%
X208427594Y-69594852D03*
%TO.P,R12,1*%
X210252594Y-69594852D03*
%TD*%
D20*
%TO.P,PAD7,1*%
%TO.N,N/C*%
X205523428Y-62007352D03*
%TD*%
D26*
%TO.P,R13,2*%
%TO.N,N/C*%
X207590094Y-88944852D03*
%TO.P,R13,1*%
X207590094Y-87119852D03*
%TD*%
D15*
%TO.P,Q21,3,C*%
%TO.N,N/C*%
X205090094Y-68032352D03*
%TO.P,Q21,2,B*%
X204140094Y-66157352D03*
%TO.P,Q21,1,E*%
X206040094Y-66157352D03*
%TD*%
D16*
%TO.P,R5,2*%
%TO.N,N/C*%
X216533844Y-71619852D03*
%TO.P,R5,1*%
X214708844Y-71619852D03*
%TD*%
D18*
%TO.P,R22,2*%
%TO.N,N/C*%
X167210000Y-82440000D03*
D19*
%TO.P,R22,1*%
X157050000Y-82440000D03*
%TD*%
D20*
%TO.P,PAD6,1*%
%TO.N,N/C*%
X213990094Y-62007352D03*
%TD*%
D18*
%TO.P,U1,8,VCC*%
%TO.N,N/C*%
X152330000Y-90720000D03*
%TO.P,U1,7,DIS*%
X149790000Y-90720000D03*
%TO.P,U1,6,THR*%
X147250000Y-90720000D03*
%TO.P,U1,5,CV*%
X144710000Y-90720000D03*
%TO.P,U1,4,R*%
X144710000Y-83100000D03*
%TO.P,U1,3,Q*%
X147250000Y-83100000D03*
%TO.P,U1,2,TR*%
X149790000Y-83100000D03*
D17*
%TO.P,U1,1,GND*%
X152330000Y-83100000D03*
%TD*%
D15*
%TO.P,Q9,3,C*%
%TO.N,N/C*%
X214865094Y-89872352D03*
%TO.P,Q9,2,B*%
X213915094Y-87997352D03*
%TO.P,Q9,1,E*%
X215815094Y-87997352D03*
%TD*%
D25*
%TO.P,R16,2*%
%TO.N,N/C*%
X197790094Y-77107352D03*
%TO.P,R16,1*%
X197790094Y-78932352D03*
%TD*%
D15*
%TO.P,Q19,3,C*%
%TO.N,N/C*%
X204840094Y-88969852D03*
%TO.P,Q19,2,B*%
X203890094Y-87094852D03*
%TO.P,Q19,1,E*%
X205790094Y-87094852D03*
%TD*%
D14*
%TO.P,C1,1*%
%TO.N,N/C*%
X119950000Y-72525000D03*
%TO.P,C1,2*%
X117450000Y-72525000D03*
%TD*%
D23*
%TO.P,REF\u002A\u002A,1*%
%TO.N,N/C*%
X126250000Y-71700000D03*
D24*
%TO.P,REF\u002A\u002A,2*%
X123710000Y-71700000D03*
%TD*%
D14*
%TO.P,C3,2*%
%TO.N,N/C*%
X141380000Y-83200000D03*
%TO.P,C3,1*%
X138880000Y-83200000D03*
%TD*%
%TO.P,C5,1*%
%TO.N,N/C*%
X114200000Y-78525000D03*
%TO.P,C5,2*%
X114200000Y-76025000D03*
%TD*%
D15*
%TO.P,Q22,3,C*%
%TO.N,N/C*%
X201090094Y-88969852D03*
%TO.P,Q22,2,B*%
X200140094Y-87094852D03*
%TO.P,Q22,1,E*%
X202040094Y-87094852D03*
%TD*%
D25*
%TO.P,R17,2*%
%TO.N,N/C*%
X197790094Y-81519852D03*
%TO.P,R17,1*%
X197790094Y-83344852D03*
%TD*%
D27*
%TO.P,RV1,1,1*%
%TO.N,N/C*%
X171864218Y-71985782D03*
D28*
%TO.P,RV1,2,2*%
X174364218Y-76985782D03*
%TO.P,RV1,3,3*%
X176864218Y-71985782D03*
%TD*%
D19*
%TO.P,R23,1*%
%TO.N,N/C*%
X179304218Y-82738282D03*
D18*
%TO.P,R23,2*%
X189464218Y-82738282D03*
%TD*%
D21*
%TO.P,Q2,3,C*%
%TO.N,N/C*%
X212746344Y-68919852D03*
%TO.P,Q2,2,B*%
X214621344Y-67969852D03*
%TO.P,Q2,1,E*%
X214621344Y-69869852D03*
%TD*%
D15*
%TO.P,Q10,3,C*%
%TO.N,N/C*%
X211040094Y-89757352D03*
%TO.P,Q10,2,B*%
X210090094Y-87882352D03*
%TO.P,Q10,1,E*%
X211990094Y-87882352D03*
%TD*%
D16*
%TO.P,R10,2*%
%TO.N,N/C*%
X197552594Y-85582352D03*
%TO.P,R10,1*%
X195727594Y-85582352D03*
%TD*%
D26*
%TO.P,R1,2*%
%TO.N,N/C*%
X213740094Y-81794852D03*
%TO.P,R1,1*%
X213740094Y-79969852D03*
%TD*%
D10*
%TO.P,D4,1,K*%
%TO.N,N/C*%
X111200000Y-91025000D03*
D11*
%TO.P,D4,2,A*%
X113740000Y-91025000D03*
%TD*%
D15*
%TO.P,Q17,3,C*%
%TO.N,N/C*%
X201352594Y-75719852D03*
%TO.P,Q17,2,B*%
X200402594Y-73844852D03*
%TO.P,Q17,1,E*%
X202302594Y-73844852D03*
%TD*%
D29*
%TO.P,R7,2*%
%TO.N,N/C*%
X218458844Y-71619852D03*
%TO.P,R7,1*%
X220283844Y-71619852D03*
%TD*%
D15*
%TO.P,Q12,3,C*%
%TO.N,N/C*%
X201090094Y-84719852D03*
%TO.P,Q12,2,B*%
X200140094Y-82844852D03*
%TO.P,Q12,1,E*%
X202040094Y-82844852D03*
%TD*%
D19*
%TO.P,R145,1*%
%TO.N,N/C*%
X210440000Y-139215000D03*
D18*
%TO.P,R145,2*%
X210440000Y-129055000D03*
%TD*%
D30*
%TO.P,U6,16,VCC*%
%TO.N,N/C*%
X88220000Y-110975000D03*
%TO.P,U6,15,QA*%
X88220000Y-113515000D03*
%TO.P,U6,14,SER*%
X88220000Y-116055000D03*
%TO.P,U6,13,~{OE}*%
X88220000Y-118595000D03*
%TO.P,U6,12,RCLK*%
X88220000Y-121135000D03*
%TO.P,U6,11,SRCLK*%
X88220000Y-123675000D03*
%TO.P,U6,10,~{SRCLR}*%
X88220000Y-126215000D03*
%TO.P,U6,9,QH'*%
X88220000Y-128755000D03*
%TO.P,U6,8,GND*%
X80600000Y-128755000D03*
%TO.P,U6,7,QH*%
X80600000Y-126215000D03*
%TO.P,U6,6,QG*%
X80600000Y-123675000D03*
%TO.P,U6,5,QF*%
X80600000Y-121135000D03*
%TO.P,U6,4,QE*%
X80600000Y-118595000D03*
%TO.P,U6,3,QD*%
X80600000Y-116055000D03*
%TO.P,U6,2,QC*%
X80600000Y-113515000D03*
D31*
%TO.P,U6,1,QB*%
X80600000Y-110975000D03*
%TD*%
D24*
%TO.P,REF\u002A\u002A,2*%
%TO.N,N/C*%
X95275000Y-136410000D03*
D23*
%TO.P,REF\u002A\u002A,1*%
X95275000Y-138950000D03*
%TD*%
D11*
%TO.P,D35,2,A*%
%TO.N,N/C*%
X147810000Y-117650371D03*
D10*
%TO.P,D35,1,K*%
X150350000Y-117650371D03*
%TD*%
D18*
%TO.P,R32,2*%
%TO.N,N/C*%
X145180000Y-148150371D03*
D19*
%TO.P,R32,1*%
X135020000Y-148150371D03*
%TD*%
D18*
%TO.P,R23,2*%
%TO.N,N/C*%
X115760000Y-98600000D03*
D19*
%TO.P,R23,1*%
X105600000Y-98600000D03*
%TD*%
D11*
%TO.P,D31,2,A*%
%TO.N,N/C*%
X100100000Y-112905000D03*
D10*
%TO.P,D31,1,K*%
X100100000Y-110365000D03*
%TD*%
D32*
%TO.P,SW19,2,2*%
%TO.N,N/C*%
X132350000Y-139650371D03*
D33*
%TO.P,SW19,1,1*%
X125850000Y-139650371D03*
%TD*%
D18*
%TO.P,R29,2*%
%TO.N,N/C*%
X145260000Y-135400371D03*
D19*
%TO.P,R29,1*%
X135100000Y-135400371D03*
%TD*%
D32*
%TO.P,SW18,2,2*%
%TO.N,N/C*%
X132350000Y-135400371D03*
D33*
%TO.P,SW18,1,1*%
X125850000Y-135400371D03*
%TD*%
%TO.P,SW61,1,1*%
%TO.N,N/C*%
X221990000Y-114135000D03*
D32*
%TO.P,SW61,2,2*%
X215490000Y-114135000D03*
%TD*%
D10*
%TO.P,D100,1,K*%
%TO.N,N/C*%
X185990000Y-144185000D03*
D11*
%TO.P,D100,2,A*%
X185990000Y-141645000D03*
%TD*%
D23*
%TO.P,SW68,1*%
%TO.N,N/C*%
X185940000Y-124760000D03*
D24*
%TO.P,SW68,2*%
X185940000Y-122220000D03*
%TO.P,SW68,3*%
X185940000Y-119680000D03*
%TD*%
%TO.P,REF\u002A\u002A,2*%
%TO.N,N/C*%
X171910000Y-100075371D03*
D23*
%TO.P,REF\u002A\u002A,1*%
X174450000Y-100075371D03*
%TD*%
D33*
%TO.P,SW63,1,1*%
%TO.N,N/C*%
X221990000Y-105385000D03*
D32*
%TO.P,SW63,2,2*%
X215490000Y-105385000D03*
%TD*%
%TO.P,SW11,2,2*%
%TO.N,N/C*%
X132350000Y-107150371D03*
D33*
%TO.P,SW11,1,1*%
X125850000Y-107150371D03*
%TD*%
D18*
%TO.P,R21,2*%
%TO.N,N/C*%
X115850000Y-122680000D03*
D19*
%TO.P,R21,1*%
X115850000Y-112520000D03*
%TD*%
D10*
%TO.P,D92,1,K*%
%TO.N,N/C*%
X191140000Y-144225000D03*
D11*
%TO.P,D92,2,A*%
X191140000Y-141685000D03*
%TD*%
%TO.P,D22,2,A*%
%TO.N,N/C*%
X62670000Y-100850000D03*
D10*
%TO.P,D22,1,K*%
X60130000Y-100850000D03*
%TD*%
D11*
%TO.P,D30,2,A*%
%TO.N,N/C*%
X62600000Y-138350000D03*
D10*
%TO.P,D30,1,K*%
X60060000Y-138350000D03*
%TD*%
D33*
%TO.P,SW66,1,1*%
%TO.N,N/C*%
X221990000Y-100885000D03*
D32*
%TO.P,SW66,2,2*%
X215490000Y-100885000D03*
%TD*%
D10*
%TO.P,D95,1,K*%
%TO.N,N/C*%
X196390000Y-99995000D03*
D11*
%TO.P,D95,2,A*%
X196390000Y-102535000D03*
%TD*%
D18*
%TO.P,R13,2*%
%TO.N,N/C*%
X65060000Y-128100000D03*
D19*
%TO.P,R13,1*%
X75220000Y-128100000D03*
%TD*%
D11*
%TO.P,D24,2,A*%
%TO.N,N/C*%
X62655000Y-109900000D03*
D10*
%TO.P,D24,1,K*%
X60115000Y-109900000D03*
%TD*%
D18*
%TO.P,R26,2*%
%TO.N,N/C*%
X145260000Y-122650371D03*
D19*
%TO.P,R26,1*%
X135100000Y-122650371D03*
%TD*%
D24*
%TO.P,REF\u002A\u002A,2*%
%TO.N,N/C*%
X92775000Y-136410000D03*
D23*
%TO.P,REF\u002A\u002A,1*%
X92775000Y-138950000D03*
%TD*%
D18*
%TO.P,R38,2*%
%TO.N,N/C*%
X135020000Y-106150371D03*
D19*
%TO.P,R38,1*%
X145180000Y-106150371D03*
%TD*%
D24*
%TO.P,REF\u002A\u002A,5*%
%TO.N,N/C*%
X88145000Y-136600000D03*
%TO.P,REF\u002A\u002A,4*%
X85605000Y-136600000D03*
%TO.P,REF\u002A\u002A,3*%
X83065000Y-136600000D03*
%TO.P,REF\u002A\u002A,2*%
X80525000Y-136600000D03*
D23*
%TO.P,REF\u002A\u002A,1*%
X77985000Y-136600000D03*
%TD*%
D11*
%TO.P,D44,2,A*%
%TO.N,N/C*%
X174310000Y-142900371D03*
D10*
%TO.P,D44,1,K*%
X171770000Y-142900371D03*
%TD*%
D18*
%TO.P,R15,2*%
%TO.N,N/C*%
X65270000Y-132600000D03*
D19*
%TO.P,R15,1*%
X75430000Y-132600000D03*
%TD*%
D32*
%TO.P,SW15,2,2*%
%TO.N,N/C*%
X132350000Y-122650371D03*
D33*
%TO.P,SW15,1,1*%
X125850000Y-122650371D03*
%TD*%
D11*
%TO.P,D26,2,A*%
%TO.N,N/C*%
X62655000Y-119150000D03*
D10*
%TO.P,D26,1,K*%
X60115000Y-119150000D03*
%TD*%
D32*
%TO.P,SW17,2,2*%
%TO.N,N/C*%
X132350000Y-131150371D03*
D33*
%TO.P,SW17,1,1*%
X125850000Y-131150371D03*
%TD*%
D11*
%TO.P,D28,2,A*%
%TO.N,N/C*%
X62640000Y-128100000D03*
D10*
%TO.P,D28,1,K*%
X60100000Y-128100000D03*
%TD*%
%TO.P,D97,1,K*%
%TO.N,N/C*%
X210440000Y-144210000D03*
D11*
%TO.P,D97,2,A*%
X210440000Y-141670000D03*
%TD*%
D18*
%TO.P,R22,2*%
%TO.N,N/C*%
X112600000Y-122680000D03*
D19*
%TO.P,R22,1*%
X112600000Y-112520000D03*
%TD*%
D11*
%TO.P,D33,2,A*%
%TO.N,N/C*%
X94100000Y-112905000D03*
D10*
%TO.P,D33,1,K*%
X94100000Y-110365000D03*
%TD*%
D11*
%TO.P,D34,2,A*%
%TO.N,N/C*%
X147835000Y-111400371D03*
D10*
%TO.P,D34,1,K*%
X150375000Y-111400371D03*
%TD*%
D14*
%TO.P,REF\u002A\u002A,2*%
%TO.N,N/C*%
X154575000Y-106575371D03*
%TO.P,REF\u002A\u002A,1*%
X154575000Y-109075371D03*
%TD*%
D34*
%TO.P,D1,1,K*%
%TO.N,N/C*%
X71100000Y-80655000D03*
D35*
%TO.P,D1,2,A*%
X71100000Y-90815000D03*
%TD*%
D34*
%TO.P,D2,1,K*%
%TO.N,N/C*%
X74530000Y-90825000D03*
D35*
%TO.P,D2,2,A*%
X74530000Y-80665000D03*
%TD*%
D23*
%TO.P,J3,1,Pin_1*%
%TO.N,N/C*%
X85500000Y-75710000D03*
D24*
%TO.P,J3,2,Pin_2*%
X85500000Y-73170000D03*
%TD*%
D19*
%TO.P,R2,1*%
%TO.N,N/C*%
X64110000Y-77515000D03*
D18*
%TO.P,R2,2*%
X64110000Y-67355000D03*
%TD*%
D23*
%TO.P,SW1,1,C*%
%TO.N,N/C*%
X85500000Y-81010000D03*
D24*
%TO.P,SW1,2,B*%
X85500000Y-83550000D03*
%TO.P,SW1,3,A*%
X85500000Y-86090000D03*
%TD*%
D23*
%TO.P,J2,1,Pin_1*%
%TO.N,N/C*%
X84200000Y-92235000D03*
D24*
%TO.P,J2,2,Pin_2*%
X81660000Y-92235000D03*
%TD*%
D10*
%TO.P,D3,1,K*%
%TO.N,N/C*%
X78100000Y-77035000D03*
D11*
%TO.P,D3,2,A*%
X78100000Y-74495000D03*
%TD*%
D23*
%TO.P,J1,1,Pin_1*%
%TO.N,N/C*%
X59700000Y-92235000D03*
D24*
%TO.P,J1,2,Pin_2*%
X62240000Y-92235000D03*
%TD*%
D19*
%TO.P,R1,1*%
%TO.N,N/C*%
X60870000Y-77515000D03*
D18*
%TO.P,R1,2*%
X60870000Y-67355000D03*
%TD*%
D19*
%TO.P,R4,1*%
%TO.N,N/C*%
X78100000Y-90715000D03*
D18*
%TO.P,R4,2*%
X78100000Y-80555000D03*
%TD*%
D27*
%TO.P,RV1,1,1*%
%TO.N,N/C*%
X72400000Y-73435000D03*
D28*
%TO.P,RV1,2,2*%
X69900000Y-68435000D03*
%TO.P,RV1,3,3*%
X67400000Y-73435000D03*
%TD*%
D36*
%TO.P,Q1,1,E*%
%TO.N,N/C*%
X63400000Y-82905000D03*
D37*
%TO.P,Q1,2,B*%
X63400000Y-81635000D03*
%TO.P,Q1,3,C*%
X63400000Y-80365000D03*
%TD*%
D19*
%TO.P,R3,1*%
%TO.N,N/C*%
X67600000Y-90615000D03*
D18*
%TO.P,R3,2*%
X67600000Y-80455000D03*
%TD*%
D19*
%TO.P,C1,1*%
%TO.N,N/C*%
X58900000Y-82885000D03*
%TO.P,C1,2*%
X58900000Y-80385000D03*
%TD*%
D14*
%TO.P,R190,1*%
%TO.N,N/C*%
X97350000Y-74170000D03*
%TO.P,R190,2*%
X97350000Y-64010000D03*
%TD*%
%TO.P,R191,1*%
%TO.N,N/C*%
X97400000Y-93080000D03*
%TO.P,R191,2*%
X97400000Y-82920000D03*
%TD*%
%TO.P,R221,1*%
%TO.N,N/C*%
X93700000Y-74170000D03*
%TO.P,R221,2*%
X93700000Y-64010000D03*
%TD*%
D23*
%TO.P,REF\u002A\u002A,1*%
%TO.N,N/C*%
X101550000Y-65200000D03*
D24*
%TO.P,REF\u002A\u002A,2*%
X101550000Y-67740000D03*
%TO.P,REF\u002A\u002A,3*%
X101550000Y-70280000D03*
%TO.P,REF\u002A\u002A,4*%
X101550000Y-72820000D03*
%TD*%
D17*
%TO.P,C29,1*%
%TO.N,N/C*%
X102850000Y-82150000D03*
D14*
%TO.P,C29,2*%
X102850000Y-79650000D03*
%TD*%
D17*
%TO.P,C23,1*%
%TO.N,N/C*%
X102850000Y-88667621D03*
D14*
%TO.P,C23,2*%
X102850000Y-91167621D03*
%TD*%
D19*
%TO.P,C2,1*%
%TO.N,N/C*%
X67450000Y-77535000D03*
%TO.P,C2,2*%
X69950000Y-77535000D03*
%TD*%
D14*
%TO.P,R222,1*%
%TO.N,N/C*%
X93750000Y-93080000D03*
%TO.P,R222,2*%
X93750000Y-82920000D03*
%TD*%
D38*
%TO.P,Q180,1,E*%
%TO.N,N/C*%
X97400000Y-79720000D03*
D39*
%TO.P,Q180,2,B*%
X95330000Y-78450000D03*
%TO.P,Q180,3,C*%
X97400000Y-77180000D03*
%TD*%
D18*
%TO.P,R30,2*%
%TO.N,N/C*%
X145180000Y-139900371D03*
D19*
%TO.P,R30,1*%
X135020000Y-139900371D03*
%TD*%
D18*
%TO.P,R11,2*%
%TO.N,N/C*%
X65075000Y-119250000D03*
D19*
%TO.P,R11,1*%
X75235000Y-119250000D03*
%TD*%
D11*
%TO.P,D38,2,A*%
%TO.N,N/C*%
X147835000Y-131150371D03*
D10*
%TO.P,D38,1,K*%
X150375000Y-131150371D03*
%TD*%
D32*
%TO.P,SW12,2,2*%
%TO.N,N/C*%
X125850000Y-101650371D03*
D33*
%TO.P,SW12,1,1*%
X132350000Y-101650371D03*
%TD*%
D24*
%TO.P,J20,8*%
%TO.N,N/C*%
X167975000Y-99975371D03*
%TO.P,J20,7*%
X165435000Y-99975371D03*
%TO.P,J20,6*%
X162895000Y-99975371D03*
%TO.P,J20,5*%
X160355000Y-99975371D03*
%TO.P,J20,4*%
X157815000Y-99975371D03*
%TO.P,J20,3*%
X155275000Y-99975371D03*
%TO.P,J20,2,2*%
X152735000Y-99975371D03*
D23*
%TO.P,J20,1,1*%
X150195000Y-99975371D03*
%TD*%
D18*
%TO.P,R20,2*%
%TO.N,N/C*%
X115850000Y-126520000D03*
D19*
%TO.P,R20,1*%
X115850000Y-136680000D03*
%TD*%
D32*
%TO.P,SW14,2,2*%
%TO.N,N/C*%
X132350000Y-118400371D03*
D33*
%TO.P,SW14,1,1*%
X125850000Y-118400371D03*
%TD*%
D32*
%TO.P,SW21,2,2*%
%TO.N,N/C*%
X132350000Y-148150371D03*
D33*
%TO.P,SW21,1,1*%
X125850000Y-148150371D03*
%TD*%
D11*
%TO.P,D32,2,A*%
%TO.N,N/C*%
X106100000Y-112890000D03*
D10*
%TO.P,D32,1,K*%
X106100000Y-110350000D03*
%TD*%
D33*
%TO.P,SW65,1,1*%
%TO.N,N/C*%
X222040000Y-122835000D03*
D32*
%TO.P,SW65,2,2*%
X215540000Y-122835000D03*
%TD*%
D24*
%TO.P,REF\u002A\u002A,2*%
%TO.N,N/C*%
X101540000Y-100175000D03*
D23*
%TO.P,REF\u002A\u002A,1*%
X99000000Y-100175000D03*
%TD*%
D18*
%TO.P,R8,2*%
%TO.N,N/C*%
X65075000Y-105350000D03*
D19*
%TO.P,R8,1*%
X75235000Y-105350000D03*
%TD*%
D18*
%TO.P,R9,2*%
%TO.N,N/C*%
X65075000Y-109850000D03*
D19*
%TO.P,R9,1*%
X75235000Y-109850000D03*
%TD*%
D11*
%TO.P,D39,2,A*%
%TO.N,N/C*%
X147835000Y-135650371D03*
D10*
%TO.P,D39,1,K*%
X150375000Y-135650371D03*
%TD*%
%TO.P,D91,1,K*%
%TO.N,N/C*%
X195740000Y-144210000D03*
D11*
%TO.P,D91,2,A*%
X195740000Y-141670000D03*
%TD*%
D13*
%TO.P,SW6,2,2*%
%TO.N,N/C*%
X102850000Y-126600000D03*
X109350000Y-126600000D03*
%TO.P,SW6,1,1*%
X102850000Y-131100000D03*
X109350000Y-131100000D03*
%TD*%
D11*
%TO.P,D29,2,A*%
%TO.N,N/C*%
X62600000Y-132650000D03*
D10*
%TO.P,D29,1,K*%
X60060000Y-132650000D03*
%TD*%
D24*
%TO.P,REF\u002A\u002A,2*%
%TO.N,N/C*%
X97775000Y-136410000D03*
D23*
%TO.P,REF\u002A\u002A,1*%
X97775000Y-138950000D03*
%TD*%
D18*
%TO.P,R24,2*%
%TO.N,N/C*%
X145180000Y-112650371D03*
D19*
%TO.P,R24,1*%
X135020000Y-112650371D03*
%TD*%
D18*
%TO.P,R25,2*%
%TO.N,N/C*%
X145180000Y-118400371D03*
D19*
%TO.P,R25,1*%
X135020000Y-118400371D03*
%TD*%
D18*
%TO.P,R6,2*%
%TO.N,N/C*%
X65170000Y-100900000D03*
D19*
%TO.P,R6,1*%
X75330000Y-100900000D03*
%TD*%
D13*
%TO.P,SW7,2,2*%
%TO.N,N/C*%
X99350000Y-122600000D03*
X92850000Y-122600000D03*
%TO.P,SW7,1,1*%
X99350000Y-118100000D03*
X92850000Y-118100000D03*
%TD*%
D19*
%TO.P,R146,1*%
%TO.N,N/C*%
X206540000Y-104905000D03*
D18*
%TO.P,R146,2*%
X206540000Y-115065000D03*
%TD*%
D10*
%TO.P,D94,1,K*%
%TO.N,N/C*%
X200990000Y-99995000D03*
D11*
%TO.P,D94,2,A*%
X200990000Y-102535000D03*
%TD*%
D24*
%TO.P,SW9,3,C*%
%TO.N,N/C*%
X154545000Y-134150371D03*
%TO.P,SW9,2,B*%
X157085000Y-134150371D03*
D23*
%TO.P,SW9,1,A*%
X159625000Y-134150371D03*
%TD*%
D19*
%TO.P,R143,1*%
%TO.N,N/C*%
X193540000Y-104905000D03*
D18*
%TO.P,R143,2*%
X193540000Y-115065000D03*
%TD*%
D19*
%TO.P,C35,1*%
%TO.N,N/C*%
X190340000Y-105485000D03*
%TO.P,C35,2*%
X187840000Y-105485000D03*
%TD*%
D18*
%TO.P,R34,2*%
%TO.N,N/C*%
X174430000Y-138400371D03*
D19*
%TO.P,R34,1*%
X164270000Y-138400371D03*
%TD*%
D33*
%TO.P,SW60,1,1*%
%TO.N,N/C*%
X222040000Y-118535000D03*
D32*
%TO.P,SW60,2,2*%
X215540000Y-118535000D03*
%TD*%
D24*
%TO.P,J20,8*%
%TO.N,N/C*%
X95765000Y-100100000D03*
%TO.P,J20,7*%
X93225000Y-100100000D03*
%TO.P,J20,6*%
X90685000Y-100100000D03*
%TO.P,J20,5*%
X88145000Y-100100000D03*
%TO.P,J20,4*%
X85605000Y-100100000D03*
%TO.P,J20,3*%
X83065000Y-100100000D03*
%TO.P,J20,2,2*%
X80525000Y-100100000D03*
D23*
%TO.P,J20,1,1*%
X77985000Y-100100000D03*
%TD*%
D19*
%TO.P,R141,1*%
%TO.N,N/C*%
X199740000Y-104905000D03*
D18*
%TO.P,R141,2*%
X199740000Y-115065000D03*
%TD*%
%TO.P,R10,2*%
%TO.N,N/C*%
X65075000Y-114650000D03*
D19*
%TO.P,R10,1*%
X75235000Y-114650000D03*
%TD*%
%TO.P,R147,1*%
%TO.N,N/C*%
X186190000Y-129055000D03*
D18*
%TO.P,R147,2*%
X186190000Y-139215000D03*
%TD*%
D11*
%TO.P,D42,2,A*%
%TO.N,N/C*%
X147850000Y-149150371D03*
D10*
%TO.P,D42,1,K*%
X150390000Y-149150371D03*
%TD*%
D18*
%TO.P,R28,2*%
%TO.N,N/C*%
X145180000Y-131150371D03*
D19*
%TO.P,R28,1*%
X135020000Y-131150371D03*
%TD*%
D24*
%TO.P,REF\u002A\u002A,4*%
%TO.N,N/C*%
X167345000Y-147775371D03*
%TO.P,REF\u002A\u002A,3*%
X164805000Y-147775371D03*
%TO.P,REF\u002A\u002A,2*%
X162265000Y-147775371D03*
D23*
%TO.P,REF\u002A\u002A,1*%
X159725000Y-147775371D03*
%TD*%
D10*
%TO.P,D96,1,K*%
%TO.N,N/C*%
X191790000Y-99995000D03*
D11*
%TO.P,D96,2,A*%
X191790000Y-102535000D03*
%TD*%
D19*
%TO.P,R140,1*%
%TO.N,N/C*%
X202840000Y-104905000D03*
D18*
%TO.P,R140,2*%
X202840000Y-115065000D03*
%TD*%
D19*
%TO.P,R139,1*%
%TO.N,N/C*%
X193640000Y-139245000D03*
D18*
%TO.P,R139,2*%
X193640000Y-129085000D03*
%TD*%
D19*
%TO.P,R138,1*%
%TO.N,N/C*%
X196740000Y-139245000D03*
D18*
%TO.P,R138,2*%
X196740000Y-129085000D03*
%TD*%
D11*
%TO.P,D6,2,A*%
%TO.N,N/C*%
X147835000Y-106400371D03*
D10*
%TO.P,D6,1,K*%
X150375000Y-106400371D03*
%TD*%
D33*
%TO.P,SW64,1,1*%
%TO.N,N/C*%
X221990000Y-132585000D03*
D32*
%TO.P,SW64,2,2*%
X215490000Y-132585000D03*
%TD*%
%TO.P,SW10,2,2*%
%TO.N,N/C*%
X132350000Y-112650371D03*
D33*
%TO.P,SW10,1,1*%
X125850000Y-112650371D03*
%TD*%
D32*
%TO.P,SW16,2,2*%
%TO.N,N/C*%
X132350000Y-126900371D03*
D33*
%TO.P,SW16,1,1*%
X125850000Y-126900371D03*
%TD*%
D19*
%TO.P,R149,1*%
%TO.N,N/C*%
X189440000Y-139215000D03*
D18*
%TO.P,R149,2*%
X189440000Y-129055000D03*
%TD*%
%TO.P,R36,2*%
%TO.N,N/C*%
X135020000Y-102650371D03*
D19*
%TO.P,R36,1*%
X145180000Y-102650371D03*
%TD*%
D18*
%TO.P,R12,2*%
%TO.N,N/C*%
X65060000Y-123650000D03*
D19*
%TO.P,R12,1*%
X75220000Y-123650000D03*
%TD*%
D18*
%TO.P,R17,2*%
%TO.N,N/C*%
X115760000Y-101850000D03*
D19*
%TO.P,R17,1*%
X105600000Y-101850000D03*
%TD*%
D11*
%TO.P,D40,2,A*%
%TO.N,N/C*%
X147850000Y-140150371D03*
D10*
%TO.P,D40,1,K*%
X150390000Y-140150371D03*
%TD*%
D19*
%TO.P,R137,1*%
%TO.N,N/C*%
X199840000Y-139245000D03*
D18*
%TO.P,R137,2*%
X199840000Y-129085000D03*
%TD*%
D10*
%TO.P,D93,1,K*%
%TO.N,N/C*%
X205590000Y-99995000D03*
D11*
%TO.P,D93,2,A*%
X205590000Y-102535000D03*
%TD*%
%TO.P,D41,2,A*%
%TO.N,N/C*%
X147835000Y-144650371D03*
D10*
%TO.P,D41,1,K*%
X150375000Y-144650371D03*
%TD*%
D11*
%TO.P,D43,2,A*%
%TO.N,N/C*%
X174350000Y-147650371D03*
D10*
%TO.P,D43,1,K*%
X171810000Y-147650371D03*
%TD*%
D18*
%TO.P,R31,2*%
%TO.N,N/C*%
X145180000Y-143900371D03*
D19*
%TO.P,R31,1*%
X135020000Y-143900371D03*
%TD*%
D18*
%TO.P,R33,2*%
%TO.N,N/C*%
X174430000Y-133650371D03*
D19*
%TO.P,R33,1*%
X164270000Y-133650371D03*
%TD*%
D11*
%TO.P,D25,2,A*%
%TO.N,N/C*%
X62655000Y-114500000D03*
D10*
%TO.P,D25,1,K*%
X60115000Y-114500000D03*
%TD*%
D24*
%TO.P,SW4,3,C*%
%TO.N,N/C*%
X102560000Y-136600000D03*
%TO.P,SW4,2,B*%
X105100000Y-136600000D03*
D23*
%TO.P,SW4,1,A*%
X107640000Y-136600000D03*
%TD*%
D18*
%TO.P,R37,2*%
%TO.N,N/C*%
X145180000Y-99400371D03*
D19*
%TO.P,R37,1*%
X135020000Y-99400371D03*
%TD*%
D18*
%TO.P,R18,2*%
%TO.N,N/C*%
X115760000Y-105100000D03*
D19*
%TO.P,R18,1*%
X105600000Y-105100000D03*
%TD*%
D40*
%TO.P,U20,1,~{MR}*%
%TO.N,N/C*%
X207390000Y-118385000D03*
D41*
%TO.P,U20,2,CP*%
X204850000Y-118385000D03*
%TO.P,U20,3,D0*%
X202310000Y-118385000D03*
%TO.P,U20,4,D1*%
X199770000Y-118385000D03*
%TO.P,U20,5,D2*%
X197230000Y-118385000D03*
%TO.P,U20,6,D3*%
X194690000Y-118385000D03*
%TO.P,U20,7,CEP*%
X192150000Y-118385000D03*
%TO.P,U20,8,GND*%
X189610000Y-118385000D03*
%TO.P,U20,9,~{PE}*%
X189610000Y-126005000D03*
%TO.P,U20,10,CET*%
X192150000Y-126005000D03*
%TO.P,U20,11,Q3*%
X194690000Y-126005000D03*
%TO.P,U20,12,Q2*%
X197230000Y-126005000D03*
%TO.P,U20,13,Q1*%
X199770000Y-126005000D03*
%TO.P,U20,14,Q0*%
X202310000Y-126005000D03*
%TO.P,U20,15,TC*%
X204850000Y-126005000D03*
%TO.P,U20,16,VCC*%
X207390000Y-126005000D03*
%TD*%
D33*
%TO.P,SW62,1,1*%
%TO.N,N/C*%
X221990000Y-109785000D03*
D32*
%TO.P,SW62,2,2*%
X215490000Y-109785000D03*
%TD*%
D10*
%TO.P,D90,1,K*%
%TO.N,N/C*%
X200340000Y-144210000D03*
D11*
%TO.P,D90,2,A*%
X200340000Y-141670000D03*
%TD*%
D13*
%TO.P,SW5,2,2*%
%TO.N,N/C*%
X92850000Y-126600000D03*
X99350000Y-126600000D03*
%TO.P,SW5,1,1*%
X92850000Y-131100000D03*
X99350000Y-131100000D03*
%TD*%
D19*
%TO.P,R144,1*%
%TO.N,N/C*%
X209740000Y-115015000D03*
D18*
%TO.P,R144,2*%
X209740000Y-104855000D03*
%TD*%
%TO.P,R19,2*%
%TO.N,N/C*%
X112600000Y-126520000D03*
D19*
%TO.P,R19,1*%
X112600000Y-136680000D03*
%TD*%
D18*
%TO.P,R16,2*%
%TO.N,N/C*%
X65005000Y-138350000D03*
D19*
%TO.P,R16,1*%
X75165000Y-138350000D03*
%TD*%
D24*
%TO.P,REF\u002A\u002A,2*%
%TO.N,N/C*%
X171910000Y-102575371D03*
D23*
%TO.P,REF\u002A\u002A,1*%
X174450000Y-102575371D03*
%TD*%
D11*
%TO.P,D36,2,A*%
%TO.N,N/C*%
X147835000Y-122150371D03*
D10*
%TO.P,D36,1,K*%
X150375000Y-122150371D03*
%TD*%
D11*
%TO.P,D23,2,A*%
%TO.N,N/C*%
X62655000Y-105350000D03*
D10*
%TO.P,D23,1,K*%
X60115000Y-105350000D03*
%TD*%
D32*
%TO.P,SW20,2,2*%
%TO.N,N/C*%
X132350000Y-143900371D03*
D33*
%TO.P,SW20,1,1*%
X125850000Y-143900371D03*
%TD*%
D24*
%TO.P,REF\u002A\u002A,2*%
%TO.N,N/C*%
X171910000Y-105075371D03*
D23*
%TO.P,REF\u002A\u002A,1*%
X174450000Y-105075371D03*
%TD*%
D11*
%TO.P,D27,2,A*%
%TO.N,N/C*%
X62640000Y-123600000D03*
D10*
%TO.P,D27,1,K*%
X60100000Y-123600000D03*
%TD*%
D19*
%TO.P,R136,1*%
%TO.N,N/C*%
X202940000Y-139245000D03*
D18*
%TO.P,R136,2*%
X202940000Y-129085000D03*
%TD*%
D10*
%TO.P,D99,1,K*%
%TO.N,N/C*%
X210940000Y-99995000D03*
D11*
%TO.P,D99,2,A*%
X210940000Y-102535000D03*
%TD*%
%TO.P,D37,2,A*%
%TO.N,N/C*%
X147850000Y-126650371D03*
D10*
%TO.P,D37,1,K*%
X150390000Y-126650371D03*
%TD*%
D33*
%TO.P,SW67,1,1*%
%TO.N,N/C*%
X222040000Y-127085000D03*
D32*
%TO.P,SW67,2,2*%
X215540000Y-127085000D03*
%TD*%
D19*
%TO.P,R142,1*%
%TO.N,N/C*%
X196640000Y-104925000D03*
D18*
%TO.P,R142,2*%
X196640000Y-115085000D03*
%TD*%
D13*
%TO.P,SW8,2,2*%
%TO.N,N/C*%
X109350000Y-122600000D03*
X102850000Y-122600000D03*
%TO.P,SW8,1,1*%
X109350000Y-118100000D03*
X102850000Y-118100000D03*
%TD*%
D23*
%TO.P,REF\u002A\u002A,1*%
%TO.N,N/C*%
X182350000Y-127400000D03*
D24*
%TO.P,REF\u002A\u002A,2*%
X182350000Y-129940000D03*
%TO.P,REF\u002A\u002A,3*%
X182350000Y-132480000D03*
%TO.P,REF\u002A\u002A,4*%
X182350000Y-135020000D03*
%TO.P,REF\u002A\u002A,5*%
X182350000Y-137560000D03*
%TD*%
D18*
%TO.P,R35,2*%
%TO.N,N/C*%
X145180000Y-109400371D03*
D19*
%TO.P,R35,1*%
X135020000Y-109400371D03*
%TD*%
D23*
%TO.P,REF\u002A\u002A,1*%
%TO.N,N/C*%
X221900000Y-137285000D03*
D24*
%TO.P,REF\u002A\u002A,2*%
X221900000Y-139825000D03*
%TD*%
D14*
%TO.P,REF\u002A\u002A,2*%
%TO.N,N/C*%
X115175000Y-108675000D03*
%TO.P,REF\u002A\u002A,1*%
X112675000Y-108675000D03*
%TD*%
D23*
%TO.P,REF\u002A\u002A,1*%
%TO.N,N/C*%
X182350000Y-142205000D03*
D24*
%TO.P,REF\u002A\u002A,2*%
X182350000Y-144745000D03*
%TD*%
D18*
%TO.P,R27,2*%
%TO.N,N/C*%
X145180000Y-126900371D03*
D19*
%TO.P,R27,1*%
X135020000Y-126900371D03*
%TD*%
D30*
%TO.P,U7,16,VCC*%
%TO.N,N/C*%
X157030000Y-130050371D03*
%TO.P,U7,15,~{CE}*%
X157030000Y-127510371D03*
%TO.P,U7,14,D3*%
X157030000Y-124970371D03*
%TO.P,U7,13,D2*%
X157030000Y-122430371D03*
%TO.P,U7,12,D1*%
X157030000Y-119890371D03*
%TO.P,U7,11,D0*%
X157030000Y-117350371D03*
%TO.P,U7,10,DS*%
X157030000Y-114810371D03*
%TO.P,U7,9,Q7*%
X157030000Y-112270371D03*
%TO.P,U7,8,GND*%
X164650000Y-112270371D03*
%TO.P,U7,7,~{Q7}*%
X164650000Y-114810371D03*
%TO.P,U7,6,D7*%
X164650000Y-117350371D03*
%TO.P,U7,5,D6*%
X164650000Y-119890371D03*
%TO.P,U7,4,D5*%
X164650000Y-122430371D03*
%TO.P,U7,3,D4*%
X164650000Y-124970371D03*
%TO.P,U7,2,CP*%
X164650000Y-127510371D03*
D31*
%TO.P,U7,1,~{PL}*%
X164650000Y-130050371D03*
%TD*%
D10*
%TO.P,D89,1,K*%
%TO.N,N/C*%
X204940000Y-144210000D03*
D11*
%TO.P,D89,2,A*%
X204940000Y-141670000D03*
%TD*%
D23*
%TO.P,J20,1,1*%
%TO.N,N/C*%
X182330000Y-99615000D03*
D24*
%TO.P,J20,2,2*%
X182330000Y-102155000D03*
%TO.P,J20,3*%
X182330000Y-104695000D03*
%TO.P,J20,4*%
X182330000Y-107235000D03*
%TO.P,J20,5*%
X182330000Y-109775000D03*
%TO.P,J20,6*%
X182330000Y-112315000D03*
%TO.P,J20,7*%
X182330000Y-114855000D03*
%TO.P,J20,8*%
X182330000Y-117395000D03*
%TD*%
D42*
%TO.N,*%
X212000094Y-85447352D03*
X201000094Y-82847352D03*
X205000094Y-73947352D03*
X218200094Y-85547352D03*
X211900094Y-81047352D03*
X205200094Y-77647352D03*
X214600094Y-68947352D03*
X219300094Y-67947352D03*
X218136344Y-81739852D03*
X219100094Y-84547352D03*
X210990094Y-78632352D03*
X209700094Y-66047352D03*
X197800094Y-82547352D03*
X215600094Y-91547352D03*
X219500094Y-72047352D03*
X199852594Y-84194852D03*
X210000094Y-89447352D03*
X207546344Y-69594852D03*
X196040094Y-75447352D03*
X211900094Y-82247352D03*
X220100094Y-86847352D03*
X216536344Y-77539852D03*
X212000094Y-86547352D03*
X203300094Y-91847352D03*
X211100094Y-84147352D03*
X199002594Y-83344852D03*
X214800094Y-82647352D03*
X211800094Y-64247352D03*
X201600094Y-73847352D03*
X206200094Y-75447352D03*
X220400094Y-91847352D03*
X213900094Y-88947352D03*
X199000094Y-91647352D03*
X200300094Y-69947352D03*
X199100094Y-92947352D03*
X197900094Y-91647352D03*
X209500094Y-69547352D03*
X196800094Y-91647352D03*
X195700094Y-91647352D03*
X207636344Y-85939852D03*
X215036344Y-75669852D03*
X216436344Y-82739852D03*
X215400094Y-74719852D03*
D43*
X166850000Y-130650371D03*
X168600000Y-131650371D03*
X172100000Y-133225371D03*
X160775000Y-106975371D03*
X170350000Y-132475371D03*
%TD*%
D44*
%TO.N,*%
X211800094Y-64197352D02*
X213990094Y-62007352D01*
X211800094Y-64247352D02*
X211800094Y-64197352D01*
D45*
X215400094Y-74719852D02*
X212090094Y-74719852D01*
X212090094Y-74719852D02*
X212052594Y-74757352D01*
D44*
X196040094Y-84082352D02*
X197540094Y-85582352D01*
X196040094Y-75547352D02*
X196040094Y-84082352D01*
X197540094Y-85582352D02*
X197640094Y-85582352D01*
X196040094Y-73982352D02*
X197340094Y-72682352D01*
X196040094Y-75547352D02*
X196040094Y-73982352D01*
X215036344Y-75669852D02*
X210517594Y-75669852D01*
X215990094Y-75669852D02*
X215036344Y-75669852D01*
D45*
X215765094Y-85739852D02*
X215765094Y-83411102D01*
X215765094Y-83411102D02*
X216436344Y-82739852D01*
X215765094Y-85739852D02*
X215765094Y-87947352D01*
X215765094Y-83757352D02*
X215765094Y-85739852D01*
X209563428Y-66047352D02*
X205523428Y-62007352D01*
D44*
X212746344Y-68919852D02*
X212746344Y-74757352D01*
X212746344Y-74757352D02*
X212052594Y-74757352D01*
X212002594Y-74707352D02*
X212052594Y-74757352D01*
D45*
X213740094Y-79969852D02*
X215452594Y-79969852D01*
X215452594Y-79969852D02*
X215490094Y-80007352D01*
X200997594Y-82844852D02*
X201000094Y-82847352D01*
X203300094Y-91847352D02*
X203346760Y-91847352D01*
X203346760Y-91847352D02*
X205506760Y-94007352D01*
X200140094Y-82844852D02*
X200997594Y-82844852D01*
D44*
X206040094Y-68088602D02*
X206040094Y-66157352D01*
X208465094Y-88407352D02*
X208465094Y-89507352D01*
X198277594Y-89119852D02*
X198277594Y-88219852D01*
X207590094Y-75769852D02*
X207590094Y-78232352D01*
D45*
X195727594Y-85582352D02*
X195727594Y-86594852D01*
D44*
X205790094Y-87094852D02*
X206727594Y-88032352D01*
D45*
X213865094Y-83757352D02*
X213865094Y-85757352D01*
D44*
X199390094Y-90232352D02*
X198277594Y-89119852D01*
D45*
X204352594Y-70019852D02*
X204290094Y-69957352D01*
X207815094Y-81282352D02*
X208515094Y-81282352D01*
D44*
X198740094Y-84482352D02*
X200140094Y-85882352D01*
D45*
X206840094Y-81282352D02*
X208515094Y-81282352D01*
X213865094Y-87947352D02*
X213915094Y-87997352D01*
X213770094Y-89757352D02*
X214750094Y-89757352D01*
X214115094Y-76619852D02*
X212090094Y-76619852D01*
X204352594Y-70907352D02*
X204352594Y-70019852D01*
X213927594Y-76619852D02*
X216852594Y-76619852D01*
D44*
X196790094Y-83782352D02*
X197490094Y-84482352D01*
D45*
X205340094Y-80344852D02*
X204540094Y-79544852D01*
D44*
X197790094Y-81519852D02*
X196790094Y-82519852D01*
D45*
X205090094Y-68032352D02*
X205090094Y-69957352D01*
X204540094Y-79544852D02*
X202215094Y-79544852D01*
X214815094Y-85632352D02*
X213990094Y-85632352D01*
X216852594Y-76619852D02*
X217752594Y-75719852D01*
X212090094Y-76619852D02*
X212052594Y-76582352D01*
X201352594Y-77644852D02*
X202215094Y-77644852D01*
X204840094Y-84719852D02*
X204840094Y-81532352D01*
X205090094Y-81282352D02*
X206840094Y-81282352D01*
X205090094Y-68032352D02*
X201515094Y-68032352D01*
X207565094Y-88969852D02*
X207590094Y-88944852D01*
X210990094Y-81319852D02*
X210990094Y-78632352D01*
X207177594Y-80344852D02*
X205340094Y-80344852D01*
X198940094Y-73357352D02*
X197790094Y-74507352D01*
X211040094Y-86932352D02*
X210090094Y-87882352D01*
X216621344Y-71532352D02*
X216533844Y-71619852D01*
X205102594Y-77632352D02*
X205090094Y-77644852D01*
D44*
X216055094Y-89872352D02*
X214865094Y-89872352D01*
X207546344Y-69594852D02*
X206040094Y-68088602D01*
D45*
X211040094Y-85607352D02*
X211040094Y-86932352D01*
X217752594Y-75719852D02*
X220427594Y-75719852D01*
X201515094Y-69244852D02*
X201515094Y-68032352D01*
X208515094Y-79007352D02*
X207177594Y-80344852D01*
X202465094Y-66157352D02*
X204140094Y-66157352D01*
X204840094Y-81532352D02*
X205090094Y-81282352D01*
X213865094Y-83757352D02*
X213865094Y-81919852D01*
D44*
X219146344Y-85757352D02*
X218196344Y-86707352D01*
D45*
X220258844Y-69819852D02*
X218458844Y-71619852D01*
X197790094Y-81519852D02*
X197790094Y-78932352D01*
X201352594Y-75719852D02*
X201352594Y-77644852D01*
X208515094Y-77344852D02*
X208515094Y-79007352D01*
X209465094Y-81282352D02*
X210040094Y-80707352D01*
X210990094Y-81319852D02*
X210990094Y-82832352D01*
X210040094Y-80707352D02*
X210040094Y-79444852D01*
D44*
X196790094Y-82519852D02*
X196790094Y-83782352D01*
D45*
X206840094Y-81282352D02*
X207340094Y-81282352D01*
D44*
X200140094Y-85882352D02*
X200140094Y-87094852D01*
D45*
X210990094Y-82832352D02*
X210090094Y-83732352D01*
D44*
X217242594Y-89872352D02*
X216055094Y-89872352D01*
D45*
X201352594Y-77644852D02*
X200340094Y-77644852D01*
X205790094Y-82844852D02*
X205790094Y-87094852D01*
X211040094Y-89757352D02*
X213770094Y-89757352D01*
D44*
X220558844Y-67919852D02*
X221065094Y-67919852D01*
D45*
X207590094Y-81532352D02*
X207590094Y-82869852D01*
X200340094Y-77644852D02*
X200340094Y-78594852D01*
D44*
X207740094Y-90232352D02*
X199390094Y-90232352D01*
D45*
X216608844Y-67969852D02*
X216621344Y-67957352D01*
X204840094Y-88969852D02*
X207565094Y-88969852D01*
X216621344Y-69782352D02*
X216621344Y-71532352D01*
D44*
X208427594Y-69594852D02*
X207546344Y-69594852D01*
X208465094Y-89507352D02*
X207740094Y-90232352D01*
D45*
X205090094Y-77644852D02*
X202215094Y-77644852D01*
X197790094Y-77107352D02*
X197790094Y-74507352D01*
X220558844Y-69819852D02*
X220258844Y-69819852D01*
X213865094Y-81919852D02*
X213740094Y-81794852D01*
X205090094Y-69957352D02*
X204290094Y-69957352D01*
X202227594Y-69957352D02*
X201515094Y-69244852D01*
X208515094Y-81282352D02*
X209465094Y-81282352D01*
D44*
X206727594Y-88032352D02*
X208090094Y-88032352D01*
D45*
X211015094Y-78632352D02*
X211740094Y-77907352D01*
D44*
X197490094Y-84482352D02*
X198740094Y-84482352D01*
D45*
X211740094Y-77907352D02*
X215270094Y-77907352D01*
X213865094Y-85757352D02*
X213865094Y-87947352D01*
X206227594Y-69957352D02*
X205090094Y-69957352D01*
X204290094Y-69957352D02*
X202227594Y-69957352D01*
X204840094Y-88969852D02*
X201090094Y-88969852D01*
X206277594Y-77644852D02*
X205202594Y-77644852D01*
X208515094Y-72344852D02*
X208027594Y-71857352D01*
X200565094Y-66157352D02*
X198940094Y-67782352D01*
X204402594Y-78594852D02*
X204402594Y-77769852D01*
X207340094Y-81282352D02*
X207590094Y-81532352D01*
X205102594Y-75782352D02*
X205102594Y-77632352D01*
X218458844Y-71619852D02*
X216533844Y-71619852D01*
X213990094Y-85632352D02*
X213865094Y-85757352D01*
X208027594Y-71857352D02*
X206227594Y-71857352D01*
X203890094Y-87094852D02*
X202040094Y-87094852D01*
X214621344Y-67969852D02*
X216608844Y-67969852D01*
D44*
X207590094Y-78232352D02*
X206277594Y-79544852D01*
D45*
X195727594Y-86594852D02*
X196402594Y-87269852D01*
D44*
X208090094Y-88032352D02*
X208465094Y-88407352D01*
X218196344Y-86707352D02*
X218196344Y-88007352D01*
D45*
X198940094Y-67782352D02*
X198940094Y-73357352D01*
X214750094Y-89757352D02*
X214865094Y-89872352D01*
D44*
X208515094Y-74844852D02*
X207590094Y-75769852D01*
D45*
X215270094Y-77907352D02*
X217270094Y-79907352D01*
X211990094Y-83732352D02*
X211990094Y-85437352D01*
X203890094Y-82844852D02*
X202040094Y-82844852D01*
X214621344Y-69869852D02*
X214621344Y-71532352D01*
D44*
X201090094Y-84719852D02*
X200377594Y-84719852D01*
D45*
X215765094Y-87947352D02*
X215815094Y-87997352D01*
X211940094Y-83682352D02*
X211990094Y-83732352D01*
X214621344Y-71532352D02*
X214708844Y-71619852D01*
X224177594Y-76582352D02*
X224215094Y-76544852D01*
X218552594Y-76669852D02*
X222465094Y-76669852D01*
X197790094Y-62740684D02*
X197056762Y-62007352D01*
X211940094Y-79444852D02*
X211940094Y-81007352D01*
X207590094Y-84694852D02*
X207590094Y-85893602D01*
X197790094Y-72682352D02*
X197790094Y-62740684D01*
X215990094Y-75669852D02*
X216890094Y-74769852D01*
X216890094Y-74769852D02*
X218552594Y-74769852D01*
X218552594Y-74769852D02*
X222540094Y-74769852D01*
X222552594Y-76582352D02*
X224177594Y-76582352D01*
D44*
X199002594Y-83344852D02*
X197790094Y-83344852D01*
D45*
X200352594Y-69999852D02*
X200300094Y-69947352D01*
X200352594Y-70907352D02*
X200352594Y-69999852D01*
D44*
X198100094Y-92947352D02*
X197040094Y-94007352D01*
X199100094Y-92947352D02*
X198100094Y-92947352D01*
D45*
X214621344Y-68968602D02*
X214600094Y-68947352D01*
X214621344Y-69869852D02*
X214621344Y-68968602D01*
D44*
X202302594Y-73844852D02*
X201602594Y-73844852D01*
X201602594Y-73844852D02*
X201600094Y-73847352D01*
D45*
X210340094Y-77344852D02*
X210340094Y-75847352D01*
D44*
X210517594Y-75669852D02*
X210340094Y-75847352D01*
D45*
X218092594Y-77539852D02*
X221100094Y-80547352D01*
X216536344Y-77539852D02*
X218092594Y-77539852D01*
X221100094Y-80547352D02*
X221100094Y-88747352D01*
X221100094Y-88747352D02*
X219965094Y-89882352D01*
X219965094Y-89882352D02*
X219146344Y-89882352D01*
X219100094Y-85711102D02*
X219146344Y-85757352D01*
X220283844Y-71619852D02*
X219927594Y-71619852D01*
X219100094Y-84547352D02*
X219100094Y-85711102D01*
X219927594Y-71619852D02*
X219500094Y-72047352D01*
D44*
X197790094Y-82557352D02*
X197800094Y-82547352D01*
D45*
X211940094Y-82287352D02*
X211940094Y-83682352D01*
X211900094Y-82247352D02*
X211940094Y-82287352D01*
X211940094Y-82207352D02*
X211900094Y-82247352D01*
X211990094Y-85437352D02*
X212000094Y-85447352D01*
X215490094Y-81957352D02*
X215490094Y-81757352D01*
X211990094Y-85457352D02*
X211990094Y-86537352D01*
X214800094Y-82647352D02*
X215490094Y-81957352D01*
X212000094Y-85447352D02*
X211990094Y-85457352D01*
D44*
X197790094Y-83344852D02*
X197790094Y-82557352D01*
D45*
X215400094Y-74719852D02*
X214115094Y-74719852D01*
X215400094Y-74719852D02*
X215715094Y-74719852D01*
X223190094Y-73769852D02*
X224215094Y-74794852D01*
X215715094Y-74719852D02*
X216665094Y-73769852D01*
X216665094Y-73769852D02*
X223190094Y-73769852D01*
X217516762Y-66947352D02*
X222456762Y-62007352D01*
X200565094Y-65307352D02*
X201090094Y-64782352D01*
X201090094Y-64782352D02*
X206635094Y-64782352D01*
X209700094Y-66047352D02*
X209563428Y-66047352D01*
X206635094Y-64782352D02*
X208800094Y-66947352D01*
X208800094Y-66947352D02*
X217516762Y-66947352D01*
X200565094Y-66157352D02*
X200565094Y-65307352D01*
X221622594Y-68869852D02*
X225400094Y-72647352D01*
X218683844Y-68869852D02*
X221622594Y-68869852D01*
X225400094Y-72647352D02*
X225400094Y-75359852D01*
X225400094Y-75359852D02*
X224215094Y-76544852D01*
X197408356Y-89169852D02*
X198042975Y-89804471D01*
X199120856Y-90882352D02*
X199300094Y-90882352D01*
X208565094Y-90882352D02*
X210000094Y-89447352D01*
X213900094Y-88012352D02*
X213915094Y-87997352D01*
X213900094Y-88947352D02*
X213900094Y-88012352D01*
X196402594Y-89169852D02*
X197408356Y-89169852D01*
X199300094Y-90882352D02*
X208565094Y-90882352D01*
X198042975Y-89804471D02*
X199120856Y-90882352D01*
X209547594Y-69594852D02*
X209500094Y-69547352D01*
X210252594Y-69594852D02*
X209547594Y-69594852D01*
X207590094Y-85893602D02*
X207636344Y-85939852D01*
X207636344Y-85939852D02*
X207590094Y-85986102D01*
X212000094Y-86547352D02*
X211990094Y-86557352D01*
X211990094Y-86537352D02*
X212000094Y-86547352D01*
X207590094Y-85986102D02*
X207590094Y-87119852D01*
X211990094Y-86557352D02*
X211990094Y-87882352D01*
X205197594Y-77644852D02*
X205090094Y-77644852D01*
X205202594Y-77644852D02*
X205200094Y-77647352D01*
X205200094Y-77647352D02*
X205197594Y-77644852D01*
D44*
X197900094Y-91647352D02*
X197900094Y-93147352D01*
X197900094Y-93147352D02*
X197040094Y-94007352D01*
X220100094Y-82047352D02*
X218897594Y-80844852D01*
X216327594Y-80844852D02*
X215490094Y-80007352D01*
X218897594Y-80844852D02*
X216327594Y-80844852D01*
X220100094Y-83722352D02*
X220100094Y-82047352D01*
X196800094Y-91647352D02*
X195700094Y-91647352D01*
X195700094Y-91647352D02*
X195700094Y-92667352D01*
X195700094Y-92667352D02*
X197040094Y-94007352D01*
X220096344Y-86851102D02*
X220100094Y-86847352D01*
X220096344Y-88007352D02*
X220096344Y-86851102D01*
D45*
X215600094Y-91547352D02*
X213973426Y-93174020D01*
X213973426Y-93174020D02*
X213973426Y-94007352D01*
D44*
X220400094Y-91847352D02*
X220400094Y-91967352D01*
X220400094Y-91967352D02*
X222440094Y-94007352D01*
X218196344Y-85543602D02*
X218200094Y-85547352D01*
X218196344Y-83882352D02*
X218196344Y-85543602D01*
D45*
X211940094Y-81087352D02*
X211940094Y-82207352D01*
X211940094Y-81007352D02*
X211900094Y-81047352D01*
X211900094Y-81047352D02*
X211940094Y-81087352D01*
X200800094Y-72647352D02*
X205600094Y-72647352D01*
X206052594Y-73099852D02*
X206052594Y-73907352D01*
X200402594Y-73844852D02*
X200402594Y-73044852D01*
X205600094Y-72647352D02*
X206052594Y-73099852D01*
X200402594Y-73044852D02*
X200800094Y-72647352D01*
X199100094Y-74347352D02*
X199100094Y-78947352D01*
X200590094Y-71857352D02*
X199652594Y-72794852D01*
X199100094Y-78947352D02*
X199697594Y-79544852D01*
X202227594Y-71857352D02*
X200590094Y-71857352D01*
X199697594Y-79544852D02*
X202215094Y-79544852D01*
X199652594Y-73794852D02*
X199100094Y-74347352D01*
X199652594Y-72794852D02*
X199652594Y-73794852D01*
D44*
X199000094Y-91647352D02*
X199000094Y-92047352D01*
X199000094Y-92047352D02*
X197040094Y-94007352D01*
X196800094Y-91647352D02*
X196800094Y-93767352D01*
X196800094Y-93767352D02*
X197040094Y-94007352D01*
X199100094Y-91747352D02*
X199000094Y-91647352D01*
X199100094Y-92947352D02*
X199100094Y-91747352D01*
X199000094Y-91647352D02*
X197900094Y-91647352D01*
X197900094Y-91647352D02*
X196800094Y-91647352D01*
X218128844Y-81732352D02*
X218136344Y-81739852D01*
X218136344Y-81739852D02*
X217270094Y-82606102D01*
X217270094Y-89872352D02*
X216055094Y-89872352D01*
X217270094Y-81732352D02*
X218128844Y-81732352D01*
X217270094Y-82606102D02*
X217270094Y-83039852D01*
X217270094Y-83039852D02*
X217270094Y-89872352D01*
X217270094Y-83039852D02*
X217270094Y-81732352D01*
D45*
X211040094Y-84207352D02*
X211100094Y-84147352D01*
X211040094Y-85607352D02*
X211040094Y-84207352D01*
D44*
X220531344Y-67947352D02*
X220558844Y-67919852D01*
X200377594Y-84719852D02*
X199852594Y-84194852D01*
X219300094Y-67947352D02*
X220531344Y-67947352D01*
X199852594Y-84194852D02*
X199002594Y-83344852D01*
X204152594Y-73907352D02*
X204960094Y-73907352D01*
X204960094Y-73907352D02*
X205000094Y-73947352D01*
D45*
X210340094Y-73447352D02*
X210340094Y-72344852D01*
X210340094Y-73447352D02*
X208200094Y-73447352D01*
X208200094Y-73447352D02*
X206200094Y-75447352D01*
X210340094Y-75847352D02*
X210340094Y-73447352D01*
D46*
X195025000Y-133900000D02*
X183600000Y-133900000D01*
X185650000Y-108200000D02*
X196445000Y-108200000D01*
X199840000Y-129085000D02*
X195025000Y-133900000D01*
X185275000Y-102535000D02*
X182520000Y-99780000D01*
X182360000Y-102220000D02*
X182360000Y-102010000D01*
X187130000Y-106990000D02*
X182360000Y-102220000D01*
X196640000Y-104925000D02*
X194575000Y-106990000D01*
X182400000Y-104950000D02*
X185650000Y-108200000D01*
X189610000Y-126005000D02*
X187650000Y-124045000D01*
X182770000Y-117270000D02*
X182360000Y-117680000D01*
X193640000Y-129085000D02*
X191885000Y-130840000D01*
X183600000Y-133900000D02*
X182270000Y-132570000D01*
X187650000Y-124045000D02*
X187650000Y-118120000D01*
X196445000Y-108200000D02*
X199740000Y-104905000D01*
X187650000Y-118120000D02*
X186800000Y-117270000D01*
X182400000Y-104850000D02*
X182400000Y-104950000D01*
X193540000Y-104905000D02*
X191170000Y-102535000D01*
X185730000Y-130840000D02*
X182420000Y-127530000D01*
X191170000Y-102535000D02*
X185275000Y-102535000D01*
X182520000Y-99780000D02*
X182520000Y-99720000D01*
X186800000Y-117270000D02*
X182770000Y-117270000D01*
X191885000Y-130840000D02*
X185730000Y-130840000D01*
X194575000Y-106990000D02*
X187130000Y-106990000D01*
X204850000Y-114640000D02*
X203690000Y-113480000D01*
X206520000Y-110630000D02*
X183470000Y-110630000D01*
X222040000Y-124080000D02*
X222040000Y-122835000D01*
X215490000Y-101660000D02*
X206520000Y-110630000D01*
X222040000Y-125100000D02*
X222040000Y-124080000D01*
X204850000Y-118385000D02*
X204850000Y-114640000D01*
X186170000Y-113480000D02*
X184860000Y-114790000D01*
X193545000Y-132280000D02*
X184650000Y-132280000D01*
X197960000Y-136990000D02*
X182990000Y-136990000D01*
X204850000Y-126005000D02*
X204850000Y-130100000D01*
X202940000Y-129085000D02*
X196575000Y-135450000D01*
X184440000Y-109420000D02*
X182290000Y-107270000D01*
X203690000Y-113480000D02*
X186170000Y-113480000D01*
X184860000Y-114790000D02*
X182570000Y-114790000D01*
X222040000Y-124080000D02*
X222040000Y-127085000D01*
X202840000Y-104905000D02*
X198325000Y-109420000D01*
X209740000Y-114430000D02*
X207410000Y-112100000D01*
X209740000Y-115015000D02*
X209740000Y-114430000D01*
X182570000Y-114790000D02*
X182450000Y-114670000D01*
X182290000Y-107270000D02*
X182290000Y-107180000D01*
X208295000Y-125100000D02*
X222040000Y-125100000D01*
X184650000Y-132280000D02*
X182360000Y-129990000D01*
X207390000Y-126005000D02*
X208295000Y-125100000D01*
X196740000Y-129085000D02*
X193545000Y-132280000D01*
X182800000Y-135450000D02*
X182270000Y-134920000D01*
X196575000Y-135450000D02*
X182800000Y-135450000D01*
X183470000Y-110630000D02*
X182450000Y-109610000D01*
X207410000Y-112100000D02*
X182420000Y-112100000D01*
X182990000Y-136990000D02*
X182440000Y-137540000D01*
X204850000Y-130100000D02*
X197960000Y-136990000D01*
X198325000Y-109420000D02*
X184440000Y-109420000D01*
X182420000Y-112100000D02*
X182360000Y-112160000D01*
X215490000Y-100885000D02*
X215490000Y-101660000D01*
X132350000Y-112650371D02*
X135020000Y-112650371D01*
X168875000Y-149525371D02*
X167375000Y-148025371D01*
X136770000Y-114400371D02*
X143100000Y-114400371D01*
X101425000Y-132925000D02*
X87175000Y-132925000D01*
X85350000Y-119600000D02*
X86355000Y-118595000D01*
X164525000Y-146525371D02*
X164525000Y-147675371D01*
X176350000Y-135570371D02*
X174430000Y-133650371D01*
X86355000Y-118595000D02*
X88220000Y-118595000D01*
X174310000Y-142900371D02*
X174310000Y-143990371D01*
X85350000Y-131100000D02*
X85350000Y-119600000D01*
X172100000Y-138900371D02*
X167425000Y-143575371D01*
X173375000Y-144925371D02*
X166125000Y-144925371D01*
X105100000Y-136600000D02*
X101425000Y-132925000D01*
X145180000Y-109400371D02*
X143100000Y-111480371D01*
X143100000Y-114400371D02*
X156620000Y-114400371D01*
X157085000Y-132915371D02*
X159350000Y-130650371D01*
X174310000Y-143990371D02*
X173375000Y-144925371D01*
X174350000Y-148100371D02*
X172925000Y-149525371D01*
X147350000Y-108900371D02*
X151160000Y-108900371D01*
X136770000Y-104400371D02*
X135020000Y-106150371D01*
X135020000Y-112650371D02*
X136770000Y-114400371D01*
X145180000Y-106730371D02*
X147350000Y-108900371D01*
X87175000Y-132925000D02*
X85350000Y-131100000D01*
X174430000Y-142780371D02*
X174310000Y-142900371D01*
X159350000Y-128650371D02*
X158210000Y-127510371D01*
X143100000Y-111480371D02*
X143100000Y-114400371D01*
X145180000Y-106150371D02*
X145180000Y-106730371D01*
X158210000Y-127510371D02*
X157030000Y-127510371D01*
X156620000Y-114400371D02*
X157030000Y-114810371D01*
X176350000Y-145650371D02*
X176350000Y-135570371D01*
X174350000Y-147650371D02*
X174350000Y-148100371D01*
X154530000Y-112270371D02*
X157030000Y-112270371D01*
X151160000Y-108900371D02*
X154530000Y-112270371D01*
X172925000Y-149525371D02*
X168875000Y-149525371D01*
X174430000Y-138400371D02*
X174430000Y-142780371D01*
X166125000Y-144925371D02*
X164525000Y-146525371D01*
X157085000Y-134150371D02*
X157085000Y-132915371D01*
X159350000Y-130650371D02*
X159350000Y-128650371D01*
X164725000Y-140475371D02*
X155825000Y-140475371D01*
X145180000Y-143900371D02*
X147085000Y-143900371D01*
X138270000Y-151400371D02*
X135020000Y-148150371D01*
X155825000Y-140475371D02*
X154150000Y-142150371D01*
X168600000Y-131650371D02*
X168600000Y-136600371D01*
X174350000Y-147650371D02*
X176350000Y-145650371D01*
X147835000Y-106400371D02*
X145835000Y-104400371D01*
X152800000Y-146650371D02*
X137770000Y-146650371D01*
X145835000Y-104400371D02*
X136770000Y-104400371D01*
X159075000Y-143575371D02*
X151250000Y-151400371D01*
X170350000Y-137650371D02*
X165975000Y-142025371D01*
X145180000Y-139900371D02*
X147600000Y-139900371D01*
X167425000Y-143575371D02*
X159075000Y-143575371D01*
X168800000Y-117350371D02*
X164650000Y-117350371D01*
X165920000Y-124970371D02*
X164650000Y-124970371D01*
X172100000Y-133225371D02*
X172100000Y-120650371D01*
X170350000Y-122525371D02*
X167715000Y-119890371D01*
X132350000Y-135400371D02*
X135100000Y-135400371D01*
X157425000Y-142025371D02*
X152800000Y-146650371D01*
X166850000Y-125900371D02*
X165920000Y-124970371D01*
X132350000Y-143900371D02*
X135020000Y-143900371D01*
X166850000Y-130650371D02*
X166850000Y-125900371D01*
X166850000Y-133400371D02*
X162350000Y-137900371D01*
X132350000Y-139650371D02*
X134770000Y-139650371D01*
X147600000Y-139900371D02*
X147850000Y-140150371D01*
X147585000Y-135400371D02*
X147835000Y-135650371D01*
X166850000Y-130650371D02*
X166850000Y-133400371D01*
X137600000Y-137900371D02*
X135100000Y-135400371D01*
X146850000Y-148150371D02*
X147850000Y-149150371D01*
X134770000Y-139650371D02*
X135020000Y-139900371D01*
X168600000Y-131650371D02*
X168600000Y-124212871D01*
X166817500Y-122430371D02*
X164650000Y-122430371D01*
X132350000Y-148150371D02*
X135020000Y-148150371D01*
X168600000Y-136600371D02*
X164725000Y-140475371D01*
X147085000Y-143900371D02*
X147835000Y-144650371D01*
X172100000Y-120650371D02*
X168800000Y-117350371D01*
X145260000Y-135400371D02*
X147585000Y-135400371D01*
X137770000Y-146650371D02*
X135020000Y-143900371D01*
X168600000Y-124212871D02*
X166817500Y-122430371D01*
X137270000Y-142150371D02*
X135020000Y-139900371D01*
X151250000Y-151400371D02*
X138270000Y-151400371D01*
X170350000Y-132475371D02*
X170350000Y-137650371D01*
X172100000Y-133225371D02*
X172100000Y-138900371D01*
X162350000Y-137900371D02*
X137600000Y-137900371D01*
X145180000Y-148150371D02*
X146850000Y-148150371D01*
D47*
X74520000Y-90815000D02*
X74530000Y-90825000D01*
X59700000Y-92235000D02*
X59700000Y-83685000D01*
X81400000Y-81235000D02*
X83715000Y-83550000D01*
X80140000Y-90715000D02*
X78100000Y-90715000D01*
X81400000Y-76635000D02*
X81400000Y-81235000D01*
X72000000Y-67235000D02*
X71100000Y-66335000D01*
X67450000Y-77535000D02*
X64130000Y-77535000D01*
X63400000Y-80365000D02*
X63400000Y-78225000D01*
X64110000Y-70595000D02*
X64110000Y-77515000D01*
X70400000Y-72035000D02*
X72000000Y-70435000D01*
X60150000Y-81635000D02*
X63400000Y-81635000D01*
X65130000Y-66335000D02*
X64110000Y-67355000D01*
X71100000Y-66335000D02*
X65130000Y-66335000D01*
X62240000Y-92235000D02*
X63860000Y-90615000D01*
X63860000Y-90615000D02*
X67600000Y-90615000D01*
X83715000Y-83550000D02*
X85500000Y-83550000D01*
X60870000Y-67355000D02*
X64110000Y-70595000D01*
X78100000Y-74495000D02*
X77360000Y-75235000D01*
X69950000Y-77535000D02*
X71100000Y-78685000D01*
X59700000Y-83685000D02*
X58900000Y-82885000D01*
X73000000Y-72835000D02*
X72400000Y-73435000D01*
X79260000Y-74495000D02*
X81400000Y-76635000D01*
X78100000Y-74495000D02*
X79260000Y-74495000D01*
X58900000Y-80385000D02*
X60150000Y-81635000D01*
X72000000Y-70435000D02*
X72000000Y-67235000D01*
X71500000Y-75235000D02*
X70400000Y-74135000D01*
X74520000Y-80655000D02*
X71100000Y-80655000D01*
X67400000Y-73435000D02*
X67400000Y-74985000D01*
X85500000Y-73170000D02*
X85165000Y-72835000D01*
X77360000Y-75235000D02*
X71500000Y-75235000D01*
X63400000Y-78225000D02*
X64110000Y-77515000D01*
X81660000Y-92235000D02*
X80140000Y-90715000D01*
X58900000Y-80385000D02*
X58900000Y-79485000D01*
X71100000Y-90815000D02*
X74520000Y-90815000D01*
X71100000Y-78685000D02*
X71100000Y-80655000D01*
X70900000Y-90615000D02*
X71100000Y-90815000D01*
X64130000Y-77535000D02*
X64110000Y-77515000D01*
X67400000Y-74985000D02*
X69950000Y-77535000D01*
D46*
X132850000Y-101150371D02*
X136100000Y-101150371D01*
D45*
X92775000Y-138950000D02*
X97750000Y-138950000D01*
D46*
X132350000Y-101650371D02*
X132850000Y-101150371D01*
X131350000Y-109400371D02*
X129850000Y-107900371D01*
X145180000Y-102650371D02*
X147600000Y-102650371D01*
X137600000Y-102650371D02*
X145180000Y-102650371D01*
X150375000Y-105425371D02*
X150375000Y-106400371D01*
X129850000Y-107900371D02*
X129850000Y-102650371D01*
X135020000Y-109400371D02*
X131350000Y-109400371D01*
X147600000Y-102650371D02*
X150375000Y-105425371D01*
X160775000Y-106975371D02*
X164650000Y-110850371D01*
X97350000Y-72700000D02*
X99770000Y-70280000D01*
X97350000Y-74170000D02*
X97350000Y-72700000D01*
X125850000Y-133400371D02*
X125850000Y-118400371D01*
X92850000Y-114850000D02*
X88975000Y-110975000D01*
X93750000Y-74220000D02*
X93700000Y-74170000D01*
X100360000Y-64010000D02*
X101450000Y-65100000D01*
X102900000Y-79487621D02*
X102900000Y-74170000D01*
X105000000Y-70000000D02*
X105000000Y-89600000D01*
X97400000Y-93080000D02*
X101240000Y-93080000D01*
X97000000Y-79720000D02*
X97000000Y-82520000D01*
X93750000Y-93080000D02*
X97400000Y-93080000D01*
X101550000Y-67740000D02*
X102740000Y-67740000D01*
X97350000Y-64010000D02*
X100360000Y-64010000D01*
X134770000Y-99150371D02*
X135020000Y-99400371D01*
X102217621Y-81987621D02*
X102900000Y-81987621D01*
X93970000Y-78450000D02*
X93750000Y-78670000D01*
X93700000Y-64010000D02*
X97350000Y-64010000D01*
X93750000Y-78670000D02*
X93750000Y-74220000D01*
X102850000Y-101500000D02*
X101525000Y-100175000D01*
X97400000Y-86770000D02*
X99300000Y-88670000D01*
X157030000Y-130970371D02*
X154600000Y-133400371D01*
X97000000Y-82520000D02*
X97400000Y-82920000D01*
X102850000Y-118100000D02*
X102850000Y-101500000D01*
X97000000Y-77180000D02*
X97000000Y-74520000D01*
X102740000Y-67740000D02*
X105000000Y-70000000D01*
X95730000Y-78450000D02*
X98680000Y-78450000D01*
X97000000Y-74520000D02*
X97350000Y-74170000D01*
X99770000Y-70280000D02*
X101550000Y-70280000D01*
X102900000Y-74170000D02*
X101550000Y-72820000D01*
X105000000Y-89600000D02*
X103430000Y-91170000D01*
X97400000Y-82920000D02*
X97400000Y-86770000D01*
X95730000Y-78450000D02*
X93970000Y-78450000D01*
X101240000Y-93080000D02*
X103150000Y-91170000D01*
X103430000Y-91170000D02*
X103150000Y-91170000D01*
X125850000Y-148150371D02*
X125850000Y-133400371D01*
X88975000Y-110975000D02*
X88220000Y-110975000D01*
X99300000Y-88670000D02*
X103150000Y-88670000D01*
X98680000Y-78450000D02*
X102217621Y-81987621D01*
X93750000Y-82920000D02*
X93750000Y-78670000D01*
X125850000Y-107150371D02*
X125850000Y-112650371D01*
X104850000Y-130600000D02*
X109850000Y-135600000D01*
X109850000Y-137600000D02*
X108600000Y-138850000D01*
X157030000Y-130050371D02*
X157030000Y-130970371D01*
X154600000Y-133400371D02*
X125850000Y-133400371D01*
X130600000Y-99150371D02*
X134770000Y-99150371D01*
X128100000Y-104900371D02*
X128100000Y-101650371D01*
X125850000Y-107150371D02*
X128100000Y-104900371D01*
X128100000Y-101650371D02*
X130600000Y-99150371D01*
X92850000Y-118100000D02*
X92850000Y-114850000D01*
X125850000Y-118400371D02*
X125850000Y-112650371D01*
X89275000Y-138850000D02*
X86700000Y-138850000D01*
X85605000Y-137755000D02*
X85605000Y-136600000D01*
X90525000Y-135675000D02*
X90525000Y-137600000D01*
X100275000Y-135425000D02*
X99025000Y-134175000D01*
X132350000Y-107150371D02*
X132350000Y-105320371D01*
X100275000Y-137425000D02*
X100275000Y-135425000D01*
X104850000Y-124600000D02*
X104850000Y-130600000D01*
X99025000Y-134175000D02*
X92025000Y-134175000D01*
X90525000Y-137600000D02*
X89275000Y-138850000D01*
X101700000Y-138850000D02*
X100275000Y-137425000D01*
X109850000Y-135600000D02*
X109850000Y-137600000D01*
X92025000Y-134175000D02*
X90525000Y-135675000D01*
X108600000Y-138850000D02*
X101700000Y-138850000D01*
X132350000Y-105320371D02*
X135020000Y-102650371D01*
X135020000Y-126900371D02*
X137520000Y-124400371D01*
X153070000Y-122430371D02*
X157030000Y-122430371D01*
X132350000Y-131150371D02*
X135020000Y-131150371D01*
D45*
X159525000Y-107475371D02*
X159525000Y-101975371D01*
D46*
X145180000Y-131150371D02*
X147835000Y-131150371D01*
D45*
X160275000Y-110725371D02*
X157275000Y-107725371D01*
X161275000Y-120725371D02*
X161275000Y-110475371D01*
D46*
X147600000Y-126900371D02*
X147850000Y-126650371D01*
D45*
X159110000Y-119890371D02*
X160275000Y-118725371D01*
D46*
X135020000Y-131150371D02*
X137270000Y-128900371D01*
D45*
X160275000Y-118725371D02*
X160275000Y-110725371D01*
D46*
X170350000Y-132475371D02*
X170350000Y-122525371D01*
D45*
X158400000Y-117350371D02*
X159275000Y-116475371D01*
D46*
X145180000Y-126900371D02*
X147600000Y-126900371D01*
D45*
X157775000Y-100225371D02*
X157775000Y-99975371D01*
D46*
X167715000Y-119890371D02*
X164650000Y-119890371D01*
D45*
X159525000Y-101975371D02*
X157775000Y-100225371D01*
D46*
X154150000Y-142150371D02*
X137270000Y-142150371D01*
X135100000Y-122650371D02*
X137600000Y-120150371D01*
X151100000Y-128900371D02*
X155030000Y-124970371D01*
D45*
X162275000Y-110225371D02*
X159525000Y-107475371D01*
X157030000Y-119890371D02*
X159110000Y-119890371D01*
X158275000Y-103225371D02*
X155275000Y-100225371D01*
X160530000Y-124970371D02*
X162275000Y-123225371D01*
D46*
X132350000Y-118400371D02*
X135020000Y-118400371D01*
X137520000Y-124400371D02*
X151100000Y-124400371D01*
X145260000Y-122650371D02*
X147335000Y-122650371D01*
X132350000Y-126900371D02*
X135020000Y-126900371D01*
D45*
X157275000Y-104725371D02*
X152775000Y-100225371D01*
X162275000Y-123225371D02*
X162275000Y-110225371D01*
D46*
X156770000Y-120150371D02*
X157030000Y-119890371D01*
D45*
X157030000Y-124970371D02*
X160530000Y-124970371D01*
X157275000Y-107725371D02*
X157275000Y-104725371D01*
D46*
X135020000Y-118400371D02*
X137520000Y-115900371D01*
X137600000Y-120150371D02*
X156770000Y-120150371D01*
D45*
X159275000Y-116475371D02*
X159275000Y-110975371D01*
D46*
X153300000Y-117350371D02*
X157030000Y-117350371D01*
X147335000Y-122650371D02*
X147835000Y-122150371D01*
D45*
X159570000Y-122430371D02*
X161275000Y-120725371D01*
D46*
X132350000Y-122650371D02*
X135100000Y-122650371D01*
X165975000Y-142025371D02*
X157425000Y-142025371D01*
D45*
X161275000Y-110475371D02*
X158275000Y-107475371D01*
D46*
X155030000Y-124970371D02*
X157030000Y-124970371D01*
X137270000Y-128900371D02*
X151100000Y-128900371D01*
X129850000Y-97650371D02*
X135600000Y-97650371D01*
X145180000Y-118400371D02*
X147060000Y-118400371D01*
X125850000Y-101650371D02*
X129850000Y-97650371D01*
X164270000Y-130430371D02*
X164650000Y-130050371D01*
X151100000Y-124400371D02*
X153070000Y-122430371D01*
X135600000Y-97650371D02*
X137350000Y-99400371D01*
X137350000Y-99400371D02*
X145180000Y-99400371D01*
X164270000Y-133650371D02*
X164270000Y-130430371D01*
D45*
X157030000Y-122430371D02*
X159570000Y-122430371D01*
X158275000Y-107475371D02*
X158275000Y-103225371D01*
D46*
X86700000Y-138850000D02*
X85605000Y-137755000D01*
X146585000Y-112650371D02*
X147835000Y-111400371D01*
D45*
X156025000Y-105725371D02*
X150275000Y-99975371D01*
D46*
X147060000Y-118400371D02*
X147810000Y-117650371D01*
D45*
X159275000Y-110975371D02*
X156025000Y-107725371D01*
D46*
X102850000Y-122600000D02*
X104850000Y-124600000D01*
D45*
X157030000Y-117350371D02*
X158400000Y-117350371D01*
D46*
X137520000Y-115900371D02*
X151850000Y-115900371D01*
D45*
X156025000Y-107725371D02*
X156025000Y-105725371D01*
D46*
X78350000Y-112600000D02*
X78350000Y-109600000D01*
X78350000Y-107350000D02*
X83350000Y-107350000D01*
X79265000Y-113515000D02*
X78350000Y-112600000D01*
X79100000Y-108850000D02*
X84350000Y-108850000D01*
X83350000Y-107350000D02*
X88025000Y-102675000D01*
X76850000Y-108850000D02*
X78350000Y-107350000D01*
X75220000Y-128100000D02*
X72850000Y-128100000D01*
X75850000Y-107600000D02*
X77600000Y-105850000D01*
X88025000Y-102675000D02*
X88025000Y-100220000D01*
X75220000Y-123650000D02*
X72900000Y-123650000D01*
X75430000Y-132600000D02*
X71350000Y-132600000D01*
X67850000Y-103100000D02*
X71850000Y-99100000D01*
X76985000Y-99100000D02*
X77985000Y-100100000D01*
X71350000Y-132600000D02*
X67850000Y-129100000D01*
X67850000Y-129100000D02*
X67850000Y-103100000D01*
X77100000Y-104350000D02*
X79850000Y-104350000D01*
X73100000Y-108850000D02*
X74350000Y-107600000D01*
X71850000Y-99100000D02*
X76985000Y-99100000D01*
X90685000Y-102515000D02*
X90685000Y-100100000D01*
X83025000Y-100140000D02*
X83065000Y-100100000D01*
X76600000Y-103850000D02*
X77100000Y-104350000D01*
X71350000Y-106975000D02*
X74475000Y-103850000D01*
X83025000Y-101175000D02*
X83025000Y-100140000D01*
X74350000Y-107600000D02*
X75850000Y-107600000D01*
X76850000Y-113035000D02*
X76850000Y-108850000D01*
X79850000Y-104350000D02*
X83025000Y-101175000D01*
X75235000Y-119250000D02*
X73100000Y-117115000D01*
X72850000Y-128100000D02*
X69600000Y-124850000D01*
X84725000Y-110975000D02*
X93225000Y-102475000D01*
X80600000Y-113515000D02*
X79265000Y-113515000D01*
X78350000Y-109600000D02*
X79100000Y-108850000D01*
X85605000Y-103095000D02*
X85605000Y-100100000D01*
X77600000Y-105850000D02*
X82850000Y-105850000D01*
X80600000Y-110975000D02*
X84725000Y-110975000D01*
X145180000Y-112650371D02*
X146585000Y-112650371D01*
X69600000Y-124850000D02*
X69600000Y-105100000D01*
X151850000Y-115900371D02*
X153300000Y-117350371D01*
X75235000Y-114650000D02*
X76850000Y-113035000D01*
X69600000Y-105100000D02*
X72100000Y-102600000D01*
X82850000Y-105850000D02*
X85605000Y-103095000D01*
X79100000Y-102600000D02*
X80525000Y-101175000D01*
X74475000Y-103850000D02*
X76600000Y-103850000D01*
X171770000Y-147610371D02*
X171810000Y-147650371D01*
X72900000Y-123650000D02*
X71350000Y-122100000D01*
X73100000Y-117115000D02*
X73100000Y-108850000D01*
X93225000Y-102475000D02*
X93225000Y-100100000D01*
X71350000Y-122100000D02*
X71350000Y-106975000D01*
X72100000Y-102600000D02*
X79100000Y-102600000D01*
X80525000Y-101175000D02*
X80525000Y-100100000D01*
X84350000Y-108850000D02*
X90685000Y-102515000D01*
X136100000Y-101150371D02*
X137600000Y-102650371D01*
X88025000Y-100220000D02*
X88145000Y-100100000D01*
X129850000Y-102650371D02*
X130850000Y-101650371D01*
X130850000Y-101650371D02*
X132350000Y-101650371D01*
X164650000Y-110850371D02*
X164650000Y-112270371D01*
D47*
X78100000Y-90715000D02*
X74640000Y-90715000D01*
X69900000Y-68435000D02*
X69200000Y-69135000D01*
X63400000Y-82905000D02*
X65150000Y-82905000D01*
X78100000Y-77035000D02*
X78100000Y-80555000D01*
X85500000Y-75710000D02*
X85500000Y-81010000D01*
X69200000Y-69135000D02*
X69200000Y-74635000D01*
X75600000Y-78635000D02*
X76500000Y-79535000D01*
X73200000Y-78635000D02*
X75600000Y-78635000D01*
X84200000Y-90735000D02*
X84200000Y-92235000D01*
X76500000Y-79535000D02*
X76500000Y-83035000D01*
X67600000Y-90615000D02*
X70900000Y-90615000D01*
X74530000Y-80665000D02*
X74520000Y-80655000D01*
X58900000Y-79485000D02*
X60870000Y-77515000D01*
X76500000Y-83035000D02*
X84200000Y-90735000D01*
X65150000Y-82905000D02*
X67600000Y-80455000D01*
X69200000Y-74635000D02*
X73200000Y-78635000D01*
X74640000Y-90715000D02*
X74530000Y-90825000D01*
X85165000Y-72835000D02*
X73000000Y-72835000D01*
X70400000Y-74135000D02*
X70400000Y-72035000D01*
%TD*%
%TA.AperFunction,NonConductor*%
G36*
X116600856Y-96600012D02*
G01*
X116762256Y-96602275D01*
X116774402Y-96603043D01*
X117095992Y-96639278D01*
X117109700Y-96641607D01*
X117424366Y-96713427D01*
X117437729Y-96717276D01*
X117742386Y-96823880D01*
X117755233Y-96829202D01*
X118046025Y-96969240D01*
X118058195Y-96975966D01*
X118331486Y-97147686D01*
X118342827Y-97155733D01*
X118595173Y-97356972D01*
X118605541Y-97366238D01*
X118833762Y-97594459D01*
X118843028Y-97604827D01*
X119044267Y-97857173D01*
X119052314Y-97868514D01*
X119224034Y-98141805D01*
X119230760Y-98153975D01*
X119370798Y-98444767D01*
X119376120Y-98457614D01*
X119482724Y-98762271D01*
X119486573Y-98775634D01*
X119558393Y-99090300D01*
X119560722Y-99104008D01*
X119596957Y-99425598D01*
X119597725Y-99437744D01*
X119599988Y-99599145D01*
X119600000Y-99600883D01*
X119600000Y-137599118D01*
X119599988Y-137600856D01*
X119597725Y-137762257D01*
X119596957Y-137774403D01*
X119560722Y-138095993D01*
X119558393Y-138109701D01*
X119486573Y-138424367D01*
X119482724Y-138437730D01*
X119376120Y-138742387D01*
X119370798Y-138755234D01*
X119230760Y-139046026D01*
X119224034Y-139058196D01*
X119052314Y-139331487D01*
X119044267Y-139342828D01*
X118843028Y-139595174D01*
X118833762Y-139605542D01*
X118605541Y-139833763D01*
X118595173Y-139843029D01*
X118342827Y-140044268D01*
X118331486Y-140052315D01*
X118058195Y-140224035D01*
X118046026Y-140230761D01*
X117755228Y-140370801D01*
X117742392Y-140376119D01*
X117437725Y-140482727D01*
X117424366Y-140486574D01*
X117109700Y-140558394D01*
X117095992Y-140560723D01*
X116774390Y-140596959D01*
X116762269Y-140597726D01*
X116600856Y-140599988D01*
X116599118Y-140600000D01*
X59600882Y-140600000D01*
X59599144Y-140599988D01*
X59437729Y-140597726D01*
X59425610Y-140596959D01*
X59104005Y-140560723D01*
X59090299Y-140558394D01*
X58993293Y-140536254D01*
X58775627Y-140486573D01*
X58762279Y-140482728D01*
X58457601Y-140376117D01*
X58444777Y-140370804D01*
X58153965Y-140230757D01*
X58141813Y-140224041D01*
X57868501Y-140052307D01*
X57857183Y-140044277D01*
X57604816Y-139843021D01*
X57594467Y-139833772D01*
X57366228Y-139605533D01*
X57356979Y-139595184D01*
X57155723Y-139342817D01*
X57147693Y-139331499D01*
X56975959Y-139058187D01*
X56969243Y-139046035D01*
X56829196Y-138755223D01*
X56823883Y-138742399D01*
X56717272Y-138437721D01*
X56713426Y-138424367D01*
X56696451Y-138349995D01*
X61186673Y-138349995D01*
X61186673Y-138350006D01*
X61205948Y-138582623D01*
X61263251Y-138808908D01*
X61357015Y-139022669D01*
X61484686Y-139218085D01*
X61642776Y-139389815D01*
X61642781Y-139389819D01*
X61826985Y-139533192D01*
X61826988Y-139533194D01*
X62032266Y-139644284D01*
X62032280Y-139644290D01*
X62253045Y-139720080D01*
X62437240Y-139750816D01*
X62483288Y-139758500D01*
X62483289Y-139758500D01*
X62716711Y-139758500D01*
X62716712Y-139758500D01*
X62805296Y-139743718D01*
X62946954Y-139720080D01*
X63167719Y-139644290D01*
X63167721Y-139644289D01*
X63167727Y-139644287D01*
X63187928Y-139633355D01*
X63373011Y-139533194D01*
X63373014Y-139533192D01*
X63373017Y-139533190D01*
X63557220Y-139389818D01*
X63588170Y-139356198D01*
X63715313Y-139218085D01*
X63759935Y-139149785D01*
X63813081Y-139104428D01*
X63882312Y-139095004D01*
X63945648Y-139124505D01*
X63965317Y-139146480D01*
X63998803Y-139194302D01*
X64160695Y-139356194D01*
X64160698Y-139356197D01*
X64160700Y-139356198D01*
X64208716Y-139389819D01*
X64348252Y-139487524D01*
X64348254Y-139487525D01*
X64555750Y-139584282D01*
X64555761Y-139584286D01*
X64776910Y-139643543D01*
X64776918Y-139643544D01*
X65004998Y-139663498D01*
X65005000Y-139663498D01*
X65005002Y-139663498D01*
X65233081Y-139643544D01*
X65233089Y-139643543D01*
X65454238Y-139584286D01*
X65454249Y-139584282D01*
X65661745Y-139487525D01*
X65661747Y-139487524D01*
X65661749Y-139487523D01*
X65849300Y-139356198D01*
X66011198Y-139194300D01*
X66142523Y-139006749D01*
X66239284Y-138799243D01*
X66298543Y-138578087D01*
X66314309Y-138397881D01*
X66318498Y-138350002D01*
X66318498Y-138349999D01*
X73851502Y-138349999D01*
X73851502Y-138350002D01*
X73871456Y-138578082D01*
X73871457Y-138578090D01*
X73930714Y-138799239D01*
X73930718Y-138799250D01*
X74027475Y-139006746D01*
X74027476Y-139006748D01*
X74158806Y-139194305D01*
X74320695Y-139356194D01*
X74320698Y-139356197D01*
X74320700Y-139356198D01*
X74368716Y-139389819D01*
X74508252Y-139487524D01*
X74508254Y-139487525D01*
X74715750Y-139584282D01*
X74715761Y-139584286D01*
X74936910Y-139643543D01*
X74936918Y-139643544D01*
X75164998Y-139663498D01*
X75165000Y-139663498D01*
X75165002Y-139663498D01*
X75393081Y-139643544D01*
X75393089Y-139643543D01*
X75614238Y-139584286D01*
X75614249Y-139584282D01*
X75821745Y-139487525D01*
X75821747Y-139487524D01*
X75821749Y-139487523D01*
X76009300Y-139356198D01*
X76171198Y-139194300D01*
X76302523Y-139006749D01*
X76399284Y-138799243D01*
X76458543Y-138578087D01*
X76474309Y-138397881D01*
X76478498Y-138350002D01*
X76478498Y-138349999D01*
X76475647Y-138317417D01*
X76458543Y-138121913D01*
X76399284Y-137900757D01*
X76302523Y-137693251D01*
X76171198Y-137505700D01*
X76009300Y-137343802D01*
X75821749Y-137212477D01*
X75614243Y-137115716D01*
X75393087Y-137056457D01*
X75222021Y-137041491D01*
X75165002Y-137036502D01*
X75164998Y-137036502D01*
X75099832Y-137042204D01*
X74936913Y-137056457D01*
X74715757Y-137115716D01*
X74715752Y-137115719D01*
X74715750Y-137115719D01*
X74686748Y-137129243D01*
X74508251Y-137212477D01*
X74320700Y-137343802D01*
X74158802Y-137505700D01*
X74032416Y-137686198D01*
X74027476Y-137693253D01*
X74027475Y-137693255D01*
X73930718Y-137900751D01*
X73930714Y-137900762D01*
X73871457Y-138121911D01*
X73871456Y-138121919D01*
X73851502Y-138349999D01*
X66318498Y-138349999D01*
X66315647Y-138317417D01*
X66298543Y-138121913D01*
X66239284Y-137900757D01*
X66142523Y-137693251D01*
X66011198Y-137505700D01*
X65849300Y-137343802D01*
X65661749Y-137212477D01*
X65454243Y-137115716D01*
X65233087Y-137056457D01*
X65062021Y-137041491D01*
X65005002Y-137036502D01*
X65004998Y-137036502D01*
X64939832Y-137042204D01*
X64776913Y-137056457D01*
X64555757Y-137115716D01*
X64555752Y-137115719D01*
X64555750Y-137115719D01*
X64526748Y-137129243D01*
X64348251Y-137212477D01*
X64160700Y-137343802D01*
X63998802Y-137505700D01*
X63978818Y-137534240D01*
X63965318Y-137553520D01*
X63910740Y-137597144D01*
X63841242Y-137604336D01*
X63778888Y-137572813D01*
X63759939Y-137550222D01*
X63715314Y-137481917D01*
X63557220Y-137310182D01*
X63373017Y-137166810D01*
X63167727Y-137055713D01*
X62946951Y-136979920D01*
X62716712Y-136941500D01*
X62483288Y-136941500D01*
X62253049Y-136979920D01*
X62253047Y-136979921D01*
X62253045Y-136979921D01*
X62146914Y-137016357D01*
X62032273Y-137055713D01*
X62026582Y-137058793D01*
X61826988Y-137166807D01*
X61826985Y-137166809D01*
X61826983Y-137166810D01*
X61642780Y-137310182D01*
X61642777Y-137310186D01*
X61642776Y-137310186D01*
X61484686Y-137481916D01*
X61357015Y-137677332D01*
X61263251Y-137891093D01*
X61205948Y-138117378D01*
X61186673Y-138349995D01*
X56696451Y-138349995D01*
X56641606Y-138109701D01*
X56639277Y-138095993D01*
X56634001Y-138049167D01*
X56603041Y-137774390D01*
X56602274Y-137762271D01*
X56600011Y-137600856D01*
X56600000Y-137599118D01*
X56600000Y-132649995D01*
X61186673Y-132649995D01*
X61186673Y-132650006D01*
X61205948Y-132882623D01*
X61263251Y-133108908D01*
X61357015Y-133322669D01*
X61484686Y-133518085D01*
X61642776Y-133689815D01*
X61642781Y-133689819D01*
X61826985Y-133833192D01*
X61826988Y-133833194D01*
X62032266Y-133944284D01*
X62032280Y-133944290D01*
X62253045Y-134020080D01*
X62437240Y-134050816D01*
X62483288Y-134058500D01*
X62483289Y-134058500D01*
X62716711Y-134058500D01*
X62716712Y-134058500D01*
X62774271Y-134048895D01*
X62946954Y-134020080D01*
X63167719Y-133944290D01*
X63167721Y-133944289D01*
X63167727Y-133944287D01*
X63187660Y-133933500D01*
X63373011Y-133833194D01*
X63373014Y-133833192D01*
X63495926Y-133737525D01*
X63557220Y-133689818D01*
X63557223Y-133689815D01*
X63715313Y-133518085D01*
X63842984Y-133322669D01*
X63871900Y-133256748D01*
X63888103Y-133219808D01*
X63933059Y-133166322D01*
X63999795Y-133145632D01*
X64067123Y-133164307D01*
X64113666Y-133216417D01*
X64114041Y-133217213D01*
X64132476Y-133256749D01*
X64263806Y-133444305D01*
X64425695Y-133606194D01*
X64425698Y-133606197D01*
X64425700Y-133606198D01*
X64428988Y-133608500D01*
X64613252Y-133737524D01*
X64613254Y-133737525D01*
X64820750Y-133834282D01*
X64820761Y-133834286D01*
X65041910Y-133893543D01*
X65041918Y-133893544D01*
X65269998Y-133913498D01*
X65270000Y-133913498D01*
X65270002Y-133913498D01*
X65498081Y-133893544D01*
X65498089Y-133893543D01*
X65719238Y-133834286D01*
X65719249Y-133834282D01*
X65926745Y-133737525D01*
X65926747Y-133737524D01*
X65926749Y-133737523D01*
X66114300Y-133606198D01*
X66276198Y-133444300D01*
X66407523Y-133256749D01*
X66504284Y-133049243D01*
X66563543Y-132828087D01*
X66582346Y-132613165D01*
X66583498Y-132600002D01*
X66583498Y-132599999D01*
X66570221Y-132448241D01*
X66563543Y-132371913D01*
X66504284Y-132150757D01*
X66407523Y-131943251D01*
X66276198Y-131755700D01*
X66114300Y-131593802D01*
X65926749Y-131462477D01*
X65719243Y-131365716D01*
X65681926Y-131355717D01*
X65672505Y-131353193D01*
X65498087Y-131306457D01*
X65327021Y-131291491D01*
X65270002Y-131286502D01*
X65269998Y-131286502D01*
X65204832Y-131292204D01*
X65041913Y-131306457D01*
X64906563Y-131342725D01*
X64858074Y-131355717D01*
X64820757Y-131365716D01*
X64820752Y-131365719D01*
X64820750Y-131365719D01*
X64759741Y-131394168D01*
X64613251Y-131462477D01*
X64425700Y-131593802D01*
X64263802Y-131755700D01*
X64176639Y-131880181D01*
X64132476Y-131943252D01*
X64091438Y-132031259D01*
X64045265Y-132083698D01*
X63978072Y-132102850D01*
X63911191Y-132082634D01*
X63865856Y-132029469D01*
X63865609Y-132028913D01*
X63842984Y-131977331D01*
X63715314Y-131781917D01*
X63557220Y-131610182D01*
X63373017Y-131466810D01*
X63167727Y-131355713D01*
X62946951Y-131279920D01*
X62716712Y-131241500D01*
X62483288Y-131241500D01*
X62253049Y-131279920D01*
X62253047Y-131279921D01*
X62253045Y-131279921D01*
X62233876Y-131286502D01*
X62032273Y-131355713D01*
X61946331Y-131402223D01*
X61826988Y-131466807D01*
X61826985Y-131466809D01*
X61826983Y-131466810D01*
X61642780Y-131610182D01*
X61642777Y-131610186D01*
X61642776Y-131610186D01*
X61484686Y-131781916D01*
X61357015Y-131977332D01*
X61263251Y-132191093D01*
X61205948Y-132417378D01*
X61186673Y-132649995D01*
X56600000Y-132649995D01*
X56600000Y-128099995D01*
X61226673Y-128099995D01*
X61226673Y-128100006D01*
X61245948Y-128332623D01*
X61303251Y-128558908D01*
X61397015Y-128772669D01*
X61524686Y-128968085D01*
X61682776Y-129139815D01*
X61682781Y-129139819D01*
X61866985Y-129283192D01*
X61866988Y-129283194D01*
X62072266Y-129394284D01*
X62072280Y-129394290D01*
X62293045Y-129470080D01*
X62477240Y-129500816D01*
X62523288Y-129508500D01*
X62523289Y-129508500D01*
X62756711Y-129508500D01*
X62756712Y-129508500D01*
X62814271Y-129498895D01*
X62986954Y-129470080D01*
X63207719Y-129394290D01*
X63207721Y-129394289D01*
X63207727Y-129394287D01*
X63207733Y-129394284D01*
X63413011Y-129283194D01*
X63413014Y-129283192D01*
X63424485Y-129274264D01*
X63597220Y-129139818D01*
X63607929Y-129128185D01*
X63755311Y-128968087D01*
X63770850Y-128944304D01*
X63807176Y-128888702D01*
X63860323Y-128843346D01*
X63929554Y-128833922D01*
X63992890Y-128863424D01*
X64012559Y-128885399D01*
X64053805Y-128944304D01*
X64215695Y-129106194D01*
X64215698Y-129106197D01*
X64215700Y-129106198D01*
X64321887Y-129180551D01*
X64403252Y-129237524D01*
X64403254Y-129237525D01*
X64610750Y-129334282D01*
X64610761Y-129334286D01*
X64831910Y-129393543D01*
X64831918Y-129393544D01*
X65059998Y-129413498D01*
X65060000Y-129413498D01*
X65060002Y-129413498D01*
X65288081Y-129393544D01*
X65288089Y-129393543D01*
X65509238Y-129334286D01*
X65509249Y-129334282D01*
X65716745Y-129237525D01*
X65716747Y-129237524D01*
X65716749Y-129237523D01*
X65904300Y-129106198D01*
X66066198Y-128944300D01*
X66197523Y-128756749D01*
X66294284Y-128549243D01*
X66353543Y-128328087D01*
X66372346Y-128113165D01*
X66373498Y-128100002D01*
X66373498Y-128099999D01*
X66360221Y-127948241D01*
X66353543Y-127871913D01*
X66294284Y-127650757D01*
X66197523Y-127443251D01*
X66066198Y-127255700D01*
X65904300Y-127093802D01*
X65716749Y-126962477D01*
X65509243Y-126865716D01*
X65288087Y-126806457D01*
X65117021Y-126791491D01*
X65060002Y-126786502D01*
X65059998Y-126786502D01*
X64994832Y-126792204D01*
X64831913Y-126806457D01*
X64610757Y-126865716D01*
X64610752Y-126865719D01*
X64610750Y-126865719D01*
X64535512Y-126900803D01*
X64403251Y-126962477D01*
X64215700Y-127093802D01*
X64053802Y-127255700D01*
X64012557Y-127314603D01*
X63957983Y-127358226D01*
X63888484Y-127365418D01*
X63826130Y-127333896D01*
X63807176Y-127311298D01*
X63770852Y-127255700D01*
X63755314Y-127231917D01*
X63597220Y-127060182D01*
X63413017Y-126916810D01*
X63207727Y-126805713D01*
X62986951Y-126729920D01*
X62756712Y-126691500D01*
X62523288Y-126691500D01*
X62293049Y-126729920D01*
X62293047Y-126729921D01*
X62293045Y-126729921D01*
X62186914Y-126766357D01*
X62072273Y-126805713D01*
X62014994Y-126836711D01*
X61866988Y-126916807D01*
X61866985Y-126916809D01*
X61866983Y-126916810D01*
X61682780Y-127060182D01*
X61682777Y-127060186D01*
X61682776Y-127060186D01*
X61524686Y-127231916D01*
X61397015Y-127427332D01*
X61303251Y-127641093D01*
X61245948Y-127867378D01*
X61226673Y-128099995D01*
X56600000Y-128099995D01*
X56600000Y-123599995D01*
X61226673Y-123599995D01*
X61226673Y-123600006D01*
X61245948Y-123832623D01*
X61303251Y-124058908D01*
X61397015Y-124272669D01*
X61524686Y-124468085D01*
X61682776Y-124639815D01*
X61682781Y-124639819D01*
X61866985Y-124783192D01*
X61866988Y-124783194D01*
X62072266Y-124894284D01*
X62072280Y-124894290D01*
X62293045Y-124970080D01*
X62477240Y-125000816D01*
X62523288Y-125008500D01*
X62523289Y-125008500D01*
X62756711Y-125008500D01*
X62756712Y-125008500D01*
X62814271Y-124998895D01*
X62986954Y-124970080D01*
X63207719Y-124894290D01*
X63207721Y-124894289D01*
X63207727Y-124894287D01*
X63220021Y-124887634D01*
X63413011Y-124783194D01*
X63413014Y-124783192D01*
X63413017Y-124783190D01*
X63597220Y-124639818D01*
X63615700Y-124619744D01*
X63755311Y-124468087D01*
X63790277Y-124414568D01*
X63843424Y-124369212D01*
X63912655Y-124359788D01*
X63975991Y-124389290D01*
X63995660Y-124411266D01*
X64053802Y-124494301D01*
X64215695Y-124656194D01*
X64215698Y-124656197D01*
X64215700Y-124656198D01*
X64247101Y-124678185D01*
X64403252Y-124787524D01*
X64403254Y-124787525D01*
X64610750Y-124884282D01*
X64610761Y-124884286D01*
X64831910Y-124943543D01*
X64831918Y-124943544D01*
X65059998Y-124963498D01*
X65060000Y-124963498D01*
X65060002Y-124963498D01*
X65288081Y-124943544D01*
X65288089Y-124943543D01*
X65509238Y-124884286D01*
X65509249Y-124884282D01*
X65716745Y-124787525D01*
X65716747Y-124787524D01*
X65716749Y-124787523D01*
X65904300Y-124656198D01*
X66066198Y-124494300D01*
X66197523Y-124306749D01*
X66267844Y-124155945D01*
X66294281Y-124099250D01*
X66294285Y-124099239D01*
X66353543Y-123878087D01*
X66370331Y-123686198D01*
X66373498Y-123650002D01*
X66373498Y-123649999D01*
X66366676Y-123572020D01*
X66353543Y-123421913D01*
X66294284Y-123200757D01*
X66197523Y-122993251D01*
X66066198Y-122805700D01*
X65904300Y-122643802D01*
X65716749Y-122512477D01*
X65509243Y-122415716D01*
X65288087Y-122356457D01*
X65117021Y-122341491D01*
X65060002Y-122336502D01*
X65059998Y-122336502D01*
X64994832Y-122342204D01*
X64831913Y-122356457D01*
X64610757Y-122415716D01*
X64610752Y-122415719D01*
X64610750Y-122415719D01*
X64533136Y-122451911D01*
X64403251Y-122512477D01*
X64215700Y-122643802D01*
X64053802Y-122805700D01*
X64029456Y-122840470D01*
X63974882Y-122884092D01*
X63905383Y-122891284D01*
X63843029Y-122859762D01*
X63824075Y-122837164D01*
X63755313Y-122731916D01*
X63708063Y-122680589D01*
X63597220Y-122560182D01*
X63413017Y-122416810D01*
X63207727Y-122305713D01*
X62986951Y-122229920D01*
X62756712Y-122191500D01*
X62523288Y-122191500D01*
X62293049Y-122229920D01*
X62293047Y-122229921D01*
X62293045Y-122229921D01*
X62222537Y-122254127D01*
X62072273Y-122305713D01*
X62072266Y-122305717D01*
X61866988Y-122416807D01*
X61866985Y-122416809D01*
X61866983Y-122416810D01*
X61682780Y-122560182D01*
X61682777Y-122560186D01*
X61682776Y-122560186D01*
X61524686Y-122731916D01*
X61397015Y-122927332D01*
X61303251Y-123141093D01*
X61245948Y-123367378D01*
X61226673Y-123599995D01*
X56600000Y-123599995D01*
X56600000Y-119149995D01*
X61241673Y-119149995D01*
X61241673Y-119150006D01*
X61260948Y-119382623D01*
X61318251Y-119608908D01*
X61412015Y-119822669D01*
X61539686Y-120018085D01*
X61697776Y-120189815D01*
X61697781Y-120189819D01*
X61881985Y-120333192D01*
X61881988Y-120333194D01*
X62087266Y-120444284D01*
X62087280Y-120444290D01*
X62308045Y-120520080D01*
X62492240Y-120550816D01*
X62538288Y-120558500D01*
X62538289Y-120558500D01*
X62771711Y-120558500D01*
X62771712Y-120558500D01*
X62861345Y-120543543D01*
X63001954Y-120520080D01*
X63222719Y-120444290D01*
X63222721Y-120444289D01*
X63222727Y-120444287D01*
X63222733Y-120444284D01*
X63428011Y-120333194D01*
X63428014Y-120333192D01*
X63493044Y-120282577D01*
X63612220Y-120189818D01*
X63612223Y-120189815D01*
X63770315Y-120018083D01*
X63770316Y-120018082D01*
X63788379Y-119990434D01*
X63841525Y-119945077D01*
X63910757Y-119935654D01*
X63974092Y-119965156D01*
X63993761Y-119987132D01*
X64068802Y-120094301D01*
X64230695Y-120256194D01*
X64230698Y-120256197D01*
X64230700Y-120256198D01*
X64268363Y-120282570D01*
X64418252Y-120387524D01*
X64418254Y-120387525D01*
X64625750Y-120484282D01*
X64625761Y-120484286D01*
X64846910Y-120543543D01*
X64846918Y-120543544D01*
X65074998Y-120563498D01*
X65075000Y-120563498D01*
X65075002Y-120563498D01*
X65303081Y-120543544D01*
X65303089Y-120543543D01*
X65524238Y-120484286D01*
X65524249Y-120484282D01*
X65731745Y-120387525D01*
X65731747Y-120387524D01*
X65731749Y-120387523D01*
X65919300Y-120256198D01*
X66081198Y-120094300D01*
X66212523Y-119906749D01*
X66283510Y-119754516D01*
X66309281Y-119699250D01*
X66309285Y-119699239D01*
X66334938Y-119603500D01*
X66368543Y-119478087D01*
X66388498Y-119250000D01*
X66368543Y-119021913D01*
X66309284Y-118800757D01*
X66212523Y-118593251D01*
X66081198Y-118405700D01*
X65919300Y-118243802D01*
X65731749Y-118112477D01*
X65524243Y-118015716D01*
X65303087Y-117956457D01*
X65132021Y-117941491D01*
X65075002Y-117936502D01*
X65074998Y-117936502D01*
X65009832Y-117942204D01*
X64846913Y-117956457D01*
X64625757Y-118015716D01*
X64625752Y-118015719D01*
X64625750Y-118015719D01*
X64590711Y-118032058D01*
X64418251Y-118112477D01*
X64230700Y-118243802D01*
X64068802Y-118405700D01*
X64061356Y-118416334D01*
X64006781Y-118459957D01*
X63937283Y-118467151D01*
X63874928Y-118435628D01*
X63855974Y-118413030D01*
X63851185Y-118405700D01*
X63770314Y-118281917D01*
X63612220Y-118110182D01*
X63428017Y-117966810D01*
X63222727Y-117855713D01*
X63001951Y-117779920D01*
X62771712Y-117741500D01*
X62538288Y-117741500D01*
X62308049Y-117779920D01*
X62308047Y-117779921D01*
X62308045Y-117779921D01*
X62250333Y-117799734D01*
X62087273Y-117855713D01*
X62073274Y-117863289D01*
X61881988Y-117966807D01*
X61881985Y-117966809D01*
X61881983Y-117966810D01*
X61697780Y-118110182D01*
X61697777Y-118110186D01*
X61697776Y-118110186D01*
X61539686Y-118281916D01*
X61412015Y-118477332D01*
X61318251Y-118691093D01*
X61260948Y-118917378D01*
X61241673Y-119149995D01*
X56600000Y-119149995D01*
X56600000Y-114499995D01*
X61241673Y-114499995D01*
X61241673Y-114500006D01*
X61260948Y-114732623D01*
X61318251Y-114958908D01*
X61412015Y-115172669D01*
X61539686Y-115368085D01*
X61697776Y-115539815D01*
X61697781Y-115539819D01*
X61881985Y-115683192D01*
X61881988Y-115683194D01*
X62087266Y-115794284D01*
X62087280Y-115794290D01*
X62308045Y-115870080D01*
X62492240Y-115900816D01*
X62538288Y-115908500D01*
X62538289Y-115908500D01*
X62771711Y-115908500D01*
X62771712Y-115908500D01*
X62829271Y-115898895D01*
X63001954Y-115870080D01*
X63222719Y-115794290D01*
X63222721Y-115794289D01*
X63222727Y-115794287D01*
X63222733Y-115794284D01*
X63428011Y-115683194D01*
X63428014Y-115683192D01*
X63462701Y-115656194D01*
X63612220Y-115539818D01*
X63654122Y-115494301D01*
X63770307Y-115368092D01*
X63770311Y-115368086D01*
X63770312Y-115368085D01*
X63770314Y-115368083D01*
X63771478Y-115366302D01*
X63772139Y-115365737D01*
X63773460Y-115364040D01*
X63773809Y-115364312D01*
X63824621Y-115320944D01*
X63893852Y-115311519D01*
X63957189Y-115341018D01*
X63976861Y-115362997D01*
X64068802Y-115494301D01*
X64230695Y-115656194D01*
X64230698Y-115656197D01*
X64230700Y-115656198D01*
X64347856Y-115738233D01*
X64418252Y-115787524D01*
X64418254Y-115787525D01*
X64625750Y-115884282D01*
X64625761Y-115884286D01*
X64846910Y-115943543D01*
X64846918Y-115943544D01*
X65074998Y-115963498D01*
X65075000Y-115963498D01*
X65075002Y-115963498D01*
X65303081Y-115943544D01*
X65303089Y-115943543D01*
X65524238Y-115884286D01*
X65524249Y-115884282D01*
X65731745Y-115787525D01*
X65731747Y-115787524D01*
X65731749Y-115787523D01*
X65919300Y-115656198D01*
X66081198Y-115494300D01*
X66212523Y-115306749D01*
X66309284Y-115099243D01*
X66368543Y-114878087D01*
X66388498Y-114650000D01*
X66387109Y-114634129D01*
X66380259Y-114555831D01*
X66368543Y-114421913D01*
X66309284Y-114200757D01*
X66212523Y-113993251D01*
X66081198Y-113805700D01*
X65919300Y-113643802D01*
X65731749Y-113512477D01*
X65524243Y-113415716D01*
X65303087Y-113356457D01*
X65132021Y-113341491D01*
X65075002Y-113336502D01*
X65074998Y-113336502D01*
X65009832Y-113342204D01*
X64846913Y-113356457D01*
X64625757Y-113415716D01*
X64625752Y-113415719D01*
X64625750Y-113415719D01*
X64558408Y-113447121D01*
X64418251Y-113512477D01*
X64230700Y-113643802D01*
X64230695Y-113643807D01*
X64064974Y-113809528D01*
X64063065Y-113807620D01*
X64014453Y-113840201D01*
X63944596Y-113841547D01*
X63885101Y-113804911D01*
X63873428Y-113789746D01*
X63770314Y-113631917D01*
X63612220Y-113460182D01*
X63428017Y-113316810D01*
X63222727Y-113205713D01*
X63001951Y-113129920D01*
X62771712Y-113091500D01*
X62538288Y-113091500D01*
X62308049Y-113129920D01*
X62308047Y-113129921D01*
X62308045Y-113129921D01*
X62201914Y-113166357D01*
X62087273Y-113205713D01*
X62087266Y-113205717D01*
X61881988Y-113316807D01*
X61881985Y-113316809D01*
X61881983Y-113316810D01*
X61697780Y-113460182D01*
X61697777Y-113460186D01*
X61697776Y-113460186D01*
X61539686Y-113631916D01*
X61412015Y-113827332D01*
X61318251Y-114041093D01*
X61260948Y-114267378D01*
X61241673Y-114499995D01*
X56600000Y-114499995D01*
X56600000Y-109899995D01*
X61241673Y-109899995D01*
X61241673Y-109900006D01*
X61260948Y-110132623D01*
X61318251Y-110358908D01*
X61412015Y-110572669D01*
X61539686Y-110768085D01*
X61697776Y-110939815D01*
X61697781Y-110939819D01*
X61881985Y-111083192D01*
X61881988Y-111083194D01*
X62087266Y-111194284D01*
X62087280Y-111194290D01*
X62308045Y-111270080D01*
X62492240Y-111300816D01*
X62538288Y-111308500D01*
X62538289Y-111308500D01*
X62771711Y-111308500D01*
X62771712Y-111308500D01*
X62829271Y-111298895D01*
X63001954Y-111270080D01*
X63222719Y-111194290D01*
X63222721Y-111194289D01*
X63222727Y-111194287D01*
X63232447Y-111189027D01*
X63428011Y-111083194D01*
X63428014Y-111083192D01*
X63434709Y-111077981D01*
X63612220Y-110939818D01*
X63635899Y-110914096D01*
X63770311Y-110768087D01*
X63781722Y-110750622D01*
X63839075Y-110662836D01*
X63892222Y-110617480D01*
X63961453Y-110608056D01*
X64024789Y-110637558D01*
X64044458Y-110659533D01*
X64068804Y-110694303D01*
X64230695Y-110856194D01*
X64230698Y-110856197D01*
X64230700Y-110856198D01*
X64313387Y-110914096D01*
X64418252Y-110987524D01*
X64418254Y-110987525D01*
X64625750Y-111084282D01*
X64625761Y-111084286D01*
X64846910Y-111143543D01*
X64846918Y-111143544D01*
X65074998Y-111163498D01*
X65075000Y-111163498D01*
X65075002Y-111163498D01*
X65303081Y-111143544D01*
X65303089Y-111143543D01*
X65524238Y-111084286D01*
X65524249Y-111084282D01*
X65731745Y-110987525D01*
X65731747Y-110987524D01*
X65731749Y-110987523D01*
X65919300Y-110856198D01*
X66081198Y-110694300D01*
X66212523Y-110506749D01*
X66291438Y-110337514D01*
X66309281Y-110299250D01*
X66309285Y-110299239D01*
X66368542Y-110078090D01*
X66368543Y-110078087D01*
X66387984Y-109855874D01*
X66388498Y-109850002D01*
X66388498Y-109849999D01*
X66378887Y-109740150D01*
X66368543Y-109621913D01*
X66309284Y-109400757D01*
X66212523Y-109193251D01*
X66081198Y-109005700D01*
X65919300Y-108843802D01*
X65731749Y-108712477D01*
X65524243Y-108615716D01*
X65303087Y-108556457D01*
X65132021Y-108541491D01*
X65075002Y-108536502D01*
X65074998Y-108536502D01*
X65009832Y-108542204D01*
X64846913Y-108556457D01*
X64625757Y-108615716D01*
X64625752Y-108615719D01*
X64625750Y-108615719D01*
X64578464Y-108637769D01*
X64418251Y-108712477D01*
X64230700Y-108843802D01*
X64068802Y-109005700D01*
X64010658Y-109088737D01*
X63956083Y-109132360D01*
X63886585Y-109139552D01*
X63824230Y-109108030D01*
X63805277Y-109085432D01*
X63770313Y-109031916D01*
X63746176Y-109005696D01*
X63612220Y-108860182D01*
X63428017Y-108716810D01*
X63222727Y-108605713D01*
X63001951Y-108529920D01*
X62771712Y-108491500D01*
X62538288Y-108491500D01*
X62308049Y-108529920D01*
X62308047Y-108529921D01*
X62308045Y-108529921D01*
X62288876Y-108536502D01*
X62087273Y-108605713D01*
X62001331Y-108652223D01*
X61881988Y-108716807D01*
X61881985Y-108716809D01*
X61881983Y-108716810D01*
X61697780Y-108860182D01*
X61697777Y-108860186D01*
X61697776Y-108860186D01*
X61539686Y-109031916D01*
X61412015Y-109227332D01*
X61318251Y-109441093D01*
X61260948Y-109667378D01*
X61241673Y-109899995D01*
X56600000Y-109899995D01*
X56600000Y-105349995D01*
X61241673Y-105349995D01*
X61241673Y-105350006D01*
X61260948Y-105582623D01*
X61318251Y-105808908D01*
X61412015Y-106022669D01*
X61539686Y-106218085D01*
X61697776Y-106389815D01*
X61697781Y-106389819D01*
X61881985Y-106533192D01*
X61881988Y-106533194D01*
X62087266Y-106644284D01*
X62087280Y-106644290D01*
X62308045Y-106720080D01*
X62492240Y-106750816D01*
X62538288Y-106758500D01*
X62538289Y-106758500D01*
X62771711Y-106758500D01*
X62771712Y-106758500D01*
X62829271Y-106748895D01*
X63001954Y-106720080D01*
X63222719Y-106644290D01*
X63222721Y-106644289D01*
X63222727Y-106644287D01*
X63224102Y-106643543D01*
X63428011Y-106533194D01*
X63428014Y-106533192D01*
X63428017Y-106533190D01*
X63612220Y-106389818D01*
X63612223Y-106389815D01*
X63770311Y-106218087D01*
X63785850Y-106194304D01*
X63822176Y-106138702D01*
X63875323Y-106093346D01*
X63944554Y-106083922D01*
X64007890Y-106113424D01*
X64027558Y-106135399D01*
X64066944Y-106191647D01*
X64068805Y-106194304D01*
X64230695Y-106356194D01*
X64230698Y-106356197D01*
X64230700Y-106356198D01*
X64312533Y-106413498D01*
X64418252Y-106487524D01*
X64418254Y-106487525D01*
X64625750Y-106584282D01*
X64625761Y-106584286D01*
X64846910Y-106643543D01*
X64846918Y-106643544D01*
X65074998Y-106663498D01*
X65075000Y-106663498D01*
X65075002Y-106663498D01*
X65303081Y-106643544D01*
X65303089Y-106643543D01*
X65524238Y-106584286D01*
X65524249Y-106584282D01*
X65731745Y-106487525D01*
X65731747Y-106487524D01*
X65731749Y-106487523D01*
X65919300Y-106356198D01*
X66081198Y-106194300D01*
X66212523Y-106006749D01*
X66279677Y-105862735D01*
X66309281Y-105799250D01*
X66309285Y-105799239D01*
X66320670Y-105756749D01*
X66368543Y-105578087D01*
X66382796Y-105415168D01*
X66388498Y-105350002D01*
X66388498Y-105349999D01*
X66379200Y-105243722D01*
X66368543Y-105121913D01*
X66309284Y-104900757D01*
X66212523Y-104693251D01*
X66081198Y-104505700D01*
X65919300Y-104343802D01*
X65731749Y-104212477D01*
X65524243Y-104115716D01*
X65303087Y-104056457D01*
X65132021Y-104041491D01*
X65075002Y-104036502D01*
X65074998Y-104036502D01*
X65009832Y-104042204D01*
X64846913Y-104056457D01*
X64625757Y-104115716D01*
X64625752Y-104115719D01*
X64625750Y-104115719D01*
X64606383Y-104124750D01*
X64418251Y-104212477D01*
X64230700Y-104343802D01*
X64068802Y-104505700D01*
X64027557Y-104564603D01*
X63972983Y-104608226D01*
X63903484Y-104615418D01*
X63841130Y-104583896D01*
X63822176Y-104561298D01*
X63785852Y-104505700D01*
X63770314Y-104481917D01*
X63612220Y-104310182D01*
X63428017Y-104166810D01*
X63222727Y-104055713D01*
X63001951Y-103979920D01*
X62771712Y-103941500D01*
X62538288Y-103941500D01*
X62308049Y-103979920D01*
X62308047Y-103979921D01*
X62308045Y-103979921D01*
X62201914Y-104016357D01*
X62087273Y-104055713D01*
X62016881Y-104093807D01*
X61881988Y-104166807D01*
X61881985Y-104166809D01*
X61881983Y-104166810D01*
X61697780Y-104310182D01*
X61697777Y-104310186D01*
X61697776Y-104310186D01*
X61539686Y-104481916D01*
X61412015Y-104677332D01*
X61318251Y-104891093D01*
X61260948Y-105117378D01*
X61241673Y-105349995D01*
X56600000Y-105349995D01*
X56600000Y-103000667D01*
X66841500Y-103000667D01*
X66841500Y-129199334D01*
X66880254Y-129394162D01*
X66880256Y-129394170D01*
X66927614Y-129508500D01*
X66927614Y-129508501D01*
X66956275Y-129577698D01*
X66956282Y-129577711D01*
X67066646Y-129742881D01*
X67066649Y-129742885D01*
X70566647Y-133242881D01*
X70636884Y-133313118D01*
X70707120Y-133383355D01*
X70872289Y-133493718D01*
X70872298Y-133493723D01*
X71055830Y-133569744D01*
X71055838Y-133569746D01*
X71250666Y-133608500D01*
X71250671Y-133608500D01*
X74549890Y-133608500D01*
X74616929Y-133628185D01*
X74621014Y-133630925D01*
X74773252Y-133737524D01*
X74773254Y-133737525D01*
X74980750Y-133834282D01*
X74980761Y-133834286D01*
X75201910Y-133893543D01*
X75201918Y-133893544D01*
X75429998Y-133913498D01*
X75430000Y-133913498D01*
X75430002Y-133913498D01*
X75658081Y-133893544D01*
X75658089Y-133893543D01*
X75879238Y-133834286D01*
X75879249Y-133834282D01*
X76086745Y-133737525D01*
X76086747Y-133737524D01*
X76086749Y-133737523D01*
X76274300Y-133606198D01*
X76436198Y-133444300D01*
X76567523Y-133256749D01*
X76664284Y-133049243D01*
X76723543Y-132828087D01*
X76742346Y-132613165D01*
X76743498Y-132600002D01*
X76743498Y-132599999D01*
X76730221Y-132448241D01*
X76723543Y-132371913D01*
X76664284Y-132150757D01*
X76567523Y-131943251D01*
X76436198Y-131755700D01*
X76274300Y-131593802D01*
X76086749Y-131462477D01*
X75879243Y-131365716D01*
X75841926Y-131355717D01*
X75832505Y-131353193D01*
X75658087Y-131306457D01*
X75487021Y-131291491D01*
X75430002Y-131286502D01*
X75429998Y-131286502D01*
X75364832Y-131292204D01*
X75201913Y-131306457D01*
X75066563Y-131342725D01*
X75018074Y-131355717D01*
X74980757Y-131365716D01*
X74980752Y-131365719D01*
X74980750Y-131365719D01*
X74919741Y-131394168D01*
X74773251Y-131462477D01*
X74640857Y-131555181D01*
X74621014Y-131569075D01*
X74554807Y-131591402D01*
X74549890Y-131591500D01*
X71819096Y-131591500D01*
X71752057Y-131571815D01*
X71731415Y-131555181D01*
X68894819Y-128718585D01*
X68861334Y-128657262D01*
X68858500Y-128630904D01*
X68858500Y-125834096D01*
X68878185Y-125767057D01*
X68930989Y-125721302D01*
X69000147Y-125711358D01*
X69063703Y-125740383D01*
X69070181Y-125746415D01*
X72066647Y-128742881D01*
X72136884Y-128813118D01*
X72207120Y-128883355D01*
X72372289Y-128993718D01*
X72372298Y-128993723D01*
X72555830Y-129069744D01*
X72555838Y-129069746D01*
X72750666Y-129108500D01*
X72750671Y-129108500D01*
X74339890Y-129108500D01*
X74406929Y-129128185D01*
X74411014Y-129130925D01*
X74563252Y-129237524D01*
X74563254Y-129237525D01*
X74770750Y-129334282D01*
X74770761Y-129334286D01*
X74991910Y-129393543D01*
X74991918Y-129393544D01*
X75219998Y-129413498D01*
X75220000Y-129413498D01*
X75220002Y-129413498D01*
X75448081Y-129393544D01*
X75448089Y-129393543D01*
X75669238Y-129334286D01*
X75669249Y-129334282D01*
X75876745Y-129237525D01*
X75876747Y-129237524D01*
X75876749Y-129237523D01*
X76064300Y-129106198D01*
X76226198Y-128944300D01*
X76357523Y-128756749D01*
X76454284Y-128549243D01*
X76513543Y-128328087D01*
X76532346Y-128113165D01*
X76533498Y-128100002D01*
X76533498Y-128099999D01*
X76520221Y-127948241D01*
X76513543Y-127871913D01*
X76454284Y-127650757D01*
X76357523Y-127443251D01*
X76226198Y-127255700D01*
X76064300Y-127093802D01*
X75876749Y-126962477D01*
X75669243Y-126865716D01*
X75448087Y-126806457D01*
X75277021Y-126791491D01*
X75220002Y-126786502D01*
X75219998Y-126786502D01*
X75154832Y-126792204D01*
X74991913Y-126806457D01*
X74770757Y-126865716D01*
X74770752Y-126865719D01*
X74770750Y-126865719D01*
X74695512Y-126900803D01*
X74563251Y-126962477D01*
X74430857Y-127055181D01*
X74411014Y-127069075D01*
X74344807Y-127091402D01*
X74339890Y-127091500D01*
X73319096Y-127091500D01*
X73252057Y-127071815D01*
X73231415Y-127055181D01*
X70644819Y-124468585D01*
X70611334Y-124407262D01*
X70608500Y-124380904D01*
X70608500Y-123084096D01*
X70628185Y-123017057D01*
X70680989Y-122971302D01*
X70750147Y-122961358D01*
X70813703Y-122990383D01*
X70820181Y-122996415D01*
X72116647Y-124292881D01*
X72183554Y-124359788D01*
X72257120Y-124433355D01*
X72422289Y-124543718D01*
X72422298Y-124543723D01*
X72605830Y-124619744D01*
X72605838Y-124619746D01*
X72800666Y-124658500D01*
X72800671Y-124658500D01*
X74339890Y-124658500D01*
X74406929Y-124678185D01*
X74411014Y-124680925D01*
X74563252Y-124787524D01*
X74563254Y-124787525D01*
X74770750Y-124884282D01*
X74770761Y-124884286D01*
X74991910Y-124943543D01*
X74991918Y-124943544D01*
X75219998Y-124963498D01*
X75220000Y-124963498D01*
X75220002Y-124963498D01*
X75448081Y-124943544D01*
X75448089Y-124943543D01*
X75669238Y-124884286D01*
X75669249Y-124884282D01*
X75876745Y-124787525D01*
X75876747Y-124787524D01*
X75876749Y-124787523D01*
X76064300Y-124656198D01*
X76226198Y-124494300D01*
X76357523Y-124306749D01*
X76427844Y-124155945D01*
X76454281Y-124099250D01*
X76454285Y-124099239D01*
X76513543Y-123878087D01*
X76530331Y-123686198D01*
X76533498Y-123650002D01*
X76533498Y-123649999D01*
X76526676Y-123572020D01*
X76513543Y-123421913D01*
X76454284Y-123200757D01*
X76357523Y-122993251D01*
X76226198Y-122805700D01*
X76064300Y-122643802D01*
X75876749Y-122512477D01*
X75669243Y-122415716D01*
X75448087Y-122356457D01*
X75277021Y-122341491D01*
X75220002Y-122336502D01*
X75219998Y-122336502D01*
X75154832Y-122342204D01*
X74991913Y-122356457D01*
X74770757Y-122415716D01*
X74770752Y-122415719D01*
X74770750Y-122415719D01*
X74693136Y-122451911D01*
X74563251Y-122512477D01*
X74495122Y-122560182D01*
X74411014Y-122619075D01*
X74344807Y-122641402D01*
X74339890Y-122641500D01*
X73369096Y-122641500D01*
X73302057Y-122621815D01*
X73281415Y-122605181D01*
X72394819Y-121718585D01*
X72361334Y-121657262D01*
X72358500Y-121630904D01*
X72358500Y-118099097D01*
X72378185Y-118032058D01*
X72430989Y-117986303D01*
X72500147Y-117976359D01*
X72563703Y-118005384D01*
X72570181Y-118011416D01*
X73900396Y-119341632D01*
X73933881Y-119402955D01*
X73936243Y-119418503D01*
X73941456Y-119478084D01*
X73941457Y-119478090D01*
X74000714Y-119699239D01*
X74000718Y-119699250D01*
X74097475Y-119906746D01*
X74097476Y-119906748D01*
X74138374Y-119965156D01*
X74175433Y-120018082D01*
X74228806Y-120094305D01*
X74390695Y-120256194D01*
X74390698Y-120256197D01*
X74390700Y-120256198D01*
X74428363Y-120282570D01*
X74578252Y-120387524D01*
X74578254Y-120387525D01*
X74785750Y-120484282D01*
X74785761Y-120484286D01*
X75006910Y-120543543D01*
X75006918Y-120543544D01*
X75234998Y-120563498D01*
X75235000Y-120563498D01*
X75235002Y-120563498D01*
X75463081Y-120543544D01*
X75463089Y-120543543D01*
X75684238Y-120484286D01*
X75684249Y-120484282D01*
X75891745Y-120387525D01*
X75891747Y-120387524D01*
X75891749Y-120387523D01*
X76079300Y-120256198D01*
X76241198Y-120094300D01*
X76372523Y-119906749D01*
X76443510Y-119754516D01*
X76469281Y-119699250D01*
X76469285Y-119699239D01*
X76494938Y-119603500D01*
X76528543Y-119478087D01*
X76548498Y-119250000D01*
X76528543Y-119021913D01*
X76469284Y-118800757D01*
X76372523Y-118593251D01*
X76241198Y-118405700D01*
X76079300Y-118243802D01*
X75891749Y-118112477D01*
X75684243Y-118015716D01*
X75463087Y-117956457D01*
X75403503Y-117951245D01*
X75338436Y-117925793D01*
X75326638Y-117915406D01*
X74144817Y-116733584D01*
X74111334Y-116672263D01*
X74108500Y-116645905D01*
X74108500Y-115673360D01*
X74128185Y-115606321D01*
X74180989Y-115560566D01*
X74250147Y-115550622D01*
X74313703Y-115579647D01*
X74320181Y-115585679D01*
X74390695Y-115656194D01*
X74390698Y-115656197D01*
X74390700Y-115656198D01*
X74507856Y-115738233D01*
X74578252Y-115787524D01*
X74578254Y-115787525D01*
X74785750Y-115884282D01*
X74785761Y-115884286D01*
X75006910Y-115943543D01*
X75006918Y-115943544D01*
X75234998Y-115963498D01*
X75235000Y-115963498D01*
X75235002Y-115963498D01*
X75463081Y-115943544D01*
X75463089Y-115943543D01*
X75684238Y-115884286D01*
X75684249Y-115884282D01*
X75891745Y-115787525D01*
X75891747Y-115787524D01*
X75891749Y-115787523D01*
X76079300Y-115656198D01*
X76241198Y-115494300D01*
X76372523Y-115306749D01*
X76469284Y-115099243D01*
X76528543Y-114878087D01*
X76533755Y-114818506D01*
X76559207Y-114753438D01*
X76569602Y-114741632D01*
X77633350Y-113677885D01*
X77633353Y-113677881D01*
X77696928Y-113582736D01*
X77750541Y-113537931D01*
X77819866Y-113529224D01*
X77882893Y-113559379D01*
X77887711Y-113563946D01*
X78253581Y-113929815D01*
X78481647Y-114157881D01*
X78523050Y-114199284D01*
X78622120Y-114298355D01*
X78787289Y-114408718D01*
X78787298Y-114408723D01*
X78970830Y-114484744D01*
X78970838Y-114484746D01*
X79165666Y-114523500D01*
X79165671Y-114523500D01*
X79321639Y-114523500D01*
X79388678Y-114543185D01*
X79394524Y-114547182D01*
X79514195Y-114634129D01*
X79593459Y-114674516D01*
X79644254Y-114722490D01*
X79661049Y-114790311D01*
X79638511Y-114856446D01*
X79593459Y-114895484D01*
X79514195Y-114935872D01*
X79347576Y-115056927D01*
X79347571Y-115056931D01*
X79201930Y-115202572D01*
X79201926Y-115202577D01*
X79080873Y-115369194D01*
X78987367Y-115552706D01*
X78923719Y-115748592D01*
X78902228Y-115884284D01*
X78892843Y-115943543D01*
X78891500Y-115952020D01*
X78891500Y-116157981D01*
X78923719Y-116361409D01*
X78987367Y-116557295D01*
X79080873Y-116740807D01*
X79201926Y-116907424D01*
X79201930Y-116907429D01*
X79347571Y-117053070D01*
X79347576Y-117053074D01*
X79514195Y-117174129D01*
X79593459Y-117214516D01*
X79644254Y-117262490D01*
X79661049Y-117330311D01*
X79638511Y-117396446D01*
X79593459Y-117435484D01*
X79514195Y-117475872D01*
X79347576Y-117596927D01*
X79347571Y-117596931D01*
X79201930Y-117742572D01*
X79201926Y-117742577D01*
X79119729Y-117855713D01*
X79080871Y-117909197D01*
X79061451Y-117947311D01*
X78987367Y-118092706D01*
X78923719Y-118288592D01*
X78891500Y-118492020D01*
X78891500Y-118697981D01*
X78923719Y-118901409D01*
X78987367Y-119097295D01*
X79080873Y-119280807D01*
X79201926Y-119447424D01*
X79201930Y-119447429D01*
X79347571Y-119593070D01*
X79347576Y-119593074D01*
X79514195Y-119714129D01*
X79593459Y-119754516D01*
X79644254Y-119802490D01*
X79661049Y-119870311D01*
X79638511Y-119936446D01*
X79593459Y-119975484D01*
X79514195Y-120015872D01*
X79347576Y-120136927D01*
X79347571Y-120136931D01*
X79201930Y-120282572D01*
X79201926Y-120282577D01*
X79080873Y-120449194D01*
X78987367Y-120632706D01*
X78923719Y-120828592D01*
X78891500Y-121032020D01*
X78891500Y-121237981D01*
X78923719Y-121441409D01*
X78987367Y-121637295D01*
X79080873Y-121820807D01*
X79201926Y-121987424D01*
X79201930Y-121987429D01*
X79347571Y-122133070D01*
X79347576Y-122133074D01*
X79514195Y-122254129D01*
X79593459Y-122294516D01*
X79644254Y-122342490D01*
X79661049Y-122410311D01*
X79638511Y-122476446D01*
X79593459Y-122515484D01*
X79514195Y-122555872D01*
X79347576Y-122676927D01*
X79347571Y-122676931D01*
X79201930Y-122822572D01*
X79201926Y-122822577D01*
X79139798Y-122908090D01*
X79080871Y-122989197D01*
X79072850Y-123004940D01*
X78987367Y-123172706D01*
X78923719Y-123368592D01*
X78891500Y-123572020D01*
X78891500Y-123777981D01*
X78923719Y-123981409D01*
X78987367Y-124177295D01*
X79080873Y-124360807D01*
X79201926Y-124527424D01*
X79201930Y-124527429D01*
X79347571Y-124673070D01*
X79347576Y-124673074D01*
X79514195Y-124794129D01*
X79593459Y-124834516D01*
X79644254Y-124882490D01*
X79661049Y-124950311D01*
X79638511Y-125016446D01*
X79593459Y-125055484D01*
X79514195Y-125095872D01*
X79347576Y-125216927D01*
X79347571Y-125216931D01*
X79201930Y-125362572D01*
X79201926Y-125362577D01*
X79128956Y-125463013D01*
X79080871Y-125529197D01*
X79080446Y-125530032D01*
X78987367Y-125712706D01*
X78923719Y-125908592D01*
X78891500Y-126112020D01*
X78891500Y-126317981D01*
X78923719Y-126521409D01*
X78987367Y-126717295D01*
X79080873Y-126900807D01*
X79201926Y-127067424D01*
X79201930Y-127067429D01*
X79347571Y-127213070D01*
X79347576Y-127213074D01*
X79514193Y-127334127D01*
X79697705Y-127427633D01*
X79893591Y-127491281D01*
X80072550Y-127519625D01*
X80097019Y-127523500D01*
X80097020Y-127523500D01*
X81102980Y-127523500D01*
X81102981Y-127523500D01*
X81130794Y-127519095D01*
X81306408Y-127491281D01*
X81502294Y-127427633D01*
X81638510Y-127358226D01*
X81685803Y-127334129D01*
X81686124Y-127333896D01*
X81852423Y-127213074D01*
X81852428Y-127213070D01*
X81998069Y-127067429D01*
X81998073Y-127067424D01*
X82119126Y-126900807D01*
X82119129Y-126900803D01*
X82196945Y-126748082D01*
X82212632Y-126717295D01*
X82221014Y-126691500D01*
X82276280Y-126521408D01*
X82308500Y-126317981D01*
X82308500Y-126112019D01*
X82276280Y-125908592D01*
X82212634Y-125712710D01*
X82119129Y-125529197D01*
X81998068Y-125362570D01*
X81852430Y-125216932D01*
X81685803Y-125095871D01*
X81606540Y-125055485D01*
X81555745Y-125007510D01*
X81538950Y-124939689D01*
X81561487Y-124873554D01*
X81606541Y-124834515D01*
X81685803Y-124794129D01*
X81694894Y-124787524D01*
X81852423Y-124673074D01*
X81852428Y-124673070D01*
X81998069Y-124527429D01*
X81998073Y-124527424D01*
X82104525Y-124380904D01*
X82119129Y-124360803D01*
X82178709Y-124243872D01*
X82212632Y-124177295D01*
X82230503Y-124122296D01*
X82276280Y-123981408D01*
X82299846Y-123832623D01*
X82308500Y-123777981D01*
X82308500Y-123572020D01*
X82295416Y-123489414D01*
X82276280Y-123368592D01*
X82212634Y-123172710D01*
X82119129Y-122989197D01*
X81998068Y-122822570D01*
X81852430Y-122676932D01*
X81685803Y-122555871D01*
X81606540Y-122515485D01*
X81555745Y-122467510D01*
X81538950Y-122399689D01*
X81561487Y-122333554D01*
X81606541Y-122294515D01*
X81685803Y-122254129D01*
X81685806Y-122254127D01*
X81852423Y-122133074D01*
X81852428Y-122133070D01*
X81998069Y-121987429D01*
X81998073Y-121987424D01*
X82119126Y-121820807D01*
X82119129Y-121820803D01*
X82178709Y-121703872D01*
X82212632Y-121637295D01*
X82276280Y-121441409D01*
X82308500Y-121237981D01*
X82308500Y-121032020D01*
X82276280Y-120828592D01*
X82212634Y-120632710D01*
X82119129Y-120449197D01*
X81998068Y-120282570D01*
X81852430Y-120136932D01*
X81685803Y-120015871D01*
X81606540Y-119975485D01*
X81555745Y-119927510D01*
X81538950Y-119859689D01*
X81561487Y-119793554D01*
X81606541Y-119754515D01*
X81685803Y-119714129D01*
X81685806Y-119714127D01*
X81852423Y-119593074D01*
X81852428Y-119593070D01*
X81998069Y-119447429D01*
X81998073Y-119447424D01*
X82119126Y-119280807D01*
X82119129Y-119280803D01*
X82185779Y-119149995D01*
X82212632Y-119097295D01*
X82237124Y-119021919D01*
X82258178Y-118957121D01*
X82276280Y-118901409D01*
X82308500Y-118697981D01*
X82308500Y-118492020D01*
X82306173Y-118477331D01*
X82276280Y-118288592D01*
X82212634Y-118092710D01*
X82119129Y-117909197D01*
X81998068Y-117742570D01*
X81852430Y-117596932D01*
X81685803Y-117475871D01*
X81606540Y-117435485D01*
X81555745Y-117387510D01*
X81538950Y-117319689D01*
X81561487Y-117253554D01*
X81606541Y-117214515D01*
X81685803Y-117174129D01*
X81685806Y-117174127D01*
X81852423Y-117053074D01*
X81852428Y-117053070D01*
X81998069Y-116907429D01*
X81998073Y-116907424D01*
X82119126Y-116740807D01*
X82119129Y-116740803D01*
X82188087Y-116605466D01*
X82212632Y-116557295D01*
X82276280Y-116361409D01*
X82308500Y-116157981D01*
X82308500Y-115952020D01*
X82307157Y-115943543D01*
X82276280Y-115748592D01*
X82212634Y-115552710D01*
X82119129Y-115369197D01*
X81998068Y-115202570D01*
X81852430Y-115056932D01*
X81685803Y-114935871D01*
X81606540Y-114895485D01*
X81555745Y-114847510D01*
X81538950Y-114779689D01*
X81561487Y-114713554D01*
X81606541Y-114674515D01*
X81685803Y-114634129D01*
X81685806Y-114634127D01*
X81852423Y-114513074D01*
X81852428Y-114513070D01*
X81998069Y-114367429D01*
X81998073Y-114367424D01*
X82119126Y-114200807D01*
X82119129Y-114200803D01*
X82200506Y-114041093D01*
X82212632Y-114017295D01*
X82220445Y-113993251D01*
X82246749Y-113912293D01*
X82276280Y-113821409D01*
X82308500Y-113617981D01*
X82308500Y-113412020D01*
X82293196Y-113315398D01*
X82276280Y-113208592D01*
X82212634Y-113012710D01*
X82119129Y-112829197D01*
X81998068Y-112662570D01*
X81852430Y-112516932D01*
X81832479Y-112502437D01*
X81789812Y-112447110D01*
X81783830Y-112377497D01*
X81816433Y-112315700D01*
X81877271Y-112281341D01*
X81892101Y-112278828D01*
X81909203Y-112276989D01*
X81909204Y-112276989D01*
X82046204Y-112225889D01*
X82057636Y-112217331D01*
X82163261Y-112138261D01*
X82241917Y-112033189D01*
X82297851Y-111991318D01*
X82341184Y-111983500D01*
X84824333Y-111983500D01*
X85019161Y-111944746D01*
X85019169Y-111944744D01*
X85202701Y-111868723D01*
X85202710Y-111868718D01*
X85367879Y-111758355D01*
X85419427Y-111706807D01*
X85508353Y-111617881D01*
X86299819Y-110826415D01*
X86361142Y-110792930D01*
X86430834Y-110797914D01*
X86486767Y-110839786D01*
X86511184Y-110905250D01*
X86511500Y-110914096D01*
X86511500Y-111077981D01*
X86543719Y-111281409D01*
X86607367Y-111477295D01*
X86700873Y-111660807D01*
X86821926Y-111827424D01*
X86821930Y-111827429D01*
X86967571Y-111973070D01*
X86967576Y-111973074D01*
X87134195Y-112094129D01*
X87213459Y-112134516D01*
X87264254Y-112182490D01*
X87281049Y-112250311D01*
X87258511Y-112316446D01*
X87213459Y-112355484D01*
X87134195Y-112395872D01*
X86967576Y-112516927D01*
X86967571Y-112516931D01*
X86821930Y-112662572D01*
X86821926Y-112662577D01*
X86700873Y-112829194D01*
X86607367Y-113012706D01*
X86543719Y-113208592D01*
X86511500Y-113412020D01*
X86511500Y-113617981D01*
X86543719Y-113821409D01*
X86607367Y-114017295D01*
X86700873Y-114200807D01*
X86821926Y-114367424D01*
X86821930Y-114367429D01*
X86967571Y-114513070D01*
X86967576Y-114513074D01*
X87134195Y-114634129D01*
X87213459Y-114674516D01*
X87264254Y-114722490D01*
X87281049Y-114790311D01*
X87258511Y-114856446D01*
X87213459Y-114895484D01*
X87134195Y-114935872D01*
X86967576Y-115056927D01*
X86967571Y-115056931D01*
X86821930Y-115202572D01*
X86821926Y-115202577D01*
X86700873Y-115369194D01*
X86607367Y-115552706D01*
X86543719Y-115748592D01*
X86522228Y-115884284D01*
X86512843Y-115943543D01*
X86511500Y-115952020D01*
X86511500Y-116157981D01*
X86543719Y-116361409D01*
X86607367Y-116557295D01*
X86700873Y-116740807D01*
X86821926Y-116907424D01*
X86821930Y-116907429D01*
X86967571Y-117053070D01*
X86967576Y-117053074D01*
X87134195Y-117174129D01*
X87213459Y-117214516D01*
X87264254Y-117262490D01*
X87281049Y-117330311D01*
X87258511Y-117396446D01*
X87213459Y-117435484D01*
X87134195Y-117475872D01*
X87014524Y-117562818D01*
X86948718Y-117586298D01*
X86941639Y-117586500D01*
X86255670Y-117586500D01*
X86255666Y-117586501D01*
X86060831Y-117625256D01*
X85984809Y-117656746D01*
X85877297Y-117701278D01*
X85877289Y-117701284D01*
X85877286Y-117701285D01*
X85712123Y-117811643D01*
X85712115Y-117811649D01*
X84956172Y-118567594D01*
X84707119Y-118816647D01*
X84622358Y-118901408D01*
X84566645Y-118957121D01*
X84456282Y-119122290D01*
X84456277Y-119122299D01*
X84380256Y-119305831D01*
X84380254Y-119305839D01*
X84341500Y-119500667D01*
X84341500Y-131199334D01*
X84374595Y-131365715D01*
X84374596Y-131365714D01*
X84380256Y-131394170D01*
X84456277Y-131577702D01*
X84456282Y-131577711D01*
X84566646Y-131742881D01*
X84566649Y-131742885D01*
X86532115Y-133708352D01*
X86532123Y-133708358D01*
X86697295Y-133818722D01*
X86697294Y-133818722D01*
X86804807Y-133863255D01*
X86804809Y-133863255D01*
X86880831Y-133894744D01*
X86880835Y-133894745D01*
X86880838Y-133894746D01*
X86880838Y-133894747D01*
X87075666Y-133933500D01*
X87075671Y-133933500D01*
X87274329Y-133933500D01*
X90540904Y-133933500D01*
X90607943Y-133953185D01*
X90653698Y-134005989D01*
X90663642Y-134075147D01*
X90634617Y-134138703D01*
X90628585Y-134145181D01*
X89882119Y-134891647D01*
X89741647Y-135032119D01*
X89741645Y-135032121D01*
X89631282Y-135197290D01*
X89631277Y-135197299D01*
X89555256Y-135380831D01*
X89555254Y-135380839D01*
X89516500Y-135575667D01*
X89516500Y-135798946D01*
X89496815Y-135865985D01*
X89444011Y-135911740D01*
X89374853Y-135921684D01*
X89311297Y-135892659D01*
X89288695Y-135866773D01*
X89220722Y-135762732D01*
X89201084Y-135741400D01*
X89128958Y-135663051D01*
X89068240Y-135597094D01*
X88890576Y-135458811D01*
X88692574Y-135351658D01*
X88479635Y-135278556D01*
X88257569Y-135241500D01*
X88032431Y-135241500D01*
X87810365Y-135278556D01*
X87597426Y-135351658D01*
X87597419Y-135351662D01*
X87399427Y-135458809D01*
X87399425Y-135458811D01*
X87399424Y-135458811D01*
X87341628Y-135503796D01*
X87221761Y-135597093D01*
X87221756Y-135597098D01*
X87069284Y-135762724D01*
X87069283Y-135762727D01*
X87069278Y-135762732D01*
X86978806Y-135901210D01*
X86925662Y-135946563D01*
X86856431Y-135955987D01*
X86793095Y-135926485D01*
X86771195Y-135901213D01*
X86680722Y-135762732D01*
X86661084Y-135741400D01*
X86588958Y-135663051D01*
X86528240Y-135597094D01*
X86350576Y-135458811D01*
X86152574Y-135351658D01*
X85939635Y-135278556D01*
X85717569Y-135241500D01*
X85492431Y-135241500D01*
X85270365Y-135278556D01*
X85057426Y-135351658D01*
X85057419Y-135351662D01*
X84859427Y-135458809D01*
X84859425Y-135458811D01*
X84859424Y-135458811D01*
X84801628Y-135503796D01*
X84681761Y-135597093D01*
X84681756Y-135597098D01*
X84529284Y-135762724D01*
X84529283Y-135762727D01*
X84529278Y-135762732D01*
X84438806Y-135901210D01*
X84385662Y-135946563D01*
X84316431Y-135955987D01*
X84253095Y-135926485D01*
X84231195Y-135901213D01*
X84140722Y-135762732D01*
X84121084Y-135741400D01*
X84048958Y-135663051D01*
X83988240Y-135597094D01*
X83810576Y-135458811D01*
X83612574Y-135351658D01*
X83399635Y-135278556D01*
X83177569Y-135241500D01*
X82952431Y-135241500D01*
X82730365Y-135278556D01*
X82517426Y-135351658D01*
X82517419Y-135351662D01*
X82319427Y-135458809D01*
X82319425Y-135458811D01*
X82319424Y-135458811D01*
X82261628Y-135503796D01*
X82141761Y-135597093D01*
X82141756Y-135597098D01*
X81989284Y-135762724D01*
X81989283Y-135762727D01*
X81989278Y-135762732D01*
X81898806Y-135901210D01*
X81845662Y-135946563D01*
X81776431Y-135955987D01*
X81713095Y-135926485D01*
X81691195Y-135901213D01*
X81600722Y-135762732D01*
X81581084Y-135741400D01*
X81508958Y-135663051D01*
X81448240Y-135597094D01*
X81270576Y-135458811D01*
X81072574Y-135351658D01*
X80859635Y-135278556D01*
X80637569Y-135241500D01*
X80412431Y-135241500D01*
X80190365Y-135278556D01*
X79977426Y-135351658D01*
X79977419Y-135351662D01*
X79779427Y-135458809D01*
X79779425Y-135458811D01*
X79779424Y-135458811D01*
X79601760Y-135597094D01*
X79538546Y-135665762D01*
X79478662Y-135701751D01*
X79408823Y-135699650D01*
X79351207Y-135660126D01*
X79331138Y-135625115D01*
X79285889Y-135503796D01*
X79198261Y-135386739D01*
X79081204Y-135299111D01*
X78944201Y-135248011D01*
X78912623Y-135244617D01*
X78883654Y-135241501D01*
X78883638Y-135241500D01*
X77086362Y-135241500D01*
X77086345Y-135241501D01*
X77055270Y-135244843D01*
X77025799Y-135248011D01*
X77025796Y-135248012D01*
X77025795Y-135248012D01*
X77004409Y-135255989D01*
X76888796Y-135299111D01*
X76771739Y-135386739D01*
X76717785Y-135458813D01*
X76684111Y-135503796D01*
X76633011Y-135640796D01*
X76633011Y-135640798D01*
X76626500Y-135701346D01*
X76626500Y-137498655D01*
X76633011Y-137559203D01*
X76633011Y-137559205D01*
X76684111Y-137696205D01*
X76771739Y-137813261D01*
X76888795Y-137900889D01*
X77025796Y-137951989D01*
X77086345Y-137958500D01*
X77086362Y-137958500D01*
X78883654Y-137958500D01*
X78944202Y-137951989D01*
X78944204Y-137951989D01*
X79081204Y-137900889D01*
X79081388Y-137900751D01*
X79198261Y-137813261D01*
X79285889Y-137696204D01*
X79300012Y-137658339D01*
X79331138Y-137574890D01*
X79373009Y-137518956D01*
X79438474Y-137494540D01*
X79506747Y-137509392D01*
X79538547Y-137534240D01*
X79554153Y-137551192D01*
X79601762Y-137602908D01*
X79601761Y-137602908D01*
X79779422Y-137741188D01*
X79779427Y-137741192D01*
X79977419Y-137848339D01*
X79977430Y-137848344D01*
X80190362Y-137921444D01*
X80412431Y-137958500D01*
X80637569Y-137958500D01*
X80859637Y-137921444D01*
X81072569Y-137848344D01*
X81072571Y-137848343D01*
X81072574Y-137848342D01*
X81121592Y-137821815D01*
X81270572Y-137741192D01*
X81270577Y-137741188D01*
X81448238Y-137602908D01*
X81448243Y-137602903D01*
X81600715Y-137437277D01*
X81600723Y-137437266D01*
X81691192Y-137298794D01*
X81744338Y-137253438D01*
X81813569Y-137244014D01*
X81876905Y-137273516D01*
X81898808Y-137298794D01*
X81989276Y-137437266D01*
X81989284Y-137437277D01*
X82141756Y-137602903D01*
X82141761Y-137602908D01*
X82319422Y-137741188D01*
X82319427Y-137741192D01*
X82517419Y-137848339D01*
X82517430Y-137848344D01*
X82730362Y-137921444D01*
X82952431Y-137958500D01*
X83177569Y-137958500D01*
X83399637Y-137921444D01*
X83612569Y-137848344D01*
X83612571Y-137848343D01*
X83612574Y-137848342D01*
X83661592Y-137821815D01*
X83810572Y-137741192D01*
X83810577Y-137741188D01*
X83988238Y-137602908D01*
X83988243Y-137602903D01*
X84140715Y-137437277D01*
X84140723Y-137437266D01*
X84231192Y-137298794D01*
X84284338Y-137253438D01*
X84353569Y-137244014D01*
X84416905Y-137273516D01*
X84438808Y-137298794D01*
X84529276Y-137437266D01*
X84529279Y-137437270D01*
X84563729Y-137474691D01*
X84594652Y-137537346D01*
X84596500Y-137558675D01*
X84596500Y-137854334D01*
X84624182Y-137993499D01*
X84635253Y-138049162D01*
X84635255Y-138049167D01*
X84711277Y-138232702D01*
X84711282Y-138232711D01*
X84821646Y-138397881D01*
X84821649Y-138397885D01*
X86057115Y-139633352D01*
X86057119Y-139633355D01*
X86222289Y-139743719D01*
X86222302Y-139743726D01*
X86352074Y-139797478D01*
X86352075Y-139797478D01*
X86405831Y-139819744D01*
X86405835Y-139819745D01*
X86405838Y-139819746D01*
X86405838Y-139819747D01*
X86600666Y-139858500D01*
X86600671Y-139858500D01*
X89374333Y-139858500D01*
X89569161Y-139819746D01*
X89569169Y-139819744D01*
X89752701Y-139743723D01*
X89752710Y-139743718D01*
X89917879Y-139633355D01*
X89966952Y-139584282D01*
X90058353Y-139492881D01*
X91308350Y-138242885D01*
X91308353Y-138242881D01*
X91418717Y-138077711D01*
X91418722Y-138077701D01*
X91483446Y-137921445D01*
X91489624Y-137906529D01*
X91494744Y-137894169D01*
X91533500Y-137699329D01*
X91533500Y-137384970D01*
X91553185Y-137317931D01*
X91605989Y-137272176D01*
X91675147Y-137262232D01*
X91738703Y-137291257D01*
X91748729Y-137300986D01*
X91851762Y-137412908D01*
X91851761Y-137412908D01*
X92029422Y-137551188D01*
X92029427Y-137551192D01*
X92227419Y-137658339D01*
X92227430Y-137658344D01*
X92440362Y-137731444D01*
X92662431Y-137768500D01*
X92887569Y-137768500D01*
X93109637Y-137731444D01*
X93322569Y-137658344D01*
X93322571Y-137658343D01*
X93322574Y-137658342D01*
X93363310Y-137636297D01*
X93520572Y-137551192D01*
X93520577Y-137551188D01*
X93555123Y-137524300D01*
X93618860Y-137474691D01*
X93698238Y-137412908D01*
X93698243Y-137412903D01*
X93850715Y-137247277D01*
X93850723Y-137247266D01*
X93869462Y-137218585D01*
X93903288Y-137166810D01*
X93921192Y-137139406D01*
X93974338Y-137094050D01*
X94043569Y-137084626D01*
X94106905Y-137114128D01*
X94128808Y-137139406D01*
X94199276Y-137247266D01*
X94199284Y-137247277D01*
X94351756Y-137412903D01*
X94351761Y-137412908D01*
X94529422Y-137551188D01*
X94529427Y-137551192D01*
X94727419Y-137658339D01*
X94727430Y-137658344D01*
X94940362Y-137731444D01*
X95162431Y-137768500D01*
X95387569Y-137768500D01*
X95609637Y-137731444D01*
X95822569Y-137658344D01*
X95822571Y-137658343D01*
X95822574Y-137658342D01*
X95863310Y-137636297D01*
X96020572Y-137551192D01*
X96020577Y-137551188D01*
X96055123Y-137524300D01*
X96118860Y-137474691D01*
X96198238Y-137412908D01*
X96198243Y-137412903D01*
X96350715Y-137247277D01*
X96350723Y-137247266D01*
X96369462Y-137218585D01*
X96403288Y-137166810D01*
X96421192Y-137139406D01*
X96474338Y-137094050D01*
X96543569Y-137084626D01*
X96606905Y-137114128D01*
X96628808Y-137139406D01*
X96699276Y-137247266D01*
X96699284Y-137247277D01*
X96851756Y-137412903D01*
X96851761Y-137412908D01*
X97029422Y-137551188D01*
X97029427Y-137551192D01*
X97227419Y-137658339D01*
X97227430Y-137658344D01*
X97440362Y-137731444D01*
X97662431Y-137768500D01*
X97887569Y-137768500D01*
X98109637Y-137731444D01*
X98322569Y-137658344D01*
X98322571Y-137658343D01*
X98322574Y-137658342D01*
X98363310Y-137636297D01*
X98520572Y-137551192D01*
X98520577Y-137551188D01*
X98555123Y-137524300D01*
X98618860Y-137474691D01*
X98698238Y-137412908D01*
X98698243Y-137412903D01*
X98850715Y-137247277D01*
X98850723Y-137247266D01*
X98869462Y-137218585D01*
X98927827Y-137129250D01*
X98973859Y-137058793D01*
X99007096Y-136983021D01*
X99028944Y-136933211D01*
X99073900Y-136879725D01*
X99140636Y-136859035D01*
X99207963Y-136877709D01*
X99254507Y-136929819D01*
X99266500Y-136983021D01*
X99266500Y-137524334D01*
X99305254Y-137719162D01*
X99305256Y-137719170D01*
X99361241Y-137854329D01*
X99381277Y-137902702D01*
X99491646Y-138067882D01*
X101057115Y-139633351D01*
X101057119Y-139633354D01*
X101222289Y-139743718D01*
X101222298Y-139743723D01*
X101405830Y-139819744D01*
X101405838Y-139819746D01*
X101600666Y-139858500D01*
X101600671Y-139858500D01*
X108699333Y-139858500D01*
X108894161Y-139819746D01*
X108894169Y-139819744D01*
X109077701Y-139743723D01*
X109077710Y-139743718D01*
X109242879Y-139633355D01*
X109291952Y-139584282D01*
X109383353Y-139492881D01*
X110633350Y-138242885D01*
X110633353Y-138242881D01*
X110743717Y-138077711D01*
X110743722Y-138077701D01*
X110808446Y-137921445D01*
X110814624Y-137906529D01*
X110819744Y-137894169D01*
X110858500Y-137699329D01*
X110858500Y-136679999D01*
X114536502Y-136679999D01*
X114536502Y-136680002D01*
X114556456Y-136908082D01*
X114556457Y-136908090D01*
X114615714Y-137129239D01*
X114615718Y-137129250D01*
X114712475Y-137336746D01*
X114712476Y-137336748D01*
X114717419Y-137343807D01*
X114840060Y-137518956D01*
X114843806Y-137524305D01*
X115005695Y-137686194D01*
X115005698Y-137686197D01*
X115005700Y-137686198D01*
X115091292Y-137746130D01*
X115193252Y-137817524D01*
X115193254Y-137817525D01*
X115400750Y-137914282D01*
X115400761Y-137914286D01*
X115621910Y-137973543D01*
X115621918Y-137973544D01*
X115849998Y-137993498D01*
X115850000Y-137993498D01*
X115850002Y-137993498D01*
X116078081Y-137973544D01*
X116078089Y-137973543D01*
X116299238Y-137914286D01*
X116299249Y-137914282D01*
X116506745Y-137817525D01*
X116506747Y-137817524D01*
X116506749Y-137817523D01*
X116694300Y-137686198D01*
X116856198Y-137524300D01*
X116987523Y-137336749D01*
X117079545Y-137139406D01*
X117084281Y-137129250D01*
X117084285Y-137129239D01*
X117087908Y-137115719D01*
X117143543Y-136908087D01*
X117163498Y-136680000D01*
X117143543Y-136451913D01*
X117084284Y-136230757D01*
X116987523Y-136023251D01*
X116856198Y-135835700D01*
X116694300Y-135673802D01*
X116506749Y-135542477D01*
X116299243Y-135445716D01*
X116078087Y-135386457D01*
X115907021Y-135371491D01*
X115850002Y-135366502D01*
X115849998Y-135366502D01*
X115784832Y-135372204D01*
X115621913Y-135386457D01*
X115400757Y-135445716D01*
X115400752Y-135445719D01*
X115400750Y-135445719D01*
X115372674Y-135458811D01*
X115193251Y-135542477D01*
X115005700Y-135673802D01*
X114843802Y-135835700D01*
X114712477Y-136023251D01*
X114712476Y-136023253D01*
X114712475Y-136023255D01*
X114615718Y-136230751D01*
X114615714Y-136230762D01*
X114556457Y-136451911D01*
X114556456Y-136451919D01*
X114536502Y-136679999D01*
X110858500Y-136679999D01*
X110858500Y-135500671D01*
X110819744Y-135305831D01*
X110793097Y-135241500D01*
X110792974Y-135241204D01*
X110774785Y-135197290D01*
X110743722Y-135122296D01*
X110633354Y-134957119D01*
X106776233Y-131100000D01*
X107836835Y-131100000D01*
X107855465Y-131336715D01*
X107910895Y-131567596D01*
X107910895Y-131567598D01*
X108001757Y-131786960D01*
X108001759Y-131786963D01*
X108125820Y-131989411D01*
X108125821Y-131989414D01*
X108280031Y-132169969D01*
X108460586Y-132324179D01*
X108460589Y-132324180D01*
X108663037Y-132448241D01*
X108663040Y-132448243D01*
X108882403Y-132539105D01*
X109113285Y-132594535D01*
X109350000Y-132613165D01*
X109586714Y-132594535D01*
X109817595Y-132539105D01*
X109817597Y-132539105D01*
X110036959Y-132448243D01*
X110036962Y-132448241D01*
X110239410Y-132324180D01*
X110239413Y-132324179D01*
X110300596Y-132271924D01*
X110419969Y-132169969D01*
X110574176Y-131989416D01*
X110574178Y-131989414D01*
X110574179Y-131989411D01*
X110698240Y-131786963D01*
X110698242Y-131786960D01*
X110789104Y-131567598D01*
X110789104Y-131567596D01*
X110789105Y-131567594D01*
X110844535Y-131336711D01*
X110863165Y-131100000D01*
X110844535Y-130863289D01*
X110789105Y-130632406D01*
X110698240Y-130413037D01*
X110574176Y-130210584D01*
X110419969Y-130030031D01*
X110239416Y-129875824D01*
X110036963Y-129751760D01*
X110036960Y-129751759D01*
X110036959Y-129751758D01*
X109817596Y-129660896D01*
X109817594Y-129660895D01*
X109586711Y-129605465D01*
X109350000Y-129586835D01*
X109113289Y-129605465D01*
X108882406Y-129660895D01*
X108882404Y-129660896D01*
X108882402Y-129660896D01*
X108663040Y-129751758D01*
X108663037Y-129751760D01*
X108460589Y-129875821D01*
X108460586Y-129875822D01*
X108460584Y-129875824D01*
X108280031Y-130030031D01*
X108251446Y-130063500D01*
X108125821Y-130210587D01*
X108125820Y-130210590D01*
X108001759Y-130413038D01*
X108001757Y-130413041D01*
X107910895Y-130632403D01*
X107910895Y-130632405D01*
X107855465Y-130863286D01*
X107836835Y-131100000D01*
X106776233Y-131100000D01*
X105894818Y-130218585D01*
X105861334Y-130157262D01*
X105858500Y-130130904D01*
X105858500Y-126600000D01*
X107836835Y-126600000D01*
X107855465Y-126836715D01*
X107910895Y-127067596D01*
X107910895Y-127067598D01*
X108001757Y-127286960D01*
X108001759Y-127286963D01*
X108125820Y-127489411D01*
X108125821Y-127489414D01*
X108280031Y-127669969D01*
X108460586Y-127824179D01*
X108460589Y-127824180D01*
X108663037Y-127948241D01*
X108663040Y-127948243D01*
X108882403Y-128039105D01*
X109113285Y-128094535D01*
X109350000Y-128113165D01*
X109586714Y-128094535D01*
X109817595Y-128039105D01*
X109817597Y-128039105D01*
X110036959Y-127948243D01*
X110036962Y-127948241D01*
X110239410Y-127824180D01*
X110239413Y-127824179D01*
X110300596Y-127771924D01*
X110419969Y-127669969D01*
X110542765Y-127526194D01*
X110574178Y-127489414D01*
X110574179Y-127489411D01*
X110615189Y-127422490D01*
X110698240Y-127286963D01*
X110698242Y-127286960D01*
X110789104Y-127067598D01*
X110789104Y-127067596D01*
X110789105Y-127067594D01*
X110844535Y-126836711D01*
X110863165Y-126600000D01*
X110856869Y-126519999D01*
X111286502Y-126519999D01*
X111286502Y-126520002D01*
X111306456Y-126748082D01*
X111306457Y-126748090D01*
X111365714Y-126969239D01*
X111365718Y-126969250D01*
X111462475Y-127176746D01*
X111462476Y-127176748D01*
X111462477Y-127176749D01*
X111559002Y-127314601D01*
X111593806Y-127364305D01*
X111755695Y-127526194D01*
X111755698Y-127526197D01*
X111755700Y-127526198D01*
X111854650Y-127595484D01*
X111943252Y-127657524D01*
X111943254Y-127657525D01*
X112150750Y-127754282D01*
X112150761Y-127754286D01*
X112371910Y-127813543D01*
X112371918Y-127813544D01*
X112599998Y-127833498D01*
X112600000Y-127833498D01*
X112600002Y-127833498D01*
X112828081Y-127813544D01*
X112828089Y-127813543D01*
X113049238Y-127754286D01*
X113049249Y-127754282D01*
X113256745Y-127657525D01*
X113256747Y-127657524D01*
X113256749Y-127657523D01*
X113444300Y-127526198D01*
X113606198Y-127364300D01*
X113737523Y-127176749D01*
X113834284Y-126969243D01*
X113893543Y-126748087D01*
X113913498Y-126520000D01*
X113913498Y-126519999D01*
X114536502Y-126519999D01*
X114536502Y-126520002D01*
X114556456Y-126748082D01*
X114556457Y-126748090D01*
X114615714Y-126969239D01*
X114615718Y-126969250D01*
X114712475Y-127176746D01*
X114712476Y-127176748D01*
X114712477Y-127176749D01*
X114809002Y-127314601D01*
X114843806Y-127364305D01*
X115005695Y-127526194D01*
X115005698Y-127526197D01*
X115005700Y-127526198D01*
X115104650Y-127595484D01*
X115193252Y-127657524D01*
X115193254Y-127657525D01*
X115400750Y-127754282D01*
X115400761Y-127754286D01*
X115621910Y-127813543D01*
X115621918Y-127813544D01*
X115849998Y-127833498D01*
X115850000Y-127833498D01*
X115850002Y-127833498D01*
X116078081Y-127813544D01*
X116078089Y-127813543D01*
X116299238Y-127754286D01*
X116299249Y-127754282D01*
X116506745Y-127657525D01*
X116506747Y-127657524D01*
X116506749Y-127657523D01*
X116694300Y-127526198D01*
X116856198Y-127364300D01*
X116987523Y-127176749D01*
X117084284Y-126969243D01*
X117143543Y-126748087D01*
X117163498Y-126520000D01*
X117143543Y-126291913D01*
X117084284Y-126070757D01*
X116987523Y-125863251D01*
X116856198Y-125675700D01*
X116694300Y-125513802D01*
X116506749Y-125382477D01*
X116299243Y-125285716D01*
X116078087Y-125226457D01*
X115907021Y-125211491D01*
X115850002Y-125206502D01*
X115849998Y-125206502D01*
X115784832Y-125212204D01*
X115621913Y-125226457D01*
X115400757Y-125285716D01*
X115400752Y-125285719D01*
X115400750Y-125285719D01*
X115321465Y-125322690D01*
X115193251Y-125382477D01*
X115005700Y-125513802D01*
X114843802Y-125675700D01*
X114743512Y-125818929D01*
X114712476Y-125863253D01*
X114712475Y-125863255D01*
X114615718Y-126070751D01*
X114615714Y-126070762D01*
X114556457Y-126291911D01*
X114556456Y-126291919D01*
X114536502Y-126519999D01*
X113913498Y-126519999D01*
X113893543Y-126291913D01*
X113834284Y-126070757D01*
X113737523Y-125863251D01*
X113606198Y-125675700D01*
X113444300Y-125513802D01*
X113256749Y-125382477D01*
X113049243Y-125285716D01*
X112828087Y-125226457D01*
X112657021Y-125211491D01*
X112600002Y-125206502D01*
X112599998Y-125206502D01*
X112534832Y-125212204D01*
X112371913Y-125226457D01*
X112150757Y-125285716D01*
X112150752Y-125285719D01*
X112150750Y-125285719D01*
X112071465Y-125322690D01*
X111943251Y-125382477D01*
X111755700Y-125513802D01*
X111593802Y-125675700D01*
X111493512Y-125818929D01*
X111462476Y-125863253D01*
X111462475Y-125863255D01*
X111365718Y-126070751D01*
X111365714Y-126070762D01*
X111306457Y-126291911D01*
X111306456Y-126291919D01*
X111286502Y-126519999D01*
X110856869Y-126519999D01*
X110844535Y-126363289D01*
X110789105Y-126132406D01*
X110780661Y-126112020D01*
X110698242Y-125913041D01*
X110698240Y-125913038D01*
X110698240Y-125913037D01*
X110574176Y-125710584D01*
X110419969Y-125530031D01*
X110239416Y-125375824D01*
X110036963Y-125251760D01*
X110036960Y-125251759D01*
X110036959Y-125251758D01*
X109817596Y-125160896D01*
X109817594Y-125160895D01*
X109586711Y-125105465D01*
X109350000Y-125086835D01*
X109113289Y-125105465D01*
X108882406Y-125160895D01*
X108882404Y-125160896D01*
X108882402Y-125160896D01*
X108663040Y-125251758D01*
X108663037Y-125251760D01*
X108482213Y-125362570D01*
X108460589Y-125375821D01*
X108460586Y-125375822D01*
X108452794Y-125382477D01*
X108280031Y-125530031D01*
X108178076Y-125649404D01*
X108125821Y-125710587D01*
X108125820Y-125710590D01*
X108001759Y-125913038D01*
X108001757Y-125913041D01*
X107910895Y-126132403D01*
X107910895Y-126132405D01*
X107855465Y-126363286D01*
X107836835Y-126600000D01*
X105858500Y-126600000D01*
X105858500Y-124500670D01*
X105858499Y-124500667D01*
X105857233Y-124494300D01*
X105819744Y-124305831D01*
X105743721Y-124122296D01*
X105633353Y-123957119D01*
X105492881Y-123816647D01*
X104397242Y-122721010D01*
X104363759Y-122659689D01*
X104361307Y-122623601D01*
X104361448Y-122621815D01*
X104363165Y-122600000D01*
X107836835Y-122600000D01*
X107855465Y-122836715D01*
X107910895Y-123067596D01*
X107910895Y-123067598D01*
X108001757Y-123286960D01*
X108001759Y-123286963D01*
X108125820Y-123489411D01*
X108125821Y-123489414D01*
X108280031Y-123669969D01*
X108460586Y-123824179D01*
X108460589Y-123824180D01*
X108663037Y-123948241D01*
X108663040Y-123948243D01*
X108882403Y-124039105D01*
X109113285Y-124094535D01*
X109350000Y-124113165D01*
X109586714Y-124094535D01*
X109817595Y-124039105D01*
X109817597Y-124039105D01*
X110036959Y-123948243D01*
X110036962Y-123948241D01*
X110239410Y-123824180D01*
X110239413Y-123824179D01*
X110300596Y-123771924D01*
X110419969Y-123669969D01*
X110574176Y-123489416D01*
X110574178Y-123489414D01*
X110574179Y-123489411D01*
X110698240Y-123286963D01*
X110698242Y-123286960D01*
X110789104Y-123067598D01*
X110789104Y-123067596D01*
X110789105Y-123067594D01*
X110844535Y-122836711D01*
X110856869Y-122679999D01*
X111286502Y-122679999D01*
X111286502Y-122680002D01*
X111306456Y-122908082D01*
X111306457Y-122908090D01*
X111365714Y-123129239D01*
X111365718Y-123129250D01*
X111462475Y-123336746D01*
X111462476Y-123336748D01*
X111462477Y-123336749D01*
X111569374Y-123489414D01*
X111593806Y-123524305D01*
X111755695Y-123686194D01*
X111755698Y-123686197D01*
X111755700Y-123686198D01*
X111872856Y-123768233D01*
X111943252Y-123817524D01*
X111943254Y-123817525D01*
X112150750Y-123914282D01*
X112150761Y-123914286D01*
X112371910Y-123973543D01*
X112371918Y-123973544D01*
X112599998Y-123993498D01*
X112600000Y-123993498D01*
X112600002Y-123993498D01*
X112828081Y-123973544D01*
X112828089Y-123973543D01*
X113049238Y-123914286D01*
X113049249Y-123914282D01*
X113256745Y-123817525D01*
X113256747Y-123817524D01*
X113256749Y-123817523D01*
X113444300Y-123686198D01*
X113606198Y-123524300D01*
X113737523Y-123336749D01*
X113800937Y-123200757D01*
X113834281Y-123129250D01*
X113834285Y-123129239D01*
X113888386Y-122927332D01*
X113893543Y-122908087D01*
X113909910Y-122721012D01*
X113913498Y-122680002D01*
X113913498Y-122679999D01*
X114536502Y-122679999D01*
X114536502Y-122680002D01*
X114556456Y-122908082D01*
X114556457Y-122908090D01*
X114615714Y-123129239D01*
X114615718Y-123129250D01*
X114712475Y-123336746D01*
X114712476Y-123336748D01*
X114712477Y-123336749D01*
X114819374Y-123489414D01*
X114843806Y-123524305D01*
X115005695Y-123686194D01*
X115005698Y-123686197D01*
X115005700Y-123686198D01*
X115122856Y-123768233D01*
X115193252Y-123817524D01*
X115193254Y-123817525D01*
X115400750Y-123914282D01*
X115400761Y-123914286D01*
X115621910Y-123973543D01*
X115621918Y-123973544D01*
X115849998Y-123993498D01*
X115850000Y-123993498D01*
X115850002Y-123993498D01*
X116078081Y-123973544D01*
X116078089Y-123973543D01*
X116299238Y-123914286D01*
X116299249Y-123914282D01*
X116506745Y-123817525D01*
X116506747Y-123817524D01*
X116506749Y-123817523D01*
X116694300Y-123686198D01*
X116856198Y-123524300D01*
X116987523Y-123336749D01*
X117050937Y-123200757D01*
X117084281Y-123129250D01*
X117084285Y-123129239D01*
X117138386Y-122927332D01*
X117143543Y-122908087D01*
X117159910Y-122721012D01*
X117163498Y-122680002D01*
X117163498Y-122679999D01*
X117156499Y-122600000D01*
X117143543Y-122451913D01*
X117084284Y-122230757D01*
X116987523Y-122023251D01*
X116856198Y-121835700D01*
X116694300Y-121673802D01*
X116506749Y-121542477D01*
X116299243Y-121445716D01*
X116078087Y-121386457D01*
X115907021Y-121371491D01*
X115850002Y-121366502D01*
X115849998Y-121366502D01*
X115784832Y-121372204D01*
X115621913Y-121386457D01*
X115400757Y-121445716D01*
X115400752Y-121445719D01*
X115400750Y-121445719D01*
X115318091Y-121484264D01*
X115193251Y-121542477D01*
X115005700Y-121673802D01*
X114843802Y-121835700D01*
X114712477Y-122023251D01*
X114712476Y-122023253D01*
X114712475Y-122023255D01*
X114615718Y-122230751D01*
X114615714Y-122230762D01*
X114556457Y-122451911D01*
X114556456Y-122451919D01*
X114536502Y-122679999D01*
X113913498Y-122679999D01*
X113906499Y-122600000D01*
X113893543Y-122451913D01*
X113834284Y-122230757D01*
X113737523Y-122023251D01*
X113606198Y-121835700D01*
X113444300Y-121673802D01*
X113256749Y-121542477D01*
X113049243Y-121445716D01*
X112828087Y-121386457D01*
X112657021Y-121371491D01*
X112600002Y-121366502D01*
X112599998Y-121366502D01*
X112534832Y-121372204D01*
X112371913Y-121386457D01*
X112150757Y-121445716D01*
X112150752Y-121445719D01*
X112150750Y-121445719D01*
X112068091Y-121484264D01*
X111943251Y-121542477D01*
X111755700Y-121673802D01*
X111593802Y-121835700D01*
X111462477Y-122023251D01*
X111462476Y-122023253D01*
X111462475Y-122023255D01*
X111365718Y-122230751D01*
X111365714Y-122230762D01*
X111306457Y-122451911D01*
X111306456Y-122451919D01*
X111286502Y-122679999D01*
X110856869Y-122679999D01*
X110863165Y-122600000D01*
X110844535Y-122363289D01*
X110789105Y-122132406D01*
X110789104Y-122132403D01*
X110698242Y-121913041D01*
X110698240Y-121913038D01*
X110698240Y-121913037D01*
X110574176Y-121710584D01*
X110419969Y-121530031D01*
X110239416Y-121375824D01*
X110036963Y-121251760D01*
X110036960Y-121251759D01*
X110036959Y-121251758D01*
X109817596Y-121160896D01*
X109817594Y-121160895D01*
X109586711Y-121105465D01*
X109350000Y-121086835D01*
X109113289Y-121105465D01*
X108882406Y-121160895D01*
X108882404Y-121160896D01*
X108882402Y-121160896D01*
X108663040Y-121251758D01*
X108663037Y-121251760D01*
X108460589Y-121375821D01*
X108460586Y-121375822D01*
X108460584Y-121375824D01*
X108280031Y-121530031D01*
X108193877Y-121630904D01*
X108125821Y-121710587D01*
X108125820Y-121710590D01*
X108001759Y-121913038D01*
X108001757Y-121913041D01*
X107910895Y-122132403D01*
X107910895Y-122132405D01*
X107855465Y-122363286D01*
X107836835Y-122600000D01*
X104363165Y-122600000D01*
X104344535Y-122363289D01*
X104289105Y-122132406D01*
X104289104Y-122132403D01*
X104198242Y-121913041D01*
X104198240Y-121913038D01*
X104198240Y-121913037D01*
X104074176Y-121710584D01*
X103919969Y-121530031D01*
X103739416Y-121375824D01*
X103536963Y-121251760D01*
X103536960Y-121251759D01*
X103536959Y-121251758D01*
X103317596Y-121160896D01*
X103317594Y-121160895D01*
X103086711Y-121105465D01*
X102850000Y-121086835D01*
X102613289Y-121105465D01*
X102382406Y-121160895D01*
X102382404Y-121160896D01*
X102382402Y-121160896D01*
X102163040Y-121251758D01*
X102163037Y-121251760D01*
X101960589Y-121375821D01*
X101960586Y-121375822D01*
X101960584Y-121375824D01*
X101780031Y-121530031D01*
X101693877Y-121630904D01*
X101625821Y-121710587D01*
X101625820Y-121710590D01*
X101501759Y-121913038D01*
X101501757Y-121913041D01*
X101410895Y-122132403D01*
X101410895Y-122132405D01*
X101355465Y-122363286D01*
X101336835Y-122600000D01*
X101355465Y-122836715D01*
X101410895Y-123067596D01*
X101410895Y-123067598D01*
X101501757Y-123286960D01*
X101501759Y-123286963D01*
X101625820Y-123489411D01*
X101625821Y-123489414D01*
X101780031Y-123669969D01*
X101960586Y-123824179D01*
X101960589Y-123824180D01*
X102163037Y-123948241D01*
X102163040Y-123948243D01*
X102382403Y-124039105D01*
X102613285Y-124094535D01*
X102802657Y-124109439D01*
X102850000Y-124113165D01*
X102850001Y-124113165D01*
X102873602Y-124111308D01*
X102941979Y-124125674D01*
X102971009Y-124147245D01*
X103805181Y-124981416D01*
X103838666Y-125042739D01*
X103841500Y-125069097D01*
X103841500Y-125216963D01*
X103821815Y-125284002D01*
X103769011Y-125329757D01*
X103699853Y-125339701D01*
X103652710Y-125322690D01*
X103622144Y-125303960D01*
X103536963Y-125251760D01*
X103536960Y-125251759D01*
X103536959Y-125251758D01*
X103317596Y-125160896D01*
X103317594Y-125160895D01*
X103086711Y-125105465D01*
X102850000Y-125086835D01*
X102613289Y-125105465D01*
X102382406Y-125160895D01*
X102382404Y-125160896D01*
X102382402Y-125160896D01*
X102163040Y-125251758D01*
X102163037Y-125251760D01*
X101982213Y-125362570D01*
X101960589Y-125375821D01*
X101960586Y-125375822D01*
X101952794Y-125382477D01*
X101780031Y-125530031D01*
X101678076Y-125649404D01*
X101625821Y-125710587D01*
X101625820Y-125710590D01*
X101501759Y-125913038D01*
X101501757Y-125913041D01*
X101410895Y-126132403D01*
X101410895Y-126132405D01*
X101355465Y-126363286D01*
X101336835Y-126600000D01*
X101355465Y-126836715D01*
X101410895Y-127067596D01*
X101410895Y-127067598D01*
X101501757Y-127286960D01*
X101501759Y-127286963D01*
X101625820Y-127489411D01*
X101625821Y-127489414D01*
X101780031Y-127669969D01*
X101960586Y-127824179D01*
X101960589Y-127824180D01*
X102163037Y-127948241D01*
X102163040Y-127948243D01*
X102382403Y-128039105D01*
X102613285Y-128094535D01*
X102850000Y-128113165D01*
X103086714Y-128094535D01*
X103317595Y-128039105D01*
X103317597Y-128039105D01*
X103536956Y-127948244D01*
X103652710Y-127877310D01*
X103720156Y-127859066D01*
X103786759Y-127880183D01*
X103831372Y-127933955D01*
X103841500Y-127983038D01*
X103841500Y-129716963D01*
X103821815Y-129784002D01*
X103769011Y-129829757D01*
X103699853Y-129839701D01*
X103652710Y-129822690D01*
X103589577Y-129784002D01*
X103536963Y-129751760D01*
X103536960Y-129751759D01*
X103536959Y-129751758D01*
X103317596Y-129660896D01*
X103317594Y-129660895D01*
X103086711Y-129605465D01*
X102850000Y-129586835D01*
X102613289Y-129605465D01*
X102382406Y-129660895D01*
X102382404Y-129660896D01*
X102382402Y-129660896D01*
X102163040Y-129751758D01*
X102163037Y-129751760D01*
X101960589Y-129875821D01*
X101960586Y-129875822D01*
X101960584Y-129875824D01*
X101780031Y-130030031D01*
X101751446Y-130063500D01*
X101625821Y-130210587D01*
X101625820Y-130210590D01*
X101501759Y-130413038D01*
X101501757Y-130413041D01*
X101410895Y-130632403D01*
X101410895Y-130632405D01*
X101355465Y-130863286D01*
X101336835Y-131100000D01*
X101355465Y-131336715D01*
X101410894Y-131567594D01*
X101484398Y-131745047D01*
X101491867Y-131814517D01*
X101460592Y-131876996D01*
X101400503Y-131912648D01*
X101369837Y-131916500D01*
X87644097Y-131916500D01*
X87577058Y-131896815D01*
X87556416Y-131880181D01*
X86394819Y-130718585D01*
X86361334Y-130657262D01*
X86358500Y-130630904D01*
X86358500Y-129274264D01*
X86378185Y-129207225D01*
X86430989Y-129161470D01*
X86500147Y-129151526D01*
X86563703Y-129180551D01*
X86600430Y-129235944D01*
X86600944Y-129237524D01*
X86607367Y-129257294D01*
X86700873Y-129440807D01*
X86821926Y-129607424D01*
X86821930Y-129607429D01*
X86967571Y-129753070D01*
X86967576Y-129753074D01*
X87134193Y-129874127D01*
X87317705Y-129967633D01*
X87513591Y-130031281D01*
X87692550Y-130059625D01*
X87717019Y-130063500D01*
X87717020Y-130063500D01*
X88722980Y-130063500D01*
X88722981Y-130063500D01*
X88750794Y-130059095D01*
X88926408Y-130031281D01*
X89122294Y-129967633D01*
X89302476Y-129875824D01*
X89305803Y-129874129D01*
X89305806Y-129874127D01*
X89472423Y-129753074D01*
X89472428Y-129753070D01*
X89618069Y-129607429D01*
X89618073Y-129607424D01*
X89739126Y-129440807D01*
X89739129Y-129440803D01*
X89798709Y-129323872D01*
X89832632Y-129257295D01*
X89839057Y-129237523D01*
X89893571Y-129069746D01*
X89896280Y-129061409D01*
X89928500Y-128857981D01*
X89928500Y-128652020D01*
X89913752Y-128558908D01*
X89896280Y-128448592D01*
X89832634Y-128252710D01*
X89739129Y-128069197D01*
X89618068Y-127902570D01*
X89472430Y-127756932D01*
X89305803Y-127635871D01*
X89226540Y-127595485D01*
X89175745Y-127547510D01*
X89158950Y-127479689D01*
X89181487Y-127413554D01*
X89226541Y-127374515D01*
X89244395Y-127365418D01*
X89305803Y-127334129D01*
X89306124Y-127333896D01*
X89472423Y-127213074D01*
X89472428Y-127213070D01*
X89618069Y-127067429D01*
X89618073Y-127067424D01*
X89739126Y-126900807D01*
X89739129Y-126900803D01*
X89816945Y-126748082D01*
X89832632Y-126717295D01*
X89841014Y-126691500D01*
X89870744Y-126600000D01*
X91336835Y-126600000D01*
X91355465Y-126836715D01*
X91410895Y-127067596D01*
X91410895Y-127067598D01*
X91501757Y-127286960D01*
X91501759Y-127286963D01*
X91625820Y-127489411D01*
X91625821Y-127489414D01*
X91780031Y-127669969D01*
X91960586Y-127824179D01*
X91960589Y-127824180D01*
X92163037Y-127948241D01*
X92163040Y-127948243D01*
X92382403Y-128039105D01*
X92613285Y-128094535D01*
X92850000Y-128113165D01*
X93086714Y-128094535D01*
X93317595Y-128039105D01*
X93317597Y-128039105D01*
X93536959Y-127948243D01*
X93536962Y-127948241D01*
X93739410Y-127824180D01*
X93739413Y-127824179D01*
X93800596Y-127771924D01*
X93919969Y-127669969D01*
X94042765Y-127526194D01*
X94074178Y-127489414D01*
X94074179Y-127489411D01*
X94115189Y-127422490D01*
X94198240Y-127286963D01*
X94198242Y-127286960D01*
X94289104Y-127067598D01*
X94289104Y-127067596D01*
X94289105Y-127067594D01*
X94344535Y-126836711D01*
X94363165Y-126600000D01*
X97836835Y-126600000D01*
X97855465Y-126836715D01*
X97910895Y-127067596D01*
X97910895Y-127067598D01*
X98001757Y-127286960D01*
X98001759Y-127286963D01*
X98125820Y-127489411D01*
X98125821Y-127489414D01*
X98280031Y-127669969D01*
X98460586Y-127824179D01*
X98460589Y-127824180D01*
X98663037Y-127948241D01*
X98663040Y-127948243D01*
X98882403Y-128039105D01*
X99113285Y-128094535D01*
X99350000Y-128113165D01*
X99586714Y-128094535D01*
X99817595Y-128039105D01*
X99817597Y-128039105D01*
X100036959Y-127948243D01*
X100036962Y-127948241D01*
X100239410Y-127824180D01*
X100239413Y-127824179D01*
X100300596Y-127771924D01*
X100419969Y-127669969D01*
X100542765Y-127526194D01*
X100574178Y-127489414D01*
X100574179Y-127489411D01*
X100615189Y-127422490D01*
X100698240Y-127286963D01*
X100698242Y-127286960D01*
X100789104Y-127067598D01*
X100789104Y-127067596D01*
X100789105Y-127067594D01*
X100844535Y-126836711D01*
X100863165Y-126600000D01*
X100844535Y-126363289D01*
X100789105Y-126132406D01*
X100780661Y-126112020D01*
X100698242Y-125913041D01*
X100698240Y-125913038D01*
X100698240Y-125913037D01*
X100574176Y-125710584D01*
X100419969Y-125530031D01*
X100239416Y-125375824D01*
X100036963Y-125251760D01*
X100036960Y-125251759D01*
X100036959Y-125251758D01*
X99817596Y-125160896D01*
X99817594Y-125160895D01*
X99586711Y-125105465D01*
X99350000Y-125086835D01*
X99113289Y-125105465D01*
X98882406Y-125160895D01*
X98882404Y-125160896D01*
X98882402Y-125160896D01*
X98663040Y-125251758D01*
X98663037Y-125251760D01*
X98482213Y-125362570D01*
X98460589Y-125375821D01*
X98460586Y-125375822D01*
X98452794Y-125382477D01*
X98280031Y-125530031D01*
X98178076Y-125649404D01*
X98125821Y-125710587D01*
X98125820Y-125710590D01*
X98001759Y-125913038D01*
X98001757Y-125913041D01*
X97910895Y-126132403D01*
X97910895Y-126132405D01*
X97855465Y-126363286D01*
X97836835Y-126600000D01*
X94363165Y-126600000D01*
X94344535Y-126363289D01*
X94289105Y-126132406D01*
X94280661Y-126112020D01*
X94198242Y-125913041D01*
X94198240Y-125913038D01*
X94198240Y-125913037D01*
X94074176Y-125710584D01*
X93919969Y-125530031D01*
X93739416Y-125375824D01*
X93536963Y-125251760D01*
X93536960Y-125251759D01*
X93536959Y-125251758D01*
X93317596Y-125160896D01*
X93317594Y-125160895D01*
X93086711Y-125105465D01*
X92850000Y-125086835D01*
X92613289Y-125105465D01*
X92382406Y-125160895D01*
X92382404Y-125160896D01*
X92382402Y-125160896D01*
X92163040Y-125251758D01*
X92163037Y-125251760D01*
X91982213Y-125362570D01*
X91960589Y-125375821D01*
X91960586Y-125375822D01*
X91952794Y-125382477D01*
X91780031Y-125530031D01*
X91678076Y-125649404D01*
X91625821Y-125710587D01*
X91625820Y-125710590D01*
X91501759Y-125913038D01*
X91501757Y-125913041D01*
X91410895Y-126132403D01*
X91410895Y-126132405D01*
X91355465Y-126363286D01*
X91336835Y-126600000D01*
X89870744Y-126600000D01*
X89896280Y-126521408D01*
X89928500Y-126317981D01*
X89928500Y-126112019D01*
X89896280Y-125908592D01*
X89832634Y-125712710D01*
X89739129Y-125529197D01*
X89618068Y-125362570D01*
X89472430Y-125216932D01*
X89305803Y-125095871D01*
X89226540Y-125055485D01*
X89175745Y-125007510D01*
X89158950Y-124939689D01*
X89181487Y-124873554D01*
X89226541Y-124834515D01*
X89305803Y-124794129D01*
X89314894Y-124787524D01*
X89472423Y-124673074D01*
X89472428Y-124673070D01*
X89618069Y-124527429D01*
X89618073Y-124527424D01*
X89724525Y-124380904D01*
X89739129Y-124360803D01*
X89798709Y-124243872D01*
X89832632Y-124177295D01*
X89850503Y-124122296D01*
X89896280Y-123981408D01*
X89919846Y-123832623D01*
X89928500Y-123777981D01*
X89928500Y-123572020D01*
X89915416Y-123489414D01*
X89896280Y-123368592D01*
X89832634Y-123172710D01*
X89739129Y-122989197D01*
X89618068Y-122822570D01*
X89472430Y-122676932D01*
X89366542Y-122600000D01*
X91336835Y-122600000D01*
X91355465Y-122836715D01*
X91410895Y-123067596D01*
X91410895Y-123067598D01*
X91501757Y-123286960D01*
X91501759Y-123286963D01*
X91625820Y-123489411D01*
X91625821Y-123489414D01*
X91780031Y-123669969D01*
X91960586Y-123824179D01*
X91960589Y-123824180D01*
X92163037Y-123948241D01*
X92163040Y-123948243D01*
X92382403Y-124039105D01*
X92613285Y-124094535D01*
X92850000Y-124113165D01*
X93086714Y-124094535D01*
X93317595Y-124039105D01*
X93317597Y-124039105D01*
X93536959Y-123948243D01*
X93536962Y-123948241D01*
X93739410Y-123824180D01*
X93739413Y-123824179D01*
X93800596Y-123771924D01*
X93919969Y-123669969D01*
X94074176Y-123489416D01*
X94074178Y-123489414D01*
X94074179Y-123489411D01*
X94198240Y-123286963D01*
X94198242Y-123286960D01*
X94289104Y-123067598D01*
X94289104Y-123067596D01*
X94289105Y-123067594D01*
X94344535Y-122836711D01*
X94363165Y-122600000D01*
X97836835Y-122600000D01*
X97855465Y-122836715D01*
X97910895Y-123067596D01*
X97910895Y-123067598D01*
X98001757Y-123286960D01*
X98001759Y-123286963D01*
X98125820Y-123489411D01*
X98125821Y-123489414D01*
X98280031Y-123669969D01*
X98460586Y-123824179D01*
X98460589Y-123824180D01*
X98663037Y-123948241D01*
X98663040Y-123948243D01*
X98882403Y-124039105D01*
X99113285Y-124094535D01*
X99350000Y-124113165D01*
X99586714Y-124094535D01*
X99817595Y-124039105D01*
X99817597Y-124039105D01*
X100036959Y-123948243D01*
X100036962Y-123948241D01*
X100239410Y-123824180D01*
X100239413Y-123824179D01*
X100300596Y-123771924D01*
X100419969Y-123669969D01*
X100574176Y-123489416D01*
X100574178Y-123489414D01*
X100574179Y-123489411D01*
X100698240Y-123286963D01*
X100698242Y-123286960D01*
X100789104Y-123067598D01*
X100789104Y-123067596D01*
X100789105Y-123067594D01*
X100844535Y-122836711D01*
X100863165Y-122600000D01*
X100844535Y-122363289D01*
X100789105Y-122132406D01*
X100789104Y-122132403D01*
X100698242Y-121913041D01*
X100698240Y-121913038D01*
X100698240Y-121913037D01*
X100574176Y-121710584D01*
X100419969Y-121530031D01*
X100239416Y-121375824D01*
X100036963Y-121251760D01*
X100036960Y-121251759D01*
X100036959Y-121251758D01*
X99817596Y-121160896D01*
X99817594Y-121160895D01*
X99586711Y-121105465D01*
X99350000Y-121086835D01*
X99113289Y-121105465D01*
X98882406Y-121160895D01*
X98882404Y-121160896D01*
X98882402Y-121160896D01*
X98663040Y-121251758D01*
X98663037Y-121251760D01*
X98460589Y-121375821D01*
X98460586Y-121375822D01*
X98460584Y-121375824D01*
X98280031Y-121530031D01*
X98193877Y-121630904D01*
X98125821Y-121710587D01*
X98125820Y-121710590D01*
X98001759Y-121913038D01*
X98001757Y-121913041D01*
X97910895Y-122132403D01*
X97910895Y-122132405D01*
X97855465Y-122363286D01*
X97836835Y-122600000D01*
X94363165Y-122600000D01*
X94344535Y-122363289D01*
X94289105Y-122132406D01*
X94289104Y-122132403D01*
X94198242Y-121913041D01*
X94198240Y-121913038D01*
X94198240Y-121913037D01*
X94074176Y-121710584D01*
X93919969Y-121530031D01*
X93739416Y-121375824D01*
X93536963Y-121251760D01*
X93536960Y-121251759D01*
X93536959Y-121251758D01*
X93317596Y-121160896D01*
X93317594Y-121160895D01*
X93086711Y-121105465D01*
X92850000Y-121086835D01*
X92613289Y-121105465D01*
X92382406Y-121160895D01*
X92382404Y-121160896D01*
X92382402Y-121160896D01*
X92163040Y-121251758D01*
X92163037Y-121251760D01*
X91960589Y-121375821D01*
X91960586Y-121375822D01*
X91960584Y-121375824D01*
X91780031Y-121530031D01*
X91693877Y-121630904D01*
X91625821Y-121710587D01*
X91625820Y-121710590D01*
X91501759Y-121913038D01*
X91501757Y-121913041D01*
X91410895Y-122132403D01*
X91410895Y-122132405D01*
X91355465Y-122363286D01*
X91336835Y-122600000D01*
X89366542Y-122600000D01*
X89305803Y-122555871D01*
X89226540Y-122515485D01*
X89175745Y-122467510D01*
X89158950Y-122399689D01*
X89181487Y-122333554D01*
X89226541Y-122294515D01*
X89305803Y-122254129D01*
X89305806Y-122254127D01*
X89472423Y-122133074D01*
X89472428Y-122133070D01*
X89618069Y-121987429D01*
X89618073Y-121987424D01*
X89739126Y-121820807D01*
X89739129Y-121820803D01*
X89798709Y-121703872D01*
X89832632Y-121637295D01*
X89896280Y-121441409D01*
X89928500Y-121237981D01*
X89928500Y-121032020D01*
X89896280Y-120828592D01*
X89832634Y-120632710D01*
X89739129Y-120449197D01*
X89618068Y-120282570D01*
X89472430Y-120136932D01*
X89305803Y-120015871D01*
X89226540Y-119975485D01*
X89175745Y-119927510D01*
X89158950Y-119859689D01*
X89181487Y-119793554D01*
X89226541Y-119754515D01*
X89305803Y-119714129D01*
X89305806Y-119714127D01*
X89472423Y-119593074D01*
X89472428Y-119593070D01*
X89618069Y-119447429D01*
X89618073Y-119447424D01*
X89739126Y-119280807D01*
X89739129Y-119280803D01*
X89805779Y-119149995D01*
X89832632Y-119097295D01*
X89857124Y-119021919D01*
X89878178Y-118957121D01*
X89896280Y-118901409D01*
X89928500Y-118697981D01*
X89928500Y-118492020D01*
X89926173Y-118477331D01*
X89896280Y-118288592D01*
X89832634Y-118092710D01*
X89739129Y-117909197D01*
X89618068Y-117742570D01*
X89472430Y-117596932D01*
X89305803Y-117475871D01*
X89226540Y-117435485D01*
X89175745Y-117387510D01*
X89158950Y-117319689D01*
X89181487Y-117253554D01*
X89226541Y-117214515D01*
X89305803Y-117174129D01*
X89305806Y-117174127D01*
X89472423Y-117053074D01*
X89472428Y-117053070D01*
X89618069Y-116907429D01*
X89618073Y-116907424D01*
X89739126Y-116740807D01*
X89739129Y-116740803D01*
X89808087Y-116605466D01*
X89832632Y-116557295D01*
X89896280Y-116361409D01*
X89928500Y-116157981D01*
X89928500Y-115952020D01*
X89927157Y-115943543D01*
X89896280Y-115748592D01*
X89832634Y-115552710D01*
X89739129Y-115369197D01*
X89618068Y-115202570D01*
X89472430Y-115056932D01*
X89305803Y-114935871D01*
X89226540Y-114895485D01*
X89175745Y-114847510D01*
X89158950Y-114779689D01*
X89181487Y-114713554D01*
X89226541Y-114674515D01*
X89305803Y-114634129D01*
X89305806Y-114634127D01*
X89472423Y-114513074D01*
X89472428Y-114513070D01*
X89618069Y-114367429D01*
X89618073Y-114367424D01*
X89739126Y-114200807D01*
X89739129Y-114200803D01*
X89820506Y-114041093D01*
X89832632Y-114017295D01*
X89840445Y-113993251D01*
X89866749Y-113912293D01*
X89896280Y-113821409D01*
X89896280Y-113821408D01*
X89898768Y-113805700D01*
X89926423Y-113631094D01*
X89956351Y-113567961D01*
X90015662Y-113531029D01*
X90085525Y-113532027D01*
X90136576Y-113562812D01*
X91805181Y-115231416D01*
X91838666Y-115292739D01*
X91841500Y-115319097D01*
X91841500Y-116920367D01*
X91821815Y-116987406D01*
X91798029Y-117014659D01*
X91780040Y-117030022D01*
X91780034Y-117030028D01*
X91780031Y-117030031D01*
X91678076Y-117149404D01*
X91625821Y-117210587D01*
X91625820Y-117210590D01*
X91501759Y-117413038D01*
X91501757Y-117413041D01*
X91410895Y-117632403D01*
X91410895Y-117632405D01*
X91355465Y-117863286D01*
X91336835Y-118100000D01*
X91355465Y-118336715D01*
X91410895Y-118567596D01*
X91410895Y-118567598D01*
X91501757Y-118786960D01*
X91501759Y-118786963D01*
X91625820Y-118989411D01*
X91625821Y-118989414D01*
X91780031Y-119169969D01*
X91960586Y-119324179D01*
X91960589Y-119324180D01*
X92163037Y-119448241D01*
X92163040Y-119448243D01*
X92382403Y-119539105D01*
X92613285Y-119594535D01*
X92850000Y-119613165D01*
X93086714Y-119594535D01*
X93317595Y-119539105D01*
X93317597Y-119539105D01*
X93536959Y-119448243D01*
X93536962Y-119448241D01*
X93739410Y-119324180D01*
X93739413Y-119324179D01*
X93826266Y-119249999D01*
X93919969Y-119169969D01*
X94074176Y-118989416D01*
X94074178Y-118989414D01*
X94074179Y-118989411D01*
X94093967Y-118957121D01*
X94198240Y-118786963D01*
X94198242Y-118786960D01*
X94289104Y-118567598D01*
X94289104Y-118567596D01*
X94289105Y-118567594D01*
X94344535Y-118336711D01*
X94363165Y-118100000D01*
X97836835Y-118100000D01*
X97855465Y-118336715D01*
X97910895Y-118567596D01*
X97910895Y-118567598D01*
X98001757Y-118786960D01*
X98001759Y-118786963D01*
X98125820Y-118989411D01*
X98125821Y-118989414D01*
X98280031Y-119169969D01*
X98460586Y-119324179D01*
X98460589Y-119324180D01*
X98663037Y-119448241D01*
X98663040Y-119448243D01*
X98882403Y-119539105D01*
X99113285Y-119594535D01*
X99350000Y-119613165D01*
X99586714Y-119594535D01*
X99817595Y-119539105D01*
X99817597Y-119539105D01*
X100036959Y-119448243D01*
X100036962Y-119448241D01*
X100239410Y-119324180D01*
X100239413Y-119324179D01*
X100326266Y-119249999D01*
X100419969Y-119169969D01*
X100574176Y-118989416D01*
X100574178Y-118989414D01*
X100574179Y-118989411D01*
X100593967Y-118957121D01*
X100698240Y-118786963D01*
X100698242Y-118786960D01*
X100789104Y-118567598D01*
X100789104Y-118567596D01*
X100789105Y-118567594D01*
X100844535Y-118336711D01*
X100863165Y-118100000D01*
X100844535Y-117863289D01*
X100789105Y-117632406D01*
X100786144Y-117625257D01*
X100698242Y-117413041D01*
X100698240Y-117413038D01*
X100698240Y-117413037D01*
X100574176Y-117210584D01*
X100419969Y-117030031D01*
X100239416Y-116875824D01*
X100036963Y-116751760D01*
X100036960Y-116751759D01*
X100036959Y-116751758D01*
X99817596Y-116660896D01*
X99817594Y-116660895D01*
X99586711Y-116605465D01*
X99350000Y-116586835D01*
X99113289Y-116605465D01*
X98882406Y-116660895D01*
X98882404Y-116660896D01*
X98882402Y-116660896D01*
X98663040Y-116751758D01*
X98663037Y-116751760D01*
X98460589Y-116875821D01*
X98460586Y-116875822D01*
X98460584Y-116875824D01*
X98280031Y-117030031D01*
X98178076Y-117149404D01*
X98125821Y-117210587D01*
X98125820Y-117210590D01*
X98001759Y-117413038D01*
X98001757Y-117413041D01*
X97910895Y-117632403D01*
X97910895Y-117632405D01*
X97855465Y-117863286D01*
X97836835Y-118100000D01*
X94363165Y-118100000D01*
X94344535Y-117863289D01*
X94289105Y-117632406D01*
X94286144Y-117625257D01*
X94198242Y-117413041D01*
X94198240Y-117413038D01*
X94198240Y-117413037D01*
X94074176Y-117210584D01*
X93919969Y-117030031D01*
X93919960Y-117030024D01*
X93919959Y-117030022D01*
X93901971Y-117014659D01*
X93863776Y-116956153D01*
X93858500Y-116920367D01*
X93858500Y-114750670D01*
X93858499Y-114750667D01*
X93856702Y-114741632D01*
X93819744Y-114555831D01*
X93788254Y-114479809D01*
X93785328Y-114472747D01*
X93777861Y-114403281D01*
X93809137Y-114340802D01*
X93869227Y-114305150D01*
X93920299Y-114302990D01*
X93983287Y-114313500D01*
X93983288Y-114313500D01*
X94216711Y-114313500D01*
X94216712Y-114313500D01*
X94279695Y-114302990D01*
X94446954Y-114275080D01*
X94667719Y-114199290D01*
X94667721Y-114199289D01*
X94667727Y-114199287D01*
X94667733Y-114199284D01*
X94873011Y-114088194D01*
X94873014Y-114088192D01*
X94873017Y-114088190D01*
X95057220Y-113944818D01*
X95071029Y-113929818D01*
X95215313Y-113773085D01*
X95342984Y-113577669D01*
X95360415Y-113537931D01*
X95436749Y-113363907D01*
X95494051Y-113137626D01*
X95501033Y-113053362D01*
X95513327Y-112905006D01*
X95513327Y-112904995D01*
X98686673Y-112904995D01*
X98686673Y-112905006D01*
X98705948Y-113137623D01*
X98763251Y-113363908D01*
X98857015Y-113577669D01*
X98984686Y-113773085D01*
X99142776Y-113944815D01*
X99142781Y-113944819D01*
X99326985Y-114088192D01*
X99326988Y-114088194D01*
X99532266Y-114199284D01*
X99532280Y-114199290D01*
X99753045Y-114275080D01*
X99920305Y-114302990D01*
X99983288Y-114313500D01*
X99983289Y-114313500D01*
X100216711Y-114313500D01*
X100216712Y-114313500D01*
X100279695Y-114302990D01*
X100446954Y-114275080D01*
X100667719Y-114199290D01*
X100667721Y-114199289D01*
X100667727Y-114199287D01*
X100667733Y-114199284D01*
X100873011Y-114088194D01*
X100873014Y-114088192D01*
X100873017Y-114088190D01*
X101057220Y-113944818D01*
X101071029Y-113929818D01*
X101215313Y-113773085D01*
X101342984Y-113577669D01*
X101360415Y-113537931D01*
X101436749Y-113363907D01*
X101494051Y-113137626D01*
X101501033Y-113053362D01*
X101513327Y-112905006D01*
X101513327Y-112904995D01*
X101494051Y-112672378D01*
X101494051Y-112672374D01*
X101436749Y-112446093D01*
X101342984Y-112232331D01*
X101215314Y-112036917D01*
X101057220Y-111865182D01*
X100873017Y-111721810D01*
X100667727Y-111610713D01*
X100446951Y-111534920D01*
X100216712Y-111496500D01*
X99983288Y-111496500D01*
X99753049Y-111534920D01*
X99753047Y-111534921D01*
X99753045Y-111534921D01*
X99646914Y-111571357D01*
X99532273Y-111610713D01*
X99532266Y-111610717D01*
X99326988Y-111721807D01*
X99326985Y-111721809D01*
X99326983Y-111721810D01*
X99142780Y-111865182D01*
X99142777Y-111865186D01*
X99142776Y-111865186D01*
X98984686Y-112036916D01*
X98857015Y-112232332D01*
X98802996Y-112355484D01*
X98763251Y-112446093D01*
X98709747Y-112657378D01*
X98705948Y-112672378D01*
X98686673Y-112904995D01*
X95513327Y-112904995D01*
X95494051Y-112672378D01*
X95494051Y-112672374D01*
X95436749Y-112446093D01*
X95342984Y-112232331D01*
X95215314Y-112036917D01*
X95057220Y-111865182D01*
X94873017Y-111721810D01*
X94667727Y-111610713D01*
X94446951Y-111534920D01*
X94216712Y-111496500D01*
X93983288Y-111496500D01*
X93753049Y-111534920D01*
X93753047Y-111534921D01*
X93753045Y-111534921D01*
X93646914Y-111571357D01*
X93532273Y-111610713D01*
X93532266Y-111610717D01*
X93326988Y-111721807D01*
X93326985Y-111721809D01*
X93326983Y-111721810D01*
X93142780Y-111865182D01*
X93142777Y-111865186D01*
X93142776Y-111865186D01*
X92984686Y-112036916D01*
X92857015Y-112232332D01*
X92802996Y-112355484D01*
X92763251Y-112446093D01*
X92709747Y-112657378D01*
X92705948Y-112672378D01*
X92692954Y-112829194D01*
X92686673Y-112905000D01*
X92690853Y-112955442D01*
X92676771Y-113023878D01*
X92627926Y-113073837D01*
X92559824Y-113089457D01*
X92494089Y-113065779D01*
X92479601Y-113053368D01*
X89777634Y-110351402D01*
X89754830Y-110320015D01*
X89739129Y-110289197D01*
X89618068Y-110122570D01*
X89472430Y-109976932D01*
X89305803Y-109855871D01*
X89122290Y-109762366D01*
X88926408Y-109698720D01*
X88722981Y-109666500D01*
X87759096Y-109666500D01*
X87692057Y-109646815D01*
X87646302Y-109594011D01*
X87636358Y-109524853D01*
X87665383Y-109461297D01*
X87671415Y-109454819D01*
X94008350Y-103117885D01*
X94008353Y-103117881D01*
X94118717Y-102952711D01*
X94118722Y-102952702D01*
X94158697Y-102856194D01*
X94194744Y-102769169D01*
X94233500Y-102574329D01*
X94233500Y-102375671D01*
X94233500Y-101058675D01*
X94253185Y-100991636D01*
X94266271Y-100974691D01*
X94300720Y-100937270D01*
X94300723Y-100937266D01*
X94305297Y-100930266D01*
X94353086Y-100857119D01*
X94391192Y-100798794D01*
X94444338Y-100753438D01*
X94513569Y-100744014D01*
X94576905Y-100773516D01*
X94598808Y-100798794D01*
X94689276Y-100937266D01*
X94689284Y-100937277D01*
X94841756Y-101102903D01*
X94841761Y-101102908D01*
X95019422Y-101241188D01*
X95019427Y-101241192D01*
X95217419Y-101348339D01*
X95217430Y-101348344D01*
X95430362Y-101421444D01*
X95652431Y-101458500D01*
X95877569Y-101458500D01*
X96099637Y-101421444D01*
X96312569Y-101348344D01*
X96312571Y-101348343D01*
X96312574Y-101348342D01*
X96312580Y-101348339D01*
X96510572Y-101241192D01*
X96510577Y-101241188D01*
X96688238Y-101102908D01*
X96688243Y-101102903D01*
X96840715Y-100937277D01*
X96840723Y-100937266D01*
X96845297Y-100930266D01*
X96931191Y-100798795D01*
X96963859Y-100748793D01*
X96977959Y-100716648D01*
X97054296Y-100542616D01*
X97109564Y-100324368D01*
X97112834Y-100284905D01*
X97121942Y-100174995D01*
X100176844Y-100174995D01*
X100176844Y-100175006D01*
X100195434Y-100399360D01*
X100195436Y-100399372D01*
X100250703Y-100617615D01*
X100341140Y-100823793D01*
X100464276Y-101012266D01*
X100464284Y-101012277D01*
X100616756Y-101177903D01*
X100616761Y-101177908D01*
X100794422Y-101316188D01*
X100794427Y-101316192D01*
X100992419Y-101423339D01*
X100992430Y-101423344D01*
X101205361Y-101496444D01*
X101424060Y-101532938D01*
X101486945Y-101563389D01*
X101491331Y-101567566D01*
X101805181Y-101881415D01*
X101838666Y-101942738D01*
X101841500Y-101969096D01*
X101841500Y-116920367D01*
X101821815Y-116987406D01*
X101798029Y-117014659D01*
X101780040Y-117030022D01*
X101780034Y-117030028D01*
X101780031Y-117030031D01*
X101678076Y-117149404D01*
X101625821Y-117210587D01*
X101625820Y-117210590D01*
X101501759Y-117413038D01*
X101501757Y-117413041D01*
X101410895Y-117632403D01*
X101410895Y-117632405D01*
X101355465Y-117863286D01*
X101336835Y-118100000D01*
X101355465Y-118336715D01*
X101410895Y-118567596D01*
X101410895Y-118567598D01*
X101501757Y-118786960D01*
X101501759Y-118786963D01*
X101625820Y-118989411D01*
X101625821Y-118989414D01*
X101780031Y-119169969D01*
X101960586Y-119324179D01*
X101960589Y-119324180D01*
X102163037Y-119448241D01*
X102163040Y-119448243D01*
X102382403Y-119539105D01*
X102613285Y-119594535D01*
X102850000Y-119613165D01*
X103086714Y-119594535D01*
X103317595Y-119539105D01*
X103317597Y-119539105D01*
X103536959Y-119448243D01*
X103536962Y-119448241D01*
X103739410Y-119324180D01*
X103739413Y-119324179D01*
X103826266Y-119249999D01*
X103919969Y-119169969D01*
X104074176Y-118989416D01*
X104074178Y-118989414D01*
X104074179Y-118989411D01*
X104093967Y-118957121D01*
X104198240Y-118786963D01*
X104198242Y-118786960D01*
X104289104Y-118567598D01*
X104289104Y-118567596D01*
X104289105Y-118567594D01*
X104344535Y-118336711D01*
X104363165Y-118100000D01*
X107836835Y-118100000D01*
X107855465Y-118336715D01*
X107910895Y-118567596D01*
X107910895Y-118567598D01*
X108001757Y-118786960D01*
X108001759Y-118786963D01*
X108125820Y-118989411D01*
X108125821Y-118989414D01*
X108280031Y-119169969D01*
X108460586Y-119324179D01*
X108460589Y-119324180D01*
X108663037Y-119448241D01*
X108663040Y-119448243D01*
X108882403Y-119539105D01*
X109113285Y-119594535D01*
X109350000Y-119613165D01*
X109586714Y-119594535D01*
X109817595Y-119539105D01*
X109817597Y-119539105D01*
X110036959Y-119448243D01*
X110036962Y-119448241D01*
X110239410Y-119324180D01*
X110239413Y-119324179D01*
X110326266Y-119249999D01*
X110419969Y-119169969D01*
X110574176Y-118989416D01*
X110574178Y-118989414D01*
X110574179Y-118989411D01*
X110593967Y-118957121D01*
X110698240Y-118786963D01*
X110698242Y-118786960D01*
X110789104Y-118567598D01*
X110789104Y-118567596D01*
X110789105Y-118567594D01*
X110844535Y-118336711D01*
X110863165Y-118100000D01*
X110844535Y-117863289D01*
X110789105Y-117632406D01*
X110786144Y-117625257D01*
X110698242Y-117413041D01*
X110698240Y-117413038D01*
X110698240Y-117413037D01*
X110574176Y-117210584D01*
X110419969Y-117030031D01*
X110239416Y-116875824D01*
X110036963Y-116751760D01*
X110036960Y-116751759D01*
X110036959Y-116751758D01*
X109817596Y-116660896D01*
X109817594Y-116660895D01*
X109586711Y-116605465D01*
X109350000Y-116586835D01*
X109113289Y-116605465D01*
X108882406Y-116660895D01*
X108882404Y-116660896D01*
X108882402Y-116660896D01*
X108663040Y-116751758D01*
X108663037Y-116751760D01*
X108460589Y-116875821D01*
X108460586Y-116875822D01*
X108460584Y-116875824D01*
X108280031Y-117030031D01*
X108178076Y-117149404D01*
X108125821Y-117210587D01*
X108125820Y-117210590D01*
X108001759Y-117413038D01*
X108001757Y-117413041D01*
X107910895Y-117632403D01*
X107910895Y-117632405D01*
X107855465Y-117863286D01*
X107836835Y-118100000D01*
X104363165Y-118100000D01*
X104344535Y-117863289D01*
X104289105Y-117632406D01*
X104286144Y-117625257D01*
X104198242Y-117413041D01*
X104198240Y-117413038D01*
X104198240Y-117413037D01*
X104074176Y-117210584D01*
X103919969Y-117030031D01*
X103919960Y-117030024D01*
X103919959Y-117030022D01*
X103901971Y-117014659D01*
X103863776Y-116956153D01*
X103858500Y-116920367D01*
X103858500Y-112889995D01*
X104686673Y-112889995D01*
X104686673Y-112890006D01*
X104705948Y-113122623D01*
X104763251Y-113348908D01*
X104857015Y-113562669D01*
X104984686Y-113758085D01*
X105142776Y-113929815D01*
X105142781Y-113929819D01*
X105326985Y-114073192D01*
X105326988Y-114073194D01*
X105532266Y-114184284D01*
X105532280Y-114184290D01*
X105753045Y-114260080D01*
X105937240Y-114290816D01*
X105983288Y-114298500D01*
X105983289Y-114298500D01*
X106216711Y-114298500D01*
X106216712Y-114298500D01*
X106274271Y-114288895D01*
X106446954Y-114260080D01*
X106667719Y-114184290D01*
X106667721Y-114184289D01*
X106667727Y-114184287D01*
X106667733Y-114184284D01*
X106873011Y-114073194D01*
X106873014Y-114073192D01*
X106873017Y-114073190D01*
X107057220Y-113929818D01*
X107139719Y-113840201D01*
X107215313Y-113758085D01*
X107342984Y-113562669D01*
X107407442Y-113415719D01*
X107436749Y-113348907D01*
X107494051Y-113122626D01*
X107503159Y-113012706D01*
X107513327Y-112890006D01*
X107513327Y-112889995D01*
X107494482Y-112662577D01*
X107494051Y-112657374D01*
X107436749Y-112431093D01*
X107342984Y-112217331D01*
X107215314Y-112021917D01*
X107057220Y-111850182D01*
X106873017Y-111706810D01*
X106667727Y-111595713D01*
X106446951Y-111519920D01*
X106216712Y-111481500D01*
X105983288Y-111481500D01*
X105753049Y-111519920D01*
X105753047Y-111519921D01*
X105753045Y-111519921D01*
X105646914Y-111556357D01*
X105532273Y-111595713D01*
X105504548Y-111610717D01*
X105326988Y-111706807D01*
X105326985Y-111706809D01*
X105326983Y-111706810D01*
X105142780Y-111850182D01*
X105142777Y-111850186D01*
X105142776Y-111850186D01*
X104984686Y-112021916D01*
X104857015Y-112217332D01*
X104763251Y-112431093D01*
X104705948Y-112657378D01*
X104686673Y-112889995D01*
X103858500Y-112889995D01*
X103858500Y-108675000D01*
X113661835Y-108675000D01*
X113680465Y-108911715D01*
X113735895Y-109142596D01*
X113735895Y-109142598D01*
X113826757Y-109361960D01*
X113826759Y-109361963D01*
X113950820Y-109564411D01*
X113950821Y-109564414D01*
X114105031Y-109744969D01*
X114285586Y-109899179D01*
X114285589Y-109899180D01*
X114488037Y-110023241D01*
X114488040Y-110023243D01*
X114707403Y-110114105D01*
X114938285Y-110169535D01*
X115175000Y-110188165D01*
X115411714Y-110169535D01*
X115642595Y-110114105D01*
X115642597Y-110114105D01*
X115861959Y-110023243D01*
X115861962Y-110023241D01*
X116064410Y-109899180D01*
X116064413Y-109899179D01*
X116224597Y-109762368D01*
X116244969Y-109744969D01*
X116364340Y-109605203D01*
X116399178Y-109564414D01*
X116399179Y-109564411D01*
X116523240Y-109361963D01*
X116523242Y-109361960D01*
X116614104Y-109142598D01*
X116614104Y-109142596D01*
X116614105Y-109142594D01*
X116669535Y-108911711D01*
X116688165Y-108675000D01*
X116669535Y-108438289D01*
X116614105Y-108207406D01*
X116523240Y-107988037D01*
X116399176Y-107785584D01*
X116244969Y-107605031D01*
X116064416Y-107450824D01*
X115861963Y-107326760D01*
X115861960Y-107326759D01*
X115861959Y-107326758D01*
X115642596Y-107235896D01*
X115642594Y-107235895D01*
X115411711Y-107180465D01*
X115175000Y-107161835D01*
X114938289Y-107180465D01*
X114707406Y-107235895D01*
X114707404Y-107235896D01*
X114707402Y-107235896D01*
X114488040Y-107326758D01*
X114488037Y-107326760D01*
X114285589Y-107450821D01*
X114285586Y-107450822D01*
X114285584Y-107450824D01*
X114105031Y-107605031D01*
X114003076Y-107724404D01*
X113950821Y-107785587D01*
X113950820Y-107785590D01*
X113826759Y-107988038D01*
X113826757Y-107988041D01*
X113735895Y-108207403D01*
X113735895Y-108207405D01*
X113680465Y-108438286D01*
X113661835Y-108675000D01*
X103858500Y-108675000D01*
X103858500Y-105099999D01*
X104286502Y-105099999D01*
X104286502Y-105100002D01*
X104306456Y-105328082D01*
X104306457Y-105328090D01*
X104365714Y-105549239D01*
X104365718Y-105549250D01*
X104462475Y-105756746D01*
X104462476Y-105756748D01*
X104498999Y-105808908D01*
X104536689Y-105862735D01*
X104593806Y-105944305D01*
X104755695Y-106106194D01*
X104755698Y-106106197D01*
X104755700Y-106106198D01*
X104872856Y-106188233D01*
X104943252Y-106237524D01*
X104943254Y-106237525D01*
X105150750Y-106334282D01*
X105150761Y-106334286D01*
X105371910Y-106393543D01*
X105371918Y-106393544D01*
X105599998Y-106413498D01*
X105600000Y-106413498D01*
X105600002Y-106413498D01*
X105828081Y-106393544D01*
X105828089Y-106393543D01*
X106049238Y-106334286D01*
X106049249Y-106334282D01*
X106256745Y-106237525D01*
X106256747Y-106237524D01*
X106256749Y-106237523D01*
X106444300Y-106106198D01*
X106606198Y-105944300D01*
X106737523Y-105756749D01*
X106795736Y-105631909D01*
X106834281Y-105549250D01*
X106834285Y-105549239D01*
X106842727Y-105517734D01*
X106893543Y-105328087D01*
X106913498Y-105100000D01*
X106913498Y-105099999D01*
X114446502Y-105099999D01*
X114446502Y-105100002D01*
X114466456Y-105328082D01*
X114466457Y-105328090D01*
X114525714Y-105549239D01*
X114525718Y-105549250D01*
X114622475Y-105756746D01*
X114622476Y-105756748D01*
X114658999Y-105808908D01*
X114696689Y-105862735D01*
X114753806Y-105944305D01*
X114915695Y-106106194D01*
X114915698Y-106106197D01*
X114915700Y-106106198D01*
X115032856Y-106188233D01*
X115103252Y-106237524D01*
X115103254Y-106237525D01*
X115310750Y-106334282D01*
X115310761Y-106334286D01*
X115531910Y-106393543D01*
X115531918Y-106393544D01*
X115759998Y-106413498D01*
X115760000Y-106413498D01*
X115760002Y-106413498D01*
X115988081Y-106393544D01*
X115988089Y-106393543D01*
X116209238Y-106334286D01*
X116209249Y-106334282D01*
X116416745Y-106237525D01*
X116416747Y-106237524D01*
X116416749Y-106237523D01*
X116604300Y-106106198D01*
X116766198Y-105944300D01*
X116897523Y-105756749D01*
X116955736Y-105631909D01*
X116994281Y-105549250D01*
X116994285Y-105549239D01*
X117002727Y-105517734D01*
X117053543Y-105328087D01*
X117073498Y-105100000D01*
X117053543Y-104871913D01*
X116994284Y-104650757D01*
X116897523Y-104443251D01*
X116766198Y-104255700D01*
X116604300Y-104093802D01*
X116416749Y-103962477D01*
X116209243Y-103865716D01*
X115988087Y-103806457D01*
X115817021Y-103791491D01*
X115760002Y-103786502D01*
X115759998Y-103786502D01*
X115694832Y-103792204D01*
X115531913Y-103806457D01*
X115310757Y-103865716D01*
X115310752Y-103865719D01*
X115310750Y-103865719D01*
X115228091Y-103904264D01*
X115103251Y-103962477D01*
X114915700Y-104093802D01*
X114753802Y-104255700D01*
X114622477Y-104443251D01*
X114622476Y-104443253D01*
X114622475Y-104443255D01*
X114525718Y-104650751D01*
X114525714Y-104650762D01*
X114466457Y-104871911D01*
X114466456Y-104871919D01*
X114446502Y-105099999D01*
X106913498Y-105099999D01*
X106893543Y-104871913D01*
X106834284Y-104650757D01*
X106737523Y-104443251D01*
X106606198Y-104255700D01*
X106444300Y-104093802D01*
X106256749Y-103962477D01*
X106049243Y-103865716D01*
X105828087Y-103806457D01*
X105657021Y-103791491D01*
X105600002Y-103786502D01*
X105599998Y-103786502D01*
X105534832Y-103792204D01*
X105371913Y-103806457D01*
X105150757Y-103865716D01*
X105150752Y-103865719D01*
X105150750Y-103865719D01*
X105068091Y-103904264D01*
X104943251Y-103962477D01*
X104755700Y-104093802D01*
X104593802Y-104255700D01*
X104462477Y-104443251D01*
X104462476Y-104443253D01*
X104462475Y-104443255D01*
X104365718Y-104650751D01*
X104365714Y-104650762D01*
X104306457Y-104871911D01*
X104306456Y-104871919D01*
X104286502Y-105099999D01*
X103858500Y-105099999D01*
X103858500Y-101849999D01*
X104286502Y-101849999D01*
X104286502Y-101850002D01*
X104306456Y-102078082D01*
X104306457Y-102078090D01*
X104365714Y-102299239D01*
X104365718Y-102299250D01*
X104462475Y-102506746D01*
X104462476Y-102506748D01*
X104462477Y-102506749D01*
X104545910Y-102625904D01*
X104593806Y-102694305D01*
X104755695Y-102856194D01*
X104755698Y-102856197D01*
X104755700Y-102856198D01*
X104872856Y-102938233D01*
X104943252Y-102987524D01*
X104943254Y-102987525D01*
X105150750Y-103084282D01*
X105150761Y-103084286D01*
X105371910Y-103143543D01*
X105371918Y-103143544D01*
X105599998Y-103163498D01*
X105600000Y-103163498D01*
X105600002Y-103163498D01*
X105828081Y-103143544D01*
X105828089Y-103143543D01*
X106049238Y-103084286D01*
X106049249Y-103084282D01*
X106256745Y-102987525D01*
X106256747Y-102987524D01*
X106256749Y-102987523D01*
X106444300Y-102856198D01*
X106606198Y-102694300D01*
X106737523Y-102506749D01*
X106805531Y-102360904D01*
X106834281Y-102299250D01*
X106834285Y-102299239D01*
X106875804Y-102144290D01*
X106893543Y-102078087D01*
X106913498Y-101850000D01*
X106913498Y-101849999D01*
X114446502Y-101849999D01*
X114446502Y-101850002D01*
X114466456Y-102078082D01*
X114466457Y-102078090D01*
X114525714Y-102299239D01*
X114525718Y-102299250D01*
X114622475Y-102506746D01*
X114622476Y-102506748D01*
X114622477Y-102506749D01*
X114705910Y-102625904D01*
X114753806Y-102694305D01*
X114915695Y-102856194D01*
X114915698Y-102856197D01*
X114915700Y-102856198D01*
X115032856Y-102938233D01*
X115103252Y-102987524D01*
X115103254Y-102987525D01*
X115310750Y-103084282D01*
X115310761Y-103084286D01*
X115531910Y-103143543D01*
X115531918Y-103143544D01*
X115759998Y-103163498D01*
X115760000Y-103163498D01*
X115760002Y-103163498D01*
X115988081Y-103143544D01*
X115988089Y-103143543D01*
X116209238Y-103084286D01*
X116209249Y-103084282D01*
X116416745Y-102987525D01*
X116416747Y-102987524D01*
X116416749Y-102987523D01*
X116604300Y-102856198D01*
X116766198Y-102694300D01*
X116897523Y-102506749D01*
X116965531Y-102360904D01*
X116994281Y-102299250D01*
X116994285Y-102299239D01*
X117035804Y-102144290D01*
X117053543Y-102078087D01*
X117073498Y-101850000D01*
X117053543Y-101621913D01*
X116994284Y-101400757D01*
X116897523Y-101193251D01*
X116766198Y-101005700D01*
X116604300Y-100843802D01*
X116416749Y-100712477D01*
X116209243Y-100615716D01*
X115988087Y-100556457D01*
X115817021Y-100541491D01*
X115760002Y-100536502D01*
X115759998Y-100536502D01*
X115694832Y-100542204D01*
X115531913Y-100556457D01*
X115310757Y-100615716D01*
X115310752Y-100615719D01*
X115310750Y-100615719D01*
X115306682Y-100617616D01*
X115103251Y-100712477D01*
X114915700Y-100843802D01*
X114753802Y-101005700D01*
X114622477Y-101193251D01*
X114622476Y-101193253D01*
X114622475Y-101193255D01*
X114525718Y-101400751D01*
X114525714Y-101400762D01*
X114466457Y-101621911D01*
X114466456Y-101621919D01*
X114446502Y-101849999D01*
X106913498Y-101849999D01*
X106893543Y-101621913D01*
X106834284Y-101400757D01*
X106737523Y-101193251D01*
X106606198Y-101005700D01*
X106444300Y-100843802D01*
X106256749Y-100712477D01*
X106049243Y-100615716D01*
X105828087Y-100556457D01*
X105657021Y-100541491D01*
X105600002Y-100536502D01*
X105599998Y-100536502D01*
X105534832Y-100542204D01*
X105371913Y-100556457D01*
X105150757Y-100615716D01*
X105150752Y-100615719D01*
X105150750Y-100615719D01*
X105146682Y-100617616D01*
X104943251Y-100712477D01*
X104755700Y-100843802D01*
X104593802Y-101005700D01*
X104462477Y-101193251D01*
X104462476Y-101193253D01*
X104462475Y-101193255D01*
X104365718Y-101400751D01*
X104365714Y-101400762D01*
X104306457Y-101621911D01*
X104306456Y-101621919D01*
X104286502Y-101849999D01*
X103858500Y-101849999D01*
X103858500Y-101400670D01*
X103858499Y-101400667D01*
X103819744Y-101205831D01*
X103743721Y-101022296D01*
X103633353Y-100857119D01*
X103492881Y-100716647D01*
X102930951Y-100154719D01*
X102897468Y-100093398D01*
X102895059Y-100077299D01*
X102884564Y-99950632D01*
X102829296Y-99732384D01*
X102738860Y-99526209D01*
X102615722Y-99337732D01*
X102463240Y-99172094D01*
X102285576Y-99033811D01*
X102087574Y-98926658D01*
X101874635Y-98853556D01*
X101652569Y-98816500D01*
X101427431Y-98816500D01*
X101205365Y-98853556D01*
X100992426Y-98926658D01*
X100992419Y-98926662D01*
X100794427Y-99033809D01*
X100794425Y-99033811D01*
X100794424Y-99033811D01*
X100721848Y-99090300D01*
X100616761Y-99172093D01*
X100616756Y-99172098D01*
X100464284Y-99337724D01*
X100464276Y-99337735D01*
X100341140Y-99526208D01*
X100250703Y-99732386D01*
X100195436Y-99950629D01*
X100195434Y-99950641D01*
X100176844Y-100174995D01*
X97121942Y-100174995D01*
X97128156Y-100100006D01*
X97128156Y-100099995D01*
X97109565Y-99875641D01*
X97109564Y-99875638D01*
X97109564Y-99875632D01*
X97054296Y-99657384D01*
X96963860Y-99451209D01*
X96840722Y-99262732D01*
X96835214Y-99256749D01*
X96751452Y-99165760D01*
X96688240Y-99097094D01*
X96510576Y-98958811D01*
X96312574Y-98851658D01*
X96099635Y-98778556D01*
X95877569Y-98741500D01*
X95652431Y-98741500D01*
X95430365Y-98778556D01*
X95217426Y-98851658D01*
X95217419Y-98851662D01*
X95019427Y-98958809D01*
X95019425Y-98958811D01*
X95019424Y-98958811D01*
X94961628Y-99003796D01*
X94841761Y-99097093D01*
X94841756Y-99097098D01*
X94689284Y-99262724D01*
X94689283Y-99262727D01*
X94689278Y-99262732D01*
X94598806Y-99401210D01*
X94545662Y-99446563D01*
X94476431Y-99455987D01*
X94413095Y-99426485D01*
X94391195Y-99401213D01*
X94300722Y-99262732D01*
X94295214Y-99256749D01*
X94211452Y-99165760D01*
X94148240Y-99097094D01*
X93970576Y-98958811D01*
X93772574Y-98851658D01*
X93559635Y-98778556D01*
X93337569Y-98741500D01*
X93112431Y-98741500D01*
X92890365Y-98778556D01*
X92677426Y-98851658D01*
X92677419Y-98851662D01*
X92479427Y-98958809D01*
X92479425Y-98958811D01*
X92479424Y-98958811D01*
X92421628Y-99003796D01*
X92301761Y-99097093D01*
X92301756Y-99097098D01*
X92149284Y-99262724D01*
X92149283Y-99262727D01*
X92149278Y-99262732D01*
X92058806Y-99401210D01*
X92005662Y-99446563D01*
X91936431Y-99455987D01*
X91873095Y-99426485D01*
X91851195Y-99401213D01*
X91760722Y-99262732D01*
X91755214Y-99256749D01*
X91671452Y-99165760D01*
X91608240Y-99097094D01*
X91430576Y-98958811D01*
X91232574Y-98851658D01*
X91019635Y-98778556D01*
X90797569Y-98741500D01*
X90572431Y-98741500D01*
X90350365Y-98778556D01*
X90137426Y-98851658D01*
X90137419Y-98851662D01*
X89939427Y-98958809D01*
X89939425Y-98958811D01*
X89939424Y-98958811D01*
X89881628Y-99003796D01*
X89761761Y-99097093D01*
X89761756Y-99097098D01*
X89609284Y-99262724D01*
X89609283Y-99262727D01*
X89609278Y-99262732D01*
X89518806Y-99401210D01*
X89465662Y-99446563D01*
X89396431Y-99455987D01*
X89333095Y-99426485D01*
X89311195Y-99401213D01*
X89220722Y-99262732D01*
X89215214Y-99256749D01*
X89131452Y-99165760D01*
X89068240Y-99097094D01*
X88890576Y-98958811D01*
X88692574Y-98851658D01*
X88479635Y-98778556D01*
X88257569Y-98741500D01*
X88032431Y-98741500D01*
X87810365Y-98778556D01*
X87597426Y-98851658D01*
X87597419Y-98851662D01*
X87399427Y-98958809D01*
X87399425Y-98958811D01*
X87399424Y-98958811D01*
X87341628Y-99003796D01*
X87221761Y-99097093D01*
X87221756Y-99097098D01*
X87069284Y-99262724D01*
X87069283Y-99262727D01*
X87069278Y-99262732D01*
X86978806Y-99401210D01*
X86925662Y-99446563D01*
X86856431Y-99455987D01*
X86793095Y-99426485D01*
X86771195Y-99401213D01*
X86680722Y-99262732D01*
X86675214Y-99256749D01*
X86591452Y-99165760D01*
X86528240Y-99097094D01*
X86350576Y-98958811D01*
X86152574Y-98851658D01*
X85939635Y-98778556D01*
X85717569Y-98741500D01*
X85492431Y-98741500D01*
X85270365Y-98778556D01*
X85057426Y-98851658D01*
X85057419Y-98851662D01*
X84859427Y-98958809D01*
X84859425Y-98958811D01*
X84859424Y-98958811D01*
X84801628Y-99003796D01*
X84681761Y-99097093D01*
X84681756Y-99097098D01*
X84529284Y-99262724D01*
X84529283Y-99262727D01*
X84529278Y-99262732D01*
X84438806Y-99401210D01*
X84385662Y-99446563D01*
X84316431Y-99455987D01*
X84253095Y-99426485D01*
X84231195Y-99401213D01*
X84140722Y-99262732D01*
X84135214Y-99256749D01*
X84051452Y-99165760D01*
X83988240Y-99097094D01*
X83810576Y-98958811D01*
X83612574Y-98851658D01*
X83399635Y-98778556D01*
X83177569Y-98741500D01*
X82952431Y-98741500D01*
X82730365Y-98778556D01*
X82517426Y-98851658D01*
X82517419Y-98851662D01*
X82319427Y-98958809D01*
X82319425Y-98958811D01*
X82319424Y-98958811D01*
X82261628Y-99003796D01*
X82141761Y-99097093D01*
X82141756Y-99097098D01*
X81989284Y-99262724D01*
X81989283Y-99262727D01*
X81989278Y-99262732D01*
X81898806Y-99401210D01*
X81845662Y-99446563D01*
X81776431Y-99455987D01*
X81713095Y-99426485D01*
X81691195Y-99401213D01*
X81600722Y-99262732D01*
X81595214Y-99256749D01*
X81511452Y-99165760D01*
X81448240Y-99097094D01*
X81270576Y-98958811D01*
X81072574Y-98851658D01*
X80859635Y-98778556D01*
X80637569Y-98741500D01*
X80412431Y-98741500D01*
X80190365Y-98778556D01*
X79977426Y-98851658D01*
X79977419Y-98851662D01*
X79779427Y-98958809D01*
X79779425Y-98958811D01*
X79779424Y-98958811D01*
X79601760Y-99097094D01*
X79538546Y-99165762D01*
X79478662Y-99201751D01*
X79408823Y-99199650D01*
X79351207Y-99160126D01*
X79331138Y-99125115D01*
X79285889Y-99003796D01*
X79198261Y-98886739D01*
X79081204Y-98799111D01*
X78944201Y-98748011D01*
X78912623Y-98744617D01*
X78883654Y-98741501D01*
X78883638Y-98741500D01*
X78104096Y-98741500D01*
X78037057Y-98721815D01*
X78016415Y-98705181D01*
X77911233Y-98599999D01*
X104286502Y-98599999D01*
X104286502Y-98600002D01*
X104306456Y-98828082D01*
X104306457Y-98828090D01*
X104365714Y-99049239D01*
X104365718Y-99049250D01*
X104462475Y-99256746D01*
X104462476Y-99256748D01*
X104466663Y-99262727D01*
X104591841Y-99441500D01*
X104593806Y-99444305D01*
X104755695Y-99606194D01*
X104755698Y-99606197D01*
X104755700Y-99606198D01*
X104842261Y-99666809D01*
X104943252Y-99737524D01*
X104943254Y-99737525D01*
X105150750Y-99834282D01*
X105150761Y-99834286D01*
X105371910Y-99893543D01*
X105371918Y-99893544D01*
X105599998Y-99913498D01*
X105600000Y-99913498D01*
X105600002Y-99913498D01*
X105828081Y-99893544D01*
X105828089Y-99893543D01*
X106049238Y-99834286D01*
X106049249Y-99834282D01*
X106256745Y-99737525D01*
X106256747Y-99737524D01*
X106256749Y-99737523D01*
X106444300Y-99606198D01*
X106606198Y-99444300D01*
X106737523Y-99256749D01*
X106834284Y-99049243D01*
X106893543Y-98828087D01*
X106913498Y-98600000D01*
X106913498Y-98599999D01*
X114446502Y-98599999D01*
X114446502Y-98600002D01*
X114466456Y-98828082D01*
X114466457Y-98828090D01*
X114525714Y-99049239D01*
X114525718Y-99049250D01*
X114622475Y-99256746D01*
X114622476Y-99256748D01*
X114626663Y-99262727D01*
X114751841Y-99441500D01*
X114753806Y-99444305D01*
X114915695Y-99606194D01*
X114915698Y-99606197D01*
X114915700Y-99606198D01*
X115002261Y-99666809D01*
X115103252Y-99737524D01*
X115103254Y-99737525D01*
X115310750Y-99834282D01*
X115310761Y-99834286D01*
X115531910Y-99893543D01*
X115531918Y-99893544D01*
X115759998Y-99913498D01*
X115760000Y-99913498D01*
X115760002Y-99913498D01*
X115988081Y-99893544D01*
X115988089Y-99893543D01*
X116209238Y-99834286D01*
X116209249Y-99834282D01*
X116416745Y-99737525D01*
X116416747Y-99737524D01*
X116416749Y-99737523D01*
X116604300Y-99606198D01*
X116766198Y-99444300D01*
X116897523Y-99256749D01*
X116994284Y-99049243D01*
X117053543Y-98828087D01*
X117073498Y-98600000D01*
X117053543Y-98371913D01*
X116994284Y-98150757D01*
X116897523Y-97943251D01*
X116766198Y-97755700D01*
X116604300Y-97593802D01*
X116416749Y-97462477D01*
X116209243Y-97365716D01*
X115988087Y-97306457D01*
X115817021Y-97291491D01*
X115760002Y-97286502D01*
X115759998Y-97286502D01*
X115694832Y-97292204D01*
X115531913Y-97306457D01*
X115310757Y-97365716D01*
X115310752Y-97365719D01*
X115310750Y-97365719D01*
X115228091Y-97404264D01*
X115103251Y-97462477D01*
X114915700Y-97593802D01*
X114753802Y-97755700D01*
X114682750Y-97857173D01*
X114622476Y-97943253D01*
X114622475Y-97943255D01*
X114525718Y-98150751D01*
X114525714Y-98150762D01*
X114466457Y-98371911D01*
X114466456Y-98371919D01*
X114446502Y-98599999D01*
X106913498Y-98599999D01*
X106893543Y-98371913D01*
X106834284Y-98150757D01*
X106737523Y-97943251D01*
X106606198Y-97755700D01*
X106444300Y-97593802D01*
X106256749Y-97462477D01*
X106049243Y-97365716D01*
X105828087Y-97306457D01*
X105657021Y-97291491D01*
X105600002Y-97286502D01*
X105599998Y-97286502D01*
X105534832Y-97292204D01*
X105371913Y-97306457D01*
X105150757Y-97365716D01*
X105150752Y-97365719D01*
X105150750Y-97365719D01*
X105068091Y-97404264D01*
X104943251Y-97462477D01*
X104755700Y-97593802D01*
X104593802Y-97755700D01*
X104522750Y-97857173D01*
X104462476Y-97943253D01*
X104462475Y-97943255D01*
X104365718Y-98150751D01*
X104365714Y-98150762D01*
X104306457Y-98371911D01*
X104306456Y-98371919D01*
X104286502Y-98599999D01*
X77911233Y-98599999D01*
X77627884Y-98316650D01*
X77627881Y-98316647D01*
X77462704Y-98206279D01*
X77279169Y-98130256D01*
X77084331Y-98091501D01*
X77084330Y-98091500D01*
X77084329Y-98091500D01*
X71949329Y-98091500D01*
X71750671Y-98091500D01*
X71750670Y-98091500D01*
X71750666Y-98091501D01*
X71555831Y-98130256D01*
X71498569Y-98153975D01*
X71372298Y-98206278D01*
X71372289Y-98206283D01*
X71207119Y-98316647D01*
X71207115Y-98316650D01*
X69199406Y-100324360D01*
X67207119Y-102316647D01*
X67126680Y-102397086D01*
X67066645Y-102457121D01*
X66956282Y-102622290D01*
X66956277Y-102622299D01*
X66880256Y-102805831D01*
X66880254Y-102805839D01*
X66841500Y-103000667D01*
X56600000Y-103000667D01*
X56600000Y-100849995D01*
X61256673Y-100849995D01*
X61256673Y-100850006D01*
X61275948Y-101082623D01*
X61333251Y-101308908D01*
X61427015Y-101522669D01*
X61554686Y-101718085D01*
X61712776Y-101889815D01*
X61712781Y-101889819D01*
X61896985Y-102033192D01*
X61896988Y-102033194D01*
X62102266Y-102144284D01*
X62102280Y-102144290D01*
X62323045Y-102220080D01*
X62507240Y-102250816D01*
X62553288Y-102258500D01*
X62553289Y-102258500D01*
X62786711Y-102258500D01*
X62786712Y-102258500D01*
X62844271Y-102248895D01*
X63016954Y-102220080D01*
X63237719Y-102144290D01*
X63237721Y-102144289D01*
X63237727Y-102144287D01*
X63237733Y-102144284D01*
X63443011Y-102033194D01*
X63443014Y-102033192D01*
X63443017Y-102033190D01*
X63627220Y-101889818D01*
X63634956Y-101881415D01*
X63785313Y-101718085D01*
X63858891Y-101605465D01*
X63912037Y-101560108D01*
X63981269Y-101550684D01*
X64044605Y-101580186D01*
X64064274Y-101602162D01*
X64163802Y-101744301D01*
X64325695Y-101906194D01*
X64325698Y-101906197D01*
X64325700Y-101906198D01*
X64442856Y-101988233D01*
X64513252Y-102037524D01*
X64513254Y-102037525D01*
X64720750Y-102134282D01*
X64720761Y-102134286D01*
X64941910Y-102193543D01*
X64941918Y-102193544D01*
X65169998Y-102213498D01*
X65170000Y-102213498D01*
X65170002Y-102213498D01*
X65398081Y-102193544D01*
X65398089Y-102193543D01*
X65619238Y-102134286D01*
X65619249Y-102134282D01*
X65826745Y-102037525D01*
X65826747Y-102037524D01*
X65826749Y-102037523D01*
X66014300Y-101906198D01*
X66176198Y-101744300D01*
X66307523Y-101556749D01*
X66380201Y-101400889D01*
X66404281Y-101349250D01*
X66404285Y-101349239D01*
X66433237Y-101241188D01*
X66463543Y-101128087D01*
X66480237Y-100937269D01*
X66483498Y-100900002D01*
X66483498Y-100899999D01*
X66476831Y-100823793D01*
X66463543Y-100671913D01*
X66404284Y-100450757D01*
X66307523Y-100243251D01*
X66176198Y-100055700D01*
X66014300Y-99893802D01*
X65826749Y-99762477D01*
X65619243Y-99665716D01*
X65398087Y-99606457D01*
X65227021Y-99591491D01*
X65170002Y-99586502D01*
X65169998Y-99586502D01*
X65104832Y-99592204D01*
X64941913Y-99606457D01*
X64720757Y-99665716D01*
X64720752Y-99665719D01*
X64720750Y-99665719D01*
X64638091Y-99704264D01*
X64513251Y-99762477D01*
X64325700Y-99893802D01*
X64325695Y-99893807D01*
X64163802Y-100055700D01*
X64098072Y-100149571D01*
X64043495Y-100193196D01*
X63973997Y-100200388D01*
X63911642Y-100168865D01*
X63892691Y-100146272D01*
X63785314Y-99981917D01*
X63627220Y-99810182D01*
X63443017Y-99666810D01*
X63237727Y-99555713D01*
X63016951Y-99479920D01*
X62786712Y-99441500D01*
X62553288Y-99441500D01*
X62323049Y-99479920D01*
X62323047Y-99479921D01*
X62323045Y-99479921D01*
X62216914Y-99516357D01*
X62102273Y-99555713D01*
X62102266Y-99555717D01*
X61896988Y-99666807D01*
X61896985Y-99666809D01*
X61896983Y-99666810D01*
X61712780Y-99810182D01*
X61712777Y-99810186D01*
X61712776Y-99810186D01*
X61554686Y-99981916D01*
X61427015Y-100177332D01*
X61333251Y-100391093D01*
X61275948Y-100617378D01*
X61256673Y-100849995D01*
X56600000Y-100849995D01*
X56600000Y-99600883D01*
X56600012Y-99599145D01*
X56601683Y-99479921D01*
X56602274Y-99437731D01*
X56603041Y-99425610D01*
X56639277Y-99104008D01*
X56641606Y-99090300D01*
X56713426Y-98775634D01*
X56717275Y-98762271D01*
X56823881Y-98457608D01*
X56829201Y-98444767D01*
X56890901Y-98316647D01*
X56969239Y-98153974D01*
X56975965Y-98141805D01*
X57100722Y-97943255D01*
X57147687Y-97868511D01*
X57155732Y-97857173D01*
X57356971Y-97604827D01*
X57366237Y-97594459D01*
X57594458Y-97366238D01*
X57604826Y-97356972D01*
X57857172Y-97155733D01*
X57868513Y-97147686D01*
X58141804Y-96975966D01*
X58153974Y-96969240D01*
X58444766Y-96829202D01*
X58457613Y-96823880D01*
X58762270Y-96717276D01*
X58775633Y-96713427D01*
X59090299Y-96641607D01*
X59104007Y-96639278D01*
X59425597Y-96603043D01*
X59437743Y-96602275D01*
X59599144Y-96600012D01*
X59600882Y-96600000D01*
X116599118Y-96600000D01*
X116600856Y-96600012D01*
G37*
%TD.AperFunction*%
%TA.AperFunction,NonConductor*%
G36*
X104425871Y-131607554D02*
G01*
X104450279Y-131626515D01*
X108805181Y-135981416D01*
X108838666Y-136042739D01*
X108841500Y-136069097D01*
X108841500Y-137130904D01*
X108821815Y-137197943D01*
X108805181Y-137218585D01*
X108218585Y-137805181D01*
X108157262Y-137838666D01*
X108130904Y-137841500D01*
X106077894Y-137841500D01*
X106010855Y-137821815D01*
X105965100Y-137769011D01*
X105955156Y-137699853D01*
X105984181Y-137636297D01*
X106001732Y-137619647D01*
X106023233Y-137602912D01*
X106023243Y-137602903D01*
X106175715Y-137437277D01*
X106175723Y-137437266D01*
X106298859Y-137248793D01*
X106312109Y-137218585D01*
X106389296Y-137042616D01*
X106444564Y-136824368D01*
X106456527Y-136679999D01*
X106463156Y-136600006D01*
X106463156Y-136599995D01*
X106444565Y-136375641D01*
X106444564Y-136375638D01*
X106444564Y-136375632D01*
X106389296Y-136157384D01*
X106298860Y-135951209D01*
X106175722Y-135762732D01*
X106156084Y-135741400D01*
X106083958Y-135663051D01*
X106023240Y-135597094D01*
X105845576Y-135458811D01*
X105647574Y-135351658D01*
X105434635Y-135278556D01*
X105212569Y-135241500D01*
X105212558Y-135241500D01*
X105208992Y-135241204D01*
X105207617Y-135240674D01*
X105207511Y-135240656D01*
X105207514Y-135240635D01*
X105143806Y-135216056D01*
X105131549Y-135205315D01*
X102750533Y-132824301D01*
X102717050Y-132762980D01*
X102722034Y-132693288D01*
X102763906Y-132637355D01*
X102829370Y-132612938D01*
X102847927Y-132613003D01*
X102849989Y-132613165D01*
X102849997Y-132613165D01*
X102849998Y-132613165D01*
X102850000Y-132613165D01*
X102968355Y-132603850D01*
X103086714Y-132594535D01*
X103317595Y-132539105D01*
X103317597Y-132539105D01*
X103536959Y-132448243D01*
X103536962Y-132448241D01*
X103739410Y-132324180D01*
X103739413Y-132324179D01*
X103800596Y-132271924D01*
X103919969Y-132169969D01*
X104074176Y-131989416D01*
X104074178Y-131989414D01*
X104074179Y-131989411D01*
X104198240Y-131786964D01*
X104248037Y-131666743D01*
X104291878Y-131612340D01*
X104358172Y-131590275D01*
X104425871Y-131607554D01*
G37*
%TD.AperFunction*%
M02*
