%TF.GenerationSoftware,KiCad,Pcbnew,(6.0.5)*%
%TF.CreationDate,2023-06-16T09:56:29+03:00*%
%TF.ProjectId,JLC1,4a4c4331-2e6b-4696-9361-645f70636258,rev?*%
%TF.SameCoordinates,Original*%
%TF.FileFunction,Copper,L2,Bot*%
%TF.FilePolarity,Positive*%
%FSLAX46Y46*%
G04 Gerber Fmt 4.6, Leading zero omitted, Abs format (unit mm)*
G04 Created by KiCad (PCBNEW (6.0.5)) date 2023-06-16 09:56:29*
%MOMM*%
%LPD*%
G01*
G04 APERTURE LIST*
G04 Aperture macros list*
%AMRoundRect*
0 Rectangle with rounded corners*
0 $1 Rounding radius*
0 $2 $3 $4 $5 $6 $7 $8 $9 X,Y pos of 4 corners*
0 Add a 4 corners polygon primitive as box body*
4,1,4,$2,$3,$4,$5,$6,$7,$8,$9,$2,$3,0*
0 Add four circle primitives for the rounded corners*
1,1,$1+$1,$2,$3*
1,1,$1+$1,$4,$5*
1,1,$1+$1,$6,$7*
1,1,$1+$1,$8,$9*
0 Add four rect primitives between the rounded corners*
20,1,$1+$1,$2,$3,$4,$5,0*
20,1,$1+$1,$4,$5,$6,$7,0*
20,1,$1+$1,$6,$7,$8,$9,0*
20,1,$1+$1,$8,$9,$2,$3,0*%
G04 Aperture macros list end*
%TA.AperFunction,ComponentPad*%
%ADD10C,4.000000*%
%TD*%
%TA.AperFunction,ComponentPad*%
%ADD11C,1.600000*%
%TD*%
%TA.AperFunction,ComponentPad*%
%ADD12R,1.600000X1.600000*%
%TD*%
%TA.AperFunction,ComponentPad*%
%ADD13O,1.700000X1.700000*%
%TD*%
%TA.AperFunction,ComponentPad*%
%ADD14R,1.700000X1.700000*%
%TD*%
%TA.AperFunction,ComponentPad*%
%ADD15C,3.000000*%
%TD*%
%TA.AperFunction,ComponentPad*%
%ADD16R,1.500000X1.600000*%
%TD*%
%TA.AperFunction,ComponentPad*%
%ADD17R,1.600000X1.500000*%
%TD*%
%TA.AperFunction,ComponentPad*%
%ADD18O,3.500000X1.900000*%
%TD*%
%TA.AperFunction,SMDPad,CuDef*%
%ADD19RoundRect,0.175000X-0.175000X-0.575000X0.175000X-0.575000X0.175000X0.575000X-0.175000X0.575000X0*%
%TD*%
%TA.AperFunction,SMDPad,CuDef*%
%ADD20RoundRect,0.250000X0.475000X-0.250000X0.475000X0.250000X-0.475000X0.250000X-0.475000X-0.250000X0*%
%TD*%
%TA.AperFunction,SMDPad,CuDef*%
%ADD21R,3.700000X2.200000*%
%TD*%
%TA.AperFunction,SMDPad,CuDef*%
%ADD22R,1.500000X1.000000*%
%TD*%
%TA.AperFunction,SMDPad,CuDef*%
%ADD23R,1.800000X1.000000*%
%TD*%
%TA.AperFunction,SMDPad,CuDef*%
%ADD24RoundRect,0.250000X-0.312500X-0.625000X0.312500X-0.625000X0.312500X0.625000X-0.312500X0.625000X0*%
%TD*%
%TA.AperFunction,SMDPad,CuDef*%
%ADD25R,1.900000X1.900000*%
%TD*%
%TA.AperFunction,SMDPad,CuDef*%
%ADD26R,1.800000X0.400000*%
%TD*%
%TA.AperFunction,ViaPad*%
%ADD27C,0.600000*%
%TD*%
%TA.AperFunction,ViaPad*%
%ADD28C,0.800000*%
%TD*%
%TA.AperFunction,ViaPad*%
%ADD29C,0.500000*%
%TD*%
%TA.AperFunction,ViaPad*%
%ADD30C,0.400000*%
%TD*%
%TA.AperFunction,ViaPad*%
%ADD31C,1.000000*%
%TD*%
%TA.AperFunction,Conductor*%
%ADD32C,0.500000*%
%TD*%
%TA.AperFunction,Conductor*%
%ADD33C,0.400000*%
%TD*%
%TA.AperFunction,Conductor*%
%ADD34C,0.450000*%
%TD*%
%TA.AperFunction,Conductor*%
%ADD35C,1.000000*%
%TD*%
%TA.AperFunction,Conductor*%
%ADD36C,0.700000*%
%TD*%
%TA.AperFunction,Conductor*%
%ADD37C,0.800000*%
%TD*%
%TA.AperFunction,Conductor*%
%ADD38C,0.350000*%
%TD*%
G04 APERTURE END LIST*
D10*
%TO.P,USB,5*%
%TO.N,N/C*%
X166868450Y-56111550D03*
X166868450Y-44111550D03*
D11*
%TO.P,USB,4*%
X164008450Y-48861550D03*
%TO.P,USB,3*%
X164008450Y-51361550D03*
%TO.P,USB,2*%
X162008450Y-51361550D03*
D12*
%TO.P,USB,1*%
X162008450Y-48861550D03*
%TD*%
D13*
%TO.P,REF\u002A\u002A,7*%
%TO.N,N/C*%
X121750000Y-131310000D03*
%TO.P,REF\u002A\u002A,6*%
X121750000Y-128770000D03*
%TO.P,REF\u002A\u002A,5*%
X121750000Y-126230000D03*
%TO.P,REF\u002A\u002A,4*%
X121750000Y-123690000D03*
%TO.P,REF\u002A\u002A,3*%
X121750000Y-121150000D03*
%TO.P,REF\u002A\u002A,2*%
X121750000Y-118610000D03*
D14*
%TO.P,REF\u002A\u002A,1*%
X121750000Y-116070000D03*
%TD*%
D13*
%TO.P,REF\u002A\u002A,8*%
%TO.N,N/C*%
X80435872Y-128656900D03*
%TO.P,REF\u002A\u002A,7*%
X82975872Y-128656900D03*
%TO.P,REF\u002A\u002A,6*%
X85515872Y-128656900D03*
%TO.P,REF\u002A\u002A,5*%
X88055872Y-128656900D03*
%TO.P,REF\u002A\u002A,4*%
X90595872Y-128656900D03*
%TO.P,REF\u002A\u002A,3*%
X93135872Y-128656900D03*
%TO.P,REF\u002A\u002A,2*%
X95675872Y-128656900D03*
D14*
%TO.P,REF\u002A\u002A,1*%
X98215872Y-128656900D03*
%TD*%
D11*
%TO.P,22pF,2*%
%TO.N,N/C*%
X89900000Y-35950000D03*
%TO.P,22pF,1*%
%TO.N,gnd*%
X87400000Y-35950000D03*
%TD*%
D15*
%TO.P,USB1,5*%
%TO.N,gnd*%
X84025000Y-104415000D03*
X84025000Y-91275000D03*
D11*
%TO.P,USB1,4*%
X86735000Y-101345000D03*
%TO.P,USB1,3*%
%TO.N,N/C*%
X86735000Y-98845000D03*
%TO.P,USB1,2*%
X86735000Y-96845000D03*
D16*
%TO.P,USB1,1*%
X86735000Y-94345000D03*
%TD*%
D13*
%TO.P,REF\u002A\u002A,6*%
%TO.N,N/C*%
X132325000Y-83770000D03*
%TO.P,REF\u002A\u002A,5*%
X132325000Y-81230000D03*
%TO.P,REF\u002A\u002A,4*%
X132325000Y-78690000D03*
%TO.P,REF\u002A\u002A,3*%
X132325000Y-76150000D03*
%TO.P,REF\u002A\u002A,2*%
X132325000Y-73610000D03*
D14*
%TO.P,REF\u002A\u002A,1*%
X132325000Y-71070000D03*
%TD*%
D13*
%TO.P,REF\u002A\u002A,8*%
%TO.N,N/C*%
X133478450Y-34161550D03*
%TO.P,REF\u002A\u002A,7*%
X136018450Y-34161550D03*
%TO.P,REF\u002A\u002A,6*%
X138558450Y-34161550D03*
%TO.P,REF\u002A\u002A,5*%
X141098450Y-34161550D03*
%TO.P,REF\u002A\u002A,4*%
X143638450Y-34161550D03*
%TO.P,REF\u002A\u002A,3*%
X146178450Y-34161550D03*
%TO.P,REF\u002A\u002A,2*%
X148718450Y-34161550D03*
D14*
%TO.P,REF\u002A\u002A,1*%
X151258450Y-34161550D03*
%TD*%
D13*
%TO.P,REF\u002A\u002A,4*%
%TO.N,N/C*%
X135760000Y-130255000D03*
%TO.P,REF\u002A\u002A,3*%
X138300000Y-130255000D03*
%TO.P,REF\u002A\u002A,2*%
X140840000Y-130255000D03*
D14*
%TO.P,REF\u002A\u002A,1*%
X143380000Y-130255000D03*
%TD*%
D13*
%TO.P,REF\u002A\u002A,6*%
%TO.N,N/C*%
X144375000Y-77045000D03*
%TO.P,REF\u002A\u002A,5*%
X144375000Y-79585000D03*
%TO.P,REF\u002A\u002A,4*%
X141835000Y-77045000D03*
%TO.P,REF\u002A\u002A,3*%
X141835000Y-79585000D03*
%TO.P,REF\u002A\u002A,2*%
X139295000Y-77045000D03*
D14*
%TO.P,REF\u002A\u002A,1*%
X139295000Y-79585000D03*
%TD*%
D13*
%TO.P,REF\u002A\u002A,6*%
%TO.N,N/C*%
X137239850Y-59041050D03*
%TO.P,REF\u002A\u002A,5*%
X139779850Y-59041050D03*
%TO.P,REF\u002A\u002A,4*%
X142319850Y-59041050D03*
%TO.P,REF\u002A\u002A,3*%
X144859850Y-59041050D03*
%TO.P,REF\u002A\u002A,2*%
X147399850Y-59041050D03*
D14*
%TO.P,REF\u002A\u002A,1*%
X149939850Y-59041050D03*
%TD*%
D13*
%TO.P,REF\u002A\u002A,8*%
%TO.N,N/C*%
X136245000Y-83745000D03*
%TO.P,REF\u002A\u002A,7*%
X138785000Y-83745000D03*
%TO.P,REF\u002A\u002A,6*%
X141325000Y-83745000D03*
%TO.P,REF\u002A\u002A,5*%
X143865000Y-83745000D03*
%TO.P,REF\u002A\u002A,4*%
X146405000Y-83745000D03*
%TO.P,REF\u002A\u002A,3*%
X148945000Y-83745000D03*
%TO.P,REF\u002A\u002A,2*%
X151485000Y-83745000D03*
D14*
%TO.P,REF\u002A\u002A,1*%
X154025000Y-83745000D03*
%TD*%
D13*
%TO.P,REF\u002A\u002A,6*%
%TO.N,N/C*%
X158007450Y-41476050D03*
%TO.P,REF\u002A\u002A,5*%
X158007450Y-44016050D03*
%TO.P,REF\u002A\u002A,4*%
X155467450Y-41476050D03*
%TO.P,REF\u002A\u002A,3*%
X155467450Y-44016050D03*
%TO.P,REF\u002A\u002A,2*%
X152927450Y-41476050D03*
D14*
%TO.P,REF\u002A\u002A,1*%
X152927450Y-44016050D03*
%TD*%
D16*
%TO.P,USB2,1*%
%TO.N,N/C*%
X86760000Y-77095000D03*
D11*
%TO.P,USB2,2*%
X86760000Y-79595000D03*
%TO.P,USB2,3*%
X86760000Y-81595000D03*
%TO.P,USB2,4*%
%TO.N,gnd*%
X86760000Y-84095000D03*
D15*
%TO.P,USB2,5*%
X84050000Y-74025000D03*
X84050000Y-87165000D03*
%TD*%
D13*
%TO.P,REF\u002A\u002A,8*%
%TO.N,N/C*%
X100735872Y-128656900D03*
%TO.P,REF\u002A\u002A,7*%
X103275872Y-128656900D03*
%TO.P,REF\u002A\u002A,6*%
X105815872Y-128656900D03*
%TO.P,REF\u002A\u002A,5*%
X108355872Y-128656900D03*
%TO.P,REF\u002A\u002A,4*%
X110895872Y-128656900D03*
%TO.P,REF\u002A\u002A,3*%
X113435872Y-128656900D03*
%TO.P,REF\u002A\u002A,2*%
X115975872Y-128656900D03*
D14*
%TO.P,REF\u002A\u002A,1*%
X118515872Y-128656900D03*
%TD*%
D13*
%TO.P,REF\u002A\u002A,6*%
%TO.N,N/C*%
X133533450Y-46386550D03*
%TO.P,REF\u002A\u002A,5*%
X133533450Y-48926550D03*
%TO.P,REF\u002A\u002A,4*%
X133533450Y-51466550D03*
%TO.P,REF\u002A\u002A,3*%
X133533450Y-54006550D03*
%TO.P,REF\u002A\u002A,2*%
X133533450Y-56546550D03*
D14*
%TO.P,REF\u002A\u002A,1*%
X133533450Y-59086550D03*
%TD*%
D15*
%TO.P,USB_0,5*%
%TO.N,gnd*%
X107995000Y-103325000D03*
X94855000Y-103325000D03*
D11*
%TO.P,USB_0,4*%
X104925000Y-100615000D03*
%TO.P,USB_0,3*%
%TO.N,N/C*%
X102425000Y-100615000D03*
%TO.P,USB_0,2*%
X100425000Y-100615000D03*
D17*
%TO.P,USB_0,1*%
X97925000Y-100615000D03*
%TD*%
D13*
%TO.P,REF\u002A\u002A,8*%
%TO.N,N/C*%
X132710000Y-89080000D03*
%TO.P,REF\u002A\u002A,7*%
X135250000Y-89080000D03*
%TO.P,REF\u002A\u002A,6*%
X137790000Y-89080000D03*
%TO.P,REF\u002A\u002A,5*%
X140330000Y-89080000D03*
%TO.P,REF\u002A\u002A,4*%
X142870000Y-89080000D03*
%TO.P,REF\u002A\u002A,3*%
X145410000Y-89080000D03*
%TO.P,REF\u002A\u002A,2*%
X147950000Y-89080000D03*
D14*
%TO.P,REF\u002A\u002A,1*%
X150490000Y-89080000D03*
%TD*%
D13*
%TO.P,REF\u002A\u002A,7*%
%TO.N,N/C*%
X76770000Y-131296900D03*
%TO.P,REF\u002A\u002A,6*%
X76770000Y-128756900D03*
%TO.P,REF\u002A\u002A,5*%
X76770000Y-126216900D03*
%TO.P,REF\u002A\u002A,4*%
X76770000Y-123676900D03*
%TO.P,REF\u002A\u002A,3*%
X76770000Y-121136900D03*
%TO.P,REF\u002A\u002A,2*%
X76770000Y-118596900D03*
D14*
%TO.P,REF\u002A\u002A,1*%
X76770000Y-116056900D03*
%TD*%
D13*
%TO.P,REF\u002A\u002A,4*%
%TO.N,N/C*%
X159873450Y-60511550D03*
%TO.P,REF\u002A\u002A,3*%
X162413450Y-60511550D03*
%TO.P,REF\u002A\u002A,2*%
X164953450Y-60511550D03*
D14*
%TO.P,REF\u002A\u002A,1*%
X167493450Y-60511550D03*
%TD*%
D13*
%TO.P,-BAT+,2*%
%TO.N,N/C*%
X153818450Y-34161550D03*
D14*
%TO.P,-BAT+,1*%
X156358450Y-34161550D03*
%TD*%
D13*
%TO.P,REF\u002A\u002A,6*%
%TO.N,gnd*%
X128302500Y-115670000D03*
%TO.P,REF\u002A\u002A,5*%
X128302500Y-118210000D03*
%TO.P,REF\u002A\u002A,4*%
%TO.N,N/C*%
X128302500Y-120750000D03*
%TO.P,REF\u002A\u002A,3*%
X128302500Y-123290000D03*
%TO.P,REF\u002A\u002A,2*%
X128302500Y-125830000D03*
D14*
%TO.P,REF\u002A\u002A,1*%
X128302500Y-128370000D03*
%TD*%
D13*
%TO.P,REF\u002A\u002A,6*%
%TO.N,N/C*%
X160480000Y-110385000D03*
%TO.P,REF\u002A\u002A,5*%
X157940000Y-110385000D03*
%TO.P,REF\u002A\u002A,4*%
X160480000Y-107845000D03*
%TO.P,REF\u002A\u002A,3*%
X157940000Y-107845000D03*
%TO.P,REF\u002A\u002A,2*%
X160480000Y-105305000D03*
D14*
%TO.P,REF\u002A\u002A,1*%
X157940000Y-105305000D03*
%TD*%
D13*
%TO.P,REF\u002A\u002A,8*%
%TO.N,N/C*%
X132370000Y-65745000D03*
%TO.P,REF\u002A\u002A,7*%
X134910000Y-65745000D03*
%TO.P,REF\u002A\u002A,6*%
X137450000Y-65745000D03*
%TO.P,REF\u002A\u002A,5*%
X139990000Y-65745000D03*
%TO.P,REF\u002A\u002A,4*%
X142530000Y-65745000D03*
%TO.P,REF\u002A\u002A,3*%
X145070000Y-65745000D03*
%TO.P,REF\u002A\u002A,2*%
X147610000Y-65745000D03*
D14*
%TO.P,REF\u002A\u002A,1*%
X150150000Y-65745000D03*
%TD*%
D15*
%TO.P,USB3,5*%
%TO.N,gnd*%
X84075000Y-56730000D03*
X84075000Y-69870000D03*
D11*
%TO.P,USB3,4*%
X86785000Y-66800000D03*
%TO.P,USB3,3*%
%TO.N,N/C*%
X86785000Y-64300000D03*
%TO.P,USB3,2*%
X86785000Y-62300000D03*
D16*
%TO.P,USB3,1*%
X86785000Y-59800000D03*
%TD*%
D18*
%TO.P,USB_0,5*%
%TO.N,N/C*%
X164875000Y-76895000D03*
X164875000Y-65495000D03*
%TD*%
D15*
%TO.P,USB4,5*%
%TO.N,gnd*%
X84100000Y-52620000D03*
X84100000Y-39480000D03*
D11*
%TO.P,USB4,4*%
X86810000Y-49550000D03*
%TO.P,USB4,3*%
%TO.N,N/C*%
X86810000Y-47050000D03*
%TO.P,USB4,2*%
X86810000Y-45050000D03*
D16*
%TO.P,USB4,1*%
X86810000Y-42550000D03*
%TD*%
D13*
%TO.P,REF\u002A\u002A,8*%
%TO.N,N/C*%
X133460000Y-110030000D03*
%TO.P,REF\u002A\u002A,7*%
X136000000Y-110030000D03*
%TO.P,REF\u002A\u002A,6*%
X138540000Y-110030000D03*
%TO.P,REF\u002A\u002A,5*%
X141080000Y-110030000D03*
%TO.P,REF\u002A\u002A,4*%
X143620000Y-110030000D03*
%TO.P,REF\u002A\u002A,3*%
X146160000Y-110030000D03*
%TO.P,REF\u002A\u002A,2*%
X148700000Y-110030000D03*
D14*
%TO.P,REF\u002A\u002A,1*%
X151240000Y-110030000D03*
%TD*%
D19*
%TO.P,,1*%
%TO.N,N/C*%
X173275000Y-103732500D03*
%TD*%
%TO.P,,1*%
%TO.N,N/C*%
X166725000Y-132395000D03*
%TD*%
%TO.P,,1*%
%TO.N,N/C*%
X164925000Y-103720000D03*
%TD*%
%TO.P,,1*%
%TO.N,N/C*%
X172375000Y-132407500D03*
%TD*%
%TO.P,,1*%
%TO.N,N/C*%
X167625000Y-103720000D03*
%TD*%
%TO.P,,1*%
%TO.N,N/C*%
X174175000Y-103732500D03*
%TD*%
%TO.P,,1*%
%TO.N,N/C*%
X168525000Y-103720000D03*
%TD*%
D20*
%TO.P,100uF,2*%
%TO.N,N/C*%
X159568450Y-33461550D03*
%TO.P,100uF,1*%
X159568450Y-35361550D03*
%TD*%
%TO.P,100uF,2*%
%TO.N,N/C*%
X159568450Y-36961550D03*
%TO.P,100uF,1*%
X159568450Y-38861550D03*
%TD*%
D19*
%TO.P,,1*%
%TO.N,N/C*%
X171475000Y-132407500D03*
%TD*%
%TO.P,,1*%
%TO.N,N/C*%
X166725000Y-103720000D03*
%TD*%
%TO.P,,1*%
%TO.N,N/C*%
X165825000Y-103720000D03*
%TD*%
%TO.P,,1*%
%TO.N,N/C*%
X170575000Y-103732500D03*
%TD*%
D13*
%TO.P,REF\u002A\u002A,10*%
%TO.N,N/C*%
X124191250Y-59185000D03*
%TO.P,REF\u002A\u002A,9*%
X124191250Y-61725000D03*
%TO.P,REF\u002A\u002A,8*%
X124191250Y-64265000D03*
%TO.P,REF\u002A\u002A,7*%
X124191250Y-66805000D03*
%TO.P,REF\u002A\u002A,6*%
X124191250Y-69345000D03*
%TO.P,REF\u002A\u002A,5*%
X124191250Y-71885000D03*
%TO.P,REF\u002A\u002A,4*%
X124191250Y-74425000D03*
%TO.P,REF\u002A\u002A,3*%
X124191250Y-76965000D03*
%TO.P,REF\u002A\u002A,2*%
%TO.N,5v*%
X124191250Y-79505000D03*
D14*
%TO.P,REF\u002A\u002A,1*%
%TO.N,gnd*%
X124191250Y-82045000D03*
%TD*%
D19*
%TO.P,,1*%
%TO.N,N/C*%
X168525000Y-132395000D03*
%TD*%
%TO.P,,1*%
%TO.N,N/C*%
X172375000Y-103732500D03*
%TD*%
D21*
%TO.P,78L05,4*%
%TO.N,N/C*%
X164507690Y-36095000D03*
D22*
%TO.P,78L05,3*%
X161607690Y-34595000D03*
D23*
%TO.P,78L05,2*%
X161757690Y-36095000D03*
D22*
%TO.P,78L05,1*%
X161607690Y-37595000D03*
%TD*%
D19*
%TO.P,,1*%
%TO.N,N/C*%
X164925000Y-132395000D03*
%TD*%
%TO.P,,1*%
%TO.N,N/C*%
X170575000Y-132407500D03*
%TD*%
%TO.P,,1*%
%TO.N,N/C*%
X173275000Y-132407500D03*
%TD*%
%TO.P,,1*%
%TO.N,N/C*%
X174175000Y-132407500D03*
%TD*%
%TO.P,,1*%
%TO.N,N/C*%
X165825000Y-132395000D03*
%TD*%
D24*
%TO.P,22R,2*%
%TO.N,N/C*%
X156877500Y-96230000D03*
%TO.P,22R,1*%
X153952500Y-96230000D03*
%TD*%
D25*
%TO.P,REF\u002A\u002A,6*%
%TO.N,N/C*%
X162115000Y-93730000D03*
X162115000Y-101630000D03*
D26*
%TO.P,REF\u002A\u002A,5*%
X159215000Y-98980000D03*
%TO.P,REF\u002A\u002A,4*%
X159215000Y-98330000D03*
%TO.P,REF\u002A\u002A,3*%
X159215000Y-97680000D03*
%TO.P,REF\u002A\u002A,2*%
X159215000Y-97030000D03*
%TO.P,REF\u002A\u002A,1*%
X159215000Y-96380000D03*
%TD*%
D19*
%TO.P,,1*%
%TO.N,N/C*%
X167625000Y-132395000D03*
%TD*%
%TO.P,,1*%
%TO.N,N/C*%
X171475000Y-103732500D03*
%TD*%
D24*
%TO.P,22R,2*%
%TO.N,N/C*%
X156852500Y-98530000D03*
%TO.P,22R,1*%
X153927500Y-98530000D03*
%TD*%
D27*
%TO.N,*%
X170575000Y-129232500D03*
D28*
X132890000Y-97580000D03*
D29*
X96875000Y-117045000D03*
X140508450Y-47236550D03*
D27*
X164900000Y-105070000D03*
D28*
X145190000Y-101730000D03*
D29*
X159215000Y-96380000D03*
X149905250Y-47253450D03*
D27*
X168525000Y-109695000D03*
D29*
X140933450Y-43116550D03*
D27*
X164925000Y-129220000D03*
X165500000Y-130145000D03*
D29*
X95650000Y-116220000D03*
X159252450Y-54241050D03*
X98150000Y-117745000D03*
D27*
X174200000Y-120532500D03*
X171475000Y-129257500D03*
D29*
X134318450Y-44646550D03*
X109482500Y-117702500D03*
D28*
X159718450Y-36086550D03*
D30*
X165975000Y-110820000D03*
D28*
X140977500Y-117130000D03*
D29*
X149440000Y-102330000D03*
D27*
X174200000Y-115032500D03*
D29*
X148225000Y-71645000D03*
X111600000Y-119145000D03*
X159215000Y-98655000D03*
X151175000Y-68545000D03*
X141783450Y-43111550D03*
X142583450Y-43111550D03*
X151468450Y-39536550D03*
X153125000Y-72595000D03*
D27*
X166725000Y-117745000D03*
X167650000Y-123320000D03*
D29*
X93100000Y-115445000D03*
D28*
X154840000Y-100830000D03*
D27*
X168550000Y-115020000D03*
D29*
X99450000Y-118445000D03*
D27*
X165825000Y-129245000D03*
D29*
X153990000Y-96230000D03*
D27*
X168550000Y-120520000D03*
X173300000Y-123332500D03*
D29*
X155040000Y-102330000D03*
X100700000Y-119145000D03*
X134318450Y-36511550D03*
X147908450Y-51786550D03*
X148225000Y-70845000D03*
D27*
X172375000Y-117757500D03*
D29*
X153940000Y-98530000D03*
X151468450Y-37661550D03*
X136533450Y-41311550D03*
X104400000Y-115795000D03*
D27*
X168550000Y-125995000D03*
D28*
X93600000Y-84000000D03*
D29*
X149177450Y-52841050D03*
X108200000Y-117045000D03*
X142258450Y-50936550D03*
X138424450Y-46466050D03*
X143383450Y-43086550D03*
D27*
X166725000Y-129270000D03*
D28*
X160475000Y-82095000D03*
D29*
X147990000Y-100080000D03*
D28*
X137425000Y-70445000D03*
D29*
X152525000Y-77545000D03*
X147990000Y-100880000D03*
D28*
X143125000Y-74495000D03*
D29*
X113300000Y-116570000D03*
D27*
X171150000Y-130157500D03*
D29*
X110775000Y-118445000D03*
X114125000Y-115020000D03*
D27*
X170550000Y-105082500D03*
D28*
X136690000Y-97955000D03*
D27*
X172375000Y-129282500D03*
X174175000Y-109707500D03*
D30*
X171625000Y-110832500D03*
D28*
X166775000Y-84245000D03*
D29*
X148152650Y-43113250D03*
X142958450Y-47211550D03*
D27*
X174200000Y-126007500D03*
D28*
X162125000Y-67695000D03*
D29*
X142258450Y-51861550D03*
X103200000Y-114695000D03*
X147618450Y-45701550D03*
D31*
%TO.N,gnd*%
X96600000Y-97950000D03*
D28*
X93000000Y-52837500D03*
X147752500Y-121155000D03*
D29*
%TO.N,1.8V*%
X98285000Y-59900000D03*
X95455000Y-66760000D03*
%TD*%
D32*
%TO.N,*%
X108200000Y-117045000D02*
X96875000Y-117045000D01*
D33*
X159190000Y-108530000D02*
X157940000Y-109780000D01*
D32*
X137383450Y-46491550D02*
X137383450Y-36096550D01*
X138424450Y-46466050D02*
X138308450Y-46350050D01*
D33*
X157940000Y-107845000D02*
X157825000Y-107845000D01*
D32*
X148718450Y-34161550D02*
X148718450Y-35376550D01*
D34*
X158025000Y-67695000D02*
X162125000Y-67695000D01*
D32*
X145075000Y-74495000D02*
X148125000Y-77545000D01*
D35*
X161607690Y-33877690D02*
X161191550Y-33461550D01*
D32*
X137083450Y-48861550D02*
X135233450Y-47011550D01*
D36*
X174175000Y-130657500D02*
X173750000Y-131082500D01*
D33*
X159215000Y-96380000D02*
X160340000Y-96380000D01*
D32*
X147340000Y-99330000D02*
X148840000Y-99330000D01*
D35*
X162008450Y-48861550D02*
X162068450Y-48801550D01*
D33*
X160740000Y-102930000D02*
X161940000Y-104130000D01*
D32*
X149897150Y-47261550D02*
X144233450Y-47261550D01*
X111600000Y-119145000D02*
X100700000Y-119145000D01*
D35*
X162041550Y-38861550D02*
X161691550Y-38861550D01*
D32*
X103225000Y-114670000D02*
X113775000Y-114670000D01*
D33*
X148740000Y-100380000D02*
X148440000Y-100080000D01*
D32*
X149025000Y-71245000D02*
X149025000Y-72245000D01*
X140933450Y-41761550D02*
X140933450Y-43116550D01*
X140258450Y-51861550D02*
X135583450Y-56536550D01*
D36*
X159718450Y-36086550D02*
X157618450Y-36086550D01*
D35*
X162075000Y-38895000D02*
X162041550Y-38861550D01*
D32*
X148808450Y-37511550D02*
X151258450Y-35061550D01*
D36*
X171000000Y-131082500D02*
X170575000Y-131507500D01*
D32*
X151175000Y-69945000D02*
X151175000Y-68545000D01*
X81060000Y-121135000D02*
X76775000Y-121135000D01*
X135583450Y-56536550D02*
X133533450Y-56536550D01*
D35*
X159568450Y-33461550D02*
X158543450Y-32436550D01*
D33*
X160480000Y-104070000D02*
X160480000Y-105305000D01*
D32*
X142583450Y-43111550D02*
X142583450Y-43911550D01*
X166775000Y-84245000D02*
X166775000Y-84195000D01*
X133510000Y-73610000D02*
X135475000Y-71645000D01*
X120000000Y-129560000D02*
X120000000Y-127545000D01*
D36*
X172375000Y-129282500D02*
X172375000Y-103732500D01*
D32*
X137425000Y-70445000D02*
X146925000Y-70445000D01*
D33*
X143125000Y-76545000D02*
X143125000Y-74495000D01*
D35*
X132325000Y-78690000D02*
X136180000Y-78690000D01*
D32*
X136533450Y-46861550D02*
X136533450Y-41311550D01*
X148225000Y-70845000D02*
X148625000Y-70845000D01*
D36*
X168100000Y-131070000D02*
X165350000Y-131070000D01*
D32*
X142408450Y-45186550D02*
X140283450Y-45186550D01*
D36*
X162413450Y-60511550D02*
X159873450Y-60511550D01*
D32*
X78125000Y-129945000D02*
X76775000Y-131295000D01*
D37*
X161749240Y-36086550D02*
X161757690Y-36095000D01*
D35*
X132325000Y-83770000D02*
X132325000Y-81230000D01*
D33*
X159190000Y-109780000D02*
X160480000Y-108490000D01*
D32*
X151468450Y-39536550D02*
X151468450Y-37736550D01*
D36*
X173175000Y-130157500D02*
X173275000Y-130057500D01*
D37*
X161607690Y-37595000D02*
X161607690Y-38777690D01*
D32*
X140783450Y-48086550D02*
X137758450Y-48086550D01*
X76775000Y-128570000D02*
X76775000Y-128755000D01*
X151175000Y-71795000D02*
X151975000Y-72595000D01*
D36*
X171475000Y-129257500D02*
X171475000Y-103732500D01*
D33*
X148440000Y-100080000D02*
X147990000Y-100080000D01*
X149440000Y-102330000D02*
X153560000Y-102330000D01*
D35*
X161691550Y-38861550D02*
X159568450Y-38861550D01*
D33*
X153560000Y-102330000D02*
X156535000Y-105305000D01*
D32*
X100700000Y-119145000D02*
X87200000Y-119145000D01*
X79645000Y-123675000D02*
X76775000Y-123675000D01*
D35*
X161607690Y-34595000D02*
X161607690Y-33877690D01*
D32*
X78125000Y-128220000D02*
X78125000Y-129945000D01*
X103200000Y-114695000D02*
X103175000Y-114670000D01*
X112425000Y-117045000D02*
X108200000Y-117045000D01*
D33*
X157677500Y-97030000D02*
X156877500Y-96230000D01*
D32*
X150340000Y-100830000D02*
X154840000Y-100830000D01*
X117530000Y-121150000D02*
X121750000Y-121150000D01*
X135475000Y-71645000D02*
X148225000Y-71645000D01*
D36*
X165350000Y-131070000D02*
X164925000Y-131495000D01*
D32*
X103200000Y-114695000D02*
X103225000Y-114670000D01*
X95525000Y-116345000D02*
X85850000Y-116345000D01*
X159252450Y-54241050D02*
X159873450Y-54862050D01*
X139333450Y-39116550D02*
X143638450Y-34811550D01*
X139333450Y-44236550D02*
X139333450Y-39116550D01*
D33*
X148740000Y-102680000D02*
X148740000Y-100380000D01*
D32*
X134318450Y-44646550D02*
X134318450Y-36511550D01*
X146178450Y-34811550D02*
X146178450Y-34161550D01*
X140283450Y-45186550D02*
X139333450Y-44236550D01*
D36*
X171150000Y-130157500D02*
X173175000Y-130157500D01*
D32*
X141783450Y-42436550D02*
X146708450Y-37511550D01*
X151175000Y-69945000D02*
X151175000Y-71795000D01*
D33*
X147618450Y-45701550D02*
X148152650Y-45167350D01*
D36*
X165825000Y-129245000D02*
X165825000Y-103720000D01*
D33*
X160740000Y-96780000D02*
X160740000Y-102930000D01*
D32*
X145190000Y-101480000D02*
X147340000Y-99330000D01*
X142208450Y-44286550D02*
X140658450Y-44286550D01*
X113300000Y-116920000D02*
X117530000Y-121150000D01*
X142958450Y-47211550D02*
X141308450Y-48861550D01*
D33*
X147990000Y-102930000D02*
X148790000Y-103730000D01*
D36*
X156668450Y-35136550D02*
X156668450Y-34211550D01*
D32*
X113300000Y-116570000D02*
X113300000Y-116920000D01*
D33*
X160480000Y-108490000D02*
X160480000Y-107845000D01*
D32*
X132890000Y-97580000D02*
X136315000Y-97580000D01*
D33*
X157490000Y-102330000D02*
X159190000Y-104030000D01*
D32*
X146708450Y-37511550D02*
X148808450Y-37511550D01*
X143125000Y-74495000D02*
X145075000Y-74495000D01*
D33*
X148790000Y-103730000D02*
X152510000Y-103730000D01*
D32*
X85850000Y-116345000D02*
X81060000Y-121135000D01*
X86450000Y-114670000D02*
X82525000Y-118595000D01*
D36*
X168525000Y-130645000D02*
X168100000Y-131070000D01*
D33*
X159215000Y-97030000D02*
X157677500Y-97030000D01*
D32*
X137758450Y-48086550D02*
X136533450Y-46861550D01*
D36*
X166725000Y-129270000D02*
X166725000Y-103720000D01*
D32*
X140183450Y-43811550D02*
X140183450Y-40806550D01*
X137383450Y-36096550D02*
X138558450Y-34921550D01*
D35*
X160475000Y-82095000D02*
X159975000Y-81595000D01*
X137825000Y-77045000D02*
X139295000Y-77045000D01*
D32*
X143638450Y-34811550D02*
X143638450Y-34161550D01*
X86275000Y-117045000D02*
X79645000Y-123675000D01*
X148125000Y-77545000D02*
X152525000Y-77545000D01*
X148625000Y-72645000D02*
X135830000Y-72645000D01*
X103175000Y-114670000D02*
X86450000Y-114670000D01*
X151258450Y-35061550D02*
X151258450Y-34161550D01*
X138308450Y-46350050D02*
X138308450Y-37601550D01*
D35*
X132325000Y-81230000D02*
X132690000Y-81595000D01*
X136180000Y-78690000D02*
X137825000Y-77045000D01*
D32*
X119070000Y-123690000D02*
X112425000Y-117045000D01*
D36*
X164925000Y-129220000D02*
X164925000Y-103720000D01*
D35*
X146175000Y-81595000D02*
X146525000Y-81245000D01*
D32*
X93100000Y-115445000D02*
X104050000Y-115445000D01*
D34*
X153125000Y-72595000D02*
X158025000Y-67695000D01*
D32*
X121750000Y-128320000D02*
X111875000Y-118445000D01*
X111875000Y-118445000D02*
X110775000Y-118445000D01*
X121750000Y-131310000D02*
X120000000Y-129560000D01*
X141783450Y-43111550D02*
X141783450Y-42436550D01*
X142258450Y-51861550D02*
X140258450Y-51861550D01*
X148962950Y-52841050D02*
X149177450Y-52841050D01*
D36*
X164925000Y-131495000D02*
X164925000Y-132395000D01*
D37*
X159718450Y-36086550D02*
X161749240Y-36086550D01*
D32*
X95650000Y-116220000D02*
X95525000Y-116345000D01*
D35*
X154968450Y-32436550D02*
X154168450Y-33236550D01*
D33*
X152510000Y-103730000D02*
X156075000Y-107295000D01*
D36*
X174175000Y-103732500D02*
X174175000Y-109707500D01*
D32*
X120000000Y-127545000D02*
X111600000Y-119145000D01*
D33*
X159215000Y-98655000D02*
X159215000Y-102805000D01*
D32*
X141308450Y-48861550D02*
X137083450Y-48861550D01*
D36*
X168525000Y-109695000D02*
X168525000Y-130645000D01*
D33*
X158540000Y-111630000D02*
X159190000Y-110980000D01*
D32*
X159873450Y-54862050D02*
X159873450Y-60511550D01*
X120635000Y-126230000D02*
X121750000Y-126230000D01*
D36*
X174175000Y-109707500D02*
X174175000Y-130657500D01*
D33*
X143125000Y-78335000D02*
X143125000Y-76545000D01*
D35*
X132690000Y-81595000D02*
X146175000Y-81595000D01*
D33*
X159190000Y-110980000D02*
X159190000Y-109780000D01*
X157702500Y-97680000D02*
X156852500Y-98530000D01*
D32*
X135830000Y-72645000D02*
X132325000Y-76150000D01*
D33*
X144375000Y-79585000D02*
X143125000Y-78335000D01*
D32*
X138558450Y-34921550D02*
X138558450Y-34161550D01*
X121475000Y-115795000D02*
X121750000Y-116070000D01*
D33*
X148152650Y-45167350D02*
X148152650Y-43113250D01*
D32*
X140508450Y-47236550D02*
X138128450Y-47236550D01*
X148625000Y-70845000D02*
X149025000Y-71245000D01*
D33*
X147990000Y-100880000D02*
X147990000Y-102930000D01*
D32*
X113775000Y-114670000D02*
X114125000Y-115020000D01*
X148840000Y-99330000D02*
X149540000Y-100030000D01*
X141098450Y-34811550D02*
X141098450Y-34161550D01*
D35*
X145625000Y-77045000D02*
X144375000Y-77045000D01*
X162068450Y-38901550D02*
X162075000Y-38895000D01*
D32*
X142583450Y-43911550D02*
X142208450Y-44286550D01*
X138128450Y-47236550D02*
X137383450Y-46491550D01*
X146925000Y-70445000D02*
X147425000Y-69945000D01*
X147425000Y-69945000D02*
X151175000Y-69945000D01*
D36*
X167625000Y-130045000D02*
X167625000Y-103720000D01*
D33*
X156810000Y-111630000D02*
X158540000Y-111630000D01*
D32*
X135233450Y-47011550D02*
X135233450Y-35826550D01*
D36*
X170575000Y-129232500D02*
X170575000Y-103732500D01*
D32*
X146283450Y-36411550D02*
X140933450Y-41761550D01*
X148718450Y-35376550D02*
X147683450Y-36411550D01*
X98150000Y-117745000D02*
X86575000Y-117745000D01*
D33*
X159190000Y-104030000D02*
X159190000Y-108530000D01*
X160485000Y-110385000D02*
X160480000Y-110385000D01*
D32*
X140658450Y-44286550D02*
X140183450Y-43811550D01*
X160125000Y-77545000D02*
X152525000Y-77545000D01*
D33*
X157940000Y-109780000D02*
X157940000Y-110385000D01*
D32*
X132325000Y-73610000D02*
X133510000Y-73610000D01*
X147683450Y-36411550D02*
X146283450Y-36411550D01*
D35*
X146525000Y-81245000D02*
X146525000Y-77945000D01*
D36*
X157618450Y-36086550D02*
X156668450Y-35136550D01*
D32*
X99450000Y-118445000D02*
X86900000Y-118445000D01*
D35*
X161191550Y-33461550D02*
X159568450Y-33461550D01*
D32*
X136773450Y-53996550D02*
X133533450Y-53996550D01*
D33*
X159215000Y-98655000D02*
X159215000Y-98980000D01*
D36*
X165500000Y-130145000D02*
X167525000Y-130145000D01*
D32*
X143408450Y-46436550D02*
X142433450Y-46436550D01*
X138308450Y-37601550D02*
X141098450Y-34811550D01*
X145190000Y-101730000D02*
X145190000Y-101480000D01*
D35*
X146525000Y-77945000D02*
X145625000Y-77045000D01*
D32*
X78105000Y-126215000D02*
X76775000Y-126215000D01*
X104050000Y-115445000D02*
X104400000Y-115795000D01*
D36*
X173275000Y-130057500D02*
X173275000Y-103732500D01*
D32*
X82525000Y-118595000D02*
X76775000Y-118595000D01*
X147908450Y-51786550D02*
X148962950Y-52841050D01*
X166775000Y-84195000D02*
X160125000Y-77545000D01*
X149905250Y-47253450D02*
X149897150Y-47261550D01*
D33*
X156535000Y-105305000D02*
X157940000Y-105305000D01*
D36*
X170575000Y-131507500D02*
X170575000Y-132407500D01*
D33*
X156075000Y-107295000D02*
X156075000Y-110895000D01*
D37*
X161607690Y-38777690D02*
X161691550Y-38861550D01*
D32*
X121750000Y-128770000D02*
X121750000Y-128320000D01*
D35*
X158543450Y-32436550D02*
X154968450Y-32436550D01*
D33*
X157825000Y-107845000D02*
X153060000Y-103080000D01*
D32*
X149540000Y-100030000D02*
X150340000Y-100830000D01*
X140977500Y-117130000D02*
X131922500Y-117130000D01*
D35*
X159568450Y-36961550D02*
X159568450Y-35361550D01*
D33*
X160340000Y-96380000D02*
X160740000Y-96780000D01*
X159215000Y-102805000D02*
X160480000Y-104070000D01*
D32*
X86575000Y-117745000D02*
X78105000Y-126215000D01*
D33*
X161940000Y-108930000D02*
X160485000Y-110385000D01*
D36*
X168525000Y-103720000D02*
X168525000Y-109695000D01*
D32*
X149025000Y-72245000D02*
X148625000Y-72645000D01*
D38*
X151175000Y-68545000D02*
X151175000Y-71795000D01*
D33*
X159215000Y-97680000D02*
X157702500Y-97680000D01*
D35*
X154168450Y-33236550D02*
X154168450Y-34211550D01*
D32*
X140977500Y-117130000D02*
X141027500Y-117180000D01*
D33*
X149140000Y-103080000D02*
X148740000Y-102680000D01*
D32*
X139833450Y-50936550D02*
X136773450Y-53996550D01*
X109525000Y-117745000D02*
X98150000Y-117745000D01*
X96875000Y-117045000D02*
X86275000Y-117045000D01*
X109525000Y-117745000D02*
X112150000Y-117745000D01*
X135233450Y-35826550D02*
X133568450Y-34161550D01*
D36*
X173750000Y-131082500D02*
X171000000Y-131082500D01*
D32*
X142433450Y-46436550D02*
X140783450Y-48086550D01*
X142258450Y-50936550D02*
X139833450Y-50936550D01*
D35*
X162068450Y-48801550D02*
X162068450Y-38901550D01*
D32*
X144233450Y-47261550D02*
X143408450Y-46436550D01*
D33*
X153060000Y-103080000D02*
X149140000Y-103080000D01*
X161940000Y-104130000D02*
X161940000Y-108930000D01*
X156075000Y-110895000D02*
X156810000Y-111630000D01*
D32*
X86900000Y-118445000D02*
X76775000Y-128570000D01*
X121750000Y-123690000D02*
X119070000Y-123690000D01*
D35*
X159975000Y-81595000D02*
X146175000Y-81595000D01*
D32*
X104400000Y-115795000D02*
X121475000Y-115795000D01*
X136315000Y-97580000D02*
X136690000Y-97955000D01*
X112150000Y-117745000D02*
X120635000Y-126230000D01*
X151975000Y-72595000D02*
X153125000Y-72595000D01*
X131922500Y-117130000D02*
X128302500Y-120750000D01*
D33*
X155040000Y-102330000D02*
X157490000Y-102330000D01*
D32*
X87200000Y-119145000D02*
X78125000Y-128220000D01*
X133568450Y-34161550D02*
X133478450Y-34161550D01*
X140183450Y-40806550D02*
X146178450Y-34811550D01*
X110775000Y-118445000D02*
X99450000Y-118445000D01*
X143383450Y-44211550D02*
X142408450Y-45186550D01*
X143383450Y-43086550D02*
X143383450Y-44211550D01*
D36*
X167525000Y-130145000D02*
X167625000Y-130045000D01*
D35*
%TO.N,gnd*%
X86810000Y-51940000D02*
X86130000Y-52620000D01*
X86785000Y-66800000D02*
X86785000Y-69290000D01*
X93000000Y-52837500D02*
X93000000Y-42425000D01*
X84100000Y-52620000D02*
X84100000Y-56705000D01*
X86760000Y-84095000D02*
X86760000Y-86515000D01*
X107610000Y-103300000D02*
X107970000Y-103300000D01*
X84085000Y-87200000D02*
X84050000Y-87165000D01*
X86035000Y-104415000D02*
X84025000Y-104415000D01*
X104900000Y-99275000D02*
X104900000Y-100590000D01*
X103575000Y-97950000D02*
X104900000Y-99275000D01*
X87400000Y-35950000D02*
X87400000Y-39410000D01*
X87400000Y-39410000D02*
X87330000Y-39480000D01*
X87330000Y-39480000D02*
X84100000Y-39480000D01*
D32*
X147752500Y-121155000D02*
X147752500Y-117405000D01*
D35*
X86785000Y-69290000D02*
X86200000Y-69875000D01*
X84080000Y-69875000D02*
X84075000Y-69870000D01*
D32*
X147752500Y-117405000D02*
X146017500Y-115670000D01*
D35*
X93000000Y-42425000D02*
X90055000Y-39480000D01*
X84050000Y-91250000D02*
X84025000Y-91275000D01*
X107970000Y-103300000D02*
X107995000Y-103325000D01*
X86075000Y-87200000D02*
X84085000Y-87200000D01*
X86760000Y-86515000D02*
X86075000Y-87200000D01*
D32*
X146017500Y-115670000D02*
X128302500Y-115670000D01*
D35*
X84100000Y-56705000D02*
X84075000Y-56730000D01*
X92875000Y-101345000D02*
X94855000Y-103325000D01*
X96600000Y-97950000D02*
X103575000Y-97950000D01*
X86810000Y-49550000D02*
X86810000Y-51940000D01*
X86735000Y-103715000D02*
X86035000Y-104415000D01*
X84075000Y-69870000D02*
X84075000Y-74000000D01*
X84050000Y-87165000D02*
X84050000Y-91250000D01*
X86735000Y-101345000D02*
X86735000Y-103715000D01*
X86130000Y-52620000D02*
X84100000Y-52620000D01*
X86200000Y-69875000D02*
X84080000Y-69875000D01*
X90055000Y-39480000D02*
X87330000Y-39480000D01*
X84075000Y-74000000D02*
X84050000Y-74025000D01*
X104900000Y-100590000D02*
X107610000Y-103300000D01*
X86735000Y-101345000D02*
X92875000Y-101345000D01*
%TO.N,5v*%
X89070000Y-94345000D02*
X86735000Y-94345000D01*
X86760000Y-77095000D02*
X88930000Y-77095000D01*
X89050000Y-60050000D02*
X89050000Y-76975000D01*
X97925000Y-100615000D02*
X97915000Y-100625000D01*
X89050000Y-83775000D02*
X89050000Y-94325000D01*
X88930000Y-77095000D02*
X89050000Y-76975000D01*
X89050000Y-83775000D02*
X89050000Y-84000000D01*
X88800000Y-59800000D02*
X89050000Y-60050000D01*
X88600000Y-42550000D02*
X89050000Y-43000000D01*
X97915000Y-100625000D02*
X95350000Y-100625000D01*
X86810000Y-42550000D02*
X88600000Y-42550000D01*
X89050000Y-76975000D02*
X89050000Y-83775000D01*
X89050000Y-84000000D02*
X93600000Y-84000000D01*
X86785000Y-59800000D02*
X88800000Y-59800000D01*
X89050000Y-45650000D02*
X89050000Y-60050000D01*
X95350000Y-100625000D02*
X89070000Y-94345000D01*
X89050000Y-43000000D02*
X89050000Y-45650000D01*
X89050000Y-94325000D02*
X89070000Y-94345000D01*
D33*
%TO.N,1.8V*%
X97300000Y-59900000D02*
X98285000Y-59900000D01*
X95700000Y-61500000D02*
X97300000Y-59900000D01*
X95455000Y-66760000D02*
X95700000Y-66515000D01*
X95700000Y-66515000D02*
X95700000Y-61500000D01*
%TD*%
M02*
