%TF.GenerationSoftware,KiCad,Pcbnew,(6.0.5)*%
%TF.CreationDate,2023-06-16T09:56:31+03:00*%
%TF.ProjectId,JLC1,4a4c4331-2e6b-4696-9361-645f70636258,rev?*%
%TF.SameCoordinates,Original*%
%TF.FileFunction,Soldermask,Bot*%
%TF.FilePolarity,Negative*%
%FSLAX46Y46*%
G04 Gerber Fmt 4.6, Leading zero omitted, Abs format (unit mm)*
G04 Created by KiCad (PCBNEW (6.0.5)) date 2023-06-16 09:56:31*
%MOMM*%
%LPD*%
G01*
G04 APERTURE LIST*
G04 Aperture macros list*
%AMRoundRect*
0 Rectangle with rounded corners*
0 $1 Rounding radius*
0 $2 $3 $4 $5 $6 $7 $8 $9 X,Y pos of 4 corners*
0 Add a 4 corners polygon primitive as box body*
4,1,4,$2,$3,$4,$5,$6,$7,$8,$9,$2,$3,0*
0 Add four circle primitives for the rounded corners*
1,1,$1+$1,$2,$3*
1,1,$1+$1,$4,$5*
1,1,$1+$1,$6,$7*
1,1,$1+$1,$8,$9*
0 Add four rect primitives between the rounded corners*
20,1,$1+$1,$2,$3,$4,$5,0*
20,1,$1+$1,$4,$5,$6,$7,0*
20,1,$1+$1,$6,$7,$8,$9,0*
20,1,$1+$1,$8,$9,$2,$3,0*%
G04 Aperture macros list end*
%ADD10C,4.000000*%
%ADD11C,1.600000*%
%ADD12R,1.600000X1.600000*%
%ADD13O,1.700000X1.700000*%
%ADD14R,1.700000X1.700000*%
%ADD15C,3.000000*%
%ADD16R,1.500000X1.600000*%
%ADD17R,1.600000X1.500000*%
%ADD18C,0.900000*%
%ADD19O,3.500000X1.900000*%
%ADD20C,1.100000*%
%ADD21RoundRect,0.175000X-0.175000X-0.575000X0.175000X-0.575000X0.175000X0.575000X-0.175000X0.575000X0*%
%ADD22RoundRect,0.250000X0.475000X-0.250000X0.475000X0.250000X-0.475000X0.250000X-0.475000X-0.250000X0*%
%ADD23R,3.700000X2.200000*%
%ADD24R,1.500000X1.000000*%
%ADD25R,1.800000X1.000000*%
%ADD26RoundRect,0.250000X-0.312500X-0.625000X0.312500X-0.625000X0.312500X0.625000X-0.312500X0.625000X0*%
%ADD27R,1.900000X1.900000*%
%ADD28R,1.800000X0.400000*%
%ADD29C,0.550000*%
G04 APERTURE END LIST*
D10*
%TO.C,USB*%
X166868450Y-56111550D03*
X166868450Y-44111550D03*
D11*
X164008450Y-48861550D03*
X164008450Y-51361550D03*
X162008450Y-51361550D03*
D12*
X162008450Y-48861550D03*
%TD*%
D13*
%TO.C,REF\u002A\u002A*%
X121750000Y-131310000D03*
X121750000Y-128770000D03*
X121750000Y-126230000D03*
X121750000Y-123690000D03*
X121750000Y-121150000D03*
X121750000Y-118610000D03*
D14*
X121750000Y-116070000D03*
%TD*%
D13*
%TO.C,REF\u002A\u002A*%
X80435872Y-128656900D03*
X82975872Y-128656900D03*
X85515872Y-128656900D03*
X88055872Y-128656900D03*
X90595872Y-128656900D03*
X93135872Y-128656900D03*
X95675872Y-128656900D03*
D14*
X98215872Y-128656900D03*
%TD*%
D11*
%TO.C,22pF*%
X89900000Y-35950000D03*
X87400000Y-35950000D03*
%TD*%
D15*
%TO.C,USB1*%
X84025000Y-104415000D03*
X84025000Y-91275000D03*
D11*
X86735000Y-101345000D03*
X86735000Y-98845000D03*
X86735000Y-96845000D03*
D16*
X86735000Y-94345000D03*
%TD*%
D13*
%TO.C,REF\u002A\u002A*%
X132325000Y-83770000D03*
X132325000Y-81230000D03*
X132325000Y-78690000D03*
X132325000Y-76150000D03*
X132325000Y-73610000D03*
D14*
X132325000Y-71070000D03*
%TD*%
D13*
%TO.C,REF\u002A\u002A*%
X133478450Y-34161550D03*
X136018450Y-34161550D03*
X138558450Y-34161550D03*
X141098450Y-34161550D03*
X143638450Y-34161550D03*
X146178450Y-34161550D03*
X148718450Y-34161550D03*
D14*
X151258450Y-34161550D03*
%TD*%
D13*
%TO.C,REF\u002A\u002A*%
X135760000Y-130255000D03*
X138300000Y-130255000D03*
X140840000Y-130255000D03*
D14*
X143380000Y-130255000D03*
%TD*%
D13*
%TO.C,REF\u002A\u002A*%
X144375000Y-77045000D03*
X144375000Y-79585000D03*
X141835000Y-77045000D03*
X141835000Y-79585000D03*
X139295000Y-77045000D03*
D14*
X139295000Y-79585000D03*
%TD*%
D13*
%TO.C,REF\u002A\u002A*%
X137239850Y-59041050D03*
X139779850Y-59041050D03*
X142319850Y-59041050D03*
X144859850Y-59041050D03*
X147399850Y-59041050D03*
D14*
X149939850Y-59041050D03*
%TD*%
D13*
%TO.C,REF\u002A\u002A*%
X136245000Y-83745000D03*
X138785000Y-83745000D03*
X141325000Y-83745000D03*
X143865000Y-83745000D03*
X146405000Y-83745000D03*
X148945000Y-83745000D03*
X151485000Y-83745000D03*
D14*
X154025000Y-83745000D03*
%TD*%
D13*
%TO.C,REF\u002A\u002A*%
X158007450Y-41476050D03*
X158007450Y-44016050D03*
X155467450Y-41476050D03*
X155467450Y-44016050D03*
X152927450Y-41476050D03*
D14*
X152927450Y-44016050D03*
%TD*%
D16*
%TO.C,USB2*%
X86760000Y-77095000D03*
D11*
X86760000Y-79595000D03*
X86760000Y-81595000D03*
X86760000Y-84095000D03*
D15*
X84050000Y-74025000D03*
X84050000Y-87165000D03*
%TD*%
D13*
%TO.C,REF\u002A\u002A*%
X100735872Y-128656900D03*
X103275872Y-128656900D03*
X105815872Y-128656900D03*
X108355872Y-128656900D03*
X110895872Y-128656900D03*
X113435872Y-128656900D03*
X115975872Y-128656900D03*
D14*
X118515872Y-128656900D03*
%TD*%
D13*
%TO.C,REF\u002A\u002A*%
X133533450Y-46386550D03*
X133533450Y-48926550D03*
X133533450Y-51466550D03*
X133533450Y-54006550D03*
X133533450Y-56546550D03*
D14*
X133533450Y-59086550D03*
%TD*%
D15*
%TO.C,USB_0*%
X107995000Y-103325000D03*
X94855000Y-103325000D03*
D11*
X104925000Y-100615000D03*
X102425000Y-100615000D03*
X100425000Y-100615000D03*
D17*
X97925000Y-100615000D03*
%TD*%
D13*
%TO.C,REF\u002A\u002A*%
X132710000Y-89080000D03*
X135250000Y-89080000D03*
X137790000Y-89080000D03*
X140330000Y-89080000D03*
X142870000Y-89080000D03*
X145410000Y-89080000D03*
X147950000Y-89080000D03*
D14*
X150490000Y-89080000D03*
%TD*%
D13*
%TO.C,REF\u002A\u002A*%
X76770000Y-131296900D03*
X76770000Y-128756900D03*
X76770000Y-126216900D03*
X76770000Y-123676900D03*
X76770000Y-121136900D03*
X76770000Y-118596900D03*
D14*
X76770000Y-116056900D03*
%TD*%
D13*
%TO.C,REF\u002A\u002A*%
X159873450Y-60511550D03*
X162413450Y-60511550D03*
X164953450Y-60511550D03*
D14*
X167493450Y-60511550D03*
%TD*%
D13*
%TO.C,-BAT+*%
X153818450Y-34161550D03*
D14*
X156358450Y-34161550D03*
%TD*%
D18*
%TO.C,USB*%
X150352500Y-120105000D03*
X150352500Y-124505000D03*
%TD*%
D13*
%TO.C,REF\u002A\u002A*%
X128302500Y-115670000D03*
X128302500Y-118210000D03*
X128302500Y-120750000D03*
X128302500Y-123290000D03*
X128302500Y-125830000D03*
D14*
X128302500Y-128370000D03*
%TD*%
D13*
%TO.C,REF\u002A\u002A*%
X160480000Y-110385000D03*
X157940000Y-110385000D03*
X160480000Y-107845000D03*
X157940000Y-107845000D03*
X160480000Y-105305000D03*
D14*
X157940000Y-105305000D03*
%TD*%
D13*
%TO.C,REF\u002A\u002A*%
X132370000Y-65745000D03*
X134910000Y-65745000D03*
X137450000Y-65745000D03*
X139990000Y-65745000D03*
X142530000Y-65745000D03*
X145070000Y-65745000D03*
X147610000Y-65745000D03*
D14*
X150150000Y-65745000D03*
%TD*%
D15*
%TO.C,USB3*%
X84075000Y-56730000D03*
X84075000Y-69870000D03*
D11*
X86785000Y-66800000D03*
X86785000Y-64300000D03*
X86785000Y-62300000D03*
D16*
X86785000Y-59800000D03*
%TD*%
D19*
%TO.C,USB_0*%
X164875000Y-76895000D03*
X164875000Y-65495000D03*
D20*
X164875000Y-73495000D03*
X164875000Y-68895000D03*
%TD*%
D15*
%TO.C,USB4*%
X84100000Y-52620000D03*
X84100000Y-39480000D03*
D11*
X86810000Y-49550000D03*
X86810000Y-47050000D03*
X86810000Y-45050000D03*
D16*
X86810000Y-42550000D03*
%TD*%
D13*
%TO.C,REF\u002A\u002A*%
X133460000Y-110030000D03*
X136000000Y-110030000D03*
X138540000Y-110030000D03*
X141080000Y-110030000D03*
X143620000Y-110030000D03*
X146160000Y-110030000D03*
X148700000Y-110030000D03*
D14*
X151240000Y-110030000D03*
%TD*%
D21*
%TO.C,*%
X173275000Y-103732500D03*
%TD*%
%TO.C,*%
X166725000Y-132395000D03*
%TD*%
%TO.C,*%
X164925000Y-103720000D03*
%TD*%
%TO.C,*%
X172375000Y-132407500D03*
%TD*%
%TO.C,*%
X167625000Y-103720000D03*
%TD*%
%TO.C,*%
X174175000Y-103732500D03*
%TD*%
%TO.C,*%
X168525000Y-103720000D03*
%TD*%
D22*
%TO.C,100uF*%
X159568450Y-33461550D03*
X159568450Y-35361550D03*
%TD*%
%TO.C,100uF*%
X159568450Y-36961550D03*
X159568450Y-38861550D03*
%TD*%
D21*
%TO.C,*%
X171475000Y-132407500D03*
%TD*%
%TO.C,*%
X166725000Y-103720000D03*
%TD*%
%TO.C,*%
X165825000Y-103720000D03*
%TD*%
%TO.C,*%
X170575000Y-103732500D03*
%TD*%
D13*
%TO.C,REF\u002A\u002A*%
X124191250Y-59185000D03*
X124191250Y-61725000D03*
X124191250Y-64265000D03*
X124191250Y-66805000D03*
X124191250Y-69345000D03*
X124191250Y-71885000D03*
X124191250Y-74425000D03*
X124191250Y-76965000D03*
X124191250Y-79505000D03*
D14*
X124191250Y-82045000D03*
%TD*%
D21*
%TO.C,*%
X168525000Y-132395000D03*
%TD*%
%TO.C,*%
X172375000Y-103732500D03*
%TD*%
D23*
%TO.C,78L05*%
X164507690Y-36095000D03*
D24*
X161607690Y-34595000D03*
D25*
X161757690Y-36095000D03*
D24*
X161607690Y-37595000D03*
%TD*%
D21*
%TO.C,*%
X164925000Y-132395000D03*
%TD*%
%TO.C,*%
X170575000Y-132407500D03*
%TD*%
%TO.C,*%
X173275000Y-132407500D03*
%TD*%
%TO.C,*%
X174175000Y-132407500D03*
%TD*%
%TO.C,*%
X165825000Y-132395000D03*
%TD*%
D26*
%TO.C,22R*%
X156877500Y-96230000D03*
X153952500Y-96230000D03*
%TD*%
D27*
%TO.C,REF\u002A\u002A*%
X162115000Y-93730000D03*
X162115000Y-101630000D03*
D28*
X159215000Y-98980000D03*
X159215000Y-98330000D03*
X159215000Y-97680000D03*
X159215000Y-97030000D03*
X159215000Y-96380000D03*
D29*
X159965000Y-99680000D03*
X159965000Y-95680000D03*
%TD*%
D21*
%TO.C,*%
X167625000Y-132395000D03*
%TD*%
%TO.C,*%
X171475000Y-103732500D03*
%TD*%
D26*
%TO.C,22R*%
X156852500Y-98530000D03*
X153927500Y-98530000D03*
%TD*%
M02*
