%TF.GenerationSoftware,KiCad,Pcbnew,(6.0.5)*%
%TF.CreationDate,2023-06-16T09:56:31+03:00*%
%TF.ProjectId,JLC1,4a4c4331-2e6b-4696-9361-645f70636258,rev?*%
%TF.SameCoordinates,Original*%
%TF.FileFunction,Soldermask,Top*%
%TF.FilePolarity,Negative*%
%FSLAX46Y46*%
G04 Gerber Fmt 4.6, Leading zero omitted, Abs format (unit mm)*
G04 Created by KiCad (PCBNEW (6.0.5)) date 2023-06-16 09:56:31*
%MOMM*%
%LPD*%
G01*
G04 APERTURE LIST*
G04 Aperture macros list*
%AMRoundRect*
0 Rectangle with rounded corners*
0 $1 Rounding radius*
0 $2 $3 $4 $5 $6 $7 $8 $9 X,Y pos of 4 corners*
0 Add a 4 corners polygon primitive as box body*
4,1,4,$2,$3,$4,$5,$6,$7,$8,$9,$2,$3,0*
0 Add four circle primitives for the rounded corners*
1,1,$1+$1,$2,$3*
1,1,$1+$1,$4,$5*
1,1,$1+$1,$6,$7*
1,1,$1+$1,$8,$9*
0 Add four rect primitives between the rounded corners*
20,1,$1+$1,$2,$3,$4,$5,0*
20,1,$1+$1,$4,$5,$6,$7,0*
20,1,$1+$1,$6,$7,$8,$9,0*
20,1,$1+$1,$8,$9,$2,$3,0*%
G04 Aperture macros list end*
%ADD10C,4.000000*%
%ADD11C,1.600000*%
%ADD12R,1.600000X1.600000*%
%ADD13RoundRect,0.250000X-0.312500X-0.625000X0.312500X-0.625000X0.312500X0.625000X-0.312500X0.625000X0*%
%ADD14RoundRect,0.250000X0.625000X-0.312500X0.625000X0.312500X-0.625000X0.312500X-0.625000X-0.312500X0*%
%ADD15RoundRect,0.175000X0.175000X0.575000X-0.175000X0.575000X-0.175000X-0.575000X0.175000X-0.575000X0*%
%ADD16O,1.700000X1.700000*%
%ADD17R,1.700000X1.700000*%
%ADD18RoundRect,0.250000X0.312500X0.625000X-0.312500X0.625000X-0.312500X-0.625000X0.312500X-0.625000X0*%
%ADD19R,1.550000X1.300000*%
%ADD20R,1.550000X2.200000*%
%ADD21R,2.500000X2.200000*%
%ADD22R,0.508000X1.473200*%
%ADD23R,1.473200X0.508000*%
%ADD24RoundRect,0.250000X-0.650000X0.325000X-0.650000X-0.325000X0.650000X-0.325000X0.650000X0.325000X0*%
%ADD25R,1.900000X0.400000*%
%ADD26RoundRect,0.197500X-0.197500X-0.632500X0.197500X-0.632500X0.197500X0.632500X-0.197500X0.632500X0*%
%ADD27R,1.250000X2.200000*%
%ADD28R,2.200000X2.200000*%
%ADD29C,3.000000*%
%ADD30R,1.500000X1.600000*%
%ADD31RoundRect,0.250000X0.475000X-0.250000X0.475000X0.250000X-0.475000X0.250000X-0.475000X-0.250000X0*%
%ADD32R,1.525000X0.440000*%
%ADD33R,1.600000X0.550000*%
%ADD34R,0.550000X1.600000*%
%ADD35R,0.599440X1.998980*%
%ADD36R,1.000000X1.500000*%
%ADD37RoundRect,0.250000X-0.625000X0.312500X-0.625000X-0.312500X0.625000X-0.312500X0.625000X0.312500X0*%
%ADD38R,1.300000X1.550000*%
%ADD39RoundRect,0.250000X-0.250000X-0.475000X0.250000X-0.475000X0.250000X0.475000X-0.250000X0.475000X0*%
%ADD40RoundRect,0.250000X-0.412500X-0.650000X0.412500X-0.650000X0.412500X0.650000X-0.412500X0.650000X0*%
%ADD41R,1.050000X1.750000*%
%ADD42R,0.500000X0.300000*%
%ADD43R,2.200000X1.550000*%
%ADD44R,2.200000X2.500000*%
%ADD45RoundRect,0.250000X-0.475000X0.250000X-0.475000X-0.250000X0.475000X-0.250000X0.475000X0.250000X0*%
%ADD46R,1.600000X1.500000*%
%ADD47RoundRect,0.250000X0.650000X-0.325000X0.650000X0.325000X-0.650000X0.325000X-0.650000X-0.325000X0*%
%ADD48R,2.500000X2.000000*%
%ADD49R,2.500000X0.500000*%
%ADD50C,0.900000*%
%ADD51R,3.600000X3.600000*%
%ADD52RoundRect,0.062500X-0.337500X0.062500X-0.337500X-0.062500X0.337500X-0.062500X0.337500X0.062500X0*%
%ADD53RoundRect,0.062500X-0.062500X0.337500X-0.062500X-0.337500X0.062500X-0.337500X0.062500X0.337500X0*%
%ADD54R,0.400000X1.900000*%
%ADD55R,1.000000X0.750000*%
%ADD56O,3.500000X1.900000*%
%ADD57R,2.500000X1.100000*%
%ADD58C,1.100000*%
%ADD59RoundRect,0.049600X-0.260400X0.605400X-0.260400X-0.605400X0.260400X-0.605400X0.260400X0.605400X0*%
%ADD60C,0.550000*%
G04 APERTURE END LIST*
D10*
%TO.C,USB*%
X166868450Y-56111550D03*
X166868450Y-44111550D03*
D11*
X164008450Y-48861550D03*
X164008450Y-51361550D03*
X162008450Y-51361550D03*
D12*
X162008450Y-48861550D03*
%TD*%
D13*
%TO.C,2K7*%
X96762500Y-72175000D03*
X93837500Y-72175000D03*
%TD*%
D14*
%TO.C,330R*%
X93000000Y-49912500D03*
X93000000Y-52837500D03*
%TD*%
D15*
%TO.C,*%
X173275000Y-103732500D03*
%TD*%
D16*
%TO.C,REF\u002A\u002A*%
X121750000Y-131310000D03*
X121750000Y-128770000D03*
X121750000Y-126230000D03*
X121750000Y-123690000D03*
X121750000Y-121150000D03*
X121750000Y-118610000D03*
D17*
X121750000Y-116070000D03*
%TD*%
D15*
%TO.C,*%
X168525000Y-103720000D03*
%TD*%
D18*
%TO.C,330R*%
X130768450Y-42036550D03*
X133693450Y-42036550D03*
%TD*%
D19*
%TO.C,RESET*%
X167768450Y-33811550D03*
X159818450Y-33811550D03*
X159818450Y-38311550D03*
X167768450Y-38311550D03*
%TD*%
D18*
%TO.C,47K*%
X112603750Y-40405000D03*
X115528750Y-40405000D03*
%TD*%
D20*
%TO.C,PORT2*%
X96075000Y-43400000D03*
D21*
X98650000Y-43400000D03*
%TD*%
D18*
%TO.C,220R*%
X112603750Y-71305000D03*
X115528750Y-71305000D03*
%TD*%
D15*
%TO.C,*%
X167625000Y-132395000D03*
%TD*%
D16*
%TO.C,REF\u002A\u002A*%
X80435872Y-128656900D03*
X82975872Y-128656900D03*
X85515872Y-128656900D03*
X88055872Y-128656900D03*
X90595872Y-128656900D03*
X93135872Y-128656900D03*
X95675872Y-128656900D03*
D17*
X98215872Y-128656900D03*
%TD*%
D22*
%TO.C,ATmega32U4*%
X148152650Y-54594050D03*
X147365250Y-54594050D03*
X146552450Y-54594050D03*
X145765050Y-54594050D03*
X144952250Y-54594050D03*
X144164850Y-54594050D03*
X143377450Y-54594050D03*
X142564650Y-54594050D03*
X141777250Y-54594050D03*
X140964450Y-54594050D03*
X140177050Y-54594050D03*
D23*
X138424450Y-52841450D03*
X138424450Y-52054050D03*
X138424450Y-51241250D03*
X138424450Y-50453850D03*
X138424450Y-49641050D03*
X138424450Y-48853650D03*
X138424450Y-48066250D03*
X138424450Y-47253450D03*
X138424450Y-46466050D03*
X138424450Y-45653250D03*
X138424450Y-44865850D03*
D22*
X140177050Y-43113250D03*
X140964450Y-43113250D03*
X141777250Y-43113250D03*
X142564650Y-43113250D03*
X143377450Y-43113250D03*
X144164850Y-43113250D03*
X144952250Y-43113250D03*
X145765050Y-43113250D03*
X146552450Y-43113250D03*
X147365250Y-43113250D03*
X148152650Y-43113250D03*
D23*
X149905250Y-44865850D03*
X149905250Y-45653250D03*
X149905250Y-46466050D03*
X149905250Y-47253450D03*
X149905250Y-48066250D03*
X149905250Y-48853650D03*
X149905250Y-49641050D03*
X149905250Y-50453850D03*
X149905250Y-51241250D03*
X149905250Y-52054050D03*
X149905250Y-52841450D03*
%TD*%
D15*
%TO.C,*%
X171475000Y-103732500D03*
%TD*%
D18*
%TO.C,22R*%
X155625000Y-74395000D03*
X158550000Y-74395000D03*
%TD*%
D15*
%TO.C,*%
X165825000Y-132395000D03*
%TD*%
D24*
%TO.C,100nF*%
X159040000Y-91355000D03*
X159040000Y-88405000D03*
%TD*%
D25*
%TO.C,16MHz*%
X155290000Y-89405000D03*
X155290000Y-90605000D03*
X155290000Y-91805000D03*
%TD*%
D26*
%TO.C,REF\u002A\u002A*%
X119141250Y-61780000D03*
X119141250Y-65780000D03*
X117341250Y-61780000D03*
X117341250Y-65780000D03*
%TD*%
D11*
%TO.C,22pF*%
X89900000Y-35950000D03*
X87400000Y-35950000D03*
%TD*%
D20*
%TO.C,REF\u002A\u002A*%
X142615000Y-101730000D03*
D21*
X145190000Y-101730000D03*
%TD*%
D20*
%TO.C,PORT4*%
X98475000Y-36400000D03*
D21*
X95900000Y-36400000D03*
%TD*%
D27*
%TO.C,REF\u002A\u002A*%
X165225000Y-123270000D03*
D28*
X167500000Y-123270000D03*
%TD*%
D29*
%TO.C,USB1*%
X84025000Y-104415000D03*
X84025000Y-91275000D03*
D11*
X86735000Y-101345000D03*
X86735000Y-98845000D03*
X86735000Y-96845000D03*
D30*
X86735000Y-94345000D03*
%TD*%
D31*
%TO.C,0.1uF*%
X150964850Y-54278650D03*
X150964850Y-56178650D03*
%TD*%
D14*
%TO.C,330R*%
X96825000Y-49912500D03*
X96825000Y-52837500D03*
%TD*%
D18*
%TO.C,REF\u002A\u002A*%
X157912500Y-117495000D03*
X160837500Y-117495000D03*
%TD*%
D16*
%TO.C,REF\u002A\u002A*%
X132325000Y-83770000D03*
X132325000Y-81230000D03*
X132325000Y-78690000D03*
X132325000Y-76150000D03*
X132325000Y-73610000D03*
D17*
X132325000Y-71070000D03*
%TD*%
D27*
%TO.C,REF\u002A\u002A*%
X170950000Y-106907500D03*
D28*
X173225000Y-106907500D03*
%TD*%
D18*
%TO.C,47K*%
X112616250Y-68980000D03*
X115541250Y-68980000D03*
%TD*%
%TO.C,REF\u002A\u002A*%
X157912500Y-119945000D03*
X160837500Y-119945000D03*
%TD*%
D16*
%TO.C,REF\u002A\u002A*%
X133478450Y-34161550D03*
X136018450Y-34161550D03*
X138558450Y-34161550D03*
X141098450Y-34161550D03*
X143638450Y-34161550D03*
X146178450Y-34161550D03*
X148718450Y-34161550D03*
D17*
X151258450Y-34161550D03*
%TD*%
D13*
%TO.C,22R*%
X158820950Y-48961550D03*
X155895950Y-48961550D03*
%TD*%
D16*
%TO.C,REF\u002A\u002A*%
X135760000Y-130255000D03*
X138300000Y-130255000D03*
X140840000Y-130255000D03*
D17*
X143380000Y-130255000D03*
%TD*%
D16*
%TO.C,REF\u002A\u002A*%
X144375000Y-77045000D03*
X144375000Y-79585000D03*
X141835000Y-77045000D03*
X141835000Y-79585000D03*
X139295000Y-77045000D03*
D17*
X139295000Y-79585000D03*
%TD*%
D16*
%TO.C,REF\u002A\u002A*%
X137239850Y-59041050D03*
X139779850Y-59041050D03*
X142319850Y-59041050D03*
X144859850Y-59041050D03*
X147399850Y-59041050D03*
D17*
X149939850Y-59041050D03*
%TD*%
D15*
%TO.C,*%
X165825000Y-103720000D03*
%TD*%
%TO.C,*%
X171475000Y-132407500D03*
%TD*%
D14*
%TO.C,*%
X100500000Y-52850000D03*
%TD*%
D18*
%TO.C,220R*%
X112603750Y-90355000D03*
X115528750Y-90355000D03*
%TD*%
D32*
%TO.C,FE1.1s*%
X99445500Y-59910000D03*
X99445500Y-60550000D03*
X99445500Y-61190000D03*
X99445500Y-61830000D03*
X99445500Y-62470000D03*
X99445500Y-63110000D03*
X99445500Y-63750000D03*
X99445500Y-64390000D03*
X99445500Y-65030000D03*
X99445500Y-65670000D03*
X99445500Y-66310000D03*
X99445500Y-66950000D03*
X99445500Y-67590000D03*
X99445500Y-68230000D03*
X94021500Y-68230000D03*
X94021500Y-67590000D03*
X94021500Y-66950000D03*
X94021500Y-66310000D03*
X94021500Y-65670000D03*
X94021500Y-65030000D03*
X94021500Y-64390000D03*
X94021500Y-63750000D03*
X94021500Y-63110000D03*
X94021500Y-62470000D03*
X94021500Y-61830000D03*
X94021500Y-61190000D03*
X94021500Y-60550000D03*
X94021500Y-59910000D03*
%TD*%
D15*
%TO.C,*%
X170575000Y-132407500D03*
%TD*%
D18*
%TO.C,47K*%
X112603750Y-59480000D03*
X115528750Y-59480000D03*
%TD*%
D14*
%TO.C,1K*%
X107375000Y-68787500D03*
X107375000Y-71712500D03*
%TD*%
D18*
%TO.C,220R*%
X112603750Y-99880000D03*
X115528750Y-99880000D03*
%TD*%
%TO.C,330R*%
X141190000Y-94880000D03*
X144115000Y-94880000D03*
%TD*%
D16*
%TO.C,REF\u002A\u002A*%
X136245000Y-83745000D03*
X138785000Y-83745000D03*
X141325000Y-83745000D03*
X143865000Y-83745000D03*
X146405000Y-83745000D03*
X148945000Y-83745000D03*
X151485000Y-83745000D03*
D17*
X154025000Y-83745000D03*
%TD*%
D33*
%TO.C,ATmega16U2*%
X156490000Y-95280000D03*
X156490000Y-96080000D03*
X156490000Y-96880000D03*
X156490000Y-97680000D03*
X156490000Y-98480000D03*
X156490000Y-99280000D03*
X156490000Y-100080000D03*
X156490000Y-100880000D03*
D34*
X155040000Y-102330000D03*
X154240000Y-102330000D03*
X153440000Y-102330000D03*
X152640000Y-102330000D03*
X151840000Y-102330000D03*
X151040000Y-102330000D03*
X150240000Y-102330000D03*
X149440000Y-102330000D03*
D33*
X147990000Y-100880000D03*
X147990000Y-100080000D03*
X147990000Y-99280000D03*
X147990000Y-98480000D03*
X147990000Y-97680000D03*
X147990000Y-96880000D03*
X147990000Y-96080000D03*
X147990000Y-95280000D03*
D34*
X149440000Y-93830000D03*
X150240000Y-93830000D03*
X151040000Y-93830000D03*
X151840000Y-93830000D03*
X152640000Y-93830000D03*
X153440000Y-93830000D03*
X154240000Y-93830000D03*
X155040000Y-93830000D03*
%TD*%
D26*
%TO.C,REF\u002A\u002A*%
X119141250Y-99880000D03*
X119141250Y-103880000D03*
X117341250Y-99880000D03*
X117341250Y-103880000D03*
%TD*%
D35*
%TO.C,REF\u002A\u002A*%
X104402500Y-115804100D03*
X105672500Y-115804100D03*
X106942500Y-115804100D03*
X108212500Y-115804100D03*
X109482500Y-115804100D03*
X110752500Y-115804100D03*
X112022500Y-115804100D03*
X113292500Y-115804100D03*
X113292500Y-120604700D03*
X112022500Y-120604700D03*
X110752500Y-120604700D03*
X109482500Y-120604700D03*
X108212500Y-120604700D03*
X106942500Y-120604700D03*
X105672500Y-120604700D03*
X104402500Y-120604700D03*
%TD*%
D16*
%TO.C,REF\u002A\u002A*%
X158007450Y-41476050D03*
X158007450Y-44016050D03*
X155467450Y-41476050D03*
X155467450Y-44016050D03*
X152927450Y-41476050D03*
D17*
X152927450Y-44016050D03*
%TD*%
D36*
%TO.C,FUSE*%
X103325000Y-60150000D03*
X102025000Y-60150000D03*
%TD*%
D15*
%TO.C,*%
X172375000Y-132407500D03*
%TD*%
%TO.C,*%
X170575000Y-103732500D03*
%TD*%
D27*
%TO.C,REF\u002A\u002A*%
X170925000Y-112357500D03*
D28*
X173200000Y-112357500D03*
%TD*%
D15*
%TO.C,*%
X172375000Y-103732500D03*
%TD*%
D26*
%TO.C,REF\u002A\u002A*%
X119141250Y-90355000D03*
X119141250Y-94355000D03*
X117341250Y-90355000D03*
X117341250Y-94355000D03*
%TD*%
D18*
%TO.C,220R*%
X112603750Y-61805000D03*
X115528750Y-61805000D03*
%TD*%
D37*
%TO.C,10uF*%
X159125000Y-69457500D03*
X159125000Y-66532500D03*
%TD*%
D38*
%TO.C,RESET*%
X103075000Y-76825000D03*
X103075000Y-84775000D03*
X107575000Y-84775000D03*
X107575000Y-76825000D03*
%TD*%
D37*
%TO.C,100nF*%
X135375000Y-71957500D03*
X135375000Y-69032500D03*
%TD*%
D27*
%TO.C,REF\u002A\u002A*%
X165300000Y-106895000D03*
D28*
X167575000Y-106895000D03*
%TD*%
D37*
%TO.C,100nF*%
X156800000Y-69457500D03*
X156800000Y-66532500D03*
%TD*%
D18*
%TO.C,FUSE*%
X101537500Y-64000000D03*
X104462500Y-64000000D03*
%TD*%
D39*
%TO.C,1uF*%
X160790000Y-101080000D03*
X158890000Y-101080000D03*
%TD*%
D30*
%TO.C,USB2*%
X86760000Y-77095000D03*
D11*
X86760000Y-79595000D03*
X86760000Y-81595000D03*
X86760000Y-84095000D03*
D29*
X84050000Y-74025000D03*
X84050000Y-87165000D03*
%TD*%
D18*
%TO.C,REF\u002A\u002A*%
X170825000Y-126007500D03*
X173750000Y-126007500D03*
%TD*%
D37*
%TO.C,330R*%
X132890000Y-100530000D03*
X132890000Y-97605000D03*
%TD*%
D20*
%TO.C,PORT1*%
X101325000Y-46900000D03*
D21*
X98750000Y-46900000D03*
%TD*%
D15*
%TO.C,*%
X164925000Y-132395000D03*
%TD*%
D18*
%TO.C,47K*%
X112603750Y-49930000D03*
X115528750Y-49930000D03*
%TD*%
D20*
%TO.C,REF\u002A\u002A*%
X138427500Y-117080000D03*
D21*
X141002500Y-117080000D03*
%TD*%
D16*
%TO.C,REF\u002A\u002A*%
X100735872Y-128656900D03*
X103275872Y-128656900D03*
X105815872Y-128656900D03*
X108355872Y-128656900D03*
X110895872Y-128656900D03*
X113435872Y-128656900D03*
X115975872Y-128656900D03*
D17*
X118515872Y-128656900D03*
%TD*%
D20*
%TO.C,REF\u002A\u002A*%
X139290000Y-94505000D03*
D21*
X136715000Y-94505000D03*
%TD*%
D31*
%TO.C,1uF*%
X162775000Y-117295000D03*
X162775000Y-119195000D03*
%TD*%
D15*
%TO.C,*%
X167625000Y-103720000D03*
%TD*%
D18*
%TO.C,REF\u002A\u002A*%
X165250000Y-109620000D03*
X168175000Y-109620000D03*
%TD*%
D16*
%TO.C,REF\u002A\u002A*%
X133533450Y-46386550D03*
X133533450Y-48926550D03*
X133533450Y-51466550D03*
X133533450Y-54006550D03*
X133533450Y-56546550D03*
D17*
X133533450Y-59086550D03*
%TD*%
D40*
%TO.C,10uF*%
X96712500Y-76250000D03*
X93587500Y-76250000D03*
%TD*%
D27*
%TO.C,REF\u002A\u002A*%
X170875000Y-123282500D03*
D28*
X173150000Y-123282500D03*
%TD*%
D18*
%TO.C,220R*%
X112603750Y-42730000D03*
X115528750Y-42730000D03*
%TD*%
%TO.C,REF\u002A\u002A*%
X170875000Y-115082500D03*
X173800000Y-115082500D03*
%TD*%
D41*
%TO.C,LM358*%
X160525000Y-114882500D03*
D42*
X161425000Y-114132500D03*
X161425000Y-114632500D03*
X161425000Y-115132500D03*
X161425000Y-115632500D03*
X159625000Y-115632500D03*
X159625000Y-115132500D03*
X159625000Y-114632500D03*
X159625000Y-114132500D03*
%TD*%
D27*
%TO.C,REF\u002A\u002A*%
X165250000Y-117820000D03*
D28*
X167525000Y-117820000D03*
%TD*%
D15*
%TO.C,*%
X164925000Y-103720000D03*
%TD*%
D43*
%TO.C,TX*%
X137208450Y-40936550D03*
D44*
X137208450Y-38361550D03*
%TD*%
D18*
%TO.C,REF\u002A\u002A*%
X165200000Y-120545000D03*
X168125000Y-120545000D03*
%TD*%
D39*
%TO.C,1uF*%
X156775000Y-77045000D03*
X154875000Y-77045000D03*
%TD*%
D18*
%TO.C,220R*%
X112603750Y-33205000D03*
X115528750Y-33205000D03*
%TD*%
D15*
%TO.C,*%
X174175000Y-132407500D03*
%TD*%
D18*
%TO.C,330R*%
X130793450Y-38486550D03*
X133718450Y-38486550D03*
%TD*%
%TO.C,REF\u002A\u002A*%
X170900000Y-109632500D03*
X173825000Y-109632500D03*
%TD*%
D15*
%TO.C,*%
X173275000Y-132407500D03*
%TD*%
D41*
%TO.C,LM358*%
X157425000Y-114845000D03*
D42*
X158325000Y-114095000D03*
X158325000Y-114595000D03*
X158325000Y-115095000D03*
X158325000Y-115595000D03*
X156525000Y-115595000D03*
X156525000Y-115095000D03*
X156525000Y-114595000D03*
X156525000Y-114095000D03*
%TD*%
D19*
%TO.C,RESET*%
X158750000Y-79745000D03*
X166700000Y-79745000D03*
X158750000Y-84245000D03*
X166700000Y-84245000D03*
%TD*%
D15*
%TO.C,*%
X166725000Y-103720000D03*
%TD*%
D45*
%TO.C,10uF*%
X155158450Y-56186550D03*
X155158450Y-54286550D03*
%TD*%
D29*
%TO.C,USB_0*%
X107995000Y-103325000D03*
X94855000Y-103325000D03*
D11*
X104925000Y-100615000D03*
X102425000Y-100615000D03*
X100425000Y-100615000D03*
D46*
X97925000Y-100615000D03*
%TD*%
D15*
%TO.C,*%
X166725000Y-132395000D03*
%TD*%
%TO.C,*%
X168525000Y-132395000D03*
%TD*%
D18*
%TO.C,220R*%
X112603750Y-52255000D03*
X115528750Y-52255000D03*
%TD*%
D39*
%TO.C,1uF*%
X153727450Y-48466050D03*
X151827450Y-48466050D03*
%TD*%
D14*
%TO.C,10K*%
X130540000Y-97605000D03*
X130540000Y-100530000D03*
%TD*%
D31*
%TO.C,1uF*%
X162775000Y-121095000D03*
X162775000Y-122995000D03*
%TD*%
D16*
%TO.C,REF\u002A\u002A*%
X132710000Y-89080000D03*
X135250000Y-89080000D03*
X137790000Y-89080000D03*
X140330000Y-89080000D03*
X142870000Y-89080000D03*
X145410000Y-89080000D03*
X147950000Y-89080000D03*
D17*
X150490000Y-89080000D03*
%TD*%
D14*
%TO.C,330R*%
X100500000Y-49925000D03*
X100500000Y-52850000D03*
%TD*%
D13*
%TO.C,1K*%
X134715000Y-115230000D03*
X131790000Y-115230000D03*
%TD*%
D18*
%TO.C,1K*%
X135212500Y-73945000D03*
X138137500Y-73945000D03*
%TD*%
D16*
%TO.C,REF\u002A\u002A*%
X76770000Y-131296900D03*
X76770000Y-128756900D03*
X76770000Y-126216900D03*
X76770000Y-123676900D03*
X76770000Y-121136900D03*
X76770000Y-118596900D03*
D17*
X76770000Y-116056900D03*
%TD*%
D18*
%TO.C,47K*%
X112603750Y-88030000D03*
X115528750Y-88030000D03*
%TD*%
D26*
%TO.C,REF\u002A\u002A*%
X119141250Y-80830000D03*
X119141250Y-84830000D03*
X117341250Y-80830000D03*
X117341250Y-84830000D03*
%TD*%
D13*
%TO.C,22R*%
X158828950Y-51330550D03*
X155903950Y-51330550D03*
%TD*%
D26*
%TO.C,REF\u002A\u002A*%
X119141250Y-33205000D03*
X119141250Y-37205000D03*
X117341250Y-33205000D03*
X117341250Y-37205000D03*
%TD*%
D16*
%TO.C,REF\u002A\u002A*%
X159873450Y-60511550D03*
X162413450Y-60511550D03*
X164953450Y-60511550D03*
D17*
X167493450Y-60511550D03*
%TD*%
D43*
%TO.C,REF\u002A\u002A*%
X135775000Y-80020000D03*
D44*
X135775000Y-77445000D03*
%TD*%
D16*
%TO.C,-BAT+*%
X153818450Y-34161550D03*
D17*
X156358450Y-34161550D03*
%TD*%
D47*
%TO.C,100nF*%
X131502500Y-125705000D03*
X131502500Y-128655000D03*
%TD*%
D48*
%TO.C,USB*%
X147752500Y-117905000D03*
X153252500Y-126705000D03*
X147752500Y-126705000D03*
X153252500Y-117905000D03*
D49*
X147752500Y-120705000D03*
X147752500Y-121505000D03*
X147752500Y-122305000D03*
X147752500Y-123105000D03*
X147752500Y-123905000D03*
D50*
X150352500Y-120105000D03*
X150352500Y-124505000D03*
%TD*%
D27*
%TO.C,REF\u002A\u002A*%
X158000000Y-122895000D03*
D28*
X160275000Y-122895000D03*
%TD*%
D26*
%TO.C,REF\u002A\u002A*%
X119141250Y-71305000D03*
X119141250Y-75305000D03*
X117341250Y-71305000D03*
X117341250Y-75305000D03*
%TD*%
D36*
%TO.C,BTN*%
X103675000Y-70725000D03*
X102375000Y-70725000D03*
%TD*%
D18*
%TO.C,47K*%
X112603750Y-97555000D03*
X115528750Y-97555000D03*
%TD*%
D14*
%TO.C,10K*%
X149518450Y-37674050D03*
X149518450Y-40599050D03*
%TD*%
D18*
%TO.C,REF\u002A\u002A*%
X170850000Y-120557500D03*
X173775000Y-120557500D03*
%TD*%
D40*
%TO.C,10uF*%
X96762500Y-84000000D03*
X93637500Y-84000000D03*
%TD*%
D20*
%TO.C,POW*%
X153208450Y-59011550D03*
D21*
X155783450Y-59011550D03*
%TD*%
D18*
%TO.C,330R*%
X141190000Y-96830000D03*
X144115000Y-96830000D03*
%TD*%
%TO.C,REF\u002A\u002A*%
X165225000Y-115070000D03*
X168150000Y-115070000D03*
%TD*%
%TO.C,47K*%
X112603750Y-105905000D03*
X115528750Y-105905000D03*
%TD*%
D26*
%TO.C,REF\u002A\u002A*%
X119141250Y-42730000D03*
X119141250Y-46730000D03*
X117341250Y-42730000D03*
X117341250Y-46730000D03*
%TD*%
D36*
%TO.C,TEST*%
X100375000Y-57325000D03*
X99075000Y-57325000D03*
%TD*%
D51*
%TO.C,AT90USB162*%
X150675000Y-74095000D03*
D52*
X153125000Y-72345000D03*
X153125000Y-72845000D03*
X153125000Y-73345000D03*
X153125000Y-73845000D03*
X153125000Y-74345000D03*
X153125000Y-74845000D03*
X153125000Y-75345000D03*
X153125000Y-75845000D03*
D53*
X152425000Y-76545000D03*
X151925000Y-76545000D03*
X151425000Y-76545000D03*
X150925000Y-76545000D03*
X150425000Y-76545000D03*
X149925000Y-76545000D03*
X149425000Y-76545000D03*
X148925000Y-76545000D03*
D52*
X148225000Y-75845000D03*
X148225000Y-75345000D03*
X148225000Y-74845000D03*
X148225000Y-74345000D03*
X148225000Y-73845000D03*
X148225000Y-73345000D03*
X148225000Y-72845000D03*
X148225000Y-72345000D03*
D53*
X148925000Y-71645000D03*
X149425000Y-71645000D03*
X149925000Y-71645000D03*
X150425000Y-71645000D03*
X150925000Y-71645000D03*
X151425000Y-71645000D03*
X151925000Y-71645000D03*
X152425000Y-71645000D03*
%TD*%
D14*
%TO.C,330R*%
X158783450Y-54224050D03*
X158783450Y-57149050D03*
%TD*%
D43*
%TO.C,PWR*%
X92400000Y-43775000D03*
D44*
X92400000Y-46350000D03*
%TD*%
D43*
%TO.C,REF\u002A\u002A*%
X87050000Y-114445000D03*
D44*
X87050000Y-117020000D03*
%TD*%
D43*
%TO.C,RX*%
X140783450Y-40936550D03*
D44*
X140783450Y-38361550D03*
%TD*%
D26*
%TO.C,REF\u002A\u002A*%
X119141250Y-52255000D03*
X119141250Y-56255000D03*
X117341250Y-52255000D03*
X117341250Y-56255000D03*
%TD*%
D27*
%TO.C,REF\u002A\u002A*%
X170900000Y-117832500D03*
D28*
X173175000Y-117832500D03*
%TD*%
D18*
%TO.C,10K*%
X158612500Y-77145000D03*
X161537500Y-77145000D03*
%TD*%
D24*
%TO.C,100nF*%
X131480000Y-121305000D03*
X131480000Y-118355000D03*
%TD*%
D25*
%TO.C,16MHz*%
X153975000Y-70245000D03*
X153975000Y-69045000D03*
X153975000Y-67845000D03*
%TD*%
D35*
%TO.C,REF\u002A\u002A*%
X93080000Y-115819400D03*
X94350000Y-115819400D03*
X95620000Y-115819400D03*
X96890000Y-115819400D03*
X98160000Y-115819400D03*
X99430000Y-115819400D03*
X100700000Y-115819400D03*
X101970000Y-115819400D03*
X101970000Y-120620000D03*
X100700000Y-120620000D03*
X99430000Y-120620000D03*
X98160000Y-120620000D03*
X96890000Y-120620000D03*
X95620000Y-120620000D03*
X94350000Y-120620000D03*
X93080000Y-120620000D03*
%TD*%
D16*
%TO.C,REF\u002A\u002A*%
X128302500Y-115670000D03*
X128302500Y-118210000D03*
X128302500Y-120750000D03*
X128302500Y-123290000D03*
X128302500Y-125830000D03*
D17*
X128302500Y-128370000D03*
%TD*%
D16*
%TO.C,REF\u002A\u002A*%
X160480000Y-110385000D03*
X157940000Y-110385000D03*
X160480000Y-107845000D03*
X157940000Y-107845000D03*
X160480000Y-105305000D03*
D17*
X157940000Y-105305000D03*
%TD*%
D27*
%TO.C,REF\u002A\u002A*%
X165275000Y-112345000D03*
D28*
X167550000Y-112345000D03*
%TD*%
D16*
%TO.C,REF\u002A\u002A*%
X132370000Y-65745000D03*
X134910000Y-65745000D03*
X137450000Y-65745000D03*
X139990000Y-65745000D03*
X142530000Y-65745000D03*
X145070000Y-65745000D03*
X147610000Y-65745000D03*
D17*
X150150000Y-65745000D03*
%TD*%
D15*
%TO.C,*%
X174175000Y-103732500D03*
%TD*%
D18*
%TO.C,47K*%
X112603750Y-78505000D03*
X115528750Y-78505000D03*
%TD*%
D54*
%TO.C,16MHz*%
X145877450Y-39416050D03*
X144677450Y-39416050D03*
X143477450Y-39416050D03*
%TD*%
D40*
%TO.C,10uF*%
X96787500Y-80150000D03*
X93662500Y-80150000D03*
%TD*%
D37*
%TO.C,1K*%
X83975000Y-117582500D03*
X83975000Y-114657500D03*
%TD*%
D54*
%TO.C,12MHz*%
X93750000Y-57000000D03*
X92550000Y-57000000D03*
X91350000Y-57000000D03*
%TD*%
D29*
%TO.C,USB3*%
X84075000Y-56730000D03*
X84075000Y-69870000D03*
D11*
X86785000Y-66800000D03*
X86785000Y-64300000D03*
X86785000Y-62300000D03*
D30*
X86785000Y-59800000D03*
%TD*%
D31*
%TO.C,1uF*%
X153039850Y-54278650D03*
X153039850Y-56178650D03*
%TD*%
D36*
%TO.C,RESET*%
X103150000Y-66575000D03*
X101850000Y-66575000D03*
%TD*%
D18*
%TO.C,REF\u002A\u002A*%
X165175000Y-125995000D03*
X168100000Y-125995000D03*
%TD*%
D20*
%TO.C,REF\u002A\u002A*%
X139265000Y-97955000D03*
D21*
X136690000Y-97955000D03*
%TD*%
D55*
%TO.C,FUSE*%
X92637500Y-52825000D03*
X91337500Y-52825000D03*
%TD*%
D18*
%TO.C,22R*%
X155625000Y-72095000D03*
X158550000Y-72095000D03*
%TD*%
D56*
%TO.C,USB_0*%
X164875000Y-76895000D03*
X164875000Y-65495000D03*
D57*
X162125000Y-74695000D03*
X162125000Y-72195000D03*
X162125000Y-70195000D03*
X162125000Y-67695000D03*
D58*
X164875000Y-73495000D03*
X164875000Y-68895000D03*
%TD*%
D29*
%TO.C,USB4*%
X84100000Y-52620000D03*
X84100000Y-39480000D03*
D11*
X86810000Y-49550000D03*
X86810000Y-47050000D03*
X86810000Y-45050000D03*
D30*
X86810000Y-42550000D03*
%TD*%
D20*
%TO.C,PORT3*%
X98625000Y-39875000D03*
D21*
X101200000Y-39875000D03*
%TD*%
D54*
%TO.C,12MHz*%
X136130000Y-118707500D03*
X134930000Y-118707500D03*
X133730000Y-118707500D03*
%TD*%
D16*
%TO.C,REF\u002A\u002A*%
X133460000Y-110030000D03*
X136000000Y-110030000D03*
X138540000Y-110030000D03*
X141080000Y-110030000D03*
X143620000Y-110030000D03*
X146160000Y-110030000D03*
X148700000Y-110030000D03*
D17*
X151240000Y-110030000D03*
%TD*%
D18*
%TO.C,220R*%
X112603750Y-80830000D03*
X115528750Y-80830000D03*
%TD*%
D19*
%TO.C,RESET*%
X140065000Y-102480000D03*
X132115000Y-102480000D03*
X140065000Y-106980000D03*
X132115000Y-106980000D03*
%TD*%
D59*
%TO.C,CH340G*%
X143700000Y-126682500D03*
X142430000Y-126682500D03*
X141160000Y-126682500D03*
X139890000Y-126682500D03*
X138620000Y-126682500D03*
X137350000Y-126682500D03*
X136080000Y-126682500D03*
X134810000Y-126682500D03*
X134810000Y-121182500D03*
X136080000Y-121182500D03*
X137350000Y-121182500D03*
X138620000Y-121182500D03*
X139890000Y-121182500D03*
X141160000Y-121182500D03*
X142430000Y-121182500D03*
X143700000Y-121182500D03*
%TD*%
D16*
%TO.C,REF\u002A\u002A*%
X124191250Y-59185000D03*
X124191250Y-61725000D03*
X124191250Y-64265000D03*
X124191250Y-66805000D03*
X124191250Y-69345000D03*
X124191250Y-71885000D03*
X124191250Y-74425000D03*
X124191250Y-76965000D03*
X124191250Y-79505000D03*
D17*
X124191250Y-82045000D03*
%TD*%
D60*
%TO.C,REF\u002A\u002A*%
X159965000Y-99680000D03*
X159965000Y-95680000D03*
%TD*%
M02*
