%TF.GenerationSoftware,KiCad,Pcbnew,(6.0.5)*%
%TF.CreationDate,2023-06-16T09:56:32+03:00*%
%TF.ProjectId,JLC1,4a4c4331-2e6b-4696-9361-645f70636258,rev?*%
%TF.SameCoordinates,Original*%
%TF.FileFunction,Plated,1,2,PTH,Mixed*%
%TF.FilePolarity,Positive*%
%FSLAX46Y46*%
G04 Gerber Fmt 4.6, Leading zero omitted, Abs format (unit mm)*
G04 Created by KiCad (PCBNEW (6.0.5)) date 2023-06-16 09:56:32*
%MOMM*%
%LPD*%
G01*
G04 APERTURE LIST*
%TA.AperFunction,ViaDrill*%
%ADD10C,0.200000*%
%TD*%
%TA.AperFunction,ViaDrill*%
%ADD11C,0.300000*%
%TD*%
%TA.AperFunction,ViaDrill*%
%ADD12C,0.400000*%
%TD*%
%TA.AperFunction,ViaDrill*%
%ADD13C,0.500000*%
%TD*%
%TA.AperFunction,ComponentDrill*%
%ADD14C,0.800000*%
%TD*%
G04 aperture for slot hole*
%TA.AperFunction,ComponentDrill*%
%ADD15O,2.500000X0.900000*%
%TD*%
%TA.AperFunction,ComponentDrill*%
%ADD16C,0.950000*%
%TD*%
%TA.AperFunction,ComponentDrill*%
%ADD17C,1.000000*%
%TD*%
%TA.AperFunction,ComponentDrill*%
%ADD18C,2.300000*%
%TD*%
G04 APERTURE END LIST*
D10*
X165975000Y-110820000D03*
X171625000Y-110832500D03*
D11*
X93100000Y-115445000D03*
X95455000Y-66760000D03*
X95650000Y-116220000D03*
X96875000Y-117045000D03*
X98150000Y-117745000D03*
X98285000Y-59900000D03*
X99450000Y-118445000D03*
X100700000Y-119145000D03*
X103200000Y-114695000D03*
X104400000Y-115795000D03*
X108200000Y-117045000D03*
X109482500Y-117702500D03*
X110775000Y-118445000D03*
X111600000Y-119145000D03*
X113300000Y-116570000D03*
X114125000Y-115020000D03*
X134318450Y-36511550D03*
X134318450Y-44646550D03*
X136533450Y-41311550D03*
X138424450Y-46466050D03*
X140508450Y-47236550D03*
X140933450Y-43116550D03*
X141783450Y-43111550D03*
X142258450Y-50936550D03*
X142258450Y-51861550D03*
X142583450Y-43111550D03*
X142958450Y-47211550D03*
X143383450Y-43086550D03*
X147618450Y-45701550D03*
X147908450Y-51786550D03*
X148152650Y-43113250D03*
X148225000Y-70845000D03*
X148225000Y-71645000D03*
X149177450Y-52841050D03*
X149905250Y-47253450D03*
X151175000Y-68545000D03*
X151468450Y-37661550D03*
X151468450Y-39536550D03*
X152525000Y-77545000D03*
X153125000Y-72595000D03*
X159252450Y-54241050D03*
X164900000Y-105070000D03*
X164925000Y-129220000D03*
X165500000Y-130145000D03*
X165825000Y-129245000D03*
X166725000Y-117745000D03*
X166725000Y-129270000D03*
X167650000Y-123320000D03*
X168525000Y-109695000D03*
X168550000Y-115020000D03*
X168550000Y-120520000D03*
X168550000Y-125995000D03*
X170550000Y-105082500D03*
X170575000Y-129232500D03*
X171150000Y-130157500D03*
X171475000Y-129257500D03*
X172375000Y-117757500D03*
X172375000Y-129282500D03*
X173300000Y-123332500D03*
X174175000Y-109707500D03*
X174200000Y-115032500D03*
X174200000Y-120532500D03*
X174200000Y-126007500D03*
D12*
X93000000Y-52837500D03*
X93600000Y-84000000D03*
X132890000Y-97580000D03*
X136690000Y-97955000D03*
X137425000Y-70445000D03*
X140977500Y-117130000D03*
X143125000Y-74495000D03*
X145190000Y-101730000D03*
X147752500Y-121155000D03*
X147990000Y-100080000D03*
X147990000Y-100880000D03*
X149440000Y-102330000D03*
X153940000Y-98530000D03*
X153990000Y-96230000D03*
X154840000Y-100830000D03*
X155040000Y-102330000D03*
X159215000Y-96380000D03*
X159215000Y-98655000D03*
X160475000Y-82095000D03*
X162125000Y-67695000D03*
X166775000Y-84245000D03*
D13*
X96600000Y-97950000D03*
X159718450Y-36086550D03*
D14*
%TO.C,22pF*%
X87400000Y-35950000D03*
X89900000Y-35950000D03*
D15*
%TO.C,USB_0*%
X164875000Y-65495000D03*
X164875000Y-76895000D03*
D16*
%TO.C,USB1*%
X86735000Y-94345000D03*
X86735000Y-96845000D03*
X86735000Y-98845000D03*
X86735000Y-101345000D03*
%TO.C,USB2*%
X86760000Y-77095000D03*
X86760000Y-79595000D03*
X86760000Y-81595000D03*
X86760000Y-84095000D03*
%TO.C,USB3*%
X86785000Y-59800000D03*
X86785000Y-62300000D03*
X86785000Y-64300000D03*
X86785000Y-66800000D03*
%TO.C,USB4*%
X86810000Y-42550000D03*
X86810000Y-45050000D03*
X86810000Y-47050000D03*
X86810000Y-49550000D03*
%TO.C,USB_0*%
X97925000Y-100615000D03*
X100425000Y-100615000D03*
X102425000Y-100615000D03*
X104925000Y-100615000D03*
%TO.C,USB*%
X162008450Y-48861550D03*
X162008450Y-51361550D03*
X164008450Y-48861550D03*
X164008450Y-51361550D03*
D17*
%TO.C,REF\u002A\u002A*%
X76770000Y-116056900D03*
X76770000Y-118596900D03*
X76770000Y-121136900D03*
X76770000Y-123676900D03*
X76770000Y-126216900D03*
X76770000Y-128756900D03*
X76770000Y-131296900D03*
X80435872Y-128656900D03*
X82975872Y-128656900D03*
X85515872Y-128656900D03*
X88055872Y-128656900D03*
X90595872Y-128656900D03*
X93135872Y-128656900D03*
X95675872Y-128656900D03*
X98215872Y-128656900D03*
X100735872Y-128656900D03*
X103275872Y-128656900D03*
X105815872Y-128656900D03*
X108355872Y-128656900D03*
X110895872Y-128656900D03*
X113435872Y-128656900D03*
X115975872Y-128656900D03*
X118515872Y-128656900D03*
X121750000Y-116070000D03*
X121750000Y-118610000D03*
X121750000Y-121150000D03*
X121750000Y-123690000D03*
X121750000Y-126230000D03*
X121750000Y-128770000D03*
X121750000Y-131310000D03*
X124191250Y-59185000D03*
X124191250Y-61725000D03*
X124191250Y-64265000D03*
X124191250Y-66805000D03*
X124191250Y-69345000D03*
X124191250Y-71885000D03*
X124191250Y-74425000D03*
X124191250Y-76965000D03*
X124191250Y-79505000D03*
X124191250Y-82045000D03*
X128302500Y-115670000D03*
X128302500Y-118210000D03*
X128302500Y-120750000D03*
X128302500Y-123290000D03*
X128302500Y-125830000D03*
X128302500Y-128370000D03*
X132325000Y-71070000D03*
X132325000Y-73610000D03*
X132325000Y-76150000D03*
X132325000Y-78690000D03*
X132325000Y-81230000D03*
X132325000Y-83770000D03*
X132370000Y-65745000D03*
X132710000Y-89080000D03*
X133460000Y-110030000D03*
X133478450Y-34161550D03*
X133533450Y-46386550D03*
X133533450Y-48926550D03*
X133533450Y-51466550D03*
X133533450Y-54006550D03*
X133533450Y-56546550D03*
X133533450Y-59086550D03*
X134910000Y-65745000D03*
X135250000Y-89080000D03*
X135760000Y-130255000D03*
X136000000Y-110030000D03*
X136018450Y-34161550D03*
X136245000Y-83745000D03*
X137239850Y-59041050D03*
X137450000Y-65745000D03*
X137790000Y-89080000D03*
X138300000Y-130255000D03*
X138540000Y-110030000D03*
X138558450Y-34161550D03*
X138785000Y-83745000D03*
X139295000Y-77045000D03*
X139295000Y-79585000D03*
X139779850Y-59041050D03*
X139990000Y-65745000D03*
X140330000Y-89080000D03*
X140840000Y-130255000D03*
X141080000Y-110030000D03*
X141098450Y-34161550D03*
X141325000Y-83745000D03*
X141835000Y-77045000D03*
X141835000Y-79585000D03*
X142319850Y-59041050D03*
X142530000Y-65745000D03*
X142870000Y-89080000D03*
X143380000Y-130255000D03*
X143620000Y-110030000D03*
X143638450Y-34161550D03*
X143865000Y-83745000D03*
X144375000Y-77045000D03*
X144375000Y-79585000D03*
X144859850Y-59041050D03*
X145070000Y-65745000D03*
X145410000Y-89080000D03*
X146160000Y-110030000D03*
X146178450Y-34161550D03*
X146405000Y-83745000D03*
X147399850Y-59041050D03*
X147610000Y-65745000D03*
X147950000Y-89080000D03*
X148700000Y-110030000D03*
X148718450Y-34161550D03*
X148945000Y-83745000D03*
X149939850Y-59041050D03*
X150150000Y-65745000D03*
X150490000Y-89080000D03*
X151240000Y-110030000D03*
X151258450Y-34161550D03*
X151485000Y-83745000D03*
X152927450Y-41476050D03*
X152927450Y-44016050D03*
%TO.C,-BAT+*%
X153818450Y-34161550D03*
%TO.C,REF\u002A\u002A*%
X154025000Y-83745000D03*
X155467450Y-41476050D03*
X155467450Y-44016050D03*
%TO.C,-BAT+*%
X156358450Y-34161550D03*
%TO.C,REF\u002A\u002A*%
X157940000Y-105305000D03*
X157940000Y-107845000D03*
X157940000Y-110385000D03*
X158007450Y-41476050D03*
X158007450Y-44016050D03*
X159873450Y-60511550D03*
X160480000Y-105305000D03*
X160480000Y-107845000D03*
X160480000Y-110385000D03*
X162413450Y-60511550D03*
X164953450Y-60511550D03*
X167493450Y-60511550D03*
D18*
%TO.C,USB1*%
X84025000Y-91275000D03*
X84025000Y-104415000D03*
%TO.C,USB2*%
X84050000Y-74025000D03*
X84050000Y-87165000D03*
%TO.C,USB3*%
X84075000Y-56730000D03*
X84075000Y-69870000D03*
%TO.C,USB4*%
X84100000Y-39480000D03*
X84100000Y-52620000D03*
%TO.C,USB_0*%
X94855000Y-103325000D03*
X107995000Y-103325000D03*
%TO.C,USB*%
X166868450Y-44111550D03*
X166868450Y-56111550D03*
M02*
