M48
; DRILL file {KiCad 8.0.3} date 2024-09-09T17:16:05+0300
; FORMAT={-:-/ absolute / inch / decimal}
; #@! TF.CreationDate,2024-09-09T17:16:05+03:00
; #@! TF.GenerationSoftware,Kicad,Pcbnew,8.0.3
; #@! TF.FileFunction,NonPlated,1,2,NPTH
FMAT,2
INCH
; #@! TA.AperFunction,NonPlated,NPTH,ComponentDrill
T1C0.0256
; #@! TA.AperFunction,NonPlated,NPTH,ComponentDrill
T2C0.0669
; #@! TA.AperFunction,NonPlated,NPTH,ComponentDrill
T3C0.0866
; #@! TA.AperFunction,NonPlated,NPTH,ComponentDrill
T4C0.1260
; #@! TA.AperFunction,NonPlated,NPTH,ComponentDrill
T5C0.1575
%
G90
G05
T1
X5.1353Y-2.3621
X5.1353Y-2.5897
T2
X5.4235Y-3.6601
X5.4235Y-4.4475
X5.4235Y-5.2349
X5.4266Y-2.8727
X5.8235Y-3.6601
X5.8235Y-4.4475
X5.8235Y-5.2349
X5.8266Y-2.8727
X6.2109Y-3.6601
X6.2109Y-4.4475
X6.2109Y-5.2349
X6.214Y-2.8727
X6.6109Y-3.6601
X6.6109Y-4.4475
X6.6109Y-5.2349
X6.614Y-2.8727
X6.9983Y-3.6601
X6.9983Y-4.4475
X6.9983Y-5.2349
X7.0014Y-2.8727
X7.3983Y-3.6601
X7.3983Y-4.4475
X7.3983Y-5.2349
X7.4014Y-2.8727
T3
X4.7382Y-2.4845
T4
X5.0691Y-2.105
X5.0691Y-5.8058
X7.7463Y-2.105
X7.7463Y-5.8058
T5
X5.6235Y-3.6601
X5.6235Y-4.4475
X5.6235Y-5.2349
X5.6266Y-2.8727
X6.4109Y-3.6601
X6.4109Y-4.4475
X6.4109Y-5.2349
X6.414Y-2.8727
X7.1983Y-3.6601
X7.1983Y-4.4475
X7.1983Y-5.2349
X7.2014Y-2.8727
M30
