M48
; DRILL file {KiCad 8.0.3} date 2024-09-09T17:16:05+0300
; FORMAT={-:-/ absolute / inch / decimal}
; #@! TF.CreationDate,2024-09-09T17:16:05+03:00
; #@! TF.GenerationSoftware,Kicad,Pcbnew,8.0.3
; #@! TF.FileFunction,Plated,1,2,PTH
FMAT,2
INCH
; #@! TA.AperFunction,Plated,PTH,ViaDrill
T1C0.0118
; #@! TA.AperFunction,Plated,PTH,ViaDrill
T2C0.0157
; #@! TA.AperFunction,Plated,PTH,ComponentDrill
T3C0.0236
; #@! TA.AperFunction,Plated,PTH,ComponentDrill
T4C0.0295
; #@! TA.AperFunction,Plated,PTH,ComponentDrill
T5C0.0315
; #@! TA.AperFunction,Plated,PTH,ComponentDrill
T6C0.0354
; #@! TA.AperFunction,Plated,PTH,ComponentDrill
T7C0.0394
; #@! TA.AperFunction,Plated,PTH,ComponentDrill
T8C0.0591
%
G90
G05
T1
X4.5273Y-3.9857
X4.5273Y-5.0172
X4.5332Y-4.2387
X4.5332Y-5.2702
X4.5987Y-4.1988
X4.5987Y-5.2303
X5.5514Y-2.4067
X5.6203Y-2.4101
X5.6892Y-2.4101
X5.7089Y-2.5479
X5.7384Y-2.5381
X5.7975Y-3.0105
X5.8565Y-2.0361
X5.8959Y-2.0066
X5.9353Y-1.9869
X5.9746Y-1.9771
X6.014Y-1.9771
X6.0534Y-1.9771
X6.0534Y-2.3019
X6.1451Y-2.0397
X6.1666Y-2.1591
X6.2121Y-2.0546
X6.2404Y-2.0558
X6.2896Y-2.2822
X6.329Y-2.2822
X6.3683Y-2.2822
T2
X4.3045Y-4.2449
X4.3045Y-5.2764
X4.4553Y-4.4587
X4.4553Y-5.4902
X5.2266Y-3.0204
X5.5908Y-2.292
X5.7581Y-2.4397
X5.7975Y-3.0794
X5.8073Y-2.5479
X6.1653Y-2.1087
X6.3093Y-2.5578
X6.329Y-2.7251
X6.3388Y-2.1542
X6.3585Y-2.6463
X6.3782Y-2.1837
X6.4471Y-2.0952
X6.5061Y-2.8235
X6.6243Y-2.4397
X6.6833Y-2.1542
X6.7719Y-2.6365
X6.7916Y-2.2133
X6.8211Y-2.7152
X6.8703Y-2.7152
X6.9195Y-2.7152
X7.6479Y-2.2822
T4
X4.4088Y-2.6621
X4.4088Y-2.7621
X4.4185Y-3.3322
X4.4185Y-3.4322
X4.4588Y-2.7121
X4.4685Y-3.3822
T5
X4.3603Y-2.9287
X4.3701Y-3.5987
X4.6103Y-2.7121
X4.6201Y-3.3822
X4.7442Y-2.7121
X4.754Y-3.3822
X4.7603Y-2.9287
X4.7701Y-3.5987
T6
X4.133Y-2.8598
X4.1428Y-3.5298
X4.233Y-2.8598
X4.2428Y-3.5298
X5.3152Y-2.105
X5.4152Y-2.105
X5.58Y-2.105
X5.68Y-2.105
T7
X4.045Y-2.5744
X4.0548Y-3.2444
X4.2418Y-2.4759
X4.2418Y-2.6728
X4.2516Y-3.146
X4.2516Y-3.3428
X4.4877Y-2.4858
X4.4975Y-3.1558
X4.5877Y-2.4858
X4.5975Y-3.1558
X4.6366Y-4.3519
X4.6366Y-4.5113
X4.6366Y-5.3834
X4.6366Y-5.5428
X5.0583Y-3.3156
X5.0583Y-3.483
X5.0583Y-3.6503
X5.1583Y-3.3156
X5.1583Y-3.483
X5.1583Y-3.6503
X6.9392Y-2.1148
X6.9687Y-2.3019
X7.0392Y-2.1148
X7.0687Y-2.3019
X7.1392Y-2.1148
X7.2392Y-2.1148
X7.2926Y-2.3019
X7.3392Y-2.1148
X7.3926Y-2.3019
X7.4392Y-2.1148
X7.7266Y-3.482
X7.7266Y-3.582
X7.7315Y-2.7507
X7.7315Y-2.8507
X7.7315Y-2.9507
X7.7315Y-3.0507
X7.7315Y-3.1507
X7.7315Y-3.2507
T8
X5.4735Y-3.5601
X5.4735Y-4.3475
X5.4735Y-5.1349
X5.4766Y-2.7727
X5.7235Y-3.4601
X5.7235Y-4.2475
X5.7235Y-5.0349
X5.7266Y-2.6727
X6.2609Y-3.5601
X6.2609Y-4.3475
X6.2609Y-5.1349
X6.264Y-2.7727
X6.5109Y-3.4601
X6.5109Y-4.2475
X6.5109Y-5.0349
X6.514Y-2.6727
X7.0483Y-3.5601
X7.0483Y-4.3475
X7.0483Y-5.1349
X7.0514Y-2.7727
X7.2983Y-3.4601
X7.2983Y-4.2475
X7.2983Y-5.0349
X7.3014Y-2.6727
T3
G00X5.0034Y-2.3058
M15
G01X4.9798Y-2.3058
M16
G05
G00X5.0034Y-2.646
M15
G01X4.9798Y-2.646
M16
G05
G00X5.1778Y-2.3058
M15
G01X5.1345Y-2.3058
M16
G05
G00X5.1778Y-2.646
M15
G01X5.1345Y-2.646
M16
G05
M30
