M48
; DRILL file {KiCad 8.0.3} date 2024-09-19T18:37:37+0300
; FORMAT={-:-/ absolute / metric / decimal}
; #@! TF.CreationDate,2024-09-19T18:37:37+03:00
; #@! TF.GenerationSoftware,Kicad,Pcbnew,8.0.3
; #@! TF.FileFunction,NonPlated,1,2,NPTH
FMAT,2
METRIC
; #@! TA.AperFunction,NonPlated,NPTH,ComponentDrill
T1C0.650
; #@! TA.AperFunction,NonPlated,NPTH,ComponentDrill
T2C1.700
; #@! TA.AperFunction,NonPlated,NPTH,ComponentDrill
T3C2.200
; #@! TA.AperFunction,NonPlated,NPTH,ComponentDrill
T4C3.200
; #@! TA.AperFunction,NonPlated,NPTH,ComponentDrill
T5C4.000
%
G90
G05
T1
X130.436Y-59.997
X130.436Y-65.777
T2
X137.756Y-92.967
X137.756Y-112.967
X137.756Y-132.967
X137.836Y-72.967
X147.916Y-92.967
X147.916Y-112.967
X147.916Y-132.967
X147.996Y-72.967
X157.756Y-92.967
X157.756Y-112.967
X157.756Y-132.967
X157.836Y-72.967
X167.916Y-92.967
X167.916Y-112.967
X167.916Y-132.967
X167.996Y-72.967
X177.756Y-92.967
X177.756Y-112.967
X177.756Y-132.967
X177.836Y-72.967
X187.916Y-92.967
X187.916Y-112.967
X187.916Y-132.967
X187.996Y-72.967
T3
X120.351Y-63.107
T4
X128.756Y-53.467
X128.756Y-147.467
X196.756Y-53.467
X196.756Y-147.467
T5
X142.836Y-92.967
X142.836Y-112.967
X142.836Y-132.967
X142.916Y-72.967
X162.836Y-92.967
X162.836Y-112.967
X162.836Y-132.967
X162.916Y-72.967
X182.836Y-92.967
X182.836Y-112.967
X182.836Y-132.967
X182.916Y-72.967
M30
