%TF.GenerationSoftware,KiCad,Pcbnew,8.0.3*%
%TF.CreationDate,2024-09-19T18:37:29+03:00*%
%TF.ProjectId,JLC8,4a4c4338-2e6b-4696-9361-645f70636258,rev?*%
%TF.SameCoordinates,Original*%
%TF.FileFunction,Profile,NP*%
%FSLAX46Y46*%
G04 Gerber Fmt 4.6, Leading zero omitted, Abs format (unit mm)*
G04 Created by KiCad (PCBNEW 8.0.3) date 2024-09-19 18:37:29*
%MOMM*%
%LPD*%
G01*
G04 APERTURE LIST*
%TA.AperFunction,Profile*%
%ADD10C,0.100000*%
%TD*%
G04 APERTURE END LIST*
D10*
X118950000Y-78350000D02*
X119526050Y-78357179D01*
X105825000Y-78350000D02*
X104776050Y-78357179D01*
X101527370Y-76338499D02*
X105825000Y-76350000D01*
X105825000Y-78350000D02*
X105825000Y-76350000D01*
X118950000Y-78350000D02*
X118950000Y-76350000D01*
X112300974Y-95616464D02*
G75*
G02*
X122731263Y-105434463I-1356724J-11890716D01*
G01*
X119526050Y-93357179D02*
X112300000Y-93350000D01*
X104776050Y-93357179D02*
X109650000Y-93375000D01*
X109650000Y-95600000D02*
X109650000Y-93375000D01*
X112300000Y-95625000D02*
X112300000Y-93350000D01*
X122741753Y-135796319D02*
G75*
G02*
X109412812Y-121824408I-11797503J2089139D01*
G01*
X112200000Y-121800001D02*
G75*
G02*
X122736528Y-131633536I-1255750J-11907179D01*
G01*
X124756050Y-53467179D02*
X124756050Y-54957179D01*
X122741753Y-109596320D02*
G75*
G02*
X112197113Y-119422545I-11797503J2089140D01*
G01*
X109400000Y-119374999D02*
X109412812Y-121824408D01*
X112197113Y-119422545D02*
X112200000Y-121800001D01*
X124756050Y-109582179D02*
X124756050Y-131632179D01*
X200756050Y-147467179D02*
G75*
G02*
X196756050Y-151467250I-4000050J-21D01*
G01*
X196756050Y-151467179D02*
X128756050Y-151467179D01*
X101527370Y-61338499D02*
X101527370Y-76338499D01*
X101776050Y-90357179D02*
X101776050Y-81357179D01*
X122526050Y-90357179D02*
G75*
G02*
X119526050Y-93357250I-3000050J-21D01*
G01*
X122281050Y-64132179D02*
X124756050Y-64132179D01*
X122741754Y-109596320D02*
X124756050Y-109582179D01*
X122277370Y-61338499D02*
X101527370Y-61338499D01*
X101776050Y-81357179D02*
G75*
G02*
X104776050Y-78357150I3000050J-21D01*
G01*
X124756050Y-73025000D02*
X122281050Y-73025000D01*
X122531050Y-85932179D02*
X122526050Y-90357179D01*
X124756050Y-84032179D02*
X122531050Y-84032179D01*
X104776050Y-93357179D02*
G75*
G02*
X101776121Y-90357179I50J2999979D01*
G01*
X200756050Y-53467179D02*
X200756050Y-147467179D01*
X122744249Y-105432179D02*
X124756050Y-105432179D01*
X196756050Y-49467179D02*
G75*
G02*
X200756021Y-53467179I-50J-4000021D01*
G01*
X124756050Y-85932179D02*
X124756050Y-105432179D01*
X124756050Y-54957179D02*
X124756050Y-64132179D01*
X122281050Y-73025000D02*
X122277370Y-76338499D01*
X128756050Y-49467179D02*
X196756050Y-49467179D01*
X124756050Y-85932179D02*
X122531050Y-85932179D01*
X124756050Y-53467179D02*
G75*
G02*
X128756050Y-49467150I4000050J-21D01*
G01*
X119526050Y-78357179D02*
G75*
G02*
X122526021Y-81357179I-50J-3000021D01*
G01*
X122744249Y-131632178D02*
X124756050Y-131632179D01*
X124756050Y-73025000D02*
X124756050Y-84032179D01*
X128756050Y-151467179D02*
G75*
G02*
X124756121Y-147467179I50J3999979D01*
G01*
X122741754Y-135796319D02*
X124756050Y-135782179D01*
X122277370Y-61338499D02*
X122281050Y-64132179D01*
X124756050Y-135782179D02*
X124756050Y-147467179D01*
X122531050Y-84032179D02*
X122526050Y-81357179D01*
X109547004Y-119402713D02*
G75*
G02*
X109650000Y-95600001I1397246J11895533D01*
G01*
X118950000Y-76350000D02*
X122277370Y-76338499D01*
M02*
