%TF.GenerationSoftware,KiCad,Pcbnew,8.0.3*%
%TF.CreationDate,2024-09-19T18:37:29+03:00*%
%TF.ProjectId,JLC8,4a4c4338-2e6b-4696-9361-645f70636258,rev?*%
%TF.SameCoordinates,Original*%
%TF.FileFunction,Soldermask,Bot*%
%TF.FilePolarity,Negative*%
%FSLAX46Y46*%
G04 Gerber Fmt 4.6, Leading zero omitted, Abs format (unit mm)*
G04 Created by KiCad (PCBNEW 8.0.3) date 2024-09-19 18:37:29*
%MOMM*%
%LPD*%
G01*
G04 APERTURE LIST*
G04 Aperture macros list*
%AMRoundRect*
0 Rectangle with rounded corners*
0 $1 Rounding radius*
0 $2 $3 $4 $5 $6 $7 $8 $9 X,Y pos of 4 corners*
0 Add a 4 corners polygon primitive as box body*
4,1,4,$2,$3,$4,$5,$6,$7,$8,$9,$2,$3,0*
0 Add four circle primitives for the rounded corners*
1,1,$1+$1,$2,$3*
1,1,$1+$1,$4,$5*
1,1,$1+$1,$6,$7*
1,1,$1+$1,$8,$9*
0 Add four rect primitives between the rounded corners*
20,1,$1+$1,$2,$3,$4,$5,0*
20,1,$1+$1,$4,$5,$6,$7,0*
20,1,$1+$1,$6,$7,$8,$9,0*
20,1,$1+$1,$8,$9,$2,$3,0*%
G04 Aperture macros list end*
%ADD10C,3.200000*%
%ADD11C,1.700000*%
%ADD12C,4.000000*%
%ADD13C,2.200000*%
%ADD14R,1.800000X1.100000*%
%ADD15RoundRect,0.275000X-0.625000X0.275000X-0.625000X-0.275000X0.625000X-0.275000X0.625000X0.275000X0*%
%ADD16R,1.700000X1.700000*%
%ADD17O,1.700000X1.700000*%
%ADD18C,1.600000*%
%ADD19R,1.800000X1.800000*%
%ADD20C,1.800000*%
%ADD21O,1.600000X1.600000*%
%ADD22C,0.650000*%
%ADD23O,2.100000X1.000000*%
%ADD24O,1.600000X1.000000*%
%ADD25R,1.560000X1.560000*%
%ADD26C,1.560000*%
G04 APERTURE END LIST*
D10*
%TO.C,REF\u002A\u002A*%
X128756050Y-53467179D03*
%TD*%
D11*
%TO.C,SW4*%
X137756050Y-92967179D03*
D12*
X142836050Y-92967179D03*
D11*
X147916050Y-92967179D03*
D13*
X145376050Y-87887179D03*
X139026050Y-90427179D03*
%TD*%
D14*
%TO.C,Q7*%
X111831050Y-84637179D03*
D15*
X113901050Y-85907179D03*
X111831050Y-87177179D03*
%TD*%
D16*
%TO.C,J3*%
X196381050Y-69867179D03*
D17*
X196381050Y-72407179D03*
X196381050Y-74947179D03*
X196381050Y-77487179D03*
X196381050Y-80027179D03*
X196381050Y-82567179D03*
%TD*%
D18*
%TO.C,R3*%
X117102370Y-68888499D03*
X120502370Y-68888499D03*
%TD*%
%TO.C,R3*%
X117351050Y-85907179D03*
X120751050Y-85907179D03*
%TD*%
D16*
%TO.C,REF\u002A\u002A*%
X128481050Y-92717179D03*
D17*
X131021050Y-92717179D03*
%TD*%
D11*
%TO.C,SW10*%
X177756050Y-112967179D03*
D12*
X182836050Y-112967179D03*
D11*
X187916050Y-112967179D03*
D13*
X185376050Y-107887179D03*
X179026050Y-110427179D03*
%TD*%
D10*
%TO.C,REF\u002A\u002A*%
X196756050Y-147467179D03*
%TD*%
D13*
%TO.C,REF\u002A\u002A*%
X120351050Y-63107179D03*
%TD*%
D11*
%TO.C,SW2*%
X157836050Y-72967179D03*
D12*
X162916050Y-72967179D03*
D11*
X167996050Y-72967179D03*
D13*
X165456050Y-67887179D03*
X159106050Y-70427179D03*
%TD*%
D19*
%TO.C,D2*%
X141731050Y-53467179D03*
D20*
X144271050Y-53467179D03*
%TD*%
D16*
%TO.C,J3*%
X117769250Y-114587179D03*
%TD*%
D18*
%TO.C,R14*%
X120912370Y-74388499D03*
D21*
X110752370Y-74388499D03*
%TD*%
D22*
%TO.C,J1*%
X130436050Y-59997179D03*
X130436050Y-65777179D03*
D23*
X130966050Y-58567179D03*
D24*
X126786050Y-58567179D03*
D23*
X130966050Y-67207179D03*
D24*
X126786050Y-67207179D03*
%TD*%
D11*
%TO.C,SW13*%
X177756050Y-132967179D03*
D12*
X182836050Y-132967179D03*
D11*
X187916050Y-132967179D03*
D13*
X185376050Y-127887179D03*
X179026050Y-130427179D03*
%TD*%
D16*
%TO.C,J2*%
X117769250Y-110537179D03*
%TD*%
%TO.C,J3*%
X117769250Y-140787179D03*
%TD*%
D11*
%TO.C,SW9*%
X157756050Y-112967179D03*
D12*
X162836050Y-112967179D03*
D11*
X167916050Y-112967179D03*
D13*
X165376050Y-107887179D03*
X159026050Y-110427179D03*
%TD*%
D14*
%TO.C,Q7*%
X111582370Y-67618499D03*
D15*
X113652370Y-68888499D03*
X111582370Y-70158499D03*
%TD*%
D16*
%TO.C,J2*%
X176256050Y-53717179D03*
D17*
X178796050Y-53717179D03*
X181336050Y-53717179D03*
X183876050Y-53717179D03*
X186416050Y-53717179D03*
X188956050Y-53717179D03*
%TD*%
D10*
%TO.C,REF\u002A\u002A*%
X128756050Y-147467179D03*
%TD*%
D16*
%TO.C,BT1*%
X116776050Y-80157179D03*
D17*
X114236050Y-80157179D03*
%TD*%
D11*
%TO.C,SW7*%
X177756050Y-92967179D03*
D12*
X182836050Y-92967179D03*
D11*
X187916050Y-92967179D03*
D13*
X185376050Y-87887179D03*
X179026050Y-90427179D03*
%TD*%
D19*
%TO.C,D8*%
X105226050Y-89657179D03*
D20*
X107766050Y-89657179D03*
%TD*%
D11*
%TO.C,SW6*%
X157756050Y-92967179D03*
D12*
X162836050Y-92967179D03*
D11*
X167916050Y-92967179D03*
D13*
X165376050Y-87887179D03*
X159026050Y-90427179D03*
%TD*%
D19*
%TO.C,D1*%
X135006050Y-53467179D03*
D20*
X137546050Y-53467179D03*
%TD*%
D11*
%TO.C,SW1*%
X137836050Y-72967179D03*
D12*
X142916050Y-72967179D03*
D11*
X147996050Y-72967179D03*
D13*
X145456050Y-67887179D03*
X139106050Y-70427179D03*
%TD*%
D18*
%TO.C,R14*%
X121161050Y-91407179D03*
D21*
X111001050Y-91407179D03*
%TD*%
D16*
%TO.C,REF\u002A\u002A*%
X196256050Y-88442179D03*
D17*
X196256050Y-90982179D03*
%TD*%
D16*
%TO.C,J2*%
X117769250Y-136737179D03*
%TD*%
%TO.C,REF\u002A\u002A*%
X185231050Y-58467179D03*
D17*
X187771050Y-58467179D03*
%TD*%
D16*
%TO.C,BT1*%
X116527370Y-63138499D03*
D17*
X113987370Y-63138499D03*
%TD*%
D11*
%TO.C,SW8*%
X137756050Y-112967179D03*
D12*
X142836050Y-112967179D03*
D11*
X147916050Y-112967179D03*
D13*
X145376050Y-107887179D03*
X139026050Y-110427179D03*
%TD*%
D25*
%TO.C,RV3*%
X107742370Y-62888499D03*
D26*
X102742370Y-65388499D03*
X107742370Y-67888499D03*
%TD*%
D11*
%TO.C,SW11*%
X137756050Y-132967179D03*
D12*
X142836050Y-132967179D03*
D11*
X147916050Y-132967179D03*
D13*
X145376050Y-127887179D03*
X139026050Y-130427179D03*
%TD*%
D10*
%TO.C,REF\u002A\u002A*%
X196756050Y-53467179D03*
%TD*%
D19*
%TO.C,D8*%
X104977370Y-72638499D03*
D20*
X107517370Y-72638499D03*
%TD*%
D11*
%TO.C,SW12*%
X157756050Y-132967179D03*
D12*
X162836050Y-132967179D03*
D11*
X167916050Y-132967179D03*
D13*
X165376050Y-127887179D03*
X159026050Y-130427179D03*
%TD*%
D16*
%TO.C,REF\u002A\u002A*%
X128481050Y-84217179D03*
D17*
X131021050Y-84217179D03*
%TD*%
D25*
%TO.C,RV3*%
X107991050Y-79907179D03*
D26*
X102991050Y-82407179D03*
X107991050Y-84907179D03*
%TD*%
D11*
%TO.C,SW3*%
X177836050Y-72967179D03*
D12*
X182916050Y-72967179D03*
D11*
X187996050Y-72967179D03*
D13*
X185456050Y-67887179D03*
X179106050Y-70427179D03*
%TD*%
D16*
%TO.C,REF\u002A\u002A*%
X177006050Y-58467179D03*
D17*
X179546050Y-58467179D03*
%TD*%
D16*
%TO.C,REF\u002A\u002A*%
X128481050Y-88467179D03*
D17*
X131021050Y-88467179D03*
%TD*%
M02*
