%TF.GenerationSoftware,KiCad,Pcbnew,8.0.3*%
%TF.CreationDate,2024-09-19T18:37:29+03:00*%
%TF.ProjectId,JLC8,4a4c4338-2e6b-4696-9361-645f70636258,rev?*%
%TF.SameCoordinates,Original*%
%TF.FileFunction,Soldermask,Top*%
%TF.FilePolarity,Negative*%
%FSLAX46Y46*%
G04 Gerber Fmt 4.6, Leading zero omitted, Abs format (unit mm)*
G04 Created by KiCad (PCBNEW 8.0.3) date 2024-09-19 18:37:29*
%MOMM*%
%LPD*%
G01*
G04 APERTURE LIST*
G04 Aperture macros list*
%AMRoundRect*
0 Rectangle with rounded corners*
0 $1 Rounding radius*
0 $2 $3 $4 $5 $6 $7 $8 $9 X,Y pos of 4 corners*
0 Add a 4 corners polygon primitive as box body*
4,1,4,$2,$3,$4,$5,$6,$7,$8,$9,$2,$3,0*
0 Add four circle primitives for the rounded corners*
1,1,$1+$1,$2,$3*
1,1,$1+$1,$4,$5*
1,1,$1+$1,$6,$7*
1,1,$1+$1,$8,$9*
0 Add four rect primitives between the rounded corners*
20,1,$1+$1,$2,$3,$4,$5,0*
20,1,$1+$1,$4,$5,$6,$7,0*
20,1,$1+$1,$6,$7,$8,$9,0*
20,1,$1+$1,$8,$9,$2,$3,0*%
%AMRotRect*
0 Rectangle, with rotation*
0 The origin of the aperture is its center*
0 $1 length*
0 $2 width*
0 $3 Rotation angle, in degrees counterclockwise*
0 Add horizontal line*
21,1,$1,$2,0,0,$3*%
G04 Aperture macros list end*
%ADD10RoundRect,0.250000X-0.337500X-0.475000X0.337500X-0.475000X0.337500X0.475000X-0.337500X0.475000X0*%
%ADD11RoundRect,0.237500X0.237500X-0.287500X0.237500X0.287500X-0.237500X0.287500X-0.237500X-0.287500X0*%
%ADD12R,1.200000X0.650000*%
%ADD13R,0.700000X1.525000*%
%ADD14R,3.402000X2.513000*%
%ADD15C,3.200000*%
%ADD16RoundRect,0.237500X-0.380070X0.044194X0.044194X-0.380070X0.380070X-0.044194X-0.044194X0.380070X0*%
%ADD17C,1.700000*%
%ADD18C,4.000000*%
%ADD19C,2.200000*%
%ADD20RotRect,1.000000X1.000000X45.000000*%
%ADD21RoundRect,0.237500X0.237500X-0.250000X0.237500X0.250000X-0.237500X0.250000X-0.237500X-0.250000X0*%
%ADD22RoundRect,0.237500X-0.237500X0.250000X-0.237500X-0.250000X0.237500X-0.250000X0.237500X0.250000X0*%
%ADD23RoundRect,0.250000X0.412500X1.100000X-0.412500X1.100000X-0.412500X-1.100000X0.412500X-1.100000X0*%
%ADD24R,1.800000X1.100000*%
%ADD25RoundRect,0.275000X-0.625000X0.275000X-0.625000X-0.275000X0.625000X-0.275000X0.625000X0.275000X0*%
%ADD26R,1.700000X1.700000*%
%ADD27O,1.700000X1.700000*%
%ADD28RoundRect,0.237500X-0.008839X-0.344715X0.344715X0.008839X0.008839X0.344715X-0.344715X-0.008839X0*%
%ADD29C,1.600000*%
%ADD30RoundRect,0.250000X0.325000X0.450000X-0.325000X0.450000X-0.325000X-0.450000X0.325000X-0.450000X0*%
%ADD31RoundRect,0.237500X0.237500X-0.300000X0.237500X0.300000X-0.237500X0.300000X-0.237500X-0.300000X0*%
%ADD32RoundRect,0.237500X0.008839X0.344715X-0.344715X-0.008839X-0.008839X-0.344715X0.344715X0.008839X0*%
%ADD33RoundRect,0.237500X-0.044194X-0.380070X0.380070X0.044194X0.044194X0.380070X-0.380070X-0.044194X0*%
%ADD34R,1.800000X1.800000*%
%ADD35C,1.800000*%
%ADD36O,1.600000X1.600000*%
%ADD37C,0.650000*%
%ADD38R,1.450000X0.600000*%
%ADD39R,1.450000X0.300000*%
%ADD40O,2.100000X1.000000*%
%ADD41O,1.600000X1.000000*%
%ADD42RoundRect,0.250000X-0.475000X0.337500X-0.475000X-0.337500X0.475000X-0.337500X0.475000X0.337500X0*%
%ADD43R,1.500000X1.000000*%
%ADD44R,3.700000X2.200000*%
%ADD45R,1.800000X1.000000*%
%ADD46RotRect,0.400000X1.900000X225.000000*%
%ADD47RoundRect,0.237500X-0.237500X0.300000X-0.237500X-0.300000X0.237500X-0.300000X0.237500X0.300000X0*%
%ADD48RoundRect,0.200000X-0.200000X0.550000X-0.200000X-0.550000X0.200000X-0.550000X0.200000X0.550000X0*%
%ADD49RotRect,0.508000X1.473200X315.000000*%
%ADD50RotRect,0.508000X1.473200X225.000000*%
%ADD51RoundRect,0.237500X0.380070X-0.044194X-0.044194X0.380070X-0.380070X0.044194X0.044194X-0.380070X0*%
%ADD52RoundRect,0.237500X0.044194X0.380070X-0.380070X-0.044194X-0.044194X-0.380070X0.380070X0.044194X0*%
%ADD53R,1.560000X1.560000*%
%ADD54C,1.560000*%
%ADD55RoundRect,0.175000X-0.425000X0.175000X-0.425000X-0.175000X0.425000X-0.175000X0.425000X0.175000X0*%
%ADD56RoundRect,0.190000X0.410000X-0.190000X0.410000X0.190000X-0.410000X0.190000X-0.410000X-0.190000X0*%
%ADD57RoundRect,0.200000X0.400000X-0.200000X0.400000X0.200000X-0.400000X0.200000X-0.400000X-0.200000X0*%
%ADD58RoundRect,0.175000X0.425000X-0.175000X0.425000X0.175000X-0.425000X0.175000X-0.425000X-0.175000X0*%
%ADD59RoundRect,0.190000X-0.410000X0.190000X-0.410000X-0.190000X0.410000X-0.190000X0.410000X0.190000X0*%
%ADD60RoundRect,0.200000X-0.400000X0.200000X-0.400000X-0.200000X0.400000X-0.200000X0.400000X0.200000X0*%
%ADD61RoundRect,0.250000X-0.425000X0.650000X-0.425000X-0.650000X0.425000X-0.650000X0.425000X0.650000X0*%
%ADD62RoundRect,0.250000X-0.500000X0.650000X-0.500000X-0.650000X0.500000X-0.650000X0.500000X0.650000X0*%
%ADD63R,1.475000X0.450000*%
%ADD64RoundRect,0.237500X-0.250000X-0.237500X0.250000X-0.237500X0.250000X0.237500X-0.250000X0.237500X0*%
%ADD65RoundRect,0.237500X-0.344715X0.008839X0.008839X-0.344715X0.344715X-0.008839X-0.008839X0.344715X0*%
G04 APERTURE END LIST*
D10*
%TO.C,C2*%
X111844250Y-141662179D03*
X113919250Y-141662179D03*
%TD*%
D11*
%TO.C,D3*%
X142756050Y-61092179D03*
X142756050Y-59342179D03*
%TD*%
D12*
%TO.C,U3*%
X119332500Y-105769679D03*
X119332500Y-104819679D03*
X119332500Y-103869679D03*
X116832500Y-103869679D03*
X116832500Y-104819679D03*
X116832500Y-105769679D03*
%TD*%
D13*
%TO.C,U1*%
X109344250Y-113244179D03*
X110614250Y-113244179D03*
X111884250Y-113244179D03*
X113154250Y-113244179D03*
X113154250Y-107820179D03*
X111884250Y-107820179D03*
X110614250Y-107820179D03*
X109344250Y-107820179D03*
D14*
X111249250Y-110532179D03*
%TD*%
D15*
%TO.C,REF\u002A\u002A*%
X128756050Y-53467179D03*
%TD*%
D16*
%TO.C,C10*%
X146956170Y-54067299D03*
X148175930Y-55287059D03*
%TD*%
D17*
%TO.C,SW4*%
X137756050Y-92967179D03*
D18*
X142836050Y-92967179D03*
D17*
X147916050Y-92967179D03*
D19*
X145376050Y-87887179D03*
X139026050Y-90427179D03*
%TD*%
D20*
%TO.C,REF\u002A\u002A*%
X168756050Y-55467179D03*
%TD*%
D21*
%TO.C,R3*%
X121069250Y-131974679D03*
X121069250Y-130149679D03*
%TD*%
D22*
%TO.C,R6*%
X107506750Y-111584679D03*
X107506750Y-113409679D03*
%TD*%
D23*
%TO.C,C2*%
X131008550Y-79327179D03*
X127883550Y-79327179D03*
%TD*%
D24*
%TO.C,Q7*%
X111831050Y-84637179D03*
D25*
X113901050Y-85907179D03*
X111831050Y-87177179D03*
%TD*%
D26*
%TO.C,J3*%
X196381050Y-69867179D03*
D27*
X196381050Y-72407179D03*
X196381050Y-74947179D03*
X196381050Y-77487179D03*
X196381050Y-80027179D03*
X196381050Y-82567179D03*
%TD*%
D28*
%TO.C,R8*%
X152274998Y-67437256D03*
X153565468Y-66146786D03*
%TD*%
D29*
%TO.C,R3*%
X117102370Y-68888499D03*
X120502370Y-68888499D03*
%TD*%
D30*
%TO.C,D2*%
X109794250Y-123687179D03*
X107744250Y-123687179D03*
%TD*%
D21*
%TO.C,R4*%
X113282500Y-105832179D03*
X113282500Y-104007179D03*
%TD*%
D30*
%TO.C,D2*%
X109794250Y-97487179D03*
X107744250Y-97487179D03*
%TD*%
D29*
%TO.C,R3*%
X117351050Y-85907179D03*
X120751050Y-85907179D03*
%TD*%
D30*
%TO.C,D1*%
X109794250Y-99667179D03*
X107744250Y-99667179D03*
%TD*%
D22*
%TO.C,R2*%
X111594250Y-130194679D03*
X111594250Y-132019679D03*
%TD*%
D26*
%TO.C,REF\u002A\u002A*%
X128481050Y-92717179D03*
D27*
X131021050Y-92717179D03*
%TD*%
D17*
%TO.C,SW10*%
X177756050Y-112967179D03*
D18*
X182836050Y-112967179D03*
D17*
X187916050Y-112967179D03*
D19*
X185376050Y-107887179D03*
X179026050Y-110427179D03*
%TD*%
D15*
%TO.C,REF\u002A\u002A*%
X196756050Y-147467179D03*
%TD*%
D19*
%TO.C,REF\u002A\u002A*%
X120351050Y-63107179D03*
%TD*%
D31*
%TO.C,C1*%
X115007500Y-131957179D03*
X115007500Y-130232179D03*
%TD*%
D32*
%TO.C,R6*%
X148822060Y-61424538D03*
X147531590Y-62715008D03*
%TD*%
D33*
%TO.C,C8*%
X150043586Y-65138617D03*
X151263346Y-63918857D03*
%TD*%
D17*
%TO.C,SW2*%
X157836050Y-72967179D03*
D18*
X162916050Y-72967179D03*
D17*
X167996050Y-72967179D03*
D19*
X165456050Y-67887179D03*
X159106050Y-70427179D03*
%TD*%
D34*
%TO.C,D2*%
X141731050Y-53467179D03*
D35*
X144271050Y-53467179D03*
%TD*%
D26*
%TO.C,J3*%
X117769250Y-114587179D03*
%TD*%
D29*
%TO.C,R14*%
X120912370Y-74388499D03*
D36*
X110752370Y-74388499D03*
%TD*%
D37*
%TO.C,J1*%
X130436050Y-59997179D03*
X130436050Y-65777179D03*
D38*
X131881050Y-59637179D03*
X131881050Y-60437179D03*
D39*
X131881050Y-61637179D03*
X131881050Y-62637179D03*
X131881050Y-63137179D03*
X131881050Y-64137179D03*
D38*
X131881050Y-66137179D03*
X131881050Y-65337179D03*
D39*
X131881050Y-64637179D03*
X131881050Y-63637179D03*
X131881050Y-62137179D03*
X131881050Y-61137179D03*
D40*
X130966050Y-58567179D03*
D41*
X126786050Y-58567179D03*
D40*
X130966050Y-67207179D03*
D41*
X126786050Y-67207179D03*
%TD*%
D22*
%TO.C,R6*%
X107506750Y-137784679D03*
X107506750Y-139609679D03*
%TD*%
D32*
%TO.C,R5*%
X149953431Y-62555909D03*
X148662961Y-63846379D03*
%TD*%
D21*
%TO.C,R4*%
X113282500Y-132032179D03*
X113282500Y-130207179D03*
%TD*%
D42*
%TO.C,C3*%
X115144250Y-133862179D03*
X115144250Y-135937179D03*
%TD*%
D11*
%TO.C,D4*%
X144506050Y-61092179D03*
X144506050Y-59342179D03*
%TD*%
D43*
%TO.C,U2*%
X131006050Y-76717179D03*
D44*
X128106050Y-75217179D03*
D45*
X130856050Y-75217179D03*
D43*
X131006050Y-73717179D03*
%TD*%
D22*
%TO.C,R2*%
X111594250Y-103994679D03*
X111594250Y-105819679D03*
%TD*%
D17*
%TO.C,SW13*%
X177756050Y-132967179D03*
D18*
X182836050Y-132967179D03*
D17*
X187916050Y-132967179D03*
D19*
X185376050Y-127887179D03*
X179026050Y-130427179D03*
%TD*%
D26*
%TO.C,J2*%
X117769250Y-110537179D03*
%TD*%
D13*
%TO.C,U1*%
X109344250Y-139444179D03*
X110614250Y-139444179D03*
X111884250Y-139444179D03*
X113154250Y-139444179D03*
X113154250Y-134020179D03*
X111884250Y-134020179D03*
X110614250Y-134020179D03*
X109344250Y-134020179D03*
D14*
X111249250Y-136732179D03*
%TD*%
D46*
%TO.C,Y1*%
X164124578Y-62688651D03*
X163276050Y-63537179D03*
X162427522Y-64385707D03*
%TD*%
D31*
%TO.C,C3*%
X135666050Y-60979679D03*
X135666050Y-59254679D03*
%TD*%
D47*
%TO.C,C9*%
X146256050Y-59354678D03*
X146256050Y-61079680D03*
%TD*%
D26*
%TO.C,J3*%
X117769250Y-140787179D03*
%TD*%
D17*
%TO.C,SW9*%
X157756050Y-112967179D03*
D18*
X162836050Y-112967179D03*
D17*
X167916050Y-112967179D03*
D19*
X165376050Y-107887179D03*
X159026050Y-110427179D03*
%TD*%
D24*
%TO.C,Q7*%
X111582370Y-67618499D03*
D25*
X113652370Y-68888499D03*
X111582370Y-70158499D03*
%TD*%
D12*
%TO.C,U3*%
X119332500Y-131969679D03*
X119332500Y-131019679D03*
X119332500Y-130069679D03*
X116832500Y-130069679D03*
X116832500Y-131019679D03*
X116832500Y-131969679D03*
%TD*%
D21*
%TO.C,R3*%
X121069250Y-105774679D03*
X121069250Y-103949679D03*
%TD*%
D26*
%TO.C,J2*%
X176256050Y-53717179D03*
D27*
X178796050Y-53717179D03*
X181336050Y-53717179D03*
X183876050Y-53717179D03*
X186416050Y-53717179D03*
X188956050Y-53717179D03*
%TD*%
D15*
%TO.C,REF\u002A\u002A*%
X128756050Y-147467179D03*
%TD*%
D26*
%TO.C,BT1*%
X116776050Y-80157179D03*
D27*
X114236050Y-80157179D03*
%TD*%
D20*
%TO.C,REF\u002A\u002A*%
X167506050Y-56717179D03*
%TD*%
D48*
%TO.C,BZ1*%
X194506050Y-62967179D03*
X194506050Y-59467179D03*
X198006050Y-62967179D03*
%TD*%
D17*
%TO.C,SW7*%
X177756050Y-92967179D03*
D18*
X182836050Y-92967179D03*
D17*
X187916050Y-92967179D03*
D19*
X185376050Y-87887179D03*
X179026050Y-90427179D03*
%TD*%
D34*
%TO.C,D8*%
X105226050Y-89657179D03*
D35*
X107766050Y-89657179D03*
%TD*%
D49*
%TO.C,U1*%
X150377174Y-58206454D03*
X150933950Y-58763230D03*
X151508686Y-59337967D03*
X152065462Y-59894742D03*
X152640198Y-60469479D03*
X153196974Y-61026255D03*
X153753750Y-61583031D03*
X154328487Y-62157767D03*
X154885262Y-62714543D03*
X155459999Y-63289279D03*
X156016775Y-63846055D03*
D50*
X158495325Y-63846055D03*
X159052101Y-63289279D03*
X159626838Y-62714543D03*
X160183613Y-62157767D03*
X160758350Y-61583031D03*
X161315126Y-61026255D03*
X161871902Y-60469479D03*
X162446638Y-59894742D03*
X163003414Y-59337967D03*
X163578150Y-58763230D03*
X164134926Y-58206454D03*
D49*
X164134926Y-55727904D03*
X163578150Y-55171128D03*
X163003414Y-54596391D03*
X162446638Y-54039616D03*
X161871902Y-53464879D03*
X161315126Y-52908103D03*
X160758350Y-52351327D03*
X160183613Y-51776591D03*
X159626838Y-51219815D03*
X159052101Y-50645079D03*
X158495325Y-50088303D03*
D50*
X156016775Y-50088303D03*
X155459999Y-50645079D03*
X154885262Y-51219815D03*
X154328487Y-51776591D03*
X153753750Y-52351327D03*
X153196974Y-52908103D03*
X152640198Y-53464879D03*
X152065462Y-54039616D03*
X151508686Y-54596391D03*
X150933950Y-55171128D03*
X150377174Y-55727904D03*
%TD*%
D17*
%TO.C,SW6*%
X157756050Y-92967179D03*
D18*
X162836050Y-92967179D03*
D17*
X167916050Y-92967179D03*
D19*
X165376050Y-87887179D03*
X159026050Y-90427179D03*
%TD*%
D21*
%TO.C,R2*%
X134036050Y-61029679D03*
X134036050Y-59204679D03*
%TD*%
D34*
%TO.C,D1*%
X135006050Y-53467179D03*
D35*
X137546050Y-53467179D03*
%TD*%
D21*
%TO.C,R1*%
X139256050Y-61129679D03*
X139256050Y-59304679D03*
%TD*%
%TO.C,R7*%
X107556750Y-103649679D03*
X107556750Y-101824679D03*
%TD*%
D22*
%TO.C,R3*%
X134036050Y-65247179D03*
X134036050Y-67072179D03*
%TD*%
D10*
%TO.C,C2*%
X111844250Y-115462179D03*
X113919250Y-115462179D03*
%TD*%
D17*
%TO.C,SW1*%
X137836050Y-72967179D03*
D18*
X142916050Y-72967179D03*
D17*
X147996050Y-72967179D03*
D19*
X145456050Y-67887179D03*
X139106050Y-70427179D03*
%TD*%
D29*
%TO.C,R14*%
X121161050Y-91407179D03*
D36*
X111001050Y-91407179D03*
%TD*%
D26*
%TO.C,REF\u002A\u002A*%
X196256050Y-88442179D03*
D27*
X196256050Y-90982179D03*
%TD*%
D26*
%TO.C,J2*%
X117769250Y-136737179D03*
%TD*%
D51*
%TO.C,C6*%
X149309939Y-54112235D03*
X148090179Y-52892475D03*
%TD*%
D26*
%TO.C,REF\u002A\u002A*%
X185231050Y-58467179D03*
D27*
X187771050Y-58467179D03*
%TD*%
D30*
%TO.C,D1*%
X109794250Y-125867179D03*
X107744250Y-125867179D03*
%TD*%
D26*
%TO.C,BT1*%
X116527370Y-63138499D03*
D27*
X113987370Y-63138499D03*
%TD*%
D17*
%TO.C,SW8*%
X137756050Y-112967179D03*
D18*
X142836050Y-112967179D03*
D17*
X147916050Y-112967179D03*
D19*
X145376050Y-107887179D03*
X139026050Y-110427179D03*
%TD*%
D52*
%TO.C,C7*%
X152415930Y-65057299D03*
X151196170Y-66277059D03*
%TD*%
D31*
%TO.C,C1*%
X115007500Y-105757179D03*
X115007500Y-104032179D03*
%TD*%
D22*
%TO.C,R1*%
X109974250Y-130194679D03*
X109974250Y-132019679D03*
%TD*%
D53*
%TO.C,RV3*%
X107742370Y-62888499D03*
D54*
X102742370Y-65388499D03*
X107742370Y-67888499D03*
%TD*%
D17*
%TO.C,SW11*%
X137756050Y-132967179D03*
D18*
X142836050Y-132967179D03*
D17*
X147916050Y-132967179D03*
D19*
X145376050Y-127887179D03*
X139026050Y-130427179D03*
%TD*%
D55*
%TO.C,J1*%
X105486750Y-107107179D03*
D56*
X105486750Y-109127179D03*
D57*
X105486750Y-110357179D03*
D58*
X105486750Y-108107179D03*
D59*
X105486750Y-106087179D03*
D60*
X105486750Y-104857179D03*
D61*
X105431750Y-102482179D03*
D62*
X101851750Y-102482179D03*
D61*
X105431750Y-112732179D03*
D62*
X101851750Y-112732179D03*
%TD*%
D15*
%TO.C,REF\u002A\u002A*%
X196756050Y-53467179D03*
%TD*%
D63*
%TO.C,U2*%
X113469250Y-126387179D03*
X113469250Y-127037179D03*
X113469250Y-127687179D03*
X113469250Y-128337179D03*
X119345250Y-128337179D03*
X119345250Y-127687179D03*
X119345250Y-127037179D03*
X119345250Y-126387179D03*
%TD*%
%TO.C,U2*%
X113469250Y-100187179D03*
X113469250Y-100837179D03*
X113469250Y-101487179D03*
X113469250Y-102137179D03*
X119345250Y-102137179D03*
X119345250Y-101487179D03*
X119345250Y-100837179D03*
X119345250Y-100187179D03*
%TD*%
D34*
%TO.C,D8*%
X104977370Y-72638499D03*
D35*
X107517370Y-72638499D03*
%TD*%
D17*
%TO.C,SW12*%
X157756050Y-132967179D03*
D18*
X162836050Y-132967179D03*
D17*
X167916050Y-132967179D03*
D19*
X165376050Y-127887179D03*
X159026050Y-130427179D03*
%TD*%
D64*
%TO.C,R5*%
X108256750Y-115145179D03*
X110081750Y-115145179D03*
%TD*%
D26*
%TO.C,REF\u002A\u002A*%
X128481050Y-84217179D03*
D27*
X131021050Y-84217179D03*
%TD*%
D31*
%TO.C,C5*%
X137378550Y-61004679D03*
X137378550Y-59279679D03*
%TD*%
D21*
%TO.C,R7*%
X107556750Y-129849679D03*
X107556750Y-128024679D03*
%TD*%
D55*
%TO.C,J1*%
X105486750Y-133307179D03*
D56*
X105486750Y-135327179D03*
D57*
X105486750Y-136557179D03*
D58*
X105486750Y-134307179D03*
D59*
X105486750Y-132287179D03*
D60*
X105486750Y-131057179D03*
D61*
X105431750Y-128682179D03*
D62*
X101851750Y-128682179D03*
D61*
X105431750Y-138932179D03*
D62*
X101851750Y-138932179D03*
%TD*%
D28*
%TO.C,R7*%
X153420815Y-68585638D03*
X154711285Y-67295168D03*
%TD*%
D53*
%TO.C,RV3*%
X107991050Y-79907179D03*
D54*
X102991050Y-82407179D03*
X107991050Y-84907179D03*
%TD*%
D64*
%TO.C,R5*%
X108256750Y-141345179D03*
X110081750Y-141345179D03*
%TD*%
D17*
%TO.C,SW3*%
X177836050Y-72967179D03*
D18*
X182916050Y-72967179D03*
D17*
X187996050Y-72967179D03*
D19*
X185456050Y-67887179D03*
X179106050Y-70427179D03*
%TD*%
D42*
%TO.C,C3*%
X115144250Y-107662179D03*
X115144250Y-109737179D03*
%TD*%
D22*
%TO.C,R1*%
X109974250Y-103994679D03*
X109974250Y-105819679D03*
%TD*%
D23*
%TO.C,C1*%
X131068550Y-70967179D03*
X127943550Y-70967179D03*
%TD*%
D22*
%TO.C,R9*%
X141006050Y-59304679D03*
X141006050Y-61129679D03*
%TD*%
D65*
%TO.C,R4*%
X164860815Y-54071944D03*
X166151285Y-55362414D03*
%TD*%
D26*
%TO.C,REF\u002A\u002A*%
X177006050Y-58467179D03*
D27*
X179546050Y-58467179D03*
%TD*%
D26*
%TO.C,REF\u002A\u002A*%
X128481050Y-88467179D03*
D27*
X131021050Y-88467179D03*
%TD*%
M02*
