M48
; DRILL file {KiCad 8.0.3} date 2024-09-19T18:37:37+0300
; FORMAT={-:-/ absolute / metric / decimal}
; #@! TF.CreationDate,2024-09-19T18:37:37+03:00
; #@! TF.GenerationSoftware,Kicad,Pcbnew,8.0.3
; #@! TF.FileFunction,Plated,1,2,PTH
FMAT,2
METRIC
; #@! TA.AperFunction,Plated,PTH,ViaDrill
T1C0.300
; #@! TA.AperFunction,Plated,PTH,ViaDrill
T2C0.400
; #@! TA.AperFunction,Plated,PTH,ComponentDrill
T3C0.600
; #@! TA.AperFunction,Plated,PTH,ComponentDrill
T4C0.750
; #@! TA.AperFunction,Plated,PTH,ComponentDrill
T5C0.800
; #@! TA.AperFunction,Plated,PTH,ComponentDrill
T6C0.900
; #@! TA.AperFunction,Plated,PTH,ComponentDrill
T7C1.000
; #@! TA.AperFunction,Plated,PTH,ComponentDrill
T8C1.500
%
G90
G05
T1
X114.994Y-101.237
X114.994Y-127.437
X115.144Y-107.662
X115.144Y-133.862
X116.807Y-106.65
X116.807Y-132.85
X141.006Y-61.13
X142.756Y-61.217
X144.506Y-61.217
X145.006Y-64.717
X145.756Y-64.467
X147.256Y-76.467
X148.756Y-51.717
X149.756Y-50.967
X150.756Y-50.467
X151.756Y-50.217
X152.756Y-50.217
X153.756Y-50.217
X153.756Y-58.467
X156.086Y-51.807
X156.631Y-54.842
X157.788Y-52.186
X158.506Y-52.217
X159.756Y-57.967
X160.756Y-57.967
X161.756Y-57.967
T2
X109.334Y-107.82
X109.334Y-134.02
X113.164Y-113.25
X113.164Y-139.45
X132.756Y-76.717
X142.006Y-58.217
X146.256Y-61.967
X147.256Y-78.217
X147.506Y-64.717
X156.599Y-53.561
X160.256Y-64.967
X160.756Y-69.217
X161.006Y-54.717
X161.506Y-67.217
X162.006Y-55.467
X163.756Y-53.217
X165.256Y-71.717
X168.256Y-61.967
X169.756Y-54.717
X172.006Y-66.967
X172.506Y-56.217
X173.256Y-68.967
X174.506Y-68.967
X175.756Y-68.967
X194.256Y-57.967
T4
X111.982Y-67.618
X111.982Y-70.158
X112.231Y-84.637
X112.231Y-87.177
X113.252Y-68.888
X113.501Y-85.907
T5
X110.752Y-74.388
X111.001Y-91.407
X117.102Y-68.888
X117.351Y-85.907
X120.502Y-68.888
X120.751Y-85.907
X120.912Y-74.388
X121.161Y-91.407
T6
X104.977Y-72.638
X105.226Y-89.657
X107.517Y-72.638
X107.766Y-89.657
X135.006Y-53.467
X137.546Y-53.467
X141.731Y-53.467
X144.271Y-53.467
T7
X102.742Y-65.388
X102.991Y-82.407
X107.742Y-62.888
X107.742Y-67.888
X107.991Y-79.907
X107.991Y-84.907
X113.987Y-63.138
X114.236Y-80.157
X116.527Y-63.138
X116.776Y-80.157
X117.769Y-110.537
X117.769Y-114.587
X117.769Y-136.737
X117.769Y-140.787
X128.481Y-84.217
X128.481Y-88.467
X128.481Y-92.717
X131.021Y-84.217
X131.021Y-88.467
X131.021Y-92.717
X176.256Y-53.717
X177.006Y-58.467
X178.796Y-53.717
X179.546Y-58.467
X181.336Y-53.717
X183.876Y-53.717
X185.231Y-58.467
X186.416Y-53.717
X187.771Y-58.467
X188.956Y-53.717
X196.256Y-88.442
X196.256Y-90.982
X196.381Y-69.867
X196.381Y-72.407
X196.381Y-74.947
X196.381Y-77.487
X196.381Y-80.027
X196.381Y-82.567
T8
X139.026Y-90.427
X139.026Y-110.427
X139.026Y-130.427
X139.106Y-70.427
X145.376Y-87.887
X145.376Y-107.887
X145.376Y-127.887
X145.456Y-67.887
X159.026Y-90.427
X159.026Y-110.427
X159.026Y-130.427
X159.106Y-70.427
X165.376Y-87.887
X165.376Y-107.887
X165.376Y-127.887
X165.456Y-67.887
X179.026Y-90.427
X179.026Y-110.427
X179.026Y-130.427
X179.106Y-70.427
X185.376Y-87.887
X185.376Y-107.887
X185.376Y-127.887
X185.456Y-67.887
T3
G00X127.086Y-58.567
M15
G01X126.486Y-58.567
M16
G05
G00X127.086Y-67.207
M15
G01X126.486Y-67.207
M16
G05
G00X131.516Y-58.567
M15
G01X130.416Y-58.567
M16
G05
G00X131.516Y-67.207
M15
G01X130.416Y-67.207
M16
G05
M30
