%TF.GenerationSoftware,KiCad,Pcbnew,8.0.3*%
%TF.CreationDate,2024-09-19T18:37:29+03:00*%
%TF.ProjectId,JLC8,4a4c4338-2e6b-4696-9361-645f70636258,rev?*%
%TF.SameCoordinates,Original*%
%TF.FileFunction,Legend,Bot*%
%TF.FilePolarity,Positive*%
%FSLAX46Y46*%
G04 Gerber Fmt 4.6, Leading zero omitted, Abs format (unit mm)*
G04 Created by KiCad (PCBNEW 8.0.3) date 2024-09-19 18:37:29*
%MOMM*%
%LPD*%
G01*
G04 APERTURE LIST*
%ADD10C,0.500000*%
%ADD11C,0.160000*%
%ADD12C,0.200000*%
G04 APERTURE END LIST*
D10*
X101477370Y-61338499D02*
X122277370Y-61338499D01*
X122277370Y-76388499D01*
X101477370Y-76388499D01*
X101477370Y-61338499D01*
D11*
X117781864Y-139256916D02*
X117748531Y-139156916D01*
X117748531Y-139156916D02*
X117715197Y-139123582D01*
X117715197Y-139123582D02*
X117648531Y-139090249D01*
X117648531Y-139090249D02*
X117548531Y-139090249D01*
X117548531Y-139090249D02*
X117481864Y-139123582D01*
X117481864Y-139123582D02*
X117448531Y-139156916D01*
X117448531Y-139156916D02*
X117415197Y-139223582D01*
X117415197Y-139223582D02*
X117415197Y-139490249D01*
X117415197Y-139490249D02*
X118115197Y-139490249D01*
X118115197Y-139490249D02*
X118115197Y-139256916D01*
X118115197Y-139256916D02*
X118081864Y-139190249D01*
X118081864Y-139190249D02*
X118048531Y-139156916D01*
X118048531Y-139156916D02*
X117981864Y-139123582D01*
X117981864Y-139123582D02*
X117915197Y-139123582D01*
X117915197Y-139123582D02*
X117848531Y-139156916D01*
X117848531Y-139156916D02*
X117815197Y-139190249D01*
X117815197Y-139190249D02*
X117781864Y-139256916D01*
X117781864Y-139256916D02*
X117781864Y-139490249D01*
X117415197Y-138490249D02*
X117781864Y-138490249D01*
X117781864Y-138490249D02*
X117848531Y-138523582D01*
X117848531Y-138523582D02*
X117881864Y-138590249D01*
X117881864Y-138590249D02*
X117881864Y-138723582D01*
X117881864Y-138723582D02*
X117848531Y-138790249D01*
X117448531Y-138490249D02*
X117415197Y-138556916D01*
X117415197Y-138556916D02*
X117415197Y-138723582D01*
X117415197Y-138723582D02*
X117448531Y-138790249D01*
X117448531Y-138790249D02*
X117515197Y-138823582D01*
X117515197Y-138823582D02*
X117581864Y-138823582D01*
X117581864Y-138823582D02*
X117648531Y-138790249D01*
X117648531Y-138790249D02*
X117681864Y-138723582D01*
X117681864Y-138723582D02*
X117681864Y-138556916D01*
X117681864Y-138556916D02*
X117715197Y-138490249D01*
X117881864Y-138256916D02*
X117881864Y-137990249D01*
X118115197Y-138156916D02*
X117515197Y-138156916D01*
X117515197Y-138156916D02*
X117448531Y-138123583D01*
X117448531Y-138123583D02*
X117415197Y-138056916D01*
X117415197Y-138056916D02*
X117415197Y-137990249D01*
X116179903Y-110740249D02*
X116179903Y-110206916D01*
X115913236Y-110473582D02*
X116446570Y-110473582D01*
D12*
X119993281Y-89160919D02*
X119536138Y-89160919D01*
X119764710Y-89960919D02*
X119764710Y-89160919D01*
X119155186Y-89960919D02*
X119231376Y-89922824D01*
X119231376Y-89922824D02*
X119269471Y-89884728D01*
X119269471Y-89884728D02*
X119307567Y-89808538D01*
X119307567Y-89808538D02*
X119307567Y-89579966D01*
X119307567Y-89579966D02*
X119269471Y-89503776D01*
X119269471Y-89503776D02*
X119231376Y-89465681D01*
X119231376Y-89465681D02*
X119155186Y-89427585D01*
X119155186Y-89427585D02*
X119040900Y-89427585D01*
X119040900Y-89427585D02*
X118964709Y-89465681D01*
X118964709Y-89465681D02*
X118926614Y-89503776D01*
X118926614Y-89503776D02*
X118888519Y-89579966D01*
X118888519Y-89579966D02*
X118888519Y-89808538D01*
X118888519Y-89808538D02*
X118926614Y-89884728D01*
X118926614Y-89884728D02*
X118964709Y-89922824D01*
X118964709Y-89922824D02*
X119040900Y-89960919D01*
X119040900Y-89960919D02*
X119155186Y-89960919D01*
X118545661Y-89427585D02*
X118545661Y-89960919D01*
X118545661Y-89503776D02*
X118507566Y-89465681D01*
X118507566Y-89465681D02*
X118431376Y-89427585D01*
X118431376Y-89427585D02*
X118317090Y-89427585D01*
X118317090Y-89427585D02*
X118240899Y-89465681D01*
X118240899Y-89465681D02*
X118202804Y-89541871D01*
X118202804Y-89541871D02*
X118202804Y-89960919D01*
X117821851Y-89960919D02*
X117821851Y-89427585D01*
X117821851Y-89160919D02*
X117859947Y-89199014D01*
X117859947Y-89199014D02*
X117821851Y-89237109D01*
X117821851Y-89237109D02*
X117783756Y-89199014D01*
X117783756Y-89199014D02*
X117821851Y-89160919D01*
X117821851Y-89160919D02*
X117821851Y-89237109D01*
X117440899Y-89960919D02*
X117440899Y-89160919D01*
X117364709Y-89656157D02*
X117136137Y-89960919D01*
X117136137Y-89427585D02*
X117440899Y-89732347D01*
X116793280Y-89960919D02*
X116793280Y-89427585D01*
X116793280Y-89160919D02*
X116831376Y-89199014D01*
X116831376Y-89199014D02*
X116793280Y-89237109D01*
X116793280Y-89237109D02*
X116755185Y-89199014D01*
X116755185Y-89199014D02*
X116793280Y-89160919D01*
X116793280Y-89160919D02*
X116793280Y-89237109D01*
X116298043Y-89960919D02*
X116374233Y-89922824D01*
X116374233Y-89922824D02*
X116412328Y-89846633D01*
X116412328Y-89846633D02*
X116412328Y-89160919D01*
X115878995Y-89960919D02*
X115955185Y-89922824D01*
X115955185Y-89922824D02*
X115993280Y-89846633D01*
X115993280Y-89846633D02*
X115993280Y-89160919D01*
X115269470Y-89922824D02*
X115345661Y-89960919D01*
X115345661Y-89960919D02*
X115498042Y-89960919D01*
X115498042Y-89960919D02*
X115574232Y-89922824D01*
X115574232Y-89922824D02*
X115612328Y-89846633D01*
X115612328Y-89846633D02*
X115612328Y-89541871D01*
X115612328Y-89541871D02*
X115574232Y-89465681D01*
X115574232Y-89465681D02*
X115498042Y-89427585D01*
X115498042Y-89427585D02*
X115345661Y-89427585D01*
X115345661Y-89427585D02*
X115269470Y-89465681D01*
X115269470Y-89465681D02*
X115231375Y-89541871D01*
X115231375Y-89541871D02*
X115231375Y-89618062D01*
X115231375Y-89618062D02*
X115612328Y-89694252D01*
X114888518Y-89960919D02*
X114888518Y-89427585D01*
X114888518Y-89579966D02*
X114850423Y-89503776D01*
X114850423Y-89503776D02*
X114812328Y-89465681D01*
X114812328Y-89465681D02*
X114736137Y-89427585D01*
X114736137Y-89427585D02*
X114659947Y-89427585D01*
X113974233Y-89960919D02*
X114431376Y-89960919D01*
X114202804Y-89960919D02*
X114202804Y-89160919D01*
X114202804Y-89160919D02*
X114278995Y-89275204D01*
X114278995Y-89275204D02*
X114355185Y-89351395D01*
X114355185Y-89351395D02*
X114431376Y-89389490D01*
X113478994Y-89160919D02*
X113402804Y-89160919D01*
X113402804Y-89160919D02*
X113326613Y-89199014D01*
X113326613Y-89199014D02*
X113288518Y-89237109D01*
X113288518Y-89237109D02*
X113250423Y-89313300D01*
X113250423Y-89313300D02*
X113212328Y-89465681D01*
X113212328Y-89465681D02*
X113212328Y-89656157D01*
X113212328Y-89656157D02*
X113250423Y-89808538D01*
X113250423Y-89808538D02*
X113288518Y-89884728D01*
X113288518Y-89884728D02*
X113326613Y-89922824D01*
X113326613Y-89922824D02*
X113402804Y-89960919D01*
X113402804Y-89960919D02*
X113478994Y-89960919D01*
X113478994Y-89960919D02*
X113555185Y-89922824D01*
X113555185Y-89922824D02*
X113593280Y-89884728D01*
X113593280Y-89884728D02*
X113631375Y-89808538D01*
X113631375Y-89808538D02*
X113669471Y-89656157D01*
X113669471Y-89656157D02*
X113669471Y-89465681D01*
X113669471Y-89465681D02*
X113631375Y-89313300D01*
X113631375Y-89313300D02*
X113593280Y-89237109D01*
X113593280Y-89237109D02*
X113555185Y-89199014D01*
X113555185Y-89199014D02*
X113478994Y-89160919D01*
X112717089Y-89160919D02*
X112640899Y-89160919D01*
X112640899Y-89160919D02*
X112564708Y-89199014D01*
X112564708Y-89199014D02*
X112526613Y-89237109D01*
X112526613Y-89237109D02*
X112488518Y-89313300D01*
X112488518Y-89313300D02*
X112450423Y-89465681D01*
X112450423Y-89465681D02*
X112450423Y-89656157D01*
X112450423Y-89656157D02*
X112488518Y-89808538D01*
X112488518Y-89808538D02*
X112526613Y-89884728D01*
X112526613Y-89884728D02*
X112564708Y-89922824D01*
X112564708Y-89922824D02*
X112640899Y-89960919D01*
X112640899Y-89960919D02*
X112717089Y-89960919D01*
X112717089Y-89960919D02*
X112793280Y-89922824D01*
X112793280Y-89922824D02*
X112831375Y-89884728D01*
X112831375Y-89884728D02*
X112869470Y-89808538D01*
X112869470Y-89808538D02*
X112907566Y-89656157D01*
X112907566Y-89656157D02*
X112907566Y-89465681D01*
X112907566Y-89465681D02*
X112869470Y-89313300D01*
X112869470Y-89313300D02*
X112831375Y-89237109D01*
X112831375Y-89237109D02*
X112793280Y-89199014D01*
X112793280Y-89199014D02*
X112717089Y-89160919D01*
X111955184Y-89160919D02*
X111878994Y-89160919D01*
X111878994Y-89160919D02*
X111802803Y-89199014D01*
X111802803Y-89199014D02*
X111764708Y-89237109D01*
X111764708Y-89237109D02*
X111726613Y-89313300D01*
X111726613Y-89313300D02*
X111688518Y-89465681D01*
X111688518Y-89465681D02*
X111688518Y-89656157D01*
X111688518Y-89656157D02*
X111726613Y-89808538D01*
X111726613Y-89808538D02*
X111764708Y-89884728D01*
X111764708Y-89884728D02*
X111802803Y-89922824D01*
X111802803Y-89922824D02*
X111878994Y-89960919D01*
X111878994Y-89960919D02*
X111955184Y-89960919D01*
X111955184Y-89960919D02*
X112031375Y-89922824D01*
X112031375Y-89922824D02*
X112069470Y-89884728D01*
X112069470Y-89884728D02*
X112107565Y-89808538D01*
X112107565Y-89808538D02*
X112145661Y-89656157D01*
X112145661Y-89656157D02*
X112145661Y-89465681D01*
X112145661Y-89465681D02*
X112107565Y-89313300D01*
X112107565Y-89313300D02*
X112069470Y-89237109D01*
X112069470Y-89237109D02*
X112031375Y-89199014D01*
X112031375Y-89199014D02*
X111955184Y-89160919D01*
X111193279Y-89160919D02*
X111117089Y-89160919D01*
X111117089Y-89160919D02*
X111040898Y-89199014D01*
X111040898Y-89199014D02*
X111002803Y-89237109D01*
X111002803Y-89237109D02*
X110964708Y-89313300D01*
X110964708Y-89313300D02*
X110926613Y-89465681D01*
X110926613Y-89465681D02*
X110926613Y-89656157D01*
X110926613Y-89656157D02*
X110964708Y-89808538D01*
X110964708Y-89808538D02*
X111002803Y-89884728D01*
X111002803Y-89884728D02*
X111040898Y-89922824D01*
X111040898Y-89922824D02*
X111117089Y-89960919D01*
X111117089Y-89960919D02*
X111193279Y-89960919D01*
X111193279Y-89960919D02*
X111269470Y-89922824D01*
X111269470Y-89922824D02*
X111307565Y-89884728D01*
X111307565Y-89884728D02*
X111345660Y-89808538D01*
X111345660Y-89808538D02*
X111383756Y-89656157D01*
X111383756Y-89656157D02*
X111383756Y-89465681D01*
X111383756Y-89465681D02*
X111345660Y-89313300D01*
X111345660Y-89313300D02*
X111307565Y-89237109D01*
X111307565Y-89237109D02*
X111269470Y-89199014D01*
X111269470Y-89199014D02*
X111193279Y-89160919D01*
X119498043Y-91248874D02*
X119878995Y-91248874D01*
X119878995Y-91248874D02*
X119878995Y-90448874D01*
X119231376Y-91248874D02*
X119231376Y-90715540D01*
X119231376Y-90448874D02*
X119269472Y-90486969D01*
X119269472Y-90486969D02*
X119231376Y-90525064D01*
X119231376Y-90525064D02*
X119193281Y-90486969D01*
X119193281Y-90486969D02*
X119231376Y-90448874D01*
X119231376Y-90448874D02*
X119231376Y-90525064D01*
X118507567Y-90715540D02*
X118507567Y-91363159D01*
X118507567Y-91363159D02*
X118545662Y-91439350D01*
X118545662Y-91439350D02*
X118583758Y-91477445D01*
X118583758Y-91477445D02*
X118659948Y-91515540D01*
X118659948Y-91515540D02*
X118774234Y-91515540D01*
X118774234Y-91515540D02*
X118850424Y-91477445D01*
X118507567Y-91210779D02*
X118583758Y-91248874D01*
X118583758Y-91248874D02*
X118736139Y-91248874D01*
X118736139Y-91248874D02*
X118812329Y-91210779D01*
X118812329Y-91210779D02*
X118850424Y-91172683D01*
X118850424Y-91172683D02*
X118888520Y-91096493D01*
X118888520Y-91096493D02*
X118888520Y-90867921D01*
X118888520Y-90867921D02*
X118850424Y-90791731D01*
X118850424Y-90791731D02*
X118812329Y-90753636D01*
X118812329Y-90753636D02*
X118736139Y-90715540D01*
X118736139Y-90715540D02*
X118583758Y-90715540D01*
X118583758Y-90715540D02*
X118507567Y-90753636D01*
X118240900Y-90715540D02*
X117936138Y-90715540D01*
X118126614Y-90448874D02*
X118126614Y-91134588D01*
X118126614Y-91134588D02*
X118088519Y-91210779D01*
X118088519Y-91210779D02*
X118012329Y-91248874D01*
X118012329Y-91248874D02*
X117936138Y-91248874D01*
X117669471Y-91248874D02*
X117669471Y-90448874D01*
X117326614Y-91248874D02*
X117326614Y-90829826D01*
X117326614Y-90829826D02*
X117364709Y-90753636D01*
X117364709Y-90753636D02*
X117440900Y-90715540D01*
X117440900Y-90715540D02*
X117555186Y-90715540D01*
X117555186Y-90715540D02*
X117631376Y-90753636D01*
X117631376Y-90753636D02*
X117669471Y-90791731D01*
X116983757Y-91210779D02*
X116869471Y-91248874D01*
X116869471Y-91248874D02*
X116678995Y-91248874D01*
X116678995Y-91248874D02*
X116602804Y-91210779D01*
X116602804Y-91210779D02*
X116564709Y-91172683D01*
X116564709Y-91172683D02*
X116526614Y-91096493D01*
X116526614Y-91096493D02*
X116526614Y-91020302D01*
X116526614Y-91020302D02*
X116564709Y-90944112D01*
X116564709Y-90944112D02*
X116602804Y-90906017D01*
X116602804Y-90906017D02*
X116678995Y-90867921D01*
X116678995Y-90867921D02*
X116831376Y-90829826D01*
X116831376Y-90829826D02*
X116907566Y-90791731D01*
X116907566Y-90791731D02*
X116945661Y-90753636D01*
X116945661Y-90753636D02*
X116983757Y-90677445D01*
X116983757Y-90677445D02*
X116983757Y-90601255D01*
X116983757Y-90601255D02*
X116945661Y-90525064D01*
X116945661Y-90525064D02*
X116907566Y-90486969D01*
X116907566Y-90486969D02*
X116831376Y-90448874D01*
X116831376Y-90448874D02*
X116640899Y-90448874D01*
X116640899Y-90448874D02*
X116526614Y-90486969D01*
X116259947Y-90715540D02*
X116107566Y-91248874D01*
X116107566Y-91248874D02*
X115955185Y-90867921D01*
X115955185Y-90867921D02*
X115802804Y-91248874D01*
X115802804Y-91248874D02*
X115650423Y-90715540D01*
X115345661Y-91248874D02*
X115345661Y-90715540D01*
X115345661Y-90448874D02*
X115383757Y-90486969D01*
X115383757Y-90486969D02*
X115345661Y-90525064D01*
X115345661Y-90525064D02*
X115307566Y-90486969D01*
X115307566Y-90486969D02*
X115345661Y-90448874D01*
X115345661Y-90448874D02*
X115345661Y-90525064D01*
X115078995Y-90715540D02*
X114774233Y-90715540D01*
X114964709Y-90448874D02*
X114964709Y-91134588D01*
X114964709Y-91134588D02*
X114926614Y-91210779D01*
X114926614Y-91210779D02*
X114850424Y-91248874D01*
X114850424Y-91248874D02*
X114774233Y-91248874D01*
X114164709Y-91210779D02*
X114240900Y-91248874D01*
X114240900Y-91248874D02*
X114393281Y-91248874D01*
X114393281Y-91248874D02*
X114469471Y-91210779D01*
X114469471Y-91210779D02*
X114507566Y-91172683D01*
X114507566Y-91172683D02*
X114545662Y-91096493D01*
X114545662Y-91096493D02*
X114545662Y-90867921D01*
X114545662Y-90867921D02*
X114507566Y-90791731D01*
X114507566Y-90791731D02*
X114469471Y-90753636D01*
X114469471Y-90753636D02*
X114393281Y-90715540D01*
X114393281Y-90715540D02*
X114240900Y-90715540D01*
X114240900Y-90715540D02*
X114164709Y-90753636D01*
X113821852Y-91248874D02*
X113821852Y-90448874D01*
X113478995Y-91248874D02*
X113478995Y-90829826D01*
X113478995Y-90829826D02*
X113517090Y-90753636D01*
X113517090Y-90753636D02*
X113593281Y-90715540D01*
X113593281Y-90715540D02*
X113707567Y-90715540D01*
X113707567Y-90715540D02*
X113783757Y-90753636D01*
X113783757Y-90753636D02*
X113821852Y-90791731D01*
X113212328Y-90448874D02*
X112945661Y-91248874D01*
X112945661Y-91248874D02*
X112678995Y-90448874D01*
X112450424Y-90525064D02*
X112412328Y-90486969D01*
X112412328Y-90486969D02*
X112336138Y-90448874D01*
X112336138Y-90448874D02*
X112145662Y-90448874D01*
X112145662Y-90448874D02*
X112069471Y-90486969D01*
X112069471Y-90486969D02*
X112031376Y-90525064D01*
X112031376Y-90525064D02*
X111993281Y-90601255D01*
X111993281Y-90601255D02*
X111993281Y-90677445D01*
X111993281Y-90677445D02*
X112031376Y-90791731D01*
X112031376Y-90791731D02*
X112488519Y-91248874D01*
X112488519Y-91248874D02*
X111993281Y-91248874D01*
X119893281Y-71960919D02*
X119436138Y-71960919D01*
X119664710Y-72760919D02*
X119664710Y-71960919D01*
X119055186Y-72760919D02*
X119131376Y-72722824D01*
X119131376Y-72722824D02*
X119169471Y-72684728D01*
X119169471Y-72684728D02*
X119207567Y-72608538D01*
X119207567Y-72608538D02*
X119207567Y-72379966D01*
X119207567Y-72379966D02*
X119169471Y-72303776D01*
X119169471Y-72303776D02*
X119131376Y-72265681D01*
X119131376Y-72265681D02*
X119055186Y-72227585D01*
X119055186Y-72227585D02*
X118940900Y-72227585D01*
X118940900Y-72227585D02*
X118864709Y-72265681D01*
X118864709Y-72265681D02*
X118826614Y-72303776D01*
X118826614Y-72303776D02*
X118788519Y-72379966D01*
X118788519Y-72379966D02*
X118788519Y-72608538D01*
X118788519Y-72608538D02*
X118826614Y-72684728D01*
X118826614Y-72684728D02*
X118864709Y-72722824D01*
X118864709Y-72722824D02*
X118940900Y-72760919D01*
X118940900Y-72760919D02*
X119055186Y-72760919D01*
X118445661Y-72227585D02*
X118445661Y-72760919D01*
X118445661Y-72303776D02*
X118407566Y-72265681D01*
X118407566Y-72265681D02*
X118331376Y-72227585D01*
X118331376Y-72227585D02*
X118217090Y-72227585D01*
X118217090Y-72227585D02*
X118140899Y-72265681D01*
X118140899Y-72265681D02*
X118102804Y-72341871D01*
X118102804Y-72341871D02*
X118102804Y-72760919D01*
X117721851Y-72760919D02*
X117721851Y-72227585D01*
X117721851Y-71960919D02*
X117759947Y-71999014D01*
X117759947Y-71999014D02*
X117721851Y-72037109D01*
X117721851Y-72037109D02*
X117683756Y-71999014D01*
X117683756Y-71999014D02*
X117721851Y-71960919D01*
X117721851Y-71960919D02*
X117721851Y-72037109D01*
X117340899Y-72760919D02*
X117340899Y-71960919D01*
X117264709Y-72456157D02*
X117036137Y-72760919D01*
X117036137Y-72227585D02*
X117340899Y-72532347D01*
X116693280Y-72760919D02*
X116693280Y-72227585D01*
X116693280Y-71960919D02*
X116731376Y-71999014D01*
X116731376Y-71999014D02*
X116693280Y-72037109D01*
X116693280Y-72037109D02*
X116655185Y-71999014D01*
X116655185Y-71999014D02*
X116693280Y-71960919D01*
X116693280Y-71960919D02*
X116693280Y-72037109D01*
X116198043Y-72760919D02*
X116274233Y-72722824D01*
X116274233Y-72722824D02*
X116312328Y-72646633D01*
X116312328Y-72646633D02*
X116312328Y-71960919D01*
X115778995Y-72760919D02*
X115855185Y-72722824D01*
X115855185Y-72722824D02*
X115893280Y-72646633D01*
X115893280Y-72646633D02*
X115893280Y-71960919D01*
X115169470Y-72722824D02*
X115245661Y-72760919D01*
X115245661Y-72760919D02*
X115398042Y-72760919D01*
X115398042Y-72760919D02*
X115474232Y-72722824D01*
X115474232Y-72722824D02*
X115512328Y-72646633D01*
X115512328Y-72646633D02*
X115512328Y-72341871D01*
X115512328Y-72341871D02*
X115474232Y-72265681D01*
X115474232Y-72265681D02*
X115398042Y-72227585D01*
X115398042Y-72227585D02*
X115245661Y-72227585D01*
X115245661Y-72227585D02*
X115169470Y-72265681D01*
X115169470Y-72265681D02*
X115131375Y-72341871D01*
X115131375Y-72341871D02*
X115131375Y-72418062D01*
X115131375Y-72418062D02*
X115512328Y-72494252D01*
X114788518Y-72760919D02*
X114788518Y-72227585D01*
X114788518Y-72379966D02*
X114750423Y-72303776D01*
X114750423Y-72303776D02*
X114712328Y-72265681D01*
X114712328Y-72265681D02*
X114636137Y-72227585D01*
X114636137Y-72227585D02*
X114559947Y-72227585D01*
X113874233Y-72760919D02*
X114331376Y-72760919D01*
X114102804Y-72760919D02*
X114102804Y-71960919D01*
X114102804Y-71960919D02*
X114178995Y-72075204D01*
X114178995Y-72075204D02*
X114255185Y-72151395D01*
X114255185Y-72151395D02*
X114331376Y-72189490D01*
X113378994Y-71960919D02*
X113302804Y-71960919D01*
X113302804Y-71960919D02*
X113226613Y-71999014D01*
X113226613Y-71999014D02*
X113188518Y-72037109D01*
X113188518Y-72037109D02*
X113150423Y-72113300D01*
X113150423Y-72113300D02*
X113112328Y-72265681D01*
X113112328Y-72265681D02*
X113112328Y-72456157D01*
X113112328Y-72456157D02*
X113150423Y-72608538D01*
X113150423Y-72608538D02*
X113188518Y-72684728D01*
X113188518Y-72684728D02*
X113226613Y-72722824D01*
X113226613Y-72722824D02*
X113302804Y-72760919D01*
X113302804Y-72760919D02*
X113378994Y-72760919D01*
X113378994Y-72760919D02*
X113455185Y-72722824D01*
X113455185Y-72722824D02*
X113493280Y-72684728D01*
X113493280Y-72684728D02*
X113531375Y-72608538D01*
X113531375Y-72608538D02*
X113569471Y-72456157D01*
X113569471Y-72456157D02*
X113569471Y-72265681D01*
X113569471Y-72265681D02*
X113531375Y-72113300D01*
X113531375Y-72113300D02*
X113493280Y-72037109D01*
X113493280Y-72037109D02*
X113455185Y-71999014D01*
X113455185Y-71999014D02*
X113378994Y-71960919D01*
X112617089Y-71960919D02*
X112540899Y-71960919D01*
X112540899Y-71960919D02*
X112464708Y-71999014D01*
X112464708Y-71999014D02*
X112426613Y-72037109D01*
X112426613Y-72037109D02*
X112388518Y-72113300D01*
X112388518Y-72113300D02*
X112350423Y-72265681D01*
X112350423Y-72265681D02*
X112350423Y-72456157D01*
X112350423Y-72456157D02*
X112388518Y-72608538D01*
X112388518Y-72608538D02*
X112426613Y-72684728D01*
X112426613Y-72684728D02*
X112464708Y-72722824D01*
X112464708Y-72722824D02*
X112540899Y-72760919D01*
X112540899Y-72760919D02*
X112617089Y-72760919D01*
X112617089Y-72760919D02*
X112693280Y-72722824D01*
X112693280Y-72722824D02*
X112731375Y-72684728D01*
X112731375Y-72684728D02*
X112769470Y-72608538D01*
X112769470Y-72608538D02*
X112807566Y-72456157D01*
X112807566Y-72456157D02*
X112807566Y-72265681D01*
X112807566Y-72265681D02*
X112769470Y-72113300D01*
X112769470Y-72113300D02*
X112731375Y-72037109D01*
X112731375Y-72037109D02*
X112693280Y-71999014D01*
X112693280Y-71999014D02*
X112617089Y-71960919D01*
X111855184Y-71960919D02*
X111778994Y-71960919D01*
X111778994Y-71960919D02*
X111702803Y-71999014D01*
X111702803Y-71999014D02*
X111664708Y-72037109D01*
X111664708Y-72037109D02*
X111626613Y-72113300D01*
X111626613Y-72113300D02*
X111588518Y-72265681D01*
X111588518Y-72265681D02*
X111588518Y-72456157D01*
X111588518Y-72456157D02*
X111626613Y-72608538D01*
X111626613Y-72608538D02*
X111664708Y-72684728D01*
X111664708Y-72684728D02*
X111702803Y-72722824D01*
X111702803Y-72722824D02*
X111778994Y-72760919D01*
X111778994Y-72760919D02*
X111855184Y-72760919D01*
X111855184Y-72760919D02*
X111931375Y-72722824D01*
X111931375Y-72722824D02*
X111969470Y-72684728D01*
X111969470Y-72684728D02*
X112007565Y-72608538D01*
X112007565Y-72608538D02*
X112045661Y-72456157D01*
X112045661Y-72456157D02*
X112045661Y-72265681D01*
X112045661Y-72265681D02*
X112007565Y-72113300D01*
X112007565Y-72113300D02*
X111969470Y-72037109D01*
X111969470Y-72037109D02*
X111931375Y-71999014D01*
X111931375Y-71999014D02*
X111855184Y-71960919D01*
X111093279Y-71960919D02*
X111017089Y-71960919D01*
X111017089Y-71960919D02*
X110940898Y-71999014D01*
X110940898Y-71999014D02*
X110902803Y-72037109D01*
X110902803Y-72037109D02*
X110864708Y-72113300D01*
X110864708Y-72113300D02*
X110826613Y-72265681D01*
X110826613Y-72265681D02*
X110826613Y-72456157D01*
X110826613Y-72456157D02*
X110864708Y-72608538D01*
X110864708Y-72608538D02*
X110902803Y-72684728D01*
X110902803Y-72684728D02*
X110940898Y-72722824D01*
X110940898Y-72722824D02*
X111017089Y-72760919D01*
X111017089Y-72760919D02*
X111093279Y-72760919D01*
X111093279Y-72760919D02*
X111169470Y-72722824D01*
X111169470Y-72722824D02*
X111207565Y-72684728D01*
X111207565Y-72684728D02*
X111245660Y-72608538D01*
X111245660Y-72608538D02*
X111283756Y-72456157D01*
X111283756Y-72456157D02*
X111283756Y-72265681D01*
X111283756Y-72265681D02*
X111245660Y-72113300D01*
X111245660Y-72113300D02*
X111207565Y-72037109D01*
X111207565Y-72037109D02*
X111169470Y-71999014D01*
X111169470Y-71999014D02*
X111093279Y-71960919D01*
X119398043Y-74048874D02*
X119778995Y-74048874D01*
X119778995Y-74048874D02*
X119778995Y-73248874D01*
X119131376Y-74048874D02*
X119131376Y-73515540D01*
X119131376Y-73248874D02*
X119169472Y-73286969D01*
X119169472Y-73286969D02*
X119131376Y-73325064D01*
X119131376Y-73325064D02*
X119093281Y-73286969D01*
X119093281Y-73286969D02*
X119131376Y-73248874D01*
X119131376Y-73248874D02*
X119131376Y-73325064D01*
X118407567Y-73515540D02*
X118407567Y-74163159D01*
X118407567Y-74163159D02*
X118445662Y-74239350D01*
X118445662Y-74239350D02*
X118483758Y-74277445D01*
X118483758Y-74277445D02*
X118559948Y-74315540D01*
X118559948Y-74315540D02*
X118674234Y-74315540D01*
X118674234Y-74315540D02*
X118750424Y-74277445D01*
X118407567Y-74010779D02*
X118483758Y-74048874D01*
X118483758Y-74048874D02*
X118636139Y-74048874D01*
X118636139Y-74048874D02*
X118712329Y-74010779D01*
X118712329Y-74010779D02*
X118750424Y-73972683D01*
X118750424Y-73972683D02*
X118788520Y-73896493D01*
X118788520Y-73896493D02*
X118788520Y-73667921D01*
X118788520Y-73667921D02*
X118750424Y-73591731D01*
X118750424Y-73591731D02*
X118712329Y-73553636D01*
X118712329Y-73553636D02*
X118636139Y-73515540D01*
X118636139Y-73515540D02*
X118483758Y-73515540D01*
X118483758Y-73515540D02*
X118407567Y-73553636D01*
X118140900Y-73515540D02*
X117836138Y-73515540D01*
X118026614Y-73248874D02*
X118026614Y-73934588D01*
X118026614Y-73934588D02*
X117988519Y-74010779D01*
X117988519Y-74010779D02*
X117912329Y-74048874D01*
X117912329Y-74048874D02*
X117836138Y-74048874D01*
X117569471Y-74048874D02*
X117569471Y-73248874D01*
X117226614Y-74048874D02*
X117226614Y-73629826D01*
X117226614Y-73629826D02*
X117264709Y-73553636D01*
X117264709Y-73553636D02*
X117340900Y-73515540D01*
X117340900Y-73515540D02*
X117455186Y-73515540D01*
X117455186Y-73515540D02*
X117531376Y-73553636D01*
X117531376Y-73553636D02*
X117569471Y-73591731D01*
X116883757Y-74010779D02*
X116769471Y-74048874D01*
X116769471Y-74048874D02*
X116578995Y-74048874D01*
X116578995Y-74048874D02*
X116502804Y-74010779D01*
X116502804Y-74010779D02*
X116464709Y-73972683D01*
X116464709Y-73972683D02*
X116426614Y-73896493D01*
X116426614Y-73896493D02*
X116426614Y-73820302D01*
X116426614Y-73820302D02*
X116464709Y-73744112D01*
X116464709Y-73744112D02*
X116502804Y-73706017D01*
X116502804Y-73706017D02*
X116578995Y-73667921D01*
X116578995Y-73667921D02*
X116731376Y-73629826D01*
X116731376Y-73629826D02*
X116807566Y-73591731D01*
X116807566Y-73591731D02*
X116845661Y-73553636D01*
X116845661Y-73553636D02*
X116883757Y-73477445D01*
X116883757Y-73477445D02*
X116883757Y-73401255D01*
X116883757Y-73401255D02*
X116845661Y-73325064D01*
X116845661Y-73325064D02*
X116807566Y-73286969D01*
X116807566Y-73286969D02*
X116731376Y-73248874D01*
X116731376Y-73248874D02*
X116540899Y-73248874D01*
X116540899Y-73248874D02*
X116426614Y-73286969D01*
X116159947Y-73515540D02*
X116007566Y-74048874D01*
X116007566Y-74048874D02*
X115855185Y-73667921D01*
X115855185Y-73667921D02*
X115702804Y-74048874D01*
X115702804Y-74048874D02*
X115550423Y-73515540D01*
X115245661Y-74048874D02*
X115245661Y-73515540D01*
X115245661Y-73248874D02*
X115283757Y-73286969D01*
X115283757Y-73286969D02*
X115245661Y-73325064D01*
X115245661Y-73325064D02*
X115207566Y-73286969D01*
X115207566Y-73286969D02*
X115245661Y-73248874D01*
X115245661Y-73248874D02*
X115245661Y-73325064D01*
X114978995Y-73515540D02*
X114674233Y-73515540D01*
X114864709Y-73248874D02*
X114864709Y-73934588D01*
X114864709Y-73934588D02*
X114826614Y-74010779D01*
X114826614Y-74010779D02*
X114750424Y-74048874D01*
X114750424Y-74048874D02*
X114674233Y-74048874D01*
X114064709Y-74010779D02*
X114140900Y-74048874D01*
X114140900Y-74048874D02*
X114293281Y-74048874D01*
X114293281Y-74048874D02*
X114369471Y-74010779D01*
X114369471Y-74010779D02*
X114407566Y-73972683D01*
X114407566Y-73972683D02*
X114445662Y-73896493D01*
X114445662Y-73896493D02*
X114445662Y-73667921D01*
X114445662Y-73667921D02*
X114407566Y-73591731D01*
X114407566Y-73591731D02*
X114369471Y-73553636D01*
X114369471Y-73553636D02*
X114293281Y-73515540D01*
X114293281Y-73515540D02*
X114140900Y-73515540D01*
X114140900Y-73515540D02*
X114064709Y-73553636D01*
X113721852Y-74048874D02*
X113721852Y-73248874D01*
X113378995Y-74048874D02*
X113378995Y-73629826D01*
X113378995Y-73629826D02*
X113417090Y-73553636D01*
X113417090Y-73553636D02*
X113493281Y-73515540D01*
X113493281Y-73515540D02*
X113607567Y-73515540D01*
X113607567Y-73515540D02*
X113683757Y-73553636D01*
X113683757Y-73553636D02*
X113721852Y-73591731D01*
X113112328Y-73248874D02*
X112845661Y-74048874D01*
X112845661Y-74048874D02*
X112578995Y-73248874D01*
X111893281Y-74048874D02*
X112350424Y-74048874D01*
X112121852Y-74048874D02*
X112121852Y-73248874D01*
X112121852Y-73248874D02*
X112198043Y-73363159D01*
X112198043Y-73363159D02*
X112274233Y-73439350D01*
X112274233Y-73439350D02*
X112350424Y-73477445D01*
D11*
X117781864Y-113056916D02*
X117748531Y-112956916D01*
X117748531Y-112956916D02*
X117715197Y-112923582D01*
X117715197Y-112923582D02*
X117648531Y-112890249D01*
X117648531Y-112890249D02*
X117548531Y-112890249D01*
X117548531Y-112890249D02*
X117481864Y-112923582D01*
X117481864Y-112923582D02*
X117448531Y-112956916D01*
X117448531Y-112956916D02*
X117415197Y-113023582D01*
X117415197Y-113023582D02*
X117415197Y-113290249D01*
X117415197Y-113290249D02*
X118115197Y-113290249D01*
X118115197Y-113290249D02*
X118115197Y-113056916D01*
X118115197Y-113056916D02*
X118081864Y-112990249D01*
X118081864Y-112990249D02*
X118048531Y-112956916D01*
X118048531Y-112956916D02*
X117981864Y-112923582D01*
X117981864Y-112923582D02*
X117915197Y-112923582D01*
X117915197Y-112923582D02*
X117848531Y-112956916D01*
X117848531Y-112956916D02*
X117815197Y-112990249D01*
X117815197Y-112990249D02*
X117781864Y-113056916D01*
X117781864Y-113056916D02*
X117781864Y-113290249D01*
X117415197Y-112290249D02*
X117781864Y-112290249D01*
X117781864Y-112290249D02*
X117848531Y-112323582D01*
X117848531Y-112323582D02*
X117881864Y-112390249D01*
X117881864Y-112390249D02*
X117881864Y-112523582D01*
X117881864Y-112523582D02*
X117848531Y-112590249D01*
X117448531Y-112290249D02*
X117415197Y-112356916D01*
X117415197Y-112356916D02*
X117415197Y-112523582D01*
X117415197Y-112523582D02*
X117448531Y-112590249D01*
X117448531Y-112590249D02*
X117515197Y-112623582D01*
X117515197Y-112623582D02*
X117581864Y-112623582D01*
X117581864Y-112623582D02*
X117648531Y-112590249D01*
X117648531Y-112590249D02*
X117681864Y-112523582D01*
X117681864Y-112523582D02*
X117681864Y-112356916D01*
X117681864Y-112356916D02*
X117715197Y-112290249D01*
X117881864Y-112056916D02*
X117881864Y-111790249D01*
X118115197Y-111956916D02*
X117515197Y-111956916D01*
X117515197Y-111956916D02*
X117448531Y-111923583D01*
X117448531Y-111923583D02*
X117415197Y-111856916D01*
X117415197Y-111856916D02*
X117415197Y-111790249D01*
X116179903Y-136940249D02*
X116179903Y-136406916D01*
X115913236Y-136673582D02*
X116446570Y-136673582D01*
X116254903Y-114965249D02*
X116254903Y-114431916D01*
X116254903Y-141165249D02*
X116254903Y-140631916D01*
M02*
