%TF.GenerationSoftware,KiCad,Pcbnew,(6.0.5)*%
%TF.CreationDate,2023-05-31T00:43:39+03:00*%
%TF.ProjectId,JLC1,4a4c4331-2e6b-4696-9361-645f70636258,rev?*%
%TF.SameCoordinates,Original*%
%TF.FileFunction,Profile,NP*%
%FSLAX46Y46*%
G04 Gerber Fmt 4.6, Leading zero omitted, Abs format (unit mm)*
G04 Created by KiCad (PCBNEW (6.0.5)) date 2023-05-31 00:43:39*
%MOMM*%
%LPD*%
G01*
G04 APERTURE LIST*
%TA.AperFunction,Profile*%
%ADD10C,0.100000*%
%TD*%
G04 APERTURE END LIST*
D10*
X113970000Y-114395000D02*
G75*
G03*
X113970000Y-114395000I-250000J0D01*
G01*
X176320000Y-91145000D02*
G75*
G03*
X176320000Y-91145000I-250000J0D01*
G01*
X194720000Y-53370000D02*
G75*
G03*
X194720000Y-52870000I-200J250000D01*
G01*
X172645000Y-52870000D02*
X168570050Y-52870000D01*
X206320000Y-132420000D02*
X206320000Y-86370000D01*
X162570050Y-50920000D02*
G75*
G03*
X162570050Y-50420000I-50J250000D01*
G01*
X190145000Y-108519950D02*
G75*
G03*
X190145000Y-108519950I-250000J0D01*
G01*
X122645000Y-42720000D02*
G75*
G03*
X122645000Y-42720000I-250000J0D01*
G01*
X122645000Y-104695000D02*
G75*
G03*
X122145000Y-104695000I-250000J0D01*
G01*
X183145100Y-90895000D02*
X182645000Y-90895000D01*
X122645000Y-43470000D02*
G75*
G03*
X122645000Y-43470000I-250000J0D01*
G01*
X122145000Y-30420000D02*
X122145000Y-38220000D01*
X182645000Y-83445000D02*
X182645000Y-79920000D01*
X172645000Y-50920000D02*
X172645000Y-52870000D01*
X190145000Y-120704000D02*
X190145000Y-132420000D01*
X200720000Y-53370000D02*
X206320000Y-53370000D01*
X138995000Y-128495000D02*
G75*
G03*
X138995000Y-128495000I-1500000J0D01*
G01*
X158145000Y-132420000D02*
X122645000Y-132420000D01*
X122145000Y-104695000D02*
X122145000Y-105045000D01*
X109970000Y-114645000D02*
X104320000Y-114645000D01*
X158144500Y-120246000D02*
X158145000Y-132420000D01*
X174395050Y-53370000D02*
G75*
G03*
X174395050Y-52870000I-50J250000D01*
G01*
X158644500Y-116496000D02*
G75*
G03*
X158644500Y-116496000I-250000J0D01*
G01*
X177645050Y-53120000D02*
G75*
G03*
X177645050Y-53120000I-250000J0D01*
G01*
X190145000Y-132420000D02*
X206320000Y-132420000D01*
X155570000Y-75295000D02*
G75*
G03*
X155570000Y-75295000I-1500000J0D01*
G01*
X199470000Y-53120000D02*
G75*
G03*
X199470000Y-53120000I-250000J0D01*
G01*
X190145000Y-111519950D02*
G75*
G03*
X190145000Y-111519950I-250000J0D01*
G01*
X158144500Y-114246000D02*
X158145000Y-75288750D01*
X158639500Y-132420000D02*
X189639500Y-132420000D01*
X140507450Y-50670000D02*
G75*
G03*
X140507450Y-50670000I-250000J0D01*
G01*
X158145000Y-50920000D02*
X158145000Y-69288750D01*
X182155000Y-66664950D02*
X182145000Y-55395000D01*
X174820000Y-91145000D02*
G75*
G03*
X174820000Y-91145000I-250000J0D01*
G01*
X122645000Y-102445000D02*
G75*
G03*
X122645000Y-102445000I-250000J0D01*
G01*
X122145000Y-38220000D02*
G75*
G03*
X122645000Y-38220000I250000J0D01*
G01*
X187820000Y-82553750D02*
X187820000Y-83453750D01*
X182655000Y-71164950D02*
G75*
G03*
X182655000Y-71164950I-250000J0D01*
G01*
X158644500Y-117246000D02*
G75*
G03*
X158644500Y-117246000I-250000J0D01*
G01*
X158645000Y-73788750D02*
G75*
G03*
X158645000Y-73788750I-250000J0D01*
G01*
X122645000Y-41220000D02*
G75*
G03*
X122645000Y-41220000I-250000J0D01*
G01*
X173145000Y-38220000D02*
X173145000Y-30420000D01*
X164320050Y-53120000D02*
G75*
G03*
X164320050Y-53120000I-250000J0D01*
G01*
X173145000Y-42745000D02*
G75*
G03*
X173145000Y-42745000I-250000J0D01*
G01*
X172645000Y-50395000D02*
X172645000Y-50420000D01*
X138757450Y-50920000D02*
G75*
G03*
X138757450Y-50420000I50J250000D01*
G01*
X168570050Y-50420000D02*
G75*
G03*
X168570050Y-50920000I-50J-250000D01*
G01*
X175570000Y-91145000D02*
G75*
G03*
X175570000Y-91145000I-250000J0D01*
G01*
X122645000Y-103195000D02*
G75*
G03*
X122645000Y-103195000I-250000J0D01*
G01*
X144757450Y-50420000D02*
G75*
G03*
X144757450Y-50920000I50J-250000D01*
G01*
X176145050Y-53120000D02*
G75*
G03*
X176145050Y-53120000I-250000J0D01*
G01*
X172645000Y-38245000D02*
G75*
G03*
X173145000Y-38245000I250000J0D01*
G01*
X198720000Y-53120000D02*
G75*
G03*
X198720000Y-53120000I-250000J0D01*
G01*
X189645000Y-106269950D02*
X189639500Y-91395000D01*
X122645000Y-40470000D02*
G75*
G03*
X122645000Y-40470000I-250000J0D01*
G01*
X184145100Y-91145000D02*
G75*
G03*
X184145100Y-91145000I-250000J0D01*
G01*
X182145000Y-90895000D02*
X176820000Y-90895000D01*
X190145000Y-107769950D02*
G75*
G03*
X190145000Y-107769950I-250000J0D01*
G01*
X194720000Y-52870000D02*
X180395050Y-52870000D01*
X182145000Y-79270000D02*
X182145000Y-90895000D01*
X122145000Y-30420000D02*
X104320000Y-30420000D01*
X173320000Y-91145000D02*
G75*
G03*
X173320000Y-91145000I-250000J0D01*
G01*
X122645000Y-39720000D02*
G75*
G03*
X122645000Y-39720000I-250000J0D01*
G01*
X165820050Y-53120000D02*
G75*
G03*
X165820050Y-53120000I-250000J0D01*
G01*
X158639500Y-121536000D02*
X158644500Y-120246000D01*
X168570050Y-50920000D02*
X172645000Y-50920000D01*
X182155000Y-66664950D02*
G75*
G03*
X182655000Y-66664950I250000J-50D01*
G01*
X122645000Y-50920000D02*
X138757450Y-50920000D01*
X182645000Y-55395000D02*
X182655000Y-66664950D01*
X189145100Y-91395000D02*
X189639500Y-91395000D01*
X122145000Y-44220000D02*
X122145000Y-98695000D01*
X200720000Y-52870000D02*
G75*
G03*
X200720000Y-53370000I100J-250000D01*
G01*
X187345000Y-65595000D02*
X187345000Y-66095000D01*
X189145100Y-90895000D02*
X189639500Y-90895000D01*
X190145000Y-112269950D02*
G75*
G03*
X189645000Y-112269950I-250000J-50D01*
G01*
X179895050Y-53120000D02*
G75*
G03*
X179895050Y-53120000I-250000J0D01*
G01*
X204095000Y-30420000D02*
X206320000Y-30420000D01*
X172645000Y-50420000D02*
X168570050Y-50420000D01*
X182645000Y-53370000D02*
X182645000Y-55395000D01*
X168570050Y-52870000D02*
G75*
G03*
X168570050Y-53370000I-50J-250000D01*
G01*
X122645000Y-50420000D02*
X122645000Y-44245000D01*
X187145100Y-91145000D02*
G75*
G03*
X187145100Y-91145000I-250000J0D01*
G01*
X122145000Y-114645000D02*
X122145000Y-132420000D01*
X168070050Y-50670000D02*
G75*
G03*
X168070050Y-50670000I-250000J0D01*
G01*
X158645000Y-53370000D02*
X158645000Y-69288750D01*
X143507450Y-50670000D02*
G75*
G03*
X143507450Y-50670000I-250000J0D01*
G01*
X158644500Y-114996000D02*
G75*
G03*
X158644500Y-114996000I-250000J0D01*
G01*
X158645000Y-52870000D02*
X158645000Y-50945000D01*
X122645000Y-44220000D02*
G75*
G03*
X122145000Y-44220000I-250000J0D01*
G01*
X162570050Y-52870000D02*
X158645000Y-52870000D01*
X122645000Y-38220000D02*
X122645000Y-30420000D01*
X190145000Y-110769950D02*
G75*
G03*
X190145000Y-110769950I-250000J0D01*
G01*
X182645000Y-83445000D02*
X187345000Y-83445000D01*
X173145000Y-41245000D02*
G75*
G03*
X173145000Y-41245000I-250000J0D01*
G01*
X158645000Y-70788750D02*
G75*
G03*
X158645000Y-70788750I-250000J0D01*
G01*
X164320050Y-50670000D02*
G75*
G03*
X164320050Y-50670000I-250000J0D01*
G01*
X158644500Y-117996000D02*
G75*
G03*
X158644500Y-117996000I-250000J0D01*
G01*
X187345000Y-65595000D02*
X187345000Y-53370000D01*
X194720000Y-53370000D02*
X187820000Y-53378750D01*
X128570000Y-54870000D02*
G75*
G03*
X128570000Y-54870000I-1500000J0D01*
G01*
X158639500Y-127536000D02*
X158639500Y-132420000D01*
X206320000Y-83453750D02*
X187820000Y-83453750D01*
X112470000Y-114395000D02*
G75*
G03*
X112470000Y-114395000I-250000J0D01*
G01*
X122145000Y-105045000D02*
X122145000Y-111045000D01*
X189639500Y-132420000D02*
X189645000Y-120704000D01*
X158644500Y-119496000D02*
G75*
G03*
X158644500Y-119496000I-250000J0D01*
G01*
X170820000Y-91395000D02*
X158639500Y-91386000D01*
X114720000Y-114395000D02*
G75*
G03*
X114720000Y-114395000I-250000J0D01*
G01*
X158645000Y-71538750D02*
G75*
G03*
X158645000Y-71538750I-250000J0D01*
G01*
X104345000Y-30420000D02*
X104320000Y-114145000D01*
X187820000Y-82553750D02*
X187820000Y-53378750D01*
X110970000Y-114395000D02*
G75*
G03*
X110970000Y-114395000I-250000J0D01*
G01*
X158645000Y-53370000D02*
X162570050Y-53370000D01*
X119670000Y-37920000D02*
G75*
G03*
X119670000Y-37920000I-1500000J0D01*
G01*
X186395100Y-91145000D02*
G75*
G03*
X186395100Y-91145000I-250000J0D01*
G01*
X189645000Y-106269950D02*
G75*
G03*
X190145000Y-106269950I250000J-50D01*
G01*
X115970000Y-114145000D02*
X122145000Y-114145000D01*
X182645000Y-90895000D02*
X182645000Y-83945000D01*
X163570050Y-53120000D02*
G75*
G03*
X163570050Y-53120000I-250000J0D01*
G01*
X188645100Y-91145000D02*
G75*
G03*
X188645100Y-91145000I-250000J0D01*
G01*
X170820000Y-91395000D02*
G75*
G03*
X170820000Y-90895000I-100J250000D01*
G01*
X182145000Y-53370000D02*
X180395050Y-53370000D01*
X178395050Y-53120000D02*
G75*
G03*
X178395050Y-53120000I-250000J0D01*
G01*
X173145000Y-38995000D02*
G75*
G03*
X173145000Y-38995000I-250000J0D01*
G01*
X182655000Y-72664950D02*
X182645000Y-79920000D01*
X183145100Y-91395000D02*
X176820000Y-91395000D01*
X122145000Y-111045000D02*
X122145000Y-114145000D01*
X162570050Y-53370000D02*
G75*
G03*
X162570050Y-52870000I-50J250000D01*
G01*
X174395050Y-52870000D02*
X173145000Y-52870000D01*
X165070050Y-50670000D02*
G75*
G03*
X165070050Y-50670000I-250000J0D01*
G01*
X163570050Y-50670000D02*
G75*
G03*
X163570050Y-50670000I-250000J0D01*
G01*
X122645000Y-50920000D02*
X122645000Y-98695000D01*
X122645000Y-99445000D02*
G75*
G03*
X122645000Y-99445000I-250000J0D01*
G01*
X185645100Y-91145000D02*
G75*
G03*
X185645100Y-91145000I-250000J0D01*
G01*
X195720000Y-53120000D02*
G75*
G03*
X195720000Y-53120000I-250000J0D01*
G01*
X190145000Y-112269950D02*
X190145000Y-120704000D01*
X158645000Y-70038750D02*
G75*
G03*
X158645000Y-70038750I-250000J0D01*
G01*
X168070050Y-53120000D02*
G75*
G03*
X168070050Y-53120000I-250000J0D01*
G01*
X206320000Y-82553750D02*
X206320000Y-83453750D01*
X173145000Y-41995000D02*
G75*
G03*
X173145000Y-41995000I-250000J0D01*
G01*
X158644500Y-115746000D02*
G75*
G03*
X158644500Y-115746000I-250000J0D01*
G01*
X158644500Y-118746000D02*
G75*
G03*
X158644500Y-118746000I-250000J0D01*
G01*
X173145000Y-44245000D02*
G75*
G03*
X172645000Y-44245000I-250000J0D01*
G01*
X158144500Y-114246000D02*
G75*
G03*
X158644500Y-114246000I250000J-50D01*
G01*
X158145000Y-69288750D02*
G75*
G03*
X158645000Y-69288750I250000J-50D01*
G01*
X158645000Y-50920000D02*
X162570050Y-50920000D01*
X189145100Y-90895000D02*
G75*
G03*
X189145100Y-91395000I0J-250000D01*
G01*
X168570050Y-53370000D02*
X174395050Y-53370000D01*
X173145000Y-43495000D02*
G75*
G03*
X173145000Y-43495000I-250000J0D01*
G01*
X187895100Y-91145000D02*
G75*
G03*
X187895100Y-91145000I-250000J0D01*
G01*
X115970000Y-114645000D02*
X122145000Y-114645000D01*
X189645000Y-120704000D02*
X189645000Y-112269950D01*
X115970000Y-114145000D02*
G75*
G03*
X115970000Y-114645000I100J-250000D01*
G01*
X158644500Y-120246000D02*
G75*
G03*
X158144500Y-120246000I-250000J-50D01*
G01*
X190145000Y-85220000D02*
X206320000Y-85220000D01*
X162570050Y-50420000D02*
X144757450Y-50420000D01*
X182655000Y-68914950D02*
G75*
G03*
X182655000Y-68914950I-250000J0D01*
G01*
X158645000Y-74538750D02*
G75*
G03*
X158645000Y-74538750I-250000J0D01*
G01*
X197970000Y-53120000D02*
G75*
G03*
X197970000Y-53120000I-250000J0D01*
G01*
X176820000Y-90895000D02*
G75*
G03*
X176820000Y-91395000I0J-250000D01*
G01*
X122645000Y-30420000D02*
X172645000Y-30420000D01*
X196470000Y-53120000D02*
G75*
G03*
X196470000Y-53120000I-250000J0D01*
G01*
X190145000Y-109269950D02*
G75*
G03*
X190145000Y-109269950I-250000J0D01*
G01*
X182655000Y-68164950D02*
G75*
G03*
X182655000Y-68164950I-250000J0D01*
G01*
X142007450Y-50670000D02*
G75*
G03*
X142007450Y-50670000I-250000J0D01*
G01*
X122145000Y-132420000D02*
X104320000Y-132420000D01*
X122145000Y-98695000D02*
G75*
G03*
X122645000Y-98695000I250000J0D01*
G01*
X175395050Y-53120000D02*
G75*
G03*
X175395050Y-53120000I-250000J0D01*
G01*
X174070000Y-91145000D02*
G75*
G03*
X174070000Y-91145000I-250000J0D01*
G01*
X172570000Y-91145000D02*
G75*
G03*
X172570000Y-91145000I-250000J0D01*
G01*
X206320000Y-30420000D02*
X206320000Y-52870000D01*
X172645000Y-30420000D02*
X172645000Y-38245000D01*
X179145050Y-53120000D02*
G75*
G03*
X179145050Y-53120000I-250000J0D01*
G01*
X173145000Y-44245000D02*
X173145000Y-52870000D01*
X173145000Y-40495000D02*
G75*
G03*
X173145000Y-40495000I-250000J0D01*
G01*
X122645000Y-103945000D02*
G75*
G03*
X122645000Y-103945000I-250000J0D01*
G01*
X122645000Y-100195000D02*
G75*
G03*
X122645000Y-100195000I-250000J0D01*
G01*
X176895050Y-53120000D02*
G75*
G03*
X176895050Y-53120000I-250000J0D01*
G01*
X182655000Y-70414950D02*
G75*
G03*
X182655000Y-70414950I-250000J0D01*
G01*
X122645000Y-101695000D02*
G75*
G03*
X122645000Y-101695000I-250000J0D01*
G01*
X170820000Y-90895000D02*
X158645000Y-90895000D01*
X180395050Y-52870000D02*
G75*
G03*
X180395050Y-53370000I-50J-250000D01*
G01*
X158645000Y-75288750D02*
X158645000Y-90895000D01*
X190145000Y-106269950D02*
X190145000Y-85220000D01*
X158645000Y-73038750D02*
G75*
G03*
X158645000Y-73038750I-250000J0D01*
G01*
X187345000Y-83445000D02*
X187345000Y-66095000D01*
X182655000Y-71914950D02*
G75*
G03*
X182655000Y-71914950I-250000J0D01*
G01*
X182655000Y-69664950D02*
G75*
G03*
X182655000Y-69664950I-250000J0D01*
G01*
X122645000Y-100945000D02*
G75*
G03*
X122645000Y-100945000I-250000J0D01*
G01*
X190145000Y-107019950D02*
G75*
G03*
X190145000Y-107019950I-250000J0D01*
G01*
X182655000Y-67414950D02*
G75*
G03*
X182655000Y-67414950I-250000J0D01*
G01*
X182645000Y-53370000D02*
X187345000Y-53370000D01*
X182155000Y-72664950D02*
X182145000Y-79270000D01*
X171820000Y-91145000D02*
G75*
G03*
X171820000Y-91145000I-250000J0D01*
G01*
X172645000Y-44270000D02*
X172645000Y-50420000D01*
X189639500Y-90895000D02*
X189645000Y-83945000D01*
X183145100Y-91395000D02*
G75*
G03*
X183145100Y-90895000I-100J250000D01*
G01*
X158639500Y-121536000D02*
X158639500Y-127536000D01*
X197220000Y-53120000D02*
G75*
G03*
X197220000Y-53120000I-250000J0D01*
G01*
X173145000Y-30420000D02*
X204095000Y-30420000D01*
X206320000Y-53370000D02*
X206320000Y-82553750D01*
X158644500Y-114246000D02*
X158639500Y-91386000D01*
X111720000Y-114395000D02*
G75*
G03*
X111720000Y-114395000I-250000J0D01*
G01*
X158645000Y-50945000D02*
X158645000Y-50920000D01*
X166570050Y-50670000D02*
G75*
G03*
X166570050Y-50670000I-250000J0D01*
G01*
X184895100Y-91145000D02*
G75*
G03*
X184895100Y-91145000I-250000J0D01*
G01*
X113220000Y-114395000D02*
G75*
G03*
X113220000Y-114395000I-250000J0D01*
G01*
X190145000Y-110019950D02*
G75*
G03*
X190145000Y-110019950I-250000J0D01*
G01*
X115470000Y-114395000D02*
G75*
G03*
X115470000Y-114395000I-250000J0D01*
G01*
X165820050Y-50670000D02*
G75*
G03*
X165820050Y-50670000I-250000J0D01*
G01*
X122645000Y-104695000D02*
X122645000Y-132420000D01*
X141257450Y-50670000D02*
G75*
G03*
X141257450Y-50670000I-250000J0D01*
G01*
X119645000Y-106645000D02*
G75*
G03*
X119645000Y-106645000I-1500000J0D01*
G01*
X206320000Y-85220000D02*
X206320000Y-86370000D01*
X158645000Y-72288750D02*
G75*
G03*
X158645000Y-72288750I-250000J0D01*
G01*
X122645000Y-38970000D02*
G75*
G03*
X122645000Y-38970000I-250000J0D01*
G01*
X182645000Y-83945000D02*
X189645000Y-83945000D01*
X144757450Y-50920000D02*
X158145000Y-50920000D01*
X142757450Y-50670000D02*
G75*
G03*
X142757450Y-50670000I-250000J0D01*
G01*
X122645000Y-41970000D02*
G75*
G03*
X122645000Y-41970000I-250000J0D01*
G01*
X167320050Y-53120000D02*
G75*
G03*
X167320050Y-53120000I-250000J0D01*
G01*
X139757450Y-50670000D02*
G75*
G03*
X139757450Y-50670000I-250000J0D01*
G01*
X166570050Y-53120000D02*
G75*
G03*
X166570050Y-53120000I-250000J0D01*
G01*
X109970000Y-114645000D02*
G75*
G03*
X109970000Y-114145000I0J250000D01*
G01*
X144257450Y-50670000D02*
G75*
G03*
X144257450Y-50670000I-250000J0D01*
G01*
X165070050Y-53120000D02*
G75*
G03*
X165070050Y-53120000I-250000J0D01*
G01*
X173145000Y-39745000D02*
G75*
G03*
X173145000Y-39745000I-250000J0D01*
G01*
X167320050Y-50670000D02*
G75*
G03*
X167320050Y-50670000I-250000J0D01*
G01*
X182655000Y-72664950D02*
G75*
G03*
X182155000Y-72664950I-250000J-50D01*
G01*
X104320000Y-114145000D02*
X109970000Y-114145000D01*
X104320000Y-114645000D02*
X104320000Y-132420000D01*
X158645000Y-75288750D02*
G75*
G03*
X158145000Y-75288750I-250000J-50D01*
G01*
X182145000Y-53370000D02*
X182145000Y-55395000D01*
X200720000Y-52870000D02*
X206320000Y-52870000D01*
X138757450Y-50420000D02*
X122645000Y-50420000D01*
X200220000Y-53120000D02*
G75*
G03*
X200220000Y-53120000I-250000J0D01*
G01*
M02*
