%TF.GenerationSoftware,KiCad,Pcbnew,(6.0.5)*%
%TF.CreationDate,2023-05-31T00:43:39+03:00*%
%TF.ProjectId,JLC1,4a4c4331-2e6b-4696-9361-645f70636258,rev?*%
%TF.SameCoordinates,Original*%
%TF.FileFunction,Soldermask,Top*%
%TF.FilePolarity,Negative*%
%FSLAX46Y46*%
G04 Gerber Fmt 4.6, Leading zero omitted, Abs format (unit mm)*
G04 Created by KiCad (PCBNEW (6.0.5)) date 2023-05-31 00:43:39*
%MOMM*%
%LPD*%
G01*
G04 APERTURE LIST*
G04 Aperture macros list*
%AMRoundRect*
0 Rectangle with rounded corners*
0 $1 Rounding radius*
0 $2 $3 $4 $5 $6 $7 $8 $9 X,Y pos of 4 corners*
0 Add a 4 corners polygon primitive as box body*
4,1,4,$2,$3,$4,$5,$6,$7,$8,$9,$2,$3,0*
0 Add four circle primitives for the rounded corners*
1,1,$1+$1,$2,$3*
1,1,$1+$1,$4,$5*
1,1,$1+$1,$6,$7*
1,1,$1+$1,$8,$9*
0 Add four rect primitives between the rounded corners*
20,1,$1+$1,$2,$3,$4,$5,0*
20,1,$1+$1,$4,$5,$6,$7,0*
20,1,$1+$1,$6,$7,$8,$9,0*
20,1,$1+$1,$8,$9,$2,$3,0*%
G04 Aperture macros list end*
%ADD10RoundRect,0.250000X0.312500X0.625000X-0.312500X0.625000X-0.312500X-0.625000X0.312500X-0.625000X0*%
%ADD11R,1.600000X1.600000*%
%ADD12C,1.600000*%
%ADD13C,4.000000*%
%ADD14RoundRect,0.250000X-0.312500X-0.625000X0.312500X-0.625000X0.312500X0.625000X-0.312500X0.625000X0*%
%ADD15RoundRect,0.250000X0.625000X-0.312500X0.625000X0.312500X-0.625000X0.312500X-0.625000X-0.312500X0*%
%ADD16R,1.700000X1.700000*%
%ADD17O,1.700000X1.700000*%
%ADD18RoundRect,0.250000X-0.625000X0.312500X-0.625000X-0.312500X0.625000X-0.312500X0.625000X0.312500X0*%
%ADD19RoundRect,0.175000X-0.175000X-0.575000X0.175000X-0.575000X0.175000X0.575000X-0.175000X0.575000X0*%
%ADD20R,1.300000X1.550000*%
%ADD21R,2.500000X2.200000*%
%ADD22R,1.550000X2.200000*%
%ADD23R,0.508000X1.473200*%
%ADD24R,1.473200X0.508000*%
%ADD25RoundRect,0.197500X-0.197500X-0.632500X0.197500X-0.632500X0.197500X0.632500X-0.197500X0.632500X0*%
%ADD26R,2.200000X2.200000*%
%ADD27R,1.250000X2.200000*%
%ADD28R,1.500000X1.600000*%
%ADD29C,3.000000*%
%ADD30RoundRect,0.250000X-0.250000X-0.475000X0.250000X-0.475000X0.250000X0.475000X-0.250000X0.475000X0*%
%ADD31RoundRect,0.250000X0.250000X0.475000X-0.250000X0.475000X-0.250000X-0.475000X0.250000X-0.475000X0*%
%ADD32R,0.300000X1.275000*%
%ADD33R,1.525000X0.440000*%
%ADD34R,0.599440X1.998980*%
%ADD35R,1.000000X1.500000*%
%ADD36R,2.200000X2.500000*%
%ADD37R,2.200000X1.550000*%
%ADD38R,1.475000X0.300000*%
%ADD39R,0.300000X1.475000*%
%ADD40RoundRect,0.250000X-0.750000X0.250000X-0.750000X-0.250000X0.750000X-0.250000X0.750000X0.250000X0*%
%ADD41R,0.550000X1.600000*%
%ADD42R,1.600000X0.550000*%
%ADD43RoundRect,0.250000X-0.412500X-0.650000X0.412500X-0.650000X0.412500X0.650000X-0.412500X0.650000X0*%
%ADD44R,1.600000X1.500000*%
%ADD45R,1.000000X0.500000*%
%ADD46C,0.425000*%
%ADD47R,0.500000X0.800000*%
%ADD48R,0.400000X1.900000*%
%ADD49RoundRect,0.250000X-0.475000X0.250000X-0.475000X-0.250000X0.475000X-0.250000X0.475000X0.250000X0*%
%ADD50R,1.550000X1.300000*%
%ADD51RoundRect,0.062500X0.337500X0.062500X-0.337500X0.062500X-0.337500X-0.062500X0.337500X-0.062500X0*%
%ADD52RoundRect,0.062500X0.062500X0.337500X-0.062500X0.337500X-0.062500X-0.337500X0.062500X-0.337500X0*%
%ADD53R,3.600000X3.600000*%
%ADD54RoundRect,0.250000X-0.325000X-0.650000X0.325000X-0.650000X0.325000X0.650000X-0.325000X0.650000X0*%
%ADD55C,0.900000*%
%ADD56R,0.500000X2.500000*%
%ADD57R,2.000000X2.500000*%
%ADD58C,1.100000*%
%ADD59R,1.100000X2.500000*%
%ADD60O,1.900000X3.500000*%
%ADD61RoundRect,0.250000X-0.650000X0.325000X-0.650000X-0.325000X0.650000X-0.325000X0.650000X0.325000X0*%
%ADD62RoundRect,0.250000X0.475000X-0.250000X0.475000X0.250000X-0.475000X0.250000X-0.475000X-0.250000X0*%
%ADD63RoundRect,0.250000X0.325000X0.650000X-0.325000X0.650000X-0.325000X-0.650000X0.325000X-0.650000X0*%
%ADD64R,1.900000X0.400000*%
%ADD65R,0.500000X0.300000*%
%ADD66R,1.050000X1.750000*%
%ADD67R,1.000000X0.750000*%
%ADD68RoundRect,0.049600X0.605400X0.260400X-0.605400X0.260400X-0.605400X-0.260400X0.605400X-0.260400X0*%
%ADD69C,0.550000*%
%ADD70R,1.560000X1.560000*%
%ADD71C,1.560000*%
G04 APERTURE END LIST*
D10*
%TO.C,330R*%
X190770000Y-36520000D03*
X187845000Y-36520000D03*
%TD*%
%TO.C,330R*%
X190770000Y-38470000D03*
X187845000Y-38470000D03*
%TD*%
D11*
%TO.C,USB*%
X172314500Y-124345000D03*
D12*
X169814500Y-124345000D03*
X169814500Y-126345000D03*
X172314500Y-126345000D03*
D13*
X177064500Y-129205000D03*
X165064500Y-129205000D03*
%TD*%
D14*
%TO.C,2K7*%
X141882500Y-92120000D03*
X144807500Y-92120000D03*
%TD*%
D15*
%TO.C,330R*%
X141045000Y-72782500D03*
X141045000Y-69857500D03*
%TD*%
D16*
%TO.C,REF\u002A\u002A*%
X105660000Y-128670000D03*
D17*
X105660000Y-126130000D03*
X105660000Y-123590000D03*
X105660000Y-121050000D03*
X105660000Y-118510000D03*
X105660000Y-115970000D03*
%TD*%
D15*
%TO.C,2K7*%
X118705000Y-129627500D03*
X118705000Y-126702500D03*
%TD*%
D18*
%TO.C,R7*%
X195635000Y-120962500D03*
X195635000Y-123887500D03*
%TD*%
D16*
%TO.C,REF\u002A\u002A*%
X170200000Y-33745600D03*
D17*
X170200000Y-36285600D03*
X170200000Y-38825600D03*
X170200000Y-41365600D03*
X170200000Y-43905600D03*
X170200000Y-46445600D03*
X170200000Y-48985600D03*
%TD*%
D19*
%TO.C,*%
X183195000Y-82745000D03*
%TD*%
D15*
%TO.C,330R*%
X179139500Y-96030000D03*
X179139500Y-93105000D03*
%TD*%
D20*
%TO.C,RESET*%
X182864500Y-130105000D03*
X182864500Y-122155000D03*
X187364500Y-122155000D03*
X187364500Y-130105000D03*
%TD*%
D10*
%TO.C,47K*%
X108932500Y-39345000D03*
X106007500Y-39345000D03*
%TD*%
D21*
%TO.C,PORT2*%
X146695000Y-63345000D03*
D22*
X144120000Y-63345000D03*
%TD*%
D10*
%TO.C,220R*%
X108932500Y-70245000D03*
X106007500Y-70245000D03*
%TD*%
D16*
%TO.C,REF\u002A\u002A*%
X173545000Y-55845000D03*
D17*
X171005000Y-55845000D03*
X168465000Y-55845000D03*
X165925000Y-55845000D03*
X163385000Y-55845000D03*
X160845000Y-55845000D03*
%TD*%
D19*
%TO.C,*%
X184095000Y-54070000D03*
%TD*%
D16*
%TO.C,REF\u002A\u002A*%
X146665872Y-46332500D03*
D17*
X144125872Y-46332500D03*
X141585872Y-46332500D03*
X139045872Y-46332500D03*
X136505872Y-46332500D03*
X133965872Y-46332500D03*
X131425872Y-46332500D03*
X128885872Y-46332500D03*
%TD*%
D23*
%TO.C,ATmega32U4*%
X168334600Y-112241800D03*
X169122000Y-112241800D03*
X169934800Y-112241800D03*
X170722200Y-112241800D03*
X171535000Y-112241800D03*
X172322400Y-112241800D03*
X173109800Y-112241800D03*
X173922600Y-112241800D03*
X174710000Y-112241800D03*
X175522800Y-112241800D03*
X176310200Y-112241800D03*
D24*
X178062800Y-110489200D03*
X178062800Y-109701800D03*
X178062800Y-108889000D03*
X178062800Y-108101600D03*
X178062800Y-107288800D03*
X178062800Y-106501400D03*
X178062800Y-105714000D03*
X178062800Y-104901200D03*
X178062800Y-104113800D03*
X178062800Y-103301000D03*
X178062800Y-102513600D03*
D23*
X176310200Y-100761000D03*
X175522800Y-100761000D03*
X174710000Y-100761000D03*
X173922600Y-100761000D03*
X173109800Y-100761000D03*
X172322400Y-100761000D03*
X171535000Y-100761000D03*
X170722200Y-100761000D03*
X169934800Y-100761000D03*
X169122000Y-100761000D03*
X168334600Y-100761000D03*
D24*
X166582000Y-102513600D03*
X166582000Y-103301000D03*
X166582000Y-104113800D03*
X166582000Y-104901200D03*
X166582000Y-105714000D03*
X166582000Y-106501400D03*
X166582000Y-107288800D03*
X166582000Y-108101600D03*
X166582000Y-108889000D03*
X166582000Y-109701800D03*
X166582000Y-110489200D03*
%TD*%
D20*
%TO.C,RESET*%
X164570000Y-81445000D03*
X164570000Y-89395000D03*
X160070000Y-81445000D03*
X160070000Y-89395000D03*
%TD*%
D19*
%TO.C,*%
X185895000Y-54070000D03*
%TD*%
D15*
%TO.C,22R*%
X174520000Y-83176250D03*
X174520000Y-80251250D03*
%TD*%
D25*
%TO.C,REF\u002A\u002A*%
X110745000Y-64720000D03*
X110745000Y-60720000D03*
X112545000Y-64720000D03*
X112545000Y-60720000D03*
%TD*%
D12*
%TO.C,22pF*%
X135445000Y-55895000D03*
X137945000Y-55895000D03*
%TD*%
D21*
%TO.C,REF\u002A\u002A*%
X183370000Y-36145000D03*
D22*
X185945000Y-36145000D03*
%TD*%
D21*
%TO.C,REF\u002A\u002A*%
X195545000Y-47520000D03*
D22*
X198120000Y-47520000D03*
%TD*%
D21*
%TO.C,PORT4*%
X143945000Y-56345000D03*
D22*
X146520000Y-56345000D03*
%TD*%
D26*
%TO.C,REF\u002A\u002A*%
X184220000Y-63195000D03*
D27*
X186495000Y-63195000D03*
%TD*%
D28*
%TO.C,USB1*%
X134780000Y-114290000D03*
D12*
X134780000Y-116790000D03*
X134780000Y-118790000D03*
X134780000Y-121290000D03*
D29*
X132070000Y-111220000D03*
X132070000Y-124360000D03*
%TD*%
D30*
%TO.C,0.1uF*%
X164997400Y-113301400D03*
X166897400Y-113301400D03*
%TD*%
D15*
%TO.C,330R*%
X144870000Y-72782500D03*
X144870000Y-69857500D03*
%TD*%
D31*
%TO.C,1uF*%
X203045000Y-47545000D03*
X201145000Y-47545000D03*
%TD*%
D10*
%TO.C,47K*%
X108945000Y-67920000D03*
X106020000Y-67920000D03*
%TD*%
D16*
%TO.C,REF\u002A\u002A*%
X187014500Y-113595000D03*
D17*
X187014500Y-111055000D03*
X187014500Y-108515000D03*
X187014500Y-105975000D03*
X187014500Y-103435000D03*
X187014500Y-100895000D03*
X187014500Y-98355000D03*
X187014500Y-95815000D03*
%TD*%
D18*
%TO.C,22R*%
X172214500Y-118232500D03*
X172214500Y-121157500D03*
%TD*%
D16*
%TO.C,REF\u002A\u002A*%
X179720000Y-73060000D03*
D17*
X179720000Y-70520000D03*
X179720000Y-67980000D03*
X179720000Y-65440000D03*
X179720000Y-62900000D03*
X179720000Y-60360000D03*
X179720000Y-57820000D03*
X179720000Y-55280000D03*
%TD*%
D21*
%TO.C,REF\u002A\u002A*%
X183345000Y-39595000D03*
D22*
X185920000Y-39595000D03*
%TD*%
D16*
%TO.C,REF\u002A\u002A*%
X189795000Y-71953750D03*
D17*
X189795000Y-69413750D03*
X189795000Y-66873750D03*
X189795000Y-64333750D03*
%TD*%
D16*
%TO.C,REF\u002A\u002A*%
X162135000Y-112276400D03*
D17*
X162135000Y-109736400D03*
X162135000Y-107196400D03*
X162135000Y-104656400D03*
X162135000Y-102116400D03*
X162135000Y-99576400D03*
%TD*%
D19*
%TO.C,*%
X185895000Y-82745000D03*
%TD*%
D15*
%TO.C,*%
X148545000Y-72795000D03*
%TD*%
D32*
%TO.C,m1*%
X204485000Y-88475000D03*
X203985000Y-88475000D03*
X203485000Y-88475000D03*
X202985000Y-88475000D03*
X202485000Y-88475000D03*
X201985000Y-88475000D03*
X201485000Y-88475000D03*
X200985000Y-88475000D03*
X200485000Y-88475000D03*
X199985000Y-88475000D03*
X199485000Y-88475000D03*
X198985000Y-88475000D03*
X198485000Y-88475000D03*
X197985000Y-88475000D03*
X197485000Y-88475000D03*
X196985000Y-88475000D03*
X196485000Y-88475000D03*
X195985000Y-88475000D03*
X195485000Y-88475000D03*
X194985000Y-88475000D03*
X194485000Y-88475000D03*
X193985000Y-88475000D03*
X193485000Y-88475000D03*
X192985000Y-88475000D03*
X192985000Y-108151000D03*
X193485000Y-108151000D03*
X193985000Y-108151000D03*
X194485000Y-108151000D03*
X194985000Y-108151000D03*
X195485000Y-108151000D03*
X195985000Y-108151000D03*
X196485000Y-108151000D03*
X196985000Y-108151000D03*
X197485000Y-108151000D03*
X197985000Y-108151000D03*
X198485000Y-108151000D03*
X198985000Y-108151000D03*
X199485000Y-108151000D03*
X199985000Y-108151000D03*
X200485000Y-108151000D03*
X200985000Y-108151000D03*
X201485000Y-108151000D03*
X201985000Y-108151000D03*
X202485000Y-108151000D03*
X202985000Y-108151000D03*
X203485000Y-108151000D03*
X203985000Y-108151000D03*
X204485000Y-108151000D03*
%TD*%
D10*
%TO.C,220R*%
X108932500Y-89295000D03*
X106007500Y-89295000D03*
%TD*%
D33*
%TO.C,FE1.1s*%
X142066500Y-79855000D03*
X142066500Y-80495000D03*
X142066500Y-81135000D03*
X142066500Y-81775000D03*
X142066500Y-82415000D03*
X142066500Y-83055000D03*
X142066500Y-83695000D03*
X142066500Y-84335000D03*
X142066500Y-84975000D03*
X142066500Y-85615000D03*
X142066500Y-86255000D03*
X142066500Y-86895000D03*
X142066500Y-87535000D03*
X142066500Y-88175000D03*
X147490500Y-88175000D03*
X147490500Y-87535000D03*
X147490500Y-86895000D03*
X147490500Y-86255000D03*
X147490500Y-85615000D03*
X147490500Y-84975000D03*
X147490500Y-84335000D03*
X147490500Y-83695000D03*
X147490500Y-83055000D03*
X147490500Y-82415000D03*
X147490500Y-81775000D03*
X147490500Y-81135000D03*
X147490500Y-80495000D03*
X147490500Y-79855000D03*
%TD*%
D10*
%TO.C,47K*%
X108932500Y-58420000D03*
X106007500Y-58420000D03*
%TD*%
D15*
%TO.C,1K*%
X155420000Y-91657500D03*
X155420000Y-88732500D03*
%TD*%
D10*
%TO.C,220R*%
X108932500Y-98820000D03*
X106007500Y-98820000D03*
%TD*%
D14*
%TO.C,10K*%
X164807500Y-79120000D03*
X167732500Y-79120000D03*
%TD*%
D25*
%TO.C,REF\u002A\u002A*%
X110745000Y-102820000D03*
X110745000Y-98820000D03*
X112545000Y-102820000D03*
X112545000Y-98820000D03*
%TD*%
D34*
%TO.C,REF\u002A\u002A*%
X152852500Y-38280300D03*
X154122500Y-38280300D03*
X155392500Y-38280300D03*
X156662500Y-38280300D03*
X157932500Y-38280300D03*
X159202500Y-38280300D03*
X160472500Y-38280300D03*
X161742500Y-38280300D03*
X161742500Y-33479700D03*
X160472500Y-33479700D03*
X159202500Y-33479700D03*
X157932500Y-33479700D03*
X156662500Y-33479700D03*
X155392500Y-33479700D03*
X154122500Y-33479700D03*
X152852500Y-33479700D03*
%TD*%
D16*
%TO.C,REF\u002A\u002A*%
X177160000Y-115264000D03*
D17*
X179700000Y-115264000D03*
X177160000Y-117804000D03*
X179700000Y-117804000D03*
X177160000Y-120344000D03*
X179700000Y-120344000D03*
%TD*%
D35*
%TO.C,FUSE*%
X150070000Y-80095000D03*
X151370000Y-80095000D03*
%TD*%
D26*
%TO.C,D3*%
X191600000Y-116365000D03*
D27*
X193875000Y-116365000D03*
%TD*%
D10*
%TO.C,100nF*%
X173682500Y-59970000D03*
X170757500Y-59970000D03*
%TD*%
D25*
%TO.C,REF\u002A\u002A*%
X110745000Y-93295000D03*
X110745000Y-89295000D03*
X112545000Y-93295000D03*
X112545000Y-89295000D03*
%TD*%
D10*
%TO.C,220R*%
X108932500Y-60745000D03*
X106007500Y-60745000D03*
%TD*%
D20*
%TO.C,RESET*%
X155620000Y-96770000D03*
X155620000Y-104720000D03*
X151120000Y-104720000D03*
X151120000Y-96770000D03*
%TD*%
D26*
%TO.C,REF\u002A\u002A*%
X184145000Y-79570000D03*
D27*
X186420000Y-79570000D03*
%TD*%
D14*
%TO.C,R5*%
X202472500Y-86375000D03*
X205397500Y-86375000D03*
%TD*%
D15*
%TO.C,2K7*%
X109160000Y-124535000D03*
X109160000Y-121610000D03*
%TD*%
D10*
%TO.C,FUSE*%
X152507500Y-83945000D03*
X149582500Y-83945000D03*
%TD*%
D16*
%TO.C,REF\u002A\u002A*%
X105640000Y-131240000D03*
D17*
X108180000Y-131240000D03*
X110720000Y-131240000D03*
X113260000Y-131240000D03*
%TD*%
D28*
%TO.C,USB2*%
X134805000Y-97040000D03*
D12*
X134805000Y-99540000D03*
X134805000Y-101540000D03*
X134805000Y-104040000D03*
D29*
X132095000Y-93970000D03*
X132095000Y-107110000D03*
%TD*%
D31*
%TO.C,C5*%
X205385000Y-123925000D03*
X203485000Y-123925000D03*
%TD*%
D18*
%TO.C,1K*%
X108760000Y-108707500D03*
X108760000Y-111632500D03*
%TD*%
D21*
%TO.C,PORT1*%
X146795000Y-66845000D03*
D22*
X149370000Y-66845000D03*
%TD*%
D19*
%TO.C,*%
X186795000Y-54070000D03*
%TD*%
D10*
%TO.C,47K*%
X108932500Y-48870000D03*
X106007500Y-48870000D03*
%TD*%
D36*
%TO.C,REF\u002A\u002A*%
X202970000Y-69576250D03*
D37*
X202970000Y-67001250D03*
%TD*%
D16*
%TO.C,REF\u002A\u002A*%
X166965872Y-46332500D03*
D17*
X164425872Y-46332500D03*
X161885872Y-46332500D03*
X159345872Y-46332500D03*
X156805872Y-46332500D03*
X154265872Y-46332500D03*
X151725872Y-46332500D03*
X149185872Y-46332500D03*
%TD*%
D18*
%TO.C,330R*%
X178795000Y-43807500D03*
X178795000Y-46732500D03*
%TD*%
D19*
%TO.C,*%
X184095000Y-82745000D03*
%TD*%
D38*
%TO.C,f1*%
X195997000Y-114213000D03*
X195997000Y-114713000D03*
X195997000Y-115213000D03*
X195997000Y-115713000D03*
X195997000Y-116213000D03*
X195997000Y-116713000D03*
X195997000Y-117213000D03*
X195997000Y-117713000D03*
X195997000Y-118213000D03*
X195997000Y-118713000D03*
X195997000Y-119213000D03*
X195997000Y-119713000D03*
D39*
X197485000Y-121201000D03*
X197985000Y-121201000D03*
X198485000Y-121201000D03*
X198985000Y-121201000D03*
X199485000Y-121201000D03*
X199985000Y-121201000D03*
X200485000Y-121201000D03*
X200985000Y-121201000D03*
X201485000Y-121201000D03*
X201985000Y-121201000D03*
X202485000Y-121201000D03*
X202985000Y-121201000D03*
D38*
X204473000Y-119713000D03*
X204473000Y-119213000D03*
X204473000Y-118713000D03*
X204473000Y-118213000D03*
X204473000Y-117713000D03*
X204473000Y-117213000D03*
X204473000Y-116713000D03*
X204473000Y-116213000D03*
X204473000Y-115713000D03*
X204473000Y-115213000D03*
X204473000Y-114713000D03*
X204473000Y-114213000D03*
D39*
X202985000Y-112725000D03*
X202485000Y-112725000D03*
X201985000Y-112725000D03*
X201485000Y-112725000D03*
X200985000Y-112725000D03*
X200485000Y-112725000D03*
X199985000Y-112725000D03*
X199485000Y-112725000D03*
X198985000Y-112725000D03*
X198485000Y-112725000D03*
X197985000Y-112725000D03*
X197485000Y-112725000D03*
%TD*%
D40*
%TO.C,REF\u002A\u002A*%
X195635000Y-122475000D03*
%TD*%
D14*
%TO.C,REF\u002A\u002A*%
X183545000Y-76845000D03*
X186470000Y-76845000D03*
%TD*%
D41*
%TO.C,ATmega16U2*%
X200095000Y-35895000D03*
X199295000Y-35895000D03*
X198495000Y-35895000D03*
X197695000Y-35895000D03*
X196895000Y-35895000D03*
X196095000Y-35895000D03*
X195295000Y-35895000D03*
X194495000Y-35895000D03*
D42*
X193045000Y-37345000D03*
X193045000Y-38145000D03*
X193045000Y-38945000D03*
X193045000Y-39745000D03*
X193045000Y-40545000D03*
X193045000Y-41345000D03*
X193045000Y-42145000D03*
X193045000Y-42945000D03*
D41*
X194495000Y-44395000D03*
X195295000Y-44395000D03*
X196095000Y-44395000D03*
X196895000Y-44395000D03*
X197695000Y-44395000D03*
X198495000Y-44395000D03*
X199295000Y-44395000D03*
X200095000Y-44395000D03*
D42*
X201545000Y-42945000D03*
X201545000Y-42145000D03*
X201545000Y-41345000D03*
X201545000Y-40545000D03*
X201545000Y-39745000D03*
X201545000Y-38945000D03*
X201545000Y-38145000D03*
X201545000Y-37345000D03*
%TD*%
D16*
%TO.C,REF\u002A\u002A*%
X162089500Y-95870000D03*
D17*
X164629500Y-95870000D03*
X167169500Y-95870000D03*
X169709500Y-95870000D03*
X172249500Y-95870000D03*
X174789500Y-95870000D03*
%TD*%
D43*
%TO.C,10uF*%
X141632500Y-96195000D03*
X144757500Y-96195000D03*
%TD*%
D21*
%TO.C,REF\u002A\u002A*%
X165495000Y-73770000D03*
D22*
X168070000Y-73770000D03*
%TD*%
D10*
%TO.C,220R*%
X108932500Y-41670000D03*
X106007500Y-41670000D03*
%TD*%
D26*
%TO.C,REF\u002A\u002A*%
X184195000Y-68645000D03*
D27*
X186470000Y-68645000D03*
%TD*%
D19*
%TO.C,*%
X186795000Y-82745000D03*
%TD*%
D21*
%TO.C,TX*%
X182814500Y-99545000D03*
D22*
X180239500Y-99545000D03*
%TD*%
D14*
%TO.C,REF\u002A\u002A*%
X183595000Y-65920000D03*
X186520000Y-65920000D03*
%TD*%
D10*
%TO.C,220R*%
X108932500Y-32145000D03*
X106007500Y-32145000D03*
%TD*%
D15*
%TO.C,330R*%
X182689500Y-96055000D03*
X182689500Y-93130000D03*
%TD*%
D19*
%TO.C,*%
X184995000Y-82745000D03*
%TD*%
D31*
%TO.C,10uF*%
X166889500Y-117495000D03*
X164989500Y-117495000D03*
%TD*%
D30*
%TO.C,C2*%
X195572500Y-86225000D03*
X197472500Y-86225000D03*
%TD*%
D44*
%TO.C,USB_0*%
X145970000Y-120560000D03*
D12*
X148470000Y-120560000D03*
X150470000Y-120560000D03*
X152970000Y-120560000D03*
D29*
X142900000Y-123270000D03*
X156040000Y-123270000D03*
%TD*%
D19*
%TO.C,*%
X184995000Y-54070000D03*
%TD*%
D45*
%TO.C,SW1*%
X193585000Y-119775000D03*
X193585000Y-122775000D03*
X193585000Y-124275000D03*
D46*
X191735000Y-120525000D03*
X191735000Y-123525000D03*
D47*
X192785000Y-125475000D03*
X190685000Y-125475000D03*
X190685000Y-118575000D03*
X192785000Y-118575000D03*
%TD*%
D48*
%TO.C,16MHz*%
X180095000Y-78245000D03*
X178895000Y-78245000D03*
X177695000Y-78245000D03*
%TD*%
D19*
%TO.C,*%
X183195000Y-54070000D03*
%TD*%
D10*
%TO.C,220R*%
X108932500Y-51195000D03*
X106007500Y-51195000D03*
%TD*%
D49*
%TO.C,1uF*%
X172710000Y-114164000D03*
X172710000Y-116064000D03*
%TD*%
D16*
%TO.C,REF\u002A\u002A*%
X160870000Y-78145000D03*
D17*
X160870000Y-75605000D03*
X160870000Y-73065000D03*
X160870000Y-70525000D03*
X160870000Y-67985000D03*
X160870000Y-65445000D03*
X160870000Y-62905000D03*
X160870000Y-60365000D03*
%TD*%
D14*
%TO.C,10K*%
X187845000Y-40420000D03*
X190770000Y-40420000D03*
%TD*%
%TO.C,1K*%
X165332500Y-76670000D03*
X168257500Y-76670000D03*
%TD*%
D15*
%TO.C,330R*%
X148545000Y-72795000D03*
X148545000Y-69870000D03*
%TD*%
D18*
%TO.C,1K*%
X204820000Y-60363750D03*
X204820000Y-63288750D03*
%TD*%
D16*
%TO.C,REF\u002A\u002A*%
X125220000Y-33732500D03*
D17*
X125220000Y-36272500D03*
X125220000Y-38812500D03*
X125220000Y-41352500D03*
X125220000Y-43892500D03*
X125220000Y-46432500D03*
X125220000Y-48972500D03*
%TD*%
D10*
%TO.C,47K*%
X108932500Y-86970000D03*
X106007500Y-86970000D03*
%TD*%
D50*
%TO.C,RESET*%
X189220000Y-43045000D03*
X181270000Y-43045000D03*
X189220000Y-47545000D03*
X181270000Y-47545000D03*
%TD*%
D25*
%TO.C,REF\u002A\u002A*%
X110745000Y-83770000D03*
X110745000Y-79770000D03*
X112545000Y-83770000D03*
X112545000Y-79770000D03*
%TD*%
D51*
%TO.C,AT90USB162*%
X176170000Y-76645000D03*
X176170000Y-76145000D03*
X176170000Y-75645000D03*
X176170000Y-75145000D03*
X176170000Y-74645000D03*
X176170000Y-74145000D03*
X176170000Y-73645000D03*
X176170000Y-73145000D03*
D52*
X175470000Y-72445000D03*
X174970000Y-72445000D03*
X174470000Y-72445000D03*
X173970000Y-72445000D03*
X173470000Y-72445000D03*
X172970000Y-72445000D03*
X172470000Y-72445000D03*
X171970000Y-72445000D03*
D51*
X171270000Y-73145000D03*
X171270000Y-73645000D03*
X171270000Y-74145000D03*
X171270000Y-74645000D03*
X171270000Y-75145000D03*
X171270000Y-75645000D03*
X171270000Y-76145000D03*
X171270000Y-76645000D03*
D52*
X171970000Y-77345000D03*
X172470000Y-77345000D03*
X172970000Y-77345000D03*
X173470000Y-77345000D03*
X173970000Y-77345000D03*
X174470000Y-77345000D03*
X174970000Y-77345000D03*
X175470000Y-77345000D03*
D53*
X173720000Y-74895000D03*
%TD*%
D18*
%TO.C,22R*%
X169845500Y-118240500D03*
X169845500Y-121165500D03*
%TD*%
D25*
%TO.C,REF\u002A\u002A*%
X110745000Y-36145000D03*
X110745000Y-32145000D03*
X112545000Y-36145000D03*
X112545000Y-32145000D03*
%TD*%
D15*
%TO.C,2K7*%
X116375000Y-129627500D03*
X116375000Y-126702500D03*
%TD*%
D16*
%TO.C,REF\u002A\u002A*%
X160664500Y-129830000D03*
D17*
X160664500Y-127290000D03*
X160664500Y-124750000D03*
X160664500Y-122210000D03*
%TD*%
D10*
%TO.C,100nF*%
X167382500Y-59620000D03*
X164457500Y-59620000D03*
%TD*%
D16*
%TO.C,-BAT+*%
X187014500Y-118695000D03*
D17*
X187014500Y-116155000D03*
%TD*%
D54*
%TO.C,100nF*%
X191395000Y-60076250D03*
X194345000Y-60076250D03*
%TD*%
D55*
%TO.C,USB*%
X195545000Y-78926250D03*
X199945000Y-78926250D03*
D56*
X196145000Y-76326250D03*
X196945000Y-76326250D03*
X197745000Y-76326250D03*
X198545000Y-76326250D03*
X199345000Y-76326250D03*
D57*
X202145000Y-81826250D03*
X193345000Y-76326250D03*
X193345000Y-81826250D03*
X202145000Y-76326250D03*
%TD*%
D25*
%TO.C,REF\u002A\u002A*%
X110745000Y-74245000D03*
X110745000Y-70245000D03*
X112545000Y-74245000D03*
X112545000Y-70245000D03*
%TD*%
D35*
%TO.C,BTN*%
X150420000Y-90670000D03*
X151720000Y-90670000D03*
%TD*%
D10*
%TO.C,47K*%
X108932500Y-96495000D03*
X106007500Y-96495000D03*
%TD*%
D14*
%TO.C,10K*%
X180577000Y-111855000D03*
X183502000Y-111855000D03*
%TD*%
D10*
%TO.C,R3*%
X193997500Y-86375000D03*
X191072500Y-86375000D03*
%TD*%
D43*
%TO.C,10uF*%
X141682500Y-103945000D03*
X144807500Y-103945000D03*
%TD*%
D31*
%TO.C,C8*%
X205385000Y-125950000D03*
X203485000Y-125950000D03*
%TD*%
D36*
%TO.C,POW*%
X162164500Y-118120000D03*
D37*
X162164500Y-115545000D03*
%TD*%
D16*
%TO.C,REF\u002A\u002A*%
X202070000Y-50745000D03*
D17*
X199530000Y-50745000D03*
X196990000Y-50745000D03*
X194450000Y-50745000D03*
X191910000Y-50745000D03*
X189370000Y-50745000D03*
X186830000Y-50745000D03*
X184290000Y-50745000D03*
X181750000Y-50745000D03*
X179210000Y-50745000D03*
%TD*%
D58*
%TO.C,J1*%
X195735000Y-129325000D03*
X200335000Y-129325000D03*
D59*
X201535000Y-126575000D03*
X199035000Y-126575000D03*
X197035000Y-126575000D03*
X194535000Y-126575000D03*
D60*
X192335000Y-129325000D03*
X203735000Y-129325000D03*
%TD*%
D15*
%TO.C,2K7*%
X119110000Y-121475000D03*
X119110000Y-118550000D03*
%TD*%
D58*
%TO.C,USB_0*%
X175620000Y-88688750D03*
X171020000Y-88688750D03*
D59*
X176820000Y-85938750D03*
X174320000Y-85938750D03*
X172320000Y-85938750D03*
X169820000Y-85938750D03*
D60*
X179020000Y-88688750D03*
X167620000Y-88688750D03*
%TD*%
D10*
%TO.C,10uF*%
X167382500Y-61945000D03*
X164457500Y-61945000D03*
%TD*%
D14*
%TO.C,REF\u002A\u002A*%
X183570000Y-71395000D03*
X186495000Y-71395000D03*
%TD*%
D10*
%TO.C,47K*%
X108932500Y-104845000D03*
X106007500Y-104845000D03*
%TD*%
D25*
%TO.C,REF\u002A\u002A*%
X110745000Y-45670000D03*
X110745000Y-41670000D03*
X112545000Y-45670000D03*
X112545000Y-41670000D03*
%TD*%
D35*
%TO.C,TEST*%
X147120000Y-77270000D03*
X148420000Y-77270000D03*
%TD*%
D15*
%TO.C,2K7*%
X111490000Y-124535000D03*
X111490000Y-121610000D03*
%TD*%
D14*
%TO.C,330R*%
X164027000Y-121120000D03*
X166952000Y-121120000D03*
%TD*%
D61*
%TO.C,100nF*%
X178770000Y-38995000D03*
X178770000Y-41945000D03*
%TD*%
D36*
%TO.C,PWR*%
X140445000Y-66295000D03*
D37*
X140445000Y-63720000D03*
%TD*%
D36*
%TO.C,REF\u002A\u002A*%
X135500000Y-34695600D03*
D37*
X135500000Y-32120600D03*
%TD*%
D21*
%TO.C,RX*%
X182814500Y-103120000D03*
D22*
X180239500Y-103120000D03*
%TD*%
D25*
%TO.C,REF\u002A\u002A*%
X110745000Y-55195000D03*
X110745000Y-51195000D03*
X112545000Y-55195000D03*
X112545000Y-51195000D03*
%TD*%
D62*
%TO.C,1uF*%
X169820000Y-83220000D03*
X169820000Y-81320000D03*
%TD*%
D63*
%TO.C,100nF*%
X201695000Y-60053750D03*
X198745000Y-60053750D03*
%TD*%
D34*
%TO.C,REF\u002A\u002A*%
X141530000Y-38295600D03*
X142800000Y-38295600D03*
X144070000Y-38295600D03*
X145340000Y-38295600D03*
X146610000Y-38295600D03*
X147880000Y-38295600D03*
X149150000Y-38295600D03*
X150420000Y-38295600D03*
X150420000Y-33495000D03*
X149150000Y-33495000D03*
X147880000Y-33495000D03*
X146610000Y-33495000D03*
X145340000Y-33495000D03*
X144070000Y-33495000D03*
X142800000Y-33495000D03*
X141530000Y-33495000D03*
%TD*%
D16*
%TO.C,REF\u002A\u002A*%
X191680000Y-56876250D03*
D17*
X194220000Y-56876250D03*
X196760000Y-56876250D03*
X199300000Y-56876250D03*
X201840000Y-56876250D03*
X204380000Y-56876250D03*
%TD*%
D26*
%TO.C,REF\u002A\u002A*%
X184170000Y-74120000D03*
D27*
X186445000Y-74120000D03*
%TD*%
D64*
%TO.C,16MHz*%
X200345000Y-33870000D03*
X200345000Y-32670000D03*
X200345000Y-31470000D03*
%TD*%
D10*
%TO.C,2K7*%
X116452500Y-116522500D03*
X113527500Y-116522500D03*
%TD*%
%TO.C,47K*%
X108932500Y-77445000D03*
X106007500Y-77445000D03*
%TD*%
D16*
%TO.C,REF\u002A\u002A*%
X175345000Y-32720000D03*
D17*
X175345000Y-35260000D03*
X175345000Y-37800000D03*
X175345000Y-40340000D03*
X175345000Y-42880000D03*
X175345000Y-45420000D03*
X175345000Y-47960000D03*
X175345000Y-50500000D03*
%TD*%
D64*
%TO.C,16MHz*%
X181760000Y-105814000D03*
X181760000Y-107014000D03*
X181760000Y-108214000D03*
%TD*%
D43*
%TO.C,10uF*%
X141707500Y-100095000D03*
X144832500Y-100095000D03*
%TD*%
D18*
%TO.C,1K*%
X132425000Y-32333100D03*
X132425000Y-35258100D03*
%TD*%
D48*
%TO.C,12MHz*%
X139395000Y-76945000D03*
X140595000Y-76945000D03*
X141795000Y-76945000D03*
%TD*%
D28*
%TO.C,USB3*%
X134830000Y-79745000D03*
D12*
X134830000Y-82245000D03*
X134830000Y-84245000D03*
X134830000Y-86745000D03*
D29*
X132120000Y-89815000D03*
X132120000Y-76675000D03*
%TD*%
D65*
%TO.C,LM358*%
X113210000Y-118685000D03*
X113210000Y-119185000D03*
X113210000Y-119685000D03*
X113210000Y-120185000D03*
X115010000Y-120185000D03*
X115010000Y-119685000D03*
X115010000Y-119185000D03*
X115010000Y-118685000D03*
D66*
X114110000Y-119435000D03*
%TD*%
D30*
%TO.C,1uF*%
X164997400Y-115376400D03*
X166897400Y-115376400D03*
%TD*%
D35*
%TO.C,RESET*%
X149895000Y-86520000D03*
X151195000Y-86520000D03*
%TD*%
D31*
%TO.C,C4*%
X199885000Y-123425000D03*
X197985000Y-123425000D03*
%TD*%
D16*
%TO.C,REF\u002A\u002A*%
X168620000Y-70020000D03*
D17*
X166080000Y-70020000D03*
X168620000Y-67480000D03*
X166080000Y-67480000D03*
X168620000Y-64940000D03*
X166080000Y-64940000D03*
%TD*%
D48*
%TO.C,Y2*%
X196285000Y-112275000D03*
X195085000Y-112275000D03*
X193885000Y-112275000D03*
%TD*%
D14*
%TO.C,REF\u002A\u002A*%
X183620000Y-60470000D03*
X186545000Y-60470000D03*
%TD*%
D16*
%TO.C,REF\u002A\u002A*%
X196885000Y-32520000D03*
D17*
X194345000Y-32520000D03*
X191805000Y-32520000D03*
X189265000Y-32520000D03*
X186725000Y-32520000D03*
X184185000Y-32520000D03*
X181645000Y-32520000D03*
X179105000Y-32520000D03*
%TD*%
D65*
%TO.C,LM358*%
X112795000Y-127212500D03*
X112795000Y-127712500D03*
X112795000Y-128212500D03*
X112795000Y-128712500D03*
X114595000Y-128712500D03*
X114595000Y-128212500D03*
X114595000Y-127712500D03*
X114595000Y-127212500D03*
D66*
X113695000Y-127962500D03*
%TD*%
D67*
%TO.C,FUSE*%
X139382500Y-72770000D03*
X140682500Y-72770000D03*
%TD*%
D28*
%TO.C,USB4*%
X134855000Y-62495000D03*
D12*
X134855000Y-64995000D03*
X134855000Y-66995000D03*
X134855000Y-69495000D03*
D29*
X132145000Y-59425000D03*
X132145000Y-72565000D03*
%TD*%
D21*
%TO.C,PORT3*%
X149245000Y-59820000D03*
D22*
X146670000Y-59820000D03*
%TD*%
D30*
%TO.C,C1*%
X198985000Y-86225000D03*
X200885000Y-86225000D03*
%TD*%
D64*
%TO.C,12MHz*%
X201342500Y-62303750D03*
X201342500Y-63503750D03*
X201342500Y-64703750D03*
%TD*%
D15*
%TO.C,2K7*%
X109130000Y-119875000D03*
X109130000Y-116950000D03*
%TD*%
%TO.C,2K7*%
X111460000Y-119875000D03*
X111460000Y-116950000D03*
%TD*%
D10*
%TO.C,220R*%
X108932500Y-79770000D03*
X106007500Y-79770000D03*
%TD*%
D15*
%TO.C,2K7*%
X116780000Y-121475000D03*
X116780000Y-118550000D03*
%TD*%
%TO.C,22R*%
X172145000Y-83176250D03*
X172145000Y-80251250D03*
%TD*%
D68*
%TO.C,CH340G*%
X198867500Y-72273750D03*
X198867500Y-71003750D03*
X198867500Y-69733750D03*
X198867500Y-68463750D03*
X198867500Y-67193750D03*
X198867500Y-65923750D03*
X198867500Y-64653750D03*
X198867500Y-63383750D03*
X193367500Y-63383750D03*
X193367500Y-64653750D03*
X193367500Y-65923750D03*
X193367500Y-67193750D03*
X193367500Y-68463750D03*
X193367500Y-69733750D03*
X193367500Y-71003750D03*
X193367500Y-72273750D03*
%TD*%
D69*
%TO.C,REF\u002A\u002A*%
X200220000Y-41370000D03*
X200220000Y-37370000D03*
%TD*%
D16*
%TO.C,REF\u002A\u002A*%
X117620000Y-83770000D03*
D17*
X117620000Y-81230000D03*
X117620000Y-78690000D03*
X117620000Y-76150000D03*
X117620000Y-73610000D03*
X117620000Y-71070000D03*
X117620000Y-68530000D03*
X117620000Y-65990000D03*
X117620000Y-63450000D03*
X117620000Y-60910000D03*
%TD*%
D70*
%TO.C,1K*%
X111185000Y-112770000D03*
D71*
X106185000Y-110270000D03*
X111185000Y-107770000D03*
%TD*%
M02*
