%TF.GenerationSoftware,KiCad,Pcbnew,(6.0.5)*%
%TF.CreationDate,2023-05-31T00:43:37+03:00*%
%TF.ProjectId,JLC1,4a4c4331-2e6b-4696-9361-645f70636258,rev?*%
%TF.SameCoordinates,Original*%
%TF.FileFunction,Copper,L2,Bot*%
%TF.FilePolarity,Positive*%
%FSLAX46Y46*%
G04 Gerber Fmt 4.6, Leading zero omitted, Abs format (unit mm)*
G04 Created by KiCad (PCBNEW (6.0.5)) date 2023-05-31 00:43:37*
%MOMM*%
%LPD*%
G01*
G04 APERTURE LIST*
G04 Aperture macros list*
%AMRoundRect*
0 Rectangle with rounded corners*
0 $1 Rounding radius*
0 $2 $3 $4 $5 $6 $7 $8 $9 X,Y pos of 4 corners*
0 Add a 4 corners polygon primitive as box body*
4,1,4,$2,$3,$4,$5,$6,$7,$8,$9,$2,$3,0*
0 Add four circle primitives for the rounded corners*
1,1,$1+$1,$2,$3*
1,1,$1+$1,$4,$5*
1,1,$1+$1,$6,$7*
1,1,$1+$1,$8,$9*
0 Add four rect primitives between the rounded corners*
20,1,$1+$1,$2,$3,$4,$5,0*
20,1,$1+$1,$4,$5,$6,$7,0*
20,1,$1+$1,$6,$7,$8,$9,0*
20,1,$1+$1,$8,$9,$2,$3,0*%
G04 Aperture macros list end*
%TA.AperFunction,ComponentPad*%
%ADD10R,1.600000X1.600000*%
%TD*%
%TA.AperFunction,ComponentPad*%
%ADD11C,1.600000*%
%TD*%
%TA.AperFunction,ComponentPad*%
%ADD12C,4.000000*%
%TD*%
%TA.AperFunction,ComponentPad*%
%ADD13R,1.700000X1.700000*%
%TD*%
%TA.AperFunction,ComponentPad*%
%ADD14O,1.700000X1.700000*%
%TD*%
%TA.AperFunction,ComponentPad*%
%ADD15R,1.500000X1.600000*%
%TD*%
%TA.AperFunction,ComponentPad*%
%ADD16C,3.000000*%
%TD*%
%TA.AperFunction,ComponentPad*%
%ADD17R,1.600000X1.500000*%
%TD*%
%TA.AperFunction,ComponentPad*%
%ADD18C,0.425000*%
%TD*%
%TA.AperFunction,ComponentPad*%
%ADD19O,1.900000X3.500000*%
%TD*%
%TA.AperFunction,SMDPad,CuDef*%
%ADD20RoundRect,0.175000X0.175000X0.575000X-0.175000X0.575000X-0.175000X-0.575000X0.175000X-0.575000X0*%
%TD*%
%TA.AperFunction,SMDPad,CuDef*%
%ADD21R,2.200000X2.200000*%
%TD*%
%TA.AperFunction,SMDPad,CuDef*%
%ADD22R,2.200000X1.250000*%
%TD*%
%TA.AperFunction,SMDPad,CuDef*%
%ADD23RoundRect,0.250000X0.475000X-0.250000X0.475000X0.250000X-0.475000X0.250000X-0.475000X-0.250000X0*%
%TD*%
%TA.AperFunction,SMDPad,CuDef*%
%ADD24RoundRect,0.250000X0.312500X0.625000X-0.312500X0.625000X-0.312500X-0.625000X0.312500X-0.625000X0*%
%TD*%
%TA.AperFunction,SMDPad,CuDef*%
%ADD25RoundRect,0.150000X0.150000X-0.512500X0.150000X0.512500X-0.150000X0.512500X-0.150000X-0.512500X0*%
%TD*%
%TA.AperFunction,SMDPad,CuDef*%
%ADD26R,1.500000X2.000000*%
%TD*%
%TA.AperFunction,SMDPad,CuDef*%
%ADD27R,3.800000X2.000000*%
%TD*%
%TA.AperFunction,SMDPad,CuDef*%
%ADD28RoundRect,0.250000X-0.250000X-0.475000X0.250000X-0.475000X0.250000X0.475000X-0.250000X0.475000X0*%
%TD*%
%TA.AperFunction,SMDPad,CuDef*%
%ADD29R,0.300000X1.275000*%
%TD*%
%TA.AperFunction,SMDPad,CuDef*%
%ADD30RoundRect,0.250000X-0.312500X-0.625000X0.312500X-0.625000X0.312500X0.625000X-0.312500X0.625000X0*%
%TD*%
%TA.AperFunction,SMDPad,CuDef*%
%ADD31R,1.800000X0.400000*%
%TD*%
%TA.AperFunction,SMDPad,CuDef*%
%ADD32R,1.900000X1.900000*%
%TD*%
%TA.AperFunction,ComponentPad*%
%ADD33R,1.560000X1.560000*%
%TD*%
%TA.AperFunction,ComponentPad*%
%ADD34C,1.560000*%
%TD*%
%TA.AperFunction,SMDPad,CuDef*%
%ADD35RoundRect,0.250000X0.625000X-0.312500X0.625000X0.312500X-0.625000X0.312500X-0.625000X-0.312500X0*%
%TD*%
%TA.AperFunction,ViaPad*%
%ADD36C,0.300000*%
%TD*%
%TA.AperFunction,ViaPad*%
%ADD37C,0.400000*%
%TD*%
%TA.AperFunction,ViaPad*%
%ADD38C,0.500000*%
%TD*%
%TA.AperFunction,ViaPad*%
%ADD39C,0.600000*%
%TD*%
%TA.AperFunction,ViaPad*%
%ADD40C,0.250000*%
%TD*%
%TA.AperFunction,ViaPad*%
%ADD41C,0.800000*%
%TD*%
%TA.AperFunction,ViaPad*%
%ADD42C,0.750000*%
%TD*%
%TA.AperFunction,ViaPad*%
%ADD43C,1.000000*%
%TD*%
%TA.AperFunction,Conductor*%
%ADD44C,0.250000*%
%TD*%
%TA.AperFunction,Conductor*%
%ADD45C,0.300000*%
%TD*%
%TA.AperFunction,Conductor*%
%ADD46C,0.500000*%
%TD*%
%TA.AperFunction,Conductor*%
%ADD47C,0.750000*%
%TD*%
%TA.AperFunction,Conductor*%
%ADD48C,0.400000*%
%TD*%
%TA.AperFunction,Conductor*%
%ADD49C,0.600000*%
%TD*%
%TA.AperFunction,Conductor*%
%ADD50C,1.000000*%
%TD*%
%TA.AperFunction,Conductor*%
%ADD51C,0.700000*%
%TD*%
G04 APERTURE END LIST*
D10*
%TO.P,USB,1*%
%TO.N,N/C*%
X172314500Y-124345000D03*
D11*
%TO.P,USB,2*%
X169814500Y-124345000D03*
%TO.P,USB,3*%
X169814500Y-126345000D03*
%TO.P,USB,4*%
X172314500Y-126345000D03*
D12*
%TO.P,USB,5*%
X177064500Y-129205000D03*
X165064500Y-129205000D03*
%TD*%
D13*
%TO.P,REF\u002A\u002A,1*%
%TO.N,N/C*%
X105660000Y-128670000D03*
D14*
%TO.P,REF\u002A\u002A,2*%
X105660000Y-126130000D03*
%TO.P,REF\u002A\u002A,3*%
X105660000Y-123590000D03*
%TO.P,REF\u002A\u002A,4*%
X105660000Y-121050000D03*
%TO.P,REF\u002A\u002A,5*%
X105660000Y-118510000D03*
%TO.P,REF\u002A\u002A,6*%
X105660000Y-115970000D03*
%TD*%
D13*
%TO.P,REF\u002A\u002A,1*%
%TO.N,N/C*%
X170200000Y-33745600D03*
D14*
%TO.P,REF\u002A\u002A,2*%
X170200000Y-36285600D03*
%TO.P,REF\u002A\u002A,3*%
X170200000Y-38825600D03*
%TO.P,REF\u002A\u002A,4*%
X170200000Y-41365600D03*
%TO.P,REF\u002A\u002A,5*%
X170200000Y-43905600D03*
%TO.P,REF\u002A\u002A,6*%
X170200000Y-46445600D03*
%TO.P,REF\u002A\u002A,7*%
X170200000Y-48985600D03*
%TD*%
D13*
%TO.P,REF\u002A\u002A,1*%
%TO.N,N/C*%
X173545000Y-55845000D03*
D14*
%TO.P,REF\u002A\u002A,2*%
X171005000Y-55845000D03*
%TO.P,REF\u002A\u002A,3*%
X168465000Y-55845000D03*
%TO.P,REF\u002A\u002A,4*%
X165925000Y-55845000D03*
%TO.P,REF\u002A\u002A,5*%
X163385000Y-55845000D03*
%TO.P,REF\u002A\u002A,6*%
X160845000Y-55845000D03*
%TD*%
D13*
%TO.P,REF\u002A\u002A,1*%
%TO.N,N/C*%
X146665872Y-46332500D03*
D14*
%TO.P,REF\u002A\u002A,2*%
X144125872Y-46332500D03*
%TO.P,REF\u002A\u002A,3*%
X141585872Y-46332500D03*
%TO.P,REF\u002A\u002A,4*%
X139045872Y-46332500D03*
%TO.P,REF\u002A\u002A,5*%
X136505872Y-46332500D03*
%TO.P,REF\u002A\u002A,6*%
X133965872Y-46332500D03*
%TO.P,REF\u002A\u002A,7*%
X131425872Y-46332500D03*
%TO.P,REF\u002A\u002A,8*%
X128885872Y-46332500D03*
%TD*%
D11*
%TO.P,22pF,1*%
%TO.N,gnd*%
X135445000Y-55895000D03*
%TO.P,22pF,2*%
%TO.N,5v*%
X137945000Y-55895000D03*
%TD*%
D15*
%TO.P,USB1,1*%
%TO.N,5v*%
X134780000Y-114290000D03*
D11*
%TO.P,USB1,2*%
%TO.N,N/C*%
X134780000Y-116790000D03*
%TO.P,USB1,3*%
X134780000Y-118790000D03*
%TO.P,USB1,4*%
%TO.N,gnd*%
X134780000Y-121290000D03*
D16*
%TO.P,USB1,5*%
X132070000Y-111220000D03*
X132070000Y-124360000D03*
%TD*%
D13*
%TO.P,REF\u002A\u002A,1*%
%TO.N,N/C*%
X187014500Y-113595000D03*
D14*
%TO.P,REF\u002A\u002A,2*%
X187014500Y-111055000D03*
%TO.P,REF\u002A\u002A,3*%
X187014500Y-108515000D03*
%TO.P,REF\u002A\u002A,4*%
X187014500Y-105975000D03*
%TO.P,REF\u002A\u002A,5*%
X187014500Y-103435000D03*
%TO.P,REF\u002A\u002A,6*%
X187014500Y-100895000D03*
%TO.P,REF\u002A\u002A,7*%
X187014500Y-98355000D03*
%TO.P,REF\u002A\u002A,8*%
X187014500Y-95815000D03*
%TD*%
D13*
%TO.P,REF\u002A\u002A,1*%
%TO.N,N/C*%
X179720000Y-73060000D03*
D14*
%TO.P,REF\u002A\u002A,2*%
X179720000Y-70520000D03*
%TO.P,REF\u002A\u002A,3*%
X179720000Y-67980000D03*
%TO.P,REF\u002A\u002A,4*%
X179720000Y-65440000D03*
%TO.P,REF\u002A\u002A,5*%
X179720000Y-62900000D03*
%TO.P,REF\u002A\u002A,6*%
X179720000Y-60360000D03*
%TO.P,REF\u002A\u002A,7*%
X179720000Y-57820000D03*
%TO.P,REF\u002A\u002A,8*%
X179720000Y-55280000D03*
%TD*%
D13*
%TO.P,REF\u002A\u002A,1*%
%TO.N,N/C*%
X189795000Y-71953750D03*
D14*
%TO.P,REF\u002A\u002A,2*%
X189795000Y-69413750D03*
%TO.P,REF\u002A\u002A,3*%
X189795000Y-66873750D03*
%TO.P,REF\u002A\u002A,4*%
X189795000Y-64333750D03*
%TD*%
D13*
%TO.P,REF\u002A\u002A,1*%
%TO.N,N/C*%
X162135000Y-112276400D03*
D14*
%TO.P,REF\u002A\u002A,2*%
X162135000Y-109736400D03*
%TO.P,REF\u002A\u002A,3*%
X162135000Y-107196400D03*
%TO.P,REF\u002A\u002A,4*%
X162135000Y-104656400D03*
%TO.P,REF\u002A\u002A,5*%
X162135000Y-102116400D03*
%TO.P,REF\u002A\u002A,6*%
X162135000Y-99576400D03*
%TD*%
D13*
%TO.P,REF\u002A\u002A,1*%
%TO.N,N/C*%
X177160000Y-115264000D03*
D14*
%TO.P,REF\u002A\u002A,2*%
X179700000Y-115264000D03*
%TO.P,REF\u002A\u002A,3*%
X177160000Y-117804000D03*
%TO.P,REF\u002A\u002A,4*%
X179700000Y-117804000D03*
%TO.P,REF\u002A\u002A,5*%
X177160000Y-120344000D03*
%TO.P,REF\u002A\u002A,6*%
X179700000Y-120344000D03*
%TD*%
D13*
%TO.P,REF\u002A\u002A,1*%
%TO.N,N/C*%
X105640000Y-131240000D03*
D14*
%TO.P,REF\u002A\u002A,2*%
X108180000Y-131240000D03*
%TO.P,REF\u002A\u002A,3*%
X110720000Y-131240000D03*
%TO.P,REF\u002A\u002A,4*%
X113260000Y-131240000D03*
%TD*%
D15*
%TO.P,USB2,1*%
%TO.N,5v*%
X134805000Y-97040000D03*
D11*
%TO.P,USB2,2*%
%TO.N,N/C*%
X134805000Y-99540000D03*
%TO.P,USB2,3*%
X134805000Y-101540000D03*
%TO.P,USB2,4*%
%TO.N,gnd*%
X134805000Y-104040000D03*
D16*
%TO.P,USB2,5*%
X132095000Y-93970000D03*
X132095000Y-107110000D03*
%TD*%
D13*
%TO.P,REF\u002A\u002A,1*%
%TO.N,N/C*%
X166965872Y-46332500D03*
D14*
%TO.P,REF\u002A\u002A,2*%
X164425872Y-46332500D03*
%TO.P,REF\u002A\u002A,3*%
X161885872Y-46332500D03*
%TO.P,REF\u002A\u002A,4*%
X159345872Y-46332500D03*
%TO.P,REF\u002A\u002A,5*%
X156805872Y-46332500D03*
%TO.P,REF\u002A\u002A,6*%
X154265872Y-46332500D03*
%TO.P,REF\u002A\u002A,7*%
X151725872Y-46332500D03*
%TO.P,REF\u002A\u002A,8*%
X149185872Y-46332500D03*
%TD*%
D13*
%TO.P,REF\u002A\u002A,1*%
%TO.N,N/C*%
X162089500Y-95870000D03*
D14*
%TO.P,REF\u002A\u002A,2*%
X164629500Y-95870000D03*
%TO.P,REF\u002A\u002A,3*%
X167169500Y-95870000D03*
%TO.P,REF\u002A\u002A,4*%
X169709500Y-95870000D03*
%TO.P,REF\u002A\u002A,5*%
X172249500Y-95870000D03*
%TO.P,REF\u002A\u002A,6*%
X174789500Y-95870000D03*
%TD*%
D17*
%TO.P,USB_0,1*%
%TO.N,5v*%
X145970000Y-120560000D03*
D11*
%TO.P,USB_0,2*%
%TO.N,N/C*%
X148470000Y-120560000D03*
%TO.P,USB_0,3*%
X150470000Y-120560000D03*
%TO.P,USB_0,4*%
%TO.N,gnd*%
X152970000Y-120560000D03*
D16*
%TO.P,USB_0,5*%
X142900000Y-123270000D03*
X156040000Y-123270000D03*
%TD*%
D18*
%TO.P,SW1,MH1*%
%TO.N,N/C*%
X191735000Y-120525000D03*
%TO.P,SW1,MH2*%
X191735000Y-123525000D03*
%TD*%
D13*
%TO.P,REF\u002A\u002A,1*%
%TO.N,N/C*%
X160870000Y-78145000D03*
D14*
%TO.P,REF\u002A\u002A,2*%
X160870000Y-75605000D03*
%TO.P,REF\u002A\u002A,3*%
X160870000Y-73065000D03*
%TO.P,REF\u002A\u002A,4*%
X160870000Y-70525000D03*
%TO.P,REF\u002A\u002A,5*%
X160870000Y-67985000D03*
%TO.P,REF\u002A\u002A,6*%
X160870000Y-65445000D03*
%TO.P,REF\u002A\u002A,7*%
X160870000Y-62905000D03*
%TO.P,REF\u002A\u002A,8*%
X160870000Y-60365000D03*
%TD*%
D13*
%TO.P,REF\u002A\u002A,1*%
%TO.N,N/C*%
X125220000Y-33732500D03*
D14*
%TO.P,REF\u002A\u002A,2*%
X125220000Y-36272500D03*
%TO.P,REF\u002A\u002A,3*%
X125220000Y-38812500D03*
%TO.P,REF\u002A\u002A,4*%
X125220000Y-41352500D03*
%TO.P,REF\u002A\u002A,5*%
X125220000Y-43892500D03*
%TO.P,REF\u002A\u002A,6*%
X125220000Y-46432500D03*
%TO.P,REF\u002A\u002A,7*%
X125220000Y-48972500D03*
%TD*%
D13*
%TO.P,REF\u002A\u002A,1*%
%TO.N,N/C*%
X160664500Y-129830000D03*
D14*
%TO.P,REF\u002A\u002A,2*%
X160664500Y-127290000D03*
%TO.P,REF\u002A\u002A,3*%
X160664500Y-124750000D03*
%TO.P,REF\u002A\u002A,4*%
X160664500Y-122210000D03*
%TD*%
D13*
%TO.P,-BAT+,1*%
%TO.N,N/C*%
X187014500Y-118695000D03*
D14*
%TO.P,-BAT+,2*%
X187014500Y-116155000D03*
%TD*%
D13*
%TO.P,REF\u002A\u002A,1*%
%TO.N,N/C*%
X202070000Y-50745000D03*
D14*
%TO.P,REF\u002A\u002A,2*%
X199530000Y-50745000D03*
%TO.P,REF\u002A\u002A,3*%
X196990000Y-50745000D03*
%TO.P,REF\u002A\u002A,4*%
X194450000Y-50745000D03*
%TO.P,REF\u002A\u002A,5*%
X191910000Y-50745000D03*
%TO.P,REF\u002A\u002A,6*%
X189370000Y-50745000D03*
%TO.P,REF\u002A\u002A,7*%
X186830000Y-50745000D03*
%TO.P,REF\u002A\u002A,8*%
X184290000Y-50745000D03*
%TO.P,REF\u002A\u002A,9*%
X181750000Y-50745000D03*
%TO.P,REF\u002A\u002A,10*%
%TO.N,gnd*%
X179210000Y-50745000D03*
%TD*%
D19*
%TO.P,J1,5,Shield*%
%TO.N,N/C*%
X192335000Y-129325000D03*
X203735000Y-129325000D03*
%TD*%
%TO.P,USB_0,5*%
%TO.N,N/C*%
X179020000Y-88688750D03*
X167620000Y-88688750D03*
%TD*%
D13*
%TO.P,REF\u002A\u002A,1*%
%TO.N,N/C*%
X191680000Y-56876250D03*
D14*
%TO.P,REF\u002A\u002A,2*%
X194220000Y-56876250D03*
%TO.P,REF\u002A\u002A,3*%
X196760000Y-56876250D03*
%TO.P,REF\u002A\u002A,4*%
X199300000Y-56876250D03*
%TO.P,REF\u002A\u002A,5*%
%TO.N,gnd*%
X201840000Y-56876250D03*
%TO.P,REF\u002A\u002A,6*%
X204380000Y-56876250D03*
%TD*%
D13*
%TO.P,REF\u002A\u002A,1*%
%TO.N,5v*%
X175345000Y-32720000D03*
D14*
%TO.P,REF\u002A\u002A,2*%
X175345000Y-35260000D03*
%TO.P,REF\u002A\u002A,3*%
X175345000Y-37800000D03*
%TO.P,REF\u002A\u002A,4*%
%TO.N,N/C*%
X175345000Y-40340000D03*
%TO.P,REF\u002A\u002A,5*%
X175345000Y-42880000D03*
%TO.P,REF\u002A\u002A,6*%
X175345000Y-45420000D03*
%TO.P,REF\u002A\u002A,7*%
X175345000Y-47960000D03*
%TO.P,REF\u002A\u002A,8*%
%TO.N,gnd*%
X175345000Y-50500000D03*
%TD*%
D15*
%TO.P,USB3,1*%
%TO.N,5v*%
X134830000Y-79745000D03*
D11*
%TO.P,USB3,2*%
%TO.N,N/C*%
X134830000Y-82245000D03*
%TO.P,USB3,3*%
X134830000Y-84245000D03*
%TO.P,USB3,4*%
%TO.N,gnd*%
X134830000Y-86745000D03*
D16*
%TO.P,USB3,5*%
X132120000Y-89815000D03*
X132120000Y-76675000D03*
%TD*%
D13*
%TO.P,REF\u002A\u002A,1*%
%TO.N,N/C*%
X168620000Y-70020000D03*
D14*
%TO.P,REF\u002A\u002A,2*%
X166080000Y-70020000D03*
%TO.P,REF\u002A\u002A,3*%
X168620000Y-67480000D03*
%TO.P,REF\u002A\u002A,4*%
X166080000Y-67480000D03*
%TO.P,REF\u002A\u002A,5*%
X168620000Y-64940000D03*
%TO.P,REF\u002A\u002A,6*%
X166080000Y-64940000D03*
%TD*%
D13*
%TO.P,REF\u002A\u002A,1*%
%TO.N,N/C*%
X196885000Y-32520000D03*
D14*
%TO.P,REF\u002A\u002A,2*%
X194345000Y-32520000D03*
%TO.P,REF\u002A\u002A,3*%
X191805000Y-32520000D03*
%TO.P,REF\u002A\u002A,4*%
X189265000Y-32520000D03*
%TO.P,REF\u002A\u002A,5*%
X186725000Y-32520000D03*
%TO.P,REF\u002A\u002A,6*%
X184185000Y-32520000D03*
%TO.P,REF\u002A\u002A,7*%
X181645000Y-32520000D03*
%TO.P,REF\u002A\u002A,8*%
X179105000Y-32520000D03*
%TD*%
D15*
%TO.P,USB4,1*%
%TO.N,5v*%
X134855000Y-62495000D03*
D11*
%TO.P,USB4,2*%
%TO.N,N/C*%
X134855000Y-64995000D03*
%TO.P,USB4,3*%
X134855000Y-66995000D03*
%TO.P,USB4,4*%
%TO.N,gnd*%
X134855000Y-69495000D03*
D16*
%TO.P,USB4,5*%
X132145000Y-59425000D03*
X132145000Y-72565000D03*
%TD*%
D20*
%TO.P,,1*%
%TO.N,N/C*%
X184995000Y-54070000D03*
%TD*%
%TO.P,,1*%
%TO.N,N/C*%
X186795000Y-82745000D03*
%TD*%
D21*
%TO.P,D2,1,K*%
%TO.N,N/C*%
X197645000Y-120765000D03*
D22*
%TO.P,D2,2,A*%
X197645000Y-118490000D03*
%TD*%
D23*
%TO.P,C12,1*%
%TO.N,N/C*%
X199670000Y-124855000D03*
%TO.P,C12,2*%
X199670000Y-122955000D03*
%TD*%
D20*
%TO.P,,1*%
%TO.N,N/C*%
X184095000Y-82745000D03*
%TD*%
D23*
%TO.P,C10,1*%
%TO.N,N/C*%
X193315000Y-119215000D03*
%TO.P,C10,2*%
X193315000Y-117315000D03*
%TD*%
D24*
%TO.P,R1,1*%
%TO.N,N/C*%
X205347500Y-117500000D03*
%TO.P,R1,2*%
X202422500Y-117500000D03*
%TD*%
D20*
%TO.P,,1*%
%TO.N,N/C*%
X183195000Y-82745000D03*
%TD*%
D25*
%TO.P,U1,1,VIN*%
%TO.N,N/C*%
X205185000Y-125175000D03*
%TO.P,U1,2,GND*%
X204235000Y-125175000D03*
%TO.P,U1,3,INH*%
X203285000Y-125175000D03*
%TO.P,U1,4,BYP*%
X203285000Y-122900000D03*
%TO.P,U1,5,VOUT*%
X205185000Y-122900000D03*
%TD*%
D23*
%TO.P,C3,1*%
%TO.N,N/C*%
X197632500Y-126437500D03*
%TO.P,C3,2*%
X197632500Y-124537500D03*
%TD*%
D26*
%TO.P,78L05,1*%
%TO.N,N/C*%
X182789500Y-124405000D03*
%TO.P,78L05,2*%
X185089500Y-124405000D03*
%TO.P,78L05,3*%
X187389500Y-124405000D03*
D27*
%TO.P,78L05,4*%
X185089500Y-130705000D03*
%TD*%
D28*
%TO.P,100uF,1*%
%TO.N,N/C*%
X185814500Y-121905000D03*
%TO.P,100uF,2*%
X187714500Y-121905000D03*
%TD*%
D29*
%TO.P,m2,1,N.C_1*%
%TO.N,N/C*%
X192985000Y-88475000D03*
%TO.P,m2,2,N.C_2*%
X193485000Y-88475000D03*
%TO.P,m2,3,N.C_3*%
X193985000Y-88475000D03*
%TO.P,m2,4,N.C_4*%
X194485000Y-88475000D03*
%TO.P,m2,5,N.C_5*%
X194985000Y-88475000D03*
%TO.P,m2,6,N.C_6*%
X195485000Y-88475000D03*
%TO.P,m2,7,R/~{B}*%
X195985000Y-88475000D03*
%TO.P,m2,8,~{RE}*%
X196485000Y-88475000D03*
%TO.P,m2,9,~{CE}*%
X196985000Y-88475000D03*
%TO.P,m2,10,N.C_7*%
X197485000Y-88475000D03*
%TO.P,m2,11,N.C_8*%
X197985000Y-88475000D03*
%TO.P,m2,12,VCC_1*%
X198485000Y-88475000D03*
%TO.P,m2,13,VSS_1*%
X198985000Y-88475000D03*
%TO.P,m2,14,N.C_9*%
X199485000Y-88475000D03*
%TO.P,m2,15,N.C_10*%
X199985000Y-88475000D03*
%TO.P,m2,16,CLE*%
X200485000Y-88475000D03*
%TO.P,m2,17,ALE*%
X200985000Y-88475000D03*
%TO.P,m2,18,~{WE}*%
X201485000Y-88475000D03*
%TO.P,m2,19,~{WP}*%
X201985000Y-88475000D03*
%TO.P,m2,20,N.C_11*%
X202485000Y-88475000D03*
%TO.P,m2,21,N.C_12*%
X202985000Y-88475000D03*
%TO.P,m2,22,N.C_13*%
X203485000Y-88475000D03*
%TO.P,m2,23,N.C_14*%
X203985000Y-88475000D03*
%TO.P,m2,24,N.C_15*%
X204485000Y-88475000D03*
%TO.P,m2,25,N.C_16*%
X204485000Y-108151000D03*
%TO.P,m2,26,N.C_17*%
X203985000Y-108151000D03*
%TO.P,m2,27,N.C_18*%
X203485000Y-108151000D03*
%TO.P,m2,28,N.C_19*%
X202985000Y-108151000D03*
%TO.P,m2,29,I/O0*%
X202485000Y-108151000D03*
%TO.P,m2,30,I/O1*%
X201985000Y-108151000D03*
%TO.P,m2,31,I/O2*%
X201485000Y-108151000D03*
%TO.P,m2,32,I/O3*%
X200985000Y-108151000D03*
%TO.P,m2,33,N.C_20*%
X200485000Y-108151000D03*
%TO.P,m2,34,N.C_21*%
X199985000Y-108151000D03*
%TO.P,m2,35,N.C_22*%
X199485000Y-108151000D03*
%TO.P,m2,36,VSS_2*%
X198985000Y-108151000D03*
%TO.P,m2,37,VCC_2*%
X198485000Y-108151000D03*
%TO.P,m2,38,N.C_23*%
X197985000Y-108151000D03*
%TO.P,m2,39,N.C_24*%
X197485000Y-108151000D03*
%TO.P,m2,40,N.C_25*%
X196985000Y-108151000D03*
%TO.P,m2,41,I/O4*%
X196485000Y-108151000D03*
%TO.P,m2,42,I/O5*%
X195985000Y-108151000D03*
%TO.P,m2,43,I/O6*%
X195485000Y-108151000D03*
%TO.P,m2,44,I/O7*%
X194985000Y-108151000D03*
%TO.P,m2,45,N.C_26*%
X194485000Y-108151000D03*
%TO.P,m2,46,N.C_27*%
X193985000Y-108151000D03*
%TO.P,m2,47,N.C_28*%
X193485000Y-108151000D03*
%TO.P,m2,48,N.C_29*%
X192985000Y-108151000D03*
%TD*%
D28*
%TO.P,100uF,1*%
%TO.N,N/C*%
X182314500Y-121905000D03*
%TO.P,100uF,2*%
X184214500Y-121905000D03*
%TD*%
D20*
%TO.P,,1*%
%TO.N,N/C*%
X184995000Y-82745000D03*
%TD*%
D30*
%TO.P,22R,1*%
%TO.N,N/C*%
X194207500Y-40870000D03*
%TO.P,22R,2*%
X197132500Y-40870000D03*
%TD*%
D24*
%TO.P,R2,1*%
%TO.N,N/C*%
X205347500Y-119475000D03*
%TO.P,R2,2*%
X202422500Y-119475000D03*
%TD*%
D20*
%TO.P,,1*%
%TO.N,N/C*%
X185895000Y-82745000D03*
%TD*%
D31*
%TO.P,REF\u002A\u002A,1*%
%TO.N,5v*%
X199470000Y-38070000D03*
%TO.P,REF\u002A\u002A,2*%
%TO.N,N/C*%
X199470000Y-38720000D03*
%TO.P,REF\u002A\u002A,3*%
X199470000Y-39370000D03*
%TO.P,REF\u002A\u002A,4*%
%TO.N,gnd*%
X199470000Y-40020000D03*
%TO.P,REF\u002A\u002A,5*%
X199470000Y-40670000D03*
D32*
%TO.P,REF\u002A\u002A,6*%
%TO.N,N/C*%
X202370000Y-35420000D03*
X202370000Y-43320000D03*
%TD*%
D13*
%TO.P,REF\u002A\u002A,1*%
%TO.N,gnd*%
X117620000Y-83770000D03*
D14*
%TO.P,REF\u002A\u002A,2*%
%TO.N,5v*%
X117620000Y-81230000D03*
%TO.P,REF\u002A\u002A,3*%
%TO.N,N/C*%
X117620000Y-78690000D03*
%TO.P,REF\u002A\u002A,4*%
X117620000Y-76150000D03*
%TO.P,REF\u002A\u002A,5*%
X117620000Y-73610000D03*
%TO.P,REF\u002A\u002A,6*%
X117620000Y-71070000D03*
%TO.P,REF\u002A\u002A,7*%
X117620000Y-68530000D03*
%TO.P,REF\u002A\u002A,8*%
X117620000Y-65990000D03*
%TO.P,REF\u002A\u002A,9*%
X117620000Y-63450000D03*
%TO.P,REF\u002A\u002A,10*%
X117620000Y-60910000D03*
%TD*%
D23*
%TO.P,C9,1*%
%TO.N,N/C*%
X193315000Y-115765000D03*
%TO.P,C9,2*%
X193315000Y-113865000D03*
%TD*%
D20*
%TO.P,,1*%
%TO.N,N/C*%
X183195000Y-54070000D03*
%TD*%
%TO.P,,1*%
%TO.N,N/C*%
X186795000Y-54070000D03*
%TD*%
D23*
%TO.P,C14,1*%
%TO.N,N/C*%
X205025000Y-115025000D03*
%TO.P,C14,2*%
X205025000Y-113125000D03*
%TD*%
D33*
%TO.P,1K,1*%
%TO.N,N/C*%
X111185000Y-112770000D03*
D34*
%TO.P,1K,2*%
X106185000Y-110270000D03*
%TO.P,1K,3*%
%TO.N,5v*%
X111185000Y-107770000D03*
%TD*%
D20*
%TO.P,,1*%
%TO.N,N/C*%
X185895000Y-54070000D03*
%TD*%
D23*
%TO.P,C11,1*%
%TO.N,N/C*%
X201462500Y-124857500D03*
%TO.P,C11,2*%
X201462500Y-122957500D03*
%TD*%
D30*
%TO.P,22R,1*%
%TO.N,N/C*%
X194182500Y-38870000D03*
%TO.P,22R,2*%
X197107500Y-38870000D03*
%TD*%
D35*
%TO.P,R4,1*%
%TO.N,N/C*%
X199105000Y-116547500D03*
%TO.P,R4,2*%
X199105000Y-113622500D03*
%TD*%
D20*
%TO.P,,1*%
%TO.N,N/C*%
X184095000Y-54070000D03*
%TD*%
D21*
%TO.P,D1,1,K*%
%TO.N,N/C*%
X200260000Y-120775000D03*
D22*
%TO.P,D1,2,A*%
X200260000Y-118500000D03*
%TD*%
D36*
%TO.N,*%
X205285000Y-90025000D03*
D37*
X170295000Y-76145683D03*
D36*
X202535000Y-116175000D03*
X195485000Y-104325000D03*
X192485000Y-109845000D03*
D37*
X170745000Y-78395000D03*
D36*
X204365000Y-123385000D03*
D38*
X195320000Y-45520000D03*
D36*
X203135000Y-113975000D03*
X199045000Y-127625000D03*
D38*
X201970000Y-38945000D03*
X145325000Y-34720600D03*
X198495000Y-45520000D03*
X173939500Y-102845000D03*
X193070000Y-40545000D03*
D36*
X202485000Y-110675000D03*
D39*
X186820000Y-81395000D03*
D38*
X173914500Y-111770000D03*
D39*
X183195000Y-76770000D03*
X186795000Y-57245000D03*
X186220000Y-56320000D03*
D37*
X173970000Y-71545000D03*
X172470000Y-71545000D03*
D38*
X144100000Y-33895600D03*
D37*
X170292888Y-74645000D03*
D40*
X195455000Y-117215000D03*
D36*
X197985000Y-123425000D03*
D41*
X166935000Y-121589000D03*
D38*
X146600000Y-35420600D03*
D36*
X204475000Y-121805000D03*
X197135000Y-116185000D03*
D37*
X171970000Y-71545000D03*
D38*
X176529500Y-96655000D03*
D36*
X195985000Y-89975000D03*
X196355000Y-114713000D03*
X205485000Y-118095000D03*
D38*
X157932500Y-35378100D03*
D36*
X192005000Y-110475000D03*
D41*
X185089500Y-122055000D03*
D36*
X191585000Y-116235000D03*
X195985000Y-104825000D03*
D37*
X185745000Y-75645000D03*
D41*
X202920000Y-69551250D03*
D36*
X201985000Y-110175000D03*
X200985000Y-116175000D03*
X195485000Y-89475000D03*
X191985000Y-109025000D03*
X194985000Y-91475000D03*
X203095000Y-115305000D03*
D38*
X160050000Y-36820600D03*
X201545000Y-39745000D03*
X193070000Y-39770000D03*
X199295000Y-45520000D03*
X178064500Y-104120000D03*
D37*
X172970000Y-71545000D03*
D36*
X205485000Y-118825000D03*
D38*
X178064500Y-104920000D03*
D36*
X194665000Y-117865000D03*
D38*
X181639500Y-113805000D03*
D36*
X202473000Y-114363000D03*
X200985000Y-109175000D03*
D41*
X164783750Y-79143750D03*
D36*
X194635000Y-113875000D03*
D37*
X170292888Y-74145000D03*
D36*
X196285000Y-113425000D03*
D39*
X184995000Y-68720000D03*
D36*
X198985000Y-106475000D03*
D39*
X184070000Y-63145000D03*
D37*
X174470000Y-71545000D03*
D36*
X200245000Y-115815000D03*
D38*
X141550000Y-33120600D03*
D37*
X174970000Y-71545000D03*
D36*
X198485000Y-102665000D03*
X197985000Y-114305000D03*
D39*
X183170000Y-71445000D03*
D38*
X178064500Y-103320000D03*
D36*
X201485000Y-116175000D03*
X196985000Y-91475000D03*
D38*
X147900000Y-36120600D03*
D39*
X185895000Y-57220000D03*
D36*
X190685000Y-118575000D03*
D39*
X183170000Y-65945000D03*
D36*
X194985000Y-103825000D03*
X196985000Y-90025000D03*
D38*
X149150000Y-36820600D03*
X184664500Y-96655000D03*
X169389500Y-110245000D03*
D41*
X164570000Y-81480000D03*
D36*
X197635000Y-116535000D03*
D38*
X183514500Y-113805000D03*
D41*
X179864500Y-98870000D03*
D36*
X198985000Y-87375000D03*
D38*
X152850000Y-33470600D03*
D36*
X204685000Y-91125000D03*
D41*
X167733750Y-79118750D03*
D39*
X183170000Y-60470000D03*
D41*
X141645000Y-103945000D03*
D36*
X198985000Y-102675000D03*
D38*
X168335000Y-111514000D03*
D37*
X170292888Y-75145000D03*
D38*
X156650000Y-34720600D03*
X170239500Y-104595000D03*
D36*
X198485000Y-105925000D03*
D38*
X174689500Y-101245000D03*
D36*
X190985000Y-91975000D03*
D38*
X178089500Y-105720000D03*
D37*
X147495000Y-79845000D03*
D39*
X184995000Y-57195000D03*
D38*
X197720000Y-45520000D03*
X196895000Y-45520000D03*
D37*
X170292888Y-73645000D03*
X170770000Y-77895000D03*
D38*
X161750000Y-34245600D03*
X159225000Y-36120600D03*
X162575000Y-32695600D03*
D36*
X203925000Y-117713000D03*
D37*
X177020000Y-75145000D03*
D36*
X201485000Y-109675000D03*
D37*
X170292888Y-75670000D03*
D40*
X204455000Y-116215000D03*
D36*
X194985000Y-90475000D03*
X196485000Y-91975000D03*
D37*
X170292888Y-73145000D03*
X142070000Y-86895000D03*
D40*
X196125000Y-117715000D03*
D39*
X203485000Y-125950000D03*
D36*
X194495000Y-128365000D03*
D38*
X194520000Y-45545000D03*
X177589500Y-110495000D03*
X173964500Y-105295000D03*
D36*
X201985000Y-116175000D03*
X198485000Y-89525000D03*
X191855000Y-111085000D03*
X196485000Y-105325000D03*
X194975000Y-91975000D03*
X205285000Y-86225000D03*
D42*
X175220000Y-77345000D03*
D38*
X169314500Y-104595000D03*
D36*
X194495000Y-118705000D03*
X200985000Y-90625000D03*
D38*
X151650000Y-32370600D03*
X193070000Y-41370000D03*
X196095000Y-45520000D03*
D37*
X173470000Y-71545000D03*
D38*
X175664500Y-110145000D03*
D36*
X195560000Y-119213000D03*
D38*
%TO.N,gnd*%
X201120000Y-47495000D03*
X189220000Y-42920000D03*
X200095000Y-45770000D03*
D43*
X144645000Y-117895000D03*
D41*
X141045000Y-72782500D03*
X198895000Y-76326250D03*
X199470000Y-40345000D03*
D38*
X200095000Y-43870000D03*
%TO.N,5v*%
X197695000Y-35995000D03*
X199495000Y-38070000D03*
%TD*%
D44*
%TO.N,*%
X165620000Y-75645000D02*
X160870000Y-70895000D01*
D45*
X200910000Y-114970000D02*
X201485000Y-115545000D01*
D46*
X156650000Y-34720600D02*
X145325000Y-34720600D01*
D45*
X204455000Y-116215000D02*
X204435000Y-116235000D01*
X192555000Y-118255000D02*
X192165000Y-118645000D01*
X191855000Y-111085000D02*
X192995000Y-111085000D01*
X196665000Y-109175000D02*
X200985000Y-109175000D01*
X202422500Y-117500000D02*
X198635000Y-117500000D01*
X201985000Y-104325000D02*
X201985000Y-108151000D01*
D46*
X169314500Y-102595000D02*
X164639500Y-97920000D01*
D47*
X164783750Y-79143750D02*
X165731250Y-79143750D01*
D45*
X203095000Y-115305000D02*
X203095000Y-115055000D01*
D46*
X193070000Y-40545000D02*
X187945000Y-40545000D01*
D45*
X204475000Y-121805000D02*
X204365000Y-121915000D01*
D46*
X176889500Y-102995000D02*
X177364500Y-102520000D01*
D45*
X203135000Y-113975000D02*
X203135000Y-111785000D01*
D46*
X169314500Y-104595000D02*
X169314500Y-102595000D01*
X172314500Y-103645000D02*
X172314500Y-99420000D01*
X182059500Y-101670000D02*
X186364500Y-105975000D01*
X195270000Y-46245000D02*
X188790000Y-46245000D01*
D45*
X193720000Y-109260000D02*
X195635000Y-111175000D01*
X192565000Y-114825000D02*
X192155000Y-115235000D01*
X196125000Y-115705000D02*
X196125000Y-117715000D01*
X195285000Y-111675000D02*
X200535000Y-111675000D01*
X194905000Y-112175000D02*
X200285000Y-112175000D01*
D47*
X166820000Y-78055000D02*
X168670000Y-78055000D01*
D44*
X172970000Y-71545000D02*
X172970000Y-60795000D01*
D48*
X175664500Y-110145000D02*
X176014500Y-110495000D01*
D49*
X204250000Y-121100000D02*
X200585000Y-121100000D01*
D46*
X160050000Y-36820600D02*
X149150000Y-36820600D01*
D45*
X195485000Y-104325000D02*
X201985000Y-104325000D01*
D44*
X176170000Y-75145000D02*
X175220000Y-76095000D01*
X170595000Y-78395000D02*
X169420000Y-77220000D01*
D46*
X174739500Y-105745000D02*
X173914500Y-106570000D01*
D44*
X168630000Y-67470000D02*
X168620000Y-67480000D01*
D46*
X185349500Y-97570000D02*
X187014500Y-95905000D01*
X151675000Y-32345600D02*
X162225000Y-32345600D01*
D45*
X201445000Y-39745000D02*
X201545000Y-39745000D01*
X196485000Y-108151000D02*
X196485000Y-108995000D01*
D46*
X184764500Y-108620000D02*
X184764500Y-110020000D01*
D45*
X204685000Y-91125000D02*
X204735000Y-91175000D01*
D50*
X187389500Y-122230000D02*
X187714500Y-121905000D01*
D51*
X185089500Y-122055000D02*
X185089500Y-119955000D01*
D46*
X183664500Y-111145000D02*
X186114500Y-113595000D01*
D45*
X192675000Y-121945000D02*
X195135000Y-124405000D01*
X199710000Y-122625000D02*
X199710000Y-121325000D01*
D46*
X129510000Y-38810600D02*
X125225000Y-38810600D01*
D45*
X199485000Y-106225000D02*
X199485000Y-105925000D01*
X196232500Y-122922500D02*
X196232500Y-126047500D01*
D48*
X198220000Y-39370000D02*
X198070000Y-39520000D01*
D46*
X188790000Y-46245000D02*
X184290000Y-50745000D01*
D50*
X187714500Y-121905000D02*
X188739500Y-120880000D01*
D45*
X195745000Y-114165000D02*
X195745000Y-115325000D01*
X194985000Y-109695000D02*
X194985000Y-108151000D01*
X195485000Y-92975000D02*
X195485000Y-89475000D01*
X196245000Y-120165000D02*
X196125000Y-120045000D01*
X192165000Y-118645000D02*
X192165000Y-119705000D01*
X200985000Y-91975000D02*
X196485000Y-91975000D01*
X194182500Y-38870000D02*
X195170000Y-38870000D01*
D46*
X168450000Y-47235600D02*
X168450000Y-45220600D01*
D45*
X196285000Y-114643000D02*
X196285000Y-113425000D01*
D46*
X179464500Y-103320000D02*
X184764500Y-108620000D01*
D45*
X198635000Y-117500000D02*
X197645000Y-118490000D01*
X198985000Y-108151000D02*
X198985000Y-106975000D01*
X201947500Y-112362500D02*
X201947500Y-114567500D01*
D46*
X180369500Y-102520000D02*
X186364500Y-108515000D01*
D51*
X183620000Y-55395000D02*
X186370000Y-55395000D01*
D46*
X173939500Y-102845000D02*
X173939500Y-100570000D01*
D44*
X171970000Y-71545000D02*
X171970000Y-69745000D01*
D46*
X185799500Y-111055000D02*
X187014500Y-111055000D01*
D51*
X160664500Y-124750000D02*
X160664500Y-122210000D01*
D49*
X197985000Y-126425000D02*
X199660000Y-126425000D01*
D45*
X196125000Y-117715000D02*
X196125000Y-118725000D01*
D46*
X126575000Y-47620600D02*
X125225000Y-48970600D01*
D44*
X170292888Y-73145000D02*
X169870000Y-73145000D01*
D45*
X195985000Y-86325000D02*
X195985000Y-88475000D01*
D46*
X181639500Y-113805000D02*
X183439500Y-113805000D01*
D45*
X204435000Y-120915000D02*
X204250000Y-121100000D01*
D49*
X193315000Y-115765000D02*
X193315000Y-117315000D01*
D45*
X200372500Y-113012500D02*
X200372500Y-115142500D01*
X202785000Y-124050000D02*
X202185000Y-124650000D01*
D46*
X199295000Y-48440000D02*
X196990000Y-50745000D01*
D45*
X201985000Y-92975000D02*
X195485000Y-92975000D01*
D44*
X163920000Y-78145000D02*
X160870000Y-78145000D01*
D45*
X194665000Y-117865000D02*
X194665000Y-115375000D01*
D46*
X187945000Y-40545000D02*
X181645000Y-34245000D01*
D45*
X192220000Y-109260000D02*
X193720000Y-109260000D01*
D46*
X177364500Y-102520000D02*
X180369500Y-102520000D01*
X125225000Y-46245600D02*
X125225000Y-46430600D01*
D47*
X168670000Y-78055000D02*
X169995000Y-79380000D01*
D46*
X175989500Y-104745000D02*
X175989500Y-102620000D01*
D45*
X202185000Y-124650000D02*
X201435000Y-124650000D01*
X195170000Y-38870000D02*
X195670000Y-38370000D01*
X199485000Y-89625000D02*
X199485000Y-90025000D01*
D46*
X184185000Y-34185000D02*
X184185000Y-32520000D01*
D49*
X200835000Y-126425000D02*
X203735000Y-129325000D01*
D44*
X174970000Y-71545000D02*
X174970000Y-68920000D01*
X163995000Y-71645000D02*
X163995000Y-66030000D01*
D45*
X190805000Y-119245000D02*
X190805000Y-121015000D01*
D46*
X181645000Y-34245000D02*
X181645000Y-32520000D01*
D45*
X205785000Y-86875000D02*
X196985000Y-86875000D01*
X192675000Y-120215000D02*
X192675000Y-121945000D01*
D47*
X169995000Y-79380000D02*
X173185000Y-79380000D01*
D46*
X192445000Y-47670000D02*
X189370000Y-50745000D01*
D45*
X195560000Y-122250000D02*
X196735000Y-123425000D01*
X197195000Y-34870000D02*
X199370000Y-34870000D01*
X194207500Y-40870000D02*
X195445000Y-40870000D01*
X195670000Y-38370000D02*
X195670000Y-36395000D01*
D46*
X149150000Y-36820600D02*
X135650000Y-36820600D01*
D45*
X192725000Y-112945000D02*
X194025000Y-112945000D01*
D46*
X174739500Y-104770000D02*
X174739500Y-105745000D01*
X179864500Y-98870000D02*
X174314500Y-98870000D01*
X128095000Y-41350600D02*
X125225000Y-41350600D01*
D48*
X199470000Y-39370000D02*
X198220000Y-39370000D01*
D45*
X204365000Y-123385000D02*
X204365000Y-123920000D01*
X194495000Y-118705000D02*
X194045000Y-118255000D01*
D46*
X126575000Y-45895600D02*
X126575000Y-47620600D01*
D44*
X164470000Y-63965000D02*
X160870000Y-60365000D01*
D46*
X151650000Y-32370600D02*
X151625000Y-32345600D01*
D45*
X195965000Y-110675000D02*
X194985000Y-109695000D01*
D46*
X160875000Y-34720600D02*
X156650000Y-34720600D01*
D45*
X195135000Y-126945000D02*
X195815000Y-127625000D01*
D47*
X166080000Y-63980000D02*
X163385000Y-61285000D01*
D45*
X204435000Y-116235000D02*
X204435000Y-120915000D01*
D44*
X163995000Y-66030000D02*
X160870000Y-62905000D01*
D45*
X205285000Y-90025000D02*
X201985000Y-90025000D01*
X200285000Y-112175000D02*
X200910000Y-112800000D01*
X190805000Y-121015000D02*
X191365000Y-121575000D01*
X196485000Y-105325000D02*
X200985000Y-105325000D01*
D46*
X165980000Y-38825600D02*
X170200000Y-38825600D01*
D45*
X196170000Y-40145000D02*
X196170000Y-36645000D01*
D46*
X175989500Y-102620000D02*
X176939500Y-101670000D01*
D51*
X186370000Y-55395000D02*
X186795000Y-54970000D01*
D44*
X164470000Y-71495000D02*
X164470000Y-63965000D01*
D45*
X195135000Y-124405000D02*
X195135000Y-126945000D01*
X200535000Y-111675000D02*
X201435000Y-112575000D01*
D46*
X151650000Y-32370600D02*
X151675000Y-32345600D01*
X186254500Y-100895000D02*
X187014500Y-100895000D01*
D45*
X203285000Y-122900000D02*
X201585000Y-122900000D01*
D46*
X143975000Y-34020600D02*
X134300000Y-34020600D01*
D49*
X201985000Y-131075000D02*
X203735000Y-129325000D01*
D46*
X166935000Y-121589000D02*
X166314000Y-122210000D01*
D45*
X196355000Y-114713000D02*
X196285000Y-114643000D01*
D44*
X170292888Y-74645000D02*
X166195000Y-74645000D01*
D46*
X196095000Y-45520000D02*
X196095000Y-46870000D01*
D45*
X196845000Y-120765000D02*
X196245000Y-120165000D01*
D46*
X176529500Y-96655000D02*
X184664500Y-96655000D01*
D45*
X196435000Y-109675000D02*
X195985000Y-109225000D01*
X195485000Y-109465000D02*
X195485000Y-108151000D01*
D46*
X196695000Y-47670000D02*
X192445000Y-47670000D01*
X164639500Y-97920000D02*
X164639500Y-95870000D01*
X196895000Y-47470000D02*
X196695000Y-47670000D01*
D44*
X170292888Y-75145000D02*
X165920000Y-75145000D01*
D46*
X178739500Y-104120000D02*
X183664500Y-109045000D01*
D45*
X198205000Y-115575000D02*
X200005000Y-115575000D01*
X194045000Y-118255000D02*
X192555000Y-118255000D01*
X203925000Y-117713000D02*
X203925000Y-115455000D01*
D46*
X195320000Y-45520000D02*
X195320000Y-46195000D01*
D45*
X194025000Y-112945000D02*
X194335000Y-113255000D01*
D50*
X182789500Y-124405000D02*
X172374500Y-124405000D01*
D45*
X194495000Y-124705000D02*
X194495000Y-128365000D01*
X190575000Y-118465000D02*
X190685000Y-118575000D01*
X192155000Y-117895000D02*
X190805000Y-119245000D01*
X199710000Y-121325000D02*
X200260000Y-120775000D01*
X199145000Y-35395000D02*
X201095000Y-37345000D01*
D51*
X185895000Y-57220000D02*
X185895000Y-82745000D01*
D45*
X201485000Y-109675000D02*
X196435000Y-109675000D01*
X204355000Y-115025000D02*
X205025000Y-115025000D01*
X205285000Y-86225000D02*
X205185000Y-86325000D01*
X195175000Y-114415000D02*
X195175000Y-116935000D01*
X194665000Y-115375000D02*
X194115000Y-114825000D01*
X192155000Y-117335000D02*
X192155000Y-117895000D01*
X196125000Y-120045000D02*
X196125000Y-118725000D01*
X198685000Y-103235000D02*
X193405000Y-103235000D01*
X198485000Y-108151000D02*
X198485000Y-106475000D01*
X203925000Y-115455000D02*
X204355000Y-115025000D01*
D46*
X161750000Y-34595600D02*
X165980000Y-38825600D01*
D45*
X203135000Y-111785000D02*
X203485000Y-111435000D01*
X196985000Y-86875000D02*
X196985000Y-88475000D01*
X198985000Y-102675000D02*
X198985000Y-102935000D01*
D51*
X186039500Y-119005000D02*
X186964500Y-119005000D01*
D49*
X205185000Y-126475000D02*
X205185000Y-125175000D01*
D46*
X161750000Y-34245600D02*
X161750000Y-34595600D01*
D44*
X172470000Y-68770000D02*
X171170000Y-67470000D01*
X167345000Y-68745000D02*
X166080000Y-67480000D01*
D45*
X200760000Y-111175000D02*
X201947500Y-112362500D01*
D44*
X178430000Y-60360000D02*
X179720000Y-60360000D01*
D45*
X196985000Y-90525000D02*
X196985000Y-91475000D01*
X190575000Y-105195000D02*
X190575000Y-118465000D01*
D44*
X169557500Y-76682500D02*
X164907500Y-76682500D01*
D45*
X202422500Y-119475000D02*
X201447500Y-118500000D01*
D46*
X183664500Y-109045000D02*
X183664500Y-111145000D01*
D45*
X192165000Y-119705000D02*
X192675000Y-120215000D01*
D46*
X134300000Y-34020600D02*
X129510000Y-38810600D01*
D45*
X194985000Y-90475000D02*
X194985000Y-91475000D01*
D46*
X176889500Y-104545000D02*
X176889500Y-102995000D01*
D45*
X202985000Y-109175000D02*
X202985000Y-111065000D01*
X201947500Y-114567500D02*
X202535000Y-115155000D01*
D44*
X173970000Y-71545000D02*
X173970000Y-64820000D01*
D46*
X134900000Y-32345600D02*
X130975000Y-36270600D01*
D45*
X200085000Y-90525000D02*
X196985000Y-90525000D01*
X196485000Y-108995000D02*
X196665000Y-109175000D01*
X201985000Y-88475000D02*
X201985000Y-92975000D01*
X195985000Y-89975000D02*
X195985000Y-92475000D01*
D51*
X183195000Y-55820000D02*
X183620000Y-55395000D01*
D45*
X194985000Y-103825000D02*
X202485000Y-103825000D01*
X201585000Y-122900000D02*
X201435000Y-122750000D01*
X201435000Y-112575000D02*
X201435000Y-114785000D01*
D44*
X164845000Y-77220000D02*
X163920000Y-78145000D01*
D51*
X184995000Y-57195000D02*
X184995000Y-82745000D01*
D46*
X177264500Y-104920000D02*
X176889500Y-104545000D01*
D45*
X192005000Y-110475000D02*
X193205000Y-110475000D01*
X196170000Y-36645000D02*
X197420000Y-35395000D01*
D47*
X166080000Y-64940000D02*
X166080000Y-63980000D01*
D44*
X177020000Y-75145000D02*
X176170000Y-75145000D01*
D49*
X205185000Y-122900000D02*
X205185000Y-121100000D01*
D45*
X196735000Y-123425000D02*
X197985000Y-123425000D01*
D44*
X178445000Y-57820000D02*
X179720000Y-57820000D01*
D45*
X205185000Y-86325000D02*
X195985000Y-86325000D01*
D46*
X193070000Y-41370000D02*
X185795000Y-41370000D01*
X184764500Y-110020000D02*
X185799500Y-111055000D01*
D45*
X193205000Y-110475000D02*
X194905000Y-112175000D01*
D46*
X173939500Y-100570000D02*
X174789500Y-99720000D01*
D49*
X203285000Y-125175000D02*
X203285000Y-126475000D01*
D48*
X199470000Y-38720000D02*
X197257500Y-38720000D01*
D46*
X191910000Y-50730000D02*
X191910000Y-50745000D01*
X186364500Y-105975000D02*
X187014500Y-105975000D01*
D45*
X201095000Y-37345000D02*
X201095000Y-39395000D01*
X205785000Y-109675000D02*
X205785000Y-86875000D01*
D46*
X190145000Y-43870000D02*
X200095000Y-43870000D01*
D45*
X196735000Y-123425000D02*
X196232500Y-122922500D01*
X198985000Y-88475000D02*
X198985000Y-89525000D01*
D46*
X134725000Y-34720600D02*
X128095000Y-41350600D01*
D45*
X200485000Y-88475000D02*
X200485000Y-89625000D01*
X192995000Y-111085000D02*
X194585000Y-112675000D01*
X191075000Y-111295000D02*
X191585000Y-111805000D01*
D46*
X173914500Y-106570000D02*
X173914500Y-111770000D01*
D45*
X192485000Y-109845000D02*
X193455000Y-109845000D01*
D46*
X151625000Y-32345600D02*
X134900000Y-32345600D01*
X186114500Y-113595000D02*
X187014500Y-113595000D01*
X176964500Y-105720000D02*
X175989500Y-104745000D01*
D44*
X173470000Y-62795000D02*
X178445000Y-57820000D01*
D46*
X186364500Y-103435000D02*
X187014500Y-103435000D01*
D45*
X198985000Y-102935000D02*
X198685000Y-103235000D01*
D44*
X170292888Y-73645000D02*
X166620000Y-73645000D01*
D45*
X195670000Y-36395000D02*
X197195000Y-34870000D01*
X193455000Y-109845000D02*
X195285000Y-111675000D01*
X194115000Y-114825000D02*
X192565000Y-114825000D01*
X205285000Y-109175000D02*
X202985000Y-109175000D01*
D46*
X167520000Y-41365600D02*
X160875000Y-34720600D01*
D49*
X200735000Y-126415000D02*
X200735000Y-125350000D01*
D51*
X186795000Y-57245000D02*
X186795000Y-82745000D01*
D46*
X141550000Y-33120600D02*
X152500000Y-33120600D01*
X170200000Y-45995600D02*
X160325000Y-36120600D01*
D45*
X201620000Y-38595000D02*
X201970000Y-38945000D01*
D46*
X172314500Y-99420000D02*
X174164500Y-97570000D01*
X160325000Y-36120600D02*
X159225000Y-36120600D01*
X170200000Y-48985600D02*
X168450000Y-47235600D01*
X186950000Y-45545000D02*
X181750000Y-50745000D01*
X178064500Y-104120000D02*
X178739500Y-104120000D01*
D44*
X170970000Y-68745000D02*
X167345000Y-68745000D01*
D46*
X185079500Y-99720000D02*
X186254500Y-100895000D01*
D44*
X169870000Y-73145000D02*
X168620000Y-71895000D01*
X174470000Y-71545000D02*
X174470000Y-67095000D01*
D45*
X204735000Y-107025000D02*
X205285000Y-107025000D01*
D44*
X160870000Y-70895000D02*
X160870000Y-70525000D01*
D46*
X185795000Y-41370000D02*
X179105000Y-34680000D01*
D45*
X200985000Y-115755000D02*
X200985000Y-116175000D01*
D51*
X186795000Y-54970000D02*
X186795000Y-54070000D01*
D45*
X194635000Y-113875000D02*
X192805000Y-113875000D01*
D44*
X170770000Y-77895000D02*
X169557500Y-76682500D01*
D47*
X165372500Y-81480000D02*
X164570000Y-81480000D01*
D45*
X200372500Y-115142500D02*
X200985000Y-115755000D01*
D49*
X205185000Y-121100000D02*
X204250000Y-121100000D01*
D46*
X144100000Y-33895600D02*
X143975000Y-34020600D01*
X168335000Y-111514000D02*
X168335000Y-111299500D01*
D50*
X188739500Y-117305000D02*
X187939500Y-116505000D01*
X182789500Y-124405000D02*
X182789500Y-122380000D01*
D46*
X168450000Y-45220600D02*
X160050000Y-36820600D01*
D45*
X202985000Y-111065000D02*
X202473000Y-111577000D01*
D44*
X172970000Y-60795000D02*
X178485000Y-55280000D01*
X162995000Y-72220000D02*
X162995000Y-70110000D01*
D45*
X199105000Y-113895000D02*
X199105000Y-113622500D01*
X203485000Y-111435000D02*
X203485000Y-109675000D01*
X204365000Y-121915000D02*
X204365000Y-123385000D01*
X199370000Y-34870000D02*
X201620000Y-37120000D01*
X191985000Y-109025000D02*
X192220000Y-109260000D01*
D51*
X183195000Y-76770000D02*
X183195000Y-55820000D01*
D44*
X163830000Y-75605000D02*
X160870000Y-75605000D01*
D50*
X172374500Y-124405000D02*
X172314500Y-124345000D01*
D46*
X178064500Y-103320000D02*
X179464500Y-103320000D01*
X166314000Y-122210000D02*
X160664500Y-122210000D01*
X169085000Y-43905600D02*
X170200000Y-43905600D01*
D44*
X178665000Y-62900000D02*
X179720000Y-62900000D01*
D45*
X195745000Y-115325000D02*
X196125000Y-115705000D01*
D44*
X170745000Y-78395000D02*
X170595000Y-78395000D01*
D45*
X200910000Y-112800000D02*
X200910000Y-114970000D01*
D44*
X163520000Y-71970000D02*
X163520000Y-68095000D01*
D46*
X174314500Y-98870000D02*
X173089500Y-100095000D01*
D45*
X202473000Y-111577000D02*
X202473000Y-114363000D01*
D46*
X193070000Y-39770000D02*
X189770000Y-39770000D01*
D45*
X198485000Y-88475000D02*
X198485000Y-87375000D01*
X197635000Y-116535000D02*
X197635000Y-116145000D01*
X200085000Y-90125000D02*
X200085000Y-90525000D01*
X195635000Y-111175000D02*
X200760000Y-111175000D01*
D46*
X169925000Y-33470600D02*
X170200000Y-33745600D01*
D44*
X174470000Y-67095000D02*
X178665000Y-62900000D01*
D45*
X195985000Y-104825000D02*
X201485000Y-104825000D01*
X195985000Y-109225000D02*
X195985000Y-108151000D01*
X191365000Y-121575000D02*
X194495000Y-124705000D01*
D44*
X173970000Y-64820000D02*
X178430000Y-60360000D01*
D46*
X179105000Y-34680000D02*
X179105000Y-32520000D01*
X199295000Y-45520000D02*
X199295000Y-48440000D01*
D45*
X198485000Y-87375000D02*
X198985000Y-87375000D01*
D46*
X173089500Y-100095000D02*
X173089500Y-103120000D01*
X178089500Y-105720000D02*
X176964500Y-105720000D01*
D45*
X194975000Y-91975000D02*
X190985000Y-91975000D01*
D46*
X162225000Y-32345600D02*
X162575000Y-32695600D01*
D45*
X191585000Y-111805000D02*
X192725000Y-112945000D01*
D44*
X165245000Y-76145000D02*
X162165000Y-73065000D01*
D45*
X196610000Y-126425000D02*
X197985000Y-126425000D01*
X191585000Y-111805000D02*
X191585000Y-116235000D01*
D48*
X176014500Y-110495000D02*
X177589500Y-110495000D01*
D44*
X170292888Y-74145000D02*
X166495000Y-74145000D01*
D46*
X197020000Y-48420000D02*
X194220000Y-48420000D01*
D45*
X200985000Y-90125000D02*
X200085000Y-90125000D01*
D44*
X166620000Y-73645000D02*
X164470000Y-71495000D01*
X173470000Y-71545000D02*
X173470000Y-62795000D01*
D45*
X199485000Y-105925000D02*
X198485000Y-105925000D01*
X200985000Y-90625000D02*
X200985000Y-91975000D01*
X193105000Y-102665000D02*
X190575000Y-105195000D01*
X204235000Y-124050000D02*
X202785000Y-124050000D01*
X202485000Y-110675000D02*
X195965000Y-110675000D01*
D51*
X184095000Y-56420000D02*
X184095000Y-82745000D01*
D48*
X197257500Y-38720000D02*
X197107500Y-38870000D01*
D46*
X198495000Y-48045000D02*
X197345000Y-49195000D01*
D48*
X198070000Y-39520000D02*
X198070000Y-40595000D01*
D45*
X197135000Y-115865000D02*
X199105000Y-113895000D01*
X203095000Y-115055000D02*
X205025000Y-113125000D01*
D46*
X176939500Y-101670000D02*
X182059500Y-101670000D01*
X194450000Y-50365000D02*
X194450000Y-50745000D01*
D45*
X196232500Y-126047500D02*
X196610000Y-126425000D01*
D46*
X174789500Y-99720000D02*
X185079500Y-99720000D01*
D49*
X203285000Y-126475000D02*
X205185000Y-126475000D01*
D45*
X200985000Y-105325000D02*
X200985000Y-108151000D01*
D46*
X146600000Y-35420600D02*
X135025000Y-35420600D01*
D47*
X165731250Y-79143750D02*
X166820000Y-78055000D01*
D45*
X200035000Y-112675000D02*
X200372500Y-113012500D01*
D44*
X164907500Y-76682500D02*
X163830000Y-75605000D01*
D46*
X175289500Y-100645000D02*
X183574500Y-100645000D01*
D45*
X195560000Y-119213000D02*
X195560000Y-122250000D01*
X197525000Y-114305000D02*
X196125000Y-115705000D01*
D44*
X169420000Y-77220000D02*
X164845000Y-77220000D01*
D45*
X193405000Y-103235000D02*
X191075000Y-105565000D01*
D44*
X172470000Y-71545000D02*
X172470000Y-68770000D01*
D51*
X185089500Y-119955000D02*
X186039500Y-119005000D01*
D45*
X195560000Y-119213000D02*
X192793000Y-119213000D01*
D46*
X174164500Y-97570000D02*
X185349500Y-97570000D01*
D45*
X198485000Y-106475000D02*
X198985000Y-106475000D01*
X197985000Y-124525000D02*
X199710000Y-124525000D01*
D48*
X197795000Y-40870000D02*
X197132500Y-40870000D01*
D46*
X173089500Y-103120000D02*
X174739500Y-104770000D01*
X147900000Y-36120600D02*
X135350000Y-36120600D01*
D45*
X201435000Y-114785000D02*
X201985000Y-115335000D01*
X201485000Y-115545000D02*
X201485000Y-116175000D01*
X200985000Y-88475000D02*
X200985000Y-90125000D01*
D46*
X186364500Y-108515000D02*
X187014500Y-108515000D01*
X194520000Y-45545000D02*
X186950000Y-45545000D01*
D49*
X199660000Y-126425000D02*
X200835000Y-126425000D01*
D45*
X197135000Y-116185000D02*
X197135000Y-115865000D01*
D46*
X167179500Y-99110000D02*
X167179500Y-95870000D01*
D45*
X204735000Y-91175000D02*
X204735000Y-107025000D01*
D46*
X196895000Y-45520000D02*
X196895000Y-47470000D01*
D49*
X197655000Y-120775000D02*
X197645000Y-120765000D01*
D46*
X174689500Y-101245000D02*
X175289500Y-100645000D01*
D45*
X195815000Y-127625000D02*
X199045000Y-127625000D01*
D46*
X183574500Y-100645000D02*
X186364500Y-103435000D01*
D51*
X186220000Y-56320000D02*
X184195000Y-56320000D01*
D47*
X167733750Y-79118750D02*
X165372500Y-81480000D01*
D45*
X194635000Y-113875000D02*
X195175000Y-114415000D01*
X197645000Y-120765000D02*
X196845000Y-120765000D01*
D46*
X126555000Y-43890600D02*
X125225000Y-43890600D01*
X152500000Y-33120600D02*
X152850000Y-33470600D01*
D45*
X198985000Y-89525000D02*
X198485000Y-89525000D01*
X201095000Y-39395000D02*
X201445000Y-39745000D01*
X201485000Y-92475000D02*
X201485000Y-88475000D01*
D46*
X130975000Y-36270600D02*
X125225000Y-36270600D01*
D44*
X165920000Y-75145000D02*
X162995000Y-72220000D01*
D49*
X200585000Y-121100000D02*
X200260000Y-120775000D01*
D46*
X187014500Y-95905000D02*
X187014500Y-95815000D01*
D45*
X194335000Y-113255000D02*
X194835000Y-113255000D01*
X195175000Y-116935000D02*
X195455000Y-117215000D01*
D50*
X182789500Y-122380000D02*
X182314500Y-121905000D01*
D46*
X195320000Y-46195000D02*
X195270000Y-46245000D01*
D45*
X192155000Y-115235000D02*
X192155000Y-117335000D01*
D46*
X198495000Y-45520000D02*
X198495000Y-48045000D01*
X196020000Y-46945000D02*
X190630000Y-46945000D01*
D49*
X200260000Y-120775000D02*
X197655000Y-120775000D01*
D45*
X197647500Y-116547500D02*
X199105000Y-116547500D01*
X198485000Y-102665000D02*
X193105000Y-102665000D01*
X196485000Y-91975000D02*
X196485000Y-88475000D01*
D44*
X175220000Y-76095000D02*
X175220000Y-77345000D01*
D45*
X200005000Y-115575000D02*
X200245000Y-115815000D01*
X197635000Y-116145000D02*
X198205000Y-115575000D01*
X194835000Y-113255000D02*
X195745000Y-114165000D01*
D49*
X194085000Y-131075000D02*
X201985000Y-131075000D01*
D45*
X201985000Y-115335000D02*
X201985000Y-116175000D01*
D44*
X170295000Y-76145683D02*
X170294317Y-76145000D01*
D46*
X196095000Y-46870000D02*
X196020000Y-46945000D01*
D45*
X197635000Y-116535000D02*
X197647500Y-116547500D01*
X204365000Y-123920000D02*
X204235000Y-124050000D01*
D47*
X163385000Y-61285000D02*
X163385000Y-55845000D01*
D44*
X170292888Y-75670000D02*
X170267888Y-75645000D01*
D45*
X196195000Y-110175000D02*
X195485000Y-109465000D01*
D46*
X170200000Y-46445600D02*
X170200000Y-45995600D01*
D50*
X188739500Y-120880000D02*
X188739500Y-117305000D01*
D45*
X200485000Y-89625000D02*
X199485000Y-89625000D01*
D46*
X195620000Y-49195000D02*
X194450000Y-50365000D01*
X173964500Y-105295000D02*
X172314500Y-103645000D01*
D45*
X203485000Y-109675000D02*
X205785000Y-109675000D01*
D46*
X202920000Y-69551250D02*
X202920000Y-60496250D01*
D50*
X184214500Y-121905000D02*
X185814500Y-121905000D01*
D46*
X194220000Y-48420000D02*
X191910000Y-50730000D01*
D50*
X187389500Y-124405000D02*
X187389500Y-122230000D01*
D46*
X135025000Y-35420600D02*
X126555000Y-43890600D01*
D51*
X183195000Y-82745000D02*
X183195000Y-76770000D01*
D46*
X168335000Y-111299500D02*
X169389500Y-110245000D01*
X189770000Y-39770000D02*
X184185000Y-34185000D01*
D50*
X187939500Y-116505000D02*
X186964500Y-116505000D01*
D46*
X197720000Y-45520000D02*
X197720000Y-47720000D01*
X202920000Y-69551250D02*
X202870000Y-69601250D01*
D45*
X197985000Y-114305000D02*
X197525000Y-114305000D01*
D47*
X173185000Y-79380000D02*
X175220000Y-77345000D01*
D46*
X197720000Y-47720000D02*
X197020000Y-48420000D01*
X170239500Y-102170000D02*
X167179500Y-99110000D01*
X157975000Y-35420600D02*
X146600000Y-35420600D01*
X190630000Y-46945000D02*
X186830000Y-50745000D01*
X145325000Y-34720600D02*
X134725000Y-34720600D01*
X157975000Y-35420600D02*
X160600000Y-35420600D01*
X178064500Y-104920000D02*
X177264500Y-104920000D01*
D45*
X202535000Y-115155000D02*
X202535000Y-116175000D01*
D44*
X174970000Y-68920000D02*
X178450000Y-65440000D01*
D45*
X199485000Y-106975000D02*
X199485000Y-106225000D01*
D44*
X178485000Y-55280000D02*
X179720000Y-55280000D01*
D45*
X199485000Y-90025000D02*
X196985000Y-90025000D01*
X204235000Y-125175000D02*
X204235000Y-124050000D01*
D46*
X170239500Y-104595000D02*
X170239500Y-102170000D01*
D45*
X195985000Y-92475000D02*
X201485000Y-92475000D01*
X197420000Y-35395000D02*
X199145000Y-35395000D01*
D49*
X192335000Y-129325000D02*
X194085000Y-131075000D01*
D44*
X166195000Y-74645000D02*
X163520000Y-71970000D01*
D46*
X197345000Y-49195000D02*
X195620000Y-49195000D01*
D44*
X168620000Y-71895000D02*
X168620000Y-70020000D01*
D50*
X185089500Y-124405000D02*
X185089500Y-122055000D01*
D46*
X135350000Y-36120600D02*
X125225000Y-46245600D01*
D45*
X201620000Y-37120000D02*
X201620000Y-38595000D01*
X202485000Y-103825000D02*
X202485000Y-108151000D01*
D44*
X162165000Y-73065000D02*
X160870000Y-73065000D01*
D45*
X201485000Y-104825000D02*
X201485000Y-108151000D01*
D46*
X170200000Y-41365600D02*
X167520000Y-41365600D01*
X152850000Y-33470600D02*
X169925000Y-33470600D01*
X160600000Y-35420600D02*
X169085000Y-43905600D01*
D48*
X198070000Y-40595000D02*
X197795000Y-40870000D01*
D44*
X171170000Y-67470000D02*
X168630000Y-67470000D01*
X163520000Y-68095000D02*
X160870000Y-65445000D01*
D45*
X195445000Y-40870000D02*
X196170000Y-40145000D01*
D44*
X170294317Y-76145000D02*
X165245000Y-76145000D01*
X170267888Y-75645000D02*
X165620000Y-75645000D01*
D46*
X202920000Y-60496250D02*
X199300000Y-56876250D01*
D44*
X178450000Y-65440000D02*
X179720000Y-65440000D01*
X166495000Y-74145000D02*
X163995000Y-71645000D01*
D45*
X205285000Y-107025000D02*
X205285000Y-109175000D01*
D44*
X162995000Y-70110000D02*
X160870000Y-67985000D01*
D46*
X135650000Y-36820600D02*
X126575000Y-45895600D01*
D45*
X191075000Y-105565000D02*
X191075000Y-111295000D01*
X198985000Y-106975000D02*
X199485000Y-106975000D01*
D46*
X159225000Y-36120600D02*
X147900000Y-36120600D01*
D45*
X201447500Y-118500000D02*
X200260000Y-118500000D01*
X194585000Y-112675000D02*
X200035000Y-112675000D01*
D44*
X171970000Y-69745000D02*
X170970000Y-68745000D01*
D45*
X201985000Y-110175000D02*
X196195000Y-110175000D01*
D49*
X200735000Y-125350000D02*
X201435000Y-124650000D01*
D51*
X184195000Y-56320000D02*
X184095000Y-56420000D01*
D50*
%TO.N,gnd*%
X134855000Y-71885000D02*
X134175000Y-72565000D01*
D46*
X190095000Y-43820000D02*
X190145000Y-43870000D01*
D50*
X134830000Y-86745000D02*
X134830000Y-89235000D01*
X141045000Y-72782500D02*
X141045000Y-62370000D01*
X132145000Y-72565000D02*
X132145000Y-76650000D01*
X134805000Y-104040000D02*
X134805000Y-106460000D01*
X155655000Y-123245000D02*
X156015000Y-123245000D01*
D46*
X190095000Y-43795000D02*
X190095000Y-43820000D01*
D50*
X132130000Y-107145000D02*
X132095000Y-107110000D01*
X134080000Y-124360000D02*
X132070000Y-124360000D01*
X152945000Y-119220000D02*
X152945000Y-120535000D01*
X151620000Y-117895000D02*
X152945000Y-119220000D01*
X135445000Y-55895000D02*
X135445000Y-59355000D01*
X135445000Y-59355000D02*
X135375000Y-59425000D01*
X135375000Y-59425000D02*
X132145000Y-59425000D01*
D46*
X198895000Y-76326250D02*
X202645000Y-76326250D01*
D48*
X199470000Y-40345000D02*
X199470000Y-40020000D01*
D46*
X200895000Y-42220000D02*
X201420000Y-41695000D01*
D50*
X134830000Y-89235000D02*
X134245000Y-89820000D01*
X132125000Y-89820000D02*
X132120000Y-89815000D01*
D46*
X202645000Y-76326250D02*
X204380000Y-74591250D01*
D50*
X141045000Y-62370000D02*
X138100000Y-59425000D01*
X132095000Y-111195000D02*
X132070000Y-111220000D01*
D48*
X199470000Y-40345000D02*
X199470000Y-40670000D01*
D46*
X200095000Y-45770000D02*
X201120000Y-46795000D01*
X189220000Y-42920000D02*
X190095000Y-43795000D01*
D50*
X156015000Y-123245000D02*
X156040000Y-123270000D01*
X134120000Y-107145000D02*
X132130000Y-107145000D01*
X134805000Y-106460000D02*
X134120000Y-107145000D01*
D46*
X200745000Y-40345000D02*
X199470000Y-40345000D01*
X200895000Y-44970000D02*
X200895000Y-42220000D01*
X204380000Y-74591250D02*
X204380000Y-56876250D01*
D50*
X132145000Y-76650000D02*
X132120000Y-76675000D01*
D46*
X201420000Y-41695000D02*
X201420000Y-41020000D01*
D50*
X140920000Y-121290000D02*
X142900000Y-123270000D01*
X144645000Y-117895000D02*
X151620000Y-117895000D01*
X134855000Y-69495000D02*
X134855000Y-71885000D01*
X134780000Y-123660000D02*
X134080000Y-124360000D01*
D46*
X201120000Y-46795000D02*
X201120000Y-47495000D01*
D50*
X132120000Y-89815000D02*
X132120000Y-93945000D01*
D46*
X200095000Y-45770000D02*
X200895000Y-44970000D01*
D50*
X132095000Y-107110000D02*
X132095000Y-111195000D01*
X134780000Y-121290000D02*
X134780000Y-123660000D01*
X134175000Y-72565000D02*
X132145000Y-72565000D01*
D48*
X199470000Y-40020000D02*
X199470000Y-40670000D01*
D50*
X134245000Y-89820000D02*
X132125000Y-89820000D01*
X138100000Y-59425000D02*
X135375000Y-59425000D01*
X132120000Y-93945000D02*
X132095000Y-93970000D01*
D46*
X201420000Y-41020000D02*
X200745000Y-40345000D01*
D50*
X152945000Y-120535000D02*
X155655000Y-123245000D01*
X134780000Y-121290000D02*
X140920000Y-121290000D01*
%TO.N,5v*%
X137115000Y-114290000D02*
X134780000Y-114290000D01*
X134805000Y-97040000D02*
X136975000Y-97040000D01*
X137095000Y-79995000D02*
X137095000Y-96920000D01*
D48*
X197695000Y-37495000D02*
X198270000Y-38070000D01*
D50*
X145970000Y-120560000D02*
X145960000Y-120570000D01*
X137095000Y-103720000D02*
X137095000Y-114270000D01*
D48*
X197695000Y-35995000D02*
X197695000Y-37495000D01*
D50*
X136975000Y-97040000D02*
X137095000Y-96920000D01*
X137095000Y-103720000D02*
X137095000Y-103945000D01*
X136845000Y-79745000D02*
X137095000Y-79995000D01*
X136645000Y-62495000D02*
X137095000Y-62945000D01*
X145960000Y-120570000D02*
X143395000Y-120570000D01*
X134855000Y-62495000D02*
X136645000Y-62495000D01*
X137095000Y-96920000D02*
X137095000Y-103720000D01*
D48*
X198270000Y-38070000D02*
X199470000Y-38070000D01*
D50*
X137095000Y-103945000D02*
X141645000Y-103945000D01*
X134830000Y-79745000D02*
X136845000Y-79745000D01*
X137095000Y-65595000D02*
X137095000Y-79995000D01*
X143395000Y-120570000D02*
X137115000Y-114290000D01*
X137095000Y-62945000D02*
X137095000Y-65595000D01*
X137095000Y-114270000D02*
X137115000Y-114290000D01*
D48*
%TO.N,1.8V*%
X143745000Y-81445000D02*
X145345000Y-79845000D01*
X143170000Y-86895000D02*
X143745000Y-86320000D01*
X143745000Y-86320000D02*
X143745000Y-81445000D01*
X142070000Y-86895000D02*
X143170000Y-86895000D01*
X145345000Y-79845000D02*
X147495000Y-79845000D01*
%TD*%
M02*
