%TF.GenerationSoftware,KiCad,Pcbnew,(6.0.5)*%
%TF.CreationDate,2023-05-31T19:36:55+03:00*%
%TF.ProjectId,JLC1,4a4c4331-2e6b-4696-9361-645f70636258,rev?*%
%TF.SameCoordinates,Original*%
%TF.FileFunction,Plated,1,2,PTH,Mixed*%
%TF.FilePolarity,Positive*%
%FSLAX46Y46*%
G04 Gerber Fmt 4.6, Leading zero omitted, Abs format (unit mm)*
G04 Created by KiCad (PCBNEW (6.0.5)) date 2023-05-31 19:36:55*
%MOMM*%
%LPD*%
G01*
G04 APERTURE LIST*
%TA.AperFunction,ViaDrill*%
%ADD10C,0.150000*%
%TD*%
%TA.AperFunction,ViaDrill*%
%ADD11C,0.200000*%
%TD*%
%TA.AperFunction,ViaDrill*%
%ADD12C,0.250000*%
%TD*%
%TA.AperFunction,ViaDrill*%
%ADD13C,0.300000*%
%TD*%
%TA.AperFunction,ViaDrill*%
%ADD14C,0.400000*%
%TD*%
%TA.AperFunction,ViaDrill*%
%ADD15C,0.500000*%
%TD*%
%TA.AperFunction,ComponentDrill*%
%ADD16C,0.800000*%
%TD*%
%TA.AperFunction,ComponentDrill*%
%ADD17C,0.850000*%
%TD*%
G04 aperture for slot hole*
%TA.AperFunction,ComponentDrill*%
%ADD18O,0.900000X2.500000*%
%TD*%
%TA.AperFunction,ComponentDrill*%
%ADD19C,0.950000*%
%TD*%
%TA.AperFunction,ComponentDrill*%
%ADD20C,1.000000*%
%TD*%
%TA.AperFunction,ComponentDrill*%
%ADD21C,2.300000*%
%TD*%
G04 APERTURE END LIST*
D10*
X190685000Y-118575000D03*
X190985000Y-91975000D03*
X191585000Y-116235000D03*
X191855000Y-111085000D03*
X191985000Y-109025000D03*
X192005000Y-110475000D03*
X192485000Y-109845000D03*
X194495000Y-118705000D03*
X194495000Y-128365000D03*
X194635000Y-113875000D03*
X194665000Y-117865000D03*
X194975000Y-91975000D03*
X194985000Y-90475000D03*
X194985000Y-91475000D03*
X194985000Y-103825000D03*
X195455000Y-117215000D03*
X195485000Y-89475000D03*
X195485000Y-104325000D03*
X195560000Y-119213000D03*
X195985000Y-89975000D03*
X195985000Y-104825000D03*
X196125000Y-117715000D03*
X196285000Y-113425000D03*
X196355000Y-114713000D03*
X196485000Y-91975000D03*
X196485000Y-105325000D03*
X196985000Y-90025000D03*
X196985000Y-91475000D03*
X197135000Y-116185000D03*
X197635000Y-116535000D03*
X197985000Y-114305000D03*
X197985000Y-123425000D03*
X198485000Y-89525000D03*
X198485000Y-102665000D03*
X198485000Y-105925000D03*
X198985000Y-87375000D03*
X198985000Y-102675000D03*
X198985000Y-106475000D03*
X199045000Y-127625000D03*
X200245000Y-115815000D03*
X200985000Y-90625000D03*
X200985000Y-109175000D03*
X200985000Y-116175000D03*
X201485000Y-109675000D03*
X201485000Y-116175000D03*
X201985000Y-110175000D03*
X201985000Y-116175000D03*
X202473000Y-114363000D03*
X202485000Y-110675000D03*
X202535000Y-116175000D03*
X203095000Y-115305000D03*
X203135000Y-113975000D03*
X203925000Y-117713000D03*
X204365000Y-123385000D03*
X204455000Y-116215000D03*
X204475000Y-121805000D03*
X204685000Y-91125000D03*
X205285000Y-86225000D03*
X205285000Y-90025000D03*
X205485000Y-118095000D03*
X205485000Y-118825000D03*
D11*
X142070000Y-86895000D03*
X147495000Y-79845000D03*
X170292888Y-73145000D03*
X170292888Y-73645000D03*
X170292888Y-74145000D03*
X170292888Y-74645000D03*
X170292888Y-75145000D03*
X170292888Y-75670000D03*
X170295000Y-76145683D03*
X170745000Y-78395000D03*
X170770000Y-77895000D03*
X171970000Y-71545000D03*
X172470000Y-71545000D03*
X172970000Y-71545000D03*
X173470000Y-71545000D03*
X173970000Y-71545000D03*
X174470000Y-71545000D03*
X174970000Y-71545000D03*
X177020000Y-75145000D03*
X185745000Y-75645000D03*
D12*
X141550000Y-33120600D03*
X144100000Y-33895600D03*
X145325000Y-34720600D03*
X146600000Y-35420600D03*
X147900000Y-36120600D03*
X149150000Y-36820600D03*
X151650000Y-32370600D03*
X152850000Y-33470600D03*
X156650000Y-34720600D03*
X157932500Y-35378100D03*
X159225000Y-36120600D03*
X160050000Y-36820600D03*
X161750000Y-34245600D03*
X162575000Y-32695600D03*
X168335000Y-111514000D03*
X169314500Y-104595000D03*
X169389500Y-110245000D03*
X170239500Y-104595000D03*
X173914500Y-111770000D03*
X173939500Y-102845000D03*
X173964500Y-105295000D03*
X174689500Y-101245000D03*
X175664500Y-110145000D03*
X176529500Y-96655000D03*
X177589500Y-110495000D03*
X178064500Y-103320000D03*
X178064500Y-104120000D03*
X178064500Y-104920000D03*
X178089500Y-105720000D03*
X181639500Y-113805000D03*
X183514500Y-113805000D03*
X184664500Y-96655000D03*
X189220000Y-42920000D03*
X193070000Y-39770000D03*
X193070000Y-40545000D03*
X193070000Y-41370000D03*
X194520000Y-45545000D03*
X195320000Y-45520000D03*
X196095000Y-45520000D03*
X196895000Y-45520000D03*
X197695000Y-35995000D03*
X197720000Y-45520000D03*
X198495000Y-45520000D03*
X199295000Y-45520000D03*
X199495000Y-38070000D03*
X200095000Y-43870000D03*
X200095000Y-45770000D03*
X201120000Y-47495000D03*
X201545000Y-39745000D03*
X201970000Y-38945000D03*
D13*
X183170000Y-60470000D03*
X183170000Y-65945000D03*
X183170000Y-71445000D03*
X183195000Y-76770000D03*
X184070000Y-63145000D03*
X184995000Y-57195000D03*
X184995000Y-68720000D03*
X185895000Y-57220000D03*
X186220000Y-56320000D03*
X186795000Y-57245000D03*
X186820000Y-81395000D03*
X203485000Y-125950000D03*
D14*
X141045000Y-72782500D03*
X141645000Y-103945000D03*
X164570000Y-81480000D03*
X164783750Y-79143750D03*
X166935000Y-121589000D03*
X167733750Y-79118750D03*
X175220000Y-77345000D03*
X179864500Y-98870000D03*
X185089500Y-122055000D03*
X198895000Y-76326250D03*
X199470000Y-40345000D03*
X202920000Y-69551250D03*
D15*
X144645000Y-117895000D03*
D16*
%TO.C,22pF*%
X135445000Y-55895000D03*
X137945000Y-55895000D03*
D17*
%TO.C,SW1*%
X191735000Y-120525000D03*
X191735000Y-123525000D03*
D18*
%TO.C,USB_0*%
X167620000Y-88688750D03*
X179020000Y-88688750D03*
%TO.C,J1*%
X192335000Y-129325000D03*
X203735000Y-129325000D03*
D19*
%TO.C,USB1*%
X134780000Y-114290000D03*
X134780000Y-116790000D03*
X134780000Y-118790000D03*
X134780000Y-121290000D03*
%TO.C,USB2*%
X134805000Y-97040000D03*
X134805000Y-99540000D03*
X134805000Y-101540000D03*
X134805000Y-104040000D03*
%TO.C,USB3*%
X134830000Y-79745000D03*
X134830000Y-82245000D03*
X134830000Y-84245000D03*
X134830000Y-86745000D03*
%TO.C,USB4*%
X134855000Y-62495000D03*
X134855000Y-64995000D03*
X134855000Y-66995000D03*
X134855000Y-69495000D03*
%TO.C,USB_0*%
X145970000Y-120560000D03*
X148470000Y-120560000D03*
X150470000Y-120560000D03*
X152970000Y-120560000D03*
%TO.C,USB*%
X169814500Y-124345000D03*
X169814500Y-126345000D03*
X172314500Y-124345000D03*
X172314500Y-126345000D03*
D20*
%TO.C,REF\u002A\u002A*%
X105640000Y-131240000D03*
X105660000Y-115970000D03*
X105660000Y-118510000D03*
X105660000Y-121050000D03*
X105660000Y-123590000D03*
X105660000Y-126130000D03*
X105660000Y-128670000D03*
%TO.C,1K*%
X106185000Y-110270000D03*
%TO.C,REF\u002A\u002A*%
X108180000Y-131240000D03*
X110720000Y-131240000D03*
%TO.C,1K*%
X111185000Y-107770000D03*
X111185000Y-112770000D03*
%TO.C,REF\u002A\u002A*%
X113260000Y-131240000D03*
X117620000Y-60910000D03*
X117620000Y-63450000D03*
X117620000Y-65990000D03*
X117620000Y-68530000D03*
X117620000Y-71070000D03*
X117620000Y-73610000D03*
X117620000Y-76150000D03*
X117620000Y-78690000D03*
X117620000Y-81230000D03*
X117620000Y-83770000D03*
X125220000Y-33732500D03*
X125220000Y-36272500D03*
X125220000Y-38812500D03*
X125220000Y-41352500D03*
X125220000Y-43892500D03*
X125220000Y-46432500D03*
X125220000Y-48972500D03*
X128885872Y-46332500D03*
X131425872Y-46332500D03*
X133965872Y-46332500D03*
X136505872Y-46332500D03*
X139045872Y-46332500D03*
X141585872Y-46332500D03*
X144125872Y-46332500D03*
X146665872Y-46332500D03*
X149185872Y-46332500D03*
X151725872Y-46332500D03*
X154265872Y-46332500D03*
X156805872Y-46332500D03*
X159345872Y-46332500D03*
X160664500Y-122210000D03*
X160664500Y-124750000D03*
X160664500Y-127290000D03*
X160664500Y-129830000D03*
X160845000Y-55845000D03*
X160870000Y-60365000D03*
X160870000Y-62905000D03*
X160870000Y-65445000D03*
X160870000Y-67985000D03*
X160870000Y-70525000D03*
X160870000Y-73065000D03*
X160870000Y-75605000D03*
X160870000Y-78145000D03*
X161885872Y-46332500D03*
X162089500Y-95870000D03*
X162135000Y-99576400D03*
X162135000Y-102116400D03*
X162135000Y-104656400D03*
X162135000Y-107196400D03*
X162135000Y-109736400D03*
X162135000Y-112276400D03*
X163385000Y-55845000D03*
X164425872Y-46332500D03*
X164629500Y-95870000D03*
X165925000Y-55845000D03*
X166080000Y-64940000D03*
X166080000Y-67480000D03*
X166080000Y-70020000D03*
X166965872Y-46332500D03*
X167169500Y-95870000D03*
X168465000Y-55845000D03*
X168620000Y-64940000D03*
X168620000Y-67480000D03*
X168620000Y-70020000D03*
X169709500Y-95870000D03*
X170200000Y-33745600D03*
X170200000Y-36285600D03*
X170200000Y-38825600D03*
X170200000Y-41365600D03*
X170200000Y-43905600D03*
X170200000Y-46445600D03*
X170200000Y-48985600D03*
X171005000Y-55845000D03*
X172249500Y-95870000D03*
X173545000Y-55845000D03*
X174789500Y-95870000D03*
X175345000Y-32720000D03*
X175345000Y-35260000D03*
X175345000Y-37800000D03*
X175345000Y-40340000D03*
X175345000Y-42880000D03*
X175345000Y-45420000D03*
X175345000Y-47960000D03*
X175345000Y-50500000D03*
X177160000Y-115264000D03*
X177160000Y-117804000D03*
X177160000Y-120344000D03*
X179105000Y-32520000D03*
X179210000Y-50745000D03*
X179700000Y-115264000D03*
X179700000Y-117804000D03*
X179700000Y-120344000D03*
X179720000Y-55280000D03*
X179720000Y-57820000D03*
X179720000Y-60360000D03*
X179720000Y-62900000D03*
X179720000Y-65440000D03*
X179720000Y-67980000D03*
X179720000Y-70520000D03*
X179720000Y-73060000D03*
X181645000Y-32520000D03*
X181750000Y-50745000D03*
X184185000Y-32520000D03*
X184290000Y-50745000D03*
X186725000Y-32520000D03*
X186830000Y-50745000D03*
X187014500Y-95815000D03*
X187014500Y-98355000D03*
X187014500Y-100895000D03*
X187014500Y-103435000D03*
X187014500Y-105975000D03*
X187014500Y-108515000D03*
X187014500Y-111055000D03*
X187014500Y-113595000D03*
%TO.C,-BAT+*%
X187014500Y-116155000D03*
X187014500Y-118695000D03*
%TO.C,REF\u002A\u002A*%
X189265000Y-32520000D03*
X189370000Y-50745000D03*
X189795000Y-64333750D03*
X189795000Y-66873750D03*
X189795000Y-69413750D03*
X189795000Y-71953750D03*
X191680000Y-56876250D03*
X191805000Y-32520000D03*
X191910000Y-50745000D03*
X194220000Y-56876250D03*
X194345000Y-32520000D03*
X194450000Y-50745000D03*
X196760000Y-56876250D03*
X196885000Y-32520000D03*
X196990000Y-50745000D03*
X199300000Y-56876250D03*
X199530000Y-50745000D03*
X201840000Y-56876250D03*
X202070000Y-50745000D03*
X204380000Y-56876250D03*
D21*
%TO.C,USB1*%
X132070000Y-111220000D03*
X132070000Y-124360000D03*
%TO.C,USB2*%
X132095000Y-93970000D03*
X132095000Y-107110000D03*
%TO.C,USB3*%
X132120000Y-76675000D03*
X132120000Y-89815000D03*
%TO.C,USB4*%
X132145000Y-59425000D03*
X132145000Y-72565000D03*
%TO.C,USB_0*%
X142900000Y-123270000D03*
X156040000Y-123270000D03*
%TO.C,USB*%
X165064500Y-129205000D03*
X177064500Y-129205000D03*
M02*
