%TF.GenerationSoftware,KiCad,Pcbnew,(6.0.5)*%
%TF.CreationDate,2023-05-31T19:37:01+03:00*%
%TF.ProjectId,JLC1,4a4c4331-2e6b-4696-9361-645f70636258,rev?*%
%TF.SameCoordinates,Original*%
%TF.FileFunction,Paste,Top*%
%TF.FilePolarity,Positive*%
%FSLAX46Y46*%
G04 Gerber Fmt 4.6, Leading zero omitted, Abs format (unit mm)*
G04 Created by KiCad (PCBNEW (6.0.5)) date 2023-05-31 19:37:01*
%MOMM*%
%LPD*%
G01*
G04 APERTURE LIST*
G04 Aperture macros list*
%AMRoundRect*
0 Rectangle with rounded corners*
0 $1 Rounding radius*
0 $2 $3 $4 $5 $6 $7 $8 $9 X,Y pos of 4 corners*
0 Add a 4 corners polygon primitive as box body*
4,1,4,$2,$3,$4,$5,$6,$7,$8,$9,$2,$3,0*
0 Add four circle primitives for the rounded corners*
1,1,$1+$1,$2,$3*
1,1,$1+$1,$4,$5*
1,1,$1+$1,$6,$7*
1,1,$1+$1,$8,$9*
0 Add four rect primitives between the rounded corners*
20,1,$1+$1,$2,$3,$4,$5,0*
20,1,$1+$1,$4,$5,$6,$7,0*
20,1,$1+$1,$6,$7,$8,$9,0*
20,1,$1+$1,$8,$9,$2,$3,0*%
G04 Aperture macros list end*
%ADD10RoundRect,0.250000X0.312500X0.625000X-0.312500X0.625000X-0.312500X-0.625000X0.312500X-0.625000X0*%
%ADD11RoundRect,0.250000X-0.312500X-0.625000X0.312500X-0.625000X0.312500X0.625000X-0.312500X0.625000X0*%
%ADD12RoundRect,0.250000X0.625000X-0.312500X0.625000X0.312500X-0.625000X0.312500X-0.625000X-0.312500X0*%
%ADD13RoundRect,0.250000X-0.625000X0.312500X-0.625000X-0.312500X0.625000X-0.312500X0.625000X0.312500X0*%
%ADD14RoundRect,0.175000X-0.175000X-0.575000X0.175000X-0.575000X0.175000X0.575000X-0.175000X0.575000X0*%
%ADD15R,1.300000X1.550000*%
%ADD16R,2.500000X2.200000*%
%ADD17R,1.550000X2.200000*%
%ADD18R,0.508000X1.473200*%
%ADD19R,1.473200X0.508000*%
%ADD20RoundRect,0.197500X-0.197500X-0.632500X0.197500X-0.632500X0.197500X0.632500X-0.197500X0.632500X0*%
%ADD21R,2.200000X2.200000*%
%ADD22R,1.250000X2.200000*%
%ADD23RoundRect,0.250000X-0.250000X-0.475000X0.250000X-0.475000X0.250000X0.475000X-0.250000X0.475000X0*%
%ADD24RoundRect,0.250000X0.250000X0.475000X-0.250000X0.475000X-0.250000X-0.475000X0.250000X-0.475000X0*%
%ADD25R,0.300000X1.275000*%
%ADD26R,1.525000X0.440000*%
%ADD27R,0.599440X1.998980*%
%ADD28R,2.200000X2.500000*%
%ADD29R,2.200000X1.550000*%
%ADD30R,1.475000X0.300000*%
%ADD31R,0.300000X1.475000*%
%ADD32RoundRect,0.250000X-0.750000X0.250000X-0.750000X-0.250000X0.750000X-0.250000X0.750000X0.250000X0*%
%ADD33R,0.550000X1.600000*%
%ADD34R,1.600000X0.550000*%
%ADD35RoundRect,0.250000X-0.412500X-0.650000X0.412500X-0.650000X0.412500X0.650000X-0.412500X0.650000X0*%
%ADD36R,1.000000X0.500000*%
%ADD37R,0.500000X0.800000*%
%ADD38R,0.400000X1.900000*%
%ADD39RoundRect,0.250000X-0.475000X0.250000X-0.475000X-0.250000X0.475000X-0.250000X0.475000X0.250000X0*%
%ADD40R,1.550000X1.300000*%
%ADD41RoundRect,0.242500X0.242500X0.242500X-0.242500X0.242500X-0.242500X-0.242500X0.242500X-0.242500X0*%
%ADD42RoundRect,0.062500X0.337500X0.062500X-0.337500X0.062500X-0.337500X-0.062500X0.337500X-0.062500X0*%
%ADD43RoundRect,0.062500X0.062500X0.337500X-0.062500X0.337500X-0.062500X-0.337500X0.062500X-0.337500X0*%
%ADD44RoundRect,0.250000X-0.325000X-0.650000X0.325000X-0.650000X0.325000X0.650000X-0.325000X0.650000X0*%
%ADD45R,0.500000X2.500000*%
%ADD46R,2.000000X2.500000*%
%ADD47R,1.100000X2.500000*%
%ADD48RoundRect,0.250000X-0.650000X0.325000X-0.650000X-0.325000X0.650000X-0.325000X0.650000X0.325000X0*%
%ADD49RoundRect,0.250000X0.475000X-0.250000X0.475000X0.250000X-0.475000X0.250000X-0.475000X-0.250000X0*%
%ADD50RoundRect,0.250000X0.325000X0.650000X-0.325000X0.650000X-0.325000X-0.650000X0.325000X-0.650000X0*%
%ADD51R,1.900000X0.400000*%
%ADD52R,0.850000X0.650000*%
%ADD53R,0.500000X0.300000*%
%ADD54RoundRect,0.049600X0.605400X0.260400X-0.605400X0.260400X-0.605400X-0.260400X0.605400X-0.260400X0*%
G04 APERTURE END LIST*
D10*
%TO.C,330R*%
X190770000Y-36520000D03*
X187845000Y-36520000D03*
%TD*%
%TO.C,330R*%
X190770000Y-38470000D03*
X187845000Y-38470000D03*
%TD*%
D11*
%TO.C,2K7*%
X141882500Y-92120000D03*
X144807500Y-92120000D03*
%TD*%
D12*
%TO.C,330R*%
X141045000Y-72782500D03*
X141045000Y-69857500D03*
%TD*%
%TO.C,2K7*%
X118705000Y-129627500D03*
X118705000Y-126702500D03*
%TD*%
D13*
%TO.C,R7*%
X195635000Y-120962500D03*
X195635000Y-123887500D03*
%TD*%
D14*
%TO.C,*%
X183195000Y-82745000D03*
%TD*%
D12*
%TO.C,330R*%
X179139500Y-96030000D03*
X179139500Y-93105000D03*
%TD*%
D15*
%TO.C,RESET*%
X182864500Y-130105000D03*
X182864500Y-122155000D03*
X187364500Y-122155000D03*
X187364500Y-130105000D03*
%TD*%
D10*
%TO.C,47K*%
X108932500Y-39345000D03*
X106007500Y-39345000D03*
%TD*%
D16*
%TO.C,PORT2*%
X146695000Y-63345000D03*
D17*
X144120000Y-63345000D03*
%TD*%
D10*
%TO.C,220R*%
X108932500Y-70245000D03*
X106007500Y-70245000D03*
%TD*%
D14*
%TO.C,*%
X184095000Y-54070000D03*
%TD*%
D18*
%TO.C,ATmega32U4*%
X168334600Y-112241800D03*
X169122000Y-112241800D03*
X169934800Y-112241800D03*
X170722200Y-112241800D03*
X171535000Y-112241800D03*
X172322400Y-112241800D03*
X173109800Y-112241800D03*
X173922600Y-112241800D03*
X174710000Y-112241800D03*
X175522800Y-112241800D03*
X176310200Y-112241800D03*
D19*
X178062800Y-110489200D03*
X178062800Y-109701800D03*
X178062800Y-108889000D03*
X178062800Y-108101600D03*
X178062800Y-107288800D03*
X178062800Y-106501400D03*
X178062800Y-105714000D03*
X178062800Y-104901200D03*
X178062800Y-104113800D03*
X178062800Y-103301000D03*
X178062800Y-102513600D03*
D18*
X176310200Y-100761000D03*
X175522800Y-100761000D03*
X174710000Y-100761000D03*
X173922600Y-100761000D03*
X173109800Y-100761000D03*
X172322400Y-100761000D03*
X171535000Y-100761000D03*
X170722200Y-100761000D03*
X169934800Y-100761000D03*
X169122000Y-100761000D03*
X168334600Y-100761000D03*
D19*
X166582000Y-102513600D03*
X166582000Y-103301000D03*
X166582000Y-104113800D03*
X166582000Y-104901200D03*
X166582000Y-105714000D03*
X166582000Y-106501400D03*
X166582000Y-107288800D03*
X166582000Y-108101600D03*
X166582000Y-108889000D03*
X166582000Y-109701800D03*
X166582000Y-110489200D03*
%TD*%
D15*
%TO.C,RESET*%
X164570000Y-81445000D03*
X164570000Y-89395000D03*
X160070000Y-81445000D03*
X160070000Y-89395000D03*
%TD*%
D14*
%TO.C,*%
X185895000Y-54070000D03*
%TD*%
D12*
%TO.C,22R*%
X174520000Y-83176250D03*
X174520000Y-80251250D03*
%TD*%
D20*
%TO.C,REF\u002A\u002A*%
X110745000Y-64720000D03*
X110745000Y-60720000D03*
X112545000Y-64720000D03*
X112545000Y-60720000D03*
%TD*%
D16*
%TO.C,REF\u002A\u002A*%
X183370000Y-36145000D03*
D17*
X185945000Y-36145000D03*
%TD*%
D16*
%TO.C,REF\u002A\u002A*%
X195545000Y-47520000D03*
D17*
X198120000Y-47520000D03*
%TD*%
D16*
%TO.C,PORT4*%
X143945000Y-56345000D03*
D17*
X146520000Y-56345000D03*
%TD*%
D21*
%TO.C,REF\u002A\u002A*%
X184220000Y-63195000D03*
D22*
X186495000Y-63195000D03*
%TD*%
D23*
%TO.C,0.1uF*%
X164997400Y-113301400D03*
X166897400Y-113301400D03*
%TD*%
D12*
%TO.C,330R*%
X144870000Y-72782500D03*
X144870000Y-69857500D03*
%TD*%
D24*
%TO.C,1uF*%
X203045000Y-47545000D03*
X201145000Y-47545000D03*
%TD*%
D10*
%TO.C,47K*%
X108945000Y-67920000D03*
X106020000Y-67920000D03*
%TD*%
D13*
%TO.C,22R*%
X172214500Y-118232500D03*
X172214500Y-121157500D03*
%TD*%
D16*
%TO.C,REF\u002A\u002A*%
X183345000Y-39595000D03*
D17*
X185920000Y-39595000D03*
%TD*%
D14*
%TO.C,*%
X185895000Y-82745000D03*
%TD*%
D12*
%TO.C,*%
X148545000Y-72795000D03*
%TD*%
D25*
%TO.C,m1*%
X204485000Y-88475000D03*
X203985000Y-88475000D03*
X203485000Y-88475000D03*
X202985000Y-88475000D03*
X202485000Y-88475000D03*
X201985000Y-88475000D03*
X201485000Y-88475000D03*
X200985000Y-88475000D03*
X200485000Y-88475000D03*
X199985000Y-88475000D03*
X199485000Y-88475000D03*
X198985000Y-88475000D03*
X198485000Y-88475000D03*
X197985000Y-88475000D03*
X197485000Y-88475000D03*
X196985000Y-88475000D03*
X196485000Y-88475000D03*
X195985000Y-88475000D03*
X195485000Y-88475000D03*
X194985000Y-88475000D03*
X194485000Y-88475000D03*
X193985000Y-88475000D03*
X193485000Y-88475000D03*
X192985000Y-88475000D03*
X192985000Y-108151000D03*
X193485000Y-108151000D03*
X193985000Y-108151000D03*
X194485000Y-108151000D03*
X194985000Y-108151000D03*
X195485000Y-108151000D03*
X195985000Y-108151000D03*
X196485000Y-108151000D03*
X196985000Y-108151000D03*
X197485000Y-108151000D03*
X197985000Y-108151000D03*
X198485000Y-108151000D03*
X198985000Y-108151000D03*
X199485000Y-108151000D03*
X199985000Y-108151000D03*
X200485000Y-108151000D03*
X200985000Y-108151000D03*
X201485000Y-108151000D03*
X201985000Y-108151000D03*
X202485000Y-108151000D03*
X202985000Y-108151000D03*
X203485000Y-108151000D03*
X203985000Y-108151000D03*
X204485000Y-108151000D03*
%TD*%
D10*
%TO.C,220R*%
X108932500Y-89295000D03*
X106007500Y-89295000D03*
%TD*%
D26*
%TO.C,FE1.1s*%
X142066500Y-79855000D03*
X142066500Y-80495000D03*
X142066500Y-81135000D03*
X142066500Y-81775000D03*
X142066500Y-82415000D03*
X142066500Y-83055000D03*
X142066500Y-83695000D03*
X142066500Y-84335000D03*
X142066500Y-84975000D03*
X142066500Y-85615000D03*
X142066500Y-86255000D03*
X142066500Y-86895000D03*
X142066500Y-87535000D03*
X142066500Y-88175000D03*
X147490500Y-88175000D03*
X147490500Y-87535000D03*
X147490500Y-86895000D03*
X147490500Y-86255000D03*
X147490500Y-85615000D03*
X147490500Y-84975000D03*
X147490500Y-84335000D03*
X147490500Y-83695000D03*
X147490500Y-83055000D03*
X147490500Y-82415000D03*
X147490500Y-81775000D03*
X147490500Y-81135000D03*
X147490500Y-80495000D03*
X147490500Y-79855000D03*
%TD*%
D10*
%TO.C,47K*%
X108932500Y-58420000D03*
X106007500Y-58420000D03*
%TD*%
D12*
%TO.C,1K*%
X155420000Y-91657500D03*
X155420000Y-88732500D03*
%TD*%
D10*
%TO.C,220R*%
X108932500Y-98820000D03*
X106007500Y-98820000D03*
%TD*%
D11*
%TO.C,10K*%
X164807500Y-79120000D03*
X167732500Y-79120000D03*
%TD*%
D20*
%TO.C,REF\u002A\u002A*%
X110745000Y-102820000D03*
X110745000Y-98820000D03*
X112545000Y-102820000D03*
X112545000Y-98820000D03*
%TD*%
D27*
%TO.C,REF\u002A\u002A*%
X152852500Y-38280300D03*
X154122500Y-38280300D03*
X155392500Y-38280300D03*
X156662500Y-38280300D03*
X157932500Y-38280300D03*
X159202500Y-38280300D03*
X160472500Y-38280300D03*
X161742500Y-38280300D03*
X161742500Y-33479700D03*
X160472500Y-33479700D03*
X159202500Y-33479700D03*
X157932500Y-33479700D03*
X156662500Y-33479700D03*
X155392500Y-33479700D03*
X154122500Y-33479700D03*
X152852500Y-33479700D03*
%TD*%
D21*
%TO.C,D3*%
X191600000Y-116365000D03*
D22*
X193875000Y-116365000D03*
%TD*%
D10*
%TO.C,100nF*%
X173682500Y-59970000D03*
X170757500Y-59970000D03*
%TD*%
D20*
%TO.C,REF\u002A\u002A*%
X110745000Y-93295000D03*
X110745000Y-89295000D03*
X112545000Y-93295000D03*
X112545000Y-89295000D03*
%TD*%
D10*
%TO.C,220R*%
X108932500Y-60745000D03*
X106007500Y-60745000D03*
%TD*%
D15*
%TO.C,RESET*%
X155620000Y-96770000D03*
X155620000Y-104720000D03*
X151120000Y-104720000D03*
X151120000Y-96770000D03*
%TD*%
D21*
%TO.C,REF\u002A\u002A*%
X184145000Y-79570000D03*
D22*
X186420000Y-79570000D03*
%TD*%
D11*
%TO.C,R5*%
X202472500Y-86375000D03*
X205397500Y-86375000D03*
%TD*%
D12*
%TO.C,2K7*%
X109160000Y-124535000D03*
X109160000Y-121610000D03*
%TD*%
D10*
%TO.C,FUSE*%
X152507500Y-83945000D03*
X149582500Y-83945000D03*
%TD*%
D24*
%TO.C,C5*%
X205385000Y-123925000D03*
X203485000Y-123925000D03*
%TD*%
D13*
%TO.C,1K*%
X108760000Y-108707500D03*
X108760000Y-111632500D03*
%TD*%
D16*
%TO.C,PORT1*%
X146795000Y-66845000D03*
D17*
X149370000Y-66845000D03*
%TD*%
D14*
%TO.C,*%
X186795000Y-54070000D03*
%TD*%
D10*
%TO.C,47K*%
X108932500Y-48870000D03*
X106007500Y-48870000D03*
%TD*%
D28*
%TO.C,REF\u002A\u002A*%
X202970000Y-69576250D03*
D29*
X202970000Y-67001250D03*
%TD*%
D13*
%TO.C,330R*%
X178795000Y-43807500D03*
X178795000Y-46732500D03*
%TD*%
D14*
%TO.C,*%
X184095000Y-82745000D03*
%TD*%
D30*
%TO.C,f1*%
X195997000Y-114213000D03*
X195997000Y-114713000D03*
X195997000Y-115213000D03*
X195997000Y-115713000D03*
X195997000Y-116213000D03*
X195997000Y-116713000D03*
X195997000Y-117213000D03*
X195997000Y-117713000D03*
X195997000Y-118213000D03*
X195997000Y-118713000D03*
X195997000Y-119213000D03*
X195997000Y-119713000D03*
D31*
X197485000Y-121201000D03*
X197985000Y-121201000D03*
X198485000Y-121201000D03*
X198985000Y-121201000D03*
X199485000Y-121201000D03*
X199985000Y-121201000D03*
X200485000Y-121201000D03*
X200985000Y-121201000D03*
X201485000Y-121201000D03*
X201985000Y-121201000D03*
X202485000Y-121201000D03*
X202985000Y-121201000D03*
D30*
X204473000Y-119713000D03*
X204473000Y-119213000D03*
X204473000Y-118713000D03*
X204473000Y-118213000D03*
X204473000Y-117713000D03*
X204473000Y-117213000D03*
X204473000Y-116713000D03*
X204473000Y-116213000D03*
X204473000Y-115713000D03*
X204473000Y-115213000D03*
X204473000Y-114713000D03*
X204473000Y-114213000D03*
D31*
X202985000Y-112725000D03*
X202485000Y-112725000D03*
X201985000Y-112725000D03*
X201485000Y-112725000D03*
X200985000Y-112725000D03*
X200485000Y-112725000D03*
X199985000Y-112725000D03*
X199485000Y-112725000D03*
X198985000Y-112725000D03*
X198485000Y-112725000D03*
X197985000Y-112725000D03*
X197485000Y-112725000D03*
%TD*%
D32*
%TO.C,REF\u002A\u002A*%
X195635000Y-122475000D03*
%TD*%
D11*
%TO.C,REF\u002A\u002A*%
X183545000Y-76845000D03*
X186470000Y-76845000D03*
%TD*%
D33*
%TO.C,ATmega16U2*%
X200095000Y-35895000D03*
X199295000Y-35895000D03*
X198495000Y-35895000D03*
X197695000Y-35895000D03*
X196895000Y-35895000D03*
X196095000Y-35895000D03*
X195295000Y-35895000D03*
X194495000Y-35895000D03*
D34*
X193045000Y-37345000D03*
X193045000Y-38145000D03*
X193045000Y-38945000D03*
X193045000Y-39745000D03*
X193045000Y-40545000D03*
X193045000Y-41345000D03*
X193045000Y-42145000D03*
X193045000Y-42945000D03*
D33*
X194495000Y-44395000D03*
X195295000Y-44395000D03*
X196095000Y-44395000D03*
X196895000Y-44395000D03*
X197695000Y-44395000D03*
X198495000Y-44395000D03*
X199295000Y-44395000D03*
X200095000Y-44395000D03*
D34*
X201545000Y-42945000D03*
X201545000Y-42145000D03*
X201545000Y-41345000D03*
X201545000Y-40545000D03*
X201545000Y-39745000D03*
X201545000Y-38945000D03*
X201545000Y-38145000D03*
X201545000Y-37345000D03*
%TD*%
D35*
%TO.C,10uF*%
X141632500Y-96195000D03*
X144757500Y-96195000D03*
%TD*%
D16*
%TO.C,REF\u002A\u002A*%
X165495000Y-73770000D03*
D17*
X168070000Y-73770000D03*
%TD*%
D10*
%TO.C,220R*%
X108932500Y-41670000D03*
X106007500Y-41670000D03*
%TD*%
D21*
%TO.C,REF\u002A\u002A*%
X184195000Y-68645000D03*
D22*
X186470000Y-68645000D03*
%TD*%
D14*
%TO.C,*%
X186795000Y-82745000D03*
%TD*%
D16*
%TO.C,TX*%
X182814500Y-99545000D03*
D17*
X180239500Y-99545000D03*
%TD*%
D11*
%TO.C,REF\u002A\u002A*%
X183595000Y-65920000D03*
X186520000Y-65920000D03*
%TD*%
D10*
%TO.C,220R*%
X108932500Y-32145000D03*
X106007500Y-32145000D03*
%TD*%
D12*
%TO.C,330R*%
X182689500Y-96055000D03*
X182689500Y-93130000D03*
%TD*%
D14*
%TO.C,*%
X184995000Y-82745000D03*
%TD*%
D24*
%TO.C,10uF*%
X166889500Y-117495000D03*
X164989500Y-117495000D03*
%TD*%
D23*
%TO.C,C2*%
X195572500Y-86225000D03*
X197472500Y-86225000D03*
%TD*%
D14*
%TO.C,*%
X184995000Y-54070000D03*
%TD*%
D36*
%TO.C,SW1*%
X193585000Y-119775000D03*
X193585000Y-122775000D03*
X193585000Y-124275000D03*
D37*
X192785000Y-125475000D03*
X190685000Y-125475000D03*
X190685000Y-118575000D03*
X192785000Y-118575000D03*
%TD*%
D38*
%TO.C,16MHz*%
X180095000Y-78245000D03*
X178895000Y-78245000D03*
X177695000Y-78245000D03*
%TD*%
D14*
%TO.C,*%
X183195000Y-54070000D03*
%TD*%
D10*
%TO.C,220R*%
X108932500Y-51195000D03*
X106007500Y-51195000D03*
%TD*%
D39*
%TO.C,1uF*%
X172710000Y-114164000D03*
X172710000Y-116064000D03*
%TD*%
D11*
%TO.C,10K*%
X187845000Y-40420000D03*
X190770000Y-40420000D03*
%TD*%
%TO.C,1K*%
X165332500Y-76670000D03*
X168257500Y-76670000D03*
%TD*%
D12*
%TO.C,330R*%
X148545000Y-72795000D03*
X148545000Y-69870000D03*
%TD*%
D13*
%TO.C,1K*%
X204820000Y-60363750D03*
X204820000Y-63288750D03*
%TD*%
D10*
%TO.C,47K*%
X108932500Y-86970000D03*
X106007500Y-86970000D03*
%TD*%
D40*
%TO.C,RESET*%
X189220000Y-43045000D03*
X181270000Y-43045000D03*
X189220000Y-47545000D03*
X181270000Y-47545000D03*
%TD*%
D20*
%TO.C,REF\u002A\u002A*%
X110745000Y-83770000D03*
X110745000Y-79770000D03*
X112545000Y-83770000D03*
X112545000Y-79770000D03*
%TD*%
D41*
%TO.C,AT90USB162*%
X174920000Y-74895000D03*
X172520000Y-74895000D03*
X174920000Y-73695000D03*
X173720000Y-76095000D03*
X173720000Y-74895000D03*
X174920000Y-76095000D03*
X172520000Y-73695000D03*
X172520000Y-76095000D03*
X173720000Y-73695000D03*
D42*
X176170000Y-76645000D03*
X176170000Y-76145000D03*
X176170000Y-75645000D03*
X176170000Y-75145000D03*
X176170000Y-74645000D03*
X176170000Y-74145000D03*
X176170000Y-73645000D03*
X176170000Y-73145000D03*
D43*
X175470000Y-72445000D03*
X174970000Y-72445000D03*
X174470000Y-72445000D03*
X173970000Y-72445000D03*
X173470000Y-72445000D03*
X172970000Y-72445000D03*
X172470000Y-72445000D03*
X171970000Y-72445000D03*
D42*
X171270000Y-73145000D03*
X171270000Y-73645000D03*
X171270000Y-74145000D03*
X171270000Y-74645000D03*
X171270000Y-75145000D03*
X171270000Y-75645000D03*
X171270000Y-76145000D03*
X171270000Y-76645000D03*
D43*
X171970000Y-77345000D03*
X172470000Y-77345000D03*
X172970000Y-77345000D03*
X173470000Y-77345000D03*
X173970000Y-77345000D03*
X174470000Y-77345000D03*
X174970000Y-77345000D03*
X175470000Y-77345000D03*
%TD*%
D13*
%TO.C,22R*%
X169845500Y-118240500D03*
X169845500Y-121165500D03*
%TD*%
D20*
%TO.C,REF\u002A\u002A*%
X110745000Y-36145000D03*
X110745000Y-32145000D03*
X112545000Y-36145000D03*
X112545000Y-32145000D03*
%TD*%
D12*
%TO.C,2K7*%
X116375000Y-129627500D03*
X116375000Y-126702500D03*
%TD*%
D10*
%TO.C,100nF*%
X167382500Y-59620000D03*
X164457500Y-59620000D03*
%TD*%
D44*
%TO.C,100nF*%
X191395000Y-60076250D03*
X194345000Y-60076250D03*
%TD*%
D45*
%TO.C,USB*%
X196145000Y-76326250D03*
X196945000Y-76326250D03*
X197745000Y-76326250D03*
X198545000Y-76326250D03*
X199345000Y-76326250D03*
D46*
X202145000Y-81826250D03*
X193345000Y-76326250D03*
X193345000Y-81826250D03*
X202145000Y-76326250D03*
%TD*%
D20*
%TO.C,REF\u002A\u002A*%
X110745000Y-74245000D03*
X110745000Y-70245000D03*
X112545000Y-74245000D03*
X112545000Y-70245000D03*
%TD*%
D10*
%TO.C,47K*%
X108932500Y-96495000D03*
X106007500Y-96495000D03*
%TD*%
D11*
%TO.C,10K*%
X180577000Y-111855000D03*
X183502000Y-111855000D03*
%TD*%
D10*
%TO.C,R3*%
X193997500Y-86375000D03*
X191072500Y-86375000D03*
%TD*%
D35*
%TO.C,10uF*%
X141682500Y-103945000D03*
X144807500Y-103945000D03*
%TD*%
D24*
%TO.C,C8*%
X205385000Y-125950000D03*
X203485000Y-125950000D03*
%TD*%
D28*
%TO.C,POW*%
X162164500Y-118120000D03*
D29*
X162164500Y-115545000D03*
%TD*%
D47*
%TO.C,J1*%
X201535000Y-126575000D03*
X199035000Y-126575000D03*
X197035000Y-126575000D03*
X194535000Y-126575000D03*
%TD*%
D12*
%TO.C,2K7*%
X119110000Y-121475000D03*
X119110000Y-118550000D03*
%TD*%
D47*
%TO.C,USB_0*%
X176820000Y-85938750D03*
X174320000Y-85938750D03*
X172320000Y-85938750D03*
X169820000Y-85938750D03*
%TD*%
D10*
%TO.C,10uF*%
X167382500Y-61945000D03*
X164457500Y-61945000D03*
%TD*%
D11*
%TO.C,REF\u002A\u002A*%
X183570000Y-71395000D03*
X186495000Y-71395000D03*
%TD*%
D10*
%TO.C,47K*%
X108932500Y-104845000D03*
X106007500Y-104845000D03*
%TD*%
D20*
%TO.C,REF\u002A\u002A*%
X110745000Y-45670000D03*
X110745000Y-41670000D03*
X112545000Y-45670000D03*
X112545000Y-41670000D03*
%TD*%
D12*
%TO.C,2K7*%
X111490000Y-124535000D03*
X111490000Y-121610000D03*
%TD*%
D11*
%TO.C,330R*%
X164027000Y-121120000D03*
X166952000Y-121120000D03*
%TD*%
D48*
%TO.C,100nF*%
X178770000Y-38995000D03*
X178770000Y-41945000D03*
%TD*%
D28*
%TO.C,PWR*%
X140445000Y-66295000D03*
D29*
X140445000Y-63720000D03*
%TD*%
D28*
%TO.C,REF\u002A\u002A*%
X135500000Y-34695600D03*
D29*
X135500000Y-32120600D03*
%TD*%
D16*
%TO.C,RX*%
X182814500Y-103120000D03*
D17*
X180239500Y-103120000D03*
%TD*%
D20*
%TO.C,REF\u002A\u002A*%
X110745000Y-55195000D03*
X110745000Y-51195000D03*
X112545000Y-55195000D03*
X112545000Y-51195000D03*
%TD*%
D49*
%TO.C,1uF*%
X169820000Y-83220000D03*
X169820000Y-81320000D03*
%TD*%
D50*
%TO.C,100nF*%
X201695000Y-60053750D03*
X198745000Y-60053750D03*
%TD*%
D27*
%TO.C,REF\u002A\u002A*%
X141530000Y-38295600D03*
X142800000Y-38295600D03*
X144070000Y-38295600D03*
X145340000Y-38295600D03*
X146610000Y-38295600D03*
X147880000Y-38295600D03*
X149150000Y-38295600D03*
X150420000Y-38295600D03*
X150420000Y-33495000D03*
X149150000Y-33495000D03*
X147880000Y-33495000D03*
X146610000Y-33495000D03*
X145340000Y-33495000D03*
X144070000Y-33495000D03*
X142800000Y-33495000D03*
X141530000Y-33495000D03*
%TD*%
D21*
%TO.C,REF\u002A\u002A*%
X184170000Y-74120000D03*
D22*
X186445000Y-74120000D03*
%TD*%
D51*
%TO.C,16MHz*%
X200345000Y-33870000D03*
X200345000Y-32670000D03*
X200345000Y-31470000D03*
%TD*%
D10*
%TO.C,2K7*%
X116452500Y-116522500D03*
X113527500Y-116522500D03*
%TD*%
%TO.C,47K*%
X108932500Y-77445000D03*
X106007500Y-77445000D03*
%TD*%
D51*
%TO.C,16MHz*%
X181760000Y-105814000D03*
X181760000Y-107014000D03*
X181760000Y-108214000D03*
%TD*%
D35*
%TO.C,10uF*%
X141707500Y-100095000D03*
X144832500Y-100095000D03*
%TD*%
D13*
%TO.C,1K*%
X132425000Y-32333100D03*
X132425000Y-35258100D03*
%TD*%
D38*
%TO.C,12MHz*%
X139395000Y-76945000D03*
X140595000Y-76945000D03*
X141795000Y-76945000D03*
%TD*%
D52*
%TO.C,LM358*%
X114110000Y-119872500D03*
X114110000Y-118997500D03*
D53*
X113210000Y-118685000D03*
X113210000Y-119185000D03*
X113210000Y-119685000D03*
X113210000Y-120185000D03*
X115010000Y-120185000D03*
X115010000Y-119685000D03*
X115010000Y-119185000D03*
X115010000Y-118685000D03*
%TD*%
D23*
%TO.C,1uF*%
X164997400Y-115376400D03*
X166897400Y-115376400D03*
%TD*%
D24*
%TO.C,C4*%
X199885000Y-123425000D03*
X197985000Y-123425000D03*
%TD*%
D38*
%TO.C,Y2*%
X196285000Y-112275000D03*
X195085000Y-112275000D03*
X193885000Y-112275000D03*
%TD*%
D11*
%TO.C,REF\u002A\u002A*%
X183620000Y-60470000D03*
X186545000Y-60470000D03*
%TD*%
D52*
%TO.C,LM358*%
X113695000Y-127525000D03*
X113695000Y-128400000D03*
D53*
X112795000Y-127212500D03*
X112795000Y-127712500D03*
X112795000Y-128212500D03*
X112795000Y-128712500D03*
X114595000Y-128712500D03*
X114595000Y-128212500D03*
X114595000Y-127712500D03*
X114595000Y-127212500D03*
%TD*%
D16*
%TO.C,PORT3*%
X149245000Y-59820000D03*
D17*
X146670000Y-59820000D03*
%TD*%
D23*
%TO.C,C1*%
X198985000Y-86225000D03*
X200885000Y-86225000D03*
%TD*%
D51*
%TO.C,12MHz*%
X201342500Y-62303750D03*
X201342500Y-63503750D03*
X201342500Y-64703750D03*
%TD*%
D12*
%TO.C,2K7*%
X109130000Y-119875000D03*
X109130000Y-116950000D03*
%TD*%
%TO.C,2K7*%
X111460000Y-119875000D03*
X111460000Y-116950000D03*
%TD*%
D10*
%TO.C,220R*%
X108932500Y-79770000D03*
X106007500Y-79770000D03*
%TD*%
D12*
%TO.C,2K7*%
X116780000Y-121475000D03*
X116780000Y-118550000D03*
%TD*%
%TO.C,22R*%
X172145000Y-83176250D03*
X172145000Y-80251250D03*
%TD*%
D54*
%TO.C,CH340G*%
X198867500Y-72273750D03*
X198867500Y-71003750D03*
X198867500Y-69733750D03*
X198867500Y-68463750D03*
X198867500Y-67193750D03*
X198867500Y-65923750D03*
X198867500Y-64653750D03*
X198867500Y-63383750D03*
X193367500Y-63383750D03*
X193367500Y-64653750D03*
X193367500Y-65923750D03*
X193367500Y-67193750D03*
X193367500Y-68463750D03*
X193367500Y-69733750D03*
X193367500Y-71003750D03*
X193367500Y-72273750D03*
%TD*%
M02*
